<?xml version="1.0" encoding="UTF-8"?>
<svg xmlns="http://www.w3.org/2000/svg" viewBox="0 0 461 198" width="461" height="198">
  <!-- Auto-converted from legend-2563.png -->
  <rect x="0" y="0" width="461" height="198" fill="none"/>
  <g fill="#d34da8" stroke="none">
    <rect x="0" y="7" width="461" height="1" fill="#d34da8"/>
    <rect x="0" y="8" width="461" height="1" fill="#d34da8"/>
    <rect x="1" y="9" width="460" height="1" fill="#d34da8"/>
    <rect x="1" y="10" width="460" height="1" fill="#d34da8"/>
    <rect x="1" y="11" width="460" height="1" fill="#d34da8"/>
    <rect x="1" y="12" width="460" height="1" fill="#d34da8"/>
    <rect x="1" y="13" width="460" height="1" fill="#d34da8"/>
    <rect x="1" y="14" width="460" height="1" fill="#d34da8"/>
    <rect x="1" y="15" width="460" height="1" fill="#d34da8"/>
    <rect x="1" y="16" width="460" height="1" fill="#d34da8"/>
    <rect x="1" y="17" width="460" height="1" fill="#d34da8"/>
    <rect x="1" y="18" width="460" height="1" fill="#d34da8"/>
    <rect x="1" y="19" width="460" height="1" fill="#d34da8"/>
    <rect x="1" y="20" width="460" height="1" fill="#d34da8"/>
    <rect x="1" y="21" width="460" height="1" fill="#d34da8"/>
    <rect x="1" y="22" width="460" height="1" fill="#d34da8"/>
    <rect x="1" y="23" width="460" height="1" fill="#d34da8"/>
    <rect x="1" y="24" width="460" height="1" fill="#d34da8"/>
    <rect x="1" y="25" width="460" height="1" fill="#d34da8"/>
    <rect x="1" y="26" width="460" height="1" fill="#d34da8"/>
    <rect x="1" y="27" width="460" height="1" fill="#d34da8"/>
    <rect x="1" y="28" width="460" height="1" fill="#d34da8"/>
    <rect x="1" y="29" width="460" height="1" fill="#d34da8"/>
    <rect x="1" y="30" width="460" height="1" fill="#d34da8"/>
    <rect x="1" y="31" width="460" height="1" fill="#d34da8"/>
    <rect x="1" y="32" width="460" height="1" fill="#d34da8"/>
    <rect x="1" y="33" width="460" height="1" fill="#d34da8"/>
    <rect x="1" y="34" width="460" height="1" fill="#d34da8"/>
    <rect x="1" y="35" width="460" height="1" fill="#d34da8"/>
    <rect x="1" y="36" width="460" height="1" fill="#d34da8"/>
    <rect x="1" y="37" width="460" height="1" fill="#d34da8"/>
    <rect x="1" y="38" width="460" height="1" fill="#d34da8"/>
    <rect x="1" y="39" width="460" height="1" fill="#d34da8"/>
    <rect x="1" y="40" width="460" height="1" fill="#d34da8"/>
    <rect x="1" y="41" width="460" height="1" fill="#d34da8"/>
    <rect x="1" y="42" width="460" height="1" fill="#d34da8"/>
    <rect x="1" y="43" width="460" height="1" fill="#d34da8"/>
    <rect x="1" y="44" width="460" height="1" fill="#d34da8"/>
    <rect x="1" y="45" width="460" height="1" fill="#d34da8"/>
    <rect x="1" y="46" width="460" height="1" fill="#d34da8"/>
    <rect x="1" y="47" width="460" height="1" fill="#d34da8"/>
    <rect x="1" y="48" width="460" height="1" fill="#d34da8"/>
    <rect x="1" y="49" width="460" height="1" fill="#d34da8"/>
    <rect x="1" y="50" width="460" height="1" fill="#d34da8"/>
    <rect x="1" y="51" width="460" height="1" fill="#d34da8"/>
    <rect x="1" y="52" width="460" height="1" fill="#d34da8"/>
    <rect x="1" y="53" width="460" height="1" fill="#d34da8"/>
    <rect x="1" y="54" width="460" height="1" fill="#d34da8"/>
    <rect x="1" y="55" width="460" height="1" fill="#d34da8"/>
    <rect x="1" y="56" width="460" height="1" fill="#d34da8"/>
    <rect x="1" y="57" width="460" height="1" fill="#d34da8"/>
    <rect x="1" y="58" width="460" height="1" fill="#d34da8"/>
    <rect x="1" y="59" width="460" height="1" fill="#d34da8"/>
    <rect x="1" y="60" width="460" height="1" fill="#d34da8"/>
    <rect x="1" y="61" width="460" height="1" fill="#d34da8"/>
    <rect x="1" y="62" width="460" height="1" fill="#d34da8"/>
    <rect x="1" y="63" width="460" height="1" fill="#d34da8"/>
    <rect x="1" y="64" width="460" height="1" fill="#d34da8"/>
    <rect x="1" y="65" width="460" height="1" fill="#d34da8"/>
    <rect x="1" y="66" width="460" height="1" fill="#d34da8"/>
    <rect x="1" y="67" width="460" height="1" fill="#d34da8"/>
    <rect x="1" y="68" width="460" height="1" fill="#d34da8"/>
    <rect x="1" y="69" width="460" height="1" fill="#d34da8"/>
    <rect x="1" y="70" width="460" height="1" fill="#d34da8"/>
    <rect x="1" y="71" width="460" height="1" fill="#d34da8"/>
    <rect x="1" y="72" width="213" height="1" fill="#d34da8"/>
    <rect x="215" y="72" width="246" height="1" fill="#d34da8"/>
    <rect x="1" y="73" width="263" height="1" fill="#d34da8"/>
    <rect x="265" y="73" width="196" height="1" fill="#d34da8"/>
    <rect x="1" y="74" width="460" height="1" fill="#d34da8"/>
    <rect x="1" y="75" width="460" height="1" fill="#d34da8"/>
    <rect x="1" y="76" width="460" height="1" fill="#d34da8"/>
    <rect x="1" y="77" width="460" height="1" fill="#d34da8"/>
    <rect x="1" y="78" width="460" height="1" fill="#d34da8"/>
    <rect x="1" y="79" width="208" height="1" fill="#d34da8"/>
    <rect x="210" y="79" width="251" height="1" fill="#d34da8"/>
    <rect x="1" y="80" width="460" height="1" fill="#d34da8"/>
    <rect x="1" y="81" width="460" height="1" fill="#d34da8"/>
    <rect x="1" y="82" width="460" height="1" fill="#d34da8"/>
    <rect x="1" y="83" width="460" height="1" fill="#d34da8"/>
    <rect x="1" y="84" width="460" height="1" fill="#d34da8"/>
    <rect x="1" y="85" width="460" height="1" fill="#d34da8"/>
    <rect x="1" y="86" width="460" height="1" fill="#d34da8"/>
    <rect x="1" y="87" width="236" height="1" fill="#d34da8"/>
    <rect x="238" y="87" width="223" height="1" fill="#d34da8"/>
    <rect x="1" y="88" width="460" height="1" fill="#d34da8"/>
    <rect x="1" y="89" width="460" height="1" fill="#d34da8"/>
    <rect x="1" y="90" width="460" height="1" fill="#d34da8"/>
    <rect x="1" y="91" width="460" height="1" fill="#d34da8"/>
    <rect x="1" y="92" width="460" height="1" fill="#d34da8"/>
    <rect x="1" y="93" width="460" height="1" fill="#d34da8"/>
    <rect x="1" y="94" width="460" height="1" fill="#d34da8"/>
    <rect x="1" y="95" width="460" height="1" fill="#d34da8"/>
    <rect x="1" y="96" width="221" height="1" fill="#d34da8"/>
    <rect x="223" y="96" width="238" height="1" fill="#d34da8"/>
    <rect x="1" y="97" width="460" height="1" fill="#d34da8"/>
    <rect x="1" y="98" width="460" height="1" fill="#d34da8"/>
    <rect x="1" y="99" width="460" height="1" fill="#d34da8"/>
    <rect x="1" y="100" width="460" height="1" fill="#d34da8"/>
    <rect x="1" y="101" width="460" height="1" fill="#d34da8"/>
    <rect x="1" y="102" width="460" height="1" fill="#d34da8"/>
    <rect x="1" y="103" width="460" height="1" fill="#d34da8"/>
    <rect x="1" y="104" width="460" height="1" fill="#d34da8"/>
    <rect x="1" y="105" width="460" height="1" fill="#d34da8"/>
    <rect x="1" y="106" width="460" height="1" fill="#d34da8"/>
    <rect x="1" y="107" width="460" height="1" fill="#d34da8"/>
    <rect x="1" y="108" width="460" height="1" fill="#d34da8"/>
    <rect x="1" y="109" width="460" height="1" fill="#d34da8"/>
    <rect x="1" y="110" width="460" height="1" fill="#d34da8"/>
    <rect x="1" y="111" width="460" height="1" fill="#d34da8"/>
    <rect x="1" y="112" width="460" height="1" fill="#d34da8"/>
    <rect x="1" y="113" width="460" height="1" fill="#d34da8"/>
    <rect x="1" y="114" width="460" height="1" fill="#d34da8"/>
    <rect x="1" y="115" width="460" height="1" fill="#d34da8"/>
    <rect x="1" y="116" width="460" height="1" fill="#d34da8"/>
    <rect x="1" y="117" width="460" height="1" fill="#d34da8"/>
    <rect x="1" y="118" width="460" height="1" fill="#d34da8"/>
    <rect x="1" y="119" width="460" height="1" fill="#d34da8"/>
    <rect x="1" y="120" width="460" height="1" fill="#d34da8"/>
    <rect x="1" y="121" width="460" height="1" fill="#d34da8"/>
    <rect x="1" y="122" width="460" height="1" fill="#d34da8"/>
    <rect x="1" y="123" width="460" height="1" fill="#d34da8"/>
    <rect x="1" y="124" width="460" height="1" fill="#d34da8"/>
    <rect x="1" y="125" width="460" height="1" fill="#d34da8"/>
    <rect x="1" y="126" width="460" height="1" fill="#d34da8"/>
    <rect x="1" y="127" width="460" height="1" fill="#d34da8"/>
    <rect x="1" y="128" width="460" height="1" fill="#d34da8"/>
    <rect x="1" y="129" width="460" height="1" fill="#d34da8"/>
    <rect x="1" y="130" width="460" height="1" fill="#d34da8"/>
    <rect x="1" y="131" width="460" height="1" fill="#d34da8"/>
    <rect x="1" y="132" width="460" height="1" fill="#d34da8"/>
    <rect x="1" y="133" width="460" height="1" fill="#d34da8"/>
    <rect x="1" y="134" width="460" height="1" fill="#d34da8"/>
    <rect x="1" y="135" width="460" height="1" fill="#d34da8"/>
    <rect x="1" y="136" width="460" height="1" fill="#d34da8"/>
    <rect x="1" y="137" width="460" height="1" fill="#d34da8"/>
    <rect x="1" y="138" width="460" height="1" fill="#d34da8"/>
    <rect x="1" y="139" width="460" height="1" fill="#d34da8"/>
    <rect x="1" y="140" width="460" height="1" fill="#d34da8"/>
    <rect x="1" y="141" width="460" height="1" fill="#d34da8"/>
    <rect x="1" y="142" width="460" height="1" fill="#d34da8"/>
    <rect x="1" y="143" width="460" height="1" fill="#d34da8"/>
    <rect x="1" y="144" width="460" height="1" fill="#d34da8"/>
    <rect x="1" y="145" width="460" height="1" fill="#d34da8"/>
    <rect x="1" y="146" width="460" height="1" fill="#d34da8"/>
    <rect x="1" y="147" width="460" height="1" fill="#d34da8"/>
    <rect x="1" y="148" width="460" height="1" fill="#d34da8"/>
    <rect x="1" y="149" width="460" height="1" fill="#d34da8"/>
    <rect x="1" y="150" width="460" height="1" fill="#d34da8"/>
    <rect x="1" y="151" width="460" height="1" fill="#d34da8"/>
    <rect x="1" y="152" width="460" height="1" fill="#d34da8"/>
    <rect x="1" y="153" width="460" height="1" fill="#d34da8"/>
    <rect x="1" y="154" width="258" height="1" fill="#d34da8"/>
    <rect x="260" y="154" width="201" height="1" fill="#d34da8"/>
    <rect x="1" y="155" width="460" height="1" fill="#d34da8"/>
    <rect x="1" y="156" width="460" height="1" fill="#d34da8"/>
    <rect x="1" y="157" width="460" height="1" fill="#d34da8"/>
    <rect x="1" y="158" width="460" height="1" fill="#d34da8"/>
    <rect x="1" y="159" width="275" height="1" fill="#d34da8"/>
    <rect x="277" y="159" width="184" height="1" fill="#d34da8"/>
    <rect x="1" y="160" width="460" height="1" fill="#d34da8"/>
    <rect x="1" y="161" width="460" height="1" fill="#d34da8"/>
    <rect x="1" y="162" width="460" height="1" fill="#d34da8"/>
    <rect x="1" y="163" width="460" height="1" fill="#d34da8"/>
    <rect x="1" y="164" width="460" height="1" fill="#d34da8"/>
    <rect x="1" y="165" width="460" height="1" fill="#d34da8"/>
    <rect x="1" y="166" width="460" height="1" fill="#d34da8"/>
    <rect x="1" y="167" width="460" height="1" fill="#d34da8"/>
    <rect x="1" y="168" width="460" height="1" fill="#d34da8"/>
    <rect x="1" y="169" width="460" height="1" fill="#d34da8"/>
    <rect x="1" y="170" width="460" height="1" fill="#d34da8"/>
    <rect x="1" y="171" width="460" height="1" fill="#d34da8"/>
    <rect x="1" y="172" width="460" height="1" fill="#d34da8"/>
    <rect x="1" y="173" width="460" height="1" fill="#d34da8"/>
    <rect x="1" y="174" width="460" height="1" fill="#d34da8"/>
    <rect x="1" y="175" width="460" height="1" fill="#d34da8"/>
    <rect x="1" y="176" width="460" height="1" fill="#d34da8"/>
    <rect x="1" y="177" width="460" height="1" fill="#d34da8"/>
    <rect x="1" y="178" width="460" height="1" fill="#d34da8"/>
    <rect x="1" y="179" width="460" height="1" fill="#d34da8"/>
    <rect x="1" y="180" width="460" height="1" fill="#d34da8"/>
    <rect x="1" y="181" width="460" height="1" fill="#d34da8"/>
    <rect x="1" y="182" width="460" height="1" fill="#d34da8"/>
    <rect x="1" y="183" width="460" height="1" fill="#d34da8"/>
    <rect x="1" y="184" width="460" height="1" fill="#d34da8"/>
    <rect x="1" y="185" width="460" height="1" fill="#d34da8"/>
    <rect x="0" y="186" width="461" height="1" fill="#d34da8"/>
    <rect x="1" y="187" width="460" height="1" fill="#d34da8"/>
    <rect x="1" y="188" width="460" height="1" fill="#d34da8"/>
    <rect x="0" y="189" width="461" height="1" fill="#d34da8"/>
    <rect x="0" y="190" width="461" height="1" fill="#d34da8"/>
    <rect x="0" y="191" width="461" height="1" fill="#d34da8"/>
  </g>
</svg>