<?xml version="1.0" encoding="UTF-8"?>
<svg xmlns="http://www.w3.org/2000/svg" viewBox="0 0 168 68" width="168" height="68">
  <!-- Auto-converted from legend-1658.png -->
  <rect x="0" y="0" width="168" height="68" fill="none"/>
  <g fill="#231f20" stroke="none">
    <rect x="0" y="0" width="168" height="1" fill="#231f20"/>
    <rect x="0" y="1" width="1" height="1" fill="#231f20"/>
    <rect x="167" y="1" width="1" height="1" fill="#231f20"/>
    <rect x="0" y="2" width="1" height="1" fill="#231f20"/>
    <rect x="167" y="2" width="1" height="1" fill="#231f20"/>
    <rect x="0" y="3" width="1" height="1" fill="#231f20"/>
    <rect x="167" y="3" width="1" height="1" fill="#231f20"/>
    <rect x="0" y="4" width="1" height="1" fill="#231f20"/>
    <rect x="167" y="4" width="1" height="1" fill="#231f20"/>
    <rect x="0" y="5" width="1" height="1" fill="#231f20"/>
    <rect x="167" y="5" width="1" height="1" fill="#231f20"/>
    <rect x="0" y="6" width="1" height="1" fill="#231f20"/>
    <rect x="34" y="6" width="1" height="1" fill="#231f20"/>
    <rect x="78" y="6" width="1" height="1" fill="#231f20"/>
    <rect x="122" y="6" width="1" height="1" fill="#231f20"/>
    <rect x="167" y="6" width="1" height="1" fill="#231f20"/>
    <rect x="0" y="7" width="1" height="1" fill="#231f20"/>
    <rect x="33" y="7" width="3" height="1" fill="#231f20"/>
    <rect x="77" y="7" width="3" height="1" fill="#231f20"/>
    <rect x="121" y="7" width="3" height="1" fill="#231f20"/>
    <rect x="167" y="7" width="1" height="1" fill="#231f20"/>
    <rect x="0" y="8" width="1" height="1" fill="#231f20"/>
    <rect x="32" y="8" width="1" height="1" fill="#231f20"/>
    <rect x="34" y="8" width="1" height="1" fill="#231f20"/>
    <rect x="36" y="8" width="1" height="1" fill="#231f20"/>
    <rect x="76" y="8" width="1" height="1" fill="#231f20"/>
    <rect x="78" y="8" width="1" height="1" fill="#231f20"/>
    <rect x="80" y="8" width="2" height="1" fill="#231f20"/>
    <rect x="120" y="8" width="1" height="1" fill="#231f20"/>
    <rect x="122" y="8" width="1" height="1" fill="#231f20"/>
    <rect x="124" y="8" width="2" height="1" fill="#231f20"/>
    <rect x="167" y="8" width="1" height="1" fill="#231f20"/>
    <rect x="0" y="9" width="1" height="1" fill="#231f20"/>
    <rect x="30" y="9" width="2" height="1" fill="#231f20"/>
    <rect x="34" y="9" width="1" height="1" fill="#231f20"/>
    <rect x="37" y="9" width="1" height="1" fill="#231f20"/>
    <rect x="75" y="9" width="1" height="1" fill="#231f20"/>
    <rect x="78" y="9" width="1" height="1" fill="#231f20"/>
    <rect x="82" y="9" width="1" height="1" fill="#231f20"/>
    <rect x="119" y="9" width="1" height="1" fill="#231f20"/>
    <rect x="122" y="9" width="1" height="1" fill="#231f20"/>
    <rect x="126" y="9" width="1" height="1" fill="#231f20"/>
    <rect x="167" y="9" width="1" height="1" fill="#231f20"/>
    <rect x="0" y="10" width="1" height="1" fill="#231f20"/>
    <rect x="29" y="10" width="1" height="1" fill="#231f20"/>
    <rect x="34" y="10" width="1" height="1" fill="#231f20"/>
    <rect x="38" y="10" width="1" height="1" fill="#231f20"/>
    <rect x="74" y="10" width="1" height="1" fill="#231f20"/>
    <rect x="78" y="10" width="1" height="1" fill="#231f20"/>
    <rect x="83" y="10" width="1" height="1" fill="#231f20"/>
    <rect x="118" y="10" width="1" height="1" fill="#231f20"/>
    <rect x="122" y="10" width="1" height="1" fill="#231f20"/>
    <rect x="127" y="10" width="1" height="1" fill="#231f20"/>
    <rect x="167" y="10" width="1" height="1" fill="#231f20"/>
    <rect x="0" y="11" width="1" height="1" fill="#231f20"/>
    <rect x="28" y="11" width="1" height="1" fill="#231f20"/>
    <rect x="34" y="11" width="1" height="1" fill="#231f20"/>
    <rect x="39" y="11" width="1" height="1" fill="#231f20"/>
    <rect x="73" y="11" width="1" height="1" fill="#231f20"/>
    <rect x="78" y="11" width="1" height="1" fill="#231f20"/>
    <rect x="84" y="11" width="1" height="1" fill="#231f20"/>
    <rect x="117" y="11" width="1" height="1" fill="#231f20"/>
    <rect x="122" y="11" width="1" height="1" fill="#231f20"/>
    <rect x="128" y="11" width="1" height="1" fill="#231f20"/>
    <rect x="167" y="11" width="1" height="1" fill="#231f20"/>
    <rect x="0" y="12" width="1" height="1" fill="#231f20"/>
    <rect x="29" y="12" width="1" height="1" fill="#231f20"/>
    <rect x="34" y="12" width="1" height="1" fill="#231f20"/>
    <rect x="38" y="12" width="1" height="1" fill="#231f20"/>
    <rect x="74" y="12" width="1" height="1" fill="#231f20"/>
    <rect x="78" y="12" width="1" height="1" fill="#231f20"/>
    <rect x="83" y="12" width="1" height="1" fill="#231f20"/>
    <rect x="118" y="12" width="1" height="1" fill="#231f20"/>
    <rect x="122" y="12" width="1" height="1" fill="#231f20"/>
    <rect x="127" y="12" width="1" height="1" fill="#231f20"/>
    <rect x="167" y="12" width="1" height="1" fill="#231f20"/>
    <rect x="0" y="13" width="1" height="1" fill="#231f20"/>
    <rect x="30" y="13" width="1" height="1" fill="#231f20"/>
    <rect x="34" y="13" width="1" height="1" fill="#231f20"/>
    <rect x="37" y="13" width="1" height="1" fill="#231f20"/>
    <rect x="75" y="13" width="1" height="1" fill="#231f20"/>
    <rect x="78" y="13" width="1" height="1" fill="#231f20"/>
    <rect x="82" y="13" width="1" height="1" fill="#231f20"/>
    <rect x="119" y="13" width="1" height="1" fill="#231f20"/>
    <rect x="122" y="13" width="1" height="1" fill="#231f20"/>
    <rect x="126" y="13" width="1" height="1" fill="#231f20"/>
    <rect x="167" y="13" width="1" height="1" fill="#231f20"/>
    <rect x="0" y="14" width="1" height="1" fill="#231f20"/>
    <rect x="31" y="14" width="1" height="1" fill="#231f20"/>
    <rect x="34" y="14" width="1" height="1" fill="#231f20"/>
    <rect x="36" y="14" width="1" height="1" fill="#231f20"/>
    <rect x="75" y="14" width="1" height="1" fill="#231f20"/>
    <rect x="78" y="14" width="1" height="1" fill="#231f20"/>
    <rect x="81" y="14" width="1" height="1" fill="#231f20"/>
    <rect x="119" y="14" width="1" height="1" fill="#231f20"/>
    <rect x="122" y="14" width="1" height="1" fill="#231f20"/>
    <rect x="125" y="14" width="1" height="1" fill="#231f20"/>
    <rect x="167" y="14" width="1" height="1" fill="#231f20"/>
    <rect x="0" y="15" width="1" height="1" fill="#231f20"/>
    <rect x="32" y="15" width="1" height="1" fill="#231f20"/>
    <rect x="34" y="15" width="1" height="1" fill="#231f20"/>
    <rect x="36" y="15" width="1" height="1" fill="#231f20"/>
    <rect x="76" y="15" width="1" height="1" fill="#231f20"/>
    <rect x="78" y="15" width="1" height="1" fill="#231f20"/>
    <rect x="80" y="15" width="1" height="1" fill="#231f20"/>
    <rect x="120" y="15" width="1" height="1" fill="#231f20"/>
    <rect x="122" y="15" width="1" height="1" fill="#231f20"/>
    <rect x="124" y="15" width="1" height="1" fill="#231f20"/>
    <rect x="167" y="15" width="1" height="1" fill="#231f20"/>
    <rect x="0" y="16" width="1" height="1" fill="#231f20"/>
    <rect x="33" y="16" width="3" height="1" fill="#231f20"/>
    <rect x="77" y="16" width="3" height="1" fill="#231f20"/>
    <rect x="121" y="16" width="3" height="1" fill="#231f20"/>
    <rect x="167" y="16" width="1" height="1" fill="#231f20"/>
    <rect x="0" y="17" width="1" height="1" fill="#231f20"/>
    <rect x="34" y="17" width="1" height="1" fill="#231f20"/>
    <rect x="78" y="17" width="1" height="1" fill="#231f20"/>
    <rect x="122" y="17" width="1" height="1" fill="#231f20"/>
    <rect x="167" y="17" width="1" height="1" fill="#231f20"/>
    <rect x="0" y="18" width="1" height="1" fill="#231f20"/>
    <rect x="167" y="18" width="1" height="1" fill="#231f20"/>
    <rect x="0" y="19" width="1" height="1" fill="#231f20"/>
    <rect x="167" y="19" width="1" height="1" fill="#231f20"/>
    <rect x="0" y="20" width="1" height="1" fill="#231f20"/>
    <rect x="167" y="20" width="1" height="1" fill="#231f20"/>
    <rect x="0" y="21" width="1" height="1" fill="#231f20"/>
    <rect x="167" y="21" width="1" height="1" fill="#231f20"/>
    <rect x="0" y="22" width="168" height="1" fill="#231f20"/>
    <rect x="0" y="23" width="1" height="1" fill="#231f20"/>
    <rect x="167" y="23" width="1" height="1" fill="#231f20"/>
    <rect x="0" y="24" width="1" height="1" fill="#231f20"/>
    <rect x="167" y="24" width="1" height="1" fill="#231f20"/>
    <rect x="0" y="25" width="1" height="1" fill="#231f20"/>
    <rect x="167" y="25" width="1" height="1" fill="#231f20"/>
    <rect x="0" y="26" width="1" height="1" fill="#231f20"/>
    <rect x="167" y="26" width="1" height="1" fill="#231f20"/>
    <rect x="0" y="27" width="1" height="1" fill="#231f20"/>
    <rect x="167" y="27" width="1" height="1" fill="#231f20"/>
    <rect x="0" y="28" width="1" height="1" fill="#231f20"/>
    <rect x="45" y="28" width="1" height="1" fill="#231f20"/>
    <rect x="89" y="28" width="1" height="1" fill="#231f20"/>
    <rect x="134" y="28" width="1" height="1" fill="#231f20"/>
    <rect x="167" y="28" width="1" height="1" fill="#231f20"/>
    <rect x="0" y="29" width="1" height="1" fill="#231f20"/>
    <rect x="44" y="29" width="3" height="1" fill="#231f20"/>
    <rect x="88" y="29" width="3" height="1" fill="#231f20"/>
    <rect x="133" y="29" width="3" height="1" fill="#231f20"/>
    <rect x="167" y="29" width="1" height="1" fill="#231f20"/>
    <rect x="0" y="30" width="1" height="1" fill="#231f20"/>
    <rect x="43" y="30" width="1" height="1" fill="#231f20"/>
    <rect x="45" y="30" width="1" height="1" fill="#231f20"/>
    <rect x="47" y="30" width="1" height="1" fill="#231f20"/>
    <rect x="87" y="30" width="1" height="1" fill="#231f20"/>
    <rect x="89" y="30" width="1" height="1" fill="#231f20"/>
    <rect x="91" y="30" width="2" height="1" fill="#231f20"/>
    <rect x="132" y="30" width="1" height="1" fill="#231f20"/>
    <rect x="134" y="30" width="1" height="1" fill="#231f20"/>
    <rect x="136" y="30" width="1" height="1" fill="#231f20"/>
    <rect x="167" y="30" width="1" height="1" fill="#231f20"/>
    <rect x="0" y="31" width="1" height="1" fill="#231f20"/>
    <rect x="41" y="31" width="2" height="1" fill="#231f20"/>
    <rect x="45" y="31" width="1" height="1" fill="#231f20"/>
    <rect x="48" y="31" width="1" height="1" fill="#231f20"/>
    <rect x="86" y="31" width="1" height="1" fill="#231f20"/>
    <rect x="89" y="31" width="1" height="1" fill="#231f20"/>
    <rect x="93" y="31" width="1" height="1" fill="#231f20"/>
    <rect x="130" y="31" width="2" height="1" fill="#231f20"/>
    <rect x="134" y="31" width="1" height="1" fill="#231f20"/>
    <rect x="137" y="31" width="1" height="1" fill="#231f20"/>
    <rect x="167" y="31" width="1" height="1" fill="#231f20"/>
    <rect x="0" y="32" width="1" height="1" fill="#231f20"/>
    <rect x="40" y="32" width="1" height="1" fill="#231f20"/>
    <rect x="45" y="32" width="1" height="1" fill="#231f20"/>
    <rect x="49" y="32" width="1" height="1" fill="#231f20"/>
    <rect x="85" y="32" width="1" height="1" fill="#231f20"/>
    <rect x="89" y="32" width="1" height="1" fill="#231f20"/>
    <rect x="94" y="32" width="1" height="1" fill="#231f20"/>
    <rect x="129" y="32" width="1" height="1" fill="#231f20"/>
    <rect x="134" y="32" width="1" height="1" fill="#231f20"/>
    <rect x="138" y="32" width="1" height="1" fill="#231f20"/>
    <rect x="167" y="32" width="1" height="1" fill="#231f20"/>
    <rect x="0" y="33" width="1" height="1" fill="#231f20"/>
    <rect x="39" y="33" width="1" height="1" fill="#231f20"/>
    <rect x="45" y="33" width="1" height="1" fill="#231f20"/>
    <rect x="50" y="33" width="1" height="1" fill="#231f20"/>
    <rect x="84" y="33" width="1" height="1" fill="#231f20"/>
    <rect x="89" y="33" width="1" height="1" fill="#231f20"/>
    <rect x="95" y="33" width="1" height="1" fill="#231f20"/>
    <rect x="128" y="33" width="1" height="1" fill="#231f20"/>
    <rect x="134" y="33" width="1" height="1" fill="#231f20"/>
    <rect x="139" y="33" width="1" height="1" fill="#231f20"/>
    <rect x="167" y="33" width="1" height="1" fill="#231f20"/>
    <rect x="0" y="34" width="1" height="1" fill="#231f20"/>
    <rect x="40" y="34" width="1" height="1" fill="#231f20"/>
    <rect x="45" y="34" width="1" height="1" fill="#231f20"/>
    <rect x="49" y="34" width="1" height="1" fill="#231f20"/>
    <rect x="85" y="34" width="1" height="1" fill="#231f20"/>
    <rect x="89" y="34" width="1" height="1" fill="#231f20"/>
    <rect x="94" y="34" width="1" height="1" fill="#231f20"/>
    <rect x="129" y="34" width="1" height="1" fill="#231f20"/>
    <rect x="134" y="34" width="1" height="1" fill="#231f20"/>
    <rect x="138" y="34" width="1" height="1" fill="#231f20"/>
    <rect x="167" y="34" width="1" height="1" fill="#231f20"/>
    <rect x="0" y="35" width="1" height="1" fill="#231f20"/>
    <rect x="41" y="35" width="1" height="1" fill="#231f20"/>
    <rect x="45" y="35" width="1" height="1" fill="#231f20"/>
    <rect x="48" y="35" width="1" height="1" fill="#231f20"/>
    <rect x="86" y="35" width="1" height="1" fill="#231f20"/>
    <rect x="89" y="35" width="1" height="1" fill="#231f20"/>
    <rect x="93" y="35" width="1" height="1" fill="#231f20"/>
    <rect x="130" y="35" width="1" height="1" fill="#231f20"/>
    <rect x="134" y="35" width="1" height="1" fill="#231f20"/>
    <rect x="137" y="35" width="1" height="1" fill="#231f20"/>
    <rect x="167" y="35" width="1" height="1" fill="#231f20"/>
    <rect x="0" y="36" width="1" height="1" fill="#231f20"/>
    <rect x="42" y="36" width="1" height="1" fill="#231f20"/>
    <rect x="45" y="36" width="1" height="1" fill="#231f20"/>
    <rect x="47" y="36" width="1" height="1" fill="#231f20"/>
    <rect x="86" y="36" width="1" height="1" fill="#231f20"/>
    <rect x="89" y="36" width="1" height="1" fill="#231f20"/>
    <rect x="92" y="36" width="1" height="1" fill="#231f20"/>
    <rect x="131" y="36" width="1" height="1" fill="#231f20"/>
    <rect x="134" y="36" width="1" height="1" fill="#231f20"/>
    <rect x="136" y="36" width="1" height="1" fill="#231f20"/>
    <rect x="167" y="36" width="1" height="1" fill="#231f20"/>
    <rect x="0" y="37" width="1" height="1" fill="#231f20"/>
    <rect x="43" y="37" width="1" height="1" fill="#231f20"/>
    <rect x="45" y="37" width="1" height="1" fill="#231f20"/>
    <rect x="47" y="37" width="1" height="1" fill="#231f20"/>
    <rect x="87" y="37" width="1" height="1" fill="#231f20"/>
    <rect x="89" y="37" width="1" height="1" fill="#231f20"/>
    <rect x="91" y="37" width="1" height="1" fill="#231f20"/>
    <rect x="132" y="37" width="1" height="1" fill="#231f20"/>
    <rect x="134" y="37" width="1" height="1" fill="#231f20"/>
    <rect x="136" y="37" width="1" height="1" fill="#231f20"/>
    <rect x="167" y="37" width="1" height="1" fill="#231f20"/>
    <rect x="0" y="38" width="1" height="1" fill="#231f20"/>
    <rect x="44" y="38" width="3" height="1" fill="#231f20"/>
    <rect x="88" y="38" width="3" height="1" fill="#231f20"/>
    <rect x="133" y="38" width="3" height="1" fill="#231f20"/>
    <rect x="167" y="38" width="1" height="1" fill="#231f20"/>
    <rect x="0" y="39" width="1" height="1" fill="#231f20"/>
    <rect x="45" y="39" width="1" height="1" fill="#231f20"/>
    <rect x="89" y="39" width="1" height="1" fill="#231f20"/>
    <rect x="134" y="39" width="1" height="1" fill="#231f20"/>
    <rect x="167" y="39" width="1" height="1" fill="#231f20"/>
    <rect x="0" y="40" width="1" height="1" fill="#231f20"/>
    <rect x="167" y="40" width="1" height="1" fill="#231f20"/>
    <rect x="0" y="41" width="1" height="1" fill="#231f20"/>
    <rect x="167" y="41" width="1" height="1" fill="#231f20"/>
    <rect x="0" y="42" width="1" height="1" fill="#231f20"/>
    <rect x="167" y="42" width="1" height="1" fill="#231f20"/>
    <rect x="0" y="43" width="1" height="1" fill="#231f20"/>
    <rect x="167" y="43" width="1" height="1" fill="#231f20"/>
    <rect x="0" y="44" width="168" height="1" fill="#231f20"/>
    <rect x="0" y="45" width="1" height="1" fill="#231f20"/>
    <rect x="167" y="45" width="1" height="1" fill="#231f20"/>
    <rect x="0" y="46" width="1" height="1" fill="#231f20"/>
    <rect x="167" y="46" width="1" height="1" fill="#231f20"/>
    <rect x="0" y="47" width="1" height="1" fill="#231f20"/>
    <rect x="167" y="47" width="1" height="1" fill="#231f20"/>
    <rect x="0" y="48" width="1" height="1" fill="#231f20"/>
    <rect x="167" y="48" width="1" height="1" fill="#231f20"/>
    <rect x="0" y="49" width="1" height="1" fill="#231f20"/>
    <rect x="167" y="49" width="1" height="1" fill="#231f20"/>
    <rect x="0" y="50" width="1" height="1" fill="#231f20"/>
    <rect x="34" y="50" width="1" height="1" fill="#231f20"/>
    <rect x="78" y="50" width="1" height="1" fill="#231f20"/>
    <rect x="122" y="50" width="1" height="1" fill="#231f20"/>
    <rect x="167" y="50" width="1" height="1" fill="#231f20"/>
    <rect x="0" y="51" width="1" height="1" fill="#231f20"/>
    <rect x="33" y="51" width="3" height="1" fill="#231f20"/>
    <rect x="77" y="51" width="3" height="1" fill="#231f20"/>
    <rect x="121" y="51" width="3" height="1" fill="#231f20"/>
    <rect x="167" y="51" width="1" height="1" fill="#231f20"/>
    <rect x="0" y="52" width="1" height="1" fill="#231f20"/>
    <rect x="32" y="52" width="1" height="1" fill="#231f20"/>
    <rect x="34" y="52" width="1" height="1" fill="#231f20"/>
    <rect x="36" y="52" width="1" height="1" fill="#231f20"/>
    <rect x="76" y="52" width="1" height="1" fill="#231f20"/>
    <rect x="78" y="52" width="1" height="1" fill="#231f20"/>
    <rect x="80" y="52" width="1" height="1" fill="#231f20"/>
    <rect x="120" y="52" width="1" height="1" fill="#231f20"/>
    <rect x="122" y="52" width="1" height="1" fill="#231f20"/>
    <rect x="124" y="52" width="1" height="1" fill="#231f20"/>
    <rect x="167" y="52" width="1" height="1" fill="#231f20"/>
    <rect x="0" y="53" width="1" height="1" fill="#231f20"/>
    <rect x="31" y="53" width="1" height="1" fill="#231f20"/>
    <rect x="34" y="53" width="1" height="1" fill="#231f20"/>
    <rect x="37" y="53" width="1" height="1" fill="#231f20"/>
    <rect x="75" y="53" width="1" height="1" fill="#231f20"/>
    <rect x="78" y="53" width="1" height="1" fill="#231f20"/>
    <rect x="81" y="53" width="1" height="1" fill="#231f20"/>
    <rect x="119" y="53" width="1" height="1" fill="#231f20"/>
    <rect x="122" y="53" width="1" height="1" fill="#231f20"/>
    <rect x="125" y="53" width="1" height="1" fill="#231f20"/>
    <rect x="167" y="53" width="1" height="1" fill="#231f20"/>
    <rect x="0" y="54" width="1" height="1" fill="#231f20"/>
    <rect x="30" y="54" width="1" height="1" fill="#231f20"/>
    <rect x="34" y="54" width="1" height="1" fill="#231f20"/>
    <rect x="37" y="54" width="1" height="1" fill="#231f20"/>
    <rect x="75" y="54" width="1" height="1" fill="#231f20"/>
    <rect x="78" y="54" width="1" height="1" fill="#231f20"/>
    <rect x="82" y="54" width="1" height="1" fill="#231f20"/>
    <rect x="119" y="54" width="1" height="1" fill="#231f20"/>
    <rect x="122" y="54" width="1" height="1" fill="#231f20"/>
    <rect x="126" y="54" width="1" height="1" fill="#231f20"/>
    <rect x="167" y="54" width="1" height="1" fill="#231f20"/>
    <rect x="0" y="55" width="1" height="1" fill="#231f20"/>
    <rect x="29" y="55" width="1" height="1" fill="#231f20"/>
    <rect x="34" y="55" width="1" height="1" fill="#231f20"/>
    <rect x="38" y="55" width="1" height="1" fill="#231f20"/>
    <rect x="74" y="55" width="1" height="1" fill="#231f20"/>
    <rect x="78" y="55" width="1" height="1" fill="#231f20"/>
    <rect x="83" y="55" width="1" height="1" fill="#231f20"/>
    <rect x="118" y="55" width="1" height="1" fill="#231f20"/>
    <rect x="122" y="55" width="1" height="1" fill="#231f20"/>
    <rect x="127" y="55" width="1" height="1" fill="#231f20"/>
    <rect x="167" y="55" width="1" height="1" fill="#231f20"/>
    <rect x="0" y="56" width="1" height="1" fill="#231f20"/>
    <rect x="28" y="56" width="1" height="1" fill="#231f20"/>
    <rect x="34" y="56" width="1" height="1" fill="#231f20"/>
    <rect x="39" y="56" width="1" height="1" fill="#231f20"/>
    <rect x="73" y="56" width="1" height="1" fill="#231f20"/>
    <rect x="78" y="56" width="1" height="1" fill="#231f20"/>
    <rect x="84" y="56" width="1" height="1" fill="#231f20"/>
    <rect x="117" y="56" width="1" height="1" fill="#231f20"/>
    <rect x="122" y="56" width="1" height="1" fill="#231f20"/>
    <rect x="128" y="56" width="1" height="1" fill="#231f20"/>
    <rect x="167" y="56" width="1" height="1" fill="#231f20"/>
    <rect x="0" y="57" width="1" height="1" fill="#231f20"/>
    <rect x="29" y="57" width="1" height="1" fill="#231f20"/>
    <rect x="34" y="57" width="1" height="1" fill="#231f20"/>
    <rect x="38" y="57" width="1" height="1" fill="#231f20"/>
    <rect x="74" y="57" width="1" height="1" fill="#231f20"/>
    <rect x="78" y="57" width="1" height="1" fill="#231f20"/>
    <rect x="83" y="57" width="1" height="1" fill="#231f20"/>
    <rect x="118" y="57" width="1" height="1" fill="#231f20"/>
    <rect x="122" y="57" width="1" height="1" fill="#231f20"/>
    <rect x="127" y="57" width="1" height="1" fill="#231f20"/>
    <rect x="167" y="57" width="1" height="1" fill="#231f20"/>
    <rect x="0" y="58" width="1" height="1" fill="#231f20"/>
    <rect x="30" y="58" width="1" height="1" fill="#231f20"/>
    <rect x="34" y="58" width="1" height="1" fill="#231f20"/>
    <rect x="37" y="58" width="1" height="1" fill="#231f20"/>
    <rect x="75" y="58" width="1" height="1" fill="#231f20"/>
    <rect x="78" y="58" width="1" height="1" fill="#231f20"/>
    <rect x="81" y="58" width="2" height="1" fill="#231f20"/>
    <rect x="119" y="58" width="1" height="1" fill="#231f20"/>
    <rect x="122" y="58" width="1" height="1" fill="#231f20"/>
    <rect x="125" y="58" width="2" height="1" fill="#231f20"/>
    <rect x="167" y="58" width="1" height="1" fill="#231f20"/>
    <rect x="0" y="59" width="1" height="1" fill="#231f20"/>
    <rect x="31" y="59" width="2" height="1" fill="#231f20"/>
    <rect x="34" y="59" width="1" height="1" fill="#231f20"/>
    <rect x="36" y="59" width="1" height="1" fill="#231f20"/>
    <rect x="76" y="59" width="1" height="1" fill="#231f20"/>
    <rect x="78" y="59" width="1" height="1" fill="#231f20"/>
    <rect x="80" y="59" width="1" height="1" fill="#231f20"/>
    <rect x="120" y="59" width="1" height="1" fill="#231f20"/>
    <rect x="122" y="59" width="1" height="1" fill="#231f20"/>
    <rect x="124" y="59" width="1" height="1" fill="#231f20"/>
    <rect x="167" y="59" width="1" height="1" fill="#231f20"/>
    <rect x="0" y="60" width="1" height="1" fill="#231f20"/>
    <rect x="33" y="60" width="3" height="1" fill="#231f20"/>
    <rect x="77" y="60" width="3" height="1" fill="#231f20"/>
    <rect x="121" y="60" width="3" height="1" fill="#231f20"/>
    <rect x="167" y="60" width="1" height="1" fill="#231f20"/>
    <rect x="0" y="61" width="1" height="1" fill="#231f20"/>
    <rect x="34" y="61" width="1" height="1" fill="#231f20"/>
    <rect x="78" y="61" width="1" height="1" fill="#231f20"/>
    <rect x="122" y="61" width="1" height="1" fill="#231f20"/>
    <rect x="167" y="61" width="1" height="1" fill="#231f20"/>
    <rect x="0" y="62" width="1" height="1" fill="#231f20"/>
    <rect x="167" y="62" width="1" height="1" fill="#231f20"/>
    <rect x="0" y="63" width="1" height="1" fill="#231f20"/>
    <rect x="167" y="63" width="1" height="1" fill="#231f20"/>
    <rect x="0" y="64" width="1" height="1" fill="#231f20"/>
    <rect x="167" y="64" width="1" height="1" fill="#231f20"/>
    <rect x="0" y="65" width="1" height="1" fill="#231f20"/>
    <rect x="167" y="65" width="1" height="1" fill="#231f20"/>
    <rect x="0" y="66" width="1" height="1" fill="#231f20"/>
    <rect x="167" y="66" width="1" height="1" fill="#231f20"/>
    <rect x="0" y="67" width="168" height="1" fill="#231f20"/>
  </g>
</svg>