<?xml version="1.0" encoding="UTF-8"?>
<svg xmlns="http://www.w3.org/2000/svg" viewBox="0 0 138 61" width="138" height="61">
  <!-- Auto-converted from legend-1739.png -->
  <rect x="0" y="0" width="138" height="61" fill="none"/>
  <g fill="#231f20" stroke="none">
    <rect x="0" y="0" width="138" height="1" fill="#231f20"/>
    <rect x="11" y="5" width="1" height="1" fill="#231f20"/>
    <rect x="21" y="5" width="1" height="1" fill="#231f20"/>
    <rect x="37" y="5" width="11" height="1" fill="#231f20"/>
    <rect x="91" y="5" width="1" height="1" fill="#231f20"/>
    <rect x="94" y="5" width="1" height="1" fill="#231f20"/>
    <rect x="116" y="5" width="1" height="1" fill="#231f20"/>
    <rect x="119" y="5" width="1" height="1" fill="#231f20"/>
    <rect x="12" y="6" width="1" height="1" fill="#231f20"/>
    <rect x="21" y="6" width="1" height="1" fill="#231f20"/>
    <rect x="42" y="6" width="1" height="1" fill="#231f20"/>
    <rect x="91" y="6" width="1" height="1" fill="#231f20"/>
    <rect x="94" y="6" width="1" height="1" fill="#231f20"/>
    <rect x="116" y="6" width="1" height="1" fill="#231f20"/>
    <rect x="119" y="6" width="1" height="1" fill="#231f20"/>
    <rect x="12" y="7" width="1" height="1" fill="#231f20"/>
    <rect x="20" y="7" width="1" height="1" fill="#231f20"/>
    <rect x="42" y="7" width="1" height="1" fill="#231f20"/>
    <rect x="63" y="7" width="3" height="1" fill="#231f20"/>
    <rect x="67" y="7" width="3" height="1" fill="#231f20"/>
    <rect x="90" y="7" width="1" height="1" fill="#231f20"/>
    <rect x="95" y="7" width="1" height="1" fill="#231f20"/>
    <rect x="115" y="7" width="1" height="1" fill="#231f20"/>
    <rect x="120" y="7" width="1" height="1" fill="#231f20"/>
    <rect x="13" y="8" width="1" height="1" fill="#231f20"/>
    <rect x="20" y="8" width="1" height="1" fill="#231f20"/>
    <rect x="42" y="8" width="1" height="1" fill="#231f20"/>
    <rect x="64" y="8" width="2" height="1" fill="#231f20"/>
    <rect x="67" y="8" width="2" height="1" fill="#231f20"/>
    <rect x="90" y="8" width="1" height="1" fill="#231f20"/>
    <rect x="95" y="8" width="1" height="1" fill="#231f20"/>
    <rect x="115" y="8" width="1" height="1" fill="#231f20"/>
    <rect x="120" y="8" width="1" height="1" fill="#231f20"/>
    <rect x="13" y="9" width="1" height="1" fill="#231f20"/>
    <rect x="19" y="9" width="1" height="1" fill="#231f20"/>
    <rect x="42" y="9" width="1" height="1" fill="#231f20"/>
    <rect x="64" y="9" width="2" height="1" fill="#231f20"/>
    <rect x="67" y="9" width="2" height="1" fill="#231f20"/>
    <rect x="89" y="9" width="1" height="1" fill="#231f20"/>
    <rect x="95" y="9" width="1" height="1" fill="#231f20"/>
    <rect x="115" y="9" width="1" height="1" fill="#231f20"/>
    <rect x="121" y="9" width="1" height="1" fill="#231f20"/>
    <rect x="14" y="10" width="1" height="1" fill="#231f20"/>
    <rect x="19" y="10" width="1" height="1" fill="#231f20"/>
    <rect x="42" y="10" width="1" height="1" fill="#231f20"/>
    <rect x="64" y="10" width="2" height="1" fill="#231f20"/>
    <rect x="67" y="10" width="2" height="1" fill="#231f20"/>
    <rect x="89" y="10" width="1" height="1" fill="#231f20"/>
    <rect x="95" y="10" width="1" height="1" fill="#231f20"/>
    <rect x="114" y="10" width="1" height="1" fill="#231f20"/>
    <rect x="121" y="10" width="1" height="1" fill="#231f20"/>
    <rect x="14" y="11" width="1" height="1" fill="#231f20"/>
    <rect x="18" y="11" width="1" height="1" fill="#231f20"/>
    <rect x="42" y="11" width="1" height="1" fill="#231f20"/>
    <rect x="64" y="11" width="1" height="1" fill="#231f20"/>
    <rect x="66" y="11" width="1" height="1" fill="#231f20"/>
    <rect x="68" y="11" width="1" height="1" fill="#231f20"/>
    <rect x="89" y="11" width="1" height="1" fill="#231f20"/>
    <rect x="96" y="11" width="1" height="1" fill="#231f20"/>
    <rect x="114" y="11" width="1" height="1" fill="#231f20"/>
    <rect x="121" y="11" width="1" height="1" fill="#231f20"/>
    <rect x="15" y="12" width="1" height="1" fill="#231f20"/>
    <rect x="18" y="12" width="1" height="1" fill="#231f20"/>
    <rect x="42" y="12" width="1" height="1" fill="#231f20"/>
    <rect x="64" y="12" width="1" height="1" fill="#231f20"/>
    <rect x="66" y="12" width="1" height="1" fill="#231f20"/>
    <rect x="68" y="12" width="1" height="1" fill="#231f20"/>
    <rect x="88" y="12" width="1" height="1" fill="#231f20"/>
    <rect x="96" y="12" width="1" height="1" fill="#231f20"/>
    <rect x="114" y="12" width="1" height="1" fill="#231f20"/>
    <rect x="122" y="12" width="1" height="1" fill="#231f20"/>
    <rect x="15" y="13" width="1" height="1" fill="#231f20"/>
    <rect x="17" y="13" width="1" height="1" fill="#231f20"/>
    <rect x="42" y="13" width="1" height="1" fill="#231f20"/>
    <rect x="64" y="13" width="1" height="1" fill="#231f20"/>
    <rect x="66" y="13" width="1" height="1" fill="#231f20"/>
    <rect x="68" y="13" width="1" height="1" fill="#231f20"/>
    <rect x="88" y="13" width="1" height="1" fill="#231f20"/>
    <rect x="96" y="13" width="1" height="1" fill="#231f20"/>
    <rect x="114" y="13" width="1" height="1" fill="#231f20"/>
    <rect x="122" y="13" width="1" height="1" fill="#231f20"/>
    <rect x="16" y="14" width="2" height="1" fill="#231f20"/>
    <rect x="42" y="14" width="1" height="1" fill="#231f20"/>
    <rect x="64" y="14" width="1" height="1" fill="#231f20"/>
    <rect x="66" y="14" width="1" height="1" fill="#231f20"/>
    <rect x="68" y="14" width="1" height="1" fill="#231f20"/>
    <rect x="87" y="14" width="1" height="1" fill="#231f20"/>
    <rect x="97" y="14" width="1" height="1" fill="#231f20"/>
    <rect x="113" y="14" width="1" height="1" fill="#231f20"/>
    <rect x="123" y="14" width="1" height="1" fill="#231f20"/>
    <rect x="16" y="15" width="1" height="1" fill="#231f20"/>
    <rect x="42" y="15" width="1" height="1" fill="#231f20"/>
    <rect x="63" y="15" width="2" height="1" fill="#231f20"/>
    <rect x="66" y="15" width="1" height="1" fill="#231f20"/>
    <rect x="68" y="15" width="2" height="1" fill="#231f20"/>
    <rect x="87" y="15" width="1" height="1" fill="#231f20"/>
    <rect x="97" y="15" width="1" height="1" fill="#231f20"/>
    <rect x="113" y="15" width="1" height="1" fill="#231f20"/>
    <rect x="123" y="15" width="1" height="1" fill="#231f20"/>
    <rect x="0" y="20" width="138" height="1" fill="#231f20"/>
    <rect x="20" y="25" width="1" height="1" fill="#231f20"/>
    <rect x="23" y="25" width="1" height="1" fill="#231f20"/>
    <rect x="45" y="25" width="1" height="1" fill="#231f20"/>
    <rect x="48" y="25" width="1" height="1" fill="#231f20"/>
    <rect x="92" y="25" width="11" height="1" fill="#231f20"/>
    <rect x="118" y="25" width="1" height="1" fill="#231f20"/>
    <rect x="128" y="25" width="1" height="1" fill="#231f20"/>
    <rect x="20" y="26" width="1" height="1" fill="#231f20"/>
    <rect x="23" y="26" width="1" height="1" fill="#231f20"/>
    <rect x="45" y="26" width="1" height="1" fill="#231f20"/>
    <rect x="48" y="26" width="1" height="1" fill="#231f20"/>
    <rect x="97" y="26" width="1" height="1" fill="#231f20"/>
    <rect x="119" y="26" width="1" height="1" fill="#231f20"/>
    <rect x="128" y="26" width="1" height="1" fill="#231f20"/>
    <rect x="19" y="27" width="1" height="1" fill="#231f20"/>
    <rect x="24" y="27" width="1" height="1" fill="#231f20"/>
    <rect x="44" y="27" width="1" height="1" fill="#231f20"/>
    <rect x="49" y="27" width="1" height="1" fill="#231f20"/>
    <rect x="68" y="27" width="3" height="1" fill="#231f20"/>
    <rect x="72" y="27" width="3" height="1" fill="#231f20"/>
    <rect x="97" y="27" width="1" height="1" fill="#231f20"/>
    <rect x="119" y="27" width="1" height="1" fill="#231f20"/>
    <rect x="127" y="27" width="1" height="1" fill="#231f20"/>
    <rect x="19" y="28" width="1" height="1" fill="#231f20"/>
    <rect x="24" y="28" width="1" height="1" fill="#231f20"/>
    <rect x="44" y="28" width="1" height="1" fill="#231f20"/>
    <rect x="49" y="28" width="1" height="1" fill="#231f20"/>
    <rect x="69" y="28" width="2" height="1" fill="#231f20"/>
    <rect x="72" y="28" width="2" height="1" fill="#231f20"/>
    <rect x="97" y="28" width="1" height="1" fill="#231f20"/>
    <rect x="120" y="28" width="1" height="1" fill="#231f20"/>
    <rect x="127" y="28" width="1" height="1" fill="#231f20"/>
    <rect x="18" y="29" width="1" height="1" fill="#231f20"/>
    <rect x="24" y="29" width="1" height="1" fill="#231f20"/>
    <rect x="44" y="29" width="1" height="1" fill="#231f20"/>
    <rect x="50" y="29" width="1" height="1" fill="#231f20"/>
    <rect x="69" y="29" width="2" height="1" fill="#231f20"/>
    <rect x="72" y="29" width="2" height="1" fill="#231f20"/>
    <rect x="97" y="29" width="1" height="1" fill="#231f20"/>
    <rect x="120" y="29" width="1" height="1" fill="#231f20"/>
    <rect x="126" y="29" width="1" height="1" fill="#231f20"/>
    <rect x="18" y="30" width="1" height="1" fill="#231f20"/>
    <rect x="24" y="30" width="1" height="1" fill="#231f20"/>
    <rect x="43" y="30" width="1" height="1" fill="#231f20"/>
    <rect x="50" y="30" width="1" height="1" fill="#231f20"/>
    <rect x="69" y="30" width="2" height="1" fill="#231f20"/>
    <rect x="72" y="30" width="2" height="1" fill="#231f20"/>
    <rect x="97" y="30" width="1" height="1" fill="#231f20"/>
    <rect x="121" y="30" width="1" height="1" fill="#231f20"/>
    <rect x="126" y="30" width="1" height="1" fill="#231f20"/>
    <rect x="18" y="31" width="1" height="1" fill="#231f20"/>
    <rect x="25" y="31" width="1" height="1" fill="#231f20"/>
    <rect x="43" y="31" width="1" height="1" fill="#231f20"/>
    <rect x="50" y="31" width="1" height="1" fill="#231f20"/>
    <rect x="69" y="31" width="1" height="1" fill="#231f20"/>
    <rect x="71" y="31" width="1" height="1" fill="#231f20"/>
    <rect x="73" y="31" width="1" height="1" fill="#231f20"/>
    <rect x="97" y="31" width="1" height="1" fill="#231f20"/>
    <rect x="121" y="31" width="1" height="1" fill="#231f20"/>
    <rect x="125" y="31" width="1" height="1" fill="#231f20"/>
    <rect x="17" y="32" width="1" height="1" fill="#231f20"/>
    <rect x="25" y="32" width="1" height="1" fill="#231f20"/>
    <rect x="43" y="32" width="1" height="1" fill="#231f20"/>
    <rect x="51" y="32" width="1" height="1" fill="#231f20"/>
    <rect x="69" y="32" width="1" height="1" fill="#231f20"/>
    <rect x="71" y="32" width="1" height="1" fill="#231f20"/>
    <rect x="73" y="32" width="1" height="1" fill="#231f20"/>
    <rect x="97" y="32" width="1" height="1" fill="#231f20"/>
    <rect x="122" y="32" width="1" height="1" fill="#231f20"/>
    <rect x="125" y="32" width="1" height="1" fill="#231f20"/>
    <rect x="17" y="33" width="1" height="1" fill="#231f20"/>
    <rect x="25" y="33" width="1" height="1" fill="#231f20"/>
    <rect x="43" y="33" width="1" height="1" fill="#231f20"/>
    <rect x="51" y="33" width="1" height="1" fill="#231f20"/>
    <rect x="69" y="33" width="1" height="1" fill="#231f20"/>
    <rect x="71" y="33" width="1" height="1" fill="#231f20"/>
    <rect x="73" y="33" width="1" height="1" fill="#231f20"/>
    <rect x="97" y="33" width="1" height="1" fill="#231f20"/>
    <rect x="122" y="33" width="1" height="1" fill="#231f20"/>
    <rect x="124" y="33" width="1" height="1" fill="#231f20"/>
    <rect x="16" y="34" width="1" height="1" fill="#231f20"/>
    <rect x="26" y="34" width="1" height="1" fill="#231f20"/>
    <rect x="42" y="34" width="1" height="1" fill="#231f20"/>
    <rect x="52" y="34" width="1" height="1" fill="#231f20"/>
    <rect x="69" y="34" width="1" height="1" fill="#231f20"/>
    <rect x="71" y="34" width="1" height="1" fill="#231f20"/>
    <rect x="73" y="34" width="1" height="1" fill="#231f20"/>
    <rect x="97" y="34" width="1" height="1" fill="#231f20"/>
    <rect x="123" y="34" width="2" height="1" fill="#231f20"/>
    <rect x="16" y="35" width="1" height="1" fill="#231f20"/>
    <rect x="26" y="35" width="1" height="1" fill="#231f20"/>
    <rect x="42" y="35" width="1" height="1" fill="#231f20"/>
    <rect x="52" y="35" width="1" height="1" fill="#231f20"/>
    <rect x="68" y="35" width="2" height="1" fill="#231f20"/>
    <rect x="71" y="35" width="1" height="1" fill="#231f20"/>
    <rect x="73" y="35" width="2" height="1" fill="#231f20"/>
    <rect x="97" y="35" width="1" height="1" fill="#231f20"/>
    <rect x="123" y="35" width="1" height="1" fill="#231f20"/>
    <rect x="0" y="40" width="138" height="1" fill="#231f20"/>
    <rect x="11" y="45" width="1" height="1" fill="#231f20"/>
    <rect x="21" y="45" width="1" height="1" fill="#231f20"/>
    <rect x="37" y="45" width="11" height="1" fill="#231f20"/>
    <rect x="91" y="45" width="1" height="1" fill="#231f20"/>
    <rect x="94" y="45" width="1" height="1" fill="#231f20"/>
    <rect x="116" y="45" width="1" height="1" fill="#231f20"/>
    <rect x="119" y="45" width="1" height="1" fill="#231f20"/>
    <rect x="12" y="46" width="1" height="1" fill="#231f20"/>
    <rect x="21" y="46" width="1" height="1" fill="#231f20"/>
    <rect x="42" y="46" width="1" height="1" fill="#231f20"/>
    <rect x="91" y="46" width="1" height="1" fill="#231f20"/>
    <rect x="94" y="46" width="1" height="1" fill="#231f20"/>
    <rect x="116" y="46" width="1" height="1" fill="#231f20"/>
    <rect x="119" y="46" width="1" height="1" fill="#231f20"/>
    <rect x="12" y="47" width="1" height="1" fill="#231f20"/>
    <rect x="20" y="47" width="1" height="1" fill="#231f20"/>
    <rect x="42" y="47" width="1" height="1" fill="#231f20"/>
    <rect x="63" y="47" width="3" height="1" fill="#231f20"/>
    <rect x="67" y="47" width="3" height="1" fill="#231f20"/>
    <rect x="90" y="47" width="1" height="1" fill="#231f20"/>
    <rect x="95" y="47" width="1" height="1" fill="#231f20"/>
    <rect x="115" y="47" width="1" height="1" fill="#231f20"/>
    <rect x="120" y="47" width="1" height="1" fill="#231f20"/>
    <rect x="13" y="48" width="1" height="1" fill="#231f20"/>
    <rect x="20" y="48" width="1" height="1" fill="#231f20"/>
    <rect x="42" y="48" width="1" height="1" fill="#231f20"/>
    <rect x="64" y="48" width="2" height="1" fill="#231f20"/>
    <rect x="67" y="48" width="2" height="1" fill="#231f20"/>
    <rect x="90" y="48" width="1" height="1" fill="#231f20"/>
    <rect x="95" y="48" width="1" height="1" fill="#231f20"/>
    <rect x="115" y="48" width="1" height="1" fill="#231f20"/>
    <rect x="120" y="48" width="1" height="1" fill="#231f20"/>
    <rect x="13" y="49" width="1" height="1" fill="#231f20"/>
    <rect x="19" y="49" width="1" height="1" fill="#231f20"/>
    <rect x="42" y="49" width="1" height="1" fill="#231f20"/>
    <rect x="64" y="49" width="2" height="1" fill="#231f20"/>
    <rect x="67" y="49" width="2" height="1" fill="#231f20"/>
    <rect x="89" y="49" width="1" height="1" fill="#231f20"/>
    <rect x="95" y="49" width="1" height="1" fill="#231f20"/>
    <rect x="115" y="49" width="1" height="1" fill="#231f20"/>
    <rect x="121" y="49" width="1" height="1" fill="#231f20"/>
    <rect x="14" y="50" width="1" height="1" fill="#231f20"/>
    <rect x="19" y="50" width="1" height="1" fill="#231f20"/>
    <rect x="42" y="50" width="1" height="1" fill="#231f20"/>
    <rect x="64" y="50" width="2" height="1" fill="#231f20"/>
    <rect x="67" y="50" width="2" height="1" fill="#231f20"/>
    <rect x="89" y="50" width="1" height="1" fill="#231f20"/>
    <rect x="95" y="50" width="1" height="1" fill="#231f20"/>
    <rect x="114" y="50" width="1" height="1" fill="#231f20"/>
    <rect x="121" y="50" width="1" height="1" fill="#231f20"/>
    <rect x="14" y="51" width="1" height="1" fill="#231f20"/>
    <rect x="18" y="51" width="1" height="1" fill="#231f20"/>
    <rect x="42" y="51" width="1" height="1" fill="#231f20"/>
    <rect x="64" y="51" width="1" height="1" fill="#231f20"/>
    <rect x="66" y="51" width="1" height="1" fill="#231f20"/>
    <rect x="68" y="51" width="1" height="1" fill="#231f20"/>
    <rect x="89" y="51" width="1" height="1" fill="#231f20"/>
    <rect x="96" y="51" width="1" height="1" fill="#231f20"/>
    <rect x="114" y="51" width="1" height="1" fill="#231f20"/>
    <rect x="121" y="51" width="1" height="1" fill="#231f20"/>
    <rect x="15" y="52" width="1" height="1" fill="#231f20"/>
    <rect x="18" y="52" width="1" height="1" fill="#231f20"/>
    <rect x="42" y="52" width="1" height="1" fill="#231f20"/>
    <rect x="64" y="52" width="1" height="1" fill="#231f20"/>
    <rect x="66" y="52" width="1" height="1" fill="#231f20"/>
    <rect x="68" y="52" width="1" height="1" fill="#231f20"/>
    <rect x="88" y="52" width="1" height="1" fill="#231f20"/>
    <rect x="96" y="52" width="1" height="1" fill="#231f20"/>
    <rect x="114" y="52" width="1" height="1" fill="#231f20"/>
    <rect x="122" y="52" width="1" height="1" fill="#231f20"/>
    <rect x="15" y="53" width="1" height="1" fill="#231f20"/>
    <rect x="17" y="53" width="1" height="1" fill="#231f20"/>
    <rect x="42" y="53" width="1" height="1" fill="#231f20"/>
    <rect x="64" y="53" width="1" height="1" fill="#231f20"/>
    <rect x="66" y="53" width="1" height="1" fill="#231f20"/>
    <rect x="68" y="53" width="1" height="1" fill="#231f20"/>
    <rect x="88" y="53" width="1" height="1" fill="#231f20"/>
    <rect x="96" y="53" width="1" height="1" fill="#231f20"/>
    <rect x="114" y="53" width="1" height="1" fill="#231f20"/>
    <rect x="122" y="53" width="1" height="1" fill="#231f20"/>
    <rect x="16" y="54" width="2" height="1" fill="#231f20"/>
    <rect x="42" y="54" width="1" height="1" fill="#231f20"/>
    <rect x="64" y="54" width="1" height="1" fill="#231f20"/>
    <rect x="66" y="54" width="1" height="1" fill="#231f20"/>
    <rect x="68" y="54" width="1" height="1" fill="#231f20"/>
    <rect x="87" y="54" width="1" height="1" fill="#231f20"/>
    <rect x="97" y="54" width="1" height="1" fill="#231f20"/>
    <rect x="113" y="54" width="1" height="1" fill="#231f20"/>
    <rect x="123" y="54" width="1" height="1" fill="#231f20"/>
    <rect x="16" y="55" width="1" height="1" fill="#231f20"/>
    <rect x="42" y="55" width="1" height="1" fill="#231f20"/>
    <rect x="63" y="55" width="2" height="1" fill="#231f20"/>
    <rect x="66" y="55" width="1" height="1" fill="#231f20"/>
    <rect x="68" y="55" width="2" height="1" fill="#231f20"/>
    <rect x="87" y="55" width="1" height="1" fill="#231f20"/>
    <rect x="97" y="55" width="1" height="1" fill="#231f20"/>
    <rect x="113" y="55" width="1" height="1" fill="#231f20"/>
    <rect x="123" y="55" width="1" height="1" fill="#231f20"/>
    <rect x="0" y="60" width="138" height="1" fill="#231f20"/>
  </g>
</svg>