<?xml version="1.0" encoding="UTF-8"?>
<svg xmlns="http://www.w3.org/2000/svg" viewBox="0 0 172 79" width="172" height="79">
  <!-- Auto-converted from legend-2762.png -->
  <rect x="0" y="0" width="172" height="79" fill="none"/>
  <g fill="#3f3c3c" stroke="none">
    <rect x="0" y="0" width="172" height="1" fill="#3f3c3c"/>
    <rect x="0" y="1" width="1" height="1" fill="#3f3c3c"/>
    <rect x="171" y="1" width="1" height="1" fill="#3f3c3c"/>
    <rect x="0" y="2" width="1" height="1" fill="#3f3c3c"/>
    <rect x="171" y="2" width="1" height="1" fill="#3f3c3c"/>
    <rect x="0" y="3" width="1" height="1" fill="#3f3c3c"/>
    <rect x="171" y="3" width="1" height="1" fill="#3f3c3c"/>
    <rect x="0" y="4" width="1" height="1" fill="#3f3c3c"/>
    <rect x="171" y="4" width="1" height="1" fill="#3f3c3c"/>
    <rect x="0" y="5" width="1" height="1" fill="#3f3c3c"/>
    <rect x="171" y="5" width="1" height="1" fill="#3f3c3c"/>
    <rect x="0" y="6" width="1" height="1" fill="#3f3c3c"/>
    <rect x="171" y="6" width="1" height="1" fill="#3f3c3c"/>
    <rect x="0" y="7" width="1" height="1" fill="#3f3c3c"/>
    <rect x="171" y="7" width="1" height="1" fill="#3f3c3c"/>
    <rect x="0" y="8" width="1" height="1" fill="#3f3c3c"/>
    <rect x="171" y="8" width="1" height="1" fill="#3f3c3c"/>
    <rect x="0" y="9" width="1" height="1" fill="#3f3c3c"/>
    <rect x="171" y="9" width="1" height="1" fill="#3f3c3c"/>
    <rect x="0" y="10" width="1" height="1" fill="#3f3c3c"/>
    <rect x="171" y="10" width="1" height="1" fill="#3f3c3c"/>
    <rect x="0" y="11" width="1" height="1" fill="#3f3c3c"/>
    <rect x="171" y="11" width="1" height="1" fill="#3f3c3c"/>
    <rect x="0" y="12" width="1" height="1" fill="#3f3c3c"/>
    <rect x="171" y="12" width="1" height="1" fill="#3f3c3c"/>
    <rect x="0" y="13" width="1" height="1" fill="#3f3c3c"/>
    <rect x="171" y="13" width="1" height="1" fill="#3f3c3c"/>
    <rect x="0" y="14" width="1" height="1" fill="#3f3c3c"/>
    <rect x="171" y="14" width="1" height="1" fill="#3f3c3c"/>
    <rect x="0" y="15" width="1" height="1" fill="#3f3c3c"/>
    <rect x="171" y="15" width="1" height="1" fill="#3f3c3c"/>
    <rect x="0" y="16" width="1" height="1" fill="#3f3c3c"/>
    <rect x="171" y="16" width="1" height="1" fill="#3f3c3c"/>
    <rect x="0" y="17" width="1" height="1" fill="#3f3c3c"/>
    <rect x="171" y="17" width="1" height="1" fill="#3f3c3c"/>
    <rect x="0" y="18" width="1" height="1" fill="#3f3c3c"/>
    <rect x="109" y="18" width="3" height="1" fill="#3f3c3c"/>
    <rect x="171" y="18" width="1" height="1" fill="#3f3c3c"/>
    <rect x="0" y="19" width="1" height="1" fill="#3f3c3c"/>
    <rect x="110" y="19" width="4" height="1" fill="#3f3c3c"/>
    <rect x="143" y="19" width="3" height="1" fill="#3f3c3c"/>
    <rect x="171" y="19" width="1" height="1" fill="#3f3c3c"/>
    <rect x="0" y="20" width="1" height="1" fill="#3f3c3c"/>
    <rect x="110" y="20" width="5" height="1" fill="#3f3c3c"/>
    <rect x="143" y="20" width="4" height="1" fill="#3f3c3c"/>
    <rect x="171" y="20" width="1" height="1" fill="#3f3c3c"/>
    <rect x="0" y="21" width="1" height="1" fill="#3f3c3c"/>
    <rect x="72" y="21" width="4" height="1" fill="#3f3c3c"/>
    <rect x="80" y="21" width="4" height="1" fill="#3f3c3c"/>
    <rect x="111" y="21" width="5" height="1" fill="#3f3c3c"/>
    <rect x="144" y="21" width="4" height="1" fill="#3f3c3c"/>
    <rect x="171" y="21" width="1" height="1" fill="#3f3c3c"/>
    <rect x="0" y="22" width="1" height="1" fill="#3f3c3c"/>
    <rect x="72" y="22" width="5" height="1" fill="#3f3c3c"/>
    <rect x="80" y="22" width="5" height="1" fill="#3f3c3c"/>
    <rect x="112" y="22" width="4" height="1" fill="#3f3c3c"/>
    <rect x="125" y="22" width="2" height="1" fill="#3f3c3c"/>
    <rect x="144" y="22" width="5" height="1" fill="#3f3c3c"/>
    <rect x="171" y="22" width="1" height="1" fill="#3f3c3c"/>
    <rect x="0" y="23" width="1" height="1" fill="#3f3c3c"/>
    <rect x="72" y="23" width="4" height="1" fill="#3f3c3c"/>
    <rect x="80" y="23" width="4" height="1" fill="#3f3c3c"/>
    <rect x="112" y="23" width="3" height="1" fill="#3f3c3c"/>
    <rect x="123" y="23" width="5" height="1" fill="#3f3c3c"/>
    <rect x="145" y="23" width="4" height="1" fill="#3f3c3c"/>
    <rect x="159" y="23" width="2" height="1" fill="#3f3c3c"/>
    <rect x="171" y="23" width="1" height="1" fill="#3f3c3c"/>
    <rect x="0" y="24" width="1" height="1" fill="#3f3c3c"/>
    <rect x="72" y="24" width="4" height="1" fill="#3f3c3c"/>
    <rect x="80" y="24" width="4" height="1" fill="#3f3c3c"/>
    <rect x="97" y="24" width="32" height="1" fill="#3f3c3c"/>
    <rect x="145" y="24" width="3" height="1" fill="#3f3c3c"/>
    <rect x="158" y="24" width="4" height="1" fill="#3f3c3c"/>
    <rect x="171" y="24" width="1" height="1" fill="#3f3c3c"/>
    <rect x="0" y="25" width="1" height="1" fill="#3f3c3c"/>
    <rect x="72" y="25" width="4" height="1" fill="#3f3c3c"/>
    <rect x="80" y="25" width="4" height="1" fill="#3f3c3c"/>
    <rect x="98" y="25" width="4" height="1" fill="#3f3c3c"/>
    <rect x="131" y="25" width="32" height="1" fill="#3f3c3c"/>
    <rect x="171" y="25" width="1" height="1" fill="#3f3c3c"/>
    <rect x="0" y="26" width="1" height="1" fill="#3f3c3c"/>
    <rect x="72" y="26" width="4" height="1" fill="#3f3c3c"/>
    <rect x="80" y="26" width="4" height="1" fill="#3f3c3c"/>
    <rect x="131" y="26" width="3" height="1" fill="#3f3c3c"/>
    <rect x="145" y="26" width="4" height="1" fill="#3f3c3c"/>
    <rect x="171" y="26" width="1" height="1" fill="#3f3c3c"/>
    <rect x="0" y="27" width="1" height="1" fill="#3f3c3c"/>
    <rect x="73" y="27" width="3" height="1" fill="#3f3c3c"/>
    <rect x="80" y="27" width="4" height="1" fill="#3f3c3c"/>
    <rect x="103" y="27" width="2" height="1" fill="#3f3c3c"/>
    <rect x="120" y="27" width="2" height="1" fill="#3f3c3c"/>
    <rect x="145" y="27" width="4" height="1" fill="#3f3c3c"/>
    <rect x="171" y="27" width="1" height="1" fill="#3f3c3c"/>
    <rect x="0" y="28" width="1" height="1" fill="#3f3c3c"/>
    <rect x="73" y="28" width="3" height="1" fill="#3f3c3c"/>
    <rect x="80" y="28" width="4" height="1" fill="#3f3c3c"/>
    <rect x="90" y="28" width="3" height="1" fill="#3f3c3c"/>
    <rect x="103" y="28" width="4" height="1" fill="#3f3c3c"/>
    <rect x="119" y="28" width="4" height="1" fill="#3f3c3c"/>
    <rect x="145" y="28" width="4" height="1" fill="#3f3c3c"/>
    <rect x="171" y="28" width="1" height="1" fill="#3f3c3c"/>
    <rect x="0" y="29" width="1" height="1" fill="#3f3c3c"/>
    <rect x="73" y="29" width="3" height="1" fill="#3f3c3c"/>
    <rect x="80" y="29" width="4" height="1" fill="#3f3c3c"/>
    <rect x="89" y="29" width="5" height="1" fill="#3f3c3c"/>
    <rect x="103" y="29" width="21" height="1" fill="#3f3c3c"/>
    <rect x="145" y="29" width="4" height="1" fill="#3f3c3c"/>
    <rect x="171" y="29" width="1" height="1" fill="#3f3c3c"/>
    <rect x="0" y="30" width="1" height="1" fill="#3f3c3c"/>
    <rect x="73" y="30" width="3" height="1" fill="#3f3c3c"/>
    <rect x="80" y="30" width="4" height="1" fill="#3f3c3c"/>
    <rect x="88" y="30" width="6" height="1" fill="#3f3c3c"/>
    <rect x="103" y="30" width="4" height="1" fill="#3f3c3c"/>
    <rect x="119" y="30" width="4" height="1" fill="#3f3c3c"/>
    <rect x="135" y="30" width="4" height="1" fill="#3f3c3c"/>
    <rect x="145" y="30" width="4" height="1" fill="#3f3c3c"/>
    <rect x="155" y="30" width="3" height="1" fill="#3f3c3c"/>
    <rect x="171" y="30" width="1" height="1" fill="#3f3c3c"/>
    <rect x="0" y="31" width="1" height="1" fill="#3f3c3c"/>
    <rect x="63" y="31" width="13" height="1" fill="#3f3c3c"/>
    <rect x="80" y="31" width="4" height="1" fill="#3f3c3c"/>
    <rect x="87" y="31" width="6" height="1" fill="#3f3c3c"/>
    <rect x="103" y="31" width="4" height="1" fill="#3f3c3c"/>
    <rect x="119" y="31" width="4" height="1" fill="#3f3c3c"/>
    <rect x="136" y="31" width="23" height="1" fill="#3f3c3c"/>
    <rect x="171" y="31" width="1" height="1" fill="#3f3c3c"/>
    <rect x="0" y="32" width="1" height="1" fill="#3f3c3c"/>
    <rect x="73" y="32" width="3" height="1" fill="#3f3c3c"/>
    <rect x="80" y="32" width="4" height="1" fill="#3f3c3c"/>
    <rect x="85" y="32" width="5" height="1" fill="#3f3c3c"/>
    <rect x="103" y="32" width="4" height="1" fill="#3f3c3c"/>
    <rect x="119" y="32" width="4" height="1" fill="#3f3c3c"/>
    <rect x="136" y="32" width="3" height="1" fill="#3f3c3c"/>
    <rect x="145" y="32" width="4" height="1" fill="#3f3c3c"/>
    <rect x="155" y="32" width="4" height="1" fill="#3f3c3c"/>
    <rect x="171" y="32" width="1" height="1" fill="#3f3c3c"/>
    <rect x="0" y="33" width="1" height="1" fill="#3f3c3c"/>
    <rect x="73" y="33" width="3" height="1" fill="#3f3c3c"/>
    <rect x="80" y="33" width="8" height="1" fill="#3f3c3c"/>
    <rect x="103" y="33" width="4" height="1" fill="#3f3c3c"/>
    <rect x="119" y="33" width="4" height="1" fill="#3f3c3c"/>
    <rect x="136" y="33" width="3" height="1" fill="#3f3c3c"/>
    <rect x="145" y="33" width="4" height="1" fill="#3f3c3c"/>
    <rect x="155" y="33" width="4" height="1" fill="#3f3c3c"/>
    <rect x="171" y="33" width="1" height="1" fill="#3f3c3c"/>
    <rect x="0" y="34" width="1" height="1" fill="#3f3c3c"/>
    <rect x="73" y="34" width="3" height="1" fill="#3f3c3c"/>
    <rect x="80" y="34" width="6" height="1" fill="#3f3c3c"/>
    <rect x="103" y="34" width="4" height="1" fill="#3f3c3c"/>
    <rect x="119" y="34" width="4" height="1" fill="#3f3c3c"/>
    <rect x="136" y="34" width="3" height="1" fill="#3f3c3c"/>
    <rect x="145" y="34" width="4" height="1" fill="#3f3c3c"/>
    <rect x="155" y="34" width="4" height="1" fill="#3f3c3c"/>
    <rect x="171" y="34" width="1" height="1" fill="#3f3c3c"/>
    <rect x="0" y="35" width="1" height="1" fill="#3f3c3c"/>
    <rect x="73" y="35" width="3" height="1" fill="#3f3c3c"/>
    <rect x="80" y="35" width="4" height="1" fill="#3f3c3c"/>
    <rect x="103" y="35" width="4" height="1" fill="#3f3c3c"/>
    <rect x="119" y="35" width="4" height="1" fill="#3f3c3c"/>
    <rect x="136" y="35" width="3" height="1" fill="#3f3c3c"/>
    <rect x="145" y="35" width="4" height="1" fill="#3f3c3c"/>
    <rect x="155" y="35" width="4" height="1" fill="#3f3c3c"/>
    <rect x="171" y="35" width="1" height="1" fill="#3f3c3c"/>
    <rect x="0" y="36" width="1" height="1" fill="#3f3c3c"/>
    <rect x="73" y="36" width="3" height="1" fill="#3f3c3c"/>
    <rect x="80" y="36" width="4" height="1" fill="#3f3c3c"/>
    <rect x="103" y="36" width="20" height="1" fill="#3f3c3c"/>
    <rect x="136" y="36" width="3" height="1" fill="#3f3c3c"/>
    <rect x="145" y="36" width="4" height="1" fill="#3f3c3c"/>
    <rect x="155" y="36" width="4" height="1" fill="#3f3c3c"/>
    <rect x="171" y="36" width="1" height="1" fill="#3f3c3c"/>
    <rect x="0" y="37" width="1" height="1" fill="#3f3c3c"/>
    <rect x="73" y="37" width="3" height="1" fill="#3f3c3c"/>
    <rect x="80" y="37" width="4" height="1" fill="#3f3c3c"/>
    <rect x="103" y="37" width="20" height="1" fill="#3f3c3c"/>
    <rect x="136" y="37" width="3" height="1" fill="#3f3c3c"/>
    <rect x="145" y="37" width="4" height="1" fill="#3f3c3c"/>
    <rect x="155" y="37" width="4" height="1" fill="#3f3c3c"/>
    <rect x="171" y="37" width="1" height="1" fill="#3f3c3c"/>
    <rect x="0" y="38" width="1" height="1" fill="#3f3c3c"/>
    <rect x="73" y="38" width="3" height="1" fill="#3f3c3c"/>
    <rect x="80" y="38" width="4" height="1" fill="#3f3c3c"/>
    <rect x="103" y="38" width="4" height="1" fill="#3f3c3c"/>
    <rect x="111" y="38" width="4" height="1" fill="#3f3c3c"/>
    <rect x="119" y="38" width="3" height="1" fill="#3f3c3c"/>
    <rect x="136" y="38" width="3" height="1" fill="#3f3c3c"/>
    <rect x="145" y="38" width="4" height="1" fill="#3f3c3c"/>
    <rect x="155" y="38" width="4" height="1" fill="#3f3c3c"/>
    <rect x="171" y="38" width="1" height="1" fill="#3f3c3c"/>
    <rect x="0" y="39" width="1" height="1" fill="#3f3c3c"/>
    <rect x="73" y="39" width="3" height="1" fill="#3f3c3c"/>
    <rect x="80" y="39" width="4" height="1" fill="#3f3c3c"/>
    <rect x="111" y="39" width="4" height="1" fill="#3f3c3c"/>
    <rect x="136" y="39" width="3" height="1" fill="#3f3c3c"/>
    <rect x="145" y="39" width="4" height="1" fill="#3f3c3c"/>
    <rect x="155" y="39" width="4" height="1" fill="#3f3c3c"/>
    <rect x="171" y="39" width="1" height="1" fill="#3f3c3c"/>
    <rect x="0" y="40" width="1" height="1" fill="#3f3c3c"/>
    <rect x="73" y="40" width="3" height="1" fill="#3f3c3c"/>
    <rect x="80" y="40" width="4" height="1" fill="#3f3c3c"/>
    <rect x="105" y="40" width="3" height="1" fill="#3f3c3c"/>
    <rect x="111" y="40" width="4" height="1" fill="#3f3c3c"/>
    <rect x="117" y="40" width="4" height="1" fill="#3f3c3c"/>
    <rect x="136" y="40" width="3" height="1" fill="#3f3c3c"/>
    <rect x="145" y="40" width="4" height="1" fill="#3f3c3c"/>
    <rect x="155" y="40" width="4" height="1" fill="#3f3c3c"/>
    <rect x="171" y="40" width="1" height="1" fill="#3f3c3c"/>
    <rect x="0" y="41" width="1" height="1" fill="#3f3c3c"/>
    <rect x="73" y="41" width="3" height="1" fill="#3f3c3c"/>
    <rect x="80" y="41" width="4" height="1" fill="#3f3c3c"/>
    <rect x="91" y="41" width="3" height="1" fill="#3f3c3c"/>
    <rect x="104" y="41" width="5" height="1" fill="#3f3c3c"/>
    <rect x="111" y="41" width="4" height="1" fill="#3f3c3c"/>
    <rect x="118" y="41" width="4" height="1" fill="#3f3c3c"/>
    <rect x="136" y="41" width="3" height="1" fill="#3f3c3c"/>
    <rect x="145" y="41" width="4" height="1" fill="#3f3c3c"/>
    <rect x="155" y="41" width="4" height="1" fill="#3f3c3c"/>
    <rect x="171" y="41" width="1" height="1" fill="#3f3c3c"/>
    <rect x="0" y="42" width="1" height="1" fill="#3f3c3c"/>
    <rect x="73" y="42" width="3" height="1" fill="#3f3c3c"/>
    <rect x="80" y="42" width="4" height="1" fill="#3f3c3c"/>
    <rect x="91" y="42" width="3" height="1" fill="#3f3c3c"/>
    <rect x="104" y="42" width="5" height="1" fill="#3f3c3c"/>
    <rect x="111" y="42" width="4" height="1" fill="#3f3c3c"/>
    <rect x="119" y="42" width="4" height="1" fill="#3f3c3c"/>
    <rect x="136" y="42" width="3" height="1" fill="#3f3c3c"/>
    <rect x="145" y="42" width="4" height="1" fill="#3f3c3c"/>
    <rect x="155" y="42" width="4" height="1" fill="#3f3c3c"/>
    <rect x="171" y="42" width="1" height="1" fill="#3f3c3c"/>
    <rect x="0" y="43" width="1" height="1" fill="#3f3c3c"/>
    <rect x="71" y="43" width="5" height="1" fill="#3f3c3c"/>
    <rect x="80" y="43" width="4" height="1" fill="#3f3c3c"/>
    <rect x="91" y="43" width="3" height="1" fill="#3f3c3c"/>
    <rect x="103" y="43" width="4" height="1" fill="#3f3c3c"/>
    <rect x="111" y="43" width="4" height="1" fill="#3f3c3c"/>
    <rect x="120" y="43" width="5" height="1" fill="#3f3c3c"/>
    <rect x="136" y="43" width="3" height="1" fill="#3f3c3c"/>
    <rect x="145" y="43" width="4" height="1" fill="#3f3c3c"/>
    <rect x="155" y="43" width="4" height="1" fill="#3f3c3c"/>
    <rect x="171" y="43" width="1" height="1" fill="#3f3c3c"/>
    <rect x="0" y="44" width="1" height="1" fill="#3f3c3c"/>
    <rect x="67" y="44" width="9" height="1" fill="#3f3c3c"/>
    <rect x="80" y="44" width="4" height="1" fill="#3f3c3c"/>
    <rect x="91" y="44" width="3" height="1" fill="#3f3c3c"/>
    <rect x="102" y="44" width="4" height="1" fill="#3f3c3c"/>
    <rect x="111" y="44" width="4" height="1" fill="#3f3c3c"/>
    <rect x="120" y="44" width="6" height="1" fill="#3f3c3c"/>
    <rect x="136" y="44" width="3" height="1" fill="#3f3c3c"/>
    <rect x="145" y="44" width="4" height="1" fill="#3f3c3c"/>
    <rect x="150" y="44" width="9" height="1" fill="#3f3c3c"/>
    <rect x="171" y="44" width="1" height="1" fill="#3f3c3c"/>
    <rect x="0" y="45" width="1" height="1" fill="#3f3c3c"/>
    <rect x="64" y="45" width="7" height="1" fill="#3f3c3c"/>
    <rect x="73" y="45" width="3" height="1" fill="#3f3c3c"/>
    <rect x="80" y="45" width="4" height="1" fill="#3f3c3c"/>
    <rect x="91" y="45" width="3" height="1" fill="#3f3c3c"/>
    <rect x="101" y="45" width="4" height="1" fill="#3f3c3c"/>
    <rect x="111" y="45" width="4" height="1" fill="#3f3c3c"/>
    <rect x="121" y="45" width="5" height="1" fill="#3f3c3c"/>
    <rect x="136" y="45" width="3" height="1" fill="#3f3c3c"/>
    <rect x="145" y="45" width="4" height="1" fill="#3f3c3c"/>
    <rect x="150" y="45" width="8" height="1" fill="#3f3c3c"/>
    <rect x="171" y="45" width="1" height="1" fill="#3f3c3c"/>
    <rect x="0" y="46" width="1" height="1" fill="#3f3c3c"/>
    <rect x="63" y="46" width="6" height="1" fill="#3f3c3c"/>
    <rect x="72" y="46" width="4" height="1" fill="#3f3c3c"/>
    <rect x="80" y="46" width="4" height="1" fill="#3f3c3c"/>
    <rect x="91" y="46" width="3" height="1" fill="#3f3c3c"/>
    <rect x="100" y="46" width="4" height="1" fill="#3f3c3c"/>
    <rect x="111" y="46" width="4" height="1" fill="#3f3c3c"/>
    <rect x="122" y="46" width="5" height="1" fill="#3f3c3c"/>
    <rect x="136" y="46" width="3" height="1" fill="#3f3c3c"/>
    <rect x="145" y="46" width="4" height="1" fill="#3f3c3c"/>
    <rect x="153" y="46" width="5" height="1" fill="#3f3c3c"/>
    <rect x="171" y="46" width="1" height="1" fill="#3f3c3c"/>
    <rect x="0" y="47" width="1" height="1" fill="#3f3c3c"/>
    <rect x="63" y="47" width="5" height="1" fill="#3f3c3c"/>
    <rect x="72" y="47" width="4" height="1" fill="#3f3c3c"/>
    <rect x="80" y="47" width="4" height="1" fill="#3f3c3c"/>
    <rect x="91" y="47" width="3" height="1" fill="#3f3c3c"/>
    <rect x="98" y="47" width="5" height="1" fill="#3f3c3c"/>
    <rect x="106" y="47" width="9" height="1" fill="#3f3c3c"/>
    <rect x="123" y="47" width="3" height="1" fill="#3f3c3c"/>
    <rect x="135" y="47" width="4" height="1" fill="#3f3c3c"/>
    <rect x="145" y="47" width="4" height="1" fill="#3f3c3c"/>
    <rect x="153" y="47" width="4" height="1" fill="#3f3c3c"/>
    <rect x="171" y="47" width="1" height="1" fill="#3f3c3c"/>
    <rect x="0" y="48" width="1" height="1" fill="#3f3c3c"/>
    <rect x="64" y="48" width="2" height="1" fill="#3f3c3c"/>
    <rect x="72" y="48" width="4" height="1" fill="#3f3c3c"/>
    <rect x="80" y="48" width="5" height="1" fill="#3f3c3c"/>
    <rect x="90" y="48" width="5" height="1" fill="#3f3c3c"/>
    <rect x="97" y="48" width="4" height="1" fill="#3f3c3c"/>
    <rect x="108" y="48" width="7" height="1" fill="#3f3c3c"/>
    <rect x="123" y="48" width="3" height="1" fill="#3f3c3c"/>
    <rect x="136" y="48" width="1" height="1" fill="#3f3c3c"/>
    <rect x="145" y="48" width="4" height="1" fill="#3f3c3c"/>
    <rect x="171" y="48" width="1" height="1" fill="#3f3c3c"/>
    <rect x="0" y="49" width="1" height="1" fill="#3f3c3c"/>
    <rect x="72" y="49" width="4" height="1" fill="#3f3c3c"/>
    <rect x="81" y="49" width="14" height="1" fill="#3f3c3c"/>
    <rect x="97" y="49" width="2" height="1" fill="#3f3c3c"/>
    <rect x="109" y="49" width="5" height="1" fill="#3f3c3c"/>
    <rect x="145" y="49" width="4" height="1" fill="#3f3c3c"/>
    <rect x="171" y="49" width="1" height="1" fill="#3f3c3c"/>
    <rect x="0" y="50" width="1" height="1" fill="#3f3c3c"/>
    <rect x="72" y="50" width="4" height="1" fill="#3f3c3c"/>
    <rect x="81" y="50" width="13" height="1" fill="#3f3c3c"/>
    <rect x="110" y="50" width="3" height="1" fill="#3f3c3c"/>
    <rect x="145" y="50" width="4" height="1" fill="#3f3c3c"/>
    <rect x="171" y="50" width="1" height="1" fill="#3f3c3c"/>
    <rect x="0" y="51" width="1" height="1" fill="#3f3c3c"/>
    <rect x="72" y="51" width="4" height="1" fill="#3f3c3c"/>
    <rect x="145" y="51" width="3" height="1" fill="#3f3c3c"/>
    <rect x="171" y="51" width="1" height="1" fill="#3f3c3c"/>
    <rect x="0" y="52" width="1" height="1" fill="#3f3c3c"/>
    <rect x="171" y="52" width="1" height="1" fill="#3f3c3c"/>
    <rect x="0" y="53" width="1" height="1" fill="#3f3c3c"/>
    <rect x="171" y="53" width="1" height="1" fill="#3f3c3c"/>
    <rect x="0" y="54" width="1" height="1" fill="#3f3c3c"/>
    <rect x="171" y="54" width="1" height="1" fill="#3f3c3c"/>
    <rect x="0" y="55" width="1" height="1" fill="#3f3c3c"/>
    <rect x="171" y="55" width="1" height="1" fill="#3f3c3c"/>
    <rect x="0" y="56" width="1" height="1" fill="#3f3c3c"/>
    <rect x="171" y="56" width="1" height="1" fill="#3f3c3c"/>
    <rect x="0" y="57" width="1" height="1" fill="#3f3c3c"/>
    <rect x="171" y="57" width="1" height="1" fill="#3f3c3c"/>
    <rect x="0" y="58" width="1" height="1" fill="#3f3c3c"/>
    <rect x="171" y="58" width="1" height="1" fill="#3f3c3c"/>
    <rect x="0" y="59" width="1" height="1" fill="#3f3c3c"/>
    <rect x="171" y="59" width="1" height="1" fill="#3f3c3c"/>
    <rect x="0" y="60" width="1" height="1" fill="#3f3c3c"/>
    <rect x="171" y="60" width="1" height="1" fill="#3f3c3c"/>
    <rect x="0" y="61" width="1" height="1" fill="#3f3c3c"/>
    <rect x="171" y="61" width="1" height="1" fill="#3f3c3c"/>
    <rect x="0" y="62" width="1" height="1" fill="#3f3c3c"/>
    <rect x="171" y="62" width="1" height="1" fill="#3f3c3c"/>
    <rect x="0" y="63" width="1" height="1" fill="#3f3c3c"/>
    <rect x="171" y="63" width="1" height="1" fill="#3f3c3c"/>
    <rect x="0" y="64" width="1" height="1" fill="#3f3c3c"/>
    <rect x="171" y="64" width="1" height="1" fill="#3f3c3c"/>
    <rect x="0" y="65" width="1" height="1" fill="#3f3c3c"/>
    <rect x="171" y="65" width="1" height="1" fill="#3f3c3c"/>
    <rect x="0" y="66" width="1" height="1" fill="#3f3c3c"/>
    <rect x="171" y="66" width="1" height="1" fill="#3f3c3c"/>
    <rect x="0" y="67" width="1" height="1" fill="#3f3c3c"/>
    <rect x="171" y="67" width="1" height="1" fill="#3f3c3c"/>
    <rect x="0" y="68" width="1" height="1" fill="#3f3c3c"/>
    <rect x="171" y="68" width="1" height="1" fill="#3f3c3c"/>
    <rect x="0" y="69" width="1" height="1" fill="#3f3c3c"/>
    <rect x="171" y="69" width="1" height="1" fill="#3f3c3c"/>
    <rect x="0" y="70" width="1" height="1" fill="#3f3c3c"/>
    <rect x="171" y="70" width="1" height="1" fill="#3f3c3c"/>
    <rect x="0" y="71" width="1" height="1" fill="#3f3c3c"/>
    <rect x="171" y="71" width="1" height="1" fill="#3f3c3c"/>
    <rect x="0" y="72" width="1" height="1" fill="#3f3c3c"/>
    <rect x="171" y="72" width="1" height="1" fill="#3f3c3c"/>
    <rect x="0" y="73" width="1" height="1" fill="#3f3c3c"/>
    <rect x="171" y="73" width="1" height="1" fill="#3f3c3c"/>
    <rect x="0" y="74" width="1" height="1" fill="#3f3c3c"/>
    <rect x="171" y="74" width="1" height="1" fill="#3f3c3c"/>
    <rect x="0" y="75" width="1" height="1" fill="#3f3c3c"/>
    <rect x="171" y="75" width="1" height="1" fill="#3f3c3c"/>
    <rect x="0" y="76" width="1" height="1" fill="#3f3c3c"/>
    <rect x="171" y="76" width="1" height="1" fill="#3f3c3c"/>
    <rect x="0" y="77" width="1" height="1" fill="#3f3c3c"/>
    <rect x="171" y="77" width="1" height="1" fill="#3f3c3c"/>
    <rect x="0" y="78" width="172" height="1" fill="#3f3c3c"/>
  </g>
</svg>