<?xml version="1.0" encoding="UTF-8"?>
<svg xmlns="http://www.w3.org/2000/svg" viewBox="0 0 188 70" width="188" height="70">
  <!-- Auto-converted from legend-652.png -->
  <rect x="0" y="0" width="188" height="70" fill="none"/>
  <g fill="#5a2520" stroke="none">
    <rect x="0" y="0" width="187" height="1" fill="#5a2520"/>
    <rect x="0" y="1" width="1" height="1" fill="#5a2520"/>
    <rect x="186" y="1" width="1" height="1" fill="#5a2520"/>
    <rect x="0" y="2" width="1" height="1" fill="#5a2520"/>
    <rect x="186" y="2" width="1" height="1" fill="#5a2520"/>
    <rect x="0" y="3" width="1" height="1" fill="#5a2520"/>
    <rect x="186" y="3" width="1" height="1" fill="#5a2520"/>
    <rect x="0" y="4" width="1" height="1" fill="#5a2520"/>
    <rect x="186" y="4" width="1" height="1" fill="#5a2520"/>
    <rect x="0" y="5" width="1" height="1" fill="#5a2520"/>
    <rect x="186" y="5" width="1" height="1" fill="#5a2520"/>
    <rect x="0" y="6" width="1" height="1" fill="#5a2520"/>
    <rect x="186" y="6" width="1" height="1" fill="#5a2520"/>
    <rect x="0" y="7" width="1" height="1" fill="#5a2520"/>
    <rect x="186" y="7" width="1" height="1" fill="#5a2520"/>
    <rect x="0" y="8" width="1" height="1" fill="#5a2520"/>
    <rect x="186" y="8" width="1" height="1" fill="#5a2520"/>
    <rect x="0" y="9" width="1" height="1" fill="#5a2520"/>
    <rect x="186" y="9" width="1" height="1" fill="#5a2520"/>
    <rect x="0" y="10" width="1" height="1" fill="#5a2520"/>
    <rect x="186" y="10" width="1" height="1" fill="#5a2520"/>
    <rect x="0" y="11" width="1" height="1" fill="#5a2520"/>
    <rect x="186" y="11" width="1" height="1" fill="#5a2520"/>
    <rect x="0" y="12" width="1" height="1" fill="#5a2520"/>
    <rect x="186" y="12" width="1" height="1" fill="#5a2520"/>
    <rect x="0" y="13" width="1" height="1" fill="#5a2520"/>
    <rect x="186" y="13" width="1" height="1" fill="#5a2520"/>
    <rect x="0" y="14" width="1" height="1" fill="#5a2520"/>
    <rect x="186" y="14" width="1" height="1" fill="#5a2520"/>
    <rect x="0" y="15" width="1" height="1" fill="#5a2520"/>
    <rect x="186" y="15" width="1" height="1" fill="#5a2520"/>
    <rect x="0" y="16" width="1" height="1" fill="#5a2520"/>
    <rect x="186" y="16" width="1" height="1" fill="#5a2520"/>
    <rect x="0" y="17" width="1" height="1" fill="#5a2520"/>
    <rect x="186" y="17" width="1" height="1" fill="#5a2520"/>
    <rect x="0" y="18" width="1" height="1" fill="#5a2520"/>
    <rect x="186" y="18" width="1" height="1" fill="#5a2520"/>
    <rect x="0" y="19" width="1" height="1" fill="#5a2520"/>
    <rect x="186" y="19" width="1" height="1" fill="#5a2520"/>
    <rect x="0" y="20" width="1" height="1" fill="#5a2520"/>
    <rect x="186" y="20" width="1" height="1" fill="#5a2520"/>
    <rect x="0" y="21" width="1" height="1" fill="#5a2520"/>
    <rect x="186" y="21" width="1" height="1" fill="#5a2520"/>
    <rect x="0" y="22" width="1" height="1" fill="#5a2520"/>
    <rect x="186" y="22" width="1" height="1" fill="#5a2520"/>
    <rect x="0" y="23" width="187" height="1" fill="#5a2520"/>
    <rect x="0" y="24" width="1" height="1" fill="#5a2520"/>
    <rect x="43" y="24" width="1" height="1" fill="#5a2520"/>
    <rect x="58" y="24" width="15" height="1" fill="#5a2520"/>
    <rect x="87" y="24" width="15" height="1" fill="#5a2520"/>
    <rect x="115" y="24" width="16" height="1" fill="#5a2520"/>
    <rect x="141" y="24" width="1" height="1" fill="#5a2520"/>
    <rect x="186" y="24" width="1" height="1" fill="#5a2520"/>
    <rect x="0" y="25" width="1" height="1" fill="#5a2520"/>
    <rect x="43" y="25" width="1" height="1" fill="#5a2520"/>
    <rect x="58" y="25" width="15" height="1" fill="#5a2520"/>
    <rect x="87" y="25" width="15" height="1" fill="#5a2520"/>
    <rect x="115" y="25" width="16" height="1" fill="#5a2520"/>
    <rect x="141" y="25" width="1" height="1" fill="#5a2520"/>
    <rect x="186" y="25" width="1" height="1" fill="#5a2520"/>
    <rect x="0" y="26" width="1" height="1" fill="#5a2520"/>
    <rect x="43" y="26" width="1" height="1" fill="#5a2520"/>
    <rect x="58" y="26" width="15" height="1" fill="#5a2520"/>
    <rect x="87" y="26" width="15" height="1" fill="#5a2520"/>
    <rect x="115" y="26" width="16" height="1" fill="#5a2520"/>
    <rect x="141" y="26" width="1" height="1" fill="#5a2520"/>
    <rect x="186" y="26" width="1" height="1" fill="#5a2520"/>
    <rect x="0" y="27" width="1" height="1" fill="#5a2520"/>
    <rect x="43" y="27" width="1" height="1" fill="#5a2520"/>
    <rect x="58" y="27" width="15" height="1" fill="#5a2520"/>
    <rect x="87" y="27" width="15" height="1" fill="#5a2520"/>
    <rect x="115" y="27" width="16" height="1" fill="#5a2520"/>
    <rect x="141" y="27" width="1" height="1" fill="#5a2520"/>
    <rect x="186" y="27" width="1" height="1" fill="#5a2520"/>
    <rect x="0" y="28" width="1" height="1" fill="#5a2520"/>
    <rect x="43" y="28" width="1" height="1" fill="#5a2520"/>
    <rect x="58" y="28" width="15" height="1" fill="#5a2520"/>
    <rect x="87" y="28" width="15" height="1" fill="#5a2520"/>
    <rect x="115" y="28" width="16" height="1" fill="#5a2520"/>
    <rect x="141" y="28" width="1" height="1" fill="#5a2520"/>
    <rect x="186" y="28" width="1" height="1" fill="#5a2520"/>
    <rect x="0" y="29" width="1" height="1" fill="#5a2520"/>
    <rect x="43" y="29" width="1" height="1" fill="#5a2520"/>
    <rect x="58" y="29" width="15" height="1" fill="#5a2520"/>
    <rect x="87" y="29" width="15" height="1" fill="#5a2520"/>
    <rect x="115" y="29" width="16" height="1" fill="#5a2520"/>
    <rect x="141" y="29" width="1" height="1" fill="#5a2520"/>
    <rect x="186" y="29" width="1" height="1" fill="#5a2520"/>
    <rect x="0" y="30" width="1" height="1" fill="#5a2520"/>
    <rect x="43" y="30" width="1" height="1" fill="#5a2520"/>
    <rect x="58" y="30" width="15" height="1" fill="#5a2520"/>
    <rect x="87" y="30" width="15" height="1" fill="#5a2520"/>
    <rect x="115" y="30" width="16" height="1" fill="#5a2520"/>
    <rect x="141" y="30" width="1" height="1" fill="#5a2520"/>
    <rect x="186" y="30" width="1" height="1" fill="#5a2520"/>
    <rect x="0" y="31" width="1" height="1" fill="#5a2520"/>
    <rect x="43" y="31" width="1" height="1" fill="#5a2520"/>
    <rect x="58" y="31" width="15" height="1" fill="#5a2520"/>
    <rect x="87" y="31" width="15" height="1" fill="#5a2520"/>
    <rect x="115" y="31" width="16" height="1" fill="#5a2520"/>
    <rect x="141" y="31" width="1" height="1" fill="#5a2520"/>
    <rect x="186" y="31" width="1" height="1" fill="#5a2520"/>
    <rect x="0" y="32" width="1" height="1" fill="#5a2520"/>
    <rect x="43" y="32" width="1" height="1" fill="#5a2520"/>
    <rect x="58" y="32" width="15" height="1" fill="#5a2520"/>
    <rect x="87" y="32" width="15" height="1" fill="#5a2520"/>
    <rect x="115" y="32" width="16" height="1" fill="#5a2520"/>
    <rect x="141" y="32" width="1" height="1" fill="#5a2520"/>
    <rect x="186" y="32" width="1" height="1" fill="#5a2520"/>
    <rect x="0" y="33" width="1" height="1" fill="#5a2520"/>
    <rect x="43" y="33" width="1" height="1" fill="#5a2520"/>
    <rect x="58" y="33" width="15" height="1" fill="#5a2520"/>
    <rect x="87" y="33" width="15" height="1" fill="#5a2520"/>
    <rect x="115" y="33" width="16" height="1" fill="#5a2520"/>
    <rect x="141" y="33" width="1" height="1" fill="#5a2520"/>
    <rect x="186" y="33" width="1" height="1" fill="#5a2520"/>
    <rect x="0" y="34" width="1" height="1" fill="#5a2520"/>
    <rect x="43" y="34" width="1" height="1" fill="#5a2520"/>
    <rect x="58" y="34" width="15" height="1" fill="#5a2520"/>
    <rect x="87" y="34" width="15" height="1" fill="#5a2520"/>
    <rect x="115" y="34" width="16" height="1" fill="#5a2520"/>
    <rect x="141" y="34" width="1" height="1" fill="#5a2520"/>
    <rect x="186" y="34" width="1" height="1" fill="#5a2520"/>
    <rect x="0" y="35" width="1" height="1" fill="#5a2520"/>
    <rect x="43" y="35" width="1" height="1" fill="#5a2520"/>
    <rect x="58" y="35" width="15" height="1" fill="#5a2520"/>
    <rect x="87" y="35" width="15" height="1" fill="#5a2520"/>
    <rect x="115" y="35" width="16" height="1" fill="#5a2520"/>
    <rect x="141" y="35" width="1" height="1" fill="#5a2520"/>
    <rect x="186" y="35" width="1" height="1" fill="#5a2520"/>
    <rect x="0" y="36" width="1" height="1" fill="#5a2520"/>
    <rect x="43" y="36" width="1" height="1" fill="#5a2520"/>
    <rect x="58" y="36" width="15" height="1" fill="#5a2520"/>
    <rect x="87" y="36" width="15" height="1" fill="#5a2520"/>
    <rect x="115" y="36" width="16" height="1" fill="#5a2520"/>
    <rect x="141" y="36" width="1" height="1" fill="#5a2520"/>
    <rect x="186" y="36" width="1" height="1" fill="#5a2520"/>
    <rect x="0" y="37" width="1" height="1" fill="#5a2520"/>
    <rect x="43" y="37" width="1" height="1" fill="#5a2520"/>
    <rect x="58" y="37" width="15" height="1" fill="#5a2520"/>
    <rect x="87" y="37" width="15" height="1" fill="#5a2520"/>
    <rect x="115" y="37" width="16" height="1" fill="#5a2520"/>
    <rect x="141" y="37" width="1" height="1" fill="#5a2520"/>
    <rect x="186" y="37" width="1" height="1" fill="#5a2520"/>
    <rect x="0" y="38" width="1" height="1" fill="#5a2520"/>
    <rect x="43" y="38" width="1" height="1" fill="#5a2520"/>
    <rect x="58" y="38" width="15" height="1" fill="#5a2520"/>
    <rect x="87" y="38" width="15" height="1" fill="#5a2520"/>
    <rect x="115" y="38" width="16" height="1" fill="#5a2520"/>
    <rect x="141" y="38" width="1" height="1" fill="#5a2520"/>
    <rect x="186" y="38" width="1" height="1" fill="#5a2520"/>
    <rect x="0" y="39" width="1" height="1" fill="#5a2520"/>
    <rect x="43" y="39" width="1" height="1" fill="#5a2520"/>
    <rect x="58" y="39" width="15" height="1" fill="#5a2520"/>
    <rect x="87" y="39" width="15" height="1" fill="#5a2520"/>
    <rect x="115" y="39" width="16" height="1" fill="#5a2520"/>
    <rect x="141" y="39" width="1" height="1" fill="#5a2520"/>
    <rect x="186" y="39" width="1" height="1" fill="#5a2520"/>
    <rect x="0" y="40" width="1" height="1" fill="#5a2520"/>
    <rect x="43" y="40" width="1" height="1" fill="#5a2520"/>
    <rect x="58" y="40" width="15" height="1" fill="#5a2520"/>
    <rect x="87" y="40" width="15" height="1" fill="#5a2520"/>
    <rect x="115" y="40" width="16" height="1" fill="#5a2520"/>
    <rect x="141" y="40" width="1" height="1" fill="#5a2520"/>
    <rect x="186" y="40" width="1" height="1" fill="#5a2520"/>
    <rect x="0" y="41" width="1" height="1" fill="#5a2520"/>
    <rect x="43" y="41" width="1" height="1" fill="#5a2520"/>
    <rect x="58" y="41" width="15" height="1" fill="#5a2520"/>
    <rect x="87" y="41" width="15" height="1" fill="#5a2520"/>
    <rect x="115" y="41" width="16" height="1" fill="#5a2520"/>
    <rect x="141" y="41" width="1" height="1" fill="#5a2520"/>
    <rect x="186" y="41" width="1" height="1" fill="#5a2520"/>
    <rect x="0" y="42" width="1" height="1" fill="#5a2520"/>
    <rect x="43" y="42" width="1" height="1" fill="#5a2520"/>
    <rect x="58" y="42" width="15" height="1" fill="#5a2520"/>
    <rect x="87" y="42" width="15" height="1" fill="#5a2520"/>
    <rect x="115" y="42" width="16" height="1" fill="#5a2520"/>
    <rect x="141" y="42" width="1" height="1" fill="#5a2520"/>
    <rect x="186" y="42" width="1" height="1" fill="#5a2520"/>
    <rect x="0" y="43" width="1" height="1" fill="#5a2520"/>
    <rect x="43" y="43" width="1" height="1" fill="#5a2520"/>
    <rect x="58" y="43" width="15" height="1" fill="#5a2520"/>
    <rect x="87" y="43" width="15" height="1" fill="#5a2520"/>
    <rect x="115" y="43" width="16" height="1" fill="#5a2520"/>
    <rect x="141" y="43" width="1" height="1" fill="#5a2520"/>
    <rect x="186" y="43" width="1" height="1" fill="#5a2520"/>
    <rect x="0" y="44" width="1" height="1" fill="#5a2520"/>
    <rect x="43" y="44" width="1" height="1" fill="#5a2520"/>
    <rect x="58" y="44" width="15" height="1" fill="#5a2520"/>
    <rect x="87" y="44" width="15" height="1" fill="#5a2520"/>
    <rect x="115" y="44" width="16" height="1" fill="#5a2520"/>
    <rect x="141" y="44" width="1" height="1" fill="#5a2520"/>
    <rect x="186" y="44" width="1" height="1" fill="#5a2520"/>
    <rect x="0" y="45" width="187" height="1" fill="#5a2520"/>
    <rect x="0" y="46" width="1" height="1" fill="#5a2520"/>
    <rect x="186" y="46" width="1" height="1" fill="#5a2520"/>
    <rect x="0" y="47" width="1" height="1" fill="#5a2520"/>
    <rect x="186" y="47" width="1" height="1" fill="#5a2520"/>
    <rect x="0" y="48" width="1" height="1" fill="#5a2520"/>
    <rect x="186" y="48" width="1" height="1" fill="#5a2520"/>
    <rect x="0" y="49" width="1" height="1" fill="#5a2520"/>
    <rect x="186" y="49" width="1" height="1" fill="#5a2520"/>
    <rect x="0" y="50" width="1" height="1" fill="#5a2520"/>
    <rect x="186" y="50" width="1" height="1" fill="#5a2520"/>
    <rect x="0" y="51" width="1" height="1" fill="#5a2520"/>
    <rect x="186" y="51" width="1" height="1" fill="#5a2520"/>
    <rect x="0" y="52" width="1" height="1" fill="#5a2520"/>
    <rect x="186" y="52" width="1" height="1" fill="#5a2520"/>
    <rect x="0" y="53" width="1" height="1" fill="#5a2520"/>
    <rect x="186" y="53" width="1" height="1" fill="#5a2520"/>
    <rect x="0" y="54" width="1" height="1" fill="#5a2520"/>
    <rect x="186" y="54" width="1" height="1" fill="#5a2520"/>
    <rect x="0" y="55" width="1" height="1" fill="#5a2520"/>
    <rect x="186" y="55" width="1" height="1" fill="#5a2520"/>
    <rect x="0" y="56" width="1" height="1" fill="#5a2520"/>
    <rect x="186" y="56" width="1" height="1" fill="#5a2520"/>
    <rect x="0" y="57" width="1" height="1" fill="#5a2520"/>
    <rect x="186" y="57" width="1" height="1" fill="#5a2520"/>
    <rect x="0" y="58" width="1" height="1" fill="#5a2520"/>
    <rect x="186" y="58" width="1" height="1" fill="#5a2520"/>
    <rect x="0" y="59" width="1" height="1" fill="#5a2520"/>
    <rect x="186" y="59" width="1" height="1" fill="#5a2520"/>
    <rect x="0" y="60" width="1" height="1" fill="#5a2520"/>
    <rect x="186" y="60" width="1" height="1" fill="#5a2520"/>
    <rect x="0" y="61" width="1" height="1" fill="#5a2520"/>
    <rect x="186" y="61" width="1" height="1" fill="#5a2520"/>
    <rect x="0" y="62" width="1" height="1" fill="#5a2520"/>
    <rect x="186" y="62" width="1" height="1" fill="#5a2520"/>
    <rect x="0" y="63" width="1" height="1" fill="#5a2520"/>
    <rect x="186" y="63" width="1" height="1" fill="#5a2520"/>
    <rect x="0" y="64" width="1" height="1" fill="#5a2520"/>
    <rect x="186" y="64" width="1" height="1" fill="#5a2520"/>
    <rect x="0" y="65" width="1" height="1" fill="#5a2520"/>
    <rect x="186" y="65" width="1" height="1" fill="#5a2520"/>
    <rect x="0" y="66" width="1" height="1" fill="#5a2520"/>
    <rect x="186" y="66" width="1" height="1" fill="#5a2520"/>
    <rect x="0" y="67" width="1" height="1" fill="#5a2520"/>
    <rect x="186" y="67" width="1" height="1" fill="#5a2520"/>
    <rect x="0" y="68" width="187" height="1" fill="#5a2520"/>
  </g>
</svg>