<?xml version="1.0" encoding="UTF-8"?>
<svg xmlns="http://www.w3.org/2000/svg" viewBox="0 0 57 67" width="57" height="67">
  <!-- Auto-converted from legend-1385.png -->
  <rect x="0" y="0" width="57" height="67" fill="none"/>
  <g fill="#231f20" stroke="none">
    <rect x="1" y="0" width="55" height="1" fill="#231f20"/>
    <rect x="1" y="1" width="1" height="1" fill="#231f20"/>
    <rect x="22" y="1" width="1" height="1" fill="#231f20"/>
    <rect x="25" y="1" width="1" height="1" fill="#231f20"/>
    <rect x="27" y="1" width="1" height="1" fill="#231f20"/>
    <rect x="30" y="1" width="1" height="1" fill="#231f20"/>
    <rect x="47" y="1" width="1" height="1" fill="#231f20"/>
    <rect x="55" y="1" width="1" height="1" fill="#231f20"/>
    <rect x="1" y="2" width="1" height="1" fill="#231f20"/>
    <rect x="22" y="2" width="1" height="1" fill="#231f20"/>
    <rect x="25" y="2" width="1" height="1" fill="#231f20"/>
    <rect x="27" y="2" width="1" height="1" fill="#231f20"/>
    <rect x="30" y="2" width="1" height="1" fill="#231f20"/>
    <rect x="44" y="2" width="1" height="1" fill="#231f20"/>
    <rect x="47" y="2" width="1" height="1" fill="#231f20"/>
    <rect x="55" y="2" width="1" height="1" fill="#231f20"/>
    <rect x="1" y="3" width="1" height="1" fill="#231f20"/>
    <rect x="22" y="3" width="1" height="1" fill="#231f20"/>
    <rect x="25" y="3" width="1" height="1" fill="#231f20"/>
    <rect x="27" y="3" width="1" height="1" fill="#231f20"/>
    <rect x="30" y="3" width="1" height="1" fill="#231f20"/>
    <rect x="40" y="3" width="1" height="1" fill="#231f20"/>
    <rect x="43" y="3" width="1" height="1" fill="#231f20"/>
    <rect x="46" y="3" width="1" height="1" fill="#231f20"/>
    <rect x="55" y="3" width="1" height="1" fill="#231f20"/>
    <rect x="1" y="4" width="1" height="1" fill="#231f20"/>
    <rect x="22" y="4" width="1" height="1" fill="#231f20"/>
    <rect x="25" y="4" width="1" height="1" fill="#231f20"/>
    <rect x="27" y="4" width="1" height="1" fill="#231f20"/>
    <rect x="30" y="4" width="1" height="1" fill="#231f20"/>
    <rect x="37" y="4" width="1" height="1" fill="#231f20"/>
    <rect x="39" y="4" width="1" height="1" fill="#231f20"/>
    <rect x="43" y="4" width="1" height="1" fill="#231f20"/>
    <rect x="46" y="4" width="1" height="1" fill="#231f20"/>
    <rect x="55" y="4" width="1" height="1" fill="#231f20"/>
    <rect x="1" y="5" width="1" height="1" fill="#231f20"/>
    <rect x="22" y="5" width="1" height="1" fill="#231f20"/>
    <rect x="25" y="5" width="1" height="1" fill="#231f20"/>
    <rect x="27" y="5" width="1" height="1" fill="#231f20"/>
    <rect x="30" y="5" width="1" height="1" fill="#231f20"/>
    <rect x="36" y="5" width="1" height="1" fill="#231f20"/>
    <rect x="39" y="5" width="1" height="1" fill="#231f20"/>
    <rect x="42" y="5" width="1" height="1" fill="#231f20"/>
    <rect x="45" y="5" width="1" height="1" fill="#231f20"/>
    <rect x="55" y="5" width="1" height="1" fill="#231f20"/>
    <rect x="1" y="6" width="1" height="1" fill="#231f20"/>
    <rect x="22" y="6" width="1" height="1" fill="#231f20"/>
    <rect x="25" y="6" width="1" height="1" fill="#231f20"/>
    <rect x="27" y="6" width="1" height="1" fill="#231f20"/>
    <rect x="30" y="6" width="1" height="1" fill="#231f20"/>
    <rect x="36" y="6" width="1" height="1" fill="#231f20"/>
    <rect x="38" y="6" width="1" height="1" fill="#231f20"/>
    <rect x="42" y="6" width="1" height="1" fill="#231f20"/>
    <rect x="44" y="6" width="1" height="1" fill="#231f20"/>
    <rect x="55" y="6" width="1" height="1" fill="#231f20"/>
    <rect x="1" y="7" width="1" height="1" fill="#231f20"/>
    <rect x="22" y="7" width="1" height="1" fill="#231f20"/>
    <rect x="25" y="7" width="1" height="1" fill="#231f20"/>
    <rect x="27" y="7" width="1" height="1" fill="#231f20"/>
    <rect x="30" y="7" width="1" height="1" fill="#231f20"/>
    <rect x="35" y="7" width="1" height="1" fill="#231f20"/>
    <rect x="38" y="7" width="1" height="1" fill="#231f20"/>
    <rect x="41" y="7" width="1" height="1" fill="#231f20"/>
    <rect x="44" y="7" width="1" height="1" fill="#231f20"/>
    <rect x="55" y="7" width="1" height="1" fill="#231f20"/>
    <rect x="1" y="8" width="1" height="1" fill="#231f20"/>
    <rect x="22" y="8" width="1" height="1" fill="#231f20"/>
    <rect x="25" y="8" width="1" height="1" fill="#231f20"/>
    <rect x="27" y="8" width="1" height="1" fill="#231f20"/>
    <rect x="30" y="8" width="1" height="1" fill="#231f20"/>
    <rect x="35" y="8" width="1" height="1" fill="#231f20"/>
    <rect x="37" y="8" width="1" height="1" fill="#231f20"/>
    <rect x="41" y="8" width="1" height="1" fill="#231f20"/>
    <rect x="43" y="8" width="1" height="1" fill="#231f20"/>
    <rect x="55" y="8" width="1" height="1" fill="#231f20"/>
    <rect x="1" y="9" width="1" height="1" fill="#231f20"/>
    <rect x="22" y="9" width="1" height="1" fill="#231f20"/>
    <rect x="25" y="9" width="1" height="1" fill="#231f20"/>
    <rect x="27" y="9" width="1" height="1" fill="#231f20"/>
    <rect x="30" y="9" width="1" height="1" fill="#231f20"/>
    <rect x="34" y="9" width="1" height="1" fill="#231f20"/>
    <rect x="36" y="9" width="1" height="1" fill="#231f20"/>
    <rect x="40" y="9" width="1" height="1" fill="#231f20"/>
    <rect x="43" y="9" width="1" height="1" fill="#231f20"/>
    <rect x="55" y="9" width="1" height="1" fill="#231f20"/>
    <rect x="1" y="10" width="1" height="1" fill="#231f20"/>
    <rect x="22" y="10" width="1" height="1" fill="#231f20"/>
    <rect x="25" y="10" width="1" height="1" fill="#231f20"/>
    <rect x="27" y="10" width="1" height="1" fill="#231f20"/>
    <rect x="30" y="10" width="1" height="1" fill="#231f20"/>
    <rect x="36" y="10" width="1" height="1" fill="#231f20"/>
    <rect x="40" y="10" width="1" height="1" fill="#231f20"/>
    <rect x="42" y="10" width="1" height="1" fill="#231f20"/>
    <rect x="55" y="10" width="1" height="1" fill="#231f20"/>
    <rect x="1" y="11" width="1" height="1" fill="#231f20"/>
    <rect x="14" y="11" width="5" height="1" fill="#231f20"/>
    <rect x="22" y="11" width="1" height="1" fill="#231f20"/>
    <rect x="25" y="11" width="1" height="1" fill="#231f20"/>
    <rect x="27" y="11" width="1" height="1" fill="#231f20"/>
    <rect x="30" y="11" width="1" height="1" fill="#231f20"/>
    <rect x="35" y="11" width="1" height="1" fill="#231f20"/>
    <rect x="39" y="11" width="1" height="1" fill="#231f20"/>
    <rect x="41" y="11" width="1" height="1" fill="#231f20"/>
    <rect x="46" y="11" width="6" height="1" fill="#231f20"/>
    <rect x="55" y="11" width="1" height="1" fill="#231f20"/>
    <rect x="1" y="12" width="1" height="1" fill="#231f20"/>
    <rect x="22" y="12" width="1" height="1" fill="#231f20"/>
    <rect x="25" y="12" width="1" height="1" fill="#231f20"/>
    <rect x="27" y="12" width="1" height="1" fill="#231f20"/>
    <rect x="30" y="12" width="1" height="1" fill="#231f20"/>
    <rect x="35" y="12" width="1" height="1" fill="#231f20"/>
    <rect x="38" y="12" width="1" height="1" fill="#231f20"/>
    <rect x="41" y="12" width="1" height="1" fill="#231f20"/>
    <rect x="55" y="12" width="1" height="1" fill="#231f20"/>
    <rect x="1" y="13" width="1" height="1" fill="#231f20"/>
    <rect x="22" y="13" width="1" height="1" fill="#231f20"/>
    <rect x="25" y="13" width="1" height="1" fill="#231f20"/>
    <rect x="27" y="13" width="1" height="1" fill="#231f20"/>
    <rect x="30" y="13" width="1" height="1" fill="#231f20"/>
    <rect x="34" y="13" width="1" height="1" fill="#231f20"/>
    <rect x="38" y="13" width="1" height="1" fill="#231f20"/>
    <rect x="40" y="13" width="1" height="1" fill="#231f20"/>
    <rect x="55" y="13" width="1" height="1" fill="#231f20"/>
    <rect x="1" y="14" width="1" height="1" fill="#231f20"/>
    <rect x="22" y="14" width="1" height="1" fill="#231f20"/>
    <rect x="25" y="14" width="1" height="1" fill="#231f20"/>
    <rect x="27" y="14" width="1" height="1" fill="#231f20"/>
    <rect x="30" y="14" width="1" height="1" fill="#231f20"/>
    <rect x="37" y="14" width="1" height="1" fill="#231f20"/>
    <rect x="40" y="14" width="1" height="1" fill="#231f20"/>
    <rect x="55" y="14" width="1" height="1" fill="#231f20"/>
    <rect x="1" y="15" width="1" height="1" fill="#231f20"/>
    <rect x="22" y="15" width="1" height="1" fill="#231f20"/>
    <rect x="25" y="15" width="1" height="1" fill="#231f20"/>
    <rect x="27" y="15" width="1" height="1" fill="#231f20"/>
    <rect x="30" y="15" width="1" height="1" fill="#231f20"/>
    <rect x="37" y="15" width="1" height="1" fill="#231f20"/>
    <rect x="39" y="15" width="1" height="1" fill="#231f20"/>
    <rect x="55" y="15" width="1" height="1" fill="#231f20"/>
    <rect x="1" y="16" width="1" height="1" fill="#231f20"/>
    <rect x="22" y="16" width="1" height="1" fill="#231f20"/>
    <rect x="25" y="16" width="1" height="1" fill="#231f20"/>
    <rect x="27" y="16" width="1" height="1" fill="#231f20"/>
    <rect x="30" y="16" width="1" height="1" fill="#231f20"/>
    <rect x="36" y="16" width="1" height="1" fill="#231f20"/>
    <rect x="39" y="16" width="1" height="1" fill="#231f20"/>
    <rect x="55" y="16" width="1" height="1" fill="#231f20"/>
    <rect x="1" y="17" width="1" height="1" fill="#231f20"/>
    <rect x="22" y="17" width="1" height="1" fill="#231f20"/>
    <rect x="25" y="17" width="1" height="1" fill="#231f20"/>
    <rect x="27" y="17" width="1" height="1" fill="#231f20"/>
    <rect x="30" y="17" width="1" height="1" fill="#231f20"/>
    <rect x="36" y="17" width="1" height="1" fill="#231f20"/>
    <rect x="38" y="17" width="1" height="1" fill="#231f20"/>
    <rect x="55" y="17" width="1" height="1" fill="#231f20"/>
    <rect x="1" y="18" width="1" height="1" fill="#231f20"/>
    <rect x="22" y="18" width="1" height="1" fill="#231f20"/>
    <rect x="25" y="18" width="1" height="1" fill="#231f20"/>
    <rect x="27" y="18" width="1" height="1" fill="#231f20"/>
    <rect x="30" y="18" width="1" height="1" fill="#231f20"/>
    <rect x="35" y="18" width="1" height="1" fill="#231f20"/>
    <rect x="37" y="18" width="1" height="1" fill="#231f20"/>
    <rect x="55" y="18" width="1" height="1" fill="#231f20"/>
    <rect x="1" y="19" width="1" height="1" fill="#231f20"/>
    <rect x="22" y="19" width="1" height="1" fill="#231f20"/>
    <rect x="25" y="19" width="1" height="1" fill="#231f20"/>
    <rect x="27" y="19" width="1" height="1" fill="#231f20"/>
    <rect x="30" y="19" width="1" height="1" fill="#231f20"/>
    <rect x="37" y="19" width="1" height="1" fill="#231f20"/>
    <rect x="55" y="19" width="1" height="1" fill="#231f20"/>
    <rect x="1" y="20" width="1" height="1" fill="#231f20"/>
    <rect x="22" y="20" width="1" height="1" fill="#231f20"/>
    <rect x="25" y="20" width="1" height="1" fill="#231f20"/>
    <rect x="27" y="20" width="1" height="1" fill="#231f20"/>
    <rect x="30" y="20" width="1" height="1" fill="#231f20"/>
    <rect x="36" y="20" width="1" height="1" fill="#231f20"/>
    <rect x="55" y="20" width="1" height="1" fill="#231f20"/>
    <rect x="1" y="21" width="1" height="1" fill="#231f20"/>
    <rect x="22" y="21" width="1" height="1" fill="#231f20"/>
    <rect x="25" y="21" width="1" height="1" fill="#231f20"/>
    <rect x="27" y="21" width="1" height="1" fill="#231f20"/>
    <rect x="30" y="21" width="1" height="1" fill="#231f20"/>
    <rect x="36" y="21" width="1" height="1" fill="#231f20"/>
    <rect x="55" y="21" width="1" height="1" fill="#231f20"/>
    <rect x="1" y="22" width="55" height="1" fill="#231f20"/>
    <rect x="1" y="23" width="1" height="1" fill="#231f20"/>
    <rect x="14" y="23" width="1" height="1" fill="#231f20"/>
    <rect x="16" y="23" width="1" height="1" fill="#231f20"/>
    <rect x="19" y="23" width="1" height="1" fill="#231f20"/>
    <rect x="22" y="23" width="1" height="1" fill="#231f20"/>
    <rect x="39" y="23" width="1" height="1" fill="#231f20"/>
    <rect x="55" y="23" width="1" height="1" fill="#231f20"/>
    <rect x="1" y="24" width="1" height="1" fill="#231f20"/>
    <rect x="14" y="24" width="1" height="1" fill="#231f20"/>
    <rect x="16" y="24" width="1" height="1" fill="#231f20"/>
    <rect x="19" y="24" width="1" height="1" fill="#231f20"/>
    <rect x="22" y="24" width="1" height="1" fill="#231f20"/>
    <rect x="32" y="24" width="1" height="1" fill="#231f20"/>
    <rect x="36" y="24" width="1" height="1" fill="#231f20"/>
    <rect x="39" y="24" width="1" height="1" fill="#231f20"/>
    <rect x="55" y="24" width="1" height="1" fill="#231f20"/>
    <rect x="1" y="25" width="1" height="1" fill="#231f20"/>
    <rect x="14" y="25" width="1" height="1" fill="#231f20"/>
    <rect x="16" y="25" width="1" height="1" fill="#231f20"/>
    <rect x="19" y="25" width="1" height="1" fill="#231f20"/>
    <rect x="22" y="25" width="1" height="1" fill="#231f20"/>
    <rect x="28" y="25" width="1" height="1" fill="#231f20"/>
    <rect x="31" y="25" width="1" height="1" fill="#231f20"/>
    <rect x="35" y="25" width="1" height="1" fill="#231f20"/>
    <rect x="38" y="25" width="1" height="1" fill="#231f20"/>
    <rect x="55" y="25" width="1" height="1" fill="#231f20"/>
    <rect x="1" y="26" width="1" height="1" fill="#231f20"/>
    <rect x="14" y="26" width="1" height="1" fill="#231f20"/>
    <rect x="16" y="26" width="1" height="1" fill="#231f20"/>
    <rect x="19" y="26" width="1" height="1" fill="#231f20"/>
    <rect x="22" y="26" width="1" height="1" fill="#231f20"/>
    <rect x="28" y="26" width="1" height="1" fill="#231f20"/>
    <rect x="31" y="26" width="1" height="1" fill="#231f20"/>
    <rect x="35" y="26" width="1" height="1" fill="#231f20"/>
    <rect x="38" y="26" width="1" height="1" fill="#231f20"/>
    <rect x="55" y="26" width="1" height="1" fill="#231f20"/>
    <rect x="1" y="27" width="1" height="1" fill="#231f20"/>
    <rect x="14" y="27" width="1" height="1" fill="#231f20"/>
    <rect x="16" y="27" width="1" height="1" fill="#231f20"/>
    <rect x="19" y="27" width="1" height="1" fill="#231f20"/>
    <rect x="22" y="27" width="1" height="1" fill="#231f20"/>
    <rect x="27" y="27" width="1" height="1" fill="#231f20"/>
    <rect x="30" y="27" width="1" height="1" fill="#231f20"/>
    <rect x="34" y="27" width="1" height="1" fill="#231f20"/>
    <rect x="37" y="27" width="1" height="1" fill="#231f20"/>
    <rect x="55" y="27" width="1" height="1" fill="#231f20"/>
    <rect x="1" y="28" width="1" height="1" fill="#231f20"/>
    <rect x="14" y="28" width="1" height="1" fill="#231f20"/>
    <rect x="16" y="28" width="1" height="1" fill="#231f20"/>
    <rect x="19" y="28" width="1" height="1" fill="#231f20"/>
    <rect x="22" y="28" width="1" height="1" fill="#231f20"/>
    <rect x="27" y="28" width="1" height="1" fill="#231f20"/>
    <rect x="30" y="28" width="1" height="1" fill="#231f20"/>
    <rect x="34" y="28" width="1" height="1" fill="#231f20"/>
    <rect x="36" y="28" width="1" height="1" fill="#231f20"/>
    <rect x="55" y="28" width="1" height="1" fill="#231f20"/>
    <rect x="1" y="29" width="1" height="1" fill="#231f20"/>
    <rect x="14" y="29" width="1" height="1" fill="#231f20"/>
    <rect x="16" y="29" width="1" height="1" fill="#231f20"/>
    <rect x="19" y="29" width="1" height="1" fill="#231f20"/>
    <rect x="22" y="29" width="1" height="1" fill="#231f20"/>
    <rect x="26" y="29" width="1" height="1" fill="#231f20"/>
    <rect x="29" y="29" width="1" height="1" fill="#231f20"/>
    <rect x="33" y="29" width="1" height="1" fill="#231f20"/>
    <rect x="36" y="29" width="1" height="1" fill="#231f20"/>
    <rect x="55" y="29" width="1" height="1" fill="#231f20"/>
    <rect x="1" y="30" width="1" height="1" fill="#231f20"/>
    <rect x="14" y="30" width="1" height="1" fill="#231f20"/>
    <rect x="16" y="30" width="1" height="1" fill="#231f20"/>
    <rect x="19" y="30" width="1" height="1" fill="#231f20"/>
    <rect x="22" y="30" width="1" height="1" fill="#231f20"/>
    <rect x="26" y="30" width="1" height="1" fill="#231f20"/>
    <rect x="29" y="30" width="1" height="1" fill="#231f20"/>
    <rect x="32" y="30" width="1" height="1" fill="#231f20"/>
    <rect x="35" y="30" width="1" height="1" fill="#231f20"/>
    <rect x="55" y="30" width="1" height="1" fill="#231f20"/>
    <rect x="1" y="31" width="1" height="1" fill="#231f20"/>
    <rect x="14" y="31" width="1" height="1" fill="#231f20"/>
    <rect x="16" y="31" width="1" height="1" fill="#231f20"/>
    <rect x="19" y="31" width="1" height="1" fill="#231f20"/>
    <rect x="22" y="31" width="1" height="1" fill="#231f20"/>
    <rect x="28" y="31" width="1" height="1" fill="#231f20"/>
    <rect x="32" y="31" width="1" height="1" fill="#231f20"/>
    <rect x="35" y="31" width="1" height="1" fill="#231f20"/>
    <rect x="55" y="31" width="1" height="1" fill="#231f20"/>
    <rect x="1" y="32" width="1" height="1" fill="#231f20"/>
    <rect x="14" y="32" width="1" height="1" fill="#231f20"/>
    <rect x="16" y="32" width="1" height="1" fill="#231f20"/>
    <rect x="19" y="32" width="1" height="1" fill="#231f20"/>
    <rect x="22" y="32" width="1" height="1" fill="#231f20"/>
    <rect x="28" y="32" width="1" height="1" fill="#231f20"/>
    <rect x="31" y="32" width="1" height="1" fill="#231f20"/>
    <rect x="34" y="32" width="1" height="1" fill="#231f20"/>
    <rect x="55" y="32" width="1" height="1" fill="#231f20"/>
    <rect x="1" y="33" width="1" height="1" fill="#231f20"/>
    <rect x="6" y="33" width="5" height="1" fill="#231f20"/>
    <rect x="14" y="33" width="1" height="1" fill="#231f20"/>
    <rect x="16" y="33" width="1" height="1" fill="#231f20"/>
    <rect x="19" y="33" width="1" height="1" fill="#231f20"/>
    <rect x="22" y="33" width="1" height="1" fill="#231f20"/>
    <rect x="27" y="33" width="1" height="1" fill="#231f20"/>
    <rect x="31" y="33" width="1" height="1" fill="#231f20"/>
    <rect x="33" y="33" width="1" height="1" fill="#231f20"/>
    <rect x="38" y="33" width="5" height="1" fill="#231f20"/>
    <rect x="55" y="33" width="1" height="1" fill="#231f20"/>
    <rect x="1" y="34" width="1" height="1" fill="#231f20"/>
    <rect x="14" y="34" width="1" height="1" fill="#231f20"/>
    <rect x="16" y="34" width="1" height="1" fill="#231f20"/>
    <rect x="19" y="34" width="1" height="1" fill="#231f20"/>
    <rect x="22" y="34" width="1" height="1" fill="#231f20"/>
    <rect x="27" y="34" width="1" height="1" fill="#231f20"/>
    <rect x="30" y="34" width="1" height="1" fill="#231f20"/>
    <rect x="33" y="34" width="1" height="1" fill="#231f20"/>
    <rect x="55" y="34" width="1" height="1" fill="#231f20"/>
    <rect x="1" y="35" width="1" height="1" fill="#231f20"/>
    <rect x="14" y="35" width="1" height="1" fill="#231f20"/>
    <rect x="16" y="35" width="1" height="1" fill="#231f20"/>
    <rect x="19" y="35" width="1" height="1" fill="#231f20"/>
    <rect x="22" y="35" width="1" height="1" fill="#231f20"/>
    <rect x="26" y="35" width="1" height="1" fill="#231f20"/>
    <rect x="29" y="35" width="1" height="1" fill="#231f20"/>
    <rect x="32" y="35" width="1" height="1" fill="#231f20"/>
    <rect x="55" y="35" width="1" height="1" fill="#231f20"/>
    <rect x="1" y="36" width="1" height="1" fill="#231f20"/>
    <rect x="14" y="36" width="1" height="1" fill="#231f20"/>
    <rect x="16" y="36" width="1" height="1" fill="#231f20"/>
    <rect x="19" y="36" width="1" height="1" fill="#231f20"/>
    <rect x="22" y="36" width="1" height="1" fill="#231f20"/>
    <rect x="29" y="36" width="1" height="1" fill="#231f20"/>
    <rect x="32" y="36" width="1" height="1" fill="#231f20"/>
    <rect x="55" y="36" width="1" height="1" fill="#231f20"/>
    <rect x="1" y="37" width="1" height="1" fill="#231f20"/>
    <rect x="14" y="37" width="1" height="1" fill="#231f20"/>
    <rect x="16" y="37" width="1" height="1" fill="#231f20"/>
    <rect x="19" y="37" width="1" height="1" fill="#231f20"/>
    <rect x="22" y="37" width="1" height="1" fill="#231f20"/>
    <rect x="28" y="37" width="1" height="1" fill="#231f20"/>
    <rect x="31" y="37" width="1" height="1" fill="#231f20"/>
    <rect x="55" y="37" width="1" height="1" fill="#231f20"/>
    <rect x="1" y="38" width="1" height="1" fill="#231f20"/>
    <rect x="14" y="38" width="1" height="1" fill="#231f20"/>
    <rect x="16" y="38" width="1" height="1" fill="#231f20"/>
    <rect x="19" y="38" width="1" height="1" fill="#231f20"/>
    <rect x="22" y="38" width="1" height="1" fill="#231f20"/>
    <rect x="28" y="38" width="1" height="1" fill="#231f20"/>
    <rect x="31" y="38" width="1" height="1" fill="#231f20"/>
    <rect x="55" y="38" width="1" height="1" fill="#231f20"/>
    <rect x="1" y="39" width="1" height="1" fill="#231f20"/>
    <rect x="14" y="39" width="1" height="1" fill="#231f20"/>
    <rect x="16" y="39" width="1" height="1" fill="#231f20"/>
    <rect x="19" y="39" width="1" height="1" fill="#231f20"/>
    <rect x="22" y="39" width="1" height="1" fill="#231f20"/>
    <rect x="27" y="39" width="1" height="1" fill="#231f20"/>
    <rect x="30" y="39" width="1" height="1" fill="#231f20"/>
    <rect x="55" y="39" width="1" height="1" fill="#231f20"/>
    <rect x="1" y="40" width="1" height="1" fill="#231f20"/>
    <rect x="14" y="40" width="1" height="1" fill="#231f20"/>
    <rect x="16" y="40" width="1" height="1" fill="#231f20"/>
    <rect x="19" y="40" width="1" height="1" fill="#231f20"/>
    <rect x="22" y="40" width="1" height="1" fill="#231f20"/>
    <rect x="29" y="40" width="1" height="1" fill="#231f20"/>
    <rect x="55" y="40" width="1" height="1" fill="#231f20"/>
    <rect x="1" y="41" width="1" height="1" fill="#231f20"/>
    <rect x="14" y="41" width="1" height="1" fill="#231f20"/>
    <rect x="16" y="41" width="1" height="1" fill="#231f20"/>
    <rect x="19" y="41" width="1" height="1" fill="#231f20"/>
    <rect x="22" y="41" width="1" height="1" fill="#231f20"/>
    <rect x="29" y="41" width="1" height="1" fill="#231f20"/>
    <rect x="55" y="41" width="1" height="1" fill="#231f20"/>
    <rect x="1" y="42" width="1" height="1" fill="#231f20"/>
    <rect x="14" y="42" width="1" height="1" fill="#231f20"/>
    <rect x="16" y="42" width="1" height="1" fill="#231f20"/>
    <rect x="19" y="42" width="1" height="1" fill="#231f20"/>
    <rect x="22" y="42" width="1" height="1" fill="#231f20"/>
    <rect x="28" y="42" width="1" height="1" fill="#231f20"/>
    <rect x="55" y="42" width="1" height="1" fill="#231f20"/>
    <rect x="1" y="43" width="1" height="1" fill="#231f20"/>
    <rect x="14" y="43" width="1" height="1" fill="#231f20"/>
    <rect x="16" y="43" width="1" height="1" fill="#231f20"/>
    <rect x="19" y="43" width="1" height="1" fill="#231f20"/>
    <rect x="22" y="43" width="1" height="1" fill="#231f20"/>
    <rect x="28" y="43" width="1" height="1" fill="#231f20"/>
    <rect x="55" y="43" width="1" height="1" fill="#231f20"/>
    <rect x="1" y="44" width="55" height="1" fill="#231f20"/>
    <rect x="1" y="45" width="1" height="1" fill="#231f20"/>
    <rect x="22" y="45" width="1" height="1" fill="#231f20"/>
    <rect x="25" y="45" width="1" height="1" fill="#231f20"/>
    <rect x="27" y="45" width="1" height="1" fill="#231f20"/>
    <rect x="30" y="45" width="1" height="1" fill="#231f20"/>
    <rect x="44" y="45" width="1" height="1" fill="#231f20"/>
    <rect x="47" y="45" width="1" height="1" fill="#231f20"/>
    <rect x="55" y="45" width="1" height="1" fill="#231f20"/>
    <rect x="1" y="46" width="1" height="1" fill="#231f20"/>
    <rect x="22" y="46" width="1" height="1" fill="#231f20"/>
    <rect x="25" y="46" width="1" height="1" fill="#231f20"/>
    <rect x="27" y="46" width="1" height="1" fill="#231f20"/>
    <rect x="30" y="46" width="1" height="1" fill="#231f20"/>
    <rect x="40" y="46" width="1" height="1" fill="#231f20"/>
    <rect x="43" y="46" width="1" height="1" fill="#231f20"/>
    <rect x="47" y="46" width="1" height="1" fill="#231f20"/>
    <rect x="55" y="46" width="1" height="1" fill="#231f20"/>
    <rect x="1" y="47" width="1" height="1" fill="#231f20"/>
    <rect x="22" y="47" width="1" height="1" fill="#231f20"/>
    <rect x="25" y="47" width="1" height="1" fill="#231f20"/>
    <rect x="27" y="47" width="1" height="1" fill="#231f20"/>
    <rect x="30" y="47" width="1" height="1" fill="#231f20"/>
    <rect x="37" y="47" width="1" height="1" fill="#231f20"/>
    <rect x="39" y="47" width="1" height="1" fill="#231f20"/>
    <rect x="43" y="47" width="1" height="1" fill="#231f20"/>
    <rect x="46" y="47" width="1" height="1" fill="#231f20"/>
    <rect x="55" y="47" width="1" height="1" fill="#231f20"/>
    <rect x="1" y="48" width="1" height="1" fill="#231f20"/>
    <rect x="22" y="48" width="1" height="1" fill="#231f20"/>
    <rect x="25" y="48" width="1" height="1" fill="#231f20"/>
    <rect x="27" y="48" width="1" height="1" fill="#231f20"/>
    <rect x="30" y="48" width="1" height="1" fill="#231f20"/>
    <rect x="36" y="48" width="1" height="1" fill="#231f20"/>
    <rect x="39" y="48" width="1" height="1" fill="#231f20"/>
    <rect x="42" y="48" width="1" height="1" fill="#231f20"/>
    <rect x="46" y="48" width="1" height="1" fill="#231f20"/>
    <rect x="55" y="48" width="1" height="1" fill="#231f20"/>
    <rect x="1" y="49" width="1" height="1" fill="#231f20"/>
    <rect x="22" y="49" width="1" height="1" fill="#231f20"/>
    <rect x="25" y="49" width="1" height="1" fill="#231f20"/>
    <rect x="27" y="49" width="1" height="1" fill="#231f20"/>
    <rect x="30" y="49" width="1" height="1" fill="#231f20"/>
    <rect x="36" y="49" width="1" height="1" fill="#231f20"/>
    <rect x="38" y="49" width="1" height="1" fill="#231f20"/>
    <rect x="42" y="49" width="1" height="1" fill="#231f20"/>
    <rect x="45" y="49" width="1" height="1" fill="#231f20"/>
    <rect x="55" y="49" width="1" height="1" fill="#231f20"/>
    <rect x="1" y="50" width="1" height="1" fill="#231f20"/>
    <rect x="22" y="50" width="1" height="1" fill="#231f20"/>
    <rect x="25" y="50" width="1" height="1" fill="#231f20"/>
    <rect x="27" y="50" width="1" height="1" fill="#231f20"/>
    <rect x="30" y="50" width="1" height="1" fill="#231f20"/>
    <rect x="35" y="50" width="1" height="1" fill="#231f20"/>
    <rect x="38" y="50" width="1" height="1" fill="#231f20"/>
    <rect x="41" y="50" width="1" height="1" fill="#231f20"/>
    <rect x="44" y="50" width="1" height="1" fill="#231f20"/>
    <rect x="55" y="50" width="1" height="1" fill="#231f20"/>
    <rect x="1" y="51" width="1" height="1" fill="#231f20"/>
    <rect x="22" y="51" width="1" height="1" fill="#231f20"/>
    <rect x="25" y="51" width="1" height="1" fill="#231f20"/>
    <rect x="27" y="51" width="1" height="1" fill="#231f20"/>
    <rect x="30" y="51" width="1" height="1" fill="#231f20"/>
    <rect x="35" y="51" width="1" height="1" fill="#231f20"/>
    <rect x="37" y="51" width="1" height="1" fill="#231f20"/>
    <rect x="41" y="51" width="1" height="1" fill="#231f20"/>
    <rect x="44" y="51" width="1" height="1" fill="#231f20"/>
    <rect x="55" y="51" width="1" height="1" fill="#231f20"/>
    <rect x="1" y="52" width="1" height="1" fill="#231f20"/>
    <rect x="22" y="52" width="1" height="1" fill="#231f20"/>
    <rect x="25" y="52" width="1" height="1" fill="#231f20"/>
    <rect x="27" y="52" width="1" height="1" fill="#231f20"/>
    <rect x="30" y="52" width="1" height="1" fill="#231f20"/>
    <rect x="34" y="52" width="1" height="1" fill="#231f20"/>
    <rect x="36" y="52" width="1" height="1" fill="#231f20"/>
    <rect x="40" y="52" width="1" height="1" fill="#231f20"/>
    <rect x="43" y="52" width="1" height="1" fill="#231f20"/>
    <rect x="55" y="52" width="1" height="1" fill="#231f20"/>
    <rect x="1" y="53" width="1" height="1" fill="#231f20"/>
    <rect x="22" y="53" width="1" height="1" fill="#231f20"/>
    <rect x="25" y="53" width="1" height="1" fill="#231f20"/>
    <rect x="27" y="53" width="1" height="1" fill="#231f20"/>
    <rect x="30" y="53" width="1" height="1" fill="#231f20"/>
    <rect x="36" y="53" width="1" height="1" fill="#231f20"/>
    <rect x="40" y="53" width="1" height="1" fill="#231f20"/>
    <rect x="42" y="53" width="1" height="1" fill="#231f20"/>
    <rect x="55" y="53" width="1" height="1" fill="#231f20"/>
    <rect x="1" y="54" width="1" height="1" fill="#231f20"/>
    <rect x="14" y="54" width="5" height="1" fill="#231f20"/>
    <rect x="22" y="54" width="1" height="1" fill="#231f20"/>
    <rect x="25" y="54" width="1" height="1" fill="#231f20"/>
    <rect x="27" y="54" width="1" height="1" fill="#231f20"/>
    <rect x="30" y="54" width="1" height="1" fill="#231f20"/>
    <rect x="35" y="54" width="1" height="1" fill="#231f20"/>
    <rect x="39" y="54" width="1" height="1" fill="#231f20"/>
    <rect x="42" y="54" width="1" height="1" fill="#231f20"/>
    <rect x="46" y="54" width="6" height="1" fill="#231f20"/>
    <rect x="55" y="54" width="1" height="1" fill="#231f20"/>
    <rect x="1" y="55" width="1" height="1" fill="#231f20"/>
    <rect x="22" y="55" width="1" height="1" fill="#231f20"/>
    <rect x="25" y="55" width="1" height="1" fill="#231f20"/>
    <rect x="27" y="55" width="1" height="1" fill="#231f20"/>
    <rect x="30" y="55" width="1" height="1" fill="#231f20"/>
    <rect x="35" y="55" width="1" height="1" fill="#231f20"/>
    <rect x="38" y="55" width="1" height="1" fill="#231f20"/>
    <rect x="41" y="55" width="1" height="1" fill="#231f20"/>
    <rect x="55" y="55" width="1" height="1" fill="#231f20"/>
    <rect x="1" y="56" width="1" height="1" fill="#231f20"/>
    <rect x="22" y="56" width="1" height="1" fill="#231f20"/>
    <rect x="25" y="56" width="1" height="1" fill="#231f20"/>
    <rect x="27" y="56" width="1" height="1" fill="#231f20"/>
    <rect x="30" y="56" width="1" height="1" fill="#231f20"/>
    <rect x="34" y="56" width="1" height="1" fill="#231f20"/>
    <rect x="38" y="56" width="1" height="1" fill="#231f20"/>
    <rect x="41" y="56" width="1" height="1" fill="#231f20"/>
    <rect x="55" y="56" width="1" height="1" fill="#231f20"/>
    <rect x="1" y="57" width="1" height="1" fill="#231f20"/>
    <rect x="22" y="57" width="1" height="1" fill="#231f20"/>
    <rect x="25" y="57" width="1" height="1" fill="#231f20"/>
    <rect x="27" y="57" width="1" height="1" fill="#231f20"/>
    <rect x="30" y="57" width="1" height="1" fill="#231f20"/>
    <rect x="37" y="57" width="1" height="1" fill="#231f20"/>
    <rect x="40" y="57" width="1" height="1" fill="#231f20"/>
    <rect x="55" y="57" width="1" height="1" fill="#231f20"/>
    <rect x="1" y="58" width="1" height="1" fill="#231f20"/>
    <rect x="22" y="58" width="1" height="1" fill="#231f20"/>
    <rect x="25" y="58" width="1" height="1" fill="#231f20"/>
    <rect x="27" y="58" width="1" height="1" fill="#231f20"/>
    <rect x="30" y="58" width="1" height="1" fill="#231f20"/>
    <rect x="37" y="58" width="1" height="1" fill="#231f20"/>
    <rect x="39" y="58" width="1" height="1" fill="#231f20"/>
    <rect x="55" y="58" width="1" height="1" fill="#231f20"/>
    <rect x="1" y="59" width="1" height="1" fill="#231f20"/>
    <rect x="22" y="59" width="1" height="1" fill="#231f20"/>
    <rect x="25" y="59" width="1" height="1" fill="#231f20"/>
    <rect x="27" y="59" width="1" height="1" fill="#231f20"/>
    <rect x="30" y="59" width="1" height="1" fill="#231f20"/>
    <rect x="36" y="59" width="1" height="1" fill="#231f20"/>
    <rect x="39" y="59" width="1" height="1" fill="#231f20"/>
    <rect x="55" y="59" width="1" height="1" fill="#231f20"/>
    <rect x="1" y="60" width="1" height="1" fill="#231f20"/>
    <rect x="22" y="60" width="1" height="1" fill="#231f20"/>
    <rect x="25" y="60" width="1" height="1" fill="#231f20"/>
    <rect x="27" y="60" width="1" height="1" fill="#231f20"/>
    <rect x="30" y="60" width="1" height="1" fill="#231f20"/>
    <rect x="36" y="60" width="1" height="1" fill="#231f20"/>
    <rect x="38" y="60" width="1" height="1" fill="#231f20"/>
    <rect x="55" y="60" width="1" height="1" fill="#231f20"/>
    <rect x="1" y="61" width="1" height="1" fill="#231f20"/>
    <rect x="22" y="61" width="1" height="1" fill="#231f20"/>
    <rect x="25" y="61" width="1" height="1" fill="#231f20"/>
    <rect x="27" y="61" width="1" height="1" fill="#231f20"/>
    <rect x="30" y="61" width="1" height="1" fill="#231f20"/>
    <rect x="35" y="61" width="1" height="1" fill="#231f20"/>
    <rect x="37" y="61" width="1" height="1" fill="#231f20"/>
    <rect x="55" y="61" width="1" height="1" fill="#231f20"/>
    <rect x="1" y="62" width="1" height="1" fill="#231f20"/>
    <rect x="22" y="62" width="1" height="1" fill="#231f20"/>
    <rect x="25" y="62" width="1" height="1" fill="#231f20"/>
    <rect x="27" y="62" width="1" height="1" fill="#231f20"/>
    <rect x="30" y="62" width="1" height="1" fill="#231f20"/>
    <rect x="37" y="62" width="1" height="1" fill="#231f20"/>
    <rect x="55" y="62" width="1" height="1" fill="#231f20"/>
    <rect x="1" y="63" width="1" height="1" fill="#231f20"/>
    <rect x="22" y="63" width="1" height="1" fill="#231f20"/>
    <rect x="25" y="63" width="1" height="1" fill="#231f20"/>
    <rect x="27" y="63" width="1" height="1" fill="#231f20"/>
    <rect x="30" y="63" width="1" height="1" fill="#231f20"/>
    <rect x="36" y="63" width="1" height="1" fill="#231f20"/>
    <rect x="55" y="63" width="1" height="1" fill="#231f20"/>
    <rect x="1" y="64" width="1" height="1" fill="#231f20"/>
    <rect x="22" y="64" width="1" height="1" fill="#231f20"/>
    <rect x="25" y="64" width="1" height="1" fill="#231f20"/>
    <rect x="27" y="64" width="1" height="1" fill="#231f20"/>
    <rect x="30" y="64" width="1" height="1" fill="#231f20"/>
    <rect x="36" y="64" width="1" height="1" fill="#231f20"/>
    <rect x="55" y="64" width="1" height="1" fill="#231f20"/>
    <rect x="1" y="65" width="55" height="1" fill="#231f20"/>
  </g>
</svg>