<?xml version="1.0" encoding="UTF-8"?>
<svg xmlns="http://www.w3.org/2000/svg" viewBox="0 0 171 53" width="171" height="53">
  <!-- Auto-converted from legend-2771.png -->
  <rect x="0" y="0" width="171" height="53" fill="none"/>
  <g fill="#222c42" stroke="none">
    <rect x="0" y="0" width="171" height="1" fill="#222c42"/>
    <rect x="0" y="1" width="1" height="1" fill="#222c42"/>
    <rect x="170" y="1" width="1" height="1" fill="#222c42"/>
    <rect x="0" y="2" width="1" height="1" fill="#222c42"/>
    <rect x="170" y="2" width="1" height="1" fill="#222c42"/>
    <rect x="0" y="3" width="1" height="1" fill="#222c42"/>
    <rect x="170" y="3" width="1" height="1" fill="#222c42"/>
    <rect x="0" y="4" width="1" height="1" fill="#222c42"/>
    <rect x="170" y="4" width="1" height="1" fill="#222c42"/>
    <rect x="0" y="5" width="1" height="1" fill="#222c42"/>
    <rect x="170" y="5" width="1" height="1" fill="#222c42"/>
    <rect x="0" y="6" width="1" height="1" fill="#222c42"/>
    <rect x="170" y="6" width="1" height="1" fill="#222c42"/>
    <rect x="0" y="7" width="1" height="1" fill="#222c42"/>
    <rect x="170" y="7" width="1" height="1" fill="#222c42"/>
    <rect x="0" y="8" width="1" height="1" fill="#222c42"/>
    <rect x="170" y="8" width="1" height="1" fill="#222c42"/>
    <rect x="0" y="9" width="1" height="1" fill="#222c42"/>
    <rect x="170" y="9" width="1" height="1" fill="#222c42"/>
    <rect x="0" y="10" width="1" height="1" fill="#222c42"/>
    <rect x="170" y="10" width="1" height="1" fill="#222c42"/>
    <rect x="0" y="11" width="1" height="1" fill="#222c42"/>
    <rect x="6" y="11" width="1" height="1" fill="#222c42"/>
    <rect x="170" y="11" width="1" height="1" fill="#222c42"/>
    <rect x="0" y="12" width="1" height="1" fill="#222c42"/>
    <rect x="6" y="12" width="1" height="1" fill="#222c42"/>
    <rect x="12" y="12" width="1" height="1" fill="#222c42"/>
    <rect x="70" y="12" width="1" height="1" fill="#222c42"/>
    <rect x="170" y="12" width="1" height="1" fill="#222c42"/>
    <rect x="0" y="13" width="1" height="1" fill="#222c42"/>
    <rect x="6" y="13" width="2" height="1" fill="#222c42"/>
    <rect x="12" y="13" width="2" height="1" fill="#222c42"/>
    <rect x="35" y="13" width="1" height="1" fill="#222c42"/>
    <rect x="70" y="13" width="2" height="1" fill="#222c42"/>
    <rect x="97" y="13" width="1" height="1" fill="#222c42"/>
    <rect x="102" y="13" width="1" height="1" fill="#222c42"/>
    <rect x="170" y="13" width="1" height="1" fill="#222c42"/>
    <rect x="0" y="14" width="1" height="1" fill="#222c42"/>
    <rect x="6" y="14" width="2" height="1" fill="#222c42"/>
    <rect x="12" y="14" width="3" height="1" fill="#222c42"/>
    <rect x="35" y="14" width="2" height="1" fill="#222c42"/>
    <rect x="71" y="14" width="2" height="1" fill="#222c42"/>
    <rect x="97" y="14" width="2" height="1" fill="#222c42"/>
    <rect x="102" y="14" width="2" height="1" fill="#222c42"/>
    <rect x="128" y="14" width="1" height="1" fill="#222c42"/>
    <rect x="170" y="14" width="1" height="1" fill="#222c42"/>
    <rect x="0" y="15" width="1" height="1" fill="#222c42"/>
    <rect x="6" y="15" width="2" height="1" fill="#222c42"/>
    <rect x="11" y="15" width="3" height="1" fill="#222c42"/>
    <rect x="35" y="15" width="2" height="1" fill="#222c42"/>
    <rect x="45" y="15" width="1" height="1" fill="#222c42"/>
    <rect x="71" y="15" width="2" height="1" fill="#222c42"/>
    <rect x="77" y="15" width="1" height="1" fill="#222c42"/>
    <rect x="97" y="15" width="2" height="1" fill="#222c42"/>
    <rect x="102" y="15" width="2" height="1" fill="#222c42"/>
    <rect x="127" y="15" width="2" height="1" fill="#222c42"/>
    <rect x="137" y="15" width="1" height="1" fill="#222c42"/>
    <rect x="170" y="15" width="1" height="1" fill="#222c42"/>
    <rect x="0" y="16" width="1" height="1" fill="#222c42"/>
    <rect x="6" y="16" width="2" height="1" fill="#222c42"/>
    <rect x="11" y="16" width="2" height="1" fill="#222c42"/>
    <rect x="36" y="16" width="11" height="1" fill="#222c42"/>
    <rect x="71" y="16" width="2" height="1" fill="#222c42"/>
    <rect x="76" y="16" width="2" height="1" fill="#222c42"/>
    <rect x="97" y="16" width="2" height="1" fill="#222c42"/>
    <rect x="103" y="16" width="2" height="1" fill="#222c42"/>
    <rect x="128" y="16" width="2" height="1" fill="#222c42"/>
    <rect x="137" y="16" width="1" height="1" fill="#222c42"/>
    <rect x="157" y="16" width="1" height="1" fill="#222c42"/>
    <rect x="170" y="16" width="1" height="1" fill="#222c42"/>
    <rect x="0" y="17" width="1" height="1" fill="#222c42"/>
    <rect x="6" y="17" width="2" height="1" fill="#222c42"/>
    <rect x="11" y="17" width="2" height="1" fill="#222c42"/>
    <rect x="36" y="17" width="12" height="1" fill="#222c42"/>
    <rect x="65" y="17" width="14" height="1" fill="#222c42"/>
    <rect x="97" y="17" width="2" height="1" fill="#222c42"/>
    <rect x="103" y="17" width="2" height="1" fill="#222c42"/>
    <rect x="129" y="17" width="1" height="1" fill="#222c42"/>
    <rect x="131" y="17" width="8" height="1" fill="#222c42"/>
    <rect x="157" y="17" width="2" height="1" fill="#222c42"/>
    <rect x="169" y="17" width="2" height="1" fill="#222c42"/>
    <rect x="0" y="18" width="1" height="1" fill="#222c42"/>
    <rect x="6" y="18" width="2" height="1" fill="#222c42"/>
    <rect x="10" y="18" width="2" height="1" fill="#222c42"/>
    <rect x="37" y="18" width="2" height="1" fill="#222c42"/>
    <rect x="42" y="18" width="1" height="1" fill="#222c42"/>
    <rect x="65" y="18" width="14" height="1" fill="#222c42"/>
    <rect x="97" y="18" width="2" height="1" fill="#222c42"/>
    <rect x="104" y="18" width="1" height="1" fill="#222c42"/>
    <rect x="107" y="18" width="1" height="1" fill="#222c42"/>
    <rect x="129" y="18" width="2" height="1" fill="#222c42"/>
    <rect x="132" y="18" width="1" height="1" fill="#222c42"/>
    <rect x="158" y="18" width="1" height="1" fill="#222c42"/>
    <rect x="160" y="18" width="11" height="1" fill="#222c42"/>
    <rect x="0" y="19" width="1" height="1" fill="#222c42"/>
    <rect x="6" y="19" width="6" height="1" fill="#222c42"/>
    <rect x="34" y="19" width="1" height="1" fill="#222c42"/>
    <rect x="38" y="19" width="1" height="1" fill="#222c42"/>
    <rect x="42" y="19" width="1" height="1" fill="#222c42"/>
    <rect x="97" y="19" width="2" height="1" fill="#222c42"/>
    <rect x="100" y="19" width="8" height="1" fill="#222c42"/>
    <rect x="129" y="19" width="2" height="1" fill="#222c42"/>
    <rect x="158" y="19" width="2" height="1" fill="#222c42"/>
    <rect x="161" y="19" width="10" height="1" fill="#222c42"/>
    <rect x="0" y="20" width="1" height="1" fill="#222c42"/>
    <rect x="7" y="20" width="4" height="1" fill="#222c42"/>
    <rect x="34" y="20" width="2" height="1" fill="#222c42"/>
    <rect x="38" y="20" width="1" height="1" fill="#222c42"/>
    <rect x="42" y="20" width="1" height="1" fill="#222c42"/>
    <rect x="68" y="20" width="1" height="1" fill="#222c42"/>
    <rect x="75" y="20" width="1" height="1" fill="#222c42"/>
    <rect x="95" y="20" width="14" height="1" fill="#222c42"/>
    <rect x="130" y="20" width="1" height="1" fill="#222c42"/>
    <rect x="159" y="20" width="1" height="1" fill="#222c42"/>
    <rect x="167" y="20" width="2" height="1" fill="#222c42"/>
    <rect x="170" y="20" width="1" height="1" fill="#222c42"/>
    <rect x="0" y="21" width="1" height="1" fill="#222c42"/>
    <rect x="7" y="21" width="3" height="1" fill="#222c42"/>
    <rect x="34" y="21" width="3" height="1" fill="#222c42"/>
    <rect x="38" y="21" width="1" height="1" fill="#222c42"/>
    <rect x="42" y="21" width="1" height="1" fill="#222c42"/>
    <rect x="68" y="21" width="9" height="1" fill="#222c42"/>
    <rect x="96" y="21" width="6" height="1" fill="#222c42"/>
    <rect x="139" y="21" width="1" height="1" fill="#222c42"/>
    <rect x="159" y="21" width="3" height="1" fill="#222c42"/>
    <rect x="167" y="21" width="2" height="1" fill="#222c42"/>
    <rect x="170" y="21" width="1" height="1" fill="#222c42"/>
    <rect x="0" y="22" width="1" height="1" fill="#222c42"/>
    <rect x="7" y="22" width="2" height="1" fill="#222c42"/>
    <rect x="16" y="22" width="1" height="1" fill="#222c42"/>
    <rect x="35" y="22" width="2" height="1" fill="#222c42"/>
    <rect x="38" y="22" width="1" height="1" fill="#222c42"/>
    <rect x="42" y="22" width="2" height="1" fill="#222c42"/>
    <rect x="68" y="22" width="9" height="1" fill="#222c42"/>
    <rect x="97" y="22" width="2" height="1" fill="#222c42"/>
    <rect x="105" y="22" width="1" height="1" fill="#222c42"/>
    <rect x="138" y="22" width="2" height="1" fill="#222c42"/>
    <rect x="156" y="22" width="2" height="1" fill="#222c42"/>
    <rect x="160" y="22" width="2" height="1" fill="#222c42"/>
    <rect x="165" y="22" width="1" height="1" fill="#222c42"/>
    <rect x="167" y="22" width="2" height="1" fill="#222c42"/>
    <rect x="170" y="22" width="1" height="1" fill="#222c42"/>
    <rect x="0" y="23" width="1" height="1" fill="#222c42"/>
    <rect x="4" y="23" width="13" height="1" fill="#222c42"/>
    <rect x="36" y="23" width="1" height="1" fill="#222c42"/>
    <rect x="38" y="23" width="1" height="1" fill="#222c42"/>
    <rect x="42" y="23" width="2" height="1" fill="#222c42"/>
    <rect x="68" y="23" width="2" height="1" fill="#222c42"/>
    <rect x="75" y="23" width="2" height="1" fill="#222c42"/>
    <rect x="97" y="23" width="2" height="1" fill="#222c42"/>
    <rect x="102" y="23" width="4" height="1" fill="#222c42"/>
    <rect x="130" y="23" width="11" height="1" fill="#222c42"/>
    <rect x="156" y="23" width="3" height="1" fill="#222c42"/>
    <rect x="160" y="23" width="2" height="1" fill="#222c42"/>
    <rect x="165" y="23" width="1" height="1" fill="#222c42"/>
    <rect x="167" y="23" width="2" height="1" fill="#222c42"/>
    <rect x="170" y="23" width="1" height="1" fill="#222c42"/>
    <rect x="0" y="24" width="1" height="1" fill="#222c42"/>
    <rect x="4" y="24" width="14" height="1" fill="#222c42"/>
    <rect x="36" y="24" width="3" height="1" fill="#222c42"/>
    <rect x="42" y="24" width="2" height="1" fill="#222c42"/>
    <rect x="68" y="24" width="2" height="1" fill="#222c42"/>
    <rect x="75" y="24" width="2" height="1" fill="#222c42"/>
    <rect x="97" y="24" width="2" height="1" fill="#222c42"/>
    <rect x="102" y="24" width="5" height="1" fill="#222c42"/>
    <rect x="127" y="24" width="5" height="1" fill="#222c42"/>
    <rect x="135" y="24" width="1" height="1" fill="#222c42"/>
    <rect x="157" y="24" width="2" height="1" fill="#222c42"/>
    <rect x="160" y="24" width="7" height="1" fill="#222c42"/>
    <rect x="168" y="24" width="1" height="1" fill="#222c42"/>
    <rect x="170" y="24" width="1" height="1" fill="#222c42"/>
    <rect x="0" y="25" width="1" height="1" fill="#222c42"/>
    <rect x="7" y="25" width="2" height="1" fill="#222c42"/>
    <rect x="10" y="25" width="2" height="1" fill="#222c42"/>
    <rect x="37" y="25" width="2" height="1" fill="#222c42"/>
    <rect x="42" y="25" width="2" height="1" fill="#222c42"/>
    <rect x="68" y="25" width="2" height="1" fill="#222c42"/>
    <rect x="75" y="25" width="2" height="1" fill="#222c42"/>
    <rect x="97" y="25" width="3" height="1" fill="#222c42"/>
    <rect x="102" y="25" width="2" height="1" fill="#222c42"/>
    <rect x="105" y="25" width="2" height="1" fill="#222c42"/>
    <rect x="127" y="25" width="5" height="1" fill="#222c42"/>
    <rect x="134" y="25" width="3" height="1" fill="#222c42"/>
    <rect x="158" y="25" width="3" height="1" fill="#222c42"/>
    <rect x="162" y="25" width="1" height="1" fill="#222c42"/>
    <rect x="165" y="25" width="2" height="1" fill="#222c42"/>
    <rect x="168" y="25" width="3" height="1" fill="#222c42"/>
    <rect x="0" y="26" width="1" height="1" fill="#222c42"/>
    <rect x="7" y="26" width="2" height="1" fill="#222c42"/>
    <rect x="11" y="26" width="1" height="1" fill="#222c42"/>
    <rect x="37" y="26" width="2" height="1" fill="#222c42"/>
    <rect x="42" y="26" width="2" height="1" fill="#222c42"/>
    <rect x="68" y="26" width="2" height="1" fill="#222c42"/>
    <rect x="75" y="26" width="2" height="1" fill="#222c42"/>
    <rect x="97" y="26" width="3" height="1" fill="#222c42"/>
    <rect x="102" y="26" width="2" height="1" fill="#222c42"/>
    <rect x="105" y="26" width="2" height="1" fill="#222c42"/>
    <rect x="129" y="26" width="2" height="1" fill="#222c42"/>
    <rect x="134" y="26" width="2" height="1" fill="#222c42"/>
    <rect x="158" y="26" width="1" height="1" fill="#222c42"/>
    <rect x="160" y="26" width="1" height="1" fill="#222c42"/>
    <rect x="162" y="26" width="1" height="1" fill="#222c42"/>
    <rect x="165" y="26" width="2" height="1" fill="#222c42"/>
    <rect x="168" y="26" width="3" height="1" fill="#222c42"/>
    <rect x="0" y="27" width="1" height="1" fill="#222c42"/>
    <rect x="7" y="27" width="2" height="1" fill="#222c42"/>
    <rect x="11" y="27" width="2" height="1" fill="#222c42"/>
    <rect x="37" y="27" width="2" height="1" fill="#222c42"/>
    <rect x="43" y="27" width="1" height="1" fill="#222c42"/>
    <rect x="68" y="27" width="9" height="1" fill="#222c42"/>
    <rect x="97" y="27" width="4" height="1" fill="#222c42"/>
    <rect x="102" y="27" width="2" height="1" fill="#222c42"/>
    <rect x="105" y="27" width="2" height="1" fill="#222c42"/>
    <rect x="129" y="27" width="2" height="1" fill="#222c42"/>
    <rect x="134" y="27" width="2" height="1" fill="#222c42"/>
    <rect x="160" y="27" width="1" height="1" fill="#222c42"/>
    <rect x="162" y="27" width="1" height="1" fill="#222c42"/>
    <rect x="165" y="27" width="2" height="1" fill="#222c42"/>
    <rect x="168" y="27" width="3" height="1" fill="#222c42"/>
    <rect x="0" y="28" width="1" height="1" fill="#222c42"/>
    <rect x="7" y="28" width="2" height="1" fill="#222c42"/>
    <rect x="11" y="28" width="2" height="1" fill="#222c42"/>
    <rect x="37" y="28" width="1" height="1" fill="#222c42"/>
    <rect x="43" y="28" width="1" height="1" fill="#222c42"/>
    <rect x="68" y="28" width="9" height="1" fill="#222c42"/>
    <rect x="97" y="28" width="4" height="1" fill="#222c42"/>
    <rect x="102" y="28" width="2" height="1" fill="#222c42"/>
    <rect x="105" y="28" width="2" height="1" fill="#222c42"/>
    <rect x="129" y="28" width="2" height="1" fill="#222c42"/>
    <rect x="134" y="28" width="2" height="1" fill="#222c42"/>
    <rect x="137" y="28" width="1" height="1" fill="#222c42"/>
    <rect x="160" y="28" width="1" height="1" fill="#222c42"/>
    <rect x="162" y="28" width="1" height="1" fill="#222c42"/>
    <rect x="165" y="28" width="2" height="1" fill="#222c42"/>
    <rect x="168" y="28" width="3" height="1" fill="#222c42"/>
    <rect x="0" y="29" width="1" height="1" fill="#222c42"/>
    <rect x="7" y="29" width="2" height="1" fill="#222c42"/>
    <rect x="12" y="29" width="2" height="1" fill="#222c42"/>
    <rect x="37" y="29" width="1" height="1" fill="#222c42"/>
    <rect x="43" y="29" width="1" height="1" fill="#222c42"/>
    <rect x="68" y="29" width="2" height="1" fill="#222c42"/>
    <rect x="72" y="29" width="2" height="1" fill="#222c42"/>
    <rect x="75" y="29" width="1" height="1" fill="#222c42"/>
    <rect x="97" y="29" width="7" height="1" fill="#222c42"/>
    <rect x="105" y="29" width="2" height="1" fill="#222c42"/>
    <rect x="129" y="29" width="2" height="1" fill="#222c42"/>
    <rect x="134" y="29" width="1" height="1" fill="#222c42"/>
    <rect x="137" y="29" width="2" height="1" fill="#222c42"/>
    <rect x="160" y="29" width="1" height="1" fill="#222c42"/>
    <rect x="162" y="29" width="2" height="1" fill="#222c42"/>
    <rect x="165" y="29" width="2" height="1" fill="#222c42"/>
    <rect x="168" y="29" width="3" height="1" fill="#222c42"/>
    <rect x="0" y="30" width="1" height="1" fill="#222c42"/>
    <rect x="8" y="30" width="2" height="1" fill="#222c42"/>
    <rect x="12" y="30" width="2" height="1" fill="#222c42"/>
    <rect x="35" y="30" width="3" height="1" fill="#222c42"/>
    <rect x="43" y="30" width="1" height="1" fill="#222c42"/>
    <rect x="69" y="30" width="2" height="1" fill="#222c42"/>
    <rect x="72" y="30" width="4" height="1" fill="#222c42"/>
    <rect x="97" y="30" width="3" height="1" fill="#222c42"/>
    <rect x="103" y="30" width="1" height="1" fill="#222c42"/>
    <rect x="105" y="30" width="2" height="1" fill="#222c42"/>
    <rect x="130" y="30" width="2" height="1" fill="#222c42"/>
    <rect x="133" y="30" width="2" height="1" fill="#222c42"/>
    <rect x="138" y="30" width="1" height="1" fill="#222c42"/>
    <rect x="159" y="30" width="2" height="1" fill="#222c42"/>
    <rect x="162" y="30" width="2" height="1" fill="#222c42"/>
    <rect x="165" y="30" width="2" height="1" fill="#222c42"/>
    <rect x="168" y="30" width="3" height="1" fill="#222c42"/>
    <rect x="0" y="31" width="1" height="1" fill="#222c42"/>
    <rect x="8" y="31" width="2" height="1" fill="#222c42"/>
    <rect x="13" y="31" width="2" height="1" fill="#222c42"/>
    <rect x="36" y="31" width="2" height="1" fill="#222c42"/>
    <rect x="43" y="31" width="2" height="1" fill="#222c42"/>
    <rect x="69" y="31" width="2" height="1" fill="#222c42"/>
    <rect x="72" y="31" width="2" height="1" fill="#222c42"/>
    <rect x="75" y="31" width="1" height="1" fill="#222c42"/>
    <rect x="96" y="31" width="4" height="1" fill="#222c42"/>
    <rect x="103" y="31" width="1" height="1" fill="#222c42"/>
    <rect x="106" y="31" width="2" height="1" fill="#222c42"/>
    <rect x="130" y="31" width="4" height="1" fill="#222c42"/>
    <rect x="138" y="31" width="2" height="1" fill="#222c42"/>
    <rect x="159" y="31" width="2" height="1" fill="#222c42"/>
    <rect x="162" y="31" width="2" height="1" fill="#222c42"/>
    <rect x="165" y="31" width="2" height="1" fill="#222c42"/>
    <rect x="168" y="31" width="3" height="1" fill="#222c42"/>
    <rect x="0" y="32" width="1" height="1" fill="#222c42"/>
    <rect x="8" y="32" width="2" height="1" fill="#222c42"/>
    <rect x="12" y="32" width="3" height="1" fill="#222c42"/>
    <rect x="36" y="32" width="2" height="1" fill="#222c42"/>
    <rect x="43" y="32" width="2" height="1" fill="#222c42"/>
    <rect x="69" y="32" width="3" height="1" fill="#222c42"/>
    <rect x="73" y="32" width="1" height="1" fill="#222c42"/>
    <rect x="75" y="32" width="2" height="1" fill="#222c42"/>
    <rect x="96" y="32" width="4" height="1" fill="#222c42"/>
    <rect x="103" y="32" width="1" height="1" fill="#222c42"/>
    <rect x="106" y="32" width="2" height="1" fill="#222c42"/>
    <rect x="130" y="32" width="10" height="1" fill="#222c42"/>
    <rect x="159" y="32" width="2" height="1" fill="#222c42"/>
    <rect x="162" y="32" width="5" height="1" fill="#222c42"/>
    <rect x="168" y="32" width="3" height="1" fill="#222c42"/>
    <rect x="0" y="33" width="1" height="1" fill="#222c42"/>
    <rect x="8" y="33" width="2" height="1" fill="#222c42"/>
    <rect x="11" y="33" width="2" height="1" fill="#222c42"/>
    <rect x="14" y="33" width="3" height="1" fill="#222c42"/>
    <rect x="37" y="33" width="1" height="1" fill="#222c42"/>
    <rect x="43" y="33" width="2" height="1" fill="#222c42"/>
    <rect x="69" y="33" width="2" height="1" fill="#222c42"/>
    <rect x="73" y="33" width="1" height="1" fill="#222c42"/>
    <rect x="76" y="33" width="2" height="1" fill="#222c42"/>
    <rect x="96" y="33" width="1" height="1" fill="#222c42"/>
    <rect x="98" y="33" width="2" height="1" fill="#222c42"/>
    <rect x="103" y="33" width="1" height="1" fill="#222c42"/>
    <rect x="106" y="33" width="2" height="1" fill="#222c42"/>
    <rect x="109" y="33" width="1" height="1" fill="#222c42"/>
    <rect x="130" y="33" width="8" height="1" fill="#222c42"/>
    <rect x="139" y="33" width="2" height="1" fill="#222c42"/>
    <rect x="157" y="33" width="4" height="1" fill="#222c42"/>
    <rect x="162" y="33" width="2" height="1" fill="#222c42"/>
    <rect x="165" y="33" width="2" height="1" fill="#222c42"/>
    <rect x="168" y="33" width="3" height="1" fill="#222c42"/>
    <rect x="0" y="34" width="1" height="1" fill="#222c42"/>
    <rect x="8" y="34" width="4" height="1" fill="#222c42"/>
    <rect x="15" y="34" width="4" height="1" fill="#222c42"/>
    <rect x="37" y="34" width="1" height="1" fill="#222c42"/>
    <rect x="43" y="34" width="2" height="1" fill="#222c42"/>
    <rect x="48" y="34" width="1" height="1" fill="#222c42"/>
    <rect x="69" y="34" width="2" height="1" fill="#222c42"/>
    <rect x="73" y="34" width="1" height="1" fill="#222c42"/>
    <rect x="76" y="34" width="3" height="1" fill="#222c42"/>
    <rect x="96" y="34" width="1" height="1" fill="#222c42"/>
    <rect x="98" y="34" width="2" height="1" fill="#222c42"/>
    <rect x="102" y="34" width="2" height="1" fill="#222c42"/>
    <rect x="106" y="34" width="2" height="1" fill="#222c42"/>
    <rect x="109" y="34" width="1" height="1" fill="#222c42"/>
    <rect x="130" y="34" width="2" height="1" fill="#222c42"/>
    <rect x="133" y="34" width="1" height="1" fill="#222c42"/>
    <rect x="139" y="34" width="2" height="1" fill="#222c42"/>
    <rect x="159" y="34" width="2" height="1" fill="#222c42"/>
    <rect x="163" y="34" width="1" height="1" fill="#222c42"/>
    <rect x="166" y="34" width="1" height="1" fill="#222c42"/>
    <rect x="169" y="34" width="2" height="1" fill="#222c42"/>
    <rect x="0" y="35" width="1" height="1" fill="#222c42"/>
    <rect x="8" y="35" width="3" height="1" fill="#222c42"/>
    <rect x="16" y="35" width="3" height="1" fill="#222c42"/>
    <rect x="37" y="35" width="12" height="1" fill="#222c42"/>
    <rect x="68" y="35" width="2" height="1" fill="#222c42"/>
    <rect x="73" y="35" width="1" height="1" fill="#222c42"/>
    <rect x="77" y="35" width="2" height="1" fill="#222c42"/>
    <rect x="99" y="35" width="2" height="1" fill="#222c42"/>
    <rect x="102" y="35" width="2" height="1" fill="#222c42"/>
    <rect x="106" y="35" width="2" height="1" fill="#222c42"/>
    <rect x="109" y="35" width="1" height="1" fill="#222c42"/>
    <rect x="129" y="35" width="3" height="1" fill="#222c42"/>
    <rect x="140" y="35" width="1" height="1" fill="#222c42"/>
    <rect x="159" y="35" width="2" height="1" fill="#222c42"/>
    <rect x="163" y="35" width="1" height="1" fill="#222c42"/>
    <rect x="169" y="35" width="2" height="1" fill="#222c42"/>
    <rect x="0" y="36" width="1" height="1" fill="#222c42"/>
    <rect x="8" y="36" width="2" height="1" fill="#222c42"/>
    <rect x="17" y="36" width="1" height="1" fill="#222c42"/>
    <rect x="37" y="36" width="13" height="1" fill="#222c42"/>
    <rect x="68" y="36" width="1" height="1" fill="#222c42"/>
    <rect x="70" y="36" width="4" height="1" fill="#222c42"/>
    <rect x="77" y="36" width="2" height="1" fill="#222c42"/>
    <rect x="99" y="36" width="2" height="1" fill="#222c42"/>
    <rect x="102" y="36" width="2" height="1" fill="#222c42"/>
    <rect x="106" y="36" width="2" height="1" fill="#222c42"/>
    <rect x="109" y="36" width="1" height="1" fill="#222c42"/>
    <rect x="129" y="36" width="4" height="1" fill="#222c42"/>
    <rect x="159" y="36" width="2" height="1" fill="#222c42"/>
    <rect x="169" y="36" width="2" height="1" fill="#222c42"/>
    <rect x="0" y="37" width="1" height="1" fill="#222c42"/>
    <rect x="8" y="37" width="2" height="1" fill="#222c42"/>
    <rect x="37" y="37" width="2" height="1" fill="#222c42"/>
    <rect x="67" y="37" width="2" height="1" fill="#222c42"/>
    <rect x="70" y="37" width="4" height="1" fill="#222c42"/>
    <rect x="77" y="37" width="2" height="1" fill="#222c42"/>
    <rect x="99" y="37" width="2" height="1" fill="#222c42"/>
    <rect x="102" y="37" width="2" height="1" fill="#222c42"/>
    <rect x="106" y="37" width="5" height="1" fill="#222c42"/>
    <rect x="128" y="37" width="3" height="1" fill="#222c42"/>
    <rect x="132" y="37" width="2" height="1" fill="#222c42"/>
    <rect x="141" y="37" width="2" height="1" fill="#222c42"/>
    <rect x="159" y="37" width="2" height="1" fill="#222c42"/>
    <rect x="169" y="37" width="2" height="1" fill="#222c42"/>
    <rect x="0" y="38" width="1" height="1" fill="#222c42"/>
    <rect x="9" y="38" width="1" height="1" fill="#222c42"/>
    <rect x="67" y="38" width="1" height="1" fill="#222c42"/>
    <rect x="72" y="38" width="2" height="1" fill="#222c42"/>
    <rect x="99" y="38" width="4" height="1" fill="#222c42"/>
    <rect x="107" y="38" width="3" height="1" fill="#222c42"/>
    <rect x="128" y="38" width="2" height="1" fill="#222c42"/>
    <rect x="133" y="38" width="10" height="1" fill="#222c42"/>
    <rect x="159" y="38" width="2" height="1" fill="#222c42"/>
    <rect x="169" y="38" width="2" height="1" fill="#222c42"/>
    <rect x="0" y="39" width="1" height="1" fill="#222c42"/>
    <rect x="67" y="39" width="1" height="1" fill="#222c42"/>
    <rect x="72" y="39" width="1" height="1" fill="#222c42"/>
    <rect x="99" y="39" width="4" height="1" fill="#222c42"/>
    <rect x="107" y="39" width="3" height="1" fill="#222c42"/>
    <rect x="129" y="39" width="1" height="1" fill="#222c42"/>
    <rect x="133" y="39" width="9" height="1" fill="#222c42"/>
    <rect x="159" y="39" width="2" height="1" fill="#222c42"/>
    <rect x="167" y="39" width="4" height="1" fill="#222c42"/>
    <rect x="0" y="40" width="1" height="1" fill="#222c42"/>
    <rect x="99" y="40" width="3" height="1" fill="#222c42"/>
    <rect x="136" y="40" width="6" height="1" fill="#222c42"/>
    <rect x="159" y="40" width="2" height="1" fill="#222c42"/>
    <rect x="168" y="40" width="3" height="1" fill="#222c42"/>
    <rect x="0" y="41" width="1" height="1" fill="#222c42"/>
    <rect x="168" y="41" width="3" height="1" fill="#222c42"/>
    <rect x="0" y="42" width="1" height="1" fill="#222c42"/>
    <rect x="169" y="42" width="2" height="1" fill="#222c42"/>
    <rect x="0" y="43" width="1" height="1" fill="#222c42"/>
    <rect x="170" y="43" width="1" height="1" fill="#222c42"/>
    <rect x="0" y="44" width="1" height="1" fill="#222c42"/>
    <rect x="170" y="44" width="1" height="1" fill="#222c42"/>
    <rect x="0" y="45" width="1" height="1" fill="#222c42"/>
    <rect x="170" y="45" width="1" height="1" fill="#222c42"/>
    <rect x="0" y="46" width="1" height="1" fill="#222c42"/>
    <rect x="170" y="46" width="1" height="1" fill="#222c42"/>
    <rect x="0" y="47" width="1" height="1" fill="#222c42"/>
    <rect x="170" y="47" width="1" height="1" fill="#222c42"/>
    <rect x="0" y="48" width="1" height="1" fill="#222c42"/>
    <rect x="170" y="48" width="1" height="1" fill="#222c42"/>
    <rect x="0" y="49" width="1" height="1" fill="#222c42"/>
    <rect x="170" y="49" width="1" height="1" fill="#222c42"/>
    <rect x="0" y="50" width="1" height="1" fill="#222c42"/>
    <rect x="170" y="50" width="1" height="1" fill="#222c42"/>
    <rect x="0" y="51" width="1" height="1" fill="#222c42"/>
    <rect x="170" y="51" width="1" height="1" fill="#222c42"/>
    <rect x="0" y="52" width="171" height="1" fill="#222c42"/>
  </g>
</svg>