<?xml version="1.0" encoding="UTF-8"?>
<svg xmlns="http://www.w3.org/2000/svg" viewBox="0 0 172 67" width="172" height="67">
  <!-- Auto-converted from legend-2756.png -->
  <rect x="0" y="0" width="172" height="67" fill="none"/>
  <g fill="#22252f" stroke="none">
    <rect x="0" y="0" width="172" height="1" fill="#22252f"/>
    <rect x="0" y="1" width="1" height="1" fill="#22252f"/>
    <rect x="171" y="1" width="1" height="1" fill="#22252f"/>
    <rect x="0" y="2" width="1" height="1" fill="#22252f"/>
    <rect x="171" y="2" width="1" height="1" fill="#22252f"/>
    <rect x="0" y="3" width="1" height="1" fill="#22252f"/>
    <rect x="3" y="3" width="2" height="1" fill="#22252f"/>
    <rect x="171" y="3" width="1" height="1" fill="#22252f"/>
    <rect x="0" y="4" width="1" height="1" fill="#22252f"/>
    <rect x="5" y="4" width="2" height="1" fill="#22252f"/>
    <rect x="171" y="4" width="1" height="1" fill="#22252f"/>
    <rect x="0" y="5" width="1" height="1" fill="#22252f"/>
    <rect x="7" y="5" width="2" height="1" fill="#22252f"/>
    <rect x="171" y="5" width="1" height="1" fill="#22252f"/>
    <rect x="0" y="6" width="1" height="1" fill="#22252f"/>
    <rect x="9" y="6" width="2" height="1" fill="#22252f"/>
    <rect x="171" y="6" width="1" height="1" fill="#22252f"/>
    <rect x="0" y="7" width="1" height="1" fill="#22252f"/>
    <rect x="11" y="7" width="4" height="1" fill="#22252f"/>
    <rect x="62" y="7" width="2" height="1" fill="#22252f"/>
    <rect x="171" y="7" width="1" height="1" fill="#22252f"/>
    <rect x="0" y="8" width="1" height="1" fill="#22252f"/>
    <rect x="15" y="8" width="8" height="1" fill="#22252f"/>
    <rect x="60" y="8" width="1" height="1" fill="#22252f"/>
    <rect x="62" y="8" width="2" height="1" fill="#22252f"/>
    <rect x="66" y="8" width="2" height="1" fill="#22252f"/>
    <rect x="171" y="8" width="1" height="1" fill="#22252f"/>
    <rect x="0" y="9" width="1" height="1" fill="#22252f"/>
    <rect x="23" y="9" width="5" height="1" fill="#22252f"/>
    <rect x="61" y="9" width="8" height="1" fill="#22252f"/>
    <rect x="171" y="9" width="1" height="1" fill="#22252f"/>
    <rect x="0" y="10" width="1" height="1" fill="#22252f"/>
    <rect x="28" y="10" width="3" height="1" fill="#22252f"/>
    <rect x="61" y="10" width="2" height="1" fill="#22252f"/>
    <rect x="66" y="10" width="2" height="1" fill="#22252f"/>
    <rect x="171" y="10" width="1" height="1" fill="#22252f"/>
    <rect x="0" y="11" width="1" height="1" fill="#22252f"/>
    <rect x="31" y="11" width="2" height="1" fill="#22252f"/>
    <rect x="61" y="11" width="2" height="1" fill="#22252f"/>
    <rect x="67" y="11" width="2" height="1" fill="#22252f"/>
    <rect x="171" y="11" width="1" height="1" fill="#22252f"/>
    <rect x="0" y="12" width="1" height="1" fill="#22252f"/>
    <rect x="33" y="12" width="5" height="1" fill="#22252f"/>
    <rect x="62" y="12" width="2" height="1" fill="#22252f"/>
    <rect x="65" y="12" width="4" height="1" fill="#22252f"/>
    <rect x="171" y="12" width="1" height="1" fill="#22252f"/>
    <rect x="0" y="13" width="1" height="1" fill="#22252f"/>
    <rect x="36" y="13" width="5" height="1" fill="#22252f"/>
    <rect x="62" y="13" width="2" height="1" fill="#22252f"/>
    <rect x="67" y="13" width="2" height="1" fill="#22252f"/>
    <rect x="71" y="13" width="1" height="1" fill="#22252f"/>
    <rect x="171" y="13" width="1" height="1" fill="#22252f"/>
    <rect x="0" y="14" width="1" height="1" fill="#22252f"/>
    <rect x="38" y="14" width="4" height="1" fill="#22252f"/>
    <rect x="63" y="14" width="10" height="1" fill="#22252f"/>
    <rect x="171" y="14" width="1" height="1" fill="#22252f"/>
    <rect x="0" y="15" width="1" height="1" fill="#22252f"/>
    <rect x="40" y="15" width="1" height="1" fill="#22252f"/>
    <rect x="42" y="15" width="1" height="1" fill="#22252f"/>
    <rect x="64" y="15" width="1" height="1" fill="#22252f"/>
    <rect x="70" y="15" width="3" height="1" fill="#22252f"/>
    <rect x="171" y="15" width="1" height="1" fill="#22252f"/>
    <rect x="0" y="16" width="1" height="1" fill="#22252f"/>
    <rect x="40" y="16" width="6" height="1" fill="#22252f"/>
    <rect x="62" y="16" width="12" height="1" fill="#22252f"/>
    <rect x="171" y="16" width="1" height="1" fill="#22252f"/>
    <rect x="0" y="17" width="1" height="1" fill="#22252f"/>
    <rect x="43" y="17" width="5" height="1" fill="#22252f"/>
    <rect x="51" y="17" width="2" height="1" fill="#22252f"/>
    <rect x="72" y="17" width="2" height="1" fill="#22252f"/>
    <rect x="171" y="17" width="1" height="1" fill="#22252f"/>
    <rect x="0" y="18" width="1" height="1" fill="#22252f"/>
    <rect x="46" y="18" width="5" height="1" fill="#22252f"/>
    <rect x="52" y="18" width="3" height="1" fill="#22252f"/>
    <rect x="70" y="18" width="4" height="1" fill="#22252f"/>
    <rect x="93" y="18" width="3" height="1" fill="#22252f"/>
    <rect x="97" y="18" width="2" height="1" fill="#22252f"/>
    <rect x="171" y="18" width="1" height="1" fill="#22252f"/>
    <rect x="0" y="19" width="1" height="1" fill="#22252f"/>
    <rect x="50" y="19" width="2" height="1" fill="#22252f"/>
    <rect x="54" y="19" width="2" height="1" fill="#22252f"/>
    <rect x="72" y="19" width="2" height="1" fill="#22252f"/>
    <rect x="90" y="19" width="13" height="1" fill="#22252f"/>
    <rect x="171" y="19" width="1" height="1" fill="#22252f"/>
    <rect x="0" y="20" width="1" height="1" fill="#22252f"/>
    <rect x="52" y="20" width="1" height="1" fill="#22252f"/>
    <rect x="55" y="20" width="2" height="1" fill="#22252f"/>
    <rect x="91" y="20" width="13" height="1" fill="#22252f"/>
    <rect x="171" y="20" width="1" height="1" fill="#22252f"/>
    <rect x="0" y="21" width="1" height="1" fill="#22252f"/>
    <rect x="53" y="21" width="1" height="1" fill="#22252f"/>
    <rect x="57" y="21" width="1" height="1" fill="#22252f"/>
    <rect x="94" y="21" width="6" height="1" fill="#22252f"/>
    <rect x="171" y="21" width="1" height="1" fill="#22252f"/>
    <rect x="0" y="22" width="1" height="1" fill="#22252f"/>
    <rect x="54" y="22" width="1" height="1" fill="#22252f"/>
    <rect x="57" y="22" width="1" height="1" fill="#22252f"/>
    <rect x="95" y="22" width="1" height="1" fill="#22252f"/>
    <rect x="97" y="22" width="1" height="1" fill="#22252f"/>
    <rect x="99" y="22" width="3" height="1" fill="#22252f"/>
    <rect x="171" y="22" width="1" height="1" fill="#22252f"/>
    <rect x="0" y="23" width="1" height="1" fill="#22252f"/>
    <rect x="54" y="23" width="1" height="1" fill="#22252f"/>
    <rect x="58" y="23" width="1" height="1" fill="#22252f"/>
    <rect x="93" y="23" width="10" height="1" fill="#22252f"/>
    <rect x="171" y="23" width="1" height="1" fill="#22252f"/>
    <rect x="0" y="24" width="1" height="1" fill="#22252f"/>
    <rect x="54" y="24" width="1" height="1" fill="#22252f"/>
    <rect x="56" y="24" width="4" height="1" fill="#22252f"/>
    <rect x="95" y="24" width="1" height="1" fill="#22252f"/>
    <rect x="98" y="24" width="1" height="1" fill="#22252f"/>
    <rect x="101" y="24" width="4" height="1" fill="#22252f"/>
    <rect x="171" y="24" width="1" height="1" fill="#22252f"/>
    <rect x="0" y="25" width="1" height="1" fill="#22252f"/>
    <rect x="54" y="25" width="6" height="1" fill="#22252f"/>
    <rect x="95" y="25" width="2" height="1" fill="#22252f"/>
    <rect x="98" y="25" width="2" height="1" fill="#22252f"/>
    <rect x="102" y="25" width="4" height="1" fill="#22252f"/>
    <rect x="171" y="25" width="1" height="1" fill="#22252f"/>
    <rect x="0" y="26" width="1" height="1" fill="#22252f"/>
    <rect x="55" y="26" width="4" height="1" fill="#22252f"/>
    <rect x="60" y="26" width="1" height="1" fill="#22252f"/>
    <rect x="95" y="26" width="2" height="1" fill="#22252f"/>
    <rect x="98" y="26" width="2" height="1" fill="#22252f"/>
    <rect x="102" y="26" width="5" height="1" fill="#22252f"/>
    <rect x="171" y="26" width="1" height="1" fill="#22252f"/>
    <rect x="0" y="27" width="1" height="1" fill="#22252f"/>
    <rect x="56" y="27" width="1" height="1" fill="#22252f"/>
    <rect x="61" y="27" width="1" height="1" fill="#22252f"/>
    <rect x="96" y="27" width="1" height="1" fill="#22252f"/>
    <rect x="98" y="27" width="2" height="1" fill="#22252f"/>
    <rect x="102" y="27" width="2" height="1" fill="#22252f"/>
    <rect x="105" y="27" width="2" height="1" fill="#22252f"/>
    <rect x="171" y="27" width="1" height="1" fill="#22252f"/>
    <rect x="0" y="28" width="1" height="1" fill="#22252f"/>
    <rect x="57" y="28" width="1" height="1" fill="#22252f"/>
    <rect x="61" y="28" width="1" height="1" fill="#22252f"/>
    <rect x="98" y="28" width="3" height="1" fill="#22252f"/>
    <rect x="103" y="28" width="2" height="1" fill="#22252f"/>
    <rect x="171" y="28" width="1" height="1" fill="#22252f"/>
    <rect x="0" y="29" width="1" height="1" fill="#22252f"/>
    <rect x="58" y="29" width="1" height="1" fill="#22252f"/>
    <rect x="62" y="29" width="1" height="1" fill="#22252f"/>
    <rect x="98" y="29" width="2" height="1" fill="#22252f"/>
    <rect x="101" y="29" width="4" height="1" fill="#22252f"/>
    <rect x="171" y="29" width="1" height="1" fill="#22252f"/>
    <rect x="0" y="30" width="1" height="1" fill="#22252f"/>
    <rect x="58" y="30" width="2" height="1" fill="#22252f"/>
    <rect x="63" y="30" width="2" height="1" fill="#22252f"/>
    <rect x="97" y="30" width="1" height="1" fill="#22252f"/>
    <rect x="103" y="30" width="1" height="1" fill="#22252f"/>
    <rect x="171" y="30" width="1" height="1" fill="#22252f"/>
    <rect x="0" y="31" width="1" height="1" fill="#22252f"/>
    <rect x="60" y="31" width="1" height="1" fill="#22252f"/>
    <rect x="64" y="31" width="3" height="1" fill="#22252f"/>
    <rect x="171" y="31" width="1" height="1" fill="#22252f"/>
    <rect x="0" y="32" width="1" height="1" fill="#22252f"/>
    <rect x="60" y="32" width="2" height="1" fill="#22252f"/>
    <rect x="67" y="32" width="2" height="1" fill="#22252f"/>
    <rect x="171" y="32" width="1" height="1" fill="#22252f"/>
    <rect x="0" y="33" width="1" height="1" fill="#22252f"/>
    <rect x="62" y="33" width="2" height="1" fill="#22252f"/>
    <rect x="69" y="33" width="2" height="1" fill="#22252f"/>
    <rect x="121" y="33" width="1" height="1" fill="#22252f"/>
    <rect x="128" y="33" width="1" height="1" fill="#22252f"/>
    <rect x="171" y="33" width="1" height="1" fill="#22252f"/>
    <rect x="0" y="34" width="1" height="1" fill="#22252f"/>
    <rect x="64" y="34" width="2" height="1" fill="#22252f"/>
    <rect x="71" y="34" width="2" height="1" fill="#22252f"/>
    <rect x="87" y="34" width="13" height="1" fill="#22252f"/>
    <rect x="121" y="34" width="9" height="1" fill="#22252f"/>
    <rect x="171" y="34" width="1" height="1" fill="#22252f"/>
    <rect x="0" y="35" width="1" height="1" fill="#22252f"/>
    <rect x="66" y="35" width="4" height="1" fill="#22252f"/>
    <rect x="73" y="35" width="19" height="1" fill="#22252f"/>
    <rect x="100" y="35" width="7" height="1" fill="#22252f"/>
    <rect x="121" y="35" width="2" height="1" fill="#22252f"/>
    <rect x="124" y="35" width="2" height="1" fill="#22252f"/>
    <rect x="128" y="35" width="2" height="1" fill="#22252f"/>
    <rect x="171" y="35" width="1" height="1" fill="#22252f"/>
    <rect x="0" y="36" width="1" height="1" fill="#22252f"/>
    <rect x="70" y="36" width="7" height="1" fill="#22252f"/>
    <rect x="92" y="36" width="8" height="1" fill="#22252f"/>
    <rect x="104" y="36" width="6" height="1" fill="#22252f"/>
    <rect x="122" y="36" width="8" height="1" fill="#22252f"/>
    <rect x="171" y="36" width="1" height="1" fill="#22252f"/>
    <rect x="0" y="37" width="1" height="1" fill="#22252f"/>
    <rect x="100" y="37" width="2" height="1" fill="#22252f"/>
    <rect x="105" y="37" width="1" height="1" fill="#22252f"/>
    <rect x="108" y="37" width="3" height="1" fill="#22252f"/>
    <rect x="122" y="37" width="2" height="1" fill="#22252f"/>
    <rect x="125" y="37" width="2" height="1" fill="#22252f"/>
    <rect x="129" y="37" width="2" height="1" fill="#22252f"/>
    <rect x="171" y="37" width="1" height="1" fill="#22252f"/>
    <rect x="0" y="38" width="1" height="1" fill="#22252f"/>
    <rect x="102" y="38" width="3" height="1" fill="#22252f"/>
    <rect x="108" y="38" width="4" height="1" fill="#22252f"/>
    <rect x="123" y="38" width="2" height="1" fill="#22252f"/>
    <rect x="126" y="38" width="2" height="1" fill="#22252f"/>
    <rect x="130" y="38" width="1" height="1" fill="#22252f"/>
    <rect x="171" y="38" width="1" height="1" fill="#22252f"/>
    <rect x="0" y="39" width="1" height="1" fill="#22252f"/>
    <rect x="104" y="39" width="2" height="1" fill="#22252f"/>
    <rect x="108" y="39" width="3" height="1" fill="#22252f"/>
    <rect x="112" y="39" width="1" height="1" fill="#22252f"/>
    <rect x="123" y="39" width="9" height="1" fill="#22252f"/>
    <rect x="171" y="39" width="1" height="1" fill="#22252f"/>
    <rect x="0" y="40" width="1" height="1" fill="#22252f"/>
    <rect x="105" y="40" width="2" height="1" fill="#22252f"/>
    <rect x="113" y="40" width="1" height="1" fill="#22252f"/>
    <rect x="123" y="40" width="2" height="1" fill="#22252f"/>
    <rect x="127" y="40" width="1" height="1" fill="#22252f"/>
    <rect x="130" y="40" width="1" height="1" fill="#22252f"/>
    <rect x="132" y="40" width="1" height="1" fill="#22252f"/>
    <rect x="171" y="40" width="1" height="1" fill="#22252f"/>
    <rect x="0" y="41" width="1" height="1" fill="#22252f"/>
    <rect x="106" y="41" width="1" height="1" fill="#22252f"/>
    <rect x="113" y="41" width="1" height="1" fill="#22252f"/>
    <rect x="123" y="41" width="10" height="1" fill="#22252f"/>
    <rect x="171" y="41" width="1" height="1" fill="#22252f"/>
    <rect x="0" y="42" width="1" height="1" fill="#22252f"/>
    <rect x="106" y="42" width="5" height="1" fill="#22252f"/>
    <rect x="114" y="42" width="1" height="1" fill="#22252f"/>
    <rect x="123" y="42" width="11" height="1" fill="#22252f"/>
    <rect x="171" y="42" width="1" height="1" fill="#22252f"/>
    <rect x="0" y="43" width="1" height="1" fill="#22252f"/>
    <rect x="107" y="43" width="4" height="1" fill="#22252f"/>
    <rect x="112" y="43" width="3" height="1" fill="#22252f"/>
    <rect x="128" y="43" width="1" height="1" fill="#22252f"/>
    <rect x="134" y="43" width="1" height="1" fill="#22252f"/>
    <rect x="171" y="43" width="1" height="1" fill="#22252f"/>
    <rect x="0" y="44" width="1" height="1" fill="#22252f"/>
    <rect x="107" y="44" width="1" height="1" fill="#22252f"/>
    <rect x="109" y="44" width="1" height="1" fill="#22252f"/>
    <rect x="112" y="44" width="3" height="1" fill="#22252f"/>
    <rect x="123" y="44" width="13" height="1" fill="#22252f"/>
    <rect x="146" y="44" width="2" height="1" fill="#22252f"/>
    <rect x="171" y="44" width="1" height="1" fill="#22252f"/>
    <rect x="0" y="45" width="1" height="1" fill="#22252f"/>
    <rect x="107" y="45" width="1" height="1" fill="#22252f"/>
    <rect x="112" y="45" width="3" height="1" fill="#22252f"/>
    <rect x="148" y="45" width="2" height="1" fill="#22252f"/>
    <rect x="156" y="45" width="2" height="1" fill="#22252f"/>
    <rect x="171" y="45" width="1" height="1" fill="#22252f"/>
    <rect x="0" y="46" width="1" height="1" fill="#22252f"/>
    <rect x="107" y="46" width="4" height="1" fill="#22252f"/>
    <rect x="114" y="46" width="1" height="1" fill="#22252f"/>
    <rect x="148" y="46" width="11" height="1" fill="#22252f"/>
    <rect x="171" y="46" width="1" height="1" fill="#22252f"/>
    <rect x="0" y="47" width="1" height="1" fill="#22252f"/>
    <rect x="107" y="47" width="4" height="1" fill="#22252f"/>
    <rect x="115" y="47" width="1" height="1" fill="#22252f"/>
    <rect x="147" y="47" width="2" height="1" fill="#22252f"/>
    <rect x="150" y="47" width="1" height="1" fill="#22252f"/>
    <rect x="154" y="47" width="2" height="1" fill="#22252f"/>
    <rect x="171" y="47" width="1" height="1" fill="#22252f"/>
    <rect x="0" y="48" width="1" height="1" fill="#22252f"/>
    <rect x="108" y="48" width="3" height="1" fill="#22252f"/>
    <rect x="113" y="48" width="3" height="1" fill="#22252f"/>
    <rect x="148" y="48" width="4" height="1" fill="#22252f"/>
    <rect x="154" y="48" width="2" height="1" fill="#22252f"/>
    <rect x="171" y="48" width="1" height="1" fill="#22252f"/>
    <rect x="0" y="49" width="1" height="1" fill="#22252f"/>
    <rect x="108" y="49" width="1" height="1" fill="#22252f"/>
    <rect x="113" y="49" width="4" height="1" fill="#22252f"/>
    <rect x="149" y="49" width="3" height="1" fill="#22252f"/>
    <rect x="155" y="49" width="2" height="1" fill="#22252f"/>
    <rect x="171" y="49" width="1" height="1" fill="#22252f"/>
    <rect x="0" y="50" width="1" height="1" fill="#22252f"/>
    <rect x="109" y="50" width="1" height="1" fill="#22252f"/>
    <rect x="113" y="50" width="2" height="1" fill="#22252f"/>
    <rect x="116" y="50" width="1" height="1" fill="#22252f"/>
    <rect x="151" y="50" width="1" height="1" fill="#22252f"/>
    <rect x="155" y="50" width="2" height="1" fill="#22252f"/>
    <rect x="171" y="50" width="1" height="1" fill="#22252f"/>
    <rect x="0" y="51" width="1" height="1" fill="#22252f"/>
    <rect x="110" y="51" width="1" height="1" fill="#22252f"/>
    <rect x="116" y="51" width="2" height="1" fill="#22252f"/>
    <rect x="151" y="51" width="1" height="1" fill="#22252f"/>
    <rect x="156" y="51" width="2" height="1" fill="#22252f"/>
    <rect x="171" y="51" width="1" height="1" fill="#22252f"/>
    <rect x="0" y="52" width="1" height="1" fill="#22252f"/>
    <rect x="110" y="52" width="1" height="1" fill="#22252f"/>
    <rect x="117" y="52" width="2" height="1" fill="#22252f"/>
    <rect x="149" y="52" width="4" height="1" fill="#22252f"/>
    <rect x="157" y="52" width="2" height="1" fill="#22252f"/>
    <rect x="171" y="52" width="1" height="1" fill="#22252f"/>
    <rect x="0" y="53" width="1" height="1" fill="#22252f"/>
    <rect x="110" y="53" width="1" height="1" fill="#22252f"/>
    <rect x="118" y="53" width="2" height="1" fill="#22252f"/>
    <rect x="151" y="53" width="2" height="1" fill="#22252f"/>
    <rect x="157" y="53" width="2" height="1" fill="#22252f"/>
    <rect x="162" y="53" width="1" height="1" fill="#22252f"/>
    <rect x="171" y="53" width="1" height="1" fill="#22252f"/>
    <rect x="0" y="54" width="1" height="1" fill="#22252f"/>
    <rect x="111" y="54" width="1" height="1" fill="#22252f"/>
    <rect x="119" y="54" width="2" height="1" fill="#22252f"/>
    <rect x="152" y="54" width="11" height="1" fill="#22252f"/>
    <rect x="171" y="54" width="1" height="1" fill="#22252f"/>
    <rect x="0" y="55" width="1" height="1" fill="#22252f"/>
    <rect x="112" y="55" width="1" height="1" fill="#22252f"/>
    <rect x="120" y="55" width="3" height="1" fill="#22252f"/>
    <rect x="152" y="55" width="12" height="1" fill="#22252f"/>
    <rect x="171" y="55" width="1" height="1" fill="#22252f"/>
    <rect x="0" y="56" width="1" height="1" fill="#22252f"/>
    <rect x="112" y="56" width="2" height="1" fill="#22252f"/>
    <rect x="123" y="56" width="1" height="1" fill="#22252f"/>
    <rect x="171" y="56" width="1" height="1" fill="#22252f"/>
    <rect x="0" y="57" width="1" height="1" fill="#22252f"/>
    <rect x="114" y="57" width="2" height="1" fill="#22252f"/>
    <rect x="124" y="57" width="4" height="1" fill="#22252f"/>
    <rect x="171" y="57" width="1" height="1" fill="#22252f"/>
    <rect x="0" y="58" width="1" height="1" fill="#22252f"/>
    <rect x="116" y="58" width="2" height="1" fill="#22252f"/>
    <rect x="128" y="58" width="2" height="1" fill="#22252f"/>
    <rect x="171" y="58" width="1" height="1" fill="#22252f"/>
    <rect x="0" y="59" width="1" height="1" fill="#22252f"/>
    <rect x="118" y="59" width="4" height="1" fill="#22252f"/>
    <rect x="130" y="59" width="5" height="1" fill="#22252f"/>
    <rect x="171" y="59" width="1" height="1" fill="#22252f"/>
    <rect x="0" y="60" width="1" height="1" fill="#22252f"/>
    <rect x="122" y="60" width="4" height="1" fill="#22252f"/>
    <rect x="135" y="60" width="5" height="1" fill="#22252f"/>
    <rect x="171" y="60" width="1" height="1" fill="#22252f"/>
    <rect x="0" y="61" width="1" height="1" fill="#22252f"/>
    <rect x="125" y="61" width="3" height="1" fill="#22252f"/>
    <rect x="139" y="61" width="2" height="1" fill="#22252f"/>
    <rect x="171" y="61" width="1" height="1" fill="#22252f"/>
    <rect x="0" y="62" width="1" height="1" fill="#22252f"/>
    <rect x="127" y="62" width="4" height="1" fill="#22252f"/>
    <rect x="141" y="62" width="1" height="1" fill="#22252f"/>
    <rect x="171" y="62" width="1" height="1" fill="#22252f"/>
    <rect x="0" y="63" width="1" height="1" fill="#22252f"/>
    <rect x="131" y="63" width="1" height="1" fill="#22252f"/>
    <rect x="171" y="63" width="1" height="1" fill="#22252f"/>
    <rect x="0" y="64" width="1" height="1" fill="#22252f"/>
    <rect x="132" y="64" width="1" height="1" fill="#22252f"/>
    <rect x="171" y="64" width="1" height="1" fill="#22252f"/>
    <rect x="0" y="65" width="1" height="1" fill="#22252f"/>
    <rect x="171" y="65" width="1" height="1" fill="#22252f"/>
    <rect x="0" y="66" width="172" height="1" fill="#22252f"/>
  </g>
</svg>