<?xml version="1.0" encoding="UTF-8"?>
<svg xmlns="http://www.w3.org/2000/svg" viewBox="0 0 84 83" width="84" height="83">
  <!-- Auto-converted from legend-2020.png -->
  <rect x="0" y="0" width="84" height="83" fill="none"/>
  <g fill="#231f20" stroke="none">
    <rect x="0" y="0" width="84" height="1" fill="#231f20"/>
    <rect x="0" y="1" width="1" height="1" fill="#231f20"/>
    <rect x="34" y="1" width="16" height="1" fill="#231f20"/>
    <rect x="83" y="1" width="1" height="1" fill="#231f20"/>
    <rect x="0" y="2" width="1" height="1" fill="#231f20"/>
    <rect x="32" y="2" width="20" height="1" fill="#231f20"/>
    <rect x="83" y="2" width="1" height="1" fill="#231f20"/>
    <rect x="0" y="3" width="1" height="1" fill="#231f20"/>
    <rect x="30" y="3" width="25" height="1" fill="#231f20"/>
    <rect x="83" y="3" width="1" height="1" fill="#231f20"/>
    <rect x="0" y="4" width="1" height="1" fill="#231f20"/>
    <rect x="28" y="4" width="8" height="1" fill="#231f20"/>
    <rect x="48" y="4" width="9" height="1" fill="#231f20"/>
    <rect x="83" y="4" width="1" height="1" fill="#231f20"/>
    <rect x="0" y="5" width="1" height="1" fill="#231f20"/>
    <rect x="27" y="5" width="7" height="1" fill="#231f20"/>
    <rect x="50" y="5" width="8" height="1" fill="#231f20"/>
    <rect x="83" y="5" width="1" height="1" fill="#231f20"/>
    <rect x="0" y="6" width="1" height="1" fill="#231f20"/>
    <rect x="25" y="6" width="7" height="1" fill="#231f20"/>
    <rect x="52" y="6" width="8" height="1" fill="#231f20"/>
    <rect x="83" y="6" width="1" height="1" fill="#231f20"/>
    <rect x="0" y="7" width="1" height="1" fill="#231f20"/>
    <rect x="24" y="7" width="6" height="1" fill="#231f20"/>
    <rect x="55" y="7" width="6" height="1" fill="#231f20"/>
    <rect x="83" y="7" width="1" height="1" fill="#231f20"/>
    <rect x="0" y="8" width="1" height="1" fill="#231f20"/>
    <rect x="23" y="8" width="6" height="1" fill="#231f20"/>
    <rect x="56" y="8" width="6" height="1" fill="#231f20"/>
    <rect x="83" y="8" width="1" height="1" fill="#231f20"/>
    <rect x="0" y="9" width="1" height="1" fill="#231f20"/>
    <rect x="23" y="9" width="5" height="1" fill="#231f20"/>
    <rect x="57" y="9" width="6" height="1" fill="#231f20"/>
    <rect x="83" y="9" width="1" height="1" fill="#231f20"/>
    <rect x="0" y="10" width="1" height="1" fill="#231f20"/>
    <rect x="21" y="10" width="6" height="1" fill="#231f20"/>
    <rect x="58" y="10" width="6" height="1" fill="#231f20"/>
    <rect x="83" y="10" width="1" height="1" fill="#231f20"/>
    <rect x="0" y="11" width="1" height="1" fill="#231f20"/>
    <rect x="20" y="11" width="6" height="1" fill="#231f20"/>
    <rect x="60" y="11" width="5" height="1" fill="#231f20"/>
    <rect x="83" y="11" width="1" height="1" fill="#231f20"/>
    <rect x="0" y="12" width="1" height="1" fill="#231f20"/>
    <rect x="20" y="12" width="5" height="1" fill="#231f20"/>
    <rect x="60" y="12" width="5" height="1" fill="#231f20"/>
    <rect x="83" y="12" width="1" height="1" fill="#231f20"/>
    <rect x="0" y="13" width="1" height="1" fill="#231f20"/>
    <rect x="20" y="13" width="4" height="1" fill="#231f20"/>
    <rect x="61" y="13" width="5" height="1" fill="#231f20"/>
    <rect x="83" y="13" width="1" height="1" fill="#231f20"/>
    <rect x="0" y="14" width="1" height="1" fill="#231f20"/>
    <rect x="19" y="14" width="4" height="1" fill="#231f20"/>
    <rect x="62" y="14" width="5" height="1" fill="#231f20"/>
    <rect x="83" y="14" width="1" height="1" fill="#231f20"/>
    <rect x="0" y="15" width="1" height="1" fill="#231f20"/>
    <rect x="18" y="15" width="5" height="1" fill="#231f20"/>
    <rect x="63" y="15" width="5" height="1" fill="#231f20"/>
    <rect x="83" y="15" width="1" height="1" fill="#231f20"/>
    <rect x="0" y="16" width="1" height="1" fill="#231f20"/>
    <rect x="18" y="16" width="4" height="1" fill="#231f20"/>
    <rect x="64" y="16" width="4" height="1" fill="#231f20"/>
    <rect x="83" y="16" width="1" height="1" fill="#231f20"/>
    <rect x="0" y="17" width="1" height="1" fill="#231f20"/>
    <rect x="17" y="17" width="4" height="1" fill="#231f20"/>
    <rect x="64" y="17" width="5" height="1" fill="#231f20"/>
    <rect x="83" y="17" width="1" height="1" fill="#231f20"/>
    <rect x="0" y="18" width="1" height="1" fill="#231f20"/>
    <rect x="17" y="18" width="4" height="1" fill="#231f20"/>
    <rect x="65" y="18" width="4" height="1" fill="#231f20"/>
    <rect x="83" y="18" width="1" height="1" fill="#231f20"/>
    <rect x="0" y="19" width="1" height="1" fill="#231f20"/>
    <rect x="16" y="19" width="4" height="1" fill="#231f20"/>
    <rect x="66" y="19" width="4" height="1" fill="#231f20"/>
    <rect x="83" y="19" width="1" height="1" fill="#231f20"/>
    <rect x="0" y="20" width="1" height="1" fill="#231f20"/>
    <rect x="16" y="20" width="4" height="1" fill="#231f20"/>
    <rect x="66" y="20" width="4" height="1" fill="#231f20"/>
    <rect x="83" y="20" width="1" height="1" fill="#231f20"/>
    <rect x="0" y="21" width="1" height="1" fill="#231f20"/>
    <rect x="16" y="21" width="4" height="1" fill="#231f20"/>
    <rect x="67" y="21" width="4" height="1" fill="#231f20"/>
    <rect x="83" y="21" width="1" height="1" fill="#231f20"/>
    <rect x="0" y="22" width="1" height="1" fill="#231f20"/>
    <rect x="15" y="22" width="4" height="1" fill="#231f20"/>
    <rect x="67" y="22" width="4" height="1" fill="#231f20"/>
    <rect x="83" y="22" width="1" height="1" fill="#231f20"/>
    <rect x="0" y="23" width="1" height="1" fill="#231f20"/>
    <rect x="15" y="23" width="4" height="1" fill="#231f20"/>
    <rect x="68" y="23" width="3" height="1" fill="#231f20"/>
    <rect x="83" y="23" width="1" height="1" fill="#231f20"/>
    <rect x="0" y="24" width="1" height="1" fill="#231f20"/>
    <rect x="15" y="24" width="3" height="1" fill="#231f20"/>
    <rect x="68" y="24" width="4" height="1" fill="#231f20"/>
    <rect x="83" y="24" width="1" height="1" fill="#231f20"/>
    <rect x="0" y="25" width="1" height="1" fill="#231f20"/>
    <rect x="15" y="25" width="3" height="1" fill="#231f20"/>
    <rect x="68" y="25" width="4" height="1" fill="#231f20"/>
    <rect x="83" y="25" width="1" height="1" fill="#231f20"/>
    <rect x="0" y="26" width="1" height="1" fill="#231f20"/>
    <rect x="15" y="26" width="3" height="1" fill="#231f20"/>
    <rect x="69" y="26" width="3" height="1" fill="#231f20"/>
    <rect x="83" y="26" width="1" height="1" fill="#231f20"/>
    <rect x="0" y="27" width="1" height="1" fill="#231f20"/>
    <rect x="14" y="27" width="4" height="1" fill="#231f20"/>
    <rect x="69" y="27" width="3" height="1" fill="#231f20"/>
    <rect x="83" y="27" width="1" height="1" fill="#231f20"/>
    <rect x="0" y="28" width="1" height="1" fill="#231f20"/>
    <rect x="14" y="28" width="4" height="1" fill="#231f20"/>
    <rect x="69" y="28" width="3" height="1" fill="#231f20"/>
    <rect x="83" y="28" width="1" height="1" fill="#231f20"/>
    <rect x="0" y="29" width="1" height="1" fill="#231f20"/>
    <rect x="14" y="29" width="3" height="1" fill="#231f20"/>
    <rect x="69" y="29" width="3" height="1" fill="#231f20"/>
    <rect x="83" y="29" width="1" height="1" fill="#231f20"/>
    <rect x="0" y="30" width="1" height="1" fill="#231f20"/>
    <rect x="14" y="30" width="3" height="1" fill="#231f20"/>
    <rect x="69" y="30" width="3" height="1" fill="#231f20"/>
    <rect x="83" y="30" width="1" height="1" fill="#231f20"/>
    <rect x="0" y="31" width="1" height="1" fill="#231f20"/>
    <rect x="14" y="31" width="3" height="1" fill="#231f20"/>
    <rect x="69" y="31" width="4" height="1" fill="#231f20"/>
    <rect x="83" y="31" width="1" height="1" fill="#231f20"/>
    <rect x="0" y="32" width="1" height="1" fill="#231f20"/>
    <rect x="14" y="32" width="3" height="1" fill="#231f20"/>
    <rect x="69" y="32" width="4" height="1" fill="#231f20"/>
    <rect x="83" y="32" width="1" height="1" fill="#231f20"/>
    <rect x="0" y="33" width="1" height="1" fill="#231f20"/>
    <rect x="13" y="33" width="3" height="1" fill="#231f20"/>
    <rect x="70" y="33" width="3" height="1" fill="#231f20"/>
    <rect x="83" y="33" width="1" height="1" fill="#231f20"/>
    <rect x="0" y="34" width="1" height="1" fill="#231f20"/>
    <rect x="13" y="34" width="3" height="1" fill="#231f20"/>
    <rect x="70" y="34" width="3" height="1" fill="#231f20"/>
    <rect x="83" y="34" width="1" height="1" fill="#231f20"/>
    <rect x="0" y="35" width="1" height="1" fill="#231f20"/>
    <rect x="13" y="35" width="3" height="1" fill="#231f20"/>
    <rect x="70" y="35" width="3" height="1" fill="#231f20"/>
    <rect x="83" y="35" width="1" height="1" fill="#231f20"/>
    <rect x="0" y="36" width="1" height="1" fill="#231f20"/>
    <rect x="13" y="36" width="3" height="1" fill="#231f20"/>
    <rect x="70" y="36" width="3" height="1" fill="#231f20"/>
    <rect x="83" y="36" width="1" height="1" fill="#231f20"/>
    <rect x="0" y="37" width="1" height="1" fill="#231f20"/>
    <rect x="13" y="37" width="3" height="1" fill="#231f20"/>
    <rect x="69" y="37" width="4" height="1" fill="#231f20"/>
    <rect x="83" y="37" width="1" height="1" fill="#231f20"/>
    <rect x="0" y="38" width="1" height="1" fill="#231f20"/>
    <rect x="13" y="38" width="3" height="1" fill="#231f20"/>
    <rect x="69" y="38" width="4" height="1" fill="#231f20"/>
    <rect x="83" y="38" width="1" height="1" fill="#231f20"/>
    <rect x="0" y="39" width="1" height="1" fill="#231f20"/>
    <rect x="13" y="39" width="3" height="1" fill="#231f20"/>
    <rect x="69" y="39" width="3" height="1" fill="#231f20"/>
    <rect x="83" y="39" width="1" height="1" fill="#231f20"/>
    <rect x="0" y="40" width="1" height="1" fill="#231f20"/>
    <rect x="13" y="40" width="3" height="1" fill="#231f20"/>
    <rect x="69" y="40" width="3" height="1" fill="#231f20"/>
    <rect x="83" y="40" width="1" height="1" fill="#231f20"/>
    <rect x="0" y="41" width="1" height="1" fill="#231f20"/>
    <rect x="13" y="41" width="4" height="1" fill="#231f20"/>
    <rect x="69" y="41" width="3" height="1" fill="#231f20"/>
    <rect x="83" y="41" width="1" height="1" fill="#231f20"/>
    <rect x="0" y="42" width="1" height="1" fill="#231f20"/>
    <rect x="13" y="42" width="4" height="1" fill="#231f20"/>
    <rect x="69" y="42" width="3" height="1" fill="#231f20"/>
    <rect x="83" y="42" width="1" height="1" fill="#231f20"/>
    <rect x="0" y="43" width="1" height="1" fill="#231f20"/>
    <rect x="14" y="43" width="3" height="1" fill="#231f20"/>
    <rect x="69" y="43" width="3" height="1" fill="#231f20"/>
    <rect x="83" y="43" width="1" height="1" fill="#231f20"/>
    <rect x="0" y="44" width="1" height="1" fill="#231f20"/>
    <rect x="14" y="44" width="3" height="1" fill="#231f20"/>
    <rect x="69" y="44" width="3" height="1" fill="#231f20"/>
    <rect x="83" y="44" width="1" height="1" fill="#231f20"/>
    <rect x="0" y="45" width="1" height="1" fill="#231f20"/>
    <rect x="14" y="45" width="4" height="1" fill="#231f20"/>
    <rect x="68" y="45" width="3" height="1" fill="#231f20"/>
    <rect x="83" y="45" width="1" height="1" fill="#231f20"/>
    <rect x="0" y="46" width="1" height="1" fill="#231f20"/>
    <rect x="14" y="46" width="4" height="1" fill="#231f20"/>
    <rect x="68" y="46" width="3" height="1" fill="#231f20"/>
    <rect x="83" y="46" width="1" height="1" fill="#231f20"/>
    <rect x="0" y="47" width="1" height="1" fill="#231f20"/>
    <rect x="15" y="47" width="4" height="1" fill="#231f20"/>
    <rect x="68" y="47" width="3" height="1" fill="#231f20"/>
    <rect x="83" y="47" width="1" height="1" fill="#231f20"/>
    <rect x="0" y="48" width="1" height="1" fill="#231f20"/>
    <rect x="15" y="48" width="4" height="1" fill="#231f20"/>
    <rect x="67" y="48" width="4" height="1" fill="#231f20"/>
    <rect x="83" y="48" width="1" height="1" fill="#231f20"/>
    <rect x="0" y="49" width="1" height="1" fill="#231f20"/>
    <rect x="16" y="49" width="3" height="1" fill="#231f20"/>
    <rect x="67" y="49" width="4" height="1" fill="#231f20"/>
    <rect x="83" y="49" width="1" height="1" fill="#231f20"/>
    <rect x="0" y="50" width="1" height="1" fill="#231f20"/>
    <rect x="16" y="50" width="4" height="1" fill="#231f20"/>
    <rect x="66" y="50" width="4" height="1" fill="#231f20"/>
    <rect x="83" y="50" width="1" height="1" fill="#231f20"/>
    <rect x="0" y="51" width="1" height="1" fill="#231f20"/>
    <rect x="16" y="51" width="5" height="1" fill="#231f20"/>
    <rect x="66" y="51" width="4" height="1" fill="#231f20"/>
    <rect x="83" y="51" width="1" height="1" fill="#231f20"/>
    <rect x="0" y="52" width="1" height="1" fill="#231f20"/>
    <rect x="18" y="52" width="3" height="1" fill="#231f20"/>
    <rect x="65" y="52" width="4" height="1" fill="#231f20"/>
    <rect x="83" y="52" width="1" height="1" fill="#231f20"/>
    <rect x="0" y="53" width="1" height="1" fill="#231f20"/>
    <rect x="18" y="53" width="4" height="1" fill="#231f20"/>
    <rect x="65" y="53" width="4" height="1" fill="#231f20"/>
    <rect x="83" y="53" width="1" height="1" fill="#231f20"/>
    <rect x="0" y="54" width="1" height="1" fill="#231f20"/>
    <rect x="18" y="54" width="4" height="1" fill="#231f20"/>
    <rect x="64" y="54" width="4" height="1" fill="#231f20"/>
    <rect x="83" y="54" width="1" height="1" fill="#231f20"/>
    <rect x="0" y="55" width="1" height="1" fill="#231f20"/>
    <rect x="19" y="55" width="4" height="1" fill="#231f20"/>
    <rect x="64" y="55" width="4" height="1" fill="#231f20"/>
    <rect x="83" y="55" width="1" height="1" fill="#231f20"/>
    <rect x="0" y="56" width="1" height="1" fill="#231f20"/>
    <rect x="19" y="56" width="5" height="1" fill="#231f20"/>
    <rect x="63" y="56" width="4" height="1" fill="#231f20"/>
    <rect x="83" y="56" width="1" height="1" fill="#231f20"/>
    <rect x="0" y="57" width="1" height="1" fill="#231f20"/>
    <rect x="20" y="57" width="5" height="1" fill="#231f20"/>
    <rect x="62" y="57" width="5" height="1" fill="#231f20"/>
    <rect x="83" y="57" width="1" height="1" fill="#231f20"/>
    <rect x="0" y="58" width="1" height="1" fill="#231f20"/>
    <rect x="21" y="58" width="4" height="1" fill="#231f20"/>
    <rect x="61" y="58" width="5" height="1" fill="#231f20"/>
    <rect x="83" y="58" width="1" height="1" fill="#231f20"/>
    <rect x="0" y="59" width="1" height="1" fill="#231f20"/>
    <rect x="22" y="59" width="5" height="1" fill="#231f20"/>
    <rect x="60" y="59" width="5" height="1" fill="#231f20"/>
    <rect x="83" y="59" width="1" height="1" fill="#231f20"/>
    <rect x="0" y="60" width="1" height="1" fill="#231f20"/>
    <rect x="23" y="60" width="4" height="1" fill="#231f20"/>
    <rect x="59" y="60" width="6" height="1" fill="#231f20"/>
    <rect x="83" y="60" width="1" height="1" fill="#231f20"/>
    <rect x="0" y="61" width="1" height="1" fill="#231f20"/>
    <rect x="24" y="61" width="4" height="1" fill="#231f20"/>
    <rect x="58" y="61" width="6" height="1" fill="#231f20"/>
    <rect x="83" y="61" width="1" height="1" fill="#231f20"/>
    <rect x="0" y="62" width="1" height="1" fill="#231f20"/>
    <rect x="24" y="62" width="5" height="1" fill="#231f20"/>
    <rect x="57" y="62" width="6" height="1" fill="#231f20"/>
    <rect x="83" y="62" width="1" height="1" fill="#231f20"/>
    <rect x="0" y="63" width="1" height="1" fill="#231f20"/>
    <rect x="25" y="63" width="6" height="1" fill="#231f20"/>
    <rect x="55" y="63" width="7" height="1" fill="#231f20"/>
    <rect x="83" y="63" width="1" height="1" fill="#231f20"/>
    <rect x="0" y="64" width="1" height="1" fill="#231f20"/>
    <rect x="26" y="64" width="6" height="1" fill="#231f20"/>
    <rect x="53" y="64" width="7" height="1" fill="#231f20"/>
    <rect x="83" y="64" width="1" height="1" fill="#231f20"/>
    <rect x="0" y="65" width="1" height="1" fill="#231f20"/>
    <rect x="27" y="65" width="6" height="1" fill="#231f20"/>
    <rect x="53" y="65" width="6" height="1" fill="#231f20"/>
    <rect x="83" y="65" width="1" height="1" fill="#231f20"/>
    <rect x="0" y="66" width="1" height="1" fill="#231f20"/>
    <rect x="28" y="66" width="7" height="1" fill="#231f20"/>
    <rect x="49" y="66" width="9" height="1" fill="#231f20"/>
    <rect x="83" y="66" width="1" height="1" fill="#231f20"/>
    <rect x="0" y="67" width="1" height="1" fill="#231f20"/>
    <rect x="30" y="67" width="6" height="1" fill="#231f20"/>
    <rect x="47" y="67" width="8" height="1" fill="#231f20"/>
    <rect x="83" y="67" width="1" height="1" fill="#231f20"/>
    <rect x="0" y="68" width="1" height="1" fill="#231f20"/>
    <rect x="31" y="68" width="8" height="1" fill="#231f20"/>
    <rect x="45" y="68" width="8" height="1" fill="#231f20"/>
    <rect x="83" y="68" width="1" height="1" fill="#231f20"/>
    <rect x="0" y="69" width="1" height="1" fill="#231f20"/>
    <rect x="33" y="69" width="7" height="1" fill="#231f20"/>
    <rect x="44" y="69" width="7" height="1" fill="#231f20"/>
    <rect x="83" y="69" width="1" height="1" fill="#231f20"/>
    <rect x="0" y="70" width="1" height="1" fill="#231f20"/>
    <rect x="36" y="70" width="5" height="1" fill="#231f20"/>
    <rect x="43" y="70" width="6" height="1" fill="#231f20"/>
    <rect x="83" y="70" width="1" height="1" fill="#231f20"/>
    <rect x="0" y="71" width="1" height="1" fill="#231f20"/>
    <rect x="37" y="71" width="10" height="1" fill="#231f20"/>
    <rect x="83" y="71" width="1" height="1" fill="#231f20"/>
    <rect x="0" y="72" width="1" height="1" fill="#231f20"/>
    <rect x="38" y="72" width="8" height="1" fill="#231f20"/>
    <rect x="83" y="72" width="1" height="1" fill="#231f20"/>
    <rect x="0" y="73" width="1" height="1" fill="#231f20"/>
    <rect x="38" y="73" width="7" height="1" fill="#231f20"/>
    <rect x="83" y="73" width="1" height="1" fill="#231f20"/>
    <rect x="0" y="74" width="1" height="1" fill="#231f20"/>
    <rect x="39" y="74" width="6" height="1" fill="#231f20"/>
    <rect x="83" y="74" width="1" height="1" fill="#231f20"/>
    <rect x="0" y="75" width="1" height="1" fill="#231f20"/>
    <rect x="39" y="75" width="5" height="1" fill="#231f20"/>
    <rect x="83" y="75" width="1" height="1" fill="#231f20"/>
    <rect x="0" y="76" width="1" height="1" fill="#231f20"/>
    <rect x="40" y="76" width="4" height="1" fill="#231f20"/>
    <rect x="83" y="76" width="1" height="1" fill="#231f20"/>
    <rect x="0" y="77" width="1" height="1" fill="#231f20"/>
    <rect x="40" y="77" width="4" height="1" fill="#231f20"/>
    <rect x="83" y="77" width="1" height="1" fill="#231f20"/>
    <rect x="0" y="78" width="1" height="1" fill="#231f20"/>
    <rect x="40" y="78" width="4" height="1" fill="#231f20"/>
    <rect x="83" y="78" width="1" height="1" fill="#231f20"/>
    <rect x="0" y="79" width="1" height="1" fill="#231f20"/>
    <rect x="40" y="79" width="4" height="1" fill="#231f20"/>
    <rect x="83" y="79" width="1" height="1" fill="#231f20"/>
    <rect x="0" y="80" width="1" height="1" fill="#231f20"/>
    <rect x="41" y="80" width="3" height="1" fill="#231f20"/>
    <rect x="83" y="80" width="1" height="1" fill="#231f20"/>
    <rect x="0" y="81" width="1" height="1" fill="#231f20"/>
    <rect x="83" y="81" width="1" height="1" fill="#231f20"/>
    <rect x="0" y="82" width="84" height="1" fill="#231f20"/>
  </g>
</svg>