<?xml version="1.0" encoding="UTF-8"?>
<svg xmlns="http://www.w3.org/2000/svg" viewBox="0 0 173 69" width="173" height="69">
  <!-- Auto-converted from legend-1736.png -->
  <rect x="0" y="0" width="173" height="69" fill="none"/>
  <g fill="#231f20" stroke="none">
    <rect x="0" y="0" width="173" height="1" fill="#231f20"/>
    <rect x="0" y="1" width="1" height="1" fill="#231f20"/>
    <rect x="172" y="1" width="1" height="1" fill="#231f20"/>
    <rect x="0" y="2" width="1" height="1" fill="#231f20"/>
    <rect x="172" y="2" width="1" height="1" fill="#231f20"/>
    <rect x="0" y="3" width="1" height="1" fill="#231f20"/>
    <rect x="172" y="3" width="1" height="1" fill="#231f20"/>
    <rect x="0" y="4" width="1" height="1" fill="#231f20"/>
    <rect x="172" y="4" width="1" height="1" fill="#231f20"/>
    <rect x="0" y="5" width="1" height="1" fill="#231f20"/>
    <rect x="20" y="5" width="1" height="1" fill="#231f20"/>
    <rect x="27" y="5" width="1" height="1" fill="#231f20"/>
    <rect x="31" y="5" width="1" height="1" fill="#231f20"/>
    <rect x="48" y="5" width="10" height="1" fill="#231f20"/>
    <rect x="80" y="5" width="1" height="1" fill="#231f20"/>
    <rect x="110" y="5" width="1" height="1" fill="#231f20"/>
    <rect x="113" y="5" width="1" height="1" fill="#231f20"/>
    <rect x="139" y="5" width="1" height="1" fill="#231f20"/>
    <rect x="141" y="5" width="1" height="1" fill="#231f20"/>
    <rect x="172" y="5" width="1" height="1" fill="#231f20"/>
    <rect x="0" y="6" width="1" height="1" fill="#231f20"/>
    <rect x="20" y="6" width="1" height="1" fill="#231f20"/>
    <rect x="27" y="6" width="1" height="1" fill="#231f20"/>
    <rect x="31" y="6" width="1" height="1" fill="#231f20"/>
    <rect x="48" y="6" width="1" height="1" fill="#231f20"/>
    <rect x="57" y="6" width="1" height="1" fill="#231f20"/>
    <rect x="81" y="6" width="2" height="1" fill="#231f20"/>
    <rect x="110" y="6" width="1" height="1" fill="#231f20"/>
    <rect x="113" y="6" width="1" height="1" fill="#231f20"/>
    <rect x="139" y="6" width="1" height="1" fill="#231f20"/>
    <rect x="141" y="6" width="1" height="1" fill="#231f20"/>
    <rect x="172" y="6" width="1" height="1" fill="#231f20"/>
    <rect x="0" y="7" width="1" height="1" fill="#231f20"/>
    <rect x="21" y="7" width="1" height="1" fill="#231f20"/>
    <rect x="27" y="7" width="1" height="1" fill="#231f20"/>
    <rect x="30" y="7" width="1" height="1" fill="#231f20"/>
    <rect x="48" y="7" width="1" height="1" fill="#231f20"/>
    <rect x="57" y="7" width="1" height="1" fill="#231f20"/>
    <rect x="83" y="7" width="2" height="1" fill="#231f20"/>
    <rect x="109" y="7" width="1" height="1" fill="#231f20"/>
    <rect x="114" y="7" width="1" height="1" fill="#231f20"/>
    <rect x="138" y="7" width="1" height="1" fill="#231f20"/>
    <rect x="142" y="7" width="1" height="1" fill="#231f20"/>
    <rect x="172" y="7" width="1" height="1" fill="#231f20"/>
    <rect x="0" y="8" width="1" height="1" fill="#231f20"/>
    <rect x="21" y="8" width="1" height="1" fill="#231f20"/>
    <rect x="26" y="8" width="1" height="1" fill="#231f20"/>
    <rect x="30" y="8" width="1" height="1" fill="#231f20"/>
    <rect x="48" y="8" width="1" height="1" fill="#231f20"/>
    <rect x="57" y="8" width="1" height="1" fill="#231f20"/>
    <rect x="84" y="8" width="2" height="1" fill="#231f20"/>
    <rect x="109" y="8" width="1" height="1" fill="#231f20"/>
    <rect x="114" y="8" width="1" height="1" fill="#231f20"/>
    <rect x="138" y="8" width="1" height="1" fill="#231f20"/>
    <rect x="142" y="8" width="1" height="1" fill="#231f20"/>
    <rect x="172" y="8" width="1" height="1" fill="#231f20"/>
    <rect x="0" y="9" width="1" height="1" fill="#231f20"/>
    <rect x="21" y="9" width="1" height="1" fill="#231f20"/>
    <rect x="26" y="9" width="1" height="1" fill="#231f20"/>
    <rect x="30" y="9" width="1" height="1" fill="#231f20"/>
    <rect x="48" y="9" width="1" height="1" fill="#231f20"/>
    <rect x="57" y="9" width="1" height="1" fill="#231f20"/>
    <rect x="85" y="9" width="1" height="1" fill="#231f20"/>
    <rect x="109" y="9" width="1" height="1" fill="#231f20"/>
    <rect x="114" y="9" width="1" height="1" fill="#231f20"/>
    <rect x="137" y="9" width="1" height="1" fill="#231f20"/>
    <rect x="143" y="9" width="1" height="1" fill="#231f20"/>
    <rect x="172" y="9" width="1" height="1" fill="#231f20"/>
    <rect x="0" y="10" width="1" height="1" fill="#231f20"/>
    <rect x="22" y="10" width="1" height="1" fill="#231f20"/>
    <rect x="26" y="10" width="1" height="1" fill="#231f20"/>
    <rect x="29" y="10" width="1" height="1" fill="#231f20"/>
    <rect x="48" y="10" width="1" height="1" fill="#231f20"/>
    <rect x="57" y="10" width="1" height="1" fill="#231f20"/>
    <rect x="85" y="10" width="1" height="1" fill="#231f20"/>
    <rect x="108" y="10" width="1" height="1" fill="#231f20"/>
    <rect x="115" y="10" width="1" height="1" fill="#231f20"/>
    <rect x="137" y="10" width="1" height="1" fill="#231f20"/>
    <rect x="143" y="10" width="1" height="1" fill="#231f20"/>
    <rect x="172" y="10" width="1" height="1" fill="#231f20"/>
    <rect x="0" y="11" width="1" height="1" fill="#231f20"/>
    <rect x="22" y="11" width="1" height="1" fill="#231f20"/>
    <rect x="26" y="11" width="1" height="1" fill="#231f20"/>
    <rect x="29" y="11" width="1" height="1" fill="#231f20"/>
    <rect x="48" y="11" width="1" height="1" fill="#231f20"/>
    <rect x="57" y="11" width="1" height="1" fill="#231f20"/>
    <rect x="85" y="11" width="2" height="1" fill="#231f20"/>
    <rect x="108" y="11" width="1" height="1" fill="#231f20"/>
    <rect x="115" y="11" width="1" height="1" fill="#231f20"/>
    <rect x="136" y="11" width="1" height="1" fill="#231f20"/>
    <rect x="143" y="11" width="1" height="1" fill="#231f20"/>
    <rect x="172" y="11" width="1" height="1" fill="#231f20"/>
    <rect x="0" y="12" width="1" height="1" fill="#231f20"/>
    <rect x="22" y="12" width="1" height="1" fill="#231f20"/>
    <rect x="25" y="12" width="1" height="1" fill="#231f20"/>
    <rect x="29" y="12" width="1" height="1" fill="#231f20"/>
    <rect x="48" y="12" width="1" height="1" fill="#231f20"/>
    <rect x="57" y="12" width="1" height="1" fill="#231f20"/>
    <rect x="85" y="12" width="2" height="1" fill="#231f20"/>
    <rect x="108" y="12" width="1" height="1" fill="#231f20"/>
    <rect x="115" y="12" width="1" height="1" fill="#231f20"/>
    <rect x="136" y="12" width="1" height="1" fill="#231f20"/>
    <rect x="144" y="12" width="1" height="1" fill="#231f20"/>
    <rect x="172" y="12" width="1" height="1" fill="#231f20"/>
    <rect x="0" y="13" width="1" height="1" fill="#231f20"/>
    <rect x="23" y="13" width="1" height="1" fill="#231f20"/>
    <rect x="25" y="13" width="1" height="1" fill="#231f20"/>
    <rect x="28" y="13" width="1" height="1" fill="#231f20"/>
    <rect x="48" y="13" width="1" height="1" fill="#231f20"/>
    <rect x="57" y="13" width="1" height="1" fill="#231f20"/>
    <rect x="85" y="13" width="1" height="1" fill="#231f20"/>
    <rect x="107" y="13" width="1" height="1" fill="#231f20"/>
    <rect x="116" y="13" width="1" height="1" fill="#231f20"/>
    <rect x="136" y="13" width="1" height="1" fill="#231f20"/>
    <rect x="144" y="13" width="1" height="1" fill="#231f20"/>
    <rect x="172" y="13" width="1" height="1" fill="#231f20"/>
    <rect x="0" y="14" width="1" height="1" fill="#231f20"/>
    <rect x="23" y="14" width="1" height="1" fill="#231f20"/>
    <rect x="25" y="14" width="1" height="1" fill="#231f20"/>
    <rect x="28" y="14" width="1" height="1" fill="#231f20"/>
    <rect x="48" y="14" width="1" height="1" fill="#231f20"/>
    <rect x="57" y="14" width="1" height="1" fill="#231f20"/>
    <rect x="85" y="14" width="1" height="1" fill="#231f20"/>
    <rect x="107" y="14" width="1" height="1" fill="#231f20"/>
    <rect x="116" y="14" width="1" height="1" fill="#231f20"/>
    <rect x="135" y="14" width="1" height="1" fill="#231f20"/>
    <rect x="145" y="14" width="1" height="1" fill="#231f20"/>
    <rect x="172" y="14" width="1" height="1" fill="#231f20"/>
    <rect x="0" y="15" width="1" height="1" fill="#231f20"/>
    <rect x="23" y="15" width="1" height="1" fill="#231f20"/>
    <rect x="25" y="15" width="1" height="1" fill="#231f20"/>
    <rect x="28" y="15" width="1" height="1" fill="#231f20"/>
    <rect x="48" y="15" width="1" height="1" fill="#231f20"/>
    <rect x="57" y="15" width="1" height="1" fill="#231f20"/>
    <rect x="83" y="15" width="2" height="1" fill="#231f20"/>
    <rect x="107" y="15" width="1" height="1" fill="#231f20"/>
    <rect x="116" y="15" width="1" height="1" fill="#231f20"/>
    <rect x="135" y="15" width="1" height="1" fill="#231f20"/>
    <rect x="145" y="15" width="1" height="1" fill="#231f20"/>
    <rect x="172" y="15" width="1" height="1" fill="#231f20"/>
    <rect x="0" y="16" width="1" height="1" fill="#231f20"/>
    <rect x="24" y="16" width="1" height="1" fill="#231f20"/>
    <rect x="27" y="16" width="1" height="1" fill="#231f20"/>
    <rect x="48" y="16" width="1" height="1" fill="#231f20"/>
    <rect x="57" y="16" width="1" height="1" fill="#231f20"/>
    <rect x="81" y="16" width="3" height="1" fill="#231f20"/>
    <rect x="106" y="16" width="1" height="1" fill="#231f20"/>
    <rect x="117" y="16" width="1" height="1" fill="#231f20"/>
    <rect x="134" y="16" width="1" height="1" fill="#231f20"/>
    <rect x="146" y="16" width="1" height="1" fill="#231f20"/>
    <rect x="172" y="16" width="1" height="1" fill="#231f20"/>
    <rect x="0" y="17" width="1" height="1" fill="#231f20"/>
    <rect x="24" y="17" width="1" height="1" fill="#231f20"/>
    <rect x="27" y="17" width="1" height="1" fill="#231f20"/>
    <rect x="48" y="17" width="10" height="1" fill="#231f20"/>
    <rect x="80" y="17" width="1" height="1" fill="#231f20"/>
    <rect x="106" y="17" width="1" height="1" fill="#231f20"/>
    <rect x="117" y="17" width="1" height="1" fill="#231f20"/>
    <rect x="134" y="17" width="1" height="1" fill="#231f20"/>
    <rect x="146" y="17" width="1" height="1" fill="#231f20"/>
    <rect x="172" y="17" width="1" height="1" fill="#231f20"/>
    <rect x="0" y="18" width="1" height="1" fill="#231f20"/>
    <rect x="172" y="18" width="1" height="1" fill="#231f20"/>
    <rect x="0" y="19" width="1" height="1" fill="#231f20"/>
    <rect x="172" y="19" width="1" height="1" fill="#231f20"/>
    <rect x="0" y="20" width="1" height="1" fill="#231f20"/>
    <rect x="172" y="20" width="1" height="1" fill="#231f20"/>
    <rect x="0" y="21" width="1" height="1" fill="#231f20"/>
    <rect x="172" y="21" width="1" height="1" fill="#231f20"/>
    <rect x="0" y="22" width="1" height="1" fill="#231f20"/>
    <rect x="172" y="22" width="1" height="1" fill="#231f20"/>
    <rect x="0" y="23" width="173" height="1" fill="#231f20"/>
    <rect x="0" y="24" width="1" height="1" fill="#231f20"/>
    <rect x="172" y="24" width="1" height="1" fill="#231f20"/>
    <rect x="0" y="25" width="1" height="1" fill="#231f20"/>
    <rect x="172" y="25" width="1" height="1" fill="#231f20"/>
    <rect x="0" y="26" width="1" height="1" fill="#231f20"/>
    <rect x="172" y="26" width="1" height="1" fill="#231f20"/>
    <rect x="0" y="27" width="1" height="1" fill="#231f20"/>
    <rect x="172" y="27" width="1" height="1" fill="#231f20"/>
    <rect x="0" y="28" width="1" height="1" fill="#231f20"/>
    <rect x="30" y="28" width="1" height="1" fill="#231f20"/>
    <rect x="33" y="28" width="1" height="1" fill="#231f20"/>
    <rect x="58" y="28" width="1" height="1" fill="#231f20"/>
    <rect x="61" y="28" width="1" height="1" fill="#231f20"/>
    <rect x="83" y="28" width="1" height="1" fill="#231f20"/>
    <rect x="114" y="28" width="10" height="1" fill="#231f20"/>
    <rect x="139" y="28" width="1" height="1" fill="#231f20"/>
    <rect x="147" y="28" width="1" height="1" fill="#231f20"/>
    <rect x="151" y="28" width="1" height="1" fill="#231f20"/>
    <rect x="172" y="28" width="1" height="1" fill="#231f20"/>
    <rect x="0" y="29" width="1" height="1" fill="#231f20"/>
    <rect x="30" y="29" width="1" height="1" fill="#231f20"/>
    <rect x="33" y="29" width="1" height="1" fill="#231f20"/>
    <rect x="58" y="29" width="1" height="1" fill="#231f20"/>
    <rect x="61" y="29" width="1" height="1" fill="#231f20"/>
    <rect x="84" y="29" width="3" height="1" fill="#231f20"/>
    <rect x="114" y="29" width="1" height="1" fill="#231f20"/>
    <rect x="123" y="29" width="1" height="1" fill="#231f20"/>
    <rect x="139" y="29" width="1" height="1" fill="#231f20"/>
    <rect x="147" y="29" width="1" height="1" fill="#231f20"/>
    <rect x="151" y="29" width="1" height="1" fill="#231f20"/>
    <rect x="172" y="29" width="1" height="1" fill="#231f20"/>
    <rect x="0" y="30" width="1" height="1" fill="#231f20"/>
    <rect x="29" y="30" width="1" height="1" fill="#231f20"/>
    <rect x="34" y="30" width="1" height="1" fill="#231f20"/>
    <rect x="57" y="30" width="1" height="1" fill="#231f20"/>
    <rect x="62" y="30" width="1" height="1" fill="#231f20"/>
    <rect x="86" y="30" width="2" height="1" fill="#231f20"/>
    <rect x="114" y="30" width="1" height="1" fill="#231f20"/>
    <rect x="123" y="30" width="1" height="1" fill="#231f20"/>
    <rect x="140" y="30" width="1" height="1" fill="#231f20"/>
    <rect x="147" y="30" width="1" height="1" fill="#231f20"/>
    <rect x="150" y="30" width="1" height="1" fill="#231f20"/>
    <rect x="172" y="30" width="1" height="1" fill="#231f20"/>
    <rect x="0" y="31" width="1" height="1" fill="#231f20"/>
    <rect x="29" y="31" width="1" height="1" fill="#231f20"/>
    <rect x="34" y="31" width="1" height="1" fill="#231f20"/>
    <rect x="57" y="31" width="1" height="1" fill="#231f20"/>
    <rect x="62" y="31" width="1" height="1" fill="#231f20"/>
    <rect x="88" y="31" width="1" height="1" fill="#231f20"/>
    <rect x="114" y="31" width="1" height="1" fill="#231f20"/>
    <rect x="123" y="31" width="1" height="1" fill="#231f20"/>
    <rect x="140" y="31" width="1" height="1" fill="#231f20"/>
    <rect x="146" y="31" width="1" height="1" fill="#231f20"/>
    <rect x="150" y="31" width="1" height="1" fill="#231f20"/>
    <rect x="172" y="31" width="1" height="1" fill="#231f20"/>
    <rect x="0" y="32" width="1" height="1" fill="#231f20"/>
    <rect x="28" y="32" width="1" height="1" fill="#231f20"/>
    <rect x="34" y="32" width="1" height="1" fill="#231f20"/>
    <rect x="57" y="32" width="1" height="1" fill="#231f20"/>
    <rect x="63" y="32" width="1" height="1" fill="#231f20"/>
    <rect x="88" y="32" width="2" height="1" fill="#231f20"/>
    <rect x="114" y="32" width="1" height="1" fill="#231f20"/>
    <rect x="123" y="32" width="1" height="1" fill="#231f20"/>
    <rect x="141" y="32" width="1" height="1" fill="#231f20"/>
    <rect x="146" y="32" width="1" height="1" fill="#231f20"/>
    <rect x="150" y="32" width="1" height="1" fill="#231f20"/>
    <rect x="172" y="32" width="1" height="1" fill="#231f20"/>
    <rect x="0" y="33" width="1" height="1" fill="#231f20"/>
    <rect x="28" y="33" width="1" height="1" fill="#231f20"/>
    <rect x="35" y="33" width="1" height="1" fill="#231f20"/>
    <rect x="56" y="33" width="1" height="1" fill="#231f20"/>
    <rect x="63" y="33" width="1" height="1" fill="#231f20"/>
    <rect x="89" y="33" width="1" height="1" fill="#231f20"/>
    <rect x="114" y="33" width="1" height="1" fill="#231f20"/>
    <rect x="123" y="33" width="1" height="1" fill="#231f20"/>
    <rect x="141" y="33" width="1" height="1" fill="#231f20"/>
    <rect x="146" y="33" width="1" height="1" fill="#231f20"/>
    <rect x="149" y="33" width="1" height="1" fill="#231f20"/>
    <rect x="172" y="33" width="1" height="1" fill="#231f20"/>
    <rect x="0" y="34" width="1" height="1" fill="#231f20"/>
    <rect x="27" y="34" width="1" height="1" fill="#231f20"/>
    <rect x="35" y="34" width="1" height="1" fill="#231f20"/>
    <rect x="56" y="34" width="1" height="1" fill="#231f20"/>
    <rect x="63" y="34" width="1" height="1" fill="#231f20"/>
    <rect x="89" y="34" width="1" height="1" fill="#231f20"/>
    <rect x="114" y="34" width="1" height="1" fill="#231f20"/>
    <rect x="123" y="34" width="1" height="1" fill="#231f20"/>
    <rect x="141" y="34" width="1" height="1" fill="#231f20"/>
    <rect x="146" y="34" width="1" height="1" fill="#231f20"/>
    <rect x="149" y="34" width="1" height="1" fill="#231f20"/>
    <rect x="172" y="34" width="1" height="1" fill="#231f20"/>
    <rect x="0" y="35" width="1" height="1" fill="#231f20"/>
    <rect x="27" y="35" width="1" height="1" fill="#231f20"/>
    <rect x="35" y="35" width="1" height="1" fill="#231f20"/>
    <rect x="56" y="35" width="1" height="1" fill="#231f20"/>
    <rect x="64" y="35" width="1" height="1" fill="#231f20"/>
    <rect x="89" y="35" width="1" height="1" fill="#231f20"/>
    <rect x="114" y="35" width="1" height="1" fill="#231f20"/>
    <rect x="123" y="35" width="1" height="1" fill="#231f20"/>
    <rect x="142" y="35" width="1" height="1" fill="#231f20"/>
    <rect x="145" y="35" width="1" height="1" fill="#231f20"/>
    <rect x="149" y="35" width="1" height="1" fill="#231f20"/>
    <rect x="172" y="35" width="1" height="1" fill="#231f20"/>
    <rect x="0" y="36" width="1" height="1" fill="#231f20"/>
    <rect x="27" y="36" width="1" height="1" fill="#231f20"/>
    <rect x="36" y="36" width="1" height="1" fill="#231f20"/>
    <rect x="55" y="36" width="1" height="1" fill="#231f20"/>
    <rect x="64" y="36" width="1" height="1" fill="#231f20"/>
    <rect x="89" y="36" width="1" height="1" fill="#231f20"/>
    <rect x="114" y="36" width="1" height="1" fill="#231f20"/>
    <rect x="123" y="36" width="1" height="1" fill="#231f20"/>
    <rect x="142" y="36" width="1" height="1" fill="#231f20"/>
    <rect x="145" y="36" width="1" height="1" fill="#231f20"/>
    <rect x="148" y="36" width="1" height="1" fill="#231f20"/>
    <rect x="172" y="36" width="1" height="1" fill="#231f20"/>
    <rect x="0" y="37" width="1" height="1" fill="#231f20"/>
    <rect x="26" y="37" width="1" height="1" fill="#231f20"/>
    <rect x="36" y="37" width="1" height="1" fill="#231f20"/>
    <rect x="55" y="37" width="1" height="1" fill="#231f20"/>
    <rect x="65" y="37" width="1" height="1" fill="#231f20"/>
    <rect x="88" y="37" width="2" height="1" fill="#231f20"/>
    <rect x="114" y="37" width="1" height="1" fill="#231f20"/>
    <rect x="123" y="37" width="1" height="1" fill="#231f20"/>
    <rect x="143" y="37" width="1" height="1" fill="#231f20"/>
    <rect x="145" y="37" width="1" height="1" fill="#231f20"/>
    <rect x="148" y="37" width="1" height="1" fill="#231f20"/>
    <rect x="172" y="37" width="1" height="1" fill="#231f20"/>
    <rect x="0" y="38" width="1" height="1" fill="#231f20"/>
    <rect x="26" y="38" width="1" height="1" fill="#231f20"/>
    <rect x="36" y="38" width="1" height="1" fill="#231f20"/>
    <rect x="55" y="38" width="1" height="1" fill="#231f20"/>
    <rect x="65" y="38" width="1" height="1" fill="#231f20"/>
    <rect x="87" y="38" width="2" height="1" fill="#231f20"/>
    <rect x="114" y="38" width="1" height="1" fill="#231f20"/>
    <rect x="123" y="38" width="1" height="1" fill="#231f20"/>
    <rect x="143" y="38" width="1" height="1" fill="#231f20"/>
    <rect x="145" y="38" width="1" height="1" fill="#231f20"/>
    <rect x="148" y="38" width="1" height="1" fill="#231f20"/>
    <rect x="172" y="38" width="1" height="1" fill="#231f20"/>
    <rect x="0" y="39" width="1" height="1" fill="#231f20"/>
    <rect x="25" y="39" width="1" height="1" fill="#231f20"/>
    <rect x="37" y="39" width="1" height="1" fill="#231f20"/>
    <rect x="54" y="39" width="1" height="1" fill="#231f20"/>
    <rect x="66" y="39" width="1" height="1" fill="#231f20"/>
    <rect x="84" y="39" width="3" height="1" fill="#231f20"/>
    <rect x="114" y="39" width="1" height="1" fill="#231f20"/>
    <rect x="123" y="39" width="1" height="1" fill="#231f20"/>
    <rect x="144" y="39" width="1" height="1" fill="#231f20"/>
    <rect x="147" y="39" width="1" height="1" fill="#231f20"/>
    <rect x="172" y="39" width="1" height="1" fill="#231f20"/>
    <rect x="0" y="40" width="1" height="1" fill="#231f20"/>
    <rect x="25" y="40" width="1" height="1" fill="#231f20"/>
    <rect x="37" y="40" width="1" height="1" fill="#231f20"/>
    <rect x="54" y="40" width="1" height="1" fill="#231f20"/>
    <rect x="66" y="40" width="1" height="1" fill="#231f20"/>
    <rect x="83" y="40" width="1" height="1" fill="#231f20"/>
    <rect x="114" y="40" width="10" height="1" fill="#231f20"/>
    <rect x="144" y="40" width="1" height="1" fill="#231f20"/>
    <rect x="147" y="40" width="1" height="1" fill="#231f20"/>
    <rect x="172" y="40" width="1" height="1" fill="#231f20"/>
    <rect x="0" y="41" width="1" height="1" fill="#231f20"/>
    <rect x="172" y="41" width="1" height="1" fill="#231f20"/>
    <rect x="0" y="42" width="1" height="1" fill="#231f20"/>
    <rect x="172" y="42" width="1" height="1" fill="#231f20"/>
    <rect x="0" y="43" width="1" height="1" fill="#231f20"/>
    <rect x="172" y="43" width="1" height="1" fill="#231f20"/>
    <rect x="0" y="44" width="1" height="1" fill="#231f20"/>
    <rect x="172" y="44" width="1" height="1" fill="#231f20"/>
    <rect x="0" y="45" width="173" height="1" fill="#231f20"/>
    <rect x="0" y="46" width="1" height="1" fill="#231f20"/>
    <rect x="172" y="46" width="1" height="1" fill="#231f20"/>
    <rect x="0" y="47" width="1" height="1" fill="#231f20"/>
    <rect x="172" y="47" width="1" height="1" fill="#231f20"/>
    <rect x="0" y="48" width="1" height="1" fill="#231f20"/>
    <rect x="172" y="48" width="1" height="1" fill="#231f20"/>
    <rect x="0" y="49" width="1" height="1" fill="#231f20"/>
    <rect x="172" y="49" width="1" height="1" fill="#231f20"/>
    <rect x="0" y="50" width="1" height="1" fill="#231f20"/>
    <rect x="172" y="50" width="1" height="1" fill="#231f20"/>
    <rect x="0" y="51" width="1" height="1" fill="#231f20"/>
    <rect x="20" y="51" width="1" height="1" fill="#231f20"/>
    <rect x="27" y="51" width="1" height="1" fill="#231f20"/>
    <rect x="31" y="51" width="1" height="1" fill="#231f20"/>
    <rect x="48" y="51" width="10" height="1" fill="#231f20"/>
    <rect x="80" y="51" width="1" height="1" fill="#231f20"/>
    <rect x="110" y="51" width="1" height="1" fill="#231f20"/>
    <rect x="113" y="51" width="1" height="1" fill="#231f20"/>
    <rect x="139" y="51" width="1" height="1" fill="#231f20"/>
    <rect x="141" y="51" width="1" height="1" fill="#231f20"/>
    <rect x="172" y="51" width="1" height="1" fill="#231f20"/>
    <rect x="0" y="52" width="1" height="1" fill="#231f20"/>
    <rect x="20" y="52" width="1" height="1" fill="#231f20"/>
    <rect x="27" y="52" width="1" height="1" fill="#231f20"/>
    <rect x="31" y="52" width="1" height="1" fill="#231f20"/>
    <rect x="48" y="52" width="1" height="1" fill="#231f20"/>
    <rect x="57" y="52" width="1" height="1" fill="#231f20"/>
    <rect x="81" y="52" width="3" height="1" fill="#231f20"/>
    <rect x="110" y="52" width="1" height="1" fill="#231f20"/>
    <rect x="113" y="52" width="1" height="1" fill="#231f20"/>
    <rect x="139" y="52" width="1" height="1" fill="#231f20"/>
    <rect x="141" y="52" width="1" height="1" fill="#231f20"/>
    <rect x="172" y="52" width="1" height="1" fill="#231f20"/>
    <rect x="0" y="53" width="1" height="1" fill="#231f20"/>
    <rect x="21" y="53" width="1" height="1" fill="#231f20"/>
    <rect x="27" y="53" width="1" height="1" fill="#231f20"/>
    <rect x="30" y="53" width="1" height="1" fill="#231f20"/>
    <rect x="48" y="53" width="1" height="1" fill="#231f20"/>
    <rect x="57" y="53" width="1" height="1" fill="#231f20"/>
    <rect x="83" y="53" width="2" height="1" fill="#231f20"/>
    <rect x="109" y="53" width="1" height="1" fill="#231f20"/>
    <rect x="114" y="53" width="1" height="1" fill="#231f20"/>
    <rect x="138" y="53" width="1" height="1" fill="#231f20"/>
    <rect x="142" y="53" width="1" height="1" fill="#231f20"/>
    <rect x="172" y="53" width="1" height="1" fill="#231f20"/>
    <rect x="0" y="54" width="1" height="1" fill="#231f20"/>
    <rect x="21" y="54" width="1" height="1" fill="#231f20"/>
    <rect x="26" y="54" width="1" height="1" fill="#231f20"/>
    <rect x="30" y="54" width="1" height="1" fill="#231f20"/>
    <rect x="48" y="54" width="1" height="1" fill="#231f20"/>
    <rect x="57" y="54" width="1" height="1" fill="#231f20"/>
    <rect x="84" y="54" width="2" height="1" fill="#231f20"/>
    <rect x="109" y="54" width="1" height="1" fill="#231f20"/>
    <rect x="114" y="54" width="1" height="1" fill="#231f20"/>
    <rect x="138" y="54" width="1" height="1" fill="#231f20"/>
    <rect x="142" y="54" width="1" height="1" fill="#231f20"/>
    <rect x="172" y="54" width="1" height="1" fill="#231f20"/>
    <rect x="0" y="55" width="1" height="1" fill="#231f20"/>
    <rect x="21" y="55" width="1" height="1" fill="#231f20"/>
    <rect x="26" y="55" width="1" height="1" fill="#231f20"/>
    <rect x="30" y="55" width="1" height="1" fill="#231f20"/>
    <rect x="48" y="55" width="1" height="1" fill="#231f20"/>
    <rect x="57" y="55" width="1" height="1" fill="#231f20"/>
    <rect x="85" y="55" width="1" height="1" fill="#231f20"/>
    <rect x="109" y="55" width="1" height="1" fill="#231f20"/>
    <rect x="114" y="55" width="1" height="1" fill="#231f20"/>
    <rect x="137" y="55" width="1" height="1" fill="#231f20"/>
    <rect x="143" y="55" width="1" height="1" fill="#231f20"/>
    <rect x="172" y="55" width="1" height="1" fill="#231f20"/>
    <rect x="0" y="56" width="1" height="1" fill="#231f20"/>
    <rect x="22" y="56" width="1" height="1" fill="#231f20"/>
    <rect x="26" y="56" width="1" height="1" fill="#231f20"/>
    <rect x="29" y="56" width="1" height="1" fill="#231f20"/>
    <rect x="48" y="56" width="1" height="1" fill="#231f20"/>
    <rect x="57" y="56" width="1" height="1" fill="#231f20"/>
    <rect x="85" y="56" width="1" height="1" fill="#231f20"/>
    <rect x="108" y="56" width="1" height="1" fill="#231f20"/>
    <rect x="115" y="56" width="1" height="1" fill="#231f20"/>
    <rect x="137" y="56" width="1" height="1" fill="#231f20"/>
    <rect x="143" y="56" width="1" height="1" fill="#231f20"/>
    <rect x="172" y="56" width="1" height="1" fill="#231f20"/>
    <rect x="0" y="57" width="1" height="1" fill="#231f20"/>
    <rect x="22" y="57" width="1" height="1" fill="#231f20"/>
    <rect x="26" y="57" width="1" height="1" fill="#231f20"/>
    <rect x="29" y="57" width="1" height="1" fill="#231f20"/>
    <rect x="48" y="57" width="1" height="1" fill="#231f20"/>
    <rect x="57" y="57" width="1" height="1" fill="#231f20"/>
    <rect x="86" y="57" width="1" height="1" fill="#231f20"/>
    <rect x="108" y="57" width="1" height="1" fill="#231f20"/>
    <rect x="115" y="57" width="1" height="1" fill="#231f20"/>
    <rect x="136" y="57" width="1" height="1" fill="#231f20"/>
    <rect x="143" y="57" width="1" height="1" fill="#231f20"/>
    <rect x="172" y="57" width="1" height="1" fill="#231f20"/>
    <rect x="0" y="58" width="1" height="1" fill="#231f20"/>
    <rect x="22" y="58" width="1" height="1" fill="#231f20"/>
    <rect x="25" y="58" width="1" height="1" fill="#231f20"/>
    <rect x="29" y="58" width="1" height="1" fill="#231f20"/>
    <rect x="48" y="58" width="1" height="1" fill="#231f20"/>
    <rect x="57" y="58" width="1" height="1" fill="#231f20"/>
    <rect x="85" y="58" width="2" height="1" fill="#231f20"/>
    <rect x="108" y="58" width="1" height="1" fill="#231f20"/>
    <rect x="115" y="58" width="1" height="1" fill="#231f20"/>
    <rect x="136" y="58" width="1" height="1" fill="#231f20"/>
    <rect x="144" y="58" width="1" height="1" fill="#231f20"/>
    <rect x="172" y="58" width="1" height="1" fill="#231f20"/>
    <rect x="0" y="59" width="1" height="1" fill="#231f20"/>
    <rect x="23" y="59" width="1" height="1" fill="#231f20"/>
    <rect x="25" y="59" width="1" height="1" fill="#231f20"/>
    <rect x="28" y="59" width="1" height="1" fill="#231f20"/>
    <rect x="48" y="59" width="1" height="1" fill="#231f20"/>
    <rect x="57" y="59" width="1" height="1" fill="#231f20"/>
    <rect x="85" y="59" width="1" height="1" fill="#231f20"/>
    <rect x="107" y="59" width="1" height="1" fill="#231f20"/>
    <rect x="116" y="59" width="1" height="1" fill="#231f20"/>
    <rect x="136" y="59" width="1" height="1" fill="#231f20"/>
    <rect x="144" y="59" width="1" height="1" fill="#231f20"/>
    <rect x="172" y="59" width="1" height="1" fill="#231f20"/>
    <rect x="0" y="60" width="1" height="1" fill="#231f20"/>
    <rect x="23" y="60" width="1" height="1" fill="#231f20"/>
    <rect x="25" y="60" width="1" height="1" fill="#231f20"/>
    <rect x="28" y="60" width="1" height="1" fill="#231f20"/>
    <rect x="48" y="60" width="1" height="1" fill="#231f20"/>
    <rect x="57" y="60" width="1" height="1" fill="#231f20"/>
    <rect x="84" y="60" width="2" height="1" fill="#231f20"/>
    <rect x="107" y="60" width="1" height="1" fill="#231f20"/>
    <rect x="116" y="60" width="1" height="1" fill="#231f20"/>
    <rect x="135" y="60" width="1" height="1" fill="#231f20"/>
    <rect x="145" y="60" width="1" height="1" fill="#231f20"/>
    <rect x="172" y="60" width="1" height="1" fill="#231f20"/>
    <rect x="0" y="61" width="1" height="1" fill="#231f20"/>
    <rect x="23" y="61" width="1" height="1" fill="#231f20"/>
    <rect x="25" y="61" width="1" height="1" fill="#231f20"/>
    <rect x="28" y="61" width="1" height="1" fill="#231f20"/>
    <rect x="48" y="61" width="1" height="1" fill="#231f20"/>
    <rect x="57" y="61" width="1" height="1" fill="#231f20"/>
    <rect x="83" y="61" width="2" height="1" fill="#231f20"/>
    <rect x="107" y="61" width="1" height="1" fill="#231f20"/>
    <rect x="116" y="61" width="1" height="1" fill="#231f20"/>
    <rect x="135" y="61" width="1" height="1" fill="#231f20"/>
    <rect x="145" y="61" width="1" height="1" fill="#231f20"/>
    <rect x="172" y="61" width="1" height="1" fill="#231f20"/>
    <rect x="0" y="62" width="1" height="1" fill="#231f20"/>
    <rect x="24" y="62" width="1" height="1" fill="#231f20"/>
    <rect x="27" y="62" width="1" height="1" fill="#231f20"/>
    <rect x="48" y="62" width="1" height="1" fill="#231f20"/>
    <rect x="57" y="62" width="1" height="1" fill="#231f20"/>
    <rect x="81" y="62" width="3" height="1" fill="#231f20"/>
    <rect x="106" y="62" width="1" height="1" fill="#231f20"/>
    <rect x="117" y="62" width="1" height="1" fill="#231f20"/>
    <rect x="134" y="62" width="1" height="1" fill="#231f20"/>
    <rect x="146" y="62" width="1" height="1" fill="#231f20"/>
    <rect x="172" y="62" width="1" height="1" fill="#231f20"/>
    <rect x="0" y="63" width="1" height="1" fill="#231f20"/>
    <rect x="24" y="63" width="1" height="1" fill="#231f20"/>
    <rect x="27" y="63" width="1" height="1" fill="#231f20"/>
    <rect x="48" y="63" width="10" height="1" fill="#231f20"/>
    <rect x="80" y="63" width="1" height="1" fill="#231f20"/>
    <rect x="106" y="63" width="1" height="1" fill="#231f20"/>
    <rect x="117" y="63" width="1" height="1" fill="#231f20"/>
    <rect x="134" y="63" width="1" height="1" fill="#231f20"/>
    <rect x="146" y="63" width="1" height="1" fill="#231f20"/>
    <rect x="172" y="63" width="1" height="1" fill="#231f20"/>
    <rect x="0" y="64" width="1" height="1" fill="#231f20"/>
    <rect x="172" y="64" width="1" height="1" fill="#231f20"/>
    <rect x="0" y="65" width="1" height="1" fill="#231f20"/>
    <rect x="172" y="65" width="1" height="1" fill="#231f20"/>
    <rect x="0" y="66" width="1" height="1" fill="#231f20"/>
    <rect x="172" y="66" width="1" height="1" fill="#231f20"/>
    <rect x="0" y="67" width="1" height="1" fill="#231f20"/>
    <rect x="172" y="67" width="1" height="1" fill="#231f20"/>
    <rect x="0" y="68" width="173" height="1" fill="#231f20"/>
  </g>
</svg>