<?xml version="1.0" encoding="UTF-8"?>
<svg xmlns="http://www.w3.org/2000/svg" viewBox="0 0 174 69" width="174" height="69">
  <!-- Auto-converted from legend-2415.png -->
  <rect x="0" y="0" width="174" height="69" fill="none"/>
  <g fill="#231f20" stroke="none">
    <rect x="0" y="0" width="174" height="1" fill="#231f20"/>
    <rect x="0" y="1" width="1" height="1" fill="#231f20"/>
    <rect x="173" y="1" width="1" height="1" fill="#231f20"/>
    <rect x="0" y="2" width="1" height="1" fill="#231f20"/>
    <rect x="29" y="2" width="1" height="1" fill="#231f20"/>
    <rect x="63" y="2" width="2" height="1" fill="#231f20"/>
    <rect x="98" y="2" width="1" height="1" fill="#231f20"/>
    <rect x="132" y="2" width="1" height="1" fill="#231f20"/>
    <rect x="173" y="2" width="1" height="1" fill="#231f20"/>
    <rect x="0" y="3" width="1" height="1" fill="#231f20"/>
    <rect x="27" y="3" width="2" height="1" fill="#231f20"/>
    <rect x="30" y="3" width="2" height="1" fill="#231f20"/>
    <rect x="62" y="3" width="1" height="1" fill="#231f20"/>
    <rect x="65" y="3" width="2" height="1" fill="#231f20"/>
    <rect x="96" y="3" width="2" height="1" fill="#231f20"/>
    <rect x="99" y="3" width="2" height="1" fill="#231f20"/>
    <rect x="130" y="3" width="2" height="1" fill="#231f20"/>
    <rect x="133" y="3" width="2" height="1" fill="#231f20"/>
    <rect x="173" y="3" width="1" height="1" fill="#231f20"/>
    <rect x="0" y="4" width="1" height="1" fill="#231f20"/>
    <rect x="26" y="4" width="1" height="1" fill="#231f20"/>
    <rect x="32" y="4" width="1" height="1" fill="#231f20"/>
    <rect x="61" y="4" width="1" height="1" fill="#231f20"/>
    <rect x="66" y="4" width="1" height="1" fill="#231f20"/>
    <rect x="95" y="4" width="1" height="1" fill="#231f20"/>
    <rect x="101" y="4" width="1" height="1" fill="#231f20"/>
    <rect x="130" y="4" width="1" height="1" fill="#231f20"/>
    <rect x="135" y="4" width="1" height="1" fill="#231f20"/>
    <rect x="173" y="4" width="1" height="1" fill="#231f20"/>
    <rect x="0" y="5" width="1" height="1" fill="#231f20"/>
    <rect x="26" y="5" width="1" height="1" fill="#231f20"/>
    <rect x="32" y="5" width="1" height="1" fill="#231f20"/>
    <rect x="61" y="5" width="1" height="1" fill="#231f20"/>
    <rect x="66" y="5" width="1" height="1" fill="#231f20"/>
    <rect x="95" y="5" width="1" height="1" fill="#231f20"/>
    <rect x="101" y="5" width="1" height="1" fill="#231f20"/>
    <rect x="130" y="5" width="1" height="1" fill="#231f20"/>
    <rect x="135" y="5" width="1" height="1" fill="#231f20"/>
    <rect x="173" y="5" width="1" height="1" fill="#231f20"/>
    <rect x="0" y="6" width="1" height="1" fill="#231f20"/>
    <rect x="26" y="6" width="1" height="1" fill="#231f20"/>
    <rect x="32" y="6" width="1" height="1" fill="#231f20"/>
    <rect x="61" y="6" width="1" height="1" fill="#231f20"/>
    <rect x="66" y="6" width="1" height="1" fill="#231f20"/>
    <rect x="95" y="6" width="1" height="1" fill="#231f20"/>
    <rect x="101" y="6" width="1" height="1" fill="#231f20"/>
    <rect x="130" y="6" width="1" height="1" fill="#231f20"/>
    <rect x="135" y="6" width="1" height="1" fill="#231f20"/>
    <rect x="173" y="6" width="1" height="1" fill="#231f20"/>
    <rect x="0" y="7" width="1" height="1" fill="#231f20"/>
    <rect x="27" y="7" width="1" height="1" fill="#231f20"/>
    <rect x="31" y="7" width="1" height="1" fill="#231f20"/>
    <rect x="62" y="7" width="1" height="1" fill="#231f20"/>
    <rect x="66" y="7" width="1" height="1" fill="#231f20"/>
    <rect x="96" y="7" width="1" height="1" fill="#231f20"/>
    <rect x="100" y="7" width="1" height="1" fill="#231f20"/>
    <rect x="130" y="7" width="1" height="1" fill="#231f20"/>
    <rect x="134" y="7" width="1" height="1" fill="#231f20"/>
    <rect x="173" y="7" width="1" height="1" fill="#231f20"/>
    <rect x="0" y="8" width="1" height="1" fill="#231f20"/>
    <rect x="28" y="8" width="3" height="1" fill="#231f20"/>
    <rect x="62" y="8" width="4" height="1" fill="#231f20"/>
    <rect x="97" y="8" width="3" height="1" fill="#231f20"/>
    <rect x="131" y="8" width="3" height="1" fill="#231f20"/>
    <rect x="173" y="8" width="1" height="1" fill="#231f20"/>
    <rect x="0" y="9" width="1" height="1" fill="#231f20"/>
    <rect x="173" y="9" width="1" height="1" fill="#231f20"/>
    <rect x="0" y="10" width="1" height="1" fill="#231f20"/>
    <rect x="105" y="10" width="21" height="1" fill="#231f20"/>
    <rect x="173" y="10" width="1" height="1" fill="#231f20"/>
    <rect x="0" y="11" width="4" height="1" fill="#231f20"/>
    <rect x="96" y="11" width="9" height="1" fill="#231f20"/>
    <rect x="126" y="11" width="14" height="1" fill="#231f20"/>
    <rect x="173" y="11" width="1" height="1" fill="#231f20"/>
    <rect x="0" y="12" width="1" height="1" fill="#231f20"/>
    <rect x="4" y="12" width="5" height="1" fill="#231f20"/>
    <rect x="88" y="12" width="8" height="1" fill="#231f20"/>
    <rect x="101" y="12" width="28" height="1" fill="#231f20"/>
    <rect x="140" y="12" width="8" height="1" fill="#231f20"/>
    <rect x="173" y="12" width="1" height="1" fill="#231f20"/>
    <rect x="0" y="13" width="4" height="1" fill="#231f20"/>
    <rect x="9" y="13" width="7" height="1" fill="#231f20"/>
    <rect x="81" y="13" width="7" height="1" fill="#231f20"/>
    <rect x="93" y="13" width="8" height="1" fill="#231f20"/>
    <rect x="129" y="13" width="10" height="1" fill="#231f20"/>
    <rect x="148" y="13" width="5" height="1" fill="#231f20"/>
    <rect x="173" y="13" width="1" height="1" fill="#231f20"/>
    <rect x="0" y="14" width="1" height="1" fill="#231f20"/>
    <rect x="4" y="14" width="5" height="1" fill="#231f20"/>
    <rect x="16" y="14" width="8" height="1" fill="#231f20"/>
    <rect x="75" y="14" width="6" height="1" fill="#231f20"/>
    <rect x="84" y="14" width="9" height="1" fill="#231f20"/>
    <rect x="139" y="14" width="8" height="1" fill="#231f20"/>
    <rect x="153" y="14" width="7" height="1" fill="#231f20"/>
    <rect x="173" y="14" width="1" height="1" fill="#231f20"/>
    <rect x="0" y="15" width="1" height="1" fill="#231f20"/>
    <rect x="9" y="15" width="7" height="1" fill="#231f20"/>
    <rect x="24" y="15" width="8" height="1" fill="#231f20"/>
    <rect x="67" y="15" width="8" height="1" fill="#231f20"/>
    <rect x="79" y="15" width="5" height="1" fill="#231f20"/>
    <rect x="147" y="15" width="6" height="1" fill="#231f20"/>
    <rect x="160" y="15" width="5" height="1" fill="#231f20"/>
    <rect x="173" y="15" width="1" height="1" fill="#231f20"/>
    <rect x="0" y="16" width="1" height="1" fill="#231f20"/>
    <rect x="16" y="16" width="8" height="1" fill="#231f20"/>
    <rect x="32" y="16" width="16" height="1" fill="#231f20"/>
    <rect x="54" y="16" width="13" height="1" fill="#231f20"/>
    <rect x="72" y="16" width="7" height="1" fill="#231f20"/>
    <rect x="153" y="16" width="7" height="1" fill="#231f20"/>
    <rect x="165" y="16" width="6" height="1" fill="#231f20"/>
    <rect x="173" y="16" width="1" height="1" fill="#231f20"/>
    <rect x="0" y="17" width="1" height="1" fill="#231f20"/>
    <rect x="24" y="17" width="8" height="1" fill="#231f20"/>
    <rect x="48" y="17" width="6" height="1" fill="#231f20"/>
    <rect x="64" y="17" width="8" height="1" fill="#231f20"/>
    <rect x="160" y="17" width="5" height="1" fill="#231f20"/>
    <rect x="171" y="17" width="3" height="1" fill="#231f20"/>
    <rect x="0" y="18" width="1" height="1" fill="#231f20"/>
    <rect x="32" y="18" width="32" height="1" fill="#231f20"/>
    <rect x="165" y="18" width="5" height="1" fill="#231f20"/>
    <rect x="173" y="18" width="1" height="1" fill="#231f20"/>
    <rect x="0" y="19" width="1" height="1" fill="#231f20"/>
    <rect x="170" y="19" width="4" height="1" fill="#231f20"/>
    <rect x="0" y="20" width="1" height="1" fill="#231f20"/>
    <rect x="173" y="20" width="1" height="1" fill="#231f20"/>
    <rect x="0" y="21" width="1" height="1" fill="#231f20"/>
    <rect x="173" y="21" width="1" height="1" fill="#231f20"/>
    <rect x="0" y="22" width="1" height="1" fill="#231f20"/>
    <rect x="173" y="22" width="1" height="1" fill="#231f20"/>
    <rect x="0" y="23" width="174" height="1" fill="#231f20"/>
    <rect x="0" y="24" width="1" height="1" fill="#231f20"/>
    <rect x="173" y="24" width="1" height="1" fill="#231f20"/>
    <rect x="0" y="25" width="1" height="1" fill="#231f20"/>
    <rect x="41" y="25" width="1" height="1" fill="#231f20"/>
    <rect x="75" y="25" width="1" height="1" fill="#231f20"/>
    <rect x="109" y="25" width="2" height="1" fill="#231f20"/>
    <rect x="144" y="25" width="1" height="1" fill="#231f20"/>
    <rect x="173" y="25" width="1" height="1" fill="#231f20"/>
    <rect x="0" y="26" width="1" height="1" fill="#231f20"/>
    <rect x="39" y="26" width="2" height="1" fill="#231f20"/>
    <rect x="42" y="26" width="2" height="1" fill="#231f20"/>
    <rect x="73" y="26" width="2" height="1" fill="#231f20"/>
    <rect x="76" y="26" width="2" height="1" fill="#231f20"/>
    <rect x="107" y="26" width="2" height="1" fill="#231f20"/>
    <rect x="111" y="26" width="1" height="1" fill="#231f20"/>
    <rect x="142" y="26" width="2" height="1" fill="#231f20"/>
    <rect x="145" y="26" width="2" height="1" fill="#231f20"/>
    <rect x="173" y="26" width="1" height="1" fill="#231f20"/>
    <rect x="0" y="27" width="1" height="1" fill="#231f20"/>
    <rect x="38" y="27" width="1" height="1" fill="#231f20"/>
    <rect x="43" y="27" width="1" height="1" fill="#231f20"/>
    <rect x="72" y="27" width="1" height="1" fill="#231f20"/>
    <rect x="78" y="27" width="1" height="1" fill="#231f20"/>
    <rect x="107" y="27" width="1" height="1" fill="#231f20"/>
    <rect x="112" y="27" width="1" height="1" fill="#231f20"/>
    <rect x="141" y="27" width="1" height="1" fill="#231f20"/>
    <rect x="147" y="27" width="1" height="1" fill="#231f20"/>
    <rect x="173" y="27" width="1" height="1" fill="#231f20"/>
    <rect x="0" y="28" width="1" height="1" fill="#231f20"/>
    <rect x="38" y="28" width="1" height="1" fill="#231f20"/>
    <rect x="43" y="28" width="1" height="1" fill="#231f20"/>
    <rect x="72" y="28" width="1" height="1" fill="#231f20"/>
    <rect x="78" y="28" width="1" height="1" fill="#231f20"/>
    <rect x="107" y="28" width="1" height="1" fill="#231f20"/>
    <rect x="112" y="28" width="1" height="1" fill="#231f20"/>
    <rect x="141" y="28" width="1" height="1" fill="#231f20"/>
    <rect x="147" y="28" width="1" height="1" fill="#231f20"/>
    <rect x="173" y="28" width="1" height="1" fill="#231f20"/>
    <rect x="0" y="29" width="1" height="1" fill="#231f20"/>
    <rect x="38" y="29" width="1" height="1" fill="#231f20"/>
    <rect x="43" y="29" width="1" height="1" fill="#231f20"/>
    <rect x="72" y="29" width="1" height="1" fill="#231f20"/>
    <rect x="78" y="29" width="1" height="1" fill="#231f20"/>
    <rect x="107" y="29" width="1" height="1" fill="#231f20"/>
    <rect x="112" y="29" width="1" height="1" fill="#231f20"/>
    <rect x="141" y="29" width="1" height="1" fill="#231f20"/>
    <rect x="147" y="29" width="1" height="1" fill="#231f20"/>
    <rect x="173" y="29" width="1" height="1" fill="#231f20"/>
    <rect x="0" y="30" width="1" height="1" fill="#231f20"/>
    <rect x="39" y="30" width="1" height="1" fill="#231f20"/>
    <rect x="43" y="30" width="1" height="1" fill="#231f20"/>
    <rect x="73" y="30" width="1" height="1" fill="#231f20"/>
    <rect x="77" y="30" width="1" height="1" fill="#231f20"/>
    <rect x="107" y="30" width="1" height="1" fill="#231f20"/>
    <rect x="111" y="30" width="1" height="1" fill="#231f20"/>
    <rect x="142" y="30" width="1" height="1" fill="#231f20"/>
    <rect x="146" y="30" width="1" height="1" fill="#231f20"/>
    <rect x="173" y="30" width="1" height="1" fill="#231f20"/>
    <rect x="0" y="31" width="1" height="1" fill="#231f20"/>
    <rect x="40" y="31" width="3" height="1" fill="#231f20"/>
    <rect x="74" y="31" width="3" height="1" fill="#231f20"/>
    <rect x="108" y="31" width="4" height="1" fill="#231f20"/>
    <rect x="143" y="31" width="3" height="1" fill="#231f20"/>
    <rect x="173" y="31" width="1" height="1" fill="#231f20"/>
    <rect x="0" y="32" width="1" height="1" fill="#231f20"/>
    <rect x="173" y="32" width="1" height="1" fill="#231f20"/>
    <rect x="0" y="33" width="1" height="1" fill="#231f20"/>
    <rect x="102" y="33" width="27" height="1" fill="#231f20"/>
    <rect x="173" y="33" width="1" height="1" fill="#231f20"/>
    <rect x="0" y="34" width="4" height="1" fill="#231f20"/>
    <rect x="94" y="34" width="8" height="1" fill="#231f20"/>
    <rect x="129" y="34" width="11" height="1" fill="#231f20"/>
    <rect x="173" y="34" width="1" height="1" fill="#231f20"/>
    <rect x="0" y="35" width="1" height="1" fill="#231f20"/>
    <rect x="4" y="35" width="5" height="1" fill="#231f20"/>
    <rect x="84" y="35" width="10" height="1" fill="#231f20"/>
    <rect x="99" y="35" width="32" height="1" fill="#231f20"/>
    <rect x="140" y="35" width="8" height="1" fill="#231f20"/>
    <rect x="173" y="35" width="1" height="1" fill="#231f20"/>
    <rect x="0" y="36" width="4" height="1" fill="#231f20"/>
    <rect x="9" y="36" width="10" height="1" fill="#231f20"/>
    <rect x="79" y="36" width="5" height="1" fill="#231f20"/>
    <rect x="91" y="36" width="8" height="1" fill="#231f20"/>
    <rect x="131" y="36" width="11" height="1" fill="#231f20"/>
    <rect x="148" y="36" width="8" height="1" fill="#231f20"/>
    <rect x="173" y="36" width="1" height="1" fill="#231f20"/>
    <rect x="0" y="37" width="1" height="1" fill="#231f20"/>
    <rect x="4" y="37" width="5" height="1" fill="#231f20"/>
    <rect x="19" y="37" width="5" height="1" fill="#231f20"/>
    <rect x="75" y="37" width="4" height="1" fill="#231f20"/>
    <rect x="84" y="37" width="7" height="1" fill="#231f20"/>
    <rect x="142" y="37" width="5" height="1" fill="#231f20"/>
    <rect x="156" y="37" width="4" height="1" fill="#231f20"/>
    <rect x="173" y="37" width="1" height="1" fill="#231f20"/>
    <rect x="0" y="38" width="1" height="1" fill="#231f20"/>
    <rect x="9" y="38" width="7" height="1" fill="#231f20"/>
    <rect x="24" y="38" width="8" height="1" fill="#231f20"/>
    <rect x="67" y="38" width="8" height="1" fill="#231f20"/>
    <rect x="79" y="38" width="5" height="1" fill="#231f20"/>
    <rect x="147" y="38" width="9" height="1" fill="#231f20"/>
    <rect x="160" y="38" width="5" height="1" fill="#231f20"/>
    <rect x="173" y="38" width="1" height="1" fill="#231f20"/>
    <rect x="0" y="39" width="1" height="1" fill="#231f20"/>
    <rect x="16" y="39" width="8" height="1" fill="#231f20"/>
    <rect x="32" y="39" width="35" height="1" fill="#231f20"/>
    <rect x="72" y="39" width="7" height="1" fill="#231f20"/>
    <rect x="156" y="39" width="4" height="1" fill="#231f20"/>
    <rect x="165" y="39" width="6" height="1" fill="#231f20"/>
    <rect x="173" y="39" width="1" height="1" fill="#231f20"/>
    <rect x="0" y="40" width="1" height="1" fill="#231f20"/>
    <rect x="24" y="40" width="11" height="1" fill="#231f20"/>
    <rect x="64" y="40" width="8" height="1" fill="#231f20"/>
    <rect x="160" y="40" width="5" height="1" fill="#231f20"/>
    <rect x="171" y="40" width="3" height="1" fill="#231f20"/>
    <rect x="0" y="41" width="1" height="1" fill="#231f20"/>
    <rect x="35" y="41" width="29" height="1" fill="#231f20"/>
    <rect x="165" y="41" width="5" height="1" fill="#231f20"/>
    <rect x="173" y="41" width="1" height="1" fill="#231f20"/>
    <rect x="0" y="42" width="1" height="1" fill="#231f20"/>
    <rect x="170" y="42" width="4" height="1" fill="#231f20"/>
    <rect x="0" y="43" width="1" height="1" fill="#231f20"/>
    <rect x="173" y="43" width="1" height="1" fill="#231f20"/>
    <rect x="0" y="44" width="1" height="1" fill="#231f20"/>
    <rect x="173" y="44" width="1" height="1" fill="#231f20"/>
    <rect x="0" y="45" width="174" height="1" fill="#231f20"/>
    <rect x="0" y="46" width="1" height="1" fill="#231f20"/>
    <rect x="173" y="46" width="1" height="1" fill="#231f20"/>
    <rect x="0" y="47" width="1" height="1" fill="#231f20"/>
    <rect x="173" y="47" width="1" height="1" fill="#231f20"/>
    <rect x="0" y="48" width="1" height="1" fill="#231f20"/>
    <rect x="28" y="48" width="3" height="1" fill="#231f20"/>
    <rect x="62" y="48" width="4" height="1" fill="#231f20"/>
    <rect x="97" y="48" width="3" height="1" fill="#231f20"/>
    <rect x="131" y="48" width="3" height="1" fill="#231f20"/>
    <rect x="173" y="48" width="1" height="1" fill="#231f20"/>
    <rect x="0" y="49" width="1" height="1" fill="#231f20"/>
    <rect x="27" y="49" width="1" height="1" fill="#231f20"/>
    <rect x="31" y="49" width="1" height="1" fill="#231f20"/>
    <rect x="62" y="49" width="1" height="1" fill="#231f20"/>
    <rect x="66" y="49" width="1" height="1" fill="#231f20"/>
    <rect x="96" y="49" width="1" height="1" fill="#231f20"/>
    <rect x="100" y="49" width="1" height="1" fill="#231f20"/>
    <rect x="130" y="49" width="1" height="1" fill="#231f20"/>
    <rect x="134" y="49" width="1" height="1" fill="#231f20"/>
    <rect x="173" y="49" width="1" height="1" fill="#231f20"/>
    <rect x="0" y="50" width="1" height="1" fill="#231f20"/>
    <rect x="26" y="50" width="1" height="1" fill="#231f20"/>
    <rect x="32" y="50" width="1" height="1" fill="#231f20"/>
    <rect x="61" y="50" width="1" height="1" fill="#231f20"/>
    <rect x="66" y="50" width="1" height="1" fill="#231f20"/>
    <rect x="95" y="50" width="1" height="1" fill="#231f20"/>
    <rect x="101" y="50" width="1" height="1" fill="#231f20"/>
    <rect x="130" y="50" width="1" height="1" fill="#231f20"/>
    <rect x="135" y="50" width="1" height="1" fill="#231f20"/>
    <rect x="173" y="50" width="1" height="1" fill="#231f20"/>
    <rect x="0" y="51" width="1" height="1" fill="#231f20"/>
    <rect x="26" y="51" width="1" height="1" fill="#231f20"/>
    <rect x="32" y="51" width="1" height="1" fill="#231f20"/>
    <rect x="61" y="51" width="1" height="1" fill="#231f20"/>
    <rect x="66" y="51" width="1" height="1" fill="#231f20"/>
    <rect x="95" y="51" width="1" height="1" fill="#231f20"/>
    <rect x="101" y="51" width="1" height="1" fill="#231f20"/>
    <rect x="130" y="51" width="1" height="1" fill="#231f20"/>
    <rect x="135" y="51" width="1" height="1" fill="#231f20"/>
    <rect x="173" y="51" width="1" height="1" fill="#231f20"/>
    <rect x="0" y="52" width="1" height="1" fill="#231f20"/>
    <rect x="26" y="52" width="1" height="1" fill="#231f20"/>
    <rect x="32" y="52" width="1" height="1" fill="#231f20"/>
    <rect x="61" y="52" width="1" height="1" fill="#231f20"/>
    <rect x="66" y="52" width="1" height="1" fill="#231f20"/>
    <rect x="95" y="52" width="1" height="1" fill="#231f20"/>
    <rect x="101" y="52" width="1" height="1" fill="#231f20"/>
    <rect x="130" y="52" width="1" height="1" fill="#231f20"/>
    <rect x="135" y="52" width="1" height="1" fill="#231f20"/>
    <rect x="173" y="52" width="1" height="1" fill="#231f20"/>
    <rect x="0" y="53" width="1" height="1" fill="#231f20"/>
    <rect x="27" y="53" width="1" height="1" fill="#231f20"/>
    <rect x="31" y="53" width="1" height="1" fill="#231f20"/>
    <rect x="62" y="53" width="1" height="1" fill="#231f20"/>
    <rect x="66" y="53" width="1" height="1" fill="#231f20"/>
    <rect x="96" y="53" width="1" height="1" fill="#231f20"/>
    <rect x="100" y="53" width="1" height="1" fill="#231f20"/>
    <rect x="130" y="53" width="1" height="1" fill="#231f20"/>
    <rect x="134" y="53" width="1" height="1" fill="#231f20"/>
    <rect x="173" y="53" width="1" height="1" fill="#231f20"/>
    <rect x="0" y="54" width="1" height="1" fill="#231f20"/>
    <rect x="28" y="54" width="3" height="1" fill="#231f20"/>
    <rect x="62" y="54" width="4" height="1" fill="#231f20"/>
    <rect x="97" y="54" width="3" height="1" fill="#231f20"/>
    <rect x="131" y="54" width="3" height="1" fill="#231f20"/>
    <rect x="173" y="54" width="1" height="1" fill="#231f20"/>
    <rect x="0" y="55" width="1" height="1" fill="#231f20"/>
    <rect x="173" y="55" width="1" height="1" fill="#231f20"/>
    <rect x="0" y="56" width="1" height="1" fill="#231f20"/>
    <rect x="102" y="56" width="27" height="1" fill="#231f20"/>
    <rect x="173" y="56" width="1" height="1" fill="#231f20"/>
    <rect x="0" y="57" width="4" height="1" fill="#231f20"/>
    <rect x="94" y="57" width="8" height="1" fill="#231f20"/>
    <rect x="129" y="57" width="11" height="1" fill="#231f20"/>
    <rect x="173" y="57" width="1" height="1" fill="#231f20"/>
    <rect x="0" y="58" width="1" height="1" fill="#231f20"/>
    <rect x="4" y="58" width="5" height="1" fill="#231f20"/>
    <rect x="84" y="58" width="10" height="1" fill="#231f20"/>
    <rect x="99" y="58" width="32" height="1" fill="#231f20"/>
    <rect x="140" y="58" width="8" height="1" fill="#231f20"/>
    <rect x="173" y="58" width="1" height="1" fill="#231f20"/>
    <rect x="0" y="59" width="4" height="1" fill="#231f20"/>
    <rect x="9" y="59" width="10" height="1" fill="#231f20"/>
    <rect x="79" y="59" width="5" height="1" fill="#231f20"/>
    <rect x="91" y="59" width="8" height="1" fill="#231f20"/>
    <rect x="131" y="59" width="11" height="1" fill="#231f20"/>
    <rect x="148" y="59" width="8" height="1" fill="#231f20"/>
    <rect x="173" y="59" width="1" height="1" fill="#231f20"/>
    <rect x="0" y="60" width="1" height="1" fill="#231f20"/>
    <rect x="4" y="60" width="5" height="1" fill="#231f20"/>
    <rect x="19" y="60" width="5" height="1" fill="#231f20"/>
    <rect x="72" y="60" width="7" height="1" fill="#231f20"/>
    <rect x="84" y="60" width="7" height="1" fill="#231f20"/>
    <rect x="142" y="60" width="5" height="1" fill="#231f20"/>
    <rect x="156" y="60" width="4" height="1" fill="#231f20"/>
    <rect x="173" y="60" width="1" height="1" fill="#231f20"/>
    <rect x="0" y="61" width="1" height="1" fill="#231f20"/>
    <rect x="9" y="61" width="7" height="1" fill="#231f20"/>
    <rect x="24" y="61" width="11" height="1" fill="#231f20"/>
    <rect x="67" y="61" width="5" height="1" fill="#231f20"/>
    <rect x="79" y="61" width="5" height="1" fill="#231f20"/>
    <rect x="147" y="61" width="9" height="1" fill="#231f20"/>
    <rect x="160" y="61" width="5" height="1" fill="#231f20"/>
    <rect x="173" y="61" width="1" height="1" fill="#231f20"/>
    <rect x="0" y="62" width="1" height="1" fill="#231f20"/>
    <rect x="16" y="62" width="8" height="1" fill="#231f20"/>
    <rect x="35" y="62" width="32" height="1" fill="#231f20"/>
    <rect x="72" y="62" width="7" height="1" fill="#231f20"/>
    <rect x="156" y="62" width="4" height="1" fill="#231f20"/>
    <rect x="165" y="62" width="6" height="1" fill="#231f20"/>
    <rect x="173" y="62" width="1" height="1" fill="#231f20"/>
    <rect x="0" y="63" width="1" height="1" fill="#231f20"/>
    <rect x="24" y="63" width="11" height="1" fill="#231f20"/>
    <rect x="61" y="63" width="11" height="1" fill="#231f20"/>
    <rect x="160" y="63" width="5" height="1" fill="#231f20"/>
    <rect x="171" y="63" width="3" height="1" fill="#231f20"/>
    <rect x="0" y="64" width="1" height="1" fill="#231f20"/>
    <rect x="35" y="64" width="26" height="1" fill="#231f20"/>
    <rect x="165" y="64" width="5" height="1" fill="#231f20"/>
    <rect x="173" y="64" width="1" height="1" fill="#231f20"/>
    <rect x="0" y="65" width="1" height="1" fill="#231f20"/>
    <rect x="170" y="65" width="4" height="1" fill="#231f20"/>
    <rect x="0" y="66" width="1" height="1" fill="#231f20"/>
    <rect x="173" y="66" width="1" height="1" fill="#231f20"/>
    <rect x="0" y="67" width="1" height="1" fill="#231f20"/>
    <rect x="173" y="67" width="1" height="1" fill="#231f20"/>
    <rect x="0" y="68" width="174" height="1" fill="#231f20"/>
  </g>
</svg>