<?xml version="1.0" encoding="UTF-8"?>
<svg xmlns="http://www.w3.org/2000/svg" viewBox="0 0 152 61" width="152" height="61">
  <!-- Auto-converted from legend-2263.png -->
  <rect x="0" y="0" width="152" height="61" fill="none"/>
  <g fill="#231f20" stroke="none">
    <rect x="0" y="0" width="152" height="1" fill="#231f20"/>
    <rect x="0" y="1" width="1" height="1" fill="#231f20"/>
    <rect x="151" y="1" width="1" height="1" fill="#231f20"/>
    <rect x="0" y="2" width="1" height="1" fill="#231f20"/>
    <rect x="151" y="2" width="1" height="1" fill="#231f20"/>
    <rect x="0" y="3" width="1" height="1" fill="#231f20"/>
    <rect x="151" y="3" width="1" height="1" fill="#231f20"/>
    <rect x="0" y="4" width="1" height="1" fill="#231f20"/>
    <rect x="151" y="4" width="1" height="1" fill="#231f20"/>
    <rect x="0" y="5" width="1" height="1" fill="#231f20"/>
    <rect x="65" y="5" width="1" height="1" fill="#231f20"/>
    <rect x="75" y="5" width="1" height="1" fill="#231f20"/>
    <rect x="105" y="5" width="1" height="1" fill="#231f20"/>
    <rect x="115" y="5" width="1" height="1" fill="#231f20"/>
    <rect x="151" y="5" width="1" height="1" fill="#231f20"/>
    <rect x="0" y="6" width="1" height="1" fill="#231f20"/>
    <rect x="66" y="6" width="1" height="1" fill="#231f20"/>
    <rect x="75" y="6" width="1" height="1" fill="#231f20"/>
    <rect x="106" y="6" width="1" height="1" fill="#231f20"/>
    <rect x="115" y="6" width="1" height="1" fill="#231f20"/>
    <rect x="151" y="6" width="1" height="1" fill="#231f20"/>
    <rect x="0" y="7" width="1" height="1" fill="#231f20"/>
    <rect x="66" y="7" width="1" height="1" fill="#231f20"/>
    <rect x="74" y="7" width="1" height="1" fill="#231f20"/>
    <rect x="106" y="7" width="1" height="1" fill="#231f20"/>
    <rect x="114" y="7" width="1" height="1" fill="#231f20"/>
    <rect x="151" y="7" width="1" height="1" fill="#231f20"/>
    <rect x="0" y="8" width="1" height="1" fill="#231f20"/>
    <rect x="67" y="8" width="1" height="1" fill="#231f20"/>
    <rect x="74" y="8" width="1" height="1" fill="#231f20"/>
    <rect x="107" y="8" width="1" height="1" fill="#231f20"/>
    <rect x="114" y="8" width="1" height="1" fill="#231f20"/>
    <rect x="151" y="8" width="1" height="1" fill="#231f20"/>
    <rect x="0" y="9" width="1" height="1" fill="#231f20"/>
    <rect x="25" y="9" width="11" height="1" fill="#231f20"/>
    <rect x="67" y="9" width="1" height="1" fill="#231f20"/>
    <rect x="73" y="9" width="1" height="1" fill="#231f20"/>
    <rect x="107" y="9" width="1" height="1" fill="#231f20"/>
    <rect x="113" y="9" width="1" height="1" fill="#231f20"/>
    <rect x="151" y="9" width="1" height="1" fill="#231f20"/>
    <rect x="0" y="10" width="1" height="1" fill="#231f20"/>
    <rect x="26" y="10" width="2" height="1" fill="#231f20"/>
    <rect x="68" y="10" width="1" height="1" fill="#231f20"/>
    <rect x="73" y="10" width="1" height="1" fill="#231f20"/>
    <rect x="108" y="10" width="1" height="1" fill="#231f20"/>
    <rect x="113" y="10" width="1" height="1" fill="#231f20"/>
    <rect x="151" y="10" width="1" height="1" fill="#231f20"/>
    <rect x="0" y="11" width="1" height="1" fill="#231f20"/>
    <rect x="28" y="11" width="1" height="1" fill="#231f20"/>
    <rect x="68" y="11" width="1" height="1" fill="#231f20"/>
    <rect x="72" y="11" width="1" height="1" fill="#231f20"/>
    <rect x="108" y="11" width="1" height="1" fill="#231f20"/>
    <rect x="112" y="11" width="1" height="1" fill="#231f20"/>
    <rect x="151" y="11" width="1" height="1" fill="#231f20"/>
    <rect x="0" y="12" width="1" height="1" fill="#231f20"/>
    <rect x="29" y="12" width="1" height="1" fill="#231f20"/>
    <rect x="69" y="12" width="1" height="1" fill="#231f20"/>
    <rect x="72" y="12" width="1" height="1" fill="#231f20"/>
    <rect x="109" y="12" width="1" height="1" fill="#231f20"/>
    <rect x="112" y="12" width="1" height="1" fill="#231f20"/>
    <rect x="151" y="12" width="1" height="1" fill="#231f20"/>
    <rect x="0" y="13" width="1" height="1" fill="#231f20"/>
    <rect x="69" y="13" width="1" height="1" fill="#231f20"/>
    <rect x="71" y="13" width="1" height="1" fill="#231f20"/>
    <rect x="109" y="13" width="1" height="1" fill="#231f20"/>
    <rect x="111" y="13" width="1" height="1" fill="#231f20"/>
    <rect x="151" y="13" width="1" height="1" fill="#231f20"/>
    <rect x="0" y="14" width="1" height="1" fill="#231f20"/>
    <rect x="70" y="14" width="2" height="1" fill="#231f20"/>
    <rect x="110" y="14" width="2" height="1" fill="#231f20"/>
    <rect x="151" y="14" width="1" height="1" fill="#231f20"/>
    <rect x="0" y="15" width="1" height="1" fill="#231f20"/>
    <rect x="70" y="15" width="1" height="1" fill="#231f20"/>
    <rect x="110" y="15" width="1" height="1" fill="#231f20"/>
    <rect x="151" y="15" width="1" height="1" fill="#231f20"/>
    <rect x="0" y="16" width="1" height="1" fill="#231f20"/>
    <rect x="151" y="16" width="1" height="1" fill="#231f20"/>
    <rect x="0" y="17" width="1" height="1" fill="#231f20"/>
    <rect x="151" y="17" width="1" height="1" fill="#231f20"/>
    <rect x="0" y="18" width="1" height="1" fill="#231f20"/>
    <rect x="151" y="18" width="1" height="1" fill="#231f20"/>
    <rect x="0" y="19" width="1" height="1" fill="#231f20"/>
    <rect x="151" y="19" width="1" height="1" fill="#231f20"/>
    <rect x="0" y="20" width="152" height="1" fill="#231f20"/>
    <rect x="0" y="21" width="1" height="1" fill="#231f20"/>
    <rect x="151" y="21" width="1" height="1" fill="#231f20"/>
    <rect x="0" y="22" width="1" height="1" fill="#231f20"/>
    <rect x="151" y="22" width="1" height="1" fill="#231f20"/>
    <rect x="0" y="23" width="1" height="1" fill="#231f20"/>
    <rect x="151" y="23" width="1" height="1" fill="#231f20"/>
    <rect x="0" y="24" width="1" height="1" fill="#231f20"/>
    <rect x="151" y="24" width="1" height="1" fill="#231f20"/>
    <rect x="0" y="25" width="1" height="1" fill="#231f20"/>
    <rect x="36" y="25" width="1" height="1" fill="#231f20"/>
    <rect x="46" y="25" width="1" height="1" fill="#231f20"/>
    <rect x="76" y="25" width="1" height="1" fill="#231f20"/>
    <rect x="86" y="25" width="1" height="1" fill="#231f20"/>
    <rect x="151" y="25" width="1" height="1" fill="#231f20"/>
    <rect x="0" y="26" width="1" height="1" fill="#231f20"/>
    <rect x="37" y="26" width="1" height="1" fill="#231f20"/>
    <rect x="46" y="26" width="1" height="1" fill="#231f20"/>
    <rect x="77" y="26" width="1" height="1" fill="#231f20"/>
    <rect x="86" y="26" width="1" height="1" fill="#231f20"/>
    <rect x="151" y="26" width="1" height="1" fill="#231f20"/>
    <rect x="0" y="27" width="1" height="1" fill="#231f20"/>
    <rect x="37" y="27" width="1" height="1" fill="#231f20"/>
    <rect x="45" y="27" width="1" height="1" fill="#231f20"/>
    <rect x="77" y="27" width="1" height="1" fill="#231f20"/>
    <rect x="85" y="27" width="1" height="1" fill="#231f20"/>
    <rect x="151" y="27" width="1" height="1" fill="#231f20"/>
    <rect x="0" y="28" width="1" height="1" fill="#231f20"/>
    <rect x="38" y="28" width="1" height="1" fill="#231f20"/>
    <rect x="45" y="28" width="1" height="1" fill="#231f20"/>
    <rect x="78" y="28" width="1" height="1" fill="#231f20"/>
    <rect x="85" y="28" width="1" height="1" fill="#231f20"/>
    <rect x="151" y="28" width="1" height="1" fill="#231f20"/>
    <rect x="0" y="29" width="1" height="1" fill="#231f20"/>
    <rect x="38" y="29" width="1" height="1" fill="#231f20"/>
    <rect x="44" y="29" width="1" height="1" fill="#231f20"/>
    <rect x="78" y="29" width="1" height="1" fill="#231f20"/>
    <rect x="84" y="29" width="1" height="1" fill="#231f20"/>
    <rect x="115" y="29" width="11" height="1" fill="#231f20"/>
    <rect x="151" y="29" width="1" height="1" fill="#231f20"/>
    <rect x="0" y="30" width="1" height="1" fill="#231f20"/>
    <rect x="39" y="30" width="1" height="1" fill="#231f20"/>
    <rect x="44" y="30" width="1" height="1" fill="#231f20"/>
    <rect x="79" y="30" width="1" height="1" fill="#231f20"/>
    <rect x="84" y="30" width="1" height="1" fill="#231f20"/>
    <rect x="116" y="30" width="2" height="1" fill="#231f20"/>
    <rect x="151" y="30" width="1" height="1" fill="#231f20"/>
    <rect x="0" y="31" width="1" height="1" fill="#231f20"/>
    <rect x="39" y="31" width="1" height="1" fill="#231f20"/>
    <rect x="43" y="31" width="1" height="1" fill="#231f20"/>
    <rect x="79" y="31" width="1" height="1" fill="#231f20"/>
    <rect x="83" y="31" width="1" height="1" fill="#231f20"/>
    <rect x="118" y="31" width="1" height="1" fill="#231f20"/>
    <rect x="151" y="31" width="1" height="1" fill="#231f20"/>
    <rect x="0" y="32" width="1" height="1" fill="#231f20"/>
    <rect x="40" y="32" width="1" height="1" fill="#231f20"/>
    <rect x="43" y="32" width="1" height="1" fill="#231f20"/>
    <rect x="80" y="32" width="1" height="1" fill="#231f20"/>
    <rect x="83" y="32" width="1" height="1" fill="#231f20"/>
    <rect x="119" y="32" width="1" height="1" fill="#231f20"/>
    <rect x="151" y="32" width="1" height="1" fill="#231f20"/>
    <rect x="0" y="33" width="1" height="1" fill="#231f20"/>
    <rect x="40" y="33" width="1" height="1" fill="#231f20"/>
    <rect x="42" y="33" width="1" height="1" fill="#231f20"/>
    <rect x="80" y="33" width="1" height="1" fill="#231f20"/>
    <rect x="82" y="33" width="1" height="1" fill="#231f20"/>
    <rect x="151" y="33" width="1" height="1" fill="#231f20"/>
    <rect x="0" y="34" width="1" height="1" fill="#231f20"/>
    <rect x="41" y="34" width="2" height="1" fill="#231f20"/>
    <rect x="81" y="34" width="2" height="1" fill="#231f20"/>
    <rect x="151" y="34" width="1" height="1" fill="#231f20"/>
    <rect x="0" y="35" width="1" height="1" fill="#231f20"/>
    <rect x="41" y="35" width="1" height="1" fill="#231f20"/>
    <rect x="81" y="35" width="1" height="1" fill="#231f20"/>
    <rect x="151" y="35" width="1" height="1" fill="#231f20"/>
    <rect x="0" y="36" width="1" height="1" fill="#231f20"/>
    <rect x="151" y="36" width="1" height="1" fill="#231f20"/>
    <rect x="0" y="37" width="1" height="1" fill="#231f20"/>
    <rect x="151" y="37" width="1" height="1" fill="#231f20"/>
    <rect x="0" y="38" width="1" height="1" fill="#231f20"/>
    <rect x="151" y="38" width="1" height="1" fill="#231f20"/>
    <rect x="0" y="39" width="1" height="1" fill="#231f20"/>
    <rect x="151" y="39" width="1" height="1" fill="#231f20"/>
    <rect x="0" y="40" width="152" height="1" fill="#231f20"/>
    <rect x="0" y="41" width="1" height="1" fill="#231f20"/>
    <rect x="151" y="41" width="1" height="1" fill="#231f20"/>
    <rect x="0" y="42" width="1" height="1" fill="#231f20"/>
    <rect x="151" y="42" width="1" height="1" fill="#231f20"/>
    <rect x="0" y="43" width="1" height="1" fill="#231f20"/>
    <rect x="151" y="43" width="1" height="1" fill="#231f20"/>
    <rect x="0" y="44" width="1" height="1" fill="#231f20"/>
    <rect x="151" y="44" width="1" height="1" fill="#231f20"/>
    <rect x="0" y="45" width="1" height="1" fill="#231f20"/>
    <rect x="65" y="45" width="1" height="1" fill="#231f20"/>
    <rect x="75" y="45" width="1" height="1" fill="#231f20"/>
    <rect x="105" y="45" width="1" height="1" fill="#231f20"/>
    <rect x="115" y="45" width="1" height="1" fill="#231f20"/>
    <rect x="151" y="45" width="1" height="1" fill="#231f20"/>
    <rect x="0" y="46" width="1" height="1" fill="#231f20"/>
    <rect x="66" y="46" width="1" height="1" fill="#231f20"/>
    <rect x="75" y="46" width="1" height="1" fill="#231f20"/>
    <rect x="106" y="46" width="1" height="1" fill="#231f20"/>
    <rect x="115" y="46" width="1" height="1" fill="#231f20"/>
    <rect x="151" y="46" width="1" height="1" fill="#231f20"/>
    <rect x="0" y="47" width="1" height="1" fill="#231f20"/>
    <rect x="66" y="47" width="1" height="1" fill="#231f20"/>
    <rect x="74" y="47" width="1" height="1" fill="#231f20"/>
    <rect x="106" y="47" width="1" height="1" fill="#231f20"/>
    <rect x="114" y="47" width="1" height="1" fill="#231f20"/>
    <rect x="151" y="47" width="1" height="1" fill="#231f20"/>
    <rect x="0" y="48" width="1" height="1" fill="#231f20"/>
    <rect x="67" y="48" width="1" height="1" fill="#231f20"/>
    <rect x="74" y="48" width="1" height="1" fill="#231f20"/>
    <rect x="107" y="48" width="1" height="1" fill="#231f20"/>
    <rect x="114" y="48" width="1" height="1" fill="#231f20"/>
    <rect x="151" y="48" width="1" height="1" fill="#231f20"/>
    <rect x="0" y="49" width="1" height="1" fill="#231f20"/>
    <rect x="25" y="49" width="11" height="1" fill="#231f20"/>
    <rect x="67" y="49" width="1" height="1" fill="#231f20"/>
    <rect x="73" y="49" width="1" height="1" fill="#231f20"/>
    <rect x="107" y="49" width="1" height="1" fill="#231f20"/>
    <rect x="113" y="49" width="1" height="1" fill="#231f20"/>
    <rect x="151" y="49" width="1" height="1" fill="#231f20"/>
    <rect x="0" y="50" width="1" height="1" fill="#231f20"/>
    <rect x="26" y="50" width="2" height="1" fill="#231f20"/>
    <rect x="68" y="50" width="1" height="1" fill="#231f20"/>
    <rect x="73" y="50" width="1" height="1" fill="#231f20"/>
    <rect x="108" y="50" width="1" height="1" fill="#231f20"/>
    <rect x="113" y="50" width="1" height="1" fill="#231f20"/>
    <rect x="151" y="50" width="1" height="1" fill="#231f20"/>
    <rect x="0" y="51" width="1" height="1" fill="#231f20"/>
    <rect x="28" y="51" width="1" height="1" fill="#231f20"/>
    <rect x="68" y="51" width="1" height="1" fill="#231f20"/>
    <rect x="72" y="51" width="1" height="1" fill="#231f20"/>
    <rect x="108" y="51" width="1" height="1" fill="#231f20"/>
    <rect x="112" y="51" width="1" height="1" fill="#231f20"/>
    <rect x="151" y="51" width="1" height="1" fill="#231f20"/>
    <rect x="0" y="52" width="1" height="1" fill="#231f20"/>
    <rect x="29" y="52" width="1" height="1" fill="#231f20"/>
    <rect x="69" y="52" width="1" height="1" fill="#231f20"/>
    <rect x="72" y="52" width="1" height="1" fill="#231f20"/>
    <rect x="109" y="52" width="1" height="1" fill="#231f20"/>
    <rect x="112" y="52" width="1" height="1" fill="#231f20"/>
    <rect x="151" y="52" width="1" height="1" fill="#231f20"/>
    <rect x="0" y="53" width="1" height="1" fill="#231f20"/>
    <rect x="69" y="53" width="1" height="1" fill="#231f20"/>
    <rect x="71" y="53" width="1" height="1" fill="#231f20"/>
    <rect x="109" y="53" width="1" height="1" fill="#231f20"/>
    <rect x="111" y="53" width="1" height="1" fill="#231f20"/>
    <rect x="151" y="53" width="1" height="1" fill="#231f20"/>
    <rect x="0" y="54" width="1" height="1" fill="#231f20"/>
    <rect x="70" y="54" width="2" height="1" fill="#231f20"/>
    <rect x="110" y="54" width="2" height="1" fill="#231f20"/>
    <rect x="151" y="54" width="1" height="1" fill="#231f20"/>
    <rect x="0" y="55" width="1" height="1" fill="#231f20"/>
    <rect x="70" y="55" width="1" height="1" fill="#231f20"/>
    <rect x="110" y="55" width="1" height="1" fill="#231f20"/>
    <rect x="151" y="55" width="1" height="1" fill="#231f20"/>
    <rect x="0" y="56" width="1" height="1" fill="#231f20"/>
    <rect x="151" y="56" width="1" height="1" fill="#231f20"/>
    <rect x="0" y="57" width="1" height="1" fill="#231f20"/>
    <rect x="151" y="57" width="1" height="1" fill="#231f20"/>
    <rect x="0" y="58" width="1" height="1" fill="#231f20"/>
    <rect x="151" y="58" width="1" height="1" fill="#231f20"/>
    <rect x="0" y="59" width="1" height="1" fill="#231f20"/>
    <rect x="151" y="59" width="1" height="1" fill="#231f20"/>
    <rect x="0" y="60" width="152" height="1" fill="#231f20"/>
  </g>
</svg>