<?xml version="1.0" encoding="UTF-8"?>
<svg xmlns="http://www.w3.org/2000/svg" viewBox="0 0 154 61" width="154" height="61">
  <!-- Auto-converted from legend-2326.png -->
  <rect x="0" y="0" width="154" height="61" fill="none"/>
  <g fill="#231f20" stroke="none">
    <rect x="0" y="0" width="154" height="1" fill="#231f20"/>
    <rect x="0" y="1" width="1" height="1" fill="#231f20"/>
    <rect x="153" y="1" width="1" height="1" fill="#231f20"/>
    <rect x="0" y="2" width="1" height="1" fill="#231f20"/>
    <rect x="153" y="2" width="1" height="1" fill="#231f20"/>
    <rect x="0" y="3" width="1" height="1" fill="#231f20"/>
    <rect x="87" y="3" width="1" height="1" fill="#231f20"/>
    <rect x="117" y="3" width="1" height="1" fill="#231f20"/>
    <rect x="153" y="3" width="1" height="1" fill="#231f20"/>
    <rect x="0" y="4" width="1" height="1" fill="#231f20"/>
    <rect x="86" y="4" width="1" height="1" fill="#231f20"/>
    <rect x="88" y="4" width="1" height="1" fill="#231f20"/>
    <rect x="116" y="4" width="1" height="1" fill="#231f20"/>
    <rect x="118" y="4" width="1" height="1" fill="#231f20"/>
    <rect x="153" y="4" width="1" height="1" fill="#231f20"/>
    <rect x="0" y="5" width="1" height="1" fill="#231f20"/>
    <rect x="51" y="5" width="1" height="1" fill="#231f20"/>
    <rect x="61" y="5" width="1" height="1" fill="#231f20"/>
    <rect x="86" y="5" width="1" height="1" fill="#231f20"/>
    <rect x="88" y="5" width="1" height="1" fill="#231f20"/>
    <rect x="116" y="5" width="1" height="1" fill="#231f20"/>
    <rect x="118" y="5" width="1" height="1" fill="#231f20"/>
    <rect x="153" y="5" width="1" height="1" fill="#231f20"/>
    <rect x="0" y="6" width="1" height="1" fill="#231f20"/>
    <rect x="52" y="6" width="1" height="1" fill="#231f20"/>
    <rect x="61" y="6" width="1" height="1" fill="#231f20"/>
    <rect x="85" y="6" width="1" height="1" fill="#231f20"/>
    <rect x="89" y="6" width="1" height="1" fill="#231f20"/>
    <rect x="115" y="6" width="1" height="1" fill="#231f20"/>
    <rect x="119" y="6" width="1" height="1" fill="#231f20"/>
    <rect x="153" y="6" width="1" height="1" fill="#231f20"/>
    <rect x="0" y="7" width="1" height="1" fill="#231f20"/>
    <rect x="24" y="7" width="4" height="1" fill="#231f20"/>
    <rect x="52" y="7" width="1" height="1" fill="#231f20"/>
    <rect x="60" y="7" width="1" height="1" fill="#231f20"/>
    <rect x="85" y="7" width="1" height="1" fill="#231f20"/>
    <rect x="89" y="7" width="1" height="1" fill="#231f20"/>
    <rect x="115" y="7" width="1" height="1" fill="#231f20"/>
    <rect x="119" y="7" width="1" height="1" fill="#231f20"/>
    <rect x="153" y="7" width="1" height="1" fill="#231f20"/>
    <rect x="0" y="8" width="1" height="1" fill="#231f20"/>
    <rect x="23" y="8" width="1" height="1" fill="#231f20"/>
    <rect x="27" y="8" width="1" height="1" fill="#231f20"/>
    <rect x="53" y="8" width="1" height="1" fill="#231f20"/>
    <rect x="60" y="8" width="1" height="1" fill="#231f20"/>
    <rect x="84" y="8" width="1" height="1" fill="#231f20"/>
    <rect x="90" y="8" width="1" height="1" fill="#231f20"/>
    <rect x="114" y="8" width="1" height="1" fill="#231f20"/>
    <rect x="120" y="8" width="1" height="1" fill="#231f20"/>
    <rect x="153" y="8" width="1" height="1" fill="#231f20"/>
    <rect x="0" y="9" width="1" height="1" fill="#231f20"/>
    <rect x="23" y="9" width="1" height="1" fill="#231f20"/>
    <rect x="53" y="9" width="1" height="1" fill="#231f20"/>
    <rect x="59" y="9" width="1" height="1" fill="#231f20"/>
    <rect x="84" y="9" width="1" height="1" fill="#231f20"/>
    <rect x="90" y="9" width="1" height="1" fill="#231f20"/>
    <rect x="114" y="9" width="1" height="1" fill="#231f20"/>
    <rect x="120" y="9" width="1" height="1" fill="#231f20"/>
    <rect x="153" y="9" width="1" height="1" fill="#231f20"/>
    <rect x="0" y="10" width="1" height="1" fill="#231f20"/>
    <rect x="24" y="10" width="1" height="1" fill="#231f20"/>
    <rect x="54" y="10" width="1" height="1" fill="#231f20"/>
    <rect x="59" y="10" width="1" height="1" fill="#231f20"/>
    <rect x="83" y="10" width="1" height="1" fill="#231f20"/>
    <rect x="91" y="10" width="1" height="1" fill="#231f20"/>
    <rect x="113" y="10" width="1" height="1" fill="#231f20"/>
    <rect x="121" y="10" width="1" height="1" fill="#231f20"/>
    <rect x="153" y="10" width="1" height="1" fill="#231f20"/>
    <rect x="0" y="11" width="1" height="1" fill="#231f20"/>
    <rect x="25" y="11" width="2" height="1" fill="#231f20"/>
    <rect x="54" y="11" width="1" height="1" fill="#231f20"/>
    <rect x="58" y="11" width="1" height="1" fill="#231f20"/>
    <rect x="83" y="11" width="1" height="1" fill="#231f20"/>
    <rect x="91" y="11" width="1" height="1" fill="#231f20"/>
    <rect x="113" y="11" width="1" height="1" fill="#231f20"/>
    <rect x="121" y="11" width="1" height="1" fill="#231f20"/>
    <rect x="153" y="11" width="1" height="1" fill="#231f20"/>
    <rect x="0" y="12" width="1" height="1" fill="#231f20"/>
    <rect x="27" y="12" width="1" height="1" fill="#231f20"/>
    <rect x="55" y="12" width="1" height="1" fill="#231f20"/>
    <rect x="58" y="12" width="1" height="1" fill="#231f20"/>
    <rect x="82" y="12" width="11" height="1" fill="#231f20"/>
    <rect x="112" y="12" width="11" height="1" fill="#231f20"/>
    <rect x="153" y="12" width="1" height="1" fill="#231f20"/>
    <rect x="0" y="13" width="1" height="1" fill="#231f20"/>
    <rect x="27" y="13" width="1" height="1" fill="#231f20"/>
    <rect x="55" y="13" width="1" height="1" fill="#231f20"/>
    <rect x="57" y="13" width="1" height="1" fill="#231f20"/>
    <rect x="153" y="13" width="1" height="1" fill="#231f20"/>
    <rect x="0" y="14" width="1" height="1" fill="#231f20"/>
    <rect x="23" y="14" width="1" height="1" fill="#231f20"/>
    <rect x="27" y="14" width="1" height="1" fill="#231f20"/>
    <rect x="56" y="14" width="2" height="1" fill="#231f20"/>
    <rect x="153" y="14" width="1" height="1" fill="#231f20"/>
    <rect x="0" y="15" width="1" height="1" fill="#231f20"/>
    <rect x="23" y="15" width="4" height="1" fill="#231f20"/>
    <rect x="56" y="15" width="1" height="1" fill="#231f20"/>
    <rect x="153" y="15" width="1" height="1" fill="#231f20"/>
    <rect x="0" y="16" width="1" height="1" fill="#231f20"/>
    <rect x="153" y="16" width="1" height="1" fill="#231f20"/>
    <rect x="0" y="17" width="1" height="1" fill="#231f20"/>
    <rect x="153" y="17" width="1" height="1" fill="#231f20"/>
    <rect x="0" y="18" width="1" height="1" fill="#231f20"/>
    <rect x="153" y="18" width="1" height="1" fill="#231f20"/>
    <rect x="0" y="19" width="1" height="1" fill="#231f20"/>
    <rect x="153" y="19" width="1" height="1" fill="#231f20"/>
    <rect x="0" y="20" width="154" height="1" fill="#231f20"/>
    <rect x="0" y="21" width="1" height="1" fill="#231f20"/>
    <rect x="153" y="21" width="1" height="1" fill="#231f20"/>
    <rect x="0" y="22" width="1" height="1" fill="#231f20"/>
    <rect x="153" y="22" width="1" height="1" fill="#231f20"/>
    <rect x="0" y="23" width="1" height="1" fill="#231f20"/>
    <rect x="36" y="23" width="1" height="1" fill="#231f20"/>
    <rect x="66" y="23" width="1" height="1" fill="#231f20"/>
    <rect x="153" y="23" width="1" height="1" fill="#231f20"/>
    <rect x="0" y="24" width="1" height="1" fill="#231f20"/>
    <rect x="35" y="24" width="1" height="1" fill="#231f20"/>
    <rect x="37" y="24" width="1" height="1" fill="#231f20"/>
    <rect x="65" y="24" width="1" height="1" fill="#231f20"/>
    <rect x="67" y="24" width="1" height="1" fill="#231f20"/>
    <rect x="153" y="24" width="1" height="1" fill="#231f20"/>
    <rect x="0" y="25" width="1" height="1" fill="#231f20"/>
    <rect x="35" y="25" width="1" height="1" fill="#231f20"/>
    <rect x="37" y="25" width="1" height="1" fill="#231f20"/>
    <rect x="65" y="25" width="1" height="1" fill="#231f20"/>
    <rect x="67" y="25" width="1" height="1" fill="#231f20"/>
    <rect x="92" y="25" width="1" height="1" fill="#231f20"/>
    <rect x="102" y="25" width="1" height="1" fill="#231f20"/>
    <rect x="153" y="25" width="1" height="1" fill="#231f20"/>
    <rect x="0" y="26" width="1" height="1" fill="#231f20"/>
    <rect x="34" y="26" width="1" height="1" fill="#231f20"/>
    <rect x="38" y="26" width="1" height="1" fill="#231f20"/>
    <rect x="64" y="26" width="1" height="1" fill="#231f20"/>
    <rect x="68" y="26" width="1" height="1" fill="#231f20"/>
    <rect x="93" y="26" width="1" height="1" fill="#231f20"/>
    <rect x="102" y="26" width="1" height="1" fill="#231f20"/>
    <rect x="153" y="26" width="1" height="1" fill="#231f20"/>
    <rect x="0" y="27" width="1" height="1" fill="#231f20"/>
    <rect x="34" y="27" width="1" height="1" fill="#231f20"/>
    <rect x="38" y="27" width="1" height="1" fill="#231f20"/>
    <rect x="64" y="27" width="1" height="1" fill="#231f20"/>
    <rect x="68" y="27" width="1" height="1" fill="#231f20"/>
    <rect x="93" y="27" width="1" height="1" fill="#231f20"/>
    <rect x="101" y="27" width="1" height="1" fill="#231f20"/>
    <rect x="126" y="27" width="4" height="1" fill="#231f20"/>
    <rect x="153" y="27" width="1" height="1" fill="#231f20"/>
    <rect x="0" y="28" width="1" height="1" fill="#231f20"/>
    <rect x="33" y="28" width="1" height="1" fill="#231f20"/>
    <rect x="39" y="28" width="1" height="1" fill="#231f20"/>
    <rect x="63" y="28" width="1" height="1" fill="#231f20"/>
    <rect x="69" y="28" width="1" height="1" fill="#231f20"/>
    <rect x="94" y="28" width="1" height="1" fill="#231f20"/>
    <rect x="101" y="28" width="1" height="1" fill="#231f20"/>
    <rect x="125" y="28" width="1" height="1" fill="#231f20"/>
    <rect x="129" y="28" width="1" height="1" fill="#231f20"/>
    <rect x="153" y="28" width="1" height="1" fill="#231f20"/>
    <rect x="0" y="29" width="1" height="1" fill="#231f20"/>
    <rect x="33" y="29" width="1" height="1" fill="#231f20"/>
    <rect x="39" y="29" width="1" height="1" fill="#231f20"/>
    <rect x="63" y="29" width="1" height="1" fill="#231f20"/>
    <rect x="69" y="29" width="1" height="1" fill="#231f20"/>
    <rect x="94" y="29" width="1" height="1" fill="#231f20"/>
    <rect x="100" y="29" width="1" height="1" fill="#231f20"/>
    <rect x="125" y="29" width="1" height="1" fill="#231f20"/>
    <rect x="153" y="29" width="1" height="1" fill="#231f20"/>
    <rect x="0" y="30" width="1" height="1" fill="#231f20"/>
    <rect x="32" y="30" width="1" height="1" fill="#231f20"/>
    <rect x="40" y="30" width="1" height="1" fill="#231f20"/>
    <rect x="62" y="30" width="1" height="1" fill="#231f20"/>
    <rect x="70" y="30" width="1" height="1" fill="#231f20"/>
    <rect x="95" y="30" width="1" height="1" fill="#231f20"/>
    <rect x="100" y="30" width="1" height="1" fill="#231f20"/>
    <rect x="126" y="30" width="1" height="1" fill="#231f20"/>
    <rect x="153" y="30" width="1" height="1" fill="#231f20"/>
    <rect x="0" y="31" width="1" height="1" fill="#231f20"/>
    <rect x="32" y="31" width="1" height="1" fill="#231f20"/>
    <rect x="40" y="31" width="1" height="1" fill="#231f20"/>
    <rect x="62" y="31" width="1" height="1" fill="#231f20"/>
    <rect x="70" y="31" width="1" height="1" fill="#231f20"/>
    <rect x="95" y="31" width="1" height="1" fill="#231f20"/>
    <rect x="99" y="31" width="1" height="1" fill="#231f20"/>
    <rect x="127" y="31" width="2" height="1" fill="#231f20"/>
    <rect x="153" y="31" width="1" height="1" fill="#231f20"/>
    <rect x="0" y="32" width="1" height="1" fill="#231f20"/>
    <rect x="31" y="32" width="11" height="1" fill="#231f20"/>
    <rect x="61" y="32" width="11" height="1" fill="#231f20"/>
    <rect x="96" y="32" width="1" height="1" fill="#231f20"/>
    <rect x="99" y="32" width="1" height="1" fill="#231f20"/>
    <rect x="129" y="32" width="1" height="1" fill="#231f20"/>
    <rect x="153" y="32" width="1" height="1" fill="#231f20"/>
    <rect x="0" y="33" width="1" height="1" fill="#231f20"/>
    <rect x="96" y="33" width="1" height="1" fill="#231f20"/>
    <rect x="98" y="33" width="1" height="1" fill="#231f20"/>
    <rect x="129" y="33" width="1" height="1" fill="#231f20"/>
    <rect x="153" y="33" width="1" height="1" fill="#231f20"/>
    <rect x="0" y="34" width="1" height="1" fill="#231f20"/>
    <rect x="97" y="34" width="2" height="1" fill="#231f20"/>
    <rect x="125" y="34" width="1" height="1" fill="#231f20"/>
    <rect x="129" y="34" width="1" height="1" fill="#231f20"/>
    <rect x="153" y="34" width="1" height="1" fill="#231f20"/>
    <rect x="0" y="35" width="1" height="1" fill="#231f20"/>
    <rect x="97" y="35" width="1" height="1" fill="#231f20"/>
    <rect x="125" y="35" width="4" height="1" fill="#231f20"/>
    <rect x="153" y="35" width="1" height="1" fill="#231f20"/>
    <rect x="0" y="36" width="1" height="1" fill="#231f20"/>
    <rect x="153" y="36" width="1" height="1" fill="#231f20"/>
    <rect x="0" y="37" width="1" height="1" fill="#231f20"/>
    <rect x="153" y="37" width="1" height="1" fill="#231f20"/>
    <rect x="0" y="38" width="1" height="1" fill="#231f20"/>
    <rect x="153" y="38" width="1" height="1" fill="#231f20"/>
    <rect x="0" y="39" width="1" height="1" fill="#231f20"/>
    <rect x="153" y="39" width="1" height="1" fill="#231f20"/>
    <rect x="0" y="40" width="154" height="1" fill="#231f20"/>
    <rect x="0" y="41" width="1" height="1" fill="#231f20"/>
    <rect x="153" y="41" width="1" height="1" fill="#231f20"/>
    <rect x="0" y="42" width="1" height="1" fill="#231f20"/>
    <rect x="153" y="42" width="1" height="1" fill="#231f20"/>
    <rect x="0" y="43" width="1" height="1" fill="#231f20"/>
    <rect x="153" y="43" width="1" height="1" fill="#231f20"/>
    <rect x="0" y="44" width="1" height="1" fill="#231f20"/>
    <rect x="87" y="44" width="1" height="1" fill="#231f20"/>
    <rect x="117" y="44" width="1" height="1" fill="#231f20"/>
    <rect x="153" y="44" width="1" height="1" fill="#231f20"/>
    <rect x="0" y="45" width="1" height="1" fill="#231f20"/>
    <rect x="51" y="45" width="1" height="1" fill="#231f20"/>
    <rect x="61" y="45" width="1" height="1" fill="#231f20"/>
    <rect x="86" y="45" width="1" height="1" fill="#231f20"/>
    <rect x="88" y="45" width="1" height="1" fill="#231f20"/>
    <rect x="116" y="45" width="1" height="1" fill="#231f20"/>
    <rect x="118" y="45" width="1" height="1" fill="#231f20"/>
    <rect x="153" y="45" width="1" height="1" fill="#231f20"/>
    <rect x="0" y="46" width="1" height="1" fill="#231f20"/>
    <rect x="52" y="46" width="1" height="1" fill="#231f20"/>
    <rect x="61" y="46" width="1" height="1" fill="#231f20"/>
    <rect x="86" y="46" width="1" height="1" fill="#231f20"/>
    <rect x="88" y="46" width="1" height="1" fill="#231f20"/>
    <rect x="116" y="46" width="1" height="1" fill="#231f20"/>
    <rect x="118" y="46" width="1" height="1" fill="#231f20"/>
    <rect x="153" y="46" width="1" height="1" fill="#231f20"/>
    <rect x="0" y="47" width="1" height="1" fill="#231f20"/>
    <rect x="24" y="47" width="4" height="1" fill="#231f20"/>
    <rect x="52" y="47" width="1" height="1" fill="#231f20"/>
    <rect x="60" y="47" width="1" height="1" fill="#231f20"/>
    <rect x="85" y="47" width="1" height="1" fill="#231f20"/>
    <rect x="89" y="47" width="1" height="1" fill="#231f20"/>
    <rect x="115" y="47" width="1" height="1" fill="#231f20"/>
    <rect x="119" y="47" width="1" height="1" fill="#231f20"/>
    <rect x="153" y="47" width="1" height="1" fill="#231f20"/>
    <rect x="0" y="48" width="1" height="1" fill="#231f20"/>
    <rect x="23" y="48" width="1" height="1" fill="#231f20"/>
    <rect x="27" y="48" width="1" height="1" fill="#231f20"/>
    <rect x="53" y="48" width="1" height="1" fill="#231f20"/>
    <rect x="60" y="48" width="1" height="1" fill="#231f20"/>
    <rect x="85" y="48" width="1" height="1" fill="#231f20"/>
    <rect x="90" y="48" width="1" height="1" fill="#231f20"/>
    <rect x="115" y="48" width="1" height="1" fill="#231f20"/>
    <rect x="120" y="48" width="1" height="1" fill="#231f20"/>
    <rect x="153" y="48" width="1" height="1" fill="#231f20"/>
    <rect x="0" y="49" width="1" height="1" fill="#231f20"/>
    <rect x="23" y="49" width="1" height="1" fill="#231f20"/>
    <rect x="53" y="49" width="1" height="1" fill="#231f20"/>
    <rect x="59" y="49" width="1" height="1" fill="#231f20"/>
    <rect x="84" y="49" width="1" height="1" fill="#231f20"/>
    <rect x="90" y="49" width="1" height="1" fill="#231f20"/>
    <rect x="114" y="49" width="1" height="1" fill="#231f20"/>
    <rect x="120" y="49" width="1" height="1" fill="#231f20"/>
    <rect x="153" y="49" width="1" height="1" fill="#231f20"/>
    <rect x="0" y="50" width="1" height="1" fill="#231f20"/>
    <rect x="24" y="50" width="1" height="1" fill="#231f20"/>
    <rect x="54" y="50" width="1" height="1" fill="#231f20"/>
    <rect x="59" y="50" width="1" height="1" fill="#231f20"/>
    <rect x="83" y="50" width="1" height="1" fill="#231f20"/>
    <rect x="91" y="50" width="1" height="1" fill="#231f20"/>
    <rect x="113" y="50" width="1" height="1" fill="#231f20"/>
    <rect x="121" y="50" width="1" height="1" fill="#231f20"/>
    <rect x="153" y="50" width="1" height="1" fill="#231f20"/>
    <rect x="0" y="51" width="1" height="1" fill="#231f20"/>
    <rect x="25" y="51" width="2" height="1" fill="#231f20"/>
    <rect x="54" y="51" width="1" height="1" fill="#231f20"/>
    <rect x="58" y="51" width="1" height="1" fill="#231f20"/>
    <rect x="83" y="51" width="1" height="1" fill="#231f20"/>
    <rect x="91" y="51" width="1" height="1" fill="#231f20"/>
    <rect x="113" y="51" width="1" height="1" fill="#231f20"/>
    <rect x="121" y="51" width="1" height="1" fill="#231f20"/>
    <rect x="153" y="51" width="1" height="1" fill="#231f20"/>
    <rect x="0" y="52" width="1" height="1" fill="#231f20"/>
    <rect x="27" y="52" width="1" height="1" fill="#231f20"/>
    <rect x="55" y="52" width="1" height="1" fill="#231f20"/>
    <rect x="58" y="52" width="1" height="1" fill="#231f20"/>
    <rect x="82" y="52" width="11" height="1" fill="#231f20"/>
    <rect x="112" y="52" width="11" height="1" fill="#231f20"/>
    <rect x="153" y="52" width="1" height="1" fill="#231f20"/>
    <rect x="0" y="53" width="1" height="1" fill="#231f20"/>
    <rect x="27" y="53" width="1" height="1" fill="#231f20"/>
    <rect x="55" y="53" width="1" height="1" fill="#231f20"/>
    <rect x="57" y="53" width="1" height="1" fill="#231f20"/>
    <rect x="153" y="53" width="1" height="1" fill="#231f20"/>
    <rect x="0" y="54" width="1" height="1" fill="#231f20"/>
    <rect x="23" y="54" width="1" height="1" fill="#231f20"/>
    <rect x="27" y="54" width="1" height="1" fill="#231f20"/>
    <rect x="56" y="54" width="2" height="1" fill="#231f20"/>
    <rect x="153" y="54" width="1" height="1" fill="#231f20"/>
    <rect x="0" y="55" width="1" height="1" fill="#231f20"/>
    <rect x="23" y="55" width="4" height="1" fill="#231f20"/>
    <rect x="56" y="55" width="1" height="1" fill="#231f20"/>
    <rect x="153" y="55" width="1" height="1" fill="#231f20"/>
    <rect x="0" y="56" width="1" height="1" fill="#231f20"/>
    <rect x="153" y="56" width="1" height="1" fill="#231f20"/>
    <rect x="0" y="57" width="1" height="1" fill="#231f20"/>
    <rect x="153" y="57" width="1" height="1" fill="#231f20"/>
    <rect x="0" y="58" width="1" height="1" fill="#231f20"/>
    <rect x="153" y="58" width="1" height="1" fill="#231f20"/>
    <rect x="0" y="59" width="1" height="1" fill="#231f20"/>
    <rect x="153" y="59" width="1" height="1" fill="#231f20"/>
    <rect x="0" y="60" width="154" height="1" fill="#231f20"/>
  </g>
</svg>