<?xml version="1.0" encoding="UTF-8"?>
<svg xmlns="http://www.w3.org/2000/svg" viewBox="0 0 170 77" width="170" height="77">
  <!-- Auto-converted from legend-2730.png -->
  <rect x="0" y="0" width="170" height="77" fill="none"/>
  <g fill="#3b3738" stroke="none">
    <rect x="0" y="0" width="170" height="1" fill="#3b3738"/>
    <rect x="0" y="1" width="1" height="1" fill="#3b3738"/>
    <rect x="169" y="1" width="1" height="1" fill="#3b3738"/>
    <rect x="0" y="2" width="1" height="1" fill="#3b3738"/>
    <rect x="169" y="2" width="1" height="1" fill="#3b3738"/>
    <rect x="0" y="3" width="1" height="1" fill="#3b3738"/>
    <rect x="169" y="3" width="1" height="1" fill="#3b3738"/>
    <rect x="0" y="4" width="1" height="1" fill="#3b3738"/>
    <rect x="169" y="4" width="1" height="1" fill="#3b3738"/>
    <rect x="0" y="5" width="1" height="1" fill="#3b3738"/>
    <rect x="169" y="5" width="1" height="1" fill="#3b3738"/>
    <rect x="0" y="6" width="1" height="1" fill="#3b3738"/>
    <rect x="169" y="6" width="1" height="1" fill="#3b3738"/>
    <rect x="0" y="7" width="1" height="1" fill="#3b3738"/>
    <rect x="169" y="7" width="1" height="1" fill="#3b3738"/>
    <rect x="0" y="8" width="1" height="1" fill="#3b3738"/>
    <rect x="169" y="8" width="1" height="1" fill="#3b3738"/>
    <rect x="0" y="9" width="1" height="1" fill="#3b3738"/>
    <rect x="169" y="9" width="1" height="1" fill="#3b3738"/>
    <rect x="0" y="10" width="1" height="1" fill="#3b3738"/>
    <rect x="169" y="10" width="1" height="1" fill="#3b3738"/>
    <rect x="0" y="11" width="1" height="1" fill="#3b3738"/>
    <rect x="169" y="11" width="1" height="1" fill="#3b3738"/>
    <rect x="0" y="12" width="1" height="1" fill="#3b3738"/>
    <rect x="169" y="12" width="1" height="1" fill="#3b3738"/>
    <rect x="0" y="13" width="1" height="1" fill="#3b3738"/>
    <rect x="26" y="13" width="1" height="1" fill="#3b3738"/>
    <rect x="169" y="13" width="1" height="1" fill="#3b3738"/>
    <rect x="0" y="14" width="1" height="1" fill="#3b3738"/>
    <rect x="26" y="14" width="1" height="1" fill="#3b3738"/>
    <rect x="169" y="14" width="1" height="1" fill="#3b3738"/>
    <rect x="0" y="15" width="1" height="1" fill="#3b3738"/>
    <rect x="26" y="15" width="1" height="1" fill="#3b3738"/>
    <rect x="169" y="15" width="1" height="1" fill="#3b3738"/>
    <rect x="0" y="16" width="1" height="1" fill="#3b3738"/>
    <rect x="26" y="16" width="1" height="1" fill="#3b3738"/>
    <rect x="169" y="16" width="1" height="1" fill="#3b3738"/>
    <rect x="0" y="17" width="1" height="1" fill="#3b3738"/>
    <rect x="26" y="17" width="1" height="1" fill="#3b3738"/>
    <rect x="169" y="17" width="1" height="1" fill="#3b3738"/>
    <rect x="0" y="18" width="1" height="1" fill="#3b3738"/>
    <rect x="26" y="18" width="1" height="1" fill="#3b3738"/>
    <rect x="169" y="18" width="1" height="1" fill="#3b3738"/>
    <rect x="0" y="19" width="1" height="1" fill="#3b3738"/>
    <rect x="26" y="19" width="1" height="1" fill="#3b3738"/>
    <rect x="169" y="19" width="1" height="1" fill="#3b3738"/>
    <rect x="0" y="20" width="1" height="1" fill="#3b3738"/>
    <rect x="26" y="20" width="1" height="1" fill="#3b3738"/>
    <rect x="169" y="20" width="1" height="1" fill="#3b3738"/>
    <rect x="0" y="21" width="1" height="1" fill="#3b3738"/>
    <rect x="26" y="21" width="1" height="1" fill="#3b3738"/>
    <rect x="169" y="21" width="1" height="1" fill="#3b3738"/>
    <rect x="0" y="22" width="1" height="1" fill="#3b3738"/>
    <rect x="26" y="22" width="1" height="1" fill="#3b3738"/>
    <rect x="169" y="22" width="1" height="1" fill="#3b3738"/>
    <rect x="0" y="23" width="1" height="1" fill="#3b3738"/>
    <rect x="26" y="23" width="1" height="1" fill="#3b3738"/>
    <rect x="169" y="23" width="1" height="1" fill="#3b3738"/>
    <rect x="0" y="24" width="1" height="1" fill="#3b3738"/>
    <rect x="24" y="24" width="5" height="1" fill="#3b3738"/>
    <rect x="169" y="24" width="1" height="1" fill="#3b3738"/>
    <rect x="0" y="25" width="1" height="1" fill="#3b3738"/>
    <rect x="15" y="25" width="4" height="1" fill="#3b3738"/>
    <rect x="23" y="25" width="2" height="1" fill="#3b3738"/>
    <rect x="28" y="25" width="2" height="1" fill="#3b3738"/>
    <rect x="34" y="25" width="4" height="1" fill="#3b3738"/>
    <rect x="169" y="25" width="1" height="1" fill="#3b3738"/>
    <rect x="0" y="26" width="1" height="1" fill="#3b3738"/>
    <rect x="15" y="26" width="1" height="1" fill="#3b3738"/>
    <rect x="18" y="26" width="2" height="1" fill="#3b3738"/>
    <rect x="22" y="26" width="2" height="1" fill="#3b3738"/>
    <rect x="29" y="26" width="2" height="1" fill="#3b3738"/>
    <rect x="33" y="26" width="2" height="1" fill="#3b3738"/>
    <rect x="37" y="26" width="1" height="1" fill="#3b3738"/>
    <rect x="169" y="26" width="1" height="1" fill="#3b3738"/>
    <rect x="0" y="27" width="1" height="1" fill="#3b3738"/>
    <rect x="15" y="27" width="1" height="1" fill="#3b3738"/>
    <rect x="19" y="27" width="4" height="1" fill="#3b3738"/>
    <rect x="30" y="27" width="4" height="1" fill="#3b3738"/>
    <rect x="37" y="27" width="1" height="1" fill="#3b3738"/>
    <rect x="169" y="27" width="1" height="1" fill="#3b3738"/>
    <rect x="0" y="28" width="1" height="1" fill="#3b3738"/>
    <rect x="15" y="28" width="4" height="1" fill="#3b3738"/>
    <rect x="23" y="28" width="1" height="1" fill="#3b3738"/>
    <rect x="29" y="28" width="1" height="1" fill="#3b3738"/>
    <rect x="34" y="28" width="4" height="1" fill="#3b3738"/>
    <rect x="169" y="28" width="1" height="1" fill="#3b3738"/>
    <rect x="0" y="29" width="1" height="1" fill="#3b3738"/>
    <rect x="24" y="29" width="6" height="1" fill="#3b3738"/>
    <rect x="169" y="29" width="1" height="1" fill="#3b3738"/>
    <rect x="0" y="30" width="1" height="1" fill="#3b3738"/>
    <rect x="26" y="30" width="1" height="1" fill="#3b3738"/>
    <rect x="66" y="30" width="3" height="1" fill="#3b3738"/>
    <rect x="76" y="30" width="3" height="1" fill="#3b3738"/>
    <rect x="133" y="30" width="1" height="1" fill="#3b3738"/>
    <rect x="149" y="30" width="2" height="1" fill="#3b3738"/>
    <rect x="169" y="30" width="1" height="1" fill="#3b3738"/>
    <rect x="0" y="31" width="1" height="1" fill="#3b3738"/>
    <rect x="26" y="31" width="1" height="1" fill="#3b3738"/>
    <rect x="66" y="31" width="2" height="1" fill="#3b3738"/>
    <rect x="77" y="31" width="3" height="1" fill="#3b3738"/>
    <rect x="115" y="31" width="20" height="1" fill="#3b3738"/>
    <rect x="148" y="31" width="4" height="1" fill="#3b3738"/>
    <rect x="169" y="31" width="1" height="1" fill="#3b3738"/>
    <rect x="0" y="32" width="1" height="1" fill="#3b3738"/>
    <rect x="26" y="32" width="1" height="1" fill="#3b3738"/>
    <rect x="66" y="32" width="2" height="1" fill="#3b3738"/>
    <rect x="78" y="32" width="2" height="1" fill="#3b3738"/>
    <rect x="115" y="32" width="20" height="1" fill="#3b3738"/>
    <rect x="148" y="32" width="3" height="1" fill="#3b3738"/>
    <rect x="169" y="32" width="1" height="1" fill="#3b3738"/>
    <rect x="0" y="33" width="1" height="1" fill="#3b3738"/>
    <rect x="17" y="33" width="1" height="1" fill="#3b3738"/>
    <rect x="23" y="33" width="6" height="1" fill="#3b3738"/>
    <rect x="36" y="33" width="1" height="1" fill="#3b3738"/>
    <rect x="66" y="33" width="2" height="1" fill="#3b3738"/>
    <rect x="78" y="33" width="2" height="1" fill="#3b3738"/>
    <rect x="83" y="33" width="1" height="1" fill="#3b3738"/>
    <rect x="124" y="33" width="2" height="1" fill="#3b3738"/>
    <rect x="131" y="33" width="1" height="1" fill="#3b3738"/>
    <rect x="147" y="33" width="3" height="1" fill="#3b3738"/>
    <rect x="169" y="33" width="1" height="1" fill="#3b3738"/>
    <rect x="0" y="34" width="1" height="1" fill="#3b3738"/>
    <rect x="15" y="34" width="5" height="1" fill="#3b3738"/>
    <rect x="23" y="34" width="1" height="1" fill="#3b3738"/>
    <rect x="29" y="34" width="1" height="1" fill="#3b3738"/>
    <rect x="34" y="34" width="4" height="1" fill="#3b3738"/>
    <rect x="66" y="34" width="2" height="1" fill="#3b3738"/>
    <rect x="72" y="34" width="13" height="1" fill="#3b3738"/>
    <rect x="93" y="34" width="1" height="1" fill="#3b3738"/>
    <rect x="106" y="34" width="1" height="1" fill="#3b3738"/>
    <rect x="117" y="34" width="1" height="1" fill="#3b3738"/>
    <rect x="124" y="34" width="2" height="1" fill="#3b3738"/>
    <rect x="131" y="34" width="2" height="1" fill="#3b3738"/>
    <rect x="146" y="34" width="3" height="1" fill="#3b3738"/>
    <rect x="154" y="34" width="1" height="1" fill="#3b3738"/>
    <rect x="169" y="34" width="1" height="1" fill="#3b3738"/>
    <rect x="0" y="35" width="1" height="1" fill="#3b3738"/>
    <rect x="15" y="35" width="1" height="1" fill="#3b3738"/>
    <rect x="19" y="35" width="4" height="1" fill="#3b3738"/>
    <rect x="30" y="35" width="5" height="1" fill="#3b3738"/>
    <rect x="38" y="35" width="1" height="1" fill="#3b3738"/>
    <rect x="66" y="35" width="2" height="1" fill="#3b3738"/>
    <rect x="69" y="35" width="2" height="1" fill="#3b3738"/>
    <rect x="72" y="35" width="13" height="1" fill="#3b3738"/>
    <rect x="91" y="35" width="3" height="1" fill="#3b3738"/>
    <rect x="104" y="35" width="3" height="1" fill="#3b3738"/>
    <rect x="117" y="35" width="2" height="1" fill="#3b3738"/>
    <rect x="124" y="35" width="2" height="1" fill="#3b3738"/>
    <rect x="130" y="35" width="3" height="1" fill="#3b3738"/>
    <rect x="145" y="35" width="2" height="1" fill="#3b3738"/>
    <rect x="154" y="35" width="2" height="1" fill="#3b3738"/>
    <rect x="169" y="35" width="1" height="1" fill="#3b3738"/>
    <rect x="0" y="36" width="1" height="1" fill="#3b3738"/>
    <rect x="15" y="36" width="2" height="1" fill="#3b3738"/>
    <rect x="18" y="36" width="2" height="1" fill="#3b3738"/>
    <rect x="22" y="36" width="2" height="1" fill="#3b3738"/>
    <rect x="29" y="36" width="2" height="1" fill="#3b3738"/>
    <rect x="34" y="36" width="1" height="1" fill="#3b3738"/>
    <rect x="37" y="36" width="2" height="1" fill="#3b3738"/>
    <rect x="62" y="36" width="12" height="1" fill="#3b3738"/>
    <rect x="78" y="36" width="3" height="1" fill="#3b3738"/>
    <rect x="89" y="36" width="5" height="1" fill="#3b3738"/>
    <rect x="102" y="36" width="5" height="1" fill="#3b3738"/>
    <rect x="118" y="36" width="2" height="1" fill="#3b3738"/>
    <rect x="124" y="36" width="2" height="1" fill="#3b3738"/>
    <rect x="130" y="36" width="2" height="1" fill="#3b3738"/>
    <rect x="144" y="36" width="2" height="1" fill="#3b3738"/>
    <rect x="155" y="36" width="3" height="1" fill="#3b3738"/>
    <rect x="169" y="36" width="1" height="1" fill="#3b3738"/>
    <rect x="0" y="37" width="1" height="1" fill="#3b3738"/>
    <rect x="16" y="37" width="3" height="1" fill="#3b3738"/>
    <rect x="23" y="37" width="2" height="1" fill="#3b3738"/>
    <rect x="28" y="37" width="2" height="1" fill="#3b3738"/>
    <rect x="34" y="37" width="4" height="1" fill="#3b3738"/>
    <rect x="66" y="37" width="2" height="1" fill="#3b3738"/>
    <rect x="72" y="37" width="2" height="1" fill="#3b3738"/>
    <rect x="78" y="37" width="2" height="1" fill="#3b3738"/>
    <rect x="92" y="37" width="2" height="1" fill="#3b3738"/>
    <rect x="105" y="37" width="2" height="1" fill="#3b3738"/>
    <rect x="118" y="37" width="3" height="1" fill="#3b3738"/>
    <rect x="124" y="37" width="2" height="1" fill="#3b3738"/>
    <rect x="129" y="37" width="2" height="1" fill="#3b3738"/>
    <rect x="143" y="37" width="2" height="1" fill="#3b3738"/>
    <rect x="156" y="37" width="4" height="1" fill="#3b3738"/>
    <rect x="169" y="37" width="1" height="1" fill="#3b3738"/>
    <rect x="0" y="38" width="1" height="1" fill="#3b3738"/>
    <rect x="24" y="38" width="4" height="1" fill="#3b3738"/>
    <rect x="66" y="38" width="2" height="1" fill="#3b3738"/>
    <rect x="72" y="38" width="2" height="1" fill="#3b3738"/>
    <rect x="78" y="38" width="2" height="1" fill="#3b3738"/>
    <rect x="92" y="38" width="2" height="1" fill="#3b3738"/>
    <rect x="105" y="38" width="2" height="1" fill="#3b3738"/>
    <rect x="119" y="38" width="3" height="1" fill="#3b3738"/>
    <rect x="124" y="38" width="2" height="1" fill="#3b3738"/>
    <rect x="129" y="38" width="2" height="1" fill="#3b3738"/>
    <rect x="142" y="38" width="2" height="1" fill="#3b3738"/>
    <rect x="156" y="38" width="5" height="1" fill="#3b3738"/>
    <rect x="169" y="38" width="1" height="1" fill="#3b3738"/>
    <rect x="0" y="39" width="1" height="1" fill="#3b3738"/>
    <rect x="26" y="39" width="1" height="1" fill="#3b3738"/>
    <rect x="65" y="39" width="4" height="1" fill="#3b3738"/>
    <rect x="72" y="39" width="2" height="1" fill="#3b3738"/>
    <rect x="78" y="39" width="2" height="1" fill="#3b3738"/>
    <rect x="92" y="39" width="2" height="1" fill="#3b3738"/>
    <rect x="105" y="39" width="2" height="1" fill="#3b3738"/>
    <rect x="119" y="39" width="2" height="1" fill="#3b3738"/>
    <rect x="124" y="39" width="2" height="1" fill="#3b3738"/>
    <rect x="128" y="39" width="2" height="1" fill="#3b3738"/>
    <rect x="141" y="39" width="20" height="1" fill="#3b3738"/>
    <rect x="169" y="39" width="1" height="1" fill="#3b3738"/>
    <rect x="0" y="40" width="1" height="1" fill="#3b3738"/>
    <rect x="26" y="40" width="1" height="1" fill="#3b3738"/>
    <rect x="65" y="40" width="6" height="1" fill="#3b3738"/>
    <rect x="72" y="40" width="2" height="1" fill="#3b3738"/>
    <rect x="78" y="40" width="2" height="1" fill="#3b3738"/>
    <rect x="92" y="40" width="2" height="1" fill="#3b3738"/>
    <rect x="105" y="40" width="2" height="1" fill="#3b3738"/>
    <rect x="120" y="40" width="1" height="1" fill="#3b3738"/>
    <rect x="124" y="40" width="2" height="1" fill="#3b3738"/>
    <rect x="128" y="40" width="1" height="1" fill="#3b3738"/>
    <rect x="134" y="40" width="2" height="1" fill="#3b3738"/>
    <rect x="141" y="40" width="7" height="1" fill="#3b3738"/>
    <rect x="159" y="40" width="2" height="1" fill="#3b3738"/>
    <rect x="169" y="40" width="1" height="1" fill="#3b3738"/>
    <rect x="0" y="41" width="1" height="1" fill="#3b3738"/>
    <rect x="26" y="41" width="1" height="1" fill="#3b3738"/>
    <rect x="65" y="41" width="3" height="1" fill="#3b3738"/>
    <rect x="69" y="41" width="2" height="1" fill="#3b3738"/>
    <rect x="72" y="41" width="2" height="1" fill="#3b3738"/>
    <rect x="78" y="41" width="2" height="1" fill="#3b3738"/>
    <rect x="82" y="41" width="2" height="1" fill="#3b3738"/>
    <rect x="92" y="41" width="2" height="1" fill="#3b3738"/>
    <rect x="105" y="41" width="2" height="1" fill="#3b3738"/>
    <rect x="113" y="41" width="24" height="1" fill="#3b3738"/>
    <rect x="160" y="41" width="1" height="1" fill="#3b3738"/>
    <rect x="169" y="41" width="1" height="1" fill="#3b3738"/>
    <rect x="0" y="42" width="1" height="1" fill="#3b3738"/>
    <rect x="22" y="42" width="10" height="1" fill="#3b3738"/>
    <rect x="64" y="42" width="4" height="1" fill="#3b3738"/>
    <rect x="69" y="42" width="2" height="1" fill="#3b3738"/>
    <rect x="72" y="42" width="13" height="1" fill="#3b3738"/>
    <rect x="92" y="42" width="2" height="1" fill="#3b3738"/>
    <rect x="105" y="42" width="2" height="1" fill="#3b3738"/>
    <rect x="114" y="42" width="1" height="1" fill="#3b3738"/>
    <rect x="124" y="42" width="2" height="1" fill="#3b3738"/>
    <rect x="169" y="42" width="1" height="1" fill="#3b3738"/>
    <rect x="0" y="43" width="1" height="1" fill="#3b3738"/>
    <rect x="20" y="43" width="2" height="1" fill="#3b3738"/>
    <rect x="32" y="43" width="2" height="1" fill="#3b3738"/>
    <rect x="64" y="43" width="4" height="1" fill="#3b3738"/>
    <rect x="72" y="43" width="2" height="1" fill="#3b3738"/>
    <rect x="78" y="43" width="2" height="1" fill="#3b3738"/>
    <rect x="92" y="43" width="2" height="1" fill="#3b3738"/>
    <rect x="105" y="43" width="2" height="1" fill="#3b3738"/>
    <rect x="124" y="43" width="2" height="1" fill="#3b3738"/>
    <rect x="143" y="43" width="15" height="1" fill="#3b3738"/>
    <rect x="169" y="43" width="1" height="1" fill="#3b3738"/>
    <rect x="0" y="44" width="1" height="1" fill="#3b3738"/>
    <rect x="18" y="44" width="2" height="1" fill="#3b3738"/>
    <rect x="34" y="44" width="2" height="1" fill="#3b3738"/>
    <rect x="64" y="44" width="1" height="1" fill="#3b3738"/>
    <rect x="66" y="44" width="2" height="1" fill="#3b3738"/>
    <rect x="72" y="44" width="2" height="1" fill="#3b3738"/>
    <rect x="78" y="44" width="2" height="1" fill="#3b3738"/>
    <rect x="92" y="44" width="2" height="1" fill="#3b3738"/>
    <rect x="105" y="44" width="2" height="1" fill="#3b3738"/>
    <rect x="124" y="44" width="2" height="1" fill="#3b3738"/>
    <rect x="143" y="44" width="15" height="1" fill="#3b3738"/>
    <rect x="169" y="44" width="1" height="1" fill="#3b3738"/>
    <rect x="0" y="45" width="1" height="1" fill="#3b3738"/>
    <rect x="4" y="45" width="46" height="1" fill="#3b3738"/>
    <rect x="63" y="45" width="2" height="1" fill="#3b3738"/>
    <rect x="66" y="45" width="2" height="1" fill="#3b3738"/>
    <rect x="72" y="45" width="2" height="1" fill="#3b3738"/>
    <rect x="78" y="45" width="2" height="1" fill="#3b3738"/>
    <rect x="92" y="45" width="2" height="1" fill="#3b3738"/>
    <rect x="105" y="45" width="2" height="1" fill="#3b3738"/>
    <rect x="124" y="45" width="2" height="1" fill="#3b3738"/>
    <rect x="143" y="45" width="3" height="1" fill="#3b3738"/>
    <rect x="156" y="45" width="2" height="1" fill="#3b3738"/>
    <rect x="169" y="45" width="1" height="1" fill="#3b3738"/>
    <rect x="0" y="46" width="1" height="1" fill="#3b3738"/>
    <rect x="4" y="46" width="1" height="1" fill="#3b3738"/>
    <rect x="49" y="46" width="1" height="1" fill="#3b3738"/>
    <rect x="62" y="46" width="2" height="1" fill="#3b3738"/>
    <rect x="66" y="46" width="2" height="1" fill="#3b3738"/>
    <rect x="72" y="46" width="2" height="1" fill="#3b3738"/>
    <rect x="78" y="46" width="2" height="1" fill="#3b3738"/>
    <rect x="92" y="46" width="2" height="1" fill="#3b3738"/>
    <rect x="105" y="46" width="2" height="1" fill="#3b3738"/>
    <rect x="124" y="46" width="2" height="1" fill="#3b3738"/>
    <rect x="144" y="46" width="2" height="1" fill="#3b3738"/>
    <rect x="156" y="46" width="2" height="1" fill="#3b3738"/>
    <rect x="169" y="46" width="1" height="1" fill="#3b3738"/>
    <rect x="0" y="47" width="1" height="1" fill="#3b3738"/>
    <rect x="4" y="47" width="1" height="1" fill="#3b3738"/>
    <rect x="49" y="47" width="1" height="1" fill="#3b3738"/>
    <rect x="62" y="47" width="1" height="1" fill="#3b3738"/>
    <rect x="66" y="47" width="2" height="1" fill="#3b3738"/>
    <rect x="72" y="47" width="2" height="1" fill="#3b3738"/>
    <rect x="78" y="47" width="2" height="1" fill="#3b3738"/>
    <rect x="92" y="47" width="2" height="1" fill="#3b3738"/>
    <rect x="105" y="47" width="2" height="1" fill="#3b3738"/>
    <rect x="124" y="47" width="2" height="1" fill="#3b3738"/>
    <rect x="144" y="47" width="2" height="1" fill="#3b3738"/>
    <rect x="156" y="47" width="2" height="1" fill="#3b3738"/>
    <rect x="169" y="47" width="1" height="1" fill="#3b3738"/>
    <rect x="0" y="48" width="1" height="1" fill="#3b3738"/>
    <rect x="4" y="48" width="1" height="1" fill="#3b3738"/>
    <rect x="49" y="48" width="1" height="1" fill="#3b3738"/>
    <rect x="66" y="48" width="2" height="1" fill="#3b3738"/>
    <rect x="71" y="48" width="2" height="1" fill="#3b3738"/>
    <rect x="78" y="48" width="2" height="1" fill="#3b3738"/>
    <rect x="92" y="48" width="2" height="1" fill="#3b3738"/>
    <rect x="105" y="48" width="2" height="1" fill="#3b3738"/>
    <rect x="124" y="48" width="2" height="1" fill="#3b3738"/>
    <rect x="144" y="48" width="2" height="1" fill="#3b3738"/>
    <rect x="156" y="48" width="2" height="1" fill="#3b3738"/>
    <rect x="169" y="48" width="1" height="1" fill="#3b3738"/>
    <rect x="0" y="49" width="1" height="1" fill="#3b3738"/>
    <rect x="4" y="49" width="46" height="1" fill="#3b3738"/>
    <rect x="66" y="49" width="2" height="1" fill="#3b3738"/>
    <rect x="71" y="49" width="2" height="1" fill="#3b3738"/>
    <rect x="78" y="49" width="2" height="1" fill="#3b3738"/>
    <rect x="91" y="49" width="4" height="1" fill="#3b3738"/>
    <rect x="104" y="49" width="4" height="1" fill="#3b3738"/>
    <rect x="124" y="49" width="2" height="1" fill="#3b3738"/>
    <rect x="144" y="49" width="2" height="1" fill="#3b3738"/>
    <rect x="156" y="49" width="2" height="1" fill="#3b3738"/>
    <rect x="169" y="49" width="1" height="1" fill="#3b3738"/>
    <rect x="0" y="50" width="1" height="1" fill="#3b3738"/>
    <rect x="15" y="50" width="1" height="1" fill="#3b3738"/>
    <rect x="27" y="50" width="1" height="1" fill="#3b3738"/>
    <rect x="38" y="50" width="1" height="1" fill="#3b3738"/>
    <rect x="66" y="50" width="2" height="1" fill="#3b3738"/>
    <rect x="70" y="50" width="2" height="1" fill="#3b3738"/>
    <rect x="78" y="50" width="2" height="1" fill="#3b3738"/>
    <rect x="83" y="50" width="2" height="1" fill="#3b3738"/>
    <rect x="89" y="50" width="8" height="1" fill="#3b3738"/>
    <rect x="102" y="50" width="8" height="1" fill="#3b3738"/>
    <rect x="124" y="50" width="2" height="1" fill="#3b3738"/>
    <rect x="144" y="50" width="2" height="1" fill="#3b3738"/>
    <rect x="156" y="50" width="2" height="1" fill="#3b3738"/>
    <rect x="169" y="50" width="1" height="1" fill="#3b3738"/>
    <rect x="0" y="51" width="1" height="1" fill="#3b3738"/>
    <rect x="15" y="51" width="1" height="1" fill="#3b3738"/>
    <rect x="27" y="51" width="1" height="1" fill="#3b3738"/>
    <rect x="38" y="51" width="1" height="1" fill="#3b3738"/>
    <rect x="66" y="51" width="2" height="1" fill="#3b3738"/>
    <rect x="69" y="51" width="2" height="1" fill="#3b3738"/>
    <rect x="72" y="51" width="14" height="1" fill="#3b3738"/>
    <rect x="124" y="51" width="2" height="1" fill="#3b3738"/>
    <rect x="143" y="51" width="15" height="1" fill="#3b3738"/>
    <rect x="169" y="51" width="1" height="1" fill="#3b3738"/>
    <rect x="0" y="52" width="1" height="1" fill="#3b3738"/>
    <rect x="15" y="52" width="1" height="1" fill="#3b3738"/>
    <rect x="27" y="52" width="1" height="1" fill="#3b3738"/>
    <rect x="38" y="52" width="1" height="1" fill="#3b3738"/>
    <rect x="66" y="52" width="2" height="1" fill="#3b3738"/>
    <rect x="69" y="52" width="1" height="1" fill="#3b3738"/>
    <rect x="124" y="52" width="2" height="1" fill="#3b3738"/>
    <rect x="143" y="52" width="3" height="1" fill="#3b3738"/>
    <rect x="156" y="52" width="2" height="1" fill="#3b3738"/>
    <rect x="169" y="52" width="1" height="1" fill="#3b3738"/>
    <rect x="0" y="53" width="1" height="1" fill="#3b3738"/>
    <rect x="15" y="53" width="1" height="1" fill="#3b3738"/>
    <rect x="27" y="53" width="1" height="1" fill="#3b3738"/>
    <rect x="38" y="53" width="1" height="1" fill="#3b3738"/>
    <rect x="66" y="53" width="3" height="1" fill="#3b3738"/>
    <rect x="124" y="53" width="1" height="1" fill="#3b3738"/>
    <rect x="144" y="53" width="1" height="1" fill="#3b3738"/>
    <rect x="169" y="53" width="1" height="1" fill="#3b3738"/>
    <rect x="0" y="54" width="1" height="1" fill="#3b3738"/>
    <rect x="15" y="54" width="1" height="1" fill="#3b3738"/>
    <rect x="27" y="54" width="1" height="1" fill="#3b3738"/>
    <rect x="38" y="54" width="1" height="1" fill="#3b3738"/>
    <rect x="169" y="54" width="1" height="1" fill="#3b3738"/>
    <rect x="0" y="55" width="1" height="1" fill="#3b3738"/>
    <rect x="15" y="55" width="1" height="1" fill="#3b3738"/>
    <rect x="27" y="55" width="1" height="1" fill="#3b3738"/>
    <rect x="38" y="55" width="1" height="1" fill="#3b3738"/>
    <rect x="169" y="55" width="1" height="1" fill="#3b3738"/>
    <rect x="0" y="56" width="1" height="1" fill="#3b3738"/>
    <rect x="15" y="56" width="1" height="1" fill="#3b3738"/>
    <rect x="27" y="56" width="1" height="1" fill="#3b3738"/>
    <rect x="38" y="56" width="1" height="1" fill="#3b3738"/>
    <rect x="169" y="56" width="1" height="1" fill="#3b3738"/>
    <rect x="0" y="57" width="1" height="1" fill="#3b3738"/>
    <rect x="15" y="57" width="1" height="1" fill="#3b3738"/>
    <rect x="27" y="57" width="1" height="1" fill="#3b3738"/>
    <rect x="38" y="57" width="1" height="1" fill="#3b3738"/>
    <rect x="169" y="57" width="1" height="1" fill="#3b3738"/>
    <rect x="0" y="58" width="1" height="1" fill="#3b3738"/>
    <rect x="15" y="58" width="1" height="1" fill="#3b3738"/>
    <rect x="27" y="58" width="1" height="1" fill="#3b3738"/>
    <rect x="38" y="58" width="1" height="1" fill="#3b3738"/>
    <rect x="169" y="58" width="1" height="1" fill="#3b3738"/>
    <rect x="0" y="59" width="1" height="1" fill="#3b3738"/>
    <rect x="169" y="59" width="1" height="1" fill="#3b3738"/>
    <rect x="0" y="60" width="1" height="1" fill="#3b3738"/>
    <rect x="169" y="60" width="1" height="1" fill="#3b3738"/>
    <rect x="0" y="61" width="1" height="1" fill="#3b3738"/>
    <rect x="169" y="61" width="1" height="1" fill="#3b3738"/>
    <rect x="0" y="62" width="1" height="1" fill="#3b3738"/>
    <rect x="169" y="62" width="1" height="1" fill="#3b3738"/>
    <rect x="0" y="63" width="1" height="1" fill="#3b3738"/>
    <rect x="169" y="63" width="1" height="1" fill="#3b3738"/>
    <rect x="0" y="64" width="1" height="1" fill="#3b3738"/>
    <rect x="169" y="64" width="1" height="1" fill="#3b3738"/>
    <rect x="0" y="65" width="1" height="1" fill="#3b3738"/>
    <rect x="169" y="65" width="1" height="1" fill="#3b3738"/>
    <rect x="0" y="66" width="1" height="1" fill="#3b3738"/>
    <rect x="169" y="66" width="1" height="1" fill="#3b3738"/>
    <rect x="0" y="67" width="1" height="1" fill="#3b3738"/>
    <rect x="169" y="67" width="1" height="1" fill="#3b3738"/>
    <rect x="0" y="68" width="1" height="1" fill="#3b3738"/>
    <rect x="169" y="68" width="1" height="1" fill="#3b3738"/>
    <rect x="0" y="69" width="1" height="1" fill="#3b3738"/>
    <rect x="169" y="69" width="1" height="1" fill="#3b3738"/>
    <rect x="0" y="70" width="1" height="1" fill="#3b3738"/>
    <rect x="169" y="70" width="1" height="1" fill="#3b3738"/>
    <rect x="0" y="71" width="1" height="1" fill="#3b3738"/>
    <rect x="169" y="71" width="1" height="1" fill="#3b3738"/>
    <rect x="0" y="72" width="1" height="1" fill="#3b3738"/>
    <rect x="169" y="72" width="1" height="1" fill="#3b3738"/>
    <rect x="0" y="73" width="1" height="1" fill="#3b3738"/>
    <rect x="169" y="73" width="1" height="1" fill="#3b3738"/>
    <rect x="0" y="74" width="1" height="1" fill="#3b3738"/>
    <rect x="169" y="74" width="1" height="1" fill="#3b3738"/>
    <rect x="0" y="75" width="1" height="1" fill="#3b3738"/>
    <rect x="169" y="75" width="1" height="1" fill="#3b3738"/>
    <rect x="0" y="76" width="170" height="1" fill="#3b3738"/>
  </g>
</svg>