<?xml version="1.0" encoding="UTF-8"?>
<svg xmlns="http://www.w3.org/2000/svg" viewBox="0 0 153 61" width="153" height="61">
  <!-- Auto-converted from legend-2346.png -->
  <rect x="0" y="0" width="153" height="61" fill="none"/>
  <g fill="#231f20" stroke="none">
    <rect x="0" y="0" width="153" height="1" fill="#231f20"/>
    <rect x="0" y="1" width="1" height="1" fill="#231f20"/>
    <rect x="152" y="1" width="1" height="1" fill="#231f20"/>
    <rect x="0" y="2" width="1" height="1" fill="#231f20"/>
    <rect x="152" y="2" width="1" height="1" fill="#231f20"/>
    <rect x="0" y="3" width="1" height="1" fill="#231f20"/>
    <rect x="152" y="3" width="1" height="1" fill="#231f20"/>
    <rect x="0" y="4" width="1" height="1" fill="#231f20"/>
    <rect x="152" y="4" width="1" height="1" fill="#231f20"/>
    <rect x="0" y="5" width="1" height="1" fill="#231f20"/>
    <rect x="31" y="5" width="11" height="1" fill="#231f20"/>
    <rect x="73" y="5" width="3" height="1" fill="#231f20"/>
    <rect x="77" y="5" width="3" height="1" fill="#231f20"/>
    <rect x="112" y="5" width="11" height="1" fill="#231f20"/>
    <rect x="152" y="5" width="1" height="1" fill="#231f20"/>
    <rect x="0" y="6" width="1" height="1" fill="#231f20"/>
    <rect x="31" y="6" width="1" height="1" fill="#231f20"/>
    <rect x="74" y="6" width="1" height="1" fill="#231f20"/>
    <rect x="78" y="6" width="1" height="1" fill="#231f20"/>
    <rect x="112" y="6" width="1" height="1" fill="#231f20"/>
    <rect x="152" y="6" width="1" height="1" fill="#231f20"/>
    <rect x="0" y="7" width="1" height="1" fill="#231f20"/>
    <rect x="31" y="7" width="1" height="1" fill="#231f20"/>
    <rect x="74" y="7" width="1" height="1" fill="#231f20"/>
    <rect x="78" y="7" width="1" height="1" fill="#231f20"/>
    <rect x="112" y="7" width="1" height="1" fill="#231f20"/>
    <rect x="152" y="7" width="1" height="1" fill="#231f20"/>
    <rect x="0" y="8" width="1" height="1" fill="#231f20"/>
    <rect x="31" y="8" width="1" height="1" fill="#231f20"/>
    <rect x="75" y="8" width="1" height="1" fill="#231f20"/>
    <rect x="77" y="8" width="1" height="1" fill="#231f20"/>
    <rect x="112" y="8" width="1" height="1" fill="#231f20"/>
    <rect x="152" y="8" width="1" height="1" fill="#231f20"/>
    <rect x="0" y="9" width="1" height="1" fill="#231f20"/>
    <rect x="31" y="9" width="1" height="1" fill="#231f20"/>
    <rect x="75" y="9" width="1" height="1" fill="#231f20"/>
    <rect x="77" y="9" width="1" height="1" fill="#231f20"/>
    <rect x="112" y="9" width="1" height="1" fill="#231f20"/>
    <rect x="152" y="9" width="1" height="1" fill="#231f20"/>
    <rect x="0" y="10" width="1" height="1" fill="#231f20"/>
    <rect x="31" y="10" width="1" height="1" fill="#231f20"/>
    <rect x="75" y="10" width="1" height="1" fill="#231f20"/>
    <rect x="77" y="10" width="1" height="1" fill="#231f20"/>
    <rect x="101" y="10" width="20" height="1" fill="#231f20"/>
    <rect x="152" y="10" width="1" height="1" fill="#231f20"/>
    <rect x="0" y="11" width="1" height="1" fill="#231f20"/>
    <rect x="75" y="11" width="1" height="1" fill="#231f20"/>
    <rect x="77" y="11" width="1" height="1" fill="#231f20"/>
    <rect x="92" y="11" width="9" height="1" fill="#231f20"/>
    <rect x="121" y="11" width="14" height="1" fill="#231f20"/>
    <rect x="152" y="11" width="1" height="1" fill="#231f20"/>
    <rect x="0" y="12" width="1" height="1" fill="#231f20"/>
    <rect x="76" y="12" width="1" height="1" fill="#231f20"/>
    <rect x="84" y="12" width="8" height="1" fill="#231f20"/>
    <rect x="97" y="12" width="31" height="1" fill="#231f20"/>
    <rect x="135" y="12" width="6" height="1" fill="#231f20"/>
    <rect x="152" y="12" width="1" height="1" fill="#231f20"/>
    <rect x="0" y="13" width="1" height="1" fill="#231f20"/>
    <rect x="76" y="13" width="1" height="1" fill="#231f20"/>
    <rect x="79" y="13" width="5" height="1" fill="#231f20"/>
    <rect x="90" y="13" width="7" height="1" fill="#231f20"/>
    <rect x="128" y="13" width="10" height="1" fill="#231f20"/>
    <rect x="141" y="13" width="10" height="1" fill="#231f20"/>
    <rect x="152" y="13" width="1" height="1" fill="#231f20"/>
    <rect x="0" y="14" width="8" height="1" fill="#231f20"/>
    <rect x="70" y="14" width="9" height="1" fill="#231f20"/>
    <rect x="84" y="14" width="6" height="1" fill="#231f20"/>
    <rect x="138" y="14" width="8" height="1" fill="#231f20"/>
    <rect x="151" y="14" width="2" height="1" fill="#231f20"/>
    <rect x="0" y="15" width="4" height="1" fill="#231f20"/>
    <rect x="8" y="15" width="9" height="1" fill="#231f20"/>
    <rect x="64" y="15" width="6" height="1" fill="#231f20"/>
    <rect x="74" y="15" width="10" height="1" fill="#231f20"/>
    <rect x="146" y="15" width="7" height="1" fill="#231f20"/>
    <rect x="0" y="16" width="1" height="1" fill="#231f20"/>
    <rect x="4" y="16" width="9" height="1" fill="#231f20"/>
    <rect x="17" y="16" width="9" height="1" fill="#231f20"/>
    <rect x="57" y="16" width="7" height="1" fill="#231f20"/>
    <rect x="70" y="16" width="4" height="1" fill="#231f20"/>
    <rect x="152" y="16" width="1" height="1" fill="#231f20"/>
    <rect x="0" y="17" width="1" height="1" fill="#231f20"/>
    <rect x="13" y="17" width="9" height="1" fill="#231f20"/>
    <rect x="26" y="17" width="31" height="1" fill="#231f20"/>
    <rect x="61" y="17" width="9" height="1" fill="#231f20"/>
    <rect x="152" y="17" width="1" height="1" fill="#231f20"/>
    <rect x="0" y="18" width="1" height="1" fill="#231f20"/>
    <rect x="22" y="18" width="12" height="1" fill="#231f20"/>
    <rect x="49" y="18" width="12" height="1" fill="#231f20"/>
    <rect x="152" y="18" width="1" height="1" fill="#231f20"/>
    <rect x="0" y="19" width="1" height="1" fill="#231f20"/>
    <rect x="34" y="19" width="15" height="1" fill="#231f20"/>
    <rect x="152" y="19" width="1" height="1" fill="#231f20"/>
    <rect x="0" y="20" width="153" height="1" fill="#231f20"/>
    <rect x="0" y="21" width="1" height="1" fill="#231f20"/>
    <rect x="152" y="21" width="1" height="1" fill="#231f20"/>
    <rect x="0" y="22" width="1" height="1" fill="#231f20"/>
    <rect x="152" y="22" width="1" height="1" fill="#231f20"/>
    <rect x="0" y="23" width="1" height="1" fill="#231f20"/>
    <rect x="152" y="23" width="1" height="1" fill="#231f20"/>
    <rect x="0" y="24" width="1" height="1" fill="#231f20"/>
    <rect x="152" y="24" width="1" height="1" fill="#231f20"/>
    <rect x="0" y="25" width="1" height="1" fill="#231f20"/>
    <rect x="41" y="25" width="11" height="1" fill="#231f20"/>
    <rect x="83" y="25" width="3" height="1" fill="#231f20"/>
    <rect x="87" y="25" width="3" height="1" fill="#231f20"/>
    <rect x="122" y="25" width="11" height="1" fill="#231f20"/>
    <rect x="152" y="25" width="1" height="1" fill="#231f20"/>
    <rect x="0" y="26" width="1" height="1" fill="#231f20"/>
    <rect x="41" y="26" width="1" height="1" fill="#231f20"/>
    <rect x="84" y="26" width="1" height="1" fill="#231f20"/>
    <rect x="88" y="26" width="1" height="1" fill="#231f20"/>
    <rect x="122" y="26" width="1" height="1" fill="#231f20"/>
    <rect x="152" y="26" width="1" height="1" fill="#231f20"/>
    <rect x="0" y="27" width="1" height="1" fill="#231f20"/>
    <rect x="41" y="27" width="1" height="1" fill="#231f20"/>
    <rect x="84" y="27" width="1" height="1" fill="#231f20"/>
    <rect x="88" y="27" width="1" height="1" fill="#231f20"/>
    <rect x="122" y="27" width="1" height="1" fill="#231f20"/>
    <rect x="152" y="27" width="1" height="1" fill="#231f20"/>
    <rect x="0" y="28" width="1" height="1" fill="#231f20"/>
    <rect x="41" y="28" width="1" height="1" fill="#231f20"/>
    <rect x="85" y="28" width="1" height="1" fill="#231f20"/>
    <rect x="87" y="28" width="1" height="1" fill="#231f20"/>
    <rect x="122" y="28" width="1" height="1" fill="#231f20"/>
    <rect x="152" y="28" width="1" height="1" fill="#231f20"/>
    <rect x="0" y="29" width="1" height="1" fill="#231f20"/>
    <rect x="41" y="29" width="1" height="1" fill="#231f20"/>
    <rect x="85" y="29" width="1" height="1" fill="#231f20"/>
    <rect x="87" y="29" width="1" height="1" fill="#231f20"/>
    <rect x="122" y="29" width="1" height="1" fill="#231f20"/>
    <rect x="152" y="29" width="1" height="1" fill="#231f20"/>
    <rect x="0" y="30" width="1" height="1" fill="#231f20"/>
    <rect x="41" y="30" width="1" height="1" fill="#231f20"/>
    <rect x="85" y="30" width="1" height="1" fill="#231f20"/>
    <rect x="87" y="30" width="1" height="1" fill="#231f20"/>
    <rect x="122" y="30" width="1" height="1" fill="#231f20"/>
    <rect x="152" y="30" width="1" height="1" fill="#231f20"/>
    <rect x="0" y="31" width="1" height="1" fill="#231f20"/>
    <rect x="85" y="31" width="1" height="1" fill="#231f20"/>
    <rect x="87" y="31" width="1" height="1" fill="#231f20"/>
    <rect x="94" y="31" width="37" height="1" fill="#231f20"/>
    <rect x="152" y="31" width="1" height="1" fill="#231f20"/>
    <rect x="0" y="32" width="1" height="1" fill="#231f20"/>
    <rect x="86" y="32" width="8" height="1" fill="#231f20"/>
    <rect x="99" y="32" width="24" height="1" fill="#231f20"/>
    <rect x="131" y="32" width="10" height="1" fill="#231f20"/>
    <rect x="152" y="32" width="1" height="1" fill="#231f20"/>
    <rect x="0" y="33" width="1" height="1" fill="#231f20"/>
    <rect x="79" y="33" width="8" height="1" fill="#231f20"/>
    <rect x="90" y="33" width="9" height="1" fill="#231f20"/>
    <rect x="123" y="33" width="12" height="1" fill="#231f20"/>
    <rect x="141" y="33" width="10" height="1" fill="#231f20"/>
    <rect x="152" y="33" width="1" height="1" fill="#231f20"/>
    <rect x="0" y="34" width="4" height="1" fill="#231f20"/>
    <rect x="74" y="34" width="5" height="1" fill="#231f20"/>
    <rect x="84" y="34" width="6" height="1" fill="#231f20"/>
    <rect x="135" y="34" width="11" height="1" fill="#231f20"/>
    <rect x="151" y="34" width="2" height="1" fill="#231f20"/>
    <rect x="0" y="35" width="1" height="1" fill="#231f20"/>
    <rect x="4" y="35" width="9" height="1" fill="#231f20"/>
    <rect x="66" y="35" width="8" height="1" fill="#231f20"/>
    <rect x="79" y="35" width="5" height="1" fill="#231f20"/>
    <rect x="146" y="35" width="5" height="1" fill="#231f20"/>
    <rect x="152" y="35" width="1" height="1" fill="#231f20"/>
    <rect x="0" y="36" width="8" height="1" fill="#231f20"/>
    <rect x="13" y="36" width="11" height="1" fill="#231f20"/>
    <rect x="59" y="36" width="7" height="1" fill="#231f20"/>
    <rect x="70" y="36" width="9" height="1" fill="#231f20"/>
    <rect x="151" y="36" width="2" height="1" fill="#231f20"/>
    <rect x="0" y="37" width="1" height="1" fill="#231f20"/>
    <rect x="8" y="37" width="9" height="1" fill="#231f20"/>
    <rect x="24" y="37" width="35" height="1" fill="#231f20"/>
    <rect x="64" y="37" width="6" height="1" fill="#231f20"/>
    <rect x="152" y="37" width="1" height="1" fill="#231f20"/>
    <rect x="0" y="38" width="1" height="1" fill="#231f20"/>
    <rect x="17" y="38" width="12" height="1" fill="#231f20"/>
    <rect x="54" y="38" width="10" height="1" fill="#231f20"/>
    <rect x="152" y="38" width="1" height="1" fill="#231f20"/>
    <rect x="0" y="39" width="1" height="1" fill="#231f20"/>
    <rect x="29" y="39" width="25" height="1" fill="#231f20"/>
    <rect x="152" y="39" width="1" height="1" fill="#231f20"/>
    <rect x="0" y="40" width="153" height="1" fill="#231f20"/>
    <rect x="0" y="41" width="1" height="1" fill="#231f20"/>
    <rect x="152" y="41" width="1" height="1" fill="#231f20"/>
    <rect x="0" y="42" width="1" height="1" fill="#231f20"/>
    <rect x="152" y="42" width="1" height="1" fill="#231f20"/>
    <rect x="0" y="43" width="1" height="1" fill="#231f20"/>
    <rect x="152" y="43" width="1" height="1" fill="#231f20"/>
    <rect x="0" y="44" width="1" height="1" fill="#231f20"/>
    <rect x="152" y="44" width="1" height="1" fill="#231f20"/>
    <rect x="0" y="45" width="1" height="1" fill="#231f20"/>
    <rect x="31" y="45" width="11" height="1" fill="#231f20"/>
    <rect x="73" y="45" width="3" height="1" fill="#231f20"/>
    <rect x="77" y="45" width="3" height="1" fill="#231f20"/>
    <rect x="112" y="45" width="11" height="1" fill="#231f20"/>
    <rect x="152" y="45" width="1" height="1" fill="#231f20"/>
    <rect x="0" y="46" width="1" height="1" fill="#231f20"/>
    <rect x="31" y="46" width="1" height="1" fill="#231f20"/>
    <rect x="74" y="46" width="1" height="1" fill="#231f20"/>
    <rect x="78" y="46" width="1" height="1" fill="#231f20"/>
    <rect x="112" y="46" width="1" height="1" fill="#231f20"/>
    <rect x="152" y="46" width="1" height="1" fill="#231f20"/>
    <rect x="0" y="47" width="1" height="1" fill="#231f20"/>
    <rect x="31" y="47" width="1" height="1" fill="#231f20"/>
    <rect x="74" y="47" width="1" height="1" fill="#231f20"/>
    <rect x="78" y="47" width="1" height="1" fill="#231f20"/>
    <rect x="112" y="47" width="1" height="1" fill="#231f20"/>
    <rect x="152" y="47" width="1" height="1" fill="#231f20"/>
    <rect x="0" y="48" width="1" height="1" fill="#231f20"/>
    <rect x="31" y="48" width="1" height="1" fill="#231f20"/>
    <rect x="75" y="48" width="1" height="1" fill="#231f20"/>
    <rect x="77" y="48" width="1" height="1" fill="#231f20"/>
    <rect x="112" y="48" width="1" height="1" fill="#231f20"/>
    <rect x="152" y="48" width="1" height="1" fill="#231f20"/>
    <rect x="0" y="49" width="1" height="1" fill="#231f20"/>
    <rect x="31" y="49" width="1" height="1" fill="#231f20"/>
    <rect x="75" y="49" width="1" height="1" fill="#231f20"/>
    <rect x="77" y="49" width="1" height="1" fill="#231f20"/>
    <rect x="112" y="49" width="1" height="1" fill="#231f20"/>
    <rect x="152" y="49" width="1" height="1" fill="#231f20"/>
    <rect x="0" y="50" width="1" height="1" fill="#231f20"/>
    <rect x="31" y="50" width="1" height="1" fill="#231f20"/>
    <rect x="75" y="50" width="1" height="1" fill="#231f20"/>
    <rect x="77" y="50" width="1" height="1" fill="#231f20"/>
    <rect x="112" y="50" width="1" height="1" fill="#231f20"/>
    <rect x="152" y="50" width="1" height="1" fill="#231f20"/>
    <rect x="0" y="51" width="1" height="1" fill="#231f20"/>
    <rect x="75" y="51" width="1" height="1" fill="#231f20"/>
    <rect x="77" y="51" width="1" height="1" fill="#231f20"/>
    <rect x="97" y="51" width="31" height="1" fill="#231f20"/>
    <rect x="152" y="51" width="1" height="1" fill="#231f20"/>
    <rect x="0" y="52" width="1" height="1" fill="#231f20"/>
    <rect x="76" y="52" width="1" height="1" fill="#231f20"/>
    <rect x="87" y="52" width="10" height="1" fill="#231f20"/>
    <rect x="104" y="52" width="15" height="1" fill="#231f20"/>
    <rect x="128" y="52" width="10" height="1" fill="#231f20"/>
    <rect x="152" y="52" width="1" height="1" fill="#231f20"/>
    <rect x="0" y="53" width="1" height="1" fill="#231f20"/>
    <rect x="76" y="53" width="1" height="1" fill="#231f20"/>
    <rect x="79" y="53" width="8" height="1" fill="#231f20"/>
    <rect x="92" y="53" width="12" height="1" fill="#231f20"/>
    <rect x="119" y="53" width="14" height="1" fill="#231f20"/>
    <rect x="138" y="53" width="8" height="1" fill="#231f20"/>
    <rect x="152" y="53" width="1" height="1" fill="#231f20"/>
    <rect x="0" y="54" width="4" height="1" fill="#231f20"/>
    <rect x="74" y="54" width="5" height="1" fill="#231f20"/>
    <rect x="84" y="54" width="8" height="1" fill="#231f20"/>
    <rect x="133" y="54" width="8" height="1" fill="#231f20"/>
    <rect x="146" y="54" width="7" height="1" fill="#231f20"/>
    <rect x="0" y="55" width="1" height="1" fill="#231f20"/>
    <rect x="4" y="55" width="9" height="1" fill="#231f20"/>
    <rect x="70" y="55" width="4" height="1" fill="#231f20"/>
    <rect x="79" y="55" width="5" height="1" fill="#231f20"/>
    <rect x="141" y="55" width="10" height="1" fill="#231f20"/>
    <rect x="152" y="55" width="1" height="1" fill="#231f20"/>
    <rect x="0" y="56" width="8" height="1" fill="#231f20"/>
    <rect x="13" y="56" width="9" height="1" fill="#231f20"/>
    <rect x="61" y="56" width="9" height="1" fill="#231f20"/>
    <rect x="74" y="56" width="5" height="1" fill="#231f20"/>
    <rect x="151" y="56" width="2" height="1" fill="#231f20"/>
    <rect x="0" y="57" width="1" height="1" fill="#231f20"/>
    <rect x="8" y="57" width="5" height="1" fill="#231f20"/>
    <rect x="22" y="57" width="14" height="1" fill="#231f20"/>
    <rect x="49" y="57" width="12" height="1" fill="#231f20"/>
    <rect x="66" y="57" width="8" height="1" fill="#231f20"/>
    <rect x="152" y="57" width="1" height="1" fill="#231f20"/>
    <rect x="0" y="58" width="1" height="1" fill="#231f20"/>
    <rect x="13" y="58" width="13" height="1" fill="#231f20"/>
    <rect x="36" y="58" width="13" height="1" fill="#231f20"/>
    <rect x="57" y="58" width="9" height="1" fill="#231f20"/>
    <rect x="152" y="58" width="1" height="1" fill="#231f20"/>
    <rect x="0" y="59" width="1" height="1" fill="#231f20"/>
    <rect x="26" y="59" width="31" height="1" fill="#231f20"/>
    <rect x="152" y="59" width="1" height="1" fill="#231f20"/>
    <rect x="0" y="60" width="153" height="1" fill="#231f20"/>
  </g>
</svg>