<?xml version="1.0" encoding="UTF-8"?>
<svg xmlns="http://www.w3.org/2000/svg" viewBox="0 0 403 261" width="403" height="261">
  <!-- Auto-converted from legend-351.png -->
  <rect x="0" y="0" width="403" height="261" fill="none"/>
  <g fill="#000000" stroke="none">
    <rect x="6" y="4" width="393" height="1" fill="#000000"/>
    <rect x="4" y="5" width="396" height="1" fill="#000000"/>
    <rect x="4" y="6" width="396" height="1" fill="#000000"/>
    <rect x="3" y="7" width="397" height="1" fill="#000000"/>
    <rect x="3" y="8" width="4" height="1" fill="#000000"/>
    <rect x="396" y="8" width="4" height="1" fill="#000000"/>
    <rect x="3" y="9" width="4" height="1" fill="#000000"/>
    <rect x="396" y="9" width="4" height="1" fill="#000000"/>
    <rect x="3" y="10" width="4" height="1" fill="#000000"/>
    <rect x="396" y="10" width="4" height="1" fill="#000000"/>
    <rect x="3" y="11" width="4" height="1" fill="#000000"/>
    <rect x="396" y="11" width="4" height="1" fill="#000000"/>
    <rect x="3" y="12" width="4" height="1" fill="#000000"/>
    <rect x="396" y="12" width="4" height="1" fill="#000000"/>
    <rect x="3" y="13" width="4" height="1" fill="#000000"/>
    <rect x="396" y="13" width="4" height="1" fill="#000000"/>
    <rect x="3" y="14" width="4" height="1" fill="#000000"/>
    <rect x="396" y="14" width="4" height="1" fill="#000000"/>
    <rect x="3" y="15" width="4" height="1" fill="#000000"/>
    <rect x="396" y="15" width="4" height="1" fill="#000000"/>
    <rect x="3" y="16" width="4" height="1" fill="#000000"/>
    <rect x="396" y="16" width="4" height="1" fill="#000000"/>
    <rect x="3" y="17" width="4" height="1" fill="#000000"/>
    <rect x="396" y="17" width="4" height="1" fill="#000000"/>
    <rect x="3" y="18" width="4" height="1" fill="#000000"/>
    <rect x="396" y="18" width="4" height="1" fill="#000000"/>
    <rect x="3" y="19" width="4" height="1" fill="#000000"/>
    <rect x="396" y="19" width="4" height="1" fill="#000000"/>
    <rect x="3" y="20" width="4" height="1" fill="#000000"/>
    <rect x="396" y="20" width="4" height="1" fill="#000000"/>
    <rect x="3" y="21" width="4" height="1" fill="#000000"/>
    <rect x="396" y="21" width="4" height="1" fill="#000000"/>
    <rect x="3" y="22" width="4" height="1" fill="#000000"/>
    <rect x="396" y="22" width="4" height="1" fill="#000000"/>
    <rect x="3" y="23" width="4" height="1" fill="#000000"/>
    <rect x="396" y="23" width="4" height="1" fill="#000000"/>
    <rect x="3" y="24" width="4" height="1" fill="#000000"/>
    <rect x="396" y="24" width="4" height="1" fill="#000000"/>
    <rect x="3" y="25" width="4" height="1" fill="#000000"/>
    <rect x="396" y="25" width="4" height="1" fill="#000000"/>
    <rect x="3" y="26" width="4" height="1" fill="#000000"/>
    <rect x="396" y="26" width="4" height="1" fill="#000000"/>
    <rect x="3" y="27" width="4" height="1" fill="#000000"/>
    <rect x="396" y="27" width="4" height="1" fill="#000000"/>
    <rect x="3" y="28" width="4" height="1" fill="#000000"/>
    <rect x="396" y="28" width="4" height="1" fill="#000000"/>
    <rect x="3" y="29" width="4" height="1" fill="#000000"/>
    <rect x="396" y="29" width="4" height="1" fill="#000000"/>
    <rect x="3" y="30" width="4" height="1" fill="#000000"/>
    <rect x="396" y="30" width="4" height="1" fill="#000000"/>
    <rect x="3" y="31" width="4" height="1" fill="#000000"/>
    <rect x="396" y="31" width="4" height="1" fill="#000000"/>
    <rect x="3" y="32" width="4" height="1" fill="#000000"/>
    <rect x="396" y="32" width="4" height="1" fill="#000000"/>
    <rect x="3" y="33" width="4" height="1" fill="#000000"/>
    <rect x="396" y="33" width="4" height="1" fill="#000000"/>
    <rect x="3" y="34" width="4" height="1" fill="#000000"/>
    <rect x="396" y="34" width="4" height="1" fill="#000000"/>
    <rect x="3" y="35" width="4" height="1" fill="#000000"/>
    <rect x="396" y="35" width="4" height="1" fill="#000000"/>
    <rect x="3" y="36" width="4" height="1" fill="#000000"/>
    <rect x="396" y="36" width="4" height="1" fill="#000000"/>
    <rect x="3" y="37" width="4" height="1" fill="#000000"/>
    <rect x="396" y="37" width="4" height="1" fill="#000000"/>
    <rect x="3" y="38" width="4" height="1" fill="#000000"/>
    <rect x="396" y="38" width="4" height="1" fill="#000000"/>
    <rect x="3" y="39" width="4" height="1" fill="#000000"/>
    <rect x="396" y="39" width="4" height="1" fill="#000000"/>
    <rect x="3" y="40" width="4" height="1" fill="#000000"/>
    <rect x="396" y="40" width="4" height="1" fill="#000000"/>
    <rect x="3" y="41" width="4" height="1" fill="#000000"/>
    <rect x="396" y="41" width="4" height="1" fill="#000000"/>
    <rect x="3" y="42" width="4" height="1" fill="#000000"/>
    <rect x="396" y="42" width="4" height="1" fill="#000000"/>
    <rect x="3" y="43" width="4" height="1" fill="#000000"/>
    <rect x="396" y="43" width="4" height="1" fill="#000000"/>
    <rect x="3" y="44" width="4" height="1" fill="#000000"/>
    <rect x="396" y="44" width="4" height="1" fill="#000000"/>
    <rect x="3" y="45" width="4" height="1" fill="#000000"/>
    <rect x="396" y="45" width="4" height="1" fill="#000000"/>
    <rect x="3" y="46" width="4" height="1" fill="#000000"/>
    <rect x="396" y="46" width="4" height="1" fill="#000000"/>
    <rect x="3" y="47" width="4" height="1" fill="#000000"/>
    <rect x="396" y="47" width="4" height="1" fill="#000000"/>
    <rect x="3" y="48" width="4" height="1" fill="#000000"/>
    <rect x="396" y="48" width="4" height="1" fill="#000000"/>
    <rect x="3" y="49" width="4" height="1" fill="#000000"/>
    <rect x="396" y="49" width="4" height="1" fill="#000000"/>
    <rect x="3" y="50" width="4" height="1" fill="#000000"/>
    <rect x="396" y="50" width="4" height="1" fill="#000000"/>
    <rect x="3" y="51" width="4" height="1" fill="#000000"/>
    <rect x="396" y="51" width="4" height="1" fill="#000000"/>
    <rect x="3" y="52" width="4" height="1" fill="#000000"/>
    <rect x="396" y="52" width="4" height="1" fill="#000000"/>
    <rect x="3" y="53" width="4" height="1" fill="#000000"/>
    <rect x="396" y="53" width="4" height="1" fill="#000000"/>
    <rect x="3" y="54" width="4" height="1" fill="#000000"/>
    <rect x="396" y="54" width="4" height="1" fill="#000000"/>
    <rect x="3" y="55" width="4" height="1" fill="#000000"/>
    <rect x="396" y="55" width="4" height="1" fill="#000000"/>
    <rect x="3" y="56" width="4" height="1" fill="#000000"/>
    <rect x="396" y="56" width="4" height="1" fill="#000000"/>
    <rect x="3" y="57" width="4" height="1" fill="#000000"/>
    <rect x="396" y="57" width="4" height="1" fill="#000000"/>
    <rect x="3" y="58" width="4" height="1" fill="#000000"/>
    <rect x="396" y="58" width="4" height="1" fill="#000000"/>
    <rect x="3" y="59" width="4" height="1" fill="#000000"/>
    <rect x="396" y="59" width="4" height="1" fill="#000000"/>
    <rect x="3" y="60" width="4" height="1" fill="#000000"/>
    <rect x="396" y="60" width="4" height="1" fill="#000000"/>
    <rect x="3" y="61" width="4" height="1" fill="#000000"/>
    <rect x="396" y="61" width="4" height="1" fill="#000000"/>
    <rect x="3" y="62" width="4" height="1" fill="#000000"/>
    <rect x="396" y="62" width="4" height="1" fill="#000000"/>
    <rect x="3" y="63" width="4" height="1" fill="#000000"/>
    <rect x="396" y="63" width="4" height="1" fill="#000000"/>
    <rect x="3" y="64" width="4" height="1" fill="#000000"/>
    <rect x="396" y="64" width="4" height="1" fill="#000000"/>
    <rect x="3" y="65" width="4" height="1" fill="#000000"/>
    <rect x="396" y="65" width="4" height="1" fill="#000000"/>
    <rect x="3" y="66" width="4" height="1" fill="#000000"/>
    <rect x="396" y="66" width="4" height="1" fill="#000000"/>
    <rect x="3" y="67" width="4" height="1" fill="#000000"/>
    <rect x="396" y="67" width="4" height="1" fill="#000000"/>
    <rect x="3" y="68" width="4" height="1" fill="#000000"/>
    <rect x="396" y="68" width="4" height="1" fill="#000000"/>
    <rect x="3" y="69" width="4" height="1" fill="#000000"/>
    <rect x="396" y="69" width="4" height="1" fill="#000000"/>
    <rect x="3" y="70" width="4" height="1" fill="#000000"/>
    <rect x="396" y="70" width="4" height="1" fill="#000000"/>
    <rect x="3" y="71" width="4" height="1" fill="#000000"/>
    <rect x="396" y="71" width="4" height="1" fill="#000000"/>
    <rect x="3" y="72" width="4" height="1" fill="#000000"/>
    <rect x="396" y="72" width="4" height="1" fill="#000000"/>
    <rect x="3" y="73" width="4" height="1" fill="#000000"/>
    <rect x="396" y="73" width="4" height="1" fill="#000000"/>
    <rect x="3" y="74" width="4" height="1" fill="#000000"/>
    <rect x="396" y="74" width="4" height="1" fill="#000000"/>
    <rect x="3" y="75" width="4" height="1" fill="#000000"/>
    <rect x="396" y="75" width="4" height="1" fill="#000000"/>
    <rect x="3" y="76" width="4" height="1" fill="#000000"/>
    <rect x="396" y="76" width="4" height="1" fill="#000000"/>
    <rect x="3" y="77" width="4" height="1" fill="#000000"/>
    <rect x="396" y="77" width="4" height="1" fill="#000000"/>
    <rect x="3" y="78" width="4" height="1" fill="#000000"/>
    <rect x="396" y="78" width="4" height="1" fill="#000000"/>
    <rect x="3" y="79" width="4" height="1" fill="#000000"/>
    <rect x="396" y="79" width="4" height="1" fill="#000000"/>
    <rect x="3" y="80" width="4" height="1" fill="#000000"/>
    <rect x="396" y="80" width="4" height="1" fill="#000000"/>
    <rect x="3" y="81" width="4" height="1" fill="#000000"/>
    <rect x="396" y="81" width="4" height="1" fill="#000000"/>
    <rect x="3" y="82" width="4" height="1" fill="#000000"/>
    <rect x="396" y="82" width="4" height="1" fill="#000000"/>
    <rect x="3" y="83" width="4" height="1" fill="#000000"/>
    <rect x="396" y="83" width="4" height="1" fill="#000000"/>
    <rect x="3" y="84" width="4" height="1" fill="#000000"/>
    <rect x="396" y="84" width="4" height="1" fill="#000000"/>
    <rect x="3" y="85" width="4" height="1" fill="#000000"/>
    <rect x="396" y="85" width="4" height="1" fill="#000000"/>
    <rect x="3" y="86" width="4" height="1" fill="#000000"/>
    <rect x="396" y="86" width="4" height="1" fill="#000000"/>
    <rect x="3" y="87" width="4" height="1" fill="#000000"/>
    <rect x="396" y="87" width="4" height="1" fill="#000000"/>
    <rect x="3" y="88" width="4" height="1" fill="#000000"/>
    <rect x="396" y="88" width="4" height="1" fill="#000000"/>
    <rect x="3" y="89" width="4" height="1" fill="#000000"/>
    <rect x="396" y="89" width="4" height="1" fill="#000000"/>
    <rect x="3" y="90" width="4" height="1" fill="#000000"/>
    <rect x="396" y="90" width="4" height="1" fill="#000000"/>
    <rect x="3" y="91" width="4" height="1" fill="#000000"/>
    <rect x="396" y="91" width="4" height="1" fill="#000000"/>
    <rect x="3" y="92" width="4" height="1" fill="#000000"/>
    <rect x="396" y="92" width="4" height="1" fill="#000000"/>
    <rect x="3" y="93" width="4" height="1" fill="#000000"/>
    <rect x="396" y="93" width="4" height="1" fill="#000000"/>
    <rect x="3" y="94" width="4" height="1" fill="#000000"/>
    <rect x="396" y="94" width="4" height="1" fill="#000000"/>
    <rect x="3" y="95" width="4" height="1" fill="#000000"/>
    <rect x="396" y="95" width="4" height="1" fill="#000000"/>
    <rect x="3" y="96" width="4" height="1" fill="#000000"/>
    <rect x="396" y="96" width="4" height="1" fill="#000000"/>
    <rect x="3" y="97" width="4" height="1" fill="#000000"/>
    <rect x="396" y="97" width="4" height="1" fill="#000000"/>
    <rect x="3" y="98" width="4" height="1" fill="#000000"/>
    <rect x="396" y="98" width="4" height="1" fill="#000000"/>
    <rect x="3" y="99" width="4" height="1" fill="#000000"/>
    <rect x="396" y="99" width="4" height="1" fill="#000000"/>
    <rect x="3" y="100" width="4" height="1" fill="#000000"/>
    <rect x="396" y="100" width="4" height="1" fill="#000000"/>
    <rect x="3" y="101" width="4" height="1" fill="#000000"/>
    <rect x="396" y="101" width="4" height="1" fill="#000000"/>
    <rect x="3" y="102" width="4" height="1" fill="#000000"/>
    <rect x="396" y="102" width="4" height="1" fill="#000000"/>
    <rect x="3" y="103" width="4" height="1" fill="#000000"/>
    <rect x="396" y="103" width="4" height="1" fill="#000000"/>
    <rect x="3" y="104" width="4" height="1" fill="#000000"/>
    <rect x="396" y="104" width="4" height="1" fill="#000000"/>
    <rect x="3" y="105" width="4" height="1" fill="#000000"/>
    <rect x="396" y="105" width="4" height="1" fill="#000000"/>
    <rect x="3" y="106" width="4" height="1" fill="#000000"/>
    <rect x="396" y="106" width="4" height="1" fill="#000000"/>
    <rect x="3" y="107" width="4" height="1" fill="#000000"/>
    <rect x="396" y="107" width="4" height="1" fill="#000000"/>
    <rect x="3" y="108" width="4" height="1" fill="#000000"/>
    <rect x="396" y="108" width="4" height="1" fill="#000000"/>
    <rect x="3" y="109" width="4" height="1" fill="#000000"/>
    <rect x="396" y="109" width="4" height="1" fill="#000000"/>
    <rect x="3" y="110" width="4" height="1" fill="#000000"/>
    <rect x="396" y="110" width="4" height="1" fill="#000000"/>
    <rect x="3" y="111" width="4" height="1" fill="#000000"/>
    <rect x="396" y="111" width="4" height="1" fill="#000000"/>
    <rect x="3" y="112" width="4" height="1" fill="#000000"/>
    <rect x="396" y="112" width="4" height="1" fill="#000000"/>
    <rect x="3" y="113" width="4" height="1" fill="#000000"/>
    <rect x="396" y="113" width="4" height="1" fill="#000000"/>
    <rect x="3" y="114" width="4" height="1" fill="#000000"/>
    <rect x="396" y="114" width="4" height="1" fill="#000000"/>
    <rect x="3" y="115" width="4" height="1" fill="#000000"/>
    <rect x="396" y="115" width="4" height="1" fill="#000000"/>
    <rect x="3" y="116" width="4" height="1" fill="#000000"/>
    <rect x="396" y="116" width="4" height="1" fill="#000000"/>
    <rect x="3" y="117" width="4" height="1" fill="#000000"/>
    <rect x="396" y="117" width="4" height="1" fill="#000000"/>
    <rect x="3" y="118" width="4" height="1" fill="#000000"/>
    <rect x="396" y="118" width="4" height="1" fill="#000000"/>
    <rect x="3" y="119" width="4" height="1" fill="#000000"/>
    <rect x="396" y="119" width="4" height="1" fill="#000000"/>
    <rect x="3" y="120" width="4" height="1" fill="#000000"/>
    <rect x="396" y="120" width="4" height="1" fill="#000000"/>
    <rect x="3" y="121" width="4" height="1" fill="#000000"/>
    <rect x="396" y="121" width="4" height="1" fill="#000000"/>
    <rect x="3" y="122" width="4" height="1" fill="#000000"/>
    <rect x="396" y="122" width="4" height="1" fill="#000000"/>
    <rect x="3" y="123" width="4" height="1" fill="#000000"/>
    <rect x="396" y="123" width="4" height="1" fill="#000000"/>
    <rect x="3" y="124" width="4" height="1" fill="#000000"/>
    <rect x="396" y="124" width="4" height="1" fill="#000000"/>
    <rect x="3" y="125" width="4" height="1" fill="#000000"/>
    <rect x="396" y="125" width="4" height="1" fill="#000000"/>
    <rect x="3" y="126" width="4" height="1" fill="#000000"/>
    <rect x="396" y="126" width="4" height="1" fill="#000000"/>
    <rect x="3" y="127" width="4" height="1" fill="#000000"/>
    <rect x="396" y="127" width="4" height="1" fill="#000000"/>
    <rect x="3" y="128" width="4" height="1" fill="#000000"/>
    <rect x="396" y="128" width="4" height="1" fill="#000000"/>
    <rect x="3" y="129" width="4" height="1" fill="#000000"/>
    <rect x="396" y="129" width="4" height="1" fill="#000000"/>
    <rect x="3" y="130" width="4" height="1" fill="#000000"/>
    <rect x="396" y="130" width="4" height="1" fill="#000000"/>
    <rect x="3" y="131" width="4" height="1" fill="#000000"/>
    <rect x="396" y="131" width="4" height="1" fill="#000000"/>
    <rect x="3" y="132" width="4" height="1" fill="#000000"/>
    <rect x="396" y="132" width="4" height="1" fill="#000000"/>
    <rect x="3" y="133" width="4" height="1" fill="#000000"/>
    <rect x="396" y="133" width="4" height="1" fill="#000000"/>
    <rect x="3" y="134" width="4" height="1" fill="#000000"/>
    <rect x="396" y="134" width="4" height="1" fill="#000000"/>
    <rect x="3" y="135" width="4" height="1" fill="#000000"/>
    <rect x="396" y="135" width="4" height="1" fill="#000000"/>
    <rect x="3" y="136" width="4" height="1" fill="#000000"/>
    <rect x="396" y="136" width="4" height="1" fill="#000000"/>
    <rect x="3" y="137" width="4" height="1" fill="#000000"/>
    <rect x="396" y="137" width="4" height="1" fill="#000000"/>
    <rect x="3" y="138" width="4" height="1" fill="#000000"/>
    <rect x="396" y="138" width="4" height="1" fill="#000000"/>
    <rect x="3" y="139" width="4" height="1" fill="#000000"/>
    <rect x="396" y="139" width="4" height="1" fill="#000000"/>
    <rect x="3" y="140" width="4" height="1" fill="#000000"/>
    <rect x="396" y="140" width="4" height="1" fill="#000000"/>
    <rect x="3" y="141" width="4" height="1" fill="#000000"/>
    <rect x="396" y="141" width="4" height="1" fill="#000000"/>
    <rect x="3" y="142" width="4" height="1" fill="#000000"/>
    <rect x="396" y="142" width="4" height="1" fill="#000000"/>
    <rect x="3" y="143" width="4" height="1" fill="#000000"/>
    <rect x="396" y="143" width="4" height="1" fill="#000000"/>
    <rect x="3" y="144" width="4" height="1" fill="#000000"/>
    <rect x="396" y="144" width="4" height="1" fill="#000000"/>
    <rect x="3" y="145" width="4" height="1" fill="#000000"/>
    <rect x="396" y="145" width="4" height="1" fill="#000000"/>
    <rect x="3" y="146" width="4" height="1" fill="#000000"/>
    <rect x="396" y="146" width="4" height="1" fill="#000000"/>
    <rect x="3" y="147" width="4" height="1" fill="#000000"/>
    <rect x="396" y="147" width="4" height="1" fill="#000000"/>
    <rect x="3" y="148" width="4" height="1" fill="#000000"/>
    <rect x="396" y="148" width="4" height="1" fill="#000000"/>
    <rect x="3" y="149" width="4" height="1" fill="#000000"/>
    <rect x="396" y="149" width="4" height="1" fill="#000000"/>
    <rect x="3" y="150" width="4" height="1" fill="#000000"/>
    <rect x="396" y="150" width="4" height="1" fill="#000000"/>
    <rect x="3" y="151" width="4" height="1" fill="#000000"/>
    <rect x="396" y="151" width="4" height="1" fill="#000000"/>
    <rect x="3" y="152" width="4" height="1" fill="#000000"/>
    <rect x="396" y="152" width="4" height="1" fill="#000000"/>
    <rect x="3" y="153" width="4" height="1" fill="#000000"/>
    <rect x="396" y="153" width="4" height="1" fill="#000000"/>
    <rect x="3" y="154" width="4" height="1" fill="#000000"/>
    <rect x="396" y="154" width="4" height="1" fill="#000000"/>
    <rect x="3" y="155" width="4" height="1" fill="#000000"/>
    <rect x="396" y="155" width="4" height="1" fill="#000000"/>
    <rect x="3" y="156" width="4" height="1" fill="#000000"/>
    <rect x="396" y="156" width="4" height="1" fill="#000000"/>
    <rect x="3" y="157" width="4" height="1" fill="#000000"/>
    <rect x="396" y="157" width="4" height="1" fill="#000000"/>
    <rect x="3" y="158" width="4" height="1" fill="#000000"/>
    <rect x="396" y="158" width="4" height="1" fill="#000000"/>
    <rect x="3" y="159" width="4" height="1" fill="#000000"/>
    <rect x="396" y="159" width="4" height="1" fill="#000000"/>
    <rect x="3" y="160" width="4" height="1" fill="#000000"/>
    <rect x="396" y="160" width="4" height="1" fill="#000000"/>
    <rect x="3" y="161" width="4" height="1" fill="#000000"/>
    <rect x="396" y="161" width="4" height="1" fill="#000000"/>
    <rect x="3" y="162" width="4" height="1" fill="#000000"/>
    <rect x="396" y="162" width="4" height="1" fill="#000000"/>
    <rect x="3" y="163" width="4" height="1" fill="#000000"/>
    <rect x="396" y="163" width="4" height="1" fill="#000000"/>
    <rect x="3" y="164" width="4" height="1" fill="#000000"/>
    <rect x="396" y="164" width="4" height="1" fill="#000000"/>
    <rect x="3" y="165" width="4" height="1" fill="#000000"/>
    <rect x="396" y="165" width="4" height="1" fill="#000000"/>
    <rect x="3" y="166" width="4" height="1" fill="#000000"/>
    <rect x="396" y="166" width="4" height="1" fill="#000000"/>
    <rect x="3" y="167" width="4" height="1" fill="#000000"/>
    <rect x="396" y="167" width="4" height="1" fill="#000000"/>
    <rect x="3" y="168" width="4" height="1" fill="#000000"/>
    <rect x="396" y="168" width="4" height="1" fill="#000000"/>
    <rect x="3" y="169" width="4" height="1" fill="#000000"/>
    <rect x="396" y="169" width="4" height="1" fill="#000000"/>
    <rect x="3" y="170" width="4" height="1" fill="#000000"/>
    <rect x="396" y="170" width="4" height="1" fill="#000000"/>
    <rect x="3" y="171" width="4" height="1" fill="#000000"/>
    <rect x="396" y="171" width="4" height="1" fill="#000000"/>
    <rect x="3" y="172" width="4" height="1" fill="#000000"/>
    <rect x="396" y="172" width="4" height="1" fill="#000000"/>
    <rect x="3" y="173" width="4" height="1" fill="#000000"/>
    <rect x="396" y="173" width="4" height="1" fill="#000000"/>
    <rect x="3" y="174" width="4" height="1" fill="#000000"/>
    <rect x="396" y="174" width="4" height="1" fill="#000000"/>
    <rect x="3" y="175" width="4" height="1" fill="#000000"/>
    <rect x="396" y="175" width="4" height="1" fill="#000000"/>
    <rect x="3" y="176" width="4" height="1" fill="#000000"/>
    <rect x="396" y="176" width="4" height="1" fill="#000000"/>
    <rect x="3" y="177" width="4" height="1" fill="#000000"/>
    <rect x="396" y="177" width="4" height="1" fill="#000000"/>
    <rect x="3" y="178" width="4" height="1" fill="#000000"/>
    <rect x="396" y="178" width="4" height="1" fill="#000000"/>
    <rect x="3" y="179" width="4" height="1" fill="#000000"/>
    <rect x="396" y="179" width="4" height="1" fill="#000000"/>
    <rect x="3" y="180" width="4" height="1" fill="#000000"/>
    <rect x="396" y="180" width="4" height="1" fill="#000000"/>
    <rect x="3" y="181" width="4" height="1" fill="#000000"/>
    <rect x="396" y="181" width="4" height="1" fill="#000000"/>
    <rect x="3" y="182" width="4" height="1" fill="#000000"/>
    <rect x="396" y="182" width="4" height="1" fill="#000000"/>
    <rect x="3" y="183" width="4" height="1" fill="#000000"/>
    <rect x="396" y="183" width="4" height="1" fill="#000000"/>
    <rect x="3" y="184" width="4" height="1" fill="#000000"/>
    <rect x="396" y="184" width="4" height="1" fill="#000000"/>
    <rect x="3" y="185" width="4" height="1" fill="#000000"/>
    <rect x="396" y="185" width="4" height="1" fill="#000000"/>
    <rect x="3" y="186" width="4" height="1" fill="#000000"/>
    <rect x="396" y="186" width="4" height="1" fill="#000000"/>
    <rect x="3" y="187" width="4" height="1" fill="#000000"/>
    <rect x="396" y="187" width="4" height="1" fill="#000000"/>
    <rect x="3" y="188" width="4" height="1" fill="#000000"/>
    <rect x="396" y="188" width="4" height="1" fill="#000000"/>
    <rect x="3" y="189" width="4" height="1" fill="#000000"/>
    <rect x="396" y="189" width="4" height="1" fill="#000000"/>
    <rect x="3" y="190" width="4" height="1" fill="#000000"/>
    <rect x="396" y="190" width="4" height="1" fill="#000000"/>
    <rect x="3" y="191" width="4" height="1" fill="#000000"/>
    <rect x="396" y="191" width="4" height="1" fill="#000000"/>
    <rect x="3" y="192" width="4" height="1" fill="#000000"/>
    <rect x="396" y="192" width="4" height="1" fill="#000000"/>
    <rect x="3" y="193" width="4" height="1" fill="#000000"/>
    <rect x="396" y="193" width="4" height="1" fill="#000000"/>
    <rect x="3" y="194" width="4" height="1" fill="#000000"/>
    <rect x="396" y="194" width="4" height="1" fill="#000000"/>
    <rect x="3" y="195" width="4" height="1" fill="#000000"/>
    <rect x="396" y="195" width="4" height="1" fill="#000000"/>
    <rect x="3" y="196" width="4" height="1" fill="#000000"/>
    <rect x="396" y="196" width="4" height="1" fill="#000000"/>
    <rect x="3" y="197" width="4" height="1" fill="#000000"/>
    <rect x="396" y="197" width="4" height="1" fill="#000000"/>
    <rect x="3" y="198" width="4" height="1" fill="#000000"/>
    <rect x="396" y="198" width="4" height="1" fill="#000000"/>
    <rect x="3" y="199" width="4" height="1" fill="#000000"/>
    <rect x="396" y="199" width="4" height="1" fill="#000000"/>
    <rect x="3" y="200" width="4" height="1" fill="#000000"/>
    <rect x="396" y="200" width="4" height="1" fill="#000000"/>
    <rect x="3" y="201" width="4" height="1" fill="#000000"/>
    <rect x="396" y="201" width="4" height="1" fill="#000000"/>
    <rect x="3" y="202" width="4" height="1" fill="#000000"/>
    <rect x="396" y="202" width="4" height="1" fill="#000000"/>
    <rect x="3" y="203" width="4" height="1" fill="#000000"/>
    <rect x="396" y="203" width="4" height="1" fill="#000000"/>
    <rect x="3" y="204" width="4" height="1" fill="#000000"/>
    <rect x="396" y="204" width="4" height="1" fill="#000000"/>
    <rect x="3" y="205" width="4" height="1" fill="#000000"/>
    <rect x="396" y="205" width="4" height="1" fill="#000000"/>
    <rect x="3" y="206" width="4" height="1" fill="#000000"/>
    <rect x="396" y="206" width="4" height="1" fill="#000000"/>
    <rect x="3" y="207" width="4" height="1" fill="#000000"/>
    <rect x="396" y="207" width="4" height="1" fill="#000000"/>
    <rect x="3" y="208" width="4" height="1" fill="#000000"/>
    <rect x="396" y="208" width="4" height="1" fill="#000000"/>
    <rect x="3" y="209" width="4" height="1" fill="#000000"/>
    <rect x="396" y="209" width="4" height="1" fill="#000000"/>
    <rect x="3" y="210" width="4" height="1" fill="#000000"/>
    <rect x="396" y="210" width="4" height="1" fill="#000000"/>
    <rect x="3" y="211" width="4" height="1" fill="#000000"/>
    <rect x="396" y="211" width="4" height="1" fill="#000000"/>
    <rect x="3" y="212" width="4" height="1" fill="#000000"/>
    <rect x="396" y="212" width="4" height="1" fill="#000000"/>
    <rect x="3" y="213" width="4" height="1" fill="#000000"/>
    <rect x="396" y="213" width="4" height="1" fill="#000000"/>
    <rect x="3" y="214" width="4" height="1" fill="#000000"/>
    <rect x="396" y="214" width="4" height="1" fill="#000000"/>
    <rect x="3" y="215" width="4" height="1" fill="#000000"/>
    <rect x="396" y="215" width="4" height="1" fill="#000000"/>
    <rect x="3" y="216" width="4" height="1" fill="#000000"/>
    <rect x="396" y="216" width="4" height="1" fill="#000000"/>
    <rect x="3" y="217" width="4" height="1" fill="#000000"/>
    <rect x="396" y="217" width="4" height="1" fill="#000000"/>
    <rect x="3" y="218" width="4" height="1" fill="#000000"/>
    <rect x="396" y="218" width="4" height="1" fill="#000000"/>
    <rect x="3" y="219" width="4" height="1" fill="#000000"/>
    <rect x="396" y="219" width="4" height="1" fill="#000000"/>
    <rect x="3" y="220" width="4" height="1" fill="#000000"/>
    <rect x="396" y="220" width="4" height="1" fill="#000000"/>
    <rect x="3" y="221" width="4" height="1" fill="#000000"/>
    <rect x="396" y="221" width="4" height="1" fill="#000000"/>
    <rect x="3" y="222" width="4" height="1" fill="#000000"/>
    <rect x="396" y="222" width="4" height="1" fill="#000000"/>
    <rect x="3" y="223" width="4" height="1" fill="#000000"/>
    <rect x="396" y="223" width="4" height="1" fill="#000000"/>
    <rect x="3" y="224" width="4" height="1" fill="#000000"/>
    <rect x="396" y="224" width="4" height="1" fill="#000000"/>
    <rect x="3" y="225" width="4" height="1" fill="#000000"/>
    <rect x="396" y="225" width="4" height="1" fill="#000000"/>
    <rect x="3" y="226" width="4" height="1" fill="#000000"/>
    <rect x="396" y="226" width="4" height="1" fill="#000000"/>
    <rect x="3" y="227" width="4" height="1" fill="#000000"/>
    <rect x="396" y="227" width="4" height="1" fill="#000000"/>
    <rect x="3" y="228" width="4" height="1" fill="#000000"/>
    <rect x="396" y="228" width="4" height="1" fill="#000000"/>
    <rect x="3" y="229" width="4" height="1" fill="#000000"/>
    <rect x="396" y="229" width="4" height="1" fill="#000000"/>
    <rect x="3" y="230" width="4" height="1" fill="#000000"/>
    <rect x="396" y="230" width="4" height="1" fill="#000000"/>
    <rect x="3" y="231" width="4" height="1" fill="#000000"/>
    <rect x="396" y="231" width="4" height="1" fill="#000000"/>
    <rect x="3" y="232" width="4" height="1" fill="#000000"/>
    <rect x="396" y="232" width="4" height="1" fill="#000000"/>
    <rect x="3" y="233" width="4" height="1" fill="#000000"/>
    <rect x="396" y="233" width="4" height="1" fill="#000000"/>
    <rect x="3" y="234" width="4" height="1" fill="#000000"/>
    <rect x="396" y="234" width="4" height="1" fill="#000000"/>
    <rect x="3" y="235" width="4" height="1" fill="#000000"/>
    <rect x="396" y="235" width="4" height="1" fill="#000000"/>
    <rect x="3" y="236" width="4" height="1" fill="#000000"/>
    <rect x="396" y="236" width="4" height="1" fill="#000000"/>
    <rect x="3" y="237" width="4" height="1" fill="#000000"/>
    <rect x="396" y="237" width="4" height="1" fill="#000000"/>
    <rect x="3" y="238" width="4" height="1" fill="#000000"/>
    <rect x="396" y="238" width="4" height="1" fill="#000000"/>
    <rect x="3" y="239" width="4" height="1" fill="#000000"/>
    <rect x="396" y="239" width="4" height="1" fill="#000000"/>
    <rect x="3" y="240" width="4" height="1" fill="#000000"/>
    <rect x="396" y="240" width="4" height="1" fill="#000000"/>
    <rect x="3" y="241" width="4" height="1" fill="#000000"/>
    <rect x="396" y="241" width="4" height="1" fill="#000000"/>
    <rect x="3" y="242" width="4" height="1" fill="#000000"/>
    <rect x="396" y="242" width="4" height="1" fill="#000000"/>
    <rect x="3" y="243" width="4" height="1" fill="#000000"/>
    <rect x="396" y="243" width="4" height="1" fill="#000000"/>
    <rect x="3" y="244" width="4" height="1" fill="#000000"/>
    <rect x="396" y="244" width="4" height="1" fill="#000000"/>
    <rect x="3" y="245" width="4" height="1" fill="#000000"/>
    <rect x="396" y="245" width="4" height="1" fill="#000000"/>
    <rect x="3" y="246" width="4" height="1" fill="#000000"/>
    <rect x="396" y="246" width="4" height="1" fill="#000000"/>
    <rect x="3" y="247" width="4" height="1" fill="#000000"/>
    <rect x="396" y="247" width="4" height="1" fill="#000000"/>
    <rect x="3" y="248" width="4" height="1" fill="#000000"/>
    <rect x="396" y="248" width="4" height="1" fill="#000000"/>
    <rect x="3" y="249" width="4" height="1" fill="#000000"/>
    <rect x="396" y="249" width="4" height="1" fill="#000000"/>
    <rect x="3" y="250" width="4" height="1" fill="#000000"/>
    <rect x="396" y="250" width="4" height="1" fill="#000000"/>
    <rect x="3" y="251" width="4" height="1" fill="#000000"/>
    <rect x="396" y="251" width="4" height="1" fill="#000000"/>
    <rect x="3" y="252" width="4" height="1" fill="#000000"/>
    <rect x="396" y="252" width="4" height="1" fill="#000000"/>
    <rect x="3" y="253" width="4" height="1" fill="#000000"/>
    <rect x="396" y="253" width="4" height="1" fill="#000000"/>
    <rect x="3" y="254" width="397" height="1" fill="#000000"/>
    <rect x="3" y="255" width="397" height="1" fill="#000000"/>
    <rect x="3" y="256" width="397" height="1" fill="#000000"/>
    <rect x="4" y="257" width="396" height="1" fill="#000000"/>
  </g>
</svg>