<?xml version="1.0" encoding="UTF-8"?>
<svg xmlns="http://www.w3.org/2000/svg" viewBox="0 0 134 54" width="134" height="54">
  <!-- Auto-converted from legend-928.png -->
  <rect x="0" y="0" width="134" height="54" fill="none"/>
  <g fill="#231f20" stroke="none">
    <rect x="0" y="0" width="134" height="1" fill="#231f20"/>
    <rect x="0" y="1" width="1" height="1" fill="#231f20"/>
    <rect x="133" y="1" width="1" height="1" fill="#231f20"/>
    <rect x="0" y="2" width="1" height="1" fill="#231f20"/>
    <rect x="133" y="2" width="1" height="1" fill="#231f20"/>
    <rect x="0" y="3" width="1" height="1" fill="#231f20"/>
    <rect x="133" y="3" width="1" height="1" fill="#231f20"/>
    <rect x="0" y="4" width="1" height="1" fill="#231f20"/>
    <rect x="133" y="4" width="1" height="1" fill="#231f20"/>
    <rect x="0" y="5" width="1" height="1" fill="#231f20"/>
    <rect x="133" y="5" width="1" height="1" fill="#231f20"/>
    <rect x="0" y="6" width="1" height="1" fill="#231f20"/>
    <rect x="133" y="6" width="1" height="1" fill="#231f20"/>
    <rect x="0" y="7" width="1" height="1" fill="#231f20"/>
    <rect x="52" y="7" width="3" height="1" fill="#231f20"/>
    <rect x="105" y="7" width="4" height="1" fill="#231f20"/>
    <rect x="133" y="7" width="1" height="1" fill="#231f20"/>
    <rect x="0" y="8" width="1" height="1" fill="#231f20"/>
    <rect x="25" y="8" width="3" height="1" fill="#231f20"/>
    <rect x="51" y="8" width="1" height="1" fill="#231f20"/>
    <rect x="55" y="8" width="1" height="1" fill="#231f20"/>
    <rect x="79" y="8" width="3" height="1" fill="#231f20"/>
    <rect x="105" y="8" width="1" height="1" fill="#231f20"/>
    <rect x="108" y="8" width="1" height="1" fill="#231f20"/>
    <rect x="133" y="8" width="1" height="1" fill="#231f20"/>
    <rect x="0" y="9" width="1" height="1" fill="#231f20"/>
    <rect x="25" y="9" width="4" height="1" fill="#231f20"/>
    <rect x="51" y="9" width="1" height="1" fill="#231f20"/>
    <rect x="55" y="9" width="1" height="1" fill="#231f20"/>
    <rect x="79" y="9" width="3" height="1" fill="#231f20"/>
    <rect x="105" y="9" width="1" height="1" fill="#231f20"/>
    <rect x="108" y="9" width="1" height="1" fill="#231f20"/>
    <rect x="133" y="9" width="1" height="1" fill="#231f20"/>
    <rect x="0" y="10" width="1" height="1" fill="#231f20"/>
    <rect x="26" y="10" width="2" height="1" fill="#231f20"/>
    <rect x="52" y="10" width="1" height="1" fill="#231f20"/>
    <rect x="54" y="10" width="1" height="1" fill="#231f20"/>
    <rect x="79" y="10" width="2" height="1" fill="#231f20"/>
    <rect x="105" y="10" width="4" height="1" fill="#231f20"/>
    <rect x="133" y="10" width="1" height="1" fill="#231f20"/>
    <rect x="0" y="11" width="1" height="1" fill="#231f20"/>
    <rect x="53" y="11" width="1" height="1" fill="#231f20"/>
    <rect x="106" y="11" width="1" height="1" fill="#231f20"/>
    <rect x="133" y="11" width="1" height="1" fill="#231f20"/>
    <rect x="0" y="12" width="1" height="1" fill="#231f20"/>
    <rect x="133" y="12" width="1" height="1" fill="#231f20"/>
    <rect x="0" y="13" width="1" height="1" fill="#231f20"/>
    <rect x="133" y="13" width="1" height="1" fill="#231f20"/>
    <rect x="0" y="14" width="1" height="1" fill="#231f20"/>
    <rect x="133" y="14" width="1" height="1" fill="#231f20"/>
    <rect x="0" y="15" width="1" height="1" fill="#231f20"/>
    <rect x="133" y="15" width="1" height="1" fill="#231f20"/>
    <rect x="0" y="16" width="1" height="1" fill="#231f20"/>
    <rect x="133" y="16" width="1" height="1" fill="#231f20"/>
    <rect x="0" y="17" width="1" height="1" fill="#231f20"/>
    <rect x="133" y="17" width="1" height="1" fill="#231f20"/>
    <rect x="0" y="18" width="134" height="1" fill="#231f20"/>
    <rect x="0" y="19" width="1" height="1" fill="#231f20"/>
    <rect x="133" y="19" width="1" height="1" fill="#231f20"/>
    <rect x="0" y="20" width="1" height="1" fill="#231f20"/>
    <rect x="133" y="20" width="1" height="1" fill="#231f20"/>
    <rect x="0" y="21" width="1" height="1" fill="#231f20"/>
    <rect x="133" y="21" width="1" height="1" fill="#231f20"/>
    <rect x="0" y="22" width="1" height="1" fill="#231f20"/>
    <rect x="133" y="22" width="1" height="1" fill="#231f20"/>
    <rect x="0" y="23" width="1" height="1" fill="#231f20"/>
    <rect x="133" y="23" width="1" height="1" fill="#231f20"/>
    <rect x="0" y="24" width="1" height="1" fill="#231f20"/>
    <rect x="133" y="24" width="1" height="1" fill="#231f20"/>
    <rect x="0" y="25" width="1" height="1" fill="#231f20"/>
    <rect x="25" y="25" width="4" height="1" fill="#231f20"/>
    <rect x="79" y="25" width="3" height="1" fill="#231f20"/>
    <rect x="133" y="25" width="1" height="1" fill="#231f20"/>
    <rect x="0" y="26" width="1" height="1" fill="#231f20"/>
    <rect x="25" y="26" width="1" height="1" fill="#231f20"/>
    <rect x="28" y="26" width="1" height="1" fill="#231f20"/>
    <rect x="52" y="26" width="3" height="1" fill="#231f20"/>
    <rect x="78" y="26" width="1" height="1" fill="#231f20"/>
    <rect x="81" y="26" width="1" height="1" fill="#231f20"/>
    <rect x="106" y="26" width="2" height="1" fill="#231f20"/>
    <rect x="133" y="26" width="1" height="1" fill="#231f20"/>
    <rect x="0" y="27" width="1" height="1" fill="#231f20"/>
    <rect x="25" y="27" width="1" height="1" fill="#231f20"/>
    <rect x="28" y="27" width="1" height="1" fill="#231f20"/>
    <rect x="52" y="27" width="3" height="1" fill="#231f20"/>
    <rect x="78" y="27" width="1" height="1" fill="#231f20"/>
    <rect x="81" y="27" width="2" height="1" fill="#231f20"/>
    <rect x="105" y="27" width="4" height="1" fill="#231f20"/>
    <rect x="133" y="27" width="1" height="1" fill="#231f20"/>
    <rect x="0" y="28" width="1" height="1" fill="#231f20"/>
    <rect x="25" y="28" width="4" height="1" fill="#231f20"/>
    <rect x="53" y="28" width="2" height="1" fill="#231f20"/>
    <rect x="79" y="28" width="3" height="1" fill="#231f20"/>
    <rect x="106" y="28" width="2" height="1" fill="#231f20"/>
    <rect x="133" y="28" width="1" height="1" fill="#231f20"/>
    <rect x="0" y="29" width="1" height="1" fill="#231f20"/>
    <rect x="133" y="29" width="1" height="1" fill="#231f20"/>
    <rect x="0" y="30" width="1" height="1" fill="#231f20"/>
    <rect x="133" y="30" width="1" height="1" fill="#231f20"/>
    <rect x="0" y="31" width="1" height="1" fill="#231f20"/>
    <rect x="133" y="31" width="1" height="1" fill="#231f20"/>
    <rect x="0" y="32" width="1" height="1" fill="#231f20"/>
    <rect x="133" y="32" width="1" height="1" fill="#231f20"/>
    <rect x="0" y="33" width="1" height="1" fill="#231f20"/>
    <rect x="133" y="33" width="1" height="1" fill="#231f20"/>
    <rect x="0" y="34" width="1" height="1" fill="#231f20"/>
    <rect x="133" y="34" width="1" height="1" fill="#231f20"/>
    <rect x="0" y="35" width="1" height="1" fill="#231f20"/>
    <rect x="133" y="35" width="1" height="1" fill="#231f20"/>
    <rect x="0" y="36" width="134" height="1" fill="#231f20"/>
    <rect x="0" y="37" width="1" height="1" fill="#231f20"/>
    <rect x="133" y="37" width="1" height="1" fill="#231f20"/>
    <rect x="0" y="38" width="1" height="1" fill="#231f20"/>
    <rect x="133" y="38" width="1" height="1" fill="#231f20"/>
    <rect x="0" y="39" width="1" height="1" fill="#231f20"/>
    <rect x="133" y="39" width="1" height="1" fill="#231f20"/>
    <rect x="0" y="40" width="1" height="1" fill="#231f20"/>
    <rect x="133" y="40" width="1" height="1" fill="#231f20"/>
    <rect x="0" y="41" width="1" height="1" fill="#231f20"/>
    <rect x="133" y="41" width="1" height="1" fill="#231f20"/>
    <rect x="0" y="42" width="1" height="1" fill="#231f20"/>
    <rect x="133" y="42" width="1" height="1" fill="#231f20"/>
    <rect x="0" y="43" width="1" height="1" fill="#231f20"/>
    <rect x="26" y="43" width="2" height="1" fill="#231f20"/>
    <rect x="52" y="43" width="3" height="1" fill="#231f20"/>
    <rect x="79" y="43" width="2" height="1" fill="#231f20"/>
    <rect x="105" y="43" width="4" height="1" fill="#231f20"/>
    <rect x="133" y="43" width="1" height="1" fill="#231f20"/>
    <rect x="0" y="44" width="1" height="1" fill="#231f20"/>
    <rect x="25" y="44" width="4" height="1" fill="#231f20"/>
    <rect x="51" y="44" width="1" height="1" fill="#231f20"/>
    <rect x="55" y="44" width="1" height="1" fill="#231f20"/>
    <rect x="79" y="44" width="3" height="1" fill="#231f20"/>
    <rect x="105" y="44" width="1" height="1" fill="#231f20"/>
    <rect x="108" y="44" width="1" height="1" fill="#231f20"/>
    <rect x="133" y="44" width="1" height="1" fill="#231f20"/>
    <rect x="0" y="45" width="1" height="1" fill="#231f20"/>
    <rect x="25" y="45" width="3" height="1" fill="#231f20"/>
    <rect x="51" y="45" width="1" height="1" fill="#231f20"/>
    <rect x="55" y="45" width="1" height="1" fill="#231f20"/>
    <rect x="79" y="45" width="3" height="1" fill="#231f20"/>
    <rect x="105" y="45" width="1" height="1" fill="#231f20"/>
    <rect x="108" y="45" width="1" height="1" fill="#231f20"/>
    <rect x="133" y="45" width="1" height="1" fill="#231f20"/>
    <rect x="0" y="46" width="1" height="1" fill="#231f20"/>
    <rect x="26" y="46" width="1" height="1" fill="#231f20"/>
    <rect x="52" y="46" width="3" height="1" fill="#231f20"/>
    <rect x="80" y="46" width="1" height="1" fill="#231f20"/>
    <rect x="105" y="46" width="4" height="1" fill="#231f20"/>
    <rect x="133" y="46" width="1" height="1" fill="#231f20"/>
    <rect x="0" y="47" width="1" height="1" fill="#231f20"/>
    <rect x="133" y="47" width="1" height="1" fill="#231f20"/>
    <rect x="0" y="48" width="1" height="1" fill="#231f20"/>
    <rect x="133" y="48" width="1" height="1" fill="#231f20"/>
    <rect x="0" y="49" width="1" height="1" fill="#231f20"/>
    <rect x="133" y="49" width="1" height="1" fill="#231f20"/>
    <rect x="0" y="50" width="1" height="1" fill="#231f20"/>
    <rect x="133" y="50" width="1" height="1" fill="#231f20"/>
    <rect x="0" y="51" width="1" height="1" fill="#231f20"/>
    <rect x="133" y="51" width="1" height="1" fill="#231f20"/>
    <rect x="0" y="52" width="1" height="1" fill="#231f20"/>
    <rect x="133" y="52" width="1" height="1" fill="#231f20"/>
    <rect x="0" y="53" width="134" height="1" fill="#231f20"/>
  </g>
</svg>