<?xml version="1.0" encoding="UTF-8"?>
<svg xmlns="http://www.w3.org/2000/svg" viewBox="0 0 172 69" width="172" height="69">
  <!-- Auto-converted from legend-660.png -->
  <rect x="0" y="0" width="172" height="69" fill="none"/>
  <g fill="#a82f20" stroke="none">
    <rect x="0" y="0" width="172" height="1" fill="#a82f20"/>
    <rect x="0" y="1" width="169" height="1" fill="#a82f20"/>
    <rect x="171" y="1" width="1" height="1" fill="#a82f20"/>
    <rect x="0" y="2" width="164" height="1" fill="#a82f20"/>
    <rect x="171" y="2" width="1" height="1" fill="#a82f20"/>
    <rect x="0" y="3" width="159" height="1" fill="#a82f20"/>
    <rect x="171" y="3" width="1" height="1" fill="#a82f20"/>
    <rect x="0" y="4" width="154" height="1" fill="#a82f20"/>
    <rect x="171" y="4" width="1" height="1" fill="#a82f20"/>
    <rect x="0" y="5" width="149" height="1" fill="#a82f20"/>
    <rect x="171" y="5" width="1" height="1" fill="#a82f20"/>
    <rect x="0" y="6" width="144" height="1" fill="#a82f20"/>
    <rect x="171" y="6" width="1" height="1" fill="#a82f20"/>
    <rect x="0" y="7" width="139" height="1" fill="#a82f20"/>
    <rect x="171" y="7" width="1" height="1" fill="#a82f20"/>
    <rect x="0" y="8" width="134" height="1" fill="#a82f20"/>
    <rect x="171" y="8" width="1" height="1" fill="#a82f20"/>
    <rect x="0" y="9" width="129" height="1" fill="#a82f20"/>
    <rect x="171" y="9" width="1" height="1" fill="#a82f20"/>
    <rect x="0" y="10" width="124" height="1" fill="#a82f20"/>
    <rect x="171" y="10" width="1" height="1" fill="#a82f20"/>
    <rect x="0" y="11" width="119" height="1" fill="#a82f20"/>
    <rect x="171" y="11" width="1" height="1" fill="#a82f20"/>
    <rect x="0" y="12" width="114" height="1" fill="#a82f20"/>
    <rect x="171" y="12" width="1" height="1" fill="#a82f20"/>
    <rect x="0" y="13" width="109" height="1" fill="#a82f20"/>
    <rect x="171" y="13" width="1" height="1" fill="#a82f20"/>
    <rect x="0" y="14" width="104" height="1" fill="#a82f20"/>
    <rect x="171" y="14" width="1" height="1" fill="#a82f20"/>
    <rect x="0" y="15" width="99" height="1" fill="#a82f20"/>
    <rect x="171" y="15" width="1" height="1" fill="#a82f20"/>
    <rect x="0" y="16" width="94" height="1" fill="#a82f20"/>
    <rect x="171" y="16" width="1" height="1" fill="#a82f20"/>
    <rect x="0" y="17" width="89" height="1" fill="#a82f20"/>
    <rect x="171" y="17" width="1" height="1" fill="#a82f20"/>
    <rect x="0" y="18" width="83" height="1" fill="#a82f20"/>
    <rect x="171" y="18" width="1" height="1" fill="#a82f20"/>
    <rect x="0" y="19" width="78" height="1" fill="#a82f20"/>
    <rect x="171" y="19" width="1" height="1" fill="#a82f20"/>
    <rect x="0" y="20" width="73" height="1" fill="#a82f20"/>
    <rect x="171" y="20" width="1" height="1" fill="#a82f20"/>
    <rect x="0" y="21" width="68" height="1" fill="#a82f20"/>
    <rect x="171" y="21" width="1" height="1" fill="#a82f20"/>
    <rect x="0" y="22" width="63" height="1" fill="#a82f20"/>
    <rect x="171" y="22" width="1" height="1" fill="#a82f20"/>
    <rect x="0" y="23" width="58" height="1" fill="#a82f20"/>
    <rect x="171" y="23" width="1" height="1" fill="#a82f20"/>
    <rect x="0" y="24" width="53" height="1" fill="#a82f20"/>
    <rect x="171" y="24" width="1" height="1" fill="#a82f20"/>
    <rect x="0" y="25" width="48" height="1" fill="#a82f20"/>
    <rect x="171" y="25" width="1" height="1" fill="#a82f20"/>
    <rect x="0" y="26" width="43" height="1" fill="#a82f20"/>
    <rect x="171" y="26" width="1" height="1" fill="#a82f20"/>
    <rect x="0" y="27" width="38" height="1" fill="#a82f20"/>
    <rect x="171" y="27" width="1" height="1" fill="#a82f20"/>
    <rect x="0" y="28" width="33" height="1" fill="#a82f20"/>
    <rect x="171" y="28" width="1" height="1" fill="#a82f20"/>
    <rect x="0" y="29" width="28" height="1" fill="#a82f20"/>
    <rect x="171" y="29" width="1" height="1" fill="#a82f20"/>
    <rect x="0" y="30" width="23" height="1" fill="#a82f20"/>
    <rect x="171" y="30" width="1" height="1" fill="#a82f20"/>
    <rect x="0" y="31" width="18" height="1" fill="#a82f20"/>
    <rect x="171" y="31" width="1" height="1" fill="#a82f20"/>
    <rect x="0" y="32" width="13" height="1" fill="#a82f20"/>
    <rect x="171" y="32" width="1" height="1" fill="#a82f20"/>
    <rect x="0" y="33" width="8" height="1" fill="#a82f20"/>
    <rect x="171" y="33" width="1" height="1" fill="#a82f20"/>
    <rect x="0" y="34" width="3" height="1" fill="#a82f20"/>
    <rect x="171" y="34" width="1" height="1" fill="#a82f20"/>
    <rect x="0" y="35" width="8" height="1" fill="#a82f20"/>
    <rect x="171" y="35" width="1" height="1" fill="#a82f20"/>
    <rect x="0" y="36" width="13" height="1" fill="#a82f20"/>
    <rect x="171" y="36" width="1" height="1" fill="#a82f20"/>
    <rect x="0" y="37" width="18" height="1" fill="#a82f20"/>
    <rect x="171" y="37" width="1" height="1" fill="#a82f20"/>
    <rect x="0" y="38" width="23" height="1" fill="#a82f20"/>
    <rect x="171" y="38" width="1" height="1" fill="#a82f20"/>
    <rect x="0" y="39" width="28" height="1" fill="#a82f20"/>
    <rect x="171" y="39" width="1" height="1" fill="#a82f20"/>
    <rect x="0" y="40" width="33" height="1" fill="#a82f20"/>
    <rect x="171" y="40" width="1" height="1" fill="#a82f20"/>
    <rect x="0" y="41" width="38" height="1" fill="#a82f20"/>
    <rect x="171" y="41" width="1" height="1" fill="#a82f20"/>
    <rect x="0" y="42" width="43" height="1" fill="#a82f20"/>
    <rect x="171" y="42" width="1" height="1" fill="#a82f20"/>
    <rect x="0" y="43" width="48" height="1" fill="#a82f20"/>
    <rect x="171" y="43" width="1" height="1" fill="#a82f20"/>
    <rect x="0" y="44" width="53" height="1" fill="#a82f20"/>
    <rect x="171" y="44" width="1" height="1" fill="#a82f20"/>
    <rect x="0" y="45" width="58" height="1" fill="#a82f20"/>
    <rect x="171" y="45" width="1" height="1" fill="#a82f20"/>
    <rect x="0" y="46" width="63" height="1" fill="#a82f20"/>
    <rect x="171" y="46" width="1" height="1" fill="#a82f20"/>
    <rect x="0" y="47" width="68" height="1" fill="#a82f20"/>
    <rect x="171" y="47" width="1" height="1" fill="#a82f20"/>
    <rect x="0" y="48" width="73" height="1" fill="#a82f20"/>
    <rect x="171" y="48" width="1" height="1" fill="#a82f20"/>
    <rect x="0" y="49" width="78" height="1" fill="#a82f20"/>
    <rect x="171" y="49" width="1" height="1" fill="#a82f20"/>
    <rect x="0" y="50" width="83" height="1" fill="#a82f20"/>
    <rect x="171" y="50" width="1" height="1" fill="#a82f20"/>
    <rect x="0" y="51" width="89" height="1" fill="#a82f20"/>
    <rect x="171" y="51" width="1" height="1" fill="#a82f20"/>
    <rect x="0" y="52" width="94" height="1" fill="#a82f20"/>
    <rect x="171" y="52" width="1" height="1" fill="#a82f20"/>
    <rect x="0" y="53" width="99" height="1" fill="#a82f20"/>
    <rect x="171" y="53" width="1" height="1" fill="#a82f20"/>
    <rect x="0" y="54" width="104" height="1" fill="#a82f20"/>
    <rect x="171" y="54" width="1" height="1" fill="#a82f20"/>
    <rect x="0" y="55" width="109" height="1" fill="#a82f20"/>
    <rect x="171" y="55" width="1" height="1" fill="#a82f20"/>
    <rect x="0" y="56" width="114" height="1" fill="#a82f20"/>
    <rect x="171" y="56" width="1" height="1" fill="#a82f20"/>
    <rect x="0" y="57" width="119" height="1" fill="#a82f20"/>
    <rect x="171" y="57" width="1" height="1" fill="#a82f20"/>
    <rect x="0" y="58" width="124" height="1" fill="#a82f20"/>
    <rect x="171" y="58" width="1" height="1" fill="#a82f20"/>
    <rect x="0" y="59" width="129" height="1" fill="#a82f20"/>
    <rect x="171" y="59" width="1" height="1" fill="#a82f20"/>
    <rect x="0" y="60" width="134" height="1" fill="#a82f20"/>
    <rect x="171" y="60" width="1" height="1" fill="#a82f20"/>
    <rect x="0" y="61" width="139" height="1" fill="#a82f20"/>
    <rect x="171" y="61" width="1" height="1" fill="#a82f20"/>
    <rect x="0" y="62" width="144" height="1" fill="#a82f20"/>
    <rect x="171" y="62" width="1" height="1" fill="#a82f20"/>
    <rect x="0" y="63" width="149" height="1" fill="#a82f20"/>
    <rect x="171" y="63" width="1" height="1" fill="#a82f20"/>
    <rect x="0" y="64" width="154" height="1" fill="#a82f20"/>
    <rect x="171" y="64" width="1" height="1" fill="#a82f20"/>
    <rect x="0" y="65" width="159" height="1" fill="#a82f20"/>
    <rect x="171" y="65" width="1" height="1" fill="#a82f20"/>
    <rect x="0" y="66" width="164" height="1" fill="#a82f20"/>
    <rect x="171" y="66" width="1" height="1" fill="#a82f20"/>
    <rect x="0" y="67" width="169" height="1" fill="#a82f20"/>
    <rect x="171" y="67" width="1" height="1" fill="#a82f20"/>
    <rect x="0" y="68" width="172" height="1" fill="#a82f20"/>
  </g>
</svg>