<?xml version="1.0" encoding="UTF-8"?>
<svg xmlns="http://www.w3.org/2000/svg" viewBox="0 0 153 62" width="153" height="62">
  <!-- Auto-converted from legend-1893.png -->
  <rect x="0" y="0" width="153" height="62" fill="none"/>
  <g fill="#231f20" stroke="none">
    <rect x="0" y="0" width="153" height="1" fill="#231f20"/>
    <rect x="0" y="1" width="1" height="1" fill="#231f20"/>
    <rect x="152" y="1" width="1" height="1" fill="#231f20"/>
    <rect x="0" y="2" width="1" height="1" fill="#231f20"/>
    <rect x="152" y="2" width="1" height="1" fill="#231f20"/>
    <rect x="0" y="3" width="1" height="1" fill="#231f20"/>
    <rect x="152" y="3" width="1" height="1" fill="#231f20"/>
    <rect x="0" y="4" width="1" height="1" fill="#231f20"/>
    <rect x="152" y="4" width="1" height="1" fill="#231f20"/>
    <rect x="0" y="5" width="1" height="1" fill="#231f20"/>
    <rect x="36" y="5" width="9" height="1" fill="#231f20"/>
    <rect x="79" y="5" width="1" height="1" fill="#231f20"/>
    <rect x="82" y="5" width="1" height="1" fill="#231f20"/>
    <rect x="100" y="5" width="1" height="1" fill="#231f20"/>
    <rect x="102" y="5" width="1" height="1" fill="#231f20"/>
    <rect x="152" y="5" width="1" height="1" fill="#231f20"/>
    <rect x="0" y="6" width="1" height="1" fill="#231f20"/>
    <rect x="16" y="6" width="1" height="1" fill="#231f20"/>
    <rect x="36" y="6" width="1" height="1" fill="#231f20"/>
    <rect x="44" y="6" width="1" height="1" fill="#231f20"/>
    <rect x="79" y="6" width="1" height="1" fill="#231f20"/>
    <rect x="82" y="6" width="1" height="1" fill="#231f20"/>
    <rect x="100" y="6" width="1" height="1" fill="#231f20"/>
    <rect x="102" y="6" width="1" height="1" fill="#231f20"/>
    <rect x="121" y="6" width="1" height="1" fill="#231f20"/>
    <rect x="152" y="6" width="1" height="1" fill="#231f20"/>
    <rect x="0" y="7" width="1" height="1" fill="#231f20"/>
    <rect x="14" y="7" width="5" height="1" fill="#231f20"/>
    <rect x="36" y="7" width="1" height="1" fill="#231f20"/>
    <rect x="44" y="7" width="1" height="1" fill="#231f20"/>
    <rect x="57" y="7" width="3" height="1" fill="#231f20"/>
    <rect x="61" y="7" width="3" height="1" fill="#231f20"/>
    <rect x="78" y="7" width="1" height="1" fill="#231f20"/>
    <rect x="83" y="7" width="1" height="1" fill="#231f20"/>
    <rect x="99" y="7" width="1" height="1" fill="#231f20"/>
    <rect x="103" y="7" width="1" height="1" fill="#231f20"/>
    <rect x="120" y="7" width="1" height="1" fill="#231f20"/>
    <rect x="122" y="7" width="1" height="1" fill="#231f20"/>
    <rect x="152" y="7" width="1" height="1" fill="#231f20"/>
    <rect x="0" y="8" width="1" height="1" fill="#231f20"/>
    <rect x="14" y="8" width="1" height="1" fill="#231f20"/>
    <rect x="18" y="8" width="1" height="1" fill="#231f20"/>
    <rect x="36" y="8" width="1" height="1" fill="#231f20"/>
    <rect x="44" y="8" width="1" height="1" fill="#231f20"/>
    <rect x="58" y="8" width="2" height="1" fill="#231f20"/>
    <rect x="61" y="8" width="2" height="1" fill="#231f20"/>
    <rect x="78" y="8" width="1" height="1" fill="#231f20"/>
    <rect x="83" y="8" width="1" height="1" fill="#231f20"/>
    <rect x="99" y="8" width="1" height="1" fill="#231f20"/>
    <rect x="103" y="8" width="1" height="1" fill="#231f20"/>
    <rect x="120" y="8" width="1" height="1" fill="#231f20"/>
    <rect x="122" y="8" width="1" height="1" fill="#231f20"/>
    <rect x="152" y="8" width="1" height="1" fill="#231f20"/>
    <rect x="0" y="9" width="1" height="1" fill="#231f20"/>
    <rect x="13" y="9" width="1" height="1" fill="#231f20"/>
    <rect x="19" y="9" width="1" height="1" fill="#231f20"/>
    <rect x="36" y="9" width="1" height="1" fill="#231f20"/>
    <rect x="44" y="9" width="1" height="1" fill="#231f20"/>
    <rect x="58" y="9" width="2" height="1" fill="#231f20"/>
    <rect x="61" y="9" width="2" height="1" fill="#231f20"/>
    <rect x="78" y="9" width="1" height="1" fill="#231f20"/>
    <rect x="84" y="9" width="1" height="1" fill="#231f20"/>
    <rect x="98" y="9" width="1" height="1" fill="#231f20"/>
    <rect x="104" y="9" width="1" height="1" fill="#231f20"/>
    <rect x="119" y="9" width="1" height="1" fill="#231f20"/>
    <rect x="123" y="9" width="1" height="1" fill="#231f20"/>
    <rect x="152" y="9" width="1" height="1" fill="#231f20"/>
    <rect x="0" y="10" width="1" height="1" fill="#231f20"/>
    <rect x="12" y="10" width="2" height="1" fill="#231f20"/>
    <rect x="19" y="10" width="2" height="1" fill="#231f20"/>
    <rect x="27" y="10" width="1" height="1" fill="#231f20"/>
    <rect x="36" y="10" width="1" height="1" fill="#231f20"/>
    <rect x="44" y="10" width="1" height="1" fill="#231f20"/>
    <rect x="58" y="10" width="2" height="1" fill="#231f20"/>
    <rect x="61" y="10" width="2" height="1" fill="#231f20"/>
    <rect x="77" y="10" width="1" height="1" fill="#231f20"/>
    <rect x="84" y="10" width="1" height="1" fill="#231f20"/>
    <rect x="98" y="10" width="1" height="1" fill="#231f20"/>
    <rect x="104" y="10" width="1" height="1" fill="#231f20"/>
    <rect x="119" y="10" width="1" height="1" fill="#231f20"/>
    <rect x="123" y="10" width="1" height="1" fill="#231f20"/>
    <rect x="152" y="10" width="1" height="1" fill="#231f20"/>
    <rect x="0" y="11" width="1" height="1" fill="#231f20"/>
    <rect x="20" y="11" width="1" height="1" fill="#231f20"/>
    <rect x="27" y="11" width="1" height="1" fill="#231f20"/>
    <rect x="36" y="11" width="1" height="1" fill="#231f20"/>
    <rect x="44" y="11" width="1" height="1" fill="#231f20"/>
    <rect x="58" y="11" width="1" height="1" fill="#231f20"/>
    <rect x="60" y="11" width="1" height="1" fill="#231f20"/>
    <rect x="62" y="11" width="1" height="1" fill="#231f20"/>
    <rect x="77" y="11" width="1" height="1" fill="#231f20"/>
    <rect x="84" y="11" width="1" height="1" fill="#231f20"/>
    <rect x="98" y="11" width="1" height="1" fill="#231f20"/>
    <rect x="104" y="11" width="1" height="1" fill="#231f20"/>
    <rect x="118" y="11" width="1" height="1" fill="#231f20"/>
    <rect x="124" y="11" width="1" height="1" fill="#231f20"/>
    <rect x="152" y="11" width="1" height="1" fill="#231f20"/>
    <rect x="0" y="12" width="1" height="1" fill="#231f20"/>
    <rect x="21" y="12" width="1" height="1" fill="#231f20"/>
    <rect x="26" y="12" width="1" height="1" fill="#231f20"/>
    <rect x="36" y="12" width="1" height="1" fill="#231f20"/>
    <rect x="44" y="12" width="1" height="1" fill="#231f20"/>
    <rect x="58" y="12" width="1" height="1" fill="#231f20"/>
    <rect x="60" y="12" width="1" height="1" fill="#231f20"/>
    <rect x="62" y="12" width="1" height="1" fill="#231f20"/>
    <rect x="77" y="12" width="1" height="1" fill="#231f20"/>
    <rect x="85" y="12" width="1" height="1" fill="#231f20"/>
    <rect x="97" y="12" width="1" height="1" fill="#231f20"/>
    <rect x="105" y="12" width="1" height="1" fill="#231f20"/>
    <rect x="118" y="12" width="1" height="1" fill="#231f20"/>
    <rect x="124" y="12" width="1" height="1" fill="#231f20"/>
    <rect x="152" y="12" width="1" height="1" fill="#231f20"/>
    <rect x="0" y="13" width="1" height="1" fill="#231f20"/>
    <rect x="22" y="13" width="1" height="1" fill="#231f20"/>
    <rect x="25" y="13" width="1" height="1" fill="#231f20"/>
    <rect x="36" y="13" width="1" height="1" fill="#231f20"/>
    <rect x="44" y="13" width="1" height="1" fill="#231f20"/>
    <rect x="58" y="13" width="1" height="1" fill="#231f20"/>
    <rect x="60" y="13" width="1" height="1" fill="#231f20"/>
    <rect x="62" y="13" width="1" height="1" fill="#231f20"/>
    <rect x="77" y="13" width="1" height="1" fill="#231f20"/>
    <rect x="85" y="13" width="1" height="1" fill="#231f20"/>
    <rect x="97" y="13" width="1" height="1" fill="#231f20"/>
    <rect x="105" y="13" width="1" height="1" fill="#231f20"/>
    <rect x="117" y="13" width="1" height="1" fill="#231f20"/>
    <rect x="125" y="13" width="1" height="1" fill="#231f20"/>
    <rect x="152" y="13" width="1" height="1" fill="#231f20"/>
    <rect x="0" y="14" width="1" height="1" fill="#231f20"/>
    <rect x="22" y="14" width="4" height="1" fill="#231f20"/>
    <rect x="36" y="14" width="1" height="1" fill="#231f20"/>
    <rect x="44" y="14" width="1" height="1" fill="#231f20"/>
    <rect x="58" y="14" width="1" height="1" fill="#231f20"/>
    <rect x="60" y="14" width="1" height="1" fill="#231f20"/>
    <rect x="62" y="14" width="1" height="1" fill="#231f20"/>
    <rect x="76" y="14" width="1" height="1" fill="#231f20"/>
    <rect x="86" y="14" width="1" height="1" fill="#231f20"/>
    <rect x="96" y="14" width="1" height="1" fill="#231f20"/>
    <rect x="106" y="14" width="1" height="1" fill="#231f20"/>
    <rect x="117" y="14" width="1" height="1" fill="#231f20"/>
    <rect x="125" y="14" width="1" height="1" fill="#231f20"/>
    <rect x="152" y="14" width="1" height="1" fill="#231f20"/>
    <rect x="0" y="15" width="1" height="1" fill="#231f20"/>
    <rect x="36" y="15" width="9" height="1" fill="#231f20"/>
    <rect x="57" y="15" width="2" height="1" fill="#231f20"/>
    <rect x="60" y="15" width="1" height="1" fill="#231f20"/>
    <rect x="62" y="15" width="2" height="1" fill="#231f20"/>
    <rect x="76" y="15" width="1" height="1" fill="#231f20"/>
    <rect x="86" y="15" width="1" height="1" fill="#231f20"/>
    <rect x="96" y="15" width="1" height="1" fill="#231f20"/>
    <rect x="106" y="15" width="1" height="1" fill="#231f20"/>
    <rect x="116" y="15" width="11" height="1" fill="#231f20"/>
    <rect x="152" y="15" width="1" height="1" fill="#231f20"/>
    <rect x="0" y="16" width="1" height="1" fill="#231f20"/>
    <rect x="152" y="16" width="1" height="1" fill="#231f20"/>
    <rect x="0" y="17" width="1" height="1" fill="#231f20"/>
    <rect x="152" y="17" width="1" height="1" fill="#231f20"/>
    <rect x="0" y="18" width="1" height="1" fill="#231f20"/>
    <rect x="152" y="18" width="1" height="1" fill="#231f20"/>
    <rect x="0" y="19" width="1" height="1" fill="#231f20"/>
    <rect x="152" y="19" width="1" height="1" fill="#231f20"/>
    <rect x="0" y="20" width="153" height="1" fill="#231f20"/>
    <rect x="0" y="21" width="1" height="1" fill="#231f20"/>
    <rect x="152" y="21" width="1" height="1" fill="#231f20"/>
    <rect x="0" y="22" width="1" height="1" fill="#231f20"/>
    <rect x="152" y="22" width="1" height="1" fill="#231f20"/>
    <rect x="0" y="23" width="1" height="1" fill="#231f20"/>
    <rect x="152" y="23" width="1" height="1" fill="#231f20"/>
    <rect x="0" y="24" width="1" height="1" fill="#231f20"/>
    <rect x="152" y="24" width="1" height="1" fill="#231f20"/>
    <rect x="0" y="25" width="1" height="1" fill="#231f20"/>
    <rect x="49" y="25" width="1" height="1" fill="#231f20"/>
    <rect x="52" y="25" width="1" height="1" fill="#231f20"/>
    <rect x="69" y="25" width="1" height="1" fill="#231f20"/>
    <rect x="72" y="25" width="1" height="1" fill="#231f20"/>
    <rect x="107" y="25" width="9" height="1" fill="#231f20"/>
    <rect x="152" y="25" width="1" height="1" fill="#231f20"/>
    <rect x="0" y="26" width="1" height="1" fill="#231f20"/>
    <rect x="30" y="26" width="1" height="1" fill="#231f20"/>
    <rect x="49" y="26" width="1" height="1" fill="#231f20"/>
    <rect x="52" y="26" width="1" height="1" fill="#231f20"/>
    <rect x="69" y="26" width="1" height="1" fill="#231f20"/>
    <rect x="72" y="26" width="1" height="1" fill="#231f20"/>
    <rect x="107" y="26" width="1" height="1" fill="#231f20"/>
    <rect x="115" y="26" width="1" height="1" fill="#231f20"/>
    <rect x="152" y="26" width="1" height="1" fill="#231f20"/>
    <rect x="0" y="27" width="1" height="1" fill="#231f20"/>
    <rect x="29" y="27" width="1" height="1" fill="#231f20"/>
    <rect x="31" y="27" width="1" height="1" fill="#231f20"/>
    <rect x="48" y="27" width="1" height="1" fill="#231f20"/>
    <rect x="53" y="27" width="1" height="1" fill="#231f20"/>
    <rect x="68" y="27" width="1" height="1" fill="#231f20"/>
    <rect x="73" y="27" width="1" height="1" fill="#231f20"/>
    <rect x="88" y="27" width="3" height="1" fill="#231f20"/>
    <rect x="92" y="27" width="3" height="1" fill="#231f20"/>
    <rect x="107" y="27" width="1" height="1" fill="#231f20"/>
    <rect x="115" y="27" width="1" height="1" fill="#231f20"/>
    <rect x="126" y="27" width="4" height="1" fill="#231f20"/>
    <rect x="152" y="27" width="1" height="1" fill="#231f20"/>
    <rect x="0" y="28" width="1" height="1" fill="#231f20"/>
    <rect x="29" y="28" width="1" height="1" fill="#231f20"/>
    <rect x="31" y="28" width="1" height="1" fill="#231f20"/>
    <rect x="48" y="28" width="1" height="1" fill="#231f20"/>
    <rect x="53" y="28" width="1" height="1" fill="#231f20"/>
    <rect x="68" y="28" width="1" height="1" fill="#231f20"/>
    <rect x="73" y="28" width="1" height="1" fill="#231f20"/>
    <rect x="89" y="28" width="2" height="1" fill="#231f20"/>
    <rect x="92" y="28" width="2" height="1" fill="#231f20"/>
    <rect x="107" y="28" width="1" height="1" fill="#231f20"/>
    <rect x="115" y="28" width="1" height="1" fill="#231f20"/>
    <rect x="126" y="28" width="1" height="1" fill="#231f20"/>
    <rect x="129" y="28" width="1" height="1" fill="#231f20"/>
    <rect x="152" y="28" width="1" height="1" fill="#231f20"/>
    <rect x="0" y="29" width="1" height="1" fill="#231f20"/>
    <rect x="28" y="29" width="1" height="1" fill="#231f20"/>
    <rect x="32" y="29" width="1" height="1" fill="#231f20"/>
    <rect x="48" y="29" width="1" height="1" fill="#231f20"/>
    <rect x="53" y="29" width="1" height="1" fill="#231f20"/>
    <rect x="68" y="29" width="1" height="1" fill="#231f20"/>
    <rect x="73" y="29" width="1" height="1" fill="#231f20"/>
    <rect x="89" y="29" width="2" height="1" fill="#231f20"/>
    <rect x="92" y="29" width="2" height="1" fill="#231f20"/>
    <rect x="107" y="29" width="1" height="1" fill="#231f20"/>
    <rect x="115" y="29" width="1" height="1" fill="#231f20"/>
    <rect x="125" y="29" width="1" height="1" fill="#231f20"/>
    <rect x="130" y="29" width="1" height="1" fill="#231f20"/>
    <rect x="152" y="29" width="1" height="1" fill="#231f20"/>
    <rect x="0" y="30" width="1" height="1" fill="#231f20"/>
    <rect x="28" y="30" width="1" height="1" fill="#231f20"/>
    <rect x="32" y="30" width="1" height="1" fill="#231f20"/>
    <rect x="47" y="30" width="1" height="1" fill="#231f20"/>
    <rect x="53" y="30" width="1" height="1" fill="#231f20"/>
    <rect x="67" y="30" width="1" height="1" fill="#231f20"/>
    <rect x="74" y="30" width="1" height="1" fill="#231f20"/>
    <rect x="89" y="30" width="2" height="1" fill="#231f20"/>
    <rect x="92" y="30" width="2" height="1" fill="#231f20"/>
    <rect x="107" y="30" width="1" height="1" fill="#231f20"/>
    <rect x="115" y="30" width="1" height="1" fill="#231f20"/>
    <rect x="124" y="30" width="1" height="1" fill="#231f20"/>
    <rect x="131" y="30" width="1" height="1" fill="#231f20"/>
    <rect x="152" y="30" width="1" height="1" fill="#231f20"/>
    <rect x="0" y="31" width="1" height="1" fill="#231f20"/>
    <rect x="27" y="31" width="1" height="1" fill="#231f20"/>
    <rect x="33" y="31" width="1" height="1" fill="#231f20"/>
    <rect x="47" y="31" width="1" height="1" fill="#231f20"/>
    <rect x="54" y="31" width="1" height="1" fill="#231f20"/>
    <rect x="67" y="31" width="1" height="1" fill="#231f20"/>
    <rect x="74" y="31" width="1" height="1" fill="#231f20"/>
    <rect x="89" y="31" width="1" height="1" fill="#231f20"/>
    <rect x="91" y="31" width="1" height="1" fill="#231f20"/>
    <rect x="93" y="31" width="1" height="1" fill="#231f20"/>
    <rect x="107" y="31" width="1" height="1" fill="#231f20"/>
    <rect x="115" y="31" width="1" height="1" fill="#231f20"/>
    <rect x="124" y="31" width="1" height="1" fill="#231f20"/>
    <rect x="131" y="31" width="2" height="1" fill="#231f20"/>
    <rect x="138" y="31" width="2" height="1" fill="#231f20"/>
    <rect x="152" y="31" width="1" height="1" fill="#231f20"/>
    <rect x="0" y="32" width="1" height="1" fill="#231f20"/>
    <rect x="27" y="32" width="1" height="1" fill="#231f20"/>
    <rect x="33" y="32" width="1" height="1" fill="#231f20"/>
    <rect x="46" y="32" width="1" height="1" fill="#231f20"/>
    <rect x="54" y="32" width="1" height="1" fill="#231f20"/>
    <rect x="66" y="32" width="1" height="1" fill="#231f20"/>
    <rect x="75" y="32" width="1" height="1" fill="#231f20"/>
    <rect x="89" y="32" width="1" height="1" fill="#231f20"/>
    <rect x="91" y="32" width="1" height="1" fill="#231f20"/>
    <rect x="93" y="32" width="1" height="1" fill="#231f20"/>
    <rect x="107" y="32" width="1" height="1" fill="#231f20"/>
    <rect x="115" y="32" width="1" height="1" fill="#231f20"/>
    <rect x="132" y="32" width="1" height="1" fill="#231f20"/>
    <rect x="138" y="32" width="1" height="1" fill="#231f20"/>
    <rect x="152" y="32" width="1" height="1" fill="#231f20"/>
    <rect x="0" y="33" width="1" height="1" fill="#231f20"/>
    <rect x="26" y="33" width="1" height="1" fill="#231f20"/>
    <rect x="34" y="33" width="1" height="1" fill="#231f20"/>
    <rect x="46" y="33" width="1" height="1" fill="#231f20"/>
    <rect x="54" y="33" width="1" height="1" fill="#231f20"/>
    <rect x="66" y="33" width="1" height="1" fill="#231f20"/>
    <rect x="75" y="33" width="1" height="1" fill="#231f20"/>
    <rect x="89" y="33" width="1" height="1" fill="#231f20"/>
    <rect x="91" y="33" width="1" height="1" fill="#231f20"/>
    <rect x="93" y="33" width="1" height="1" fill="#231f20"/>
    <rect x="107" y="33" width="1" height="1" fill="#231f20"/>
    <rect x="115" y="33" width="1" height="1" fill="#231f20"/>
    <rect x="133" y="33" width="1" height="1" fill="#231f20"/>
    <rect x="137" y="33" width="2" height="1" fill="#231f20"/>
    <rect x="152" y="33" width="1" height="1" fill="#231f20"/>
    <rect x="0" y="34" width="1" height="1" fill="#231f20"/>
    <rect x="26" y="34" width="1" height="1" fill="#231f20"/>
    <rect x="34" y="34" width="1" height="1" fill="#231f20"/>
    <rect x="46" y="34" width="1" height="1" fill="#231f20"/>
    <rect x="54" y="34" width="1" height="1" fill="#231f20"/>
    <rect x="66" y="34" width="1" height="1" fill="#231f20"/>
    <rect x="75" y="34" width="1" height="1" fill="#231f20"/>
    <rect x="89" y="34" width="1" height="1" fill="#231f20"/>
    <rect x="91" y="34" width="1" height="1" fill="#231f20"/>
    <rect x="93" y="34" width="1" height="1" fill="#231f20"/>
    <rect x="107" y="34" width="1" height="1" fill="#231f20"/>
    <rect x="115" y="34" width="1" height="1" fill="#231f20"/>
    <rect x="133" y="34" width="5" height="1" fill="#231f20"/>
    <rect x="152" y="34" width="1" height="1" fill="#231f20"/>
    <rect x="0" y="35" width="1" height="1" fill="#231f20"/>
    <rect x="25" y="35" width="11" height="1" fill="#231f20"/>
    <rect x="45" y="35" width="1" height="1" fill="#231f20"/>
    <rect x="55" y="35" width="1" height="1" fill="#231f20"/>
    <rect x="65" y="35" width="1" height="1" fill="#231f20"/>
    <rect x="76" y="35" width="1" height="1" fill="#231f20"/>
    <rect x="88" y="35" width="2" height="1" fill="#231f20"/>
    <rect x="91" y="35" width="1" height="1" fill="#231f20"/>
    <rect x="93" y="35" width="2" height="1" fill="#231f20"/>
    <rect x="107" y="35" width="1" height="1" fill="#231f20"/>
    <rect x="115" y="35" width="1" height="1" fill="#231f20"/>
    <rect x="152" y="35" width="1" height="1" fill="#231f20"/>
    <rect x="0" y="36" width="1" height="1" fill="#231f20"/>
    <rect x="45" y="36" width="1" height="1" fill="#231f20"/>
    <rect x="55" y="36" width="1" height="1" fill="#231f20"/>
    <rect x="65" y="36" width="1" height="1" fill="#231f20"/>
    <rect x="76" y="36" width="1" height="1" fill="#231f20"/>
    <rect x="107" y="36" width="9" height="1" fill="#231f20"/>
    <rect x="152" y="36" width="1" height="1" fill="#231f20"/>
    <rect x="0" y="37" width="1" height="1" fill="#231f20"/>
    <rect x="152" y="37" width="1" height="1" fill="#231f20"/>
    <rect x="0" y="38" width="1" height="1" fill="#231f20"/>
    <rect x="152" y="38" width="1" height="1" fill="#231f20"/>
    <rect x="0" y="39" width="1" height="1" fill="#231f20"/>
    <rect x="152" y="39" width="1" height="1" fill="#231f20"/>
    <rect x="0" y="40" width="1" height="1" fill="#231f20"/>
    <rect x="152" y="40" width="1" height="1" fill="#231f20"/>
    <rect x="0" y="41" width="153" height="1" fill="#231f20"/>
    <rect x="0" y="42" width="1" height="1" fill="#231f20"/>
    <rect x="152" y="42" width="1" height="1" fill="#231f20"/>
    <rect x="0" y="43" width="1" height="1" fill="#231f20"/>
    <rect x="152" y="43" width="1" height="1" fill="#231f20"/>
    <rect x="0" y="44" width="1" height="1" fill="#231f20"/>
    <rect x="152" y="44" width="1" height="1" fill="#231f20"/>
    <rect x="0" y="45" width="1" height="1" fill="#231f20"/>
    <rect x="152" y="45" width="1" height="1" fill="#231f20"/>
    <rect x="0" y="46" width="1" height="1" fill="#231f20"/>
    <rect x="36" y="46" width="9" height="1" fill="#231f20"/>
    <rect x="79" y="46" width="1" height="1" fill="#231f20"/>
    <rect x="82" y="46" width="1" height="1" fill="#231f20"/>
    <rect x="100" y="46" width="1" height="1" fill="#231f20"/>
    <rect x="102" y="46" width="1" height="1" fill="#231f20"/>
    <rect x="152" y="46" width="1" height="1" fill="#231f20"/>
    <rect x="0" y="47" width="1" height="1" fill="#231f20"/>
    <rect x="15" y="47" width="3" height="1" fill="#231f20"/>
    <rect x="36" y="47" width="1" height="1" fill="#231f20"/>
    <rect x="44" y="47" width="1" height="1" fill="#231f20"/>
    <rect x="79" y="47" width="1" height="1" fill="#231f20"/>
    <rect x="82" y="47" width="1" height="1" fill="#231f20"/>
    <rect x="100" y="47" width="1" height="1" fill="#231f20"/>
    <rect x="102" y="47" width="1" height="1" fill="#231f20"/>
    <rect x="121" y="47" width="1" height="1" fill="#231f20"/>
    <rect x="152" y="47" width="1" height="1" fill="#231f20"/>
    <rect x="0" y="48" width="1" height="1" fill="#231f20"/>
    <rect x="14" y="48" width="2" height="1" fill="#231f20"/>
    <rect x="17" y="48" width="2" height="1" fill="#231f20"/>
    <rect x="36" y="48" width="1" height="1" fill="#231f20"/>
    <rect x="44" y="48" width="1" height="1" fill="#231f20"/>
    <rect x="57" y="48" width="3" height="1" fill="#231f20"/>
    <rect x="61" y="48" width="3" height="1" fill="#231f20"/>
    <rect x="78" y="48" width="1" height="1" fill="#231f20"/>
    <rect x="83" y="48" width="1" height="1" fill="#231f20"/>
    <rect x="99" y="48" width="1" height="1" fill="#231f20"/>
    <rect x="103" y="48" width="1" height="1" fill="#231f20"/>
    <rect x="120" y="48" width="1" height="1" fill="#231f20"/>
    <rect x="122" y="48" width="1" height="1" fill="#231f20"/>
    <rect x="152" y="48" width="1" height="1" fill="#231f20"/>
    <rect x="0" y="49" width="1" height="1" fill="#231f20"/>
    <rect x="13" y="49" width="2" height="1" fill="#231f20"/>
    <rect x="18" y="49" width="2" height="1" fill="#231f20"/>
    <rect x="36" y="49" width="1" height="1" fill="#231f20"/>
    <rect x="44" y="49" width="1" height="1" fill="#231f20"/>
    <rect x="58" y="49" width="2" height="1" fill="#231f20"/>
    <rect x="61" y="49" width="2" height="1" fill="#231f20"/>
    <rect x="78" y="49" width="1" height="1" fill="#231f20"/>
    <rect x="83" y="49" width="1" height="1" fill="#231f20"/>
    <rect x="99" y="49" width="1" height="1" fill="#231f20"/>
    <rect x="103" y="49" width="1" height="1" fill="#231f20"/>
    <rect x="120" y="49" width="1" height="1" fill="#231f20"/>
    <rect x="122" y="49" width="1" height="1" fill="#231f20"/>
    <rect x="152" y="49" width="1" height="1" fill="#231f20"/>
    <rect x="0" y="50" width="1" height="1" fill="#231f20"/>
    <rect x="13" y="50" width="1" height="1" fill="#231f20"/>
    <rect x="19" y="50" width="1" height="1" fill="#231f20"/>
    <rect x="36" y="50" width="1" height="1" fill="#231f20"/>
    <rect x="44" y="50" width="1" height="1" fill="#231f20"/>
    <rect x="58" y="50" width="2" height="1" fill="#231f20"/>
    <rect x="61" y="50" width="2" height="1" fill="#231f20"/>
    <rect x="78" y="50" width="1" height="1" fill="#231f20"/>
    <rect x="84" y="50" width="1" height="1" fill="#231f20"/>
    <rect x="98" y="50" width="1" height="1" fill="#231f20"/>
    <rect x="104" y="50" width="1" height="1" fill="#231f20"/>
    <rect x="119" y="50" width="1" height="1" fill="#231f20"/>
    <rect x="123" y="50" width="1" height="1" fill="#231f20"/>
    <rect x="152" y="50" width="1" height="1" fill="#231f20"/>
    <rect x="0" y="51" width="1" height="1" fill="#231f20"/>
    <rect x="12" y="51" width="1" height="1" fill="#231f20"/>
    <rect x="20" y="51" width="1" height="1" fill="#231f20"/>
    <rect x="27" y="51" width="1" height="1" fill="#231f20"/>
    <rect x="36" y="51" width="1" height="1" fill="#231f20"/>
    <rect x="44" y="51" width="1" height="1" fill="#231f20"/>
    <rect x="58" y="51" width="2" height="1" fill="#231f20"/>
    <rect x="61" y="51" width="2" height="1" fill="#231f20"/>
    <rect x="77" y="51" width="1" height="1" fill="#231f20"/>
    <rect x="84" y="51" width="1" height="1" fill="#231f20"/>
    <rect x="98" y="51" width="1" height="1" fill="#231f20"/>
    <rect x="104" y="51" width="1" height="1" fill="#231f20"/>
    <rect x="119" y="51" width="1" height="1" fill="#231f20"/>
    <rect x="124" y="51" width="1" height="1" fill="#231f20"/>
    <rect x="152" y="51" width="1" height="1" fill="#231f20"/>
    <rect x="0" y="52" width="1" height="1" fill="#231f20"/>
    <rect x="21" y="52" width="1" height="1" fill="#231f20"/>
    <rect x="26" y="52" width="1" height="1" fill="#231f20"/>
    <rect x="36" y="52" width="1" height="1" fill="#231f20"/>
    <rect x="44" y="52" width="1" height="1" fill="#231f20"/>
    <rect x="58" y="52" width="1" height="1" fill="#231f20"/>
    <rect x="60" y="52" width="1" height="1" fill="#231f20"/>
    <rect x="62" y="52" width="1" height="1" fill="#231f20"/>
    <rect x="77" y="52" width="1" height="1" fill="#231f20"/>
    <rect x="84" y="52" width="1" height="1" fill="#231f20"/>
    <rect x="98" y="52" width="1" height="1" fill="#231f20"/>
    <rect x="104" y="52" width="1" height="1" fill="#231f20"/>
    <rect x="118" y="52" width="1" height="1" fill="#231f20"/>
    <rect x="124" y="52" width="1" height="1" fill="#231f20"/>
    <rect x="152" y="52" width="1" height="1" fill="#231f20"/>
    <rect x="0" y="53" width="1" height="1" fill="#231f20"/>
    <rect x="21" y="53" width="2" height="1" fill="#231f20"/>
    <rect x="25" y="53" width="2" height="1" fill="#231f20"/>
    <rect x="36" y="53" width="1" height="1" fill="#231f20"/>
    <rect x="44" y="53" width="1" height="1" fill="#231f20"/>
    <rect x="58" y="53" width="1" height="1" fill="#231f20"/>
    <rect x="60" y="53" width="1" height="1" fill="#231f20"/>
    <rect x="62" y="53" width="1" height="1" fill="#231f20"/>
    <rect x="77" y="53" width="1" height="1" fill="#231f20"/>
    <rect x="85" y="53" width="1" height="1" fill="#231f20"/>
    <rect x="97" y="53" width="1" height="1" fill="#231f20"/>
    <rect x="105" y="53" width="1" height="1" fill="#231f20"/>
    <rect x="117" y="53" width="1" height="1" fill="#231f20"/>
    <rect x="125" y="53" width="1" height="1" fill="#231f20"/>
    <rect x="152" y="53" width="1" height="1" fill="#231f20"/>
    <rect x="0" y="54" width="1" height="1" fill="#231f20"/>
    <rect x="22" y="54" width="4" height="1" fill="#231f20"/>
    <rect x="36" y="54" width="1" height="1" fill="#231f20"/>
    <rect x="44" y="54" width="1" height="1" fill="#231f20"/>
    <rect x="58" y="54" width="1" height="1" fill="#231f20"/>
    <rect x="60" y="54" width="1" height="1" fill="#231f20"/>
    <rect x="62" y="54" width="1" height="1" fill="#231f20"/>
    <rect x="77" y="54" width="1" height="1" fill="#231f20"/>
    <rect x="85" y="54" width="1" height="1" fill="#231f20"/>
    <rect x="97" y="54" width="1" height="1" fill="#231f20"/>
    <rect x="105" y="54" width="1" height="1" fill="#231f20"/>
    <rect x="117" y="54" width="1" height="1" fill="#231f20"/>
    <rect x="125" y="54" width="1" height="1" fill="#231f20"/>
    <rect x="152" y="54" width="1" height="1" fill="#231f20"/>
    <rect x="0" y="55" width="1" height="1" fill="#231f20"/>
    <rect x="23" y="55" width="2" height="1" fill="#231f20"/>
    <rect x="36" y="55" width="1" height="1" fill="#231f20"/>
    <rect x="44" y="55" width="1" height="1" fill="#231f20"/>
    <rect x="58" y="55" width="1" height="1" fill="#231f20"/>
    <rect x="60" y="55" width="1" height="1" fill="#231f20"/>
    <rect x="62" y="55" width="1" height="1" fill="#231f20"/>
    <rect x="76" y="55" width="1" height="1" fill="#231f20"/>
    <rect x="86" y="55" width="1" height="1" fill="#231f20"/>
    <rect x="96" y="55" width="1" height="1" fill="#231f20"/>
    <rect x="106" y="55" width="1" height="1" fill="#231f20"/>
    <rect x="116" y="55" width="11" height="1" fill="#231f20"/>
    <rect x="152" y="55" width="1" height="1" fill="#231f20"/>
    <rect x="0" y="56" width="1" height="1" fill="#231f20"/>
    <rect x="36" y="56" width="9" height="1" fill="#231f20"/>
    <rect x="57" y="56" width="2" height="1" fill="#231f20"/>
    <rect x="60" y="56" width="1" height="1" fill="#231f20"/>
    <rect x="62" y="56" width="2" height="1" fill="#231f20"/>
    <rect x="76" y="56" width="1" height="1" fill="#231f20"/>
    <rect x="86" y="56" width="1" height="1" fill="#231f20"/>
    <rect x="96" y="56" width="1" height="1" fill="#231f20"/>
    <rect x="106" y="56" width="1" height="1" fill="#231f20"/>
    <rect x="152" y="56" width="1" height="1" fill="#231f20"/>
    <rect x="0" y="57" width="1" height="1" fill="#231f20"/>
    <rect x="152" y="57" width="1" height="1" fill="#231f20"/>
    <rect x="0" y="58" width="1" height="1" fill="#231f20"/>
    <rect x="152" y="58" width="1" height="1" fill="#231f20"/>
    <rect x="0" y="59" width="1" height="1" fill="#231f20"/>
    <rect x="152" y="59" width="1" height="1" fill="#231f20"/>
    <rect x="0" y="60" width="1" height="1" fill="#231f20"/>
    <rect x="152" y="60" width="1" height="1" fill="#231f20"/>
    <rect x="0" y="61" width="153" height="1" fill="#231f20"/>
  </g>
</svg>