<?xml version="1.0" encoding="UTF-8"?>
<svg xmlns="http://www.w3.org/2000/svg" viewBox="0 0 172 69" width="172" height="69">
  <!-- Auto-converted from legend-672.png -->
  <rect x="0" y="0" width="172" height="69" fill="none"/>
  <g fill="#3c6b2d" stroke="none">
    <rect x="0" y="0" width="172" height="1" fill="#3c6b2d"/>
    <rect x="0" y="1" width="1" height="1" fill="#3c6b2d"/>
    <rect x="168" y="1" width="4" height="1" fill="#3c6b2d"/>
    <rect x="0" y="2" width="1" height="1" fill="#3c6b2d"/>
    <rect x="165" y="2" width="7" height="1" fill="#3c6b2d"/>
    <rect x="0" y="3" width="1" height="1" fill="#3c6b2d"/>
    <rect x="163" y="3" width="9" height="1" fill="#3c6b2d"/>
    <rect x="0" y="4" width="1" height="1" fill="#3c6b2d"/>
    <rect x="160" y="4" width="12" height="1" fill="#3c6b2d"/>
    <rect x="0" y="5" width="1" height="1" fill="#3c6b2d"/>
    <rect x="158" y="5" width="14" height="1" fill="#3c6b2d"/>
    <rect x="0" y="6" width="1" height="1" fill="#3c6b2d"/>
    <rect x="155" y="6" width="17" height="1" fill="#3c6b2d"/>
    <rect x="0" y="7" width="1" height="1" fill="#3c6b2d"/>
    <rect x="153" y="7" width="19" height="1" fill="#3c6b2d"/>
    <rect x="0" y="8" width="1" height="1" fill="#3c6b2d"/>
    <rect x="150" y="8" width="22" height="1" fill="#3c6b2d"/>
    <rect x="0" y="9" width="1" height="1" fill="#3c6b2d"/>
    <rect x="148" y="9" width="24" height="1" fill="#3c6b2d"/>
    <rect x="0" y="10" width="1" height="1" fill="#3c6b2d"/>
    <rect x="145" y="10" width="27" height="1" fill="#3c6b2d"/>
    <rect x="0" y="11" width="1" height="1" fill="#3c6b2d"/>
    <rect x="143" y="11" width="29" height="1" fill="#3c6b2d"/>
    <rect x="0" y="12" width="1" height="1" fill="#3c6b2d"/>
    <rect x="140" y="12" width="32" height="1" fill="#3c6b2d"/>
    <rect x="0" y="13" width="1" height="1" fill="#3c6b2d"/>
    <rect x="138" y="13" width="34" height="1" fill="#3c6b2d"/>
    <rect x="0" y="14" width="1" height="1" fill="#3c6b2d"/>
    <rect x="135" y="14" width="37" height="1" fill="#3c6b2d"/>
    <rect x="0" y="15" width="1" height="1" fill="#3c6b2d"/>
    <rect x="133" y="15" width="39" height="1" fill="#3c6b2d"/>
    <rect x="0" y="16" width="1" height="1" fill="#3c6b2d"/>
    <rect x="130" y="16" width="42" height="1" fill="#3c6b2d"/>
    <rect x="0" y="17" width="1" height="1" fill="#3c6b2d"/>
    <rect x="127" y="17" width="45" height="1" fill="#3c6b2d"/>
    <rect x="0" y="18" width="1" height="1" fill="#3c6b2d"/>
    <rect x="125" y="18" width="47" height="1" fill="#3c6b2d"/>
    <rect x="0" y="19" width="1" height="1" fill="#3c6b2d"/>
    <rect x="30" y="19" width="5" height="1" fill="#3c6b2d"/>
    <rect x="122" y="19" width="50" height="1" fill="#3c6b2d"/>
    <rect x="0" y="20" width="1" height="1" fill="#3c6b2d"/>
    <rect x="29" y="20" width="3" height="1" fill="#3c6b2d"/>
    <rect x="34" y="20" width="2" height="1" fill="#3c6b2d"/>
    <rect x="120" y="20" width="52" height="1" fill="#3c6b2d"/>
    <rect x="0" y="21" width="1" height="1" fill="#3c6b2d"/>
    <rect x="29" y="21" width="2" height="1" fill="#3c6b2d"/>
    <rect x="34" y="21" width="3" height="1" fill="#3c6b2d"/>
    <rect x="117" y="21" width="55" height="1" fill="#3c6b2d"/>
    <rect x="0" y="22" width="1" height="1" fill="#3c6b2d"/>
    <rect x="29" y="22" width="2" height="1" fill="#3c6b2d"/>
    <rect x="35" y="22" width="1" height="1" fill="#3c6b2d"/>
    <rect x="115" y="22" width="57" height="1" fill="#3c6b2d"/>
    <rect x="0" y="23" width="1" height="1" fill="#3c6b2d"/>
    <rect x="30" y="23" width="2" height="1" fill="#3c6b2d"/>
    <rect x="112" y="23" width="60" height="1" fill="#3c6b2d"/>
    <rect x="0" y="24" width="1" height="1" fill="#3c6b2d"/>
    <rect x="31" y="24" width="2" height="1" fill="#3c6b2d"/>
    <rect x="110" y="24" width="62" height="1" fill="#3c6b2d"/>
    <rect x="0" y="25" width="1" height="1" fill="#3c6b2d"/>
    <rect x="30" y="25" width="5" height="1" fill="#3c6b2d"/>
    <rect x="107" y="25" width="65" height="1" fill="#3c6b2d"/>
    <rect x="0" y="26" width="1" height="1" fill="#3c6b2d"/>
    <rect x="29" y="26" width="2" height="1" fill="#3c6b2d"/>
    <rect x="34" y="26" width="2" height="1" fill="#3c6b2d"/>
    <rect x="105" y="26" width="67" height="1" fill="#3c6b2d"/>
    <rect x="0" y="27" width="1" height="1" fill="#3c6b2d"/>
    <rect x="28" y="27" width="2" height="1" fill="#3c6b2d"/>
    <rect x="35" y="27" width="2" height="1" fill="#3c6b2d"/>
    <rect x="102" y="27" width="70" height="1" fill="#3c6b2d"/>
    <rect x="0" y="28" width="1" height="1" fill="#3c6b2d"/>
    <rect x="28" y="28" width="2" height="1" fill="#3c6b2d"/>
    <rect x="35" y="28" width="2" height="1" fill="#3c6b2d"/>
    <rect x="100" y="28" width="72" height="1" fill="#3c6b2d"/>
    <rect x="0" y="29" width="1" height="1" fill="#3c6b2d"/>
    <rect x="28" y="29" width="2" height="1" fill="#3c6b2d"/>
    <rect x="35" y="29" width="2" height="1" fill="#3c6b2d"/>
    <rect x="97" y="29" width="75" height="1" fill="#3c6b2d"/>
    <rect x="0" y="30" width="1" height="1" fill="#3c6b2d"/>
    <rect x="27" y="30" width="3" height="1" fill="#3c6b2d"/>
    <rect x="35" y="30" width="2" height="1" fill="#3c6b2d"/>
    <rect x="95" y="30" width="77" height="1" fill="#3c6b2d"/>
    <rect x="0" y="31" width="1" height="1" fill="#3c6b2d"/>
    <rect x="28" y="31" width="2" height="1" fill="#3c6b2d"/>
    <rect x="35" y="31" width="2" height="1" fill="#3c6b2d"/>
    <rect x="92" y="31" width="80" height="1" fill="#3c6b2d"/>
    <rect x="0" y="32" width="1" height="1" fill="#3c6b2d"/>
    <rect x="28" y="32" width="2" height="1" fill="#3c6b2d"/>
    <rect x="35" y="32" width="2" height="1" fill="#3c6b2d"/>
    <rect x="90" y="32" width="82" height="1" fill="#3c6b2d"/>
    <rect x="0" y="33" width="1" height="1" fill="#3c6b2d"/>
    <rect x="28" y="33" width="2" height="1" fill="#3c6b2d"/>
    <rect x="34" y="33" width="3" height="1" fill="#3c6b2d"/>
    <rect x="87" y="33" width="85" height="1" fill="#3c6b2d"/>
    <rect x="0" y="34" width="1" height="1" fill="#3c6b2d"/>
    <rect x="29" y="34" width="3" height="1" fill="#3c6b2d"/>
    <rect x="33" y="34" width="3" height="1" fill="#3c6b2d"/>
    <rect x="85" y="34" width="87" height="1" fill="#3c6b2d"/>
    <rect x="0" y="35" width="1" height="1" fill="#3c6b2d"/>
    <rect x="31" y="35" width="3" height="1" fill="#3c6b2d"/>
    <rect x="82" y="35" width="90" height="1" fill="#3c6b2d"/>
    <rect x="0" y="36" width="1" height="1" fill="#3c6b2d"/>
    <rect x="80" y="36" width="92" height="1" fill="#3c6b2d"/>
    <rect x="0" y="37" width="1" height="1" fill="#3c6b2d"/>
    <rect x="77" y="37" width="95" height="1" fill="#3c6b2d"/>
    <rect x="0" y="38" width="1" height="1" fill="#3c6b2d"/>
    <rect x="75" y="38" width="97" height="1" fill="#3c6b2d"/>
    <rect x="0" y="39" width="1" height="1" fill="#3c6b2d"/>
    <rect x="72" y="39" width="100" height="1" fill="#3c6b2d"/>
    <rect x="0" y="40" width="1" height="1" fill="#3c6b2d"/>
    <rect x="70" y="40" width="102" height="1" fill="#3c6b2d"/>
    <rect x="0" y="41" width="1" height="1" fill="#3c6b2d"/>
    <rect x="67" y="41" width="105" height="1" fill="#3c6b2d"/>
    <rect x="0" y="42" width="1" height="1" fill="#3c6b2d"/>
    <rect x="65" y="42" width="107" height="1" fill="#3c6b2d"/>
    <rect x="0" y="43" width="1" height="1" fill="#3c6b2d"/>
    <rect x="62" y="43" width="110" height="1" fill="#3c6b2d"/>
    <rect x="0" y="44" width="1" height="1" fill="#3c6b2d"/>
    <rect x="60" y="44" width="112" height="1" fill="#3c6b2d"/>
    <rect x="0" y="45" width="1" height="1" fill="#3c6b2d"/>
    <rect x="57" y="45" width="115" height="1" fill="#3c6b2d"/>
    <rect x="0" y="46" width="1" height="1" fill="#3c6b2d"/>
    <rect x="55" y="46" width="117" height="1" fill="#3c6b2d"/>
    <rect x="0" y="47" width="1" height="1" fill="#3c6b2d"/>
    <rect x="52" y="47" width="120" height="1" fill="#3c6b2d"/>
    <rect x="0" y="48" width="1" height="1" fill="#3c6b2d"/>
    <rect x="50" y="48" width="122" height="1" fill="#3c6b2d"/>
    <rect x="0" y="49" width="1" height="1" fill="#3c6b2d"/>
    <rect x="47" y="49" width="125" height="1" fill="#3c6b2d"/>
    <rect x="0" y="50" width="1" height="1" fill="#3c6b2d"/>
    <rect x="45" y="50" width="127" height="1" fill="#3c6b2d"/>
    <rect x="0" y="51" width="1" height="1" fill="#3c6b2d"/>
    <rect x="42" y="51" width="130" height="1" fill="#3c6b2d"/>
    <rect x="0" y="52" width="1" height="1" fill="#3c6b2d"/>
    <rect x="39" y="52" width="133" height="1" fill="#3c6b2d"/>
    <rect x="0" y="53" width="1" height="1" fill="#3c6b2d"/>
    <rect x="37" y="53" width="135" height="1" fill="#3c6b2d"/>
    <rect x="0" y="54" width="1" height="1" fill="#3c6b2d"/>
    <rect x="34" y="54" width="138" height="1" fill="#3c6b2d"/>
    <rect x="0" y="55" width="1" height="1" fill="#3c6b2d"/>
    <rect x="32" y="55" width="140" height="1" fill="#3c6b2d"/>
    <rect x="0" y="56" width="1" height="1" fill="#3c6b2d"/>
    <rect x="29" y="56" width="143" height="1" fill="#3c6b2d"/>
    <rect x="0" y="57" width="1" height="1" fill="#3c6b2d"/>
    <rect x="27" y="57" width="145" height="1" fill="#3c6b2d"/>
    <rect x="0" y="58" width="1" height="1" fill="#3c6b2d"/>
    <rect x="24" y="58" width="148" height="1" fill="#3c6b2d"/>
    <rect x="0" y="59" width="1" height="1" fill="#3c6b2d"/>
    <rect x="22" y="59" width="150" height="1" fill="#3c6b2d"/>
    <rect x="0" y="60" width="1" height="1" fill="#3c6b2d"/>
    <rect x="19" y="60" width="153" height="1" fill="#3c6b2d"/>
    <rect x="0" y="61" width="1" height="1" fill="#3c6b2d"/>
    <rect x="17" y="61" width="155" height="1" fill="#3c6b2d"/>
    <rect x="0" y="62" width="1" height="1" fill="#3c6b2d"/>
    <rect x="14" y="62" width="158" height="1" fill="#3c6b2d"/>
    <rect x="0" y="63" width="1" height="1" fill="#3c6b2d"/>
    <rect x="12" y="63" width="160" height="1" fill="#3c6b2d"/>
    <rect x="0" y="64" width="1" height="1" fill="#3c6b2d"/>
    <rect x="9" y="64" width="163" height="1" fill="#3c6b2d"/>
    <rect x="0" y="65" width="1" height="1" fill="#3c6b2d"/>
    <rect x="7" y="65" width="165" height="1" fill="#3c6b2d"/>
    <rect x="0" y="66" width="1" height="1" fill="#3c6b2d"/>
    <rect x="4" y="66" width="168" height="1" fill="#3c6b2d"/>
    <rect x="0" y="67" width="1" height="1" fill="#3c6b2d"/>
    <rect x="2" y="67" width="170" height="1" fill="#3c6b2d"/>
    <rect x="0" y="68" width="172" height="1" fill="#3c6b2d"/>
  </g>
</svg>