<?xml version="1.0" encoding="UTF-8"?>
<svg xmlns="http://www.w3.org/2000/svg" viewBox="0 0 84 83" width="84" height="83">
  <!-- Auto-converted from legend-484.png -->
  <rect x="0" y="0" width="84" height="83" fill="none"/>
  <g fill="#42314c" stroke="none">
    <rect x="0" y="0" width="84" height="1" fill="#42314c"/>
    <rect x="0" y="1" width="1" height="1" fill="#42314c"/>
    <rect x="83" y="1" width="1" height="1" fill="#42314c"/>
    <rect x="0" y="2" width="1" height="1" fill="#42314c"/>
    <rect x="83" y="2" width="1" height="1" fill="#42314c"/>
    <rect x="0" y="3" width="1" height="1" fill="#42314c"/>
    <rect x="83" y="3" width="1" height="1" fill="#42314c"/>
    <rect x="0" y="4" width="1" height="1" fill="#42314c"/>
    <rect x="83" y="4" width="1" height="1" fill="#42314c"/>
    <rect x="0" y="5" width="1" height="1" fill="#42314c"/>
    <rect x="83" y="5" width="1" height="1" fill="#42314c"/>
    <rect x="0" y="6" width="1" height="1" fill="#42314c"/>
    <rect x="36" y="6" width="12" height="1" fill="#42314c"/>
    <rect x="83" y="6" width="1" height="1" fill="#42314c"/>
    <rect x="0" y="7" width="1" height="1" fill="#42314c"/>
    <rect x="33" y="7" width="18" height="1" fill="#42314c"/>
    <rect x="83" y="7" width="1" height="1" fill="#42314c"/>
    <rect x="0" y="8" width="1" height="1" fill="#42314c"/>
    <rect x="29" y="8" width="26" height="1" fill="#42314c"/>
    <rect x="83" y="8" width="1" height="1" fill="#42314c"/>
    <rect x="0" y="9" width="1" height="1" fill="#42314c"/>
    <rect x="26" y="9" width="32" height="1" fill="#42314c"/>
    <rect x="83" y="9" width="1" height="1" fill="#42314c"/>
    <rect x="0" y="10" width="1" height="1" fill="#42314c"/>
    <rect x="24" y="10" width="36" height="1" fill="#42314c"/>
    <rect x="83" y="10" width="1" height="1" fill="#42314c"/>
    <rect x="0" y="11" width="1" height="1" fill="#42314c"/>
    <rect x="22" y="11" width="16" height="1" fill="#42314c"/>
    <rect x="46" y="11" width="16" height="1" fill="#42314c"/>
    <rect x="83" y="11" width="1" height="1" fill="#42314c"/>
    <rect x="0" y="12" width="1" height="1" fill="#42314c"/>
    <rect x="21" y="12" width="12" height="1" fill="#42314c"/>
    <rect x="51" y="12" width="12" height="1" fill="#42314c"/>
    <rect x="83" y="12" width="1" height="1" fill="#42314c"/>
    <rect x="0" y="13" width="1" height="1" fill="#42314c"/>
    <rect x="19" y="13" width="12" height="1" fill="#42314c"/>
    <rect x="53" y="13" width="12" height="1" fill="#42314c"/>
    <rect x="83" y="13" width="1" height="1" fill="#42314c"/>
    <rect x="0" y="14" width="1" height="1" fill="#42314c"/>
    <rect x="18" y="14" width="10" height="1" fill="#42314c"/>
    <rect x="56" y="14" width="10" height="1" fill="#42314c"/>
    <rect x="83" y="14" width="1" height="1" fill="#42314c"/>
    <rect x="0" y="15" width="1" height="1" fill="#42314c"/>
    <rect x="17" y="15" width="9" height="1" fill="#42314c"/>
    <rect x="58" y="15" width="9" height="1" fill="#42314c"/>
    <rect x="83" y="15" width="1" height="1" fill="#42314c"/>
    <rect x="0" y="16" width="1" height="1" fill="#42314c"/>
    <rect x="16" y="16" width="8" height="1" fill="#42314c"/>
    <rect x="60" y="16" width="8" height="1" fill="#42314c"/>
    <rect x="83" y="16" width="1" height="1" fill="#42314c"/>
    <rect x="0" y="17" width="1" height="1" fill="#42314c"/>
    <rect x="16" y="17" width="7" height="1" fill="#42314c"/>
    <rect x="61" y="17" width="7" height="1" fill="#42314c"/>
    <rect x="83" y="17" width="1" height="1" fill="#42314c"/>
    <rect x="0" y="18" width="1" height="1" fill="#42314c"/>
    <rect x="15" y="18" width="6" height="1" fill="#42314c"/>
    <rect x="63" y="18" width="6" height="1" fill="#42314c"/>
    <rect x="83" y="18" width="1" height="1" fill="#42314c"/>
    <rect x="0" y="19" width="1" height="1" fill="#42314c"/>
    <rect x="14" y="19" width="7" height="1" fill="#42314c"/>
    <rect x="63" y="19" width="7" height="1" fill="#42314c"/>
    <rect x="83" y="19" width="1" height="1" fill="#42314c"/>
    <rect x="0" y="20" width="1" height="1" fill="#42314c"/>
    <rect x="14" y="20" width="6" height="1" fill="#42314c"/>
    <rect x="64" y="20" width="6" height="1" fill="#42314c"/>
    <rect x="83" y="20" width="1" height="1" fill="#42314c"/>
    <rect x="0" y="21" width="1" height="1" fill="#42314c"/>
    <rect x="13" y="21" width="6" height="1" fill="#42314c"/>
    <rect x="65" y="21" width="6" height="1" fill="#42314c"/>
    <rect x="83" y="21" width="1" height="1" fill="#42314c"/>
    <rect x="0" y="22" width="1" height="1" fill="#42314c"/>
    <rect x="13" y="22" width="6" height="1" fill="#42314c"/>
    <rect x="65" y="22" width="6" height="1" fill="#42314c"/>
    <rect x="83" y="22" width="1" height="1" fill="#42314c"/>
    <rect x="0" y="23" width="1" height="1" fill="#42314c"/>
    <rect x="11" y="23" width="7" height="1" fill="#42314c"/>
    <rect x="66" y="23" width="7" height="1" fill="#42314c"/>
    <rect x="83" y="23" width="1" height="1" fill="#42314c"/>
    <rect x="0" y="24" width="1" height="1" fill="#42314c"/>
    <rect x="11" y="24" width="5" height="1" fill="#42314c"/>
    <rect x="68" y="24" width="6" height="1" fill="#42314c"/>
    <rect x="83" y="24" width="1" height="1" fill="#42314c"/>
    <rect x="0" y="25" width="1" height="1" fill="#42314c"/>
    <rect x="10" y="25" width="6" height="1" fill="#42314c"/>
    <rect x="68" y="25" width="6" height="1" fill="#42314c"/>
    <rect x="83" y="25" width="1" height="1" fill="#42314c"/>
    <rect x="0" y="26" width="1" height="1" fill="#42314c"/>
    <rect x="10" y="26" width="6" height="1" fill="#42314c"/>
    <rect x="69" y="26" width="6" height="1" fill="#42314c"/>
    <rect x="83" y="26" width="1" height="1" fill="#42314c"/>
    <rect x="0" y="27" width="1" height="1" fill="#42314c"/>
    <rect x="9" y="27" width="6" height="1" fill="#42314c"/>
    <rect x="69" y="27" width="6" height="1" fill="#42314c"/>
    <rect x="83" y="27" width="1" height="1" fill="#42314c"/>
    <rect x="0" y="28" width="1" height="1" fill="#42314c"/>
    <rect x="9" y="28" width="6" height="1" fill="#42314c"/>
    <rect x="70" y="28" width="5" height="1" fill="#42314c"/>
    <rect x="83" y="28" width="1" height="1" fill="#42314c"/>
    <rect x="0" y="29" width="1" height="1" fill="#42314c"/>
    <rect x="8" y="29" width="6" height="1" fill="#42314c"/>
    <rect x="40" y="29" width="3" height="1" fill="#42314c"/>
    <rect x="70" y="29" width="6" height="1" fill="#42314c"/>
    <rect x="83" y="29" width="1" height="1" fill="#42314c"/>
    <rect x="0" y="30" width="1" height="1" fill="#42314c"/>
    <rect x="8" y="30" width="6" height="1" fill="#42314c"/>
    <rect x="37" y="30" width="10" height="1" fill="#42314c"/>
    <rect x="70" y="30" width="6" height="1" fill="#42314c"/>
    <rect x="83" y="30" width="1" height="1" fill="#42314c"/>
    <rect x="0" y="31" width="1" height="1" fill="#42314c"/>
    <rect x="8" y="31" width="5" height="1" fill="#42314c"/>
    <rect x="35" y="31" width="14" height="1" fill="#42314c"/>
    <rect x="71" y="31" width="5" height="1" fill="#42314c"/>
    <rect x="83" y="31" width="1" height="1" fill="#42314c"/>
    <rect x="0" y="32" width="1" height="1" fill="#42314c"/>
    <rect x="7" y="32" width="6" height="1" fill="#42314c"/>
    <rect x="34" y="32" width="16" height="1" fill="#42314c"/>
    <rect x="71" y="32" width="6" height="1" fill="#42314c"/>
    <rect x="83" y="32" width="1" height="1" fill="#42314c"/>
    <rect x="0" y="33" width="1" height="1" fill="#42314c"/>
    <rect x="7" y="33" width="6" height="1" fill="#42314c"/>
    <rect x="34" y="33" width="17" height="1" fill="#42314c"/>
    <rect x="71" y="33" width="6" height="1" fill="#42314c"/>
    <rect x="83" y="33" width="1" height="1" fill="#42314c"/>
    <rect x="0" y="34" width="1" height="1" fill="#42314c"/>
    <rect x="7" y="34" width="5" height="1" fill="#42314c"/>
    <rect x="32" y="34" width="20" height="1" fill="#42314c"/>
    <rect x="72" y="34" width="5" height="1" fill="#42314c"/>
    <rect x="83" y="34" width="1" height="1" fill="#42314c"/>
    <rect x="0" y="35" width="1" height="1" fill="#42314c"/>
    <rect x="7" y="35" width="5" height="1" fill="#42314c"/>
    <rect x="31" y="35" width="22" height="1" fill="#42314c"/>
    <rect x="72" y="35" width="5" height="1" fill="#42314c"/>
    <rect x="83" y="35" width="1" height="1" fill="#42314c"/>
    <rect x="0" y="36" width="1" height="1" fill="#42314c"/>
    <rect x="7" y="36" width="5" height="1" fill="#42314c"/>
    <rect x="31" y="36" width="22" height="1" fill="#42314c"/>
    <rect x="72" y="36" width="5" height="1" fill="#42314c"/>
    <rect x="83" y="36" width="1" height="1" fill="#42314c"/>
    <rect x="0" y="37" width="1" height="1" fill="#42314c"/>
    <rect x="7" y="37" width="5" height="1" fill="#42314c"/>
    <rect x="31" y="37" width="22" height="1" fill="#42314c"/>
    <rect x="72" y="37" width="5" height="1" fill="#42314c"/>
    <rect x="83" y="37" width="1" height="1" fill="#42314c"/>
    <rect x="0" y="38" width="1" height="1" fill="#42314c"/>
    <rect x="7" y="38" width="5" height="1" fill="#42314c"/>
    <rect x="31" y="38" width="23" height="1" fill="#42314c"/>
    <rect x="72" y="38" width="5" height="1" fill="#42314c"/>
    <rect x="83" y="38" width="1" height="1" fill="#42314c"/>
    <rect x="0" y="39" width="1" height="1" fill="#42314c"/>
    <rect x="6" y="39" width="6" height="1" fill="#42314c"/>
    <rect x="30" y="39" width="24" height="1" fill="#42314c"/>
    <rect x="72" y="39" width="5" height="1" fill="#42314c"/>
    <rect x="83" y="39" width="1" height="1" fill="#42314c"/>
    <rect x="0" y="40" width="1" height="1" fill="#42314c"/>
    <rect x="6" y="40" width="6" height="1" fill="#42314c"/>
    <rect x="30" y="40" width="24" height="1" fill="#42314c"/>
    <rect x="72" y="40" width="5" height="1" fill="#42314c"/>
    <rect x="83" y="40" width="1" height="1" fill="#42314c"/>
    <rect x="0" y="41" width="1" height="1" fill="#42314c"/>
    <rect x="6" y="41" width="5" height="1" fill="#42314c"/>
    <rect x="30" y="41" width="24" height="1" fill="#42314c"/>
    <rect x="72" y="41" width="5" height="1" fill="#42314c"/>
    <rect x="83" y="41" width="1" height="1" fill="#42314c"/>
    <rect x="0" y="42" width="1" height="1" fill="#42314c"/>
    <rect x="6" y="42" width="6" height="1" fill="#42314c"/>
    <rect x="30" y="42" width="24" height="1" fill="#42314c"/>
    <rect x="72" y="42" width="5" height="1" fill="#42314c"/>
    <rect x="83" y="42" width="1" height="1" fill="#42314c"/>
    <rect x="0" y="43" width="1" height="1" fill="#42314c"/>
    <rect x="6" y="43" width="6" height="1" fill="#42314c"/>
    <rect x="30" y="43" width="24" height="1" fill="#42314c"/>
    <rect x="72" y="43" width="5" height="1" fill="#42314c"/>
    <rect x="83" y="43" width="1" height="1" fill="#42314c"/>
    <rect x="0" y="44" width="1" height="1" fill="#42314c"/>
    <rect x="7" y="44" width="5" height="1" fill="#42314c"/>
    <rect x="31" y="44" width="23" height="1" fill="#42314c"/>
    <rect x="72" y="44" width="5" height="1" fill="#42314c"/>
    <rect x="83" y="44" width="1" height="1" fill="#42314c"/>
    <rect x="0" y="45" width="1" height="1" fill="#42314c"/>
    <rect x="7" y="45" width="5" height="1" fill="#42314c"/>
    <rect x="31" y="45" width="22" height="1" fill="#42314c"/>
    <rect x="72" y="45" width="5" height="1" fill="#42314c"/>
    <rect x="83" y="45" width="1" height="1" fill="#42314c"/>
    <rect x="0" y="46" width="1" height="1" fill="#42314c"/>
    <rect x="7" y="46" width="5" height="1" fill="#42314c"/>
    <rect x="31" y="46" width="22" height="1" fill="#42314c"/>
    <rect x="72" y="46" width="5" height="1" fill="#42314c"/>
    <rect x="83" y="46" width="1" height="1" fill="#42314c"/>
    <rect x="0" y="47" width="1" height="1" fill="#42314c"/>
    <rect x="7" y="47" width="5" height="1" fill="#42314c"/>
    <rect x="31" y="47" width="22" height="1" fill="#42314c"/>
    <rect x="72" y="47" width="5" height="1" fill="#42314c"/>
    <rect x="83" y="47" width="1" height="1" fill="#42314c"/>
    <rect x="0" y="48" width="1" height="1" fill="#42314c"/>
    <rect x="7" y="48" width="5" height="1" fill="#42314c"/>
    <rect x="33" y="48" width="18" height="1" fill="#42314c"/>
    <rect x="72" y="48" width="5" height="1" fill="#42314c"/>
    <rect x="83" y="48" width="1" height="1" fill="#42314c"/>
    <rect x="0" y="49" width="1" height="1" fill="#42314c"/>
    <rect x="7" y="49" width="6" height="1" fill="#42314c"/>
    <rect x="34" y="49" width="17" height="1" fill="#42314c"/>
    <rect x="71" y="49" width="6" height="1" fill="#42314c"/>
    <rect x="83" y="49" width="1" height="1" fill="#42314c"/>
    <rect x="0" y="50" width="1" height="1" fill="#42314c"/>
    <rect x="7" y="50" width="6" height="1" fill="#42314c"/>
    <rect x="34" y="50" width="16" height="1" fill="#42314c"/>
    <rect x="71" y="50" width="6" height="1" fill="#42314c"/>
    <rect x="83" y="50" width="1" height="1" fill="#42314c"/>
    <rect x="0" y="51" width="1" height="1" fill="#42314c"/>
    <rect x="8" y="51" width="5" height="1" fill="#42314c"/>
    <rect x="36" y="51" width="12" height="1" fill="#42314c"/>
    <rect x="71" y="51" width="5" height="1" fill="#42314c"/>
    <rect x="83" y="51" width="1" height="1" fill="#42314c"/>
    <rect x="0" y="52" width="1" height="1" fill="#42314c"/>
    <rect x="8" y="52" width="6" height="1" fill="#42314c"/>
    <rect x="37" y="52" width="9" height="1" fill="#42314c"/>
    <rect x="70" y="52" width="6" height="1" fill="#42314c"/>
    <rect x="83" y="52" width="1" height="1" fill="#42314c"/>
    <rect x="0" y="53" width="1" height="1" fill="#42314c"/>
    <rect x="8" y="53" width="6" height="1" fill="#42314c"/>
    <rect x="41" y="53" width="1" height="1" fill="#42314c"/>
    <rect x="70" y="53" width="6" height="1" fill="#42314c"/>
    <rect x="83" y="53" width="1" height="1" fill="#42314c"/>
    <rect x="0" y="54" width="1" height="1" fill="#42314c"/>
    <rect x="9" y="54" width="6" height="1" fill="#42314c"/>
    <rect x="70" y="54" width="5" height="1" fill="#42314c"/>
    <rect x="83" y="54" width="1" height="1" fill="#42314c"/>
    <rect x="0" y="55" width="1" height="1" fill="#42314c"/>
    <rect x="9" y="55" width="6" height="1" fill="#42314c"/>
    <rect x="69" y="55" width="6" height="1" fill="#42314c"/>
    <rect x="83" y="55" width="1" height="1" fill="#42314c"/>
    <rect x="0" y="56" width="1" height="1" fill="#42314c"/>
    <rect x="10" y="56" width="6" height="1" fill="#42314c"/>
    <rect x="69" y="56" width="6" height="1" fill="#42314c"/>
    <rect x="83" y="56" width="1" height="1" fill="#42314c"/>
    <rect x="0" y="57" width="1" height="1" fill="#42314c"/>
    <rect x="10" y="57" width="6" height="1" fill="#42314c"/>
    <rect x="68" y="57" width="6" height="1" fill="#42314c"/>
    <rect x="83" y="57" width="1" height="1" fill="#42314c"/>
    <rect x="0" y="58" width="1" height="1" fill="#42314c"/>
    <rect x="11" y="58" width="5" height="1" fill="#42314c"/>
    <rect x="68" y="58" width="6" height="1" fill="#42314c"/>
    <rect x="83" y="58" width="1" height="1" fill="#42314c"/>
    <rect x="0" y="59" width="1" height="1" fill="#42314c"/>
    <rect x="11" y="59" width="7" height="1" fill="#42314c"/>
    <rect x="66" y="59" width="7" height="1" fill="#42314c"/>
    <rect x="83" y="59" width="1" height="1" fill="#42314c"/>
    <rect x="0" y="60" width="1" height="1" fill="#42314c"/>
    <rect x="13" y="60" width="6" height="1" fill="#42314c"/>
    <rect x="65" y="60" width="6" height="1" fill="#42314c"/>
    <rect x="83" y="60" width="1" height="1" fill="#42314c"/>
    <rect x="0" y="61" width="1" height="1" fill="#42314c"/>
    <rect x="13" y="61" width="6" height="1" fill="#42314c"/>
    <rect x="65" y="61" width="6" height="1" fill="#42314c"/>
    <rect x="83" y="61" width="1" height="1" fill="#42314c"/>
    <rect x="0" y="62" width="1" height="1" fill="#42314c"/>
    <rect x="14" y="62" width="6" height="1" fill="#42314c"/>
    <rect x="64" y="62" width="6" height="1" fill="#42314c"/>
    <rect x="83" y="62" width="1" height="1" fill="#42314c"/>
    <rect x="0" y="63" width="1" height="1" fill="#42314c"/>
    <rect x="14" y="63" width="7" height="1" fill="#42314c"/>
    <rect x="63" y="63" width="7" height="1" fill="#42314c"/>
    <rect x="83" y="63" width="1" height="1" fill="#42314c"/>
    <rect x="0" y="64" width="1" height="1" fill="#42314c"/>
    <rect x="15" y="64" width="6" height="1" fill="#42314c"/>
    <rect x="63" y="64" width="6" height="1" fill="#42314c"/>
    <rect x="83" y="64" width="1" height="1" fill="#42314c"/>
    <rect x="0" y="65" width="1" height="1" fill="#42314c"/>
    <rect x="16" y="65" width="7" height="1" fill="#42314c"/>
    <rect x="61" y="65" width="7" height="1" fill="#42314c"/>
    <rect x="83" y="65" width="1" height="1" fill="#42314c"/>
    <rect x="0" y="66" width="1" height="1" fill="#42314c"/>
    <rect x="16" y="66" width="8" height="1" fill="#42314c"/>
    <rect x="60" y="66" width="8" height="1" fill="#42314c"/>
    <rect x="83" y="66" width="1" height="1" fill="#42314c"/>
    <rect x="0" y="67" width="1" height="1" fill="#42314c"/>
    <rect x="17" y="67" width="9" height="1" fill="#42314c"/>
    <rect x="58" y="67" width="9" height="1" fill="#42314c"/>
    <rect x="83" y="67" width="1" height="1" fill="#42314c"/>
    <rect x="0" y="68" width="1" height="1" fill="#42314c"/>
    <rect x="18" y="68" width="10" height="1" fill="#42314c"/>
    <rect x="56" y="68" width="10" height="1" fill="#42314c"/>
    <rect x="83" y="68" width="1" height="1" fill="#42314c"/>
    <rect x="0" y="69" width="1" height="1" fill="#42314c"/>
    <rect x="19" y="69" width="12" height="1" fill="#42314c"/>
    <rect x="53" y="69" width="12" height="1" fill="#42314c"/>
    <rect x="83" y="69" width="1" height="1" fill="#42314c"/>
    <rect x="0" y="70" width="1" height="1" fill="#42314c"/>
    <rect x="21" y="70" width="13" height="1" fill="#42314c"/>
    <rect x="50" y="70" width="13" height="1" fill="#42314c"/>
    <rect x="83" y="70" width="1" height="1" fill="#42314c"/>
    <rect x="0" y="71" width="1" height="1" fill="#42314c"/>
    <rect x="22" y="71" width="16" height="1" fill="#42314c"/>
    <rect x="46" y="71" width="16" height="1" fill="#42314c"/>
    <rect x="83" y="71" width="1" height="1" fill="#42314c"/>
    <rect x="0" y="72" width="1" height="1" fill="#42314c"/>
    <rect x="24" y="72" width="36" height="1" fill="#42314c"/>
    <rect x="83" y="72" width="1" height="1" fill="#42314c"/>
    <rect x="0" y="73" width="1" height="1" fill="#42314c"/>
    <rect x="26" y="73" width="32" height="1" fill="#42314c"/>
    <rect x="83" y="73" width="1" height="1" fill="#42314c"/>
    <rect x="0" y="74" width="1" height="1" fill="#42314c"/>
    <rect x="29" y="74" width="26" height="1" fill="#42314c"/>
    <rect x="83" y="74" width="1" height="1" fill="#42314c"/>
    <rect x="0" y="75" width="1" height="1" fill="#42314c"/>
    <rect x="34" y="75" width="16" height="1" fill="#42314c"/>
    <rect x="83" y="75" width="1" height="1" fill="#42314c"/>
    <rect x="0" y="76" width="1" height="1" fill="#42314c"/>
    <rect x="36" y="76" width="12" height="1" fill="#42314c"/>
    <rect x="83" y="76" width="1" height="1" fill="#42314c"/>
    <rect x="0" y="77" width="1" height="1" fill="#42314c"/>
    <rect x="83" y="77" width="1" height="1" fill="#42314c"/>
    <rect x="0" y="78" width="1" height="1" fill="#42314c"/>
    <rect x="83" y="78" width="1" height="1" fill="#42314c"/>
    <rect x="0" y="79" width="1" height="1" fill="#42314c"/>
    <rect x="83" y="79" width="1" height="1" fill="#42314c"/>
    <rect x="0" y="80" width="1" height="1" fill="#42314c"/>
    <rect x="83" y="80" width="1" height="1" fill="#42314c"/>
    <rect x="0" y="81" width="1" height="1" fill="#42314c"/>
    <rect x="83" y="81" width="1" height="1" fill="#42314c"/>
    <rect x="0" y="82" width="84" height="1" fill="#42314c"/>
  </g>
</svg>