<?xml version="1.0" encoding="UTF-8"?>
<svg xmlns="http://www.w3.org/2000/svg" viewBox="0 0 154 62" width="154" height="62">
  <!-- Auto-converted from legend-2191.png -->
  <rect x="0" y="0" width="154" height="62" fill="none"/>
  <g fill="#000000" stroke="none">
    <rect x="0" y="0" width="154" height="1" fill="#000000"/>
    <rect x="0" y="1" width="1" height="1" fill="#000000"/>
    <rect x="153" y="1" width="1" height="1" fill="#000000"/>
    <rect x="0" y="2" width="1" height="1" fill="#000000"/>
    <rect x="153" y="2" width="1" height="1" fill="#000000"/>
    <rect x="0" y="3" width="1" height="1" fill="#000000"/>
    <rect x="153" y="3" width="1" height="1" fill="#000000"/>
    <rect x="0" y="4" width="1" height="1" fill="#000000"/>
    <rect x="153" y="4" width="1" height="1" fill="#000000"/>
    <rect x="0" y="5" width="1" height="1" fill="#000000"/>
    <rect x="153" y="5" width="1" height="1" fill="#000000"/>
    <rect x="0" y="6" width="1" height="1" fill="#000000"/>
    <rect x="26" y="6" width="1" height="1" fill="#000000"/>
    <rect x="153" y="6" width="1" height="1" fill="#000000"/>
    <rect x="0" y="7" width="1" height="1" fill="#000000"/>
    <rect x="26" y="7" width="1" height="1" fill="#000000"/>
    <rect x="56" y="7" width="1" height="1" fill="#000000"/>
    <rect x="86" y="7" width="1" height="1" fill="#000000"/>
    <rect x="117" y="7" width="1" height="1" fill="#000000"/>
    <rect x="153" y="7" width="1" height="1" fill="#000000"/>
    <rect x="0" y="8" width="1" height="1" fill="#000000"/>
    <rect x="26" y="8" width="1" height="1" fill="#000000"/>
    <rect x="56" y="8" width="1" height="1" fill="#000000"/>
    <rect x="87" y="8" width="1" height="1" fill="#000000"/>
    <rect x="117" y="8" width="1" height="1" fill="#000000"/>
    <rect x="153" y="8" width="1" height="1" fill="#000000"/>
    <rect x="0" y="9" width="1" height="1" fill="#000000"/>
    <rect x="26" y="9" width="1" height="1" fill="#000000"/>
    <rect x="56" y="9" width="1" height="1" fill="#000000"/>
    <rect x="86" y="9" width="2" height="1" fill="#000000"/>
    <rect x="117" y="9" width="1" height="1" fill="#000000"/>
    <rect x="153" y="9" width="1" height="1" fill="#000000"/>
    <rect x="0" y="10" width="1" height="1" fill="#000000"/>
    <rect x="20" y="10" width="13" height="1" fill="#000000"/>
    <rect x="56" y="10" width="1" height="1" fill="#000000"/>
    <rect x="86" y="10" width="1" height="1" fill="#000000"/>
    <rect x="88" y="10" width="1" height="1" fill="#000000"/>
    <rect x="117" y="10" width="1" height="1" fill="#000000"/>
    <rect x="153" y="10" width="1" height="1" fill="#000000"/>
    <rect x="0" y="11" width="1" height="1" fill="#000000"/>
    <rect x="26" y="11" width="1" height="1" fill="#000000"/>
    <rect x="56" y="11" width="1" height="1" fill="#000000"/>
    <rect x="85" y="11" width="1" height="1" fill="#000000"/>
    <rect x="88" y="11" width="1" height="1" fill="#000000"/>
    <rect x="117" y="11" width="1" height="1" fill="#000000"/>
    <rect x="153" y="11" width="1" height="1" fill="#000000"/>
    <rect x="0" y="12" width="1" height="1" fill="#000000"/>
    <rect x="26" y="12" width="1" height="1" fill="#000000"/>
    <rect x="51" y="12" width="11" height="1" fill="#000000"/>
    <rect x="85" y="12" width="1" height="1" fill="#000000"/>
    <rect x="89" y="12" width="1" height="1" fill="#000000"/>
    <rect x="112" y="12" width="11" height="1" fill="#000000"/>
    <rect x="153" y="12" width="1" height="1" fill="#000000"/>
    <rect x="0" y="13" width="1" height="1" fill="#000000"/>
    <rect x="26" y="13" width="1" height="1" fill="#000000"/>
    <rect x="84" y="13" width="1" height="1" fill="#000000"/>
    <rect x="90" y="13" width="1" height="1" fill="#000000"/>
    <rect x="153" y="13" width="1" height="1" fill="#000000"/>
    <rect x="0" y="14" width="1" height="1" fill="#000000"/>
    <rect x="26" y="14" width="1" height="1" fill="#000000"/>
    <rect x="83" y="14" width="1" height="1" fill="#000000"/>
    <rect x="91" y="14" width="2" height="1" fill="#000000"/>
    <rect x="153" y="14" width="1" height="1" fill="#000000"/>
    <rect x="0" y="15" width="1" height="1" fill="#000000"/>
    <rect x="153" y="15" width="1" height="1" fill="#000000"/>
    <rect x="0" y="16" width="1" height="1" fill="#000000"/>
    <rect x="153" y="16" width="1" height="1" fill="#000000"/>
    <rect x="0" y="17" width="1" height="1" fill="#000000"/>
    <rect x="153" y="17" width="1" height="1" fill="#000000"/>
    <rect x="0" y="18" width="1" height="1" fill="#000000"/>
    <rect x="153" y="18" width="1" height="1" fill="#000000"/>
    <rect x="0" y="19" width="1" height="1" fill="#000000"/>
    <rect x="153" y="19" width="1" height="1" fill="#000000"/>
    <rect x="0" y="20" width="154" height="1" fill="#000000"/>
    <rect x="0" y="21" width="1" height="1" fill="#000000"/>
    <rect x="153" y="21" width="1" height="1" fill="#000000"/>
    <rect x="0" y="22" width="1" height="1" fill="#000000"/>
    <rect x="153" y="22" width="1" height="1" fill="#000000"/>
    <rect x="0" y="23" width="1" height="1" fill="#000000"/>
    <rect x="153" y="23" width="1" height="1" fill="#000000"/>
    <rect x="0" y="24" width="1" height="1" fill="#000000"/>
    <rect x="153" y="24" width="1" height="1" fill="#000000"/>
    <rect x="0" y="25" width="1" height="1" fill="#000000"/>
    <rect x="153" y="25" width="1" height="1" fill="#000000"/>
    <rect x="0" y="26" width="1" height="1" fill="#000000"/>
    <rect x="153" y="26" width="1" height="1" fill="#000000"/>
    <rect x="0" y="27" width="1" height="1" fill="#000000"/>
    <rect x="36" y="27" width="1" height="1" fill="#000000"/>
    <rect x="65" y="27" width="1" height="1" fill="#000000"/>
    <rect x="97" y="27" width="1" height="1" fill="#000000"/>
    <rect x="127" y="27" width="1" height="1" fill="#000000"/>
    <rect x="153" y="27" width="1" height="1" fill="#000000"/>
    <rect x="0" y="28" width="1" height="1" fill="#000000"/>
    <rect x="36" y="28" width="1" height="1" fill="#000000"/>
    <rect x="66" y="28" width="1" height="1" fill="#000000"/>
    <rect x="97" y="28" width="1" height="1" fill="#000000"/>
    <rect x="127" y="28" width="1" height="1" fill="#000000"/>
    <rect x="153" y="28" width="1" height="1" fill="#000000"/>
    <rect x="0" y="29" width="1" height="1" fill="#000000"/>
    <rect x="36" y="29" width="1" height="1" fill="#000000"/>
    <rect x="65" y="29" width="2" height="1" fill="#000000"/>
    <rect x="97" y="29" width="1" height="1" fill="#000000"/>
    <rect x="127" y="29" width="1" height="1" fill="#000000"/>
    <rect x="153" y="29" width="1" height="1" fill="#000000"/>
    <rect x="0" y="30" width="1" height="1" fill="#000000"/>
    <rect x="36" y="30" width="1" height="1" fill="#000000"/>
    <rect x="65" y="30" width="1" height="1" fill="#000000"/>
    <rect x="67" y="30" width="1" height="1" fill="#000000"/>
    <rect x="97" y="30" width="1" height="1" fill="#000000"/>
    <rect x="121" y="30" width="13" height="1" fill="#000000"/>
    <rect x="153" y="30" width="1" height="1" fill="#000000"/>
    <rect x="0" y="31" width="1" height="1" fill="#000000"/>
    <rect x="36" y="31" width="1" height="1" fill="#000000"/>
    <rect x="64" y="31" width="1" height="1" fill="#000000"/>
    <rect x="67" y="31" width="1" height="1" fill="#000000"/>
    <rect x="97" y="31" width="1" height="1" fill="#000000"/>
    <rect x="127" y="31" width="1" height="1" fill="#000000"/>
    <rect x="153" y="31" width="1" height="1" fill="#000000"/>
    <rect x="0" y="32" width="1" height="1" fill="#000000"/>
    <rect x="31" y="32" width="11" height="1" fill="#000000"/>
    <rect x="64" y="32" width="1" height="1" fill="#000000"/>
    <rect x="68" y="32" width="1" height="1" fill="#000000"/>
    <rect x="92" y="32" width="11" height="1" fill="#000000"/>
    <rect x="127" y="32" width="1" height="1" fill="#000000"/>
    <rect x="153" y="32" width="1" height="1" fill="#000000"/>
    <rect x="0" y="33" width="1" height="1" fill="#000000"/>
    <rect x="63" y="33" width="1" height="1" fill="#000000"/>
    <rect x="69" y="33" width="1" height="1" fill="#000000"/>
    <rect x="127" y="33" width="1" height="1" fill="#000000"/>
    <rect x="153" y="33" width="1" height="1" fill="#000000"/>
    <rect x="0" y="34" width="1" height="1" fill="#000000"/>
    <rect x="62" y="34" width="1" height="1" fill="#000000"/>
    <rect x="70" y="34" width="2" height="1" fill="#000000"/>
    <rect x="127" y="34" width="1" height="1" fill="#000000"/>
    <rect x="153" y="34" width="1" height="1" fill="#000000"/>
    <rect x="0" y="35" width="1" height="1" fill="#000000"/>
    <rect x="153" y="35" width="1" height="1" fill="#000000"/>
    <rect x="0" y="36" width="1" height="1" fill="#000000"/>
    <rect x="153" y="36" width="1" height="1" fill="#000000"/>
    <rect x="0" y="37" width="1" height="1" fill="#000000"/>
    <rect x="153" y="37" width="1" height="1" fill="#000000"/>
    <rect x="0" y="38" width="1" height="1" fill="#000000"/>
    <rect x="153" y="38" width="1" height="1" fill="#000000"/>
    <rect x="0" y="39" width="1" height="1" fill="#000000"/>
    <rect x="153" y="39" width="1" height="1" fill="#000000"/>
    <rect x="0" y="40" width="1" height="1" fill="#000000"/>
    <rect x="153" y="40" width="1" height="1" fill="#000000"/>
    <rect x="0" y="41" width="154" height="1" fill="#000000"/>
    <rect x="0" y="42" width="1" height="1" fill="#000000"/>
    <rect x="153" y="42" width="1" height="1" fill="#000000"/>
    <rect x="0" y="43" width="1" height="1" fill="#000000"/>
    <rect x="153" y="43" width="1" height="1" fill="#000000"/>
    <rect x="0" y="44" width="1" height="1" fill="#000000"/>
    <rect x="153" y="44" width="1" height="1" fill="#000000"/>
    <rect x="0" y="45" width="1" height="1" fill="#000000"/>
    <rect x="153" y="45" width="1" height="1" fill="#000000"/>
    <rect x="0" y="46" width="1" height="1" fill="#000000"/>
    <rect x="153" y="46" width="1" height="1" fill="#000000"/>
    <rect x="0" y="47" width="1" height="1" fill="#000000"/>
    <rect x="26" y="47" width="1" height="1" fill="#000000"/>
    <rect x="56" y="47" width="1" height="1" fill="#000000"/>
    <rect x="117" y="47" width="1" height="1" fill="#000000"/>
    <rect x="153" y="47" width="1" height="1" fill="#000000"/>
    <rect x="0" y="48" width="1" height="1" fill="#000000"/>
    <rect x="26" y="48" width="1" height="1" fill="#000000"/>
    <rect x="56" y="48" width="1" height="1" fill="#000000"/>
    <rect x="86" y="48" width="1" height="1" fill="#000000"/>
    <rect x="117" y="48" width="1" height="1" fill="#000000"/>
    <rect x="153" y="48" width="1" height="1" fill="#000000"/>
    <rect x="0" y="49" width="1" height="1" fill="#000000"/>
    <rect x="26" y="49" width="1" height="1" fill="#000000"/>
    <rect x="56" y="49" width="1" height="1" fill="#000000"/>
    <rect x="87" y="49" width="1" height="1" fill="#000000"/>
    <rect x="117" y="49" width="1" height="1" fill="#000000"/>
    <rect x="153" y="49" width="1" height="1" fill="#000000"/>
    <rect x="0" y="50" width="1" height="1" fill="#000000"/>
    <rect x="26" y="50" width="1" height="1" fill="#000000"/>
    <rect x="56" y="50" width="1" height="1" fill="#000000"/>
    <rect x="86" y="50" width="2" height="1" fill="#000000"/>
    <rect x="117" y="50" width="1" height="1" fill="#000000"/>
    <rect x="153" y="50" width="1" height="1" fill="#000000"/>
    <rect x="0" y="51" width="1" height="1" fill="#000000"/>
    <rect x="20" y="51" width="13" height="1" fill="#000000"/>
    <rect x="56" y="51" width="1" height="1" fill="#000000"/>
    <rect x="86" y="51" width="1" height="1" fill="#000000"/>
    <rect x="88" y="51" width="1" height="1" fill="#000000"/>
    <rect x="117" y="51" width="1" height="1" fill="#000000"/>
    <rect x="153" y="51" width="1" height="1" fill="#000000"/>
    <rect x="0" y="52" width="1" height="1" fill="#000000"/>
    <rect x="26" y="52" width="1" height="1" fill="#000000"/>
    <rect x="56" y="52" width="1" height="1" fill="#000000"/>
    <rect x="85" y="52" width="1" height="1" fill="#000000"/>
    <rect x="88" y="52" width="1" height="1" fill="#000000"/>
    <rect x="117" y="52" width="1" height="1" fill="#000000"/>
    <rect x="153" y="52" width="1" height="1" fill="#000000"/>
    <rect x="0" y="53" width="1" height="1" fill="#000000"/>
    <rect x="26" y="53" width="1" height="1" fill="#000000"/>
    <rect x="51" y="53" width="11" height="1" fill="#000000"/>
    <rect x="85" y="53" width="1" height="1" fill="#000000"/>
    <rect x="89" y="53" width="1" height="1" fill="#000000"/>
    <rect x="112" y="53" width="11" height="1" fill="#000000"/>
    <rect x="153" y="53" width="1" height="1" fill="#000000"/>
    <rect x="0" y="54" width="1" height="1" fill="#000000"/>
    <rect x="26" y="54" width="1" height="1" fill="#000000"/>
    <rect x="84" y="54" width="1" height="1" fill="#000000"/>
    <rect x="90" y="54" width="1" height="1" fill="#000000"/>
    <rect x="153" y="54" width="1" height="1" fill="#000000"/>
    <rect x="0" y="55" width="1" height="1" fill="#000000"/>
    <rect x="26" y="55" width="1" height="1" fill="#000000"/>
    <rect x="83" y="55" width="1" height="1" fill="#000000"/>
    <rect x="91" y="55" width="2" height="1" fill="#000000"/>
    <rect x="153" y="55" width="1" height="1" fill="#000000"/>
    <rect x="0" y="56" width="1" height="1" fill="#000000"/>
    <rect x="153" y="56" width="1" height="1" fill="#000000"/>
    <rect x="0" y="57" width="1" height="1" fill="#000000"/>
    <rect x="153" y="57" width="1" height="1" fill="#000000"/>
    <rect x="0" y="58" width="1" height="1" fill="#000000"/>
    <rect x="153" y="58" width="1" height="1" fill="#000000"/>
    <rect x="0" y="59" width="1" height="1" fill="#000000"/>
    <rect x="153" y="59" width="1" height="1" fill="#000000"/>
    <rect x="0" y="60" width="1" height="1" fill="#000000"/>
    <rect x="153" y="60" width="1" height="1" fill="#000000"/>
    <rect x="0" y="61" width="154" height="1" fill="#000000"/>
  </g>
</svg>