<?xml version="1.0" encoding="UTF-8"?>
<svg xmlns="http://www.w3.org/2000/svg" viewBox="0 0 124 83" width="124" height="83">
  <!-- Auto-converted from legend-377.png -->
  <rect x="0" y="0" width="124" height="83" fill="none"/>
  <g fill="#231f20" stroke="none">
    <rect x="0" y="0" width="124" height="1" fill="#231f20"/>
    <rect x="0" y="1" width="1" height="1" fill="#231f20"/>
    <rect x="123" y="1" width="1" height="1" fill="#231f20"/>
    <rect x="0" y="2" width="1" height="1" fill="#231f20"/>
    <rect x="123" y="2" width="1" height="1" fill="#231f20"/>
    <rect x="0" y="3" width="1" height="1" fill="#231f20"/>
    <rect x="123" y="3" width="1" height="1" fill="#231f20"/>
    <rect x="0" y="4" width="1" height="1" fill="#231f20"/>
    <rect x="123" y="4" width="1" height="1" fill="#231f20"/>
    <rect x="0" y="5" width="1" height="1" fill="#231f20"/>
    <rect x="123" y="5" width="1" height="1" fill="#231f20"/>
    <rect x="0" y="6" width="1" height="1" fill="#231f20"/>
    <rect x="123" y="6" width="1" height="1" fill="#231f20"/>
    <rect x="0" y="7" width="1" height="1" fill="#231f20"/>
    <rect x="123" y="7" width="1" height="1" fill="#231f20"/>
    <rect x="0" y="8" width="1" height="1" fill="#231f20"/>
    <rect x="114" y="8" width="3" height="1" fill="#231f20"/>
    <rect x="123" y="8" width="1" height="1" fill="#231f20"/>
    <rect x="0" y="9" width="1" height="1" fill="#231f20"/>
    <rect x="113" y="9" width="4" height="1" fill="#231f20"/>
    <rect x="123" y="9" width="1" height="1" fill="#231f20"/>
    <rect x="0" y="10" width="1" height="1" fill="#231f20"/>
    <rect x="112" y="10" width="5" height="1" fill="#231f20"/>
    <rect x="123" y="10" width="1" height="1" fill="#231f20"/>
    <rect x="0" y="11" width="1" height="1" fill="#231f20"/>
    <rect x="111" y="11" width="5" height="1" fill="#231f20"/>
    <rect x="123" y="11" width="1" height="1" fill="#231f20"/>
    <rect x="0" y="12" width="1" height="1" fill="#231f20"/>
    <rect x="110" y="12" width="6" height="1" fill="#231f20"/>
    <rect x="123" y="12" width="1" height="1" fill="#231f20"/>
    <rect x="0" y="13" width="1" height="1" fill="#231f20"/>
    <rect x="109" y="13" width="6" height="1" fill="#231f20"/>
    <rect x="123" y="13" width="1" height="1" fill="#231f20"/>
    <rect x="0" y="14" width="1" height="1" fill="#231f20"/>
    <rect x="108" y="14" width="7" height="1" fill="#231f20"/>
    <rect x="123" y="14" width="1" height="1" fill="#231f20"/>
    <rect x="0" y="15" width="1" height="1" fill="#231f20"/>
    <rect x="107" y="15" width="7" height="1" fill="#231f20"/>
    <rect x="123" y="15" width="1" height="1" fill="#231f20"/>
    <rect x="0" y="16" width="1" height="1" fill="#231f20"/>
    <rect x="106" y="16" width="7" height="1" fill="#231f20"/>
    <rect x="123" y="16" width="1" height="1" fill="#231f20"/>
    <rect x="0" y="17" width="1" height="1" fill="#231f20"/>
    <rect x="104" y="17" width="9" height="1" fill="#231f20"/>
    <rect x="123" y="17" width="1" height="1" fill="#231f20"/>
    <rect x="0" y="18" width="1" height="1" fill="#231f20"/>
    <rect x="103" y="18" width="9" height="1" fill="#231f20"/>
    <rect x="123" y="18" width="1" height="1" fill="#231f20"/>
    <rect x="0" y="19" width="1" height="1" fill="#231f20"/>
    <rect x="102" y="19" width="9" height="1" fill="#231f20"/>
    <rect x="123" y="19" width="1" height="1" fill="#231f20"/>
    <rect x="0" y="20" width="1" height="1" fill="#231f20"/>
    <rect x="101" y="20" width="9" height="1" fill="#231f20"/>
    <rect x="123" y="20" width="1" height="1" fill="#231f20"/>
    <rect x="0" y="21" width="1" height="1" fill="#231f20"/>
    <rect x="100" y="21" width="10" height="1" fill="#231f20"/>
    <rect x="123" y="21" width="1" height="1" fill="#231f20"/>
    <rect x="0" y="22" width="1" height="1" fill="#231f20"/>
    <rect x="99" y="22" width="10" height="1" fill="#231f20"/>
    <rect x="123" y="22" width="1" height="1" fill="#231f20"/>
    <rect x="0" y="23" width="1" height="1" fill="#231f20"/>
    <rect x="101" y="23" width="7" height="1" fill="#231f20"/>
    <rect x="123" y="23" width="1" height="1" fill="#231f20"/>
    <rect x="0" y="24" width="1" height="1" fill="#231f20"/>
    <rect x="102" y="24" width="6" height="1" fill="#231f20"/>
    <rect x="123" y="24" width="1" height="1" fill="#231f20"/>
    <rect x="0" y="25" width="1" height="1" fill="#231f20"/>
    <rect x="103" y="25" width="4" height="1" fill="#231f20"/>
    <rect x="123" y="25" width="1" height="1" fill="#231f20"/>
    <rect x="0" y="26" width="1" height="1" fill="#231f20"/>
    <rect x="104" y="26" width="3" height="1" fill="#231f20"/>
    <rect x="123" y="26" width="1" height="1" fill="#231f20"/>
    <rect x="0" y="27" width="1" height="1" fill="#231f20"/>
    <rect x="71" y="27" width="3" height="1" fill="#231f20"/>
    <rect x="93" y="27" width="1" height="1" fill="#231f20"/>
    <rect x="105" y="27" width="1" height="1" fill="#231f20"/>
    <rect x="123" y="27" width="1" height="1" fill="#231f20"/>
    <rect x="0" y="28" width="1" height="1" fill="#231f20"/>
    <rect x="67" y="28" width="8" height="1" fill="#231f20"/>
    <rect x="92" y="28" width="3" height="1" fill="#231f20"/>
    <rect x="123" y="28" width="1" height="1" fill="#231f20"/>
    <rect x="0" y="29" width="1" height="1" fill="#231f20"/>
    <rect x="62" y="29" width="13" height="1" fill="#231f20"/>
    <rect x="91" y="29" width="5" height="1" fill="#231f20"/>
    <rect x="123" y="29" width="1" height="1" fill="#231f20"/>
    <rect x="0" y="30" width="1" height="1" fill="#231f20"/>
    <rect x="59" y="30" width="12" height="1" fill="#231f20"/>
    <rect x="73" y="30" width="3" height="1" fill="#231f20"/>
    <rect x="89" y="30" width="8" height="1" fill="#231f20"/>
    <rect x="123" y="30" width="1" height="1" fill="#231f20"/>
    <rect x="0" y="31" width="1" height="1" fill="#231f20"/>
    <rect x="58" y="31" width="8" height="1" fill="#231f20"/>
    <rect x="73" y="31" width="3" height="1" fill="#231f20"/>
    <rect x="88" y="31" width="10" height="1" fill="#231f20"/>
    <rect x="123" y="31" width="1" height="1" fill="#231f20"/>
    <rect x="0" y="32" width="1" height="1" fill="#231f20"/>
    <rect x="58" y="32" width="4" height="1" fill="#231f20"/>
    <rect x="73" y="32" width="3" height="1" fill="#231f20"/>
    <rect x="86" y="32" width="14" height="1" fill="#231f20"/>
    <rect x="123" y="32" width="1" height="1" fill="#231f20"/>
    <rect x="0" y="33" width="1" height="1" fill="#231f20"/>
    <rect x="59" y="33" width="3" height="1" fill="#231f20"/>
    <rect x="73" y="33" width="3" height="1" fill="#231f20"/>
    <rect x="85" y="33" width="15" height="1" fill="#231f20"/>
    <rect x="123" y="33" width="1" height="1" fill="#231f20"/>
    <rect x="0" y="34" width="1" height="1" fill="#231f20"/>
    <rect x="59" y="34" width="3" height="1" fill="#231f20"/>
    <rect x="74" y="34" width="3" height="1" fill="#231f20"/>
    <rect x="82" y="34" width="18" height="1" fill="#231f20"/>
    <rect x="123" y="34" width="1" height="1" fill="#231f20"/>
    <rect x="0" y="35" width="1" height="1" fill="#231f20"/>
    <rect x="59" y="35" width="3" height="1" fill="#231f20"/>
    <rect x="74" y="35" width="3" height="1" fill="#231f20"/>
    <rect x="81" y="35" width="18" height="1" fill="#231f20"/>
    <rect x="123" y="35" width="1" height="1" fill="#231f20"/>
    <rect x="0" y="36" width="1" height="1" fill="#231f20"/>
    <rect x="59" y="36" width="3" height="1" fill="#231f20"/>
    <rect x="74" y="36" width="3" height="1" fill="#231f20"/>
    <rect x="79" y="36" width="19" height="1" fill="#231f20"/>
    <rect x="123" y="36" width="1" height="1" fill="#231f20"/>
    <rect x="0" y="37" width="1" height="1" fill="#231f20"/>
    <rect x="60" y="37" width="3" height="1" fill="#231f20"/>
    <rect x="75" y="37" width="22" height="1" fill="#231f20"/>
    <rect x="123" y="37" width="1" height="1" fill="#231f20"/>
    <rect x="0" y="38" width="1" height="1" fill="#231f20"/>
    <rect x="60" y="38" width="3" height="1" fill="#231f20"/>
    <rect x="75" y="38" width="21" height="1" fill="#231f20"/>
    <rect x="123" y="38" width="1" height="1" fill="#231f20"/>
    <rect x="0" y="39" width="1" height="1" fill="#231f20"/>
    <rect x="60" y="39" width="3" height="1" fill="#231f20"/>
    <rect x="75" y="39" width="20" height="1" fill="#231f20"/>
    <rect x="123" y="39" width="1" height="1" fill="#231f20"/>
    <rect x="0" y="40" width="1" height="1" fill="#231f20"/>
    <rect x="61" y="40" width="3" height="1" fill="#231f20"/>
    <rect x="75" y="40" width="19" height="1" fill="#231f20"/>
    <rect x="123" y="40" width="1" height="1" fill="#231f20"/>
    <rect x="0" y="41" width="1" height="1" fill="#231f20"/>
    <rect x="57" y="41" width="7" height="1" fill="#231f20"/>
    <rect x="76" y="41" width="17" height="1" fill="#231f20"/>
    <rect x="123" y="41" width="1" height="1" fill="#231f20"/>
    <rect x="0" y="42" width="1" height="1" fill="#231f20"/>
    <rect x="49" y="42" width="15" height="1" fill="#231f20"/>
    <rect x="76" y="42" width="16" height="1" fill="#231f20"/>
    <rect x="123" y="42" width="1" height="1" fill="#231f20"/>
    <rect x="0" y="43" width="1" height="1" fill="#231f20"/>
    <rect x="46" y="43" width="18" height="1" fill="#231f20"/>
    <rect x="76" y="43" width="15" height="1" fill="#231f20"/>
    <rect x="123" y="43" width="1" height="1" fill="#231f20"/>
    <rect x="0" y="44" width="1" height="1" fill="#231f20"/>
    <rect x="43" y="44" width="22" height="1" fill="#231f20"/>
    <rect x="77" y="44" width="13" height="1" fill="#231f20"/>
    <rect x="123" y="44" width="1" height="1" fill="#231f20"/>
    <rect x="0" y="45" width="1" height="1" fill="#231f20"/>
    <rect x="41" y="45" width="24" height="1" fill="#231f20"/>
    <rect x="77" y="45" width="11" height="1" fill="#231f20"/>
    <rect x="123" y="45" width="1" height="1" fill="#231f20"/>
    <rect x="0" y="46" width="1" height="1" fill="#231f20"/>
    <rect x="38" y="46" width="27" height="1" fill="#231f20"/>
    <rect x="77" y="46" width="9" height="1" fill="#231f20"/>
    <rect x="123" y="46" width="1" height="1" fill="#231f20"/>
    <rect x="0" y="47" width="1" height="1" fill="#231f20"/>
    <rect x="38" y="47" width="28" height="1" fill="#231f20"/>
    <rect x="78" y="47" width="7" height="1" fill="#231f20"/>
    <rect x="123" y="47" width="1" height="1" fill="#231f20"/>
    <rect x="0" y="48" width="1" height="1" fill="#231f20"/>
    <rect x="39" y="48" width="27" height="1" fill="#231f20"/>
    <rect x="78" y="48" width="4" height="1" fill="#231f20"/>
    <rect x="123" y="48" width="1" height="1" fill="#231f20"/>
    <rect x="0" y="49" width="1" height="1" fill="#231f20"/>
    <rect x="39" y="49" width="27" height="1" fill="#231f20"/>
    <rect x="78" y="49" width="3" height="1" fill="#231f20"/>
    <rect x="123" y="49" width="1" height="1" fill="#231f20"/>
    <rect x="0" y="50" width="1" height="1" fill="#231f20"/>
    <rect x="31" y="50" width="1" height="1" fill="#231f20"/>
    <rect x="39" y="50" width="27" height="1" fill="#231f20"/>
    <rect x="78" y="50" width="3" height="1" fill="#231f20"/>
    <rect x="123" y="50" width="1" height="1" fill="#231f20"/>
    <rect x="0" y="51" width="1" height="1" fill="#231f20"/>
    <rect x="29" y="51" width="3" height="1" fill="#231f20"/>
    <rect x="39" y="51" width="28" height="1" fill="#231f20"/>
    <rect x="79" y="51" width="3" height="1" fill="#231f20"/>
    <rect x="123" y="51" width="1" height="1" fill="#231f20"/>
    <rect x="0" y="52" width="1" height="1" fill="#231f20"/>
    <rect x="28" y="52" width="4" height="1" fill="#231f20"/>
    <rect x="40" y="52" width="27" height="1" fill="#231f20"/>
    <rect x="79" y="52" width="3" height="1" fill="#231f20"/>
    <rect x="123" y="52" width="1" height="1" fill="#231f20"/>
    <rect x="0" y="53" width="1" height="1" fill="#231f20"/>
    <rect x="26" y="53" width="6" height="1" fill="#231f20"/>
    <rect x="40" y="53" width="27" height="1" fill="#231f20"/>
    <rect x="79" y="53" width="3" height="1" fill="#231f20"/>
    <rect x="123" y="53" width="1" height="1" fill="#231f20"/>
    <rect x="0" y="54" width="1" height="1" fill="#231f20"/>
    <rect x="24" y="54" width="9" height="1" fill="#231f20"/>
    <rect x="40" y="54" width="27" height="1" fill="#231f20"/>
    <rect x="80" y="54" width="3" height="1" fill="#231f20"/>
    <rect x="123" y="54" width="1" height="1" fill="#231f20"/>
    <rect x="0" y="55" width="1" height="1" fill="#231f20"/>
    <rect x="23" y="55" width="10" height="1" fill="#231f20"/>
    <rect x="40" y="55" width="18" height="1" fill="#231f20"/>
    <rect x="65" y="55" width="3" height="1" fill="#231f20"/>
    <rect x="80" y="55" width="3" height="1" fill="#231f20"/>
    <rect x="123" y="55" width="1" height="1" fill="#231f20"/>
    <rect x="0" y="56" width="1" height="1" fill="#231f20"/>
    <rect x="21" y="56" width="12" height="1" fill="#231f20"/>
    <rect x="41" y="56" width="11" height="1" fill="#231f20"/>
    <rect x="65" y="56" width="3" height="1" fill="#231f20"/>
    <rect x="80" y="56" width="3" height="1" fill="#231f20"/>
    <rect x="123" y="56" width="1" height="1" fill="#231f20"/>
    <rect x="0" y="57" width="1" height="1" fill="#231f20"/>
    <rect x="21" y="57" width="12" height="1" fill="#231f20"/>
    <rect x="41" y="57" width="5" height="1" fill="#231f20"/>
    <rect x="65" y="57" width="3" height="1" fill="#231f20"/>
    <rect x="80" y="57" width="3" height="1" fill="#231f20"/>
    <rect x="123" y="57" width="1" height="1" fill="#231f20"/>
    <rect x="0" y="58" width="1" height="1" fill="#231f20"/>
    <rect x="19" y="58" width="15" height="1" fill="#231f20"/>
    <rect x="66" y="58" width="3" height="1" fill="#231f20"/>
    <rect x="81" y="58" width="3" height="1" fill="#231f20"/>
    <rect x="123" y="58" width="1" height="1" fill="#231f20"/>
    <rect x="0" y="59" width="1" height="1" fill="#231f20"/>
    <rect x="17" y="59" width="17" height="1" fill="#231f20"/>
    <rect x="66" y="59" width="3" height="1" fill="#231f20"/>
    <rect x="77" y="59" width="7" height="1" fill="#231f20"/>
    <rect x="123" y="59" width="1" height="1" fill="#231f20"/>
    <rect x="0" y="60" width="1" height="1" fill="#231f20"/>
    <rect x="16" y="60" width="13" height="1" fill="#231f20"/>
    <rect x="66" y="60" width="3" height="1" fill="#231f20"/>
    <rect x="74" y="60" width="9" height="1" fill="#231f20"/>
    <rect x="123" y="60" width="1" height="1" fill="#231f20"/>
    <rect x="0" y="61" width="1" height="1" fill="#231f20"/>
    <rect x="15" y="61" width="10" height="1" fill="#231f20"/>
    <rect x="66" y="61" width="3" height="1" fill="#231f20"/>
    <rect x="70" y="61" width="11" height="1" fill="#231f20"/>
    <rect x="123" y="61" width="1" height="1" fill="#231f20"/>
    <rect x="0" y="62" width="1" height="1" fill="#231f20"/>
    <rect x="14" y="62" width="8" height="1" fill="#231f20"/>
    <rect x="67" y="62" width="10" height="1" fill="#231f20"/>
    <rect x="123" y="62" width="1" height="1" fill="#231f20"/>
    <rect x="0" y="63" width="1" height="1" fill="#231f20"/>
    <rect x="13" y="63" width="6" height="1" fill="#231f20"/>
    <rect x="67" y="63" width="7" height="1" fill="#231f20"/>
    <rect x="123" y="63" width="1" height="1" fill="#231f20"/>
    <rect x="0" y="64" width="1" height="1" fill="#231f20"/>
    <rect x="13" y="64" width="3" height="1" fill="#231f20"/>
    <rect x="68" y="64" width="2" height="1" fill="#231f20"/>
    <rect x="123" y="64" width="1" height="1" fill="#231f20"/>
    <rect x="0" y="65" width="1" height="1" fill="#231f20"/>
    <rect x="123" y="65" width="1" height="1" fill="#231f20"/>
    <rect x="0" y="66" width="1" height="1" fill="#231f20"/>
    <rect x="123" y="66" width="1" height="1" fill="#231f20"/>
    <rect x="0" y="67" width="1" height="1" fill="#231f20"/>
    <rect x="123" y="67" width="1" height="1" fill="#231f20"/>
    <rect x="0" y="68" width="1" height="1" fill="#231f20"/>
    <rect x="123" y="68" width="1" height="1" fill="#231f20"/>
    <rect x="0" y="69" width="1" height="1" fill="#231f20"/>
    <rect x="123" y="69" width="1" height="1" fill="#231f20"/>
    <rect x="0" y="70" width="1" height="1" fill="#231f20"/>
    <rect x="123" y="70" width="1" height="1" fill="#231f20"/>
    <rect x="0" y="71" width="1" height="1" fill="#231f20"/>
    <rect x="123" y="71" width="1" height="1" fill="#231f20"/>
    <rect x="0" y="72" width="1" height="1" fill="#231f20"/>
    <rect x="123" y="72" width="1" height="1" fill="#231f20"/>
    <rect x="0" y="73" width="1" height="1" fill="#231f20"/>
    <rect x="123" y="73" width="1" height="1" fill="#231f20"/>
    <rect x="0" y="74" width="1" height="1" fill="#231f20"/>
    <rect x="123" y="74" width="1" height="1" fill="#231f20"/>
    <rect x="0" y="75" width="1" height="1" fill="#231f20"/>
    <rect x="123" y="75" width="1" height="1" fill="#231f20"/>
    <rect x="0" y="76" width="1" height="1" fill="#231f20"/>
    <rect x="123" y="76" width="1" height="1" fill="#231f20"/>
    <rect x="0" y="77" width="1" height="1" fill="#231f20"/>
    <rect x="123" y="77" width="1" height="1" fill="#231f20"/>
    <rect x="0" y="78" width="1" height="1" fill="#231f20"/>
    <rect x="123" y="78" width="1" height="1" fill="#231f20"/>
    <rect x="0" y="79" width="1" height="1" fill="#231f20"/>
    <rect x="123" y="79" width="1" height="1" fill="#231f20"/>
    <rect x="0" y="80" width="1" height="1" fill="#231f20"/>
    <rect x="123" y="80" width="1" height="1" fill="#231f20"/>
    <rect x="0" y="81" width="1" height="1" fill="#231f20"/>
    <rect x="123" y="81" width="1" height="1" fill="#231f20"/>
    <rect x="0" y="82" width="124" height="1" fill="#231f20"/>
  </g>
</svg>