<?xml version="1.0" encoding="UTF-8"?>
<svg xmlns="http://www.w3.org/2000/svg" viewBox="0 0 173 70" width="173" height="70">
  <!-- Auto-converted from legend-1745.png -->
  <rect x="0" y="0" width="173" height="70" fill="none"/>
  <g fill="#231f20" stroke="none">
    <rect x="0" y="0" width="173" height="1" fill="#231f20"/>
    <rect x="0" y="1" width="1" height="1" fill="#231f20"/>
    <rect x="172" y="1" width="1" height="1" fill="#231f20"/>
    <rect x="0" y="2" width="1" height="1" fill="#231f20"/>
    <rect x="172" y="2" width="1" height="1" fill="#231f20"/>
    <rect x="0" y="3" width="1" height="1" fill="#231f20"/>
    <rect x="172" y="3" width="1" height="1" fill="#231f20"/>
    <rect x="0" y="4" width="1" height="1" fill="#231f20"/>
    <rect x="172" y="4" width="1" height="1" fill="#231f20"/>
    <rect x="0" y="5" width="1" height="1" fill="#231f20"/>
    <rect x="172" y="5" width="1" height="1" fill="#231f20"/>
    <rect x="0" y="6" width="1" height="1" fill="#231f20"/>
    <rect x="172" y="6" width="1" height="1" fill="#231f20"/>
    <rect x="0" y="7" width="1" height="1" fill="#231f20"/>
    <rect x="93" y="7" width="3" height="1" fill="#231f20"/>
    <rect x="97" y="7" width="3" height="1" fill="#231f20"/>
    <rect x="128" y="7" width="3" height="1" fill="#231f20"/>
    <rect x="132" y="7" width="3" height="1" fill="#231f20"/>
    <rect x="172" y="7" width="1" height="1" fill="#231f20"/>
    <rect x="0" y="8" width="1" height="1" fill="#231f20"/>
    <rect x="62" y="8" width="1" height="1" fill="#231f20"/>
    <rect x="94" y="8" width="2" height="1" fill="#231f20"/>
    <rect x="97" y="8" width="2" height="1" fill="#231f20"/>
    <rect x="129" y="8" width="2" height="1" fill="#231f20"/>
    <rect x="132" y="8" width="2" height="1" fill="#231f20"/>
    <rect x="172" y="8" width="1" height="1" fill="#231f20"/>
    <rect x="0" y="9" width="1" height="1" fill="#231f20"/>
    <rect x="22" y="9" width="13" height="1" fill="#231f20"/>
    <rect x="61" y="9" width="1" height="1" fill="#231f20"/>
    <rect x="63" y="9" width="1" height="1" fill="#231f20"/>
    <rect x="94" y="9" width="2" height="1" fill="#231f20"/>
    <rect x="97" y="9" width="2" height="1" fill="#231f20"/>
    <rect x="129" y="9" width="2" height="1" fill="#231f20"/>
    <rect x="132" y="9" width="2" height="1" fill="#231f20"/>
    <rect x="172" y="9" width="1" height="1" fill="#231f20"/>
    <rect x="0" y="10" width="1" height="1" fill="#231f20"/>
    <rect x="22" y="10" width="1" height="1" fill="#231f20"/>
    <rect x="61" y="10" width="1" height="1" fill="#231f20"/>
    <rect x="63" y="10" width="1" height="1" fill="#231f20"/>
    <rect x="94" y="10" width="2" height="1" fill="#231f20"/>
    <rect x="97" y="10" width="2" height="1" fill="#231f20"/>
    <rect x="129" y="10" width="2" height="1" fill="#231f20"/>
    <rect x="132" y="10" width="2" height="1" fill="#231f20"/>
    <rect x="172" y="10" width="1" height="1" fill="#231f20"/>
    <rect x="0" y="11" width="1" height="1" fill="#231f20"/>
    <rect x="22" y="11" width="1" height="1" fill="#231f20"/>
    <rect x="60" y="11" width="1" height="1" fill="#231f20"/>
    <rect x="64" y="11" width="1" height="1" fill="#231f20"/>
    <rect x="94" y="11" width="2" height="1" fill="#231f20"/>
    <rect x="97" y="11" width="2" height="1" fill="#231f20"/>
    <rect x="129" y="11" width="2" height="1" fill="#231f20"/>
    <rect x="132" y="11" width="2" height="1" fill="#231f20"/>
    <rect x="172" y="11" width="1" height="1" fill="#231f20"/>
    <rect x="0" y="12" width="1" height="1" fill="#231f20"/>
    <rect x="22" y="12" width="1" height="1" fill="#231f20"/>
    <rect x="60" y="12" width="1" height="1" fill="#231f20"/>
    <rect x="65" y="12" width="1" height="1" fill="#231f20"/>
    <rect x="94" y="12" width="1" height="1" fill="#231f20"/>
    <rect x="96" y="12" width="1" height="1" fill="#231f20"/>
    <rect x="98" y="12" width="1" height="1" fill="#231f20"/>
    <rect x="129" y="12" width="1" height="1" fill="#231f20"/>
    <rect x="131" y="12" width="1" height="1" fill="#231f20"/>
    <rect x="133" y="12" width="1" height="1" fill="#231f20"/>
    <rect x="172" y="12" width="1" height="1" fill="#231f20"/>
    <rect x="0" y="13" width="1" height="1" fill="#231f20"/>
    <rect x="22" y="13" width="1" height="1" fill="#231f20"/>
    <rect x="59" y="13" width="1" height="1" fill="#231f20"/>
    <rect x="65" y="13" width="1" height="1" fill="#231f20"/>
    <rect x="94" y="13" width="1" height="1" fill="#231f20"/>
    <rect x="96" y="13" width="1" height="1" fill="#231f20"/>
    <rect x="98" y="13" width="1" height="1" fill="#231f20"/>
    <rect x="129" y="13" width="1" height="1" fill="#231f20"/>
    <rect x="131" y="13" width="1" height="1" fill="#231f20"/>
    <rect x="133" y="13" width="1" height="1" fill="#231f20"/>
    <rect x="172" y="13" width="1" height="1" fill="#231f20"/>
    <rect x="0" y="14" width="1" height="1" fill="#231f20"/>
    <rect x="22" y="14" width="1" height="1" fill="#231f20"/>
    <rect x="59" y="14" width="1" height="1" fill="#231f20"/>
    <rect x="66" y="14" width="1" height="1" fill="#231f20"/>
    <rect x="94" y="14" width="1" height="1" fill="#231f20"/>
    <rect x="96" y="14" width="1" height="1" fill="#231f20"/>
    <rect x="98" y="14" width="1" height="1" fill="#231f20"/>
    <rect x="129" y="14" width="1" height="1" fill="#231f20"/>
    <rect x="131" y="14" width="1" height="1" fill="#231f20"/>
    <rect x="133" y="14" width="1" height="1" fill="#231f20"/>
    <rect x="172" y="14" width="1" height="1" fill="#231f20"/>
    <rect x="0" y="15" width="1" height="1" fill="#231f20"/>
    <rect x="58" y="15" width="1" height="1" fill="#231f20"/>
    <rect x="67" y="15" width="1" height="1" fill="#231f20"/>
    <rect x="94" y="15" width="1" height="1" fill="#231f20"/>
    <rect x="96" y="15" width="1" height="1" fill="#231f20"/>
    <rect x="98" y="15" width="1" height="1" fill="#231f20"/>
    <rect x="129" y="15" width="1" height="1" fill="#231f20"/>
    <rect x="131" y="15" width="1" height="1" fill="#231f20"/>
    <rect x="133" y="15" width="1" height="1" fill="#231f20"/>
    <rect x="172" y="15" width="1" height="1" fill="#231f20"/>
    <rect x="0" y="16" width="1" height="1" fill="#231f20"/>
    <rect x="58" y="16" width="1" height="1" fill="#231f20"/>
    <rect x="67" y="16" width="1" height="1" fill="#231f20"/>
    <rect x="94" y="16" width="1" height="1" fill="#231f20"/>
    <rect x="96" y="16" width="1" height="1" fill="#231f20"/>
    <rect x="98" y="16" width="1" height="1" fill="#231f20"/>
    <rect x="129" y="16" width="1" height="1" fill="#231f20"/>
    <rect x="131" y="16" width="1" height="1" fill="#231f20"/>
    <rect x="133" y="16" width="1" height="1" fill="#231f20"/>
    <rect x="172" y="16" width="1" height="1" fill="#231f20"/>
    <rect x="0" y="17" width="1" height="1" fill="#231f20"/>
    <rect x="57" y="17" width="12" height="1" fill="#231f20"/>
    <rect x="93" y="17" width="2" height="1" fill="#231f20"/>
    <rect x="96" y="17" width="1" height="1" fill="#231f20"/>
    <rect x="98" y="17" width="2" height="1" fill="#231f20"/>
    <rect x="128" y="17" width="2" height="1" fill="#231f20"/>
    <rect x="131" y="17" width="1" height="1" fill="#231f20"/>
    <rect x="133" y="17" width="2" height="1" fill="#231f20"/>
    <rect x="172" y="17" width="1" height="1" fill="#231f20"/>
    <rect x="0" y="18" width="1" height="1" fill="#231f20"/>
    <rect x="172" y="18" width="1" height="1" fill="#231f20"/>
    <rect x="0" y="19" width="1" height="1" fill="#231f20"/>
    <rect x="172" y="19" width="1" height="1" fill="#231f20"/>
    <rect x="0" y="20" width="1" height="1" fill="#231f20"/>
    <rect x="172" y="20" width="1" height="1" fill="#231f20"/>
    <rect x="0" y="21" width="1" height="1" fill="#231f20"/>
    <rect x="172" y="21" width="1" height="1" fill="#231f20"/>
    <rect x="0" y="22" width="1" height="1" fill="#231f20"/>
    <rect x="172" y="22" width="1" height="1" fill="#231f20"/>
    <rect x="0" y="23" width="173" height="1" fill="#231f20"/>
    <rect x="0" y="24" width="1" height="1" fill="#231f20"/>
    <rect x="172" y="24" width="1" height="1" fill="#231f20"/>
    <rect x="0" y="25" width="1" height="1" fill="#231f20"/>
    <rect x="172" y="25" width="1" height="1" fill="#231f20"/>
    <rect x="0" y="26" width="1" height="1" fill="#231f20"/>
    <rect x="172" y="26" width="1" height="1" fill="#231f20"/>
    <rect x="0" y="27" width="1" height="1" fill="#231f20"/>
    <rect x="172" y="27" width="1" height="1" fill="#231f20"/>
    <rect x="0" y="28" width="1" height="1" fill="#231f20"/>
    <rect x="172" y="28" width="1" height="1" fill="#231f20"/>
    <rect x="0" y="29" width="1" height="1" fill="#231f20"/>
    <rect x="109" y="29" width="1" height="1" fill="#231f20"/>
    <rect x="172" y="29" width="1" height="1" fill="#231f20"/>
    <rect x="0" y="30" width="1" height="1" fill="#231f20"/>
    <rect x="35" y="30" width="3" height="1" fill="#231f20"/>
    <rect x="39" y="30" width="3" height="1" fill="#231f20"/>
    <rect x="69" y="30" width="3" height="1" fill="#231f20"/>
    <rect x="73" y="30" width="3" height="1" fill="#231f20"/>
    <rect x="108" y="30" width="1" height="1" fill="#231f20"/>
    <rect x="110" y="30" width="1" height="1" fill="#231f20"/>
    <rect x="172" y="30" width="1" height="1" fill="#231f20"/>
    <rect x="0" y="31" width="1" height="1" fill="#231f20"/>
    <rect x="36" y="31" width="2" height="1" fill="#231f20"/>
    <rect x="39" y="31" width="2" height="1" fill="#231f20"/>
    <rect x="70" y="31" width="2" height="1" fill="#231f20"/>
    <rect x="73" y="31" width="2" height="1" fill="#231f20"/>
    <rect x="108" y="31" width="1" height="1" fill="#231f20"/>
    <rect x="110" y="31" width="1" height="1" fill="#231f20"/>
    <rect x="172" y="31" width="1" height="1" fill="#231f20"/>
    <rect x="0" y="32" width="1" height="1" fill="#231f20"/>
    <rect x="36" y="32" width="2" height="1" fill="#231f20"/>
    <rect x="39" y="32" width="2" height="1" fill="#231f20"/>
    <rect x="70" y="32" width="2" height="1" fill="#231f20"/>
    <rect x="73" y="32" width="2" height="1" fill="#231f20"/>
    <rect x="107" y="32" width="1" height="1" fill="#231f20"/>
    <rect x="111" y="32" width="1" height="1" fill="#231f20"/>
    <rect x="137" y="32" width="13" height="1" fill="#231f20"/>
    <rect x="172" y="32" width="1" height="1" fill="#231f20"/>
    <rect x="0" y="33" width="1" height="1" fill="#231f20"/>
    <rect x="36" y="33" width="2" height="1" fill="#231f20"/>
    <rect x="39" y="33" width="2" height="1" fill="#231f20"/>
    <rect x="70" y="33" width="2" height="1" fill="#231f20"/>
    <rect x="73" y="33" width="2" height="1" fill="#231f20"/>
    <rect x="107" y="33" width="1" height="1" fill="#231f20"/>
    <rect x="111" y="33" width="1" height="1" fill="#231f20"/>
    <rect x="137" y="33" width="1" height="1" fill="#231f20"/>
    <rect x="172" y="33" width="1" height="1" fill="#231f20"/>
    <rect x="0" y="34" width="1" height="1" fill="#231f20"/>
    <rect x="36" y="34" width="2" height="1" fill="#231f20"/>
    <rect x="39" y="34" width="2" height="1" fill="#231f20"/>
    <rect x="70" y="34" width="2" height="1" fill="#231f20"/>
    <rect x="73" y="34" width="2" height="1" fill="#231f20"/>
    <rect x="106" y="34" width="1" height="1" fill="#231f20"/>
    <rect x="112" y="34" width="1" height="1" fill="#231f20"/>
    <rect x="137" y="34" width="1" height="1" fill="#231f20"/>
    <rect x="172" y="34" width="1" height="1" fill="#231f20"/>
    <rect x="0" y="35" width="1" height="1" fill="#231f20"/>
    <rect x="36" y="35" width="1" height="1" fill="#231f20"/>
    <rect x="38" y="35" width="1" height="1" fill="#231f20"/>
    <rect x="40" y="35" width="1" height="1" fill="#231f20"/>
    <rect x="70" y="35" width="1" height="1" fill="#231f20"/>
    <rect x="72" y="35" width="1" height="1" fill="#231f20"/>
    <rect x="74" y="35" width="1" height="1" fill="#231f20"/>
    <rect x="105" y="35" width="1" height="1" fill="#231f20"/>
    <rect x="112" y="35" width="1" height="1" fill="#231f20"/>
    <rect x="137" y="35" width="1" height="1" fill="#231f20"/>
    <rect x="172" y="35" width="1" height="1" fill="#231f20"/>
    <rect x="0" y="36" width="1" height="1" fill="#231f20"/>
    <rect x="36" y="36" width="1" height="1" fill="#231f20"/>
    <rect x="38" y="36" width="1" height="1" fill="#231f20"/>
    <rect x="40" y="36" width="1" height="1" fill="#231f20"/>
    <rect x="70" y="36" width="1" height="1" fill="#231f20"/>
    <rect x="72" y="36" width="1" height="1" fill="#231f20"/>
    <rect x="74" y="36" width="1" height="1" fill="#231f20"/>
    <rect x="105" y="36" width="1" height="1" fill="#231f20"/>
    <rect x="113" y="36" width="1" height="1" fill="#231f20"/>
    <rect x="137" y="36" width="1" height="1" fill="#231f20"/>
    <rect x="172" y="36" width="1" height="1" fill="#231f20"/>
    <rect x="0" y="37" width="1" height="1" fill="#231f20"/>
    <rect x="36" y="37" width="1" height="1" fill="#231f20"/>
    <rect x="38" y="37" width="1" height="1" fill="#231f20"/>
    <rect x="40" y="37" width="1" height="1" fill="#231f20"/>
    <rect x="70" y="37" width="1" height="1" fill="#231f20"/>
    <rect x="72" y="37" width="1" height="1" fill="#231f20"/>
    <rect x="74" y="37" width="1" height="1" fill="#231f20"/>
    <rect x="104" y="37" width="1" height="1" fill="#231f20"/>
    <rect x="113" y="37" width="1" height="1" fill="#231f20"/>
    <rect x="137" y="37" width="1" height="1" fill="#231f20"/>
    <rect x="172" y="37" width="1" height="1" fill="#231f20"/>
    <rect x="0" y="38" width="1" height="1" fill="#231f20"/>
    <rect x="36" y="38" width="1" height="1" fill="#231f20"/>
    <rect x="38" y="38" width="1" height="1" fill="#231f20"/>
    <rect x="40" y="38" width="1" height="1" fill="#231f20"/>
    <rect x="70" y="38" width="1" height="1" fill="#231f20"/>
    <rect x="72" y="38" width="1" height="1" fill="#231f20"/>
    <rect x="74" y="38" width="1" height="1" fill="#231f20"/>
    <rect x="104" y="38" width="1" height="1" fill="#231f20"/>
    <rect x="114" y="38" width="1" height="1" fill="#231f20"/>
    <rect x="172" y="38" width="1" height="1" fill="#231f20"/>
    <rect x="0" y="39" width="1" height="1" fill="#231f20"/>
    <rect x="36" y="39" width="1" height="1" fill="#231f20"/>
    <rect x="38" y="39" width="1" height="1" fill="#231f20"/>
    <rect x="40" y="39" width="1" height="1" fill="#231f20"/>
    <rect x="70" y="39" width="1" height="1" fill="#231f20"/>
    <rect x="72" y="39" width="1" height="1" fill="#231f20"/>
    <rect x="74" y="39" width="1" height="1" fill="#231f20"/>
    <rect x="103" y="39" width="12" height="1" fill="#231f20"/>
    <rect x="172" y="39" width="1" height="1" fill="#231f20"/>
    <rect x="0" y="40" width="1" height="1" fill="#231f20"/>
    <rect x="35" y="40" width="2" height="1" fill="#231f20"/>
    <rect x="38" y="40" width="1" height="1" fill="#231f20"/>
    <rect x="40" y="40" width="2" height="1" fill="#231f20"/>
    <rect x="69" y="40" width="2" height="1" fill="#231f20"/>
    <rect x="72" y="40" width="1" height="1" fill="#231f20"/>
    <rect x="74" y="40" width="2" height="1" fill="#231f20"/>
    <rect x="172" y="40" width="1" height="1" fill="#231f20"/>
    <rect x="0" y="41" width="1" height="1" fill="#231f20"/>
    <rect x="172" y="41" width="1" height="1" fill="#231f20"/>
    <rect x="0" y="42" width="1" height="1" fill="#231f20"/>
    <rect x="172" y="42" width="1" height="1" fill="#231f20"/>
    <rect x="0" y="43" width="1" height="1" fill="#231f20"/>
    <rect x="172" y="43" width="1" height="1" fill="#231f20"/>
    <rect x="0" y="44" width="1" height="1" fill="#231f20"/>
    <rect x="172" y="44" width="1" height="1" fill="#231f20"/>
    <rect x="0" y="45" width="1" height="1" fill="#231f20"/>
    <rect x="172" y="45" width="1" height="1" fill="#231f20"/>
    <rect x="0" y="46" width="173" height="1" fill="#231f20"/>
    <rect x="0" y="47" width="1" height="1" fill="#231f20"/>
    <rect x="172" y="47" width="1" height="1" fill="#231f20"/>
    <rect x="0" y="48" width="1" height="1" fill="#231f20"/>
    <rect x="172" y="48" width="1" height="1" fill="#231f20"/>
    <rect x="0" y="49" width="1" height="1" fill="#231f20"/>
    <rect x="172" y="49" width="1" height="1" fill="#231f20"/>
    <rect x="0" y="50" width="1" height="1" fill="#231f20"/>
    <rect x="172" y="50" width="1" height="1" fill="#231f20"/>
    <rect x="0" y="51" width="1" height="1" fill="#231f20"/>
    <rect x="172" y="51" width="1" height="1" fill="#231f20"/>
    <rect x="0" y="52" width="1" height="1" fill="#231f20"/>
    <rect x="172" y="52" width="1" height="1" fill="#231f20"/>
    <rect x="0" y="53" width="1" height="1" fill="#231f20"/>
    <rect x="62" y="53" width="1" height="1" fill="#231f20"/>
    <rect x="93" y="53" width="3" height="1" fill="#231f20"/>
    <rect x="97" y="53" width="3" height="1" fill="#231f20"/>
    <rect x="128" y="53" width="3" height="1" fill="#231f20"/>
    <rect x="132" y="53" width="3" height="1" fill="#231f20"/>
    <rect x="172" y="53" width="1" height="1" fill="#231f20"/>
    <rect x="0" y="54" width="1" height="1" fill="#231f20"/>
    <rect x="22" y="54" width="13" height="1" fill="#231f20"/>
    <rect x="62" y="54" width="2" height="1" fill="#231f20"/>
    <rect x="94" y="54" width="2" height="1" fill="#231f20"/>
    <rect x="97" y="54" width="2" height="1" fill="#231f20"/>
    <rect x="129" y="54" width="2" height="1" fill="#231f20"/>
    <rect x="132" y="54" width="2" height="1" fill="#231f20"/>
    <rect x="172" y="54" width="1" height="1" fill="#231f20"/>
    <rect x="0" y="55" width="1" height="1" fill="#231f20"/>
    <rect x="22" y="55" width="1" height="1" fill="#231f20"/>
    <rect x="61" y="55" width="1" height="1" fill="#231f20"/>
    <rect x="63" y="55" width="1" height="1" fill="#231f20"/>
    <rect x="94" y="55" width="2" height="1" fill="#231f20"/>
    <rect x="97" y="55" width="2" height="1" fill="#231f20"/>
    <rect x="129" y="55" width="2" height="1" fill="#231f20"/>
    <rect x="132" y="55" width="2" height="1" fill="#231f20"/>
    <rect x="172" y="55" width="1" height="1" fill="#231f20"/>
    <rect x="0" y="56" width="1" height="1" fill="#231f20"/>
    <rect x="22" y="56" width="1" height="1" fill="#231f20"/>
    <rect x="61" y="56" width="1" height="1" fill="#231f20"/>
    <rect x="64" y="56" width="1" height="1" fill="#231f20"/>
    <rect x="94" y="56" width="2" height="1" fill="#231f20"/>
    <rect x="97" y="56" width="2" height="1" fill="#231f20"/>
    <rect x="129" y="56" width="2" height="1" fill="#231f20"/>
    <rect x="132" y="56" width="2" height="1" fill="#231f20"/>
    <rect x="172" y="56" width="1" height="1" fill="#231f20"/>
    <rect x="0" y="57" width="1" height="1" fill="#231f20"/>
    <rect x="22" y="57" width="1" height="1" fill="#231f20"/>
    <rect x="60" y="57" width="1" height="1" fill="#231f20"/>
    <rect x="64" y="57" width="1" height="1" fill="#231f20"/>
    <rect x="94" y="57" width="2" height="1" fill="#231f20"/>
    <rect x="97" y="57" width="2" height="1" fill="#231f20"/>
    <rect x="129" y="57" width="2" height="1" fill="#231f20"/>
    <rect x="132" y="57" width="2" height="1" fill="#231f20"/>
    <rect x="172" y="57" width="1" height="1" fill="#231f20"/>
    <rect x="0" y="58" width="1" height="1" fill="#231f20"/>
    <rect x="22" y="58" width="1" height="1" fill="#231f20"/>
    <rect x="60" y="58" width="1" height="1" fill="#231f20"/>
    <rect x="65" y="58" width="1" height="1" fill="#231f20"/>
    <rect x="94" y="58" width="1" height="1" fill="#231f20"/>
    <rect x="96" y="58" width="1" height="1" fill="#231f20"/>
    <rect x="98" y="58" width="1" height="1" fill="#231f20"/>
    <rect x="129" y="58" width="1" height="1" fill="#231f20"/>
    <rect x="131" y="58" width="1" height="1" fill="#231f20"/>
    <rect x="133" y="58" width="1" height="1" fill="#231f20"/>
    <rect x="172" y="58" width="1" height="1" fill="#231f20"/>
    <rect x="0" y="59" width="1" height="1" fill="#231f20"/>
    <rect x="22" y="59" width="1" height="1" fill="#231f20"/>
    <rect x="59" y="59" width="1" height="1" fill="#231f20"/>
    <rect x="66" y="59" width="1" height="1" fill="#231f20"/>
    <rect x="94" y="59" width="1" height="1" fill="#231f20"/>
    <rect x="96" y="59" width="1" height="1" fill="#231f20"/>
    <rect x="98" y="59" width="1" height="1" fill="#231f20"/>
    <rect x="129" y="59" width="1" height="1" fill="#231f20"/>
    <rect x="131" y="59" width="1" height="1" fill="#231f20"/>
    <rect x="133" y="59" width="1" height="1" fill="#231f20"/>
    <rect x="172" y="59" width="1" height="1" fill="#231f20"/>
    <rect x="0" y="60" width="1" height="1" fill="#231f20"/>
    <rect x="22" y="60" width="1" height="1" fill="#231f20"/>
    <rect x="59" y="60" width="1" height="1" fill="#231f20"/>
    <rect x="66" y="60" width="1" height="1" fill="#231f20"/>
    <rect x="94" y="60" width="1" height="1" fill="#231f20"/>
    <rect x="96" y="60" width="1" height="1" fill="#231f20"/>
    <rect x="98" y="60" width="1" height="1" fill="#231f20"/>
    <rect x="129" y="60" width="1" height="1" fill="#231f20"/>
    <rect x="131" y="60" width="1" height="1" fill="#231f20"/>
    <rect x="133" y="60" width="1" height="1" fill="#231f20"/>
    <rect x="172" y="60" width="1" height="1" fill="#231f20"/>
    <rect x="0" y="61" width="1" height="1" fill="#231f20"/>
    <rect x="58" y="61" width="1" height="1" fill="#231f20"/>
    <rect x="67" y="61" width="1" height="1" fill="#231f20"/>
    <rect x="94" y="61" width="1" height="1" fill="#231f20"/>
    <rect x="96" y="61" width="1" height="1" fill="#231f20"/>
    <rect x="98" y="61" width="1" height="1" fill="#231f20"/>
    <rect x="129" y="61" width="1" height="1" fill="#231f20"/>
    <rect x="131" y="61" width="1" height="1" fill="#231f20"/>
    <rect x="133" y="61" width="1" height="1" fill="#231f20"/>
    <rect x="172" y="61" width="1" height="1" fill="#231f20"/>
    <rect x="0" y="62" width="1" height="1" fill="#231f20"/>
    <rect x="58" y="62" width="1" height="1" fill="#231f20"/>
    <rect x="67" y="62" width="1" height="1" fill="#231f20"/>
    <rect x="94" y="62" width="1" height="1" fill="#231f20"/>
    <rect x="96" y="62" width="1" height="1" fill="#231f20"/>
    <rect x="98" y="62" width="1" height="1" fill="#231f20"/>
    <rect x="129" y="62" width="1" height="1" fill="#231f20"/>
    <rect x="131" y="62" width="1" height="1" fill="#231f20"/>
    <rect x="133" y="62" width="1" height="1" fill="#231f20"/>
    <rect x="172" y="62" width="1" height="1" fill="#231f20"/>
    <rect x="0" y="63" width="1" height="1" fill="#231f20"/>
    <rect x="57" y="63" width="12" height="1" fill="#231f20"/>
    <rect x="93" y="63" width="2" height="1" fill="#231f20"/>
    <rect x="96" y="63" width="1" height="1" fill="#231f20"/>
    <rect x="98" y="63" width="2" height="1" fill="#231f20"/>
    <rect x="128" y="63" width="2" height="1" fill="#231f20"/>
    <rect x="131" y="63" width="1" height="1" fill="#231f20"/>
    <rect x="133" y="63" width="2" height="1" fill="#231f20"/>
    <rect x="172" y="63" width="1" height="1" fill="#231f20"/>
    <rect x="0" y="64" width="1" height="1" fill="#231f20"/>
    <rect x="172" y="64" width="1" height="1" fill="#231f20"/>
    <rect x="0" y="65" width="1" height="1" fill="#231f20"/>
    <rect x="172" y="65" width="1" height="1" fill="#231f20"/>
    <rect x="0" y="66" width="1" height="1" fill="#231f20"/>
    <rect x="172" y="66" width="1" height="1" fill="#231f20"/>
    <rect x="0" y="67" width="1" height="1" fill="#231f20"/>
    <rect x="172" y="67" width="1" height="1" fill="#231f20"/>
    <rect x="0" y="68" width="1" height="1" fill="#231f20"/>
    <rect x="172" y="68" width="1" height="1" fill="#231f20"/>
    <rect x="0" y="69" width="173" height="1" fill="#231f20"/>
  </g>
</svg>