<?xml version="1.0" encoding="UTF-8"?>
<svg xmlns="http://www.w3.org/2000/svg" viewBox="0 0 168 67" width="168" height="67">
  <!-- Auto-converted from legend-1754.png -->
  <rect x="0" y="0" width="168" height="67" fill="none"/>
  <g fill="#231f20" stroke="none">
    <rect x="0" y="0" width="168" height="1" fill="#231f20"/>
    <rect x="0" y="1" width="1" height="1" fill="#231f20"/>
    <rect x="167" y="1" width="1" height="1" fill="#231f20"/>
    <rect x="0" y="2" width="1" height="1" fill="#231f20"/>
    <rect x="167" y="2" width="1" height="1" fill="#231f20"/>
    <rect x="0" y="3" width="1" height="1" fill="#231f20"/>
    <rect x="167" y="3" width="1" height="1" fill="#231f20"/>
    <rect x="0" y="4" width="1" height="1" fill="#231f20"/>
    <rect x="167" y="4" width="1" height="1" fill="#231f20"/>
    <rect x="0" y="5" width="1" height="1" fill="#231f20"/>
    <rect x="167" y="5" width="1" height="1" fill="#231f20"/>
    <rect x="0" y="6" width="1" height="1" fill="#231f20"/>
    <rect x="167" y="6" width="1" height="1" fill="#231f20"/>
    <rect x="0" y="7" width="1" height="1" fill="#231f20"/>
    <rect x="167" y="7" width="1" height="1" fill="#231f20"/>
    <rect x="0" y="8" width="1" height="1" fill="#231f20"/>
    <rect x="26" y="8" width="1" height="1" fill="#231f20"/>
    <rect x="60" y="8" width="1" height="1" fill="#231f20"/>
    <rect x="97" y="8" width="1" height="1" fill="#231f20"/>
    <rect x="130" y="8" width="1" height="1" fill="#231f20"/>
    <rect x="167" y="8" width="1" height="1" fill="#231f20"/>
    <rect x="0" y="9" width="1" height="1" fill="#231f20"/>
    <rect x="26" y="9" width="3" height="1" fill="#231f20"/>
    <rect x="60" y="9" width="3" height="1" fill="#231f20"/>
    <rect x="95" y="9" width="3" height="1" fill="#231f20"/>
    <rect x="128" y="9" width="3" height="1" fill="#231f20"/>
    <rect x="167" y="9" width="1" height="1" fill="#231f20"/>
    <rect x="0" y="10" width="1" height="1" fill="#231f20"/>
    <rect x="26" y="10" width="1" height="1" fill="#231f20"/>
    <rect x="29" y="10" width="2" height="1" fill="#231f20"/>
    <rect x="60" y="10" width="1" height="1" fill="#231f20"/>
    <rect x="63" y="10" width="1" height="1" fill="#231f20"/>
    <rect x="93" y="10" width="2" height="1" fill="#231f20"/>
    <rect x="97" y="10" width="1" height="1" fill="#231f20"/>
    <rect x="127" y="10" width="1" height="1" fill="#231f20"/>
    <rect x="130" y="10" width="1" height="1" fill="#231f20"/>
    <rect x="167" y="10" width="1" height="1" fill="#231f20"/>
    <rect x="0" y="11" width="1" height="1" fill="#231f20"/>
    <rect x="26" y="11" width="1" height="1" fill="#231f20"/>
    <rect x="30" y="11" width="2" height="1" fill="#231f20"/>
    <rect x="60" y="11" width="1" height="1" fill="#231f20"/>
    <rect x="63" y="11" width="2" height="1" fill="#231f20"/>
    <rect x="92" y="11" width="2" height="1" fill="#231f20"/>
    <rect x="97" y="11" width="1" height="1" fill="#231f20"/>
    <rect x="126" y="11" width="2" height="1" fill="#231f20"/>
    <rect x="130" y="11" width="1" height="1" fill="#231f20"/>
    <rect x="167" y="11" width="1" height="1" fill="#231f20"/>
    <rect x="0" y="12" width="1" height="1" fill="#231f20"/>
    <rect x="26" y="12" width="1" height="1" fill="#231f20"/>
    <rect x="28" y="12" width="2" height="1" fill="#231f20"/>
    <rect x="60" y="12" width="3" height="1" fill="#231f20"/>
    <rect x="94" y="12" width="2" height="1" fill="#231f20"/>
    <rect x="97" y="12" width="1" height="1" fill="#231f20"/>
    <rect x="128" y="12" width="3" height="1" fill="#231f20"/>
    <rect x="167" y="12" width="1" height="1" fill="#231f20"/>
    <rect x="0" y="13" width="1" height="1" fill="#231f20"/>
    <rect x="26" y="13" width="2" height="1" fill="#231f20"/>
    <rect x="60" y="13" width="1" height="1" fill="#231f20"/>
    <rect x="96" y="13" width="2" height="1" fill="#231f20"/>
    <rect x="130" y="13" width="1" height="1" fill="#231f20"/>
    <rect x="167" y="13" width="1" height="1" fill="#231f20"/>
    <rect x="0" y="14" width="1" height="1" fill="#231f20"/>
    <rect x="167" y="14" width="1" height="1" fill="#231f20"/>
    <rect x="0" y="15" width="1" height="1" fill="#231f20"/>
    <rect x="167" y="15" width="1" height="1" fill="#231f20"/>
    <rect x="0" y="16" width="1" height="1" fill="#231f20"/>
    <rect x="167" y="16" width="1" height="1" fill="#231f20"/>
    <rect x="0" y="17" width="1" height="1" fill="#231f20"/>
    <rect x="167" y="17" width="1" height="1" fill="#231f20"/>
    <rect x="0" y="18" width="1" height="1" fill="#231f20"/>
    <rect x="167" y="18" width="1" height="1" fill="#231f20"/>
    <rect x="0" y="19" width="1" height="1" fill="#231f20"/>
    <rect x="167" y="19" width="1" height="1" fill="#231f20"/>
    <rect x="0" y="20" width="1" height="1" fill="#231f20"/>
    <rect x="167" y="20" width="1" height="1" fill="#231f20"/>
    <rect x="0" y="21" width="1" height="1" fill="#231f20"/>
    <rect x="167" y="21" width="1" height="1" fill="#231f20"/>
    <rect x="0" y="22" width="168" height="1" fill="#231f20"/>
    <rect x="0" y="23" width="1" height="1" fill="#231f20"/>
    <rect x="167" y="23" width="1" height="1" fill="#231f20"/>
    <rect x="0" y="24" width="1" height="1" fill="#231f20"/>
    <rect x="167" y="24" width="1" height="1" fill="#231f20"/>
    <rect x="0" y="25" width="1" height="1" fill="#231f20"/>
    <rect x="167" y="25" width="1" height="1" fill="#231f20"/>
    <rect x="0" y="26" width="1" height="1" fill="#231f20"/>
    <rect x="167" y="26" width="1" height="1" fill="#231f20"/>
    <rect x="0" y="27" width="1" height="1" fill="#231f20"/>
    <rect x="167" y="27" width="1" height="1" fill="#231f20"/>
    <rect x="0" y="28" width="1" height="1" fill="#231f20"/>
    <rect x="167" y="28" width="1" height="1" fill="#231f20"/>
    <rect x="0" y="29" width="1" height="1" fill="#231f20"/>
    <rect x="167" y="29" width="1" height="1" fill="#231f20"/>
    <rect x="0" y="30" width="1" height="1" fill="#231f20"/>
    <rect x="167" y="30" width="1" height="1" fill="#231f20"/>
    <rect x="0" y="31" width="1" height="1" fill="#231f20"/>
    <rect x="38" y="31" width="2" height="1" fill="#231f20"/>
    <rect x="71" y="31" width="2" height="1" fill="#231f20"/>
    <rect x="107" y="31" width="2" height="1" fill="#231f20"/>
    <rect x="140" y="31" width="2" height="1" fill="#231f20"/>
    <rect x="167" y="31" width="1" height="1" fill="#231f20"/>
    <rect x="0" y="32" width="1" height="1" fill="#231f20"/>
    <rect x="38" y="32" width="1" height="1" fill="#231f20"/>
    <rect x="40" y="32" width="2" height="1" fill="#231f20"/>
    <rect x="71" y="32" width="1" height="1" fill="#231f20"/>
    <rect x="73" y="32" width="2" height="1" fill="#231f20"/>
    <rect x="105" y="32" width="2" height="1" fill="#231f20"/>
    <rect x="108" y="32" width="1" height="1" fill="#231f20"/>
    <rect x="138" y="32" width="2" height="1" fill="#231f20"/>
    <rect x="141" y="32" width="1" height="1" fill="#231f20"/>
    <rect x="167" y="32" width="1" height="1" fill="#231f20"/>
    <rect x="0" y="33" width="1" height="1" fill="#231f20"/>
    <rect x="38" y="33" width="1" height="1" fill="#231f20"/>
    <rect x="41" y="33" width="2" height="1" fill="#231f20"/>
    <rect x="71" y="33" width="1" height="1" fill="#231f20"/>
    <rect x="74" y="33" width="2" height="1" fill="#231f20"/>
    <rect x="104" y="33" width="2" height="1" fill="#231f20"/>
    <rect x="108" y="33" width="1" height="1" fill="#231f20"/>
    <rect x="137" y="33" width="2" height="1" fill="#231f20"/>
    <rect x="141" y="33" width="1" height="1" fill="#231f20"/>
    <rect x="167" y="33" width="1" height="1" fill="#231f20"/>
    <rect x="0" y="34" width="1" height="1" fill="#231f20"/>
    <rect x="38" y="34" width="3" height="1" fill="#231f20"/>
    <rect x="71" y="34" width="3" height="1" fill="#231f20"/>
    <rect x="106" y="34" width="3" height="1" fill="#231f20"/>
    <rect x="139" y="34" width="3" height="1" fill="#231f20"/>
    <rect x="167" y="34" width="1" height="1" fill="#231f20"/>
    <rect x="0" y="35" width="1" height="1" fill="#231f20"/>
    <rect x="38" y="35" width="1" height="1" fill="#231f20"/>
    <rect x="71" y="35" width="1" height="1" fill="#231f20"/>
    <rect x="108" y="35" width="1" height="1" fill="#231f20"/>
    <rect x="141" y="35" width="1" height="1" fill="#231f20"/>
    <rect x="167" y="35" width="1" height="1" fill="#231f20"/>
    <rect x="0" y="36" width="1" height="1" fill="#231f20"/>
    <rect x="167" y="36" width="1" height="1" fill="#231f20"/>
    <rect x="0" y="37" width="1" height="1" fill="#231f20"/>
    <rect x="167" y="37" width="1" height="1" fill="#231f20"/>
    <rect x="0" y="38" width="1" height="1" fill="#231f20"/>
    <rect x="167" y="38" width="1" height="1" fill="#231f20"/>
    <rect x="0" y="39" width="1" height="1" fill="#231f20"/>
    <rect x="167" y="39" width="1" height="1" fill="#231f20"/>
    <rect x="0" y="40" width="1" height="1" fill="#231f20"/>
    <rect x="167" y="40" width="1" height="1" fill="#231f20"/>
    <rect x="0" y="41" width="1" height="1" fill="#231f20"/>
    <rect x="167" y="41" width="1" height="1" fill="#231f20"/>
    <rect x="0" y="42" width="1" height="1" fill="#231f20"/>
    <rect x="167" y="42" width="1" height="1" fill="#231f20"/>
    <rect x="0" y="43" width="1" height="1" fill="#231f20"/>
    <rect x="167" y="43" width="1" height="1" fill="#231f20"/>
    <rect x="0" y="44" width="168" height="1" fill="#231f20"/>
    <rect x="0" y="45" width="1" height="1" fill="#231f20"/>
    <rect x="167" y="45" width="1" height="1" fill="#231f20"/>
    <rect x="0" y="46" width="1" height="1" fill="#231f20"/>
    <rect x="167" y="46" width="1" height="1" fill="#231f20"/>
    <rect x="0" y="47" width="1" height="1" fill="#231f20"/>
    <rect x="167" y="47" width="1" height="1" fill="#231f20"/>
    <rect x="0" y="48" width="1" height="1" fill="#231f20"/>
    <rect x="167" y="48" width="1" height="1" fill="#231f20"/>
    <rect x="0" y="49" width="1" height="1" fill="#231f20"/>
    <rect x="167" y="49" width="1" height="1" fill="#231f20"/>
    <rect x="0" y="50" width="1" height="1" fill="#231f20"/>
    <rect x="167" y="50" width="1" height="1" fill="#231f20"/>
    <rect x="0" y="51" width="1" height="1" fill="#231f20"/>
    <rect x="167" y="51" width="1" height="1" fill="#231f20"/>
    <rect x="0" y="52" width="1" height="1" fill="#231f20"/>
    <rect x="167" y="52" width="1" height="1" fill="#231f20"/>
    <rect x="0" y="53" width="1" height="1" fill="#231f20"/>
    <rect x="26" y="53" width="2" height="1" fill="#231f20"/>
    <rect x="60" y="53" width="2" height="1" fill="#231f20"/>
    <rect x="96" y="53" width="2" height="1" fill="#231f20"/>
    <rect x="129" y="53" width="2" height="1" fill="#231f20"/>
    <rect x="167" y="53" width="1" height="1" fill="#231f20"/>
    <rect x="0" y="54" width="1" height="1" fill="#231f20"/>
    <rect x="26" y="54" width="1" height="1" fill="#231f20"/>
    <rect x="28" y="54" width="2" height="1" fill="#231f20"/>
    <rect x="60" y="54" width="1" height="1" fill="#231f20"/>
    <rect x="62" y="54" width="2" height="1" fill="#231f20"/>
    <rect x="94" y="54" width="2" height="1" fill="#231f20"/>
    <rect x="97" y="54" width="1" height="1" fill="#231f20"/>
    <rect x="127" y="54" width="2" height="1" fill="#231f20"/>
    <rect x="130" y="54" width="1" height="1" fill="#231f20"/>
    <rect x="167" y="54" width="1" height="1" fill="#231f20"/>
    <rect x="0" y="55" width="1" height="1" fill="#231f20"/>
    <rect x="26" y="55" width="1" height="1" fill="#231f20"/>
    <rect x="30" y="55" width="2" height="1" fill="#231f20"/>
    <rect x="60" y="55" width="1" height="1" fill="#231f20"/>
    <rect x="64" y="55" width="1" height="1" fill="#231f20"/>
    <rect x="92" y="55" width="2" height="1" fill="#231f20"/>
    <rect x="97" y="55" width="1" height="1" fill="#231f20"/>
    <rect x="126" y="55" width="1" height="1" fill="#231f20"/>
    <rect x="130" y="55" width="1" height="1" fill="#231f20"/>
    <rect x="167" y="55" width="1" height="1" fill="#231f20"/>
    <rect x="0" y="56" width="1" height="1" fill="#231f20"/>
    <rect x="26" y="56" width="1" height="1" fill="#231f20"/>
    <rect x="29" y="56" width="2" height="1" fill="#231f20"/>
    <rect x="60" y="56" width="1" height="1" fill="#231f20"/>
    <rect x="62" y="56" width="2" height="1" fill="#231f20"/>
    <rect x="93" y="56" width="2" height="1" fill="#231f20"/>
    <rect x="97" y="56" width="1" height="1" fill="#231f20"/>
    <rect x="127" y="56" width="2" height="1" fill="#231f20"/>
    <rect x="130" y="56" width="1" height="1" fill="#231f20"/>
    <rect x="167" y="56" width="1" height="1" fill="#231f20"/>
    <rect x="0" y="57" width="1" height="1" fill="#231f20"/>
    <rect x="26" y="57" width="3" height="1" fill="#231f20"/>
    <rect x="60" y="57" width="2" height="1" fill="#231f20"/>
    <rect x="95" y="57" width="3" height="1" fill="#231f20"/>
    <rect x="129" y="57" width="2" height="1" fill="#231f20"/>
    <rect x="167" y="57" width="1" height="1" fill="#231f20"/>
    <rect x="0" y="58" width="1" height="1" fill="#231f20"/>
    <rect x="26" y="58" width="1" height="1" fill="#231f20"/>
    <rect x="60" y="58" width="1" height="1" fill="#231f20"/>
    <rect x="97" y="58" width="1" height="1" fill="#231f20"/>
    <rect x="130" y="58" width="1" height="1" fill="#231f20"/>
    <rect x="167" y="58" width="1" height="1" fill="#231f20"/>
    <rect x="0" y="59" width="1" height="1" fill="#231f20"/>
    <rect x="167" y="59" width="1" height="1" fill="#231f20"/>
    <rect x="0" y="60" width="1" height="1" fill="#231f20"/>
    <rect x="167" y="60" width="1" height="1" fill="#231f20"/>
    <rect x="0" y="61" width="1" height="1" fill="#231f20"/>
    <rect x="167" y="61" width="1" height="1" fill="#231f20"/>
    <rect x="0" y="62" width="1" height="1" fill="#231f20"/>
    <rect x="167" y="62" width="1" height="1" fill="#231f20"/>
    <rect x="0" y="63" width="1" height="1" fill="#231f20"/>
    <rect x="167" y="63" width="1" height="1" fill="#231f20"/>
    <rect x="0" y="64" width="1" height="1" fill="#231f20"/>
    <rect x="167" y="64" width="1" height="1" fill="#231f20"/>
    <rect x="0" y="65" width="1" height="1" fill="#231f20"/>
    <rect x="167" y="65" width="1" height="1" fill="#231f20"/>
    <rect x="0" y="66" width="168" height="1" fill="#231f20"/>
  </g>
</svg>