<?xml version="1.0" encoding="UTF-8"?>
<svg xmlns="http://www.w3.org/2000/svg" viewBox="0 0 116 70" width="116" height="70">
  <!-- Auto-converted from legend-1268.png -->
  <rect x="0" y="0" width="116" height="70" fill="none"/>
  <g fill="#231f20" stroke="none">
    <rect x="0" y="0" width="116" height="1" fill="#231f20"/>
    <rect x="0" y="1" width="1" height="1" fill="#231f20"/>
    <rect x="84" y="1" width="1" height="1" fill="#231f20"/>
    <rect x="115" y="1" width="1" height="1" fill="#231f20"/>
    <rect x="0" y="2" width="1" height="1" fill="#231f20"/>
    <rect x="84" y="2" width="1" height="1" fill="#231f20"/>
    <rect x="115" y="2" width="1" height="1" fill="#231f20"/>
    <rect x="0" y="3" width="1" height="1" fill="#231f20"/>
    <rect x="84" y="3" width="1" height="1" fill="#231f20"/>
    <rect x="115" y="3" width="1" height="1" fill="#231f20"/>
    <rect x="0" y="4" width="1" height="1" fill="#231f20"/>
    <rect x="84" y="4" width="1" height="1" fill="#231f20"/>
    <rect x="115" y="4" width="1" height="1" fill="#231f20"/>
    <rect x="0" y="5" width="1" height="1" fill="#231f20"/>
    <rect x="84" y="5" width="1" height="1" fill="#231f20"/>
    <rect x="115" y="5" width="1" height="1" fill="#231f20"/>
    <rect x="0" y="6" width="1" height="1" fill="#231f20"/>
    <rect x="84" y="6" width="1" height="1" fill="#231f20"/>
    <rect x="115" y="6" width="1" height="1" fill="#231f20"/>
    <rect x="0" y="7" width="1" height="1" fill="#231f20"/>
    <rect x="84" y="7" width="1" height="1" fill="#231f20"/>
    <rect x="115" y="7" width="1" height="1" fill="#231f20"/>
    <rect x="0" y="8" width="1" height="1" fill="#231f20"/>
    <rect x="84" y="8" width="1" height="1" fill="#231f20"/>
    <rect x="115" y="8" width="1" height="1" fill="#231f20"/>
    <rect x="0" y="9" width="1" height="1" fill="#231f20"/>
    <rect x="84" y="9" width="1" height="1" fill="#231f20"/>
    <rect x="115" y="9" width="1" height="1" fill="#231f20"/>
    <rect x="0" y="10" width="1" height="1" fill="#231f20"/>
    <rect x="84" y="10" width="1" height="1" fill="#231f20"/>
    <rect x="115" y="10" width="1" height="1" fill="#231f20"/>
    <rect x="0" y="11" width="1" height="1" fill="#231f20"/>
    <rect x="24" y="11" width="2" height="1" fill="#231f20"/>
    <rect x="28" y="11" width="1" height="1" fill="#231f20"/>
    <rect x="53" y="11" width="1" height="1" fill="#231f20"/>
    <rect x="56" y="11" width="2" height="1" fill="#231f20"/>
    <rect x="84" y="11" width="1" height="1" fill="#231f20"/>
    <rect x="115" y="11" width="1" height="1" fill="#231f20"/>
    <rect x="0" y="12" width="1" height="1" fill="#231f20"/>
    <rect x="24" y="12" width="2" height="1" fill="#231f20"/>
    <rect x="28" y="12" width="1" height="1" fill="#231f20"/>
    <rect x="53" y="12" width="1" height="1" fill="#231f20"/>
    <rect x="56" y="12" width="2" height="1" fill="#231f20"/>
    <rect x="84" y="12" width="1" height="1" fill="#231f20"/>
    <rect x="115" y="12" width="1" height="1" fill="#231f20"/>
    <rect x="0" y="13" width="1" height="1" fill="#231f20"/>
    <rect x="84" y="13" width="1" height="1" fill="#231f20"/>
    <rect x="115" y="13" width="1" height="1" fill="#231f20"/>
    <rect x="0" y="14" width="1" height="1" fill="#231f20"/>
    <rect x="84" y="14" width="1" height="1" fill="#231f20"/>
    <rect x="115" y="14" width="1" height="1" fill="#231f20"/>
    <rect x="0" y="15" width="1" height="1" fill="#231f20"/>
    <rect x="84" y="15" width="1" height="1" fill="#231f20"/>
    <rect x="115" y="15" width="1" height="1" fill="#231f20"/>
    <rect x="0" y="16" width="1" height="1" fill="#231f20"/>
    <rect x="84" y="16" width="1" height="1" fill="#231f20"/>
    <rect x="115" y="16" width="1" height="1" fill="#231f20"/>
    <rect x="0" y="17" width="1" height="1" fill="#231f20"/>
    <rect x="84" y="17" width="1" height="1" fill="#231f20"/>
    <rect x="115" y="17" width="1" height="1" fill="#231f20"/>
    <rect x="0" y="18" width="1" height="1" fill="#231f20"/>
    <rect x="84" y="18" width="1" height="1" fill="#231f20"/>
    <rect x="115" y="18" width="1" height="1" fill="#231f20"/>
    <rect x="0" y="19" width="1" height="1" fill="#231f20"/>
    <rect x="84" y="19" width="1" height="1" fill="#231f20"/>
    <rect x="115" y="19" width="1" height="1" fill="#231f20"/>
    <rect x="0" y="20" width="1" height="1" fill="#231f20"/>
    <rect x="84" y="20" width="1" height="1" fill="#231f20"/>
    <rect x="115" y="20" width="1" height="1" fill="#231f20"/>
    <rect x="0" y="21" width="1" height="1" fill="#231f20"/>
    <rect x="84" y="21" width="1" height="1" fill="#231f20"/>
    <rect x="115" y="21" width="1" height="1" fill="#231f20"/>
    <rect x="0" y="22" width="1" height="1" fill="#231f20"/>
    <rect x="84" y="22" width="1" height="1" fill="#231f20"/>
    <rect x="115" y="22" width="1" height="1" fill="#231f20"/>
    <rect x="0" y="23" width="116" height="1" fill="#231f20"/>
    <rect x="0" y="24" width="1" height="1" fill="#231f20"/>
    <rect x="32" y="24" width="1" height="1" fill="#231f20"/>
    <rect x="115" y="24" width="1" height="1" fill="#231f20"/>
    <rect x="0" y="25" width="1" height="1" fill="#231f20"/>
    <rect x="32" y="25" width="1" height="1" fill="#231f20"/>
    <rect x="115" y="25" width="1" height="1" fill="#231f20"/>
    <rect x="0" y="26" width="1" height="1" fill="#231f20"/>
    <rect x="32" y="26" width="1" height="1" fill="#231f20"/>
    <rect x="115" y="26" width="1" height="1" fill="#231f20"/>
    <rect x="0" y="27" width="1" height="1" fill="#231f20"/>
    <rect x="32" y="27" width="1" height="1" fill="#231f20"/>
    <rect x="115" y="27" width="1" height="1" fill="#231f20"/>
    <rect x="0" y="28" width="1" height="1" fill="#231f20"/>
    <rect x="32" y="28" width="1" height="1" fill="#231f20"/>
    <rect x="115" y="28" width="1" height="1" fill="#231f20"/>
    <rect x="0" y="29" width="1" height="1" fill="#231f20"/>
    <rect x="32" y="29" width="1" height="1" fill="#231f20"/>
    <rect x="115" y="29" width="1" height="1" fill="#231f20"/>
    <rect x="0" y="30" width="1" height="1" fill="#231f20"/>
    <rect x="32" y="30" width="1" height="1" fill="#231f20"/>
    <rect x="115" y="30" width="1" height="1" fill="#231f20"/>
    <rect x="0" y="31" width="1" height="1" fill="#231f20"/>
    <rect x="32" y="31" width="1" height="1" fill="#231f20"/>
    <rect x="115" y="31" width="1" height="1" fill="#231f20"/>
    <rect x="0" y="32" width="1" height="1" fill="#231f20"/>
    <rect x="32" y="32" width="1" height="1" fill="#231f20"/>
    <rect x="115" y="32" width="1" height="1" fill="#231f20"/>
    <rect x="0" y="33" width="1" height="1" fill="#231f20"/>
    <rect x="32" y="33" width="1" height="1" fill="#231f20"/>
    <rect x="115" y="33" width="1" height="1" fill="#231f20"/>
    <rect x="0" y="34" width="1" height="1" fill="#231f20"/>
    <rect x="32" y="34" width="1" height="1" fill="#231f20"/>
    <rect x="59" y="34" width="1" height="1" fill="#231f20"/>
    <rect x="62" y="34" width="2" height="1" fill="#231f20"/>
    <rect x="87" y="34" width="2" height="1" fill="#231f20"/>
    <rect x="91" y="34" width="1" height="1" fill="#231f20"/>
    <rect x="115" y="34" width="1" height="1" fill="#231f20"/>
    <rect x="0" y="35" width="1" height="1" fill="#231f20"/>
    <rect x="32" y="35" width="1" height="1" fill="#231f20"/>
    <rect x="59" y="35" width="1" height="1" fill="#231f20"/>
    <rect x="62" y="35" width="2" height="1" fill="#231f20"/>
    <rect x="87" y="35" width="2" height="1" fill="#231f20"/>
    <rect x="91" y="35" width="1" height="1" fill="#231f20"/>
    <rect x="115" y="35" width="1" height="1" fill="#231f20"/>
    <rect x="0" y="36" width="1" height="1" fill="#231f20"/>
    <rect x="32" y="36" width="1" height="1" fill="#231f20"/>
    <rect x="115" y="36" width="1" height="1" fill="#231f20"/>
    <rect x="0" y="37" width="1" height="1" fill="#231f20"/>
    <rect x="32" y="37" width="1" height="1" fill="#231f20"/>
    <rect x="115" y="37" width="1" height="1" fill="#231f20"/>
    <rect x="0" y="38" width="1" height="1" fill="#231f20"/>
    <rect x="32" y="38" width="1" height="1" fill="#231f20"/>
    <rect x="115" y="38" width="1" height="1" fill="#231f20"/>
    <rect x="0" y="39" width="1" height="1" fill="#231f20"/>
    <rect x="32" y="39" width="1" height="1" fill="#231f20"/>
    <rect x="115" y="39" width="1" height="1" fill="#231f20"/>
    <rect x="0" y="40" width="1" height="1" fill="#231f20"/>
    <rect x="32" y="40" width="1" height="1" fill="#231f20"/>
    <rect x="115" y="40" width="1" height="1" fill="#231f20"/>
    <rect x="0" y="41" width="1" height="1" fill="#231f20"/>
    <rect x="32" y="41" width="1" height="1" fill="#231f20"/>
    <rect x="115" y="41" width="1" height="1" fill="#231f20"/>
    <rect x="0" y="42" width="1" height="1" fill="#231f20"/>
    <rect x="32" y="42" width="1" height="1" fill="#231f20"/>
    <rect x="115" y="42" width="1" height="1" fill="#231f20"/>
    <rect x="0" y="43" width="1" height="1" fill="#231f20"/>
    <rect x="32" y="43" width="1" height="1" fill="#231f20"/>
    <rect x="115" y="43" width="1" height="1" fill="#231f20"/>
    <rect x="0" y="44" width="1" height="1" fill="#231f20"/>
    <rect x="32" y="44" width="1" height="1" fill="#231f20"/>
    <rect x="115" y="44" width="1" height="1" fill="#231f20"/>
    <rect x="0" y="45" width="1" height="1" fill="#231f20"/>
    <rect x="32" y="45" width="1" height="1" fill="#231f20"/>
    <rect x="115" y="45" width="1" height="1" fill="#231f20"/>
    <rect x="0" y="46" width="116" height="1" fill="#231f20"/>
    <rect x="0" y="47" width="1" height="1" fill="#231f20"/>
    <rect x="84" y="47" width="1" height="1" fill="#231f20"/>
    <rect x="115" y="47" width="1" height="1" fill="#231f20"/>
    <rect x="0" y="48" width="1" height="1" fill="#231f20"/>
    <rect x="84" y="48" width="1" height="1" fill="#231f20"/>
    <rect x="115" y="48" width="1" height="1" fill="#231f20"/>
    <rect x="0" y="49" width="1" height="1" fill="#231f20"/>
    <rect x="84" y="49" width="1" height="1" fill="#231f20"/>
    <rect x="115" y="49" width="1" height="1" fill="#231f20"/>
    <rect x="0" y="50" width="1" height="1" fill="#231f20"/>
    <rect x="84" y="50" width="1" height="1" fill="#231f20"/>
    <rect x="115" y="50" width="1" height="1" fill="#231f20"/>
    <rect x="0" y="51" width="1" height="1" fill="#231f20"/>
    <rect x="84" y="51" width="1" height="1" fill="#231f20"/>
    <rect x="115" y="51" width="1" height="1" fill="#231f20"/>
    <rect x="0" y="52" width="1" height="1" fill="#231f20"/>
    <rect x="84" y="52" width="1" height="1" fill="#231f20"/>
    <rect x="115" y="52" width="1" height="1" fill="#231f20"/>
    <rect x="0" y="53" width="1" height="1" fill="#231f20"/>
    <rect x="84" y="53" width="1" height="1" fill="#231f20"/>
    <rect x="115" y="53" width="1" height="1" fill="#231f20"/>
    <rect x="0" y="54" width="1" height="1" fill="#231f20"/>
    <rect x="84" y="54" width="1" height="1" fill="#231f20"/>
    <rect x="115" y="54" width="1" height="1" fill="#231f20"/>
    <rect x="0" y="55" width="1" height="1" fill="#231f20"/>
    <rect x="84" y="55" width="1" height="1" fill="#231f20"/>
    <rect x="115" y="55" width="1" height="1" fill="#231f20"/>
    <rect x="0" y="56" width="1" height="1" fill="#231f20"/>
    <rect x="84" y="56" width="1" height="1" fill="#231f20"/>
    <rect x="115" y="56" width="1" height="1" fill="#231f20"/>
    <rect x="0" y="57" width="1" height="1" fill="#231f20"/>
    <rect x="24" y="57" width="2" height="1" fill="#231f20"/>
    <rect x="28" y="57" width="1" height="1" fill="#231f20"/>
    <rect x="53" y="57" width="1" height="1" fill="#231f20"/>
    <rect x="56" y="57" width="2" height="1" fill="#231f20"/>
    <rect x="84" y="57" width="1" height="1" fill="#231f20"/>
    <rect x="115" y="57" width="1" height="1" fill="#231f20"/>
    <rect x="0" y="58" width="1" height="1" fill="#231f20"/>
    <rect x="24" y="58" width="2" height="1" fill="#231f20"/>
    <rect x="28" y="58" width="1" height="1" fill="#231f20"/>
    <rect x="53" y="58" width="1" height="1" fill="#231f20"/>
    <rect x="56" y="58" width="2" height="1" fill="#231f20"/>
    <rect x="84" y="58" width="1" height="1" fill="#231f20"/>
    <rect x="115" y="58" width="1" height="1" fill="#231f20"/>
    <rect x="0" y="59" width="1" height="1" fill="#231f20"/>
    <rect x="84" y="59" width="1" height="1" fill="#231f20"/>
    <rect x="115" y="59" width="1" height="1" fill="#231f20"/>
    <rect x="0" y="60" width="1" height="1" fill="#231f20"/>
    <rect x="84" y="60" width="1" height="1" fill="#231f20"/>
    <rect x="115" y="60" width="1" height="1" fill="#231f20"/>
    <rect x="0" y="61" width="1" height="1" fill="#231f20"/>
    <rect x="84" y="61" width="1" height="1" fill="#231f20"/>
    <rect x="115" y="61" width="1" height="1" fill="#231f20"/>
    <rect x="0" y="62" width="1" height="1" fill="#231f20"/>
    <rect x="84" y="62" width="1" height="1" fill="#231f20"/>
    <rect x="115" y="62" width="1" height="1" fill="#231f20"/>
    <rect x="0" y="63" width="1" height="1" fill="#231f20"/>
    <rect x="84" y="63" width="1" height="1" fill="#231f20"/>
    <rect x="115" y="63" width="1" height="1" fill="#231f20"/>
    <rect x="0" y="64" width="1" height="1" fill="#231f20"/>
    <rect x="84" y="64" width="1" height="1" fill="#231f20"/>
    <rect x="115" y="64" width="1" height="1" fill="#231f20"/>
    <rect x="0" y="65" width="1" height="1" fill="#231f20"/>
    <rect x="84" y="65" width="1" height="1" fill="#231f20"/>
    <rect x="115" y="65" width="1" height="1" fill="#231f20"/>
    <rect x="0" y="66" width="1" height="1" fill="#231f20"/>
    <rect x="84" y="66" width="1" height="1" fill="#231f20"/>
    <rect x="115" y="66" width="1" height="1" fill="#231f20"/>
    <rect x="0" y="67" width="1" height="1" fill="#231f20"/>
    <rect x="84" y="67" width="1" height="1" fill="#231f20"/>
    <rect x="115" y="67" width="1" height="1" fill="#231f20"/>
    <rect x="0" y="68" width="1" height="1" fill="#231f20"/>
    <rect x="84" y="68" width="1" height="1" fill="#231f20"/>
    <rect x="115" y="68" width="1" height="1" fill="#231f20"/>
    <rect x="0" y="69" width="116" height="1" fill="#231f20"/>
  </g>
</svg>