<?xml version="1.0" encoding="UTF-8"?>
<svg xmlns="http://www.w3.org/2000/svg" viewBox="0 0 153 61" width="153" height="61">
  <!-- Auto-converted from legend-2322.png -->
  <rect x="0" y="0" width="153" height="61" fill="none"/>
  <g fill="#231f20" stroke="none">
    <rect x="0" y="0" width="153" height="1" fill="#231f20"/>
    <rect x="0" y="1" width="1" height="1" fill="#231f20"/>
    <rect x="152" y="1" width="1" height="1" fill="#231f20"/>
    <rect x="0" y="2" width="1" height="1" fill="#231f20"/>
    <rect x="152" y="2" width="1" height="1" fill="#231f20"/>
    <rect x="0" y="3" width="1" height="1" fill="#231f20"/>
    <rect x="152" y="3" width="1" height="1" fill="#231f20"/>
    <rect x="0" y="4" width="1" height="1" fill="#231f20"/>
    <rect x="152" y="4" width="1" height="1" fill="#231f20"/>
    <rect x="0" y="5" width="1" height="1" fill="#231f20"/>
    <rect x="152" y="5" width="1" height="1" fill="#231f20"/>
    <rect x="0" y="6" width="1" height="1" fill="#231f20"/>
    <rect x="30" y="6" width="2" height="1" fill="#231f20"/>
    <rect x="86" y="6" width="1" height="1" fill="#231f20"/>
    <rect x="116" y="6" width="1" height="1" fill="#231f20"/>
    <rect x="152" y="6" width="1" height="1" fill="#231f20"/>
    <rect x="0" y="7" width="1" height="1" fill="#231f20"/>
    <rect x="27" y="7" width="3" height="1" fill="#231f20"/>
    <rect x="31" y="7" width="1" height="1" fill="#231f20"/>
    <rect x="55" y="7" width="1" height="1" fill="#231f20"/>
    <rect x="86" y="7" width="1" height="1" fill="#231f20"/>
    <rect x="116" y="7" width="1" height="1" fill="#231f20"/>
    <rect x="152" y="7" width="1" height="1" fill="#231f20"/>
    <rect x="0" y="8" width="1" height="1" fill="#231f20"/>
    <rect x="23" y="8" width="4" height="1" fill="#231f20"/>
    <rect x="31" y="8" width="1" height="1" fill="#231f20"/>
    <rect x="55" y="8" width="1" height="1" fill="#231f20"/>
    <rect x="86" y="8" width="1" height="1" fill="#231f20"/>
    <rect x="116" y="8" width="1" height="1" fill="#231f20"/>
    <rect x="152" y="8" width="1" height="1" fill="#231f20"/>
    <rect x="0" y="9" width="1" height="1" fill="#231f20"/>
    <rect x="20" y="9" width="3" height="1" fill="#231f20"/>
    <rect x="31" y="9" width="1" height="1" fill="#231f20"/>
    <rect x="55" y="9" width="1" height="1" fill="#231f20"/>
    <rect x="86" y="9" width="1" height="1" fill="#231f20"/>
    <rect x="116" y="9" width="1" height="1" fill="#231f20"/>
    <rect x="152" y="9" width="1" height="1" fill="#231f20"/>
    <rect x="0" y="10" width="1" height="1" fill="#231f20"/>
    <rect x="18" y="10" width="2" height="1" fill="#231f20"/>
    <rect x="31" y="10" width="1" height="1" fill="#231f20"/>
    <rect x="53" y="10" width="6" height="1" fill="#231f20"/>
    <rect x="82" y="10" width="9" height="1" fill="#231f20"/>
    <rect x="112" y="10" width="9" height="1" fill="#231f20"/>
    <rect x="152" y="10" width="1" height="1" fill="#231f20"/>
    <rect x="0" y="11" width="1" height="1" fill="#231f20"/>
    <rect x="20" y="11" width="3" height="1" fill="#231f20"/>
    <rect x="31" y="11" width="1" height="1" fill="#231f20"/>
    <rect x="54" y="11" width="2" height="1" fill="#231f20"/>
    <rect x="86" y="11" width="1" height="1" fill="#231f20"/>
    <rect x="116" y="11" width="1" height="1" fill="#231f20"/>
    <rect x="152" y="11" width="1" height="1" fill="#231f20"/>
    <rect x="0" y="12" width="1" height="1" fill="#231f20"/>
    <rect x="23" y="12" width="4" height="1" fill="#231f20"/>
    <rect x="31" y="12" width="1" height="1" fill="#231f20"/>
    <rect x="53" y="12" width="1" height="1" fill="#231f20"/>
    <rect x="55" y="12" width="1" height="1" fill="#231f20"/>
    <rect x="58" y="12" width="1" height="1" fill="#231f20"/>
    <rect x="86" y="12" width="1" height="1" fill="#231f20"/>
    <rect x="116" y="12" width="1" height="1" fill="#231f20"/>
    <rect x="152" y="12" width="1" height="1" fill="#231f20"/>
    <rect x="0" y="13" width="1" height="1" fill="#231f20"/>
    <rect x="27" y="13" width="3" height="1" fill="#231f20"/>
    <rect x="31" y="13" width="1" height="1" fill="#231f20"/>
    <rect x="56" y="13" width="2" height="1" fill="#231f20"/>
    <rect x="86" y="13" width="1" height="1" fill="#231f20"/>
    <rect x="116" y="13" width="1" height="1" fill="#231f20"/>
    <rect x="152" y="13" width="1" height="1" fill="#231f20"/>
    <rect x="0" y="14" width="1" height="1" fill="#231f20"/>
    <rect x="30" y="14" width="2" height="1" fill="#231f20"/>
    <rect x="86" y="14" width="1" height="1" fill="#231f20"/>
    <rect x="116" y="14" width="1" height="1" fill="#231f20"/>
    <rect x="152" y="14" width="1" height="1" fill="#231f20"/>
    <rect x="0" y="15" width="1" height="1" fill="#231f20"/>
    <rect x="152" y="15" width="1" height="1" fill="#231f20"/>
    <rect x="0" y="16" width="1" height="1" fill="#231f20"/>
    <rect x="152" y="16" width="1" height="1" fill="#231f20"/>
    <rect x="0" y="17" width="1" height="1" fill="#231f20"/>
    <rect x="152" y="17" width="1" height="1" fill="#231f20"/>
    <rect x="0" y="18" width="1" height="1" fill="#231f20"/>
    <rect x="152" y="18" width="1" height="1" fill="#231f20"/>
    <rect x="0" y="19" width="1" height="1" fill="#231f20"/>
    <rect x="152" y="19" width="1" height="1" fill="#231f20"/>
    <rect x="0" y="20" width="153" height="1" fill="#231f20"/>
    <rect x="0" y="21" width="1" height="1" fill="#231f20"/>
    <rect x="152" y="21" width="1" height="1" fill="#231f20"/>
    <rect x="0" y="22" width="1" height="1" fill="#231f20"/>
    <rect x="152" y="22" width="1" height="1" fill="#231f20"/>
    <rect x="0" y="23" width="1" height="1" fill="#231f20"/>
    <rect x="152" y="23" width="1" height="1" fill="#231f20"/>
    <rect x="0" y="24" width="1" height="1" fill="#231f20"/>
    <rect x="152" y="24" width="1" height="1" fill="#231f20"/>
    <rect x="0" y="25" width="1" height="1" fill="#231f20"/>
    <rect x="152" y="25" width="1" height="1" fill="#231f20"/>
    <rect x="0" y="26" width="1" height="1" fill="#231f20"/>
    <rect x="35" y="26" width="1" height="1" fill="#231f20"/>
    <rect x="65" y="26" width="1" height="1" fill="#231f20"/>
    <rect x="132" y="26" width="2" height="1" fill="#231f20"/>
    <rect x="152" y="26" width="1" height="1" fill="#231f20"/>
    <rect x="0" y="27" width="1" height="1" fill="#231f20"/>
    <rect x="35" y="27" width="1" height="1" fill="#231f20"/>
    <rect x="65" y="27" width="1" height="1" fill="#231f20"/>
    <rect x="96" y="27" width="1" height="1" fill="#231f20"/>
    <rect x="129" y="27" width="3" height="1" fill="#231f20"/>
    <rect x="133" y="27" width="1" height="1" fill="#231f20"/>
    <rect x="152" y="27" width="1" height="1" fill="#231f20"/>
    <rect x="0" y="28" width="1" height="1" fill="#231f20"/>
    <rect x="35" y="28" width="1" height="1" fill="#231f20"/>
    <rect x="65" y="28" width="1" height="1" fill="#231f20"/>
    <rect x="96" y="28" width="1" height="1" fill="#231f20"/>
    <rect x="125" y="28" width="4" height="1" fill="#231f20"/>
    <rect x="133" y="28" width="1" height="1" fill="#231f20"/>
    <rect x="152" y="28" width="1" height="1" fill="#231f20"/>
    <rect x="0" y="29" width="1" height="1" fill="#231f20"/>
    <rect x="35" y="29" width="1" height="1" fill="#231f20"/>
    <rect x="65" y="29" width="1" height="1" fill="#231f20"/>
    <rect x="96" y="29" width="1" height="1" fill="#231f20"/>
    <rect x="122" y="29" width="3" height="1" fill="#231f20"/>
    <rect x="133" y="29" width="1" height="1" fill="#231f20"/>
    <rect x="152" y="29" width="1" height="1" fill="#231f20"/>
    <rect x="0" y="30" width="1" height="1" fill="#231f20"/>
    <rect x="31" y="30" width="9" height="1" fill="#231f20"/>
    <rect x="62" y="30" width="8" height="1" fill="#231f20"/>
    <rect x="93" y="30" width="6" height="1" fill="#231f20"/>
    <rect x="120" y="30" width="2" height="1" fill="#231f20"/>
    <rect x="133" y="30" width="1" height="1" fill="#231f20"/>
    <rect x="152" y="30" width="1" height="1" fill="#231f20"/>
    <rect x="0" y="31" width="1" height="1" fill="#231f20"/>
    <rect x="35" y="31" width="1" height="1" fill="#231f20"/>
    <rect x="65" y="31" width="1" height="1" fill="#231f20"/>
    <rect x="94" y="31" width="2" height="1" fill="#231f20"/>
    <rect x="122" y="31" width="3" height="1" fill="#231f20"/>
    <rect x="133" y="31" width="1" height="1" fill="#231f20"/>
    <rect x="152" y="31" width="1" height="1" fill="#231f20"/>
    <rect x="0" y="32" width="1" height="1" fill="#231f20"/>
    <rect x="35" y="32" width="1" height="1" fill="#231f20"/>
    <rect x="65" y="32" width="1" height="1" fill="#231f20"/>
    <rect x="93" y="32" width="2" height="1" fill="#231f20"/>
    <rect x="96" y="32" width="1" height="1" fill="#231f20"/>
    <rect x="98" y="32" width="1" height="1" fill="#231f20"/>
    <rect x="125" y="32" width="4" height="1" fill="#231f20"/>
    <rect x="133" y="32" width="1" height="1" fill="#231f20"/>
    <rect x="152" y="32" width="1" height="1" fill="#231f20"/>
    <rect x="0" y="33" width="1" height="1" fill="#231f20"/>
    <rect x="35" y="33" width="1" height="1" fill="#231f20"/>
    <rect x="65" y="33" width="1" height="1" fill="#231f20"/>
    <rect x="96" y="33" width="3" height="1" fill="#231f20"/>
    <rect x="129" y="33" width="3" height="1" fill="#231f20"/>
    <rect x="133" y="33" width="1" height="1" fill="#231f20"/>
    <rect x="152" y="33" width="1" height="1" fill="#231f20"/>
    <rect x="0" y="34" width="1" height="1" fill="#231f20"/>
    <rect x="35" y="34" width="1" height="1" fill="#231f20"/>
    <rect x="65" y="34" width="1" height="1" fill="#231f20"/>
    <rect x="132" y="34" width="2" height="1" fill="#231f20"/>
    <rect x="152" y="34" width="1" height="1" fill="#231f20"/>
    <rect x="0" y="35" width="1" height="1" fill="#231f20"/>
    <rect x="152" y="35" width="1" height="1" fill="#231f20"/>
    <rect x="0" y="36" width="1" height="1" fill="#231f20"/>
    <rect x="152" y="36" width="1" height="1" fill="#231f20"/>
    <rect x="0" y="37" width="1" height="1" fill="#231f20"/>
    <rect x="152" y="37" width="1" height="1" fill="#231f20"/>
    <rect x="0" y="38" width="1" height="1" fill="#231f20"/>
    <rect x="152" y="38" width="1" height="1" fill="#231f20"/>
    <rect x="0" y="39" width="1" height="1" fill="#231f20"/>
    <rect x="152" y="39" width="1" height="1" fill="#231f20"/>
    <rect x="0" y="40" width="153" height="1" fill="#231f20"/>
    <rect x="0" y="41" width="1" height="1" fill="#231f20"/>
    <rect x="152" y="41" width="1" height="1" fill="#231f20"/>
    <rect x="0" y="42" width="1" height="1" fill="#231f20"/>
    <rect x="152" y="42" width="1" height="1" fill="#231f20"/>
    <rect x="0" y="43" width="1" height="1" fill="#231f20"/>
    <rect x="152" y="43" width="1" height="1" fill="#231f20"/>
    <rect x="0" y="44" width="1" height="1" fill="#231f20"/>
    <rect x="152" y="44" width="1" height="1" fill="#231f20"/>
    <rect x="0" y="45" width="1" height="1" fill="#231f20"/>
    <rect x="152" y="45" width="1" height="1" fill="#231f20"/>
    <rect x="0" y="46" width="1" height="1" fill="#231f20"/>
    <rect x="86" y="46" width="1" height="1" fill="#231f20"/>
    <rect x="116" y="46" width="1" height="1" fill="#231f20"/>
    <rect x="152" y="46" width="1" height="1" fill="#231f20"/>
    <rect x="0" y="47" width="1" height="1" fill="#231f20"/>
    <rect x="30" y="47" width="2" height="1" fill="#231f20"/>
    <rect x="86" y="47" width="1" height="1" fill="#231f20"/>
    <rect x="116" y="47" width="1" height="1" fill="#231f20"/>
    <rect x="152" y="47" width="1" height="1" fill="#231f20"/>
    <rect x="0" y="48" width="1" height="1" fill="#231f20"/>
    <rect x="27" y="48" width="3" height="1" fill="#231f20"/>
    <rect x="31" y="48" width="1" height="1" fill="#231f20"/>
    <rect x="55" y="48" width="1" height="1" fill="#231f20"/>
    <rect x="86" y="48" width="1" height="1" fill="#231f20"/>
    <rect x="116" y="48" width="1" height="1" fill="#231f20"/>
    <rect x="152" y="48" width="1" height="1" fill="#231f20"/>
    <rect x="0" y="49" width="1" height="1" fill="#231f20"/>
    <rect x="23" y="49" width="4" height="1" fill="#231f20"/>
    <rect x="31" y="49" width="1" height="1" fill="#231f20"/>
    <rect x="55" y="49" width="1" height="1" fill="#231f20"/>
    <rect x="86" y="49" width="1" height="1" fill="#231f20"/>
    <rect x="116" y="49" width="1" height="1" fill="#231f20"/>
    <rect x="152" y="49" width="1" height="1" fill="#231f20"/>
    <rect x="0" y="50" width="1" height="1" fill="#231f20"/>
    <rect x="20" y="50" width="3" height="1" fill="#231f20"/>
    <rect x="31" y="50" width="1" height="1" fill="#231f20"/>
    <rect x="53" y="50" width="6" height="1" fill="#231f20"/>
    <rect x="82" y="50" width="9" height="1" fill="#231f20"/>
    <rect x="112" y="50" width="9" height="1" fill="#231f20"/>
    <rect x="152" y="50" width="1" height="1" fill="#231f20"/>
    <rect x="0" y="51" width="1" height="1" fill="#231f20"/>
    <rect x="18" y="51" width="3" height="1" fill="#231f20"/>
    <rect x="31" y="51" width="1" height="1" fill="#231f20"/>
    <rect x="54" y="51" width="1" height="1" fill="#231f20"/>
    <rect x="86" y="51" width="1" height="1" fill="#231f20"/>
    <rect x="116" y="51" width="1" height="1" fill="#231f20"/>
    <rect x="152" y="51" width="1" height="1" fill="#231f20"/>
    <rect x="0" y="52" width="1" height="1" fill="#231f20"/>
    <rect x="21" y="52" width="4" height="1" fill="#231f20"/>
    <rect x="31" y="52" width="1" height="1" fill="#231f20"/>
    <rect x="54" y="52" width="2" height="1" fill="#231f20"/>
    <rect x="86" y="52" width="1" height="1" fill="#231f20"/>
    <rect x="116" y="52" width="1" height="1" fill="#231f20"/>
    <rect x="152" y="52" width="1" height="1" fill="#231f20"/>
    <rect x="0" y="53" width="1" height="1" fill="#231f20"/>
    <rect x="25" y="53" width="4" height="1" fill="#231f20"/>
    <rect x="31" y="53" width="1" height="1" fill="#231f20"/>
    <rect x="53" y="53" width="1" height="1" fill="#231f20"/>
    <rect x="56" y="53" width="3" height="1" fill="#231f20"/>
    <rect x="86" y="53" width="1" height="1" fill="#231f20"/>
    <rect x="116" y="53" width="1" height="1" fill="#231f20"/>
    <rect x="152" y="53" width="1" height="1" fill="#231f20"/>
    <rect x="0" y="54" width="1" height="1" fill="#231f20"/>
    <rect x="29" y="54" width="3" height="1" fill="#231f20"/>
    <rect x="86" y="54" width="1" height="1" fill="#231f20"/>
    <rect x="116" y="54" width="1" height="1" fill="#231f20"/>
    <rect x="152" y="54" width="1" height="1" fill="#231f20"/>
    <rect x="0" y="55" width="1" height="1" fill="#231f20"/>
    <rect x="152" y="55" width="1" height="1" fill="#231f20"/>
    <rect x="0" y="56" width="1" height="1" fill="#231f20"/>
    <rect x="152" y="56" width="1" height="1" fill="#231f20"/>
    <rect x="0" y="57" width="1" height="1" fill="#231f20"/>
    <rect x="152" y="57" width="1" height="1" fill="#231f20"/>
    <rect x="0" y="58" width="1" height="1" fill="#231f20"/>
    <rect x="152" y="58" width="1" height="1" fill="#231f20"/>
    <rect x="0" y="59" width="1" height="1" fill="#231f20"/>
    <rect x="152" y="59" width="1" height="1" fill="#231f20"/>
    <rect x="0" y="60" width="153" height="1" fill="#231f20"/>
  </g>
</svg>