<?xml version="1.0" encoding="UTF-8"?>
<svg xmlns="http://www.w3.org/2000/svg" viewBox="0 0 148 79" width="148" height="79">
  <!-- Auto-converted from legend-177.png -->
  <rect x="0" y="0" width="148" height="79" fill="none"/>
  <g fill="#231f20" stroke="none">
    <rect x="0" y="0" width="148" height="1" fill="#231f20"/>
    <rect x="0" y="1" width="1" height="1" fill="#231f20"/>
    <rect x="147" y="1" width="1" height="1" fill="#231f20"/>
    <rect x="0" y="2" width="1" height="1" fill="#231f20"/>
    <rect x="147" y="2" width="1" height="1" fill="#231f20"/>
    <rect x="0" y="3" width="1" height="1" fill="#231f20"/>
    <rect x="147" y="3" width="1" height="1" fill="#231f20"/>
    <rect x="0" y="4" width="1" height="1" fill="#231f20"/>
    <rect x="147" y="4" width="1" height="1" fill="#231f20"/>
    <rect x="0" y="5" width="1" height="1" fill="#231f20"/>
    <rect x="147" y="5" width="1" height="1" fill="#231f20"/>
    <rect x="0" y="6" width="1" height="1" fill="#231f20"/>
    <rect x="147" y="6" width="1" height="1" fill="#231f20"/>
    <rect x="0" y="7" width="1" height="1" fill="#231f20"/>
    <rect x="12" y="7" width="2" height="1" fill="#231f20"/>
    <rect x="15" y="7" width="2" height="1" fill="#231f20"/>
    <rect x="19" y="7" width="2" height="1" fill="#231f20"/>
    <rect x="23" y="7" width="1" height="1" fill="#231f20"/>
    <rect x="26" y="7" width="2" height="1" fill="#231f20"/>
    <rect x="30" y="7" width="1" height="1" fill="#231f20"/>
    <rect x="33" y="7" width="2" height="1" fill="#231f20"/>
    <rect x="37" y="7" width="1" height="1" fill="#231f20"/>
    <rect x="40" y="7" width="2" height="1" fill="#231f20"/>
    <rect x="44" y="7" width="1" height="1" fill="#231f20"/>
    <rect x="47" y="7" width="2" height="1" fill="#231f20"/>
    <rect x="51" y="7" width="1" height="1" fill="#231f20"/>
    <rect x="54" y="7" width="2" height="1" fill="#231f20"/>
    <rect x="58" y="7" width="1" height="1" fill="#231f20"/>
    <rect x="61" y="7" width="2" height="1" fill="#231f20"/>
    <rect x="65" y="7" width="2" height="1" fill="#231f20"/>
    <rect x="68" y="7" width="2" height="1" fill="#231f20"/>
    <rect x="72" y="7" width="2" height="1" fill="#231f20"/>
    <rect x="75" y="7" width="2" height="1" fill="#231f20"/>
    <rect x="79" y="7" width="2" height="1" fill="#231f20"/>
    <rect x="82" y="7" width="2" height="1" fill="#231f20"/>
    <rect x="86" y="7" width="2" height="1" fill="#231f20"/>
    <rect x="89" y="7" width="2" height="1" fill="#231f20"/>
    <rect x="93" y="7" width="2" height="1" fill="#231f20"/>
    <rect x="97" y="7" width="1" height="1" fill="#231f20"/>
    <rect x="100" y="7" width="2" height="1" fill="#231f20"/>
    <rect x="104" y="7" width="1" height="1" fill="#231f20"/>
    <rect x="107" y="7" width="2" height="1" fill="#231f20"/>
    <rect x="111" y="7" width="1" height="1" fill="#231f20"/>
    <rect x="147" y="7" width="1" height="1" fill="#231f20"/>
    <rect x="0" y="8" width="1" height="1" fill="#231f20"/>
    <rect x="12" y="8" width="2" height="1" fill="#231f20"/>
    <rect x="16" y="8" width="1" height="1" fill="#231f20"/>
    <rect x="19" y="8" width="2" height="1" fill="#231f20"/>
    <rect x="23" y="8" width="1" height="1" fill="#231f20"/>
    <rect x="26" y="8" width="2" height="1" fill="#231f20"/>
    <rect x="30" y="8" width="1" height="1" fill="#231f20"/>
    <rect x="33" y="8" width="2" height="1" fill="#231f20"/>
    <rect x="37" y="8" width="1" height="1" fill="#231f20"/>
    <rect x="40" y="8" width="2" height="1" fill="#231f20"/>
    <rect x="44" y="8" width="1" height="1" fill="#231f20"/>
    <rect x="47" y="8" width="2" height="1" fill="#231f20"/>
    <rect x="51" y="8" width="1" height="1" fill="#231f20"/>
    <rect x="54" y="8" width="2" height="1" fill="#231f20"/>
    <rect x="58" y="8" width="1" height="1" fill="#231f20"/>
    <rect x="61" y="8" width="2" height="1" fill="#231f20"/>
    <rect x="65" y="8" width="1" height="1" fill="#231f20"/>
    <rect x="68" y="8" width="2" height="1" fill="#231f20"/>
    <rect x="72" y="8" width="1" height="1" fill="#231f20"/>
    <rect x="75" y="8" width="2" height="1" fill="#231f20"/>
    <rect x="79" y="8" width="2" height="1" fill="#231f20"/>
    <rect x="83" y="8" width="1" height="1" fill="#231f20"/>
    <rect x="86" y="8" width="2" height="1" fill="#231f20"/>
    <rect x="90" y="8" width="1" height="1" fill="#231f20"/>
    <rect x="93" y="8" width="2" height="1" fill="#231f20"/>
    <rect x="97" y="8" width="1" height="1" fill="#231f20"/>
    <rect x="100" y="8" width="2" height="1" fill="#231f20"/>
    <rect x="104" y="8" width="1" height="1" fill="#231f20"/>
    <rect x="107" y="8" width="2" height="1" fill="#231f20"/>
    <rect x="111" y="8" width="1" height="1" fill="#231f20"/>
    <rect x="147" y="8" width="1" height="1" fill="#231f20"/>
    <rect x="0" y="9" width="1" height="1" fill="#231f20"/>
    <rect x="147" y="9" width="1" height="1" fill="#231f20"/>
    <rect x="0" y="10" width="1" height="1" fill="#231f20"/>
    <rect x="109" y="10" width="2" height="1" fill="#231f20"/>
    <rect x="147" y="10" width="1" height="1" fill="#231f20"/>
    <rect x="0" y="11" width="1" height="1" fill="#231f20"/>
    <rect x="109" y="11" width="1" height="1" fill="#231f20"/>
    <rect x="147" y="11" width="1" height="1" fill="#231f20"/>
    <rect x="0" y="12" width="1" height="1" fill="#231f20"/>
    <rect x="18" y="12" width="1" height="1" fill="#231f20"/>
    <rect x="46" y="12" width="1" height="1" fill="#231f20"/>
    <rect x="74" y="12" width="1" height="1" fill="#231f20"/>
    <rect x="102" y="12" width="1" height="1" fill="#231f20"/>
    <rect x="147" y="12" width="1" height="1" fill="#231f20"/>
    <rect x="0" y="13" width="1" height="1" fill="#231f20"/>
    <rect x="16" y="13" width="4" height="1" fill="#231f20"/>
    <rect x="45" y="13" width="1" height="1" fill="#231f20"/>
    <rect x="47" y="13" width="1" height="1" fill="#231f20"/>
    <rect x="73" y="13" width="1" height="1" fill="#231f20"/>
    <rect x="75" y="13" width="1" height="1" fill="#231f20"/>
    <rect x="101" y="13" width="3" height="1" fill="#231f20"/>
    <rect x="107" y="13" width="2" height="1" fill="#231f20"/>
    <rect x="147" y="13" width="1" height="1" fill="#231f20"/>
    <rect x="0" y="14" width="1" height="1" fill="#231f20"/>
    <rect x="16" y="14" width="1" height="1" fill="#231f20"/>
    <rect x="19" y="14" width="1" height="1" fill="#231f20"/>
    <rect x="44" y="14" width="1" height="1" fill="#231f20"/>
    <rect x="47" y="14" width="2" height="1" fill="#231f20"/>
    <rect x="72" y="14" width="1" height="1" fill="#231f20"/>
    <rect x="76" y="14" width="1" height="1" fill="#231f20"/>
    <rect x="100" y="14" width="2" height="1" fill="#231f20"/>
    <rect x="104" y="14" width="1" height="1" fill="#231f20"/>
    <rect x="107" y="14" width="2" height="1" fill="#231f20"/>
    <rect x="147" y="14" width="1" height="1" fill="#231f20"/>
    <rect x="0" y="15" width="1" height="1" fill="#231f20"/>
    <rect x="16" y="15" width="1" height="1" fill="#231f20"/>
    <rect x="19" y="15" width="1" height="1" fill="#231f20"/>
    <rect x="44" y="15" width="2" height="1" fill="#231f20"/>
    <rect x="47" y="15" width="1" height="1" fill="#231f20"/>
    <rect x="72" y="15" width="2" height="1" fill="#231f20"/>
    <rect x="75" y="15" width="2" height="1" fill="#231f20"/>
    <rect x="101" y="15" width="1" height="1" fill="#231f20"/>
    <rect x="103" y="15" width="2" height="1" fill="#231f20"/>
    <rect x="147" y="15" width="1" height="1" fill="#231f20"/>
    <rect x="0" y="16" width="1" height="1" fill="#231f20"/>
    <rect x="17" y="16" width="2" height="1" fill="#231f20"/>
    <rect x="45" y="16" width="3" height="1" fill="#231f20"/>
    <rect x="73" y="16" width="3" height="1" fill="#231f20"/>
    <rect x="102" y="16" width="2" height="1" fill="#231f20"/>
    <rect x="105" y="16" width="2" height="1" fill="#231f20"/>
    <rect x="147" y="16" width="1" height="1" fill="#231f20"/>
    <rect x="0" y="17" width="1" height="1" fill="#231f20"/>
    <rect x="105" y="17" width="2" height="1" fill="#231f20"/>
    <rect x="147" y="17" width="1" height="1" fill="#231f20"/>
    <rect x="0" y="18" width="1" height="1" fill="#231f20"/>
    <rect x="147" y="18" width="1" height="1" fill="#231f20"/>
    <rect x="0" y="19" width="1" height="1" fill="#231f20"/>
    <rect x="104" y="19" width="1" height="1" fill="#231f20"/>
    <rect x="147" y="19" width="1" height="1" fill="#231f20"/>
    <rect x="0" y="20" width="1" height="1" fill="#231f20"/>
    <rect x="104" y="20" width="1" height="1" fill="#231f20"/>
    <rect x="147" y="20" width="1" height="1" fill="#231f20"/>
    <rect x="0" y="21" width="1" height="1" fill="#231f20"/>
    <rect x="147" y="21" width="1" height="1" fill="#231f20"/>
    <rect x="0" y="22" width="1" height="1" fill="#231f20"/>
    <rect x="102" y="22" width="1" height="1" fill="#231f20"/>
    <rect x="105" y="22" width="2" height="1" fill="#231f20"/>
    <rect x="109" y="22" width="1" height="1" fill="#231f20"/>
    <rect x="112" y="22" width="2" height="1" fill="#231f20"/>
    <rect x="116" y="22" width="1" height="1" fill="#231f20"/>
    <rect x="120" y="22" width="1" height="1" fill="#231f20"/>
    <rect x="123" y="22" width="2" height="1" fill="#231f20"/>
    <rect x="127" y="22" width="1" height="1" fill="#231f20"/>
    <rect x="130" y="22" width="2" height="1" fill="#231f20"/>
    <rect x="134" y="22" width="1" height="1" fill="#231f20"/>
    <rect x="137" y="22" width="2" height="1" fill="#231f20"/>
    <rect x="147" y="22" width="1" height="1" fill="#231f20"/>
    <rect x="0" y="23" width="1" height="1" fill="#231f20"/>
    <rect x="102" y="23" width="2" height="1" fill="#231f20"/>
    <rect x="105" y="23" width="2" height="1" fill="#231f20"/>
    <rect x="109" y="23" width="2" height="1" fill="#231f20"/>
    <rect x="112" y="23" width="2" height="1" fill="#231f20"/>
    <rect x="116" y="23" width="2" height="1" fill="#231f20"/>
    <rect x="119" y="23" width="2" height="1" fill="#231f20"/>
    <rect x="123" y="23" width="2" height="1" fill="#231f20"/>
    <rect x="126" y="23" width="2" height="1" fill="#231f20"/>
    <rect x="130" y="23" width="2" height="1" fill="#231f20"/>
    <rect x="134" y="23" width="1" height="1" fill="#231f20"/>
    <rect x="137" y="23" width="2" height="1" fill="#231f20"/>
    <rect x="147" y="23" width="1" height="1" fill="#231f20"/>
    <rect x="0" y="24" width="1" height="1" fill="#231f20"/>
    <rect x="147" y="24" width="1" height="1" fill="#231f20"/>
    <rect x="0" y="25" width="1" height="1" fill="#231f20"/>
    <rect x="147" y="25" width="1" height="1" fill="#231f20"/>
    <rect x="0" y="26" width="1" height="1" fill="#231f20"/>
    <rect x="137" y="26" width="2" height="1" fill="#231f20"/>
    <rect x="147" y="26" width="1" height="1" fill="#231f20"/>
    <rect x="0" y="27" width="1" height="1" fill="#231f20"/>
    <rect x="147" y="27" width="1" height="1" fill="#231f20"/>
    <rect x="0" y="28" width="1" height="1" fill="#231f20"/>
    <rect x="147" y="28" width="1" height="1" fill="#231f20"/>
    <rect x="0" y="29" width="1" height="1" fill="#231f20"/>
    <rect x="137" y="29" width="2" height="1" fill="#231f20"/>
    <rect x="147" y="29" width="1" height="1" fill="#231f20"/>
    <rect x="0" y="30" width="1" height="1" fill="#231f20"/>
    <rect x="137" y="30" width="2" height="1" fill="#231f20"/>
    <rect x="147" y="30" width="1" height="1" fill="#231f20"/>
    <rect x="0" y="31" width="1" height="1" fill="#231f20"/>
    <rect x="147" y="31" width="1" height="1" fill="#231f20"/>
    <rect x="0" y="32" width="1" height="1" fill="#231f20"/>
    <rect x="147" y="32" width="1" height="1" fill="#231f20"/>
    <rect x="0" y="33" width="1" height="1" fill="#231f20"/>
    <rect x="137" y="33" width="2" height="1" fill="#231f20"/>
    <rect x="147" y="33" width="1" height="1" fill="#231f20"/>
    <rect x="0" y="34" width="1" height="1" fill="#231f20"/>
    <rect x="30" y="34" width="3" height="1" fill="#231f20"/>
    <rect x="58" y="34" width="3" height="1" fill="#231f20"/>
    <rect x="86" y="34" width="4" height="1" fill="#231f20"/>
    <rect x="114" y="34" width="4" height="1" fill="#231f20"/>
    <rect x="137" y="34" width="1" height="1" fill="#231f20"/>
    <rect x="147" y="34" width="1" height="1" fill="#231f20"/>
    <rect x="0" y="35" width="1" height="1" fill="#231f20"/>
    <rect x="29" y="35" width="1" height="1" fill="#231f20"/>
    <rect x="33" y="35" width="1" height="1" fill="#231f20"/>
    <rect x="57" y="35" width="2" height="1" fill="#231f20"/>
    <rect x="61" y="35" width="1" height="1" fill="#231f20"/>
    <rect x="86" y="35" width="1" height="1" fill="#231f20"/>
    <rect x="89" y="35" width="1" height="1" fill="#231f20"/>
    <rect x="114" y="35" width="1" height="1" fill="#231f20"/>
    <rect x="117" y="35" width="1" height="1" fill="#231f20"/>
    <rect x="147" y="35" width="1" height="1" fill="#231f20"/>
    <rect x="0" y="36" width="1" height="1" fill="#231f20"/>
    <rect x="29" y="36" width="1" height="1" fill="#231f20"/>
    <rect x="33" y="36" width="1" height="1" fill="#231f20"/>
    <rect x="58" y="36" width="1" height="1" fill="#231f20"/>
    <rect x="61" y="36" width="1" height="1" fill="#231f20"/>
    <rect x="86" y="36" width="1" height="1" fill="#231f20"/>
    <rect x="89" y="36" width="1" height="1" fill="#231f20"/>
    <rect x="114" y="36" width="1" height="1" fill="#231f20"/>
    <rect x="117" y="36" width="1" height="1" fill="#231f20"/>
    <rect x="137" y="36" width="2" height="1" fill="#231f20"/>
    <rect x="147" y="36" width="1" height="1" fill="#231f20"/>
    <rect x="0" y="37" width="1" height="1" fill="#231f20"/>
    <rect x="30" y="37" width="3" height="1" fill="#231f20"/>
    <rect x="58" y="37" width="3" height="1" fill="#231f20"/>
    <rect x="86" y="37" width="4" height="1" fill="#231f20"/>
    <rect x="114" y="37" width="4" height="1" fill="#231f20"/>
    <rect x="137" y="37" width="2" height="1" fill="#231f20"/>
    <rect x="147" y="37" width="1" height="1" fill="#231f20"/>
    <rect x="0" y="38" width="1" height="1" fill="#231f20"/>
    <rect x="147" y="38" width="1" height="1" fill="#231f20"/>
    <rect x="0" y="39" width="1" height="1" fill="#231f20"/>
    <rect x="147" y="39" width="1" height="1" fill="#231f20"/>
    <rect x="0" y="40" width="1" height="1" fill="#231f20"/>
    <rect x="137" y="40" width="2" height="1" fill="#231f20"/>
    <rect x="147" y="40" width="1" height="1" fill="#231f20"/>
    <rect x="0" y="41" width="1" height="1" fill="#231f20"/>
    <rect x="137" y="41" width="1" height="1" fill="#231f20"/>
    <rect x="147" y="41" width="1" height="1" fill="#231f20"/>
    <rect x="0" y="42" width="1" height="1" fill="#231f20"/>
    <rect x="147" y="42" width="1" height="1" fill="#231f20"/>
    <rect x="0" y="43" width="1" height="1" fill="#231f20"/>
    <rect x="138" y="43" width="1" height="1" fill="#231f20"/>
    <rect x="147" y="43" width="1" height="1" fill="#231f20"/>
    <rect x="0" y="44" width="1" height="1" fill="#231f20"/>
    <rect x="137" y="44" width="2" height="1" fill="#231f20"/>
    <rect x="147" y="44" width="1" height="1" fill="#231f20"/>
    <rect x="0" y="45" width="1" height="1" fill="#231f20"/>
    <rect x="147" y="45" width="1" height="1" fill="#231f20"/>
    <rect x="0" y="46" width="1" height="1" fill="#231f20"/>
    <rect x="147" y="46" width="1" height="1" fill="#231f20"/>
    <rect x="0" y="47" width="1" height="1" fill="#231f20"/>
    <rect x="137" y="47" width="2" height="1" fill="#231f20"/>
    <rect x="147" y="47" width="1" height="1" fill="#231f20"/>
    <rect x="0" y="48" width="1" height="1" fill="#231f20"/>
    <rect x="137" y="48" width="2" height="1" fill="#231f20"/>
    <rect x="147" y="48" width="1" height="1" fill="#231f20"/>
    <rect x="0" y="49" width="1" height="1" fill="#231f20"/>
    <rect x="147" y="49" width="1" height="1" fill="#231f20"/>
    <rect x="0" y="50" width="1" height="1" fill="#231f20"/>
    <rect x="138" y="50" width="1" height="1" fill="#231f20"/>
    <rect x="147" y="50" width="1" height="1" fill="#231f20"/>
    <rect x="0" y="51" width="1" height="1" fill="#231f20"/>
    <rect x="137" y="51" width="2" height="1" fill="#231f20"/>
    <rect x="147" y="51" width="1" height="1" fill="#231f20"/>
    <rect x="0" y="52" width="1" height="1" fill="#231f20"/>
    <rect x="147" y="52" width="1" height="1" fill="#231f20"/>
    <rect x="0" y="53" width="1" height="1" fill="#231f20"/>
    <rect x="147" y="53" width="1" height="1" fill="#231f20"/>
    <rect x="0" y="54" width="1" height="1" fill="#231f20"/>
    <rect x="137" y="54" width="2" height="1" fill="#231f20"/>
    <rect x="147" y="54" width="1" height="1" fill="#231f20"/>
    <rect x="0" y="55" width="1" height="1" fill="#231f20"/>
    <rect x="16" y="55" width="4" height="1" fill="#231f20"/>
    <rect x="45" y="55" width="3" height="1" fill="#231f20"/>
    <rect x="73" y="55" width="3" height="1" fill="#231f20"/>
    <rect x="101" y="55" width="3" height="1" fill="#231f20"/>
    <rect x="129" y="55" width="4" height="1" fill="#231f20"/>
    <rect x="137" y="55" width="2" height="1" fill="#231f20"/>
    <rect x="147" y="55" width="1" height="1" fill="#231f20"/>
    <rect x="0" y="56" width="1" height="1" fill="#231f20"/>
    <rect x="16" y="56" width="1" height="1" fill="#231f20"/>
    <rect x="19" y="56" width="1" height="1" fill="#231f20"/>
    <rect x="44" y="56" width="1" height="1" fill="#231f20"/>
    <rect x="47" y="56" width="1" height="1" fill="#231f20"/>
    <rect x="72" y="56" width="1" height="1" fill="#231f20"/>
    <rect x="76" y="56" width="1" height="1" fill="#231f20"/>
    <rect x="101" y="56" width="1" height="1" fill="#231f20"/>
    <rect x="104" y="56" width="1" height="1" fill="#231f20"/>
    <rect x="129" y="56" width="1" height="1" fill="#231f20"/>
    <rect x="132" y="56" width="1" height="1" fill="#231f20"/>
    <rect x="147" y="56" width="1" height="1" fill="#231f20"/>
    <rect x="0" y="57" width="1" height="1" fill="#231f20"/>
    <rect x="16" y="57" width="1" height="1" fill="#231f20"/>
    <rect x="19" y="57" width="1" height="1" fill="#231f20"/>
    <rect x="44" y="57" width="1" height="1" fill="#231f20"/>
    <rect x="47" y="57" width="2" height="1" fill="#231f20"/>
    <rect x="72" y="57" width="1" height="1" fill="#231f20"/>
    <rect x="76" y="57" width="1" height="1" fill="#231f20"/>
    <rect x="100" y="57" width="2" height="1" fill="#231f20"/>
    <rect x="104" y="57" width="1" height="1" fill="#231f20"/>
    <rect x="129" y="57" width="1" height="1" fill="#231f20"/>
    <rect x="132" y="57" width="1" height="1" fill="#231f20"/>
    <rect x="138" y="57" width="1" height="1" fill="#231f20"/>
    <rect x="147" y="57" width="1" height="1" fill="#231f20"/>
    <rect x="0" y="58" width="1" height="1" fill="#231f20"/>
    <rect x="16" y="58" width="4" height="1" fill="#231f20"/>
    <rect x="45" y="58" width="3" height="1" fill="#231f20"/>
    <rect x="73" y="58" width="3" height="1" fill="#231f20"/>
    <rect x="101" y="58" width="3" height="1" fill="#231f20"/>
    <rect x="129" y="58" width="4" height="1" fill="#231f20"/>
    <rect x="137" y="58" width="2" height="1" fill="#231f20"/>
    <rect x="147" y="58" width="1" height="1" fill="#231f20"/>
    <rect x="0" y="59" width="1" height="1" fill="#231f20"/>
    <rect x="147" y="59" width="1" height="1" fill="#231f20"/>
    <rect x="0" y="60" width="1" height="1" fill="#231f20"/>
    <rect x="147" y="60" width="1" height="1" fill="#231f20"/>
    <rect x="0" y="61" width="1" height="1" fill="#231f20"/>
    <rect x="137" y="61" width="2" height="1" fill="#231f20"/>
    <rect x="147" y="61" width="1" height="1" fill="#231f20"/>
    <rect x="0" y="62" width="1" height="1" fill="#231f20"/>
    <rect x="137" y="62" width="2" height="1" fill="#231f20"/>
    <rect x="147" y="62" width="1" height="1" fill="#231f20"/>
    <rect x="0" y="63" width="1" height="1" fill="#231f20"/>
    <rect x="147" y="63" width="1" height="1" fill="#231f20"/>
    <rect x="0" y="64" width="1" height="1" fill="#231f20"/>
    <rect x="147" y="64" width="1" height="1" fill="#231f20"/>
    <rect x="0" y="65" width="1" height="1" fill="#231f20"/>
    <rect x="12" y="65" width="2" height="1" fill="#231f20"/>
    <rect x="15" y="65" width="2" height="1" fill="#231f20"/>
    <rect x="19" y="65" width="2" height="1" fill="#231f20"/>
    <rect x="23" y="65" width="1" height="1" fill="#231f20"/>
    <rect x="26" y="65" width="2" height="1" fill="#231f20"/>
    <rect x="30" y="65" width="1" height="1" fill="#231f20"/>
    <rect x="33" y="65" width="2" height="1" fill="#231f20"/>
    <rect x="37" y="65" width="1" height="1" fill="#231f20"/>
    <rect x="40" y="65" width="2" height="1" fill="#231f20"/>
    <rect x="44" y="65" width="1" height="1" fill="#231f20"/>
    <rect x="47" y="65" width="2" height="1" fill="#231f20"/>
    <rect x="51" y="65" width="1" height="1" fill="#231f20"/>
    <rect x="54" y="65" width="2" height="1" fill="#231f20"/>
    <rect x="58" y="65" width="1" height="1" fill="#231f20"/>
    <rect x="61" y="65" width="2" height="1" fill="#231f20"/>
    <rect x="65" y="65" width="2" height="1" fill="#231f20"/>
    <rect x="68" y="65" width="2" height="1" fill="#231f20"/>
    <rect x="72" y="65" width="2" height="1" fill="#231f20"/>
    <rect x="75" y="65" width="2" height="1" fill="#231f20"/>
    <rect x="79" y="65" width="2" height="1" fill="#231f20"/>
    <rect x="82" y="65" width="2" height="1" fill="#231f20"/>
    <rect x="86" y="65" width="2" height="1" fill="#231f20"/>
    <rect x="89" y="65" width="2" height="1" fill="#231f20"/>
    <rect x="93" y="65" width="2" height="1" fill="#231f20"/>
    <rect x="97" y="65" width="1" height="1" fill="#231f20"/>
    <rect x="100" y="65" width="2" height="1" fill="#231f20"/>
    <rect x="104" y="65" width="1" height="1" fill="#231f20"/>
    <rect x="107" y="65" width="2" height="1" fill="#231f20"/>
    <rect x="111" y="65" width="1" height="1" fill="#231f20"/>
    <rect x="114" y="65" width="2" height="1" fill="#231f20"/>
    <rect x="118" y="65" width="1" height="1" fill="#231f20"/>
    <rect x="121" y="65" width="2" height="1" fill="#231f20"/>
    <rect x="125" y="65" width="1" height="1" fill="#231f20"/>
    <rect x="128" y="65" width="2" height="1" fill="#231f20"/>
    <rect x="132" y="65" width="1" height="1" fill="#231f20"/>
    <rect x="135" y="65" width="4" height="1" fill="#231f20"/>
    <rect x="147" y="65" width="1" height="1" fill="#231f20"/>
    <rect x="0" y="66" width="1" height="1" fill="#231f20"/>
    <rect x="147" y="66" width="1" height="1" fill="#231f20"/>
    <rect x="0" y="67" width="1" height="1" fill="#231f20"/>
    <rect x="147" y="67" width="1" height="1" fill="#231f20"/>
    <rect x="0" y="68" width="1" height="1" fill="#231f20"/>
    <rect x="147" y="68" width="1" height="1" fill="#231f20"/>
    <rect x="0" y="69" width="1" height="1" fill="#231f20"/>
    <rect x="147" y="69" width="1" height="1" fill="#231f20"/>
    <rect x="0" y="70" width="1" height="1" fill="#231f20"/>
    <rect x="147" y="70" width="1" height="1" fill="#231f20"/>
    <rect x="0" y="71" width="1" height="1" fill="#231f20"/>
    <rect x="147" y="71" width="1" height="1" fill="#231f20"/>
    <rect x="0" y="72" width="1" height="1" fill="#231f20"/>
    <rect x="147" y="72" width="1" height="1" fill="#231f20"/>
    <rect x="0" y="73" width="1" height="1" fill="#231f20"/>
    <rect x="147" y="73" width="1" height="1" fill="#231f20"/>
    <rect x="0" y="74" width="1" height="1" fill="#231f20"/>
    <rect x="147" y="74" width="1" height="1" fill="#231f20"/>
    <rect x="0" y="75" width="1" height="1" fill="#231f20"/>
    <rect x="147" y="75" width="1" height="1" fill="#231f20"/>
    <rect x="0" y="76" width="1" height="1" fill="#231f20"/>
    <rect x="147" y="76" width="1" height="1" fill="#231f20"/>
    <rect x="0" y="77" width="1" height="1" fill="#231f20"/>
    <rect x="147" y="77" width="1" height="1" fill="#231f20"/>
    <rect x="0" y="78" width="148" height="1" fill="#231f20"/>
  </g>
</svg>