<?xml version="1.0" encoding="UTF-8"?>
<svg xmlns="http://www.w3.org/2000/svg" viewBox="0 0 172 70" width="172" height="70">
  <!-- Auto-converted from legend-2344.png -->
  <rect x="0" y="0" width="172" height="70" fill="none"/>
  <g fill="#231f20" stroke="none">
    <rect x="0" y="0" width="172" height="1" fill="#231f20"/>
    <rect x="0" y="1" width="1" height="1" fill="#231f20"/>
    <rect x="171" y="1" width="1" height="1" fill="#231f20"/>
    <rect x="0" y="2" width="1" height="1" fill="#231f20"/>
    <rect x="171" y="2" width="1" height="1" fill="#231f20"/>
    <rect x="0" y="3" width="1" height="1" fill="#231f20"/>
    <rect x="171" y="3" width="1" height="1" fill="#231f20"/>
    <rect x="0" y="4" width="1" height="1" fill="#231f20"/>
    <rect x="171" y="4" width="1" height="1" fill="#231f20"/>
    <rect x="0" y="5" width="1" height="1" fill="#231f20"/>
    <rect x="171" y="5" width="1" height="1" fill="#231f20"/>
    <rect x="0" y="6" width="1" height="1" fill="#231f20"/>
    <rect x="171" y="6" width="1" height="1" fill="#231f20"/>
    <rect x="0" y="7" width="1" height="1" fill="#231f20"/>
    <rect x="20" y="7" width="5" height="1" fill="#231f20"/>
    <rect x="45" y="7" width="1" height="1" fill="#231f20"/>
    <rect x="64" y="7" width="2" height="1" fill="#231f20"/>
    <rect x="69" y="7" width="3" height="1" fill="#231f20"/>
    <rect x="91" y="7" width="1" height="1" fill="#231f20"/>
    <rect x="109" y="7" width="2" height="1" fill="#231f20"/>
    <rect x="114" y="7" width="3" height="1" fill="#231f20"/>
    <rect x="137" y="7" width="1" height="1" fill="#231f20"/>
    <rect x="171" y="7" width="1" height="1" fill="#231f20"/>
    <rect x="0" y="8" width="1" height="1" fill="#231f20"/>
    <rect x="19" y="8" width="1" height="1" fill="#231f20"/>
    <rect x="24" y="8" width="1" height="1" fill="#231f20"/>
    <rect x="45" y="8" width="1" height="1" fill="#231f20"/>
    <rect x="65" y="8" width="2" height="1" fill="#231f20"/>
    <rect x="70" y="8" width="1" height="1" fill="#231f20"/>
    <rect x="91" y="8" width="1" height="1" fill="#231f20"/>
    <rect x="110" y="8" width="2" height="1" fill="#231f20"/>
    <rect x="115" y="8" width="1" height="1" fill="#231f20"/>
    <rect x="137" y="8" width="1" height="1" fill="#231f20"/>
    <rect x="171" y="8" width="1" height="1" fill="#231f20"/>
    <rect x="0" y="9" width="1" height="1" fill="#231f20"/>
    <rect x="19" y="9" width="1" height="1" fill="#231f20"/>
    <rect x="24" y="9" width="1" height="1" fill="#231f20"/>
    <rect x="45" y="9" width="1" height="1" fill="#231f20"/>
    <rect x="65" y="9" width="2" height="1" fill="#231f20"/>
    <rect x="70" y="9" width="1" height="1" fill="#231f20"/>
    <rect x="91" y="9" width="1" height="1" fill="#231f20"/>
    <rect x="110" y="9" width="2" height="1" fill="#231f20"/>
    <rect x="115" y="9" width="1" height="1" fill="#231f20"/>
    <rect x="137" y="9" width="1" height="1" fill="#231f20"/>
    <rect x="171" y="9" width="1" height="1" fill="#231f20"/>
    <rect x="0" y="10" width="1" height="1" fill="#231f20"/>
    <rect x="19" y="10" width="1" height="1" fill="#231f20"/>
    <rect x="45" y="10" width="1" height="1" fill="#231f20"/>
    <rect x="65" y="10" width="1" height="1" fill="#231f20"/>
    <rect x="67" y="10" width="1" height="1" fill="#231f20"/>
    <rect x="70" y="10" width="1" height="1" fill="#231f20"/>
    <rect x="91" y="10" width="1" height="1" fill="#231f20"/>
    <rect x="110" y="10" width="1" height="1" fill="#231f20"/>
    <rect x="112" y="10" width="1" height="1" fill="#231f20"/>
    <rect x="115" y="10" width="1" height="1" fill="#231f20"/>
    <rect x="137" y="10" width="1" height="1" fill="#231f20"/>
    <rect x="171" y="10" width="1" height="1" fill="#231f20"/>
    <rect x="0" y="11" width="1" height="1" fill="#231f20"/>
    <rect x="20" y="11" width="1" height="1" fill="#231f20"/>
    <rect x="45" y="11" width="1" height="1" fill="#231f20"/>
    <rect x="65" y="11" width="1" height="1" fill="#231f20"/>
    <rect x="67" y="11" width="1" height="1" fill="#231f20"/>
    <rect x="70" y="11" width="1" height="1" fill="#231f20"/>
    <rect x="91" y="11" width="1" height="1" fill="#231f20"/>
    <rect x="110" y="11" width="1" height="1" fill="#231f20"/>
    <rect x="112" y="11" width="1" height="1" fill="#231f20"/>
    <rect x="115" y="11" width="1" height="1" fill="#231f20"/>
    <rect x="137" y="11" width="1" height="1" fill="#231f20"/>
    <rect x="171" y="11" width="1" height="1" fill="#231f20"/>
    <rect x="0" y="12" width="1" height="1" fill="#231f20"/>
    <rect x="21" y="12" width="2" height="1" fill="#231f20"/>
    <rect x="41" y="12" width="10" height="1" fill="#231f20"/>
    <rect x="65" y="12" width="1" height="1" fill="#231f20"/>
    <rect x="68" y="12" width="1" height="1" fill="#231f20"/>
    <rect x="70" y="12" width="1" height="1" fill="#231f20"/>
    <rect x="87" y="12" width="10" height="1" fill="#231f20"/>
    <rect x="110" y="12" width="1" height="1" fill="#231f20"/>
    <rect x="113" y="12" width="1" height="1" fill="#231f20"/>
    <rect x="115" y="12" width="1" height="1" fill="#231f20"/>
    <rect x="133" y="12" width="9" height="1" fill="#231f20"/>
    <rect x="171" y="12" width="1" height="1" fill="#231f20"/>
    <rect x="0" y="13" width="1" height="1" fill="#231f20"/>
    <rect x="23" y="13" width="1" height="1" fill="#231f20"/>
    <rect x="45" y="13" width="1" height="1" fill="#231f20"/>
    <rect x="65" y="13" width="1" height="1" fill="#231f20"/>
    <rect x="68" y="13" width="1" height="1" fill="#231f20"/>
    <rect x="70" y="13" width="1" height="1" fill="#231f20"/>
    <rect x="91" y="13" width="1" height="1" fill="#231f20"/>
    <rect x="110" y="13" width="1" height="1" fill="#231f20"/>
    <rect x="113" y="13" width="1" height="1" fill="#231f20"/>
    <rect x="115" y="13" width="1" height="1" fill="#231f20"/>
    <rect x="137" y="13" width="1" height="1" fill="#231f20"/>
    <rect x="171" y="13" width="1" height="1" fill="#231f20"/>
    <rect x="0" y="14" width="1" height="1" fill="#231f20"/>
    <rect x="24" y="14" width="1" height="1" fill="#231f20"/>
    <rect x="45" y="14" width="1" height="1" fill="#231f20"/>
    <rect x="65" y="14" width="1" height="1" fill="#231f20"/>
    <rect x="68" y="14" width="1" height="1" fill="#231f20"/>
    <rect x="70" y="14" width="1" height="1" fill="#231f20"/>
    <rect x="91" y="14" width="1" height="1" fill="#231f20"/>
    <rect x="110" y="14" width="1" height="1" fill="#231f20"/>
    <rect x="113" y="14" width="1" height="1" fill="#231f20"/>
    <rect x="115" y="14" width="1" height="1" fill="#231f20"/>
    <rect x="137" y="14" width="1" height="1" fill="#231f20"/>
    <rect x="171" y="14" width="1" height="1" fill="#231f20"/>
    <rect x="0" y="15" width="1" height="1" fill="#231f20"/>
    <rect x="19" y="15" width="1" height="1" fill="#231f20"/>
    <rect x="24" y="15" width="1" height="1" fill="#231f20"/>
    <rect x="45" y="15" width="1" height="1" fill="#231f20"/>
    <rect x="65" y="15" width="1" height="1" fill="#231f20"/>
    <rect x="69" y="15" width="2" height="1" fill="#231f20"/>
    <rect x="91" y="15" width="1" height="1" fill="#231f20"/>
    <rect x="110" y="15" width="1" height="1" fill="#231f20"/>
    <rect x="114" y="15" width="2" height="1" fill="#231f20"/>
    <rect x="137" y="15" width="1" height="1" fill="#231f20"/>
    <rect x="171" y="15" width="1" height="1" fill="#231f20"/>
    <rect x="0" y="16" width="1" height="1" fill="#231f20"/>
    <rect x="19" y="16" width="1" height="1" fill="#231f20"/>
    <rect x="24" y="16" width="1" height="1" fill="#231f20"/>
    <rect x="45" y="16" width="1" height="1" fill="#231f20"/>
    <rect x="65" y="16" width="1" height="1" fill="#231f20"/>
    <rect x="69" y="16" width="2" height="1" fill="#231f20"/>
    <rect x="91" y="16" width="1" height="1" fill="#231f20"/>
    <rect x="110" y="16" width="1" height="1" fill="#231f20"/>
    <rect x="114" y="16" width="2" height="1" fill="#231f20"/>
    <rect x="137" y="16" width="1" height="1" fill="#231f20"/>
    <rect x="171" y="16" width="1" height="1" fill="#231f20"/>
    <rect x="0" y="17" width="1" height="1" fill="#231f20"/>
    <rect x="19" y="17" width="5" height="1" fill="#231f20"/>
    <rect x="64" y="17" width="3" height="1" fill="#231f20"/>
    <rect x="70" y="17" width="1" height="1" fill="#231f20"/>
    <rect x="109" y="17" width="3" height="1" fill="#231f20"/>
    <rect x="115" y="17" width="1" height="1" fill="#231f20"/>
    <rect x="171" y="17" width="1" height="1" fill="#231f20"/>
    <rect x="0" y="18" width="1" height="1" fill="#231f20"/>
    <rect x="171" y="18" width="1" height="1" fill="#231f20"/>
    <rect x="0" y="19" width="1" height="1" fill="#231f20"/>
    <rect x="171" y="19" width="1" height="1" fill="#231f20"/>
    <rect x="0" y="20" width="1" height="1" fill="#231f20"/>
    <rect x="171" y="20" width="1" height="1" fill="#231f20"/>
    <rect x="0" y="21" width="1" height="1" fill="#231f20"/>
    <rect x="171" y="21" width="1" height="1" fill="#231f20"/>
    <rect x="0" y="22" width="1" height="1" fill="#231f20"/>
    <rect x="171" y="22" width="1" height="1" fill="#231f20"/>
    <rect x="0" y="23" width="172" height="1" fill="#231f20"/>
    <rect x="0" y="24" width="1" height="1" fill="#231f20"/>
    <rect x="171" y="24" width="1" height="1" fill="#231f20"/>
    <rect x="0" y="25" width="1" height="1" fill="#231f20"/>
    <rect x="171" y="25" width="1" height="1" fill="#231f20"/>
    <rect x="0" y="26" width="1" height="1" fill="#231f20"/>
    <rect x="171" y="26" width="1" height="1" fill="#231f20"/>
    <rect x="0" y="27" width="1" height="1" fill="#231f20"/>
    <rect x="171" y="27" width="1" height="1" fill="#231f20"/>
    <rect x="0" y="28" width="1" height="1" fill="#231f20"/>
    <rect x="171" y="28" width="1" height="1" fill="#231f20"/>
    <rect x="0" y="29" width="1" height="1" fill="#231f20"/>
    <rect x="171" y="29" width="1" height="1" fill="#231f20"/>
    <rect x="0" y="30" width="1" height="1" fill="#231f20"/>
    <rect x="34" y="30" width="1" height="1" fill="#231f20"/>
    <rect x="52" y="30" width="2" height="1" fill="#231f20"/>
    <rect x="57" y="30" width="3" height="1" fill="#231f20"/>
    <rect x="80" y="30" width="1" height="1" fill="#231f20"/>
    <rect x="98" y="30" width="2" height="1" fill="#231f20"/>
    <rect x="103" y="30" width="3" height="1" fill="#231f20"/>
    <rect x="126" y="30" width="1" height="1" fill="#231f20"/>
    <rect x="147" y="30" width="5" height="1" fill="#231f20"/>
    <rect x="171" y="30" width="1" height="1" fill="#231f20"/>
    <rect x="0" y="31" width="1" height="1" fill="#231f20"/>
    <rect x="34" y="31" width="1" height="1" fill="#231f20"/>
    <rect x="53" y="31" width="2" height="1" fill="#231f20"/>
    <rect x="58" y="31" width="1" height="1" fill="#231f20"/>
    <rect x="80" y="31" width="1" height="1" fill="#231f20"/>
    <rect x="99" y="31" width="2" height="1" fill="#231f20"/>
    <rect x="104" y="31" width="1" height="1" fill="#231f20"/>
    <rect x="126" y="31" width="1" height="1" fill="#231f20"/>
    <rect x="146" y="31" width="1" height="1" fill="#231f20"/>
    <rect x="151" y="31" width="1" height="1" fill="#231f20"/>
    <rect x="171" y="31" width="1" height="1" fill="#231f20"/>
    <rect x="0" y="32" width="1" height="1" fill="#231f20"/>
    <rect x="34" y="32" width="1" height="1" fill="#231f20"/>
    <rect x="53" y="32" width="2" height="1" fill="#231f20"/>
    <rect x="58" y="32" width="1" height="1" fill="#231f20"/>
    <rect x="80" y="32" width="1" height="1" fill="#231f20"/>
    <rect x="99" y="32" width="2" height="1" fill="#231f20"/>
    <rect x="104" y="32" width="1" height="1" fill="#231f20"/>
    <rect x="126" y="32" width="1" height="1" fill="#231f20"/>
    <rect x="146" y="32" width="1" height="1" fill="#231f20"/>
    <rect x="151" y="32" width="1" height="1" fill="#231f20"/>
    <rect x="171" y="32" width="1" height="1" fill="#231f20"/>
    <rect x="0" y="33" width="1" height="1" fill="#231f20"/>
    <rect x="34" y="33" width="1" height="1" fill="#231f20"/>
    <rect x="53" y="33" width="1" height="1" fill="#231f20"/>
    <rect x="55" y="33" width="1" height="1" fill="#231f20"/>
    <rect x="58" y="33" width="1" height="1" fill="#231f20"/>
    <rect x="80" y="33" width="1" height="1" fill="#231f20"/>
    <rect x="99" y="33" width="1" height="1" fill="#231f20"/>
    <rect x="101" y="33" width="1" height="1" fill="#231f20"/>
    <rect x="104" y="33" width="1" height="1" fill="#231f20"/>
    <rect x="126" y="33" width="1" height="1" fill="#231f20"/>
    <rect x="146" y="33" width="1" height="1" fill="#231f20"/>
    <rect x="171" y="33" width="1" height="1" fill="#231f20"/>
    <rect x="0" y="34" width="1" height="1" fill="#231f20"/>
    <rect x="30" y="34" width="9" height="1" fill="#231f20"/>
    <rect x="53" y="34" width="1" height="1" fill="#231f20"/>
    <rect x="55" y="34" width="1" height="1" fill="#231f20"/>
    <rect x="58" y="34" width="1" height="1" fill="#231f20"/>
    <rect x="76" y="34" width="9" height="1" fill="#231f20"/>
    <rect x="99" y="34" width="1" height="1" fill="#231f20"/>
    <rect x="101" y="34" width="1" height="1" fill="#231f20"/>
    <rect x="104" y="34" width="1" height="1" fill="#231f20"/>
    <rect x="121" y="34" width="10" height="1" fill="#231f20"/>
    <rect x="147" y="34" width="1" height="1" fill="#231f20"/>
    <rect x="171" y="34" width="1" height="1" fill="#231f20"/>
    <rect x="0" y="35" width="1" height="1" fill="#231f20"/>
    <rect x="34" y="35" width="1" height="1" fill="#231f20"/>
    <rect x="53" y="35" width="1" height="1" fill="#231f20"/>
    <rect x="56" y="35" width="1" height="1" fill="#231f20"/>
    <rect x="58" y="35" width="1" height="1" fill="#231f20"/>
    <rect x="80" y="35" width="1" height="1" fill="#231f20"/>
    <rect x="99" y="35" width="1" height="1" fill="#231f20"/>
    <rect x="102" y="35" width="1" height="1" fill="#231f20"/>
    <rect x="104" y="35" width="1" height="1" fill="#231f20"/>
    <rect x="126" y="35" width="1" height="1" fill="#231f20"/>
    <rect x="148" y="35" width="2" height="1" fill="#231f20"/>
    <rect x="171" y="35" width="1" height="1" fill="#231f20"/>
    <rect x="0" y="36" width="1" height="1" fill="#231f20"/>
    <rect x="34" y="36" width="1" height="1" fill="#231f20"/>
    <rect x="53" y="36" width="1" height="1" fill="#231f20"/>
    <rect x="56" y="36" width="1" height="1" fill="#231f20"/>
    <rect x="58" y="36" width="1" height="1" fill="#231f20"/>
    <rect x="80" y="36" width="1" height="1" fill="#231f20"/>
    <rect x="99" y="36" width="1" height="1" fill="#231f20"/>
    <rect x="102" y="36" width="1" height="1" fill="#231f20"/>
    <rect x="104" y="36" width="1" height="1" fill="#231f20"/>
    <rect x="126" y="36" width="1" height="1" fill="#231f20"/>
    <rect x="150" y="36" width="1" height="1" fill="#231f20"/>
    <rect x="171" y="36" width="1" height="1" fill="#231f20"/>
    <rect x="0" y="37" width="1" height="1" fill="#231f20"/>
    <rect x="34" y="37" width="1" height="1" fill="#231f20"/>
    <rect x="53" y="37" width="1" height="1" fill="#231f20"/>
    <rect x="56" y="37" width="1" height="1" fill="#231f20"/>
    <rect x="58" y="37" width="1" height="1" fill="#231f20"/>
    <rect x="80" y="37" width="1" height="1" fill="#231f20"/>
    <rect x="99" y="37" width="1" height="1" fill="#231f20"/>
    <rect x="102" y="37" width="1" height="1" fill="#231f20"/>
    <rect x="104" y="37" width="1" height="1" fill="#231f20"/>
    <rect x="126" y="37" width="1" height="1" fill="#231f20"/>
    <rect x="151" y="37" width="1" height="1" fill="#231f20"/>
    <rect x="171" y="37" width="1" height="1" fill="#231f20"/>
    <rect x="0" y="38" width="1" height="1" fill="#231f20"/>
    <rect x="34" y="38" width="1" height="1" fill="#231f20"/>
    <rect x="53" y="38" width="1" height="1" fill="#231f20"/>
    <rect x="57" y="38" width="2" height="1" fill="#231f20"/>
    <rect x="80" y="38" width="1" height="1" fill="#231f20"/>
    <rect x="99" y="38" width="1" height="1" fill="#231f20"/>
    <rect x="103" y="38" width="2" height="1" fill="#231f20"/>
    <rect x="126" y="38" width="1" height="1" fill="#231f20"/>
    <rect x="146" y="38" width="1" height="1" fill="#231f20"/>
    <rect x="151" y="38" width="1" height="1" fill="#231f20"/>
    <rect x="171" y="38" width="1" height="1" fill="#231f20"/>
    <rect x="0" y="39" width="1" height="1" fill="#231f20"/>
    <rect x="34" y="39" width="1" height="1" fill="#231f20"/>
    <rect x="53" y="39" width="1" height="1" fill="#231f20"/>
    <rect x="57" y="39" width="2" height="1" fill="#231f20"/>
    <rect x="80" y="39" width="1" height="1" fill="#231f20"/>
    <rect x="99" y="39" width="1" height="1" fill="#231f20"/>
    <rect x="103" y="39" width="2" height="1" fill="#231f20"/>
    <rect x="126" y="39" width="1" height="1" fill="#231f20"/>
    <rect x="146" y="39" width="1" height="1" fill="#231f20"/>
    <rect x="151" y="39" width="1" height="1" fill="#231f20"/>
    <rect x="171" y="39" width="1" height="1" fill="#231f20"/>
    <rect x="0" y="40" width="1" height="1" fill="#231f20"/>
    <rect x="52" y="40" width="3" height="1" fill="#231f20"/>
    <rect x="58" y="40" width="1" height="1" fill="#231f20"/>
    <rect x="98" y="40" width="3" height="1" fill="#231f20"/>
    <rect x="104" y="40" width="1" height="1" fill="#231f20"/>
    <rect x="146" y="40" width="5" height="1" fill="#231f20"/>
    <rect x="171" y="40" width="1" height="1" fill="#231f20"/>
    <rect x="0" y="41" width="1" height="1" fill="#231f20"/>
    <rect x="171" y="41" width="1" height="1" fill="#231f20"/>
    <rect x="0" y="42" width="1" height="1" fill="#231f20"/>
    <rect x="171" y="42" width="1" height="1" fill="#231f20"/>
    <rect x="0" y="43" width="1" height="1" fill="#231f20"/>
    <rect x="171" y="43" width="1" height="1" fill="#231f20"/>
    <rect x="0" y="44" width="1" height="1" fill="#231f20"/>
    <rect x="171" y="44" width="1" height="1" fill="#231f20"/>
    <rect x="0" y="45" width="1" height="1" fill="#231f20"/>
    <rect x="171" y="45" width="1" height="1" fill="#231f20"/>
    <rect x="0" y="46" width="172" height="1" fill="#231f20"/>
    <rect x="0" y="47" width="1" height="1" fill="#231f20"/>
    <rect x="171" y="47" width="1" height="1" fill="#231f20"/>
    <rect x="0" y="48" width="1" height="1" fill="#231f20"/>
    <rect x="171" y="48" width="1" height="1" fill="#231f20"/>
    <rect x="0" y="49" width="1" height="1" fill="#231f20"/>
    <rect x="171" y="49" width="1" height="1" fill="#231f20"/>
    <rect x="0" y="50" width="1" height="1" fill="#231f20"/>
    <rect x="171" y="50" width="1" height="1" fill="#231f20"/>
    <rect x="0" y="51" width="1" height="1" fill="#231f20"/>
    <rect x="171" y="51" width="1" height="1" fill="#231f20"/>
    <rect x="0" y="52" width="1" height="1" fill="#231f20"/>
    <rect x="171" y="52" width="1" height="1" fill="#231f20"/>
    <rect x="0" y="53" width="1" height="1" fill="#231f20"/>
    <rect x="20" y="53" width="5" height="1" fill="#231f20"/>
    <rect x="45" y="53" width="1" height="1" fill="#231f20"/>
    <rect x="64" y="53" width="2" height="1" fill="#231f20"/>
    <rect x="69" y="53" width="3" height="1" fill="#231f20"/>
    <rect x="91" y="53" width="1" height="1" fill="#231f20"/>
    <rect x="109" y="53" width="2" height="1" fill="#231f20"/>
    <rect x="114" y="53" width="3" height="1" fill="#231f20"/>
    <rect x="137" y="53" width="1" height="1" fill="#231f20"/>
    <rect x="171" y="53" width="1" height="1" fill="#231f20"/>
    <rect x="0" y="54" width="1" height="1" fill="#231f20"/>
    <rect x="19" y="54" width="1" height="1" fill="#231f20"/>
    <rect x="24" y="54" width="1" height="1" fill="#231f20"/>
    <rect x="45" y="54" width="1" height="1" fill="#231f20"/>
    <rect x="65" y="54" width="2" height="1" fill="#231f20"/>
    <rect x="70" y="54" width="1" height="1" fill="#231f20"/>
    <rect x="91" y="54" width="1" height="1" fill="#231f20"/>
    <rect x="110" y="54" width="2" height="1" fill="#231f20"/>
    <rect x="115" y="54" width="1" height="1" fill="#231f20"/>
    <rect x="137" y="54" width="1" height="1" fill="#231f20"/>
    <rect x="171" y="54" width="1" height="1" fill="#231f20"/>
    <rect x="0" y="55" width="1" height="1" fill="#231f20"/>
    <rect x="19" y="55" width="1" height="1" fill="#231f20"/>
    <rect x="24" y="55" width="1" height="1" fill="#231f20"/>
    <rect x="45" y="55" width="1" height="1" fill="#231f20"/>
    <rect x="65" y="55" width="2" height="1" fill="#231f20"/>
    <rect x="70" y="55" width="1" height="1" fill="#231f20"/>
    <rect x="91" y="55" width="1" height="1" fill="#231f20"/>
    <rect x="110" y="55" width="2" height="1" fill="#231f20"/>
    <rect x="115" y="55" width="1" height="1" fill="#231f20"/>
    <rect x="137" y="55" width="1" height="1" fill="#231f20"/>
    <rect x="171" y="55" width="1" height="1" fill="#231f20"/>
    <rect x="0" y="56" width="1" height="1" fill="#231f20"/>
    <rect x="19" y="56" width="1" height="1" fill="#231f20"/>
    <rect x="45" y="56" width="1" height="1" fill="#231f20"/>
    <rect x="65" y="56" width="1" height="1" fill="#231f20"/>
    <rect x="67" y="56" width="1" height="1" fill="#231f20"/>
    <rect x="70" y="56" width="1" height="1" fill="#231f20"/>
    <rect x="91" y="56" width="1" height="1" fill="#231f20"/>
    <rect x="110" y="56" width="1" height="1" fill="#231f20"/>
    <rect x="112" y="56" width="1" height="1" fill="#231f20"/>
    <rect x="115" y="56" width="1" height="1" fill="#231f20"/>
    <rect x="137" y="56" width="1" height="1" fill="#231f20"/>
    <rect x="171" y="56" width="1" height="1" fill="#231f20"/>
    <rect x="0" y="57" width="1" height="1" fill="#231f20"/>
    <rect x="20" y="57" width="1" height="1" fill="#231f20"/>
    <rect x="41" y="57" width="10" height="1" fill="#231f20"/>
    <rect x="65" y="57" width="1" height="1" fill="#231f20"/>
    <rect x="67" y="57" width="1" height="1" fill="#231f20"/>
    <rect x="70" y="57" width="1" height="1" fill="#231f20"/>
    <rect x="87" y="57" width="10" height="1" fill="#231f20"/>
    <rect x="110" y="57" width="1" height="1" fill="#231f20"/>
    <rect x="112" y="57" width="1" height="1" fill="#231f20"/>
    <rect x="115" y="57" width="1" height="1" fill="#231f20"/>
    <rect x="133" y="57" width="9" height="1" fill="#231f20"/>
    <rect x="171" y="57" width="1" height="1" fill="#231f20"/>
    <rect x="0" y="58" width="1" height="1" fill="#231f20"/>
    <rect x="21" y="58" width="2" height="1" fill="#231f20"/>
    <rect x="45" y="58" width="1" height="1" fill="#231f20"/>
    <rect x="65" y="58" width="1" height="1" fill="#231f20"/>
    <rect x="68" y="58" width="1" height="1" fill="#231f20"/>
    <rect x="70" y="58" width="1" height="1" fill="#231f20"/>
    <rect x="91" y="58" width="1" height="1" fill="#231f20"/>
    <rect x="110" y="58" width="1" height="1" fill="#231f20"/>
    <rect x="113" y="58" width="1" height="1" fill="#231f20"/>
    <rect x="115" y="58" width="1" height="1" fill="#231f20"/>
    <rect x="137" y="58" width="1" height="1" fill="#231f20"/>
    <rect x="171" y="58" width="1" height="1" fill="#231f20"/>
    <rect x="0" y="59" width="1" height="1" fill="#231f20"/>
    <rect x="23" y="59" width="1" height="1" fill="#231f20"/>
    <rect x="45" y="59" width="1" height="1" fill="#231f20"/>
    <rect x="65" y="59" width="1" height="1" fill="#231f20"/>
    <rect x="68" y="59" width="1" height="1" fill="#231f20"/>
    <rect x="70" y="59" width="1" height="1" fill="#231f20"/>
    <rect x="91" y="59" width="1" height="1" fill="#231f20"/>
    <rect x="110" y="59" width="1" height="1" fill="#231f20"/>
    <rect x="113" y="59" width="1" height="1" fill="#231f20"/>
    <rect x="115" y="59" width="1" height="1" fill="#231f20"/>
    <rect x="137" y="59" width="1" height="1" fill="#231f20"/>
    <rect x="171" y="59" width="1" height="1" fill="#231f20"/>
    <rect x="0" y="60" width="1" height="1" fill="#231f20"/>
    <rect x="24" y="60" width="1" height="1" fill="#231f20"/>
    <rect x="45" y="60" width="1" height="1" fill="#231f20"/>
    <rect x="65" y="60" width="1" height="1" fill="#231f20"/>
    <rect x="68" y="60" width="1" height="1" fill="#231f20"/>
    <rect x="70" y="60" width="1" height="1" fill="#231f20"/>
    <rect x="91" y="60" width="1" height="1" fill="#231f20"/>
    <rect x="110" y="60" width="1" height="1" fill="#231f20"/>
    <rect x="113" y="60" width="1" height="1" fill="#231f20"/>
    <rect x="115" y="60" width="1" height="1" fill="#231f20"/>
    <rect x="137" y="60" width="1" height="1" fill="#231f20"/>
    <rect x="171" y="60" width="1" height="1" fill="#231f20"/>
    <rect x="0" y="61" width="1" height="1" fill="#231f20"/>
    <rect x="19" y="61" width="1" height="1" fill="#231f20"/>
    <rect x="24" y="61" width="1" height="1" fill="#231f20"/>
    <rect x="45" y="61" width="1" height="1" fill="#231f20"/>
    <rect x="65" y="61" width="1" height="1" fill="#231f20"/>
    <rect x="69" y="61" width="2" height="1" fill="#231f20"/>
    <rect x="91" y="61" width="1" height="1" fill="#231f20"/>
    <rect x="110" y="61" width="1" height="1" fill="#231f20"/>
    <rect x="114" y="61" width="2" height="1" fill="#231f20"/>
    <rect x="137" y="61" width="1" height="1" fill="#231f20"/>
    <rect x="171" y="61" width="1" height="1" fill="#231f20"/>
    <rect x="0" y="62" width="1" height="1" fill="#231f20"/>
    <rect x="19" y="62" width="1" height="1" fill="#231f20"/>
    <rect x="24" y="62" width="1" height="1" fill="#231f20"/>
    <rect x="45" y="62" width="1" height="1" fill="#231f20"/>
    <rect x="65" y="62" width="1" height="1" fill="#231f20"/>
    <rect x="69" y="62" width="2" height="1" fill="#231f20"/>
    <rect x="91" y="62" width="1" height="1" fill="#231f20"/>
    <rect x="110" y="62" width="1" height="1" fill="#231f20"/>
    <rect x="114" y="62" width="2" height="1" fill="#231f20"/>
    <rect x="137" y="62" width="1" height="1" fill="#231f20"/>
    <rect x="171" y="62" width="1" height="1" fill="#231f20"/>
    <rect x="0" y="63" width="1" height="1" fill="#231f20"/>
    <rect x="19" y="63" width="5" height="1" fill="#231f20"/>
    <rect x="64" y="63" width="3" height="1" fill="#231f20"/>
    <rect x="70" y="63" width="1" height="1" fill="#231f20"/>
    <rect x="109" y="63" width="3" height="1" fill="#231f20"/>
    <rect x="115" y="63" width="1" height="1" fill="#231f20"/>
    <rect x="171" y="63" width="1" height="1" fill="#231f20"/>
    <rect x="0" y="64" width="1" height="1" fill="#231f20"/>
    <rect x="171" y="64" width="1" height="1" fill="#231f20"/>
    <rect x="0" y="65" width="1" height="1" fill="#231f20"/>
    <rect x="171" y="65" width="1" height="1" fill="#231f20"/>
    <rect x="0" y="66" width="1" height="1" fill="#231f20"/>
    <rect x="171" y="66" width="1" height="1" fill="#231f20"/>
    <rect x="0" y="67" width="1" height="1" fill="#231f20"/>
    <rect x="171" y="67" width="1" height="1" fill="#231f20"/>
    <rect x="0" y="68" width="1" height="1" fill="#231f20"/>
    <rect x="171" y="68" width="1" height="1" fill="#231f20"/>
    <rect x="0" y="69" width="172" height="1" fill="#231f20"/>
  </g>
</svg>