<?xml version="1.0" encoding="UTF-8"?>
<svg xmlns="http://www.w3.org/2000/svg" viewBox="0 0 172 69" width="172" height="69">
  <!-- Auto-converted from legend-1633.png -->
  <rect x="0" y="0" width="172" height="69" fill="none"/>
  <g fill="#3e3a3b" stroke="none">
    <rect x="0" y="0" width="172" height="1" fill="#3e3a3b"/>
    <rect x="0" y="1" width="2" height="1" fill="#3e3a3b"/>
    <rect x="171" y="1" width="1" height="1" fill="#3e3a3b"/>
    <rect x="0" y="2" width="1" height="1" fill="#3e3a3b"/>
    <rect x="5" y="2" width="1" height="1" fill="#3e3a3b"/>
    <rect x="168" y="2" width="2" height="1" fill="#3e3a3b"/>
    <rect x="171" y="2" width="1" height="1" fill="#3e3a3b"/>
    <rect x="0" y="3" width="1" height="1" fill="#3e3a3b"/>
    <rect x="2" y="3" width="1" height="1" fill="#3e3a3b"/>
    <rect x="5" y="3" width="1" height="1" fill="#3e3a3b"/>
    <rect x="169" y="3" width="1" height="1" fill="#3e3a3b"/>
    <rect x="171" y="3" width="1" height="1" fill="#3e3a3b"/>
    <rect x="0" y="4" width="1" height="1" fill="#3e3a3b"/>
    <rect x="171" y="4" width="1" height="1" fill="#3e3a3b"/>
    <rect x="0" y="5" width="1" height="1" fill="#3e3a3b"/>
    <rect x="4" y="5" width="1" height="1" fill="#3e3a3b"/>
    <rect x="171" y="5" width="1" height="1" fill="#3e3a3b"/>
    <rect x="0" y="6" width="2" height="1" fill="#3e3a3b"/>
    <rect x="171" y="6" width="1" height="1" fill="#3e3a3b"/>
    <rect x="0" y="7" width="1" height="1" fill="#3e3a3b"/>
    <rect x="5" y="7" width="1" height="1" fill="#3e3a3b"/>
    <rect x="171" y="7" width="1" height="1" fill="#3e3a3b"/>
    <rect x="0" y="8" width="1" height="1" fill="#3e3a3b"/>
    <rect x="17" y="8" width="1" height="1" fill="#3e3a3b"/>
    <rect x="22" y="8" width="1" height="1" fill="#3e3a3b"/>
    <rect x="26" y="8" width="12" height="1" fill="#3e3a3b"/>
    <rect x="41" y="8" width="1" height="1" fill="#3e3a3b"/>
    <rect x="89" y="8" width="11" height="1" fill="#3e3a3b"/>
    <rect x="101" y="8" width="1" height="1" fill="#3e3a3b"/>
    <rect x="171" y="8" width="1" height="1" fill="#3e3a3b"/>
    <rect x="0" y="9" width="1" height="1" fill="#3e3a3b"/>
    <rect x="23" y="9" width="4" height="1" fill="#3e3a3b"/>
    <rect x="30" y="9" width="1" height="1" fill="#3e3a3b"/>
    <rect x="37" y="9" width="3" height="1" fill="#3e3a3b"/>
    <rect x="42" y="9" width="1" height="1" fill="#3e3a3b"/>
    <rect x="47" y="9" width="1" height="1" fill="#3e3a3b"/>
    <rect x="82" y="9" width="1" height="1" fill="#3e3a3b"/>
    <rect x="86" y="9" width="3" height="1" fill="#3e3a3b"/>
    <rect x="91" y="9" width="1" height="1" fill="#3e3a3b"/>
    <rect x="99" y="9" width="4" height="1" fill="#3e3a3b"/>
    <rect x="171" y="9" width="1" height="1" fill="#3e3a3b"/>
    <rect x="0" y="10" width="1" height="1" fill="#3e3a3b"/>
    <rect x="20" y="10" width="1" height="1" fill="#3e3a3b"/>
    <rect x="23" y="10" width="1" height="1" fill="#3e3a3b"/>
    <rect x="38" y="10" width="3" height="1" fill="#3e3a3b"/>
    <rect x="83" y="10" width="1" height="1" fill="#3e3a3b"/>
    <rect x="86" y="10" width="1" height="1" fill="#3e3a3b"/>
    <rect x="93" y="10" width="2" height="1" fill="#3e3a3b"/>
    <rect x="101" y="10" width="3" height="1" fill="#3e3a3b"/>
    <rect x="171" y="10" width="1" height="1" fill="#3e3a3b"/>
    <rect x="0" y="11" width="1" height="1" fill="#3e3a3b"/>
    <rect x="21" y="11" width="1" height="1" fill="#3e3a3b"/>
    <rect x="23" y="11" width="1" height="1" fill="#3e3a3b"/>
    <rect x="29" y="11" width="1" height="1" fill="#3e3a3b"/>
    <rect x="33" y="11" width="1" height="1" fill="#3e3a3b"/>
    <rect x="39" y="11" width="2" height="1" fill="#3e3a3b"/>
    <rect x="84" y="11" width="3" height="1" fill="#3e3a3b"/>
    <rect x="90" y="11" width="1" height="1" fill="#3e3a3b"/>
    <rect x="92" y="11" width="1" height="1" fill="#3e3a3b"/>
    <rect x="102" y="11" width="2" height="1" fill="#3e3a3b"/>
    <rect x="171" y="11" width="1" height="1" fill="#3e3a3b"/>
    <rect x="0" y="12" width="1" height="1" fill="#3e3a3b"/>
    <rect x="23" y="12" width="3" height="1" fill="#3e3a3b"/>
    <rect x="31" y="12" width="1" height="1" fill="#3e3a3b"/>
    <rect x="33" y="12" width="1" height="1" fill="#3e3a3b"/>
    <rect x="37" y="12" width="4" height="1" fill="#3e3a3b"/>
    <rect x="42" y="12" width="1" height="1" fill="#3e3a3b"/>
    <rect x="81" y="12" width="1" height="1" fill="#3e3a3b"/>
    <rect x="86" y="12" width="2" height="1" fill="#3e3a3b"/>
    <rect x="94" y="12" width="2" height="1" fill="#3e3a3b"/>
    <rect x="97" y="12" width="2" height="1" fill="#3e3a3b"/>
    <rect x="100" y="12" width="3" height="1" fill="#3e3a3b"/>
    <rect x="171" y="12" width="1" height="1" fill="#3e3a3b"/>
    <rect x="0" y="13" width="1" height="1" fill="#3e3a3b"/>
    <rect x="21" y="13" width="1" height="1" fill="#3e3a3b"/>
    <rect x="25" y="13" width="5" height="1" fill="#3e3a3b"/>
    <rect x="33" y="13" width="7" height="1" fill="#3e3a3b"/>
    <rect x="41" y="13" width="1" height="1" fill="#3e3a3b"/>
    <rect x="46" y="13" width="1" height="1" fill="#3e3a3b"/>
    <rect x="87" y="13" width="7" height="1" fill="#3e3a3b"/>
    <rect x="96" y="13" width="5" height="1" fill="#3e3a3b"/>
    <rect x="102" y="13" width="1" height="1" fill="#3e3a3b"/>
    <rect x="171" y="13" width="1" height="1" fill="#3e3a3b"/>
    <rect x="0" y="14" width="1" height="1" fill="#3e3a3b"/>
    <rect x="26" y="14" width="1" height="1" fill="#3e3a3b"/>
    <rect x="29" y="14" width="4" height="1" fill="#3e3a3b"/>
    <rect x="36" y="14" width="1" height="1" fill="#3e3a3b"/>
    <rect x="43" y="14" width="1" height="1" fill="#3e3a3b"/>
    <rect x="46" y="14" width="1" height="1" fill="#3e3a3b"/>
    <rect x="82" y="14" width="1" height="1" fill="#3e3a3b"/>
    <rect x="89" y="14" width="1" height="1" fill="#3e3a3b"/>
    <rect x="93" y="14" width="3" height="1" fill="#3e3a3b"/>
    <rect x="171" y="14" width="1" height="1" fill="#3e3a3b"/>
    <rect x="0" y="15" width="1" height="1" fill="#3e3a3b"/>
    <rect x="16" y="15" width="1" height="1" fill="#3e3a3b"/>
    <rect x="31" y="15" width="1" height="1" fill="#3e3a3b"/>
    <rect x="44" y="15" width="1" height="1" fill="#3e3a3b"/>
    <rect x="86" y="15" width="1" height="1" fill="#3e3a3b"/>
    <rect x="94" y="15" width="1" height="1" fill="#3e3a3b"/>
    <rect x="98" y="15" width="1" height="1" fill="#3e3a3b"/>
    <rect x="100" y="15" width="1" height="1" fill="#3e3a3b"/>
    <rect x="102" y="15" width="1" height="1" fill="#3e3a3b"/>
    <rect x="171" y="15" width="1" height="1" fill="#3e3a3b"/>
    <rect x="0" y="16" width="1" height="1" fill="#3e3a3b"/>
    <rect x="5" y="16" width="1" height="1" fill="#3e3a3b"/>
    <rect x="171" y="16" width="1" height="1" fill="#3e3a3b"/>
    <rect x="0" y="17" width="2" height="1" fill="#3e3a3b"/>
    <rect x="171" y="17" width="1" height="1" fill="#3e3a3b"/>
    <rect x="0" y="18" width="1" height="1" fill="#3e3a3b"/>
    <rect x="4" y="18" width="1" height="1" fill="#3e3a3b"/>
    <rect x="171" y="18" width="1" height="1" fill="#3e3a3b"/>
    <rect x="0" y="19" width="1" height="1" fill="#3e3a3b"/>
    <rect x="171" y="19" width="1" height="1" fill="#3e3a3b"/>
    <rect x="0" y="20" width="1" height="1" fill="#3e3a3b"/>
    <rect x="2" y="20" width="1" height="1" fill="#3e3a3b"/>
    <rect x="5" y="20" width="1" height="1" fill="#3e3a3b"/>
    <rect x="169" y="20" width="1" height="1" fill="#3e3a3b"/>
    <rect x="171" y="20" width="1" height="1" fill="#3e3a3b"/>
    <rect x="0" y="21" width="1" height="1" fill="#3e3a3b"/>
    <rect x="5" y="21" width="1" height="1" fill="#3e3a3b"/>
    <rect x="168" y="21" width="2" height="1" fill="#3e3a3b"/>
    <rect x="171" y="21" width="1" height="1" fill="#3e3a3b"/>
    <rect x="0" y="22" width="2" height="1" fill="#3e3a3b"/>
    <rect x="171" y="22" width="1" height="1" fill="#3e3a3b"/>
    <rect x="0" y="23" width="172" height="1" fill="#3e3a3b"/>
    <rect x="0" y="24" width="1" height="1" fill="#3e3a3b"/>
    <rect x="73" y="24" width="1" height="1" fill="#3e3a3b"/>
    <rect x="81" y="24" width="1" height="1" fill="#3e3a3b"/>
    <rect x="87" y="24" width="1" height="1" fill="#3e3a3b"/>
    <rect x="171" y="24" width="1" height="1" fill="#3e3a3b"/>
    <rect x="0" y="25" width="1" height="1" fill="#3e3a3b"/>
    <rect x="74" y="25" width="1" height="1" fill="#3e3a3b"/>
    <rect x="137" y="25" width="1" height="1" fill="#3e3a3b"/>
    <rect x="171" y="25" width="1" height="1" fill="#3e3a3b"/>
    <rect x="0" y="26" width="1" height="1" fill="#3e3a3b"/>
    <rect x="74" y="26" width="1" height="1" fill="#3e3a3b"/>
    <rect x="80" y="26" width="1" height="1" fill="#3e3a3b"/>
    <rect x="82" y="26" width="1" height="1" fill="#3e3a3b"/>
    <rect x="140" y="26" width="1" height="1" fill="#3e3a3b"/>
    <rect x="171" y="26" width="1" height="1" fill="#3e3a3b"/>
    <rect x="0" y="27" width="1" height="1" fill="#3e3a3b"/>
    <rect x="72" y="27" width="1" height="1" fill="#3e3a3b"/>
    <rect x="136" y="27" width="1" height="1" fill="#3e3a3b"/>
    <rect x="171" y="27" width="1" height="1" fill="#3e3a3b"/>
    <rect x="0" y="28" width="1" height="1" fill="#3e3a3b"/>
    <rect x="73" y="28" width="1" height="1" fill="#3e3a3b"/>
    <rect x="75" y="28" width="2" height="1" fill="#3e3a3b"/>
    <rect x="79" y="28" width="1" height="1" fill="#3e3a3b"/>
    <rect x="81" y="28" width="1" height="1" fill="#3e3a3b"/>
    <rect x="84" y="28" width="1" height="1" fill="#3e3a3b"/>
    <rect x="138" y="28" width="1" height="1" fill="#3e3a3b"/>
    <rect x="171" y="28" width="1" height="1" fill="#3e3a3b"/>
    <rect x="0" y="29" width="1" height="1" fill="#3e3a3b"/>
    <rect x="73" y="29" width="1" height="1" fill="#3e3a3b"/>
    <rect x="81" y="29" width="1" height="1" fill="#3e3a3b"/>
    <rect x="136" y="29" width="1" height="1" fill="#3e3a3b"/>
    <rect x="171" y="29" width="1" height="1" fill="#3e3a3b"/>
    <rect x="0" y="30" width="1" height="1" fill="#3e3a3b"/>
    <rect x="74" y="30" width="1" height="1" fill="#3e3a3b"/>
    <rect x="78" y="30" width="1" height="1" fill="#3e3a3b"/>
    <rect x="80" y="30" width="1" height="1" fill="#3e3a3b"/>
    <rect x="85" y="30" width="1" height="1" fill="#3e3a3b"/>
    <rect x="137" y="30" width="1" height="1" fill="#3e3a3b"/>
    <rect x="171" y="30" width="1" height="1" fill="#3e3a3b"/>
    <rect x="0" y="31" width="1" height="1" fill="#3e3a3b"/>
    <rect x="74" y="31" width="8" height="1" fill="#3e3a3b"/>
    <rect x="85" y="31" width="1" height="1" fill="#3e3a3b"/>
    <rect x="136" y="31" width="8" height="1" fill="#3e3a3b"/>
    <rect x="171" y="31" width="1" height="1" fill="#3e3a3b"/>
    <rect x="0" y="32" width="1" height="1" fill="#3e3a3b"/>
    <rect x="68" y="32" width="1" height="1" fill="#3e3a3b"/>
    <rect x="70" y="32" width="4" height="1" fill="#3e3a3b"/>
    <rect x="81" y="32" width="4" height="1" fill="#3e3a3b"/>
    <rect x="129" y="32" width="1" height="1" fill="#3e3a3b"/>
    <rect x="133" y="32" width="4" height="1" fill="#3e3a3b"/>
    <rect x="143" y="32" width="5" height="1" fill="#3e3a3b"/>
    <rect x="171" y="32" width="1" height="1" fill="#3e3a3b"/>
    <rect x="0" y="33" width="1" height="1" fill="#3e3a3b"/>
    <rect x="68" y="33" width="2" height="1" fill="#3e3a3b"/>
    <rect x="71" y="33" width="1" height="1" fill="#3e3a3b"/>
    <rect x="76" y="33" width="2" height="1" fill="#3e3a3b"/>
    <rect x="80" y="33" width="1" height="1" fill="#3e3a3b"/>
    <rect x="84" y="33" width="2" height="1" fill="#3e3a3b"/>
    <rect x="131" y="33" width="2" height="1" fill="#3e3a3b"/>
    <rect x="136" y="33" width="1" height="1" fill="#3e3a3b"/>
    <rect x="143" y="33" width="1" height="1" fill="#3e3a3b"/>
    <rect x="147" y="33" width="2" height="1" fill="#3e3a3b"/>
    <rect x="171" y="33" width="1" height="1" fill="#3e3a3b"/>
    <rect x="0" y="34" width="1" height="1" fill="#3e3a3b"/>
    <rect x="67" y="34" width="2" height="1" fill="#3e3a3b"/>
    <rect x="72" y="34" width="1" height="1" fill="#3e3a3b"/>
    <rect x="75" y="34" width="1" height="1" fill="#3e3a3b"/>
    <rect x="82" y="34" width="1" height="1" fill="#3e3a3b"/>
    <rect x="85" y="34" width="1" height="1" fill="#3e3a3b"/>
    <rect x="128" y="34" width="1" height="1" fill="#3e3a3b"/>
    <rect x="131" y="34" width="1" height="1" fill="#3e3a3b"/>
    <rect x="134" y="34" width="1" height="1" fill="#3e3a3b"/>
    <rect x="148" y="34" width="1" height="1" fill="#3e3a3b"/>
    <rect x="150" y="34" width="1" height="1" fill="#3e3a3b"/>
    <rect x="171" y="34" width="1" height="1" fill="#3e3a3b"/>
    <rect x="0" y="35" width="1" height="1" fill="#3e3a3b"/>
    <rect x="65" y="35" width="1" height="1" fill="#3e3a3b"/>
    <rect x="68" y="35" width="2" height="1" fill="#3e3a3b"/>
    <rect x="73" y="35" width="1" height="1" fill="#3e3a3b"/>
    <rect x="77" y="35" width="1" height="1" fill="#3e3a3b"/>
    <rect x="85" y="35" width="2" height="1" fill="#3e3a3b"/>
    <rect x="129" y="35" width="1" height="1" fill="#3e3a3b"/>
    <rect x="131" y="35" width="2" height="1" fill="#3e3a3b"/>
    <rect x="145" y="35" width="5" height="1" fill="#3e3a3b"/>
    <rect x="171" y="35" width="1" height="1" fill="#3e3a3b"/>
    <rect x="0" y="36" width="1" height="1" fill="#3e3a3b"/>
    <rect x="69" y="36" width="4" height="1" fill="#3e3a3b"/>
    <rect x="82" y="36" width="3" height="1" fill="#3e3a3b"/>
    <rect x="132" y="36" width="4" height="1" fill="#3e3a3b"/>
    <rect x="138" y="36" width="1" height="1" fill="#3e3a3b"/>
    <rect x="141" y="36" width="1" height="1" fill="#3e3a3b"/>
    <rect x="145" y="36" width="3" height="1" fill="#3e3a3b"/>
    <rect x="150" y="36" width="1" height="1" fill="#3e3a3b"/>
    <rect x="171" y="36" width="1" height="1" fill="#3e3a3b"/>
    <rect x="0" y="37" width="1" height="1" fill="#3e3a3b"/>
    <rect x="70" y="37" width="12" height="1" fill="#3e3a3b"/>
    <rect x="85" y="37" width="1" height="1" fill="#3e3a3b"/>
    <rect x="87" y="37" width="1" height="1" fill="#3e3a3b"/>
    <rect x="128" y="37" width="1" height="1" fill="#3e3a3b"/>
    <rect x="131" y="37" width="1" height="1" fill="#3e3a3b"/>
    <rect x="135" y="37" width="10" height="1" fill="#3e3a3b"/>
    <rect x="150" y="37" width="1" height="1" fill="#3e3a3b"/>
    <rect x="171" y="37" width="1" height="1" fill="#3e3a3b"/>
    <rect x="0" y="38" width="1" height="1" fill="#3e3a3b"/>
    <rect x="66" y="38" width="1" height="1" fill="#3e3a3b"/>
    <rect x="73" y="38" width="1" height="1" fill="#3e3a3b"/>
    <rect x="85" y="38" width="1" height="1" fill="#3e3a3b"/>
    <rect x="130" y="38" width="1" height="1" fill="#3e3a3b"/>
    <rect x="137" y="38" width="1" height="1" fill="#3e3a3b"/>
    <rect x="142" y="38" width="1" height="1" fill="#3e3a3b"/>
    <rect x="151" y="38" width="1" height="1" fill="#3e3a3b"/>
    <rect x="171" y="38" width="1" height="1" fill="#3e3a3b"/>
    <rect x="0" y="39" width="1" height="1" fill="#3e3a3b"/>
    <rect x="70" y="39" width="1" height="1" fill="#3e3a3b"/>
    <rect x="76" y="39" width="1" height="1" fill="#3e3a3b"/>
    <rect x="86" y="39" width="1" height="1" fill="#3e3a3b"/>
    <rect x="129" y="39" width="1" height="1" fill="#3e3a3b"/>
    <rect x="171" y="39" width="1" height="1" fill="#3e3a3b"/>
    <rect x="0" y="40" width="2" height="1" fill="#3e3a3b"/>
    <rect x="4" y="40" width="1" height="1" fill="#3e3a3b"/>
    <rect x="171" y="40" width="1" height="1" fill="#3e3a3b"/>
    <rect x="0" y="41" width="1" height="1" fill="#3e3a3b"/>
    <rect x="3" y="41" width="1" height="1" fill="#3e3a3b"/>
    <rect x="171" y="41" width="1" height="1" fill="#3e3a3b"/>
    <rect x="0" y="42" width="1" height="1" fill="#3e3a3b"/>
    <rect x="5" y="42" width="1" height="1" fill="#3e3a3b"/>
    <rect x="171" y="42" width="1" height="1" fill="#3e3a3b"/>
    <rect x="0" y="43" width="1" height="1" fill="#3e3a3b"/>
    <rect x="2" y="43" width="1" height="1" fill="#3e3a3b"/>
    <rect x="169" y="43" width="1" height="1" fill="#3e3a3b"/>
    <rect x="171" y="43" width="1" height="1" fill="#3e3a3b"/>
    <rect x="0" y="44" width="1" height="1" fill="#3e3a3b"/>
    <rect x="3" y="44" width="1" height="1" fill="#3e3a3b"/>
    <rect x="171" y="44" width="1" height="1" fill="#3e3a3b"/>
    <rect x="0" y="45" width="172" height="1" fill="#3e3a3b"/>
    <rect x="0" y="46" width="1" height="1" fill="#3e3a3b"/>
    <rect x="3" y="46" width="1" height="1" fill="#3e3a3b"/>
    <rect x="171" y="46" width="1" height="1" fill="#3e3a3b"/>
    <rect x="0" y="47" width="1" height="1" fill="#3e3a3b"/>
    <rect x="7" y="47" width="1" height="1" fill="#3e3a3b"/>
    <rect x="171" y="47" width="1" height="1" fill="#3e3a3b"/>
    <rect x="0" y="48" width="1" height="1" fill="#3e3a3b"/>
    <rect x="25" y="48" width="1" height="1" fill="#3e3a3b"/>
    <rect x="29" y="48" width="1" height="1" fill="#3e3a3b"/>
    <rect x="34" y="48" width="1" height="1" fill="#3e3a3b"/>
    <rect x="38" y="48" width="1" height="1" fill="#3e3a3b"/>
    <rect x="80" y="48" width="1" height="1" fill="#3e3a3b"/>
    <rect x="86" y="48" width="1" height="1" fill="#3e3a3b"/>
    <rect x="89" y="48" width="1" height="1" fill="#3e3a3b"/>
    <rect x="171" y="48" width="1" height="1" fill="#3e3a3b"/>
    <rect x="0" y="49" width="1" height="1" fill="#3e3a3b"/>
    <rect x="26" y="49" width="2" height="1" fill="#3e3a3b"/>
    <rect x="30" y="49" width="1" height="1" fill="#3e3a3b"/>
    <rect x="33" y="49" width="1" height="1" fill="#3e3a3b"/>
    <rect x="36" y="49" width="2" height="1" fill="#3e3a3b"/>
    <rect x="96" y="49" width="1" height="1" fill="#3e3a3b"/>
    <rect x="98" y="49" width="1" height="1" fill="#3e3a3b"/>
    <rect x="171" y="49" width="1" height="1" fill="#3e3a3b"/>
    <rect x="0" y="50" width="1" height="1" fill="#3e3a3b"/>
    <rect x="24" y="50" width="1" height="1" fill="#3e3a3b"/>
    <rect x="39" y="50" width="1" height="1" fill="#3e3a3b"/>
    <rect x="85" y="50" width="1" height="1" fill="#3e3a3b"/>
    <rect x="87" y="50" width="1" height="1" fill="#3e3a3b"/>
    <rect x="89" y="50" width="1" height="1" fill="#3e3a3b"/>
    <rect x="95" y="50" width="1" height="1" fill="#3e3a3b"/>
    <rect x="171" y="50" width="1" height="1" fill="#3e3a3b"/>
    <rect x="0" y="51" width="1" height="1" fill="#3e3a3b"/>
    <rect x="26" y="51" width="2" height="1" fill="#3e3a3b"/>
    <rect x="36" y="51" width="2" height="1" fill="#3e3a3b"/>
    <rect x="90" y="51" width="1" height="1" fill="#3e3a3b"/>
    <rect x="93" y="51" width="1" height="1" fill="#3e3a3b"/>
    <rect x="97" y="51" width="1" height="1" fill="#3e3a3b"/>
    <rect x="171" y="51" width="1" height="1" fill="#3e3a3b"/>
    <rect x="0" y="52" width="1" height="1" fill="#3e3a3b"/>
    <rect x="25" y="52" width="1" height="1" fill="#3e3a3b"/>
    <rect x="29" y="52" width="1" height="1" fill="#3e3a3b"/>
    <rect x="34" y="52" width="1" height="1" fill="#3e3a3b"/>
    <rect x="38" y="52" width="1" height="1" fill="#3e3a3b"/>
    <rect x="83" y="52" width="1" height="1" fill="#3e3a3b"/>
    <rect x="86" y="52" width="1" height="1" fill="#3e3a3b"/>
    <rect x="89" y="52" width="1" height="1" fill="#3e3a3b"/>
    <rect x="95" y="52" width="1" height="1" fill="#3e3a3b"/>
    <rect x="171" y="52" width="1" height="1" fill="#3e3a3b"/>
    <rect x="0" y="53" width="1" height="1" fill="#3e3a3b"/>
    <rect x="24" y="53" width="1" height="1" fill="#3e3a3b"/>
    <rect x="26" y="53" width="1" height="1" fill="#3e3a3b"/>
    <rect x="29" y="53" width="1" height="1" fill="#3e3a3b"/>
    <rect x="31" y="53" width="2" height="1" fill="#3e3a3b"/>
    <rect x="34" y="53" width="1" height="1" fill="#3e3a3b"/>
    <rect x="37" y="53" width="1" height="1" fill="#3e3a3b"/>
    <rect x="39" y="53" width="1" height="1" fill="#3e3a3b"/>
    <rect x="86" y="53" width="1" height="1" fill="#3e3a3b"/>
    <rect x="96" y="53" width="1" height="1" fill="#3e3a3b"/>
    <rect x="101" y="53" width="1" height="1" fill="#3e3a3b"/>
    <rect x="171" y="53" width="1" height="1" fill="#3e3a3b"/>
    <rect x="0" y="54" width="1" height="1" fill="#3e3a3b"/>
    <rect x="26" y="54" width="12" height="1" fill="#3e3a3b"/>
    <rect x="82" y="54" width="1" height="1" fill="#3e3a3b"/>
    <rect x="87" y="54" width="1" height="1" fill="#3e3a3b"/>
    <rect x="90" y="54" width="11" height="1" fill="#3e3a3b"/>
    <rect x="171" y="54" width="1" height="1" fill="#3e3a3b"/>
    <rect x="0" y="55" width="1" height="1" fill="#3e3a3b"/>
    <rect x="24" y="55" width="3" height="1" fill="#3e3a3b"/>
    <rect x="31" y="55" width="2" height="1" fill="#3e3a3b"/>
    <rect x="37" y="55" width="3" height="1" fill="#3e3a3b"/>
    <rect x="82" y="55" width="1" height="1" fill="#3e3a3b"/>
    <rect x="86" y="55" width="4" height="1" fill="#3e3a3b"/>
    <rect x="99" y="55" width="4" height="1" fill="#3e3a3b"/>
    <rect x="171" y="55" width="1" height="1" fill="#3e3a3b"/>
    <rect x="0" y="56" width="1" height="1" fill="#3e3a3b"/>
    <rect x="18" y="56" width="1" height="1" fill="#3e3a3b"/>
    <rect x="23" y="56" width="1" height="1" fill="#3e3a3b"/>
    <rect x="26" y="56" width="1" height="1" fill="#3e3a3b"/>
    <rect x="39" y="56" width="2" height="1" fill="#3e3a3b"/>
    <rect x="43" y="56" width="1" height="1" fill="#3e3a3b"/>
    <rect x="46" y="56" width="1" height="1" fill="#3e3a3b"/>
    <rect x="82" y="56" width="1" height="1" fill="#3e3a3b"/>
    <rect x="85" y="56" width="2" height="1" fill="#3e3a3b"/>
    <rect x="88" y="56" width="1" height="1" fill="#3e3a3b"/>
    <rect x="99" y="56" width="1" height="1" fill="#3e3a3b"/>
    <rect x="102" y="56" width="1" height="1" fill="#3e3a3b"/>
    <rect x="171" y="56" width="1" height="1" fill="#3e3a3b"/>
    <rect x="0" y="57" width="1" height="1" fill="#3e3a3b"/>
    <rect x="20" y="57" width="1" height="1" fill="#3e3a3b"/>
    <rect x="23" y="57" width="1" height="1" fill="#3e3a3b"/>
    <rect x="27" y="57" width="2" height="1" fill="#3e3a3b"/>
    <rect x="36" y="57" width="1" height="1" fill="#3e3a3b"/>
    <rect x="39" y="57" width="3" height="1" fill="#3e3a3b"/>
    <rect x="46" y="57" width="1" height="1" fill="#3e3a3b"/>
    <rect x="80" y="57" width="1" height="1" fill="#3e3a3b"/>
    <rect x="84" y="57" width="1" height="1" fill="#3e3a3b"/>
    <rect x="86" y="57" width="1" height="1" fill="#3e3a3b"/>
    <rect x="92" y="57" width="1" height="1" fill="#3e3a3b"/>
    <rect x="102" y="57" width="2" height="1" fill="#3e3a3b"/>
    <rect x="171" y="57" width="1" height="1" fill="#3e3a3b"/>
    <rect x="0" y="58" width="1" height="1" fill="#3e3a3b"/>
    <rect x="22" y="58" width="3" height="1" fill="#3e3a3b"/>
    <rect x="29" y="58" width="1" height="1" fill="#3e3a3b"/>
    <rect x="32" y="58" width="1" height="1" fill="#3e3a3b"/>
    <rect x="38" y="58" width="3" height="1" fill="#3e3a3b"/>
    <rect x="81" y="58" width="2" height="1" fill="#3e3a3b"/>
    <rect x="86" y="58" width="2" height="1" fill="#3e3a3b"/>
    <rect x="100" y="58" width="3" height="1" fill="#3e3a3b"/>
    <rect x="171" y="58" width="1" height="1" fill="#3e3a3b"/>
    <rect x="0" y="59" width="1" height="1" fill="#3e3a3b"/>
    <rect x="25" y="59" width="6" height="1" fill="#3e3a3b"/>
    <rect x="33" y="59" width="6" height="1" fill="#3e3a3b"/>
    <rect x="84" y="59" width="1" height="1" fill="#3e3a3b"/>
    <rect x="87" y="59" width="6" height="1" fill="#3e3a3b"/>
    <rect x="97" y="59" width="5" height="1" fill="#3e3a3b"/>
    <rect x="103" y="59" width="1" height="1" fill="#3e3a3b"/>
    <rect x="171" y="59" width="1" height="1" fill="#3e3a3b"/>
    <rect x="0" y="60" width="1" height="1" fill="#3e3a3b"/>
    <rect x="17" y="60" width="1" height="1" fill="#3e3a3b"/>
    <rect x="23" y="60" width="1" height="1" fill="#3e3a3b"/>
    <rect x="25" y="60" width="1" height="1" fill="#3e3a3b"/>
    <rect x="30" y="60" width="4" height="1" fill="#3e3a3b"/>
    <rect x="40" y="60" width="2" height="1" fill="#3e3a3b"/>
    <rect x="46" y="60" width="1" height="1" fill="#3e3a3b"/>
    <rect x="81" y="60" width="1" height="1" fill="#3e3a3b"/>
    <rect x="83" y="60" width="1" height="1" fill="#3e3a3b"/>
    <rect x="88" y="60" width="1" height="1" fill="#3e3a3b"/>
    <rect x="91" y="60" width="7" height="1" fill="#3e3a3b"/>
    <rect x="100" y="60" width="1" height="1" fill="#3e3a3b"/>
    <rect x="171" y="60" width="1" height="1" fill="#3e3a3b"/>
    <rect x="0" y="61" width="1" height="1" fill="#3e3a3b"/>
    <rect x="21" y="61" width="1" height="1" fill="#3e3a3b"/>
    <rect x="24" y="61" width="1" height="1" fill="#3e3a3b"/>
    <rect x="28" y="61" width="2" height="1" fill="#3e3a3b"/>
    <rect x="33" y="61" width="1" height="1" fill="#3e3a3b"/>
    <rect x="35" y="61" width="1" height="1" fill="#3e3a3b"/>
    <rect x="38" y="61" width="1" height="1" fill="#3e3a3b"/>
    <rect x="43" y="61" width="1" height="1" fill="#3e3a3b"/>
    <rect x="82" y="61" width="1" height="1" fill="#3e3a3b"/>
    <rect x="87" y="61" width="1" height="1" fill="#3e3a3b"/>
    <rect x="89" y="61" width="1" height="1" fill="#3e3a3b"/>
    <rect x="91" y="61" width="1" height="1" fill="#3e3a3b"/>
    <rect x="98" y="61" width="1" height="1" fill="#3e3a3b"/>
    <rect x="102" y="61" width="1" height="1" fill="#3e3a3b"/>
    <rect x="171" y="61" width="1" height="1" fill="#3e3a3b"/>
    <rect x="0" y="62" width="1" height="1" fill="#3e3a3b"/>
    <rect x="23" y="62" width="1" height="1" fill="#3e3a3b"/>
    <rect x="37" y="62" width="1" height="1" fill="#3e3a3b"/>
    <rect x="40" y="62" width="1" height="1" fill="#3e3a3b"/>
    <rect x="82" y="62" width="1" height="1" fill="#3e3a3b"/>
    <rect x="92" y="62" width="1" height="1" fill="#3e3a3b"/>
    <rect x="99" y="62" width="1" height="1" fill="#3e3a3b"/>
    <rect x="101" y="62" width="1" height="1" fill="#3e3a3b"/>
    <rect x="171" y="62" width="1" height="1" fill="#3e3a3b"/>
    <rect x="0" y="63" width="1" height="1" fill="#3e3a3b"/>
    <rect x="27" y="63" width="1" height="1" fill="#3e3a3b"/>
    <rect x="30" y="63" width="1" height="1" fill="#3e3a3b"/>
    <rect x="35" y="63" width="1" height="1" fill="#3e3a3b"/>
    <rect x="97" y="63" width="1" height="1" fill="#3e3a3b"/>
    <rect x="171" y="63" width="1" height="1" fill="#3e3a3b"/>
    <rect x="0" y="64" width="1" height="1" fill="#3e3a3b"/>
    <rect x="171" y="64" width="1" height="1" fill="#3e3a3b"/>
    <rect x="0" y="65" width="1" height="1" fill="#3e3a3b"/>
    <rect x="5" y="65" width="1" height="1" fill="#3e3a3b"/>
    <rect x="171" y="65" width="1" height="1" fill="#3e3a3b"/>
    <rect x="0" y="66" width="1" height="1" fill="#3e3a3b"/>
    <rect x="3" y="66" width="1" height="1" fill="#3e3a3b"/>
    <rect x="169" y="66" width="1" height="1" fill="#3e3a3b"/>
    <rect x="171" y="66" width="1" height="1" fill="#3e3a3b"/>
    <rect x="0" y="67" width="2" height="1" fill="#3e3a3b"/>
    <rect x="171" y="67" width="1" height="1" fill="#3e3a3b"/>
    <rect x="0" y="68" width="172" height="1" fill="#3e3a3b"/>
  </g>
</svg>