<?xml version="1.0" encoding="UTF-8"?>
<svg xmlns="http://www.w3.org/2000/svg" viewBox="0 0 172 65" width="172" height="65">
  <!-- Auto-converted from legend-2681.png -->
  <rect x="0" y="0" width="172" height="65" fill="none"/>
  <g fill="#22324e" stroke="none">
    <rect x="0" y="0" width="172" height="1" fill="#22324e"/>
    <rect x="0" y="1" width="1" height="1" fill="#22324e"/>
    <rect x="171" y="1" width="1" height="1" fill="#22324e"/>
    <rect x="0" y="2" width="1" height="1" fill="#22324e"/>
    <rect x="171" y="2" width="1" height="1" fill="#22324e"/>
    <rect x="0" y="3" width="1" height="1" fill="#22324e"/>
    <rect x="171" y="3" width="1" height="1" fill="#22324e"/>
    <rect x="0" y="4" width="1" height="1" fill="#22324e"/>
    <rect x="20" y="4" width="1" height="1" fill="#22324e"/>
    <rect x="171" y="4" width="1" height="1" fill="#22324e"/>
    <rect x="0" y="5" width="1" height="1" fill="#22324e"/>
    <rect x="10" y="5" width="2" height="1" fill="#22324e"/>
    <rect x="21" y="5" width="1" height="1" fill="#22324e"/>
    <rect x="171" y="5" width="1" height="1" fill="#22324e"/>
    <rect x="0" y="6" width="1" height="1" fill="#22324e"/>
    <rect x="10" y="6" width="4" height="1" fill="#22324e"/>
    <rect x="21" y="6" width="2" height="1" fill="#22324e"/>
    <rect x="171" y="6" width="1" height="1" fill="#22324e"/>
    <rect x="0" y="7" width="1" height="1" fill="#22324e"/>
    <rect x="10" y="7" width="4" height="1" fill="#22324e"/>
    <rect x="22" y="7" width="2" height="1" fill="#22324e"/>
    <rect x="171" y="7" width="1" height="1" fill="#22324e"/>
    <rect x="0" y="8" width="1" height="1" fill="#22324e"/>
    <rect x="8" y="8" width="1" height="1" fill="#22324e"/>
    <rect x="10" y="8" width="5" height="1" fill="#22324e"/>
    <rect x="23" y="8" width="1" height="1" fill="#22324e"/>
    <rect x="171" y="8" width="1" height="1" fill="#22324e"/>
    <rect x="0" y="9" width="1" height="1" fill="#22324e"/>
    <rect x="8" y="9" width="1" height="1" fill="#22324e"/>
    <rect x="11" y="9" width="3" height="1" fill="#22324e"/>
    <rect x="24" y="9" width="1" height="1" fill="#22324e"/>
    <rect x="171" y="9" width="1" height="1" fill="#22324e"/>
    <rect x="0" y="10" width="1" height="1" fill="#22324e"/>
    <rect x="8" y="10" width="1" height="1" fill="#22324e"/>
    <rect x="11" y="10" width="4" height="1" fill="#22324e"/>
    <rect x="24" y="10" width="1" height="1" fill="#22324e"/>
    <rect x="171" y="10" width="1" height="1" fill="#22324e"/>
    <rect x="0" y="11" width="1" height="1" fill="#22324e"/>
    <rect x="8" y="11" width="2" height="1" fill="#22324e"/>
    <rect x="11" y="11" width="4" height="1" fill="#22324e"/>
    <rect x="24" y="11" width="1" height="1" fill="#22324e"/>
    <rect x="171" y="11" width="1" height="1" fill="#22324e"/>
    <rect x="0" y="12" width="1" height="1" fill="#22324e"/>
    <rect x="9" y="12" width="1" height="1" fill="#22324e"/>
    <rect x="12" y="12" width="4" height="1" fill="#22324e"/>
    <rect x="25" y="12" width="1" height="1" fill="#22324e"/>
    <rect x="171" y="12" width="1" height="1" fill="#22324e"/>
    <rect x="0" y="13" width="1" height="1" fill="#22324e"/>
    <rect x="9" y="13" width="2" height="1" fill="#22324e"/>
    <rect x="12" y="13" width="1" height="1" fill="#22324e"/>
    <rect x="15" y="13" width="1" height="1" fill="#22324e"/>
    <rect x="25" y="13" width="1" height="1" fill="#22324e"/>
    <rect x="171" y="13" width="1" height="1" fill="#22324e"/>
    <rect x="0" y="14" width="1" height="1" fill="#22324e"/>
    <rect x="10" y="14" width="2" height="1" fill="#22324e"/>
    <rect x="25" y="14" width="1" height="1" fill="#22324e"/>
    <rect x="44" y="14" width="6" height="1" fill="#22324e"/>
    <rect x="171" y="14" width="1" height="1" fill="#22324e"/>
    <rect x="0" y="15" width="1" height="1" fill="#22324e"/>
    <rect x="11" y="15" width="1" height="1" fill="#22324e"/>
    <rect x="25" y="15" width="1" height="1" fill="#22324e"/>
    <rect x="43" y="15" width="2" height="1" fill="#22324e"/>
    <rect x="49" y="15" width="2" height="1" fill="#22324e"/>
    <rect x="171" y="15" width="1" height="1" fill="#22324e"/>
    <rect x="0" y="16" width="1" height="1" fill="#22324e"/>
    <rect x="12" y="16" width="2" height="1" fill="#22324e"/>
    <rect x="18" y="16" width="2" height="1" fill="#22324e"/>
    <rect x="22" y="16" width="1" height="1" fill="#22324e"/>
    <rect x="26" y="16" width="1" height="1" fill="#22324e"/>
    <rect x="43" y="16" width="5" height="1" fill="#22324e"/>
    <rect x="50" y="16" width="1" height="1" fill="#22324e"/>
    <rect x="171" y="16" width="1" height="1" fill="#22324e"/>
    <rect x="0" y="17" width="1" height="1" fill="#22324e"/>
    <rect x="13" y="17" width="1" height="1" fill="#22324e"/>
    <rect x="19" y="17" width="4" height="1" fill="#22324e"/>
    <rect x="26" y="17" width="1" height="1" fill="#22324e"/>
    <rect x="43" y="17" width="2" height="1" fill="#22324e"/>
    <rect x="48" y="17" width="2" height="1" fill="#22324e"/>
    <rect x="51" y="17" width="1" height="1" fill="#22324e"/>
    <rect x="171" y="17" width="1" height="1" fill="#22324e"/>
    <rect x="0" y="18" width="1" height="1" fill="#22324e"/>
    <rect x="14" y="18" width="2" height="1" fill="#22324e"/>
    <rect x="19" y="18" width="4" height="1" fill="#22324e"/>
    <rect x="26" y="18" width="1" height="1" fill="#22324e"/>
    <rect x="43" y="18" width="2" height="1" fill="#22324e"/>
    <rect x="49" y="18" width="1" height="1" fill="#22324e"/>
    <rect x="51" y="18" width="1" height="1" fill="#22324e"/>
    <rect x="171" y="18" width="1" height="1" fill="#22324e"/>
    <rect x="0" y="19" width="1" height="1" fill="#22324e"/>
    <rect x="16" y="19" width="1" height="1" fill="#22324e"/>
    <rect x="19" y="19" width="5" height="1" fill="#22324e"/>
    <rect x="26" y="19" width="1" height="1" fill="#22324e"/>
    <rect x="43" y="19" width="1" height="1" fill="#22324e"/>
    <rect x="49" y="19" width="3" height="1" fill="#22324e"/>
    <rect x="150" y="19" width="1" height="1" fill="#22324e"/>
    <rect x="154" y="19" width="1" height="1" fill="#22324e"/>
    <rect x="171" y="19" width="1" height="1" fill="#22324e"/>
    <rect x="0" y="20" width="1" height="1" fill="#22324e"/>
    <rect x="16" y="20" width="1" height="1" fill="#22324e"/>
    <rect x="20" y="20" width="4" height="1" fill="#22324e"/>
    <rect x="26" y="20" width="1" height="1" fill="#22324e"/>
    <rect x="43" y="20" width="1" height="1" fill="#22324e"/>
    <rect x="50" y="20" width="1" height="1" fill="#22324e"/>
    <rect x="150" y="20" width="5" height="1" fill="#22324e"/>
    <rect x="171" y="20" width="1" height="1" fill="#22324e"/>
    <rect x="0" y="21" width="1" height="1" fill="#22324e"/>
    <rect x="17" y="21" width="1" height="1" fill="#22324e"/>
    <rect x="20" y="21" width="4" height="1" fill="#22324e"/>
    <rect x="26" y="21" width="2" height="1" fill="#22324e"/>
    <rect x="42" y="21" width="1" height="1" fill="#22324e"/>
    <rect x="50" y="21" width="1" height="1" fill="#22324e"/>
    <rect x="150" y="21" width="5" height="1" fill="#22324e"/>
    <rect x="171" y="21" width="1" height="1" fill="#22324e"/>
    <rect x="0" y="22" width="1" height="1" fill="#22324e"/>
    <rect x="18" y="22" width="1" height="1" fill="#22324e"/>
    <rect x="21" y="22" width="2" height="1" fill="#22324e"/>
    <rect x="24" y="22" width="1" height="1" fill="#22324e"/>
    <rect x="27" y="22" width="1" height="1" fill="#22324e"/>
    <rect x="41" y="22" width="2" height="1" fill="#22324e"/>
    <rect x="50" y="22" width="1" height="1" fill="#22324e"/>
    <rect x="68" y="22" width="1" height="1" fill="#22324e"/>
    <rect x="151" y="22" width="5" height="1" fill="#22324e"/>
    <rect x="165" y="22" width="1" height="1" fill="#22324e"/>
    <rect x="171" y="22" width="1" height="1" fill="#22324e"/>
    <rect x="0" y="23" width="1" height="1" fill="#22324e"/>
    <rect x="19" y="23" width="3" height="1" fill="#22324e"/>
    <rect x="23" y="23" width="2" height="1" fill="#22324e"/>
    <rect x="27" y="23" width="1" height="1" fill="#22324e"/>
    <rect x="41" y="23" width="1" height="1" fill="#22324e"/>
    <rect x="50" y="23" width="1" height="1" fill="#22324e"/>
    <rect x="54" y="23" width="3" height="1" fill="#22324e"/>
    <rect x="68" y="23" width="1" height="1" fill="#22324e"/>
    <rect x="151" y="23" width="5" height="1" fill="#22324e"/>
    <rect x="164" y="23" width="1" height="1" fill="#22324e"/>
    <rect x="171" y="23" width="1" height="1" fill="#22324e"/>
    <rect x="0" y="24" width="1" height="1" fill="#22324e"/>
    <rect x="20" y="24" width="2" height="1" fill="#22324e"/>
    <rect x="28" y="24" width="1" height="1" fill="#22324e"/>
    <rect x="40" y="24" width="2" height="1" fill="#22324e"/>
    <rect x="50" y="24" width="2" height="1" fill="#22324e"/>
    <rect x="54" y="24" width="5" height="1" fill="#22324e"/>
    <rect x="68" y="24" width="1" height="1" fill="#22324e"/>
    <rect x="152" y="24" width="5" height="1" fill="#22324e"/>
    <rect x="163" y="24" width="2" height="1" fill="#22324e"/>
    <rect x="171" y="24" width="1" height="1" fill="#22324e"/>
    <rect x="0" y="25" width="1" height="1" fill="#22324e"/>
    <rect x="21" y="25" width="2" height="1" fill="#22324e"/>
    <rect x="29" y="25" width="1" height="1" fill="#22324e"/>
    <rect x="40" y="25" width="2" height="1" fill="#22324e"/>
    <rect x="50" y="25" width="2" height="1" fill="#22324e"/>
    <rect x="54" y="25" width="3" height="1" fill="#22324e"/>
    <rect x="58" y="25" width="1" height="1" fill="#22324e"/>
    <rect x="68" y="25" width="1" height="1" fill="#22324e"/>
    <rect x="119" y="25" width="2" height="1" fill="#22324e"/>
    <rect x="152" y="25" width="5" height="1" fill="#22324e"/>
    <rect x="163" y="25" width="1" height="1" fill="#22324e"/>
    <rect x="171" y="25" width="1" height="1" fill="#22324e"/>
    <rect x="0" y="26" width="1" height="1" fill="#22324e"/>
    <rect x="22" y="26" width="4" height="1" fill="#22324e"/>
    <rect x="29" y="26" width="1" height="1" fill="#22324e"/>
    <rect x="40" y="26" width="2" height="1" fill="#22324e"/>
    <rect x="50" y="26" width="2" height="1" fill="#22324e"/>
    <rect x="54" y="26" width="5" height="1" fill="#22324e"/>
    <rect x="68" y="26" width="2" height="1" fill="#22324e"/>
    <rect x="118" y="26" width="5" height="1" fill="#22324e"/>
    <rect x="153" y="26" width="2" height="1" fill="#22324e"/>
    <rect x="156" y="26" width="2" height="1" fill="#22324e"/>
    <rect x="162" y="26" width="1" height="1" fill="#22324e"/>
    <rect x="171" y="26" width="1" height="1" fill="#22324e"/>
    <rect x="0" y="27" width="1" height="1" fill="#22324e"/>
    <rect x="25" y="27" width="4" height="1" fill="#22324e"/>
    <rect x="30" y="27" width="2" height="1" fill="#22324e"/>
    <rect x="39" y="27" width="3" height="1" fill="#22324e"/>
    <rect x="44" y="27" width="2" height="1" fill="#22324e"/>
    <rect x="47" y="27" width="1" height="1" fill="#22324e"/>
    <rect x="50" y="27" width="1" height="1" fill="#22324e"/>
    <rect x="52" y="27" width="1" height="1" fill="#22324e"/>
    <rect x="55" y="27" width="4" height="1" fill="#22324e"/>
    <rect x="69" y="27" width="1" height="1" fill="#22324e"/>
    <rect x="118" y="27" width="5" height="1" fill="#22324e"/>
    <rect x="153" y="27" width="1" height="1" fill="#22324e"/>
    <rect x="155" y="27" width="3" height="1" fill="#22324e"/>
    <rect x="161" y="27" width="1" height="1" fill="#22324e"/>
    <rect x="171" y="27" width="1" height="1" fill="#22324e"/>
    <rect x="0" y="28" width="1" height="1" fill="#22324e"/>
    <rect x="29" y="28" width="1" height="1" fill="#22324e"/>
    <rect x="31" y="28" width="1" height="1" fill="#22324e"/>
    <rect x="38" y="28" width="4" height="1" fill="#22324e"/>
    <rect x="44" y="28" width="2" height="1" fill="#22324e"/>
    <rect x="50" y="28" width="1" height="1" fill="#22324e"/>
    <rect x="52" y="28" width="1" height="1" fill="#22324e"/>
    <rect x="55" y="28" width="4" height="1" fill="#22324e"/>
    <rect x="69" y="28" width="1" height="1" fill="#22324e"/>
    <rect x="118" y="28" width="6" height="1" fill="#22324e"/>
    <rect x="157" y="28" width="4" height="1" fill="#22324e"/>
    <rect x="171" y="28" width="1" height="1" fill="#22324e"/>
    <rect x="0" y="29" width="1" height="1" fill="#22324e"/>
    <rect x="6" y="29" width="5" height="1" fill="#22324e"/>
    <rect x="30" y="29" width="1" height="1" fill="#22324e"/>
    <rect x="32" y="29" width="1" height="1" fill="#22324e"/>
    <rect x="35" y="29" width="6" height="1" fill="#22324e"/>
    <rect x="44" y="29" width="1" height="1" fill="#22324e"/>
    <rect x="46" y="29" width="3" height="1" fill="#22324e"/>
    <rect x="50" y="29" width="1" height="1" fill="#22324e"/>
    <rect x="52" y="29" width="1" height="1" fill="#22324e"/>
    <rect x="56" y="29" width="4" height="1" fill="#22324e"/>
    <rect x="69" y="29" width="1" height="1" fill="#22324e"/>
    <rect x="119" y="29" width="5" height="1" fill="#22324e"/>
    <rect x="156" y="29" width="2" height="1" fill="#22324e"/>
    <rect x="166" y="29" width="1" height="1" fill="#22324e"/>
    <rect x="171" y="29" width="1" height="1" fill="#22324e"/>
    <rect x="0" y="30" width="1" height="1" fill="#22324e"/>
    <rect x="10" y="30" width="2" height="1" fill="#22324e"/>
    <rect x="26" y="30" width="9" height="1" fill="#22324e"/>
    <rect x="36" y="30" width="3" height="1" fill="#22324e"/>
    <rect x="47" y="30" width="1" height="1" fill="#22324e"/>
    <rect x="50" y="30" width="1" height="1" fill="#22324e"/>
    <rect x="52" y="30" width="1" height="1" fill="#22324e"/>
    <rect x="56" y="30" width="4" height="1" fill="#22324e"/>
    <rect x="69" y="30" width="1" height="1" fill="#22324e"/>
    <rect x="120" y="30" width="4" height="1" fill="#22324e"/>
    <rect x="154" y="30" width="1" height="1" fill="#22324e"/>
    <rect x="156" y="30" width="1" height="1" fill="#22324e"/>
    <rect x="165" y="30" width="1" height="1" fill="#22324e"/>
    <rect x="171" y="30" width="1" height="1" fill="#22324e"/>
    <rect x="0" y="31" width="1" height="1" fill="#22324e"/>
    <rect x="11" y="31" width="2" height="1" fill="#22324e"/>
    <rect x="25" y="31" width="2" height="1" fill="#22324e"/>
    <rect x="34" y="31" width="2" height="1" fill="#22324e"/>
    <rect x="51" y="31" width="2" height="1" fill="#22324e"/>
    <rect x="56" y="31" width="2" height="1" fill="#22324e"/>
    <rect x="59" y="31" width="1" height="1" fill="#22324e"/>
    <rect x="69" y="31" width="1" height="1" fill="#22324e"/>
    <rect x="120" y="31" width="4" height="1" fill="#22324e"/>
    <rect x="152" y="31" width="4" height="1" fill="#22324e"/>
    <rect x="164" y="31" width="1" height="1" fill="#22324e"/>
    <rect x="171" y="31" width="1" height="1" fill="#22324e"/>
    <rect x="0" y="32" width="1" height="1" fill="#22324e"/>
    <rect x="12" y="32" width="1" height="1" fill="#22324e"/>
    <rect x="25" y="32" width="1" height="1" fill="#22324e"/>
    <rect x="51" y="32" width="2" height="1" fill="#22324e"/>
    <rect x="56" y="32" width="2" height="1" fill="#22324e"/>
    <rect x="59" y="32" width="2" height="1" fill="#22324e"/>
    <rect x="70" y="32" width="1" height="1" fill="#22324e"/>
    <rect x="120" y="32" width="4" height="1" fill="#22324e"/>
    <rect x="147" y="32" width="5" height="1" fill="#22324e"/>
    <rect x="162" y="32" width="2" height="1" fill="#22324e"/>
    <rect x="171" y="32" width="1" height="1" fill="#22324e"/>
    <rect x="0" y="33" width="1" height="1" fill="#22324e"/>
    <rect x="12" y="33" width="1" height="1" fill="#22324e"/>
    <rect x="24" y="33" width="2" height="1" fill="#22324e"/>
    <rect x="51" y="33" width="2" height="1" fill="#22324e"/>
    <rect x="70" y="33" width="1" height="1" fill="#22324e"/>
    <rect x="121" y="33" width="4" height="1" fill="#22324e"/>
    <rect x="144" y="33" width="4" height="1" fill="#22324e"/>
    <rect x="151" y="33" width="2" height="1" fill="#22324e"/>
    <rect x="162" y="33" width="1" height="1" fill="#22324e"/>
    <rect x="171" y="33" width="1" height="1" fill="#22324e"/>
    <rect x="0" y="34" width="1" height="1" fill="#22324e"/>
    <rect x="13" y="34" width="1" height="1" fill="#22324e"/>
    <rect x="24" y="34" width="1" height="1" fill="#22324e"/>
    <rect x="52" y="34" width="2" height="1" fill="#22324e"/>
    <rect x="70" y="34" width="1" height="1" fill="#22324e"/>
    <rect x="78" y="34" width="1" height="1" fill="#22324e"/>
    <rect x="82" y="34" width="1" height="1" fill="#22324e"/>
    <rect x="120" y="34" width="2" height="1" fill="#22324e"/>
    <rect x="124" y="34" width="20" height="1" fill="#22324e"/>
    <rect x="145" y="34" width="2" height="1" fill="#22324e"/>
    <rect x="151" y="34" width="2" height="1" fill="#22324e"/>
    <rect x="161" y="34" width="1" height="1" fill="#22324e"/>
    <rect x="171" y="34" width="1" height="1" fill="#22324e"/>
    <rect x="0" y="35" width="1" height="1" fill="#22324e"/>
    <rect x="14" y="35" width="2" height="1" fill="#22324e"/>
    <rect x="23" y="35" width="2" height="1" fill="#22324e"/>
    <rect x="52" y="35" width="2" height="1" fill="#22324e"/>
    <rect x="71" y="35" width="1" height="1" fill="#22324e"/>
    <rect x="79" y="35" width="4" height="1" fill="#22324e"/>
    <rect x="121" y="35" width="6" height="1" fill="#22324e"/>
    <rect x="131" y="35" width="2" height="1" fill="#22324e"/>
    <rect x="136" y="35" width="2" height="1" fill="#22324e"/>
    <rect x="142" y="35" width="2" height="1" fill="#22324e"/>
    <rect x="146" y="35" width="1" height="1" fill="#22324e"/>
    <rect x="148" y="35" width="2" height="1" fill="#22324e"/>
    <rect x="160" y="35" width="2" height="1" fill="#22324e"/>
    <rect x="171" y="35" width="1" height="1" fill="#22324e"/>
    <rect x="0" y="36" width="1" height="1" fill="#22324e"/>
    <rect x="16" y="36" width="2" height="1" fill="#22324e"/>
    <rect x="21" y="36" width="3" height="1" fill="#22324e"/>
    <rect x="52" y="36" width="2" height="1" fill="#22324e"/>
    <rect x="71" y="36" width="2" height="1" fill="#22324e"/>
    <rect x="78" y="36" width="5" height="1" fill="#22324e"/>
    <rect x="120" y="36" width="4" height="1" fill="#22324e"/>
    <rect x="125" y="36" width="2" height="1" fill="#22324e"/>
    <rect x="128" y="36" width="1" height="1" fill="#22324e"/>
    <rect x="131" y="36" width="1" height="1" fill="#22324e"/>
    <rect x="134" y="36" width="1" height="1" fill="#22324e"/>
    <rect x="137" y="36" width="1" height="1" fill="#22324e"/>
    <rect x="139" y="36" width="2" height="1" fill="#22324e"/>
    <rect x="148" y="36" width="2" height="1" fill="#22324e"/>
    <rect x="159" y="36" width="2" height="1" fill="#22324e"/>
    <rect x="171" y="36" width="1" height="1" fill="#22324e"/>
    <rect x="0" y="37" width="1" height="1" fill="#22324e"/>
    <rect x="18" y="37" width="3" height="1" fill="#22324e"/>
    <rect x="23" y="37" width="1" height="1" fill="#22324e"/>
    <rect x="53" y="37" width="3" height="1" fill="#22324e"/>
    <rect x="72" y="37" width="1" height="1" fill="#22324e"/>
    <rect x="79" y="37" width="5" height="1" fill="#22324e"/>
    <rect x="118" y="37" width="2" height="1" fill="#22324e"/>
    <rect x="122" y="37" width="2" height="1" fill="#22324e"/>
    <rect x="128" y="37" width="2" height="1" fill="#22324e"/>
    <rect x="133" y="37" width="2" height="1" fill="#22324e"/>
    <rect x="139" y="37" width="3" height="1" fill="#22324e"/>
    <rect x="146" y="37" width="1" height="1" fill="#22324e"/>
    <rect x="158" y="37" width="1" height="1" fill="#22324e"/>
    <rect x="171" y="37" width="1" height="1" fill="#22324e"/>
    <rect x="0" y="38" width="1" height="1" fill="#22324e"/>
    <rect x="23" y="38" width="1" height="1" fill="#22324e"/>
    <rect x="53" y="38" width="7" height="1" fill="#22324e"/>
    <rect x="72" y="38" width="3" height="1" fill="#22324e"/>
    <rect x="79" y="38" width="5" height="1" fill="#22324e"/>
    <rect x="116" y="38" width="2" height="1" fill="#22324e"/>
    <rect x="119" y="38" width="2" height="1" fill="#22324e"/>
    <rect x="125" y="38" width="2" height="1" fill="#22324e"/>
    <rect x="128" y="38" width="1" height="1" fill="#22324e"/>
    <rect x="131" y="38" width="2" height="1" fill="#22324e"/>
    <rect x="137" y="38" width="1" height="1" fill="#22324e"/>
    <rect x="139" y="38" width="3" height="1" fill="#22324e"/>
    <rect x="145" y="38" width="3" height="1" fill="#22324e"/>
    <rect x="151" y="38" width="7" height="1" fill="#22324e"/>
    <rect x="171" y="38" width="1" height="1" fill="#22324e"/>
    <rect x="0" y="39" width="1" height="1" fill="#22324e"/>
    <rect x="23" y="39" width="1" height="1" fill="#22324e"/>
    <rect x="54" y="39" width="2" height="1" fill="#22324e"/>
    <rect x="58" y="39" width="5" height="1" fill="#22324e"/>
    <rect x="73" y="39" width="1" height="1" fill="#22324e"/>
    <rect x="75" y="39" width="1" height="1" fill="#22324e"/>
    <rect x="80" y="39" width="5" height="1" fill="#22324e"/>
    <rect x="114" y="39" width="2" height="1" fill="#22324e"/>
    <rect x="120" y="39" width="1" height="1" fill="#22324e"/>
    <rect x="125" y="39" width="2" height="1" fill="#22324e"/>
    <rect x="131" y="39" width="2" height="1" fill="#22324e"/>
    <rect x="137" y="39" width="1" height="1" fill="#22324e"/>
    <rect x="145" y="39" width="2" height="1" fill="#22324e"/>
    <rect x="148" y="39" width="3" height="1" fill="#22324e"/>
    <rect x="171" y="39" width="1" height="1" fill="#22324e"/>
    <rect x="0" y="40" width="1" height="1" fill="#22324e"/>
    <rect x="23" y="40" width="1" height="1" fill="#22324e"/>
    <rect x="55" y="40" width="2" height="1" fill="#22324e"/>
    <rect x="61" y="40" width="3" height="1" fill="#22324e"/>
    <rect x="73" y="40" width="2" height="1" fill="#22324e"/>
    <rect x="76" y="40" width="1" height="1" fill="#22324e"/>
    <rect x="80" y="40" width="5" height="1" fill="#22324e"/>
    <rect x="111" y="40" width="3" height="1" fill="#22324e"/>
    <rect x="127" y="40" width="21" height="1" fill="#22324e"/>
    <rect x="171" y="40" width="1" height="1" fill="#22324e"/>
    <rect x="0" y="41" width="1" height="1" fill="#22324e"/>
    <rect x="22" y="41" width="1" height="1" fill="#22324e"/>
    <rect x="56" y="41" width="6" height="1" fill="#22324e"/>
    <rect x="63" y="41" width="4" height="1" fill="#22324e"/>
    <rect x="74" y="41" width="2" height="1" fill="#22324e"/>
    <rect x="77" y="41" width="1" height="1" fill="#22324e"/>
    <rect x="81" y="41" width="2" height="1" fill="#22324e"/>
    <rect x="84" y="41" width="2" height="1" fill="#22324e"/>
    <rect x="109" y="41" width="2" height="1" fill="#22324e"/>
    <rect x="123" y="41" width="5" height="1" fill="#22324e"/>
    <rect x="171" y="41" width="1" height="1" fill="#22324e"/>
    <rect x="0" y="42" width="1" height="1" fill="#22324e"/>
    <rect x="22" y="42" width="1" height="1" fill="#22324e"/>
    <rect x="60" y="42" width="2" height="1" fill="#22324e"/>
    <rect x="64" y="42" width="4" height="1" fill="#22324e"/>
    <rect x="75" y="42" width="1" height="1" fill="#22324e"/>
    <rect x="78" y="42" width="1" height="1" fill="#22324e"/>
    <rect x="81" y="42" width="2" height="1" fill="#22324e"/>
    <rect x="84" y="42" width="2" height="1" fill="#22324e"/>
    <rect x="99" y="42" width="1" height="1" fill="#22324e"/>
    <rect x="106" y="42" width="3" height="1" fill="#22324e"/>
    <rect x="114" y="42" width="1" height="1" fill="#22324e"/>
    <rect x="120" y="42" width="3" height="1" fill="#22324e"/>
    <rect x="171" y="42" width="1" height="1" fill="#22324e"/>
    <rect x="0" y="43" width="1" height="1" fill="#22324e"/>
    <rect x="22" y="43" width="1" height="1" fill="#22324e"/>
    <rect x="62" y="43" width="1" height="1" fill="#22324e"/>
    <rect x="68" y="43" width="1" height="1" fill="#22324e"/>
    <rect x="76" y="43" width="1" height="1" fill="#22324e"/>
    <rect x="79" y="43" width="1" height="1" fill="#22324e"/>
    <rect x="85" y="43" width="1" height="1" fill="#22324e"/>
    <rect x="98" y="43" width="2" height="1" fill="#22324e"/>
    <rect x="104" y="43" width="2" height="1" fill="#22324e"/>
    <rect x="107" y="43" width="2" height="1" fill="#22324e"/>
    <rect x="113" y="43" width="5" height="1" fill="#22324e"/>
    <rect x="119" y="43" width="2" height="1" fill="#22324e"/>
    <rect x="171" y="43" width="1" height="1" fill="#22324e"/>
    <rect x="0" y="44" width="1" height="1" fill="#22324e"/>
    <rect x="21" y="44" width="1" height="1" fill="#22324e"/>
    <rect x="63" y="44" width="3" height="1" fill="#22324e"/>
    <rect x="69" y="44" width="3" height="1" fill="#22324e"/>
    <rect x="76" y="44" width="6" height="1" fill="#22324e"/>
    <rect x="92" y="44" width="9" height="1" fill="#22324e"/>
    <rect x="104" y="44" width="3" height="1" fill="#22324e"/>
    <rect x="110" y="44" width="2" height="1" fill="#22324e"/>
    <rect x="113" y="44" width="3" height="1" fill="#22324e"/>
    <rect x="117" y="44" width="3" height="1" fill="#22324e"/>
    <rect x="171" y="44" width="1" height="1" fill="#22324e"/>
    <rect x="0" y="45" width="1" height="1" fill="#22324e"/>
    <rect x="21" y="45" width="1" height="1" fill="#22324e"/>
    <rect x="64" y="45" width="4" height="1" fill="#22324e"/>
    <rect x="72" y="45" width="4" height="1" fill="#22324e"/>
    <rect x="78" y="45" width="2" height="1" fill="#22324e"/>
    <rect x="81" y="45" width="3" height="1" fill="#22324e"/>
    <rect x="88" y="45" width="5" height="1" fill="#22324e"/>
    <rect x="96" y="45" width="2" height="1" fill="#22324e"/>
    <rect x="99" y="45" width="1" height="1" fill="#22324e"/>
    <rect x="101" y="45" width="2" height="1" fill="#22324e"/>
    <rect x="104" y="45" width="2" height="1" fill="#22324e"/>
    <rect x="107" y="45" width="2" height="1" fill="#22324e"/>
    <rect x="110" y="45" width="4" height="1" fill="#22324e"/>
    <rect x="171" y="45" width="1" height="1" fill="#22324e"/>
    <rect x="0" y="46" width="1" height="1" fill="#22324e"/>
    <rect x="20" y="46" width="1" height="1" fill="#22324e"/>
    <rect x="68" y="46" width="3" height="1" fill="#22324e"/>
    <rect x="73" y="46" width="2" height="1" fill="#22324e"/>
    <rect x="78" y="46" width="2" height="1" fill="#22324e"/>
    <rect x="82" y="46" width="7" height="1" fill="#22324e"/>
    <rect x="90" y="46" width="2" height="1" fill="#22324e"/>
    <rect x="96" y="46" width="2" height="1" fill="#22324e"/>
    <rect x="101" y="46" width="3" height="1" fill="#22324e"/>
    <rect x="107" y="46" width="5" height="1" fill="#22324e"/>
    <rect x="171" y="46" width="1" height="1" fill="#22324e"/>
    <rect x="0" y="47" width="1" height="1" fill="#22324e"/>
    <rect x="20" y="47" width="1" height="1" fill="#22324e"/>
    <rect x="71" y="47" width="3" height="1" fill="#22324e"/>
    <rect x="75" y="47" width="3" height="1" fill="#22324e"/>
    <rect x="81" y="47" width="4" height="1" fill="#22324e"/>
    <rect x="87" y="47" width="2" height="1" fill="#22324e"/>
    <rect x="93" y="47" width="2" height="1" fill="#22324e"/>
    <rect x="98" y="47" width="3" height="1" fill="#22324e"/>
    <rect x="102" y="47" width="1" height="1" fill="#22324e"/>
    <rect x="104" y="47" width="3" height="1" fill="#22324e"/>
    <rect x="171" y="47" width="1" height="1" fill="#22324e"/>
    <rect x="0" y="48" width="1" height="1" fill="#22324e"/>
    <rect x="19" y="48" width="1" height="1" fill="#22324e"/>
    <rect x="68" y="48" width="2" height="1" fill="#22324e"/>
    <rect x="73" y="48" width="19" height="1" fill="#22324e"/>
    <rect x="93" y="48" width="1" height="1" fill="#22324e"/>
    <rect x="99" y="48" width="5" height="1" fill="#22324e"/>
    <rect x="171" y="48" width="1" height="1" fill="#22324e"/>
    <rect x="0" y="49" width="1" height="1" fill="#22324e"/>
    <rect x="63" y="49" width="5" height="1" fill="#22324e"/>
    <rect x="71" y="49" width="3" height="1" fill="#22324e"/>
    <rect x="79" y="49" width="1" height="1" fill="#22324e"/>
    <rect x="92" y="49" width="7" height="1" fill="#22324e"/>
    <rect x="171" y="49" width="1" height="1" fill="#22324e"/>
    <rect x="0" y="50" width="1" height="1" fill="#22324e"/>
    <rect x="60" y="50" width="3" height="1" fill="#22324e"/>
    <rect x="64" y="50" width="8" height="1" fill="#22324e"/>
    <rect x="171" y="50" width="1" height="1" fill="#22324e"/>
    <rect x="0" y="51" width="1" height="1" fill="#22324e"/>
    <rect x="52" y="51" width="12" height="1" fill="#22324e"/>
    <rect x="171" y="51" width="1" height="1" fill="#22324e"/>
    <rect x="0" y="52" width="1" height="1" fill="#22324e"/>
    <rect x="50" y="52" width="2" height="1" fill="#22324e"/>
    <rect x="55" y="52" width="2" height="1" fill="#22324e"/>
    <rect x="171" y="52" width="1" height="1" fill="#22324e"/>
    <rect x="0" y="53" width="1" height="1" fill="#22324e"/>
    <rect x="48" y="53" width="2" height="1" fill="#22324e"/>
    <rect x="51" y="53" width="4" height="1" fill="#22324e"/>
    <rect x="171" y="53" width="1" height="1" fill="#22324e"/>
    <rect x="0" y="54" width="1" height="1" fill="#22324e"/>
    <rect x="43" y="54" width="8" height="1" fill="#22324e"/>
    <rect x="171" y="54" width="1" height="1" fill="#22324e"/>
    <rect x="0" y="55" width="1" height="1" fill="#22324e"/>
    <rect x="39" y="55" width="7" height="1" fill="#22324e"/>
    <rect x="171" y="55" width="1" height="1" fill="#22324e"/>
    <rect x="0" y="56" width="1" height="1" fill="#22324e"/>
    <rect x="171" y="56" width="1" height="1" fill="#22324e"/>
    <rect x="0" y="57" width="1" height="1" fill="#22324e"/>
    <rect x="171" y="57" width="1" height="1" fill="#22324e"/>
    <rect x="0" y="58" width="1" height="1" fill="#22324e"/>
    <rect x="171" y="58" width="1" height="1" fill="#22324e"/>
    <rect x="0" y="59" width="1" height="1" fill="#22324e"/>
    <rect x="171" y="59" width="1" height="1" fill="#22324e"/>
    <rect x="0" y="60" width="1" height="1" fill="#22324e"/>
    <rect x="171" y="60" width="1" height="1" fill="#22324e"/>
    <rect x="0" y="61" width="1" height="1" fill="#22324e"/>
    <rect x="171" y="61" width="1" height="1" fill="#22324e"/>
    <rect x="0" y="62" width="1" height="1" fill="#22324e"/>
    <rect x="171" y="62" width="1" height="1" fill="#22324e"/>
    <rect x="0" y="63" width="1" height="1" fill="#22324e"/>
    <rect x="171" y="63" width="1" height="1" fill="#22324e"/>
    <rect x="0" y="64" width="172" height="1" fill="#22324e"/>
  </g>
</svg>