<?xml version="1.0" encoding="UTF-8"?>
<svg xmlns="http://www.w3.org/2000/svg" viewBox="0 0 172 69" width="172" height="69">
  <!-- Auto-converted from legend-1004.png -->
  <rect x="0" y="0" width="172" height="69" fill="none"/>
  <g fill="#231f20" stroke="none">
    <rect x="0" y="0" width="172" height="1" fill="#231f20"/>
    <rect x="0" y="1" width="1" height="1" fill="#231f20"/>
    <rect x="171" y="1" width="1" height="1" fill="#231f20"/>
    <rect x="0" y="2" width="1" height="1" fill="#231f20"/>
    <rect x="171" y="2" width="1" height="1" fill="#231f20"/>
    <rect x="0" y="3" width="1" height="1" fill="#231f20"/>
    <rect x="171" y="3" width="1" height="1" fill="#231f20"/>
    <rect x="0" y="4" width="1" height="1" fill="#231f20"/>
    <rect x="171" y="4" width="1" height="1" fill="#231f20"/>
    <rect x="0" y="5" width="1" height="1" fill="#231f20"/>
    <rect x="171" y="5" width="1" height="1" fill="#231f20"/>
    <rect x="0" y="6" width="1" height="1" fill="#231f20"/>
    <rect x="171" y="6" width="1" height="1" fill="#231f20"/>
    <rect x="0" y="7" width="1" height="1" fill="#231f20"/>
    <rect x="34" y="7" width="1" height="1" fill="#231f20"/>
    <rect x="80" y="7" width="1" height="1" fill="#231f20"/>
    <rect x="126" y="7" width="1" height="1" fill="#231f20"/>
    <rect x="171" y="7" width="1" height="1" fill="#231f20"/>
    <rect x="0" y="8" width="1" height="1" fill="#231f20"/>
    <rect x="32" y="8" width="2" height="1" fill="#231f20"/>
    <rect x="35" y="8" width="2" height="1" fill="#231f20"/>
    <rect x="78" y="8" width="2" height="1" fill="#231f20"/>
    <rect x="81" y="8" width="2" height="1" fill="#231f20"/>
    <rect x="124" y="8" width="2" height="1" fill="#231f20"/>
    <rect x="127" y="8" width="2" height="1" fill="#231f20"/>
    <rect x="171" y="8" width="1" height="1" fill="#231f20"/>
    <rect x="0" y="9" width="1" height="1" fill="#231f20"/>
    <rect x="31" y="9" width="1" height="1" fill="#231f20"/>
    <rect x="37" y="9" width="1" height="1" fill="#231f20"/>
    <rect x="77" y="9" width="1" height="1" fill="#231f20"/>
    <rect x="83" y="9" width="1" height="1" fill="#231f20"/>
    <rect x="123" y="9" width="1" height="1" fill="#231f20"/>
    <rect x="128" y="9" width="1" height="1" fill="#231f20"/>
    <rect x="171" y="9" width="1" height="1" fill="#231f20"/>
    <rect x="0" y="10" width="1" height="1" fill="#231f20"/>
    <rect x="31" y="10" width="1" height="1" fill="#231f20"/>
    <rect x="37" y="10" width="1" height="1" fill="#231f20"/>
    <rect x="77" y="10" width="1" height="1" fill="#231f20"/>
    <rect x="83" y="10" width="1" height="1" fill="#231f20"/>
    <rect x="122" y="10" width="1" height="1" fill="#231f20"/>
    <rect x="129" y="10" width="1" height="1" fill="#231f20"/>
    <rect x="171" y="10" width="1" height="1" fill="#231f20"/>
    <rect x="0" y="11" width="1" height="1" fill="#231f20"/>
    <rect x="31" y="11" width="1" height="1" fill="#231f20"/>
    <rect x="37" y="11" width="1" height="1" fill="#231f20"/>
    <rect x="76" y="11" width="1" height="1" fill="#231f20"/>
    <rect x="83" y="11" width="1" height="1" fill="#231f20"/>
    <rect x="122" y="11" width="1" height="1" fill="#231f20"/>
    <rect x="129" y="11" width="1" height="1" fill="#231f20"/>
    <rect x="171" y="11" width="1" height="1" fill="#231f20"/>
    <rect x="0" y="12" width="1" height="1" fill="#231f20"/>
    <rect x="31" y="12" width="1" height="1" fill="#231f20"/>
    <rect x="37" y="12" width="1" height="1" fill="#231f20"/>
    <rect x="77" y="12" width="1" height="1" fill="#231f20"/>
    <rect x="83" y="12" width="1" height="1" fill="#231f20"/>
    <rect x="122" y="12" width="1" height="1" fill="#231f20"/>
    <rect x="129" y="12" width="1" height="1" fill="#231f20"/>
    <rect x="171" y="12" width="1" height="1" fill="#231f20"/>
    <rect x="0" y="13" width="1" height="1" fill="#231f20"/>
    <rect x="31" y="13" width="1" height="1" fill="#231f20"/>
    <rect x="37" y="13" width="1" height="1" fill="#231f20"/>
    <rect x="77" y="13" width="1" height="1" fill="#231f20"/>
    <rect x="83" y="13" width="1" height="1" fill="#231f20"/>
    <rect x="123" y="13" width="1" height="1" fill="#231f20"/>
    <rect x="128" y="13" width="1" height="1" fill="#231f20"/>
    <rect x="171" y="13" width="1" height="1" fill="#231f20"/>
    <rect x="0" y="14" width="1" height="1" fill="#231f20"/>
    <rect x="32" y="14" width="5" height="1" fill="#231f20"/>
    <rect x="78" y="14" width="5" height="1" fill="#231f20"/>
    <rect x="124" y="14" width="5" height="1" fill="#231f20"/>
    <rect x="171" y="14" width="1" height="1" fill="#231f20"/>
    <rect x="0" y="15" width="1" height="1" fill="#231f20"/>
    <rect x="171" y="15" width="1" height="1" fill="#231f20"/>
    <rect x="0" y="16" width="1" height="1" fill="#231f20"/>
    <rect x="171" y="16" width="1" height="1" fill="#231f20"/>
    <rect x="0" y="17" width="1" height="1" fill="#231f20"/>
    <rect x="171" y="17" width="1" height="1" fill="#231f20"/>
    <rect x="0" y="18" width="1" height="1" fill="#231f20"/>
    <rect x="171" y="18" width="1" height="1" fill="#231f20"/>
    <rect x="0" y="19" width="1" height="1" fill="#231f20"/>
    <rect x="171" y="19" width="1" height="1" fill="#231f20"/>
    <rect x="0" y="20" width="1" height="1" fill="#231f20"/>
    <rect x="171" y="20" width="1" height="1" fill="#231f20"/>
    <rect x="0" y="21" width="1" height="1" fill="#231f20"/>
    <rect x="171" y="21" width="1" height="1" fill="#231f20"/>
    <rect x="0" y="22" width="1" height="1" fill="#231f20"/>
    <rect x="171" y="22" width="1" height="1" fill="#231f20"/>
    <rect x="0" y="23" width="172" height="1" fill="#231f20"/>
    <rect x="0" y="24" width="1" height="1" fill="#231f20"/>
    <rect x="171" y="24" width="1" height="1" fill="#231f20"/>
    <rect x="0" y="25" width="1" height="1" fill="#231f20"/>
    <rect x="171" y="25" width="1" height="1" fill="#231f20"/>
    <rect x="0" y="26" width="1" height="1" fill="#231f20"/>
    <rect x="171" y="26" width="1" height="1" fill="#231f20"/>
    <rect x="0" y="27" width="1" height="1" fill="#231f20"/>
    <rect x="171" y="27" width="1" height="1" fill="#231f20"/>
    <rect x="0" y="28" width="1" height="1" fill="#231f20"/>
    <rect x="171" y="28" width="1" height="1" fill="#231f20"/>
    <rect x="0" y="29" width="1" height="1" fill="#231f20"/>
    <rect x="171" y="29" width="1" height="1" fill="#231f20"/>
    <rect x="0" y="30" width="1" height="1" fill="#231f20"/>
    <rect x="44" y="30" width="3" height="1" fill="#231f20"/>
    <rect x="90" y="30" width="3" height="1" fill="#231f20"/>
    <rect x="136" y="30" width="3" height="1" fill="#231f20"/>
    <rect x="171" y="30" width="1" height="1" fill="#231f20"/>
    <rect x="0" y="31" width="1" height="1" fill="#231f20"/>
    <rect x="43" y="31" width="1" height="1" fill="#231f20"/>
    <rect x="47" y="31" width="1" height="1" fill="#231f20"/>
    <rect x="89" y="31" width="1" height="1" fill="#231f20"/>
    <rect x="93" y="31" width="1" height="1" fill="#231f20"/>
    <rect x="135" y="31" width="1" height="1" fill="#231f20"/>
    <rect x="139" y="31" width="1" height="1" fill="#231f20"/>
    <rect x="171" y="31" width="1" height="1" fill="#231f20"/>
    <rect x="0" y="32" width="1" height="1" fill="#231f20"/>
    <rect x="43" y="32" width="1" height="1" fill="#231f20"/>
    <rect x="48" y="32" width="1" height="1" fill="#231f20"/>
    <rect x="89" y="32" width="1" height="1" fill="#231f20"/>
    <rect x="94" y="32" width="1" height="1" fill="#231f20"/>
    <rect x="134" y="32" width="1" height="1" fill="#231f20"/>
    <rect x="140" y="32" width="1" height="1" fill="#231f20"/>
    <rect x="171" y="32" width="1" height="1" fill="#231f20"/>
    <rect x="0" y="33" width="1" height="1" fill="#231f20"/>
    <rect x="42" y="33" width="1" height="1" fill="#231f20"/>
    <rect x="49" y="33" width="1" height="1" fill="#231f20"/>
    <rect x="88" y="33" width="1" height="1" fill="#231f20"/>
    <rect x="95" y="33" width="1" height="1" fill="#231f20"/>
    <rect x="134" y="33" width="1" height="1" fill="#231f20"/>
    <rect x="140" y="33" width="1" height="1" fill="#231f20"/>
    <rect x="171" y="33" width="1" height="1" fill="#231f20"/>
    <rect x="0" y="34" width="1" height="1" fill="#231f20"/>
    <rect x="42" y="34" width="1" height="1" fill="#231f20"/>
    <rect x="49" y="34" width="1" height="1" fill="#231f20"/>
    <rect x="88" y="34" width="1" height="1" fill="#231f20"/>
    <rect x="95" y="34" width="1" height="1" fill="#231f20"/>
    <rect x="134" y="34" width="1" height="1" fill="#231f20"/>
    <rect x="141" y="34" width="1" height="1" fill="#231f20"/>
    <rect x="171" y="34" width="1" height="1" fill="#231f20"/>
    <rect x="0" y="35" width="1" height="1" fill="#231f20"/>
    <rect x="42" y="35" width="1" height="1" fill="#231f20"/>
    <rect x="49" y="35" width="1" height="1" fill="#231f20"/>
    <rect x="88" y="35" width="1" height="1" fill="#231f20"/>
    <rect x="95" y="35" width="1" height="1" fill="#231f20"/>
    <rect x="134" y="35" width="1" height="1" fill="#231f20"/>
    <rect x="140" y="35" width="1" height="1" fill="#231f20"/>
    <rect x="171" y="35" width="1" height="1" fill="#231f20"/>
    <rect x="0" y="36" width="1" height="1" fill="#231f20"/>
    <rect x="43" y="36" width="1" height="1" fill="#231f20"/>
    <rect x="48" y="36" width="1" height="1" fill="#231f20"/>
    <rect x="89" y="36" width="1" height="1" fill="#231f20"/>
    <rect x="94" y="36" width="1" height="1" fill="#231f20"/>
    <rect x="134" y="36" width="1" height="1" fill="#231f20"/>
    <rect x="140" y="36" width="1" height="1" fill="#231f20"/>
    <rect x="171" y="36" width="1" height="1" fill="#231f20"/>
    <rect x="0" y="37" width="1" height="1" fill="#231f20"/>
    <rect x="43" y="37" width="5" height="1" fill="#231f20"/>
    <rect x="89" y="37" width="5" height="1" fill="#231f20"/>
    <rect x="135" y="37" width="5" height="1" fill="#231f20"/>
    <rect x="171" y="37" width="1" height="1" fill="#231f20"/>
    <rect x="0" y="38" width="1" height="1" fill="#231f20"/>
    <rect x="171" y="38" width="1" height="1" fill="#231f20"/>
    <rect x="0" y="39" width="1" height="1" fill="#231f20"/>
    <rect x="171" y="39" width="1" height="1" fill="#231f20"/>
    <rect x="0" y="40" width="1" height="1" fill="#231f20"/>
    <rect x="171" y="40" width="1" height="1" fill="#231f20"/>
    <rect x="0" y="41" width="1" height="1" fill="#231f20"/>
    <rect x="171" y="41" width="1" height="1" fill="#231f20"/>
    <rect x="0" y="42" width="1" height="1" fill="#231f20"/>
    <rect x="171" y="42" width="1" height="1" fill="#231f20"/>
    <rect x="0" y="43" width="1" height="1" fill="#231f20"/>
    <rect x="171" y="43" width="1" height="1" fill="#231f20"/>
    <rect x="0" y="44" width="1" height="1" fill="#231f20"/>
    <rect x="171" y="44" width="1" height="1" fill="#231f20"/>
    <rect x="0" y="45" width="172" height="1" fill="#231f20"/>
    <rect x="0" y="46" width="1" height="1" fill="#231f20"/>
    <rect x="171" y="46" width="1" height="1" fill="#231f20"/>
    <rect x="0" y="47" width="1" height="1" fill="#231f20"/>
    <rect x="171" y="47" width="1" height="1" fill="#231f20"/>
    <rect x="0" y="48" width="1" height="1" fill="#231f20"/>
    <rect x="171" y="48" width="1" height="1" fill="#231f20"/>
    <rect x="0" y="49" width="1" height="1" fill="#231f20"/>
    <rect x="171" y="49" width="1" height="1" fill="#231f20"/>
    <rect x="0" y="50" width="1" height="1" fill="#231f20"/>
    <rect x="171" y="50" width="1" height="1" fill="#231f20"/>
    <rect x="0" y="51" width="1" height="1" fill="#231f20"/>
    <rect x="171" y="51" width="1" height="1" fill="#231f20"/>
    <rect x="0" y="52" width="1" height="1" fill="#231f20"/>
    <rect x="171" y="52" width="1" height="1" fill="#231f20"/>
    <rect x="0" y="53" width="1" height="1" fill="#231f20"/>
    <rect x="33" y="53" width="3" height="1" fill="#231f20"/>
    <rect x="79" y="53" width="3" height="1" fill="#231f20"/>
    <rect x="125" y="53" width="3" height="1" fill="#231f20"/>
    <rect x="171" y="53" width="1" height="1" fill="#231f20"/>
    <rect x="0" y="54" width="1" height="1" fill="#231f20"/>
    <rect x="32" y="54" width="1" height="1" fill="#231f20"/>
    <rect x="36" y="54" width="1" height="1" fill="#231f20"/>
    <rect x="78" y="54" width="1" height="1" fill="#231f20"/>
    <rect x="82" y="54" width="1" height="1" fill="#231f20"/>
    <rect x="124" y="54" width="1" height="1" fill="#231f20"/>
    <rect x="128" y="54" width="1" height="1" fill="#231f20"/>
    <rect x="171" y="54" width="1" height="1" fill="#231f20"/>
    <rect x="0" y="55" width="1" height="1" fill="#231f20"/>
    <rect x="31" y="55" width="1" height="1" fill="#231f20"/>
    <rect x="37" y="55" width="1" height="1" fill="#231f20"/>
    <rect x="77" y="55" width="1" height="1" fill="#231f20"/>
    <rect x="83" y="55" width="1" height="1" fill="#231f20"/>
    <rect x="123" y="55" width="1" height="1" fill="#231f20"/>
    <rect x="128" y="55" width="1" height="1" fill="#231f20"/>
    <rect x="171" y="55" width="1" height="1" fill="#231f20"/>
    <rect x="0" y="56" width="1" height="1" fill="#231f20"/>
    <rect x="31" y="56" width="1" height="1" fill="#231f20"/>
    <rect x="37" y="56" width="1" height="1" fill="#231f20"/>
    <rect x="77" y="56" width="1" height="1" fill="#231f20"/>
    <rect x="83" y="56" width="1" height="1" fill="#231f20"/>
    <rect x="122" y="56" width="1" height="1" fill="#231f20"/>
    <rect x="129" y="56" width="1" height="1" fill="#231f20"/>
    <rect x="171" y="56" width="1" height="1" fill="#231f20"/>
    <rect x="0" y="57" width="1" height="1" fill="#231f20"/>
    <rect x="31" y="57" width="1" height="1" fill="#231f20"/>
    <rect x="37" y="57" width="1" height="1" fill="#231f20"/>
    <rect x="76" y="57" width="1" height="1" fill="#231f20"/>
    <rect x="83" y="57" width="1" height="1" fill="#231f20"/>
    <rect x="122" y="57" width="1" height="1" fill="#231f20"/>
    <rect x="129" y="57" width="1" height="1" fill="#231f20"/>
    <rect x="171" y="57" width="1" height="1" fill="#231f20"/>
    <rect x="0" y="58" width="1" height="1" fill="#231f20"/>
    <rect x="31" y="58" width="1" height="1" fill="#231f20"/>
    <rect x="37" y="58" width="1" height="1" fill="#231f20"/>
    <rect x="77" y="58" width="1" height="1" fill="#231f20"/>
    <rect x="83" y="58" width="1" height="1" fill="#231f20"/>
    <rect x="122" y="58" width="1" height="1" fill="#231f20"/>
    <rect x="129" y="58" width="1" height="1" fill="#231f20"/>
    <rect x="171" y="58" width="1" height="1" fill="#231f20"/>
    <rect x="0" y="59" width="1" height="1" fill="#231f20"/>
    <rect x="31" y="59" width="2" height="1" fill="#231f20"/>
    <rect x="36" y="59" width="2" height="1" fill="#231f20"/>
    <rect x="77" y="59" width="2" height="1" fill="#231f20"/>
    <rect x="82" y="59" width="2" height="1" fill="#231f20"/>
    <rect x="123" y="59" width="2" height="1" fill="#231f20"/>
    <rect x="128" y="59" width="1" height="1" fill="#231f20"/>
    <rect x="171" y="59" width="1" height="1" fill="#231f20"/>
    <rect x="0" y="60" width="1" height="1" fill="#231f20"/>
    <rect x="33" y="60" width="3" height="1" fill="#231f20"/>
    <rect x="79" y="60" width="3" height="1" fill="#231f20"/>
    <rect x="125" y="60" width="3" height="1" fill="#231f20"/>
    <rect x="171" y="60" width="1" height="1" fill="#231f20"/>
    <rect x="0" y="61" width="1" height="1" fill="#231f20"/>
    <rect x="171" y="61" width="1" height="1" fill="#231f20"/>
    <rect x="0" y="62" width="1" height="1" fill="#231f20"/>
    <rect x="171" y="62" width="1" height="1" fill="#231f20"/>
    <rect x="0" y="63" width="1" height="1" fill="#231f20"/>
    <rect x="171" y="63" width="1" height="1" fill="#231f20"/>
    <rect x="0" y="64" width="1" height="1" fill="#231f20"/>
    <rect x="171" y="64" width="1" height="1" fill="#231f20"/>
    <rect x="0" y="65" width="1" height="1" fill="#231f20"/>
    <rect x="171" y="65" width="1" height="1" fill="#231f20"/>
    <rect x="0" y="66" width="1" height="1" fill="#231f20"/>
    <rect x="171" y="66" width="1" height="1" fill="#231f20"/>
    <rect x="0" y="67" width="1" height="1" fill="#231f20"/>
    <rect x="171" y="67" width="1" height="1" fill="#231f20"/>
    <rect x="0" y="68" width="172" height="1" fill="#231f20"/>
  </g>
</svg>