<?xml version="1.0" encoding="UTF-8"?>
<svg xmlns="http://www.w3.org/2000/svg" viewBox="0 0 173 70" width="173" height="70">
  <!-- Auto-converted from legend-2474.png -->
  <rect x="0" y="0" width="173" height="70" fill="none"/>
  <g fill="#965d35" stroke="none">
    <rect x="1" y="0" width="172" height="1" fill="#965d35"/>
    <rect x="1" y="1" width="1" height="1" fill="#965d35"/>
    <rect x="172" y="1" width="1" height="1" fill="#965d35"/>
    <rect x="1" y="2" width="1" height="1" fill="#965d35"/>
    <rect x="172" y="2" width="1" height="1" fill="#965d35"/>
    <rect x="1" y="3" width="1" height="1" fill="#965d35"/>
    <rect x="172" y="3" width="1" height="1" fill="#965d35"/>
    <rect x="1" y="4" width="1" height="1" fill="#965d35"/>
    <rect x="172" y="4" width="1" height="1" fill="#965d35"/>
    <rect x="1" y="5" width="1" height="1" fill="#965d35"/>
    <rect x="172" y="5" width="1" height="1" fill="#965d35"/>
    <rect x="1" y="6" width="1" height="1" fill="#965d35"/>
    <rect x="172" y="6" width="1" height="1" fill="#965d35"/>
    <rect x="1" y="7" width="1" height="1" fill="#965d35"/>
    <rect x="172" y="7" width="1" height="1" fill="#965d35"/>
    <rect x="1" y="8" width="1" height="1" fill="#965d35"/>
    <rect x="172" y="8" width="1" height="1" fill="#965d35"/>
    <rect x="1" y="9" width="1" height="1" fill="#965d35"/>
    <rect x="172" y="9" width="1" height="1" fill="#965d35"/>
    <rect x="1" y="10" width="1" height="1" fill="#965d35"/>
    <rect x="172" y="10" width="1" height="1" fill="#965d35"/>
    <rect x="1" y="11" width="1" height="1" fill="#965d35"/>
    <rect x="172" y="11" width="1" height="1" fill="#965d35"/>
    <rect x="1" y="12" width="1" height="1" fill="#965d35"/>
    <rect x="172" y="12" width="1" height="1" fill="#965d35"/>
    <rect x="1" y="13" width="1" height="1" fill="#965d35"/>
    <rect x="172" y="13" width="1" height="1" fill="#965d35"/>
    <rect x="1" y="14" width="1" height="1" fill="#965d35"/>
    <rect x="172" y="14" width="1" height="1" fill="#965d35"/>
    <rect x="1" y="15" width="1" height="1" fill="#965d35"/>
    <rect x="172" y="15" width="1" height="1" fill="#965d35"/>
    <rect x="1" y="16" width="1" height="1" fill="#965d35"/>
    <rect x="172" y="16" width="1" height="1" fill="#965d35"/>
    <rect x="1" y="17" width="1" height="1" fill="#965d35"/>
    <rect x="172" y="17" width="1" height="1" fill="#965d35"/>
    <rect x="1" y="18" width="1" height="1" fill="#965d35"/>
    <rect x="172" y="18" width="1" height="1" fill="#965d35"/>
    <rect x="1" y="19" width="1" height="1" fill="#965d35"/>
    <rect x="172" y="19" width="1" height="1" fill="#965d35"/>
    <rect x="1" y="20" width="1" height="1" fill="#965d35"/>
    <rect x="172" y="20" width="1" height="1" fill="#965d35"/>
    <rect x="1" y="21" width="1" height="1" fill="#965d35"/>
    <rect x="172" y="21" width="1" height="1" fill="#965d35"/>
    <rect x="1" y="22" width="1" height="1" fill="#965d35"/>
    <rect x="78" y="22" width="20" height="1" fill="#965d35"/>
    <rect x="172" y="22" width="1" height="1" fill="#965d35"/>
    <rect x="1" y="23" width="1" height="1" fill="#965d35"/>
    <rect x="77" y="23" width="21" height="1" fill="#965d35"/>
    <rect x="172" y="23" width="1" height="1" fill="#965d35"/>
    <rect x="1" y="24" width="1" height="1" fill="#965d35"/>
    <rect x="77" y="24" width="4" height="1" fill="#965d35"/>
    <rect x="91" y="24" width="6" height="1" fill="#965d35"/>
    <rect x="172" y="24" width="1" height="1" fill="#965d35"/>
    <rect x="1" y="25" width="1" height="1" fill="#965d35"/>
    <rect x="77" y="25" width="3" height="1" fill="#965d35"/>
    <rect x="91" y="25" width="5" height="1" fill="#965d35"/>
    <rect x="172" y="25" width="1" height="1" fill="#965d35"/>
    <rect x="1" y="26" width="1" height="1" fill="#965d35"/>
    <rect x="77" y="26" width="2" height="1" fill="#965d35"/>
    <rect x="90" y="26" width="5" height="1" fill="#965d35"/>
    <rect x="172" y="26" width="1" height="1" fill="#965d35"/>
    <rect x="1" y="27" width="1" height="1" fill="#965d35"/>
    <rect x="77" y="27" width="2" height="1" fill="#965d35"/>
    <rect x="89" y="27" width="6" height="1" fill="#965d35"/>
    <rect x="172" y="27" width="1" height="1" fill="#965d35"/>
    <rect x="1" y="28" width="1" height="1" fill="#965d35"/>
    <rect x="77" y="28" width="1" height="1" fill="#965d35"/>
    <rect x="89" y="28" width="5" height="1" fill="#965d35"/>
    <rect x="172" y="28" width="1" height="1" fill="#965d35"/>
    <rect x="1" y="29" width="1" height="1" fill="#965d35"/>
    <rect x="77" y="29" width="1" height="1" fill="#965d35"/>
    <rect x="88" y="29" width="5" height="1" fill="#965d35"/>
    <rect x="172" y="29" width="1" height="1" fill="#965d35"/>
    <rect x="1" y="30" width="1" height="1" fill="#965d35"/>
    <rect x="87" y="30" width="6" height="1" fill="#965d35"/>
    <rect x="172" y="30" width="1" height="1" fill="#965d35"/>
    <rect x="1" y="31" width="1" height="1" fill="#965d35"/>
    <rect x="86" y="31" width="6" height="1" fill="#965d35"/>
    <rect x="172" y="31" width="1" height="1" fill="#965d35"/>
    <rect x="1" y="32" width="1" height="1" fill="#965d35"/>
    <rect x="86" y="32" width="5" height="1" fill="#965d35"/>
    <rect x="172" y="32" width="1" height="1" fill="#965d35"/>
    <rect x="1" y="33" width="1" height="1" fill="#965d35"/>
    <rect x="85" y="33" width="5" height="1" fill="#965d35"/>
    <rect x="172" y="33" width="1" height="1" fill="#965d35"/>
    <rect x="1" y="34" width="1" height="1" fill="#965d35"/>
    <rect x="84" y="34" width="6" height="1" fill="#965d35"/>
    <rect x="172" y="34" width="1" height="1" fill="#965d35"/>
    <rect x="1" y="35" width="1" height="1" fill="#965d35"/>
    <rect x="83" y="35" width="6" height="1" fill="#965d35"/>
    <rect x="172" y="35" width="1" height="1" fill="#965d35"/>
    <rect x="1" y="36" width="1" height="1" fill="#965d35"/>
    <rect x="83" y="36" width="5" height="1" fill="#965d35"/>
    <rect x="172" y="36" width="1" height="1" fill="#965d35"/>
    <rect x="1" y="37" width="1" height="1" fill="#965d35"/>
    <rect x="82" y="37" width="5" height="1" fill="#965d35"/>
    <rect x="172" y="37" width="1" height="1" fill="#965d35"/>
    <rect x="1" y="38" width="1" height="1" fill="#965d35"/>
    <rect x="81" y="38" width="6" height="1" fill="#965d35"/>
    <rect x="172" y="38" width="1" height="1" fill="#965d35"/>
    <rect x="1" y="39" width="1" height="1" fill="#965d35"/>
    <rect x="81" y="39" width="5" height="1" fill="#965d35"/>
    <rect x="172" y="39" width="1" height="1" fill="#965d35"/>
    <rect x="1" y="40" width="1" height="1" fill="#965d35"/>
    <rect x="80" y="40" width="5" height="1" fill="#965d35"/>
    <rect x="172" y="40" width="1" height="1" fill="#965d35"/>
    <rect x="1" y="41" width="1" height="1" fill="#965d35"/>
    <rect x="79" y="41" width="6" height="1" fill="#965d35"/>
    <rect x="172" y="41" width="1" height="1" fill="#965d35"/>
    <rect x="1" y="42" width="1" height="1" fill="#965d35"/>
    <rect x="78" y="42" width="6" height="1" fill="#965d35"/>
    <rect x="97" y="42" width="1" height="1" fill="#965d35"/>
    <rect x="172" y="42" width="1" height="1" fill="#965d35"/>
    <rect x="1" y="43" width="1" height="1" fill="#965d35"/>
    <rect x="78" y="43" width="5" height="1" fill="#965d35"/>
    <rect x="96" y="43" width="2" height="1" fill="#965d35"/>
    <rect x="172" y="43" width="1" height="1" fill="#965d35"/>
    <rect x="1" y="44" width="1" height="1" fill="#965d35"/>
    <rect x="77" y="44" width="5" height="1" fill="#965d35"/>
    <rect x="96" y="44" width="2" height="1" fill="#965d35"/>
    <rect x="172" y="44" width="1" height="1" fill="#965d35"/>
    <rect x="1" y="45" width="1" height="1" fill="#965d35"/>
    <rect x="76" y="45" width="6" height="1" fill="#965d35"/>
    <rect x="95" y="45" width="3" height="1" fill="#965d35"/>
    <rect x="172" y="45" width="1" height="1" fill="#965d35"/>
    <rect x="1" y="46" width="1" height="1" fill="#965d35"/>
    <rect x="75" y="46" width="6" height="1" fill="#965d35"/>
    <rect x="95" y="46" width="3" height="1" fill="#965d35"/>
    <rect x="172" y="46" width="1" height="1" fill="#965d35"/>
    <rect x="1" y="47" width="1" height="1" fill="#965d35"/>
    <rect x="75" y="47" width="5" height="1" fill="#965d35"/>
    <rect x="93" y="47" width="5" height="1" fill="#965d35"/>
    <rect x="172" y="47" width="1" height="1" fill="#965d35"/>
    <rect x="1" y="48" width="1" height="1" fill="#965d35"/>
    <rect x="74" y="48" width="23" height="1" fill="#965d35"/>
    <rect x="172" y="48" width="1" height="1" fill="#965d35"/>
    <rect x="1" y="49" width="1" height="1" fill="#965d35"/>
    <rect x="74" y="49" width="23" height="1" fill="#965d35"/>
    <rect x="172" y="49" width="1" height="1" fill="#965d35"/>
    <rect x="1" y="50" width="1" height="1" fill="#965d35"/>
    <rect x="172" y="50" width="1" height="1" fill="#965d35"/>
    <rect x="1" y="51" width="1" height="1" fill="#965d35"/>
    <rect x="172" y="51" width="1" height="1" fill="#965d35"/>
    <rect x="1" y="52" width="1" height="1" fill="#965d35"/>
    <rect x="172" y="52" width="1" height="1" fill="#965d35"/>
    <rect x="1" y="53" width="1" height="1" fill="#965d35"/>
    <rect x="172" y="53" width="1" height="1" fill="#965d35"/>
    <rect x="1" y="54" width="1" height="1" fill="#965d35"/>
    <rect x="172" y="54" width="1" height="1" fill="#965d35"/>
    <rect x="1" y="55" width="1" height="1" fill="#965d35"/>
    <rect x="172" y="55" width="1" height="1" fill="#965d35"/>
    <rect x="1" y="56" width="1" height="1" fill="#965d35"/>
    <rect x="172" y="56" width="1" height="1" fill="#965d35"/>
    <rect x="1" y="57" width="1" height="1" fill="#965d35"/>
    <rect x="172" y="57" width="1" height="1" fill="#965d35"/>
    <rect x="1" y="58" width="1" height="1" fill="#965d35"/>
    <rect x="172" y="58" width="1" height="1" fill="#965d35"/>
    <rect x="1" y="59" width="1" height="1" fill="#965d35"/>
    <rect x="172" y="59" width="1" height="1" fill="#965d35"/>
    <rect x="1" y="60" width="1" height="1" fill="#965d35"/>
    <rect x="172" y="60" width="1" height="1" fill="#965d35"/>
    <rect x="1" y="61" width="1" height="1" fill="#965d35"/>
    <rect x="172" y="61" width="1" height="1" fill="#965d35"/>
    <rect x="1" y="62" width="1" height="1" fill="#965d35"/>
    <rect x="172" y="62" width="1" height="1" fill="#965d35"/>
    <rect x="1" y="63" width="1" height="1" fill="#965d35"/>
    <rect x="172" y="63" width="1" height="1" fill="#965d35"/>
    <rect x="1" y="64" width="1" height="1" fill="#965d35"/>
    <rect x="172" y="64" width="1" height="1" fill="#965d35"/>
    <rect x="1" y="65" width="1" height="1" fill="#965d35"/>
    <rect x="172" y="65" width="1" height="1" fill="#965d35"/>
    <rect x="1" y="66" width="1" height="1" fill="#965d35"/>
    <rect x="172" y="66" width="1" height="1" fill="#965d35"/>
    <rect x="1" y="67" width="1" height="1" fill="#965d35"/>
    <rect x="172" y="67" width="1" height="1" fill="#965d35"/>
    <rect x="1" y="68" width="172" height="1" fill="#965d35"/>
  </g>
</svg>