<?xml version="1.0" encoding="UTF-8"?>
<svg xmlns="http://www.w3.org/2000/svg" viewBox="0 0 154 62" width="154" height="62">
  <!-- Auto-converted from legend-1876.png -->
  <rect x="0" y="0" width="154" height="62" fill="none"/>
  <g fill="#231f20" stroke="none">
    <rect x="0" y="0" width="154" height="1" fill="#231f20"/>
    <rect x="0" y="1" width="1" height="1" fill="#231f20"/>
    <rect x="58" y="1" width="1" height="1" fill="#231f20"/>
    <rect x="153" y="1" width="1" height="1" fill="#231f20"/>
    <rect x="0" y="2" width="1" height="1" fill="#231f20"/>
    <rect x="57" y="2" width="1" height="1" fill="#231f20"/>
    <rect x="153" y="2" width="1" height="1" fill="#231f20"/>
    <rect x="0" y="3" width="1" height="1" fill="#231f20"/>
    <rect x="56" y="3" width="1" height="1" fill="#231f20"/>
    <rect x="153" y="3" width="1" height="1" fill="#231f20"/>
    <rect x="0" y="4" width="1" height="1" fill="#231f20"/>
    <rect x="55" y="4" width="1" height="1" fill="#231f20"/>
    <rect x="153" y="4" width="1" height="1" fill="#231f20"/>
    <rect x="0" y="5" width="1" height="1" fill="#231f20"/>
    <rect x="18" y="5" width="1" height="1" fill="#231f20"/>
    <rect x="28" y="5" width="1" height="1" fill="#231f20"/>
    <rect x="54" y="5" width="1" height="1" fill="#231f20"/>
    <rect x="73" y="5" width="1" height="1" fill="#231f20"/>
    <rect x="75" y="5" width="1" height="1" fill="#231f20"/>
    <rect x="153" y="5" width="1" height="1" fill="#231f20"/>
    <rect x="0" y="6" width="1" height="1" fill="#231f20"/>
    <rect x="19" y="6" width="1" height="1" fill="#231f20"/>
    <rect x="28" y="6" width="1" height="1" fill="#231f20"/>
    <rect x="53" y="6" width="1" height="1" fill="#231f20"/>
    <rect x="73" y="6" width="1" height="1" fill="#231f20"/>
    <rect x="75" y="6" width="1" height="1" fill="#231f20"/>
    <rect x="153" y="6" width="1" height="1" fill="#231f20"/>
    <rect x="0" y="7" width="1" height="1" fill="#231f20"/>
    <rect x="19" y="7" width="1" height="1" fill="#231f20"/>
    <rect x="27" y="7" width="1" height="1" fill="#231f20"/>
    <rect x="52" y="7" width="1" height="1" fill="#231f20"/>
    <rect x="72" y="7" width="1" height="1" fill="#231f20"/>
    <rect x="76" y="7" width="1" height="1" fill="#231f20"/>
    <rect x="96" y="7" width="3" height="1" fill="#231f20"/>
    <rect x="100" y="7" width="3" height="1" fill="#231f20"/>
    <rect x="121" y="7" width="3" height="1" fill="#231f20"/>
    <rect x="125" y="7" width="3" height="1" fill="#231f20"/>
    <rect x="153" y="7" width="1" height="1" fill="#231f20"/>
    <rect x="0" y="8" width="1" height="1" fill="#231f20"/>
    <rect x="20" y="8" width="1" height="1" fill="#231f20"/>
    <rect x="27" y="8" width="1" height="1" fill="#231f20"/>
    <rect x="51" y="8" width="1" height="1" fill="#231f20"/>
    <rect x="72" y="8" width="1" height="1" fill="#231f20"/>
    <rect x="76" y="8" width="1" height="1" fill="#231f20"/>
    <rect x="97" y="8" width="2" height="1" fill="#231f20"/>
    <rect x="100" y="8" width="2" height="1" fill="#231f20"/>
    <rect x="122" y="8" width="2" height="1" fill="#231f20"/>
    <rect x="125" y="8" width="2" height="1" fill="#231f20"/>
    <rect x="153" y="8" width="1" height="1" fill="#231f20"/>
    <rect x="0" y="9" width="1" height="1" fill="#231f20"/>
    <rect x="20" y="9" width="1" height="1" fill="#231f20"/>
    <rect x="26" y="9" width="1" height="1" fill="#231f20"/>
    <rect x="50" y="9" width="1" height="1" fill="#231f20"/>
    <rect x="71" y="9" width="1" height="1" fill="#231f20"/>
    <rect x="77" y="9" width="1" height="1" fill="#231f20"/>
    <rect x="97" y="9" width="2" height="1" fill="#231f20"/>
    <rect x="100" y="9" width="2" height="1" fill="#231f20"/>
    <rect x="122" y="9" width="2" height="1" fill="#231f20"/>
    <rect x="125" y="9" width="2" height="1" fill="#231f20"/>
    <rect x="153" y="9" width="1" height="1" fill="#231f20"/>
    <rect x="0" y="10" width="1" height="1" fill="#231f20"/>
    <rect x="21" y="10" width="1" height="1" fill="#231f20"/>
    <rect x="26" y="10" width="1" height="1" fill="#231f20"/>
    <rect x="49" y="10" width="1" height="1" fill="#231f20"/>
    <rect x="71" y="10" width="1" height="1" fill="#231f20"/>
    <rect x="77" y="10" width="1" height="1" fill="#231f20"/>
    <rect x="97" y="10" width="2" height="1" fill="#231f20"/>
    <rect x="100" y="10" width="2" height="1" fill="#231f20"/>
    <rect x="122" y="10" width="2" height="1" fill="#231f20"/>
    <rect x="125" y="10" width="2" height="1" fill="#231f20"/>
    <rect x="153" y="10" width="1" height="1" fill="#231f20"/>
    <rect x="0" y="11" width="1" height="1" fill="#231f20"/>
    <rect x="21" y="11" width="1" height="1" fill="#231f20"/>
    <rect x="25" y="11" width="1" height="1" fill="#231f20"/>
    <rect x="48" y="11" width="1" height="1" fill="#231f20"/>
    <rect x="71" y="11" width="1" height="1" fill="#231f20"/>
    <rect x="77" y="11" width="1" height="1" fill="#231f20"/>
    <rect x="97" y="11" width="1" height="1" fill="#231f20"/>
    <rect x="99" y="11" width="1" height="1" fill="#231f20"/>
    <rect x="101" y="11" width="1" height="1" fill="#231f20"/>
    <rect x="122" y="11" width="1" height="1" fill="#231f20"/>
    <rect x="124" y="11" width="1" height="1" fill="#231f20"/>
    <rect x="126" y="11" width="1" height="1" fill="#231f20"/>
    <rect x="153" y="11" width="1" height="1" fill="#231f20"/>
    <rect x="0" y="12" width="1" height="1" fill="#231f20"/>
    <rect x="22" y="12" width="1" height="1" fill="#231f20"/>
    <rect x="25" y="12" width="1" height="1" fill="#231f20"/>
    <rect x="47" y="12" width="1" height="1" fill="#231f20"/>
    <rect x="70" y="12" width="1" height="1" fill="#231f20"/>
    <rect x="78" y="12" width="1" height="1" fill="#231f20"/>
    <rect x="97" y="12" width="1" height="1" fill="#231f20"/>
    <rect x="99" y="12" width="1" height="1" fill="#231f20"/>
    <rect x="101" y="12" width="1" height="1" fill="#231f20"/>
    <rect x="122" y="12" width="1" height="1" fill="#231f20"/>
    <rect x="124" y="12" width="1" height="1" fill="#231f20"/>
    <rect x="126" y="12" width="1" height="1" fill="#231f20"/>
    <rect x="153" y="12" width="1" height="1" fill="#231f20"/>
    <rect x="0" y="13" width="1" height="1" fill="#231f20"/>
    <rect x="22" y="13" width="1" height="1" fill="#231f20"/>
    <rect x="24" y="13" width="1" height="1" fill="#231f20"/>
    <rect x="46" y="13" width="1" height="1" fill="#231f20"/>
    <rect x="70" y="13" width="1" height="1" fill="#231f20"/>
    <rect x="78" y="13" width="1" height="1" fill="#231f20"/>
    <rect x="97" y="13" width="1" height="1" fill="#231f20"/>
    <rect x="99" y="13" width="1" height="1" fill="#231f20"/>
    <rect x="101" y="13" width="1" height="1" fill="#231f20"/>
    <rect x="122" y="13" width="1" height="1" fill="#231f20"/>
    <rect x="124" y="13" width="1" height="1" fill="#231f20"/>
    <rect x="126" y="13" width="1" height="1" fill="#231f20"/>
    <rect x="153" y="13" width="1" height="1" fill="#231f20"/>
    <rect x="0" y="14" width="1" height="1" fill="#231f20"/>
    <rect x="23" y="14" width="2" height="1" fill="#231f20"/>
    <rect x="45" y="14" width="1" height="1" fill="#231f20"/>
    <rect x="69" y="14" width="1" height="1" fill="#231f20"/>
    <rect x="79" y="14" width="1" height="1" fill="#231f20"/>
    <rect x="97" y="14" width="1" height="1" fill="#231f20"/>
    <rect x="99" y="14" width="1" height="1" fill="#231f20"/>
    <rect x="101" y="14" width="1" height="1" fill="#231f20"/>
    <rect x="122" y="14" width="1" height="1" fill="#231f20"/>
    <rect x="124" y="14" width="1" height="1" fill="#231f20"/>
    <rect x="126" y="14" width="1" height="1" fill="#231f20"/>
    <rect x="153" y="14" width="1" height="1" fill="#231f20"/>
    <rect x="0" y="15" width="1" height="1" fill="#231f20"/>
    <rect x="23" y="15" width="1" height="1" fill="#231f20"/>
    <rect x="44" y="15" width="1" height="1" fill="#231f20"/>
    <rect x="69" y="15" width="1" height="1" fill="#231f20"/>
    <rect x="79" y="15" width="1" height="1" fill="#231f20"/>
    <rect x="96" y="15" width="2" height="1" fill="#231f20"/>
    <rect x="99" y="15" width="1" height="1" fill="#231f20"/>
    <rect x="101" y="15" width="2" height="1" fill="#231f20"/>
    <rect x="121" y="15" width="2" height="1" fill="#231f20"/>
    <rect x="124" y="15" width="1" height="1" fill="#231f20"/>
    <rect x="126" y="15" width="2" height="1" fill="#231f20"/>
    <rect x="153" y="15" width="1" height="1" fill="#231f20"/>
    <rect x="0" y="16" width="1" height="1" fill="#231f20"/>
    <rect x="43" y="16" width="1" height="1" fill="#231f20"/>
    <rect x="153" y="16" width="1" height="1" fill="#231f20"/>
    <rect x="0" y="17" width="1" height="1" fill="#231f20"/>
    <rect x="42" y="17" width="1" height="1" fill="#231f20"/>
    <rect x="153" y="17" width="1" height="1" fill="#231f20"/>
    <rect x="0" y="18" width="1" height="1" fill="#231f20"/>
    <rect x="41" y="18" width="1" height="1" fill="#231f20"/>
    <rect x="153" y="18" width="1" height="1" fill="#231f20"/>
    <rect x="0" y="19" width="1" height="1" fill="#231f20"/>
    <rect x="40" y="19" width="1" height="1" fill="#231f20"/>
    <rect x="153" y="19" width="1" height="1" fill="#231f20"/>
    <rect x="0" y="20" width="154" height="1" fill="#231f20"/>
    <rect x="0" y="21" width="1" height="1" fill="#231f20"/>
    <rect x="114" y="21" width="1" height="1" fill="#231f20"/>
    <rect x="153" y="21" width="1" height="1" fill="#231f20"/>
    <rect x="0" y="22" width="1" height="1" fill="#231f20"/>
    <rect x="113" y="22" width="1" height="1" fill="#231f20"/>
    <rect x="153" y="22" width="1" height="1" fill="#231f20"/>
    <rect x="0" y="23" width="1" height="1" fill="#231f20"/>
    <rect x="112" y="23" width="1" height="1" fill="#231f20"/>
    <rect x="153" y="23" width="1" height="1" fill="#231f20"/>
    <rect x="0" y="24" width="1" height="1" fill="#231f20"/>
    <rect x="111" y="24" width="1" height="1" fill="#231f20"/>
    <rect x="153" y="24" width="1" height="1" fill="#231f20"/>
    <rect x="0" y="25" width="1" height="1" fill="#231f20"/>
    <rect x="78" y="25" width="1" height="1" fill="#231f20"/>
    <rect x="80" y="25" width="1" height="1" fill="#231f20"/>
    <rect x="110" y="25" width="1" height="1" fill="#231f20"/>
    <rect x="125" y="25" width="1" height="1" fill="#231f20"/>
    <rect x="135" y="25" width="1" height="1" fill="#231f20"/>
    <rect x="153" y="25" width="1" height="1" fill="#231f20"/>
    <rect x="0" y="26" width="1" height="1" fill="#231f20"/>
    <rect x="78" y="26" width="1" height="1" fill="#231f20"/>
    <rect x="80" y="26" width="1" height="1" fill="#231f20"/>
    <rect x="109" y="26" width="1" height="1" fill="#231f20"/>
    <rect x="126" y="26" width="1" height="1" fill="#231f20"/>
    <rect x="135" y="26" width="1" height="1" fill="#231f20"/>
    <rect x="153" y="26" width="1" height="1" fill="#231f20"/>
    <rect x="0" y="27" width="1" height="1" fill="#231f20"/>
    <rect x="25" y="27" width="3" height="1" fill="#231f20"/>
    <rect x="29" y="27" width="3" height="1" fill="#231f20"/>
    <rect x="50" y="27" width="3" height="1" fill="#231f20"/>
    <rect x="54" y="27" width="3" height="1" fill="#231f20"/>
    <rect x="77" y="27" width="1" height="1" fill="#231f20"/>
    <rect x="81" y="27" width="1" height="1" fill="#231f20"/>
    <rect x="108" y="27" width="1" height="1" fill="#231f20"/>
    <rect x="126" y="27" width="1" height="1" fill="#231f20"/>
    <rect x="134" y="27" width="1" height="1" fill="#231f20"/>
    <rect x="153" y="27" width="1" height="1" fill="#231f20"/>
    <rect x="0" y="28" width="1" height="1" fill="#231f20"/>
    <rect x="26" y="28" width="2" height="1" fill="#231f20"/>
    <rect x="29" y="28" width="2" height="1" fill="#231f20"/>
    <rect x="51" y="28" width="2" height="1" fill="#231f20"/>
    <rect x="54" y="28" width="2" height="1" fill="#231f20"/>
    <rect x="77" y="28" width="1" height="1" fill="#231f20"/>
    <rect x="81" y="28" width="1" height="1" fill="#231f20"/>
    <rect x="107" y="28" width="1" height="1" fill="#231f20"/>
    <rect x="127" y="28" width="1" height="1" fill="#231f20"/>
    <rect x="134" y="28" width="1" height="1" fill="#231f20"/>
    <rect x="153" y="28" width="1" height="1" fill="#231f20"/>
    <rect x="0" y="29" width="1" height="1" fill="#231f20"/>
    <rect x="26" y="29" width="2" height="1" fill="#231f20"/>
    <rect x="29" y="29" width="2" height="1" fill="#231f20"/>
    <rect x="51" y="29" width="2" height="1" fill="#231f20"/>
    <rect x="54" y="29" width="2" height="1" fill="#231f20"/>
    <rect x="77" y="29" width="1" height="1" fill="#231f20"/>
    <rect x="81" y="29" width="1" height="1" fill="#231f20"/>
    <rect x="106" y="29" width="1" height="1" fill="#231f20"/>
    <rect x="127" y="29" width="1" height="1" fill="#231f20"/>
    <rect x="133" y="29" width="1" height="1" fill="#231f20"/>
    <rect x="153" y="29" width="1" height="1" fill="#231f20"/>
    <rect x="0" y="30" width="1" height="1" fill="#231f20"/>
    <rect x="26" y="30" width="2" height="1" fill="#231f20"/>
    <rect x="29" y="30" width="2" height="1" fill="#231f20"/>
    <rect x="51" y="30" width="2" height="1" fill="#231f20"/>
    <rect x="54" y="30" width="2" height="1" fill="#231f20"/>
    <rect x="76" y="30" width="1" height="1" fill="#231f20"/>
    <rect x="82" y="30" width="1" height="1" fill="#231f20"/>
    <rect x="105" y="30" width="1" height="1" fill="#231f20"/>
    <rect x="128" y="30" width="1" height="1" fill="#231f20"/>
    <rect x="133" y="30" width="1" height="1" fill="#231f20"/>
    <rect x="153" y="30" width="1" height="1" fill="#231f20"/>
    <rect x="0" y="31" width="1" height="1" fill="#231f20"/>
    <rect x="26" y="31" width="1" height="1" fill="#231f20"/>
    <rect x="28" y="31" width="1" height="1" fill="#231f20"/>
    <rect x="30" y="31" width="1" height="1" fill="#231f20"/>
    <rect x="51" y="31" width="1" height="1" fill="#231f20"/>
    <rect x="53" y="31" width="1" height="1" fill="#231f20"/>
    <rect x="55" y="31" width="1" height="1" fill="#231f20"/>
    <rect x="76" y="31" width="1" height="1" fill="#231f20"/>
    <rect x="82" y="31" width="1" height="1" fill="#231f20"/>
    <rect x="104" y="31" width="1" height="1" fill="#231f20"/>
    <rect x="128" y="31" width="1" height="1" fill="#231f20"/>
    <rect x="132" y="31" width="1" height="1" fill="#231f20"/>
    <rect x="153" y="31" width="1" height="1" fill="#231f20"/>
    <rect x="0" y="32" width="1" height="1" fill="#231f20"/>
    <rect x="26" y="32" width="1" height="1" fill="#231f20"/>
    <rect x="28" y="32" width="1" height="1" fill="#231f20"/>
    <rect x="30" y="32" width="1" height="1" fill="#231f20"/>
    <rect x="51" y="32" width="1" height="1" fill="#231f20"/>
    <rect x="53" y="32" width="1" height="1" fill="#231f20"/>
    <rect x="55" y="32" width="1" height="1" fill="#231f20"/>
    <rect x="75" y="32" width="1" height="1" fill="#231f20"/>
    <rect x="83" y="32" width="1" height="1" fill="#231f20"/>
    <rect x="103" y="32" width="1" height="1" fill="#231f20"/>
    <rect x="129" y="32" width="1" height="1" fill="#231f20"/>
    <rect x="132" y="32" width="1" height="1" fill="#231f20"/>
    <rect x="153" y="32" width="1" height="1" fill="#231f20"/>
    <rect x="0" y="33" width="1" height="1" fill="#231f20"/>
    <rect x="26" y="33" width="1" height="1" fill="#231f20"/>
    <rect x="28" y="33" width="1" height="1" fill="#231f20"/>
    <rect x="30" y="33" width="1" height="1" fill="#231f20"/>
    <rect x="51" y="33" width="1" height="1" fill="#231f20"/>
    <rect x="53" y="33" width="1" height="1" fill="#231f20"/>
    <rect x="55" y="33" width="1" height="1" fill="#231f20"/>
    <rect x="75" y="33" width="1" height="1" fill="#231f20"/>
    <rect x="83" y="33" width="1" height="1" fill="#231f20"/>
    <rect x="102" y="33" width="1" height="1" fill="#231f20"/>
    <rect x="129" y="33" width="1" height="1" fill="#231f20"/>
    <rect x="131" y="33" width="1" height="1" fill="#231f20"/>
    <rect x="153" y="33" width="1" height="1" fill="#231f20"/>
    <rect x="0" y="34" width="1" height="1" fill="#231f20"/>
    <rect x="26" y="34" width="1" height="1" fill="#231f20"/>
    <rect x="28" y="34" width="1" height="1" fill="#231f20"/>
    <rect x="30" y="34" width="1" height="1" fill="#231f20"/>
    <rect x="51" y="34" width="1" height="1" fill="#231f20"/>
    <rect x="53" y="34" width="1" height="1" fill="#231f20"/>
    <rect x="55" y="34" width="1" height="1" fill="#231f20"/>
    <rect x="75" y="34" width="1" height="1" fill="#231f20"/>
    <rect x="83" y="34" width="1" height="1" fill="#231f20"/>
    <rect x="101" y="34" width="1" height="1" fill="#231f20"/>
    <rect x="130" y="34" width="2" height="1" fill="#231f20"/>
    <rect x="153" y="34" width="1" height="1" fill="#231f20"/>
    <rect x="0" y="35" width="1" height="1" fill="#231f20"/>
    <rect x="25" y="35" width="2" height="1" fill="#231f20"/>
    <rect x="28" y="35" width="1" height="1" fill="#231f20"/>
    <rect x="30" y="35" width="2" height="1" fill="#231f20"/>
    <rect x="50" y="35" width="2" height="1" fill="#231f20"/>
    <rect x="53" y="35" width="1" height="1" fill="#231f20"/>
    <rect x="55" y="35" width="2" height="1" fill="#231f20"/>
    <rect x="74" y="35" width="1" height="1" fill="#231f20"/>
    <rect x="84" y="35" width="1" height="1" fill="#231f20"/>
    <rect x="100" y="35" width="1" height="1" fill="#231f20"/>
    <rect x="130" y="35" width="1" height="1" fill="#231f20"/>
    <rect x="153" y="35" width="1" height="1" fill="#231f20"/>
    <rect x="0" y="36" width="1" height="1" fill="#231f20"/>
    <rect x="74" y="36" width="1" height="1" fill="#231f20"/>
    <rect x="84" y="36" width="1" height="1" fill="#231f20"/>
    <rect x="99" y="36" width="1" height="1" fill="#231f20"/>
    <rect x="153" y="36" width="1" height="1" fill="#231f20"/>
    <rect x="0" y="37" width="1" height="1" fill="#231f20"/>
    <rect x="98" y="37" width="1" height="1" fill="#231f20"/>
    <rect x="153" y="37" width="1" height="1" fill="#231f20"/>
    <rect x="0" y="38" width="1" height="1" fill="#231f20"/>
    <rect x="97" y="38" width="1" height="1" fill="#231f20"/>
    <rect x="153" y="38" width="1" height="1" fill="#231f20"/>
    <rect x="0" y="39" width="1" height="1" fill="#231f20"/>
    <rect x="96" y="39" width="1" height="1" fill="#231f20"/>
    <rect x="153" y="39" width="1" height="1" fill="#231f20"/>
    <rect x="0" y="40" width="1" height="1" fill="#231f20"/>
    <rect x="95" y="40" width="1" height="1" fill="#231f20"/>
    <rect x="153" y="40" width="1" height="1" fill="#231f20"/>
    <rect x="0" y="41" width="154" height="1" fill="#231f20"/>
    <rect x="0" y="42" width="1" height="1" fill="#231f20"/>
    <rect x="58" y="42" width="1" height="1" fill="#231f20"/>
    <rect x="153" y="42" width="1" height="1" fill="#231f20"/>
    <rect x="0" y="43" width="1" height="1" fill="#231f20"/>
    <rect x="57" y="43" width="1" height="1" fill="#231f20"/>
    <rect x="153" y="43" width="1" height="1" fill="#231f20"/>
    <rect x="0" y="44" width="1" height="1" fill="#231f20"/>
    <rect x="56" y="44" width="1" height="1" fill="#231f20"/>
    <rect x="153" y="44" width="1" height="1" fill="#231f20"/>
    <rect x="0" y="45" width="1" height="1" fill="#231f20"/>
    <rect x="55" y="45" width="1" height="1" fill="#231f20"/>
    <rect x="153" y="45" width="1" height="1" fill="#231f20"/>
    <rect x="0" y="46" width="1" height="1" fill="#231f20"/>
    <rect x="18" y="46" width="1" height="1" fill="#231f20"/>
    <rect x="28" y="46" width="1" height="1" fill="#231f20"/>
    <rect x="54" y="46" width="1" height="1" fill="#231f20"/>
    <rect x="73" y="46" width="1" height="1" fill="#231f20"/>
    <rect x="75" y="46" width="1" height="1" fill="#231f20"/>
    <rect x="153" y="46" width="1" height="1" fill="#231f20"/>
    <rect x="0" y="47" width="1" height="1" fill="#231f20"/>
    <rect x="19" y="47" width="1" height="1" fill="#231f20"/>
    <rect x="28" y="47" width="1" height="1" fill="#231f20"/>
    <rect x="53" y="47" width="1" height="1" fill="#231f20"/>
    <rect x="73" y="47" width="1" height="1" fill="#231f20"/>
    <rect x="75" y="47" width="1" height="1" fill="#231f20"/>
    <rect x="153" y="47" width="1" height="1" fill="#231f20"/>
    <rect x="0" y="48" width="1" height="1" fill="#231f20"/>
    <rect x="19" y="48" width="1" height="1" fill="#231f20"/>
    <rect x="27" y="48" width="1" height="1" fill="#231f20"/>
    <rect x="52" y="48" width="1" height="1" fill="#231f20"/>
    <rect x="72" y="48" width="1" height="1" fill="#231f20"/>
    <rect x="76" y="48" width="1" height="1" fill="#231f20"/>
    <rect x="96" y="48" width="3" height="1" fill="#231f20"/>
    <rect x="100" y="48" width="3" height="1" fill="#231f20"/>
    <rect x="121" y="48" width="3" height="1" fill="#231f20"/>
    <rect x="125" y="48" width="3" height="1" fill="#231f20"/>
    <rect x="153" y="48" width="1" height="1" fill="#231f20"/>
    <rect x="0" y="49" width="1" height="1" fill="#231f20"/>
    <rect x="20" y="49" width="1" height="1" fill="#231f20"/>
    <rect x="27" y="49" width="1" height="1" fill="#231f20"/>
    <rect x="51" y="49" width="1" height="1" fill="#231f20"/>
    <rect x="72" y="49" width="1" height="1" fill="#231f20"/>
    <rect x="76" y="49" width="1" height="1" fill="#231f20"/>
    <rect x="97" y="49" width="2" height="1" fill="#231f20"/>
    <rect x="100" y="49" width="2" height="1" fill="#231f20"/>
    <rect x="122" y="49" width="2" height="1" fill="#231f20"/>
    <rect x="125" y="49" width="2" height="1" fill="#231f20"/>
    <rect x="153" y="49" width="1" height="1" fill="#231f20"/>
    <rect x="0" y="50" width="1" height="1" fill="#231f20"/>
    <rect x="20" y="50" width="1" height="1" fill="#231f20"/>
    <rect x="26" y="50" width="1" height="1" fill="#231f20"/>
    <rect x="50" y="50" width="1" height="1" fill="#231f20"/>
    <rect x="71" y="50" width="1" height="1" fill="#231f20"/>
    <rect x="77" y="50" width="1" height="1" fill="#231f20"/>
    <rect x="97" y="50" width="2" height="1" fill="#231f20"/>
    <rect x="100" y="50" width="2" height="1" fill="#231f20"/>
    <rect x="122" y="50" width="2" height="1" fill="#231f20"/>
    <rect x="125" y="50" width="2" height="1" fill="#231f20"/>
    <rect x="153" y="50" width="1" height="1" fill="#231f20"/>
    <rect x="0" y="51" width="1" height="1" fill="#231f20"/>
    <rect x="21" y="51" width="1" height="1" fill="#231f20"/>
    <rect x="26" y="51" width="1" height="1" fill="#231f20"/>
    <rect x="49" y="51" width="1" height="1" fill="#231f20"/>
    <rect x="71" y="51" width="1" height="1" fill="#231f20"/>
    <rect x="77" y="51" width="1" height="1" fill="#231f20"/>
    <rect x="97" y="51" width="2" height="1" fill="#231f20"/>
    <rect x="100" y="51" width="2" height="1" fill="#231f20"/>
    <rect x="122" y="51" width="2" height="1" fill="#231f20"/>
    <rect x="125" y="51" width="2" height="1" fill="#231f20"/>
    <rect x="153" y="51" width="1" height="1" fill="#231f20"/>
    <rect x="0" y="52" width="1" height="1" fill="#231f20"/>
    <rect x="21" y="52" width="1" height="1" fill="#231f20"/>
    <rect x="25" y="52" width="1" height="1" fill="#231f20"/>
    <rect x="48" y="52" width="1" height="1" fill="#231f20"/>
    <rect x="71" y="52" width="1" height="1" fill="#231f20"/>
    <rect x="77" y="52" width="1" height="1" fill="#231f20"/>
    <rect x="97" y="52" width="1" height="1" fill="#231f20"/>
    <rect x="99" y="52" width="1" height="1" fill="#231f20"/>
    <rect x="101" y="52" width="1" height="1" fill="#231f20"/>
    <rect x="122" y="52" width="1" height="1" fill="#231f20"/>
    <rect x="124" y="52" width="1" height="1" fill="#231f20"/>
    <rect x="126" y="52" width="1" height="1" fill="#231f20"/>
    <rect x="153" y="52" width="1" height="1" fill="#231f20"/>
    <rect x="0" y="53" width="1" height="1" fill="#231f20"/>
    <rect x="22" y="53" width="1" height="1" fill="#231f20"/>
    <rect x="25" y="53" width="1" height="1" fill="#231f20"/>
    <rect x="47" y="53" width="1" height="1" fill="#231f20"/>
    <rect x="70" y="53" width="1" height="1" fill="#231f20"/>
    <rect x="78" y="53" width="1" height="1" fill="#231f20"/>
    <rect x="97" y="53" width="1" height="1" fill="#231f20"/>
    <rect x="99" y="53" width="1" height="1" fill="#231f20"/>
    <rect x="101" y="53" width="1" height="1" fill="#231f20"/>
    <rect x="122" y="53" width="1" height="1" fill="#231f20"/>
    <rect x="124" y="53" width="1" height="1" fill="#231f20"/>
    <rect x="126" y="53" width="1" height="1" fill="#231f20"/>
    <rect x="153" y="53" width="1" height="1" fill="#231f20"/>
    <rect x="0" y="54" width="1" height="1" fill="#231f20"/>
    <rect x="22" y="54" width="1" height="1" fill="#231f20"/>
    <rect x="24" y="54" width="1" height="1" fill="#231f20"/>
    <rect x="46" y="54" width="1" height="1" fill="#231f20"/>
    <rect x="70" y="54" width="1" height="1" fill="#231f20"/>
    <rect x="78" y="54" width="1" height="1" fill="#231f20"/>
    <rect x="97" y="54" width="1" height="1" fill="#231f20"/>
    <rect x="99" y="54" width="1" height="1" fill="#231f20"/>
    <rect x="101" y="54" width="1" height="1" fill="#231f20"/>
    <rect x="122" y="54" width="1" height="1" fill="#231f20"/>
    <rect x="124" y="54" width="1" height="1" fill="#231f20"/>
    <rect x="126" y="54" width="1" height="1" fill="#231f20"/>
    <rect x="153" y="54" width="1" height="1" fill="#231f20"/>
    <rect x="0" y="55" width="1" height="1" fill="#231f20"/>
    <rect x="23" y="55" width="2" height="1" fill="#231f20"/>
    <rect x="45" y="55" width="1" height="1" fill="#231f20"/>
    <rect x="69" y="55" width="1" height="1" fill="#231f20"/>
    <rect x="79" y="55" width="1" height="1" fill="#231f20"/>
    <rect x="97" y="55" width="1" height="1" fill="#231f20"/>
    <rect x="99" y="55" width="1" height="1" fill="#231f20"/>
    <rect x="101" y="55" width="1" height="1" fill="#231f20"/>
    <rect x="122" y="55" width="1" height="1" fill="#231f20"/>
    <rect x="124" y="55" width="1" height="1" fill="#231f20"/>
    <rect x="126" y="55" width="1" height="1" fill="#231f20"/>
    <rect x="153" y="55" width="1" height="1" fill="#231f20"/>
    <rect x="0" y="56" width="1" height="1" fill="#231f20"/>
    <rect x="23" y="56" width="1" height="1" fill="#231f20"/>
    <rect x="44" y="56" width="1" height="1" fill="#231f20"/>
    <rect x="69" y="56" width="1" height="1" fill="#231f20"/>
    <rect x="79" y="56" width="1" height="1" fill="#231f20"/>
    <rect x="96" y="56" width="2" height="1" fill="#231f20"/>
    <rect x="99" y="56" width="1" height="1" fill="#231f20"/>
    <rect x="101" y="56" width="2" height="1" fill="#231f20"/>
    <rect x="121" y="56" width="2" height="1" fill="#231f20"/>
    <rect x="124" y="56" width="1" height="1" fill="#231f20"/>
    <rect x="126" y="56" width="2" height="1" fill="#231f20"/>
    <rect x="153" y="56" width="1" height="1" fill="#231f20"/>
    <rect x="0" y="57" width="1" height="1" fill="#231f20"/>
    <rect x="43" y="57" width="1" height="1" fill="#231f20"/>
    <rect x="153" y="57" width="1" height="1" fill="#231f20"/>
    <rect x="0" y="58" width="1" height="1" fill="#231f20"/>
    <rect x="42" y="58" width="1" height="1" fill="#231f20"/>
    <rect x="153" y="58" width="1" height="1" fill="#231f20"/>
    <rect x="0" y="59" width="1" height="1" fill="#231f20"/>
    <rect x="41" y="59" width="1" height="1" fill="#231f20"/>
    <rect x="153" y="59" width="1" height="1" fill="#231f20"/>
    <rect x="0" y="60" width="1" height="1" fill="#231f20"/>
    <rect x="40" y="60" width="1" height="1" fill="#231f20"/>
    <rect x="153" y="60" width="1" height="1" fill="#231f20"/>
    <rect x="0" y="61" width="154" height="1" fill="#231f20"/>
  </g>
</svg>