<?xml version="1.0" encoding="UTF-8"?>
<svg xmlns="http://www.w3.org/2000/svg" viewBox="0 0 163 65" width="163" height="65">
  <!-- Auto-converted from legend-1498.png -->
  <rect x="0" y="0" width="163" height="65" fill="none"/>
  <g fill="#231f20" stroke="none">
    <rect x="0" y="0" width="163" height="1" fill="#231f20"/>
    <rect x="0" y="1" width="1" height="1" fill="#231f20"/>
    <rect x="33" y="1" width="14" height="1" fill="#231f20"/>
    <rect x="90" y="1" width="13" height="1" fill="#231f20"/>
    <rect x="162" y="1" width="1" height="1" fill="#231f20"/>
    <rect x="0" y="2" width="1" height="1" fill="#231f20"/>
    <rect x="34" y="2" width="12" height="1" fill="#231f20"/>
    <rect x="90" y="2" width="12" height="1" fill="#231f20"/>
    <rect x="162" y="2" width="1" height="1" fill="#231f20"/>
    <rect x="0" y="3" width="1" height="1" fill="#231f20"/>
    <rect x="34" y="3" width="12" height="1" fill="#231f20"/>
    <rect x="90" y="3" width="12" height="1" fill="#231f20"/>
    <rect x="162" y="3" width="1" height="1" fill="#231f20"/>
    <rect x="0" y="4" width="1" height="1" fill="#231f20"/>
    <rect x="34" y="4" width="12" height="1" fill="#231f20"/>
    <rect x="90" y="4" width="12" height="1" fill="#231f20"/>
    <rect x="162" y="4" width="1" height="1" fill="#231f20"/>
    <rect x="0" y="5" width="1" height="1" fill="#231f20"/>
    <rect x="34" y="5" width="11" height="1" fill="#231f20"/>
    <rect x="91" y="5" width="11" height="1" fill="#231f20"/>
    <rect x="162" y="5" width="1" height="1" fill="#231f20"/>
    <rect x="0" y="6" width="1" height="1" fill="#231f20"/>
    <rect x="35" y="6" width="10" height="1" fill="#231f20"/>
    <rect x="91" y="6" width="10" height="1" fill="#231f20"/>
    <rect x="162" y="6" width="1" height="1" fill="#231f20"/>
    <rect x="0" y="7" width="1" height="1" fill="#231f20"/>
    <rect x="35" y="7" width="10" height="1" fill="#231f20"/>
    <rect x="91" y="7" width="10" height="1" fill="#231f20"/>
    <rect x="162" y="7" width="1" height="1" fill="#231f20"/>
    <rect x="0" y="8" width="1" height="1" fill="#231f20"/>
    <rect x="35" y="8" width="10" height="1" fill="#231f20"/>
    <rect x="92" y="8" width="9" height="1" fill="#231f20"/>
    <rect x="162" y="8" width="1" height="1" fill="#231f20"/>
    <rect x="0" y="9" width="1" height="1" fill="#231f20"/>
    <rect x="35" y="9" width="9" height="1" fill="#231f20"/>
    <rect x="92" y="9" width="9" height="1" fill="#231f20"/>
    <rect x="162" y="9" width="1" height="1" fill="#231f20"/>
    <rect x="0" y="10" width="1" height="1" fill="#231f20"/>
    <rect x="35" y="10" width="9" height="1" fill="#231f20"/>
    <rect x="92" y="10" width="9" height="1" fill="#231f20"/>
    <rect x="162" y="10" width="1" height="1" fill="#231f20"/>
    <rect x="0" y="11" width="1" height="1" fill="#231f20"/>
    <rect x="35" y="11" width="9" height="1" fill="#231f20"/>
    <rect x="92" y="11" width="9" height="1" fill="#231f20"/>
    <rect x="162" y="11" width="1" height="1" fill="#231f20"/>
    <rect x="0" y="12" width="1" height="1" fill="#231f20"/>
    <rect x="35" y="12" width="9" height="1" fill="#231f20"/>
    <rect x="92" y="12" width="9" height="1" fill="#231f20"/>
    <rect x="162" y="12" width="1" height="1" fill="#231f20"/>
    <rect x="0" y="13" width="1" height="1" fill="#231f20"/>
    <rect x="35" y="13" width="10" height="1" fill="#231f20"/>
    <rect x="92" y="13" width="9" height="1" fill="#231f20"/>
    <rect x="162" y="13" width="1" height="1" fill="#231f20"/>
    <rect x="0" y="14" width="1" height="1" fill="#231f20"/>
    <rect x="35" y="14" width="10" height="1" fill="#231f20"/>
    <rect x="91" y="14" width="10" height="1" fill="#231f20"/>
    <rect x="162" y="14" width="1" height="1" fill="#231f20"/>
    <rect x="0" y="15" width="1" height="1" fill="#231f20"/>
    <rect x="35" y="15" width="10" height="1" fill="#231f20"/>
    <rect x="91" y="15" width="10" height="1" fill="#231f20"/>
    <rect x="162" y="15" width="1" height="1" fill="#231f20"/>
    <rect x="0" y="16" width="1" height="1" fill="#231f20"/>
    <rect x="34" y="16" width="11" height="1" fill="#231f20"/>
    <rect x="91" y="16" width="11" height="1" fill="#231f20"/>
    <rect x="162" y="16" width="1" height="1" fill="#231f20"/>
    <rect x="0" y="17" width="1" height="1" fill="#231f20"/>
    <rect x="34" y="17" width="12" height="1" fill="#231f20"/>
    <rect x="90" y="17" width="12" height="1" fill="#231f20"/>
    <rect x="162" y="17" width="1" height="1" fill="#231f20"/>
    <rect x="0" y="18" width="1" height="1" fill="#231f20"/>
    <rect x="34" y="18" width="12" height="1" fill="#231f20"/>
    <rect x="90" y="18" width="12" height="1" fill="#231f20"/>
    <rect x="162" y="18" width="1" height="1" fill="#231f20"/>
    <rect x="0" y="19" width="1" height="1" fill="#231f20"/>
    <rect x="34" y="19" width="13" height="1" fill="#231f20"/>
    <rect x="90" y="19" width="13" height="1" fill="#231f20"/>
    <rect x="162" y="19" width="1" height="1" fill="#231f20"/>
    <rect x="0" y="20" width="1" height="1" fill="#231f20"/>
    <rect x="33" y="20" width="14" height="1" fill="#231f20"/>
    <rect x="90" y="20" width="13" height="1" fill="#231f20"/>
    <rect x="162" y="20" width="1" height="1" fill="#231f20"/>
    <rect x="0" y="21" width="163" height="1" fill="#231f20"/>
    <rect x="0" y="22" width="1" height="1" fill="#231f20"/>
    <rect x="60" y="22" width="13" height="1" fill="#231f20"/>
    <rect x="116" y="22" width="14" height="1" fill="#231f20"/>
    <rect x="162" y="22" width="1" height="1" fill="#231f20"/>
    <rect x="0" y="23" width="1" height="1" fill="#231f20"/>
    <rect x="60" y="23" width="13" height="1" fill="#231f20"/>
    <rect x="117" y="23" width="13" height="1" fill="#231f20"/>
    <rect x="162" y="23" width="1" height="1" fill="#231f20"/>
    <rect x="0" y="24" width="1" height="1" fill="#231f20"/>
    <rect x="60" y="24" width="13" height="1" fill="#231f20"/>
    <rect x="117" y="24" width="12" height="1" fill="#231f20"/>
    <rect x="162" y="24" width="1" height="1" fill="#231f20"/>
    <rect x="0" y="25" width="1" height="1" fill="#231f20"/>
    <rect x="61" y="25" width="11" height="1" fill="#231f20"/>
    <rect x="117" y="25" width="12" height="1" fill="#231f20"/>
    <rect x="162" y="25" width="1" height="1" fill="#231f20"/>
    <rect x="0" y="26" width="1" height="1" fill="#231f20"/>
    <rect x="61" y="26" width="11" height="1" fill="#231f20"/>
    <rect x="118" y="26" width="11" height="1" fill="#231f20"/>
    <rect x="162" y="26" width="1" height="1" fill="#231f20"/>
    <rect x="0" y="27" width="1" height="1" fill="#231f20"/>
    <rect x="62" y="27" width="10" height="1" fill="#231f20"/>
    <rect x="118" y="27" width="10" height="1" fill="#231f20"/>
    <rect x="162" y="27" width="1" height="1" fill="#231f20"/>
    <rect x="0" y="28" width="1" height="1" fill="#231f20"/>
    <rect x="62" y="28" width="10" height="1" fill="#231f20"/>
    <rect x="118" y="28" width="10" height="1" fill="#231f20"/>
    <rect x="162" y="28" width="1" height="1" fill="#231f20"/>
    <rect x="0" y="29" width="1" height="1" fill="#231f20"/>
    <rect x="62" y="29" width="9" height="1" fill="#231f20"/>
    <rect x="118" y="29" width="10" height="1" fill="#231f20"/>
    <rect x="162" y="29" width="1" height="1" fill="#231f20"/>
    <rect x="0" y="30" width="1" height="1" fill="#231f20"/>
    <rect x="62" y="30" width="9" height="1" fill="#231f20"/>
    <rect x="118" y="30" width="10" height="1" fill="#231f20"/>
    <rect x="162" y="30" width="1" height="1" fill="#231f20"/>
    <rect x="0" y="31" width="1" height="1" fill="#231f20"/>
    <rect x="62" y="31" width="9" height="1" fill="#231f20"/>
    <rect x="119" y="31" width="9" height="1" fill="#231f20"/>
    <rect x="162" y="31" width="1" height="1" fill="#231f20"/>
    <rect x="0" y="32" width="1" height="1" fill="#231f20"/>
    <rect x="62" y="32" width="9" height="1" fill="#231f20"/>
    <rect x="119" y="32" width="9" height="1" fill="#231f20"/>
    <rect x="162" y="32" width="1" height="1" fill="#231f20"/>
    <rect x="0" y="33" width="1" height="1" fill="#231f20"/>
    <rect x="62" y="33" width="9" height="1" fill="#231f20"/>
    <rect x="119" y="33" width="9" height="1" fill="#231f20"/>
    <rect x="162" y="33" width="1" height="1" fill="#231f20"/>
    <rect x="0" y="34" width="1" height="1" fill="#231f20"/>
    <rect x="62" y="34" width="9" height="1" fill="#231f20"/>
    <rect x="118" y="34" width="10" height="1" fill="#231f20"/>
    <rect x="162" y="34" width="1" height="1" fill="#231f20"/>
    <rect x="0" y="35" width="1" height="1" fill="#231f20"/>
    <rect x="62" y="35" width="10" height="1" fill="#231f20"/>
    <rect x="118" y="35" width="10" height="1" fill="#231f20"/>
    <rect x="162" y="35" width="1" height="1" fill="#231f20"/>
    <rect x="0" y="36" width="1" height="1" fill="#231f20"/>
    <rect x="62" y="36" width="10" height="1" fill="#231f20"/>
    <rect x="118" y="36" width="10" height="1" fill="#231f20"/>
    <rect x="162" y="36" width="1" height="1" fill="#231f20"/>
    <rect x="0" y="37" width="1" height="1" fill="#231f20"/>
    <rect x="61" y="37" width="11" height="1" fill="#231f20"/>
    <rect x="118" y="37" width="10" height="1" fill="#231f20"/>
    <rect x="162" y="37" width="1" height="1" fill="#231f20"/>
    <rect x="0" y="38" width="1" height="1" fill="#231f20"/>
    <rect x="61" y="38" width="11" height="1" fill="#231f20"/>
    <rect x="118" y="38" width="11" height="1" fill="#231f20"/>
    <rect x="162" y="38" width="1" height="1" fill="#231f20"/>
    <rect x="0" y="39" width="1" height="1" fill="#231f20"/>
    <rect x="61" y="39" width="11" height="1" fill="#231f20"/>
    <rect x="117" y="39" width="12" height="1" fill="#231f20"/>
    <rect x="162" y="39" width="1" height="1" fill="#231f20"/>
    <rect x="0" y="40" width="1" height="1" fill="#231f20"/>
    <rect x="60" y="40" width="13" height="1" fill="#231f20"/>
    <rect x="117" y="40" width="12" height="1" fill="#231f20"/>
    <rect x="162" y="40" width="1" height="1" fill="#231f20"/>
    <rect x="0" y="41" width="1" height="1" fill="#231f20"/>
    <rect x="60" y="41" width="13" height="1" fill="#231f20"/>
    <rect x="116" y="41" width="14" height="1" fill="#231f20"/>
    <rect x="162" y="41" width="1" height="1" fill="#231f20"/>
    <rect x="0" y="42" width="1" height="1" fill="#231f20"/>
    <rect x="60" y="42" width="14" height="1" fill="#231f20"/>
    <rect x="116" y="42" width="14" height="1" fill="#231f20"/>
    <rect x="162" y="42" width="1" height="1" fill="#231f20"/>
    <rect x="0" y="43" width="163" height="1" fill="#231f20"/>
    <rect x="0" y="44" width="1" height="1" fill="#231f20"/>
    <rect x="33" y="44" width="14" height="1" fill="#231f20"/>
    <rect x="90" y="44" width="13" height="1" fill="#231f20"/>
    <rect x="162" y="44" width="1" height="1" fill="#231f20"/>
    <rect x="0" y="45" width="1" height="1" fill="#231f20"/>
    <rect x="34" y="45" width="12" height="1" fill="#231f20"/>
    <rect x="90" y="45" width="12" height="1" fill="#231f20"/>
    <rect x="162" y="45" width="1" height="1" fill="#231f20"/>
    <rect x="0" y="46" width="1" height="1" fill="#231f20"/>
    <rect x="34" y="46" width="12" height="1" fill="#231f20"/>
    <rect x="90" y="46" width="12" height="1" fill="#231f20"/>
    <rect x="162" y="46" width="1" height="1" fill="#231f20"/>
    <rect x="0" y="47" width="1" height="1" fill="#231f20"/>
    <rect x="34" y="47" width="12" height="1" fill="#231f20"/>
    <rect x="90" y="47" width="12" height="1" fill="#231f20"/>
    <rect x="162" y="47" width="1" height="1" fill="#231f20"/>
    <rect x="0" y="48" width="1" height="1" fill="#231f20"/>
    <rect x="34" y="48" width="11" height="1" fill="#231f20"/>
    <rect x="91" y="48" width="11" height="1" fill="#231f20"/>
    <rect x="162" y="48" width="1" height="1" fill="#231f20"/>
    <rect x="0" y="49" width="1" height="1" fill="#231f20"/>
    <rect x="35" y="49" width="10" height="1" fill="#231f20"/>
    <rect x="91" y="49" width="10" height="1" fill="#231f20"/>
    <rect x="162" y="49" width="1" height="1" fill="#231f20"/>
    <rect x="0" y="50" width="1" height="1" fill="#231f20"/>
    <rect x="35" y="50" width="10" height="1" fill="#231f20"/>
    <rect x="91" y="50" width="10" height="1" fill="#231f20"/>
    <rect x="162" y="50" width="1" height="1" fill="#231f20"/>
    <rect x="0" y="51" width="1" height="1" fill="#231f20"/>
    <rect x="35" y="51" width="10" height="1" fill="#231f20"/>
    <rect x="92" y="51" width="9" height="1" fill="#231f20"/>
    <rect x="162" y="51" width="1" height="1" fill="#231f20"/>
    <rect x="0" y="52" width="1" height="1" fill="#231f20"/>
    <rect x="35" y="52" width="9" height="1" fill="#231f20"/>
    <rect x="92" y="52" width="9" height="1" fill="#231f20"/>
    <rect x="162" y="52" width="1" height="1" fill="#231f20"/>
    <rect x="0" y="53" width="1" height="1" fill="#231f20"/>
    <rect x="35" y="53" width="9" height="1" fill="#231f20"/>
    <rect x="92" y="53" width="9" height="1" fill="#231f20"/>
    <rect x="162" y="53" width="1" height="1" fill="#231f20"/>
    <rect x="0" y="54" width="1" height="1" fill="#231f20"/>
    <rect x="35" y="54" width="9" height="1" fill="#231f20"/>
    <rect x="92" y="54" width="9" height="1" fill="#231f20"/>
    <rect x="162" y="54" width="1" height="1" fill="#231f20"/>
    <rect x="0" y="55" width="1" height="1" fill="#231f20"/>
    <rect x="35" y="55" width="9" height="1" fill="#231f20"/>
    <rect x="92" y="55" width="9" height="1" fill="#231f20"/>
    <rect x="162" y="55" width="1" height="1" fill="#231f20"/>
    <rect x="0" y="56" width="1" height="1" fill="#231f20"/>
    <rect x="35" y="56" width="10" height="1" fill="#231f20"/>
    <rect x="92" y="56" width="9" height="1" fill="#231f20"/>
    <rect x="162" y="56" width="1" height="1" fill="#231f20"/>
    <rect x="0" y="57" width="1" height="1" fill="#231f20"/>
    <rect x="35" y="57" width="10" height="1" fill="#231f20"/>
    <rect x="91" y="57" width="10" height="1" fill="#231f20"/>
    <rect x="162" y="57" width="1" height="1" fill="#231f20"/>
    <rect x="0" y="58" width="1" height="1" fill="#231f20"/>
    <rect x="35" y="58" width="10" height="1" fill="#231f20"/>
    <rect x="91" y="58" width="10" height="1" fill="#231f20"/>
    <rect x="162" y="58" width="1" height="1" fill="#231f20"/>
    <rect x="0" y="59" width="1" height="1" fill="#231f20"/>
    <rect x="34" y="59" width="11" height="1" fill="#231f20"/>
    <rect x="91" y="59" width="11" height="1" fill="#231f20"/>
    <rect x="162" y="59" width="1" height="1" fill="#231f20"/>
    <rect x="0" y="60" width="1" height="1" fill="#231f20"/>
    <rect x="34" y="60" width="12" height="1" fill="#231f20"/>
    <rect x="90" y="60" width="12" height="1" fill="#231f20"/>
    <rect x="162" y="60" width="1" height="1" fill="#231f20"/>
    <rect x="0" y="61" width="1" height="1" fill="#231f20"/>
    <rect x="34" y="61" width="12" height="1" fill="#231f20"/>
    <rect x="90" y="61" width="12" height="1" fill="#231f20"/>
    <rect x="162" y="61" width="1" height="1" fill="#231f20"/>
    <rect x="0" y="62" width="1" height="1" fill="#231f20"/>
    <rect x="34" y="62" width="13" height="1" fill="#231f20"/>
    <rect x="90" y="62" width="13" height="1" fill="#231f20"/>
    <rect x="162" y="62" width="1" height="1" fill="#231f20"/>
    <rect x="0" y="63" width="1" height="1" fill="#231f20"/>
    <rect x="33" y="63" width="14" height="1" fill="#231f20"/>
    <rect x="90" y="63" width="13" height="1" fill="#231f20"/>
    <rect x="162" y="63" width="1" height="1" fill="#231f20"/>
    <rect x="0" y="64" width="163" height="1" fill="#231f20"/>
  </g>
</svg>