<?xml version="1.0" encoding="UTF-8"?>
<svg xmlns="http://www.w3.org/2000/svg" viewBox="0 0 153 61" width="153" height="61">
  <!-- Auto-converted from legend-1765.png -->
  <rect x="0" y="0" width="153" height="61" fill="none"/>
  <g fill="#231f20" stroke="none">
    <rect x="0" y="0" width="153" height="1" fill="#231f20"/>
    <rect x="0" y="1" width="1" height="1" fill="#231f20"/>
    <rect x="152" y="1" width="1" height="1" fill="#231f20"/>
    <rect x="0" y="2" width="1" height="1" fill="#231f20"/>
    <rect x="152" y="2" width="1" height="1" fill="#231f20"/>
    <rect x="0" y="3" width="1" height="1" fill="#231f20"/>
    <rect x="152" y="3" width="1" height="1" fill="#231f20"/>
    <rect x="0" y="4" width="1" height="1" fill="#231f20"/>
    <rect x="152" y="4" width="1" height="1" fill="#231f20"/>
    <rect x="0" y="5" width="1" height="1" fill="#231f20"/>
    <rect x="52" y="5" width="8" height="1" fill="#231f20"/>
    <rect x="84" y="5" width="1" height="1" fill="#231f20"/>
    <rect x="115" y="5" width="1" height="1" fill="#231f20"/>
    <rect x="117" y="5" width="1" height="1" fill="#231f20"/>
    <rect x="152" y="5" width="1" height="1" fill="#231f20"/>
    <rect x="0" y="6" width="1" height="1" fill="#231f20"/>
    <rect x="20" y="6" width="3" height="1" fill="#231f20"/>
    <rect x="52" y="6" width="1" height="1" fill="#231f20"/>
    <rect x="59" y="6" width="1" height="1" fill="#231f20"/>
    <rect x="85" y="6" width="1" height="1" fill="#231f20"/>
    <rect x="115" y="6" width="1" height="1" fill="#231f20"/>
    <rect x="117" y="6" width="1" height="1" fill="#231f20"/>
    <rect x="152" y="6" width="1" height="1" fill="#231f20"/>
    <rect x="0" y="7" width="1" height="1" fill="#231f20"/>
    <rect x="19" y="7" width="2" height="1" fill="#231f20"/>
    <rect x="22" y="7" width="2" height="1" fill="#231f20"/>
    <rect x="52" y="7" width="1" height="1" fill="#231f20"/>
    <rect x="59" y="7" width="1" height="1" fill="#231f20"/>
    <rect x="85" y="7" width="1" height="1" fill="#231f20"/>
    <rect x="114" y="7" width="1" height="1" fill="#231f20"/>
    <rect x="118" y="7" width="1" height="1" fill="#231f20"/>
    <rect x="152" y="7" width="1" height="1" fill="#231f20"/>
    <rect x="0" y="8" width="1" height="1" fill="#231f20"/>
    <rect x="18" y="8" width="2" height="1" fill="#231f20"/>
    <rect x="23" y="8" width="2" height="1" fill="#231f20"/>
    <rect x="52" y="8" width="1" height="1" fill="#231f20"/>
    <rect x="59" y="8" width="1" height="1" fill="#231f20"/>
    <rect x="86" y="8" width="1" height="1" fill="#231f20"/>
    <rect x="114" y="8" width="1" height="1" fill="#231f20"/>
    <rect x="118" y="8" width="1" height="1" fill="#231f20"/>
    <rect x="152" y="8" width="1" height="1" fill="#231f20"/>
    <rect x="0" y="9" width="1" height="1" fill="#231f20"/>
    <rect x="18" y="9" width="1" height="1" fill="#231f20"/>
    <rect x="25" y="9" width="1" height="1" fill="#231f20"/>
    <rect x="52" y="9" width="1" height="1" fill="#231f20"/>
    <rect x="59" y="9" width="1" height="1" fill="#231f20"/>
    <rect x="86" y="9" width="1" height="1" fill="#231f20"/>
    <rect x="113" y="9" width="1" height="1" fill="#231f20"/>
    <rect x="119" y="9" width="1" height="1" fill="#231f20"/>
    <rect x="152" y="9" width="1" height="1" fill="#231f20"/>
    <rect x="0" y="10" width="1" height="1" fill="#231f20"/>
    <rect x="17" y="10" width="1" height="1" fill="#231f20"/>
    <rect x="25" y="10" width="1" height="1" fill="#231f20"/>
    <rect x="33" y="10" width="1" height="1" fill="#231f20"/>
    <rect x="52" y="10" width="1" height="1" fill="#231f20"/>
    <rect x="59" y="10" width="1" height="1" fill="#231f20"/>
    <rect x="86" y="10" width="1" height="1" fill="#231f20"/>
    <rect x="113" y="10" width="1" height="1" fill="#231f20"/>
    <rect x="119" y="10" width="1" height="1" fill="#231f20"/>
    <rect x="152" y="10" width="1" height="1" fill="#231f20"/>
    <rect x="0" y="11" width="1" height="1" fill="#231f20"/>
    <rect x="25" y="11" width="2" height="1" fill="#231f20"/>
    <rect x="32" y="11" width="1" height="1" fill="#231f20"/>
    <rect x="52" y="11" width="1" height="1" fill="#231f20"/>
    <rect x="59" y="11" width="1" height="1" fill="#231f20"/>
    <rect x="86" y="11" width="1" height="1" fill="#231f20"/>
    <rect x="113" y="11" width="1" height="1" fill="#231f20"/>
    <rect x="119" y="11" width="1" height="1" fill="#231f20"/>
    <rect x="152" y="11" width="1" height="1" fill="#231f20"/>
    <rect x="0" y="12" width="1" height="1" fill="#231f20"/>
    <rect x="26" y="12" width="2" height="1" fill="#231f20"/>
    <rect x="31" y="12" width="1" height="1" fill="#231f20"/>
    <rect x="52" y="12" width="1" height="1" fill="#231f20"/>
    <rect x="59" y="12" width="1" height="1" fill="#231f20"/>
    <rect x="86" y="12" width="1" height="1" fill="#231f20"/>
    <rect x="112" y="12" width="1" height="1" fill="#231f20"/>
    <rect x="120" y="12" width="1" height="1" fill="#231f20"/>
    <rect x="152" y="12" width="1" height="1" fill="#231f20"/>
    <rect x="0" y="13" width="1" height="1" fill="#231f20"/>
    <rect x="27" y="13" width="2" height="1" fill="#231f20"/>
    <rect x="30" y="13" width="1" height="1" fill="#231f20"/>
    <rect x="52" y="13" width="1" height="1" fill="#231f20"/>
    <rect x="59" y="13" width="1" height="1" fill="#231f20"/>
    <rect x="85" y="13" width="1" height="1" fill="#231f20"/>
    <rect x="112" y="13" width="1" height="1" fill="#231f20"/>
    <rect x="120" y="13" width="1" height="1" fill="#231f20"/>
    <rect x="152" y="13" width="1" height="1" fill="#231f20"/>
    <rect x="0" y="14" width="1" height="1" fill="#231f20"/>
    <rect x="28" y="14" width="2" height="1" fill="#231f20"/>
    <rect x="52" y="14" width="1" height="1" fill="#231f20"/>
    <rect x="59" y="14" width="1" height="1" fill="#231f20"/>
    <rect x="85" y="14" width="1" height="1" fill="#231f20"/>
    <rect x="111" y="14" width="1" height="1" fill="#231f20"/>
    <rect x="121" y="14" width="1" height="1" fill="#231f20"/>
    <rect x="152" y="14" width="1" height="1" fill="#231f20"/>
    <rect x="0" y="15" width="1" height="1" fill="#231f20"/>
    <rect x="52" y="15" width="8" height="1" fill="#231f20"/>
    <rect x="84" y="15" width="1" height="1" fill="#231f20"/>
    <rect x="111" y="15" width="1" height="1" fill="#231f20"/>
    <rect x="121" y="15" width="1" height="1" fill="#231f20"/>
    <rect x="152" y="15" width="1" height="1" fill="#231f20"/>
    <rect x="0" y="16" width="1" height="1" fill="#231f20"/>
    <rect x="152" y="16" width="1" height="1" fill="#231f20"/>
    <rect x="0" y="17" width="1" height="1" fill="#231f20"/>
    <rect x="152" y="17" width="1" height="1" fill="#231f20"/>
    <rect x="0" y="18" width="1" height="1" fill="#231f20"/>
    <rect x="152" y="18" width="1" height="1" fill="#231f20"/>
    <rect x="0" y="19" width="1" height="1" fill="#231f20"/>
    <rect x="152" y="19" width="1" height="1" fill="#231f20"/>
    <rect x="0" y="20" width="153" height="1" fill="#231f20"/>
    <rect x="0" y="21" width="1" height="1" fill="#231f20"/>
    <rect x="152" y="21" width="1" height="1" fill="#231f20"/>
    <rect x="0" y="22" width="1" height="1" fill="#231f20"/>
    <rect x="152" y="22" width="1" height="1" fill="#231f20"/>
    <rect x="0" y="23" width="1" height="1" fill="#231f20"/>
    <rect x="152" y="23" width="1" height="1" fill="#231f20"/>
    <rect x="0" y="24" width="1" height="1" fill="#231f20"/>
    <rect x="152" y="24" width="1" height="1" fill="#231f20"/>
    <rect x="0" y="25" width="1" height="1" fill="#231f20"/>
    <rect x="34" y="25" width="1" height="1" fill="#231f20"/>
    <rect x="36" y="25" width="1" height="1" fill="#231f20"/>
    <rect x="63" y="25" width="1" height="1" fill="#231f20"/>
    <rect x="92" y="25" width="9" height="1" fill="#231f20"/>
    <rect x="152" y="25" width="1" height="1" fill="#231f20"/>
    <rect x="0" y="26" width="1" height="1" fill="#231f20"/>
    <rect x="34" y="26" width="1" height="1" fill="#231f20"/>
    <rect x="36" y="26" width="1" height="1" fill="#231f20"/>
    <rect x="64" y="26" width="1" height="1" fill="#231f20"/>
    <rect x="92" y="26" width="1" height="1" fill="#231f20"/>
    <rect x="100" y="26" width="1" height="1" fill="#231f20"/>
    <rect x="122" y="26" width="2" height="1" fill="#231f20"/>
    <rect x="152" y="26" width="1" height="1" fill="#231f20"/>
    <rect x="0" y="27" width="1" height="1" fill="#231f20"/>
    <rect x="33" y="27" width="1" height="1" fill="#231f20"/>
    <rect x="37" y="27" width="1" height="1" fill="#231f20"/>
    <rect x="64" y="27" width="1" height="1" fill="#231f20"/>
    <rect x="92" y="27" width="1" height="1" fill="#231f20"/>
    <rect x="100" y="27" width="1" height="1" fill="#231f20"/>
    <rect x="121" y="27" width="4" height="1" fill="#231f20"/>
    <rect x="152" y="27" width="1" height="1" fill="#231f20"/>
    <rect x="0" y="28" width="1" height="1" fill="#231f20"/>
    <rect x="33" y="28" width="1" height="1" fill="#231f20"/>
    <rect x="37" y="28" width="1" height="1" fill="#231f20"/>
    <rect x="65" y="28" width="1" height="1" fill="#231f20"/>
    <rect x="92" y="28" width="1" height="1" fill="#231f20"/>
    <rect x="100" y="28" width="1" height="1" fill="#231f20"/>
    <rect x="120" y="28" width="2" height="1" fill="#231f20"/>
    <rect x="124" y="28" width="2" height="1" fill="#231f20"/>
    <rect x="152" y="28" width="1" height="1" fill="#231f20"/>
    <rect x="0" y="29" width="1" height="1" fill="#231f20"/>
    <rect x="32" y="29" width="1" height="1" fill="#231f20"/>
    <rect x="38" y="29" width="1" height="1" fill="#231f20"/>
    <rect x="65" y="29" width="1" height="1" fill="#231f20"/>
    <rect x="92" y="29" width="1" height="1" fill="#231f20"/>
    <rect x="100" y="29" width="1" height="1" fill="#231f20"/>
    <rect x="119" y="29" width="2" height="1" fill="#231f20"/>
    <rect x="125" y="29" width="2" height="1" fill="#231f20"/>
    <rect x="152" y="29" width="1" height="1" fill="#231f20"/>
    <rect x="0" y="30" width="1" height="1" fill="#231f20"/>
    <rect x="32" y="30" width="1" height="1" fill="#231f20"/>
    <rect x="38" y="30" width="1" height="1" fill="#231f20"/>
    <rect x="65" y="30" width="1" height="1" fill="#231f20"/>
    <rect x="92" y="30" width="1" height="1" fill="#231f20"/>
    <rect x="100" y="30" width="1" height="1" fill="#231f20"/>
    <rect x="119" y="30" width="1" height="1" fill="#231f20"/>
    <rect x="126" y="30" width="1" height="1" fill="#231f20"/>
    <rect x="134" y="30" width="1" height="1" fill="#231f20"/>
    <rect x="152" y="30" width="1" height="1" fill="#231f20"/>
    <rect x="0" y="31" width="1" height="1" fill="#231f20"/>
    <rect x="32" y="31" width="1" height="1" fill="#231f20"/>
    <rect x="38" y="31" width="1" height="1" fill="#231f20"/>
    <rect x="65" y="31" width="1" height="1" fill="#231f20"/>
    <rect x="92" y="31" width="1" height="1" fill="#231f20"/>
    <rect x="100" y="31" width="1" height="1" fill="#231f20"/>
    <rect x="127" y="31" width="1" height="1" fill="#231f20"/>
    <rect x="133" y="31" width="1" height="1" fill="#231f20"/>
    <rect x="152" y="31" width="1" height="1" fill="#231f20"/>
    <rect x="0" y="32" width="1" height="1" fill="#231f20"/>
    <rect x="31" y="32" width="1" height="1" fill="#231f20"/>
    <rect x="39" y="32" width="1" height="1" fill="#231f20"/>
    <rect x="65" y="32" width="1" height="1" fill="#231f20"/>
    <rect x="92" y="32" width="1" height="1" fill="#231f20"/>
    <rect x="100" y="32" width="1" height="1" fill="#231f20"/>
    <rect x="127" y="32" width="2" height="1" fill="#231f20"/>
    <rect x="132" y="32" width="2" height="1" fill="#231f20"/>
    <rect x="152" y="32" width="1" height="1" fill="#231f20"/>
    <rect x="0" y="33" width="1" height="1" fill="#231f20"/>
    <rect x="31" y="33" width="1" height="1" fill="#231f20"/>
    <rect x="39" y="33" width="1" height="1" fill="#231f20"/>
    <rect x="64" y="33" width="1" height="1" fill="#231f20"/>
    <rect x="92" y="33" width="1" height="1" fill="#231f20"/>
    <rect x="100" y="33" width="1" height="1" fill="#231f20"/>
    <rect x="128" y="33" width="2" height="1" fill="#231f20"/>
    <rect x="131" y="33" width="2" height="1" fill="#231f20"/>
    <rect x="152" y="33" width="1" height="1" fill="#231f20"/>
    <rect x="0" y="34" width="1" height="1" fill="#231f20"/>
    <rect x="30" y="34" width="1" height="1" fill="#231f20"/>
    <rect x="40" y="34" width="1" height="1" fill="#231f20"/>
    <rect x="64" y="34" width="1" height="1" fill="#231f20"/>
    <rect x="92" y="34" width="1" height="1" fill="#231f20"/>
    <rect x="100" y="34" width="1" height="1" fill="#231f20"/>
    <rect x="129" y="34" width="3" height="1" fill="#231f20"/>
    <rect x="152" y="34" width="1" height="1" fill="#231f20"/>
    <rect x="0" y="35" width="1" height="1" fill="#231f20"/>
    <rect x="30" y="35" width="1" height="1" fill="#231f20"/>
    <rect x="40" y="35" width="1" height="1" fill="#231f20"/>
    <rect x="63" y="35" width="1" height="1" fill="#231f20"/>
    <rect x="92" y="35" width="9" height="1" fill="#231f20"/>
    <rect x="152" y="35" width="1" height="1" fill="#231f20"/>
    <rect x="0" y="36" width="1" height="1" fill="#231f20"/>
    <rect x="152" y="36" width="1" height="1" fill="#231f20"/>
    <rect x="0" y="37" width="1" height="1" fill="#231f20"/>
    <rect x="152" y="37" width="1" height="1" fill="#231f20"/>
    <rect x="0" y="38" width="1" height="1" fill="#231f20"/>
    <rect x="152" y="38" width="1" height="1" fill="#231f20"/>
    <rect x="0" y="39" width="1" height="1" fill="#231f20"/>
    <rect x="152" y="39" width="1" height="1" fill="#231f20"/>
    <rect x="0" y="40" width="153" height="1" fill="#231f20"/>
    <rect x="0" y="41" width="1" height="1" fill="#231f20"/>
    <rect x="152" y="41" width="1" height="1" fill="#231f20"/>
    <rect x="0" y="42" width="1" height="1" fill="#231f20"/>
    <rect x="152" y="42" width="1" height="1" fill="#231f20"/>
    <rect x="0" y="43" width="1" height="1" fill="#231f20"/>
    <rect x="152" y="43" width="1" height="1" fill="#231f20"/>
    <rect x="0" y="44" width="1" height="1" fill="#231f20"/>
    <rect x="152" y="44" width="1" height="1" fill="#231f20"/>
    <rect x="0" y="45" width="1" height="1" fill="#231f20"/>
    <rect x="52" y="45" width="8" height="1" fill="#231f20"/>
    <rect x="84" y="45" width="1" height="1" fill="#231f20"/>
    <rect x="115" y="45" width="1" height="1" fill="#231f20"/>
    <rect x="117" y="45" width="1" height="1" fill="#231f20"/>
    <rect x="152" y="45" width="1" height="1" fill="#231f20"/>
    <rect x="0" y="46" width="1" height="1" fill="#231f20"/>
    <rect x="52" y="46" width="1" height="1" fill="#231f20"/>
    <rect x="59" y="46" width="1" height="1" fill="#231f20"/>
    <rect x="85" y="46" width="1" height="1" fill="#231f20"/>
    <rect x="115" y="46" width="1" height="1" fill="#231f20"/>
    <rect x="117" y="46" width="1" height="1" fill="#231f20"/>
    <rect x="152" y="46" width="1" height="1" fill="#231f20"/>
    <rect x="0" y="47" width="1" height="1" fill="#231f20"/>
    <rect x="20" y="47" width="4" height="1" fill="#231f20"/>
    <rect x="52" y="47" width="1" height="1" fill="#231f20"/>
    <rect x="59" y="47" width="1" height="1" fill="#231f20"/>
    <rect x="85" y="47" width="1" height="1" fill="#231f20"/>
    <rect x="114" y="47" width="1" height="1" fill="#231f20"/>
    <rect x="118" y="47" width="1" height="1" fill="#231f20"/>
    <rect x="152" y="47" width="1" height="1" fill="#231f20"/>
    <rect x="0" y="48" width="1" height="1" fill="#231f20"/>
    <rect x="19" y="48" width="2" height="1" fill="#231f20"/>
    <rect x="23" y="48" width="2" height="1" fill="#231f20"/>
    <rect x="52" y="48" width="1" height="1" fill="#231f20"/>
    <rect x="59" y="48" width="1" height="1" fill="#231f20"/>
    <rect x="86" y="48" width="1" height="1" fill="#231f20"/>
    <rect x="114" y="48" width="1" height="1" fill="#231f20"/>
    <rect x="118" y="48" width="1" height="1" fill="#231f20"/>
    <rect x="152" y="48" width="1" height="1" fill="#231f20"/>
    <rect x="0" y="49" width="1" height="1" fill="#231f20"/>
    <rect x="18" y="49" width="2" height="1" fill="#231f20"/>
    <rect x="24" y="49" width="1" height="1" fill="#231f20"/>
    <rect x="52" y="49" width="1" height="1" fill="#231f20"/>
    <rect x="59" y="49" width="1" height="1" fill="#231f20"/>
    <rect x="86" y="49" width="1" height="1" fill="#231f20"/>
    <rect x="113" y="49" width="1" height="1" fill="#231f20"/>
    <rect x="119" y="49" width="1" height="1" fill="#231f20"/>
    <rect x="152" y="49" width="1" height="1" fill="#231f20"/>
    <rect x="0" y="50" width="1" height="1" fill="#231f20"/>
    <rect x="17" y="50" width="2" height="1" fill="#231f20"/>
    <rect x="25" y="50" width="1" height="1" fill="#231f20"/>
    <rect x="33" y="50" width="1" height="1" fill="#231f20"/>
    <rect x="52" y="50" width="1" height="1" fill="#231f20"/>
    <rect x="59" y="50" width="1" height="1" fill="#231f20"/>
    <rect x="86" y="50" width="1" height="1" fill="#231f20"/>
    <rect x="113" y="50" width="1" height="1" fill="#231f20"/>
    <rect x="119" y="50" width="1" height="1" fill="#231f20"/>
    <rect x="152" y="50" width="1" height="1" fill="#231f20"/>
    <rect x="0" y="51" width="1" height="1" fill="#231f20"/>
    <rect x="25" y="51" width="1" height="1" fill="#231f20"/>
    <rect x="32" y="51" width="1" height="1" fill="#231f20"/>
    <rect x="52" y="51" width="1" height="1" fill="#231f20"/>
    <rect x="59" y="51" width="1" height="1" fill="#231f20"/>
    <rect x="86" y="51" width="1" height="1" fill="#231f20"/>
    <rect x="113" y="51" width="1" height="1" fill="#231f20"/>
    <rect x="119" y="51" width="1" height="1" fill="#231f20"/>
    <rect x="152" y="51" width="1" height="1" fill="#231f20"/>
    <rect x="0" y="52" width="1" height="1" fill="#231f20"/>
    <rect x="26" y="52" width="1" height="1" fill="#231f20"/>
    <rect x="31" y="52" width="2" height="1" fill="#231f20"/>
    <rect x="52" y="52" width="1" height="1" fill="#231f20"/>
    <rect x="59" y="52" width="1" height="1" fill="#231f20"/>
    <rect x="86" y="52" width="1" height="1" fill="#231f20"/>
    <rect x="112" y="52" width="1" height="1" fill="#231f20"/>
    <rect x="120" y="52" width="1" height="1" fill="#231f20"/>
    <rect x="152" y="52" width="1" height="1" fill="#231f20"/>
    <rect x="0" y="53" width="1" height="1" fill="#231f20"/>
    <rect x="27" y="53" width="1" height="1" fill="#231f20"/>
    <rect x="30" y="53" width="2" height="1" fill="#231f20"/>
    <rect x="52" y="53" width="1" height="1" fill="#231f20"/>
    <rect x="59" y="53" width="1" height="1" fill="#231f20"/>
    <rect x="85" y="53" width="1" height="1" fill="#231f20"/>
    <rect x="112" y="53" width="1" height="1" fill="#231f20"/>
    <rect x="120" y="53" width="1" height="1" fill="#231f20"/>
    <rect x="152" y="53" width="1" height="1" fill="#231f20"/>
    <rect x="0" y="54" width="1" height="1" fill="#231f20"/>
    <rect x="28" y="54" width="3" height="1" fill="#231f20"/>
    <rect x="52" y="54" width="1" height="1" fill="#231f20"/>
    <rect x="59" y="54" width="1" height="1" fill="#231f20"/>
    <rect x="85" y="54" width="1" height="1" fill="#231f20"/>
    <rect x="111" y="54" width="1" height="1" fill="#231f20"/>
    <rect x="121" y="54" width="1" height="1" fill="#231f20"/>
    <rect x="152" y="54" width="1" height="1" fill="#231f20"/>
    <rect x="0" y="55" width="1" height="1" fill="#231f20"/>
    <rect x="52" y="55" width="8" height="1" fill="#231f20"/>
    <rect x="84" y="55" width="1" height="1" fill="#231f20"/>
    <rect x="111" y="55" width="1" height="1" fill="#231f20"/>
    <rect x="121" y="55" width="1" height="1" fill="#231f20"/>
    <rect x="152" y="55" width="1" height="1" fill="#231f20"/>
    <rect x="0" y="56" width="1" height="1" fill="#231f20"/>
    <rect x="152" y="56" width="1" height="1" fill="#231f20"/>
    <rect x="0" y="57" width="1" height="1" fill="#231f20"/>
    <rect x="152" y="57" width="1" height="1" fill="#231f20"/>
    <rect x="0" y="58" width="1" height="1" fill="#231f20"/>
    <rect x="152" y="58" width="1" height="1" fill="#231f20"/>
    <rect x="0" y="59" width="1" height="1" fill="#231f20"/>
    <rect x="152" y="59" width="1" height="1" fill="#231f20"/>
    <rect x="0" y="60" width="153" height="1" fill="#231f20"/>
  </g>
</svg>