<?xml version="1.0" encoding="UTF-8"?>
<svg xmlns="http://www.w3.org/2000/svg" viewBox="0 0 173 70" width="173" height="70">
  <!-- Auto-converted from legend-2583.png -->
  <rect x="0" y="0" width="173" height="70" fill="none"/>
  <g fill="#c11e6d" stroke="none">
    <rect x="0" y="0" width="172" height="1" fill="#c11e6d"/>
    <rect x="0" y="1" width="172" height="1" fill="#c11e6d"/>
    <rect x="0" y="2" width="172" height="1" fill="#c11e6d"/>
    <rect x="0" y="3" width="172" height="1" fill="#c11e6d"/>
    <rect x="0" y="4" width="172" height="1" fill="#c11e6d"/>
    <rect x="0" y="5" width="172" height="1" fill="#c11e6d"/>
    <rect x="0" y="6" width="172" height="1" fill="#c11e6d"/>
    <rect x="0" y="7" width="172" height="1" fill="#c11e6d"/>
    <rect x="0" y="8" width="172" height="1" fill="#c11e6d"/>
    <rect x="0" y="9" width="172" height="1" fill="#c11e6d"/>
    <rect x="0" y="10" width="172" height="1" fill="#c11e6d"/>
    <rect x="0" y="11" width="172" height="1" fill="#c11e6d"/>
    <rect x="0" y="12" width="172" height="1" fill="#c11e6d"/>
    <rect x="0" y="13" width="172" height="1" fill="#c11e6d"/>
    <rect x="0" y="14" width="172" height="1" fill="#c11e6d"/>
    <rect x="0" y="15" width="172" height="1" fill="#c11e6d"/>
    <rect x="0" y="16" width="172" height="1" fill="#c11e6d"/>
    <rect x="0" y="17" width="172" height="1" fill="#c11e6d"/>
    <rect x="0" y="18" width="172" height="1" fill="#c11e6d"/>
    <rect x="0" y="19" width="172" height="1" fill="#c11e6d"/>
    <rect x="0" y="20" width="172" height="1" fill="#c11e6d"/>
    <rect x="0" y="21" width="172" height="1" fill="#c11e6d"/>
    <rect x="0" y="22" width="172" height="1" fill="#c11e6d"/>
    <rect x="0" y="23" width="172" height="1" fill="#c11e6d"/>
    <rect x="0" y="24" width="172" height="1" fill="#c11e6d"/>
    <rect x="0" y="25" width="172" height="1" fill="#c11e6d"/>
    <rect x="0" y="26" width="172" height="1" fill="#c11e6d"/>
    <rect x="0" y="27" width="172" height="1" fill="#c11e6d"/>
    <rect x="0" y="28" width="172" height="1" fill="#c11e6d"/>
    <rect x="0" y="29" width="172" height="1" fill="#c11e6d"/>
    <rect x="0" y="30" width="172" height="1" fill="#c11e6d"/>
    <rect x="0" y="31" width="172" height="1" fill="#c11e6d"/>
    <rect x="0" y="32" width="172" height="1" fill="#c11e6d"/>
    <rect x="0" y="33" width="172" height="1" fill="#c11e6d"/>
    <rect x="0" y="34" width="172" height="1" fill="#c11e6d"/>
    <rect x="0" y="35" width="172" height="1" fill="#c11e6d"/>
    <rect x="0" y="36" width="172" height="1" fill="#c11e6d"/>
    <rect x="0" y="37" width="172" height="1" fill="#c11e6d"/>
    <rect x="0" y="38" width="172" height="1" fill="#c11e6d"/>
    <rect x="0" y="39" width="172" height="1" fill="#c11e6d"/>
    <rect x="0" y="40" width="172" height="1" fill="#c11e6d"/>
    <rect x="0" y="41" width="172" height="1" fill="#c11e6d"/>
    <rect x="0" y="42" width="172" height="1" fill="#c11e6d"/>
    <rect x="0" y="43" width="172" height="1" fill="#c11e6d"/>
    <rect x="0" y="44" width="172" height="1" fill="#c11e6d"/>
    <rect x="0" y="45" width="172" height="1" fill="#c11e6d"/>
    <rect x="0" y="46" width="172" height="1" fill="#c11e6d"/>
    <rect x="0" y="47" width="172" height="1" fill="#c11e6d"/>
    <rect x="0" y="48" width="172" height="1" fill="#c11e6d"/>
    <rect x="0" y="49" width="172" height="1" fill="#c11e6d"/>
    <rect x="0" y="50" width="172" height="1" fill="#c11e6d"/>
    <rect x="0" y="51" width="172" height="1" fill="#c11e6d"/>
    <rect x="0" y="52" width="172" height="1" fill="#c11e6d"/>
    <rect x="0" y="53" width="172" height="1" fill="#c11e6d"/>
    <rect x="0" y="54" width="172" height="1" fill="#c11e6d"/>
    <rect x="0" y="55" width="172" height="1" fill="#c11e6d"/>
    <rect x="0" y="56" width="172" height="1" fill="#c11e6d"/>
    <rect x="0" y="57" width="172" height="1" fill="#c11e6d"/>
    <rect x="0" y="58" width="172" height="1" fill="#c11e6d"/>
    <rect x="0" y="59" width="172" height="1" fill="#c11e6d"/>
    <rect x="0" y="60" width="172" height="1" fill="#c11e6d"/>
    <rect x="0" y="61" width="172" height="1" fill="#c11e6d"/>
    <rect x="0" y="62" width="172" height="1" fill="#c11e6d"/>
    <rect x="0" y="63" width="172" height="1" fill="#c11e6d"/>
    <rect x="0" y="64" width="172" height="1" fill="#c11e6d"/>
    <rect x="0" y="65" width="172" height="1" fill="#c11e6d"/>
    <rect x="0" y="66" width="172" height="1" fill="#c11e6d"/>
    <rect x="0" y="67" width="172" height="1" fill="#c11e6d"/>
    <rect x="0" y="68" width="172" height="1" fill="#c11e6d"/>
    <rect x="0" y="69" width="172" height="1" fill="#c11e6d"/>
  </g>
</svg>