<?xml version="1.0" encoding="UTF-8"?>
<svg xmlns="http://www.w3.org/2000/svg" viewBox="0 0 173 70" width="173" height="70">
  <!-- Auto-converted from legend-667.png -->
  <rect x="0" y="0" width="173" height="70" fill="none"/>
  <g fill="#407a2f" stroke="none">
    <rect x="1" y="0" width="172" height="1" fill="#407a2f"/>
    <rect x="1" y="1" width="172" height="1" fill="#407a2f"/>
    <rect x="1" y="2" width="172" height="1" fill="#407a2f"/>
    <rect x="1" y="3" width="172" height="1" fill="#407a2f"/>
    <rect x="1" y="4" width="172" height="1" fill="#407a2f"/>
    <rect x="1" y="5" width="172" height="1" fill="#407a2f"/>
    <rect x="1" y="6" width="172" height="1" fill="#407a2f"/>
    <rect x="1" y="7" width="172" height="1" fill="#407a2f"/>
    <rect x="1" y="8" width="172" height="1" fill="#407a2f"/>
    <rect x="1" y="9" width="172" height="1" fill="#407a2f"/>
    <rect x="1" y="10" width="172" height="1" fill="#407a2f"/>
    <rect x="1" y="11" width="172" height="1" fill="#407a2f"/>
    <rect x="1" y="12" width="172" height="1" fill="#407a2f"/>
    <rect x="1" y="13" width="172" height="1" fill="#407a2f"/>
    <rect x="1" y="14" width="172" height="1" fill="#407a2f"/>
    <rect x="1" y="15" width="172" height="1" fill="#407a2f"/>
    <rect x="1" y="16" width="172" height="1" fill="#407a2f"/>
    <rect x="1" y="17" width="172" height="1" fill="#407a2f"/>
    <rect x="1" y="18" width="172" height="1" fill="#407a2f"/>
    <rect x="1" y="19" width="172" height="1" fill="#407a2f"/>
    <rect x="1" y="20" width="172" height="1" fill="#407a2f"/>
    <rect x="1" y="21" width="172" height="1" fill="#407a2f"/>
    <rect x="1" y="22" width="172" height="1" fill="#407a2f"/>
    <rect x="1" y="23" width="172" height="1" fill="#407a2f"/>
    <rect x="1" y="24" width="172" height="1" fill="#407a2f"/>
    <rect x="1" y="25" width="172" height="1" fill="#407a2f"/>
    <rect x="1" y="26" width="172" height="1" fill="#407a2f"/>
    <rect x="1" y="27" width="172" height="1" fill="#407a2f"/>
    <rect x="1" y="28" width="172" height="1" fill="#407a2f"/>
    <rect x="1" y="29" width="172" height="1" fill="#407a2f"/>
    <rect x="1" y="30" width="172" height="1" fill="#407a2f"/>
    <rect x="1" y="31" width="172" height="1" fill="#407a2f"/>
    <rect x="1" y="32" width="172" height="1" fill="#407a2f"/>
    <rect x="1" y="33" width="172" height="1" fill="#407a2f"/>
    <rect x="1" y="34" width="172" height="1" fill="#407a2f"/>
    <rect x="1" y="35" width="170" height="1" fill="#407a2f"/>
    <rect x="172" y="35" width="1" height="1" fill="#407a2f"/>
    <rect x="1" y="36" width="168" height="1" fill="#407a2f"/>
    <rect x="172" y="36" width="1" height="1" fill="#407a2f"/>
    <rect x="1" y="37" width="165" height="1" fill="#407a2f"/>
    <rect x="172" y="37" width="1" height="1" fill="#407a2f"/>
    <rect x="1" y="38" width="163" height="1" fill="#407a2f"/>
    <rect x="172" y="38" width="1" height="1" fill="#407a2f"/>
    <rect x="1" y="39" width="160" height="1" fill="#407a2f"/>
    <rect x="172" y="39" width="1" height="1" fill="#407a2f"/>
    <rect x="1" y="40" width="158" height="1" fill="#407a2f"/>
    <rect x="172" y="40" width="1" height="1" fill="#407a2f"/>
    <rect x="1" y="41" width="155" height="1" fill="#407a2f"/>
    <rect x="172" y="41" width="1" height="1" fill="#407a2f"/>
    <rect x="1" y="42" width="153" height="1" fill="#407a2f"/>
    <rect x="172" y="42" width="1" height="1" fill="#407a2f"/>
    <rect x="1" y="43" width="150" height="1" fill="#407a2f"/>
    <rect x="172" y="43" width="1" height="1" fill="#407a2f"/>
    <rect x="1" y="44" width="148" height="1" fill="#407a2f"/>
    <rect x="172" y="44" width="1" height="1" fill="#407a2f"/>
    <rect x="1" y="45" width="145" height="1" fill="#407a2f"/>
    <rect x="172" y="45" width="1" height="1" fill="#407a2f"/>
    <rect x="1" y="46" width="143" height="1" fill="#407a2f"/>
    <rect x="172" y="46" width="1" height="1" fill="#407a2f"/>
    <rect x="1" y="47" width="140" height="1" fill="#407a2f"/>
    <rect x="172" y="47" width="1" height="1" fill="#407a2f"/>
    <rect x="1" y="48" width="138" height="1" fill="#407a2f"/>
    <rect x="172" y="48" width="1" height="1" fill="#407a2f"/>
    <rect x="1" y="49" width="135" height="1" fill="#407a2f"/>
    <rect x="172" y="49" width="1" height="1" fill="#407a2f"/>
    <rect x="1" y="50" width="133" height="1" fill="#407a2f"/>
    <rect x="172" y="50" width="1" height="1" fill="#407a2f"/>
    <rect x="1" y="51" width="130" height="1" fill="#407a2f"/>
    <rect x="172" y="51" width="1" height="1" fill="#407a2f"/>
    <rect x="1" y="52" width="128" height="1" fill="#407a2f"/>
    <rect x="172" y="52" width="1" height="1" fill="#407a2f"/>
    <rect x="1" y="53" width="125" height="1" fill="#407a2f"/>
    <rect x="172" y="53" width="1" height="1" fill="#407a2f"/>
    <rect x="1" y="54" width="123" height="1" fill="#407a2f"/>
    <rect x="172" y="54" width="1" height="1" fill="#407a2f"/>
    <rect x="1" y="55" width="120" height="1" fill="#407a2f"/>
    <rect x="172" y="55" width="1" height="1" fill="#407a2f"/>
    <rect x="1" y="56" width="118" height="1" fill="#407a2f"/>
    <rect x="133" y="56" width="8" height="1" fill="#407a2f"/>
    <rect x="172" y="56" width="1" height="1" fill="#407a2f"/>
    <rect x="1" y="57" width="115" height="1" fill="#407a2f"/>
    <rect x="132" y="57" width="12" height="1" fill="#407a2f"/>
    <rect x="172" y="57" width="1" height="1" fill="#407a2f"/>
    <rect x="1" y="58" width="113" height="1" fill="#407a2f"/>
    <rect x="131" y="58" width="14" height="1" fill="#407a2f"/>
    <rect x="154" y="58" width="1" height="1" fill="#407a2f"/>
    <rect x="172" y="58" width="1" height="1" fill="#407a2f"/>
    <rect x="1" y="59" width="110" height="1" fill="#407a2f"/>
    <rect x="131" y="59" width="5" height="1" fill="#407a2f"/>
    <rect x="139" y="59" width="9" height="1" fill="#407a2f"/>
    <rect x="152" y="59" width="4" height="1" fill="#407a2f"/>
    <rect x="172" y="59" width="1" height="1" fill="#407a2f"/>
    <rect x="1" y="60" width="108" height="1" fill="#407a2f"/>
    <rect x="131" y="60" width="3" height="1" fill="#407a2f"/>
    <rect x="142" y="60" width="14" height="1" fill="#407a2f"/>
    <rect x="172" y="60" width="1" height="1" fill="#407a2f"/>
    <rect x="1" y="61" width="105" height="1" fill="#407a2f"/>
    <rect x="145" y="61" width="11" height="1" fill="#407a2f"/>
    <rect x="172" y="61" width="1" height="1" fill="#407a2f"/>
    <rect x="1" y="62" width="103" height="1" fill="#407a2f"/>
    <rect x="145" y="62" width="10" height="1" fill="#407a2f"/>
    <rect x="172" y="62" width="1" height="1" fill="#407a2f"/>
    <rect x="1" y="63" width="100" height="1" fill="#407a2f"/>
    <rect x="172" y="63" width="1" height="1" fill="#407a2f"/>
    <rect x="1" y="64" width="98" height="1" fill="#407a2f"/>
    <rect x="172" y="64" width="1" height="1" fill="#407a2f"/>
    <rect x="1" y="65" width="95" height="1" fill="#407a2f"/>
    <rect x="172" y="65" width="1" height="1" fill="#407a2f"/>
    <rect x="1" y="66" width="93" height="1" fill="#407a2f"/>
    <rect x="172" y="66" width="1" height="1" fill="#407a2f"/>
    <rect x="1" y="67" width="90" height="1" fill="#407a2f"/>
    <rect x="172" y="67" width="1" height="1" fill="#407a2f"/>
    <rect x="1" y="68" width="172" height="1" fill="#407a2f"/>
  </g>
</svg>