<?xml version="1.0" encoding="UTF-8"?>
<svg xmlns="http://www.w3.org/2000/svg" viewBox="0 0 57 68" width="57" height="68">
  <!-- Auto-converted from legend-1365.png -->
  <rect x="0" y="0" width="57" height="68" fill="none"/>
  <g fill="#231f20" stroke="none">
    <rect x="0" y="0" width="57" height="1" fill="#231f20"/>
    <rect x="0" y="1" width="3" height="1" fill="#231f20"/>
    <rect x="7" y="1" width="1" height="1" fill="#231f20"/>
    <rect x="13" y="1" width="1" height="1" fill="#231f20"/>
    <rect x="17" y="1" width="1" height="1" fill="#231f20"/>
    <rect x="56" y="1" width="1" height="1" fill="#231f20"/>
    <rect x="0" y="2" width="1" height="1" fill="#231f20"/>
    <rect x="6" y="2" width="1" height="1" fill="#231f20"/>
    <rect x="12" y="2" width="1" height="1" fill="#231f20"/>
    <rect x="17" y="2" width="1" height="1" fill="#231f20"/>
    <rect x="56" y="2" width="1" height="1" fill="#231f20"/>
    <rect x="0" y="3" width="1" height="1" fill="#231f20"/>
    <rect x="5" y="3" width="1" height="1" fill="#231f20"/>
    <rect x="11" y="3" width="1" height="1" fill="#231f20"/>
    <rect x="16" y="3" width="2" height="1" fill="#231f20"/>
    <rect x="56" y="3" width="1" height="1" fill="#231f20"/>
    <rect x="0" y="4" width="1" height="1" fill="#231f20"/>
    <rect x="4" y="4" width="1" height="1" fill="#231f20"/>
    <rect x="10" y="4" width="1" height="1" fill="#231f20"/>
    <rect x="15" y="4" width="1" height="1" fill="#231f20"/>
    <rect x="17" y="4" width="1" height="1" fill="#231f20"/>
    <rect x="56" y="4" width="1" height="1" fill="#231f20"/>
    <rect x="0" y="5" width="1" height="1" fill="#231f20"/>
    <rect x="3" y="5" width="1" height="1" fill="#231f20"/>
    <rect x="9" y="5" width="1" height="1" fill="#231f20"/>
    <rect x="14" y="5" width="1" height="1" fill="#231f20"/>
    <rect x="17" y="5" width="1" height="1" fill="#231f20"/>
    <rect x="56" y="5" width="1" height="1" fill="#231f20"/>
    <rect x="0" y="6" width="1" height="1" fill="#231f20"/>
    <rect x="2" y="6" width="1" height="1" fill="#231f20"/>
    <rect x="8" y="6" width="1" height="1" fill="#231f20"/>
    <rect x="13" y="6" width="1" height="1" fill="#231f20"/>
    <rect x="17" y="6" width="1" height="1" fill="#231f20"/>
    <rect x="56" y="6" width="1" height="1" fill="#231f20"/>
    <rect x="0" y="7" width="2" height="1" fill="#231f20"/>
    <rect x="7" y="7" width="1" height="1" fill="#231f20"/>
    <rect x="12" y="7" width="1" height="1" fill="#231f20"/>
    <rect x="17" y="7" width="1" height="1" fill="#231f20"/>
    <rect x="56" y="7" width="1" height="1" fill="#231f20"/>
    <rect x="0" y="8" width="1" height="1" fill="#231f20"/>
    <rect x="6" y="8" width="1" height="1" fill="#231f20"/>
    <rect x="11" y="8" width="1" height="1" fill="#231f20"/>
    <rect x="17" y="8" width="1" height="1" fill="#231f20"/>
    <rect x="56" y="8" width="1" height="1" fill="#231f20"/>
    <rect x="0" y="9" width="1" height="1" fill="#231f20"/>
    <rect x="5" y="9" width="1" height="1" fill="#231f20"/>
    <rect x="10" y="9" width="1" height="1" fill="#231f20"/>
    <rect x="16" y="9" width="2" height="1" fill="#231f20"/>
    <rect x="56" y="9" width="1" height="1" fill="#231f20"/>
    <rect x="0" y="10" width="1" height="1" fill="#231f20"/>
    <rect x="4" y="10" width="1" height="1" fill="#231f20"/>
    <rect x="9" y="10" width="1" height="1" fill="#231f20"/>
    <rect x="15" y="10" width="1" height="1" fill="#231f20"/>
    <rect x="17" y="10" width="1" height="1" fill="#231f20"/>
    <rect x="56" y="10" width="1" height="1" fill="#231f20"/>
    <rect x="0" y="11" width="1" height="1" fill="#231f20"/>
    <rect x="3" y="11" width="1" height="1" fill="#231f20"/>
    <rect x="8" y="11" width="1" height="1" fill="#231f20"/>
    <rect x="14" y="11" width="1" height="1" fill="#231f20"/>
    <rect x="17" y="11" width="1" height="1" fill="#231f20"/>
    <rect x="22" y="11" width="6" height="1" fill="#231f20"/>
    <rect x="36" y="11" width="6" height="1" fill="#231f20"/>
    <rect x="56" y="11" width="1" height="1" fill="#231f20"/>
    <rect x="0" y="12" width="1" height="1" fill="#231f20"/>
    <rect x="2" y="12" width="1" height="1" fill="#231f20"/>
    <rect x="7" y="12" width="1" height="1" fill="#231f20"/>
    <rect x="13" y="12" width="1" height="1" fill="#231f20"/>
    <rect x="17" y="12" width="1" height="1" fill="#231f20"/>
    <rect x="56" y="12" width="1" height="1" fill="#231f20"/>
    <rect x="0" y="13" width="2" height="1" fill="#231f20"/>
    <rect x="6" y="13" width="1" height="1" fill="#231f20"/>
    <rect x="12" y="13" width="1" height="1" fill="#231f20"/>
    <rect x="17" y="13" width="1" height="1" fill="#231f20"/>
    <rect x="56" y="13" width="1" height="1" fill="#231f20"/>
    <rect x="0" y="14" width="1" height="1" fill="#231f20"/>
    <rect x="5" y="14" width="1" height="1" fill="#231f20"/>
    <rect x="11" y="14" width="1" height="1" fill="#231f20"/>
    <rect x="17" y="14" width="1" height="1" fill="#231f20"/>
    <rect x="56" y="14" width="1" height="1" fill="#231f20"/>
    <rect x="0" y="15" width="1" height="1" fill="#231f20"/>
    <rect x="4" y="15" width="1" height="1" fill="#231f20"/>
    <rect x="10" y="15" width="1" height="1" fill="#231f20"/>
    <rect x="16" y="15" width="2" height="1" fill="#231f20"/>
    <rect x="56" y="15" width="1" height="1" fill="#231f20"/>
    <rect x="0" y="16" width="1" height="1" fill="#231f20"/>
    <rect x="3" y="16" width="1" height="1" fill="#231f20"/>
    <rect x="9" y="16" width="1" height="1" fill="#231f20"/>
    <rect x="15" y="16" width="1" height="1" fill="#231f20"/>
    <rect x="17" y="16" width="1" height="1" fill="#231f20"/>
    <rect x="56" y="16" width="1" height="1" fill="#231f20"/>
    <rect x="0" y="17" width="1" height="1" fill="#231f20"/>
    <rect x="2" y="17" width="1" height="1" fill="#231f20"/>
    <rect x="8" y="17" width="1" height="1" fill="#231f20"/>
    <rect x="14" y="17" width="1" height="1" fill="#231f20"/>
    <rect x="17" y="17" width="1" height="1" fill="#231f20"/>
    <rect x="56" y="17" width="1" height="1" fill="#231f20"/>
    <rect x="0" y="18" width="2" height="1" fill="#231f20"/>
    <rect x="7" y="18" width="1" height="1" fill="#231f20"/>
    <rect x="12" y="18" width="2" height="1" fill="#231f20"/>
    <rect x="17" y="18" width="1" height="1" fill="#231f20"/>
    <rect x="56" y="18" width="1" height="1" fill="#231f20"/>
    <rect x="0" y="19" width="1" height="1" fill="#231f20"/>
    <rect x="6" y="19" width="1" height="1" fill="#231f20"/>
    <rect x="11" y="19" width="1" height="1" fill="#231f20"/>
    <rect x="17" y="19" width="1" height="1" fill="#231f20"/>
    <rect x="56" y="19" width="1" height="1" fill="#231f20"/>
    <rect x="0" y="20" width="1" height="1" fill="#231f20"/>
    <rect x="5" y="20" width="1" height="1" fill="#231f20"/>
    <rect x="10" y="20" width="1" height="1" fill="#231f20"/>
    <rect x="16" y="20" width="2" height="1" fill="#231f20"/>
    <rect x="56" y="20" width="1" height="1" fill="#231f20"/>
    <rect x="0" y="21" width="1" height="1" fill="#231f20"/>
    <rect x="4" y="21" width="1" height="1" fill="#231f20"/>
    <rect x="9" y="21" width="1" height="1" fill="#231f20"/>
    <rect x="15" y="21" width="1" height="1" fill="#231f20"/>
    <rect x="17" y="21" width="1" height="1" fill="#231f20"/>
    <rect x="56" y="21" width="1" height="1" fill="#231f20"/>
    <rect x="0" y="22" width="57" height="1" fill="#231f20"/>
    <rect x="0" y="23" width="1" height="1" fill="#231f20"/>
    <rect x="39" y="23" width="1" height="1" fill="#231f20"/>
    <rect x="41" y="23" width="1" height="1" fill="#231f20"/>
    <rect x="46" y="23" width="1" height="1" fill="#231f20"/>
    <rect x="52" y="23" width="1" height="1" fill="#231f20"/>
    <rect x="56" y="23" width="1" height="1" fill="#231f20"/>
    <rect x="0" y="24" width="1" height="1" fill="#231f20"/>
    <rect x="39" y="24" width="2" height="1" fill="#231f20"/>
    <rect x="45" y="24" width="1" height="1" fill="#231f20"/>
    <rect x="51" y="24" width="1" height="1" fill="#231f20"/>
    <rect x="56" y="24" width="1" height="1" fill="#231f20"/>
    <rect x="0" y="25" width="1" height="1" fill="#231f20"/>
    <rect x="39" y="25" width="1" height="1" fill="#231f20"/>
    <rect x="44" y="25" width="1" height="1" fill="#231f20"/>
    <rect x="50" y="25" width="1" height="1" fill="#231f20"/>
    <rect x="56" y="25" width="1" height="1" fill="#231f20"/>
    <rect x="0" y="26" width="1" height="1" fill="#231f20"/>
    <rect x="39" y="26" width="1" height="1" fill="#231f20"/>
    <rect x="43" y="26" width="1" height="1" fill="#231f20"/>
    <rect x="49" y="26" width="1" height="1" fill="#231f20"/>
    <rect x="55" y="26" width="2" height="1" fill="#231f20"/>
    <rect x="0" y="27" width="1" height="1" fill="#231f20"/>
    <rect x="39" y="27" width="1" height="1" fill="#231f20"/>
    <rect x="42" y="27" width="1" height="1" fill="#231f20"/>
    <rect x="48" y="27" width="1" height="1" fill="#231f20"/>
    <rect x="54" y="27" width="1" height="1" fill="#231f20"/>
    <rect x="56" y="27" width="1" height="1" fill="#231f20"/>
    <rect x="0" y="28" width="1" height="1" fill="#231f20"/>
    <rect x="39" y="28" width="1" height="1" fill="#231f20"/>
    <rect x="41" y="28" width="1" height="1" fill="#231f20"/>
    <rect x="47" y="28" width="1" height="1" fill="#231f20"/>
    <rect x="53" y="28" width="1" height="1" fill="#231f20"/>
    <rect x="56" y="28" width="1" height="1" fill="#231f20"/>
    <rect x="0" y="29" width="1" height="1" fill="#231f20"/>
    <rect x="39" y="29" width="2" height="1" fill="#231f20"/>
    <rect x="46" y="29" width="1" height="1" fill="#231f20"/>
    <rect x="52" y="29" width="1" height="1" fill="#231f20"/>
    <rect x="56" y="29" width="1" height="1" fill="#231f20"/>
    <rect x="0" y="30" width="1" height="1" fill="#231f20"/>
    <rect x="39" y="30" width="1" height="1" fill="#231f20"/>
    <rect x="45" y="30" width="1" height="1" fill="#231f20"/>
    <rect x="51" y="30" width="1" height="1" fill="#231f20"/>
    <rect x="56" y="30" width="1" height="1" fill="#231f20"/>
    <rect x="0" y="31" width="1" height="1" fill="#231f20"/>
    <rect x="39" y="31" width="1" height="1" fill="#231f20"/>
    <rect x="44" y="31" width="1" height="1" fill="#231f20"/>
    <rect x="50" y="31" width="1" height="1" fill="#231f20"/>
    <rect x="55" y="31" width="2" height="1" fill="#231f20"/>
    <rect x="0" y="32" width="1" height="1" fill="#231f20"/>
    <rect x="39" y="32" width="1" height="1" fill="#231f20"/>
    <rect x="43" y="32" width="1" height="1" fill="#231f20"/>
    <rect x="49" y="32" width="1" height="1" fill="#231f20"/>
    <rect x="54" y="32" width="1" height="1" fill="#231f20"/>
    <rect x="56" y="32" width="1" height="1" fill="#231f20"/>
    <rect x="0" y="33" width="1" height="1" fill="#231f20"/>
    <rect x="15" y="33" width="5" height="1" fill="#231f20"/>
    <rect x="29" y="33" width="5" height="1" fill="#231f20"/>
    <rect x="39" y="33" width="1" height="1" fill="#231f20"/>
    <rect x="42" y="33" width="1" height="1" fill="#231f20"/>
    <rect x="48" y="33" width="1" height="1" fill="#231f20"/>
    <rect x="53" y="33" width="1" height="1" fill="#231f20"/>
    <rect x="56" y="33" width="1" height="1" fill="#231f20"/>
    <rect x="0" y="34" width="1" height="1" fill="#231f20"/>
    <rect x="39" y="34" width="1" height="1" fill="#231f20"/>
    <rect x="41" y="34" width="1" height="1" fill="#231f20"/>
    <rect x="47" y="34" width="1" height="1" fill="#231f20"/>
    <rect x="52" y="34" width="1" height="1" fill="#231f20"/>
    <rect x="56" y="34" width="1" height="1" fill="#231f20"/>
    <rect x="0" y="35" width="1" height="1" fill="#231f20"/>
    <rect x="39" y="35" width="2" height="1" fill="#231f20"/>
    <rect x="46" y="35" width="1" height="1" fill="#231f20"/>
    <rect x="51" y="35" width="1" height="1" fill="#231f20"/>
    <rect x="56" y="35" width="1" height="1" fill="#231f20"/>
    <rect x="0" y="36" width="1" height="1" fill="#231f20"/>
    <rect x="39" y="36" width="1" height="1" fill="#231f20"/>
    <rect x="45" y="36" width="1" height="1" fill="#231f20"/>
    <rect x="50" y="36" width="1" height="1" fill="#231f20"/>
    <rect x="56" y="36" width="1" height="1" fill="#231f20"/>
    <rect x="0" y="37" width="1" height="1" fill="#231f20"/>
    <rect x="39" y="37" width="1" height="1" fill="#231f20"/>
    <rect x="44" y="37" width="1" height="1" fill="#231f20"/>
    <rect x="49" y="37" width="1" height="1" fill="#231f20"/>
    <rect x="55" y="37" width="2" height="1" fill="#231f20"/>
    <rect x="0" y="38" width="1" height="1" fill="#231f20"/>
    <rect x="39" y="38" width="1" height="1" fill="#231f20"/>
    <rect x="43" y="38" width="1" height="1" fill="#231f20"/>
    <rect x="48" y="38" width="1" height="1" fill="#231f20"/>
    <rect x="54" y="38" width="1" height="1" fill="#231f20"/>
    <rect x="56" y="38" width="1" height="1" fill="#231f20"/>
    <rect x="0" y="39" width="1" height="1" fill="#231f20"/>
    <rect x="39" y="39" width="1" height="1" fill="#231f20"/>
    <rect x="42" y="39" width="1" height="1" fill="#231f20"/>
    <rect x="47" y="39" width="1" height="1" fill="#231f20"/>
    <rect x="53" y="39" width="1" height="1" fill="#231f20"/>
    <rect x="56" y="39" width="1" height="1" fill="#231f20"/>
    <rect x="0" y="40" width="1" height="1" fill="#231f20"/>
    <rect x="39" y="40" width="1" height="1" fill="#231f20"/>
    <rect x="41" y="40" width="1" height="1" fill="#231f20"/>
    <rect x="46" y="40" width="1" height="1" fill="#231f20"/>
    <rect x="51" y="40" width="2" height="1" fill="#231f20"/>
    <rect x="56" y="40" width="1" height="1" fill="#231f20"/>
    <rect x="0" y="41" width="1" height="1" fill="#231f20"/>
    <rect x="39" y="41" width="2" height="1" fill="#231f20"/>
    <rect x="45" y="41" width="1" height="1" fill="#231f20"/>
    <rect x="50" y="41" width="1" height="1" fill="#231f20"/>
    <rect x="56" y="41" width="1" height="1" fill="#231f20"/>
    <rect x="0" y="42" width="1" height="1" fill="#231f20"/>
    <rect x="39" y="42" width="1" height="1" fill="#231f20"/>
    <rect x="44" y="42" width="1" height="1" fill="#231f20"/>
    <rect x="49" y="42" width="1" height="1" fill="#231f20"/>
    <rect x="56" y="42" width="1" height="1" fill="#231f20"/>
    <rect x="0" y="43" width="1" height="1" fill="#231f20"/>
    <rect x="39" y="43" width="1" height="1" fill="#231f20"/>
    <rect x="43" y="43" width="1" height="1" fill="#231f20"/>
    <rect x="48" y="43" width="1" height="1" fill="#231f20"/>
    <rect x="54" y="43" width="3" height="1" fill="#231f20"/>
    <rect x="0" y="44" width="57" height="1" fill="#231f20"/>
    <rect x="0" y="45" width="1" height="1" fill="#231f20"/>
    <rect x="2" y="45" width="1" height="1" fill="#231f20"/>
    <rect x="7" y="45" width="1" height="1" fill="#231f20"/>
    <rect x="13" y="45" width="1" height="1" fill="#231f20"/>
    <rect x="17" y="45" width="1" height="1" fill="#231f20"/>
    <rect x="56" y="45" width="1" height="1" fill="#231f20"/>
    <rect x="0" y="46" width="2" height="1" fill="#231f20"/>
    <rect x="6" y="46" width="1" height="1" fill="#231f20"/>
    <rect x="12" y="46" width="1" height="1" fill="#231f20"/>
    <rect x="17" y="46" width="1" height="1" fill="#231f20"/>
    <rect x="56" y="46" width="1" height="1" fill="#231f20"/>
    <rect x="0" y="47" width="1" height="1" fill="#231f20"/>
    <rect x="5" y="47" width="1" height="1" fill="#231f20"/>
    <rect x="11" y="47" width="1" height="1" fill="#231f20"/>
    <rect x="17" y="47" width="1" height="1" fill="#231f20"/>
    <rect x="56" y="47" width="1" height="1" fill="#231f20"/>
    <rect x="0" y="48" width="1" height="1" fill="#231f20"/>
    <rect x="4" y="48" width="1" height="1" fill="#231f20"/>
    <rect x="10" y="48" width="1" height="1" fill="#231f20"/>
    <rect x="16" y="48" width="2" height="1" fill="#231f20"/>
    <rect x="56" y="48" width="1" height="1" fill="#231f20"/>
    <rect x="0" y="49" width="1" height="1" fill="#231f20"/>
    <rect x="4" y="49" width="1" height="1" fill="#231f20"/>
    <rect x="9" y="49" width="1" height="1" fill="#231f20"/>
    <rect x="15" y="49" width="1" height="1" fill="#231f20"/>
    <rect x="17" y="49" width="1" height="1" fill="#231f20"/>
    <rect x="56" y="49" width="1" height="1" fill="#231f20"/>
    <rect x="0" y="50" width="1" height="1" fill="#231f20"/>
    <rect x="3" y="50" width="1" height="1" fill="#231f20"/>
    <rect x="8" y="50" width="1" height="1" fill="#231f20"/>
    <rect x="14" y="50" width="1" height="1" fill="#231f20"/>
    <rect x="17" y="50" width="1" height="1" fill="#231f20"/>
    <rect x="56" y="50" width="1" height="1" fill="#231f20"/>
    <rect x="0" y="51" width="1" height="1" fill="#231f20"/>
    <rect x="2" y="51" width="1" height="1" fill="#231f20"/>
    <rect x="7" y="51" width="1" height="1" fill="#231f20"/>
    <rect x="13" y="51" width="1" height="1" fill="#231f20"/>
    <rect x="17" y="51" width="1" height="1" fill="#231f20"/>
    <rect x="56" y="51" width="1" height="1" fill="#231f20"/>
    <rect x="0" y="52" width="2" height="1" fill="#231f20"/>
    <rect x="6" y="52" width="1" height="1" fill="#231f20"/>
    <rect x="12" y="52" width="1" height="1" fill="#231f20"/>
    <rect x="17" y="52" width="1" height="1" fill="#231f20"/>
    <rect x="56" y="52" width="1" height="1" fill="#231f20"/>
    <rect x="0" y="53" width="1" height="1" fill="#231f20"/>
    <rect x="5" y="53" width="1" height="1" fill="#231f20"/>
    <rect x="11" y="53" width="1" height="1" fill="#231f20"/>
    <rect x="17" y="53" width="1" height="1" fill="#231f20"/>
    <rect x="56" y="53" width="1" height="1" fill="#231f20"/>
    <rect x="0" y="54" width="1" height="1" fill="#231f20"/>
    <rect x="4" y="54" width="1" height="1" fill="#231f20"/>
    <rect x="10" y="54" width="1" height="1" fill="#231f20"/>
    <rect x="16" y="54" width="2" height="1" fill="#231f20"/>
    <rect x="56" y="54" width="1" height="1" fill="#231f20"/>
    <rect x="0" y="55" width="1" height="1" fill="#231f20"/>
    <rect x="3" y="55" width="1" height="1" fill="#231f20"/>
    <rect x="9" y="55" width="1" height="1" fill="#231f20"/>
    <rect x="15" y="55" width="1" height="1" fill="#231f20"/>
    <rect x="17" y="55" width="1" height="1" fill="#231f20"/>
    <rect x="56" y="55" width="1" height="1" fill="#231f20"/>
    <rect x="0" y="56" width="1" height="1" fill="#231f20"/>
    <rect x="2" y="56" width="1" height="1" fill="#231f20"/>
    <rect x="8" y="56" width="1" height="1" fill="#231f20"/>
    <rect x="14" y="56" width="1" height="1" fill="#231f20"/>
    <rect x="17" y="56" width="1" height="1" fill="#231f20"/>
    <rect x="22" y="56" width="6" height="1" fill="#231f20"/>
    <rect x="36" y="56" width="6" height="1" fill="#231f20"/>
    <rect x="56" y="56" width="1" height="1" fill="#231f20"/>
    <rect x="0" y="57" width="2" height="1" fill="#231f20"/>
    <rect x="7" y="57" width="1" height="1" fill="#231f20"/>
    <rect x="13" y="57" width="1" height="1" fill="#231f20"/>
    <rect x="17" y="57" width="1" height="1" fill="#231f20"/>
    <rect x="56" y="57" width="1" height="1" fill="#231f20"/>
    <rect x="0" y="58" width="1" height="1" fill="#231f20"/>
    <rect x="6" y="58" width="1" height="1" fill="#231f20"/>
    <rect x="12" y="58" width="1" height="1" fill="#231f20"/>
    <rect x="17" y="58" width="1" height="1" fill="#231f20"/>
    <rect x="56" y="58" width="1" height="1" fill="#231f20"/>
    <rect x="0" y="59" width="1" height="1" fill="#231f20"/>
    <rect x="5" y="59" width="1" height="1" fill="#231f20"/>
    <rect x="11" y="59" width="1" height="1" fill="#231f20"/>
    <rect x="16" y="59" width="2" height="1" fill="#231f20"/>
    <rect x="56" y="59" width="1" height="1" fill="#231f20"/>
    <rect x="0" y="60" width="1" height="1" fill="#231f20"/>
    <rect x="4" y="60" width="1" height="1" fill="#231f20"/>
    <rect x="10" y="60" width="1" height="1" fill="#231f20"/>
    <rect x="15" y="60" width="1" height="1" fill="#231f20"/>
    <rect x="17" y="60" width="1" height="1" fill="#231f20"/>
    <rect x="56" y="60" width="1" height="1" fill="#231f20"/>
    <rect x="0" y="61" width="1" height="1" fill="#231f20"/>
    <rect x="3" y="61" width="1" height="1" fill="#231f20"/>
    <rect x="9" y="61" width="1" height="1" fill="#231f20"/>
    <rect x="14" y="61" width="1" height="1" fill="#231f20"/>
    <rect x="17" y="61" width="1" height="1" fill="#231f20"/>
    <rect x="56" y="61" width="1" height="1" fill="#231f20"/>
    <rect x="0" y="62" width="1" height="1" fill="#231f20"/>
    <rect x="2" y="62" width="1" height="1" fill="#231f20"/>
    <rect x="8" y="62" width="1" height="1" fill="#231f20"/>
    <rect x="13" y="62" width="1" height="1" fill="#231f20"/>
    <rect x="17" y="62" width="1" height="1" fill="#231f20"/>
    <rect x="56" y="62" width="1" height="1" fill="#231f20"/>
    <rect x="0" y="63" width="2" height="1" fill="#231f20"/>
    <rect x="7" y="63" width="1" height="1" fill="#231f20"/>
    <rect x="12" y="63" width="1" height="1" fill="#231f20"/>
    <rect x="17" y="63" width="1" height="1" fill="#231f20"/>
    <rect x="56" y="63" width="1" height="1" fill="#231f20"/>
    <rect x="0" y="64" width="1" height="1" fill="#231f20"/>
    <rect x="6" y="64" width="1" height="1" fill="#231f20"/>
    <rect x="11" y="64" width="1" height="1" fill="#231f20"/>
    <rect x="17" y="64" width="1" height="1" fill="#231f20"/>
    <rect x="56" y="64" width="1" height="1" fill="#231f20"/>
    <rect x="0" y="65" width="1" height="1" fill="#231f20"/>
    <rect x="5" y="65" width="1" height="1" fill="#231f20"/>
    <rect x="10" y="65" width="1" height="1" fill="#231f20"/>
    <rect x="16" y="65" width="2" height="1" fill="#231f20"/>
    <rect x="56" y="65" width="1" height="1" fill="#231f20"/>
    <rect x="0" y="66" width="1" height="1" fill="#231f20"/>
    <rect x="4" y="66" width="1" height="1" fill="#231f20"/>
    <rect x="9" y="66" width="1" height="1" fill="#231f20"/>
    <rect x="15" y="66" width="1" height="1" fill="#231f20"/>
    <rect x="17" y="66" width="1" height="1" fill="#231f20"/>
    <rect x="56" y="66" width="1" height="1" fill="#231f20"/>
    <rect x="0" y="67" width="57" height="1" fill="#231f20"/>
  </g>
</svg>