<?xml version="1.0" encoding="UTF-8"?>
<svg xmlns="http://www.w3.org/2000/svg" viewBox="0 0 83 83" width="83" height="83">
  <!-- Auto-converted from legend-2018.png -->
  <rect x="0" y="0" width="83" height="83" fill="none"/>
  <g fill="#231f20" stroke="none">
    <rect x="0" y="0" width="83" height="1" fill="#231f20"/>
    <rect x="0" y="1" width="1" height="1" fill="#231f20"/>
    <rect x="82" y="1" width="1" height="1" fill="#231f20"/>
    <rect x="0" y="2" width="1" height="1" fill="#231f20"/>
    <rect x="82" y="2" width="1" height="1" fill="#231f20"/>
    <rect x="0" y="3" width="1" height="1" fill="#231f20"/>
    <rect x="82" y="3" width="1" height="1" fill="#231f20"/>
    <rect x="0" y="4" width="1" height="1" fill="#231f20"/>
    <rect x="82" y="4" width="1" height="1" fill="#231f20"/>
    <rect x="0" y="5" width="1" height="1" fill="#231f20"/>
    <rect x="82" y="5" width="1" height="1" fill="#231f20"/>
    <rect x="0" y="6" width="1" height="1" fill="#231f20"/>
    <rect x="82" y="6" width="1" height="1" fill="#231f20"/>
    <rect x="0" y="7" width="1" height="1" fill="#231f20"/>
    <rect x="36" y="7" width="12" height="1" fill="#231f20"/>
    <rect x="82" y="7" width="1" height="1" fill="#231f20"/>
    <rect x="0" y="8" width="1" height="1" fill="#231f20"/>
    <rect x="30" y="8" width="24" height="1" fill="#231f20"/>
    <rect x="82" y="8" width="1" height="1" fill="#231f20"/>
    <rect x="0" y="9" width="1" height="1" fill="#231f20"/>
    <rect x="26" y="9" width="31" height="1" fill="#231f20"/>
    <rect x="82" y="9" width="1" height="1" fill="#231f20"/>
    <rect x="0" y="10" width="1" height="1" fill="#231f20"/>
    <rect x="24" y="10" width="12" height="1" fill="#231f20"/>
    <rect x="46" y="10" width="13" height="1" fill="#231f20"/>
    <rect x="82" y="10" width="1" height="1" fill="#231f20"/>
    <rect x="0" y="11" width="1" height="1" fill="#231f20"/>
    <rect x="21" y="11" width="11" height="1" fill="#231f20"/>
    <rect x="52" y="11" width="11" height="1" fill="#231f20"/>
    <rect x="82" y="11" width="1" height="1" fill="#231f20"/>
    <rect x="0" y="12" width="1" height="1" fill="#231f20"/>
    <rect x="19" y="12" width="9" height="1" fill="#231f20"/>
    <rect x="55" y="12" width="9" height="1" fill="#231f20"/>
    <rect x="82" y="12" width="1" height="1" fill="#231f20"/>
    <rect x="0" y="13" width="1" height="1" fill="#231f20"/>
    <rect x="17" y="13" width="9" height="1" fill="#231f20"/>
    <rect x="59" y="13" width="7" height="1" fill="#231f20"/>
    <rect x="82" y="13" width="1" height="1" fill="#231f20"/>
    <rect x="0" y="14" width="1" height="1" fill="#231f20"/>
    <rect x="15" y="14" width="6" height="1" fill="#231f20"/>
    <rect x="61" y="14" width="8" height="1" fill="#231f20"/>
    <rect x="82" y="14" width="1" height="1" fill="#231f20"/>
    <rect x="0" y="15" width="1" height="1" fill="#231f20"/>
    <rect x="12" y="15" width="7" height="1" fill="#231f20"/>
    <rect x="64" y="15" width="7" height="1" fill="#231f20"/>
    <rect x="82" y="15" width="1" height="1" fill="#231f20"/>
    <rect x="0" y="16" width="1" height="1" fill="#231f20"/>
    <rect x="10" y="16" width="7" height="1" fill="#231f20"/>
    <rect x="66" y="16" width="7" height="1" fill="#231f20"/>
    <rect x="82" y="16" width="1" height="1" fill="#231f20"/>
    <rect x="0" y="17" width="1" height="1" fill="#231f20"/>
    <rect x="8" y="17" width="7" height="1" fill="#231f20"/>
    <rect x="69" y="17" width="7" height="1" fill="#231f20"/>
    <rect x="82" y="17" width="1" height="1" fill="#231f20"/>
    <rect x="0" y="18" width="1" height="1" fill="#231f20"/>
    <rect x="6" y="18" width="6" height="1" fill="#231f20"/>
    <rect x="71" y="18" width="7" height="1" fill="#231f20"/>
    <rect x="82" y="18" width="1" height="1" fill="#231f20"/>
    <rect x="0" y="19" width="1" height="1" fill="#231f20"/>
    <rect x="3" y="19" width="7" height="1" fill="#231f20"/>
    <rect x="73" y="19" width="7" height="1" fill="#231f20"/>
    <rect x="82" y="19" width="1" height="1" fill="#231f20"/>
    <rect x="0" y="20" width="1" height="1" fill="#231f20"/>
    <rect x="3" y="20" width="5" height="1" fill="#231f20"/>
    <rect x="76" y="20" width="4" height="1" fill="#231f20"/>
    <rect x="82" y="20" width="1" height="1" fill="#231f20"/>
    <rect x="0" y="21" width="1" height="1" fill="#231f20"/>
    <rect x="3" y="21" width="7" height="1" fill="#231f20"/>
    <rect x="74" y="21" width="6" height="1" fill="#231f20"/>
    <rect x="82" y="21" width="1" height="1" fill="#231f20"/>
    <rect x="0" y="22" width="1" height="1" fill="#231f20"/>
    <rect x="3" y="22" width="8" height="1" fill="#231f20"/>
    <rect x="73" y="22" width="7" height="1" fill="#231f20"/>
    <rect x="82" y="22" width="1" height="1" fill="#231f20"/>
    <rect x="0" y="23" width="1" height="1" fill="#231f20"/>
    <rect x="3" y="23" width="10" height="1" fill="#231f20"/>
    <rect x="70" y="23" width="10" height="1" fill="#231f20"/>
    <rect x="82" y="23" width="1" height="1" fill="#231f20"/>
    <rect x="0" y="24" width="1" height="1" fill="#231f20"/>
    <rect x="3" y="24" width="3" height="1" fill="#231f20"/>
    <rect x="8" y="24" width="7" height="1" fill="#231f20"/>
    <rect x="68" y="24" width="8" height="1" fill="#231f20"/>
    <rect x="77" y="24" width="3" height="1" fill="#231f20"/>
    <rect x="82" y="24" width="1" height="1" fill="#231f20"/>
    <rect x="0" y="25" width="1" height="1" fill="#231f20"/>
    <rect x="3" y="25" width="3" height="1" fill="#231f20"/>
    <rect x="11" y="25" width="7" height="1" fill="#231f20"/>
    <rect x="66" y="25" width="7" height="1" fill="#231f20"/>
    <rect x="77" y="25" width="3" height="1" fill="#231f20"/>
    <rect x="82" y="25" width="1" height="1" fill="#231f20"/>
    <rect x="0" y="26" width="1" height="1" fill="#231f20"/>
    <rect x="3" y="26" width="3" height="1" fill="#231f20"/>
    <rect x="13" y="26" width="7" height="1" fill="#231f20"/>
    <rect x="63" y="26" width="7" height="1" fill="#231f20"/>
    <rect x="77" y="26" width="3" height="1" fill="#231f20"/>
    <rect x="82" y="26" width="1" height="1" fill="#231f20"/>
    <rect x="0" y="27" width="1" height="1" fill="#231f20"/>
    <rect x="3" y="27" width="3" height="1" fill="#231f20"/>
    <rect x="15" y="27" width="9" height="1" fill="#231f20"/>
    <rect x="60" y="27" width="8" height="1" fill="#231f20"/>
    <rect x="77" y="27" width="3" height="1" fill="#231f20"/>
    <rect x="82" y="27" width="1" height="1" fill="#231f20"/>
    <rect x="0" y="28" width="1" height="1" fill="#231f20"/>
    <rect x="3" y="28" width="3" height="1" fill="#231f20"/>
    <rect x="18" y="28" width="8" height="1" fill="#231f20"/>
    <rect x="58" y="28" width="8" height="1" fill="#231f20"/>
    <rect x="77" y="28" width="3" height="1" fill="#231f20"/>
    <rect x="82" y="28" width="1" height="1" fill="#231f20"/>
    <rect x="0" y="29" width="1" height="1" fill="#231f20"/>
    <rect x="3" y="29" width="3" height="1" fill="#231f20"/>
    <rect x="20" y="29" width="9" height="1" fill="#231f20"/>
    <rect x="54" y="29" width="9" height="1" fill="#231f20"/>
    <rect x="77" y="29" width="3" height="1" fill="#231f20"/>
    <rect x="82" y="29" width="1" height="1" fill="#231f20"/>
    <rect x="0" y="30" width="1" height="1" fill="#231f20"/>
    <rect x="3" y="30" width="3" height="1" fill="#231f20"/>
    <rect x="22" y="30" width="11" height="1" fill="#231f20"/>
    <rect x="51" y="30" width="11" height="1" fill="#231f20"/>
    <rect x="77" y="30" width="3" height="1" fill="#231f20"/>
    <rect x="82" y="30" width="1" height="1" fill="#231f20"/>
    <rect x="0" y="31" width="1" height="1" fill="#231f20"/>
    <rect x="3" y="31" width="3" height="1" fill="#231f20"/>
    <rect x="24" y="31" width="15" height="1" fill="#231f20"/>
    <rect x="45" y="31" width="13" height="1" fill="#231f20"/>
    <rect x="77" y="31" width="3" height="1" fill="#231f20"/>
    <rect x="82" y="31" width="1" height="1" fill="#231f20"/>
    <rect x="0" y="32" width="1" height="1" fill="#231f20"/>
    <rect x="3" y="32" width="3" height="1" fill="#231f20"/>
    <rect x="27" y="32" width="29" height="1" fill="#231f20"/>
    <rect x="77" y="32" width="3" height="1" fill="#231f20"/>
    <rect x="82" y="32" width="1" height="1" fill="#231f20"/>
    <rect x="0" y="33" width="1" height="1" fill="#231f20"/>
    <rect x="3" y="33" width="3" height="1" fill="#231f20"/>
    <rect x="31" y="33" width="20" height="1" fill="#231f20"/>
    <rect x="77" y="33" width="3" height="1" fill="#231f20"/>
    <rect x="82" y="33" width="1" height="1" fill="#231f20"/>
    <rect x="0" y="34" width="1" height="1" fill="#231f20"/>
    <rect x="3" y="34" width="3" height="1" fill="#231f20"/>
    <rect x="37" y="34" width="10" height="1" fill="#231f20"/>
    <rect x="77" y="34" width="3" height="1" fill="#231f20"/>
    <rect x="82" y="34" width="1" height="1" fill="#231f20"/>
    <rect x="0" y="35" width="1" height="1" fill="#231f20"/>
    <rect x="3" y="35" width="3" height="1" fill="#231f20"/>
    <rect x="77" y="35" width="3" height="1" fill="#231f20"/>
    <rect x="82" y="35" width="1" height="1" fill="#231f20"/>
    <rect x="0" y="36" width="1" height="1" fill="#231f20"/>
    <rect x="3" y="36" width="3" height="1" fill="#231f20"/>
    <rect x="77" y="36" width="3" height="1" fill="#231f20"/>
    <rect x="82" y="36" width="1" height="1" fill="#231f20"/>
    <rect x="0" y="37" width="1" height="1" fill="#231f20"/>
    <rect x="3" y="37" width="3" height="1" fill="#231f20"/>
    <rect x="77" y="37" width="3" height="1" fill="#231f20"/>
    <rect x="82" y="37" width="1" height="1" fill="#231f20"/>
    <rect x="0" y="38" width="1" height="1" fill="#231f20"/>
    <rect x="3" y="38" width="3" height="1" fill="#231f20"/>
    <rect x="77" y="38" width="3" height="1" fill="#231f20"/>
    <rect x="82" y="38" width="1" height="1" fill="#231f20"/>
    <rect x="0" y="39" width="1" height="1" fill="#231f20"/>
    <rect x="3" y="39" width="3" height="1" fill="#231f20"/>
    <rect x="77" y="39" width="3" height="1" fill="#231f20"/>
    <rect x="82" y="39" width="1" height="1" fill="#231f20"/>
    <rect x="0" y="40" width="1" height="1" fill="#231f20"/>
    <rect x="3" y="40" width="3" height="1" fill="#231f20"/>
    <rect x="77" y="40" width="3" height="1" fill="#231f20"/>
    <rect x="82" y="40" width="1" height="1" fill="#231f20"/>
    <rect x="0" y="41" width="1" height="1" fill="#231f20"/>
    <rect x="3" y="41" width="3" height="1" fill="#231f20"/>
    <rect x="77" y="41" width="3" height="1" fill="#231f20"/>
    <rect x="82" y="41" width="1" height="1" fill="#231f20"/>
    <rect x="0" y="42" width="1" height="1" fill="#231f20"/>
    <rect x="3" y="42" width="3" height="1" fill="#231f20"/>
    <rect x="77" y="42" width="3" height="1" fill="#231f20"/>
    <rect x="82" y="42" width="1" height="1" fill="#231f20"/>
    <rect x="0" y="43" width="1" height="1" fill="#231f20"/>
    <rect x="3" y="43" width="3" height="1" fill="#231f20"/>
    <rect x="77" y="43" width="3" height="1" fill="#231f20"/>
    <rect x="82" y="43" width="1" height="1" fill="#231f20"/>
    <rect x="0" y="44" width="1" height="1" fill="#231f20"/>
    <rect x="3" y="44" width="3" height="1" fill="#231f20"/>
    <rect x="77" y="44" width="3" height="1" fill="#231f20"/>
    <rect x="82" y="44" width="1" height="1" fill="#231f20"/>
    <rect x="0" y="45" width="1" height="1" fill="#231f20"/>
    <rect x="3" y="45" width="3" height="1" fill="#231f20"/>
    <rect x="77" y="45" width="3" height="1" fill="#231f20"/>
    <rect x="82" y="45" width="1" height="1" fill="#231f20"/>
    <rect x="0" y="46" width="1" height="1" fill="#231f20"/>
    <rect x="3" y="46" width="3" height="1" fill="#231f20"/>
    <rect x="77" y="46" width="3" height="1" fill="#231f20"/>
    <rect x="82" y="46" width="1" height="1" fill="#231f20"/>
    <rect x="0" y="47" width="1" height="1" fill="#231f20"/>
    <rect x="3" y="47" width="3" height="1" fill="#231f20"/>
    <rect x="77" y="47" width="3" height="1" fill="#231f20"/>
    <rect x="82" y="47" width="1" height="1" fill="#231f20"/>
    <rect x="0" y="48" width="1" height="1" fill="#231f20"/>
    <rect x="3" y="48" width="3" height="1" fill="#231f20"/>
    <rect x="77" y="48" width="3" height="1" fill="#231f20"/>
    <rect x="82" y="48" width="1" height="1" fill="#231f20"/>
    <rect x="0" y="49" width="1" height="1" fill="#231f20"/>
    <rect x="3" y="49" width="3" height="1" fill="#231f20"/>
    <rect x="77" y="49" width="3" height="1" fill="#231f20"/>
    <rect x="82" y="49" width="1" height="1" fill="#231f20"/>
    <rect x="0" y="50" width="1" height="1" fill="#231f20"/>
    <rect x="3" y="50" width="3" height="1" fill="#231f20"/>
    <rect x="77" y="50" width="3" height="1" fill="#231f20"/>
    <rect x="82" y="50" width="1" height="1" fill="#231f20"/>
    <rect x="0" y="51" width="1" height="1" fill="#231f20"/>
    <rect x="3" y="51" width="3" height="1" fill="#231f20"/>
    <rect x="77" y="51" width="3" height="1" fill="#231f20"/>
    <rect x="82" y="51" width="1" height="1" fill="#231f20"/>
    <rect x="0" y="52" width="1" height="1" fill="#231f20"/>
    <rect x="3" y="52" width="3" height="1" fill="#231f20"/>
    <rect x="77" y="52" width="3" height="1" fill="#231f20"/>
    <rect x="82" y="52" width="1" height="1" fill="#231f20"/>
    <rect x="0" y="53" width="1" height="1" fill="#231f20"/>
    <rect x="3" y="53" width="3" height="1" fill="#231f20"/>
    <rect x="77" y="53" width="3" height="1" fill="#231f20"/>
    <rect x="82" y="53" width="1" height="1" fill="#231f20"/>
    <rect x="0" y="54" width="1" height="1" fill="#231f20"/>
    <rect x="3" y="54" width="3" height="1" fill="#231f20"/>
    <rect x="77" y="54" width="3" height="1" fill="#231f20"/>
    <rect x="82" y="54" width="1" height="1" fill="#231f20"/>
    <rect x="0" y="55" width="1" height="1" fill="#231f20"/>
    <rect x="3" y="55" width="3" height="1" fill="#231f20"/>
    <rect x="77" y="55" width="3" height="1" fill="#231f20"/>
    <rect x="82" y="55" width="1" height="1" fill="#231f20"/>
    <rect x="0" y="56" width="1" height="1" fill="#231f20"/>
    <rect x="3" y="56" width="3" height="1" fill="#231f20"/>
    <rect x="77" y="56" width="3" height="1" fill="#231f20"/>
    <rect x="82" y="56" width="1" height="1" fill="#231f20"/>
    <rect x="0" y="57" width="1" height="1" fill="#231f20"/>
    <rect x="3" y="57" width="5" height="1" fill="#231f20"/>
    <rect x="76" y="57" width="4" height="1" fill="#231f20"/>
    <rect x="82" y="57" width="1" height="1" fill="#231f20"/>
    <rect x="0" y="58" width="1" height="1" fill="#231f20"/>
    <rect x="3" y="58" width="7" height="1" fill="#231f20"/>
    <rect x="74" y="58" width="6" height="1" fill="#231f20"/>
    <rect x="82" y="58" width="1" height="1" fill="#231f20"/>
    <rect x="0" y="59" width="1" height="1" fill="#231f20"/>
    <rect x="4" y="59" width="7" height="1" fill="#231f20"/>
    <rect x="73" y="59" width="6" height="1" fill="#231f20"/>
    <rect x="82" y="59" width="1" height="1" fill="#231f20"/>
    <rect x="0" y="60" width="1" height="1" fill="#231f20"/>
    <rect x="6" y="60" width="7" height="1" fill="#231f20"/>
    <rect x="70" y="60" width="7" height="1" fill="#231f20"/>
    <rect x="82" y="60" width="1" height="1" fill="#231f20"/>
    <rect x="0" y="61" width="1" height="1" fill="#231f20"/>
    <rect x="8" y="61" width="7" height="1" fill="#231f20"/>
    <rect x="68" y="61" width="8" height="1" fill="#231f20"/>
    <rect x="82" y="61" width="1" height="1" fill="#231f20"/>
    <rect x="0" y="62" width="1" height="1" fill="#231f20"/>
    <rect x="11" y="62" width="7" height="1" fill="#231f20"/>
    <rect x="66" y="62" width="7" height="1" fill="#231f20"/>
    <rect x="82" y="62" width="1" height="1" fill="#231f20"/>
    <rect x="0" y="63" width="1" height="1" fill="#231f20"/>
    <rect x="13" y="63" width="7" height="1" fill="#231f20"/>
    <rect x="63" y="63" width="7" height="1" fill="#231f20"/>
    <rect x="82" y="63" width="1" height="1" fill="#231f20"/>
    <rect x="0" y="64" width="1" height="1" fill="#231f20"/>
    <rect x="15" y="64" width="9" height="1" fill="#231f20"/>
    <rect x="60" y="64" width="8" height="1" fill="#231f20"/>
    <rect x="82" y="64" width="1" height="1" fill="#231f20"/>
    <rect x="0" y="65" width="1" height="1" fill="#231f20"/>
    <rect x="18" y="65" width="8" height="1" fill="#231f20"/>
    <rect x="58" y="65" width="8" height="1" fill="#231f20"/>
    <rect x="82" y="65" width="1" height="1" fill="#231f20"/>
    <rect x="0" y="66" width="1" height="1" fill="#231f20"/>
    <rect x="20" y="66" width="8" height="1" fill="#231f20"/>
    <rect x="55" y="66" width="8" height="1" fill="#231f20"/>
    <rect x="82" y="66" width="1" height="1" fill="#231f20"/>
    <rect x="0" y="67" width="1" height="1" fill="#231f20"/>
    <rect x="22" y="67" width="11" height="1" fill="#231f20"/>
    <rect x="51" y="67" width="11" height="1" fill="#231f20"/>
    <rect x="82" y="67" width="1" height="1" fill="#231f20"/>
    <rect x="0" y="68" width="1" height="1" fill="#231f20"/>
    <rect x="24" y="68" width="13" height="1" fill="#231f20"/>
    <rect x="46" y="68" width="12" height="1" fill="#231f20"/>
    <rect x="82" y="68" width="1" height="1" fill="#231f20"/>
    <rect x="0" y="69" width="1" height="1" fill="#231f20"/>
    <rect x="26" y="69" width="31" height="1" fill="#231f20"/>
    <rect x="82" y="69" width="1" height="1" fill="#231f20"/>
    <rect x="0" y="70" width="1" height="1" fill="#231f20"/>
    <rect x="31" y="70" width="20" height="1" fill="#231f20"/>
    <rect x="82" y="70" width="1" height="1" fill="#231f20"/>
    <rect x="0" y="71" width="1" height="1" fill="#231f20"/>
    <rect x="37" y="71" width="11" height="1" fill="#231f20"/>
    <rect x="82" y="71" width="1" height="1" fill="#231f20"/>
    <rect x="0" y="72" width="1" height="1" fill="#231f20"/>
    <rect x="82" y="72" width="1" height="1" fill="#231f20"/>
    <rect x="0" y="73" width="1" height="1" fill="#231f20"/>
    <rect x="82" y="73" width="1" height="1" fill="#231f20"/>
    <rect x="0" y="74" width="1" height="1" fill="#231f20"/>
    <rect x="82" y="74" width="1" height="1" fill="#231f20"/>
    <rect x="0" y="75" width="1" height="1" fill="#231f20"/>
    <rect x="82" y="75" width="1" height="1" fill="#231f20"/>
    <rect x="0" y="76" width="1" height="1" fill="#231f20"/>
    <rect x="82" y="76" width="1" height="1" fill="#231f20"/>
    <rect x="0" y="77" width="1" height="1" fill="#231f20"/>
    <rect x="82" y="77" width="1" height="1" fill="#231f20"/>
    <rect x="0" y="78" width="1" height="1" fill="#231f20"/>
    <rect x="82" y="78" width="1" height="1" fill="#231f20"/>
    <rect x="0" y="79" width="1" height="1" fill="#231f20"/>
    <rect x="82" y="79" width="1" height="1" fill="#231f20"/>
    <rect x="0" y="80" width="1" height="1" fill="#231f20"/>
    <rect x="82" y="80" width="1" height="1" fill="#231f20"/>
    <rect x="0" y="81" width="1" height="1" fill="#231f20"/>
    <rect x="82" y="81" width="1" height="1" fill="#231f20"/>
    <rect x="0" y="82" width="83" height="1" fill="#231f20"/>
  </g>
</svg>