<?xml version="1.0" encoding="UTF-8"?>
<svg xmlns="http://www.w3.org/2000/svg" viewBox="0 0 174 70" width="174" height="70">
  <!-- Auto-converted from legend-1857.png -->
  <rect x="0" y="0" width="174" height="70" fill="none"/>
  <g fill="#231f20" stroke="none">
    <rect x="0" y="0" width="174" height="1" fill="#231f20"/>
    <rect x="0" y="1" width="1" height="1" fill="#231f20"/>
    <rect x="173" y="1" width="1" height="1" fill="#231f20"/>
    <rect x="0" y="2" width="1" height="1" fill="#231f20"/>
    <rect x="173" y="2" width="1" height="1" fill="#231f20"/>
    <rect x="0" y="3" width="1" height="1" fill="#231f20"/>
    <rect x="173" y="3" width="1" height="1" fill="#231f20"/>
    <rect x="0" y="4" width="1" height="1" fill="#231f20"/>
    <rect x="173" y="4" width="1" height="1" fill="#231f20"/>
    <rect x="0" y="5" width="1" height="1" fill="#231f20"/>
    <rect x="32" y="5" width="2" height="1" fill="#231f20"/>
    <rect x="173" y="5" width="1" height="1" fill="#231f20"/>
    <rect x="0" y="6" width="1" height="1" fill="#231f20"/>
    <rect x="34" y="6" width="1" height="1" fill="#231f20"/>
    <rect x="79" y="6" width="1" height="1" fill="#231f20"/>
    <rect x="82" y="6" width="1" height="1" fill="#231f20"/>
    <rect x="125" y="6" width="1" height="1" fill="#231f20"/>
    <rect x="128" y="6" width="1" height="1" fill="#231f20"/>
    <rect x="173" y="6" width="1" height="1" fill="#231f20"/>
    <rect x="0" y="7" width="1" height="1" fill="#231f20"/>
    <rect x="35" y="7" width="1" height="1" fill="#231f20"/>
    <rect x="79" y="7" width="1" height="1" fill="#231f20"/>
    <rect x="82" y="7" width="1" height="1" fill="#231f20"/>
    <rect x="125" y="7" width="1" height="1" fill="#231f20"/>
    <rect x="128" y="7" width="1" height="1" fill="#231f20"/>
    <rect x="173" y="7" width="1" height="1" fill="#231f20"/>
    <rect x="0" y="8" width="1" height="1" fill="#231f20"/>
    <rect x="36" y="8" width="1" height="1" fill="#231f20"/>
    <rect x="78" y="8" width="1" height="1" fill="#231f20"/>
    <rect x="83" y="8" width="1" height="1" fill="#231f20"/>
    <rect x="124" y="8" width="1" height="1" fill="#231f20"/>
    <rect x="129" y="8" width="1" height="1" fill="#231f20"/>
    <rect x="173" y="8" width="1" height="1" fill="#231f20"/>
    <rect x="0" y="9" width="1" height="1" fill="#231f20"/>
    <rect x="36" y="9" width="1" height="1" fill="#231f20"/>
    <rect x="78" y="9" width="1" height="1" fill="#231f20"/>
    <rect x="83" y="9" width="1" height="1" fill="#231f20"/>
    <rect x="124" y="9" width="1" height="1" fill="#231f20"/>
    <rect x="129" y="9" width="1" height="1" fill="#231f20"/>
    <rect x="173" y="9" width="1" height="1" fill="#231f20"/>
    <rect x="0" y="10" width="1" height="1" fill="#231f20"/>
    <rect x="37" y="10" width="1" height="1" fill="#231f20"/>
    <rect x="78" y="10" width="1" height="1" fill="#231f20"/>
    <rect x="83" y="10" width="1" height="1" fill="#231f20"/>
    <rect x="124" y="10" width="1" height="1" fill="#231f20"/>
    <rect x="129" y="10" width="1" height="1" fill="#231f20"/>
    <rect x="173" y="10" width="1" height="1" fill="#231f20"/>
    <rect x="0" y="11" width="1" height="1" fill="#231f20"/>
    <rect x="37" y="11" width="1" height="1" fill="#231f20"/>
    <rect x="77" y="11" width="1" height="1" fill="#231f20"/>
    <rect x="84" y="11" width="1" height="1" fill="#231f20"/>
    <rect x="123" y="11" width="1" height="1" fill="#231f20"/>
    <rect x="130" y="11" width="1" height="1" fill="#231f20"/>
    <rect x="173" y="11" width="1" height="1" fill="#231f20"/>
    <rect x="0" y="12" width="1" height="1" fill="#231f20"/>
    <rect x="37" y="12" width="1" height="1" fill="#231f20"/>
    <rect x="77" y="12" width="1" height="1" fill="#231f20"/>
    <rect x="84" y="12" width="1" height="1" fill="#231f20"/>
    <rect x="123" y="12" width="1" height="1" fill="#231f20"/>
    <rect x="130" y="12" width="1" height="1" fill="#231f20"/>
    <rect x="173" y="12" width="1" height="1" fill="#231f20"/>
    <rect x="0" y="13" width="1" height="1" fill="#231f20"/>
    <rect x="37" y="13" width="1" height="1" fill="#231f20"/>
    <rect x="77" y="13" width="1" height="1" fill="#231f20"/>
    <rect x="84" y="13" width="1" height="1" fill="#231f20"/>
    <rect x="123" y="13" width="1" height="1" fill="#231f20"/>
    <rect x="130" y="13" width="1" height="1" fill="#231f20"/>
    <rect x="173" y="13" width="1" height="1" fill="#231f20"/>
    <rect x="0" y="14" width="1" height="1" fill="#231f20"/>
    <rect x="37" y="14" width="1" height="1" fill="#231f20"/>
    <rect x="76" y="14" width="1" height="1" fill="#231f20"/>
    <rect x="85" y="14" width="1" height="1" fill="#231f20"/>
    <rect x="122" y="14" width="1" height="1" fill="#231f20"/>
    <rect x="131" y="14" width="1" height="1" fill="#231f20"/>
    <rect x="173" y="14" width="1" height="1" fill="#231f20"/>
    <rect x="0" y="15" width="1" height="1" fill="#231f20"/>
    <rect x="37" y="15" width="1" height="1" fill="#231f20"/>
    <rect x="76" y="15" width="1" height="1" fill="#231f20"/>
    <rect x="85" y="15" width="1" height="1" fill="#231f20"/>
    <rect x="122" y="15" width="1" height="1" fill="#231f20"/>
    <rect x="131" y="15" width="1" height="1" fill="#231f20"/>
    <rect x="173" y="15" width="1" height="1" fill="#231f20"/>
    <rect x="0" y="16" width="1" height="1" fill="#231f20"/>
    <rect x="36" y="16" width="1" height="1" fill="#231f20"/>
    <rect x="76" y="16" width="1" height="1" fill="#231f20"/>
    <rect x="85" y="16" width="1" height="1" fill="#231f20"/>
    <rect x="122" y="16" width="1" height="1" fill="#231f20"/>
    <rect x="131" y="16" width="1" height="1" fill="#231f20"/>
    <rect x="173" y="16" width="1" height="1" fill="#231f20"/>
    <rect x="0" y="17" width="1" height="1" fill="#231f20"/>
    <rect x="36" y="17" width="1" height="1" fill="#231f20"/>
    <rect x="75" y="17" width="1" height="1" fill="#231f20"/>
    <rect x="86" y="17" width="1" height="1" fill="#231f20"/>
    <rect x="121" y="17" width="1" height="1" fill="#231f20"/>
    <rect x="132" y="17" width="1" height="1" fill="#231f20"/>
    <rect x="173" y="17" width="1" height="1" fill="#231f20"/>
    <rect x="0" y="18" width="1" height="1" fill="#231f20"/>
    <rect x="35" y="18" width="1" height="1" fill="#231f20"/>
    <rect x="75" y="18" width="1" height="1" fill="#231f20"/>
    <rect x="86" y="18" width="1" height="1" fill="#231f20"/>
    <rect x="121" y="18" width="1" height="1" fill="#231f20"/>
    <rect x="132" y="18" width="1" height="1" fill="#231f20"/>
    <rect x="173" y="18" width="1" height="1" fill="#231f20"/>
    <rect x="0" y="19" width="1" height="1" fill="#231f20"/>
    <rect x="34" y="19" width="1" height="1" fill="#231f20"/>
    <rect x="173" y="19" width="1" height="1" fill="#231f20"/>
    <rect x="0" y="20" width="1" height="1" fill="#231f20"/>
    <rect x="32" y="20" width="2" height="1" fill="#231f20"/>
    <rect x="173" y="20" width="1" height="1" fill="#231f20"/>
    <rect x="0" y="21" width="1" height="1" fill="#231f20"/>
    <rect x="173" y="21" width="1" height="1" fill="#231f20"/>
    <rect x="0" y="22" width="1" height="1" fill="#231f20"/>
    <rect x="173" y="22" width="1" height="1" fill="#231f20"/>
    <rect x="0" y="23" width="174" height="1" fill="#231f20"/>
    <rect x="0" y="24" width="1" height="1" fill="#231f20"/>
    <rect x="173" y="24" width="1" height="1" fill="#231f20"/>
    <rect x="0" y="25" width="1" height="1" fill="#231f20"/>
    <rect x="173" y="25" width="1" height="1" fill="#231f20"/>
    <rect x="0" y="26" width="1" height="1" fill="#231f20"/>
    <rect x="173" y="26" width="1" height="1" fill="#231f20"/>
    <rect x="0" y="27" width="1" height="1" fill="#231f20"/>
    <rect x="173" y="27" width="1" height="1" fill="#231f20"/>
    <rect x="0" y="28" width="1" height="1" fill="#231f20"/>
    <rect x="43" y="28" width="2" height="1" fill="#231f20"/>
    <rect x="173" y="28" width="1" height="1" fill="#231f20"/>
    <rect x="0" y="29" width="1" height="1" fill="#231f20"/>
    <rect x="45" y="29" width="1" height="1" fill="#231f20"/>
    <rect x="91" y="29" width="1" height="1" fill="#231f20"/>
    <rect x="94" y="29" width="1" height="1" fill="#231f20"/>
    <rect x="137" y="29" width="1" height="1" fill="#231f20"/>
    <rect x="139" y="29" width="1" height="1" fill="#231f20"/>
    <rect x="173" y="29" width="1" height="1" fill="#231f20"/>
    <rect x="0" y="30" width="1" height="1" fill="#231f20"/>
    <rect x="46" y="30" width="1" height="1" fill="#231f20"/>
    <rect x="91" y="30" width="1" height="1" fill="#231f20"/>
    <rect x="94" y="30" width="1" height="1" fill="#231f20"/>
    <rect x="137" y="30" width="1" height="1" fill="#231f20"/>
    <rect x="139" y="30" width="1" height="1" fill="#231f20"/>
    <rect x="173" y="30" width="1" height="1" fill="#231f20"/>
    <rect x="0" y="31" width="1" height="1" fill="#231f20"/>
    <rect x="47" y="31" width="1" height="1" fill="#231f20"/>
    <rect x="90" y="31" width="1" height="1" fill="#231f20"/>
    <rect x="95" y="31" width="1" height="1" fill="#231f20"/>
    <rect x="136" y="31" width="1" height="1" fill="#231f20"/>
    <rect x="140" y="31" width="1" height="1" fill="#231f20"/>
    <rect x="173" y="31" width="1" height="1" fill="#231f20"/>
    <rect x="0" y="32" width="1" height="1" fill="#231f20"/>
    <rect x="47" y="32" width="1" height="1" fill="#231f20"/>
    <rect x="90" y="32" width="1" height="1" fill="#231f20"/>
    <rect x="95" y="32" width="1" height="1" fill="#231f20"/>
    <rect x="136" y="32" width="1" height="1" fill="#231f20"/>
    <rect x="140" y="32" width="1" height="1" fill="#231f20"/>
    <rect x="173" y="32" width="1" height="1" fill="#231f20"/>
    <rect x="0" y="33" width="1" height="1" fill="#231f20"/>
    <rect x="48" y="33" width="1" height="1" fill="#231f20"/>
    <rect x="89" y="33" width="1" height="1" fill="#231f20"/>
    <rect x="95" y="33" width="1" height="1" fill="#231f20"/>
    <rect x="135" y="33" width="1" height="1" fill="#231f20"/>
    <rect x="141" y="33" width="1" height="1" fill="#231f20"/>
    <rect x="173" y="33" width="1" height="1" fill="#231f20"/>
    <rect x="0" y="34" width="1" height="1" fill="#231f20"/>
    <rect x="48" y="34" width="1" height="1" fill="#231f20"/>
    <rect x="89" y="34" width="1" height="1" fill="#231f20"/>
    <rect x="96" y="34" width="1" height="1" fill="#231f20"/>
    <rect x="135" y="34" width="1" height="1" fill="#231f20"/>
    <rect x="141" y="34" width="1" height="1" fill="#231f20"/>
    <rect x="173" y="34" width="1" height="1" fill="#231f20"/>
    <rect x="0" y="35" width="1" height="1" fill="#231f20"/>
    <rect x="48" y="35" width="1" height="1" fill="#231f20"/>
    <rect x="88" y="35" width="1" height="1" fill="#231f20"/>
    <rect x="96" y="35" width="1" height="1" fill="#231f20"/>
    <rect x="134" y="35" width="1" height="1" fill="#231f20"/>
    <rect x="142" y="35" width="1" height="1" fill="#231f20"/>
    <rect x="173" y="35" width="1" height="1" fill="#231f20"/>
    <rect x="0" y="36" width="1" height="1" fill="#231f20"/>
    <rect x="48" y="36" width="1" height="1" fill="#231f20"/>
    <rect x="88" y="36" width="1" height="1" fill="#231f20"/>
    <rect x="97" y="36" width="1" height="1" fill="#231f20"/>
    <rect x="134" y="36" width="1" height="1" fill="#231f20"/>
    <rect x="142" y="36" width="1" height="1" fill="#231f20"/>
    <rect x="173" y="36" width="1" height="1" fill="#231f20"/>
    <rect x="0" y="37" width="1" height="1" fill="#231f20"/>
    <rect x="48" y="37" width="1" height="1" fill="#231f20"/>
    <rect x="87" y="37" width="1" height="1" fill="#231f20"/>
    <rect x="97" y="37" width="1" height="1" fill="#231f20"/>
    <rect x="133" y="37" width="1" height="1" fill="#231f20"/>
    <rect x="143" y="37" width="1" height="1" fill="#231f20"/>
    <rect x="173" y="37" width="1" height="1" fill="#231f20"/>
    <rect x="0" y="38" width="1" height="1" fill="#231f20"/>
    <rect x="48" y="38" width="1" height="1" fill="#231f20"/>
    <rect x="87" y="38" width="1" height="1" fill="#231f20"/>
    <rect x="97" y="38" width="1" height="1" fill="#231f20"/>
    <rect x="133" y="38" width="1" height="1" fill="#231f20"/>
    <rect x="143" y="38" width="1" height="1" fill="#231f20"/>
    <rect x="173" y="38" width="1" height="1" fill="#231f20"/>
    <rect x="0" y="39" width="1" height="1" fill="#231f20"/>
    <rect x="47" y="39" width="1" height="1" fill="#231f20"/>
    <rect x="86" y="39" width="1" height="1" fill="#231f20"/>
    <rect x="98" y="39" width="1" height="1" fill="#231f20"/>
    <rect x="132" y="39" width="1" height="1" fill="#231f20"/>
    <rect x="144" y="39" width="1" height="1" fill="#231f20"/>
    <rect x="173" y="39" width="1" height="1" fill="#231f20"/>
    <rect x="0" y="40" width="1" height="1" fill="#231f20"/>
    <rect x="47" y="40" width="1" height="1" fill="#231f20"/>
    <rect x="86" y="40" width="1" height="1" fill="#231f20"/>
    <rect x="98" y="40" width="1" height="1" fill="#231f20"/>
    <rect x="132" y="40" width="1" height="1" fill="#231f20"/>
    <rect x="144" y="40" width="1" height="1" fill="#231f20"/>
    <rect x="173" y="40" width="1" height="1" fill="#231f20"/>
    <rect x="0" y="41" width="1" height="1" fill="#231f20"/>
    <rect x="46" y="41" width="1" height="1" fill="#231f20"/>
    <rect x="173" y="41" width="1" height="1" fill="#231f20"/>
    <rect x="0" y="42" width="1" height="1" fill="#231f20"/>
    <rect x="45" y="42" width="1" height="1" fill="#231f20"/>
    <rect x="173" y="42" width="1" height="1" fill="#231f20"/>
    <rect x="0" y="43" width="1" height="1" fill="#231f20"/>
    <rect x="43" y="43" width="2" height="1" fill="#231f20"/>
    <rect x="173" y="43" width="1" height="1" fill="#231f20"/>
    <rect x="0" y="44" width="1" height="1" fill="#231f20"/>
    <rect x="173" y="44" width="1" height="1" fill="#231f20"/>
    <rect x="0" y="45" width="1" height="1" fill="#231f20"/>
    <rect x="173" y="45" width="1" height="1" fill="#231f20"/>
    <rect x="0" y="46" width="174" height="1" fill="#231f20"/>
    <rect x="0" y="47" width="1" height="1" fill="#231f20"/>
    <rect x="173" y="47" width="1" height="1" fill="#231f20"/>
    <rect x="0" y="48" width="1" height="1" fill="#231f20"/>
    <rect x="173" y="48" width="1" height="1" fill="#231f20"/>
    <rect x="0" y="49" width="1" height="1" fill="#231f20"/>
    <rect x="173" y="49" width="1" height="1" fill="#231f20"/>
    <rect x="0" y="50" width="1" height="1" fill="#231f20"/>
    <rect x="173" y="50" width="1" height="1" fill="#231f20"/>
    <rect x="0" y="51" width="1" height="1" fill="#231f20"/>
    <rect x="32" y="51" width="2" height="1" fill="#231f20"/>
    <rect x="173" y="51" width="1" height="1" fill="#231f20"/>
    <rect x="0" y="52" width="1" height="1" fill="#231f20"/>
    <rect x="34" y="52" width="1" height="1" fill="#231f20"/>
    <rect x="79" y="52" width="1" height="1" fill="#231f20"/>
    <rect x="82" y="52" width="1" height="1" fill="#231f20"/>
    <rect x="125" y="52" width="1" height="1" fill="#231f20"/>
    <rect x="128" y="52" width="1" height="1" fill="#231f20"/>
    <rect x="173" y="52" width="1" height="1" fill="#231f20"/>
    <rect x="0" y="53" width="1" height="1" fill="#231f20"/>
    <rect x="35" y="53" width="1" height="1" fill="#231f20"/>
    <rect x="79" y="53" width="1" height="1" fill="#231f20"/>
    <rect x="82" y="53" width="1" height="1" fill="#231f20"/>
    <rect x="125" y="53" width="1" height="1" fill="#231f20"/>
    <rect x="128" y="53" width="1" height="1" fill="#231f20"/>
    <rect x="173" y="53" width="1" height="1" fill="#231f20"/>
    <rect x="0" y="54" width="1" height="1" fill="#231f20"/>
    <rect x="36" y="54" width="1" height="1" fill="#231f20"/>
    <rect x="78" y="54" width="1" height="1" fill="#231f20"/>
    <rect x="83" y="54" width="1" height="1" fill="#231f20"/>
    <rect x="124" y="54" width="1" height="1" fill="#231f20"/>
    <rect x="129" y="54" width="1" height="1" fill="#231f20"/>
    <rect x="173" y="54" width="1" height="1" fill="#231f20"/>
    <rect x="0" y="55" width="1" height="1" fill="#231f20"/>
    <rect x="36" y="55" width="1" height="1" fill="#231f20"/>
    <rect x="78" y="55" width="1" height="1" fill="#231f20"/>
    <rect x="83" y="55" width="1" height="1" fill="#231f20"/>
    <rect x="124" y="55" width="1" height="1" fill="#231f20"/>
    <rect x="129" y="55" width="1" height="1" fill="#231f20"/>
    <rect x="173" y="55" width="1" height="1" fill="#231f20"/>
    <rect x="0" y="56" width="1" height="1" fill="#231f20"/>
    <rect x="37" y="56" width="1" height="1" fill="#231f20"/>
    <rect x="78" y="56" width="1" height="1" fill="#231f20"/>
    <rect x="83" y="56" width="1" height="1" fill="#231f20"/>
    <rect x="124" y="56" width="1" height="1" fill="#231f20"/>
    <rect x="129" y="56" width="1" height="1" fill="#231f20"/>
    <rect x="173" y="56" width="1" height="1" fill="#231f20"/>
    <rect x="0" y="57" width="1" height="1" fill="#231f20"/>
    <rect x="37" y="57" width="1" height="1" fill="#231f20"/>
    <rect x="77" y="57" width="1" height="1" fill="#231f20"/>
    <rect x="84" y="57" width="1" height="1" fill="#231f20"/>
    <rect x="123" y="57" width="1" height="1" fill="#231f20"/>
    <rect x="130" y="57" width="1" height="1" fill="#231f20"/>
    <rect x="173" y="57" width="1" height="1" fill="#231f20"/>
    <rect x="0" y="58" width="1" height="1" fill="#231f20"/>
    <rect x="37" y="58" width="1" height="1" fill="#231f20"/>
    <rect x="77" y="58" width="1" height="1" fill="#231f20"/>
    <rect x="84" y="58" width="1" height="1" fill="#231f20"/>
    <rect x="123" y="58" width="1" height="1" fill="#231f20"/>
    <rect x="130" y="58" width="1" height="1" fill="#231f20"/>
    <rect x="173" y="58" width="1" height="1" fill="#231f20"/>
    <rect x="0" y="59" width="1" height="1" fill="#231f20"/>
    <rect x="37" y="59" width="1" height="1" fill="#231f20"/>
    <rect x="76" y="59" width="1" height="1" fill="#231f20"/>
    <rect x="85" y="59" width="1" height="1" fill="#231f20"/>
    <rect x="122" y="59" width="1" height="1" fill="#231f20"/>
    <rect x="131" y="59" width="1" height="1" fill="#231f20"/>
    <rect x="173" y="59" width="1" height="1" fill="#231f20"/>
    <rect x="0" y="60" width="1" height="1" fill="#231f20"/>
    <rect x="37" y="60" width="1" height="1" fill="#231f20"/>
    <rect x="76" y="60" width="1" height="1" fill="#231f20"/>
    <rect x="85" y="60" width="1" height="1" fill="#231f20"/>
    <rect x="122" y="60" width="1" height="1" fill="#231f20"/>
    <rect x="131" y="60" width="1" height="1" fill="#231f20"/>
    <rect x="173" y="60" width="1" height="1" fill="#231f20"/>
    <rect x="0" y="61" width="1" height="1" fill="#231f20"/>
    <rect x="37" y="61" width="1" height="1" fill="#231f20"/>
    <rect x="76" y="61" width="1" height="1" fill="#231f20"/>
    <rect x="85" y="61" width="1" height="1" fill="#231f20"/>
    <rect x="122" y="61" width="1" height="1" fill="#231f20"/>
    <rect x="131" y="61" width="1" height="1" fill="#231f20"/>
    <rect x="173" y="61" width="1" height="1" fill="#231f20"/>
    <rect x="0" y="62" width="1" height="1" fill="#231f20"/>
    <rect x="36" y="62" width="1" height="1" fill="#231f20"/>
    <rect x="75" y="62" width="1" height="1" fill="#231f20"/>
    <rect x="86" y="62" width="1" height="1" fill="#231f20"/>
    <rect x="121" y="62" width="1" height="1" fill="#231f20"/>
    <rect x="132" y="62" width="1" height="1" fill="#231f20"/>
    <rect x="173" y="62" width="1" height="1" fill="#231f20"/>
    <rect x="0" y="63" width="1" height="1" fill="#231f20"/>
    <rect x="36" y="63" width="1" height="1" fill="#231f20"/>
    <rect x="75" y="63" width="1" height="1" fill="#231f20"/>
    <rect x="86" y="63" width="1" height="1" fill="#231f20"/>
    <rect x="121" y="63" width="1" height="1" fill="#231f20"/>
    <rect x="132" y="63" width="1" height="1" fill="#231f20"/>
    <rect x="173" y="63" width="1" height="1" fill="#231f20"/>
    <rect x="0" y="64" width="1" height="1" fill="#231f20"/>
    <rect x="35" y="64" width="1" height="1" fill="#231f20"/>
    <rect x="173" y="64" width="1" height="1" fill="#231f20"/>
    <rect x="0" y="65" width="1" height="1" fill="#231f20"/>
    <rect x="34" y="65" width="1" height="1" fill="#231f20"/>
    <rect x="173" y="65" width="1" height="1" fill="#231f20"/>
    <rect x="0" y="66" width="1" height="1" fill="#231f20"/>
    <rect x="32" y="66" width="2" height="1" fill="#231f20"/>
    <rect x="173" y="66" width="1" height="1" fill="#231f20"/>
    <rect x="0" y="67" width="1" height="1" fill="#231f20"/>
    <rect x="173" y="67" width="1" height="1" fill="#231f20"/>
    <rect x="0" y="68" width="1" height="1" fill="#231f20"/>
    <rect x="173" y="68" width="1" height="1" fill="#231f20"/>
    <rect x="0" y="69" width="174" height="1" fill="#231f20"/>
  </g>
</svg>