<?xml version="1.0" encoding="UTF-8"?>
<svg xmlns="http://www.w3.org/2000/svg" viewBox="0 0 173 69" width="173" height="69">
  <!-- Auto-converted from legend-1741.png -->
  <rect x="0" y="0" width="173" height="69" fill="none"/>
  <g fill="#231f20" stroke="none">
    <rect x="0" y="0" width="173" height="1" fill="#231f20"/>
    <rect x="0" y="1" width="1" height="1" fill="#231f20"/>
    <rect x="172" y="1" width="1" height="1" fill="#231f20"/>
    <rect x="0" y="2" width="1" height="1" fill="#231f20"/>
    <rect x="172" y="2" width="1" height="1" fill="#231f20"/>
    <rect x="0" y="3" width="1" height="1" fill="#231f20"/>
    <rect x="172" y="3" width="1" height="1" fill="#231f20"/>
    <rect x="0" y="4" width="1" height="1" fill="#231f20"/>
    <rect x="137" y="4" width="1" height="1" fill="#231f20"/>
    <rect x="172" y="4" width="1" height="1" fill="#231f20"/>
    <rect x="0" y="5" width="1" height="1" fill="#231f20"/>
    <rect x="17" y="5" width="1" height="1" fill="#231f20"/>
    <rect x="28" y="5" width="1" height="1" fill="#231f20"/>
    <rect x="64" y="5" width="9" height="1" fill="#231f20"/>
    <rect x="90" y="5" width="1" height="1" fill="#231f20"/>
    <rect x="93" y="5" width="1" height="1" fill="#231f20"/>
    <rect x="113" y="5" width="1" height="1" fill="#231f20"/>
    <rect x="116" y="5" width="1" height="1" fill="#231f20"/>
    <rect x="137" y="5" width="2" height="1" fill="#231f20"/>
    <rect x="172" y="5" width="1" height="1" fill="#231f20"/>
    <rect x="0" y="6" width="1" height="1" fill="#231f20"/>
    <rect x="18" y="6" width="1" height="1" fill="#231f20"/>
    <rect x="28" y="6" width="1" height="1" fill="#231f20"/>
    <rect x="64" y="6" width="1" height="1" fill="#231f20"/>
    <rect x="72" y="6" width="1" height="1" fill="#231f20"/>
    <rect x="90" y="6" width="1" height="1" fill="#231f20"/>
    <rect x="93" y="6" width="1" height="1" fill="#231f20"/>
    <rect x="113" y="6" width="1" height="1" fill="#231f20"/>
    <rect x="116" y="6" width="1" height="1" fill="#231f20"/>
    <rect x="136" y="6" width="1" height="1" fill="#231f20"/>
    <rect x="138" y="6" width="1" height="1" fill="#231f20"/>
    <rect x="172" y="6" width="1" height="1" fill="#231f20"/>
    <rect x="0" y="7" width="1" height="1" fill="#231f20"/>
    <rect x="18" y="7" width="1" height="1" fill="#231f20"/>
    <rect x="27" y="7" width="1" height="1" fill="#231f20"/>
    <rect x="64" y="7" width="1" height="1" fill="#231f20"/>
    <rect x="72" y="7" width="1" height="1" fill="#231f20"/>
    <rect x="89" y="7" width="1" height="1" fill="#231f20"/>
    <rect x="94" y="7" width="1" height="1" fill="#231f20"/>
    <rect x="112" y="7" width="1" height="1" fill="#231f20"/>
    <rect x="117" y="7" width="1" height="1" fill="#231f20"/>
    <rect x="136" y="7" width="1" height="1" fill="#231f20"/>
    <rect x="139" y="7" width="1" height="1" fill="#231f20"/>
    <rect x="172" y="7" width="1" height="1" fill="#231f20"/>
    <rect x="0" y="8" width="1" height="1" fill="#231f20"/>
    <rect x="19" y="8" width="1" height="1" fill="#231f20"/>
    <rect x="27" y="8" width="1" height="1" fill="#231f20"/>
    <rect x="42" y="8" width="8" height="1" fill="#231f20"/>
    <rect x="64" y="8" width="1" height="1" fill="#231f20"/>
    <rect x="72" y="8" width="1" height="1" fill="#231f20"/>
    <rect x="89" y="8" width="1" height="1" fill="#231f20"/>
    <rect x="94" y="8" width="1" height="1" fill="#231f20"/>
    <rect x="112" y="8" width="1" height="1" fill="#231f20"/>
    <rect x="117" y="8" width="1" height="1" fill="#231f20"/>
    <rect x="135" y="8" width="1" height="1" fill="#231f20"/>
    <rect x="139" y="8" width="1" height="1" fill="#231f20"/>
    <rect x="172" y="8" width="1" height="1" fill="#231f20"/>
    <rect x="0" y="9" width="1" height="1" fill="#231f20"/>
    <rect x="19" y="9" width="1" height="1" fill="#231f20"/>
    <rect x="26" y="9" width="1" height="1" fill="#231f20"/>
    <rect x="41" y="9" width="1" height="1" fill="#231f20"/>
    <rect x="50" y="9" width="1" height="1" fill="#231f20"/>
    <rect x="64" y="9" width="1" height="1" fill="#231f20"/>
    <rect x="72" y="9" width="1" height="1" fill="#231f20"/>
    <rect x="89" y="9" width="1" height="1" fill="#231f20"/>
    <rect x="94" y="9" width="1" height="1" fill="#231f20"/>
    <rect x="112" y="9" width="1" height="1" fill="#231f20"/>
    <rect x="117" y="9" width="1" height="1" fill="#231f20"/>
    <rect x="135" y="9" width="1" height="1" fill="#231f20"/>
    <rect x="140" y="9" width="1" height="1" fill="#231f20"/>
    <rect x="172" y="9" width="1" height="1" fill="#231f20"/>
    <rect x="0" y="10" width="1" height="1" fill="#231f20"/>
    <rect x="20" y="10" width="1" height="1" fill="#231f20"/>
    <rect x="26" y="10" width="1" height="1" fill="#231f20"/>
    <rect x="40" y="10" width="1" height="1" fill="#231f20"/>
    <rect x="51" y="10" width="1" height="1" fill="#231f20"/>
    <rect x="64" y="10" width="1" height="1" fill="#231f20"/>
    <rect x="72" y="10" width="1" height="1" fill="#231f20"/>
    <rect x="88" y="10" width="1" height="1" fill="#231f20"/>
    <rect x="95" y="10" width="1" height="1" fill="#231f20"/>
    <rect x="111" y="10" width="1" height="1" fill="#231f20"/>
    <rect x="118" y="10" width="1" height="1" fill="#231f20"/>
    <rect x="134" y="10" width="1" height="1" fill="#231f20"/>
    <rect x="141" y="10" width="1" height="1" fill="#231f20"/>
    <rect x="172" y="10" width="1" height="1" fill="#231f20"/>
    <rect x="0" y="11" width="1" height="1" fill="#231f20"/>
    <rect x="20" y="11" width="1" height="1" fill="#231f20"/>
    <rect x="25" y="11" width="1" height="1" fill="#231f20"/>
    <rect x="39" y="11" width="1" height="1" fill="#231f20"/>
    <rect x="52" y="11" width="1" height="1" fill="#231f20"/>
    <rect x="64" y="11" width="1" height="1" fill="#231f20"/>
    <rect x="72" y="11" width="1" height="1" fill="#231f20"/>
    <rect x="88" y="11" width="1" height="1" fill="#231f20"/>
    <rect x="95" y="11" width="1" height="1" fill="#231f20"/>
    <rect x="111" y="11" width="1" height="1" fill="#231f20"/>
    <rect x="118" y="11" width="1" height="1" fill="#231f20"/>
    <rect x="134" y="11" width="1" height="1" fill="#231f20"/>
    <rect x="141" y="11" width="1" height="1" fill="#231f20"/>
    <rect x="172" y="11" width="1" height="1" fill="#231f20"/>
    <rect x="0" y="12" width="1" height="1" fill="#231f20"/>
    <rect x="21" y="12" width="1" height="1" fill="#231f20"/>
    <rect x="25" y="12" width="1" height="1" fill="#231f20"/>
    <rect x="40" y="12" width="1" height="1" fill="#231f20"/>
    <rect x="50" y="12" width="2" height="1" fill="#231f20"/>
    <rect x="64" y="12" width="1" height="1" fill="#231f20"/>
    <rect x="72" y="12" width="1" height="1" fill="#231f20"/>
    <rect x="88" y="12" width="1" height="1" fill="#231f20"/>
    <rect x="95" y="12" width="1" height="1" fill="#231f20"/>
    <rect x="111" y="12" width="1" height="1" fill="#231f20"/>
    <rect x="118" y="12" width="1" height="1" fill="#231f20"/>
    <rect x="133" y="12" width="1" height="1" fill="#231f20"/>
    <rect x="142" y="12" width="1" height="1" fill="#231f20"/>
    <rect x="172" y="12" width="1" height="1" fill="#231f20"/>
    <rect x="0" y="13" width="1" height="1" fill="#231f20"/>
    <rect x="21" y="13" width="1" height="1" fill="#231f20"/>
    <rect x="25" y="13" width="1" height="1" fill="#231f20"/>
    <rect x="41" y="13" width="2" height="1" fill="#231f20"/>
    <rect x="49" y="13" width="1" height="1" fill="#231f20"/>
    <rect x="64" y="13" width="1" height="1" fill="#231f20"/>
    <rect x="72" y="13" width="1" height="1" fill="#231f20"/>
    <rect x="87" y="13" width="1" height="1" fill="#231f20"/>
    <rect x="96" y="13" width="1" height="1" fill="#231f20"/>
    <rect x="110" y="13" width="1" height="1" fill="#231f20"/>
    <rect x="119" y="13" width="1" height="1" fill="#231f20"/>
    <rect x="133" y="13" width="1" height="1" fill="#231f20"/>
    <rect x="142" y="13" width="1" height="1" fill="#231f20"/>
    <rect x="172" y="13" width="1" height="1" fill="#231f20"/>
    <rect x="0" y="14" width="1" height="1" fill="#231f20"/>
    <rect x="22" y="14" width="1" height="1" fill="#231f20"/>
    <rect x="24" y="14" width="1" height="1" fill="#231f20"/>
    <rect x="43" y="14" width="1" height="1" fill="#231f20"/>
    <rect x="48" y="14" width="1" height="1" fill="#231f20"/>
    <rect x="64" y="14" width="1" height="1" fill="#231f20"/>
    <rect x="72" y="14" width="1" height="1" fill="#231f20"/>
    <rect x="87" y="14" width="1" height="1" fill="#231f20"/>
    <rect x="96" y="14" width="1" height="1" fill="#231f20"/>
    <rect x="110" y="14" width="1" height="1" fill="#231f20"/>
    <rect x="119" y="14" width="1" height="1" fill="#231f20"/>
    <rect x="132" y="14" width="12" height="1" fill="#231f20"/>
    <rect x="172" y="14" width="1" height="1" fill="#231f20"/>
    <rect x="0" y="15" width="1" height="1" fill="#231f20"/>
    <rect x="22" y="15" width="1" height="1" fill="#231f20"/>
    <rect x="24" y="15" width="1" height="1" fill="#231f20"/>
    <rect x="44" y="15" width="1" height="1" fill="#231f20"/>
    <rect x="46" y="15" width="2" height="1" fill="#231f20"/>
    <rect x="64" y="15" width="1" height="1" fill="#231f20"/>
    <rect x="72" y="15" width="1" height="1" fill="#231f20"/>
    <rect x="87" y="15" width="1" height="1" fill="#231f20"/>
    <rect x="96" y="15" width="1" height="1" fill="#231f20"/>
    <rect x="110" y="15" width="1" height="1" fill="#231f20"/>
    <rect x="119" y="15" width="1" height="1" fill="#231f20"/>
    <rect x="172" y="15" width="1" height="1" fill="#231f20"/>
    <rect x="0" y="16" width="1" height="1" fill="#231f20"/>
    <rect x="23" y="16" width="1" height="1" fill="#231f20"/>
    <rect x="45" y="16" width="1" height="1" fill="#231f20"/>
    <rect x="64" y="16" width="1" height="1" fill="#231f20"/>
    <rect x="72" y="16" width="1" height="1" fill="#231f20"/>
    <rect x="86" y="16" width="1" height="1" fill="#231f20"/>
    <rect x="97" y="16" width="1" height="1" fill="#231f20"/>
    <rect x="109" y="16" width="1" height="1" fill="#231f20"/>
    <rect x="120" y="16" width="1" height="1" fill="#231f20"/>
    <rect x="172" y="16" width="1" height="1" fill="#231f20"/>
    <rect x="0" y="17" width="1" height="1" fill="#231f20"/>
    <rect x="23" y="17" width="1" height="1" fill="#231f20"/>
    <rect x="64" y="17" width="9" height="1" fill="#231f20"/>
    <rect x="86" y="17" width="1" height="1" fill="#231f20"/>
    <rect x="97" y="17" width="1" height="1" fill="#231f20"/>
    <rect x="109" y="17" width="1" height="1" fill="#231f20"/>
    <rect x="120" y="17" width="1" height="1" fill="#231f20"/>
    <rect x="172" y="17" width="1" height="1" fill="#231f20"/>
    <rect x="0" y="18" width="1" height="1" fill="#231f20"/>
    <rect x="172" y="18" width="1" height="1" fill="#231f20"/>
    <rect x="0" y="19" width="1" height="1" fill="#231f20"/>
    <rect x="172" y="19" width="1" height="1" fill="#231f20"/>
    <rect x="0" y="20" width="1" height="1" fill="#231f20"/>
    <rect x="172" y="20" width="1" height="1" fill="#231f20"/>
    <rect x="0" y="21" width="1" height="1" fill="#231f20"/>
    <rect x="172" y="21" width="1" height="1" fill="#231f20"/>
    <rect x="0" y="22" width="1" height="1" fill="#231f20"/>
    <rect x="172" y="22" width="1" height="1" fill="#231f20"/>
    <rect x="0" y="23" width="173" height="1" fill="#231f20"/>
    <rect x="0" y="24" width="1" height="1" fill="#231f20"/>
    <rect x="172" y="24" width="1" height="1" fill="#231f20"/>
    <rect x="0" y="25" width="1" height="1" fill="#231f20"/>
    <rect x="172" y="25" width="1" height="1" fill="#231f20"/>
    <rect x="0" y="26" width="1" height="1" fill="#231f20"/>
    <rect x="172" y="26" width="1" height="1" fill="#231f20"/>
    <rect x="0" y="27" width="1" height="1" fill="#231f20"/>
    <rect x="34" y="27" width="1" height="1" fill="#231f20"/>
    <rect x="172" y="27" width="1" height="1" fill="#231f20"/>
    <rect x="0" y="28" width="1" height="1" fill="#231f20"/>
    <rect x="33" y="28" width="1" height="1" fill="#231f20"/>
    <rect x="35" y="28" width="1" height="1" fill="#231f20"/>
    <rect x="55" y="28" width="1" height="1" fill="#231f20"/>
    <rect x="58" y="28" width="1" height="1" fill="#231f20"/>
    <rect x="78" y="28" width="1" height="1" fill="#231f20"/>
    <rect x="81" y="28" width="1" height="1" fill="#231f20"/>
    <rect x="100" y="28" width="10" height="1" fill="#231f20"/>
    <rect x="143" y="28" width="1" height="1" fill="#231f20"/>
    <rect x="154" y="28" width="1" height="1" fill="#231f20"/>
    <rect x="172" y="28" width="1" height="1" fill="#231f20"/>
    <rect x="0" y="29" width="1" height="1" fill="#231f20"/>
    <rect x="33" y="29" width="1" height="1" fill="#231f20"/>
    <rect x="35" y="29" width="1" height="1" fill="#231f20"/>
    <rect x="55" y="29" width="1" height="1" fill="#231f20"/>
    <rect x="58" y="29" width="1" height="1" fill="#231f20"/>
    <rect x="78" y="29" width="1" height="1" fill="#231f20"/>
    <rect x="81" y="29" width="1" height="1" fill="#231f20"/>
    <rect x="100" y="29" width="1" height="1" fill="#231f20"/>
    <rect x="109" y="29" width="1" height="1" fill="#231f20"/>
    <rect x="144" y="29" width="1" height="1" fill="#231f20"/>
    <rect x="154" y="29" width="1" height="1" fill="#231f20"/>
    <rect x="172" y="29" width="1" height="1" fill="#231f20"/>
    <rect x="0" y="30" width="1" height="1" fill="#231f20"/>
    <rect x="32" y="30" width="1" height="1" fill="#231f20"/>
    <rect x="36" y="30" width="1" height="1" fill="#231f20"/>
    <rect x="54" y="30" width="1" height="1" fill="#231f20"/>
    <rect x="59" y="30" width="1" height="1" fill="#231f20"/>
    <rect x="77" y="30" width="1" height="1" fill="#231f20"/>
    <rect x="82" y="30" width="1" height="1" fill="#231f20"/>
    <rect x="100" y="30" width="1" height="1" fill="#231f20"/>
    <rect x="109" y="30" width="1" height="1" fill="#231f20"/>
    <rect x="144" y="30" width="1" height="1" fill="#231f20"/>
    <rect x="153" y="30" width="1" height="1" fill="#231f20"/>
    <rect x="172" y="30" width="1" height="1" fill="#231f20"/>
    <rect x="0" y="31" width="1" height="1" fill="#231f20"/>
    <rect x="32" y="31" width="1" height="1" fill="#231f20"/>
    <rect x="36" y="31" width="1" height="1" fill="#231f20"/>
    <rect x="54" y="31" width="1" height="1" fill="#231f20"/>
    <rect x="59" y="31" width="1" height="1" fill="#231f20"/>
    <rect x="77" y="31" width="1" height="1" fill="#231f20"/>
    <rect x="82" y="31" width="1" height="1" fill="#231f20"/>
    <rect x="100" y="31" width="1" height="1" fill="#231f20"/>
    <rect x="109" y="31" width="1" height="1" fill="#231f20"/>
    <rect x="123" y="31" width="7" height="1" fill="#231f20"/>
    <rect x="145" y="31" width="1" height="1" fill="#231f20"/>
    <rect x="153" y="31" width="1" height="1" fill="#231f20"/>
    <rect x="172" y="31" width="1" height="1" fill="#231f20"/>
    <rect x="0" y="32" width="1" height="1" fill="#231f20"/>
    <rect x="31" y="32" width="1" height="1" fill="#231f20"/>
    <rect x="37" y="32" width="1" height="1" fill="#231f20"/>
    <rect x="54" y="32" width="1" height="1" fill="#231f20"/>
    <rect x="60" y="32" width="1" height="1" fill="#231f20"/>
    <rect x="77" y="32" width="1" height="1" fill="#231f20"/>
    <rect x="82" y="32" width="1" height="1" fill="#231f20"/>
    <rect x="100" y="32" width="1" height="1" fill="#231f20"/>
    <rect x="109" y="32" width="1" height="1" fill="#231f20"/>
    <rect x="122" y="32" width="1" height="1" fill="#231f20"/>
    <rect x="130" y="32" width="2" height="1" fill="#231f20"/>
    <rect x="145" y="32" width="1" height="1" fill="#231f20"/>
    <rect x="152" y="32" width="1" height="1" fill="#231f20"/>
    <rect x="172" y="32" width="1" height="1" fill="#231f20"/>
    <rect x="0" y="33" width="1" height="1" fill="#231f20"/>
    <rect x="30" y="33" width="1" height="1" fill="#231f20"/>
    <rect x="38" y="33" width="1" height="1" fill="#231f20"/>
    <rect x="53" y="33" width="1" height="1" fill="#231f20"/>
    <rect x="60" y="33" width="1" height="1" fill="#231f20"/>
    <rect x="76" y="33" width="1" height="1" fill="#231f20"/>
    <rect x="83" y="33" width="1" height="1" fill="#231f20"/>
    <rect x="100" y="33" width="1" height="1" fill="#231f20"/>
    <rect x="109" y="33" width="1" height="1" fill="#231f20"/>
    <rect x="120" y="33" width="2" height="1" fill="#231f20"/>
    <rect x="132" y="33" width="1" height="1" fill="#231f20"/>
    <rect x="146" y="33" width="1" height="1" fill="#231f20"/>
    <rect x="152" y="33" width="1" height="1" fill="#231f20"/>
    <rect x="172" y="33" width="1" height="1" fill="#231f20"/>
    <rect x="0" y="34" width="1" height="1" fill="#231f20"/>
    <rect x="30" y="34" width="1" height="1" fill="#231f20"/>
    <rect x="38" y="34" width="1" height="1" fill="#231f20"/>
    <rect x="53" y="34" width="1" height="1" fill="#231f20"/>
    <rect x="60" y="34" width="1" height="1" fill="#231f20"/>
    <rect x="76" y="34" width="1" height="1" fill="#231f20"/>
    <rect x="83" y="34" width="1" height="1" fill="#231f20"/>
    <rect x="100" y="34" width="1" height="1" fill="#231f20"/>
    <rect x="109" y="34" width="1" height="1" fill="#231f20"/>
    <rect x="119" y="34" width="1" height="1" fill="#231f20"/>
    <rect x="133" y="34" width="1" height="1" fill="#231f20"/>
    <rect x="146" y="34" width="1" height="1" fill="#231f20"/>
    <rect x="151" y="34" width="1" height="1" fill="#231f20"/>
    <rect x="172" y="34" width="1" height="1" fill="#231f20"/>
    <rect x="0" y="35" width="1" height="1" fill="#231f20"/>
    <rect x="29" y="35" width="1" height="1" fill="#231f20"/>
    <rect x="39" y="35" width="1" height="1" fill="#231f20"/>
    <rect x="53" y="35" width="1" height="1" fill="#231f20"/>
    <rect x="61" y="35" width="1" height="1" fill="#231f20"/>
    <rect x="76" y="35" width="1" height="1" fill="#231f20"/>
    <rect x="83" y="35" width="1" height="1" fill="#231f20"/>
    <rect x="100" y="35" width="1" height="1" fill="#231f20"/>
    <rect x="109" y="35" width="1" height="1" fill="#231f20"/>
    <rect x="120" y="35" width="2" height="1" fill="#231f20"/>
    <rect x="131" y="35" width="2" height="1" fill="#231f20"/>
    <rect x="147" y="35" width="1" height="1" fill="#231f20"/>
    <rect x="151" y="35" width="1" height="1" fill="#231f20"/>
    <rect x="172" y="35" width="1" height="1" fill="#231f20"/>
    <rect x="0" y="36" width="1" height="1" fill="#231f20"/>
    <rect x="29" y="36" width="1" height="1" fill="#231f20"/>
    <rect x="39" y="36" width="1" height="1" fill="#231f20"/>
    <rect x="52" y="36" width="1" height="1" fill="#231f20"/>
    <rect x="61" y="36" width="1" height="1" fill="#231f20"/>
    <rect x="75" y="36" width="1" height="1" fill="#231f20"/>
    <rect x="84" y="36" width="1" height="1" fill="#231f20"/>
    <rect x="100" y="36" width="1" height="1" fill="#231f20"/>
    <rect x="109" y="36" width="1" height="1" fill="#231f20"/>
    <rect x="122" y="36" width="1" height="1" fill="#231f20"/>
    <rect x="130" y="36" width="1" height="1" fill="#231f20"/>
    <rect x="147" y="36" width="1" height="1" fill="#231f20"/>
    <rect x="151" y="36" width="1" height="1" fill="#231f20"/>
    <rect x="172" y="36" width="1" height="1" fill="#231f20"/>
    <rect x="0" y="37" width="1" height="1" fill="#231f20"/>
    <rect x="28" y="37" width="13" height="1" fill="#231f20"/>
    <rect x="52" y="37" width="1" height="1" fill="#231f20"/>
    <rect x="62" y="37" width="1" height="1" fill="#231f20"/>
    <rect x="75" y="37" width="1" height="1" fill="#231f20"/>
    <rect x="84" y="37" width="1" height="1" fill="#231f20"/>
    <rect x="100" y="37" width="1" height="1" fill="#231f20"/>
    <rect x="109" y="37" width="1" height="1" fill="#231f20"/>
    <rect x="123" y="37" width="1" height="1" fill="#231f20"/>
    <rect x="129" y="37" width="1" height="1" fill="#231f20"/>
    <rect x="148" y="37" width="1" height="1" fill="#231f20"/>
    <rect x="150" y="37" width="1" height="1" fill="#231f20"/>
    <rect x="172" y="37" width="1" height="1" fill="#231f20"/>
    <rect x="0" y="38" width="1" height="1" fill="#231f20"/>
    <rect x="52" y="38" width="1" height="1" fill="#231f20"/>
    <rect x="62" y="38" width="1" height="1" fill="#231f20"/>
    <rect x="75" y="38" width="1" height="1" fill="#231f20"/>
    <rect x="84" y="38" width="1" height="1" fill="#231f20"/>
    <rect x="100" y="38" width="1" height="1" fill="#231f20"/>
    <rect x="109" y="38" width="1" height="1" fill="#231f20"/>
    <rect x="124" y="38" width="2" height="1" fill="#231f20"/>
    <rect x="127" y="38" width="2" height="1" fill="#231f20"/>
    <rect x="148" y="38" width="1" height="1" fill="#231f20"/>
    <rect x="150" y="38" width="1" height="1" fill="#231f20"/>
    <rect x="172" y="38" width="1" height="1" fill="#231f20"/>
    <rect x="0" y="39" width="1" height="1" fill="#231f20"/>
    <rect x="51" y="39" width="1" height="1" fill="#231f20"/>
    <rect x="63" y="39" width="1" height="1" fill="#231f20"/>
    <rect x="74" y="39" width="1" height="1" fill="#231f20"/>
    <rect x="85" y="39" width="1" height="1" fill="#231f20"/>
    <rect x="100" y="39" width="1" height="1" fill="#231f20"/>
    <rect x="109" y="39" width="1" height="1" fill="#231f20"/>
    <rect x="126" y="39" width="1" height="1" fill="#231f20"/>
    <rect x="149" y="39" width="1" height="1" fill="#231f20"/>
    <rect x="172" y="39" width="1" height="1" fill="#231f20"/>
    <rect x="0" y="40" width="1" height="1" fill="#231f20"/>
    <rect x="51" y="40" width="1" height="1" fill="#231f20"/>
    <rect x="63" y="40" width="1" height="1" fill="#231f20"/>
    <rect x="74" y="40" width="1" height="1" fill="#231f20"/>
    <rect x="85" y="40" width="1" height="1" fill="#231f20"/>
    <rect x="100" y="40" width="10" height="1" fill="#231f20"/>
    <rect x="149" y="40" width="1" height="1" fill="#231f20"/>
    <rect x="172" y="40" width="1" height="1" fill="#231f20"/>
    <rect x="0" y="41" width="1" height="1" fill="#231f20"/>
    <rect x="172" y="41" width="1" height="1" fill="#231f20"/>
    <rect x="0" y="42" width="1" height="1" fill="#231f20"/>
    <rect x="172" y="42" width="1" height="1" fill="#231f20"/>
    <rect x="0" y="43" width="1" height="1" fill="#231f20"/>
    <rect x="172" y="43" width="1" height="1" fill="#231f20"/>
    <rect x="0" y="44" width="1" height="1" fill="#231f20"/>
    <rect x="172" y="44" width="1" height="1" fill="#231f20"/>
    <rect x="0" y="45" width="173" height="1" fill="#231f20"/>
    <rect x="0" y="46" width="1" height="1" fill="#231f20"/>
    <rect x="172" y="46" width="1" height="1" fill="#231f20"/>
    <rect x="0" y="47" width="1" height="1" fill="#231f20"/>
    <rect x="172" y="47" width="1" height="1" fill="#231f20"/>
    <rect x="0" y="48" width="1" height="1" fill="#231f20"/>
    <rect x="172" y="48" width="1" height="1" fill="#231f20"/>
    <rect x="0" y="49" width="1" height="1" fill="#231f20"/>
    <rect x="172" y="49" width="1" height="1" fill="#231f20"/>
    <rect x="0" y="50" width="1" height="1" fill="#231f20"/>
    <rect x="137" y="50" width="1" height="1" fill="#231f20"/>
    <rect x="172" y="50" width="1" height="1" fill="#231f20"/>
    <rect x="0" y="51" width="1" height="1" fill="#231f20"/>
    <rect x="17" y="51" width="1" height="1" fill="#231f20"/>
    <rect x="28" y="51" width="1" height="1" fill="#231f20"/>
    <rect x="90" y="51" width="1" height="1" fill="#231f20"/>
    <rect x="93" y="51" width="1" height="1" fill="#231f20"/>
    <rect x="113" y="51" width="1" height="1" fill="#231f20"/>
    <rect x="116" y="51" width="1" height="1" fill="#231f20"/>
    <rect x="136" y="51" width="1" height="1" fill="#231f20"/>
    <rect x="138" y="51" width="1" height="1" fill="#231f20"/>
    <rect x="172" y="51" width="1" height="1" fill="#231f20"/>
    <rect x="0" y="52" width="1" height="1" fill="#231f20"/>
    <rect x="18" y="52" width="1" height="1" fill="#231f20"/>
    <rect x="28" y="52" width="1" height="1" fill="#231f20"/>
    <rect x="64" y="52" width="9" height="1" fill="#231f20"/>
    <rect x="90" y="52" width="1" height="1" fill="#231f20"/>
    <rect x="93" y="52" width="1" height="1" fill="#231f20"/>
    <rect x="113" y="52" width="1" height="1" fill="#231f20"/>
    <rect x="116" y="52" width="1" height="1" fill="#231f20"/>
    <rect x="136" y="52" width="1" height="1" fill="#231f20"/>
    <rect x="138" y="52" width="1" height="1" fill="#231f20"/>
    <rect x="172" y="52" width="1" height="1" fill="#231f20"/>
    <rect x="0" y="53" width="1" height="1" fill="#231f20"/>
    <rect x="18" y="53" width="1" height="1" fill="#231f20"/>
    <rect x="27" y="53" width="1" height="1" fill="#231f20"/>
    <rect x="64" y="53" width="1" height="1" fill="#231f20"/>
    <rect x="72" y="53" width="1" height="1" fill="#231f20"/>
    <rect x="89" y="53" width="1" height="1" fill="#231f20"/>
    <rect x="94" y="53" width="1" height="1" fill="#231f20"/>
    <rect x="112" y="53" width="1" height="1" fill="#231f20"/>
    <rect x="117" y="53" width="1" height="1" fill="#231f20"/>
    <rect x="135" y="53" width="1" height="1" fill="#231f20"/>
    <rect x="139" y="53" width="1" height="1" fill="#231f20"/>
    <rect x="172" y="53" width="1" height="1" fill="#231f20"/>
    <rect x="0" y="54" width="1" height="1" fill="#231f20"/>
    <rect x="19" y="54" width="1" height="1" fill="#231f20"/>
    <rect x="27" y="54" width="1" height="1" fill="#231f20"/>
    <rect x="42" y="54" width="8" height="1" fill="#231f20"/>
    <rect x="64" y="54" width="1" height="1" fill="#231f20"/>
    <rect x="72" y="54" width="1" height="1" fill="#231f20"/>
    <rect x="89" y="54" width="1" height="1" fill="#231f20"/>
    <rect x="94" y="54" width="1" height="1" fill="#231f20"/>
    <rect x="112" y="54" width="1" height="1" fill="#231f20"/>
    <rect x="117" y="54" width="1" height="1" fill="#231f20"/>
    <rect x="135" y="54" width="1" height="1" fill="#231f20"/>
    <rect x="139" y="54" width="1" height="1" fill="#231f20"/>
    <rect x="172" y="54" width="1" height="1" fill="#231f20"/>
    <rect x="0" y="55" width="1" height="1" fill="#231f20"/>
    <rect x="19" y="55" width="1" height="1" fill="#231f20"/>
    <rect x="26" y="55" width="1" height="1" fill="#231f20"/>
    <rect x="41" y="55" width="1" height="1" fill="#231f20"/>
    <rect x="50" y="55" width="1" height="1" fill="#231f20"/>
    <rect x="64" y="55" width="1" height="1" fill="#231f20"/>
    <rect x="72" y="55" width="1" height="1" fill="#231f20"/>
    <rect x="89" y="55" width="1" height="1" fill="#231f20"/>
    <rect x="94" y="55" width="1" height="1" fill="#231f20"/>
    <rect x="112" y="55" width="1" height="1" fill="#231f20"/>
    <rect x="117" y="55" width="1" height="1" fill="#231f20"/>
    <rect x="134" y="55" width="1" height="1" fill="#231f20"/>
    <rect x="140" y="55" width="1" height="1" fill="#231f20"/>
    <rect x="172" y="55" width="1" height="1" fill="#231f20"/>
    <rect x="0" y="56" width="1" height="1" fill="#231f20"/>
    <rect x="20" y="56" width="1" height="1" fill="#231f20"/>
    <rect x="26" y="56" width="1" height="1" fill="#231f20"/>
    <rect x="40" y="56" width="1" height="1" fill="#231f20"/>
    <rect x="51" y="56" width="1" height="1" fill="#231f20"/>
    <rect x="64" y="56" width="1" height="1" fill="#231f20"/>
    <rect x="72" y="56" width="1" height="1" fill="#231f20"/>
    <rect x="88" y="56" width="1" height="1" fill="#231f20"/>
    <rect x="95" y="56" width="1" height="1" fill="#231f20"/>
    <rect x="111" y="56" width="1" height="1" fill="#231f20"/>
    <rect x="118" y="56" width="1" height="1" fill="#231f20"/>
    <rect x="133" y="56" width="1" height="1" fill="#231f20"/>
    <rect x="141" y="56" width="1" height="1" fill="#231f20"/>
    <rect x="172" y="56" width="1" height="1" fill="#231f20"/>
    <rect x="0" y="57" width="1" height="1" fill="#231f20"/>
    <rect x="20" y="57" width="1" height="1" fill="#231f20"/>
    <rect x="25" y="57" width="1" height="1" fill="#231f20"/>
    <rect x="39" y="57" width="1" height="1" fill="#231f20"/>
    <rect x="52" y="57" width="1" height="1" fill="#231f20"/>
    <rect x="64" y="57" width="1" height="1" fill="#231f20"/>
    <rect x="72" y="57" width="1" height="1" fill="#231f20"/>
    <rect x="88" y="57" width="1" height="1" fill="#231f20"/>
    <rect x="95" y="57" width="1" height="1" fill="#231f20"/>
    <rect x="111" y="57" width="1" height="1" fill="#231f20"/>
    <rect x="118" y="57" width="1" height="1" fill="#231f20"/>
    <rect x="133" y="57" width="1" height="1" fill="#231f20"/>
    <rect x="141" y="57" width="1" height="1" fill="#231f20"/>
    <rect x="172" y="57" width="1" height="1" fill="#231f20"/>
    <rect x="0" y="58" width="1" height="1" fill="#231f20"/>
    <rect x="21" y="58" width="1" height="1" fill="#231f20"/>
    <rect x="25" y="58" width="1" height="1" fill="#231f20"/>
    <rect x="40" y="58" width="1" height="1" fill="#231f20"/>
    <rect x="50" y="58" width="2" height="1" fill="#231f20"/>
    <rect x="64" y="58" width="1" height="1" fill="#231f20"/>
    <rect x="72" y="58" width="1" height="1" fill="#231f20"/>
    <rect x="88" y="58" width="1" height="1" fill="#231f20"/>
    <rect x="95" y="58" width="1" height="1" fill="#231f20"/>
    <rect x="111" y="58" width="1" height="1" fill="#231f20"/>
    <rect x="118" y="58" width="1" height="1" fill="#231f20"/>
    <rect x="132" y="58" width="1" height="1" fill="#231f20"/>
    <rect x="142" y="58" width="1" height="1" fill="#231f20"/>
    <rect x="172" y="58" width="1" height="1" fill="#231f20"/>
    <rect x="0" y="59" width="1" height="1" fill="#231f20"/>
    <rect x="21" y="59" width="1" height="1" fill="#231f20"/>
    <rect x="25" y="59" width="1" height="1" fill="#231f20"/>
    <rect x="41" y="59" width="2" height="1" fill="#231f20"/>
    <rect x="49" y="59" width="1" height="1" fill="#231f20"/>
    <rect x="64" y="59" width="1" height="1" fill="#231f20"/>
    <rect x="72" y="59" width="1" height="1" fill="#231f20"/>
    <rect x="87" y="59" width="1" height="1" fill="#231f20"/>
    <rect x="96" y="59" width="1" height="1" fill="#231f20"/>
    <rect x="110" y="59" width="1" height="1" fill="#231f20"/>
    <rect x="119" y="59" width="1" height="1" fill="#231f20"/>
    <rect x="132" y="59" width="1" height="1" fill="#231f20"/>
    <rect x="142" y="59" width="1" height="1" fill="#231f20"/>
    <rect x="172" y="59" width="1" height="1" fill="#231f20"/>
    <rect x="0" y="60" width="1" height="1" fill="#231f20"/>
    <rect x="22" y="60" width="1" height="1" fill="#231f20"/>
    <rect x="24" y="60" width="1" height="1" fill="#231f20"/>
    <rect x="43" y="60" width="1" height="1" fill="#231f20"/>
    <rect x="48" y="60" width="1" height="1" fill="#231f20"/>
    <rect x="64" y="60" width="1" height="1" fill="#231f20"/>
    <rect x="72" y="60" width="1" height="1" fill="#231f20"/>
    <rect x="87" y="60" width="1" height="1" fill="#231f20"/>
    <rect x="96" y="60" width="1" height="1" fill="#231f20"/>
    <rect x="110" y="60" width="1" height="1" fill="#231f20"/>
    <rect x="119" y="60" width="1" height="1" fill="#231f20"/>
    <rect x="131" y="60" width="13" height="1" fill="#231f20"/>
    <rect x="172" y="60" width="1" height="1" fill="#231f20"/>
    <rect x="0" y="61" width="1" height="1" fill="#231f20"/>
    <rect x="22" y="61" width="1" height="1" fill="#231f20"/>
    <rect x="24" y="61" width="1" height="1" fill="#231f20"/>
    <rect x="44" y="61" width="1" height="1" fill="#231f20"/>
    <rect x="46" y="61" width="2" height="1" fill="#231f20"/>
    <rect x="64" y="61" width="1" height="1" fill="#231f20"/>
    <rect x="72" y="61" width="1" height="1" fill="#231f20"/>
    <rect x="87" y="61" width="1" height="1" fill="#231f20"/>
    <rect x="96" y="61" width="1" height="1" fill="#231f20"/>
    <rect x="110" y="61" width="1" height="1" fill="#231f20"/>
    <rect x="119" y="61" width="1" height="1" fill="#231f20"/>
    <rect x="172" y="61" width="1" height="1" fill="#231f20"/>
    <rect x="0" y="62" width="1" height="1" fill="#231f20"/>
    <rect x="23" y="62" width="1" height="1" fill="#231f20"/>
    <rect x="45" y="62" width="1" height="1" fill="#231f20"/>
    <rect x="64" y="62" width="1" height="1" fill="#231f20"/>
    <rect x="72" y="62" width="1" height="1" fill="#231f20"/>
    <rect x="86" y="62" width="1" height="1" fill="#231f20"/>
    <rect x="97" y="62" width="1" height="1" fill="#231f20"/>
    <rect x="109" y="62" width="1" height="1" fill="#231f20"/>
    <rect x="120" y="62" width="1" height="1" fill="#231f20"/>
    <rect x="172" y="62" width="1" height="1" fill="#231f20"/>
    <rect x="0" y="63" width="1" height="1" fill="#231f20"/>
    <rect x="23" y="63" width="1" height="1" fill="#231f20"/>
    <rect x="64" y="63" width="9" height="1" fill="#231f20"/>
    <rect x="86" y="63" width="1" height="1" fill="#231f20"/>
    <rect x="97" y="63" width="1" height="1" fill="#231f20"/>
    <rect x="109" y="63" width="1" height="1" fill="#231f20"/>
    <rect x="120" y="63" width="1" height="1" fill="#231f20"/>
    <rect x="172" y="63" width="1" height="1" fill="#231f20"/>
    <rect x="0" y="64" width="1" height="1" fill="#231f20"/>
    <rect x="172" y="64" width="1" height="1" fill="#231f20"/>
    <rect x="0" y="65" width="1" height="1" fill="#231f20"/>
    <rect x="172" y="65" width="1" height="1" fill="#231f20"/>
    <rect x="0" y="66" width="1" height="1" fill="#231f20"/>
    <rect x="172" y="66" width="1" height="1" fill="#231f20"/>
    <rect x="0" y="67" width="1" height="1" fill="#231f20"/>
    <rect x="172" y="67" width="1" height="1" fill="#231f20"/>
    <rect x="0" y="68" width="173" height="1" fill="#231f20"/>
  </g>
</svg>