<?xml version="1.0" encoding="UTF-8"?>
<svg xmlns="http://www.w3.org/2000/svg" viewBox="0 0 73 73" width="73" height="73">
  <!-- Auto-converted from legend-419.png -->
  <rect x="0" y="0" width="73" height="73" fill="none"/>
  <g fill="#231f20" stroke="none">
    <rect x="1" y="0" width="71" height="1" fill="#231f20"/>
    <rect x="1" y="1" width="1" height="1" fill="#231f20"/>
    <rect x="71" y="1" width="1" height="1" fill="#231f20"/>
    <rect x="1" y="2" width="1" height="1" fill="#231f20"/>
    <rect x="71" y="2" width="1" height="1" fill="#231f20"/>
    <rect x="1" y="3" width="1" height="1" fill="#231f20"/>
    <rect x="71" y="3" width="1" height="1" fill="#231f20"/>
    <rect x="1" y="4" width="1" height="1" fill="#231f20"/>
    <rect x="71" y="4" width="1" height="1" fill="#231f20"/>
    <rect x="1" y="5" width="1" height="1" fill="#231f20"/>
    <rect x="71" y="5" width="1" height="1" fill="#231f20"/>
    <rect x="1" y="6" width="1" height="1" fill="#231f20"/>
    <rect x="71" y="6" width="1" height="1" fill="#231f20"/>
    <rect x="1" y="7" width="1" height="1" fill="#231f20"/>
    <rect x="71" y="7" width="1" height="1" fill="#231f20"/>
    <rect x="1" y="8" width="1" height="1" fill="#231f20"/>
    <rect x="71" y="8" width="1" height="1" fill="#231f20"/>
    <rect x="1" y="9" width="1" height="1" fill="#231f20"/>
    <rect x="71" y="9" width="1" height="1" fill="#231f20"/>
    <rect x="1" y="10" width="1" height="1" fill="#231f20"/>
    <rect x="71" y="10" width="1" height="1" fill="#231f20"/>
    <rect x="1" y="11" width="1" height="1" fill="#231f20"/>
    <rect x="71" y="11" width="1" height="1" fill="#231f20"/>
    <rect x="1" y="12" width="1" height="1" fill="#231f20"/>
    <rect x="71" y="12" width="1" height="1" fill="#231f20"/>
    <rect x="1" y="13" width="1" height="1" fill="#231f20"/>
    <rect x="71" y="13" width="1" height="1" fill="#231f20"/>
    <rect x="1" y="14" width="1" height="1" fill="#231f20"/>
    <rect x="71" y="14" width="1" height="1" fill="#231f20"/>
    <rect x="1" y="15" width="1" height="1" fill="#231f20"/>
    <rect x="71" y="15" width="1" height="1" fill="#231f20"/>
    <rect x="1" y="16" width="1" height="1" fill="#231f20"/>
    <rect x="71" y="16" width="1" height="1" fill="#231f20"/>
    <rect x="1" y="17" width="1" height="1" fill="#231f20"/>
    <rect x="71" y="17" width="1" height="1" fill="#231f20"/>
    <rect x="1" y="18" width="1" height="1" fill="#231f20"/>
    <rect x="71" y="18" width="1" height="1" fill="#231f20"/>
    <rect x="1" y="19" width="1" height="1" fill="#231f20"/>
    <rect x="71" y="19" width="1" height="1" fill="#231f20"/>
    <rect x="1" y="20" width="1" height="1" fill="#231f20"/>
    <rect x="71" y="20" width="1" height="1" fill="#231f20"/>
    <rect x="1" y="21" width="1" height="1" fill="#231f20"/>
    <rect x="71" y="21" width="1" height="1" fill="#231f20"/>
    <rect x="1" y="22" width="1" height="1" fill="#231f20"/>
    <rect x="71" y="22" width="1" height="1" fill="#231f20"/>
    <rect x="1" y="23" width="1" height="1" fill="#231f20"/>
    <rect x="71" y="23" width="1" height="1" fill="#231f20"/>
    <rect x="1" y="24" width="1" height="1" fill="#231f20"/>
    <rect x="71" y="24" width="1" height="1" fill="#231f20"/>
    <rect x="1" y="25" width="1" height="1" fill="#231f20"/>
    <rect x="71" y="25" width="1" height="1" fill="#231f20"/>
    <rect x="1" y="26" width="1" height="1" fill="#231f20"/>
    <rect x="71" y="26" width="1" height="1" fill="#231f20"/>
    <rect x="1" y="27" width="1" height="1" fill="#231f20"/>
    <rect x="71" y="27" width="1" height="1" fill="#231f20"/>
    <rect x="1" y="28" width="1" height="1" fill="#231f20"/>
    <rect x="71" y="28" width="1" height="1" fill="#231f20"/>
    <rect x="1" y="29" width="1" height="1" fill="#231f20"/>
    <rect x="71" y="29" width="1" height="1" fill="#231f20"/>
    <rect x="1" y="30" width="1" height="1" fill="#231f20"/>
    <rect x="71" y="30" width="1" height="1" fill="#231f20"/>
    <rect x="1" y="31" width="1" height="1" fill="#231f20"/>
    <rect x="71" y="31" width="1" height="1" fill="#231f20"/>
    <rect x="1" y="32" width="1" height="1" fill="#231f20"/>
    <rect x="71" y="32" width="1" height="1" fill="#231f20"/>
    <rect x="1" y="33" width="1" height="1" fill="#231f20"/>
    <rect x="71" y="33" width="1" height="1" fill="#231f20"/>
    <rect x="1" y="34" width="1" height="1" fill="#231f20"/>
    <rect x="71" y="34" width="1" height="1" fill="#231f20"/>
    <rect x="1" y="35" width="1" height="1" fill="#231f20"/>
    <rect x="71" y="35" width="1" height="1" fill="#231f20"/>
    <rect x="1" y="36" width="1" height="1" fill="#231f20"/>
    <rect x="71" y="36" width="1" height="1" fill="#231f20"/>
    <rect x="1" y="37" width="1" height="1" fill="#231f20"/>
    <rect x="71" y="37" width="1" height="1" fill="#231f20"/>
    <rect x="1" y="38" width="1" height="1" fill="#231f20"/>
    <rect x="71" y="38" width="1" height="1" fill="#231f20"/>
    <rect x="1" y="39" width="1" height="1" fill="#231f20"/>
    <rect x="71" y="39" width="1" height="1" fill="#231f20"/>
    <rect x="1" y="40" width="1" height="1" fill="#231f20"/>
    <rect x="71" y="40" width="1" height="1" fill="#231f20"/>
    <rect x="1" y="41" width="1" height="1" fill="#231f20"/>
    <rect x="71" y="41" width="1" height="1" fill="#231f20"/>
    <rect x="1" y="42" width="1" height="1" fill="#231f20"/>
    <rect x="71" y="42" width="1" height="1" fill="#231f20"/>
    <rect x="1" y="43" width="1" height="1" fill="#231f20"/>
    <rect x="71" y="43" width="1" height="1" fill="#231f20"/>
    <rect x="1" y="44" width="1" height="1" fill="#231f20"/>
    <rect x="71" y="44" width="1" height="1" fill="#231f20"/>
    <rect x="1" y="45" width="1" height="1" fill="#231f20"/>
    <rect x="71" y="45" width="1" height="1" fill="#231f20"/>
    <rect x="1" y="46" width="1" height="1" fill="#231f20"/>
    <rect x="71" y="46" width="1" height="1" fill="#231f20"/>
    <rect x="1" y="47" width="1" height="1" fill="#231f20"/>
    <rect x="71" y="47" width="1" height="1" fill="#231f20"/>
    <rect x="1" y="48" width="1" height="1" fill="#231f20"/>
    <rect x="71" y="48" width="1" height="1" fill="#231f20"/>
    <rect x="1" y="49" width="1" height="1" fill="#231f20"/>
    <rect x="71" y="49" width="1" height="1" fill="#231f20"/>
    <rect x="1" y="50" width="1" height="1" fill="#231f20"/>
    <rect x="71" y="50" width="1" height="1" fill="#231f20"/>
    <rect x="1" y="51" width="1" height="1" fill="#231f20"/>
    <rect x="71" y="51" width="1" height="1" fill="#231f20"/>
    <rect x="1" y="52" width="1" height="1" fill="#231f20"/>
    <rect x="71" y="52" width="1" height="1" fill="#231f20"/>
    <rect x="1" y="53" width="1" height="1" fill="#231f20"/>
    <rect x="71" y="53" width="1" height="1" fill="#231f20"/>
    <rect x="1" y="54" width="1" height="1" fill="#231f20"/>
    <rect x="71" y="54" width="1" height="1" fill="#231f20"/>
    <rect x="1" y="55" width="1" height="1" fill="#231f20"/>
    <rect x="71" y="55" width="1" height="1" fill="#231f20"/>
    <rect x="1" y="56" width="1" height="1" fill="#231f20"/>
    <rect x="71" y="56" width="1" height="1" fill="#231f20"/>
    <rect x="1" y="57" width="1" height="1" fill="#231f20"/>
    <rect x="71" y="57" width="1" height="1" fill="#231f20"/>
    <rect x="1" y="58" width="1" height="1" fill="#231f20"/>
    <rect x="71" y="58" width="1" height="1" fill="#231f20"/>
    <rect x="1" y="59" width="1" height="1" fill="#231f20"/>
    <rect x="71" y="59" width="1" height="1" fill="#231f20"/>
    <rect x="1" y="60" width="1" height="1" fill="#231f20"/>
    <rect x="71" y="60" width="1" height="1" fill="#231f20"/>
    <rect x="1" y="61" width="1" height="1" fill="#231f20"/>
    <rect x="71" y="61" width="1" height="1" fill="#231f20"/>
    <rect x="1" y="62" width="1" height="1" fill="#231f20"/>
    <rect x="71" y="62" width="1" height="1" fill="#231f20"/>
    <rect x="1" y="63" width="1" height="1" fill="#231f20"/>
    <rect x="71" y="63" width="1" height="1" fill="#231f20"/>
    <rect x="1" y="64" width="1" height="1" fill="#231f20"/>
    <rect x="71" y="64" width="1" height="1" fill="#231f20"/>
    <rect x="1" y="65" width="1" height="1" fill="#231f20"/>
    <rect x="71" y="65" width="1" height="1" fill="#231f20"/>
    <rect x="1" y="66" width="1" height="1" fill="#231f20"/>
    <rect x="71" y="66" width="1" height="1" fill="#231f20"/>
    <rect x="1" y="67" width="1" height="1" fill="#231f20"/>
    <rect x="71" y="67" width="1" height="1" fill="#231f20"/>
    <rect x="1" y="68" width="1" height="1" fill="#231f20"/>
    <rect x="71" y="68" width="1" height="1" fill="#231f20"/>
    <rect x="1" y="69" width="1" height="1" fill="#231f20"/>
    <rect x="71" y="69" width="1" height="1" fill="#231f20"/>
    <rect x="1" y="70" width="1" height="1" fill="#231f20"/>
    <rect x="71" y="70" width="1" height="1" fill="#231f20"/>
    <rect x="1" y="71" width="71" height="1" fill="#231f20"/>
  </g>
</svg>