<?xml version="1.0" encoding="UTF-8"?>
<svg xmlns="http://www.w3.org/2000/svg" viewBox="0 0 161 65" width="161" height="65">
  <!-- Auto-converted from legend-1494.png -->
  <rect x="0" y="0" width="161" height="65" fill="none"/>
  <g fill="#231f20" stroke="none">
    <rect x="0" y="0" width="161" height="1" fill="#231f20"/>
    <rect x="0" y="1" width="1" height="1" fill="#231f20"/>
    <rect x="32" y="1" width="1" height="1" fill="#231f20"/>
    <rect x="96" y="1" width="1" height="1" fill="#231f20"/>
    <rect x="160" y="1" width="1" height="1" fill="#231f20"/>
    <rect x="0" y="2" width="1" height="1" fill="#231f20"/>
    <rect x="32" y="2" width="1" height="1" fill="#231f20"/>
    <rect x="96" y="2" width="1" height="1" fill="#231f20"/>
    <rect x="160" y="2" width="1" height="1" fill="#231f20"/>
    <rect x="0" y="3" width="1" height="1" fill="#231f20"/>
    <rect x="32" y="3" width="1" height="1" fill="#231f20"/>
    <rect x="96" y="3" width="1" height="1" fill="#231f20"/>
    <rect x="160" y="3" width="1" height="1" fill="#231f20"/>
    <rect x="0" y="4" width="1" height="1" fill="#231f20"/>
    <rect x="32" y="4" width="1" height="1" fill="#231f20"/>
    <rect x="96" y="4" width="1" height="1" fill="#231f20"/>
    <rect x="160" y="4" width="1" height="1" fill="#231f20"/>
    <rect x="0" y="5" width="1" height="1" fill="#231f20"/>
    <rect x="32" y="5" width="1" height="1" fill="#231f20"/>
    <rect x="64" y="5" width="1" height="1" fill="#231f20"/>
    <rect x="96" y="5" width="1" height="1" fill="#231f20"/>
    <rect x="128" y="5" width="1" height="1" fill="#231f20"/>
    <rect x="160" y="5" width="1" height="1" fill="#231f20"/>
    <rect x="0" y="6" width="1" height="1" fill="#231f20"/>
    <rect x="32" y="6" width="1" height="1" fill="#231f20"/>
    <rect x="64" y="6" width="1" height="1" fill="#231f20"/>
    <rect x="96" y="6" width="1" height="1" fill="#231f20"/>
    <rect x="128" y="6" width="1" height="1" fill="#231f20"/>
    <rect x="160" y="6" width="1" height="1" fill="#231f20"/>
    <rect x="0" y="7" width="1" height="1" fill="#231f20"/>
    <rect x="32" y="7" width="1" height="1" fill="#231f20"/>
    <rect x="63" y="7" width="1" height="1" fill="#231f20"/>
    <rect x="65" y="7" width="1" height="1" fill="#231f20"/>
    <rect x="96" y="7" width="1" height="1" fill="#231f20"/>
    <rect x="127" y="7" width="1" height="1" fill="#231f20"/>
    <rect x="129" y="7" width="1" height="1" fill="#231f20"/>
    <rect x="160" y="7" width="1" height="1" fill="#231f20"/>
    <rect x="0" y="8" width="1" height="1" fill="#231f20"/>
    <rect x="32" y="8" width="1" height="1" fill="#231f20"/>
    <rect x="63" y="8" width="1" height="1" fill="#231f20"/>
    <rect x="65" y="8" width="1" height="1" fill="#231f20"/>
    <rect x="96" y="8" width="1" height="1" fill="#231f20"/>
    <rect x="127" y="8" width="1" height="1" fill="#231f20"/>
    <rect x="129" y="8" width="1" height="1" fill="#231f20"/>
    <rect x="160" y="8" width="1" height="1" fill="#231f20"/>
    <rect x="0" y="9" width="1" height="1" fill="#231f20"/>
    <rect x="32" y="9" width="1" height="1" fill="#231f20"/>
    <rect x="62" y="9" width="1" height="1" fill="#231f20"/>
    <rect x="65" y="9" width="1" height="1" fill="#231f20"/>
    <rect x="96" y="9" width="1" height="1" fill="#231f20"/>
    <rect x="126" y="9" width="1" height="1" fill="#231f20"/>
    <rect x="129" y="9" width="1" height="1" fill="#231f20"/>
    <rect x="160" y="9" width="1" height="1" fill="#231f20"/>
    <rect x="0" y="10" width="1" height="1" fill="#231f20"/>
    <rect x="32" y="10" width="1" height="1" fill="#231f20"/>
    <rect x="62" y="10" width="1" height="1" fill="#231f20"/>
    <rect x="66" y="10" width="1" height="1" fill="#231f20"/>
    <rect x="96" y="10" width="1" height="1" fill="#231f20"/>
    <rect x="126" y="10" width="1" height="1" fill="#231f20"/>
    <rect x="130" y="10" width="1" height="1" fill="#231f20"/>
    <rect x="160" y="10" width="1" height="1" fill="#231f20"/>
    <rect x="0" y="11" width="1" height="1" fill="#231f20"/>
    <rect x="32" y="11" width="1" height="1" fill="#231f20"/>
    <rect x="61" y="11" width="1" height="1" fill="#231f20"/>
    <rect x="66" y="11" width="1" height="1" fill="#231f20"/>
    <rect x="96" y="11" width="1" height="1" fill="#231f20"/>
    <rect x="125" y="11" width="1" height="1" fill="#231f20"/>
    <rect x="130" y="11" width="1" height="1" fill="#231f20"/>
    <rect x="160" y="11" width="1" height="1" fill="#231f20"/>
    <rect x="0" y="12" width="1" height="1" fill="#231f20"/>
    <rect x="32" y="12" width="1" height="1" fill="#231f20"/>
    <rect x="62" y="12" width="1" height="1" fill="#231f20"/>
    <rect x="66" y="12" width="1" height="1" fill="#231f20"/>
    <rect x="96" y="12" width="1" height="1" fill="#231f20"/>
    <rect x="126" y="12" width="1" height="1" fill="#231f20"/>
    <rect x="130" y="12" width="1" height="1" fill="#231f20"/>
    <rect x="160" y="12" width="1" height="1" fill="#231f20"/>
    <rect x="0" y="13" width="1" height="1" fill="#231f20"/>
    <rect x="32" y="13" width="1" height="1" fill="#231f20"/>
    <rect x="62" y="13" width="1" height="1" fill="#231f20"/>
    <rect x="65" y="13" width="1" height="1" fill="#231f20"/>
    <rect x="96" y="13" width="1" height="1" fill="#231f20"/>
    <rect x="126" y="13" width="1" height="1" fill="#231f20"/>
    <rect x="129" y="13" width="1" height="1" fill="#231f20"/>
    <rect x="160" y="13" width="1" height="1" fill="#231f20"/>
    <rect x="0" y="14" width="1" height="1" fill="#231f20"/>
    <rect x="32" y="14" width="1" height="1" fill="#231f20"/>
    <rect x="63" y="14" width="1" height="1" fill="#231f20"/>
    <rect x="65" y="14" width="1" height="1" fill="#231f20"/>
    <rect x="96" y="14" width="1" height="1" fill="#231f20"/>
    <rect x="127" y="14" width="1" height="1" fill="#231f20"/>
    <rect x="129" y="14" width="1" height="1" fill="#231f20"/>
    <rect x="160" y="14" width="1" height="1" fill="#231f20"/>
    <rect x="0" y="15" width="1" height="1" fill="#231f20"/>
    <rect x="32" y="15" width="1" height="1" fill="#231f20"/>
    <rect x="63" y="15" width="2" height="1" fill="#231f20"/>
    <rect x="96" y="15" width="1" height="1" fill="#231f20"/>
    <rect x="127" y="15" width="2" height="1" fill="#231f20"/>
    <rect x="160" y="15" width="1" height="1" fill="#231f20"/>
    <rect x="0" y="16" width="1" height="1" fill="#231f20"/>
    <rect x="32" y="16" width="1" height="1" fill="#231f20"/>
    <rect x="64" y="16" width="1" height="1" fill="#231f20"/>
    <rect x="96" y="16" width="1" height="1" fill="#231f20"/>
    <rect x="128" y="16" width="1" height="1" fill="#231f20"/>
    <rect x="160" y="16" width="1" height="1" fill="#231f20"/>
    <rect x="0" y="17" width="1" height="1" fill="#231f20"/>
    <rect x="32" y="17" width="1" height="1" fill="#231f20"/>
    <rect x="96" y="17" width="1" height="1" fill="#231f20"/>
    <rect x="160" y="17" width="1" height="1" fill="#231f20"/>
    <rect x="0" y="18" width="1" height="1" fill="#231f20"/>
    <rect x="32" y="18" width="1" height="1" fill="#231f20"/>
    <rect x="96" y="18" width="1" height="1" fill="#231f20"/>
    <rect x="160" y="18" width="1" height="1" fill="#231f20"/>
    <rect x="0" y="19" width="1" height="1" fill="#231f20"/>
    <rect x="32" y="19" width="1" height="1" fill="#231f20"/>
    <rect x="96" y="19" width="1" height="1" fill="#231f20"/>
    <rect x="160" y="19" width="1" height="1" fill="#231f20"/>
    <rect x="0" y="20" width="1" height="1" fill="#231f20"/>
    <rect x="32" y="20" width="1" height="1" fill="#231f20"/>
    <rect x="96" y="20" width="1" height="1" fill="#231f20"/>
    <rect x="160" y="20" width="1" height="1" fill="#231f20"/>
    <rect x="0" y="21" width="161" height="1" fill="#231f20"/>
    <rect x="0" y="22" width="1" height="1" fill="#231f20"/>
    <rect x="64" y="22" width="1" height="1" fill="#231f20"/>
    <rect x="128" y="22" width="1" height="1" fill="#231f20"/>
    <rect x="160" y="22" width="1" height="1" fill="#231f20"/>
    <rect x="0" y="23" width="1" height="1" fill="#231f20"/>
    <rect x="64" y="23" width="1" height="1" fill="#231f20"/>
    <rect x="128" y="23" width="1" height="1" fill="#231f20"/>
    <rect x="160" y="23" width="1" height="1" fill="#231f20"/>
    <rect x="0" y="24" width="1" height="1" fill="#231f20"/>
    <rect x="64" y="24" width="1" height="1" fill="#231f20"/>
    <rect x="128" y="24" width="1" height="1" fill="#231f20"/>
    <rect x="160" y="24" width="1" height="1" fill="#231f20"/>
    <rect x="0" y="25" width="1" height="1" fill="#231f20"/>
    <rect x="64" y="25" width="1" height="1" fill="#231f20"/>
    <rect x="128" y="25" width="1" height="1" fill="#231f20"/>
    <rect x="160" y="25" width="1" height="1" fill="#231f20"/>
    <rect x="0" y="26" width="1" height="1" fill="#231f20"/>
    <rect x="64" y="26" width="1" height="1" fill="#231f20"/>
    <rect x="128" y="26" width="1" height="1" fill="#231f20"/>
    <rect x="160" y="26" width="1" height="1" fill="#231f20"/>
    <rect x="0" y="27" width="1" height="1" fill="#231f20"/>
    <rect x="32" y="27" width="1" height="1" fill="#231f20"/>
    <rect x="64" y="27" width="1" height="1" fill="#231f20"/>
    <rect x="96" y="27" width="1" height="1" fill="#231f20"/>
    <rect x="128" y="27" width="1" height="1" fill="#231f20"/>
    <rect x="160" y="27" width="1" height="1" fill="#231f20"/>
    <rect x="0" y="28" width="1" height="1" fill="#231f20"/>
    <rect x="31" y="28" width="2" height="1" fill="#231f20"/>
    <rect x="64" y="28" width="1" height="1" fill="#231f20"/>
    <rect x="95" y="28" width="2" height="1" fill="#231f20"/>
    <rect x="128" y="28" width="1" height="1" fill="#231f20"/>
    <rect x="160" y="28" width="1" height="1" fill="#231f20"/>
    <rect x="0" y="29" width="1" height="1" fill="#231f20"/>
    <rect x="31" y="29" width="1" height="1" fill="#231f20"/>
    <rect x="33" y="29" width="1" height="1" fill="#231f20"/>
    <rect x="64" y="29" width="1" height="1" fill="#231f20"/>
    <rect x="95" y="29" width="1" height="1" fill="#231f20"/>
    <rect x="97" y="29" width="1" height="1" fill="#231f20"/>
    <rect x="128" y="29" width="1" height="1" fill="#231f20"/>
    <rect x="160" y="29" width="1" height="1" fill="#231f20"/>
    <rect x="0" y="30" width="1" height="1" fill="#231f20"/>
    <rect x="30" y="30" width="1" height="1" fill="#231f20"/>
    <rect x="33" y="30" width="1" height="1" fill="#231f20"/>
    <rect x="64" y="30" width="1" height="1" fill="#231f20"/>
    <rect x="94" y="30" width="1" height="1" fill="#231f20"/>
    <rect x="97" y="30" width="1" height="1" fill="#231f20"/>
    <rect x="128" y="30" width="1" height="1" fill="#231f20"/>
    <rect x="160" y="30" width="1" height="1" fill="#231f20"/>
    <rect x="0" y="31" width="1" height="1" fill="#231f20"/>
    <rect x="30" y="31" width="1" height="1" fill="#231f20"/>
    <rect x="34" y="31" width="1" height="1" fill="#231f20"/>
    <rect x="64" y="31" width="1" height="1" fill="#231f20"/>
    <rect x="94" y="31" width="1" height="1" fill="#231f20"/>
    <rect x="98" y="31" width="1" height="1" fill="#231f20"/>
    <rect x="128" y="31" width="1" height="1" fill="#231f20"/>
    <rect x="160" y="31" width="1" height="1" fill="#231f20"/>
    <rect x="0" y="32" width="1" height="1" fill="#231f20"/>
    <rect x="29" y="32" width="1" height="1" fill="#231f20"/>
    <rect x="34" y="32" width="1" height="1" fill="#231f20"/>
    <rect x="64" y="32" width="1" height="1" fill="#231f20"/>
    <rect x="93" y="32" width="1" height="1" fill="#231f20"/>
    <rect x="98" y="32" width="1" height="1" fill="#231f20"/>
    <rect x="128" y="32" width="1" height="1" fill="#231f20"/>
    <rect x="160" y="32" width="1" height="1" fill="#231f20"/>
    <rect x="0" y="33" width="1" height="1" fill="#231f20"/>
    <rect x="30" y="33" width="1" height="1" fill="#231f20"/>
    <rect x="34" y="33" width="1" height="1" fill="#231f20"/>
    <rect x="64" y="33" width="1" height="1" fill="#231f20"/>
    <rect x="94" y="33" width="1" height="1" fill="#231f20"/>
    <rect x="98" y="33" width="1" height="1" fill="#231f20"/>
    <rect x="128" y="33" width="1" height="1" fill="#231f20"/>
    <rect x="160" y="33" width="1" height="1" fill="#231f20"/>
    <rect x="0" y="34" width="1" height="1" fill="#231f20"/>
    <rect x="30" y="34" width="1" height="1" fill="#231f20"/>
    <rect x="33" y="34" width="1" height="1" fill="#231f20"/>
    <rect x="64" y="34" width="1" height="1" fill="#231f20"/>
    <rect x="94" y="34" width="1" height="1" fill="#231f20"/>
    <rect x="97" y="34" width="1" height="1" fill="#231f20"/>
    <rect x="128" y="34" width="1" height="1" fill="#231f20"/>
    <rect x="160" y="34" width="1" height="1" fill="#231f20"/>
    <rect x="0" y="35" width="1" height="1" fill="#231f20"/>
    <rect x="31" y="35" width="1" height="1" fill="#231f20"/>
    <rect x="33" y="35" width="1" height="1" fill="#231f20"/>
    <rect x="64" y="35" width="1" height="1" fill="#231f20"/>
    <rect x="95" y="35" width="1" height="1" fill="#231f20"/>
    <rect x="97" y="35" width="1" height="1" fill="#231f20"/>
    <rect x="128" y="35" width="1" height="1" fill="#231f20"/>
    <rect x="160" y="35" width="1" height="1" fill="#231f20"/>
    <rect x="0" y="36" width="1" height="1" fill="#231f20"/>
    <rect x="31" y="36" width="2" height="1" fill="#231f20"/>
    <rect x="64" y="36" width="1" height="1" fill="#231f20"/>
    <rect x="95" y="36" width="2" height="1" fill="#231f20"/>
    <rect x="128" y="36" width="1" height="1" fill="#231f20"/>
    <rect x="160" y="36" width="1" height="1" fill="#231f20"/>
    <rect x="0" y="37" width="1" height="1" fill="#231f20"/>
    <rect x="32" y="37" width="1" height="1" fill="#231f20"/>
    <rect x="64" y="37" width="1" height="1" fill="#231f20"/>
    <rect x="96" y="37" width="1" height="1" fill="#231f20"/>
    <rect x="128" y="37" width="1" height="1" fill="#231f20"/>
    <rect x="160" y="37" width="1" height="1" fill="#231f20"/>
    <rect x="0" y="38" width="1" height="1" fill="#231f20"/>
    <rect x="64" y="38" width="1" height="1" fill="#231f20"/>
    <rect x="128" y="38" width="1" height="1" fill="#231f20"/>
    <rect x="160" y="38" width="1" height="1" fill="#231f20"/>
    <rect x="0" y="39" width="1" height="1" fill="#231f20"/>
    <rect x="64" y="39" width="1" height="1" fill="#231f20"/>
    <rect x="128" y="39" width="1" height="1" fill="#231f20"/>
    <rect x="160" y="39" width="1" height="1" fill="#231f20"/>
    <rect x="0" y="40" width="1" height="1" fill="#231f20"/>
    <rect x="64" y="40" width="1" height="1" fill="#231f20"/>
    <rect x="128" y="40" width="1" height="1" fill="#231f20"/>
    <rect x="160" y="40" width="1" height="1" fill="#231f20"/>
    <rect x="0" y="41" width="1" height="1" fill="#231f20"/>
    <rect x="64" y="41" width="1" height="1" fill="#231f20"/>
    <rect x="128" y="41" width="1" height="1" fill="#231f20"/>
    <rect x="160" y="41" width="1" height="1" fill="#231f20"/>
    <rect x="0" y="42" width="1" height="1" fill="#231f20"/>
    <rect x="64" y="42" width="1" height="1" fill="#231f20"/>
    <rect x="128" y="42" width="1" height="1" fill="#231f20"/>
    <rect x="160" y="42" width="1" height="1" fill="#231f20"/>
    <rect x="0" y="43" width="161" height="1" fill="#231f20"/>
    <rect x="0" y="44" width="1" height="1" fill="#231f20"/>
    <rect x="32" y="44" width="1" height="1" fill="#231f20"/>
    <rect x="96" y="44" width="1" height="1" fill="#231f20"/>
    <rect x="160" y="44" width="1" height="1" fill="#231f20"/>
    <rect x="0" y="45" width="1" height="1" fill="#231f20"/>
    <rect x="32" y="45" width="1" height="1" fill="#231f20"/>
    <rect x="96" y="45" width="1" height="1" fill="#231f20"/>
    <rect x="160" y="45" width="1" height="1" fill="#231f20"/>
    <rect x="0" y="46" width="1" height="1" fill="#231f20"/>
    <rect x="32" y="46" width="1" height="1" fill="#231f20"/>
    <rect x="96" y="46" width="1" height="1" fill="#231f20"/>
    <rect x="160" y="46" width="1" height="1" fill="#231f20"/>
    <rect x="0" y="47" width="1" height="1" fill="#231f20"/>
    <rect x="32" y="47" width="1" height="1" fill="#231f20"/>
    <rect x="96" y="47" width="1" height="1" fill="#231f20"/>
    <rect x="160" y="47" width="1" height="1" fill="#231f20"/>
    <rect x="0" y="48" width="1" height="1" fill="#231f20"/>
    <rect x="32" y="48" width="1" height="1" fill="#231f20"/>
    <rect x="64" y="48" width="1" height="1" fill="#231f20"/>
    <rect x="96" y="48" width="1" height="1" fill="#231f20"/>
    <rect x="128" y="48" width="1" height="1" fill="#231f20"/>
    <rect x="160" y="48" width="1" height="1" fill="#231f20"/>
    <rect x="0" y="49" width="1" height="1" fill="#231f20"/>
    <rect x="32" y="49" width="1" height="1" fill="#231f20"/>
    <rect x="63" y="49" width="2" height="1" fill="#231f20"/>
    <rect x="96" y="49" width="1" height="1" fill="#231f20"/>
    <rect x="127" y="49" width="2" height="1" fill="#231f20"/>
    <rect x="160" y="49" width="1" height="1" fill="#231f20"/>
    <rect x="0" y="50" width="1" height="1" fill="#231f20"/>
    <rect x="32" y="50" width="1" height="1" fill="#231f20"/>
    <rect x="63" y="50" width="1" height="1" fill="#231f20"/>
    <rect x="65" y="50" width="1" height="1" fill="#231f20"/>
    <rect x="96" y="50" width="1" height="1" fill="#231f20"/>
    <rect x="127" y="50" width="1" height="1" fill="#231f20"/>
    <rect x="129" y="50" width="1" height="1" fill="#231f20"/>
    <rect x="160" y="50" width="1" height="1" fill="#231f20"/>
    <rect x="0" y="51" width="1" height="1" fill="#231f20"/>
    <rect x="32" y="51" width="1" height="1" fill="#231f20"/>
    <rect x="62" y="51" width="1" height="1" fill="#231f20"/>
    <rect x="65" y="51" width="1" height="1" fill="#231f20"/>
    <rect x="96" y="51" width="1" height="1" fill="#231f20"/>
    <rect x="126" y="51" width="1" height="1" fill="#231f20"/>
    <rect x="129" y="51" width="1" height="1" fill="#231f20"/>
    <rect x="160" y="51" width="1" height="1" fill="#231f20"/>
    <rect x="0" y="52" width="1" height="1" fill="#231f20"/>
    <rect x="32" y="52" width="1" height="1" fill="#231f20"/>
    <rect x="62" y="52" width="1" height="1" fill="#231f20"/>
    <rect x="66" y="52" width="1" height="1" fill="#231f20"/>
    <rect x="96" y="52" width="1" height="1" fill="#231f20"/>
    <rect x="126" y="52" width="1" height="1" fill="#231f20"/>
    <rect x="130" y="52" width="1" height="1" fill="#231f20"/>
    <rect x="160" y="52" width="1" height="1" fill="#231f20"/>
    <rect x="0" y="53" width="1" height="1" fill="#231f20"/>
    <rect x="32" y="53" width="1" height="1" fill="#231f20"/>
    <rect x="61" y="53" width="1" height="1" fill="#231f20"/>
    <rect x="66" y="53" width="1" height="1" fill="#231f20"/>
    <rect x="96" y="53" width="1" height="1" fill="#231f20"/>
    <rect x="125" y="53" width="1" height="1" fill="#231f20"/>
    <rect x="130" y="53" width="1" height="1" fill="#231f20"/>
    <rect x="160" y="53" width="1" height="1" fill="#231f20"/>
    <rect x="0" y="54" width="1" height="1" fill="#231f20"/>
    <rect x="32" y="54" width="1" height="1" fill="#231f20"/>
    <rect x="62" y="54" width="1" height="1" fill="#231f20"/>
    <rect x="66" y="54" width="1" height="1" fill="#231f20"/>
    <rect x="96" y="54" width="1" height="1" fill="#231f20"/>
    <rect x="126" y="54" width="1" height="1" fill="#231f20"/>
    <rect x="130" y="54" width="1" height="1" fill="#231f20"/>
    <rect x="160" y="54" width="1" height="1" fill="#231f20"/>
    <rect x="0" y="55" width="1" height="1" fill="#231f20"/>
    <rect x="32" y="55" width="1" height="1" fill="#231f20"/>
    <rect x="62" y="55" width="1" height="1" fill="#231f20"/>
    <rect x="65" y="55" width="1" height="1" fill="#231f20"/>
    <rect x="96" y="55" width="1" height="1" fill="#231f20"/>
    <rect x="126" y="55" width="1" height="1" fill="#231f20"/>
    <rect x="129" y="55" width="1" height="1" fill="#231f20"/>
    <rect x="160" y="55" width="1" height="1" fill="#231f20"/>
    <rect x="0" y="56" width="1" height="1" fill="#231f20"/>
    <rect x="32" y="56" width="1" height="1" fill="#231f20"/>
    <rect x="63" y="56" width="1" height="1" fill="#231f20"/>
    <rect x="65" y="56" width="1" height="1" fill="#231f20"/>
    <rect x="96" y="56" width="1" height="1" fill="#231f20"/>
    <rect x="127" y="56" width="1" height="1" fill="#231f20"/>
    <rect x="129" y="56" width="1" height="1" fill="#231f20"/>
    <rect x="160" y="56" width="1" height="1" fill="#231f20"/>
    <rect x="0" y="57" width="1" height="1" fill="#231f20"/>
    <rect x="32" y="57" width="1" height="1" fill="#231f20"/>
    <rect x="63" y="57" width="1" height="1" fill="#231f20"/>
    <rect x="65" y="57" width="1" height="1" fill="#231f20"/>
    <rect x="96" y="57" width="1" height="1" fill="#231f20"/>
    <rect x="127" y="57" width="1" height="1" fill="#231f20"/>
    <rect x="129" y="57" width="1" height="1" fill="#231f20"/>
    <rect x="160" y="57" width="1" height="1" fill="#231f20"/>
    <rect x="0" y="58" width="1" height="1" fill="#231f20"/>
    <rect x="32" y="58" width="1" height="1" fill="#231f20"/>
    <rect x="64" y="58" width="1" height="1" fill="#231f20"/>
    <rect x="96" y="58" width="1" height="1" fill="#231f20"/>
    <rect x="128" y="58" width="1" height="1" fill="#231f20"/>
    <rect x="160" y="58" width="1" height="1" fill="#231f20"/>
    <rect x="0" y="59" width="1" height="1" fill="#231f20"/>
    <rect x="32" y="59" width="1" height="1" fill="#231f20"/>
    <rect x="64" y="59" width="1" height="1" fill="#231f20"/>
    <rect x="96" y="59" width="1" height="1" fill="#231f20"/>
    <rect x="128" y="59" width="1" height="1" fill="#231f20"/>
    <rect x="160" y="59" width="1" height="1" fill="#231f20"/>
    <rect x="0" y="60" width="1" height="1" fill="#231f20"/>
    <rect x="32" y="60" width="1" height="1" fill="#231f20"/>
    <rect x="96" y="60" width="1" height="1" fill="#231f20"/>
    <rect x="160" y="60" width="1" height="1" fill="#231f20"/>
    <rect x="0" y="61" width="1" height="1" fill="#231f20"/>
    <rect x="32" y="61" width="1" height="1" fill="#231f20"/>
    <rect x="96" y="61" width="1" height="1" fill="#231f20"/>
    <rect x="160" y="61" width="1" height="1" fill="#231f20"/>
    <rect x="0" y="62" width="1" height="1" fill="#231f20"/>
    <rect x="32" y="62" width="1" height="1" fill="#231f20"/>
    <rect x="96" y="62" width="1" height="1" fill="#231f20"/>
    <rect x="160" y="62" width="1" height="1" fill="#231f20"/>
    <rect x="0" y="63" width="1" height="1" fill="#231f20"/>
    <rect x="32" y="63" width="1" height="1" fill="#231f20"/>
    <rect x="96" y="63" width="1" height="1" fill="#231f20"/>
    <rect x="160" y="63" width="1" height="1" fill="#231f20"/>
    <rect x="0" y="64" width="161" height="1" fill="#231f20"/>
  </g>
</svg>