<?xml version="1.0" encoding="UTF-8"?>
<svg xmlns="http://www.w3.org/2000/svg" viewBox="0 0 174 70" width="174" height="70">
  <!-- Auto-converted from legend-2180.png -->
  <rect x="0" y="0" width="174" height="70" fill="none"/>
  <g fill="#231f20" stroke="none">
    <rect x="0" y="0" width="174" height="1" fill="#231f20"/>
    <rect x="0" y="1" width="1" height="1" fill="#231f20"/>
    <rect x="173" y="1" width="1" height="1" fill="#231f20"/>
    <rect x="0" y="2" width="1" height="1" fill="#231f20"/>
    <rect x="173" y="2" width="1" height="1" fill="#231f20"/>
    <rect x="0" y="3" width="1" height="1" fill="#231f20"/>
    <rect x="173" y="3" width="1" height="1" fill="#231f20"/>
    <rect x="0" y="4" width="1" height="1" fill="#231f20"/>
    <rect x="173" y="4" width="1" height="1" fill="#231f20"/>
    <rect x="0" y="5" width="1" height="1" fill="#231f20"/>
    <rect x="29" y="5" width="1" height="1" fill="#231f20"/>
    <rect x="64" y="5" width="1" height="1" fill="#231f20"/>
    <rect x="98" y="5" width="1" height="1" fill="#231f20"/>
    <rect x="132" y="5" width="1" height="1" fill="#231f20"/>
    <rect x="173" y="5" width="1" height="1" fill="#231f20"/>
    <rect x="0" y="6" width="1" height="1" fill="#231f20"/>
    <rect x="29" y="6" width="1" height="1" fill="#231f20"/>
    <rect x="64" y="6" width="1" height="1" fill="#231f20"/>
    <rect x="98" y="6" width="1" height="1" fill="#231f20"/>
    <rect x="132" y="6" width="1" height="1" fill="#231f20"/>
    <rect x="173" y="6" width="1" height="1" fill="#231f20"/>
    <rect x="0" y="7" width="1" height="1" fill="#231f20"/>
    <rect x="29" y="7" width="1" height="1" fill="#231f20"/>
    <rect x="64" y="7" width="1" height="1" fill="#231f20"/>
    <rect x="98" y="7" width="1" height="1" fill="#231f20"/>
    <rect x="132" y="7" width="1" height="1" fill="#231f20"/>
    <rect x="173" y="7" width="1" height="1" fill="#231f20"/>
    <rect x="0" y="8" width="1" height="1" fill="#231f20"/>
    <rect x="29" y="8" width="1" height="1" fill="#231f20"/>
    <rect x="64" y="8" width="1" height="1" fill="#231f20"/>
    <rect x="98" y="8" width="1" height="1" fill="#231f20"/>
    <rect x="132" y="8" width="1" height="1" fill="#231f20"/>
    <rect x="173" y="8" width="1" height="1" fill="#231f20"/>
    <rect x="0" y="9" width="1" height="1" fill="#231f20"/>
    <rect x="29" y="9" width="1" height="1" fill="#231f20"/>
    <rect x="64" y="9" width="1" height="1" fill="#231f20"/>
    <rect x="98" y="9" width="1" height="1" fill="#231f20"/>
    <rect x="132" y="9" width="1" height="1" fill="#231f20"/>
    <rect x="173" y="9" width="1" height="1" fill="#231f20"/>
    <rect x="0" y="10" width="1" height="1" fill="#231f20"/>
    <rect x="29" y="10" width="1" height="1" fill="#231f20"/>
    <rect x="64" y="10" width="1" height="1" fill="#231f20"/>
    <rect x="98" y="10" width="1" height="1" fill="#231f20"/>
    <rect x="132" y="10" width="1" height="1" fill="#231f20"/>
    <rect x="173" y="10" width="1" height="1" fill="#231f20"/>
    <rect x="0" y="11" width="1" height="1" fill="#231f20"/>
    <rect x="23" y="11" width="13" height="1" fill="#231f20"/>
    <rect x="58" y="11" width="12" height="1" fill="#231f20"/>
    <rect x="92" y="11" width="13" height="1" fill="#231f20"/>
    <rect x="127" y="11" width="12" height="1" fill="#231f20"/>
    <rect x="173" y="11" width="1" height="1" fill="#231f20"/>
    <rect x="0" y="12" width="1" height="1" fill="#231f20"/>
    <rect x="110" y="12" width="35" height="1" fill="#231f20"/>
    <rect x="173" y="12" width="1" height="1" fill="#231f20"/>
    <rect x="0" y="13" width="1" height="1" fill="#231f20"/>
    <rect x="102" y="13" width="8" height="1" fill="#231f20"/>
    <rect x="120" y="13" width="11" height="1" fill="#231f20"/>
    <rect x="145" y="13" width="11" height="1" fill="#231f20"/>
    <rect x="173" y="13" width="1" height="1" fill="#231f20"/>
    <rect x="0" y="14" width="1" height="1" fill="#231f20"/>
    <rect x="94" y="14" width="8" height="1" fill="#231f20"/>
    <rect x="107" y="14" width="13" height="1" fill="#231f20"/>
    <rect x="131" y="14" width="17" height="1" fill="#231f20"/>
    <rect x="156" y="14" width="9" height="1" fill="#231f20"/>
    <rect x="173" y="14" width="1" height="1" fill="#231f20"/>
    <rect x="0" y="15" width="1" height="1" fill="#231f20"/>
    <rect x="89" y="15" width="5" height="1" fill="#231f20"/>
    <rect x="99" y="15" width="8" height="1" fill="#231f20"/>
    <rect x="148" y="15" width="12" height="1" fill="#231f20"/>
    <rect x="165" y="15" width="6" height="1" fill="#231f20"/>
    <rect x="173" y="15" width="1" height="1" fill="#231f20"/>
    <rect x="0" y="16" width="9" height="1" fill="#231f20"/>
    <rect x="80" y="16" width="9" height="1" fill="#231f20"/>
    <rect x="94" y="16" width="5" height="1" fill="#231f20"/>
    <rect x="160" y="16" width="5" height="1" fill="#231f20"/>
    <rect x="171" y="16" width="3" height="1" fill="#231f20"/>
    <rect x="0" y="17" width="4" height="1" fill="#231f20"/>
    <rect x="9" y="17" width="10" height="1" fill="#231f20"/>
    <rect x="75" y="17" width="5" height="1" fill="#231f20"/>
    <rect x="84" y="17" width="10" height="1" fill="#231f20"/>
    <rect x="165" y="17" width="9" height="1" fill="#231f20"/>
    <rect x="0" y="18" width="1" height="1" fill="#231f20"/>
    <rect x="4" y="18" width="5" height="1" fill="#231f20"/>
    <rect x="19" y="18" width="8" height="1" fill="#231f20"/>
    <rect x="67" y="18" width="8" height="1" fill="#231f20"/>
    <rect x="80" y="18" width="4" height="1" fill="#231f20"/>
    <rect x="173" y="18" width="1" height="1" fill="#231f20"/>
    <rect x="0" y="19" width="1" height="1" fill="#231f20"/>
    <rect x="9" y="19" width="10" height="1" fill="#231f20"/>
    <rect x="27" y="19" width="40" height="1" fill="#231f20"/>
    <rect x="72" y="19" width="8" height="1" fill="#231f20"/>
    <rect x="173" y="19" width="1" height="1" fill="#231f20"/>
    <rect x="0" y="20" width="1" height="1" fill="#231f20"/>
    <rect x="19" y="20" width="10" height="1" fill="#231f20"/>
    <rect x="64" y="20" width="8" height="1" fill="#231f20"/>
    <rect x="173" y="20" width="1" height="1" fill="#231f20"/>
    <rect x="0" y="21" width="1" height="1" fill="#231f20"/>
    <rect x="29" y="21" width="35" height="1" fill="#231f20"/>
    <rect x="173" y="21" width="1" height="1" fill="#231f20"/>
    <rect x="0" y="22" width="1" height="1" fill="#231f20"/>
    <rect x="173" y="22" width="1" height="1" fill="#231f20"/>
    <rect x="0" y="23" width="174" height="1" fill="#231f20"/>
    <rect x="0" y="24" width="1" height="1" fill="#231f20"/>
    <rect x="173" y="24" width="1" height="1" fill="#231f20"/>
    <rect x="0" y="25" width="1" height="1" fill="#231f20"/>
    <rect x="173" y="25" width="1" height="1" fill="#231f20"/>
    <rect x="0" y="26" width="1" height="1" fill="#231f20"/>
    <rect x="173" y="26" width="1" height="1" fill="#231f20"/>
    <rect x="0" y="27" width="1" height="1" fill="#231f20"/>
    <rect x="41" y="27" width="1" height="1" fill="#231f20"/>
    <rect x="75" y="27" width="1" height="1" fill="#231f20"/>
    <rect x="109" y="27" width="1" height="1" fill="#231f20"/>
    <rect x="144" y="27" width="1" height="1" fill="#231f20"/>
    <rect x="173" y="27" width="1" height="1" fill="#231f20"/>
    <rect x="0" y="28" width="1" height="1" fill="#231f20"/>
    <rect x="41" y="28" width="1" height="1" fill="#231f20"/>
    <rect x="75" y="28" width="1" height="1" fill="#231f20"/>
    <rect x="109" y="28" width="1" height="1" fill="#231f20"/>
    <rect x="144" y="28" width="1" height="1" fill="#231f20"/>
    <rect x="173" y="28" width="1" height="1" fill="#231f20"/>
    <rect x="0" y="29" width="1" height="1" fill="#231f20"/>
    <rect x="41" y="29" width="1" height="1" fill="#231f20"/>
    <rect x="75" y="29" width="1" height="1" fill="#231f20"/>
    <rect x="109" y="29" width="1" height="1" fill="#231f20"/>
    <rect x="144" y="29" width="1" height="1" fill="#231f20"/>
    <rect x="173" y="29" width="1" height="1" fill="#231f20"/>
    <rect x="0" y="30" width="1" height="1" fill="#231f20"/>
    <rect x="41" y="30" width="1" height="1" fill="#231f20"/>
    <rect x="75" y="30" width="1" height="1" fill="#231f20"/>
    <rect x="109" y="30" width="1" height="1" fill="#231f20"/>
    <rect x="144" y="30" width="1" height="1" fill="#231f20"/>
    <rect x="173" y="30" width="1" height="1" fill="#231f20"/>
    <rect x="0" y="31" width="1" height="1" fill="#231f20"/>
    <rect x="41" y="31" width="1" height="1" fill="#231f20"/>
    <rect x="75" y="31" width="1" height="1" fill="#231f20"/>
    <rect x="109" y="31" width="1" height="1" fill="#231f20"/>
    <rect x="144" y="31" width="1" height="1" fill="#231f20"/>
    <rect x="173" y="31" width="1" height="1" fill="#231f20"/>
    <rect x="0" y="32" width="1" height="1" fill="#231f20"/>
    <rect x="41" y="32" width="1" height="1" fill="#231f20"/>
    <rect x="75" y="32" width="1" height="1" fill="#231f20"/>
    <rect x="109" y="32" width="1" height="1" fill="#231f20"/>
    <rect x="144" y="32" width="1" height="1" fill="#231f20"/>
    <rect x="173" y="32" width="1" height="1" fill="#231f20"/>
    <rect x="0" y="33" width="1" height="1" fill="#231f20"/>
    <rect x="41" y="33" width="1" height="1" fill="#231f20"/>
    <rect x="75" y="33" width="1" height="1" fill="#231f20"/>
    <rect x="109" y="33" width="1" height="1" fill="#231f20"/>
    <rect x="144" y="33" width="1" height="1" fill="#231f20"/>
    <rect x="173" y="33" width="1" height="1" fill="#231f20"/>
    <rect x="0" y="34" width="1" height="1" fill="#231f20"/>
    <rect x="35" y="34" width="12" height="1" fill="#231f20"/>
    <rect x="69" y="34" width="13" height="1" fill="#231f20"/>
    <rect x="104" y="34" width="12" height="1" fill="#231f20"/>
    <rect x="138" y="34" width="13" height="1" fill="#231f20"/>
    <rect x="173" y="34" width="1" height="1" fill="#231f20"/>
    <rect x="0" y="35" width="1" height="1" fill="#231f20"/>
    <rect x="110" y="35" width="35" height="1" fill="#231f20"/>
    <rect x="173" y="35" width="1" height="1" fill="#231f20"/>
    <rect x="0" y="36" width="1" height="1" fill="#231f20"/>
    <rect x="99" y="36" width="11" height="1" fill="#231f20"/>
    <rect x="120" y="36" width="14" height="1" fill="#231f20"/>
    <rect x="145" y="36" width="11" height="1" fill="#231f20"/>
    <rect x="173" y="36" width="1" height="1" fill="#231f20"/>
    <rect x="0" y="37" width="1" height="1" fill="#231f20"/>
    <rect x="94" y="37" width="5" height="1" fill="#231f20"/>
    <rect x="107" y="37" width="13" height="1" fill="#231f20"/>
    <rect x="134" y="37" width="14" height="1" fill="#231f20"/>
    <rect x="156" y="37" width="9" height="1" fill="#231f20"/>
    <rect x="173" y="37" width="1" height="1" fill="#231f20"/>
    <rect x="0" y="38" width="1" height="1" fill="#231f20"/>
    <rect x="84" y="38" width="10" height="1" fill="#231f20"/>
    <rect x="99" y="38" width="8" height="1" fill="#231f20"/>
    <rect x="148" y="38" width="12" height="1" fill="#231f20"/>
    <rect x="165" y="38" width="9" height="1" fill="#231f20"/>
    <rect x="0" y="39" width="9" height="1" fill="#231f20"/>
    <rect x="80" y="39" width="4" height="1" fill="#231f20"/>
    <rect x="89" y="39" width="10" height="1" fill="#231f20"/>
    <rect x="160" y="39" width="5" height="1" fill="#231f20"/>
    <rect x="173" y="39" width="1" height="1" fill="#231f20"/>
    <rect x="0" y="40" width="4" height="1" fill="#231f20"/>
    <rect x="9" y="40" width="10" height="1" fill="#231f20"/>
    <rect x="75" y="40" width="5" height="1" fill="#231f20"/>
    <rect x="84" y="40" width="5" height="1" fill="#231f20"/>
    <rect x="165" y="40" width="9" height="1" fill="#231f20"/>
    <rect x="0" y="41" width="1" height="1" fill="#231f20"/>
    <rect x="4" y="41" width="5" height="1" fill="#231f20"/>
    <rect x="19" y="41" width="10" height="1" fill="#231f20"/>
    <rect x="64" y="41" width="11" height="1" fill="#231f20"/>
    <rect x="80" y="41" width="4" height="1" fill="#231f20"/>
    <rect x="173" y="41" width="1" height="1" fill="#231f20"/>
    <rect x="0" y="42" width="1" height="1" fill="#231f20"/>
    <rect x="9" y="42" width="10" height="1" fill="#231f20"/>
    <rect x="29" y="42" width="35" height="1" fill="#231f20"/>
    <rect x="72" y="42" width="8" height="1" fill="#231f20"/>
    <rect x="173" y="42" width="1" height="1" fill="#231f20"/>
    <rect x="0" y="43" width="1" height="1" fill="#231f20"/>
    <rect x="19" y="43" width="10" height="1" fill="#231f20"/>
    <rect x="64" y="43" width="8" height="1" fill="#231f20"/>
    <rect x="173" y="43" width="1" height="1" fill="#231f20"/>
    <rect x="0" y="44" width="1" height="1" fill="#231f20"/>
    <rect x="29" y="44" width="35" height="1" fill="#231f20"/>
    <rect x="173" y="44" width="1" height="1" fill="#231f20"/>
    <rect x="0" y="45" width="1" height="1" fill="#231f20"/>
    <rect x="173" y="45" width="1" height="1" fill="#231f20"/>
    <rect x="0" y="46" width="174" height="1" fill="#231f20"/>
    <rect x="0" y="47" width="1" height="1" fill="#231f20"/>
    <rect x="173" y="47" width="1" height="1" fill="#231f20"/>
    <rect x="0" y="48" width="1" height="1" fill="#231f20"/>
    <rect x="173" y="48" width="1" height="1" fill="#231f20"/>
    <rect x="0" y="49" width="1" height="1" fill="#231f20"/>
    <rect x="173" y="49" width="1" height="1" fill="#231f20"/>
    <rect x="0" y="50" width="1" height="1" fill="#231f20"/>
    <rect x="29" y="50" width="1" height="1" fill="#231f20"/>
    <rect x="64" y="50" width="1" height="1" fill="#231f20"/>
    <rect x="98" y="50" width="1" height="1" fill="#231f20"/>
    <rect x="132" y="50" width="1" height="1" fill="#231f20"/>
    <rect x="173" y="50" width="1" height="1" fill="#231f20"/>
    <rect x="0" y="51" width="1" height="1" fill="#231f20"/>
    <rect x="29" y="51" width="1" height="1" fill="#231f20"/>
    <rect x="64" y="51" width="1" height="1" fill="#231f20"/>
    <rect x="98" y="51" width="1" height="1" fill="#231f20"/>
    <rect x="132" y="51" width="1" height="1" fill="#231f20"/>
    <rect x="173" y="51" width="1" height="1" fill="#231f20"/>
    <rect x="0" y="52" width="1" height="1" fill="#231f20"/>
    <rect x="29" y="52" width="1" height="1" fill="#231f20"/>
    <rect x="64" y="52" width="1" height="1" fill="#231f20"/>
    <rect x="98" y="52" width="1" height="1" fill="#231f20"/>
    <rect x="132" y="52" width="1" height="1" fill="#231f20"/>
    <rect x="173" y="52" width="1" height="1" fill="#231f20"/>
    <rect x="0" y="53" width="1" height="1" fill="#231f20"/>
    <rect x="29" y="53" width="1" height="1" fill="#231f20"/>
    <rect x="64" y="53" width="1" height="1" fill="#231f20"/>
    <rect x="98" y="53" width="1" height="1" fill="#231f20"/>
    <rect x="132" y="53" width="1" height="1" fill="#231f20"/>
    <rect x="173" y="53" width="1" height="1" fill="#231f20"/>
    <rect x="0" y="54" width="1" height="1" fill="#231f20"/>
    <rect x="29" y="54" width="1" height="1" fill="#231f20"/>
    <rect x="64" y="54" width="1" height="1" fill="#231f20"/>
    <rect x="98" y="54" width="1" height="1" fill="#231f20"/>
    <rect x="132" y="54" width="1" height="1" fill="#231f20"/>
    <rect x="173" y="54" width="1" height="1" fill="#231f20"/>
    <rect x="0" y="55" width="1" height="1" fill="#231f20"/>
    <rect x="29" y="55" width="1" height="1" fill="#231f20"/>
    <rect x="64" y="55" width="1" height="1" fill="#231f20"/>
    <rect x="98" y="55" width="1" height="1" fill="#231f20"/>
    <rect x="132" y="55" width="1" height="1" fill="#231f20"/>
    <rect x="173" y="55" width="1" height="1" fill="#231f20"/>
    <rect x="0" y="56" width="1" height="1" fill="#231f20"/>
    <rect x="23" y="56" width="13" height="1" fill="#231f20"/>
    <rect x="58" y="56" width="12" height="1" fill="#231f20"/>
    <rect x="92" y="56" width="13" height="1" fill="#231f20"/>
    <rect x="127" y="56" width="12" height="1" fill="#231f20"/>
    <rect x="173" y="56" width="1" height="1" fill="#231f20"/>
    <rect x="0" y="57" width="1" height="1" fill="#231f20"/>
    <rect x="173" y="57" width="1" height="1" fill="#231f20"/>
    <rect x="0" y="58" width="1" height="1" fill="#231f20"/>
    <rect x="107" y="58" width="41" height="1" fill="#231f20"/>
    <rect x="173" y="58" width="1" height="1" fill="#231f20"/>
    <rect x="0" y="59" width="1" height="1" fill="#231f20"/>
    <rect x="99" y="59" width="8" height="1" fill="#231f20"/>
    <rect x="118" y="59" width="16" height="1" fill="#231f20"/>
    <rect x="148" y="59" width="8" height="1" fill="#231f20"/>
    <rect x="173" y="59" width="1" height="1" fill="#231f20"/>
    <rect x="0" y="60" width="1" height="1" fill="#231f20"/>
    <rect x="94" y="60" width="5" height="1" fill="#231f20"/>
    <rect x="107" y="60" width="11" height="1" fill="#231f20"/>
    <rect x="134" y="60" width="16" height="1" fill="#231f20"/>
    <rect x="156" y="60" width="9" height="1" fill="#231f20"/>
    <rect x="173" y="60" width="1" height="1" fill="#231f20"/>
    <rect x="0" y="61" width="4" height="1" fill="#231f20"/>
    <rect x="84" y="61" width="10" height="1" fill="#231f20"/>
    <rect x="99" y="61" width="8" height="1" fill="#231f20"/>
    <rect x="150" y="61" width="10" height="1" fill="#231f20"/>
    <rect x="165" y="61" width="9" height="1" fill="#231f20"/>
    <rect x="0" y="62" width="1" height="1" fill="#231f20"/>
    <rect x="4" y="62" width="5" height="1" fill="#231f20"/>
    <rect x="80" y="62" width="4" height="1" fill="#231f20"/>
    <rect x="89" y="62" width="10" height="1" fill="#231f20"/>
    <rect x="160" y="62" width="5" height="1" fill="#231f20"/>
    <rect x="173" y="62" width="1" height="1" fill="#231f20"/>
    <rect x="0" y="63" width="4" height="1" fill="#231f20"/>
    <rect x="9" y="63" width="10" height="1" fill="#231f20"/>
    <rect x="72" y="63" width="8" height="1" fill="#231f20"/>
    <rect x="84" y="63" width="5" height="1" fill="#231f20"/>
    <rect x="165" y="63" width="9" height="1" fill="#231f20"/>
    <rect x="0" y="64" width="1" height="1" fill="#231f20"/>
    <rect x="4" y="64" width="5" height="1" fill="#231f20"/>
    <rect x="19" y="64" width="10" height="1" fill="#231f20"/>
    <rect x="64" y="64" width="8" height="1" fill="#231f20"/>
    <rect x="77" y="64" width="7" height="1" fill="#231f20"/>
    <rect x="173" y="64" width="1" height="1" fill="#231f20"/>
    <rect x="0" y="65" width="1" height="1" fill="#231f20"/>
    <rect x="9" y="65" width="12" height="1" fill="#231f20"/>
    <rect x="29" y="65" width="35" height="1" fill="#231f20"/>
    <rect x="72" y="65" width="5" height="1" fill="#231f20"/>
    <rect x="173" y="65" width="1" height="1" fill="#231f20"/>
    <rect x="0" y="66" width="1" height="1" fill="#231f20"/>
    <rect x="21" y="66" width="11" height="1" fill="#231f20"/>
    <rect x="61" y="66" width="11" height="1" fill="#231f20"/>
    <rect x="173" y="66" width="1" height="1" fill="#231f20"/>
    <rect x="0" y="67" width="1" height="1" fill="#231f20"/>
    <rect x="32" y="67" width="29" height="1" fill="#231f20"/>
    <rect x="173" y="67" width="1" height="1" fill="#231f20"/>
    <rect x="0" y="68" width="1" height="1" fill="#231f20"/>
    <rect x="173" y="68" width="1" height="1" fill="#231f20"/>
    <rect x="0" y="69" width="174" height="1" fill="#231f20"/>
  </g>
</svg>