<?xml version="1.0" encoding="UTF-8"?>
<svg xmlns="http://www.w3.org/2000/svg" viewBox="0 0 148 100" width="148" height="100">
  <!-- Auto-converted from legend-290.png -->
  <rect x="0" y="0" width="148" height="100" fill="none"/>
  <g fill="#333030" stroke="none">
    <rect x="0" y="0" width="148" height="1" fill="#333030"/>
    <rect x="0" y="1" width="148" height="1" fill="#333030"/>
    <rect x="0" y="2" width="148" height="1" fill="#333030"/>
    <rect x="0" y="3" width="3" height="1" fill="#333030"/>
    <rect x="145" y="3" width="3" height="1" fill="#333030"/>
    <rect x="0" y="4" width="3" height="1" fill="#333030"/>
    <rect x="145" y="4" width="3" height="1" fill="#333030"/>
    <rect x="0" y="5" width="3" height="1" fill="#333030"/>
    <rect x="145" y="5" width="3" height="1" fill="#333030"/>
    <rect x="0" y="6" width="3" height="1" fill="#333030"/>
    <rect x="145" y="6" width="3" height="1" fill="#333030"/>
    <rect x="0" y="7" width="3" height="1" fill="#333030"/>
    <rect x="145" y="7" width="3" height="1" fill="#333030"/>
    <rect x="0" y="8" width="3" height="1" fill="#333030"/>
    <rect x="145" y="8" width="3" height="1" fill="#333030"/>
    <rect x="0" y="9" width="3" height="1" fill="#333030"/>
    <rect x="145" y="9" width="3" height="1" fill="#333030"/>
    <rect x="0" y="10" width="3" height="1" fill="#333030"/>
    <rect x="129" y="10" width="1" height="1" fill="#333030"/>
    <rect x="145" y="10" width="3" height="1" fill="#333030"/>
    <rect x="0" y="11" width="3" height="1" fill="#333030"/>
    <rect x="128" y="11" width="3" height="1" fill="#333030"/>
    <rect x="145" y="11" width="3" height="1" fill="#333030"/>
    <rect x="0" y="12" width="3" height="1" fill="#333030"/>
    <rect x="127" y="12" width="6" height="1" fill="#333030"/>
    <rect x="145" y="12" width="3" height="1" fill="#333030"/>
    <rect x="0" y="13" width="3" height="1" fill="#333030"/>
    <rect x="126" y="13" width="7" height="1" fill="#333030"/>
    <rect x="145" y="13" width="3" height="1" fill="#333030"/>
    <rect x="0" y="14" width="3" height="1" fill="#333030"/>
    <rect x="125" y="14" width="7" height="1" fill="#333030"/>
    <rect x="145" y="14" width="3" height="1" fill="#333030"/>
    <rect x="0" y="15" width="3" height="1" fill="#333030"/>
    <rect x="125" y="15" width="6" height="1" fill="#333030"/>
    <rect x="145" y="15" width="3" height="1" fill="#333030"/>
    <rect x="0" y="16" width="3" height="1" fill="#333030"/>
    <rect x="124" y="16" width="6" height="1" fill="#333030"/>
    <rect x="145" y="16" width="3" height="1" fill="#333030"/>
    <rect x="0" y="17" width="3" height="1" fill="#333030"/>
    <rect x="125" y="17" width="4" height="1" fill="#333030"/>
    <rect x="145" y="17" width="3" height="1" fill="#333030"/>
    <rect x="0" y="18" width="3" height="1" fill="#333030"/>
    <rect x="126" y="18" width="2" height="1" fill="#333030"/>
    <rect x="145" y="18" width="3" height="1" fill="#333030"/>
    <rect x="0" y="19" width="3" height="1" fill="#333030"/>
    <rect x="121" y="19" width="1" height="1" fill="#333030"/>
    <rect x="127" y="19" width="1" height="1" fill="#333030"/>
    <rect x="145" y="19" width="3" height="1" fill="#333030"/>
    <rect x="0" y="20" width="3" height="1" fill="#333030"/>
    <rect x="120" y="20" width="3" height="1" fill="#333030"/>
    <rect x="145" y="20" width="3" height="1" fill="#333030"/>
    <rect x="0" y="21" width="3" height="1" fill="#333030"/>
    <rect x="107" y="21" width="1" height="1" fill="#333030"/>
    <rect x="119" y="21" width="5" height="1" fill="#333030"/>
    <rect x="145" y="21" width="3" height="1" fill="#333030"/>
    <rect x="0" y="22" width="3" height="1" fill="#333030"/>
    <rect x="107" y="22" width="5" height="1" fill="#333030"/>
    <rect x="118" y="22" width="7" height="1" fill="#333030"/>
    <rect x="145" y="22" width="3" height="1" fill="#333030"/>
    <rect x="0" y="23" width="3" height="1" fill="#333030"/>
    <rect x="107" y="23" width="9" height="1" fill="#333030"/>
    <rect x="117" y="23" width="7" height="1" fill="#333030"/>
    <rect x="145" y="23" width="3" height="1" fill="#333030"/>
    <rect x="0" y="24" width="3" height="1" fill="#333030"/>
    <rect x="108" y="24" width="15" height="1" fill="#333030"/>
    <rect x="145" y="24" width="3" height="1" fill="#333030"/>
    <rect x="0" y="25" width="3" height="1" fill="#333030"/>
    <rect x="108" y="25" width="14" height="1" fill="#333030"/>
    <rect x="145" y="25" width="3" height="1" fill="#333030"/>
    <rect x="0" y="26" width="3" height="1" fill="#333030"/>
    <rect x="108" y="26" width="7" height="1" fill="#333030"/>
    <rect x="116" y="26" width="5" height="1" fill="#333030"/>
    <rect x="145" y="26" width="3" height="1" fill="#333030"/>
    <rect x="0" y="27" width="3" height="1" fill="#333030"/>
    <rect x="108" y="27" width="6" height="1" fill="#333030"/>
    <rect x="117" y="27" width="3" height="1" fill="#333030"/>
    <rect x="145" y="27" width="3" height="1" fill="#333030"/>
    <rect x="0" y="28" width="3" height="1" fill="#333030"/>
    <rect x="109" y="28" width="4" height="1" fill="#333030"/>
    <rect x="118" y="28" width="1" height="1" fill="#333030"/>
    <rect x="145" y="28" width="3" height="1" fill="#333030"/>
    <rect x="0" y="29" width="3" height="1" fill="#333030"/>
    <rect x="109" y="29" width="5" height="1" fill="#333030"/>
    <rect x="145" y="29" width="3" height="1" fill="#333030"/>
    <rect x="0" y="30" width="3" height="1" fill="#333030"/>
    <rect x="109" y="30" width="6" height="1" fill="#333030"/>
    <rect x="145" y="30" width="3" height="1" fill="#333030"/>
    <rect x="0" y="31" width="3" height="1" fill="#333030"/>
    <rect x="108" y="31" width="8" height="1" fill="#333030"/>
    <rect x="145" y="31" width="3" height="1" fill="#333030"/>
    <rect x="0" y="32" width="3" height="1" fill="#333030"/>
    <rect x="107" y="32" width="7" height="1" fill="#333030"/>
    <rect x="145" y="32" width="3" height="1" fill="#333030"/>
    <rect x="0" y="33" width="3" height="1" fill="#333030"/>
    <rect x="106" y="33" width="7" height="1" fill="#333030"/>
    <rect x="145" y="33" width="3" height="1" fill="#333030"/>
    <rect x="0" y="34" width="3" height="1" fill="#333030"/>
    <rect x="107" y="34" width="5" height="1" fill="#333030"/>
    <rect x="145" y="34" width="3" height="1" fill="#333030"/>
    <rect x="0" y="35" width="3" height="1" fill="#333030"/>
    <rect x="107" y="35" width="4" height="1" fill="#333030"/>
    <rect x="145" y="35" width="3" height="1" fill="#333030"/>
    <rect x="0" y="36" width="3" height="1" fill="#333030"/>
    <rect x="103" y="36" width="1" height="1" fill="#333030"/>
    <rect x="108" y="36" width="2" height="1" fill="#333030"/>
    <rect x="145" y="36" width="3" height="1" fill="#333030"/>
    <rect x="0" y="37" width="3" height="1" fill="#333030"/>
    <rect x="101" y="37" width="4" height="1" fill="#333030"/>
    <rect x="145" y="37" width="3" height="1" fill="#333030"/>
    <rect x="0" y="38" width="3" height="1" fill="#333030"/>
    <rect x="100" y="38" width="5" height="1" fill="#333030"/>
    <rect x="145" y="38" width="3" height="1" fill="#333030"/>
    <rect x="0" y="39" width="3" height="1" fill="#333030"/>
    <rect x="99" y="39" width="7" height="1" fill="#333030"/>
    <rect x="145" y="39" width="3" height="1" fill="#333030"/>
    <rect x="0" y="40" width="3" height="1" fill="#333030"/>
    <rect x="98" y="40" width="7" height="1" fill="#333030"/>
    <rect x="145" y="40" width="3" height="1" fill="#333030"/>
    <rect x="0" y="41" width="3" height="1" fill="#333030"/>
    <rect x="97" y="41" width="7" height="1" fill="#333030"/>
    <rect x="145" y="41" width="3" height="1" fill="#333030"/>
    <rect x="0" y="42" width="3" height="1" fill="#333030"/>
    <rect x="97" y="42" width="6" height="1" fill="#333030"/>
    <rect x="145" y="42" width="3" height="1" fill="#333030"/>
    <rect x="0" y="43" width="3" height="1" fill="#333030"/>
    <rect x="98" y="43" width="4" height="1" fill="#333030"/>
    <rect x="145" y="43" width="3" height="1" fill="#333030"/>
    <rect x="0" y="44" width="3" height="1" fill="#333030"/>
    <rect x="93" y="44" width="1" height="1" fill="#333030"/>
    <rect x="99" y="44" width="2" height="1" fill="#333030"/>
    <rect x="145" y="44" width="3" height="1" fill="#333030"/>
    <rect x="0" y="45" width="3" height="1" fill="#333030"/>
    <rect x="92" y="45" width="3" height="1" fill="#333030"/>
    <rect x="99" y="45" width="1" height="1" fill="#333030"/>
    <rect x="145" y="45" width="3" height="1" fill="#333030"/>
    <rect x="0" y="46" width="3" height="1" fill="#333030"/>
    <rect x="90" y="46" width="6" height="1" fill="#333030"/>
    <rect x="145" y="46" width="3" height="1" fill="#333030"/>
    <rect x="0" y="47" width="3" height="1" fill="#333030"/>
    <rect x="89" y="47" width="8" height="1" fill="#333030"/>
    <rect x="145" y="47" width="3" height="1" fill="#333030"/>
    <rect x="0" y="48" width="3" height="1" fill="#333030"/>
    <rect x="88" y="48" width="8" height="1" fill="#333030"/>
    <rect x="145" y="48" width="3" height="1" fill="#333030"/>
    <rect x="0" y="49" width="3" height="1" fill="#333030"/>
    <rect x="87" y="49" width="8" height="1" fill="#333030"/>
    <rect x="145" y="49" width="3" height="1" fill="#333030"/>
    <rect x="0" y="50" width="3" height="1" fill="#333030"/>
    <rect x="88" y="50" width="5" height="1" fill="#333030"/>
    <rect x="145" y="50" width="3" height="1" fill="#333030"/>
    <rect x="0" y="51" width="3" height="1" fill="#333030"/>
    <rect x="83" y="51" width="1" height="1" fill="#333030"/>
    <rect x="88" y="51" width="4" height="1" fill="#333030"/>
    <rect x="145" y="51" width="3" height="1" fill="#333030"/>
    <rect x="0" y="52" width="3" height="1" fill="#333030"/>
    <rect x="82" y="52" width="3" height="1" fill="#333030"/>
    <rect x="89" y="52" width="2" height="1" fill="#333030"/>
    <rect x="145" y="52" width="3" height="1" fill="#333030"/>
    <rect x="0" y="53" width="3" height="1" fill="#333030"/>
    <rect x="81" y="53" width="5" height="1" fill="#333030"/>
    <rect x="145" y="53" width="3" height="1" fill="#333030"/>
    <rect x="0" y="54" width="3" height="1" fill="#333030"/>
    <rect x="79" y="54" width="7" height="1" fill="#333030"/>
    <rect x="145" y="54" width="3" height="1" fill="#333030"/>
    <rect x="0" y="55" width="3" height="1" fill="#333030"/>
    <rect x="78" y="55" width="9" height="1" fill="#333030"/>
    <rect x="145" y="55" width="3" height="1" fill="#333030"/>
    <rect x="0" y="56" width="3" height="1" fill="#333030"/>
    <rect x="77" y="56" width="8" height="1" fill="#333030"/>
    <rect x="145" y="56" width="3" height="1" fill="#333030"/>
    <rect x="0" y="57" width="3" height="1" fill="#333030"/>
    <rect x="77" y="57" width="7" height="1" fill="#333030"/>
    <rect x="145" y="57" width="3" height="1" fill="#333030"/>
    <rect x="0" y="58" width="3" height="1" fill="#333030"/>
    <rect x="73" y="58" width="1" height="1" fill="#333030"/>
    <rect x="77" y="58" width="5" height="1" fill="#333030"/>
    <rect x="145" y="58" width="3" height="1" fill="#333030"/>
    <rect x="0" y="59" width="3" height="1" fill="#333030"/>
    <rect x="72" y="59" width="3" height="1" fill="#333030"/>
    <rect x="77" y="59" width="6" height="1" fill="#333030"/>
    <rect x="145" y="59" width="3" height="1" fill="#333030"/>
    <rect x="0" y="60" width="3" height="1" fill="#333030"/>
    <rect x="70" y="60" width="5" height="1" fill="#333030"/>
    <rect x="78" y="60" width="5" height="1" fill="#333030"/>
    <rect x="145" y="60" width="3" height="1" fill="#333030"/>
    <rect x="0" y="61" width="3" height="1" fill="#333030"/>
    <rect x="69" y="61" width="7" height="1" fill="#333030"/>
    <rect x="78" y="61" width="6" height="1" fill="#333030"/>
    <rect x="145" y="61" width="3" height="1" fill="#333030"/>
    <rect x="0" y="62" width="3" height="1" fill="#333030"/>
    <rect x="67" y="62" width="9" height="1" fill="#333030"/>
    <rect x="79" y="62" width="6" height="1" fill="#333030"/>
    <rect x="145" y="62" width="3" height="1" fill="#333030"/>
    <rect x="0" y="63" width="3" height="1" fill="#333030"/>
    <rect x="66" y="63" width="9" height="1" fill="#333030"/>
    <rect x="79" y="63" width="6" height="1" fill="#333030"/>
    <rect x="145" y="63" width="3" height="1" fill="#333030"/>
    <rect x="0" y="64" width="3" height="1" fill="#333030"/>
    <rect x="67" y="64" width="6" height="1" fill="#333030"/>
    <rect x="80" y="64" width="6" height="1" fill="#333030"/>
    <rect x="145" y="64" width="3" height="1" fill="#333030"/>
    <rect x="0" y="65" width="3" height="1" fill="#333030"/>
    <rect x="62" y="65" width="2" height="1" fill="#333030"/>
    <rect x="68" y="65" width="4" height="1" fill="#333030"/>
    <rect x="81" y="65" width="5" height="1" fill="#333030"/>
    <rect x="145" y="65" width="3" height="1" fill="#333030"/>
    <rect x="0" y="66" width="3" height="1" fill="#333030"/>
    <rect x="60" y="66" width="4" height="1" fill="#333030"/>
    <rect x="68" y="66" width="2" height="1" fill="#333030"/>
    <rect x="81" y="66" width="3" height="1" fill="#333030"/>
    <rect x="145" y="66" width="3" height="1" fill="#333030"/>
    <rect x="0" y="67" width="3" height="1" fill="#333030"/>
    <rect x="58" y="67" width="7" height="1" fill="#333030"/>
    <rect x="82" y="67" width="1" height="1" fill="#333030"/>
    <rect x="145" y="67" width="3" height="1" fill="#333030"/>
    <rect x="0" y="68" width="3" height="1" fill="#333030"/>
    <rect x="57" y="68" width="9" height="1" fill="#333030"/>
    <rect x="145" y="68" width="3" height="1" fill="#333030"/>
    <rect x="0" y="69" width="3" height="1" fill="#333030"/>
    <rect x="55" y="69" width="10" height="1" fill="#333030"/>
    <rect x="145" y="69" width="3" height="1" fill="#333030"/>
    <rect x="0" y="70" width="3" height="1" fill="#333030"/>
    <rect x="34" y="70" width="1" height="1" fill="#333030"/>
    <rect x="56" y="70" width="7" height="1" fill="#333030"/>
    <rect x="145" y="70" width="3" height="1" fill="#333030"/>
    <rect x="0" y="71" width="3" height="1" fill="#333030"/>
    <rect x="34" y="71" width="3" height="1" fill="#333030"/>
    <rect x="51" y="71" width="2" height="1" fill="#333030"/>
    <rect x="57" y="71" width="5" height="1" fill="#333030"/>
    <rect x="145" y="71" width="3" height="1" fill="#333030"/>
    <rect x="0" y="72" width="3" height="1" fill="#333030"/>
    <rect x="34" y="72" width="4" height="1" fill="#333030"/>
    <rect x="49" y="72" width="4" height="1" fill="#333030"/>
    <rect x="57" y="72" width="3" height="1" fill="#333030"/>
    <rect x="145" y="72" width="3" height="1" fill="#333030"/>
    <rect x="0" y="73" width="3" height="1" fill="#333030"/>
    <rect x="34" y="73" width="5" height="1" fill="#333030"/>
    <rect x="47" y="73" width="7" height="1" fill="#333030"/>
    <rect x="57" y="73" width="1" height="1" fill="#333030"/>
    <rect x="145" y="73" width="3" height="1" fill="#333030"/>
    <rect x="0" y="74" width="3" height="1" fill="#333030"/>
    <rect x="34" y="74" width="7" height="1" fill="#333030"/>
    <rect x="44" y="74" width="11" height="1" fill="#333030"/>
    <rect x="145" y="74" width="3" height="1" fill="#333030"/>
    <rect x="0" y="75" width="3" height="1" fill="#333030"/>
    <rect x="34" y="75" width="8" height="1" fill="#333030"/>
    <rect x="45" y="75" width="9" height="1" fill="#333030"/>
    <rect x="145" y="75" width="3" height="1" fill="#333030"/>
    <rect x="0" y="76" width="3" height="1" fill="#333030"/>
    <rect x="33" y="76" width="10" height="1" fill="#333030"/>
    <rect x="45" y="76" width="7" height="1" fill="#333030"/>
    <rect x="145" y="76" width="3" height="1" fill="#333030"/>
    <rect x="0" y="77" width="3" height="1" fill="#333030"/>
    <rect x="33" y="77" width="9" height="1" fill="#333030"/>
    <rect x="46" y="77" width="4" height="1" fill="#333030"/>
    <rect x="145" y="77" width="3" height="1" fill="#333030"/>
    <rect x="0" y="78" width="3" height="1" fill="#333030"/>
    <rect x="33" y="78" width="10" height="1" fill="#333030"/>
    <rect x="46" y="78" width="2" height="1" fill="#333030"/>
    <rect x="145" y="78" width="3" height="1" fill="#333030"/>
    <rect x="0" y="79" width="3" height="1" fill="#333030"/>
    <rect x="33" y="79" width="10" height="1" fill="#333030"/>
    <rect x="145" y="79" width="3" height="1" fill="#333030"/>
    <rect x="0" y="80" width="3" height="1" fill="#333030"/>
    <rect x="33" y="80" width="10" height="1" fill="#333030"/>
    <rect x="145" y="80" width="3" height="1" fill="#333030"/>
    <rect x="0" y="81" width="3" height="1" fill="#333030"/>
    <rect x="29" y="81" width="1" height="1" fill="#333030"/>
    <rect x="34" y="81" width="8" height="1" fill="#333030"/>
    <rect x="145" y="81" width="3" height="1" fill="#333030"/>
    <rect x="0" y="82" width="3" height="1" fill="#333030"/>
    <rect x="27" y="82" width="4" height="1" fill="#333030"/>
    <rect x="34" y="82" width="6" height="1" fill="#333030"/>
    <rect x="145" y="82" width="3" height="1" fill="#333030"/>
    <rect x="0" y="83" width="3" height="1" fill="#333030"/>
    <rect x="24" y="83" width="7" height="1" fill="#333030"/>
    <rect x="35" y="83" width="3" height="1" fill="#333030"/>
    <rect x="145" y="83" width="3" height="1" fill="#333030"/>
    <rect x="0" y="84" width="3" height="1" fill="#333030"/>
    <rect x="22" y="84" width="10" height="1" fill="#333030"/>
    <rect x="145" y="84" width="3" height="1" fill="#333030"/>
    <rect x="0" y="85" width="3" height="1" fill="#333030"/>
    <rect x="22" y="85" width="10" height="1" fill="#333030"/>
    <rect x="145" y="85" width="3" height="1" fill="#333030"/>
    <rect x="0" y="86" width="3" height="1" fill="#333030"/>
    <rect x="16" y="86" width="3" height="1" fill="#333030"/>
    <rect x="22" y="86" width="8" height="1" fill="#333030"/>
    <rect x="145" y="86" width="3" height="1" fill="#333030"/>
    <rect x="0" y="87" width="3" height="1" fill="#333030"/>
    <rect x="13" y="87" width="6" height="1" fill="#333030"/>
    <rect x="23" y="87" width="5" height="1" fill="#333030"/>
    <rect x="145" y="87" width="3" height="1" fill="#333030"/>
    <rect x="0" y="88" width="3" height="1" fill="#333030"/>
    <rect x="10" y="88" width="10" height="1" fill="#333030"/>
    <rect x="23" y="88" width="2" height="1" fill="#333030"/>
    <rect x="145" y="88" width="3" height="1" fill="#333030"/>
    <rect x="0" y="89" width="3" height="1" fill="#333030"/>
    <rect x="10" y="89" width="10" height="1" fill="#333030"/>
    <rect x="145" y="89" width="3" height="1" fill="#333030"/>
    <rect x="0" y="90" width="3" height="1" fill="#333030"/>
    <rect x="11" y="90" width="9" height="1" fill="#333030"/>
    <rect x="145" y="90" width="3" height="1" fill="#333030"/>
    <rect x="0" y="91" width="3" height="1" fill="#333030"/>
    <rect x="11" y="91" width="6" height="1" fill="#333030"/>
    <rect x="145" y="91" width="3" height="1" fill="#333030"/>
    <rect x="0" y="92" width="3" height="1" fill="#333030"/>
    <rect x="11" y="92" width="3" height="1" fill="#333030"/>
    <rect x="145" y="92" width="3" height="1" fill="#333030"/>
    <rect x="0" y="93" width="3" height="1" fill="#333030"/>
    <rect x="145" y="93" width="3" height="1" fill="#333030"/>
    <rect x="0" y="94" width="3" height="1" fill="#333030"/>
    <rect x="145" y="94" width="3" height="1" fill="#333030"/>
    <rect x="0" y="95" width="3" height="1" fill="#333030"/>
    <rect x="145" y="95" width="3" height="1" fill="#333030"/>
    <rect x="0" y="96" width="3" height="1" fill="#333030"/>
    <rect x="145" y="96" width="3" height="1" fill="#333030"/>
    <rect x="0" y="97" width="148" height="1" fill="#333030"/>
    <rect x="0" y="98" width="148" height="1" fill="#333030"/>
    <rect x="0" y="99" width="148" height="1" fill="#333030"/>
  </g>
</svg>