<?xml version="1.0" encoding="UTF-8"?>
<svg xmlns="http://www.w3.org/2000/svg" viewBox="0 0 152 62" width="152" height="62">
  <!-- Auto-converted from legend-2599.png -->
  <rect x="0" y="0" width="152" height="62" fill="none"/>
  <g fill="#231f20" stroke="none">
    <rect x="1" y="0" width="150" height="1" fill="#231f20"/>
    <rect x="1" y="1" width="1" height="1" fill="#231f20"/>
    <rect x="150" y="1" width="1" height="1" fill="#231f20"/>
    <rect x="1" y="2" width="1" height="1" fill="#231f20"/>
    <rect x="150" y="2" width="1" height="1" fill="#231f20"/>
    <rect x="1" y="3" width="1" height="1" fill="#231f20"/>
    <rect x="150" y="3" width="1" height="1" fill="#231f20"/>
    <rect x="1" y="4" width="1" height="1" fill="#231f20"/>
    <rect x="150" y="4" width="1" height="1" fill="#231f20"/>
    <rect x="1" y="5" width="1" height="1" fill="#231f20"/>
    <rect x="150" y="5" width="1" height="1" fill="#231f20"/>
    <rect x="1" y="6" width="1" height="1" fill="#231f20"/>
    <rect x="150" y="6" width="1" height="1" fill="#231f20"/>
    <rect x="1" y="7" width="1" height="1" fill="#231f20"/>
    <rect x="150" y="7" width="1" height="1" fill="#231f20"/>
    <rect x="1" y="8" width="1" height="1" fill="#231f20"/>
    <rect x="150" y="8" width="1" height="1" fill="#231f20"/>
    <rect x="1" y="9" width="1" height="1" fill="#231f20"/>
    <rect x="150" y="9" width="1" height="1" fill="#231f20"/>
    <rect x="1" y="10" width="1" height="1" fill="#231f20"/>
    <rect x="150" y="10" width="1" height="1" fill="#231f20"/>
    <rect x="1" y="11" width="1" height="1" fill="#231f20"/>
    <rect x="150" y="11" width="1" height="1" fill="#231f20"/>
    <rect x="1" y="12" width="1" height="1" fill="#231f20"/>
    <rect x="150" y="12" width="1" height="1" fill="#231f20"/>
    <rect x="1" y="13" width="1" height="1" fill="#231f20"/>
    <rect x="150" y="13" width="1" height="1" fill="#231f20"/>
    <rect x="1" y="14" width="1" height="1" fill="#231f20"/>
    <rect x="150" y="14" width="1" height="1" fill="#231f20"/>
    <rect x="1" y="15" width="1" height="1" fill="#231f20"/>
    <rect x="150" y="15" width="1" height="1" fill="#231f20"/>
    <rect x="1" y="16" width="1" height="1" fill="#231f20"/>
    <rect x="53" y="16" width="7" height="1" fill="#231f20"/>
    <rect x="76" y="16" width="7" height="1" fill="#231f20"/>
    <rect x="150" y="16" width="1" height="1" fill="#231f20"/>
    <rect x="1" y="17" width="1" height="1" fill="#231f20"/>
    <rect x="55" y="17" width="5" height="1" fill="#231f20"/>
    <rect x="76" y="17" width="5" height="1" fill="#231f20"/>
    <rect x="150" y="17" width="1" height="1" fill="#231f20"/>
    <rect x="1" y="18" width="1" height="1" fill="#231f20"/>
    <rect x="56" y="18" width="5" height="1" fill="#231f20"/>
    <rect x="76" y="18" width="4" height="1" fill="#231f20"/>
    <rect x="150" y="18" width="1" height="1" fill="#231f20"/>
    <rect x="1" y="19" width="1" height="1" fill="#231f20"/>
    <rect x="56" y="19" width="5" height="1" fill="#231f20"/>
    <rect x="75" y="19" width="5" height="1" fill="#231f20"/>
    <rect x="150" y="19" width="1" height="1" fill="#231f20"/>
    <rect x="1" y="20" width="1" height="1" fill="#231f20"/>
    <rect x="56" y="20" width="6" height="1" fill="#231f20"/>
    <rect x="75" y="20" width="5" height="1" fill="#231f20"/>
    <rect x="150" y="20" width="1" height="1" fill="#231f20"/>
    <rect x="1" y="21" width="1" height="1" fill="#231f20"/>
    <rect x="56" y="21" width="2" height="1" fill="#231f20"/>
    <rect x="59" y="21" width="3" height="1" fill="#231f20"/>
    <rect x="74" y="21" width="2" height="1" fill="#231f20"/>
    <rect x="77" y="21" width="3" height="1" fill="#231f20"/>
    <rect x="150" y="21" width="1" height="1" fill="#231f20"/>
    <rect x="1" y="22" width="1" height="1" fill="#231f20"/>
    <rect x="56" y="22" width="2" height="1" fill="#231f20"/>
    <rect x="59" y="22" width="3" height="1" fill="#231f20"/>
    <rect x="74" y="22" width="2" height="1" fill="#231f20"/>
    <rect x="77" y="22" width="3" height="1" fill="#231f20"/>
    <rect x="150" y="22" width="1" height="1" fill="#231f20"/>
    <rect x="1" y="23" width="1" height="1" fill="#231f20"/>
    <rect x="56" y="23" width="2" height="1" fill="#231f20"/>
    <rect x="60" y="23" width="3" height="1" fill="#231f20"/>
    <rect x="73" y="23" width="2" height="1" fill="#231f20"/>
    <rect x="77" y="23" width="3" height="1" fill="#231f20"/>
    <rect x="150" y="23" width="1" height="1" fill="#231f20"/>
    <rect x="1" y="24" width="1" height="1" fill="#231f20"/>
    <rect x="56" y="24" width="2" height="1" fill="#231f20"/>
    <rect x="60" y="24" width="3" height="1" fill="#231f20"/>
    <rect x="73" y="24" width="2" height="1" fill="#231f20"/>
    <rect x="77" y="24" width="3" height="1" fill="#231f20"/>
    <rect x="150" y="24" width="1" height="1" fill="#231f20"/>
    <rect x="1" y="25" width="1" height="1" fill="#231f20"/>
    <rect x="56" y="25" width="2" height="1" fill="#231f20"/>
    <rect x="61" y="25" width="3" height="1" fill="#231f20"/>
    <rect x="72" y="25" width="2" height="1" fill="#231f20"/>
    <rect x="77" y="25" width="3" height="1" fill="#231f20"/>
    <rect x="150" y="25" width="1" height="1" fill="#231f20"/>
    <rect x="1" y="26" width="1" height="1" fill="#231f20"/>
    <rect x="56" y="26" width="2" height="1" fill="#231f20"/>
    <rect x="61" y="26" width="3" height="1" fill="#231f20"/>
    <rect x="72" y="26" width="2" height="1" fill="#231f20"/>
    <rect x="77" y="26" width="3" height="1" fill="#231f20"/>
    <rect x="150" y="26" width="1" height="1" fill="#231f20"/>
    <rect x="1" y="27" width="1" height="1" fill="#231f20"/>
    <rect x="56" y="27" width="2" height="1" fill="#231f20"/>
    <rect x="61" y="27" width="4" height="1" fill="#231f20"/>
    <rect x="72" y="27" width="2" height="1" fill="#231f20"/>
    <rect x="77" y="27" width="3" height="1" fill="#231f20"/>
    <rect x="150" y="27" width="1" height="1" fill="#231f20"/>
    <rect x="1" y="28" width="1" height="1" fill="#231f20"/>
    <rect x="56" y="28" width="2" height="1" fill="#231f20"/>
    <rect x="62" y="28" width="3" height="1" fill="#231f20"/>
    <rect x="71" y="28" width="2" height="1" fill="#231f20"/>
    <rect x="77" y="28" width="3" height="1" fill="#231f20"/>
    <rect x="150" y="28" width="1" height="1" fill="#231f20"/>
    <rect x="1" y="29" width="1" height="1" fill="#231f20"/>
    <rect x="56" y="29" width="2" height="1" fill="#231f20"/>
    <rect x="62" y="29" width="4" height="1" fill="#231f20"/>
    <rect x="71" y="29" width="2" height="1" fill="#231f20"/>
    <rect x="77" y="29" width="3" height="1" fill="#231f20"/>
    <rect x="150" y="29" width="1" height="1" fill="#231f20"/>
    <rect x="1" y="30" width="1" height="1" fill="#231f20"/>
    <rect x="56" y="30" width="2" height="1" fill="#231f20"/>
    <rect x="63" y="30" width="3" height="1" fill="#231f20"/>
    <rect x="70" y="30" width="2" height="1" fill="#231f20"/>
    <rect x="77" y="30" width="3" height="1" fill="#231f20"/>
    <rect x="150" y="30" width="1" height="1" fill="#231f20"/>
    <rect x="1" y="31" width="1" height="1" fill="#231f20"/>
    <rect x="56" y="31" width="2" height="1" fill="#231f20"/>
    <rect x="63" y="31" width="3" height="1" fill="#231f20"/>
    <rect x="70" y="31" width="2" height="1" fill="#231f20"/>
    <rect x="77" y="31" width="3" height="1" fill="#231f20"/>
    <rect x="150" y="31" width="1" height="1" fill="#231f20"/>
    <rect x="1" y="32" width="1" height="1" fill="#231f20"/>
    <rect x="56" y="32" width="2" height="1" fill="#231f20"/>
    <rect x="64" y="32" width="3" height="1" fill="#231f20"/>
    <rect x="69" y="32" width="2" height="1" fill="#231f20"/>
    <rect x="77" y="32" width="3" height="1" fill="#231f20"/>
    <rect x="150" y="32" width="1" height="1" fill="#231f20"/>
    <rect x="1" y="33" width="1" height="1" fill="#231f20"/>
    <rect x="56" y="33" width="2" height="1" fill="#231f20"/>
    <rect x="64" y="33" width="3" height="1" fill="#231f20"/>
    <rect x="69" y="33" width="2" height="1" fill="#231f20"/>
    <rect x="77" y="33" width="3" height="1" fill="#231f20"/>
    <rect x="150" y="33" width="1" height="1" fill="#231f20"/>
    <rect x="1" y="34" width="1" height="1" fill="#231f20"/>
    <rect x="56" y="34" width="2" height="1" fill="#231f20"/>
    <rect x="65" y="34" width="5" height="1" fill="#231f20"/>
    <rect x="77" y="34" width="3" height="1" fill="#231f20"/>
    <rect x="150" y="34" width="1" height="1" fill="#231f20"/>
    <rect x="1" y="35" width="1" height="1" fill="#231f20"/>
    <rect x="56" y="35" width="2" height="1" fill="#231f20"/>
    <rect x="65" y="35" width="5" height="1" fill="#231f20"/>
    <rect x="77" y="35" width="3" height="1" fill="#231f20"/>
    <rect x="86" y="35" width="4" height="1" fill="#231f20"/>
    <rect x="150" y="35" width="1" height="1" fill="#231f20"/>
    <rect x="1" y="36" width="1" height="1" fill="#231f20"/>
    <rect x="56" y="36" width="2" height="1" fill="#231f20"/>
    <rect x="65" y="36" width="5" height="1" fill="#231f20"/>
    <rect x="77" y="36" width="3" height="1" fill="#231f20"/>
    <rect x="84" y="36" width="2" height="1" fill="#231f20"/>
    <rect x="88" y="36" width="3" height="1" fill="#231f20"/>
    <rect x="150" y="36" width="1" height="1" fill="#231f20"/>
    <rect x="1" y="37" width="1" height="1" fill="#231f20"/>
    <rect x="56" y="37" width="2" height="1" fill="#231f20"/>
    <rect x="66" y="37" width="3" height="1" fill="#231f20"/>
    <rect x="77" y="37" width="3" height="1" fill="#231f20"/>
    <rect x="84" y="37" width="1" height="1" fill="#231f20"/>
    <rect x="89" y="37" width="2" height="1" fill="#231f20"/>
    <rect x="150" y="37" width="1" height="1" fill="#231f20"/>
    <rect x="1" y="38" width="1" height="1" fill="#231f20"/>
    <rect x="55" y="38" width="4" height="1" fill="#231f20"/>
    <rect x="66" y="38" width="3" height="1" fill="#231f20"/>
    <rect x="76" y="38" width="5" height="1" fill="#231f20"/>
    <rect x="89" y="38" width="2" height="1" fill="#231f20"/>
    <rect x="150" y="38" width="1" height="1" fill="#231f20"/>
    <rect x="1" y="39" width="1" height="1" fill="#231f20"/>
    <rect x="53" y="39" width="8" height="1" fill="#231f20"/>
    <rect x="67" y="39" width="1" height="1" fill="#231f20"/>
    <rect x="74" y="39" width="9" height="1" fill="#231f20"/>
    <rect x="88" y="39" width="2" height="1" fill="#231f20"/>
    <rect x="150" y="39" width="1" height="1" fill="#231f20"/>
    <rect x="1" y="40" width="1" height="1" fill="#231f20"/>
    <rect x="87" y="40" width="3" height="1" fill="#231f20"/>
    <rect x="150" y="40" width="1" height="1" fill="#231f20"/>
    <rect x="1" y="41" width="1" height="1" fill="#231f20"/>
    <rect x="88" y="41" width="3" height="1" fill="#231f20"/>
    <rect x="150" y="41" width="1" height="1" fill="#231f20"/>
    <rect x="1" y="42" width="1" height="1" fill="#231f20"/>
    <rect x="89" y="42" width="2" height="1" fill="#231f20"/>
    <rect x="150" y="42" width="1" height="1" fill="#231f20"/>
    <rect x="1" y="43" width="1" height="1" fill="#231f20"/>
    <rect x="89" y="43" width="2" height="1" fill="#231f20"/>
    <rect x="150" y="43" width="1" height="1" fill="#231f20"/>
    <rect x="1" y="44" width="1" height="1" fill="#231f20"/>
    <rect x="89" y="44" width="2" height="1" fill="#231f20"/>
    <rect x="150" y="44" width="1" height="1" fill="#231f20"/>
    <rect x="1" y="45" width="1" height="1" fill="#231f20"/>
    <rect x="84" y="45" width="2" height="1" fill="#231f20"/>
    <rect x="88" y="45" width="2" height="1" fill="#231f20"/>
    <rect x="150" y="45" width="1" height="1" fill="#231f20"/>
    <rect x="1" y="46" width="1" height="1" fill="#231f20"/>
    <rect x="84" y="46" width="5" height="1" fill="#231f20"/>
    <rect x="150" y="46" width="1" height="1" fill="#231f20"/>
    <rect x="1" y="47" width="1" height="1" fill="#231f20"/>
    <rect x="150" y="47" width="1" height="1" fill="#231f20"/>
    <rect x="1" y="48" width="1" height="1" fill="#231f20"/>
    <rect x="150" y="48" width="1" height="1" fill="#231f20"/>
    <rect x="1" y="49" width="1" height="1" fill="#231f20"/>
    <rect x="150" y="49" width="1" height="1" fill="#231f20"/>
    <rect x="1" y="50" width="1" height="1" fill="#231f20"/>
    <rect x="150" y="50" width="1" height="1" fill="#231f20"/>
    <rect x="1" y="51" width="1" height="1" fill="#231f20"/>
    <rect x="150" y="51" width="1" height="1" fill="#231f20"/>
    <rect x="1" y="52" width="1" height="1" fill="#231f20"/>
    <rect x="150" y="52" width="1" height="1" fill="#231f20"/>
    <rect x="1" y="53" width="1" height="1" fill="#231f20"/>
    <rect x="150" y="53" width="1" height="1" fill="#231f20"/>
    <rect x="1" y="54" width="1" height="1" fill="#231f20"/>
    <rect x="150" y="54" width="1" height="1" fill="#231f20"/>
    <rect x="1" y="55" width="1" height="1" fill="#231f20"/>
    <rect x="150" y="55" width="1" height="1" fill="#231f20"/>
    <rect x="1" y="56" width="1" height="1" fill="#231f20"/>
    <rect x="150" y="56" width="1" height="1" fill="#231f20"/>
    <rect x="1" y="57" width="1" height="1" fill="#231f20"/>
    <rect x="150" y="57" width="1" height="1" fill="#231f20"/>
    <rect x="1" y="58" width="1" height="1" fill="#231f20"/>
    <rect x="150" y="58" width="1" height="1" fill="#231f20"/>
    <rect x="1" y="59" width="1" height="1" fill="#231f20"/>
    <rect x="150" y="59" width="1" height="1" fill="#231f20"/>
    <rect x="1" y="60" width="150" height="1" fill="#231f20"/>
  </g>
</svg>