<?xml version="1.0" encoding="UTF-8"?>
<svg xmlns="http://www.w3.org/2000/svg" viewBox="0 0 118 118" width="118" height="118">
  <!-- Auto-converted from legend-481.png -->
  <rect x="0" y="0" width="118" height="118" fill="none"/>
  <g fill="#272324" stroke="none">
    <rect x="0" y="0" width="118" height="1" fill="#272324"/>
    <rect x="0" y="1" width="1" height="1" fill="#272324"/>
    <rect x="117" y="1" width="1" height="1" fill="#272324"/>
    <rect x="0" y="2" width="1" height="1" fill="#272324"/>
    <rect x="117" y="2" width="1" height="1" fill="#272324"/>
    <rect x="0" y="3" width="1" height="1" fill="#272324"/>
    <rect x="117" y="3" width="1" height="1" fill="#272324"/>
    <rect x="0" y="4" width="1" height="1" fill="#272324"/>
    <rect x="117" y="4" width="1" height="1" fill="#272324"/>
    <rect x="0" y="5" width="1" height="1" fill="#272324"/>
    <rect x="117" y="5" width="1" height="1" fill="#272324"/>
    <rect x="0" y="6" width="1" height="1" fill="#272324"/>
    <rect x="117" y="6" width="1" height="1" fill="#272324"/>
    <rect x="0" y="7" width="1" height="1" fill="#272324"/>
    <rect x="117" y="7" width="1" height="1" fill="#272324"/>
    <rect x="0" y="8" width="1" height="1" fill="#272324"/>
    <rect x="117" y="8" width="1" height="1" fill="#272324"/>
    <rect x="0" y="9" width="1" height="1" fill="#272324"/>
    <rect x="51" y="9" width="15" height="1" fill="#272324"/>
    <rect x="117" y="9" width="1" height="1" fill="#272324"/>
    <rect x="0" y="10" width="1" height="1" fill="#272324"/>
    <rect x="46" y="10" width="25" height="1" fill="#272324"/>
    <rect x="117" y="10" width="1" height="1" fill="#272324"/>
    <rect x="0" y="11" width="1" height="1" fill="#272324"/>
    <rect x="43" y="11" width="32" height="1" fill="#272324"/>
    <rect x="117" y="11" width="1" height="1" fill="#272324"/>
    <rect x="0" y="12" width="1" height="1" fill="#272324"/>
    <rect x="41" y="12" width="10" height="1" fill="#272324"/>
    <rect x="62" y="12" width="1" height="1" fill="#272324"/>
    <rect x="66" y="12" width="11" height="1" fill="#272324"/>
    <rect x="117" y="12" width="1" height="1" fill="#272324"/>
    <rect x="0" y="13" width="1" height="1" fill="#272324"/>
    <rect x="38" y="13" width="8" height="1" fill="#272324"/>
    <rect x="61" y="13" width="1" height="1" fill="#272324"/>
    <rect x="71" y="13" width="9" height="1" fill="#272324"/>
    <rect x="117" y="13" width="1" height="1" fill="#272324"/>
    <rect x="0" y="14" width="1" height="1" fill="#272324"/>
    <rect x="36" y="14" width="7" height="1" fill="#272324"/>
    <rect x="59" y="14" width="2" height="1" fill="#272324"/>
    <rect x="75" y="14" width="7" height="1" fill="#272324"/>
    <rect x="117" y="14" width="1" height="1" fill="#272324"/>
    <rect x="0" y="15" width="1" height="1" fill="#272324"/>
    <rect x="33" y="15" width="8" height="1" fill="#272324"/>
    <rect x="58" y="15" width="1" height="1" fill="#272324"/>
    <rect x="77" y="15" width="7" height="1" fill="#272324"/>
    <rect x="117" y="15" width="1" height="1" fill="#272324"/>
    <rect x="0" y="16" width="1" height="1" fill="#272324"/>
    <rect x="32" y="16" width="6" height="1" fill="#272324"/>
    <rect x="56" y="16" width="2" height="1" fill="#272324"/>
    <rect x="80" y="16" width="6" height="1" fill="#272324"/>
    <rect x="117" y="16" width="1" height="1" fill="#272324"/>
    <rect x="0" y="17" width="1" height="1" fill="#272324"/>
    <rect x="30" y="17" width="6" height="1" fill="#272324"/>
    <rect x="55" y="17" width="1" height="1" fill="#272324"/>
    <rect x="81" y="17" width="7" height="1" fill="#272324"/>
    <rect x="117" y="17" width="1" height="1" fill="#272324"/>
    <rect x="0" y="18" width="1" height="1" fill="#272324"/>
    <rect x="29" y="18" width="6" height="1" fill="#272324"/>
    <rect x="53" y="18" width="2" height="1" fill="#272324"/>
    <rect x="82" y="18" width="7" height="1" fill="#272324"/>
    <rect x="117" y="18" width="1" height="1" fill="#272324"/>
    <rect x="0" y="19" width="1" height="1" fill="#272324"/>
    <rect x="28" y="19" width="5" height="1" fill="#272324"/>
    <rect x="52" y="19" width="1" height="1" fill="#272324"/>
    <rect x="83" y="19" width="8" height="1" fill="#272324"/>
    <rect x="117" y="19" width="1" height="1" fill="#272324"/>
    <rect x="0" y="20" width="1" height="1" fill="#272324"/>
    <rect x="26" y="20" width="6" height="1" fill="#272324"/>
    <rect x="51" y="20" width="1" height="1" fill="#272324"/>
    <rect x="82" y="20" width="1" height="1" fill="#272324"/>
    <rect x="86" y="20" width="6" height="1" fill="#272324"/>
    <rect x="117" y="20" width="1" height="1" fill="#272324"/>
    <rect x="0" y="21" width="1" height="1" fill="#272324"/>
    <rect x="25" y="21" width="6" height="1" fill="#272324"/>
    <rect x="49" y="21" width="2" height="1" fill="#272324"/>
    <rect x="81" y="21" width="1" height="1" fill="#272324"/>
    <rect x="87" y="21" width="6" height="1" fill="#272324"/>
    <rect x="117" y="21" width="1" height="1" fill="#272324"/>
    <rect x="0" y="22" width="1" height="1" fill="#272324"/>
    <rect x="24" y="22" width="5" height="1" fill="#272324"/>
    <rect x="48" y="22" width="1" height="1" fill="#272324"/>
    <rect x="79" y="22" width="2" height="1" fill="#272324"/>
    <rect x="88" y="22" width="6" height="1" fill="#272324"/>
    <rect x="117" y="22" width="1" height="1" fill="#272324"/>
    <rect x="0" y="23" width="1" height="1" fill="#272324"/>
    <rect x="24" y="23" width="4" height="1" fill="#272324"/>
    <rect x="46" y="23" width="2" height="1" fill="#272324"/>
    <rect x="78" y="23" width="1" height="1" fill="#272324"/>
    <rect x="90" y="23" width="5" height="1" fill="#272324"/>
    <rect x="117" y="23" width="1" height="1" fill="#272324"/>
    <rect x="0" y="24" width="1" height="1" fill="#272324"/>
    <rect x="23" y="24" width="4" height="1" fill="#272324"/>
    <rect x="45" y="24" width="1" height="1" fill="#272324"/>
    <rect x="76" y="24" width="2" height="1" fill="#272324"/>
    <rect x="91" y="24" width="4" height="1" fill="#272324"/>
    <rect x="117" y="24" width="1" height="1" fill="#272324"/>
    <rect x="0" y="25" width="1" height="1" fill="#272324"/>
    <rect x="22" y="25" width="5" height="1" fill="#272324"/>
    <rect x="43" y="25" width="2" height="1" fill="#272324"/>
    <rect x="75" y="25" width="1" height="1" fill="#272324"/>
    <rect x="92" y="25" width="4" height="1" fill="#272324"/>
    <rect x="117" y="25" width="1" height="1" fill="#272324"/>
    <rect x="0" y="26" width="1" height="1" fill="#272324"/>
    <rect x="21" y="26" width="5" height="1" fill="#272324"/>
    <rect x="42" y="26" width="1" height="1" fill="#272324"/>
    <rect x="73" y="26" width="2" height="1" fill="#272324"/>
    <rect x="92" y="26" width="5" height="1" fill="#272324"/>
    <rect x="117" y="26" width="1" height="1" fill="#272324"/>
    <rect x="0" y="27" width="1" height="1" fill="#272324"/>
    <rect x="20" y="27" width="5" height="1" fill="#272324"/>
    <rect x="41" y="27" width="1" height="1" fill="#272324"/>
    <rect x="72" y="27" width="1" height="1" fill="#272324"/>
    <rect x="93" y="27" width="5" height="1" fill="#272324"/>
    <rect x="117" y="27" width="1" height="1" fill="#272324"/>
    <rect x="0" y="28" width="1" height="1" fill="#272324"/>
    <rect x="19" y="28" width="5" height="1" fill="#272324"/>
    <rect x="39" y="28" width="2" height="1" fill="#272324"/>
    <rect x="71" y="28" width="1" height="1" fill="#272324"/>
    <rect x="94" y="28" width="4" height="1" fill="#272324"/>
    <rect x="117" y="28" width="1" height="1" fill="#272324"/>
    <rect x="0" y="29" width="1" height="1" fill="#272324"/>
    <rect x="18" y="29" width="5" height="1" fill="#272324"/>
    <rect x="38" y="29" width="1" height="1" fill="#272324"/>
    <rect x="69" y="29" width="2" height="1" fill="#272324"/>
    <rect x="95" y="29" width="4" height="1" fill="#272324"/>
    <rect x="117" y="29" width="1" height="1" fill="#272324"/>
    <rect x="0" y="30" width="1" height="1" fill="#272324"/>
    <rect x="18" y="30" width="4" height="1" fill="#272324"/>
    <rect x="36" y="30" width="2" height="1" fill="#272324"/>
    <rect x="68" y="30" width="1" height="1" fill="#272324"/>
    <rect x="95" y="30" width="5" height="1" fill="#272324"/>
    <rect x="117" y="30" width="1" height="1" fill="#272324"/>
    <rect x="0" y="31" width="1" height="1" fill="#272324"/>
    <rect x="18" y="31" width="3" height="1" fill="#272324"/>
    <rect x="35" y="31" width="1" height="1" fill="#272324"/>
    <rect x="66" y="31" width="2" height="1" fill="#272324"/>
    <rect x="96" y="31" width="5" height="1" fill="#272324"/>
    <rect x="117" y="31" width="1" height="1" fill="#272324"/>
    <rect x="0" y="32" width="1" height="1" fill="#272324"/>
    <rect x="17" y="32" width="3" height="1" fill="#272324"/>
    <rect x="34" y="32" width="1" height="1" fill="#272324"/>
    <rect x="65" y="32" width="1" height="1" fill="#272324"/>
    <rect x="96" y="32" width="5" height="1" fill="#272324"/>
    <rect x="117" y="32" width="1" height="1" fill="#272324"/>
    <rect x="0" y="33" width="1" height="1" fill="#272324"/>
    <rect x="16" y="33" width="4" height="1" fill="#272324"/>
    <rect x="32" y="33" width="2" height="1" fill="#272324"/>
    <rect x="63" y="33" width="2" height="1" fill="#272324"/>
    <rect x="95" y="33" width="1" height="1" fill="#272324"/>
    <rect x="98" y="33" width="4" height="1" fill="#272324"/>
    <rect x="117" y="33" width="1" height="1" fill="#272324"/>
    <rect x="0" y="34" width="1" height="1" fill="#272324"/>
    <rect x="15" y="34" width="4" height="1" fill="#272324"/>
    <rect x="31" y="34" width="1" height="1" fill="#272324"/>
    <rect x="62" y="34" width="1" height="1" fill="#272324"/>
    <rect x="93" y="34" width="2" height="1" fill="#272324"/>
    <rect x="98" y="34" width="4" height="1" fill="#272324"/>
    <rect x="117" y="34" width="1" height="1" fill="#272324"/>
    <rect x="0" y="35" width="1" height="1" fill="#272324"/>
    <rect x="15" y="35" width="4" height="1" fill="#272324"/>
    <rect x="29" y="35" width="2" height="1" fill="#272324"/>
    <rect x="61" y="35" width="1" height="1" fill="#272324"/>
    <rect x="92" y="35" width="1" height="1" fill="#272324"/>
    <rect x="99" y="35" width="3" height="1" fill="#272324"/>
    <rect x="117" y="35" width="1" height="1" fill="#272324"/>
    <rect x="0" y="36" width="1" height="1" fill="#272324"/>
    <rect x="14" y="36" width="4" height="1" fill="#272324"/>
    <rect x="28" y="36" width="1" height="1" fill="#272324"/>
    <rect x="59" y="36" width="2" height="1" fill="#272324"/>
    <rect x="90" y="36" width="2" height="1" fill="#272324"/>
    <rect x="100" y="36" width="3" height="1" fill="#272324"/>
    <rect x="117" y="36" width="1" height="1" fill="#272324"/>
    <rect x="0" y="37" width="1" height="1" fill="#272324"/>
    <rect x="14" y="37" width="4" height="1" fill="#272324"/>
    <rect x="26" y="37" width="2" height="1" fill="#272324"/>
    <rect x="58" y="37" width="1" height="1" fill="#272324"/>
    <rect x="89" y="37" width="1" height="1" fill="#272324"/>
    <rect x="100" y="37" width="3" height="1" fill="#272324"/>
    <rect x="117" y="37" width="1" height="1" fill="#272324"/>
    <rect x="0" y="38" width="1" height="1" fill="#272324"/>
    <rect x="13" y="38" width="4" height="1" fill="#272324"/>
    <rect x="25" y="38" width="1" height="1" fill="#272324"/>
    <rect x="56" y="38" width="2" height="1" fill="#272324"/>
    <rect x="87" y="38" width="2" height="1" fill="#272324"/>
    <rect x="101" y="38" width="3" height="1" fill="#272324"/>
    <rect x="117" y="38" width="1" height="1" fill="#272324"/>
    <rect x="0" y="39" width="1" height="1" fill="#272324"/>
    <rect x="13" y="39" width="4" height="1" fill="#272324"/>
    <rect x="24" y="39" width="1" height="1" fill="#272324"/>
    <rect x="55" y="39" width="1" height="1" fill="#272324"/>
    <rect x="86" y="39" width="1" height="1" fill="#272324"/>
    <rect x="101" y="39" width="3" height="1" fill="#272324"/>
    <rect x="117" y="39" width="1" height="1" fill="#272324"/>
    <rect x="0" y="40" width="1" height="1" fill="#272324"/>
    <rect x="13" y="40" width="3" height="1" fill="#272324"/>
    <rect x="22" y="40" width="2" height="1" fill="#272324"/>
    <rect x="53" y="40" width="2" height="1" fill="#272324"/>
    <rect x="84" y="40" width="2" height="1" fill="#272324"/>
    <rect x="102" y="40" width="3" height="1" fill="#272324"/>
    <rect x="117" y="40" width="1" height="1" fill="#272324"/>
    <rect x="0" y="41" width="1" height="1" fill="#272324"/>
    <rect x="13" y="41" width="3" height="1" fill="#272324"/>
    <rect x="21" y="41" width="1" height="1" fill="#272324"/>
    <rect x="52" y="41" width="1" height="1" fill="#272324"/>
    <rect x="83" y="41" width="1" height="1" fill="#272324"/>
    <rect x="102" y="41" width="3" height="1" fill="#272324"/>
    <rect x="117" y="41" width="1" height="1" fill="#272324"/>
    <rect x="0" y="42" width="1" height="1" fill="#272324"/>
    <rect x="12" y="42" width="3" height="1" fill="#272324"/>
    <rect x="19" y="42" width="2" height="1" fill="#272324"/>
    <rect x="51" y="42" width="1" height="1" fill="#272324"/>
    <rect x="81" y="42" width="2" height="1" fill="#272324"/>
    <rect x="103" y="42" width="3" height="1" fill="#272324"/>
    <rect x="117" y="42" width="1" height="1" fill="#272324"/>
    <rect x="0" y="43" width="1" height="1" fill="#272324"/>
    <rect x="12" y="43" width="3" height="1" fill="#272324"/>
    <rect x="18" y="43" width="1" height="1" fill="#272324"/>
    <rect x="49" y="43" width="2" height="1" fill="#272324"/>
    <rect x="80" y="43" width="1" height="1" fill="#272324"/>
    <rect x="103" y="43" width="3" height="1" fill="#272324"/>
    <rect x="117" y="43" width="1" height="1" fill="#272324"/>
    <rect x="0" y="44" width="1" height="1" fill="#272324"/>
    <rect x="12" y="44" width="3" height="1" fill="#272324"/>
    <rect x="16" y="44" width="2" height="1" fill="#272324"/>
    <rect x="48" y="44" width="1" height="1" fill="#272324"/>
    <rect x="78" y="44" width="2" height="1" fill="#272324"/>
    <rect x="103" y="44" width="3" height="1" fill="#272324"/>
    <rect x="117" y="44" width="1" height="1" fill="#272324"/>
    <rect x="0" y="45" width="1" height="1" fill="#272324"/>
    <rect x="11" y="45" width="3" height="1" fill="#272324"/>
    <rect x="15" y="45" width="1" height="1" fill="#272324"/>
    <rect x="46" y="45" width="2" height="1" fill="#272324"/>
    <rect x="77" y="45" width="1" height="1" fill="#272324"/>
    <rect x="103" y="45" width="3" height="1" fill="#272324"/>
    <rect x="117" y="45" width="1" height="1" fill="#272324"/>
    <rect x="0" y="46" width="1" height="1" fill="#272324"/>
    <rect x="11" y="46" width="4" height="1" fill="#272324"/>
    <rect x="45" y="46" width="1" height="1" fill="#272324"/>
    <rect x="76" y="46" width="1" height="1" fill="#272324"/>
    <rect x="104" y="46" width="3" height="1" fill="#272324"/>
    <rect x="117" y="46" width="1" height="1" fill="#272324"/>
    <rect x="0" y="47" width="1" height="1" fill="#272324"/>
    <rect x="10" y="47" width="4" height="1" fill="#272324"/>
    <rect x="43" y="47" width="2" height="1" fill="#272324"/>
    <rect x="74" y="47" width="2" height="1" fill="#272324"/>
    <rect x="104" y="47" width="3" height="1" fill="#272324"/>
    <rect x="117" y="47" width="1" height="1" fill="#272324"/>
    <rect x="0" y="48" width="1" height="1" fill="#272324"/>
    <rect x="10" y="48" width="3" height="1" fill="#272324"/>
    <rect x="42" y="48" width="1" height="1" fill="#272324"/>
    <rect x="73" y="48" width="1" height="1" fill="#272324"/>
    <rect x="103" y="48" width="4" height="1" fill="#272324"/>
    <rect x="117" y="48" width="1" height="1" fill="#272324"/>
    <rect x="0" y="49" width="1" height="1" fill="#272324"/>
    <rect x="10" y="49" width="3" height="1" fill="#272324"/>
    <rect x="41" y="49" width="1" height="1" fill="#272324"/>
    <rect x="71" y="49" width="2" height="1" fill="#272324"/>
    <rect x="102" y="49" width="1" height="1" fill="#272324"/>
    <rect x="104" y="49" width="3" height="1" fill="#272324"/>
    <rect x="117" y="49" width="1" height="1" fill="#272324"/>
    <rect x="0" y="50" width="1" height="1" fill="#272324"/>
    <rect x="10" y="50" width="3" height="1" fill="#272324"/>
    <rect x="39" y="50" width="2" height="1" fill="#272324"/>
    <rect x="70" y="50" width="1" height="1" fill="#272324"/>
    <rect x="100" y="50" width="2" height="1" fill="#272324"/>
    <rect x="104" y="50" width="3" height="1" fill="#272324"/>
    <rect x="117" y="50" width="1" height="1" fill="#272324"/>
    <rect x="0" y="51" width="1" height="1" fill="#272324"/>
    <rect x="10" y="51" width="3" height="1" fill="#272324"/>
    <rect x="38" y="51" width="1" height="1" fill="#272324"/>
    <rect x="68" y="51" width="2" height="1" fill="#272324"/>
    <rect x="99" y="51" width="1" height="1" fill="#272324"/>
    <rect x="105" y="51" width="3" height="1" fill="#272324"/>
    <rect x="117" y="51" width="1" height="1" fill="#272324"/>
    <rect x="0" y="52" width="1" height="1" fill="#272324"/>
    <rect x="10" y="52" width="3" height="1" fill="#272324"/>
    <rect x="36" y="52" width="2" height="1" fill="#272324"/>
    <rect x="67" y="52" width="1" height="1" fill="#272324"/>
    <rect x="97" y="52" width="2" height="1" fill="#272324"/>
    <rect x="105" y="52" width="3" height="1" fill="#272324"/>
    <rect x="117" y="52" width="1" height="1" fill="#272324"/>
    <rect x="0" y="53" width="1" height="1" fill="#272324"/>
    <rect x="10" y="53" width="3" height="1" fill="#272324"/>
    <rect x="35" y="53" width="1" height="1" fill="#272324"/>
    <rect x="65" y="53" width="2" height="1" fill="#272324"/>
    <rect x="96" y="53" width="1" height="1" fill="#272324"/>
    <rect x="105" y="53" width="3" height="1" fill="#272324"/>
    <rect x="117" y="53" width="1" height="1" fill="#272324"/>
    <rect x="0" y="54" width="1" height="1" fill="#272324"/>
    <rect x="10" y="54" width="3" height="1" fill="#272324"/>
    <rect x="33" y="54" width="2" height="1" fill="#272324"/>
    <rect x="64" y="54" width="1" height="1" fill="#272324"/>
    <rect x="95" y="54" width="1" height="1" fill="#272324"/>
    <rect x="105" y="54" width="3" height="1" fill="#272324"/>
    <rect x="117" y="54" width="1" height="1" fill="#272324"/>
    <rect x="0" y="55" width="1" height="1" fill="#272324"/>
    <rect x="10" y="55" width="3" height="1" fill="#272324"/>
    <rect x="32" y="55" width="1" height="1" fill="#272324"/>
    <rect x="62" y="55" width="2" height="1" fill="#272324"/>
    <rect x="93" y="55" width="2" height="1" fill="#272324"/>
    <rect x="105" y="55" width="3" height="1" fill="#272324"/>
    <rect x="117" y="55" width="1" height="1" fill="#272324"/>
    <rect x="0" y="56" width="1" height="1" fill="#272324"/>
    <rect x="9" y="56" width="3" height="1" fill="#272324"/>
    <rect x="31" y="56" width="1" height="1" fill="#272324"/>
    <rect x="61" y="56" width="1" height="1" fill="#272324"/>
    <rect x="92" y="56" width="1" height="1" fill="#272324"/>
    <rect x="105" y="56" width="3" height="1" fill="#272324"/>
    <rect x="117" y="56" width="1" height="1" fill="#272324"/>
    <rect x="0" y="57" width="1" height="1" fill="#272324"/>
    <rect x="9" y="57" width="99" height="1" fill="#272324"/>
    <rect x="117" y="57" width="1" height="1" fill="#272324"/>
    <rect x="0" y="58" width="1" height="1" fill="#272324"/>
    <rect x="9" y="58" width="99" height="1" fill="#272324"/>
    <rect x="117" y="58" width="1" height="1" fill="#272324"/>
    <rect x="0" y="59" width="1" height="1" fill="#272324"/>
    <rect x="9" y="59" width="99" height="1" fill="#272324"/>
    <rect x="117" y="59" width="1" height="1" fill="#272324"/>
    <rect x="0" y="60" width="1" height="1" fill="#272324"/>
    <rect x="9" y="60" width="3" height="1" fill="#272324"/>
    <rect x="105" y="60" width="3" height="1" fill="#272324"/>
    <rect x="117" y="60" width="1" height="1" fill="#272324"/>
    <rect x="0" y="61" width="1" height="1" fill="#272324"/>
    <rect x="10" y="61" width="3" height="1" fill="#272324"/>
    <rect x="105" y="61" width="3" height="1" fill="#272324"/>
    <rect x="117" y="61" width="1" height="1" fill="#272324"/>
    <rect x="0" y="62" width="1" height="1" fill="#272324"/>
    <rect x="10" y="62" width="3" height="1" fill="#272324"/>
    <rect x="105" y="62" width="3" height="1" fill="#272324"/>
    <rect x="117" y="62" width="1" height="1" fill="#272324"/>
    <rect x="0" y="63" width="1" height="1" fill="#272324"/>
    <rect x="10" y="63" width="3" height="1" fill="#272324"/>
    <rect x="105" y="63" width="3" height="1" fill="#272324"/>
    <rect x="117" y="63" width="1" height="1" fill="#272324"/>
    <rect x="0" y="64" width="1" height="1" fill="#272324"/>
    <rect x="10" y="64" width="3" height="1" fill="#272324"/>
    <rect x="105" y="64" width="3" height="1" fill="#272324"/>
    <rect x="117" y="64" width="1" height="1" fill="#272324"/>
    <rect x="0" y="65" width="1" height="1" fill="#272324"/>
    <rect x="10" y="65" width="3" height="1" fill="#272324"/>
    <rect x="105" y="65" width="3" height="1" fill="#272324"/>
    <rect x="117" y="65" width="1" height="1" fill="#272324"/>
    <rect x="0" y="66" width="1" height="1" fill="#272324"/>
    <rect x="10" y="66" width="3" height="1" fill="#272324"/>
    <rect x="104" y="66" width="3" height="1" fill="#272324"/>
    <rect x="117" y="66" width="1" height="1" fill="#272324"/>
    <rect x="0" y="67" width="1" height="1" fill="#272324"/>
    <rect x="10" y="67" width="3" height="1" fill="#272324"/>
    <rect x="104" y="67" width="3" height="1" fill="#272324"/>
    <rect x="117" y="67" width="1" height="1" fill="#272324"/>
    <rect x="0" y="68" width="1" height="1" fill="#272324"/>
    <rect x="10" y="68" width="3" height="1" fill="#272324"/>
    <rect x="47" y="68" width="9" height="1" fill="#272324"/>
    <rect x="104" y="68" width="3" height="1" fill="#272324"/>
    <rect x="117" y="68" width="1" height="1" fill="#272324"/>
    <rect x="0" y="69" width="1" height="1" fill="#272324"/>
    <rect x="10" y="69" width="3" height="1" fill="#272324"/>
    <rect x="46" y="69" width="11" height="1" fill="#272324"/>
    <rect x="104" y="69" width="3" height="1" fill="#272324"/>
    <rect x="117" y="69" width="1" height="1" fill="#272324"/>
    <rect x="0" y="70" width="1" height="1" fill="#272324"/>
    <rect x="11" y="70" width="3" height="1" fill="#272324"/>
    <rect x="44" y="70" width="15" height="1" fill="#272324"/>
    <rect x="104" y="70" width="3" height="1" fill="#272324"/>
    <rect x="117" y="70" width="1" height="1" fill="#272324"/>
    <rect x="0" y="71" width="1" height="1" fill="#272324"/>
    <rect x="11" y="71" width="3" height="1" fill="#272324"/>
    <rect x="43" y="71" width="6" height="1" fill="#272324"/>
    <rect x="51" y="71" width="9" height="1" fill="#272324"/>
    <rect x="103" y="71" width="3" height="1" fill="#272324"/>
    <rect x="117" y="71" width="1" height="1" fill="#272324"/>
    <rect x="0" y="72" width="1" height="1" fill="#272324"/>
    <rect x="12" y="72" width="3" height="1" fill="#272324"/>
    <rect x="43" y="72" width="4" height="1" fill="#272324"/>
    <rect x="53" y="72" width="8" height="1" fill="#272324"/>
    <rect x="103" y="72" width="3" height="1" fill="#272324"/>
    <rect x="117" y="72" width="1" height="1" fill="#272324"/>
    <rect x="0" y="73" width="1" height="1" fill="#272324"/>
    <rect x="12" y="73" width="3" height="1" fill="#272324"/>
    <rect x="42" y="73" width="4" height="1" fill="#272324"/>
    <rect x="54" y="73" width="7" height="1" fill="#272324"/>
    <rect x="80" y="73" width="2" height="1" fill="#272324"/>
    <rect x="103" y="73" width="3" height="1" fill="#272324"/>
    <rect x="117" y="73" width="1" height="1" fill="#272324"/>
    <rect x="0" y="74" width="1" height="1" fill="#272324"/>
    <rect x="12" y="74" width="3" height="1" fill="#272324"/>
    <rect x="42" y="74" width="3" height="1" fill="#272324"/>
    <rect x="55" y="74" width="7" height="1" fill="#272324"/>
    <rect x="79" y="74" width="3" height="1" fill="#272324"/>
    <rect x="103" y="74" width="3" height="1" fill="#272324"/>
    <rect x="117" y="74" width="1" height="1" fill="#272324"/>
    <rect x="0" y="75" width="1" height="1" fill="#272324"/>
    <rect x="12" y="75" width="3" height="1" fill="#272324"/>
    <rect x="41" y="75" width="3" height="1" fill="#272324"/>
    <rect x="56" y="75" width="7" height="1" fill="#272324"/>
    <rect x="79" y="75" width="3" height="1" fill="#272324"/>
    <rect x="102" y="75" width="3" height="1" fill="#272324"/>
    <rect x="117" y="75" width="1" height="1" fill="#272324"/>
    <rect x="0" y="76" width="1" height="1" fill="#272324"/>
    <rect x="13" y="76" width="3" height="1" fill="#272324"/>
    <rect x="41" y="76" width="3" height="1" fill="#272324"/>
    <rect x="57" y="76" width="7" height="1" fill="#272324"/>
    <rect x="79" y="76" width="2" height="1" fill="#272324"/>
    <rect x="102" y="76" width="3" height="1" fill="#272324"/>
    <rect x="117" y="76" width="1" height="1" fill="#272324"/>
    <rect x="0" y="77" width="1" height="1" fill="#272324"/>
    <rect x="13" y="77" width="3" height="1" fill="#272324"/>
    <rect x="41" y="77" width="2" height="1" fill="#272324"/>
    <rect x="58" y="77" width="7" height="1" fill="#272324"/>
    <rect x="78" y="77" width="3" height="1" fill="#272324"/>
    <rect x="101" y="77" width="3" height="1" fill="#272324"/>
    <rect x="117" y="77" width="1" height="1" fill="#272324"/>
    <rect x="0" y="78" width="1" height="1" fill="#272324"/>
    <rect x="13" y="78" width="4" height="1" fill="#272324"/>
    <rect x="40" y="78" width="3" height="1" fill="#272324"/>
    <rect x="59" y="78" width="7" height="1" fill="#272324"/>
    <rect x="78" y="78" width="3" height="1" fill="#272324"/>
    <rect x="101" y="78" width="3" height="1" fill="#272324"/>
    <rect x="117" y="78" width="1" height="1" fill="#272324"/>
    <rect x="0" y="79" width="1" height="1" fill="#272324"/>
    <rect x="13" y="79" width="5" height="1" fill="#272324"/>
    <rect x="40" y="79" width="3" height="1" fill="#272324"/>
    <rect x="60" y="79" width="7" height="1" fill="#272324"/>
    <rect x="77" y="79" width="3" height="1" fill="#272324"/>
    <rect x="101" y="79" width="3" height="1" fill="#272324"/>
    <rect x="117" y="79" width="1" height="1" fill="#272324"/>
    <rect x="0" y="80" width="1" height="1" fill="#272324"/>
    <rect x="14" y="80" width="4" height="1" fill="#272324"/>
    <rect x="40" y="80" width="2" height="1" fill="#272324"/>
    <rect x="61" y="80" width="7" height="1" fill="#272324"/>
    <rect x="76" y="80" width="4" height="1" fill="#272324"/>
    <rect x="100" y="80" width="3" height="1" fill="#272324"/>
    <rect x="117" y="80" width="1" height="1" fill="#272324"/>
    <rect x="0" y="81" width="1" height="1" fill="#272324"/>
    <rect x="15" y="81" width="4" height="1" fill="#272324"/>
    <rect x="62" y="81" width="7" height="1" fill="#272324"/>
    <rect x="75" y="81" width="4" height="1" fill="#272324"/>
    <rect x="99" y="81" width="4" height="1" fill="#272324"/>
    <rect x="117" y="81" width="1" height="1" fill="#272324"/>
    <rect x="0" y="82" width="1" height="1" fill="#272324"/>
    <rect x="15" y="82" width="4" height="1" fill="#272324"/>
    <rect x="63" y="82" width="8" height="1" fill="#272324"/>
    <rect x="73" y="82" width="5" height="1" fill="#272324"/>
    <rect x="98" y="82" width="4" height="1" fill="#272324"/>
    <rect x="117" y="82" width="1" height="1" fill="#272324"/>
    <rect x="0" y="83" width="1" height="1" fill="#272324"/>
    <rect x="16" y="83" width="4" height="1" fill="#272324"/>
    <rect x="64" y="83" width="13" height="1" fill="#272324"/>
    <rect x="98" y="83" width="4" height="1" fill="#272324"/>
    <rect x="117" y="83" width="1" height="1" fill="#272324"/>
    <rect x="0" y="84" width="1" height="1" fill="#272324"/>
    <rect x="17" y="84" width="3" height="1" fill="#272324"/>
    <rect x="65" y="84" width="11" height="1" fill="#272324"/>
    <rect x="97" y="84" width="4" height="1" fill="#272324"/>
    <rect x="117" y="84" width="1" height="1" fill="#272324"/>
    <rect x="0" y="85" width="1" height="1" fill="#272324"/>
    <rect x="18" y="85" width="3" height="1" fill="#272324"/>
    <rect x="67" y="85" width="7" height="1" fill="#272324"/>
    <rect x="96" y="85" width="5" height="1" fill="#272324"/>
    <rect x="117" y="85" width="1" height="1" fill="#272324"/>
    <rect x="0" y="86" width="1" height="1" fill="#272324"/>
    <rect x="18" y="86" width="4" height="1" fill="#272324"/>
    <rect x="95" y="86" width="5" height="1" fill="#272324"/>
    <rect x="117" y="86" width="1" height="1" fill="#272324"/>
    <rect x="0" y="87" width="1" height="1" fill="#272324"/>
    <rect x="18" y="87" width="5" height="1" fill="#272324"/>
    <rect x="95" y="87" width="4" height="1" fill="#272324"/>
    <rect x="117" y="87" width="1" height="1" fill="#272324"/>
    <rect x="0" y="88" width="1" height="1" fill="#272324"/>
    <rect x="19" y="88" width="5" height="1" fill="#272324"/>
    <rect x="94" y="88" width="4" height="1" fill="#272324"/>
    <rect x="117" y="88" width="1" height="1" fill="#272324"/>
    <rect x="0" y="89" width="1" height="1" fill="#272324"/>
    <rect x="20" y="89" width="5" height="1" fill="#272324"/>
    <rect x="93" y="89" width="5" height="1" fill="#272324"/>
    <rect x="117" y="89" width="1" height="1" fill="#272324"/>
    <rect x="0" y="90" width="1" height="1" fill="#272324"/>
    <rect x="21" y="90" width="5" height="1" fill="#272324"/>
    <rect x="92" y="90" width="5" height="1" fill="#272324"/>
    <rect x="117" y="90" width="1" height="1" fill="#272324"/>
    <rect x="0" y="91" width="1" height="1" fill="#272324"/>
    <rect x="22" y="91" width="5" height="1" fill="#272324"/>
    <rect x="92" y="91" width="4" height="1" fill="#272324"/>
    <rect x="117" y="91" width="1" height="1" fill="#272324"/>
    <rect x="0" y="92" width="1" height="1" fill="#272324"/>
    <rect x="23" y="92" width="4" height="1" fill="#272324"/>
    <rect x="91" y="92" width="4" height="1" fill="#272324"/>
    <rect x="117" y="92" width="1" height="1" fill="#272324"/>
    <rect x="0" y="93" width="1" height="1" fill="#272324"/>
    <rect x="24" y="93" width="4" height="1" fill="#272324"/>
    <rect x="90" y="93" width="5" height="1" fill="#272324"/>
    <rect x="117" y="93" width="1" height="1" fill="#272324"/>
    <rect x="0" y="94" width="1" height="1" fill="#272324"/>
    <rect x="24" y="94" width="6" height="1" fill="#272324"/>
    <rect x="89" y="94" width="5" height="1" fill="#272324"/>
    <rect x="117" y="94" width="1" height="1" fill="#272324"/>
    <rect x="0" y="95" width="1" height="1" fill="#272324"/>
    <rect x="25" y="95" width="6" height="1" fill="#272324"/>
    <rect x="87" y="95" width="6" height="1" fill="#272324"/>
    <rect x="117" y="95" width="1" height="1" fill="#272324"/>
    <rect x="0" y="96" width="1" height="1" fill="#272324"/>
    <rect x="26" y="96" width="6" height="1" fill="#272324"/>
    <rect x="86" y="96" width="6" height="1" fill="#272324"/>
    <rect x="117" y="96" width="1" height="1" fill="#272324"/>
    <rect x="0" y="97" width="1" height="1" fill="#272324"/>
    <rect x="27" y="97" width="7" height="1" fill="#272324"/>
    <rect x="84" y="97" width="6" height="1" fill="#272324"/>
    <rect x="117" y="97" width="1" height="1" fill="#272324"/>
    <rect x="0" y="98" width="1" height="1" fill="#272324"/>
    <rect x="29" y="98" width="6" height="1" fill="#272324"/>
    <rect x="82" y="98" width="7" height="1" fill="#272324"/>
    <rect x="117" y="98" width="1" height="1" fill="#272324"/>
    <rect x="0" y="99" width="1" height="1" fill="#272324"/>
    <rect x="30" y="99" width="6" height="1" fill="#272324"/>
    <rect x="81" y="99" width="7" height="1" fill="#272324"/>
    <rect x="117" y="99" width="1" height="1" fill="#272324"/>
    <rect x="0" y="100" width="1" height="1" fill="#272324"/>
    <rect x="31" y="100" width="7" height="1" fill="#272324"/>
    <rect x="79" y="100" width="7" height="1" fill="#272324"/>
    <rect x="117" y="100" width="1" height="1" fill="#272324"/>
    <rect x="0" y="101" width="1" height="1" fill="#272324"/>
    <rect x="33" y="101" width="8" height="1" fill="#272324"/>
    <rect x="77" y="101" width="7" height="1" fill="#272324"/>
    <rect x="117" y="101" width="1" height="1" fill="#272324"/>
    <rect x="0" y="102" width="1" height="1" fill="#272324"/>
    <rect x="36" y="102" width="7" height="1" fill="#272324"/>
    <rect x="75" y="102" width="6" height="1" fill="#272324"/>
    <rect x="117" y="102" width="1" height="1" fill="#272324"/>
    <rect x="0" y="103" width="1" height="1" fill="#272324"/>
    <rect x="38" y="103" width="9" height="1" fill="#272324"/>
    <rect x="71" y="103" width="8" height="1" fill="#272324"/>
    <rect x="117" y="103" width="1" height="1" fill="#272324"/>
    <rect x="0" y="104" width="1" height="1" fill="#272324"/>
    <rect x="41" y="104" width="10" height="1" fill="#272324"/>
    <rect x="66" y="104" width="11" height="1" fill="#272324"/>
    <rect x="117" y="104" width="1" height="1" fill="#272324"/>
    <rect x="0" y="105" width="1" height="1" fill="#272324"/>
    <rect x="43" y="105" width="32" height="1" fill="#272324"/>
    <rect x="117" y="105" width="1" height="1" fill="#272324"/>
    <rect x="0" y="106" width="1" height="1" fill="#272324"/>
    <rect x="47" y="106" width="24" height="1" fill="#272324"/>
    <rect x="117" y="106" width="1" height="1" fill="#272324"/>
    <rect x="0" y="107" width="1" height="1" fill="#272324"/>
    <rect x="51" y="107" width="15" height="1" fill="#272324"/>
    <rect x="117" y="107" width="1" height="1" fill="#272324"/>
    <rect x="0" y="108" width="1" height="1" fill="#272324"/>
    <rect x="117" y="108" width="1" height="1" fill="#272324"/>
    <rect x="0" y="109" width="1" height="1" fill="#272324"/>
    <rect x="117" y="109" width="1" height="1" fill="#272324"/>
    <rect x="0" y="110" width="1" height="1" fill="#272324"/>
    <rect x="117" y="110" width="1" height="1" fill="#272324"/>
    <rect x="0" y="111" width="1" height="1" fill="#272324"/>
    <rect x="117" y="111" width="1" height="1" fill="#272324"/>
    <rect x="0" y="112" width="1" height="1" fill="#272324"/>
    <rect x="117" y="112" width="1" height="1" fill="#272324"/>
    <rect x="0" y="113" width="1" height="1" fill="#272324"/>
    <rect x="117" y="113" width="1" height="1" fill="#272324"/>
    <rect x="0" y="114" width="1" height="1" fill="#272324"/>
    <rect x="117" y="114" width="1" height="1" fill="#272324"/>
    <rect x="0" y="115" width="1" height="1" fill="#272324"/>
    <rect x="117" y="115" width="1" height="1" fill="#272324"/>
    <rect x="0" y="116" width="1" height="1" fill="#272324"/>
    <rect x="117" y="116" width="1" height="1" fill="#272324"/>
    <rect x="0" y="117" width="118" height="1" fill="#272324"/>
  </g>
</svg>