<?xml version="1.0" encoding="UTF-8"?>
<svg xmlns="http://www.w3.org/2000/svg" viewBox="0 0 60 49" width="60" height="49">
  <!-- Auto-converted from legend-803.png -->
  <rect x="0" y="0" width="60" height="49" fill="none"/>
  <g fill="#231f20" stroke="none">
    <rect x="0" y="0" width="60" height="1" fill="#231f20"/>
    <rect x="0" y="1" width="1" height="1" fill="#231f20"/>
    <rect x="20" y="1" width="1" height="1" fill="#231f20"/>
    <rect x="26" y="1" width="1" height="1" fill="#231f20"/>
    <rect x="32" y="1" width="1" height="1" fill="#231f20"/>
    <rect x="38" y="1" width="1" height="1" fill="#231f20"/>
    <rect x="59" y="1" width="1" height="1" fill="#231f20"/>
    <rect x="0" y="2" width="1" height="1" fill="#231f20"/>
    <rect x="20" y="2" width="1" height="1" fill="#231f20"/>
    <rect x="26" y="2" width="1" height="1" fill="#231f20"/>
    <rect x="32" y="2" width="1" height="1" fill="#231f20"/>
    <rect x="38" y="2" width="1" height="1" fill="#231f20"/>
    <rect x="59" y="2" width="1" height="1" fill="#231f20"/>
    <rect x="0" y="3" width="1" height="1" fill="#231f20"/>
    <rect x="20" y="3" width="1" height="1" fill="#231f20"/>
    <rect x="26" y="3" width="1" height="1" fill="#231f20"/>
    <rect x="32" y="3" width="1" height="1" fill="#231f20"/>
    <rect x="38" y="3" width="1" height="1" fill="#231f20"/>
    <rect x="59" y="3" width="1" height="1" fill="#231f20"/>
    <rect x="0" y="4" width="1" height="1" fill="#231f20"/>
    <rect x="20" y="4" width="1" height="1" fill="#231f20"/>
    <rect x="26" y="4" width="1" height="1" fill="#231f20"/>
    <rect x="32" y="4" width="1" height="1" fill="#231f20"/>
    <rect x="38" y="4" width="1" height="1" fill="#231f20"/>
    <rect x="59" y="4" width="1" height="1" fill="#231f20"/>
    <rect x="0" y="5" width="1" height="1" fill="#231f20"/>
    <rect x="20" y="5" width="1" height="1" fill="#231f20"/>
    <rect x="26" y="5" width="1" height="1" fill="#231f20"/>
    <rect x="32" y="5" width="1" height="1" fill="#231f20"/>
    <rect x="38" y="5" width="1" height="1" fill="#231f20"/>
    <rect x="59" y="5" width="1" height="1" fill="#231f20"/>
    <rect x="0" y="6" width="1" height="1" fill="#231f20"/>
    <rect x="20" y="6" width="1" height="1" fill="#231f20"/>
    <rect x="26" y="6" width="1" height="1" fill="#231f20"/>
    <rect x="32" y="6" width="1" height="1" fill="#231f20"/>
    <rect x="38" y="6" width="1" height="1" fill="#231f20"/>
    <rect x="59" y="6" width="1" height="1" fill="#231f20"/>
    <rect x="0" y="7" width="1" height="1" fill="#231f20"/>
    <rect x="20" y="7" width="1" height="1" fill="#231f20"/>
    <rect x="26" y="7" width="1" height="1" fill="#231f20"/>
    <rect x="32" y="7" width="1" height="1" fill="#231f20"/>
    <rect x="38" y="7" width="1" height="1" fill="#231f20"/>
    <rect x="59" y="7" width="1" height="1" fill="#231f20"/>
    <rect x="0" y="8" width="1" height="1" fill="#231f20"/>
    <rect x="20" y="8" width="1" height="1" fill="#231f20"/>
    <rect x="26" y="8" width="1" height="1" fill="#231f20"/>
    <rect x="32" y="8" width="1" height="1" fill="#231f20"/>
    <rect x="38" y="8" width="1" height="1" fill="#231f20"/>
    <rect x="59" y="8" width="1" height="1" fill="#231f20"/>
    <rect x="0" y="9" width="1" height="1" fill="#231f20"/>
    <rect x="20" y="9" width="1" height="1" fill="#231f20"/>
    <rect x="26" y="9" width="1" height="1" fill="#231f20"/>
    <rect x="32" y="9" width="1" height="1" fill="#231f20"/>
    <rect x="38" y="9" width="1" height="1" fill="#231f20"/>
    <rect x="59" y="9" width="1" height="1" fill="#231f20"/>
    <rect x="0" y="10" width="1" height="1" fill="#231f20"/>
    <rect x="20" y="10" width="1" height="1" fill="#231f20"/>
    <rect x="26" y="10" width="1" height="1" fill="#231f20"/>
    <rect x="32" y="10" width="1" height="1" fill="#231f20"/>
    <rect x="38" y="10" width="1" height="1" fill="#231f20"/>
    <rect x="59" y="10" width="1" height="1" fill="#231f20"/>
    <rect x="0" y="11" width="1" height="1" fill="#231f20"/>
    <rect x="20" y="11" width="1" height="1" fill="#231f20"/>
    <rect x="26" y="11" width="1" height="1" fill="#231f20"/>
    <rect x="32" y="11" width="1" height="1" fill="#231f20"/>
    <rect x="38" y="11" width="1" height="1" fill="#231f20"/>
    <rect x="59" y="11" width="1" height="1" fill="#231f20"/>
    <rect x="0" y="12" width="1" height="1" fill="#231f20"/>
    <rect x="20" y="12" width="1" height="1" fill="#231f20"/>
    <rect x="26" y="12" width="1" height="1" fill="#231f20"/>
    <rect x="32" y="12" width="1" height="1" fill="#231f20"/>
    <rect x="38" y="12" width="1" height="1" fill="#231f20"/>
    <rect x="59" y="12" width="1" height="1" fill="#231f20"/>
    <rect x="0" y="13" width="1" height="1" fill="#231f20"/>
    <rect x="20" y="13" width="1" height="1" fill="#231f20"/>
    <rect x="26" y="13" width="1" height="1" fill="#231f20"/>
    <rect x="32" y="13" width="1" height="1" fill="#231f20"/>
    <rect x="38" y="13" width="1" height="1" fill="#231f20"/>
    <rect x="59" y="13" width="1" height="1" fill="#231f20"/>
    <rect x="0" y="14" width="1" height="1" fill="#231f20"/>
    <rect x="20" y="14" width="1" height="1" fill="#231f20"/>
    <rect x="26" y="14" width="1" height="1" fill="#231f20"/>
    <rect x="32" y="14" width="1" height="1" fill="#231f20"/>
    <rect x="38" y="14" width="1" height="1" fill="#231f20"/>
    <rect x="59" y="14" width="1" height="1" fill="#231f20"/>
    <rect x="0" y="15" width="1" height="1" fill="#231f20"/>
    <rect x="20" y="15" width="1" height="1" fill="#231f20"/>
    <rect x="26" y="15" width="1" height="1" fill="#231f20"/>
    <rect x="32" y="15" width="1" height="1" fill="#231f20"/>
    <rect x="38" y="15" width="1" height="1" fill="#231f20"/>
    <rect x="59" y="15" width="1" height="1" fill="#231f20"/>
    <rect x="0" y="16" width="1" height="1" fill="#231f20"/>
    <rect x="20" y="16" width="1" height="1" fill="#231f20"/>
    <rect x="26" y="16" width="1" height="1" fill="#231f20"/>
    <rect x="32" y="16" width="1" height="1" fill="#231f20"/>
    <rect x="38" y="16" width="1" height="1" fill="#231f20"/>
    <rect x="59" y="16" width="1" height="1" fill="#231f20"/>
    <rect x="0" y="17" width="1" height="1" fill="#231f20"/>
    <rect x="20" y="17" width="1" height="1" fill="#231f20"/>
    <rect x="26" y="17" width="1" height="1" fill="#231f20"/>
    <rect x="32" y="17" width="1" height="1" fill="#231f20"/>
    <rect x="38" y="17" width="1" height="1" fill="#231f20"/>
    <rect x="59" y="17" width="1" height="1" fill="#231f20"/>
    <rect x="0" y="18" width="1" height="1" fill="#231f20"/>
    <rect x="20" y="18" width="1" height="1" fill="#231f20"/>
    <rect x="26" y="18" width="1" height="1" fill="#231f20"/>
    <rect x="32" y="18" width="1" height="1" fill="#231f20"/>
    <rect x="38" y="18" width="1" height="1" fill="#231f20"/>
    <rect x="59" y="18" width="1" height="1" fill="#231f20"/>
    <rect x="0" y="19" width="1" height="1" fill="#231f20"/>
    <rect x="20" y="19" width="1" height="1" fill="#231f20"/>
    <rect x="26" y="19" width="1" height="1" fill="#231f20"/>
    <rect x="32" y="19" width="1" height="1" fill="#231f20"/>
    <rect x="38" y="19" width="1" height="1" fill="#231f20"/>
    <rect x="59" y="19" width="1" height="1" fill="#231f20"/>
    <rect x="0" y="20" width="1" height="1" fill="#231f20"/>
    <rect x="20" y="20" width="1" height="1" fill="#231f20"/>
    <rect x="26" y="20" width="1" height="1" fill="#231f20"/>
    <rect x="32" y="20" width="1" height="1" fill="#231f20"/>
    <rect x="38" y="20" width="1" height="1" fill="#231f20"/>
    <rect x="59" y="20" width="1" height="1" fill="#231f20"/>
    <rect x="0" y="21" width="1" height="1" fill="#231f20"/>
    <rect x="20" y="21" width="1" height="1" fill="#231f20"/>
    <rect x="26" y="21" width="1" height="1" fill="#231f20"/>
    <rect x="32" y="21" width="1" height="1" fill="#231f20"/>
    <rect x="38" y="21" width="1" height="1" fill="#231f20"/>
    <rect x="59" y="21" width="1" height="1" fill="#231f20"/>
    <rect x="0" y="22" width="1" height="1" fill="#231f20"/>
    <rect x="20" y="22" width="1" height="1" fill="#231f20"/>
    <rect x="26" y="22" width="1" height="1" fill="#231f20"/>
    <rect x="32" y="22" width="1" height="1" fill="#231f20"/>
    <rect x="38" y="22" width="1" height="1" fill="#231f20"/>
    <rect x="59" y="22" width="1" height="1" fill="#231f20"/>
    <rect x="0" y="23" width="1" height="1" fill="#231f20"/>
    <rect x="20" y="23" width="1" height="1" fill="#231f20"/>
    <rect x="26" y="23" width="1" height="1" fill="#231f20"/>
    <rect x="32" y="23" width="1" height="1" fill="#231f20"/>
    <rect x="38" y="23" width="1" height="1" fill="#231f20"/>
    <rect x="59" y="23" width="1" height="1" fill="#231f20"/>
    <rect x="0" y="24" width="1" height="1" fill="#231f20"/>
    <rect x="20" y="24" width="1" height="1" fill="#231f20"/>
    <rect x="26" y="24" width="1" height="1" fill="#231f20"/>
    <rect x="32" y="24" width="1" height="1" fill="#231f20"/>
    <rect x="38" y="24" width="1" height="1" fill="#231f20"/>
    <rect x="59" y="24" width="1" height="1" fill="#231f20"/>
    <rect x="0" y="25" width="1" height="1" fill="#231f20"/>
    <rect x="20" y="25" width="1" height="1" fill="#231f20"/>
    <rect x="26" y="25" width="1" height="1" fill="#231f20"/>
    <rect x="32" y="25" width="1" height="1" fill="#231f20"/>
    <rect x="38" y="25" width="1" height="1" fill="#231f20"/>
    <rect x="59" y="25" width="1" height="1" fill="#231f20"/>
    <rect x="0" y="26" width="1" height="1" fill="#231f20"/>
    <rect x="20" y="26" width="1" height="1" fill="#231f20"/>
    <rect x="26" y="26" width="1" height="1" fill="#231f20"/>
    <rect x="32" y="26" width="1" height="1" fill="#231f20"/>
    <rect x="38" y="26" width="1" height="1" fill="#231f20"/>
    <rect x="59" y="26" width="1" height="1" fill="#231f20"/>
    <rect x="0" y="27" width="1" height="1" fill="#231f20"/>
    <rect x="20" y="27" width="1" height="1" fill="#231f20"/>
    <rect x="26" y="27" width="1" height="1" fill="#231f20"/>
    <rect x="32" y="27" width="1" height="1" fill="#231f20"/>
    <rect x="38" y="27" width="1" height="1" fill="#231f20"/>
    <rect x="59" y="27" width="1" height="1" fill="#231f20"/>
    <rect x="0" y="28" width="1" height="1" fill="#231f20"/>
    <rect x="20" y="28" width="1" height="1" fill="#231f20"/>
    <rect x="26" y="28" width="1" height="1" fill="#231f20"/>
    <rect x="32" y="28" width="1" height="1" fill="#231f20"/>
    <rect x="38" y="28" width="1" height="1" fill="#231f20"/>
    <rect x="59" y="28" width="1" height="1" fill="#231f20"/>
    <rect x="0" y="29" width="1" height="1" fill="#231f20"/>
    <rect x="20" y="29" width="1" height="1" fill="#231f20"/>
    <rect x="26" y="29" width="1" height="1" fill="#231f20"/>
    <rect x="32" y="29" width="1" height="1" fill="#231f20"/>
    <rect x="38" y="29" width="1" height="1" fill="#231f20"/>
    <rect x="59" y="29" width="1" height="1" fill="#231f20"/>
    <rect x="0" y="30" width="1" height="1" fill="#231f20"/>
    <rect x="20" y="30" width="1" height="1" fill="#231f20"/>
    <rect x="26" y="30" width="1" height="1" fill="#231f20"/>
    <rect x="32" y="30" width="1" height="1" fill="#231f20"/>
    <rect x="38" y="30" width="1" height="1" fill="#231f20"/>
    <rect x="59" y="30" width="1" height="1" fill="#231f20"/>
    <rect x="0" y="31" width="1" height="1" fill="#231f20"/>
    <rect x="20" y="31" width="1" height="1" fill="#231f20"/>
    <rect x="26" y="31" width="1" height="1" fill="#231f20"/>
    <rect x="32" y="31" width="1" height="1" fill="#231f20"/>
    <rect x="38" y="31" width="1" height="1" fill="#231f20"/>
    <rect x="59" y="31" width="1" height="1" fill="#231f20"/>
    <rect x="0" y="32" width="1" height="1" fill="#231f20"/>
    <rect x="20" y="32" width="1" height="1" fill="#231f20"/>
    <rect x="26" y="32" width="1" height="1" fill="#231f20"/>
    <rect x="32" y="32" width="1" height="1" fill="#231f20"/>
    <rect x="38" y="32" width="1" height="1" fill="#231f20"/>
    <rect x="59" y="32" width="1" height="1" fill="#231f20"/>
    <rect x="0" y="33" width="1" height="1" fill="#231f20"/>
    <rect x="20" y="33" width="1" height="1" fill="#231f20"/>
    <rect x="26" y="33" width="1" height="1" fill="#231f20"/>
    <rect x="32" y="33" width="1" height="1" fill="#231f20"/>
    <rect x="38" y="33" width="1" height="1" fill="#231f20"/>
    <rect x="59" y="33" width="1" height="1" fill="#231f20"/>
    <rect x="0" y="34" width="1" height="1" fill="#231f20"/>
    <rect x="20" y="34" width="1" height="1" fill="#231f20"/>
    <rect x="26" y="34" width="1" height="1" fill="#231f20"/>
    <rect x="32" y="34" width="1" height="1" fill="#231f20"/>
    <rect x="38" y="34" width="1" height="1" fill="#231f20"/>
    <rect x="59" y="34" width="1" height="1" fill="#231f20"/>
    <rect x="0" y="35" width="1" height="1" fill="#231f20"/>
    <rect x="20" y="35" width="1" height="1" fill="#231f20"/>
    <rect x="26" y="35" width="1" height="1" fill="#231f20"/>
    <rect x="32" y="35" width="1" height="1" fill="#231f20"/>
    <rect x="38" y="35" width="1" height="1" fill="#231f20"/>
    <rect x="59" y="35" width="1" height="1" fill="#231f20"/>
    <rect x="0" y="36" width="1" height="1" fill="#231f20"/>
    <rect x="20" y="36" width="1" height="1" fill="#231f20"/>
    <rect x="26" y="36" width="1" height="1" fill="#231f20"/>
    <rect x="32" y="36" width="1" height="1" fill="#231f20"/>
    <rect x="38" y="36" width="1" height="1" fill="#231f20"/>
    <rect x="59" y="36" width="1" height="1" fill="#231f20"/>
    <rect x="0" y="37" width="1" height="1" fill="#231f20"/>
    <rect x="20" y="37" width="1" height="1" fill="#231f20"/>
    <rect x="26" y="37" width="1" height="1" fill="#231f20"/>
    <rect x="32" y="37" width="1" height="1" fill="#231f20"/>
    <rect x="38" y="37" width="1" height="1" fill="#231f20"/>
    <rect x="59" y="37" width="1" height="1" fill="#231f20"/>
    <rect x="0" y="38" width="1" height="1" fill="#231f20"/>
    <rect x="20" y="38" width="1" height="1" fill="#231f20"/>
    <rect x="26" y="38" width="1" height="1" fill="#231f20"/>
    <rect x="32" y="38" width="1" height="1" fill="#231f20"/>
    <rect x="38" y="38" width="1" height="1" fill="#231f20"/>
    <rect x="59" y="38" width="1" height="1" fill="#231f20"/>
    <rect x="0" y="39" width="1" height="1" fill="#231f20"/>
    <rect x="20" y="39" width="1" height="1" fill="#231f20"/>
    <rect x="26" y="39" width="1" height="1" fill="#231f20"/>
    <rect x="32" y="39" width="1" height="1" fill="#231f20"/>
    <rect x="38" y="39" width="1" height="1" fill="#231f20"/>
    <rect x="59" y="39" width="1" height="1" fill="#231f20"/>
    <rect x="0" y="40" width="1" height="1" fill="#231f20"/>
    <rect x="20" y="40" width="1" height="1" fill="#231f20"/>
    <rect x="26" y="40" width="1" height="1" fill="#231f20"/>
    <rect x="32" y="40" width="1" height="1" fill="#231f20"/>
    <rect x="38" y="40" width="1" height="1" fill="#231f20"/>
    <rect x="59" y="40" width="1" height="1" fill="#231f20"/>
    <rect x="0" y="41" width="1" height="1" fill="#231f20"/>
    <rect x="20" y="41" width="1" height="1" fill="#231f20"/>
    <rect x="26" y="41" width="1" height="1" fill="#231f20"/>
    <rect x="32" y="41" width="1" height="1" fill="#231f20"/>
    <rect x="38" y="41" width="1" height="1" fill="#231f20"/>
    <rect x="59" y="41" width="1" height="1" fill="#231f20"/>
    <rect x="0" y="42" width="1" height="1" fill="#231f20"/>
    <rect x="20" y="42" width="1" height="1" fill="#231f20"/>
    <rect x="26" y="42" width="1" height="1" fill="#231f20"/>
    <rect x="32" y="42" width="1" height="1" fill="#231f20"/>
    <rect x="38" y="42" width="1" height="1" fill="#231f20"/>
    <rect x="59" y="42" width="1" height="1" fill="#231f20"/>
    <rect x="0" y="43" width="1" height="1" fill="#231f20"/>
    <rect x="20" y="43" width="1" height="1" fill="#231f20"/>
    <rect x="26" y="43" width="1" height="1" fill="#231f20"/>
    <rect x="32" y="43" width="1" height="1" fill="#231f20"/>
    <rect x="38" y="43" width="1" height="1" fill="#231f20"/>
    <rect x="59" y="43" width="1" height="1" fill="#231f20"/>
    <rect x="0" y="44" width="1" height="1" fill="#231f20"/>
    <rect x="20" y="44" width="1" height="1" fill="#231f20"/>
    <rect x="26" y="44" width="1" height="1" fill="#231f20"/>
    <rect x="32" y="44" width="1" height="1" fill="#231f20"/>
    <rect x="38" y="44" width="1" height="1" fill="#231f20"/>
    <rect x="59" y="44" width="1" height="1" fill="#231f20"/>
    <rect x="0" y="45" width="1" height="1" fill="#231f20"/>
    <rect x="20" y="45" width="1" height="1" fill="#231f20"/>
    <rect x="26" y="45" width="1" height="1" fill="#231f20"/>
    <rect x="32" y="45" width="1" height="1" fill="#231f20"/>
    <rect x="38" y="45" width="1" height="1" fill="#231f20"/>
    <rect x="59" y="45" width="1" height="1" fill="#231f20"/>
    <rect x="0" y="46" width="1" height="1" fill="#231f20"/>
    <rect x="20" y="46" width="1" height="1" fill="#231f20"/>
    <rect x="26" y="46" width="1" height="1" fill="#231f20"/>
    <rect x="32" y="46" width="1" height="1" fill="#231f20"/>
    <rect x="38" y="46" width="1" height="1" fill="#231f20"/>
    <rect x="59" y="46" width="1" height="1" fill="#231f20"/>
    <rect x="0" y="47" width="1" height="1" fill="#231f20"/>
    <rect x="20" y="47" width="1" height="1" fill="#231f20"/>
    <rect x="26" y="47" width="1" height="1" fill="#231f20"/>
    <rect x="32" y="47" width="1" height="1" fill="#231f20"/>
    <rect x="38" y="47" width="1" height="1" fill="#231f20"/>
    <rect x="59" y="47" width="1" height="1" fill="#231f20"/>
    <rect x="0" y="48" width="60" height="1" fill="#231f20"/>
  </g>
</svg>