<?xml version="1.0" encoding="UTF-8"?>
<svg xmlns="http://www.w3.org/2000/svg" viewBox="0 0 84 83" width="84" height="83">
  <!-- Auto-converted from legend-1965.png -->
  <rect x="0" y="0" width="84" height="83" fill="none"/>
  <g fill="#231f20" stroke="none">
    <rect x="0" y="0" width="84" height="1" fill="#231f20"/>
    <rect x="0" y="1" width="1" height="1" fill="#231f20"/>
    <rect x="83" y="1" width="1" height="1" fill="#231f20"/>
    <rect x="0" y="2" width="1" height="1" fill="#231f20"/>
    <rect x="83" y="2" width="1" height="1" fill="#231f20"/>
    <rect x="0" y="3" width="1" height="1" fill="#231f20"/>
    <rect x="83" y="3" width="1" height="1" fill="#231f20"/>
    <rect x="0" y="4" width="1" height="1" fill="#231f20"/>
    <rect x="83" y="4" width="1" height="1" fill="#231f20"/>
    <rect x="0" y="5" width="1" height="1" fill="#231f20"/>
    <rect x="83" y="5" width="1" height="1" fill="#231f20"/>
    <rect x="0" y="6" width="1" height="1" fill="#231f20"/>
    <rect x="83" y="6" width="1" height="1" fill="#231f20"/>
    <rect x="0" y="7" width="1" height="1" fill="#231f20"/>
    <rect x="83" y="7" width="1" height="1" fill="#231f20"/>
    <rect x="0" y="8" width="1" height="1" fill="#231f20"/>
    <rect x="83" y="8" width="1" height="1" fill="#231f20"/>
    <rect x="0" y="9" width="1" height="1" fill="#231f20"/>
    <rect x="83" y="9" width="1" height="1" fill="#231f20"/>
    <rect x="0" y="10" width="1" height="1" fill="#231f20"/>
    <rect x="83" y="10" width="1" height="1" fill="#231f20"/>
    <rect x="0" y="11" width="1" height="1" fill="#231f20"/>
    <rect x="83" y="11" width="1" height="1" fill="#231f20"/>
    <rect x="0" y="12" width="1" height="1" fill="#231f20"/>
    <rect x="45" y="12" width="11" height="1" fill="#231f20"/>
    <rect x="83" y="12" width="1" height="1" fill="#231f20"/>
    <rect x="0" y="13" width="1" height="1" fill="#231f20"/>
    <rect x="44" y="13" width="13" height="1" fill="#231f20"/>
    <rect x="83" y="13" width="1" height="1" fill="#231f20"/>
    <rect x="0" y="14" width="1" height="1" fill="#231f20"/>
    <rect x="43" y="14" width="15" height="1" fill="#231f20"/>
    <rect x="83" y="14" width="1" height="1" fill="#231f20"/>
    <rect x="0" y="15" width="1" height="1" fill="#231f20"/>
    <rect x="42" y="15" width="5" height="1" fill="#231f20"/>
    <rect x="54" y="15" width="5" height="1" fill="#231f20"/>
    <rect x="83" y="15" width="1" height="1" fill="#231f20"/>
    <rect x="0" y="16" width="1" height="1" fill="#231f20"/>
    <rect x="41" y="16" width="5" height="1" fill="#231f20"/>
    <rect x="55" y="16" width="5" height="1" fill="#231f20"/>
    <rect x="83" y="16" width="1" height="1" fill="#231f20"/>
    <rect x="0" y="17" width="1" height="1" fill="#231f20"/>
    <rect x="40" y="17" width="5" height="1" fill="#231f20"/>
    <rect x="56" y="17" width="4" height="1" fill="#231f20"/>
    <rect x="83" y="17" width="1" height="1" fill="#231f20"/>
    <rect x="0" y="18" width="1" height="1" fill="#231f20"/>
    <rect x="39" y="18" width="5" height="1" fill="#231f20"/>
    <rect x="57" y="18" width="4" height="1" fill="#231f20"/>
    <rect x="83" y="18" width="1" height="1" fill="#231f20"/>
    <rect x="0" y="19" width="1" height="1" fill="#231f20"/>
    <rect x="38" y="19" width="5" height="1" fill="#231f20"/>
    <rect x="57" y="19" width="5" height="1" fill="#231f20"/>
    <rect x="83" y="19" width="1" height="1" fill="#231f20"/>
    <rect x="0" y="20" width="1" height="1" fill="#231f20"/>
    <rect x="29" y="20" width="13" height="1" fill="#231f20"/>
    <rect x="58" y="20" width="5" height="1" fill="#231f20"/>
    <rect x="83" y="20" width="1" height="1" fill="#231f20"/>
    <rect x="0" y="21" width="1" height="1" fill="#231f20"/>
    <rect x="28" y="21" width="14" height="1" fill="#231f20"/>
    <rect x="59" y="21" width="4" height="1" fill="#231f20"/>
    <rect x="83" y="21" width="1" height="1" fill="#231f20"/>
    <rect x="0" y="22" width="1" height="1" fill="#231f20"/>
    <rect x="27" y="22" width="16" height="1" fill="#231f20"/>
    <rect x="58" y="22" width="5" height="1" fill="#231f20"/>
    <rect x="83" y="22" width="1" height="1" fill="#231f20"/>
    <rect x="0" y="23" width="1" height="1" fill="#231f20"/>
    <rect x="26" y="23" width="5" height="1" fill="#231f20"/>
    <rect x="38" y="23" width="6" height="1" fill="#231f20"/>
    <rect x="57" y="23" width="6" height="1" fill="#231f20"/>
    <rect x="83" y="23" width="1" height="1" fill="#231f20"/>
    <rect x="0" y="24" width="1" height="1" fill="#231f20"/>
    <rect x="25" y="24" width="5" height="1" fill="#231f20"/>
    <rect x="39" y="24" width="7" height="1" fill="#231f20"/>
    <rect x="56" y="24" width="7" height="1" fill="#231f20"/>
    <rect x="83" y="24" width="1" height="1" fill="#231f20"/>
    <rect x="0" y="25" width="1" height="1" fill="#231f20"/>
    <rect x="24" y="25" width="5" height="1" fill="#231f20"/>
    <rect x="40" y="25" width="7" height="1" fill="#231f20"/>
    <rect x="55" y="25" width="8" height="1" fill="#231f20"/>
    <rect x="83" y="25" width="1" height="1" fill="#231f20"/>
    <rect x="0" y="26" width="1" height="1" fill="#231f20"/>
    <rect x="23" y="26" width="5" height="1" fill="#231f20"/>
    <rect x="41" y="26" width="7" height="1" fill="#231f20"/>
    <rect x="54" y="26" width="5" height="1" fill="#231f20"/>
    <rect x="60" y="26" width="3" height="1" fill="#231f20"/>
    <rect x="83" y="26" width="1" height="1" fill="#231f20"/>
    <rect x="0" y="27" width="1" height="1" fill="#231f20"/>
    <rect x="22" y="27" width="5" height="1" fill="#231f20"/>
    <rect x="43" y="27" width="15" height="1" fill="#231f20"/>
    <rect x="60" y="27" width="3" height="1" fill="#231f20"/>
    <rect x="83" y="27" width="1" height="1" fill="#231f20"/>
    <rect x="0" y="28" width="1" height="1" fill="#231f20"/>
    <rect x="22" y="28" width="4" height="1" fill="#231f20"/>
    <rect x="43" y="28" width="14" height="1" fill="#231f20"/>
    <rect x="60" y="28" width="3" height="1" fill="#231f20"/>
    <rect x="83" y="28" width="1" height="1" fill="#231f20"/>
    <rect x="0" y="29" width="1" height="1" fill="#231f20"/>
    <rect x="22" y="29" width="5" height="1" fill="#231f20"/>
    <rect x="42" y="29" width="14" height="1" fill="#231f20"/>
    <rect x="60" y="29" width="3" height="1" fill="#231f20"/>
    <rect x="83" y="29" width="1" height="1" fill="#231f20"/>
    <rect x="0" y="30" width="1" height="1" fill="#231f20"/>
    <rect x="22" y="30" width="6" height="1" fill="#231f20"/>
    <rect x="41" y="30" width="7" height="1" fill="#231f20"/>
    <rect x="53" y="30" width="3" height="1" fill="#231f20"/>
    <rect x="60" y="30" width="3" height="1" fill="#231f20"/>
    <rect x="83" y="30" width="1" height="1" fill="#231f20"/>
    <rect x="0" y="31" width="1" height="1" fill="#231f20"/>
    <rect x="22" y="31" width="7" height="1" fill="#231f20"/>
    <rect x="40" y="31" width="8" height="1" fill="#231f20"/>
    <rect x="53" y="31" width="3" height="1" fill="#231f20"/>
    <rect x="60" y="31" width="3" height="1" fill="#231f20"/>
    <rect x="83" y="31" width="1" height="1" fill="#231f20"/>
    <rect x="0" y="32" width="1" height="1" fill="#231f20"/>
    <rect x="22" y="32" width="8" height="1" fill="#231f20"/>
    <rect x="39" y="32" width="5" height="1" fill="#231f20"/>
    <rect x="45" y="32" width="3" height="1" fill="#231f20"/>
    <rect x="53" y="32" width="3" height="1" fill="#231f20"/>
    <rect x="60" y="32" width="3" height="1" fill="#231f20"/>
    <rect x="83" y="32" width="1" height="1" fill="#231f20"/>
    <rect x="0" y="33" width="1" height="1" fill="#231f20"/>
    <rect x="22" y="33" width="3" height="1" fill="#231f20"/>
    <rect x="26" y="33" width="5" height="1" fill="#231f20"/>
    <rect x="38" y="33" width="5" height="1" fill="#231f20"/>
    <rect x="45" y="33" width="3" height="1" fill="#231f20"/>
    <rect x="53" y="33" width="3" height="1" fill="#231f20"/>
    <rect x="60" y="33" width="3" height="1" fill="#231f20"/>
    <rect x="83" y="33" width="1" height="1" fill="#231f20"/>
    <rect x="0" y="34" width="1" height="1" fill="#231f20"/>
    <rect x="22" y="34" width="3" height="1" fill="#231f20"/>
    <rect x="27" y="34" width="15" height="1" fill="#231f20"/>
    <rect x="45" y="34" width="3" height="1" fill="#231f20"/>
    <rect x="53" y="34" width="3" height="1" fill="#231f20"/>
    <rect x="60" y="34" width="3" height="1" fill="#231f20"/>
    <rect x="83" y="34" width="1" height="1" fill="#231f20"/>
    <rect x="0" y="35" width="1" height="1" fill="#231f20"/>
    <rect x="22" y="35" width="3" height="1" fill="#231f20"/>
    <rect x="28" y="35" width="13" height="1" fill="#231f20"/>
    <rect x="45" y="35" width="3" height="1" fill="#231f20"/>
    <rect x="53" y="35" width="3" height="1" fill="#231f20"/>
    <rect x="60" y="35" width="3" height="1" fill="#231f20"/>
    <rect x="83" y="35" width="1" height="1" fill="#231f20"/>
    <rect x="0" y="36" width="1" height="1" fill="#231f20"/>
    <rect x="22" y="36" width="3" height="1" fill="#231f20"/>
    <rect x="29" y="36" width="11" height="1" fill="#231f20"/>
    <rect x="45" y="36" width="3" height="1" fill="#231f20"/>
    <rect x="53" y="36" width="3" height="1" fill="#231f20"/>
    <rect x="60" y="36" width="3" height="1" fill="#231f20"/>
    <rect x="83" y="36" width="1" height="1" fill="#231f20"/>
    <rect x="0" y="37" width="1" height="1" fill="#231f20"/>
    <rect x="22" y="37" width="3" height="1" fill="#231f20"/>
    <rect x="29" y="37" width="3" height="1" fill="#231f20"/>
    <rect x="37" y="37" width="3" height="1" fill="#231f20"/>
    <rect x="45" y="37" width="3" height="1" fill="#231f20"/>
    <rect x="53" y="37" width="3" height="1" fill="#231f20"/>
    <rect x="60" y="37" width="3" height="1" fill="#231f20"/>
    <rect x="83" y="37" width="1" height="1" fill="#231f20"/>
    <rect x="0" y="38" width="1" height="1" fill="#231f20"/>
    <rect x="22" y="38" width="3" height="1" fill="#231f20"/>
    <rect x="29" y="38" width="3" height="1" fill="#231f20"/>
    <rect x="37" y="38" width="3" height="1" fill="#231f20"/>
    <rect x="45" y="38" width="3" height="1" fill="#231f20"/>
    <rect x="53" y="38" width="3" height="1" fill="#231f20"/>
    <rect x="60" y="38" width="3" height="1" fill="#231f20"/>
    <rect x="83" y="38" width="1" height="1" fill="#231f20"/>
    <rect x="0" y="39" width="1" height="1" fill="#231f20"/>
    <rect x="22" y="39" width="3" height="1" fill="#231f20"/>
    <rect x="29" y="39" width="3" height="1" fill="#231f20"/>
    <rect x="37" y="39" width="3" height="1" fill="#231f20"/>
    <rect x="45" y="39" width="3" height="1" fill="#231f20"/>
    <rect x="53" y="39" width="3" height="1" fill="#231f20"/>
    <rect x="60" y="39" width="3" height="1" fill="#231f20"/>
    <rect x="83" y="39" width="1" height="1" fill="#231f20"/>
    <rect x="0" y="40" width="1" height="1" fill="#231f20"/>
    <rect x="22" y="40" width="3" height="1" fill="#231f20"/>
    <rect x="29" y="40" width="3" height="1" fill="#231f20"/>
    <rect x="37" y="40" width="3" height="1" fill="#231f20"/>
    <rect x="45" y="40" width="3" height="1" fill="#231f20"/>
    <rect x="53" y="40" width="3" height="1" fill="#231f20"/>
    <rect x="60" y="40" width="3" height="1" fill="#231f20"/>
    <rect x="83" y="40" width="1" height="1" fill="#231f20"/>
    <rect x="0" y="41" width="1" height="1" fill="#231f20"/>
    <rect x="22" y="41" width="3" height="1" fill="#231f20"/>
    <rect x="29" y="41" width="3" height="1" fill="#231f20"/>
    <rect x="37" y="41" width="3" height="1" fill="#231f20"/>
    <rect x="45" y="41" width="3" height="1" fill="#231f20"/>
    <rect x="53" y="41" width="3" height="1" fill="#231f20"/>
    <rect x="60" y="41" width="3" height="1" fill="#231f20"/>
    <rect x="83" y="41" width="1" height="1" fill="#231f20"/>
    <rect x="0" y="42" width="1" height="1" fill="#231f20"/>
    <rect x="22" y="42" width="3" height="1" fill="#231f20"/>
    <rect x="29" y="42" width="3" height="1" fill="#231f20"/>
    <rect x="37" y="42" width="3" height="1" fill="#231f20"/>
    <rect x="45" y="42" width="3" height="1" fill="#231f20"/>
    <rect x="53" y="42" width="3" height="1" fill="#231f20"/>
    <rect x="60" y="42" width="3" height="1" fill="#231f20"/>
    <rect x="83" y="42" width="1" height="1" fill="#231f20"/>
    <rect x="0" y="43" width="1" height="1" fill="#231f20"/>
    <rect x="22" y="43" width="3" height="1" fill="#231f20"/>
    <rect x="29" y="43" width="3" height="1" fill="#231f20"/>
    <rect x="37" y="43" width="3" height="1" fill="#231f20"/>
    <rect x="45" y="43" width="3" height="1" fill="#231f20"/>
    <rect x="53" y="43" width="3" height="1" fill="#231f20"/>
    <rect x="60" y="43" width="3" height="1" fill="#231f20"/>
    <rect x="83" y="43" width="1" height="1" fill="#231f20"/>
    <rect x="0" y="44" width="1" height="1" fill="#231f20"/>
    <rect x="22" y="44" width="3" height="1" fill="#231f20"/>
    <rect x="29" y="44" width="3" height="1" fill="#231f20"/>
    <rect x="37" y="44" width="3" height="1" fill="#231f20"/>
    <rect x="45" y="44" width="3" height="1" fill="#231f20"/>
    <rect x="53" y="44" width="3" height="1" fill="#231f20"/>
    <rect x="60" y="44" width="3" height="1" fill="#231f20"/>
    <rect x="83" y="44" width="1" height="1" fill="#231f20"/>
    <rect x="0" y="45" width="1" height="1" fill="#231f20"/>
    <rect x="22" y="45" width="3" height="1" fill="#231f20"/>
    <rect x="29" y="45" width="3" height="1" fill="#231f20"/>
    <rect x="37" y="45" width="3" height="1" fill="#231f20"/>
    <rect x="45" y="45" width="3" height="1" fill="#231f20"/>
    <rect x="53" y="45" width="3" height="1" fill="#231f20"/>
    <rect x="60" y="45" width="3" height="1" fill="#231f20"/>
    <rect x="83" y="45" width="1" height="1" fill="#231f20"/>
    <rect x="0" y="46" width="1" height="1" fill="#231f20"/>
    <rect x="22" y="46" width="3" height="1" fill="#231f20"/>
    <rect x="29" y="46" width="3" height="1" fill="#231f20"/>
    <rect x="37" y="46" width="3" height="1" fill="#231f20"/>
    <rect x="45" y="46" width="3" height="1" fill="#231f20"/>
    <rect x="53" y="46" width="3" height="1" fill="#231f20"/>
    <rect x="60" y="46" width="3" height="1" fill="#231f20"/>
    <rect x="83" y="46" width="1" height="1" fill="#231f20"/>
    <rect x="0" y="47" width="1" height="1" fill="#231f20"/>
    <rect x="22" y="47" width="3" height="1" fill="#231f20"/>
    <rect x="29" y="47" width="3" height="1" fill="#231f20"/>
    <rect x="37" y="47" width="3" height="1" fill="#231f20"/>
    <rect x="45" y="47" width="3" height="1" fill="#231f20"/>
    <rect x="53" y="47" width="3" height="1" fill="#231f20"/>
    <rect x="60" y="47" width="3" height="1" fill="#231f20"/>
    <rect x="83" y="47" width="1" height="1" fill="#231f20"/>
    <rect x="0" y="48" width="1" height="1" fill="#231f20"/>
    <rect x="22" y="48" width="3" height="1" fill="#231f20"/>
    <rect x="29" y="48" width="3" height="1" fill="#231f20"/>
    <rect x="37" y="48" width="3" height="1" fill="#231f20"/>
    <rect x="45" y="48" width="3" height="1" fill="#231f20"/>
    <rect x="53" y="48" width="3" height="1" fill="#231f20"/>
    <rect x="60" y="48" width="3" height="1" fill="#231f20"/>
    <rect x="83" y="48" width="1" height="1" fill="#231f20"/>
    <rect x="0" y="49" width="1" height="1" fill="#231f20"/>
    <rect x="22" y="49" width="3" height="1" fill="#231f20"/>
    <rect x="29" y="49" width="3" height="1" fill="#231f20"/>
    <rect x="37" y="49" width="3" height="1" fill="#231f20"/>
    <rect x="45" y="49" width="3" height="1" fill="#231f20"/>
    <rect x="53" y="49" width="3" height="1" fill="#231f20"/>
    <rect x="60" y="49" width="3" height="1" fill="#231f20"/>
    <rect x="83" y="49" width="1" height="1" fill="#231f20"/>
    <rect x="0" y="50" width="1" height="1" fill="#231f20"/>
    <rect x="22" y="50" width="3" height="1" fill="#231f20"/>
    <rect x="29" y="50" width="3" height="1" fill="#231f20"/>
    <rect x="37" y="50" width="3" height="1" fill="#231f20"/>
    <rect x="45" y="50" width="3" height="1" fill="#231f20"/>
    <rect x="53" y="50" width="3" height="1" fill="#231f20"/>
    <rect x="60" y="50" width="3" height="1" fill="#231f20"/>
    <rect x="83" y="50" width="1" height="1" fill="#231f20"/>
    <rect x="0" y="51" width="1" height="1" fill="#231f20"/>
    <rect x="22" y="51" width="3" height="1" fill="#231f20"/>
    <rect x="29" y="51" width="3" height="1" fill="#231f20"/>
    <rect x="37" y="51" width="3" height="1" fill="#231f20"/>
    <rect x="45" y="51" width="3" height="1" fill="#231f20"/>
    <rect x="53" y="51" width="3" height="1" fill="#231f20"/>
    <rect x="60" y="51" width="3" height="1" fill="#231f20"/>
    <rect x="83" y="51" width="1" height="1" fill="#231f20"/>
    <rect x="0" y="52" width="1" height="1" fill="#231f20"/>
    <rect x="22" y="52" width="3" height="1" fill="#231f20"/>
    <rect x="29" y="52" width="3" height="1" fill="#231f20"/>
    <rect x="37" y="52" width="3" height="1" fill="#231f20"/>
    <rect x="45" y="52" width="3" height="1" fill="#231f20"/>
    <rect x="53" y="52" width="3" height="1" fill="#231f20"/>
    <rect x="60" y="52" width="3" height="1" fill="#231f20"/>
    <rect x="83" y="52" width="1" height="1" fill="#231f20"/>
    <rect x="0" y="53" width="1" height="1" fill="#231f20"/>
    <rect x="22" y="53" width="3" height="1" fill="#231f20"/>
    <rect x="29" y="53" width="3" height="1" fill="#231f20"/>
    <rect x="37" y="53" width="3" height="1" fill="#231f20"/>
    <rect x="45" y="53" width="3" height="1" fill="#231f20"/>
    <rect x="53" y="53" width="3" height="1" fill="#231f20"/>
    <rect x="60" y="53" width="3" height="1" fill="#231f20"/>
    <rect x="83" y="53" width="1" height="1" fill="#231f20"/>
    <rect x="0" y="54" width="1" height="1" fill="#231f20"/>
    <rect x="22" y="54" width="3" height="1" fill="#231f20"/>
    <rect x="29" y="54" width="3" height="1" fill="#231f20"/>
    <rect x="37" y="54" width="3" height="1" fill="#231f20"/>
    <rect x="45" y="54" width="3" height="1" fill="#231f20"/>
    <rect x="53" y="54" width="3" height="1" fill="#231f20"/>
    <rect x="60" y="54" width="3" height="1" fill="#231f20"/>
    <rect x="83" y="54" width="1" height="1" fill="#231f20"/>
    <rect x="0" y="55" width="1" height="1" fill="#231f20"/>
    <rect x="22" y="55" width="3" height="1" fill="#231f20"/>
    <rect x="29" y="55" width="3" height="1" fill="#231f20"/>
    <rect x="37" y="55" width="3" height="1" fill="#231f20"/>
    <rect x="45" y="55" width="3" height="1" fill="#231f20"/>
    <rect x="53" y="55" width="3" height="1" fill="#231f20"/>
    <rect x="60" y="55" width="3" height="1" fill="#231f20"/>
    <rect x="83" y="55" width="1" height="1" fill="#231f20"/>
    <rect x="0" y="56" width="1" height="1" fill="#231f20"/>
    <rect x="22" y="56" width="3" height="1" fill="#231f20"/>
    <rect x="29" y="56" width="3" height="1" fill="#231f20"/>
    <rect x="37" y="56" width="3" height="1" fill="#231f20"/>
    <rect x="45" y="56" width="3" height="1" fill="#231f20"/>
    <rect x="53" y="56" width="3" height="1" fill="#231f20"/>
    <rect x="60" y="56" width="3" height="1" fill="#231f20"/>
    <rect x="83" y="56" width="1" height="1" fill="#231f20"/>
    <rect x="0" y="57" width="1" height="1" fill="#231f20"/>
    <rect x="22" y="57" width="3" height="1" fill="#231f20"/>
    <rect x="29" y="57" width="3" height="1" fill="#231f20"/>
    <rect x="37" y="57" width="3" height="1" fill="#231f20"/>
    <rect x="45" y="57" width="3" height="1" fill="#231f20"/>
    <rect x="53" y="57" width="3" height="1" fill="#231f20"/>
    <rect x="60" y="57" width="3" height="1" fill="#231f20"/>
    <rect x="83" y="57" width="1" height="1" fill="#231f20"/>
    <rect x="0" y="58" width="1" height="1" fill="#231f20"/>
    <rect x="22" y="58" width="3" height="1" fill="#231f20"/>
    <rect x="29" y="58" width="3" height="1" fill="#231f20"/>
    <rect x="37" y="58" width="3" height="1" fill="#231f20"/>
    <rect x="45" y="58" width="3" height="1" fill="#231f20"/>
    <rect x="53" y="58" width="3" height="1" fill="#231f20"/>
    <rect x="61" y="58" width="1" height="1" fill="#231f20"/>
    <rect x="83" y="58" width="1" height="1" fill="#231f20"/>
    <rect x="0" y="59" width="1" height="1" fill="#231f20"/>
    <rect x="22" y="59" width="3" height="1" fill="#231f20"/>
    <rect x="29" y="59" width="3" height="1" fill="#231f20"/>
    <rect x="37" y="59" width="3" height="1" fill="#231f20"/>
    <rect x="45" y="59" width="3" height="1" fill="#231f20"/>
    <rect x="54" y="59" width="1" height="1" fill="#231f20"/>
    <rect x="83" y="59" width="1" height="1" fill="#231f20"/>
    <rect x="0" y="60" width="1" height="1" fill="#231f20"/>
    <rect x="22" y="60" width="3" height="1" fill="#231f20"/>
    <rect x="29" y="60" width="3" height="1" fill="#231f20"/>
    <rect x="37" y="60" width="3" height="1" fill="#231f20"/>
    <rect x="45" y="60" width="3" height="1" fill="#231f20"/>
    <rect x="83" y="60" width="1" height="1" fill="#231f20"/>
    <rect x="0" y="61" width="1" height="1" fill="#231f20"/>
    <rect x="22" y="61" width="3" height="1" fill="#231f20"/>
    <rect x="29" y="61" width="3" height="1" fill="#231f20"/>
    <rect x="37" y="61" width="3" height="1" fill="#231f20"/>
    <rect x="46" y="61" width="1" height="1" fill="#231f20"/>
    <rect x="83" y="61" width="1" height="1" fill="#231f20"/>
    <rect x="0" y="62" width="1" height="1" fill="#231f20"/>
    <rect x="22" y="62" width="3" height="1" fill="#231f20"/>
    <rect x="29" y="62" width="3" height="1" fill="#231f20"/>
    <rect x="38" y="62" width="1" height="1" fill="#231f20"/>
    <rect x="83" y="62" width="1" height="1" fill="#231f20"/>
    <rect x="0" y="63" width="1" height="1" fill="#231f20"/>
    <rect x="22" y="63" width="3" height="1" fill="#231f20"/>
    <rect x="29" y="63" width="3" height="1" fill="#231f20"/>
    <rect x="83" y="63" width="1" height="1" fill="#231f20"/>
    <rect x="0" y="64" width="1" height="1" fill="#231f20"/>
    <rect x="22" y="64" width="3" height="1" fill="#231f20"/>
    <rect x="30" y="64" width="1" height="1" fill="#231f20"/>
    <rect x="83" y="64" width="1" height="1" fill="#231f20"/>
    <rect x="0" y="65" width="1" height="1" fill="#231f20"/>
    <rect x="23" y="65" width="1" height="1" fill="#231f20"/>
    <rect x="83" y="65" width="1" height="1" fill="#231f20"/>
    <rect x="0" y="66" width="1" height="1" fill="#231f20"/>
    <rect x="83" y="66" width="1" height="1" fill="#231f20"/>
    <rect x="0" y="67" width="1" height="1" fill="#231f20"/>
    <rect x="83" y="67" width="1" height="1" fill="#231f20"/>
    <rect x="0" y="68" width="1" height="1" fill="#231f20"/>
    <rect x="83" y="68" width="1" height="1" fill="#231f20"/>
    <rect x="0" y="69" width="1" height="1" fill="#231f20"/>
    <rect x="83" y="69" width="1" height="1" fill="#231f20"/>
    <rect x="0" y="70" width="1" height="1" fill="#231f20"/>
    <rect x="83" y="70" width="1" height="1" fill="#231f20"/>
    <rect x="0" y="71" width="1" height="1" fill="#231f20"/>
    <rect x="83" y="71" width="1" height="1" fill="#231f20"/>
    <rect x="0" y="72" width="1" height="1" fill="#231f20"/>
    <rect x="83" y="72" width="1" height="1" fill="#231f20"/>
    <rect x="0" y="73" width="1" height="1" fill="#231f20"/>
    <rect x="83" y="73" width="1" height="1" fill="#231f20"/>
    <rect x="0" y="74" width="1" height="1" fill="#231f20"/>
    <rect x="83" y="74" width="1" height="1" fill="#231f20"/>
    <rect x="0" y="75" width="1" height="1" fill="#231f20"/>
    <rect x="83" y="75" width="1" height="1" fill="#231f20"/>
    <rect x="0" y="76" width="1" height="1" fill="#231f20"/>
    <rect x="83" y="76" width="1" height="1" fill="#231f20"/>
    <rect x="0" y="77" width="1" height="1" fill="#231f20"/>
    <rect x="83" y="77" width="1" height="1" fill="#231f20"/>
    <rect x="0" y="78" width="1" height="1" fill="#231f20"/>
    <rect x="83" y="78" width="1" height="1" fill="#231f20"/>
    <rect x="0" y="79" width="1" height="1" fill="#231f20"/>
    <rect x="83" y="79" width="1" height="1" fill="#231f20"/>
    <rect x="0" y="80" width="1" height="1" fill="#231f20"/>
    <rect x="83" y="80" width="1" height="1" fill="#231f20"/>
    <rect x="0" y="81" width="1" height="1" fill="#231f20"/>
    <rect x="83" y="81" width="1" height="1" fill="#231f20"/>
    <rect x="0" y="82" width="84" height="1" fill="#231f20"/>
  </g>
</svg>