<?xml version="1.0" encoding="UTF-8"?>
<svg xmlns="http://www.w3.org/2000/svg" viewBox="0 0 172 69" width="172" height="69">
  <!-- Auto-converted from legend-2680.png -->
  <rect x="0" y="0" width="172" height="69" fill="none"/>
  <g fill="#222b3f" stroke="none">
    <rect x="0" y="0" width="172" height="1" fill="#222b3f"/>
    <rect x="0" y="1" width="1" height="1" fill="#222b3f"/>
    <rect x="171" y="1" width="1" height="1" fill="#222b3f"/>
    <rect x="0" y="2" width="1" height="1" fill="#222b3f"/>
    <rect x="171" y="2" width="1" height="1" fill="#222b3f"/>
    <rect x="0" y="3" width="1" height="1" fill="#222b3f"/>
    <rect x="171" y="3" width="1" height="1" fill="#222b3f"/>
    <rect x="0" y="4" width="1" height="1" fill="#222b3f"/>
    <rect x="171" y="4" width="1" height="1" fill="#222b3f"/>
    <rect x="0" y="5" width="2" height="1" fill="#222b3f"/>
    <rect x="3" y="5" width="1" height="1" fill="#222b3f"/>
    <rect x="13" y="5" width="4" height="1" fill="#222b3f"/>
    <rect x="171" y="5" width="1" height="1" fill="#222b3f"/>
    <rect x="0" y="6" width="2" height="1" fill="#222b3f"/>
    <rect x="4" y="6" width="1" height="1" fill="#222b3f"/>
    <rect x="10" y="6" width="10" height="1" fill="#222b3f"/>
    <rect x="171" y="6" width="1" height="1" fill="#222b3f"/>
    <rect x="0" y="7" width="1" height="1" fill="#222b3f"/>
    <rect x="2" y="7" width="1" height="1" fill="#222b3f"/>
    <rect x="4" y="7" width="1" height="1" fill="#222b3f"/>
    <rect x="11" y="7" width="3" height="1" fill="#222b3f"/>
    <rect x="15" y="7" width="6" height="1" fill="#222b3f"/>
    <rect x="171" y="7" width="1" height="1" fill="#222b3f"/>
    <rect x="0" y="8" width="1" height="1" fill="#222b3f"/>
    <rect x="2" y="8" width="1" height="1" fill="#222b3f"/>
    <rect x="5" y="8" width="1" height="1" fill="#222b3f"/>
    <rect x="11" y="8" width="5" height="1" fill="#222b3f"/>
    <rect x="17" y="8" width="1" height="1" fill="#222b3f"/>
    <rect x="19" y="8" width="1" height="1" fill="#222b3f"/>
    <rect x="171" y="8" width="1" height="1" fill="#222b3f"/>
    <rect x="0" y="9" width="1" height="1" fill="#222b3f"/>
    <rect x="3" y="9" width="1" height="1" fill="#222b3f"/>
    <rect x="5" y="9" width="1" height="1" fill="#222b3f"/>
    <rect x="12" y="9" width="1" height="1" fill="#222b3f"/>
    <rect x="14" y="9" width="7" height="1" fill="#222b3f"/>
    <rect x="171" y="9" width="1" height="1" fill="#222b3f"/>
    <rect x="0" y="10" width="1" height="1" fill="#222b3f"/>
    <rect x="3" y="10" width="1" height="1" fill="#222b3f"/>
    <rect x="6" y="10" width="1" height="1" fill="#222b3f"/>
    <rect x="14" y="10" width="2" height="1" fill="#222b3f"/>
    <rect x="17" y="10" width="4" height="1" fill="#222b3f"/>
    <rect x="171" y="10" width="1" height="1" fill="#222b3f"/>
    <rect x="0" y="11" width="1" height="1" fill="#222b3f"/>
    <rect x="4" y="11" width="1" height="1" fill="#222b3f"/>
    <rect x="7" y="11" width="1" height="1" fill="#222b3f"/>
    <rect x="14" y="11" width="8" height="1" fill="#222b3f"/>
    <rect x="171" y="11" width="1" height="1" fill="#222b3f"/>
    <rect x="0" y="12" width="1" height="1" fill="#222b3f"/>
    <rect x="4" y="12" width="2" height="1" fill="#222b3f"/>
    <rect x="8" y="12" width="2" height="1" fill="#222b3f"/>
    <rect x="13" y="12" width="4" height="1" fill="#222b3f"/>
    <rect x="18" y="12" width="3" height="1" fill="#222b3f"/>
    <rect x="22" y="12" width="1" height="1" fill="#222b3f"/>
    <rect x="171" y="12" width="1" height="1" fill="#222b3f"/>
    <rect x="0" y="13" width="1" height="1" fill="#222b3f"/>
    <rect x="6" y="13" width="3" height="1" fill="#222b3f"/>
    <rect x="10" y="13" width="2" height="1" fill="#222b3f"/>
    <rect x="15" y="13" width="3" height="1" fill="#222b3f"/>
    <rect x="19" y="13" width="5" height="1" fill="#222b3f"/>
    <rect x="171" y="13" width="1" height="1" fill="#222b3f"/>
    <rect x="0" y="14" width="1" height="1" fill="#222b3f"/>
    <rect x="9" y="14" width="2" height="1" fill="#222b3f"/>
    <rect x="12" y="14" width="3" height="1" fill="#222b3f"/>
    <rect x="16" y="14" width="2" height="1" fill="#222b3f"/>
    <rect x="19" y="14" width="2" height="1" fill="#222b3f"/>
    <rect x="171" y="14" width="1" height="1" fill="#222b3f"/>
    <rect x="0" y="15" width="1" height="1" fill="#222b3f"/>
    <rect x="11" y="15" width="3" height="1" fill="#222b3f"/>
    <rect x="15" y="15" width="6" height="1" fill="#222b3f"/>
    <rect x="171" y="15" width="1" height="1" fill="#222b3f"/>
    <rect x="0" y="16" width="1" height="1" fill="#222b3f"/>
    <rect x="14" y="16" width="6" height="1" fill="#222b3f"/>
    <rect x="21" y="16" width="1" height="1" fill="#222b3f"/>
    <rect x="171" y="16" width="1" height="1" fill="#222b3f"/>
    <rect x="0" y="17" width="1" height="1" fill="#222b3f"/>
    <rect x="19" y="17" width="1" height="1" fill="#222b3f"/>
    <rect x="22" y="17" width="1" height="1" fill="#222b3f"/>
    <rect x="171" y="17" width="1" height="1" fill="#222b3f"/>
    <rect x="0" y="18" width="1" height="1" fill="#222b3f"/>
    <rect x="19" y="18" width="1" height="1" fill="#222b3f"/>
    <rect x="23" y="18" width="1" height="1" fill="#222b3f"/>
    <rect x="171" y="18" width="1" height="1" fill="#222b3f"/>
    <rect x="0" y="19" width="1" height="1" fill="#222b3f"/>
    <rect x="20" y="19" width="1" height="1" fill="#222b3f"/>
    <rect x="24" y="19" width="1" height="1" fill="#222b3f"/>
    <rect x="171" y="19" width="1" height="1" fill="#222b3f"/>
    <rect x="0" y="20" width="1" height="1" fill="#222b3f"/>
    <rect x="21" y="20" width="1" height="1" fill="#222b3f"/>
    <rect x="25" y="20" width="1" height="1" fill="#222b3f"/>
    <rect x="171" y="20" width="1" height="1" fill="#222b3f"/>
    <rect x="0" y="21" width="1" height="1" fill="#222b3f"/>
    <rect x="22" y="21" width="1" height="1" fill="#222b3f"/>
    <rect x="26" y="21" width="1" height="1" fill="#222b3f"/>
    <rect x="171" y="21" width="1" height="1" fill="#222b3f"/>
    <rect x="0" y="22" width="1" height="1" fill="#222b3f"/>
    <rect x="23" y="22" width="1" height="1" fill="#222b3f"/>
    <rect x="27" y="22" width="1" height="1" fill="#222b3f"/>
    <rect x="171" y="22" width="1" height="1" fill="#222b3f"/>
    <rect x="0" y="23" width="1" height="1" fill="#222b3f"/>
    <rect x="24" y="23" width="1" height="1" fill="#222b3f"/>
    <rect x="27" y="23" width="1" height="1" fill="#222b3f"/>
    <rect x="171" y="23" width="1" height="1" fill="#222b3f"/>
    <rect x="0" y="24" width="1" height="1" fill="#222b3f"/>
    <rect x="25" y="24" width="1" height="1" fill="#222b3f"/>
    <rect x="28" y="24" width="1" height="1" fill="#222b3f"/>
    <rect x="82" y="24" width="1" height="1" fill="#222b3f"/>
    <rect x="84" y="24" width="1" height="1" fill="#222b3f"/>
    <rect x="171" y="24" width="1" height="1" fill="#222b3f"/>
    <rect x="0" y="25" width="1" height="1" fill="#222b3f"/>
    <rect x="26" y="25" width="1" height="1" fill="#222b3f"/>
    <rect x="29" y="25" width="1" height="1" fill="#222b3f"/>
    <rect x="80" y="25" width="9" height="1" fill="#222b3f"/>
    <rect x="171" y="25" width="1" height="1" fill="#222b3f"/>
    <rect x="0" y="26" width="1" height="1" fill="#222b3f"/>
    <rect x="27" y="26" width="1" height="1" fill="#222b3f"/>
    <rect x="29" y="26" width="1" height="1" fill="#222b3f"/>
    <rect x="80" y="26" width="10" height="1" fill="#222b3f"/>
    <rect x="171" y="26" width="1" height="1" fill="#222b3f"/>
    <rect x="0" y="27" width="1" height="1" fill="#222b3f"/>
    <rect x="27" y="27" width="1" height="1" fill="#222b3f"/>
    <rect x="29" y="27" width="1" height="1" fill="#222b3f"/>
    <rect x="81" y="27" width="10" height="1" fill="#222b3f"/>
    <rect x="171" y="27" width="1" height="1" fill="#222b3f"/>
    <rect x="0" y="28" width="1" height="1" fill="#222b3f"/>
    <rect x="27" y="28" width="1" height="1" fill="#222b3f"/>
    <rect x="30" y="28" width="1" height="1" fill="#222b3f"/>
    <rect x="36" y="28" width="2" height="1" fill="#222b3f"/>
    <rect x="82" y="28" width="6" height="1" fill="#222b3f"/>
    <rect x="89" y="28" width="2" height="1" fill="#222b3f"/>
    <rect x="171" y="28" width="1" height="1" fill="#222b3f"/>
    <rect x="0" y="29" width="1" height="1" fill="#222b3f"/>
    <rect x="28" y="29" width="1" height="1" fill="#222b3f"/>
    <rect x="30" y="29" width="1" height="1" fill="#222b3f"/>
    <rect x="36" y="29" width="5" height="1" fill="#222b3f"/>
    <rect x="82" y="29" width="9" height="1" fill="#222b3f"/>
    <rect x="171" y="29" width="1" height="1" fill="#222b3f"/>
    <rect x="0" y="30" width="1" height="1" fill="#222b3f"/>
    <rect x="28" y="30" width="1" height="1" fill="#222b3f"/>
    <rect x="30" y="30" width="1" height="1" fill="#222b3f"/>
    <rect x="35" y="30" width="8" height="1" fill="#222b3f"/>
    <rect x="82" y="30" width="9" height="1" fill="#222b3f"/>
    <rect x="171" y="30" width="1" height="1" fill="#222b3f"/>
    <rect x="0" y="31" width="1" height="1" fill="#222b3f"/>
    <rect x="28" y="31" width="2" height="1" fill="#222b3f"/>
    <rect x="35" y="31" width="8" height="1" fill="#222b3f"/>
    <rect x="83" y="31" width="8" height="1" fill="#222b3f"/>
    <rect x="92" y="31" width="1" height="1" fill="#222b3f"/>
    <rect x="171" y="31" width="1" height="1" fill="#222b3f"/>
    <rect x="0" y="32" width="1" height="1" fill="#222b3f"/>
    <rect x="28" y="32" width="2" height="1" fill="#222b3f"/>
    <rect x="37" y="32" width="7" height="1" fill="#222b3f"/>
    <rect x="84" y="32" width="9" height="1" fill="#222b3f"/>
    <rect x="171" y="32" width="1" height="1" fill="#222b3f"/>
    <rect x="0" y="33" width="1" height="1" fill="#222b3f"/>
    <rect x="28" y="33" width="1" height="1" fill="#222b3f"/>
    <rect x="30" y="33" width="1" height="1" fill="#222b3f"/>
    <rect x="36" y="33" width="10" height="1" fill="#222b3f"/>
    <rect x="84" y="33" width="2" height="1" fill="#222b3f"/>
    <rect x="88" y="33" width="2" height="1" fill="#222b3f"/>
    <rect x="92" y="33" width="2" height="1" fill="#222b3f"/>
    <rect x="171" y="33" width="1" height="1" fill="#222b3f"/>
    <rect x="0" y="34" width="1" height="1" fill="#222b3f"/>
    <rect x="28" y="34" width="1" height="1" fill="#222b3f"/>
    <rect x="30" y="34" width="1" height="1" fill="#222b3f"/>
    <rect x="38" y="34" width="7" height="1" fill="#222b3f"/>
    <rect x="85" y="34" width="1" height="1" fill="#222b3f"/>
    <rect x="171" y="34" width="1" height="1" fill="#222b3f"/>
    <rect x="0" y="35" width="1" height="1" fill="#222b3f"/>
    <rect x="28" y="35" width="1" height="1" fill="#222b3f"/>
    <rect x="31" y="35" width="1" height="1" fill="#222b3f"/>
    <rect x="39" y="35" width="6" height="1" fill="#222b3f"/>
    <rect x="76" y="35" width="20" height="1" fill="#222b3f"/>
    <rect x="171" y="35" width="1" height="1" fill="#222b3f"/>
    <rect x="0" y="36" width="1" height="1" fill="#222b3f"/>
    <rect x="29" y="36" width="1" height="1" fill="#222b3f"/>
    <rect x="31" y="36" width="2" height="1" fill="#222b3f"/>
    <rect x="39" y="36" width="2" height="1" fill="#222b3f"/>
    <rect x="44" y="36" width="2" height="1" fill="#222b3f"/>
    <rect x="71" y="36" width="7" height="1" fill="#222b3f"/>
    <rect x="84" y="36" width="3" height="1" fill="#222b3f"/>
    <rect x="96" y="36" width="4" height="1" fill="#222b3f"/>
    <rect x="171" y="36" width="1" height="1" fill="#222b3f"/>
    <rect x="0" y="37" width="1" height="1" fill="#222b3f"/>
    <rect x="29" y="37" width="1" height="1" fill="#222b3f"/>
    <rect x="33" y="37" width="4" height="1" fill="#222b3f"/>
    <rect x="40" y="37" width="6" height="1" fill="#222b3f"/>
    <rect x="67" y="37" width="4" height="1" fill="#222b3f"/>
    <rect x="75" y="37" width="3" height="1" fill="#222b3f"/>
    <rect x="80" y="37" width="7" height="1" fill="#222b3f"/>
    <rect x="100" y="37" width="4" height="1" fill="#222b3f"/>
    <rect x="171" y="37" width="1" height="1" fill="#222b3f"/>
    <rect x="0" y="38" width="1" height="1" fill="#222b3f"/>
    <rect x="30" y="38" width="1" height="1" fill="#222b3f"/>
    <rect x="37" y="38" width="5" height="1" fill="#222b3f"/>
    <rect x="61" y="38" width="6" height="1" fill="#222b3f"/>
    <rect x="76" y="38" width="4" height="1" fill="#222b3f"/>
    <rect x="85" y="38" width="10" height="1" fill="#222b3f"/>
    <rect x="104" y="38" width="2" height="1" fill="#222b3f"/>
    <rect x="171" y="38" width="1" height="1" fill="#222b3f"/>
    <rect x="0" y="39" width="1" height="1" fill="#222b3f"/>
    <rect x="31" y="39" width="2" height="1" fill="#222b3f"/>
    <rect x="42" y="39" width="19" height="1" fill="#222b3f"/>
    <rect x="71" y="39" width="5" height="1" fill="#222b3f"/>
    <rect x="95" y="39" width="5" height="1" fill="#222b3f"/>
    <rect x="106" y="39" width="2" height="1" fill="#222b3f"/>
    <rect x="118" y="39" width="2" height="1" fill="#222b3f"/>
    <rect x="171" y="39" width="1" height="1" fill="#222b3f"/>
    <rect x="0" y="40" width="1" height="1" fill="#222b3f"/>
    <rect x="33" y="40" width="2" height="1" fill="#222b3f"/>
    <rect x="44" y="40" width="3" height="1" fill="#222b3f"/>
    <rect x="54" y="40" width="2" height="1" fill="#222b3f"/>
    <rect x="65" y="40" width="6" height="1" fill="#222b3f"/>
    <rect x="100" y="40" width="3" height="1" fill="#222b3f"/>
    <rect x="108" y="40" width="1" height="1" fill="#222b3f"/>
    <rect x="118" y="40" width="2" height="1" fill="#222b3f"/>
    <rect x="123" y="40" width="1" height="1" fill="#222b3f"/>
    <rect x="171" y="40" width="1" height="1" fill="#222b3f"/>
    <rect x="0" y="41" width="1" height="1" fill="#222b3f"/>
    <rect x="35" y="41" width="3" height="1" fill="#222b3f"/>
    <rect x="44" y="41" width="3" height="1" fill="#222b3f"/>
    <rect x="54" y="41" width="3" height="1" fill="#222b3f"/>
    <rect x="59" y="41" width="6" height="1" fill="#222b3f"/>
    <rect x="103" y="41" width="1" height="1" fill="#222b3f"/>
    <rect x="109" y="41" width="1" height="1" fill="#222b3f"/>
    <rect x="115" y="41" width="10" height="1" fill="#222b3f"/>
    <rect x="171" y="41" width="1" height="1" fill="#222b3f"/>
    <rect x="0" y="42" width="1" height="1" fill="#222b3f"/>
    <rect x="38" y="42" width="21" height="1" fill="#222b3f"/>
    <rect x="104" y="42" width="2" height="1" fill="#222b3f"/>
    <rect x="110" y="42" width="1" height="1" fill="#222b3f"/>
    <rect x="118" y="42" width="4" height="1" fill="#222b3f"/>
    <rect x="123" y="42" width="1" height="1" fill="#222b3f"/>
    <rect x="171" y="42" width="1" height="1" fill="#222b3f"/>
    <rect x="0" y="43" width="1" height="1" fill="#222b3f"/>
    <rect x="106" y="43" width="1" height="1" fill="#222b3f"/>
    <rect x="110" y="43" width="1" height="1" fill="#222b3f"/>
    <rect x="118" y="43" width="7" height="1" fill="#222b3f"/>
    <rect x="171" y="43" width="1" height="1" fill="#222b3f"/>
    <rect x="0" y="44" width="1" height="1" fill="#222b3f"/>
    <rect x="107" y="44" width="1" height="1" fill="#222b3f"/>
    <rect x="111" y="44" width="1" height="1" fill="#222b3f"/>
    <rect x="117" y="44" width="3" height="1" fill="#222b3f"/>
    <rect x="121" y="44" width="2" height="1" fill="#222b3f"/>
    <rect x="124" y="44" width="1" height="1" fill="#222b3f"/>
    <rect x="171" y="44" width="1" height="1" fill="#222b3f"/>
    <rect x="0" y="45" width="1" height="1" fill="#222b3f"/>
    <rect x="108" y="45" width="1" height="1" fill="#222b3f"/>
    <rect x="110" y="45" width="3" height="1" fill="#222b3f"/>
    <rect x="117" y="45" width="1" height="1" fill="#222b3f"/>
    <rect x="119" y="45" width="2" height="1" fill="#222b3f"/>
    <rect x="122" y="45" width="1" height="1" fill="#222b3f"/>
    <rect x="124" y="45" width="2" height="1" fill="#222b3f"/>
    <rect x="171" y="45" width="1" height="1" fill="#222b3f"/>
    <rect x="0" y="46" width="1" height="1" fill="#222b3f"/>
    <rect x="108" y="46" width="1" height="1" fill="#222b3f"/>
    <rect x="110" y="46" width="5" height="1" fill="#222b3f"/>
    <rect x="120" y="46" width="1" height="1" fill="#222b3f"/>
    <rect x="122" y="46" width="4" height="1" fill="#222b3f"/>
    <rect x="171" y="46" width="1" height="1" fill="#222b3f"/>
    <rect x="0" y="47" width="1" height="1" fill="#222b3f"/>
    <rect x="109" y="47" width="1" height="1" fill="#222b3f"/>
    <rect x="115" y="47" width="1" height="1" fill="#222b3f"/>
    <rect x="120" y="47" width="2" height="1" fill="#222b3f"/>
    <rect x="123" y="47" width="1" height="1" fill="#222b3f"/>
    <rect x="125" y="47" width="1" height="1" fill="#222b3f"/>
    <rect x="171" y="47" width="1" height="1" fill="#222b3f"/>
    <rect x="0" y="48" width="1" height="1" fill="#222b3f"/>
    <rect x="110" y="48" width="1" height="1" fill="#222b3f"/>
    <rect x="116" y="48" width="1" height="1" fill="#222b3f"/>
    <rect x="123" y="48" width="2" height="1" fill="#222b3f"/>
    <rect x="155" y="48" width="2" height="1" fill="#222b3f"/>
    <rect x="164" y="48" width="2" height="1" fill="#222b3f"/>
    <rect x="171" y="48" width="1" height="1" fill="#222b3f"/>
    <rect x="0" y="49" width="1" height="1" fill="#222b3f"/>
    <rect x="111" y="49" width="1" height="1" fill="#222b3f"/>
    <rect x="114" y="49" width="4" height="1" fill="#222b3f"/>
    <rect x="156" y="49" width="11" height="1" fill="#222b3f"/>
    <rect x="171" y="49" width="1" height="1" fill="#222b3f"/>
    <rect x="0" y="50" width="1" height="1" fill="#222b3f"/>
    <rect x="112" y="50" width="1" height="1" fill="#222b3f"/>
    <rect x="114" y="50" width="4" height="1" fill="#222b3f"/>
    <rect x="155" y="50" width="4" height="1" fill="#222b3f"/>
    <rect x="161" y="50" width="2" height="1" fill="#222b3f"/>
    <rect x="171" y="50" width="1" height="1" fill="#222b3f"/>
    <rect x="0" y="51" width="1" height="1" fill="#222b3f"/>
    <rect x="113" y="51" width="1" height="1" fill="#222b3f"/>
    <rect x="115" y="51" width="1" height="1" fill="#222b3f"/>
    <rect x="118" y="51" width="1" height="1" fill="#222b3f"/>
    <rect x="155" y="51" width="4" height="1" fill="#222b3f"/>
    <rect x="162" y="51" width="2" height="1" fill="#222b3f"/>
    <rect x="171" y="51" width="1" height="1" fill="#222b3f"/>
    <rect x="0" y="52" width="1" height="1" fill="#222b3f"/>
    <rect x="114" y="52" width="2" height="1" fill="#222b3f"/>
    <rect x="119" y="52" width="2" height="1" fill="#222b3f"/>
    <rect x="156" y="52" width="4" height="1" fill="#222b3f"/>
    <rect x="162" y="52" width="2" height="1" fill="#222b3f"/>
    <rect x="171" y="52" width="1" height="1" fill="#222b3f"/>
    <rect x="0" y="53" width="1" height="1" fill="#222b3f"/>
    <rect x="116" y="53" width="1" height="1" fill="#222b3f"/>
    <rect x="119" y="53" width="4" height="1" fill="#222b3f"/>
    <rect x="157" y="53" width="3" height="1" fill="#222b3f"/>
    <rect x="163" y="53" width="2" height="1" fill="#222b3f"/>
    <rect x="171" y="53" width="1" height="1" fill="#222b3f"/>
    <rect x="0" y="54" width="1" height="1" fill="#222b3f"/>
    <rect x="117" y="54" width="4" height="1" fill="#222b3f"/>
    <rect x="123" y="54" width="2" height="1" fill="#222b3f"/>
    <rect x="158" y="54" width="2" height="1" fill="#222b3f"/>
    <rect x="163" y="54" width="2" height="1" fill="#222b3f"/>
    <rect x="171" y="54" width="1" height="1" fill="#222b3f"/>
    <rect x="0" y="55" width="1" height="1" fill="#222b3f"/>
    <rect x="118" y="55" width="3" height="1" fill="#222b3f"/>
    <rect x="125" y="55" width="2" height="1" fill="#222b3f"/>
    <rect x="157" y="55" width="3" height="1" fill="#222b3f"/>
    <rect x="164" y="55" width="2" height="1" fill="#222b3f"/>
    <rect x="171" y="55" width="1" height="1" fill="#222b3f"/>
    <rect x="0" y="56" width="1" height="1" fill="#222b3f"/>
    <rect x="119" y="56" width="1" height="1" fill="#222b3f"/>
    <rect x="127" y="56" width="3" height="1" fill="#222b3f"/>
    <rect x="158" y="56" width="2" height="1" fill="#222b3f"/>
    <rect x="164" y="56" width="2" height="1" fill="#222b3f"/>
    <rect x="169" y="56" width="1" height="1" fill="#222b3f"/>
    <rect x="171" y="56" width="1" height="1" fill="#222b3f"/>
    <rect x="0" y="57" width="1" height="1" fill="#222b3f"/>
    <rect x="120" y="57" width="1" height="1" fill="#222b3f"/>
    <rect x="130" y="57" width="4" height="1" fill="#222b3f"/>
    <rect x="159" y="57" width="13" height="1" fill="#222b3f"/>
    <rect x="0" y="58" width="1" height="1" fill="#222b3f"/>
    <rect x="121" y="58" width="1" height="1" fill="#222b3f"/>
    <rect x="123" y="58" width="2" height="1" fill="#222b3f"/>
    <rect x="131" y="58" width="37" height="1" fill="#222b3f"/>
    <rect x="171" y="58" width="1" height="1" fill="#222b3f"/>
    <rect x="0" y="59" width="1" height="1" fill="#222b3f"/>
    <rect x="122" y="59" width="3" height="1" fill="#222b3f"/>
    <rect x="131" y="59" width="3" height="1" fill="#222b3f"/>
    <rect x="140" y="59" width="3" height="1" fill="#222b3f"/>
    <rect x="149" y="59" width="2" height="1" fill="#222b3f"/>
    <rect x="171" y="59" width="1" height="1" fill="#222b3f"/>
    <rect x="0" y="60" width="1" height="1" fill="#222b3f"/>
    <rect x="124" y="60" width="2" height="1" fill="#222b3f"/>
    <rect x="132" y="60" width="2" height="1" fill="#222b3f"/>
    <rect x="141" y="60" width="2" height="1" fill="#222b3f"/>
    <rect x="149" y="60" width="2" height="1" fill="#222b3f"/>
    <rect x="171" y="60" width="1" height="1" fill="#222b3f"/>
    <rect x="0" y="61" width="1" height="1" fill="#222b3f"/>
    <rect x="126" y="61" width="2" height="1" fill="#222b3f"/>
    <rect x="171" y="61" width="1" height="1" fill="#222b3f"/>
    <rect x="0" y="62" width="1" height="1" fill="#222b3f"/>
    <rect x="128" y="62" width="1" height="1" fill="#222b3f"/>
    <rect x="171" y="62" width="1" height="1" fill="#222b3f"/>
    <rect x="0" y="63" width="1" height="1" fill="#222b3f"/>
    <rect x="129" y="63" width="39" height="1" fill="#222b3f"/>
    <rect x="171" y="63" width="1" height="1" fill="#222b3f"/>
    <rect x="0" y="64" width="1" height="1" fill="#222b3f"/>
    <rect x="171" y="64" width="1" height="1" fill="#222b3f"/>
    <rect x="0" y="65" width="1" height="1" fill="#222b3f"/>
    <rect x="171" y="65" width="1" height="1" fill="#222b3f"/>
    <rect x="0" y="66" width="1" height="1" fill="#222b3f"/>
    <rect x="171" y="66" width="1" height="1" fill="#222b3f"/>
    <rect x="0" y="67" width="1" height="1" fill="#222b3f"/>
    <rect x="171" y="67" width="1" height="1" fill="#222b3f"/>
    <rect x="0" y="68" width="172" height="1" fill="#222b3f"/>
  </g>
</svg>