<?xml version="1.0" encoding="UTF-8"?>
<svg xmlns="http://www.w3.org/2000/svg" viewBox="0 0 125 100" width="125" height="100">
  <!-- Auto-converted from legend-801.png -->
  <rect x="0" y="0" width="125" height="100" fill="none"/>
  <g fill="#231f20" stroke="none">
    <rect x="0" y="0" width="125" height="1" fill="#231f20"/>
    <rect x="0" y="1" width="1" height="1" fill="#231f20"/>
    <rect x="124" y="1" width="1" height="1" fill="#231f20"/>
    <rect x="0" y="2" width="1" height="1" fill="#231f20"/>
    <rect x="124" y="2" width="1" height="1" fill="#231f20"/>
    <rect x="0" y="3" width="1" height="1" fill="#231f20"/>
    <rect x="124" y="3" width="1" height="1" fill="#231f20"/>
    <rect x="0" y="4" width="1" height="1" fill="#231f20"/>
    <rect x="124" y="4" width="1" height="1" fill="#231f20"/>
    <rect x="0" y="5" width="1" height="1" fill="#231f20"/>
    <rect x="124" y="5" width="1" height="1" fill="#231f20"/>
    <rect x="0" y="6" width="1" height="1" fill="#231f20"/>
    <rect x="124" y="6" width="1" height="1" fill="#231f20"/>
    <rect x="0" y="7" width="1" height="1" fill="#231f20"/>
    <rect x="124" y="7" width="1" height="1" fill="#231f20"/>
    <rect x="0" y="8" width="1" height="1" fill="#231f20"/>
    <rect x="124" y="8" width="1" height="1" fill="#231f20"/>
    <rect x="0" y="9" width="1" height="1" fill="#231f20"/>
    <rect x="124" y="9" width="1" height="1" fill="#231f20"/>
    <rect x="0" y="10" width="1" height="1" fill="#231f20"/>
    <rect x="124" y="10" width="1" height="1" fill="#231f20"/>
    <rect x="0" y="11" width="1" height="1" fill="#231f20"/>
    <rect x="124" y="11" width="1" height="1" fill="#231f20"/>
    <rect x="0" y="12" width="1" height="1" fill="#231f20"/>
    <rect x="124" y="12" width="1" height="1" fill="#231f20"/>
    <rect x="0" y="13" width="1" height="1" fill="#231f20"/>
    <rect x="124" y="13" width="1" height="1" fill="#231f20"/>
    <rect x="0" y="14" width="1" height="1" fill="#231f20"/>
    <rect x="124" y="14" width="1" height="1" fill="#231f20"/>
    <rect x="0" y="15" width="1" height="1" fill="#231f20"/>
    <rect x="124" y="15" width="1" height="1" fill="#231f20"/>
    <rect x="0" y="16" width="1" height="1" fill="#231f20"/>
    <rect x="124" y="16" width="1" height="1" fill="#231f20"/>
    <rect x="0" y="17" width="1" height="1" fill="#231f20"/>
    <rect x="124" y="17" width="1" height="1" fill="#231f20"/>
    <rect x="0" y="18" width="1" height="1" fill="#231f20"/>
    <rect x="124" y="18" width="1" height="1" fill="#231f20"/>
    <rect x="0" y="19" width="1" height="1" fill="#231f20"/>
    <rect x="124" y="19" width="1" height="1" fill="#231f20"/>
    <rect x="0" y="20" width="1" height="1" fill="#231f20"/>
    <rect x="124" y="20" width="1" height="1" fill="#231f20"/>
    <rect x="0" y="21" width="1" height="1" fill="#231f20"/>
    <rect x="124" y="21" width="1" height="1" fill="#231f20"/>
    <rect x="0" y="22" width="1" height="1" fill="#231f20"/>
    <rect x="124" y="22" width="1" height="1" fill="#231f20"/>
    <rect x="0" y="23" width="1" height="1" fill="#231f20"/>
    <rect x="124" y="23" width="1" height="1" fill="#231f20"/>
    <rect x="0" y="24" width="1" height="1" fill="#231f20"/>
    <rect x="124" y="24" width="1" height="1" fill="#231f20"/>
    <rect x="0" y="25" width="1" height="1" fill="#231f20"/>
    <rect x="124" y="25" width="1" height="1" fill="#231f20"/>
    <rect x="0" y="26" width="1" height="1" fill="#231f20"/>
    <rect x="124" y="26" width="1" height="1" fill="#231f20"/>
    <rect x="0" y="27" width="1" height="1" fill="#231f20"/>
    <rect x="124" y="27" width="1" height="1" fill="#231f20"/>
    <rect x="0" y="28" width="1" height="1" fill="#231f20"/>
    <rect x="124" y="28" width="1" height="1" fill="#231f20"/>
    <rect x="0" y="29" width="1" height="1" fill="#231f20"/>
    <rect x="124" y="29" width="1" height="1" fill="#231f20"/>
    <rect x="0" y="30" width="1" height="1" fill="#231f20"/>
    <rect x="124" y="30" width="1" height="1" fill="#231f20"/>
    <rect x="0" y="31" width="1" height="1" fill="#231f20"/>
    <rect x="62" y="31" width="1" height="1" fill="#231f20"/>
    <rect x="124" y="31" width="1" height="1" fill="#231f20"/>
    <rect x="0" y="32" width="1" height="1" fill="#231f20"/>
    <rect x="62" y="32" width="1" height="1" fill="#231f20"/>
    <rect x="124" y="32" width="1" height="1" fill="#231f20"/>
    <rect x="0" y="33" width="1" height="1" fill="#231f20"/>
    <rect x="62" y="33" width="1" height="1" fill="#231f20"/>
    <rect x="124" y="33" width="1" height="1" fill="#231f20"/>
    <rect x="0" y="34" width="1" height="1" fill="#231f20"/>
    <rect x="62" y="34" width="1" height="1" fill="#231f20"/>
    <rect x="124" y="34" width="1" height="1" fill="#231f20"/>
    <rect x="0" y="35" width="1" height="1" fill="#231f20"/>
    <rect x="62" y="35" width="1" height="1" fill="#231f20"/>
    <rect x="124" y="35" width="1" height="1" fill="#231f20"/>
    <rect x="0" y="36" width="1" height="1" fill="#231f20"/>
    <rect x="62" y="36" width="1" height="1" fill="#231f20"/>
    <rect x="124" y="36" width="1" height="1" fill="#231f20"/>
    <rect x="0" y="37" width="1" height="1" fill="#231f20"/>
    <rect x="59" y="37" width="8" height="1" fill="#231f20"/>
    <rect x="124" y="37" width="1" height="1" fill="#231f20"/>
    <rect x="0" y="38" width="1" height="1" fill="#231f20"/>
    <rect x="57" y="38" width="2" height="1" fill="#231f20"/>
    <rect x="62" y="38" width="1" height="1" fill="#231f20"/>
    <rect x="67" y="38" width="2" height="1" fill="#231f20"/>
    <rect x="124" y="38" width="1" height="1" fill="#231f20"/>
    <rect x="0" y="39" width="1" height="1" fill="#231f20"/>
    <rect x="55" y="39" width="2" height="1" fill="#231f20"/>
    <rect x="62" y="39" width="1" height="1" fill="#231f20"/>
    <rect x="69" y="39" width="2" height="1" fill="#231f20"/>
    <rect x="124" y="39" width="1" height="1" fill="#231f20"/>
    <rect x="0" y="40" width="1" height="1" fill="#231f20"/>
    <rect x="54" y="40" width="1" height="1" fill="#231f20"/>
    <rect x="62" y="40" width="1" height="1" fill="#231f20"/>
    <rect x="71" y="40" width="1" height="1" fill="#231f20"/>
    <rect x="124" y="40" width="1" height="1" fill="#231f20"/>
    <rect x="0" y="41" width="1" height="1" fill="#231f20"/>
    <rect x="53" y="41" width="1" height="1" fill="#231f20"/>
    <rect x="62" y="41" width="1" height="1" fill="#231f20"/>
    <rect x="72" y="41" width="1" height="1" fill="#231f20"/>
    <rect x="124" y="41" width="1" height="1" fill="#231f20"/>
    <rect x="0" y="42" width="1" height="1" fill="#231f20"/>
    <rect x="52" y="42" width="1" height="1" fill="#231f20"/>
    <rect x="62" y="42" width="1" height="1" fill="#231f20"/>
    <rect x="73" y="42" width="1" height="1" fill="#231f20"/>
    <rect x="124" y="42" width="1" height="1" fill="#231f20"/>
    <rect x="0" y="43" width="1" height="1" fill="#231f20"/>
    <rect x="52" y="43" width="1" height="1" fill="#231f20"/>
    <rect x="62" y="43" width="1" height="1" fill="#231f20"/>
    <rect x="74" y="43" width="1" height="1" fill="#231f20"/>
    <rect x="124" y="43" width="1" height="1" fill="#231f20"/>
    <rect x="0" y="44" width="1" height="1" fill="#231f20"/>
    <rect x="51" y="44" width="1" height="1" fill="#231f20"/>
    <rect x="62" y="44" width="1" height="1" fill="#231f20"/>
    <rect x="74" y="44" width="1" height="1" fill="#231f20"/>
    <rect x="124" y="44" width="1" height="1" fill="#231f20"/>
    <rect x="0" y="45" width="1" height="1" fill="#231f20"/>
    <rect x="51" y="45" width="1" height="1" fill="#231f20"/>
    <rect x="62" y="45" width="1" height="1" fill="#231f20"/>
    <rect x="74" y="45" width="1" height="1" fill="#231f20"/>
    <rect x="124" y="45" width="1" height="1" fill="#231f20"/>
    <rect x="0" y="46" width="1" height="1" fill="#231f20"/>
    <rect x="50" y="46" width="1" height="1" fill="#231f20"/>
    <rect x="62" y="46" width="1" height="1" fill="#231f20"/>
    <rect x="75" y="46" width="1" height="1" fill="#231f20"/>
    <rect x="124" y="46" width="1" height="1" fill="#231f20"/>
    <rect x="0" y="47" width="1" height="1" fill="#231f20"/>
    <rect x="50" y="47" width="1" height="1" fill="#231f20"/>
    <rect x="62" y="47" width="1" height="1" fill="#231f20"/>
    <rect x="75" y="47" width="1" height="1" fill="#231f20"/>
    <rect x="124" y="47" width="1" height="1" fill="#231f20"/>
    <rect x="0" y="48" width="1" height="1" fill="#231f20"/>
    <rect x="50" y="48" width="1" height="1" fill="#231f20"/>
    <rect x="62" y="48" width="1" height="1" fill="#231f20"/>
    <rect x="75" y="48" width="1" height="1" fill="#231f20"/>
    <rect x="124" y="48" width="1" height="1" fill="#231f20"/>
    <rect x="0" y="49" width="1" height="1" fill="#231f20"/>
    <rect x="50" y="49" width="1" height="1" fill="#231f20"/>
    <rect x="62" y="49" width="1" height="1" fill="#231f20"/>
    <rect x="75" y="49" width="1" height="1" fill="#231f20"/>
    <rect x="124" y="49" width="1" height="1" fill="#231f20"/>
    <rect x="0" y="50" width="1" height="1" fill="#231f20"/>
    <rect x="50" y="50" width="1" height="1" fill="#231f20"/>
    <rect x="62" y="50" width="1" height="1" fill="#231f20"/>
    <rect x="75" y="50" width="1" height="1" fill="#231f20"/>
    <rect x="124" y="50" width="1" height="1" fill="#231f20"/>
    <rect x="0" y="51" width="1" height="1" fill="#231f20"/>
    <rect x="50" y="51" width="1" height="1" fill="#231f20"/>
    <rect x="62" y="51" width="1" height="1" fill="#231f20"/>
    <rect x="75" y="51" width="1" height="1" fill="#231f20"/>
    <rect x="124" y="51" width="1" height="1" fill="#231f20"/>
    <rect x="0" y="52" width="1" height="1" fill="#231f20"/>
    <rect x="50" y="52" width="1" height="1" fill="#231f20"/>
    <rect x="62" y="52" width="1" height="1" fill="#231f20"/>
    <rect x="75" y="52" width="1" height="1" fill="#231f20"/>
    <rect x="124" y="52" width="1" height="1" fill="#231f20"/>
    <rect x="0" y="53" width="1" height="1" fill="#231f20"/>
    <rect x="51" y="53" width="1" height="1" fill="#231f20"/>
    <rect x="62" y="53" width="1" height="1" fill="#231f20"/>
    <rect x="75" y="53" width="1" height="1" fill="#231f20"/>
    <rect x="124" y="53" width="1" height="1" fill="#231f20"/>
    <rect x="0" y="54" width="1" height="1" fill="#231f20"/>
    <rect x="51" y="54" width="1" height="1" fill="#231f20"/>
    <rect x="62" y="54" width="1" height="1" fill="#231f20"/>
    <rect x="74" y="54" width="1" height="1" fill="#231f20"/>
    <rect x="124" y="54" width="1" height="1" fill="#231f20"/>
    <rect x="0" y="55" width="1" height="1" fill="#231f20"/>
    <rect x="52" y="55" width="1" height="1" fill="#231f20"/>
    <rect x="62" y="55" width="1" height="1" fill="#231f20"/>
    <rect x="74" y="55" width="1" height="1" fill="#231f20"/>
    <rect x="124" y="55" width="1" height="1" fill="#231f20"/>
    <rect x="0" y="56" width="1" height="1" fill="#231f20"/>
    <rect x="52" y="56" width="1" height="1" fill="#231f20"/>
    <rect x="62" y="56" width="1" height="1" fill="#231f20"/>
    <rect x="73" y="56" width="1" height="1" fill="#231f20"/>
    <rect x="124" y="56" width="1" height="1" fill="#231f20"/>
    <rect x="0" y="57" width="1" height="1" fill="#231f20"/>
    <rect x="53" y="57" width="1" height="1" fill="#231f20"/>
    <rect x="62" y="57" width="1" height="1" fill="#231f20"/>
    <rect x="72" y="57" width="1" height="1" fill="#231f20"/>
    <rect x="124" y="57" width="1" height="1" fill="#231f20"/>
    <rect x="0" y="58" width="1" height="1" fill="#231f20"/>
    <rect x="54" y="58" width="1" height="1" fill="#231f20"/>
    <rect x="62" y="58" width="1" height="1" fill="#231f20"/>
    <rect x="70" y="58" width="2" height="1" fill="#231f20"/>
    <rect x="124" y="58" width="1" height="1" fill="#231f20"/>
    <rect x="0" y="59" width="1" height="1" fill="#231f20"/>
    <rect x="55" y="59" width="1" height="1" fill="#231f20"/>
    <rect x="62" y="59" width="1" height="1" fill="#231f20"/>
    <rect x="69" y="59" width="1" height="1" fill="#231f20"/>
    <rect x="124" y="59" width="1" height="1" fill="#231f20"/>
    <rect x="0" y="60" width="1" height="1" fill="#231f20"/>
    <rect x="56" y="60" width="2" height="1" fill="#231f20"/>
    <rect x="62" y="60" width="1" height="1" fill="#231f20"/>
    <rect x="68" y="60" width="1" height="1" fill="#231f20"/>
    <rect x="124" y="60" width="1" height="1" fill="#231f20"/>
    <rect x="0" y="61" width="1" height="1" fill="#231f20"/>
    <rect x="58" y="61" width="5" height="1" fill="#231f20"/>
    <rect x="64" y="61" width="4" height="1" fill="#231f20"/>
    <rect x="124" y="61" width="1" height="1" fill="#231f20"/>
    <rect x="0" y="62" width="1" height="1" fill="#231f20"/>
    <rect x="62" y="62" width="2" height="1" fill="#231f20"/>
    <rect x="124" y="62" width="1" height="1" fill="#231f20"/>
    <rect x="0" y="63" width="1" height="1" fill="#231f20"/>
    <rect x="62" y="63" width="1" height="1" fill="#231f20"/>
    <rect x="124" y="63" width="1" height="1" fill="#231f20"/>
    <rect x="0" y="64" width="1" height="1" fill="#231f20"/>
    <rect x="62" y="64" width="1" height="1" fill="#231f20"/>
    <rect x="124" y="64" width="1" height="1" fill="#231f20"/>
    <rect x="0" y="65" width="1" height="1" fill="#231f20"/>
    <rect x="62" y="65" width="1" height="1" fill="#231f20"/>
    <rect x="124" y="65" width="1" height="1" fill="#231f20"/>
    <rect x="0" y="66" width="1" height="1" fill="#231f20"/>
    <rect x="62" y="66" width="1" height="1" fill="#231f20"/>
    <rect x="124" y="66" width="1" height="1" fill="#231f20"/>
    <rect x="0" y="67" width="1" height="1" fill="#231f20"/>
    <rect x="62" y="67" width="1" height="1" fill="#231f20"/>
    <rect x="124" y="67" width="1" height="1" fill="#231f20"/>
    <rect x="0" y="68" width="1" height="1" fill="#231f20"/>
    <rect x="62" y="68" width="1" height="1" fill="#231f20"/>
    <rect x="124" y="68" width="1" height="1" fill="#231f20"/>
    <rect x="0" y="69" width="1" height="1" fill="#231f20"/>
    <rect x="124" y="69" width="1" height="1" fill="#231f20"/>
    <rect x="0" y="70" width="1" height="1" fill="#231f20"/>
    <rect x="124" y="70" width="1" height="1" fill="#231f20"/>
    <rect x="0" y="71" width="1" height="1" fill="#231f20"/>
    <rect x="124" y="71" width="1" height="1" fill="#231f20"/>
    <rect x="0" y="72" width="1" height="1" fill="#231f20"/>
    <rect x="124" y="72" width="1" height="1" fill="#231f20"/>
    <rect x="0" y="73" width="1" height="1" fill="#231f20"/>
    <rect x="124" y="73" width="1" height="1" fill="#231f20"/>
    <rect x="0" y="74" width="1" height="1" fill="#231f20"/>
    <rect x="124" y="74" width="1" height="1" fill="#231f20"/>
    <rect x="0" y="75" width="1" height="1" fill="#231f20"/>
    <rect x="124" y="75" width="1" height="1" fill="#231f20"/>
    <rect x="0" y="76" width="1" height="1" fill="#231f20"/>
    <rect x="124" y="76" width="1" height="1" fill="#231f20"/>
    <rect x="0" y="77" width="1" height="1" fill="#231f20"/>
    <rect x="124" y="77" width="1" height="1" fill="#231f20"/>
    <rect x="0" y="78" width="1" height="1" fill="#231f20"/>
    <rect x="124" y="78" width="1" height="1" fill="#231f20"/>
    <rect x="0" y="79" width="1" height="1" fill="#231f20"/>
    <rect x="124" y="79" width="1" height="1" fill="#231f20"/>
    <rect x="0" y="80" width="1" height="1" fill="#231f20"/>
    <rect x="124" y="80" width="1" height="1" fill="#231f20"/>
    <rect x="0" y="81" width="1" height="1" fill="#231f20"/>
    <rect x="124" y="81" width="1" height="1" fill="#231f20"/>
    <rect x="0" y="82" width="1" height="1" fill="#231f20"/>
    <rect x="124" y="82" width="1" height="1" fill="#231f20"/>
    <rect x="0" y="83" width="1" height="1" fill="#231f20"/>
    <rect x="124" y="83" width="1" height="1" fill="#231f20"/>
    <rect x="0" y="84" width="1" height="1" fill="#231f20"/>
    <rect x="124" y="84" width="1" height="1" fill="#231f20"/>
    <rect x="0" y="85" width="1" height="1" fill="#231f20"/>
    <rect x="124" y="85" width="1" height="1" fill="#231f20"/>
    <rect x="0" y="86" width="1" height="1" fill="#231f20"/>
    <rect x="124" y="86" width="1" height="1" fill="#231f20"/>
    <rect x="0" y="87" width="1" height="1" fill="#231f20"/>
    <rect x="124" y="87" width="1" height="1" fill="#231f20"/>
    <rect x="0" y="88" width="1" height="1" fill="#231f20"/>
    <rect x="124" y="88" width="1" height="1" fill="#231f20"/>
    <rect x="0" y="89" width="1" height="1" fill="#231f20"/>
    <rect x="124" y="89" width="1" height="1" fill="#231f20"/>
    <rect x="0" y="90" width="1" height="1" fill="#231f20"/>
    <rect x="124" y="90" width="1" height="1" fill="#231f20"/>
    <rect x="0" y="91" width="1" height="1" fill="#231f20"/>
    <rect x="124" y="91" width="1" height="1" fill="#231f20"/>
    <rect x="0" y="92" width="1" height="1" fill="#231f20"/>
    <rect x="124" y="92" width="1" height="1" fill="#231f20"/>
    <rect x="0" y="93" width="1" height="1" fill="#231f20"/>
    <rect x="124" y="93" width="1" height="1" fill="#231f20"/>
    <rect x="0" y="94" width="1" height="1" fill="#231f20"/>
    <rect x="124" y="94" width="1" height="1" fill="#231f20"/>
    <rect x="0" y="95" width="1" height="1" fill="#231f20"/>
    <rect x="124" y="95" width="1" height="1" fill="#231f20"/>
    <rect x="0" y="96" width="1" height="1" fill="#231f20"/>
    <rect x="124" y="96" width="1" height="1" fill="#231f20"/>
    <rect x="0" y="97" width="1" height="1" fill="#231f20"/>
    <rect x="124" y="97" width="1" height="1" fill="#231f20"/>
    <rect x="0" y="98" width="1" height="1" fill="#231f20"/>
    <rect x="124" y="98" width="1" height="1" fill="#231f20"/>
    <rect x="0" y="99" width="125" height="1" fill="#231f20"/>
  </g>
</svg>