<?xml version="1.0" encoding="UTF-8"?>
<svg xmlns="http://www.w3.org/2000/svg" viewBox="0 0 154 74" width="154" height="74">
  <!-- Auto-converted from legend-1273.png -->
  <rect x="0" y="0" width="154" height="74" fill="none"/>
  <g fill="#231f20" stroke="none">
    <rect x="0" y="0" width="154" height="1" fill="#231f20"/>
    <rect x="0" y="1" width="1" height="1" fill="#231f20"/>
    <rect x="120" y="1" width="1" height="1" fill="#231f20"/>
    <rect x="153" y="1" width="1" height="1" fill="#231f20"/>
    <rect x="0" y="2" width="1" height="1" fill="#231f20"/>
    <rect x="120" y="2" width="1" height="1" fill="#231f20"/>
    <rect x="153" y="2" width="1" height="1" fill="#231f20"/>
    <rect x="0" y="3" width="1" height="1" fill="#231f20"/>
    <rect x="120" y="3" width="1" height="1" fill="#231f20"/>
    <rect x="153" y="3" width="1" height="1" fill="#231f20"/>
    <rect x="0" y="4" width="1" height="1" fill="#231f20"/>
    <rect x="120" y="4" width="1" height="1" fill="#231f20"/>
    <rect x="153" y="4" width="1" height="1" fill="#231f20"/>
    <rect x="0" y="5" width="1" height="1" fill="#231f20"/>
    <rect x="120" y="5" width="1" height="1" fill="#231f20"/>
    <rect x="153" y="5" width="1" height="1" fill="#231f20"/>
    <rect x="0" y="6" width="1" height="1" fill="#231f20"/>
    <rect x="120" y="6" width="1" height="1" fill="#231f20"/>
    <rect x="153" y="6" width="1" height="1" fill="#231f20"/>
    <rect x="0" y="7" width="1" height="1" fill="#231f20"/>
    <rect x="120" y="7" width="1" height="1" fill="#231f20"/>
    <rect x="153" y="7" width="1" height="1" fill="#231f20"/>
    <rect x="0" y="8" width="1" height="1" fill="#231f20"/>
    <rect x="120" y="8" width="1" height="1" fill="#231f20"/>
    <rect x="153" y="8" width="1" height="1" fill="#231f20"/>
    <rect x="0" y="9" width="1" height="1" fill="#231f20"/>
    <rect x="120" y="9" width="1" height="1" fill="#231f20"/>
    <rect x="153" y="9" width="1" height="1" fill="#231f20"/>
    <rect x="0" y="10" width="1" height="1" fill="#231f20"/>
    <rect x="120" y="10" width="1" height="1" fill="#231f20"/>
    <rect x="153" y="10" width="1" height="1" fill="#231f20"/>
    <rect x="0" y="11" width="1" height="1" fill="#231f20"/>
    <rect x="120" y="11" width="1" height="1" fill="#231f20"/>
    <rect x="153" y="11" width="1" height="1" fill="#231f20"/>
    <rect x="0" y="12" width="1" height="1" fill="#231f20"/>
    <rect x="23" y="12" width="10" height="1" fill="#231f20"/>
    <rect x="56" y="12" width="2" height="1" fill="#231f20"/>
    <rect x="60" y="12" width="1" height="1" fill="#231f20"/>
    <rect x="87" y="12" width="1" height="1" fill="#231f20"/>
    <rect x="90" y="12" width="2" height="1" fill="#231f20"/>
    <rect x="120" y="12" width="1" height="1" fill="#231f20"/>
    <rect x="153" y="12" width="1" height="1" fill="#231f20"/>
    <rect x="0" y="13" width="1" height="1" fill="#231f20"/>
    <rect x="120" y="13" width="1" height="1" fill="#231f20"/>
    <rect x="153" y="13" width="1" height="1" fill="#231f20"/>
    <rect x="0" y="14" width="1" height="1" fill="#231f20"/>
    <rect x="120" y="14" width="1" height="1" fill="#231f20"/>
    <rect x="153" y="14" width="1" height="1" fill="#231f20"/>
    <rect x="0" y="15" width="1" height="1" fill="#231f20"/>
    <rect x="120" y="15" width="1" height="1" fill="#231f20"/>
    <rect x="153" y="15" width="1" height="1" fill="#231f20"/>
    <rect x="0" y="16" width="1" height="1" fill="#231f20"/>
    <rect x="120" y="16" width="1" height="1" fill="#231f20"/>
    <rect x="153" y="16" width="1" height="1" fill="#231f20"/>
    <rect x="0" y="17" width="1" height="1" fill="#231f20"/>
    <rect x="120" y="17" width="1" height="1" fill="#231f20"/>
    <rect x="153" y="17" width="1" height="1" fill="#231f20"/>
    <rect x="0" y="18" width="1" height="1" fill="#231f20"/>
    <rect x="120" y="18" width="1" height="1" fill="#231f20"/>
    <rect x="153" y="18" width="1" height="1" fill="#231f20"/>
    <rect x="0" y="19" width="1" height="1" fill="#231f20"/>
    <rect x="120" y="19" width="1" height="1" fill="#231f20"/>
    <rect x="153" y="19" width="1" height="1" fill="#231f20"/>
    <rect x="0" y="20" width="1" height="1" fill="#231f20"/>
    <rect x="120" y="20" width="1" height="1" fill="#231f20"/>
    <rect x="153" y="20" width="1" height="1" fill="#231f20"/>
    <rect x="0" y="21" width="1" height="1" fill="#231f20"/>
    <rect x="120" y="21" width="1" height="1" fill="#231f20"/>
    <rect x="153" y="21" width="1" height="1" fill="#231f20"/>
    <rect x="0" y="22" width="1" height="1" fill="#231f20"/>
    <rect x="120" y="22" width="1" height="1" fill="#231f20"/>
    <rect x="153" y="22" width="1" height="1" fill="#231f20"/>
    <rect x="0" y="23" width="1" height="1" fill="#231f20"/>
    <rect x="120" y="23" width="1" height="1" fill="#231f20"/>
    <rect x="153" y="23" width="1" height="1" fill="#231f20"/>
    <rect x="0" y="24" width="154" height="1" fill="#231f20"/>
    <rect x="0" y="25" width="1" height="1" fill="#231f20"/>
    <rect x="34" y="25" width="1" height="1" fill="#231f20"/>
    <rect x="153" y="25" width="1" height="1" fill="#231f20"/>
    <rect x="0" y="26" width="1" height="1" fill="#231f20"/>
    <rect x="34" y="26" width="1" height="1" fill="#231f20"/>
    <rect x="153" y="26" width="1" height="1" fill="#231f20"/>
    <rect x="0" y="27" width="1" height="1" fill="#231f20"/>
    <rect x="34" y="27" width="1" height="1" fill="#231f20"/>
    <rect x="153" y="27" width="1" height="1" fill="#231f20"/>
    <rect x="0" y="28" width="1" height="1" fill="#231f20"/>
    <rect x="34" y="28" width="1" height="1" fill="#231f20"/>
    <rect x="153" y="28" width="1" height="1" fill="#231f20"/>
    <rect x="0" y="29" width="1" height="1" fill="#231f20"/>
    <rect x="34" y="29" width="1" height="1" fill="#231f20"/>
    <rect x="153" y="29" width="1" height="1" fill="#231f20"/>
    <rect x="0" y="30" width="1" height="1" fill="#231f20"/>
    <rect x="34" y="30" width="1" height="1" fill="#231f20"/>
    <rect x="153" y="30" width="1" height="1" fill="#231f20"/>
    <rect x="0" y="31" width="1" height="1" fill="#231f20"/>
    <rect x="34" y="31" width="1" height="1" fill="#231f20"/>
    <rect x="153" y="31" width="1" height="1" fill="#231f20"/>
    <rect x="0" y="32" width="1" height="1" fill="#231f20"/>
    <rect x="34" y="32" width="1" height="1" fill="#231f20"/>
    <rect x="153" y="32" width="1" height="1" fill="#231f20"/>
    <rect x="0" y="33" width="1" height="1" fill="#231f20"/>
    <rect x="34" y="33" width="1" height="1" fill="#231f20"/>
    <rect x="153" y="33" width="1" height="1" fill="#231f20"/>
    <rect x="0" y="34" width="1" height="1" fill="#231f20"/>
    <rect x="34" y="34" width="1" height="1" fill="#231f20"/>
    <rect x="153" y="34" width="1" height="1" fill="#231f20"/>
    <rect x="0" y="35" width="1" height="1" fill="#231f20"/>
    <rect x="34" y="35" width="1" height="1" fill="#231f20"/>
    <rect x="153" y="35" width="1" height="1" fill="#231f20"/>
    <rect x="0" y="36" width="1" height="1" fill="#231f20"/>
    <rect x="34" y="36" width="1" height="1" fill="#231f20"/>
    <rect x="62" y="36" width="2" height="1" fill="#231f20"/>
    <rect x="66" y="36" width="1" height="1" fill="#231f20"/>
    <rect x="93" y="36" width="1" height="1" fill="#231f20"/>
    <rect x="97" y="36" width="1" height="1" fill="#231f20"/>
    <rect x="153" y="36" width="1" height="1" fill="#231f20"/>
    <rect x="0" y="37" width="1" height="1" fill="#231f20"/>
    <rect x="34" y="37" width="1" height="1" fill="#231f20"/>
    <rect x="62" y="37" width="2" height="1" fill="#231f20"/>
    <rect x="66" y="37" width="1" height="1" fill="#231f20"/>
    <rect x="93" y="37" width="1" height="1" fill="#231f20"/>
    <rect x="97" y="37" width="1" height="1" fill="#231f20"/>
    <rect x="121" y="37" width="10" height="1" fill="#231f20"/>
    <rect x="153" y="37" width="1" height="1" fill="#231f20"/>
    <rect x="0" y="38" width="1" height="1" fill="#231f20"/>
    <rect x="34" y="38" width="1" height="1" fill="#231f20"/>
    <rect x="153" y="38" width="1" height="1" fill="#231f20"/>
    <rect x="0" y="39" width="1" height="1" fill="#231f20"/>
    <rect x="34" y="39" width="1" height="1" fill="#231f20"/>
    <rect x="153" y="39" width="1" height="1" fill="#231f20"/>
    <rect x="0" y="40" width="1" height="1" fill="#231f20"/>
    <rect x="34" y="40" width="1" height="1" fill="#231f20"/>
    <rect x="153" y="40" width="1" height="1" fill="#231f20"/>
    <rect x="0" y="41" width="1" height="1" fill="#231f20"/>
    <rect x="34" y="41" width="1" height="1" fill="#231f20"/>
    <rect x="153" y="41" width="1" height="1" fill="#231f20"/>
    <rect x="0" y="42" width="1" height="1" fill="#231f20"/>
    <rect x="34" y="42" width="1" height="1" fill="#231f20"/>
    <rect x="153" y="42" width="1" height="1" fill="#231f20"/>
    <rect x="0" y="43" width="1" height="1" fill="#231f20"/>
    <rect x="34" y="43" width="1" height="1" fill="#231f20"/>
    <rect x="153" y="43" width="1" height="1" fill="#231f20"/>
    <rect x="0" y="44" width="1" height="1" fill="#231f20"/>
    <rect x="34" y="44" width="1" height="1" fill="#231f20"/>
    <rect x="153" y="44" width="1" height="1" fill="#231f20"/>
    <rect x="0" y="45" width="1" height="1" fill="#231f20"/>
    <rect x="34" y="45" width="1" height="1" fill="#231f20"/>
    <rect x="153" y="45" width="1" height="1" fill="#231f20"/>
    <rect x="0" y="46" width="1" height="1" fill="#231f20"/>
    <rect x="34" y="46" width="1" height="1" fill="#231f20"/>
    <rect x="153" y="46" width="1" height="1" fill="#231f20"/>
    <rect x="0" y="47" width="1" height="1" fill="#231f20"/>
    <rect x="34" y="47" width="1" height="1" fill="#231f20"/>
    <rect x="153" y="47" width="1" height="1" fill="#231f20"/>
    <rect x="0" y="48" width="1" height="1" fill="#231f20"/>
    <rect x="34" y="48" width="1" height="1" fill="#231f20"/>
    <rect x="153" y="48" width="1" height="1" fill="#231f20"/>
    <rect x="0" y="49" width="154" height="1" fill="#231f20"/>
    <rect x="0" y="50" width="1" height="1" fill="#231f20"/>
    <rect x="120" y="50" width="1" height="1" fill="#231f20"/>
    <rect x="153" y="50" width="1" height="1" fill="#231f20"/>
    <rect x="0" y="51" width="1" height="1" fill="#231f20"/>
    <rect x="120" y="51" width="1" height="1" fill="#231f20"/>
    <rect x="153" y="51" width="1" height="1" fill="#231f20"/>
    <rect x="0" y="52" width="1" height="1" fill="#231f20"/>
    <rect x="120" y="52" width="1" height="1" fill="#231f20"/>
    <rect x="153" y="52" width="1" height="1" fill="#231f20"/>
    <rect x="0" y="53" width="1" height="1" fill="#231f20"/>
    <rect x="120" y="53" width="1" height="1" fill="#231f20"/>
    <rect x="153" y="53" width="1" height="1" fill="#231f20"/>
    <rect x="0" y="54" width="1" height="1" fill="#231f20"/>
    <rect x="120" y="54" width="1" height="1" fill="#231f20"/>
    <rect x="153" y="54" width="1" height="1" fill="#231f20"/>
    <rect x="0" y="55" width="1" height="1" fill="#231f20"/>
    <rect x="120" y="55" width="1" height="1" fill="#231f20"/>
    <rect x="153" y="55" width="1" height="1" fill="#231f20"/>
    <rect x="0" y="56" width="1" height="1" fill="#231f20"/>
    <rect x="120" y="56" width="1" height="1" fill="#231f20"/>
    <rect x="153" y="56" width="1" height="1" fill="#231f20"/>
    <rect x="0" y="57" width="1" height="1" fill="#231f20"/>
    <rect x="120" y="57" width="1" height="1" fill="#231f20"/>
    <rect x="153" y="57" width="1" height="1" fill="#231f20"/>
    <rect x="0" y="58" width="1" height="1" fill="#231f20"/>
    <rect x="120" y="58" width="1" height="1" fill="#231f20"/>
    <rect x="153" y="58" width="1" height="1" fill="#231f20"/>
    <rect x="0" y="59" width="1" height="1" fill="#231f20"/>
    <rect x="120" y="59" width="1" height="1" fill="#231f20"/>
    <rect x="153" y="59" width="1" height="1" fill="#231f20"/>
    <rect x="0" y="60" width="1" height="1" fill="#231f20"/>
    <rect x="120" y="60" width="1" height="1" fill="#231f20"/>
    <rect x="153" y="60" width="1" height="1" fill="#231f20"/>
    <rect x="0" y="61" width="1" height="1" fill="#231f20"/>
    <rect x="23" y="61" width="10" height="1" fill="#231f20"/>
    <rect x="56" y="61" width="2" height="1" fill="#231f20"/>
    <rect x="60" y="61" width="1" height="1" fill="#231f20"/>
    <rect x="87" y="61" width="1" height="1" fill="#231f20"/>
    <rect x="90" y="61" width="2" height="1" fill="#231f20"/>
    <rect x="120" y="61" width="1" height="1" fill="#231f20"/>
    <rect x="153" y="61" width="1" height="1" fill="#231f20"/>
    <rect x="0" y="62" width="1" height="1" fill="#231f20"/>
    <rect x="120" y="62" width="1" height="1" fill="#231f20"/>
    <rect x="153" y="62" width="1" height="1" fill="#231f20"/>
    <rect x="0" y="63" width="1" height="1" fill="#231f20"/>
    <rect x="120" y="63" width="1" height="1" fill="#231f20"/>
    <rect x="153" y="63" width="1" height="1" fill="#231f20"/>
    <rect x="0" y="64" width="1" height="1" fill="#231f20"/>
    <rect x="120" y="64" width="1" height="1" fill="#231f20"/>
    <rect x="153" y="64" width="1" height="1" fill="#231f20"/>
    <rect x="0" y="65" width="1" height="1" fill="#231f20"/>
    <rect x="120" y="65" width="1" height="1" fill="#231f20"/>
    <rect x="153" y="65" width="1" height="1" fill="#231f20"/>
    <rect x="0" y="66" width="1" height="1" fill="#231f20"/>
    <rect x="120" y="66" width="1" height="1" fill="#231f20"/>
    <rect x="153" y="66" width="1" height="1" fill="#231f20"/>
    <rect x="0" y="67" width="1" height="1" fill="#231f20"/>
    <rect x="120" y="67" width="1" height="1" fill="#231f20"/>
    <rect x="153" y="67" width="1" height="1" fill="#231f20"/>
    <rect x="0" y="68" width="1" height="1" fill="#231f20"/>
    <rect x="120" y="68" width="1" height="1" fill="#231f20"/>
    <rect x="153" y="68" width="1" height="1" fill="#231f20"/>
    <rect x="0" y="69" width="1" height="1" fill="#231f20"/>
    <rect x="120" y="69" width="1" height="1" fill="#231f20"/>
    <rect x="153" y="69" width="1" height="1" fill="#231f20"/>
    <rect x="0" y="70" width="1" height="1" fill="#231f20"/>
    <rect x="120" y="70" width="1" height="1" fill="#231f20"/>
    <rect x="153" y="70" width="1" height="1" fill="#231f20"/>
    <rect x="0" y="71" width="1" height="1" fill="#231f20"/>
    <rect x="120" y="71" width="1" height="1" fill="#231f20"/>
    <rect x="153" y="71" width="1" height="1" fill="#231f20"/>
    <rect x="0" y="72" width="1" height="1" fill="#231f20"/>
    <rect x="120" y="72" width="1" height="1" fill="#231f20"/>
    <rect x="153" y="72" width="1" height="1" fill="#231f20"/>
    <rect x="0" y="73" width="154" height="1" fill="#231f20"/>
  </g>
</svg>