<?xml version="1.0" encoding="UTF-8"?>
<svg xmlns="http://www.w3.org/2000/svg" viewBox="0 0 179 75" width="179" height="75">
  <!-- Auto-converted from legend-908.png -->
  <rect x="0" y="0" width="179" height="75" fill="none"/>
  <g fill="#231f20" stroke="none">
    <rect x="2" y="3" width="174" height="1" fill="#231f20"/>
    <rect x="2" y="4" width="1" height="1" fill="#231f20"/>
    <rect x="175" y="4" width="1" height="1" fill="#231f20"/>
    <rect x="2" y="5" width="1" height="1" fill="#231f20"/>
    <rect x="175" y="5" width="1" height="1" fill="#231f20"/>
    <rect x="2" y="6" width="1" height="1" fill="#231f20"/>
    <rect x="175" y="6" width="1" height="1" fill="#231f20"/>
    <rect x="2" y="7" width="1" height="1" fill="#231f20"/>
    <rect x="175" y="7" width="1" height="1" fill="#231f20"/>
    <rect x="2" y="8" width="1" height="1" fill="#231f20"/>
    <rect x="175" y="8" width="1" height="1" fill="#231f20"/>
    <rect x="2" y="9" width="1" height="1" fill="#231f20"/>
    <rect x="175" y="9" width="1" height="1" fill="#231f20"/>
    <rect x="2" y="10" width="1" height="1" fill="#231f20"/>
    <rect x="11" y="10" width="156" height="1" fill="#231f20"/>
    <rect x="175" y="10" width="1" height="1" fill="#231f20"/>
    <rect x="2" y="11" width="1" height="1" fill="#231f20"/>
    <rect x="10" y="11" width="158" height="1" fill="#231f20"/>
    <rect x="175" y="11" width="1" height="1" fill="#231f20"/>
    <rect x="2" y="12" width="1" height="1" fill="#231f20"/>
    <rect x="11" y="12" width="156" height="1" fill="#231f20"/>
    <rect x="175" y="12" width="1" height="1" fill="#231f20"/>
    <rect x="2" y="13" width="1" height="1" fill="#231f20"/>
    <rect x="36" y="13" width="3" height="1" fill="#231f20"/>
    <rect x="54" y="13" width="3" height="1" fill="#231f20"/>
    <rect x="71" y="13" width="4" height="1" fill="#231f20"/>
    <rect x="88" y="13" width="3" height="1" fill="#231f20"/>
    <rect x="105" y="13" width="4" height="1" fill="#231f20"/>
    <rect x="122" y="13" width="4" height="1" fill="#231f20"/>
    <rect x="140" y="13" width="3" height="1" fill="#231f20"/>
    <rect x="175" y="13" width="1" height="1" fill="#231f20"/>
    <rect x="2" y="14" width="1" height="1" fill="#231f20"/>
    <rect x="37" y="14" width="3" height="1" fill="#231f20"/>
    <rect x="55" y="14" width="3" height="1" fill="#231f20"/>
    <rect x="72" y="14" width="4" height="1" fill="#231f20"/>
    <rect x="89" y="14" width="3" height="1" fill="#231f20"/>
    <rect x="106" y="14" width="4" height="1" fill="#231f20"/>
    <rect x="123" y="14" width="4" height="1" fill="#231f20"/>
    <rect x="141" y="14" width="3" height="1" fill="#231f20"/>
    <rect x="175" y="14" width="1" height="1" fill="#231f20"/>
    <rect x="2" y="15" width="1" height="1" fill="#231f20"/>
    <rect x="37" y="15" width="4" height="1" fill="#231f20"/>
    <rect x="55" y="15" width="4" height="1" fill="#231f20"/>
    <rect x="72" y="15" width="4" height="1" fill="#231f20"/>
    <rect x="89" y="15" width="4" height="1" fill="#231f20"/>
    <rect x="106" y="15" width="4" height="1" fill="#231f20"/>
    <rect x="123" y="15" width="4" height="1" fill="#231f20"/>
    <rect x="141" y="15" width="4" height="1" fill="#231f20"/>
    <rect x="175" y="15" width="1" height="1" fill="#231f20"/>
    <rect x="2" y="16" width="1" height="1" fill="#231f20"/>
    <rect x="37" y="16" width="4" height="1" fill="#231f20"/>
    <rect x="55" y="16" width="4" height="1" fill="#231f20"/>
    <rect x="73" y="16" width="3" height="1" fill="#231f20"/>
    <rect x="89" y="16" width="4" height="1" fill="#231f20"/>
    <rect x="107" y="16" width="3" height="1" fill="#231f20"/>
    <rect x="124" y="16" width="3" height="1" fill="#231f20"/>
    <rect x="141" y="16" width="4" height="1" fill="#231f20"/>
    <rect x="175" y="16" width="1" height="1" fill="#231f20"/>
    <rect x="2" y="17" width="1" height="1" fill="#231f20"/>
    <rect x="38" y="17" width="4" height="1" fill="#231f20"/>
    <rect x="56" y="17" width="4" height="1" fill="#231f20"/>
    <rect x="74" y="17" width="3" height="1" fill="#231f20"/>
    <rect x="90" y="17" width="4" height="1" fill="#231f20"/>
    <rect x="108" y="17" width="3" height="1" fill="#231f20"/>
    <rect x="125" y="17" width="3" height="1" fill="#231f20"/>
    <rect x="142" y="17" width="4" height="1" fill="#231f20"/>
    <rect x="175" y="17" width="1" height="1" fill="#231f20"/>
    <rect x="2" y="18" width="1" height="1" fill="#231f20"/>
    <rect x="38" y="18" width="4" height="1" fill="#231f20"/>
    <rect x="56" y="18" width="4" height="1" fill="#231f20"/>
    <rect x="74" y="18" width="4" height="1" fill="#231f20"/>
    <rect x="90" y="18" width="4" height="1" fill="#231f20"/>
    <rect x="108" y="18" width="3" height="1" fill="#231f20"/>
    <rect x="125" y="18" width="4" height="1" fill="#231f20"/>
    <rect x="142" y="18" width="4" height="1" fill="#231f20"/>
    <rect x="175" y="18" width="1" height="1" fill="#231f20"/>
    <rect x="2" y="19" width="1" height="1" fill="#231f20"/>
    <rect x="39" y="19" width="3" height="1" fill="#231f20"/>
    <rect x="57" y="19" width="3" height="1" fill="#231f20"/>
    <rect x="74" y="19" width="4" height="1" fill="#231f20"/>
    <rect x="91" y="19" width="3" height="1" fill="#231f20"/>
    <rect x="108" y="19" width="3" height="1" fill="#231f20"/>
    <rect x="125" y="19" width="4" height="1" fill="#231f20"/>
    <rect x="143" y="19" width="3" height="1" fill="#231f20"/>
    <rect x="175" y="19" width="1" height="1" fill="#231f20"/>
    <rect x="2" y="20" width="1" height="1" fill="#231f20"/>
    <rect x="40" y="20" width="3" height="1" fill="#231f20"/>
    <rect x="58" y="20" width="3" height="1" fill="#231f20"/>
    <rect x="75" y="20" width="4" height="1" fill="#231f20"/>
    <rect x="92" y="20" width="3" height="1" fill="#231f20"/>
    <rect x="109" y="20" width="3" height="1" fill="#231f20"/>
    <rect x="126" y="20" width="4" height="1" fill="#231f20"/>
    <rect x="144" y="20" width="3" height="1" fill="#231f20"/>
    <rect x="175" y="20" width="1" height="1" fill="#231f20"/>
    <rect x="2" y="21" width="1" height="1" fill="#231f20"/>
    <rect x="40" y="21" width="4" height="1" fill="#231f20"/>
    <rect x="58" y="21" width="4" height="1" fill="#231f20"/>
    <rect x="75" y="21" width="4" height="1" fill="#231f20"/>
    <rect x="92" y="21" width="3" height="1" fill="#231f20"/>
    <rect x="109" y="21" width="3" height="1" fill="#231f20"/>
    <rect x="126" y="21" width="4" height="1" fill="#231f20"/>
    <rect x="144" y="21" width="4" height="1" fill="#231f20"/>
    <rect x="175" y="21" width="1" height="1" fill="#231f20"/>
    <rect x="2" y="22" width="1" height="1" fill="#231f20"/>
    <rect x="40" y="22" width="4" height="1" fill="#231f20"/>
    <rect x="58" y="22" width="4" height="1" fill="#231f20"/>
    <rect x="76" y="22" width="3" height="1" fill="#231f20"/>
    <rect x="93" y="22" width="3" height="1" fill="#231f20"/>
    <rect x="110" y="22" width="3" height="1" fill="#231f20"/>
    <rect x="127" y="22" width="3" height="1" fill="#231f20"/>
    <rect x="144" y="22" width="4" height="1" fill="#231f20"/>
    <rect x="175" y="22" width="1" height="1" fill="#231f20"/>
    <rect x="2" y="23" width="1" height="1" fill="#231f20"/>
    <rect x="41" y="23" width="4" height="1" fill="#231f20"/>
    <rect x="59" y="23" width="3" height="1" fill="#231f20"/>
    <rect x="76" y="23" width="4" height="1" fill="#231f20"/>
    <rect x="93" y="23" width="4" height="1" fill="#231f20"/>
    <rect x="110" y="23" width="4" height="1" fill="#231f20"/>
    <rect x="127" y="23" width="4" height="1" fill="#231f20"/>
    <rect x="145" y="23" width="4" height="1" fill="#231f20"/>
    <rect x="175" y="23" width="1" height="1" fill="#231f20"/>
    <rect x="2" y="24" width="1" height="1" fill="#231f20"/>
    <rect x="42" y="24" width="3" height="1" fill="#231f20"/>
    <rect x="59" y="24" width="4" height="1" fill="#231f20"/>
    <rect x="76" y="24" width="4" height="1" fill="#231f20"/>
    <rect x="93" y="24" width="4" height="1" fill="#231f20"/>
    <rect x="110" y="24" width="4" height="1" fill="#231f20"/>
    <rect x="127" y="24" width="4" height="1" fill="#231f20"/>
    <rect x="146" y="24" width="3" height="1" fill="#231f20"/>
    <rect x="175" y="24" width="1" height="1" fill="#231f20"/>
    <rect x="2" y="25" width="1" height="1" fill="#231f20"/>
    <rect x="42" y="25" width="3" height="1" fill="#231f20"/>
    <rect x="59" y="25" width="4" height="1" fill="#231f20"/>
    <rect x="77" y="25" width="3" height="1" fill="#231f20"/>
    <rect x="94" y="25" width="3" height="1" fill="#231f20"/>
    <rect x="111" y="25" width="3" height="1" fill="#231f20"/>
    <rect x="128" y="25" width="4" height="1" fill="#231f20"/>
    <rect x="146" y="25" width="3" height="1" fill="#231f20"/>
    <rect x="175" y="25" width="1" height="1" fill="#231f20"/>
    <rect x="2" y="26" width="1" height="1" fill="#231f20"/>
    <rect x="42" y="26" width="4" height="1" fill="#231f20"/>
    <rect x="60" y="26" width="3" height="1" fill="#231f20"/>
    <rect x="77" y="26" width="4" height="1" fill="#231f20"/>
    <rect x="94" y="26" width="3" height="1" fill="#231f20"/>
    <rect x="111" y="26" width="4" height="1" fill="#231f20"/>
    <rect x="128" y="26" width="4" height="1" fill="#231f20"/>
    <rect x="146" y="26" width="4" height="1" fill="#231f20"/>
    <rect x="175" y="26" width="1" height="1" fill="#231f20"/>
    <rect x="2" y="27" width="1" height="1" fill="#231f20"/>
    <rect x="42" y="27" width="4" height="1" fill="#231f20"/>
    <rect x="60" y="27" width="3" height="1" fill="#231f20"/>
    <rect x="77" y="27" width="4" height="1" fill="#231f20"/>
    <rect x="94" y="27" width="4" height="1" fill="#231f20"/>
    <rect x="111" y="27" width="4" height="1" fill="#231f20"/>
    <rect x="129" y="27" width="3" height="1" fill="#231f20"/>
    <rect x="146" y="27" width="4" height="1" fill="#231f20"/>
    <rect x="175" y="27" width="1" height="1" fill="#231f20"/>
    <rect x="2" y="28" width="1" height="1" fill="#231f20"/>
    <rect x="43" y="28" width="3" height="1" fill="#231f20"/>
    <rect x="60" y="28" width="3" height="1" fill="#231f20"/>
    <rect x="78" y="28" width="3" height="1" fill="#231f20"/>
    <rect x="94" y="28" width="4" height="1" fill="#231f20"/>
    <rect x="112" y="28" width="3" height="1" fill="#231f20"/>
    <rect x="129" y="28" width="3" height="1" fill="#231f20"/>
    <rect x="147" y="28" width="3" height="1" fill="#231f20"/>
    <rect x="175" y="28" width="1" height="1" fill="#231f20"/>
    <rect x="2" y="29" width="1" height="1" fill="#231f20"/>
    <rect x="42" y="29" width="4" height="1" fill="#231f20"/>
    <rect x="60" y="29" width="3" height="1" fill="#231f20"/>
    <rect x="78" y="29" width="3" height="1" fill="#231f20"/>
    <rect x="95" y="29" width="3" height="1" fill="#231f20"/>
    <rect x="112" y="29" width="3" height="1" fill="#231f20"/>
    <rect x="129" y="29" width="3" height="1" fill="#231f20"/>
    <rect x="146" y="29" width="4" height="1" fill="#231f20"/>
    <rect x="175" y="29" width="1" height="1" fill="#231f20"/>
    <rect x="2" y="30" width="1" height="1" fill="#231f20"/>
    <rect x="42" y="30" width="4" height="1" fill="#231f20"/>
    <rect x="60" y="30" width="3" height="1" fill="#231f20"/>
    <rect x="77" y="30" width="4" height="1" fill="#231f20"/>
    <rect x="94" y="30" width="4" height="1" fill="#231f20"/>
    <rect x="111" y="30" width="4" height="1" fill="#231f20"/>
    <rect x="129" y="30" width="3" height="1" fill="#231f20"/>
    <rect x="146" y="30" width="4" height="1" fill="#231f20"/>
    <rect x="175" y="30" width="1" height="1" fill="#231f20"/>
    <rect x="2" y="31" width="1" height="1" fill="#231f20"/>
    <rect x="42" y="31" width="4" height="1" fill="#231f20"/>
    <rect x="60" y="31" width="3" height="1" fill="#231f20"/>
    <rect x="77" y="31" width="4" height="1" fill="#231f20"/>
    <rect x="94" y="31" width="4" height="1" fill="#231f20"/>
    <rect x="111" y="31" width="4" height="1" fill="#231f20"/>
    <rect x="128" y="31" width="4" height="1" fill="#231f20"/>
    <rect x="146" y="31" width="4" height="1" fill="#231f20"/>
    <rect x="175" y="31" width="1" height="1" fill="#231f20"/>
    <rect x="2" y="32" width="1" height="1" fill="#231f20"/>
    <rect x="41" y="32" width="4" height="1" fill="#231f20"/>
    <rect x="59" y="32" width="4" height="1" fill="#231f20"/>
    <rect x="77" y="32" width="4" height="1" fill="#231f20"/>
    <rect x="93" y="32" width="4" height="1" fill="#231f20"/>
    <rect x="111" y="32" width="4" height="1" fill="#231f20"/>
    <rect x="128" y="32" width="4" height="1" fill="#231f20"/>
    <rect x="145" y="32" width="4" height="1" fill="#231f20"/>
    <rect x="175" y="32" width="1" height="1" fill="#231f20"/>
    <rect x="2" y="33" width="1" height="1" fill="#231f20"/>
    <rect x="41" y="33" width="4" height="1" fill="#231f20"/>
    <rect x="59" y="33" width="4" height="1" fill="#231f20"/>
    <rect x="76" y="33" width="4" height="1" fill="#231f20"/>
    <rect x="92" y="33" width="5" height="1" fill="#231f20"/>
    <rect x="110" y="33" width="4" height="1" fill="#231f20"/>
    <rect x="127" y="33" width="4" height="1" fill="#231f20"/>
    <rect x="145" y="33" width="4" height="1" fill="#231f20"/>
    <rect x="175" y="33" width="1" height="1" fill="#231f20"/>
    <rect x="2" y="34" width="1" height="1" fill="#231f20"/>
    <rect x="40" y="34" width="3" height="1" fill="#231f20"/>
    <rect x="57" y="34" width="4" height="1" fill="#231f20"/>
    <rect x="75" y="34" width="5" height="1" fill="#231f20"/>
    <rect x="92" y="34" width="4" height="1" fill="#231f20"/>
    <rect x="109" y="34" width="5" height="1" fill="#231f20"/>
    <rect x="126" y="34" width="5" height="1" fill="#231f20"/>
    <rect x="144" y="34" width="3" height="1" fill="#231f20"/>
    <rect x="175" y="34" width="1" height="1" fill="#231f20"/>
    <rect x="2" y="35" width="1" height="1" fill="#231f20"/>
    <rect x="39" y="35" width="4" height="1" fill="#231f20"/>
    <rect x="57" y="35" width="4" height="1" fill="#231f20"/>
    <rect x="75" y="35" width="4" height="1" fill="#231f20"/>
    <rect x="91" y="35" width="4" height="1" fill="#231f20"/>
    <rect x="109" y="35" width="4" height="1" fill="#231f20"/>
    <rect x="126" y="35" width="4" height="1" fill="#231f20"/>
    <rect x="143" y="35" width="4" height="1" fill="#231f20"/>
    <rect x="175" y="35" width="1" height="1" fill="#231f20"/>
    <rect x="2" y="36" width="1" height="1" fill="#231f20"/>
    <rect x="39" y="36" width="4" height="1" fill="#231f20"/>
    <rect x="57" y="36" width="4" height="1" fill="#231f20"/>
    <rect x="75" y="36" width="3" height="1" fill="#231f20"/>
    <rect x="91" y="36" width="4" height="1" fill="#231f20"/>
    <rect x="109" y="36" width="3" height="1" fill="#231f20"/>
    <rect x="126" y="36" width="3" height="1" fill="#231f20"/>
    <rect x="143" y="36" width="4" height="1" fill="#231f20"/>
    <rect x="175" y="36" width="1" height="1" fill="#231f20"/>
    <rect x="2" y="37" width="1" height="1" fill="#231f20"/>
    <rect x="39" y="37" width="4" height="1" fill="#231f20"/>
    <rect x="57" y="37" width="4" height="1" fill="#231f20"/>
    <rect x="75" y="37" width="3" height="1" fill="#231f20"/>
    <rect x="91" y="37" width="4" height="1" fill="#231f20"/>
    <rect x="109" y="37" width="3" height="1" fill="#231f20"/>
    <rect x="126" y="37" width="3" height="1" fill="#231f20"/>
    <rect x="143" y="37" width="4" height="1" fill="#231f20"/>
    <rect x="175" y="37" width="1" height="1" fill="#231f20"/>
    <rect x="2" y="38" width="1" height="1" fill="#231f20"/>
    <rect x="39" y="38" width="4" height="1" fill="#231f20"/>
    <rect x="57" y="38" width="4" height="1" fill="#231f20"/>
    <rect x="75" y="38" width="4" height="1" fill="#231f20"/>
    <rect x="91" y="38" width="4" height="1" fill="#231f20"/>
    <rect x="109" y="38" width="4" height="1" fill="#231f20"/>
    <rect x="126" y="38" width="4" height="1" fill="#231f20"/>
    <rect x="143" y="38" width="4" height="1" fill="#231f20"/>
    <rect x="175" y="38" width="1" height="1" fill="#231f20"/>
    <rect x="2" y="39" width="1" height="1" fill="#231f20"/>
    <rect x="40" y="39" width="5" height="1" fill="#231f20"/>
    <rect x="57" y="39" width="5" height="1" fill="#231f20"/>
    <rect x="75" y="39" width="4" height="1" fill="#231f20"/>
    <rect x="92" y="39" width="4" height="1" fill="#231f20"/>
    <rect x="109" y="39" width="4" height="1" fill="#231f20"/>
    <rect x="126" y="39" width="4" height="1" fill="#231f20"/>
    <rect x="144" y="39" width="5" height="1" fill="#231f20"/>
    <rect x="175" y="39" width="1" height="1" fill="#231f20"/>
    <rect x="2" y="40" width="1" height="1" fill="#231f20"/>
    <rect x="40" y="40" width="5" height="1" fill="#231f20"/>
    <rect x="58" y="40" width="5" height="1" fill="#231f20"/>
    <rect x="75" y="40" width="5" height="1" fill="#231f20"/>
    <rect x="92" y="40" width="5" height="1" fill="#231f20"/>
    <rect x="109" y="40" width="5" height="1" fill="#231f20"/>
    <rect x="126" y="40" width="6" height="1" fill="#231f20"/>
    <rect x="144" y="40" width="5" height="1" fill="#231f20"/>
    <rect x="175" y="40" width="1" height="1" fill="#231f20"/>
    <rect x="2" y="41" width="1" height="1" fill="#231f20"/>
    <rect x="41" y="41" width="5" height="1" fill="#231f20"/>
    <rect x="59" y="41" width="5" height="1" fill="#231f20"/>
    <rect x="76" y="41" width="5" height="1" fill="#231f20"/>
    <rect x="93" y="41" width="5" height="1" fill="#231f20"/>
    <rect x="110" y="41" width="5" height="1" fill="#231f20"/>
    <rect x="127" y="41" width="5" height="1" fill="#231f20"/>
    <rect x="145" y="41" width="5" height="1" fill="#231f20"/>
    <rect x="175" y="41" width="1" height="1" fill="#231f20"/>
    <rect x="2" y="42" width="1" height="1" fill="#231f20"/>
    <rect x="42" y="42" width="4" height="1" fill="#231f20"/>
    <rect x="60" y="42" width="4" height="1" fill="#231f20"/>
    <rect x="77" y="42" width="4" height="1" fill="#231f20"/>
    <rect x="94" y="42" width="4" height="1" fill="#231f20"/>
    <rect x="111" y="42" width="4" height="1" fill="#231f20"/>
    <rect x="128" y="42" width="4" height="1" fill="#231f20"/>
    <rect x="146" y="42" width="4" height="1" fill="#231f20"/>
    <rect x="175" y="42" width="1" height="1" fill="#231f20"/>
    <rect x="2" y="43" width="1" height="1" fill="#231f20"/>
    <rect x="42" y="43" width="4" height="1" fill="#231f20"/>
    <rect x="60" y="43" width="4" height="1" fill="#231f20"/>
    <rect x="78" y="43" width="3" height="1" fill="#231f20"/>
    <rect x="94" y="43" width="4" height="1" fill="#231f20"/>
    <rect x="112" y="43" width="3" height="1" fill="#231f20"/>
    <rect x="129" y="43" width="4" height="1" fill="#231f20"/>
    <rect x="146" y="43" width="4" height="1" fill="#231f20"/>
    <rect x="175" y="43" width="1" height="1" fill="#231f20"/>
    <rect x="2" y="44" width="1" height="1" fill="#231f20"/>
    <rect x="43" y="44" width="3" height="1" fill="#231f20"/>
    <rect x="61" y="44" width="3" height="1" fill="#231f20"/>
    <rect x="78" y="44" width="3" height="1" fill="#231f20"/>
    <rect x="95" y="44" width="3" height="1" fill="#231f20"/>
    <rect x="112" y="44" width="3" height="1" fill="#231f20"/>
    <rect x="129" y="44" width="4" height="1" fill="#231f20"/>
    <rect x="147" y="44" width="3" height="1" fill="#231f20"/>
    <rect x="175" y="44" width="1" height="1" fill="#231f20"/>
    <rect x="2" y="45" width="1" height="1" fill="#231f20"/>
    <rect x="43" y="45" width="3" height="1" fill="#231f20"/>
    <rect x="60" y="45" width="4" height="1" fill="#231f20"/>
    <rect x="78" y="45" width="3" height="1" fill="#231f20"/>
    <rect x="95" y="45" width="3" height="1" fill="#231f20"/>
    <rect x="112" y="45" width="3" height="1" fill="#231f20"/>
    <rect x="129" y="45" width="4" height="1" fill="#231f20"/>
    <rect x="147" y="45" width="3" height="1" fill="#231f20"/>
    <rect x="175" y="45" width="1" height="1" fill="#231f20"/>
    <rect x="2" y="46" width="1" height="1" fill="#231f20"/>
    <rect x="42" y="46" width="4" height="1" fill="#231f20"/>
    <rect x="60" y="46" width="4" height="1" fill="#231f20"/>
    <rect x="78" y="46" width="3" height="1" fill="#231f20"/>
    <rect x="94" y="46" width="4" height="1" fill="#231f20"/>
    <rect x="112" y="46" width="3" height="1" fill="#231f20"/>
    <rect x="129" y="46" width="4" height="1" fill="#231f20"/>
    <rect x="146" y="46" width="4" height="1" fill="#231f20"/>
    <rect x="175" y="46" width="1" height="1" fill="#231f20"/>
    <rect x="2" y="47" width="1" height="1" fill="#231f20"/>
    <rect x="42" y="47" width="4" height="1" fill="#231f20"/>
    <rect x="60" y="47" width="3" height="1" fill="#231f20"/>
    <rect x="77" y="47" width="4" height="1" fill="#231f20"/>
    <rect x="94" y="47" width="4" height="1" fill="#231f20"/>
    <rect x="111" y="47" width="4" height="1" fill="#231f20"/>
    <rect x="129" y="47" width="3" height="1" fill="#231f20"/>
    <rect x="146" y="47" width="4" height="1" fill="#231f20"/>
    <rect x="175" y="47" width="1" height="1" fill="#231f20"/>
    <rect x="2" y="48" width="1" height="1" fill="#231f20"/>
    <rect x="41" y="48" width="4" height="1" fill="#231f20"/>
    <rect x="59" y="48" width="4" height="1" fill="#231f20"/>
    <rect x="77" y="48" width="4" height="1" fill="#231f20"/>
    <rect x="94" y="48" width="3" height="1" fill="#231f20"/>
    <rect x="111" y="48" width="4" height="1" fill="#231f20"/>
    <rect x="129" y="48" width="3" height="1" fill="#231f20"/>
    <rect x="145" y="48" width="4" height="1" fill="#231f20"/>
    <rect x="175" y="48" width="1" height="1" fill="#231f20"/>
    <rect x="2" y="49" width="1" height="1" fill="#231f20"/>
    <rect x="41" y="49" width="4" height="1" fill="#231f20"/>
    <rect x="59" y="49" width="4" height="1" fill="#231f20"/>
    <rect x="77" y="49" width="3" height="1" fill="#231f20"/>
    <rect x="94" y="49" width="3" height="1" fill="#231f20"/>
    <rect x="111" y="49" width="3" height="1" fill="#231f20"/>
    <rect x="128" y="49" width="4" height="1" fill="#231f20"/>
    <rect x="145" y="49" width="4" height="1" fill="#231f20"/>
    <rect x="175" y="49" width="1" height="1" fill="#231f20"/>
    <rect x="2" y="50" width="1" height="1" fill="#231f20"/>
    <rect x="41" y="50" width="3" height="1" fill="#231f20"/>
    <rect x="59" y="50" width="3" height="1" fill="#231f20"/>
    <rect x="76" y="50" width="4" height="1" fill="#231f20"/>
    <rect x="93" y="50" width="3" height="1" fill="#231f20"/>
    <rect x="110" y="50" width="4" height="1" fill="#231f20"/>
    <rect x="127" y="50" width="4" height="1" fill="#231f20"/>
    <rect x="145" y="50" width="3" height="1" fill="#231f20"/>
    <rect x="175" y="50" width="1" height="1" fill="#231f20"/>
    <rect x="2" y="51" width="1" height="1" fill="#231f20"/>
    <rect x="41" y="51" width="3" height="1" fill="#231f20"/>
    <rect x="58" y="51" width="3" height="1" fill="#231f20"/>
    <rect x="76" y="51" width="4" height="1" fill="#231f20"/>
    <rect x="93" y="51" width="3" height="1" fill="#231f20"/>
    <rect x="110" y="51" width="4" height="1" fill="#231f20"/>
    <rect x="127" y="51" width="4" height="1" fill="#231f20"/>
    <rect x="145" y="51" width="3" height="1" fill="#231f20"/>
    <rect x="175" y="51" width="1" height="1" fill="#231f20"/>
    <rect x="2" y="52" width="1" height="1" fill="#231f20"/>
    <rect x="41" y="52" width="3" height="1" fill="#231f20"/>
    <rect x="58" y="52" width="3" height="1" fill="#231f20"/>
    <rect x="76" y="52" width="3" height="1" fill="#231f20"/>
    <rect x="93" y="52" width="3" height="1" fill="#231f20"/>
    <rect x="110" y="52" width="3" height="1" fill="#231f20"/>
    <rect x="127" y="52" width="3" height="1" fill="#231f20"/>
    <rect x="144" y="52" width="4" height="1" fill="#231f20"/>
    <rect x="175" y="52" width="1" height="1" fill="#231f20"/>
    <rect x="2" y="53" width="1" height="1" fill="#231f20"/>
    <rect x="40" y="53" width="3" height="1" fill="#231f20"/>
    <rect x="57" y="53" width="4" height="1" fill="#231f20"/>
    <rect x="75" y="53" width="3" height="1" fill="#231f20"/>
    <rect x="91" y="53" width="4" height="1" fill="#231f20"/>
    <rect x="109" y="53" width="3" height="1" fill="#231f20"/>
    <rect x="126" y="53" width="4" height="1" fill="#231f20"/>
    <rect x="143" y="53" width="4" height="1" fill="#231f20"/>
    <rect x="175" y="53" width="1" height="1" fill="#231f20"/>
    <rect x="2" y="54" width="1" height="1" fill="#231f20"/>
    <rect x="39" y="54" width="4" height="1" fill="#231f20"/>
    <rect x="57" y="54" width="4" height="1" fill="#231f20"/>
    <rect x="75" y="54" width="3" height="1" fill="#231f20"/>
    <rect x="91" y="54" width="4" height="1" fill="#231f20"/>
    <rect x="109" y="54" width="3" height="1" fill="#231f20"/>
    <rect x="126" y="54" width="4" height="1" fill="#231f20"/>
    <rect x="143" y="54" width="4" height="1" fill="#231f20"/>
    <rect x="175" y="54" width="1" height="1" fill="#231f20"/>
    <rect x="2" y="55" width="1" height="1" fill="#231f20"/>
    <rect x="39" y="55" width="4" height="1" fill="#231f20"/>
    <rect x="57" y="55" width="3" height="1" fill="#231f20"/>
    <rect x="74" y="55" width="4" height="1" fill="#231f20"/>
    <rect x="91" y="55" width="4" height="1" fill="#231f20"/>
    <rect x="108" y="55" width="4" height="1" fill="#231f20"/>
    <rect x="126" y="55" width="3" height="1" fill="#231f20"/>
    <rect x="143" y="55" width="3" height="1" fill="#231f20"/>
    <rect x="175" y="55" width="1" height="1" fill="#231f20"/>
    <rect x="2" y="56" width="1" height="1" fill="#231f20"/>
    <rect x="39" y="56" width="3" height="1" fill="#231f20"/>
    <rect x="57" y="56" width="3" height="1" fill="#231f20"/>
    <rect x="74" y="56" width="4" height="1" fill="#231f20"/>
    <rect x="91" y="56" width="3" height="1" fill="#231f20"/>
    <rect x="108" y="56" width="4" height="1" fill="#231f20"/>
    <rect x="125" y="56" width="4" height="1" fill="#231f20"/>
    <rect x="143" y="56" width="3" height="1" fill="#231f20"/>
    <rect x="175" y="56" width="1" height="1" fill="#231f20"/>
    <rect x="2" y="57" width="1" height="1" fill="#231f20"/>
    <rect x="39" y="57" width="3" height="1" fill="#231f20"/>
    <rect x="57" y="57" width="3" height="1" fill="#231f20"/>
    <rect x="74" y="57" width="3" height="1" fill="#231f20"/>
    <rect x="91" y="57" width="3" height="1" fill="#231f20"/>
    <rect x="108" y="57" width="3" height="1" fill="#231f20"/>
    <rect x="125" y="57" width="4" height="1" fill="#231f20"/>
    <rect x="143" y="57" width="3" height="1" fill="#231f20"/>
    <rect x="175" y="57" width="1" height="1" fill="#231f20"/>
    <rect x="2" y="58" width="1" height="1" fill="#231f20"/>
    <rect x="39" y="58" width="3" height="1" fill="#231f20"/>
    <rect x="57" y="58" width="3" height="1" fill="#231f20"/>
    <rect x="74" y="58" width="3" height="1" fill="#231f20"/>
    <rect x="91" y="58" width="3" height="1" fill="#231f20"/>
    <rect x="108" y="58" width="3" height="1" fill="#231f20"/>
    <rect x="125" y="58" width="3" height="1" fill="#231f20"/>
    <rect x="143" y="58" width="3" height="1" fill="#231f20"/>
    <rect x="175" y="58" width="1" height="1" fill="#231f20"/>
    <rect x="2" y="59" width="1" height="1" fill="#231f20"/>
    <rect x="39" y="59" width="3" height="1" fill="#231f20"/>
    <rect x="57" y="59" width="3" height="1" fill="#231f20"/>
    <rect x="74" y="59" width="3" height="1" fill="#231f20"/>
    <rect x="91" y="59" width="3" height="1" fill="#231f20"/>
    <rect x="108" y="59" width="3" height="1" fill="#231f20"/>
    <rect x="125" y="59" width="3" height="1" fill="#231f20"/>
    <rect x="143" y="59" width="3" height="1" fill="#231f20"/>
    <rect x="175" y="59" width="1" height="1" fill="#231f20"/>
    <rect x="2" y="60" width="1" height="1" fill="#231f20"/>
    <rect x="39" y="60" width="3" height="1" fill="#231f20"/>
    <rect x="57" y="60" width="3" height="1" fill="#231f20"/>
    <rect x="74" y="60" width="3" height="1" fill="#231f20"/>
    <rect x="91" y="60" width="3" height="1" fill="#231f20"/>
    <rect x="108" y="60" width="3" height="1" fill="#231f20"/>
    <rect x="125" y="60" width="3" height="1" fill="#231f20"/>
    <rect x="143" y="60" width="3" height="1" fill="#231f20"/>
    <rect x="175" y="60" width="1" height="1" fill="#231f20"/>
    <rect x="2" y="61" width="1" height="1" fill="#231f20"/>
    <rect x="39" y="61" width="3" height="1" fill="#231f20"/>
    <rect x="56" y="61" width="3" height="1" fill="#231f20"/>
    <rect x="74" y="61" width="3" height="1" fill="#231f20"/>
    <rect x="91" y="61" width="3" height="1" fill="#231f20"/>
    <rect x="108" y="61" width="3" height="1" fill="#231f20"/>
    <rect x="125" y="61" width="3" height="1" fill="#231f20"/>
    <rect x="143" y="61" width="3" height="1" fill="#231f20"/>
    <rect x="175" y="61" width="1" height="1" fill="#231f20"/>
    <rect x="2" y="62" width="1" height="1" fill="#231f20"/>
    <rect x="11" y="62" width="156" height="1" fill="#231f20"/>
    <rect x="175" y="62" width="1" height="1" fill="#231f20"/>
    <rect x="2" y="63" width="1" height="1" fill="#231f20"/>
    <rect x="10" y="63" width="158" height="1" fill="#231f20"/>
    <rect x="175" y="63" width="1" height="1" fill="#231f20"/>
    <rect x="2" y="64" width="1" height="1" fill="#231f20"/>
    <rect x="11" y="64" width="156" height="1" fill="#231f20"/>
    <rect x="175" y="64" width="1" height="1" fill="#231f20"/>
    <rect x="2" y="65" width="1" height="1" fill="#231f20"/>
    <rect x="175" y="65" width="1" height="1" fill="#231f20"/>
    <rect x="2" y="66" width="1" height="1" fill="#231f20"/>
    <rect x="175" y="66" width="1" height="1" fill="#231f20"/>
    <rect x="2" y="67" width="1" height="1" fill="#231f20"/>
    <rect x="175" y="67" width="1" height="1" fill="#231f20"/>
    <rect x="2" y="68" width="1" height="1" fill="#231f20"/>
    <rect x="175" y="68" width="1" height="1" fill="#231f20"/>
    <rect x="2" y="69" width="1" height="1" fill="#231f20"/>
    <rect x="175" y="69" width="1" height="1" fill="#231f20"/>
    <rect x="2" y="70" width="1" height="1" fill="#231f20"/>
    <rect x="175" y="70" width="1" height="1" fill="#231f20"/>
    <rect x="2" y="71" width="174" height="1" fill="#231f20"/>
  </g>
</svg>