<?xml version="1.0" encoding="UTF-8"?>
<svg xmlns="http://www.w3.org/2000/svg" viewBox="0 0 90 72" width="90" height="72">
  <!-- Auto-converted from legend-683.png -->
  <rect x="0" y="0" width="90" height="72" fill="none"/>
  <g fill="#231f20" stroke="none">
    <rect x="0" y="0" width="90" height="1" fill="#231f20"/>
    <rect x="0" y="1" width="1" height="1" fill="#231f20"/>
    <rect x="89" y="1" width="1" height="1" fill="#231f20"/>
    <rect x="0" y="2" width="1" height="1" fill="#231f20"/>
    <rect x="89" y="2" width="1" height="1" fill="#231f20"/>
    <rect x="0" y="3" width="1" height="1" fill="#231f20"/>
    <rect x="89" y="3" width="1" height="1" fill="#231f20"/>
    <rect x="0" y="4" width="1" height="1" fill="#231f20"/>
    <rect x="89" y="4" width="1" height="1" fill="#231f20"/>
    <rect x="0" y="5" width="1" height="1" fill="#231f20"/>
    <rect x="89" y="5" width="1" height="1" fill="#231f20"/>
    <rect x="0" y="6" width="1" height="1" fill="#231f20"/>
    <rect x="89" y="6" width="1" height="1" fill="#231f20"/>
    <rect x="0" y="7" width="1" height="1" fill="#231f20"/>
    <rect x="89" y="7" width="1" height="1" fill="#231f20"/>
    <rect x="0" y="8" width="1" height="1" fill="#231f20"/>
    <rect x="89" y="8" width="1" height="1" fill="#231f20"/>
    <rect x="0" y="9" width="1" height="1" fill="#231f20"/>
    <rect x="89" y="9" width="1" height="1" fill="#231f20"/>
    <rect x="0" y="10" width="1" height="1" fill="#231f20"/>
    <rect x="89" y="10" width="1" height="1" fill="#231f20"/>
    <rect x="0" y="11" width="1" height="1" fill="#231f20"/>
    <rect x="89" y="11" width="1" height="1" fill="#231f20"/>
    <rect x="0" y="12" width="1" height="1" fill="#231f20"/>
    <rect x="89" y="12" width="1" height="1" fill="#231f20"/>
    <rect x="0" y="13" width="1" height="1" fill="#231f20"/>
    <rect x="89" y="13" width="1" height="1" fill="#231f20"/>
    <rect x="0" y="14" width="1" height="1" fill="#231f20"/>
    <rect x="89" y="14" width="1" height="1" fill="#231f20"/>
    <rect x="0" y="15" width="1" height="1" fill="#231f20"/>
    <rect x="89" y="15" width="1" height="1" fill="#231f20"/>
    <rect x="0" y="16" width="1" height="1" fill="#231f20"/>
    <rect x="89" y="16" width="1" height="1" fill="#231f20"/>
    <rect x="0" y="17" width="1" height="1" fill="#231f20"/>
    <rect x="89" y="17" width="1" height="1" fill="#231f20"/>
    <rect x="0" y="18" width="1" height="1" fill="#231f20"/>
    <rect x="89" y="18" width="1" height="1" fill="#231f20"/>
    <rect x="0" y="19" width="1" height="1" fill="#231f20"/>
    <rect x="89" y="19" width="1" height="1" fill="#231f20"/>
    <rect x="0" y="20" width="1" height="1" fill="#231f20"/>
    <rect x="89" y="20" width="1" height="1" fill="#231f20"/>
    <rect x="0" y="21" width="1" height="1" fill="#231f20"/>
    <rect x="36" y="21" width="1" height="1" fill="#231f20"/>
    <rect x="45" y="21" width="1" height="1" fill="#231f20"/>
    <rect x="54" y="21" width="1" height="1" fill="#231f20"/>
    <rect x="89" y="21" width="1" height="1" fill="#231f20"/>
    <rect x="0" y="22" width="1" height="1" fill="#231f20"/>
    <rect x="36" y="22" width="1" height="1" fill="#231f20"/>
    <rect x="45" y="22" width="1" height="1" fill="#231f20"/>
    <rect x="54" y="22" width="1" height="1" fill="#231f20"/>
    <rect x="89" y="22" width="1" height="1" fill="#231f20"/>
    <rect x="0" y="23" width="1" height="1" fill="#231f20"/>
    <rect x="36" y="23" width="1" height="1" fill="#231f20"/>
    <rect x="45" y="23" width="1" height="1" fill="#231f20"/>
    <rect x="54" y="23" width="1" height="1" fill="#231f20"/>
    <rect x="89" y="23" width="1" height="1" fill="#231f20"/>
    <rect x="0" y="24" width="1" height="1" fill="#231f20"/>
    <rect x="36" y="24" width="1" height="1" fill="#231f20"/>
    <rect x="45" y="24" width="1" height="1" fill="#231f20"/>
    <rect x="54" y="24" width="1" height="1" fill="#231f20"/>
    <rect x="89" y="24" width="1" height="1" fill="#231f20"/>
    <rect x="0" y="25" width="1" height="1" fill="#231f20"/>
    <rect x="36" y="25" width="1" height="1" fill="#231f20"/>
    <rect x="45" y="25" width="1" height="1" fill="#231f20"/>
    <rect x="54" y="25" width="1" height="1" fill="#231f20"/>
    <rect x="89" y="25" width="1" height="1" fill="#231f20"/>
    <rect x="0" y="26" width="1" height="1" fill="#231f20"/>
    <rect x="27" y="26" width="17" height="1" fill="#231f20"/>
    <rect x="45" y="26" width="1" height="1" fill="#231f20"/>
    <rect x="47" y="26" width="17" height="1" fill="#231f20"/>
    <rect x="89" y="26" width="1" height="1" fill="#231f20"/>
    <rect x="0" y="27" width="1" height="1" fill="#231f20"/>
    <rect x="36" y="27" width="1" height="1" fill="#231f20"/>
    <rect x="45" y="27" width="1" height="1" fill="#231f20"/>
    <rect x="54" y="27" width="1" height="1" fill="#231f20"/>
    <rect x="89" y="27" width="1" height="1" fill="#231f20"/>
    <rect x="0" y="28" width="1" height="1" fill="#231f20"/>
    <rect x="36" y="28" width="1" height="1" fill="#231f20"/>
    <rect x="45" y="28" width="1" height="1" fill="#231f20"/>
    <rect x="54" y="28" width="1" height="1" fill="#231f20"/>
    <rect x="89" y="28" width="1" height="1" fill="#231f20"/>
    <rect x="0" y="29" width="1" height="1" fill="#231f20"/>
    <rect x="36" y="29" width="1" height="1" fill="#231f20"/>
    <rect x="45" y="29" width="1" height="1" fill="#231f20"/>
    <rect x="54" y="29" width="1" height="1" fill="#231f20"/>
    <rect x="89" y="29" width="1" height="1" fill="#231f20"/>
    <rect x="0" y="30" width="1" height="1" fill="#231f20"/>
    <rect x="36" y="30" width="1" height="1" fill="#231f20"/>
    <rect x="45" y="30" width="1" height="1" fill="#231f20"/>
    <rect x="54" y="30" width="1" height="1" fill="#231f20"/>
    <rect x="89" y="30" width="1" height="1" fill="#231f20"/>
    <rect x="0" y="31" width="1" height="1" fill="#231f20"/>
    <rect x="36" y="31" width="1" height="1" fill="#231f20"/>
    <rect x="45" y="31" width="1" height="1" fill="#231f20"/>
    <rect x="54" y="31" width="1" height="1" fill="#231f20"/>
    <rect x="89" y="31" width="1" height="1" fill="#231f20"/>
    <rect x="0" y="32" width="1" height="1" fill="#231f20"/>
    <rect x="36" y="32" width="1" height="1" fill="#231f20"/>
    <rect x="45" y="32" width="1" height="1" fill="#231f20"/>
    <rect x="54" y="32" width="1" height="1" fill="#231f20"/>
    <rect x="89" y="32" width="1" height="1" fill="#231f20"/>
    <rect x="0" y="33" width="1" height="1" fill="#231f20"/>
    <rect x="45" y="33" width="1" height="1" fill="#231f20"/>
    <rect x="89" y="33" width="1" height="1" fill="#231f20"/>
    <rect x="0" y="34" width="1" height="1" fill="#231f20"/>
    <rect x="45" y="34" width="1" height="1" fill="#231f20"/>
    <rect x="89" y="34" width="1" height="1" fill="#231f20"/>
    <rect x="0" y="35" width="1" height="1" fill="#231f20"/>
    <rect x="27" y="35" width="37" height="1" fill="#231f20"/>
    <rect x="89" y="35" width="1" height="1" fill="#231f20"/>
    <rect x="0" y="36" width="1" height="1" fill="#231f20"/>
    <rect x="45" y="36" width="1" height="1" fill="#231f20"/>
    <rect x="89" y="36" width="1" height="1" fill="#231f20"/>
    <rect x="0" y="37" width="1" height="1" fill="#231f20"/>
    <rect x="45" y="37" width="1" height="1" fill="#231f20"/>
    <rect x="89" y="37" width="1" height="1" fill="#231f20"/>
    <rect x="0" y="38" width="1" height="1" fill="#231f20"/>
    <rect x="45" y="38" width="1" height="1" fill="#231f20"/>
    <rect x="89" y="38" width="1" height="1" fill="#231f20"/>
    <rect x="0" y="39" width="1" height="1" fill="#231f20"/>
    <rect x="36" y="39" width="1" height="1" fill="#231f20"/>
    <rect x="45" y="39" width="1" height="1" fill="#231f20"/>
    <rect x="54" y="39" width="1" height="1" fill="#231f20"/>
    <rect x="89" y="39" width="1" height="1" fill="#231f20"/>
    <rect x="0" y="40" width="1" height="1" fill="#231f20"/>
    <rect x="36" y="40" width="1" height="1" fill="#231f20"/>
    <rect x="45" y="40" width="1" height="1" fill="#231f20"/>
    <rect x="54" y="40" width="1" height="1" fill="#231f20"/>
    <rect x="89" y="40" width="1" height="1" fill="#231f20"/>
    <rect x="0" y="41" width="1" height="1" fill="#231f20"/>
    <rect x="36" y="41" width="1" height="1" fill="#231f20"/>
    <rect x="45" y="41" width="1" height="1" fill="#231f20"/>
    <rect x="54" y="41" width="1" height="1" fill="#231f20"/>
    <rect x="89" y="41" width="1" height="1" fill="#231f20"/>
    <rect x="0" y="42" width="1" height="1" fill="#231f20"/>
    <rect x="36" y="42" width="1" height="1" fill="#231f20"/>
    <rect x="45" y="42" width="1" height="1" fill="#231f20"/>
    <rect x="54" y="42" width="1" height="1" fill="#231f20"/>
    <rect x="89" y="42" width="1" height="1" fill="#231f20"/>
    <rect x="0" y="43" width="1" height="1" fill="#231f20"/>
    <rect x="36" y="43" width="1" height="1" fill="#231f20"/>
    <rect x="45" y="43" width="1" height="1" fill="#231f20"/>
    <rect x="54" y="43" width="1" height="1" fill="#231f20"/>
    <rect x="89" y="43" width="1" height="1" fill="#231f20"/>
    <rect x="0" y="44" width="1" height="1" fill="#231f20"/>
    <rect x="27" y="44" width="17" height="1" fill="#231f20"/>
    <rect x="45" y="44" width="1" height="1" fill="#231f20"/>
    <rect x="47" y="44" width="17" height="1" fill="#231f20"/>
    <rect x="89" y="44" width="1" height="1" fill="#231f20"/>
    <rect x="0" y="45" width="1" height="1" fill="#231f20"/>
    <rect x="36" y="45" width="1" height="1" fill="#231f20"/>
    <rect x="45" y="45" width="1" height="1" fill="#231f20"/>
    <rect x="54" y="45" width="1" height="1" fill="#231f20"/>
    <rect x="89" y="45" width="1" height="1" fill="#231f20"/>
    <rect x="0" y="46" width="1" height="1" fill="#231f20"/>
    <rect x="36" y="46" width="1" height="1" fill="#231f20"/>
    <rect x="45" y="46" width="1" height="1" fill="#231f20"/>
    <rect x="54" y="46" width="1" height="1" fill="#231f20"/>
    <rect x="89" y="46" width="1" height="1" fill="#231f20"/>
    <rect x="0" y="47" width="1" height="1" fill="#231f20"/>
    <rect x="36" y="47" width="1" height="1" fill="#231f20"/>
    <rect x="45" y="47" width="1" height="1" fill="#231f20"/>
    <rect x="54" y="47" width="1" height="1" fill="#231f20"/>
    <rect x="89" y="47" width="1" height="1" fill="#231f20"/>
    <rect x="0" y="48" width="1" height="1" fill="#231f20"/>
    <rect x="36" y="48" width="1" height="1" fill="#231f20"/>
    <rect x="45" y="48" width="1" height="1" fill="#231f20"/>
    <rect x="54" y="48" width="1" height="1" fill="#231f20"/>
    <rect x="89" y="48" width="1" height="1" fill="#231f20"/>
    <rect x="0" y="49" width="1" height="1" fill="#231f20"/>
    <rect x="36" y="49" width="1" height="1" fill="#231f20"/>
    <rect x="45" y="49" width="1" height="1" fill="#231f20"/>
    <rect x="54" y="49" width="1" height="1" fill="#231f20"/>
    <rect x="89" y="49" width="1" height="1" fill="#231f20"/>
    <rect x="0" y="50" width="1" height="1" fill="#231f20"/>
    <rect x="36" y="50" width="1" height="1" fill="#231f20"/>
    <rect x="45" y="50" width="1" height="1" fill="#231f20"/>
    <rect x="54" y="50" width="1" height="1" fill="#231f20"/>
    <rect x="89" y="50" width="1" height="1" fill="#231f20"/>
    <rect x="0" y="51" width="1" height="1" fill="#231f20"/>
    <rect x="89" y="51" width="1" height="1" fill="#231f20"/>
    <rect x="0" y="52" width="1" height="1" fill="#231f20"/>
    <rect x="89" y="52" width="1" height="1" fill="#231f20"/>
    <rect x="0" y="53" width="1" height="1" fill="#231f20"/>
    <rect x="89" y="53" width="1" height="1" fill="#231f20"/>
    <rect x="0" y="54" width="1" height="1" fill="#231f20"/>
    <rect x="89" y="54" width="1" height="1" fill="#231f20"/>
    <rect x="0" y="55" width="1" height="1" fill="#231f20"/>
    <rect x="89" y="55" width="1" height="1" fill="#231f20"/>
    <rect x="0" y="56" width="1" height="1" fill="#231f20"/>
    <rect x="89" y="56" width="1" height="1" fill="#231f20"/>
    <rect x="0" y="57" width="1" height="1" fill="#231f20"/>
    <rect x="89" y="57" width="1" height="1" fill="#231f20"/>
    <rect x="0" y="58" width="1" height="1" fill="#231f20"/>
    <rect x="89" y="58" width="1" height="1" fill="#231f20"/>
    <rect x="0" y="59" width="1" height="1" fill="#231f20"/>
    <rect x="89" y="59" width="1" height="1" fill="#231f20"/>
    <rect x="0" y="60" width="1" height="1" fill="#231f20"/>
    <rect x="89" y="60" width="1" height="1" fill="#231f20"/>
    <rect x="0" y="61" width="1" height="1" fill="#231f20"/>
    <rect x="89" y="61" width="1" height="1" fill="#231f20"/>
    <rect x="0" y="62" width="1" height="1" fill="#231f20"/>
    <rect x="89" y="62" width="1" height="1" fill="#231f20"/>
    <rect x="0" y="63" width="1" height="1" fill="#231f20"/>
    <rect x="89" y="63" width="1" height="1" fill="#231f20"/>
    <rect x="0" y="64" width="1" height="1" fill="#231f20"/>
    <rect x="89" y="64" width="1" height="1" fill="#231f20"/>
    <rect x="0" y="65" width="1" height="1" fill="#231f20"/>
    <rect x="89" y="65" width="1" height="1" fill="#231f20"/>
    <rect x="0" y="66" width="1" height="1" fill="#231f20"/>
    <rect x="89" y="66" width="1" height="1" fill="#231f20"/>
    <rect x="0" y="67" width="1" height="1" fill="#231f20"/>
    <rect x="89" y="67" width="1" height="1" fill="#231f20"/>
    <rect x="0" y="68" width="1" height="1" fill="#231f20"/>
    <rect x="89" y="68" width="1" height="1" fill="#231f20"/>
    <rect x="0" y="69" width="1" height="1" fill="#231f20"/>
    <rect x="89" y="69" width="1" height="1" fill="#231f20"/>
    <rect x="0" y="70" width="1" height="1" fill="#231f20"/>
    <rect x="89" y="70" width="1" height="1" fill="#231f20"/>
    <rect x="0" y="71" width="90" height="1" fill="#231f20"/>
  </g>
</svg>