<?xml version="1.0" encoding="UTF-8"?>
<svg xmlns="http://www.w3.org/2000/svg" viewBox="0 0 164 66" width="164" height="66">
  <!-- Auto-converted from legend-1484.png -->
  <rect x="0" y="0" width="164" height="66" fill="none"/>
  <g fill="#231f20" stroke="none">
    <rect x="0" y="0" width="164" height="1" fill="#231f20"/>
    <rect x="0" y="1" width="1" height="1" fill="#231f20"/>
    <rect x="33" y="1" width="1" height="1" fill="#231f20"/>
    <rect x="98" y="1" width="1" height="1" fill="#231f20"/>
    <rect x="163" y="1" width="1" height="1" fill="#231f20"/>
    <rect x="0" y="2" width="1" height="1" fill="#231f20"/>
    <rect x="33" y="2" width="1" height="1" fill="#231f20"/>
    <rect x="98" y="2" width="1" height="1" fill="#231f20"/>
    <rect x="163" y="2" width="1" height="1" fill="#231f20"/>
    <rect x="0" y="3" width="1" height="1" fill="#231f20"/>
    <rect x="33" y="3" width="1" height="1" fill="#231f20"/>
    <rect x="98" y="3" width="1" height="1" fill="#231f20"/>
    <rect x="163" y="3" width="1" height="1" fill="#231f20"/>
    <rect x="0" y="4" width="1" height="1" fill="#231f20"/>
    <rect x="33" y="4" width="1" height="1" fill="#231f20"/>
    <rect x="98" y="4" width="1" height="1" fill="#231f20"/>
    <rect x="163" y="4" width="1" height="1" fill="#231f20"/>
    <rect x="0" y="5" width="1" height="1" fill="#231f20"/>
    <rect x="33" y="5" width="1" height="1" fill="#231f20"/>
    <rect x="98" y="5" width="1" height="1" fill="#231f20"/>
    <rect x="163" y="5" width="1" height="1" fill="#231f20"/>
    <rect x="0" y="6" width="1" height="1" fill="#231f20"/>
    <rect x="33" y="6" width="1" height="1" fill="#231f20"/>
    <rect x="62" y="6" width="7" height="1" fill="#231f20"/>
    <rect x="98" y="6" width="1" height="1" fill="#231f20"/>
    <rect x="127" y="6" width="7" height="1" fill="#231f20"/>
    <rect x="163" y="6" width="1" height="1" fill="#231f20"/>
    <rect x="0" y="7" width="1" height="1" fill="#231f20"/>
    <rect x="33" y="7" width="1" height="1" fill="#231f20"/>
    <rect x="61" y="7" width="1" height="1" fill="#231f20"/>
    <rect x="69" y="7" width="1" height="1" fill="#231f20"/>
    <rect x="98" y="7" width="1" height="1" fill="#231f20"/>
    <rect x="126" y="7" width="1" height="1" fill="#231f20"/>
    <rect x="134" y="7" width="1" height="1" fill="#231f20"/>
    <rect x="163" y="7" width="1" height="1" fill="#231f20"/>
    <rect x="0" y="8" width="1" height="1" fill="#231f20"/>
    <rect x="33" y="8" width="1" height="1" fill="#231f20"/>
    <rect x="60" y="8" width="1" height="1" fill="#231f20"/>
    <rect x="62" y="8" width="1" height="1" fill="#231f20"/>
    <rect x="70" y="8" width="1" height="1" fill="#231f20"/>
    <rect x="98" y="8" width="1" height="1" fill="#231f20"/>
    <rect x="125" y="8" width="1" height="1" fill="#231f20"/>
    <rect x="127" y="8" width="1" height="1" fill="#231f20"/>
    <rect x="135" y="8" width="1" height="1" fill="#231f20"/>
    <rect x="163" y="8" width="1" height="1" fill="#231f20"/>
    <rect x="0" y="9" width="1" height="1" fill="#231f20"/>
    <rect x="33" y="9" width="1" height="1" fill="#231f20"/>
    <rect x="60" y="9" width="1" height="1" fill="#231f20"/>
    <rect x="63" y="9" width="1" height="1" fill="#231f20"/>
    <rect x="70" y="9" width="1" height="1" fill="#231f20"/>
    <rect x="98" y="9" width="1" height="1" fill="#231f20"/>
    <rect x="125" y="9" width="1" height="1" fill="#231f20"/>
    <rect x="128" y="9" width="1" height="1" fill="#231f20"/>
    <rect x="135" y="9" width="1" height="1" fill="#231f20"/>
    <rect x="163" y="9" width="1" height="1" fill="#231f20"/>
    <rect x="0" y="10" width="1" height="1" fill="#231f20"/>
    <rect x="33" y="10" width="1" height="1" fill="#231f20"/>
    <rect x="60" y="10" width="1" height="1" fill="#231f20"/>
    <rect x="64" y="10" width="1" height="1" fill="#231f20"/>
    <rect x="70" y="10" width="1" height="1" fill="#231f20"/>
    <rect x="98" y="10" width="1" height="1" fill="#231f20"/>
    <rect x="125" y="10" width="1" height="1" fill="#231f20"/>
    <rect x="129" y="10" width="1" height="1" fill="#231f20"/>
    <rect x="135" y="10" width="1" height="1" fill="#231f20"/>
    <rect x="163" y="10" width="1" height="1" fill="#231f20"/>
    <rect x="0" y="11" width="1" height="1" fill="#231f20"/>
    <rect x="33" y="11" width="1" height="1" fill="#231f20"/>
    <rect x="60" y="11" width="1" height="1" fill="#231f20"/>
    <rect x="65" y="11" width="1" height="1" fill="#231f20"/>
    <rect x="71" y="11" width="1" height="1" fill="#231f20"/>
    <rect x="98" y="11" width="1" height="1" fill="#231f20"/>
    <rect x="125" y="11" width="1" height="1" fill="#231f20"/>
    <rect x="130" y="11" width="1" height="1" fill="#231f20"/>
    <rect x="136" y="11" width="1" height="1" fill="#231f20"/>
    <rect x="163" y="11" width="1" height="1" fill="#231f20"/>
    <rect x="0" y="12" width="1" height="1" fill="#231f20"/>
    <rect x="33" y="12" width="1" height="1" fill="#231f20"/>
    <rect x="60" y="12" width="1" height="1" fill="#231f20"/>
    <rect x="66" y="12" width="1" height="1" fill="#231f20"/>
    <rect x="70" y="12" width="1" height="1" fill="#231f20"/>
    <rect x="98" y="12" width="1" height="1" fill="#231f20"/>
    <rect x="125" y="12" width="1" height="1" fill="#231f20"/>
    <rect x="131" y="12" width="1" height="1" fill="#231f20"/>
    <rect x="135" y="12" width="1" height="1" fill="#231f20"/>
    <rect x="163" y="12" width="1" height="1" fill="#231f20"/>
    <rect x="0" y="13" width="1" height="1" fill="#231f20"/>
    <rect x="33" y="13" width="1" height="1" fill="#231f20"/>
    <rect x="60" y="13" width="1" height="1" fill="#231f20"/>
    <rect x="67" y="13" width="1" height="1" fill="#231f20"/>
    <rect x="70" y="13" width="1" height="1" fill="#231f20"/>
    <rect x="98" y="13" width="1" height="1" fill="#231f20"/>
    <rect x="125" y="13" width="1" height="1" fill="#231f20"/>
    <rect x="132" y="13" width="1" height="1" fill="#231f20"/>
    <rect x="135" y="13" width="1" height="1" fill="#231f20"/>
    <rect x="163" y="13" width="1" height="1" fill="#231f20"/>
    <rect x="0" y="14" width="1" height="1" fill="#231f20"/>
    <rect x="33" y="14" width="1" height="1" fill="#231f20"/>
    <rect x="60" y="14" width="1" height="1" fill="#231f20"/>
    <rect x="68" y="14" width="1" height="1" fill="#231f20"/>
    <rect x="70" y="14" width="1" height="1" fill="#231f20"/>
    <rect x="98" y="14" width="1" height="1" fill="#231f20"/>
    <rect x="125" y="14" width="1" height="1" fill="#231f20"/>
    <rect x="133" y="14" width="1" height="1" fill="#231f20"/>
    <rect x="135" y="14" width="1" height="1" fill="#231f20"/>
    <rect x="163" y="14" width="1" height="1" fill="#231f20"/>
    <rect x="0" y="15" width="1" height="1" fill="#231f20"/>
    <rect x="33" y="15" width="1" height="1" fill="#231f20"/>
    <rect x="61" y="15" width="1" height="1" fill="#231f20"/>
    <rect x="69" y="15" width="1" height="1" fill="#231f20"/>
    <rect x="98" y="15" width="1" height="1" fill="#231f20"/>
    <rect x="126" y="15" width="1" height="1" fill="#231f20"/>
    <rect x="134" y="15" width="1" height="1" fill="#231f20"/>
    <rect x="163" y="15" width="1" height="1" fill="#231f20"/>
    <rect x="0" y="16" width="1" height="1" fill="#231f20"/>
    <rect x="33" y="16" width="1" height="1" fill="#231f20"/>
    <rect x="62" y="16" width="7" height="1" fill="#231f20"/>
    <rect x="98" y="16" width="1" height="1" fill="#231f20"/>
    <rect x="127" y="16" width="7" height="1" fill="#231f20"/>
    <rect x="163" y="16" width="1" height="1" fill="#231f20"/>
    <rect x="0" y="17" width="1" height="1" fill="#231f20"/>
    <rect x="33" y="17" width="1" height="1" fill="#231f20"/>
    <rect x="98" y="17" width="1" height="1" fill="#231f20"/>
    <rect x="163" y="17" width="1" height="1" fill="#231f20"/>
    <rect x="0" y="18" width="1" height="1" fill="#231f20"/>
    <rect x="33" y="18" width="1" height="1" fill="#231f20"/>
    <rect x="98" y="18" width="1" height="1" fill="#231f20"/>
    <rect x="163" y="18" width="1" height="1" fill="#231f20"/>
    <rect x="0" y="19" width="1" height="1" fill="#231f20"/>
    <rect x="33" y="19" width="1" height="1" fill="#231f20"/>
    <rect x="98" y="19" width="1" height="1" fill="#231f20"/>
    <rect x="163" y="19" width="1" height="1" fill="#231f20"/>
    <rect x="0" y="20" width="1" height="1" fill="#231f20"/>
    <rect x="33" y="20" width="1" height="1" fill="#231f20"/>
    <rect x="98" y="20" width="1" height="1" fill="#231f20"/>
    <rect x="163" y="20" width="1" height="1" fill="#231f20"/>
    <rect x="0" y="21" width="1" height="1" fill="#231f20"/>
    <rect x="33" y="21" width="1" height="1" fill="#231f20"/>
    <rect x="98" y="21" width="1" height="1" fill="#231f20"/>
    <rect x="163" y="21" width="1" height="1" fill="#231f20"/>
    <rect x="0" y="22" width="164" height="1" fill="#231f20"/>
    <rect x="0" y="23" width="1" height="1" fill="#231f20"/>
    <rect x="65" y="23" width="1" height="1" fill="#231f20"/>
    <rect x="130" y="23" width="1" height="1" fill="#231f20"/>
    <rect x="163" y="23" width="1" height="1" fill="#231f20"/>
    <rect x="0" y="24" width="1" height="1" fill="#231f20"/>
    <rect x="65" y="24" width="1" height="1" fill="#231f20"/>
    <rect x="130" y="24" width="1" height="1" fill="#231f20"/>
    <rect x="163" y="24" width="1" height="1" fill="#231f20"/>
    <rect x="0" y="25" width="1" height="1" fill="#231f20"/>
    <rect x="65" y="25" width="1" height="1" fill="#231f20"/>
    <rect x="130" y="25" width="1" height="1" fill="#231f20"/>
    <rect x="163" y="25" width="1" height="1" fill="#231f20"/>
    <rect x="0" y="26" width="1" height="1" fill="#231f20"/>
    <rect x="65" y="26" width="1" height="1" fill="#231f20"/>
    <rect x="130" y="26" width="1" height="1" fill="#231f20"/>
    <rect x="163" y="26" width="1" height="1" fill="#231f20"/>
    <rect x="0" y="27" width="1" height="1" fill="#231f20"/>
    <rect x="31" y="27" width="4" height="1" fill="#231f20"/>
    <rect x="65" y="27" width="1" height="1" fill="#231f20"/>
    <rect x="96" y="27" width="4" height="1" fill="#231f20"/>
    <rect x="130" y="27" width="1" height="1" fill="#231f20"/>
    <rect x="163" y="27" width="1" height="1" fill="#231f20"/>
    <rect x="0" y="28" width="1" height="1" fill="#231f20"/>
    <rect x="30" y="28" width="1" height="1" fill="#231f20"/>
    <rect x="35" y="28" width="2" height="1" fill="#231f20"/>
    <rect x="65" y="28" width="1" height="1" fill="#231f20"/>
    <rect x="95" y="28" width="1" height="1" fill="#231f20"/>
    <rect x="100" y="28" width="1" height="1" fill="#231f20"/>
    <rect x="130" y="28" width="1" height="1" fill="#231f20"/>
    <rect x="163" y="28" width="1" height="1" fill="#231f20"/>
    <rect x="0" y="29" width="1" height="1" fill="#231f20"/>
    <rect x="29" y="29" width="1" height="1" fill="#231f20"/>
    <rect x="37" y="29" width="1" height="1" fill="#231f20"/>
    <rect x="65" y="29" width="1" height="1" fill="#231f20"/>
    <rect x="94" y="29" width="1" height="1" fill="#231f20"/>
    <rect x="101" y="29" width="1" height="1" fill="#231f20"/>
    <rect x="130" y="29" width="1" height="1" fill="#231f20"/>
    <rect x="163" y="29" width="1" height="1" fill="#231f20"/>
    <rect x="0" y="30" width="1" height="1" fill="#231f20"/>
    <rect x="28" y="30" width="1" height="1" fill="#231f20"/>
    <rect x="30" y="30" width="1" height="1" fill="#231f20"/>
    <rect x="37" y="30" width="1" height="1" fill="#231f20"/>
    <rect x="65" y="30" width="1" height="1" fill="#231f20"/>
    <rect x="93" y="30" width="1" height="1" fill="#231f20"/>
    <rect x="95" y="30" width="1" height="1" fill="#231f20"/>
    <rect x="102" y="30" width="1" height="1" fill="#231f20"/>
    <rect x="130" y="30" width="1" height="1" fill="#231f20"/>
    <rect x="163" y="30" width="1" height="1" fill="#231f20"/>
    <rect x="0" y="31" width="1" height="1" fill="#231f20"/>
    <rect x="27" y="31" width="1" height="1" fill="#231f20"/>
    <rect x="31" y="31" width="1" height="1" fill="#231f20"/>
    <rect x="38" y="31" width="1" height="1" fill="#231f20"/>
    <rect x="65" y="31" width="1" height="1" fill="#231f20"/>
    <rect x="92" y="31" width="1" height="1" fill="#231f20"/>
    <rect x="96" y="31" width="1" height="1" fill="#231f20"/>
    <rect x="103" y="31" width="1" height="1" fill="#231f20"/>
    <rect x="130" y="31" width="1" height="1" fill="#231f20"/>
    <rect x="163" y="31" width="1" height="1" fill="#231f20"/>
    <rect x="0" y="32" width="1" height="1" fill="#231f20"/>
    <rect x="27" y="32" width="1" height="1" fill="#231f20"/>
    <rect x="32" y="32" width="1" height="1" fill="#231f20"/>
    <rect x="38" y="32" width="1" height="1" fill="#231f20"/>
    <rect x="65" y="32" width="1" height="1" fill="#231f20"/>
    <rect x="92" y="32" width="1" height="1" fill="#231f20"/>
    <rect x="97" y="32" width="1" height="1" fill="#231f20"/>
    <rect x="103" y="32" width="1" height="1" fill="#231f20"/>
    <rect x="130" y="32" width="1" height="1" fill="#231f20"/>
    <rect x="163" y="32" width="1" height="1" fill="#231f20"/>
    <rect x="0" y="33" width="1" height="1" fill="#231f20"/>
    <rect x="27" y="33" width="1" height="1" fill="#231f20"/>
    <rect x="33" y="33" width="1" height="1" fill="#231f20"/>
    <rect x="38" y="33" width="1" height="1" fill="#231f20"/>
    <rect x="65" y="33" width="1" height="1" fill="#231f20"/>
    <rect x="92" y="33" width="1" height="1" fill="#231f20"/>
    <rect x="98" y="33" width="1" height="1" fill="#231f20"/>
    <rect x="103" y="33" width="1" height="1" fill="#231f20"/>
    <rect x="130" y="33" width="1" height="1" fill="#231f20"/>
    <rect x="163" y="33" width="1" height="1" fill="#231f20"/>
    <rect x="0" y="34" width="1" height="1" fill="#231f20"/>
    <rect x="27" y="34" width="1" height="1" fill="#231f20"/>
    <rect x="34" y="34" width="1" height="1" fill="#231f20"/>
    <rect x="38" y="34" width="1" height="1" fill="#231f20"/>
    <rect x="65" y="34" width="1" height="1" fill="#231f20"/>
    <rect x="92" y="34" width="1" height="1" fill="#231f20"/>
    <rect x="98" y="34" width="1" height="1" fill="#231f20"/>
    <rect x="103" y="34" width="1" height="1" fill="#231f20"/>
    <rect x="130" y="34" width="1" height="1" fill="#231f20"/>
    <rect x="163" y="34" width="1" height="1" fill="#231f20"/>
    <rect x="0" y="35" width="1" height="1" fill="#231f20"/>
    <rect x="28" y="35" width="1" height="1" fill="#231f20"/>
    <rect x="35" y="35" width="1" height="1" fill="#231f20"/>
    <rect x="37" y="35" width="1" height="1" fill="#231f20"/>
    <rect x="65" y="35" width="1" height="1" fill="#231f20"/>
    <rect x="93" y="35" width="1" height="1" fill="#231f20"/>
    <rect x="99" y="35" width="1" height="1" fill="#231f20"/>
    <rect x="102" y="35" width="1" height="1" fill="#231f20"/>
    <rect x="130" y="35" width="1" height="1" fill="#231f20"/>
    <rect x="163" y="35" width="1" height="1" fill="#231f20"/>
    <rect x="0" y="36" width="1" height="1" fill="#231f20"/>
    <rect x="29" y="36" width="1" height="1" fill="#231f20"/>
    <rect x="36" y="36" width="2" height="1" fill="#231f20"/>
    <rect x="65" y="36" width="1" height="1" fill="#231f20"/>
    <rect x="94" y="36" width="1" height="1" fill="#231f20"/>
    <rect x="100" y="36" width="1" height="1" fill="#231f20"/>
    <rect x="102" y="36" width="1" height="1" fill="#231f20"/>
    <rect x="130" y="36" width="1" height="1" fill="#231f20"/>
    <rect x="163" y="36" width="1" height="1" fill="#231f20"/>
    <rect x="0" y="37" width="1" height="1" fill="#231f20"/>
    <rect x="29" y="37" width="2" height="1" fill="#231f20"/>
    <rect x="35" y="37" width="3" height="1" fill="#231f20"/>
    <rect x="65" y="37" width="1" height="1" fill="#231f20"/>
    <rect x="94" y="37" width="2" height="1" fill="#231f20"/>
    <rect x="100" y="37" width="2" height="1" fill="#231f20"/>
    <rect x="130" y="37" width="1" height="1" fill="#231f20"/>
    <rect x="163" y="37" width="1" height="1" fill="#231f20"/>
    <rect x="0" y="38" width="1" height="1" fill="#231f20"/>
    <rect x="31" y="38" width="4" height="1" fill="#231f20"/>
    <rect x="65" y="38" width="1" height="1" fill="#231f20"/>
    <rect x="96" y="38" width="4" height="1" fill="#231f20"/>
    <rect x="130" y="38" width="1" height="1" fill="#231f20"/>
    <rect x="163" y="38" width="1" height="1" fill="#231f20"/>
    <rect x="0" y="39" width="1" height="1" fill="#231f20"/>
    <rect x="65" y="39" width="1" height="1" fill="#231f20"/>
    <rect x="130" y="39" width="1" height="1" fill="#231f20"/>
    <rect x="163" y="39" width="1" height="1" fill="#231f20"/>
    <rect x="0" y="40" width="1" height="1" fill="#231f20"/>
    <rect x="65" y="40" width="1" height="1" fill="#231f20"/>
    <rect x="130" y="40" width="1" height="1" fill="#231f20"/>
    <rect x="163" y="40" width="1" height="1" fill="#231f20"/>
    <rect x="0" y="41" width="1" height="1" fill="#231f20"/>
    <rect x="65" y="41" width="1" height="1" fill="#231f20"/>
    <rect x="130" y="41" width="1" height="1" fill="#231f20"/>
    <rect x="163" y="41" width="1" height="1" fill="#231f20"/>
    <rect x="0" y="42" width="1" height="1" fill="#231f20"/>
    <rect x="65" y="42" width="1" height="1" fill="#231f20"/>
    <rect x="130" y="42" width="1" height="1" fill="#231f20"/>
    <rect x="163" y="42" width="1" height="1" fill="#231f20"/>
    <rect x="0" y="43" width="1" height="1" fill="#231f20"/>
    <rect x="65" y="43" width="1" height="1" fill="#231f20"/>
    <rect x="130" y="43" width="1" height="1" fill="#231f20"/>
    <rect x="163" y="43" width="1" height="1" fill="#231f20"/>
    <rect x="0" y="44" width="164" height="1" fill="#231f20"/>
    <rect x="0" y="45" width="1" height="1" fill="#231f20"/>
    <rect x="33" y="45" width="1" height="1" fill="#231f20"/>
    <rect x="98" y="45" width="1" height="1" fill="#231f20"/>
    <rect x="163" y="45" width="1" height="1" fill="#231f20"/>
    <rect x="0" y="46" width="1" height="1" fill="#231f20"/>
    <rect x="33" y="46" width="1" height="1" fill="#231f20"/>
    <rect x="98" y="46" width="1" height="1" fill="#231f20"/>
    <rect x="163" y="46" width="1" height="1" fill="#231f20"/>
    <rect x="0" y="47" width="1" height="1" fill="#231f20"/>
    <rect x="33" y="47" width="1" height="1" fill="#231f20"/>
    <rect x="98" y="47" width="1" height="1" fill="#231f20"/>
    <rect x="163" y="47" width="1" height="1" fill="#231f20"/>
    <rect x="0" y="48" width="1" height="1" fill="#231f20"/>
    <rect x="33" y="48" width="1" height="1" fill="#231f20"/>
    <rect x="98" y="48" width="1" height="1" fill="#231f20"/>
    <rect x="163" y="48" width="1" height="1" fill="#231f20"/>
    <rect x="0" y="49" width="1" height="1" fill="#231f20"/>
    <rect x="33" y="49" width="1" height="1" fill="#231f20"/>
    <rect x="63" y="49" width="5" height="1" fill="#231f20"/>
    <rect x="98" y="49" width="1" height="1" fill="#231f20"/>
    <rect x="128" y="49" width="5" height="1" fill="#231f20"/>
    <rect x="163" y="49" width="1" height="1" fill="#231f20"/>
    <rect x="0" y="50" width="1" height="1" fill="#231f20"/>
    <rect x="33" y="50" width="1" height="1" fill="#231f20"/>
    <rect x="62" y="50" width="1" height="1" fill="#231f20"/>
    <rect x="68" y="50" width="1" height="1" fill="#231f20"/>
    <rect x="98" y="50" width="1" height="1" fill="#231f20"/>
    <rect x="127" y="50" width="1" height="1" fill="#231f20"/>
    <rect x="133" y="50" width="1" height="1" fill="#231f20"/>
    <rect x="163" y="50" width="1" height="1" fill="#231f20"/>
    <rect x="0" y="51" width="1" height="1" fill="#231f20"/>
    <rect x="33" y="51" width="1" height="1" fill="#231f20"/>
    <rect x="61" y="51" width="1" height="1" fill="#231f20"/>
    <rect x="69" y="51" width="1" height="1" fill="#231f20"/>
    <rect x="98" y="51" width="1" height="1" fill="#231f20"/>
    <rect x="126" y="51" width="1" height="1" fill="#231f20"/>
    <rect x="134" y="51" width="1" height="1" fill="#231f20"/>
    <rect x="163" y="51" width="1" height="1" fill="#231f20"/>
    <rect x="0" y="52" width="1" height="1" fill="#231f20"/>
    <rect x="33" y="52" width="1" height="1" fill="#231f20"/>
    <rect x="60" y="52" width="1" height="1" fill="#231f20"/>
    <rect x="62" y="52" width="1" height="1" fill="#231f20"/>
    <rect x="70" y="52" width="1" height="1" fill="#231f20"/>
    <rect x="98" y="52" width="1" height="1" fill="#231f20"/>
    <rect x="125" y="52" width="1" height="1" fill="#231f20"/>
    <rect x="127" y="52" width="1" height="1" fill="#231f20"/>
    <rect x="135" y="52" width="1" height="1" fill="#231f20"/>
    <rect x="163" y="52" width="1" height="1" fill="#231f20"/>
    <rect x="0" y="53" width="1" height="1" fill="#231f20"/>
    <rect x="33" y="53" width="1" height="1" fill="#231f20"/>
    <rect x="60" y="53" width="1" height="1" fill="#231f20"/>
    <rect x="63" y="53" width="1" height="1" fill="#231f20"/>
    <rect x="70" y="53" width="1" height="1" fill="#231f20"/>
    <rect x="98" y="53" width="1" height="1" fill="#231f20"/>
    <rect x="125" y="53" width="1" height="1" fill="#231f20"/>
    <rect x="128" y="53" width="1" height="1" fill="#231f20"/>
    <rect x="135" y="53" width="1" height="1" fill="#231f20"/>
    <rect x="163" y="53" width="1" height="1" fill="#231f20"/>
    <rect x="0" y="54" width="1" height="1" fill="#231f20"/>
    <rect x="33" y="54" width="1" height="1" fill="#231f20"/>
    <rect x="60" y="54" width="1" height="1" fill="#231f20"/>
    <rect x="64" y="54" width="2" height="1" fill="#231f20"/>
    <rect x="71" y="54" width="1" height="1" fill="#231f20"/>
    <rect x="98" y="54" width="1" height="1" fill="#231f20"/>
    <rect x="125" y="54" width="1" height="1" fill="#231f20"/>
    <rect x="129" y="54" width="2" height="1" fill="#231f20"/>
    <rect x="136" y="54" width="1" height="1" fill="#231f20"/>
    <rect x="163" y="54" width="1" height="1" fill="#231f20"/>
    <rect x="0" y="55" width="1" height="1" fill="#231f20"/>
    <rect x="33" y="55" width="1" height="1" fill="#231f20"/>
    <rect x="60" y="55" width="1" height="1" fill="#231f20"/>
    <rect x="66" y="55" width="1" height="1" fill="#231f20"/>
    <rect x="71" y="55" width="1" height="1" fill="#231f20"/>
    <rect x="98" y="55" width="1" height="1" fill="#231f20"/>
    <rect x="125" y="55" width="1" height="1" fill="#231f20"/>
    <rect x="131" y="55" width="1" height="1" fill="#231f20"/>
    <rect x="136" y="55" width="1" height="1" fill="#231f20"/>
    <rect x="163" y="55" width="1" height="1" fill="#231f20"/>
    <rect x="0" y="56" width="1" height="1" fill="#231f20"/>
    <rect x="33" y="56" width="1" height="1" fill="#231f20"/>
    <rect x="60" y="56" width="1" height="1" fill="#231f20"/>
    <rect x="67" y="56" width="1" height="1" fill="#231f20"/>
    <rect x="70" y="56" width="1" height="1" fill="#231f20"/>
    <rect x="98" y="56" width="1" height="1" fill="#231f20"/>
    <rect x="125" y="56" width="1" height="1" fill="#231f20"/>
    <rect x="132" y="56" width="1" height="1" fill="#231f20"/>
    <rect x="135" y="56" width="1" height="1" fill="#231f20"/>
    <rect x="163" y="56" width="1" height="1" fill="#231f20"/>
    <rect x="0" y="57" width="1" height="1" fill="#231f20"/>
    <rect x="33" y="57" width="1" height="1" fill="#231f20"/>
    <rect x="60" y="57" width="1" height="1" fill="#231f20"/>
    <rect x="68" y="57" width="1" height="1" fill="#231f20"/>
    <rect x="70" y="57" width="1" height="1" fill="#231f20"/>
    <rect x="98" y="57" width="1" height="1" fill="#231f20"/>
    <rect x="125" y="57" width="1" height="1" fill="#231f20"/>
    <rect x="133" y="57" width="1" height="1" fill="#231f20"/>
    <rect x="135" y="57" width="1" height="1" fill="#231f20"/>
    <rect x="163" y="57" width="1" height="1" fill="#231f20"/>
    <rect x="0" y="58" width="1" height="1" fill="#231f20"/>
    <rect x="33" y="58" width="1" height="1" fill="#231f20"/>
    <rect x="61" y="58" width="1" height="1" fill="#231f20"/>
    <rect x="69" y="58" width="1" height="1" fill="#231f20"/>
    <rect x="98" y="58" width="1" height="1" fill="#231f20"/>
    <rect x="126" y="58" width="1" height="1" fill="#231f20"/>
    <rect x="134" y="58" width="1" height="1" fill="#231f20"/>
    <rect x="163" y="58" width="1" height="1" fill="#231f20"/>
    <rect x="0" y="59" width="1" height="1" fill="#231f20"/>
    <rect x="33" y="59" width="1" height="1" fill="#231f20"/>
    <rect x="62" y="59" width="2" height="1" fill="#231f20"/>
    <rect x="68" y="59" width="1" height="1" fill="#231f20"/>
    <rect x="98" y="59" width="1" height="1" fill="#231f20"/>
    <rect x="127" y="59" width="2" height="1" fill="#231f20"/>
    <rect x="132" y="59" width="2" height="1" fill="#231f20"/>
    <rect x="163" y="59" width="1" height="1" fill="#231f20"/>
    <rect x="0" y="60" width="1" height="1" fill="#231f20"/>
    <rect x="33" y="60" width="1" height="1" fill="#231f20"/>
    <rect x="64" y="60" width="4" height="1" fill="#231f20"/>
    <rect x="98" y="60" width="1" height="1" fill="#231f20"/>
    <rect x="129" y="60" width="3" height="1" fill="#231f20"/>
    <rect x="163" y="60" width="1" height="1" fill="#231f20"/>
    <rect x="0" y="61" width="1" height="1" fill="#231f20"/>
    <rect x="33" y="61" width="1" height="1" fill="#231f20"/>
    <rect x="98" y="61" width="1" height="1" fill="#231f20"/>
    <rect x="163" y="61" width="1" height="1" fill="#231f20"/>
    <rect x="0" y="62" width="1" height="1" fill="#231f20"/>
    <rect x="33" y="62" width="1" height="1" fill="#231f20"/>
    <rect x="98" y="62" width="1" height="1" fill="#231f20"/>
    <rect x="163" y="62" width="1" height="1" fill="#231f20"/>
    <rect x="0" y="63" width="1" height="1" fill="#231f20"/>
    <rect x="33" y="63" width="1" height="1" fill="#231f20"/>
    <rect x="98" y="63" width="1" height="1" fill="#231f20"/>
    <rect x="163" y="63" width="1" height="1" fill="#231f20"/>
    <rect x="0" y="64" width="1" height="1" fill="#231f20"/>
    <rect x="33" y="64" width="1" height="1" fill="#231f20"/>
    <rect x="98" y="64" width="1" height="1" fill="#231f20"/>
    <rect x="163" y="64" width="1" height="1" fill="#231f20"/>
    <rect x="0" y="65" width="164" height="1" fill="#231f20"/>
  </g>
</svg>