<?xml version="1.0" encoding="UTF-8"?>
<svg xmlns="http://www.w3.org/2000/svg" viewBox="0 0 64 51" width="64" height="51">
  <!-- Auto-converted from legend-675.png -->
  <rect x="0" y="0" width="64" height="51" fill="none"/>
  <g fill="#231f20" stroke="none">
    <rect x="63" y="0" width="1" height="1" fill="#231f20"/>
    <rect x="63" y="1" width="1" height="1" fill="#231f20"/>
    <rect x="63" y="2" width="1" height="1" fill="#231f20"/>
    <rect x="63" y="3" width="1" height="1" fill="#231f20"/>
    <rect x="63" y="4" width="1" height="1" fill="#231f20"/>
    <rect x="63" y="5" width="1" height="1" fill="#231f20"/>
    <rect x="63" y="6" width="1" height="1" fill="#231f20"/>
    <rect x="63" y="7" width="1" height="1" fill="#231f20"/>
    <rect x="63" y="8" width="1" height="1" fill="#231f20"/>
    <rect x="63" y="9" width="1" height="1" fill="#231f20"/>
    <rect x="63" y="10" width="1" height="1" fill="#231f20"/>
    <rect x="63" y="11" width="1" height="1" fill="#231f20"/>
    <rect x="63" y="12" width="1" height="1" fill="#231f20"/>
    <rect x="63" y="13" width="1" height="1" fill="#231f20"/>
    <rect x="63" y="14" width="1" height="1" fill="#231f20"/>
    <rect x="63" y="15" width="1" height="1" fill="#231f20"/>
    <rect x="63" y="16" width="1" height="1" fill="#231f20"/>
    <rect x="63" y="17" width="1" height="1" fill="#231f20"/>
    <rect x="63" y="18" width="1" height="1" fill="#231f20"/>
    <rect x="63" y="19" width="1" height="1" fill="#231f20"/>
    <rect x="63" y="20" width="1" height="1" fill="#231f20"/>
    <rect x="63" y="21" width="1" height="1" fill="#231f20"/>
    <rect x="30" y="22" width="3" height="1" fill="#231f20"/>
    <rect x="63" y="22" width="1" height="1" fill="#231f20"/>
    <rect x="30" y="23" width="4" height="1" fill="#231f20"/>
    <rect x="63" y="23" width="1" height="1" fill="#231f20"/>
    <rect x="29" y="24" width="5" height="1" fill="#231f20"/>
    <rect x="63" y="24" width="1" height="1" fill="#231f20"/>
    <rect x="30" y="25" width="4" height="1" fill="#231f20"/>
    <rect x="63" y="25" width="1" height="1" fill="#231f20"/>
    <rect x="30" y="26" width="3" height="1" fill="#231f20"/>
    <rect x="63" y="26" width="1" height="1" fill="#231f20"/>
    <rect x="63" y="27" width="1" height="1" fill="#231f20"/>
    <rect x="63" y="28" width="1" height="1" fill="#231f20"/>
    <rect x="63" y="29" width="1" height="1" fill="#231f20"/>
    <rect x="63" y="30" width="1" height="1" fill="#231f20"/>
    <rect x="63" y="31" width="1" height="1" fill="#231f20"/>
    <rect x="63" y="32" width="1" height="1" fill="#231f20"/>
    <rect x="63" y="33" width="1" height="1" fill="#231f20"/>
    <rect x="63" y="34" width="1" height="1" fill="#231f20"/>
    <rect x="63" y="35" width="1" height="1" fill="#231f20"/>
    <rect x="63" y="36" width="1" height="1" fill="#231f20"/>
    <rect x="63" y="37" width="1" height="1" fill="#231f20"/>
    <rect x="63" y="38" width="1" height="1" fill="#231f20"/>
    <rect x="63" y="39" width="1" height="1" fill="#231f20"/>
    <rect x="63" y="40" width="1" height="1" fill="#231f20"/>
    <rect x="63" y="41" width="1" height="1" fill="#231f20"/>
    <rect x="63" y="42" width="1" height="1" fill="#231f20"/>
    <rect x="63" y="43" width="1" height="1" fill="#231f20"/>
    <rect x="63" y="44" width="1" height="1" fill="#231f20"/>
    <rect x="63" y="45" width="1" height="1" fill="#231f20"/>
    <rect x="63" y="46" width="1" height="1" fill="#231f20"/>
    <rect x="63" y="47" width="1" height="1" fill="#231f20"/>
    <rect x="63" y="48" width="1" height="1" fill="#231f20"/>
    <rect x="63" y="49" width="1" height="1" fill="#231f20"/>
    <rect x="0" y="50" width="64" height="1" fill="#231f20"/>
  </g>
</svg>