<?xml version="1.0" encoding="UTF-8"?>
<svg xmlns="http://www.w3.org/2000/svg" viewBox="0 0 166 83" width="166" height="83">
  <!-- Auto-converted from legend-2672.png -->
  <rect x="0" y="0" width="166" height="83" fill="none"/>
  <g fill="#222633" stroke="none">
    <rect x="0" y="0" width="166" height="1" fill="#222633"/>
    <rect x="0" y="1" width="1" height="1" fill="#222633"/>
    <rect x="165" y="1" width="1" height="1" fill="#222633"/>
    <rect x="0" y="2" width="1" height="1" fill="#222633"/>
    <rect x="165" y="2" width="1" height="1" fill="#222633"/>
    <rect x="0" y="3" width="1" height="1" fill="#222633"/>
    <rect x="165" y="3" width="1" height="1" fill="#222633"/>
    <rect x="0" y="4" width="1" height="1" fill="#222633"/>
    <rect x="165" y="4" width="1" height="1" fill="#222633"/>
    <rect x="0" y="5" width="1" height="1" fill="#222633"/>
    <rect x="165" y="5" width="1" height="1" fill="#222633"/>
    <rect x="0" y="6" width="1" height="1" fill="#222633"/>
    <rect x="63" y="6" width="5" height="1" fill="#222633"/>
    <rect x="165" y="6" width="1" height="1" fill="#222633"/>
    <rect x="0" y="7" width="1" height="1" fill="#222633"/>
    <rect x="61" y="7" width="3" height="1" fill="#222633"/>
    <rect x="68" y="7" width="3" height="1" fill="#222633"/>
    <rect x="165" y="7" width="1" height="1" fill="#222633"/>
    <rect x="0" y="8" width="1" height="1" fill="#222633"/>
    <rect x="60" y="8" width="2" height="1" fill="#222633"/>
    <rect x="71" y="8" width="1" height="1" fill="#222633"/>
    <rect x="165" y="8" width="1" height="1" fill="#222633"/>
    <rect x="0" y="9" width="1" height="1" fill="#222633"/>
    <rect x="60" y="9" width="3" height="1" fill="#222633"/>
    <rect x="71" y="9" width="3" height="1" fill="#222633"/>
    <rect x="165" y="9" width="1" height="1" fill="#222633"/>
    <rect x="0" y="10" width="1" height="1" fill="#222633"/>
    <rect x="59" y="10" width="5" height="1" fill="#222633"/>
    <rect x="71" y="10" width="4" height="1" fill="#222633"/>
    <rect x="165" y="10" width="1" height="1" fill="#222633"/>
    <rect x="0" y="11" width="1" height="1" fill="#222633"/>
    <rect x="59" y="11" width="4" height="1" fill="#222633"/>
    <rect x="71" y="11" width="3" height="1" fill="#222633"/>
    <rect x="75" y="11" width="3" height="1" fill="#222633"/>
    <rect x="165" y="11" width="1" height="1" fill="#222633"/>
    <rect x="0" y="12" width="1" height="1" fill="#222633"/>
    <rect x="59" y="12" width="1" height="1" fill="#222633"/>
    <rect x="78" y="12" width="1" height="1" fill="#222633"/>
    <rect x="165" y="12" width="1" height="1" fill="#222633"/>
    <rect x="0" y="13" width="1" height="1" fill="#222633"/>
    <rect x="59" y="13" width="1" height="1" fill="#222633"/>
    <rect x="79" y="13" width="2" height="1" fill="#222633"/>
    <rect x="165" y="13" width="1" height="1" fill="#222633"/>
    <rect x="0" y="14" width="1" height="1" fill="#222633"/>
    <rect x="59" y="14" width="1" height="1" fill="#222633"/>
    <rect x="66" y="14" width="2" height="1" fill="#222633"/>
    <rect x="77" y="14" width="2" height="1" fill="#222633"/>
    <rect x="80" y="14" width="2" height="1" fill="#222633"/>
    <rect x="165" y="14" width="1" height="1" fill="#222633"/>
    <rect x="0" y="15" width="1" height="1" fill="#222633"/>
    <rect x="59" y="15" width="1" height="1" fill="#222633"/>
    <rect x="66" y="15" width="3" height="1" fill="#222633"/>
    <rect x="76" y="15" width="4" height="1" fill="#222633"/>
    <rect x="81" y="15" width="2" height="1" fill="#222633"/>
    <rect x="165" y="15" width="1" height="1" fill="#222633"/>
    <rect x="0" y="16" width="1" height="1" fill="#222633"/>
    <rect x="59" y="16" width="1" height="1" fill="#222633"/>
    <rect x="66" y="16" width="3" height="1" fill="#222633"/>
    <rect x="77" y="16" width="3" height="1" fill="#222633"/>
    <rect x="82" y="16" width="1" height="1" fill="#222633"/>
    <rect x="165" y="16" width="1" height="1" fill="#222633"/>
    <rect x="0" y="17" width="1" height="1" fill="#222633"/>
    <rect x="59" y="17" width="1" height="1" fill="#222633"/>
    <rect x="67" y="17" width="1" height="1" fill="#222633"/>
    <rect x="78" y="17" width="1" height="1" fill="#222633"/>
    <rect x="83" y="17" width="1" height="1" fill="#222633"/>
    <rect x="165" y="17" width="1" height="1" fill="#222633"/>
    <rect x="0" y="18" width="1" height="1" fill="#222633"/>
    <rect x="59" y="18" width="1" height="1" fill="#222633"/>
    <rect x="84" y="18" width="1" height="1" fill="#222633"/>
    <rect x="165" y="18" width="1" height="1" fill="#222633"/>
    <rect x="0" y="19" width="1" height="1" fill="#222633"/>
    <rect x="59" y="19" width="1" height="1" fill="#222633"/>
    <rect x="84" y="19" width="1" height="1" fill="#222633"/>
    <rect x="165" y="19" width="1" height="1" fill="#222633"/>
    <rect x="0" y="20" width="1" height="1" fill="#222633"/>
    <rect x="59" y="20" width="4" height="1" fill="#222633"/>
    <rect x="71" y="20" width="3" height="1" fill="#222633"/>
    <rect x="82" y="20" width="3" height="1" fill="#222633"/>
    <rect x="165" y="20" width="1" height="1" fill="#222633"/>
    <rect x="0" y="21" width="1" height="1" fill="#222633"/>
    <rect x="60" y="21" width="4" height="1" fill="#222633"/>
    <rect x="71" y="21" width="3" height="1" fill="#222633"/>
    <rect x="82" y="21" width="4" height="1" fill="#222633"/>
    <rect x="165" y="21" width="1" height="1" fill="#222633"/>
    <rect x="0" y="22" width="1" height="1" fill="#222633"/>
    <rect x="60" y="22" width="3" height="1" fill="#222633"/>
    <rect x="72" y="22" width="2" height="1" fill="#222633"/>
    <rect x="82" y="22" width="3" height="1" fill="#222633"/>
    <rect x="86" y="22" width="1" height="1" fill="#222633"/>
    <rect x="165" y="22" width="1" height="1" fill="#222633"/>
    <rect x="0" y="23" width="1" height="1" fill="#222633"/>
    <rect x="60" y="23" width="1" height="1" fill="#222633"/>
    <rect x="87" y="23" width="1" height="1" fill="#222633"/>
    <rect x="165" y="23" width="1" height="1" fill="#222633"/>
    <rect x="0" y="24" width="1" height="1" fill="#222633"/>
    <rect x="61" y="24" width="1" height="1" fill="#222633"/>
    <rect x="87" y="24" width="1" height="1" fill="#222633"/>
    <rect x="165" y="24" width="1" height="1" fill="#222633"/>
    <rect x="0" y="25" width="1" height="1" fill="#222633"/>
    <rect x="61" y="25" width="1" height="1" fill="#222633"/>
    <rect x="66" y="25" width="2" height="1" fill="#222633"/>
    <rect x="77" y="25" width="2" height="1" fill="#222633"/>
    <rect x="85" y="25" width="1" height="1" fill="#222633"/>
    <rect x="87" y="25" width="2" height="1" fill="#222633"/>
    <rect x="165" y="25" width="1" height="1" fill="#222633"/>
    <rect x="0" y="26" width="1" height="1" fill="#222633"/>
    <rect x="62" y="26" width="1" height="1" fill="#222633"/>
    <rect x="66" y="26" width="3" height="1" fill="#222633"/>
    <rect x="76" y="26" width="9" height="1" fill="#222633"/>
    <rect x="87" y="26" width="3" height="1" fill="#222633"/>
    <rect x="165" y="26" width="1" height="1" fill="#222633"/>
    <rect x="0" y="27" width="1" height="1" fill="#222633"/>
    <rect x="62" y="27" width="1" height="1" fill="#222633"/>
    <rect x="66" y="27" width="3" height="1" fill="#222633"/>
    <rect x="77" y="27" width="3" height="1" fill="#222633"/>
    <rect x="83" y="27" width="2" height="1" fill="#222633"/>
    <rect x="87" y="27" width="3" height="1" fill="#222633"/>
    <rect x="165" y="27" width="1" height="1" fill="#222633"/>
    <rect x="0" y="28" width="1" height="1" fill="#222633"/>
    <rect x="62" y="28" width="1" height="1" fill="#222633"/>
    <rect x="76" y="28" width="3" height="1" fill="#222633"/>
    <rect x="80" y="28" width="3" height="1" fill="#222633"/>
    <rect x="84" y="28" width="1" height="1" fill="#222633"/>
    <rect x="90" y="28" width="1" height="1" fill="#222633"/>
    <rect x="165" y="28" width="1" height="1" fill="#222633"/>
    <rect x="0" y="29" width="1" height="1" fill="#222633"/>
    <rect x="63" y="29" width="1" height="1" fill="#222633"/>
    <rect x="77" y="29" width="2" height="1" fill="#222633"/>
    <rect x="80" y="29" width="1" height="1" fill="#222633"/>
    <rect x="82" y="29" width="2" height="1" fill="#222633"/>
    <rect x="91" y="29" width="1" height="1" fill="#222633"/>
    <rect x="165" y="29" width="1" height="1" fill="#222633"/>
    <rect x="0" y="30" width="1" height="1" fill="#222633"/>
    <rect x="63" y="30" width="1" height="1" fill="#222633"/>
    <rect x="72" y="30" width="1" height="1" fill="#222633"/>
    <rect x="76" y="30" width="1" height="1" fill="#222633"/>
    <rect x="78" y="30" width="2" height="1" fill="#222633"/>
    <rect x="81" y="30" width="1" height="1" fill="#222633"/>
    <rect x="83" y="30" width="1" height="1" fill="#222633"/>
    <rect x="92" y="30" width="1" height="1" fill="#222633"/>
    <rect x="165" y="30" width="1" height="1" fill="#222633"/>
    <rect x="0" y="31" width="1" height="1" fill="#222633"/>
    <rect x="63" y="31" width="1" height="1" fill="#222633"/>
    <rect x="71" y="31" width="3" height="1" fill="#222633"/>
    <rect x="75" y="31" width="1" height="1" fill="#222633"/>
    <rect x="77" y="31" width="1" height="1" fill="#222633"/>
    <rect x="79" y="31" width="1" height="1" fill="#222633"/>
    <rect x="81" y="31" width="4" height="1" fill="#222633"/>
    <rect x="93" y="31" width="2" height="1" fill="#222633"/>
    <rect x="165" y="31" width="1" height="1" fill="#222633"/>
    <rect x="0" y="32" width="1" height="1" fill="#222633"/>
    <rect x="64" y="32" width="1" height="1" fill="#222633"/>
    <rect x="71" y="32" width="3" height="1" fill="#222633"/>
    <rect x="75" y="32" width="1" height="1" fill="#222633"/>
    <rect x="77" y="32" width="1" height="1" fill="#222633"/>
    <rect x="79" y="32" width="2" height="1" fill="#222633"/>
    <rect x="82" y="32" width="3" height="1" fill="#222633"/>
    <rect x="93" y="32" width="3" height="1" fill="#222633"/>
    <rect x="165" y="32" width="1" height="1" fill="#222633"/>
    <rect x="0" y="33" width="1" height="1" fill="#222633"/>
    <rect x="64" y="33" width="1" height="1" fill="#222633"/>
    <rect x="72" y="33" width="3" height="1" fill="#222633"/>
    <rect x="77" y="33" width="1" height="1" fill="#222633"/>
    <rect x="82" y="33" width="3" height="1" fill="#222633"/>
    <rect x="93" y="33" width="3" height="1" fill="#222633"/>
    <rect x="165" y="33" width="1" height="1" fill="#222633"/>
    <rect x="0" y="34" width="1" height="1" fill="#222633"/>
    <rect x="65" y="34" width="1" height="1" fill="#222633"/>
    <rect x="81" y="34" width="2" height="1" fill="#222633"/>
    <rect x="96" y="34" width="1" height="1" fill="#222633"/>
    <rect x="165" y="34" width="1" height="1" fill="#222633"/>
    <rect x="0" y="35" width="1" height="1" fill="#222633"/>
    <rect x="65" y="35" width="1" height="1" fill="#222633"/>
    <rect x="97" y="35" width="1" height="1" fill="#222633"/>
    <rect x="165" y="35" width="1" height="1" fill="#222633"/>
    <rect x="0" y="36" width="1" height="1" fill="#222633"/>
    <rect x="65" y="36" width="4" height="1" fill="#222633"/>
    <rect x="77" y="36" width="3" height="1" fill="#222633"/>
    <rect x="87" y="36" width="3" height="1" fill="#222633"/>
    <rect x="97" y="36" width="2" height="1" fill="#222633"/>
    <rect x="165" y="36" width="1" height="1" fill="#222633"/>
    <rect x="0" y="37" width="1" height="1" fill="#222633"/>
    <rect x="66" y="37" width="3" height="1" fill="#222633"/>
    <rect x="76" y="37" width="4" height="1" fill="#222633"/>
    <rect x="87" y="37" width="4" height="1" fill="#222633"/>
    <rect x="98" y="37" width="2" height="1" fill="#222633"/>
    <rect x="165" y="37" width="1" height="1" fill="#222633"/>
    <rect x="0" y="38" width="1" height="1" fill="#222633"/>
    <rect x="66" y="38" width="3" height="1" fill="#222633"/>
    <rect x="77" y="38" width="3" height="1" fill="#222633"/>
    <rect x="87" y="38" width="3" height="1" fill="#222633"/>
    <rect x="99" y="38" width="2" height="1" fill="#222633"/>
    <rect x="165" y="38" width="1" height="1" fill="#222633"/>
    <rect x="0" y="39" width="1" height="1" fill="#222633"/>
    <rect x="66" y="39" width="1" height="1" fill="#222633"/>
    <rect x="100" y="39" width="1" height="1" fill="#222633"/>
    <rect x="165" y="39" width="1" height="1" fill="#222633"/>
    <rect x="0" y="40" width="1" height="1" fill="#222633"/>
    <rect x="66" y="40" width="1" height="1" fill="#222633"/>
    <rect x="82" y="40" width="2" height="1" fill="#222633"/>
    <rect x="86" y="40" width="1" height="1" fill="#222633"/>
    <rect x="101" y="40" width="1" height="1" fill="#222633"/>
    <rect x="165" y="40" width="1" height="1" fill="#222633"/>
    <rect x="0" y="41" width="1" height="1" fill="#222633"/>
    <rect x="66" y="41" width="1" height="1" fill="#222633"/>
    <rect x="72" y="41" width="2" height="1" fill="#222633"/>
    <rect x="78" y="41" width="9" height="1" fill="#222633"/>
    <rect x="93" y="41" width="2" height="1" fill="#222633"/>
    <rect x="102" y="41" width="1" height="1" fill="#222633"/>
    <rect x="165" y="41" width="1" height="1" fill="#222633"/>
    <rect x="0" y="42" width="1" height="1" fill="#222633"/>
    <rect x="66" y="42" width="1" height="1" fill="#222633"/>
    <rect x="71" y="42" width="3" height="1" fill="#222633"/>
    <rect x="78" y="42" width="3" height="1" fill="#222633"/>
    <rect x="82" y="42" width="4" height="1" fill="#222633"/>
    <rect x="93" y="42" width="3" height="1" fill="#222633"/>
    <rect x="103" y="42" width="2" height="1" fill="#222633"/>
    <rect x="165" y="42" width="1" height="1" fill="#222633"/>
    <rect x="0" y="43" width="1" height="1" fill="#222633"/>
    <rect x="67" y="43" width="1" height="1" fill="#222633"/>
    <rect x="71" y="43" width="3" height="1" fill="#222633"/>
    <rect x="77" y="43" width="9" height="1" fill="#222633"/>
    <rect x="93" y="43" width="3" height="1" fill="#222633"/>
    <rect x="103" y="43" width="3" height="1" fill="#222633"/>
    <rect x="165" y="43" width="1" height="1" fill="#222633"/>
    <rect x="0" y="44" width="1" height="1" fill="#222633"/>
    <rect x="67" y="44" width="1" height="1" fill="#222633"/>
    <rect x="72" y="44" width="1" height="1" fill="#222633"/>
    <rect x="77" y="44" width="4" height="1" fill="#222633"/>
    <rect x="82" y="44" width="3" height="1" fill="#222633"/>
    <rect x="94" y="44" width="1" height="1" fill="#222633"/>
    <rect x="105" y="44" width="1" height="1" fill="#222633"/>
    <rect x="165" y="44" width="1" height="1" fill="#222633"/>
    <rect x="0" y="45" width="1" height="1" fill="#222633"/>
    <rect x="67" y="45" width="1" height="1" fill="#222633"/>
    <rect x="76" y="45" width="10" height="1" fill="#222633"/>
    <rect x="106" y="45" width="1" height="1" fill="#222633"/>
    <rect x="165" y="45" width="1" height="1" fill="#222633"/>
    <rect x="0" y="46" width="1" height="1" fill="#222633"/>
    <rect x="67" y="46" width="1" height="1" fill="#222633"/>
    <rect x="76" y="46" width="2" height="1" fill="#222633"/>
    <rect x="79" y="46" width="1" height="1" fill="#222633"/>
    <rect x="81" y="46" width="3" height="1" fill="#222633"/>
    <rect x="107" y="46" width="1" height="1" fill="#222633"/>
    <rect x="165" y="46" width="1" height="1" fill="#222633"/>
    <rect x="0" y="47" width="1" height="1" fill="#222633"/>
    <rect x="67" y="47" width="2" height="1" fill="#222633"/>
    <rect x="75" y="47" width="10" height="1" fill="#222633"/>
    <rect x="87" y="47" width="3" height="1" fill="#222633"/>
    <rect x="98" y="47" width="3" height="1" fill="#222633"/>
    <rect x="107" y="47" width="1" height="1" fill="#222633"/>
    <rect x="165" y="47" width="1" height="1" fill="#222633"/>
    <rect x="0" y="48" width="1" height="1" fill="#222633"/>
    <rect x="67" y="48" width="2" height="1" fill="#222633"/>
    <rect x="74" y="48" width="7" height="1" fill="#222633"/>
    <rect x="82" y="48" width="3" height="1" fill="#222633"/>
    <rect x="87" y="48" width="4" height="1" fill="#222633"/>
    <rect x="98" y="48" width="3" height="1" fill="#222633"/>
    <rect x="107" y="48" width="2" height="1" fill="#222633"/>
    <rect x="165" y="48" width="1" height="1" fill="#222633"/>
    <rect x="0" y="49" width="1" height="1" fill="#222633"/>
    <rect x="67" y="49" width="1" height="1" fill="#222633"/>
    <rect x="73" y="49" width="12" height="1" fill="#222633"/>
    <rect x="88" y="49" width="2" height="1" fill="#222633"/>
    <rect x="99" y="49" width="2" height="1" fill="#222633"/>
    <rect x="108" y="49" width="1" height="1" fill="#222633"/>
    <rect x="165" y="49" width="1" height="1" fill="#222633"/>
    <rect x="0" y="50" width="1" height="1" fill="#222633"/>
    <rect x="67" y="50" width="1" height="1" fill="#222633"/>
    <rect x="74" y="50" width="1" height="1" fill="#222633"/>
    <rect x="108" y="50" width="1" height="1" fill="#222633"/>
    <rect x="165" y="50" width="1" height="1" fill="#222633"/>
    <rect x="0" y="51" width="1" height="1" fill="#222633"/>
    <rect x="67" y="51" width="1" height="1" fill="#222633"/>
    <rect x="107" y="51" width="2" height="1" fill="#222633"/>
    <rect x="165" y="51" width="1" height="1" fill="#222633"/>
    <rect x="0" y="52" width="1" height="1" fill="#222633"/>
    <rect x="67" y="52" width="1" height="1" fill="#222633"/>
    <rect x="72" y="52" width="2" height="1" fill="#222633"/>
    <rect x="82" y="52" width="3" height="1" fill="#222633"/>
    <rect x="93" y="52" width="2" height="1" fill="#222633"/>
    <rect x="104" y="52" width="4" height="1" fill="#222633"/>
    <rect x="165" y="52" width="1" height="1" fill="#222633"/>
    <rect x="0" y="53" width="1" height="1" fill="#222633"/>
    <rect x="67" y="53" width="1" height="1" fill="#222633"/>
    <rect x="71" y="53" width="3" height="1" fill="#222633"/>
    <rect x="82" y="53" width="3" height="1" fill="#222633"/>
    <rect x="93" y="53" width="3" height="1" fill="#222633"/>
    <rect x="103" y="53" width="3" height="1" fill="#222633"/>
    <rect x="165" y="53" width="1" height="1" fill="#222633"/>
    <rect x="0" y="54" width="1" height="1" fill="#222633"/>
    <rect x="67" y="54" width="1" height="1" fill="#222633"/>
    <rect x="71" y="54" width="3" height="1" fill="#222633"/>
    <rect x="77" y="54" width="2" height="1" fill="#222633"/>
    <rect x="81" y="54" width="4" height="1" fill="#222633"/>
    <rect x="86" y="54" width="1" height="1" fill="#222633"/>
    <rect x="93" y="54" width="3" height="1" fill="#222633"/>
    <rect x="102" y="54" width="2" height="1" fill="#222633"/>
    <rect x="165" y="54" width="1" height="1" fill="#222633"/>
    <rect x="0" y="55" width="1" height="1" fill="#222633"/>
    <rect x="67" y="55" width="1" height="1" fill="#222633"/>
    <rect x="78" y="55" width="4" height="1" fill="#222633"/>
    <rect x="83" y="55" width="4" height="1" fill="#222633"/>
    <rect x="102" y="55" width="1" height="1" fill="#222633"/>
    <rect x="165" y="55" width="1" height="1" fill="#222633"/>
    <rect x="0" y="56" width="1" height="1" fill="#222633"/>
    <rect x="67" y="56" width="1" height="1" fill="#222633"/>
    <rect x="76" y="56" width="1" height="1" fill="#222633"/>
    <rect x="78" y="56" width="6" height="1" fill="#222633"/>
    <rect x="85" y="56" width="2" height="1" fill="#222633"/>
    <rect x="101" y="56" width="1" height="1" fill="#222633"/>
    <rect x="165" y="56" width="1" height="1" fill="#222633"/>
    <rect x="0" y="57" width="1" height="1" fill="#222633"/>
    <rect x="67" y="57" width="1" height="1" fill="#222633"/>
    <rect x="77" y="57" width="4" height="1" fill="#222633"/>
    <rect x="83" y="57" width="3" height="1" fill="#222633"/>
    <rect x="88" y="57" width="1" height="1" fill="#222633"/>
    <rect x="99" y="57" width="3" height="1" fill="#222633"/>
    <rect x="165" y="57" width="1" height="1" fill="#222633"/>
    <rect x="0" y="58" width="1" height="1" fill="#222633"/>
    <rect x="67" y="58" width="2" height="1" fill="#222633"/>
    <rect x="77" y="58" width="9" height="1" fill="#222633"/>
    <rect x="87" y="58" width="3" height="1" fill="#222633"/>
    <rect x="98" y="58" width="3" height="1" fill="#222633"/>
    <rect x="165" y="58" width="1" height="1" fill="#222633"/>
    <rect x="0" y="59" width="1" height="1" fill="#222633"/>
    <rect x="67" y="59" width="2" height="1" fill="#222633"/>
    <rect x="76" y="59" width="10" height="1" fill="#222633"/>
    <rect x="87" y="59" width="4" height="1" fill="#222633"/>
    <rect x="98" y="59" width="3" height="1" fill="#222633"/>
    <rect x="165" y="59" width="1" height="1" fill="#222633"/>
    <rect x="0" y="60" width="1" height="1" fill="#222633"/>
    <rect x="67" y="60" width="1" height="1" fill="#222633"/>
    <rect x="75" y="60" width="11" height="1" fill="#222633"/>
    <rect x="88" y="60" width="2" height="1" fill="#222633"/>
    <rect x="99" y="60" width="2" height="1" fill="#222633"/>
    <rect x="165" y="60" width="1" height="1" fill="#222633"/>
    <rect x="0" y="61" width="1" height="1" fill="#222633"/>
    <rect x="67" y="61" width="2" height="1" fill="#222633"/>
    <rect x="76" y="61" width="7" height="1" fill="#222633"/>
    <rect x="84" y="61" width="1" height="1" fill="#222633"/>
    <rect x="99" y="61" width="1" height="1" fill="#222633"/>
    <rect x="165" y="61" width="1" height="1" fill="#222633"/>
    <rect x="0" y="62" width="1" height="1" fill="#222633"/>
    <rect x="68" y="62" width="1" height="1" fill="#222633"/>
    <rect x="76" y="62" width="3" height="1" fill="#222633"/>
    <rect x="80" y="62" width="5" height="1" fill="#222633"/>
    <rect x="99" y="62" width="1" height="1" fill="#222633"/>
    <rect x="165" y="62" width="1" height="1" fill="#222633"/>
    <rect x="0" y="63" width="1" height="1" fill="#222633"/>
    <rect x="68" y="63" width="1" height="1" fill="#222633"/>
    <rect x="71" y="63" width="3" height="1" fill="#222633"/>
    <rect x="76" y="63" width="2" height="1" fill="#222633"/>
    <rect x="79" y="63" width="2" height="1" fill="#222633"/>
    <rect x="82" y="63" width="3" height="1" fill="#222633"/>
    <rect x="93" y="63" width="3" height="1" fill="#222633"/>
    <rect x="99" y="63" width="1" height="1" fill="#222633"/>
    <rect x="165" y="63" width="1" height="1" fill="#222633"/>
    <rect x="0" y="64" width="1" height="1" fill="#222633"/>
    <rect x="68" y="64" width="1" height="1" fill="#222633"/>
    <rect x="71" y="64" width="3" height="1" fill="#222633"/>
    <rect x="82" y="64" width="3" height="1" fill="#222633"/>
    <rect x="93" y="64" width="3" height="1" fill="#222633"/>
    <rect x="99" y="64" width="1" height="1" fill="#222633"/>
    <rect x="165" y="64" width="1" height="1" fill="#222633"/>
    <rect x="0" y="65" width="1" height="1" fill="#222633"/>
    <rect x="69" y="65" width="1" height="1" fill="#222633"/>
    <rect x="71" y="65" width="3" height="1" fill="#222633"/>
    <rect x="82" y="65" width="3" height="1" fill="#222633"/>
    <rect x="93" y="65" width="3" height="1" fill="#222633"/>
    <rect x="98" y="65" width="1" height="1" fill="#222633"/>
    <rect x="165" y="65" width="1" height="1" fill="#222633"/>
    <rect x="0" y="66" width="1" height="1" fill="#222633"/>
    <rect x="69" y="66" width="1" height="1" fill="#222633"/>
    <rect x="98" y="66" width="1" height="1" fill="#222633"/>
    <rect x="165" y="66" width="1" height="1" fill="#222633"/>
    <rect x="0" y="67" width="1" height="1" fill="#222633"/>
    <rect x="69" y="67" width="2" height="1" fill="#222633"/>
    <rect x="98" y="67" width="1" height="1" fill="#222633"/>
    <rect x="165" y="67" width="1" height="1" fill="#222633"/>
    <rect x="0" y="68" width="1" height="1" fill="#222633"/>
    <rect x="70" y="68" width="1" height="1" fill="#222633"/>
    <rect x="77" y="68" width="2" height="1" fill="#222633"/>
    <rect x="88" y="68" width="2" height="1" fill="#222633"/>
    <rect x="98" y="68" width="1" height="1" fill="#222633"/>
    <rect x="165" y="68" width="1" height="1" fill="#222633"/>
    <rect x="0" y="69" width="1" height="1" fill="#222633"/>
    <rect x="71" y="69" width="1" height="1" fill="#222633"/>
    <rect x="76" y="69" width="4" height="1" fill="#222633"/>
    <rect x="87" y="69" width="4" height="1" fill="#222633"/>
    <rect x="97" y="69" width="1" height="1" fill="#222633"/>
    <rect x="165" y="69" width="1" height="1" fill="#222633"/>
    <rect x="0" y="70" width="1" height="1" fill="#222633"/>
    <rect x="72" y="70" width="1" height="1" fill="#222633"/>
    <rect x="77" y="70" width="3" height="1" fill="#222633"/>
    <rect x="87" y="70" width="3" height="1" fill="#222633"/>
    <rect x="97" y="70" width="1" height="1" fill="#222633"/>
    <rect x="165" y="70" width="1" height="1" fill="#222633"/>
    <rect x="0" y="71" width="1" height="1" fill="#222633"/>
    <rect x="73" y="71" width="1" height="1" fill="#222633"/>
    <rect x="78" y="71" width="1" height="1" fill="#222633"/>
    <rect x="88" y="71" width="1" height="1" fill="#222633"/>
    <rect x="96" y="71" width="1" height="1" fill="#222633"/>
    <rect x="165" y="71" width="1" height="1" fill="#222633"/>
    <rect x="0" y="72" width="1" height="1" fill="#222633"/>
    <rect x="74" y="72" width="1" height="1" fill="#222633"/>
    <rect x="96" y="72" width="1" height="1" fill="#222633"/>
    <rect x="165" y="72" width="1" height="1" fill="#222633"/>
    <rect x="0" y="73" width="1" height="1" fill="#222633"/>
    <rect x="75" y="73" width="1" height="1" fill="#222633"/>
    <rect x="95" y="73" width="2" height="1" fill="#222633"/>
    <rect x="165" y="73" width="1" height="1" fill="#222633"/>
    <rect x="0" y="74" width="1" height="1" fill="#222633"/>
    <rect x="75" y="74" width="2" height="1" fill="#222633"/>
    <rect x="82" y="74" width="3" height="1" fill="#222633"/>
    <rect x="95" y="74" width="1" height="1" fill="#222633"/>
    <rect x="165" y="74" width="1" height="1" fill="#222633"/>
    <rect x="0" y="75" width="1" height="1" fill="#222633"/>
    <rect x="77" y="75" width="1" height="1" fill="#222633"/>
    <rect x="82" y="75" width="3" height="1" fill="#222633"/>
    <rect x="95" y="75" width="1" height="1" fill="#222633"/>
    <rect x="165" y="75" width="1" height="1" fill="#222633"/>
    <rect x="0" y="76" width="1" height="1" fill="#222633"/>
    <rect x="78" y="76" width="1" height="1" fill="#222633"/>
    <rect x="82" y="76" width="3" height="1" fill="#222633"/>
    <rect x="94" y="76" width="2" height="1" fill="#222633"/>
    <rect x="165" y="76" width="1" height="1" fill="#222633"/>
    <rect x="0" y="77" width="1" height="1" fill="#222633"/>
    <rect x="79" y="77" width="2" height="1" fill="#222633"/>
    <rect x="93" y="77" width="2" height="1" fill="#222633"/>
    <rect x="165" y="77" width="1" height="1" fill="#222633"/>
    <rect x="0" y="78" width="1" height="1" fill="#222633"/>
    <rect x="81" y="78" width="12" height="1" fill="#222633"/>
    <rect x="165" y="78" width="1" height="1" fill="#222633"/>
    <rect x="0" y="79" width="1" height="1" fill="#222633"/>
    <rect x="165" y="79" width="1" height="1" fill="#222633"/>
    <rect x="0" y="80" width="1" height="1" fill="#222633"/>
    <rect x="165" y="80" width="1" height="1" fill="#222633"/>
    <rect x="0" y="81" width="1" height="1" fill="#222633"/>
    <rect x="165" y="81" width="1" height="1" fill="#222633"/>
    <rect x="0" y="82" width="166" height="1" fill="#222633"/>
  </g>
</svg>