<?xml version="1.0" encoding="UTF-8"?>
<svg xmlns="http://www.w3.org/2000/svg" viewBox="0 0 150 79" width="150" height="79">
  <!-- Auto-converted from legend-179.png -->
  <rect x="0" y="0" width="150" height="79" fill="none"/>
  <g fill="#252620" stroke="none">
    <rect x="0" y="0" width="150" height="1" fill="#252620"/>
    <rect x="0" y="1" width="1" height="1" fill="#252620"/>
    <rect x="149" y="1" width="1" height="1" fill="#252620"/>
    <rect x="0" y="2" width="1" height="1" fill="#252620"/>
    <rect x="149" y="2" width="1" height="1" fill="#252620"/>
    <rect x="0" y="3" width="1" height="1" fill="#252620"/>
    <rect x="149" y="3" width="1" height="1" fill="#252620"/>
    <rect x="0" y="4" width="1" height="1" fill="#252620"/>
    <rect x="149" y="4" width="1" height="1" fill="#252620"/>
    <rect x="0" y="5" width="1" height="1" fill="#252620"/>
    <rect x="149" y="5" width="1" height="1" fill="#252620"/>
    <rect x="0" y="6" width="1" height="1" fill="#252620"/>
    <rect x="149" y="6" width="1" height="1" fill="#252620"/>
    <rect x="0" y="7" width="1" height="1" fill="#252620"/>
    <rect x="13" y="7" width="2" height="1" fill="#252620"/>
    <rect x="16" y="7" width="2" height="1" fill="#252620"/>
    <rect x="20" y="7" width="2" height="1" fill="#252620"/>
    <rect x="23" y="7" width="2" height="1" fill="#252620"/>
    <rect x="27" y="7" width="2" height="1" fill="#252620"/>
    <rect x="31" y="7" width="1" height="1" fill="#252620"/>
    <rect x="34" y="7" width="2" height="1" fill="#252620"/>
    <rect x="38" y="7" width="1" height="1" fill="#252620"/>
    <rect x="41" y="7" width="2" height="1" fill="#252620"/>
    <rect x="45" y="7" width="1" height="1" fill="#252620"/>
    <rect x="48" y="7" width="2" height="1" fill="#252620"/>
    <rect x="52" y="7" width="1" height="1" fill="#252620"/>
    <rect x="55" y="7" width="2" height="1" fill="#252620"/>
    <rect x="59" y="7" width="1" height="1" fill="#252620"/>
    <rect x="62" y="7" width="2" height="1" fill="#252620"/>
    <rect x="66" y="7" width="2" height="1" fill="#252620"/>
    <rect x="69" y="7" width="2" height="1" fill="#252620"/>
    <rect x="73" y="7" width="2" height="1" fill="#252620"/>
    <rect x="76" y="7" width="2" height="1" fill="#252620"/>
    <rect x="80" y="7" width="2" height="1" fill="#252620"/>
    <rect x="83" y="7" width="2" height="1" fill="#252620"/>
    <rect x="87" y="7" width="2" height="1" fill="#252620"/>
    <rect x="91" y="7" width="1" height="1" fill="#252620"/>
    <rect x="94" y="7" width="2" height="1" fill="#252620"/>
    <rect x="98" y="7" width="1" height="1" fill="#252620"/>
    <rect x="101" y="7" width="2" height="1" fill="#252620"/>
    <rect x="105" y="7" width="1" height="1" fill="#252620"/>
    <rect x="108" y="7" width="2" height="1" fill="#252620"/>
    <rect x="112" y="7" width="1" height="1" fill="#252620"/>
    <rect x="149" y="7" width="1" height="1" fill="#252620"/>
    <rect x="0" y="8" width="1" height="1" fill="#252620"/>
    <rect x="13" y="8" width="1" height="1" fill="#252620"/>
    <rect x="16" y="8" width="2" height="1" fill="#252620"/>
    <rect x="20" y="8" width="2" height="1" fill="#252620"/>
    <rect x="24" y="8" width="1" height="1" fill="#252620"/>
    <rect x="27" y="8" width="2" height="1" fill="#252620"/>
    <rect x="31" y="8" width="1" height="1" fill="#252620"/>
    <rect x="34" y="8" width="2" height="1" fill="#252620"/>
    <rect x="38" y="8" width="1" height="1" fill="#252620"/>
    <rect x="41" y="8" width="2" height="1" fill="#252620"/>
    <rect x="45" y="8" width="1" height="1" fill="#252620"/>
    <rect x="48" y="8" width="2" height="1" fill="#252620"/>
    <rect x="52" y="8" width="1" height="1" fill="#252620"/>
    <rect x="55" y="8" width="2" height="1" fill="#252620"/>
    <rect x="59" y="8" width="1" height="1" fill="#252620"/>
    <rect x="62" y="8" width="2" height="1" fill="#252620"/>
    <rect x="66" y="8" width="1" height="1" fill="#252620"/>
    <rect x="69" y="8" width="2" height="1" fill="#252620"/>
    <rect x="73" y="8" width="2" height="1" fill="#252620"/>
    <rect x="76" y="8" width="2" height="1" fill="#252620"/>
    <rect x="80" y="8" width="2" height="1" fill="#252620"/>
    <rect x="84" y="8" width="1" height="1" fill="#252620"/>
    <rect x="87" y="8" width="2" height="1" fill="#252620"/>
    <rect x="91" y="8" width="1" height="1" fill="#252620"/>
    <rect x="94" y="8" width="2" height="1" fill="#252620"/>
    <rect x="98" y="8" width="1" height="1" fill="#252620"/>
    <rect x="101" y="8" width="2" height="1" fill="#252620"/>
    <rect x="105" y="8" width="1" height="1" fill="#252620"/>
    <rect x="108" y="8" width="2" height="1" fill="#252620"/>
    <rect x="112" y="8" width="1" height="1" fill="#252620"/>
    <rect x="149" y="8" width="1" height="1" fill="#252620"/>
    <rect x="0" y="9" width="1" height="1" fill="#252620"/>
    <rect x="149" y="9" width="1" height="1" fill="#252620"/>
    <rect x="0" y="10" width="1" height="1" fill="#252620"/>
    <rect x="110" y="10" width="2" height="1" fill="#252620"/>
    <rect x="149" y="10" width="1" height="1" fill="#252620"/>
    <rect x="0" y="11" width="1" height="1" fill="#252620"/>
    <rect x="110" y="11" width="2" height="1" fill="#252620"/>
    <rect x="149" y="11" width="1" height="1" fill="#252620"/>
    <rect x="0" y="12" width="1" height="1" fill="#252620"/>
    <rect x="18" y="12" width="2" height="1" fill="#252620"/>
    <rect x="46" y="12" width="2" height="1" fill="#252620"/>
    <rect x="75" y="12" width="1" height="1" fill="#252620"/>
    <rect x="103" y="12" width="2" height="1" fill="#252620"/>
    <rect x="149" y="12" width="1" height="1" fill="#252620"/>
    <rect x="0" y="13" width="1" height="1" fill="#252620"/>
    <rect x="17" y="13" width="4" height="1" fill="#252620"/>
    <rect x="45" y="13" width="2" height="1" fill="#252620"/>
    <rect x="48" y="13" width="1" height="1" fill="#252620"/>
    <rect x="73" y="13" width="2" height="1" fill="#252620"/>
    <rect x="76" y="13" width="2" height="1" fill="#252620"/>
    <rect x="102" y="13" width="4" height="1" fill="#252620"/>
    <rect x="108" y="13" width="2" height="1" fill="#252620"/>
    <rect x="149" y="13" width="1" height="1" fill="#252620"/>
    <rect x="0" y="14" width="1" height="1" fill="#252620"/>
    <rect x="17" y="14" width="1" height="1" fill="#252620"/>
    <rect x="20" y="14" width="1" height="1" fill="#252620"/>
    <rect x="45" y="14" width="1" height="1" fill="#252620"/>
    <rect x="49" y="14" width="1" height="1" fill="#252620"/>
    <rect x="73" y="14" width="1" height="1" fill="#252620"/>
    <rect x="77" y="14" width="1" height="1" fill="#252620"/>
    <rect x="102" y="14" width="1" height="1" fill="#252620"/>
    <rect x="105" y="14" width="1" height="1" fill="#252620"/>
    <rect x="108" y="14" width="2" height="1" fill="#252620"/>
    <rect x="149" y="14" width="1" height="1" fill="#252620"/>
    <rect x="0" y="15" width="1" height="1" fill="#252620"/>
    <rect x="17" y="15" width="1" height="1" fill="#252620"/>
    <rect x="20" y="15" width="1" height="1" fill="#252620"/>
    <rect x="45" y="15" width="1" height="1" fill="#252620"/>
    <rect x="48" y="15" width="2" height="1" fill="#252620"/>
    <rect x="73" y="15" width="2" height="1" fill="#252620"/>
    <rect x="76" y="15" width="2" height="1" fill="#252620"/>
    <rect x="102" y="15" width="1" height="1" fill="#252620"/>
    <rect x="105" y="15" width="1" height="1" fill="#252620"/>
    <rect x="149" y="15" width="1" height="1" fill="#252620"/>
    <rect x="0" y="16" width="1" height="1" fill="#252620"/>
    <rect x="17" y="16" width="4" height="1" fill="#252620"/>
    <rect x="46" y="16" width="3" height="1" fill="#252620"/>
    <rect x="74" y="16" width="3" height="1" fill="#252620"/>
    <rect x="102" y="16" width="3" height="1" fill="#252620"/>
    <rect x="106" y="16" width="2" height="1" fill="#252620"/>
    <rect x="149" y="16" width="1" height="1" fill="#252620"/>
    <rect x="0" y="17" width="1" height="1" fill="#252620"/>
    <rect x="106" y="17" width="2" height="1" fill="#252620"/>
    <rect x="149" y="17" width="1" height="1" fill="#252620"/>
    <rect x="0" y="18" width="1" height="1" fill="#252620"/>
    <rect x="149" y="18" width="1" height="1" fill="#252620"/>
    <rect x="0" y="19" width="1" height="1" fill="#252620"/>
    <rect x="105" y="19" width="1" height="1" fill="#252620"/>
    <rect x="149" y="19" width="1" height="1" fill="#252620"/>
    <rect x="0" y="20" width="1" height="1" fill="#252620"/>
    <rect x="105" y="20" width="1" height="1" fill="#252620"/>
    <rect x="149" y="20" width="1" height="1" fill="#252620"/>
    <rect x="0" y="21" width="1" height="1" fill="#252620"/>
    <rect x="149" y="21" width="1" height="1" fill="#252620"/>
    <rect x="0" y="22" width="1" height="1" fill="#252620"/>
    <rect x="103" y="22" width="2" height="1" fill="#252620"/>
    <rect x="106" y="22" width="2" height="1" fill="#252620"/>
    <rect x="110" y="22" width="2" height="1" fill="#252620"/>
    <rect x="113" y="22" width="2" height="1" fill="#252620"/>
    <rect x="117" y="22" width="2" height="1" fill="#252620"/>
    <rect x="121" y="22" width="1" height="1" fill="#252620"/>
    <rect x="124" y="22" width="2" height="1" fill="#252620"/>
    <rect x="128" y="22" width="1" height="1" fill="#252620"/>
    <rect x="131" y="22" width="2" height="1" fill="#252620"/>
    <rect x="135" y="22" width="1" height="1" fill="#252620"/>
    <rect x="138" y="22" width="2" height="1" fill="#252620"/>
    <rect x="149" y="22" width="1" height="1" fill="#252620"/>
    <rect x="0" y="23" width="1" height="1" fill="#252620"/>
    <rect x="103" y="23" width="2" height="1" fill="#252620"/>
    <rect x="106" y="23" width="2" height="1" fill="#252620"/>
    <rect x="110" y="23" width="2" height="1" fill="#252620"/>
    <rect x="113" y="23" width="2" height="1" fill="#252620"/>
    <rect x="117" y="23" width="2" height="1" fill="#252620"/>
    <rect x="121" y="23" width="1" height="1" fill="#252620"/>
    <rect x="124" y="23" width="2" height="1" fill="#252620"/>
    <rect x="128" y="23" width="1" height="1" fill="#252620"/>
    <rect x="131" y="23" width="2" height="1" fill="#252620"/>
    <rect x="135" y="23" width="1" height="1" fill="#252620"/>
    <rect x="138" y="23" width="2" height="1" fill="#252620"/>
    <rect x="149" y="23" width="1" height="1" fill="#252620"/>
    <rect x="0" y="24" width="1" height="1" fill="#252620"/>
    <rect x="149" y="24" width="1" height="1" fill="#252620"/>
    <rect x="0" y="25" width="1" height="1" fill="#252620"/>
    <rect x="149" y="25" width="1" height="1" fill="#252620"/>
    <rect x="0" y="26" width="1" height="1" fill="#252620"/>
    <rect x="138" y="26" width="2" height="1" fill="#252620"/>
    <rect x="149" y="26" width="1" height="1" fill="#252620"/>
    <rect x="0" y="27" width="1" height="1" fill="#252620"/>
    <rect x="149" y="27" width="1" height="1" fill="#252620"/>
    <rect x="0" y="28" width="1" height="1" fill="#252620"/>
    <rect x="149" y="28" width="1" height="1" fill="#252620"/>
    <rect x="0" y="29" width="1" height="1" fill="#252620"/>
    <rect x="138" y="29" width="2" height="1" fill="#252620"/>
    <rect x="149" y="29" width="1" height="1" fill="#252620"/>
    <rect x="0" y="30" width="1" height="1" fill="#252620"/>
    <rect x="138" y="30" width="2" height="1" fill="#252620"/>
    <rect x="149" y="30" width="1" height="1" fill="#252620"/>
    <rect x="0" y="31" width="1" height="1" fill="#252620"/>
    <rect x="149" y="31" width="1" height="1" fill="#252620"/>
    <rect x="0" y="32" width="1" height="1" fill="#252620"/>
    <rect x="149" y="32" width="1" height="1" fill="#252620"/>
    <rect x="0" y="33" width="1" height="1" fill="#252620"/>
    <rect x="138" y="33" width="2" height="1" fill="#252620"/>
    <rect x="149" y="33" width="1" height="1" fill="#252620"/>
    <rect x="0" y="34" width="1" height="1" fill="#252620"/>
    <rect x="31" y="34" width="3" height="1" fill="#252620"/>
    <rect x="59" y="34" width="4" height="1" fill="#252620"/>
    <rect x="87" y="34" width="4" height="1" fill="#252620"/>
    <rect x="115" y="34" width="4" height="1" fill="#252620"/>
    <rect x="139" y="34" width="1" height="1" fill="#252620"/>
    <rect x="149" y="34" width="1" height="1" fill="#252620"/>
    <rect x="0" y="35" width="1" height="1" fill="#252620"/>
    <rect x="30" y="35" width="1" height="1" fill="#252620"/>
    <rect x="34" y="35" width="1" height="1" fill="#252620"/>
    <rect x="58" y="35" width="2" height="1" fill="#252620"/>
    <rect x="62" y="35" width="1" height="1" fill="#252620"/>
    <rect x="87" y="35" width="1" height="1" fill="#252620"/>
    <rect x="90" y="35" width="1" height="1" fill="#252620"/>
    <rect x="115" y="35" width="1" height="1" fill="#252620"/>
    <rect x="118" y="35" width="1" height="1" fill="#252620"/>
    <rect x="149" y="35" width="1" height="1" fill="#252620"/>
    <rect x="0" y="36" width="1" height="1" fill="#252620"/>
    <rect x="30" y="36" width="1" height="1" fill="#252620"/>
    <rect x="34" y="36" width="1" height="1" fill="#252620"/>
    <rect x="59" y="36" width="1" height="1" fill="#252620"/>
    <rect x="62" y="36" width="1" height="1" fill="#252620"/>
    <rect x="87" y="36" width="1" height="1" fill="#252620"/>
    <rect x="90" y="36" width="1" height="1" fill="#252620"/>
    <rect x="115" y="36" width="1" height="1" fill="#252620"/>
    <rect x="118" y="36" width="1" height="1" fill="#252620"/>
    <rect x="138" y="36" width="2" height="1" fill="#252620"/>
    <rect x="149" y="36" width="1" height="1" fill="#252620"/>
    <rect x="0" y="37" width="1" height="1" fill="#252620"/>
    <rect x="31" y="37" width="3" height="1" fill="#252620"/>
    <rect x="59" y="37" width="4" height="1" fill="#252620"/>
    <rect x="87" y="37" width="4" height="1" fill="#252620"/>
    <rect x="115" y="37" width="4" height="1" fill="#252620"/>
    <rect x="138" y="37" width="2" height="1" fill="#252620"/>
    <rect x="149" y="37" width="1" height="1" fill="#252620"/>
    <rect x="0" y="38" width="1" height="1" fill="#252620"/>
    <rect x="149" y="38" width="1" height="1" fill="#252620"/>
    <rect x="0" y="39" width="1" height="1" fill="#252620"/>
    <rect x="149" y="39" width="1" height="1" fill="#252620"/>
    <rect x="0" y="40" width="1" height="1" fill="#252620"/>
    <rect x="138" y="40" width="2" height="1" fill="#252620"/>
    <rect x="149" y="40" width="1" height="1" fill="#252620"/>
    <rect x="0" y="41" width="1" height="1" fill="#252620"/>
    <rect x="138" y="41" width="2" height="1" fill="#252620"/>
    <rect x="149" y="41" width="1" height="1" fill="#252620"/>
    <rect x="0" y="42" width="1" height="1" fill="#252620"/>
    <rect x="149" y="42" width="1" height="1" fill="#252620"/>
    <rect x="0" y="43" width="1" height="1" fill="#252620"/>
    <rect x="138" y="43" width="2" height="1" fill="#252620"/>
    <rect x="149" y="43" width="1" height="1" fill="#252620"/>
    <rect x="0" y="44" width="1" height="1" fill="#252620"/>
    <rect x="138" y="44" width="2" height="1" fill="#252620"/>
    <rect x="149" y="44" width="1" height="1" fill="#252620"/>
    <rect x="0" y="45" width="1" height="1" fill="#252620"/>
    <rect x="149" y="45" width="1" height="1" fill="#252620"/>
    <rect x="0" y="46" width="1" height="1" fill="#252620"/>
    <rect x="149" y="46" width="1" height="1" fill="#252620"/>
    <rect x="0" y="47" width="1" height="1" fill="#252620"/>
    <rect x="138" y="47" width="2" height="1" fill="#252620"/>
    <rect x="149" y="47" width="1" height="1" fill="#252620"/>
    <rect x="0" y="48" width="1" height="1" fill="#252620"/>
    <rect x="138" y="48" width="2" height="1" fill="#252620"/>
    <rect x="149" y="48" width="1" height="1" fill="#252620"/>
    <rect x="0" y="49" width="1" height="1" fill="#252620"/>
    <rect x="149" y="49" width="1" height="1" fill="#252620"/>
    <rect x="0" y="50" width="1" height="1" fill="#252620"/>
    <rect x="139" y="50" width="1" height="1" fill="#252620"/>
    <rect x="149" y="50" width="1" height="1" fill="#252620"/>
    <rect x="0" y="51" width="1" height="1" fill="#252620"/>
    <rect x="138" y="51" width="2" height="1" fill="#252620"/>
    <rect x="149" y="51" width="1" height="1" fill="#252620"/>
    <rect x="0" y="52" width="1" height="1" fill="#252620"/>
    <rect x="149" y="52" width="1" height="1" fill="#252620"/>
    <rect x="0" y="53" width="1" height="1" fill="#252620"/>
    <rect x="149" y="53" width="1" height="1" fill="#252620"/>
    <rect x="0" y="54" width="1" height="1" fill="#252620"/>
    <rect x="138" y="54" width="2" height="1" fill="#252620"/>
    <rect x="149" y="54" width="1" height="1" fill="#252620"/>
    <rect x="0" y="55" width="1" height="1" fill="#252620"/>
    <rect x="17" y="55" width="4" height="1" fill="#252620"/>
    <rect x="46" y="55" width="3" height="1" fill="#252620"/>
    <rect x="74" y="55" width="3" height="1" fill="#252620"/>
    <rect x="102" y="55" width="3" height="1" fill="#252620"/>
    <rect x="130" y="55" width="4" height="1" fill="#252620"/>
    <rect x="138" y="55" width="2" height="1" fill="#252620"/>
    <rect x="149" y="55" width="1" height="1" fill="#252620"/>
    <rect x="0" y="56" width="1" height="1" fill="#252620"/>
    <rect x="17" y="56" width="1" height="1" fill="#252620"/>
    <rect x="20" y="56" width="1" height="1" fill="#252620"/>
    <rect x="45" y="56" width="1" height="1" fill="#252620"/>
    <rect x="48" y="56" width="2" height="1" fill="#252620"/>
    <rect x="73" y="56" width="2" height="1" fill="#252620"/>
    <rect x="76" y="56" width="2" height="1" fill="#252620"/>
    <rect x="102" y="56" width="1" height="1" fill="#252620"/>
    <rect x="105" y="56" width="1" height="1" fill="#252620"/>
    <rect x="130" y="56" width="1" height="1" fill="#252620"/>
    <rect x="133" y="56" width="1" height="1" fill="#252620"/>
    <rect x="149" y="56" width="1" height="1" fill="#252620"/>
    <rect x="0" y="57" width="1" height="1" fill="#252620"/>
    <rect x="17" y="57" width="1" height="1" fill="#252620"/>
    <rect x="20" y="57" width="1" height="1" fill="#252620"/>
    <rect x="45" y="57" width="1" height="1" fill="#252620"/>
    <rect x="48" y="57" width="2" height="1" fill="#252620"/>
    <rect x="73" y="57" width="1" height="1" fill="#252620"/>
    <rect x="77" y="57" width="1" height="1" fill="#252620"/>
    <rect x="102" y="57" width="1" height="1" fill="#252620"/>
    <rect x="105" y="57" width="1" height="1" fill="#252620"/>
    <rect x="130" y="57" width="1" height="1" fill="#252620"/>
    <rect x="133" y="57" width="1" height="1" fill="#252620"/>
    <rect x="149" y="57" width="1" height="1" fill="#252620"/>
    <rect x="0" y="58" width="1" height="1" fill="#252620"/>
    <rect x="17" y="58" width="4" height="1" fill="#252620"/>
    <rect x="45" y="58" width="4" height="1" fill="#252620"/>
    <rect x="74" y="58" width="3" height="1" fill="#252620"/>
    <rect x="102" y="58" width="4" height="1" fill="#252620"/>
    <rect x="130" y="58" width="4" height="1" fill="#252620"/>
    <rect x="138" y="58" width="2" height="1" fill="#252620"/>
    <rect x="149" y="58" width="1" height="1" fill="#252620"/>
    <rect x="0" y="59" width="1" height="1" fill="#252620"/>
    <rect x="149" y="59" width="1" height="1" fill="#252620"/>
    <rect x="0" y="60" width="1" height="1" fill="#252620"/>
    <rect x="149" y="60" width="1" height="1" fill="#252620"/>
    <rect x="0" y="61" width="1" height="1" fill="#252620"/>
    <rect x="138" y="61" width="2" height="1" fill="#252620"/>
    <rect x="149" y="61" width="1" height="1" fill="#252620"/>
    <rect x="0" y="62" width="1" height="1" fill="#252620"/>
    <rect x="138" y="62" width="2" height="1" fill="#252620"/>
    <rect x="149" y="62" width="1" height="1" fill="#252620"/>
    <rect x="0" y="63" width="1" height="1" fill="#252620"/>
    <rect x="149" y="63" width="1" height="1" fill="#252620"/>
    <rect x="0" y="64" width="1" height="1" fill="#252620"/>
    <rect x="149" y="64" width="1" height="1" fill="#252620"/>
    <rect x="0" y="65" width="1" height="1" fill="#252620"/>
    <rect x="13" y="65" width="2" height="1" fill="#252620"/>
    <rect x="16" y="65" width="2" height="1" fill="#252620"/>
    <rect x="20" y="65" width="2" height="1" fill="#252620"/>
    <rect x="23" y="65" width="2" height="1" fill="#252620"/>
    <rect x="27" y="65" width="2" height="1" fill="#252620"/>
    <rect x="31" y="65" width="1" height="1" fill="#252620"/>
    <rect x="34" y="65" width="2" height="1" fill="#252620"/>
    <rect x="38" y="65" width="1" height="1" fill="#252620"/>
    <rect x="41" y="65" width="2" height="1" fill="#252620"/>
    <rect x="45" y="65" width="1" height="1" fill="#252620"/>
    <rect x="48" y="65" width="2" height="1" fill="#252620"/>
    <rect x="52" y="65" width="1" height="1" fill="#252620"/>
    <rect x="55" y="65" width="2" height="1" fill="#252620"/>
    <rect x="59" y="65" width="1" height="1" fill="#252620"/>
    <rect x="62" y="65" width="2" height="1" fill="#252620"/>
    <rect x="66" y="65" width="2" height="1" fill="#252620"/>
    <rect x="69" y="65" width="2" height="1" fill="#252620"/>
    <rect x="73" y="65" width="2" height="1" fill="#252620"/>
    <rect x="76" y="65" width="2" height="1" fill="#252620"/>
    <rect x="80" y="65" width="2" height="1" fill="#252620"/>
    <rect x="83" y="65" width="2" height="1" fill="#252620"/>
    <rect x="87" y="65" width="2" height="1" fill="#252620"/>
    <rect x="91" y="65" width="1" height="1" fill="#252620"/>
    <rect x="94" y="65" width="2" height="1" fill="#252620"/>
    <rect x="98" y="65" width="1" height="1" fill="#252620"/>
    <rect x="101" y="65" width="2" height="1" fill="#252620"/>
    <rect x="105" y="65" width="1" height="1" fill="#252620"/>
    <rect x="108" y="65" width="2" height="1" fill="#252620"/>
    <rect x="112" y="65" width="1" height="1" fill="#252620"/>
    <rect x="115" y="65" width="2" height="1" fill="#252620"/>
    <rect x="119" y="65" width="1" height="1" fill="#252620"/>
    <rect x="122" y="65" width="2" height="1" fill="#252620"/>
    <rect x="126" y="65" width="2" height="1" fill="#252620"/>
    <rect x="129" y="65" width="2" height="1" fill="#252620"/>
    <rect x="133" y="65" width="2" height="1" fill="#252620"/>
    <rect x="136" y="65" width="4" height="1" fill="#252620"/>
    <rect x="149" y="65" width="1" height="1" fill="#252620"/>
    <rect x="0" y="66" width="1" height="1" fill="#252620"/>
    <rect x="149" y="66" width="1" height="1" fill="#252620"/>
    <rect x="0" y="67" width="1" height="1" fill="#252620"/>
    <rect x="149" y="67" width="1" height="1" fill="#252620"/>
    <rect x="0" y="68" width="1" height="1" fill="#252620"/>
    <rect x="149" y="68" width="1" height="1" fill="#252620"/>
    <rect x="0" y="69" width="1" height="1" fill="#252620"/>
    <rect x="149" y="69" width="1" height="1" fill="#252620"/>
    <rect x="0" y="70" width="1" height="1" fill="#252620"/>
    <rect x="149" y="70" width="1" height="1" fill="#252620"/>
    <rect x="0" y="71" width="1" height="1" fill="#252620"/>
    <rect x="149" y="71" width="1" height="1" fill="#252620"/>
    <rect x="0" y="72" width="1" height="1" fill="#252620"/>
    <rect x="149" y="72" width="1" height="1" fill="#252620"/>
    <rect x="0" y="73" width="1" height="1" fill="#252620"/>
    <rect x="149" y="73" width="1" height="1" fill="#252620"/>
    <rect x="0" y="74" width="1" height="1" fill="#252620"/>
    <rect x="149" y="74" width="1" height="1" fill="#252620"/>
    <rect x="0" y="75" width="1" height="1" fill="#252620"/>
    <rect x="149" y="75" width="1" height="1" fill="#252620"/>
    <rect x="0" y="76" width="1" height="1" fill="#252620"/>
    <rect x="149" y="76" width="1" height="1" fill="#252620"/>
    <rect x="0" y="77" width="1" height="1" fill="#252620"/>
    <rect x="149" y="77" width="1" height="1" fill="#252620"/>
    <rect x="0" y="78" width="150" height="1" fill="#252620"/>
  </g>
</svg>