<?xml version="1.0" encoding="UTF-8"?>
<svg xmlns="http://www.w3.org/2000/svg" viewBox="0 0 173 79" width="173" height="79">
  <!-- Auto-converted from legend-2701.png -->
  <rect x="0" y="0" width="173" height="79" fill="none"/>
  <g fill="#231f20" stroke="none">
    <rect x="0" y="0" width="173" height="1" fill="#231f20"/>
    <rect x="0" y="1" width="1" height="1" fill="#231f20"/>
    <rect x="172" y="1" width="1" height="1" fill="#231f20"/>
    <rect x="0" y="2" width="1" height="1" fill="#231f20"/>
    <rect x="172" y="2" width="1" height="1" fill="#231f20"/>
    <rect x="0" y="3" width="1" height="1" fill="#231f20"/>
    <rect x="172" y="3" width="1" height="1" fill="#231f20"/>
    <rect x="0" y="4" width="1" height="1" fill="#231f20"/>
    <rect x="172" y="4" width="1" height="1" fill="#231f20"/>
    <rect x="0" y="5" width="1" height="1" fill="#231f20"/>
    <rect x="172" y="5" width="1" height="1" fill="#231f20"/>
    <rect x="0" y="6" width="1" height="1" fill="#231f20"/>
    <rect x="172" y="6" width="1" height="1" fill="#231f20"/>
    <rect x="0" y="7" width="1" height="1" fill="#231f20"/>
    <rect x="172" y="7" width="1" height="1" fill="#231f20"/>
    <rect x="0" y="8" width="1" height="1" fill="#231f20"/>
    <rect x="172" y="8" width="1" height="1" fill="#231f20"/>
    <rect x="0" y="9" width="1" height="1" fill="#231f20"/>
    <rect x="172" y="9" width="1" height="1" fill="#231f20"/>
    <rect x="0" y="10" width="1" height="1" fill="#231f20"/>
    <rect x="172" y="10" width="1" height="1" fill="#231f20"/>
    <rect x="0" y="11" width="1" height="1" fill="#231f20"/>
    <rect x="172" y="11" width="1" height="1" fill="#231f20"/>
    <rect x="0" y="12" width="1" height="1" fill="#231f20"/>
    <rect x="172" y="12" width="1" height="1" fill="#231f20"/>
    <rect x="0" y="13" width="1" height="1" fill="#231f20"/>
    <rect x="172" y="13" width="1" height="1" fill="#231f20"/>
    <rect x="0" y="14" width="1" height="1" fill="#231f20"/>
    <rect x="172" y="14" width="1" height="1" fill="#231f20"/>
    <rect x="0" y="15" width="1" height="1" fill="#231f20"/>
    <rect x="172" y="15" width="1" height="1" fill="#231f20"/>
    <rect x="0" y="16" width="1" height="1" fill="#231f20"/>
    <rect x="172" y="16" width="1" height="1" fill="#231f20"/>
    <rect x="0" y="17" width="1" height="1" fill="#231f20"/>
    <rect x="172" y="17" width="1" height="1" fill="#231f20"/>
    <rect x="0" y="18" width="1" height="1" fill="#231f20"/>
    <rect x="172" y="18" width="1" height="1" fill="#231f20"/>
    <rect x="0" y="19" width="1" height="1" fill="#231f20"/>
    <rect x="172" y="19" width="1" height="1" fill="#231f20"/>
    <rect x="0" y="20" width="1" height="1" fill="#231f20"/>
    <rect x="172" y="20" width="1" height="1" fill="#231f20"/>
    <rect x="0" y="21" width="1" height="1" fill="#231f20"/>
    <rect x="172" y="21" width="1" height="1" fill="#231f20"/>
    <rect x="0" y="22" width="1" height="1" fill="#231f20"/>
    <rect x="172" y="22" width="1" height="1" fill="#231f20"/>
    <rect x="0" y="23" width="1" height="1" fill="#231f20"/>
    <rect x="172" y="23" width="1" height="1" fill="#231f20"/>
    <rect x="0" y="24" width="1" height="1" fill="#231f20"/>
    <rect x="172" y="24" width="1" height="1" fill="#231f20"/>
    <rect x="0" y="25" width="1" height="1" fill="#231f20"/>
    <rect x="52" y="25" width="2" height="1" fill="#231f20"/>
    <rect x="126" y="25" width="3" height="1" fill="#231f20"/>
    <rect x="134" y="25" width="3" height="1" fill="#231f20"/>
    <rect x="172" y="25" width="1" height="1" fill="#231f20"/>
    <rect x="0" y="26" width="1" height="1" fill="#231f20"/>
    <rect x="51" y="26" width="3" height="1" fill="#231f20"/>
    <rect x="108" y="26" width="3" height="1" fill="#231f20"/>
    <rect x="115" y="26" width="2" height="1" fill="#231f20"/>
    <rect x="127" y="26" width="2" height="1" fill="#231f20"/>
    <rect x="134" y="26" width="3" height="1" fill="#231f20"/>
    <rect x="172" y="26" width="1" height="1" fill="#231f20"/>
    <rect x="0" y="27" width="1" height="1" fill="#231f20"/>
    <rect x="51" y="27" width="4" height="1" fill="#231f20"/>
    <rect x="65" y="27" width="2" height="1" fill="#231f20"/>
    <rect x="93" y="27" width="3" height="1" fill="#231f20"/>
    <rect x="108" y="27" width="3" height="1" fill="#231f20"/>
    <rect x="115" y="27" width="2" height="1" fill="#231f20"/>
    <rect x="127" y="27" width="2" height="1" fill="#231f20"/>
    <rect x="134" y="27" width="3" height="1" fill="#231f20"/>
    <rect x="144" y="27" width="3" height="1" fill="#231f20"/>
    <rect x="172" y="27" width="1" height="1" fill="#231f20"/>
    <rect x="0" y="28" width="1" height="1" fill="#231f20"/>
    <rect x="52" y="28" width="3" height="1" fill="#231f20"/>
    <rect x="64" y="28" width="4" height="1" fill="#231f20"/>
    <rect x="69" y="28" width="2" height="1" fill="#231f20"/>
    <rect x="80" y="28" width="2" height="1" fill="#231f20"/>
    <rect x="93" y="28" width="2" height="1" fill="#231f20"/>
    <rect x="106" y="28" width="1" height="1" fill="#231f20"/>
    <rect x="108" y="28" width="3" height="1" fill="#231f20"/>
    <rect x="114" y="28" width="3" height="1" fill="#231f20"/>
    <rect x="127" y="28" width="2" height="1" fill="#231f20"/>
    <rect x="134" y="28" width="3" height="1" fill="#231f20"/>
    <rect x="145" y="28" width="2" height="1" fill="#231f20"/>
    <rect x="149" y="28" width="10" height="1" fill="#231f20"/>
    <rect x="172" y="28" width="1" height="1" fill="#231f20"/>
    <rect x="0" y="29" width="1" height="1" fill="#231f20"/>
    <rect x="52" y="29" width="3" height="1" fill="#231f20"/>
    <rect x="65" y="29" width="3" height="1" fill="#231f20"/>
    <rect x="69" y="29" width="13" height="1" fill="#231f20"/>
    <rect x="93" y="29" width="2" height="1" fill="#231f20"/>
    <rect x="106" y="29" width="5" height="1" fill="#231f20"/>
    <rect x="114" y="29" width="2" height="1" fill="#231f20"/>
    <rect x="127" y="29" width="2" height="1" fill="#231f20"/>
    <rect x="134" y="29" width="3" height="1" fill="#231f20"/>
    <rect x="145" y="29" width="2" height="1" fill="#231f20"/>
    <rect x="149" y="29" width="10" height="1" fill="#231f20"/>
    <rect x="172" y="29" width="1" height="1" fill="#231f20"/>
    <rect x="0" y="30" width="1" height="1" fill="#231f20"/>
    <rect x="14" y="30" width="16" height="1" fill="#231f20"/>
    <rect x="45" y="30" width="17" height="1" fill="#231f20"/>
    <rect x="66" y="30" width="16" height="1" fill="#231f20"/>
    <rect x="93" y="30" width="2" height="1" fill="#231f20"/>
    <rect x="106" y="30" width="5" height="1" fill="#231f20"/>
    <rect x="114" y="30" width="2" height="1" fill="#231f20"/>
    <rect x="127" y="30" width="2" height="1" fill="#231f20"/>
    <rect x="134" y="30" width="3" height="1" fill="#231f20"/>
    <rect x="145" y="30" width="2" height="1" fill="#231f20"/>
    <rect x="149" y="30" width="10" height="1" fill="#231f20"/>
    <rect x="172" y="30" width="1" height="1" fill="#231f20"/>
    <rect x="0" y="31" width="1" height="1" fill="#231f20"/>
    <rect x="14" y="31" width="1" height="1" fill="#231f20"/>
    <rect x="29" y="31" width="1" height="1" fill="#231f20"/>
    <rect x="45" y="31" width="17" height="1" fill="#231f20"/>
    <rect x="66" y="31" width="2" height="1" fill="#231f20"/>
    <rect x="77" y="31" width="3" height="1" fill="#231f20"/>
    <rect x="86" y="31" width="16" height="1" fill="#231f20"/>
    <rect x="105" y="31" width="6" height="1" fill="#231f20"/>
    <rect x="114" y="31" width="8" height="1" fill="#231f20"/>
    <rect x="124" y="31" width="17" height="1" fill="#231f20"/>
    <rect x="145" y="31" width="2" height="1" fill="#231f20"/>
    <rect x="153" y="31" width="4" height="1" fill="#231f20"/>
    <rect x="172" y="31" width="1" height="1" fill="#231f20"/>
    <rect x="0" y="32" width="1" height="1" fill="#231f20"/>
    <rect x="14" y="32" width="1" height="1" fill="#231f20"/>
    <rect x="29" y="32" width="1" height="1" fill="#231f20"/>
    <rect x="45" y="32" width="17" height="1" fill="#231f20"/>
    <rect x="67" y="32" width="1" height="1" fill="#231f20"/>
    <rect x="77" y="32" width="3" height="1" fill="#231f20"/>
    <rect x="86" y="32" width="15" height="1" fill="#231f20"/>
    <rect x="105" y="32" width="8" height="1" fill="#231f20"/>
    <rect x="114" y="32" width="8" height="1" fill="#231f20"/>
    <rect x="124" y="32" width="17" height="1" fill="#231f20"/>
    <rect x="145" y="32" width="2" height="1" fill="#231f20"/>
    <rect x="153" y="32" width="2" height="1" fill="#231f20"/>
    <rect x="172" y="32" width="1" height="1" fill="#231f20"/>
    <rect x="0" y="33" width="1" height="1" fill="#231f20"/>
    <rect x="14" y="33" width="1" height="1" fill="#231f20"/>
    <rect x="29" y="33" width="1" height="1" fill="#231f20"/>
    <rect x="48" y="33" width="3" height="1" fill="#231f20"/>
    <rect x="55" y="33" width="3" height="1" fill="#231f20"/>
    <rect x="65" y="33" width="1" height="1" fill="#231f20"/>
    <rect x="70" y="33" width="6" height="1" fill="#231f20"/>
    <rect x="77" y="33" width="3" height="1" fill="#231f20"/>
    <rect x="86" y="33" width="3" height="1" fill="#231f20"/>
    <rect x="92" y="33" width="3" height="1" fill="#231f20"/>
    <rect x="99" y="33" width="2" height="1" fill="#231f20"/>
    <rect x="105" y="33" width="10" height="1" fill="#231f20"/>
    <rect x="118" y="33" width="2" height="1" fill="#231f20"/>
    <rect x="124" y="33" width="17" height="1" fill="#231f20"/>
    <rect x="142" y="33" width="7" height="1" fill="#231f20"/>
    <rect x="152" y="33" width="3" height="1" fill="#231f20"/>
    <rect x="172" y="33" width="1" height="1" fill="#231f20"/>
    <rect x="0" y="34" width="1" height="1" fill="#231f20"/>
    <rect x="14" y="34" width="1" height="1" fill="#231f20"/>
    <rect x="29" y="34" width="1" height="1" fill="#231f20"/>
    <rect x="49" y="34" width="2" height="1" fill="#231f20"/>
    <rect x="55" y="34" width="3" height="1" fill="#231f20"/>
    <rect x="64" y="34" width="2" height="1" fill="#231f20"/>
    <rect x="70" y="34" width="6" height="1" fill="#231f20"/>
    <rect x="77" y="34" width="3" height="1" fill="#231f20"/>
    <rect x="86" y="34" width="3" height="1" fill="#231f20"/>
    <rect x="91" y="34" width="3" height="1" fill="#231f20"/>
    <rect x="99" y="34" width="2" height="1" fill="#231f20"/>
    <rect x="105" y="34" width="10" height="1" fill="#231f20"/>
    <rect x="118" y="34" width="2" height="1" fill="#231f20"/>
    <rect x="126" y="34" width="3" height="1" fill="#231f20"/>
    <rect x="134" y="34" width="3" height="1" fill="#231f20"/>
    <rect x="142" y="34" width="7" height="1" fill="#231f20"/>
    <rect x="151" y="34" width="3" height="1" fill="#231f20"/>
    <rect x="172" y="34" width="1" height="1" fill="#231f20"/>
    <rect x="0" y="35" width="1" height="1" fill="#231f20"/>
    <rect x="14" y="35" width="1" height="1" fill="#231f20"/>
    <rect x="29" y="35" width="1" height="1" fill="#231f20"/>
    <rect x="49" y="35" width="2" height="1" fill="#231f20"/>
    <rect x="55" y="35" width="3" height="1" fill="#231f20"/>
    <rect x="64" y="35" width="4" height="1" fill="#231f20"/>
    <rect x="70" y="35" width="6" height="1" fill="#231f20"/>
    <rect x="77" y="35" width="3" height="1" fill="#231f20"/>
    <rect x="86" y="35" width="3" height="1" fill="#231f20"/>
    <rect x="91" y="35" width="3" height="1" fill="#231f20"/>
    <rect x="99" y="35" width="3" height="1" fill="#231f20"/>
    <rect x="105" y="35" width="2" height="1" fill="#231f20"/>
    <rect x="108" y="35" width="3" height="1" fill="#231f20"/>
    <rect x="113" y="35" width="2" height="1" fill="#231f20"/>
    <rect x="118" y="35" width="2" height="1" fill="#231f20"/>
    <rect x="126" y="35" width="4" height="1" fill="#231f20"/>
    <rect x="133" y="35" width="5" height="1" fill="#231f20"/>
    <rect x="142" y="35" width="7" height="1" fill="#231f20"/>
    <rect x="150" y="35" width="10" height="1" fill="#231f20"/>
    <rect x="172" y="35" width="1" height="1" fill="#231f20"/>
    <rect x="0" y="36" width="1" height="1" fill="#231f20"/>
    <rect x="14" y="36" width="1" height="1" fill="#231f20"/>
    <rect x="29" y="36" width="1" height="1" fill="#231f20"/>
    <rect x="49" y="36" width="2" height="1" fill="#231f20"/>
    <rect x="54" y="36" width="3" height="1" fill="#231f20"/>
    <rect x="64" y="36" width="5" height="1" fill="#231f20"/>
    <rect x="70" y="36" width="2" height="1" fill="#231f20"/>
    <rect x="74" y="36" width="2" height="1" fill="#231f20"/>
    <rect x="77" y="36" width="3" height="1" fill="#231f20"/>
    <rect x="91" y="36" width="4" height="1" fill="#231f20"/>
    <rect x="104" y="36" width="3" height="1" fill="#231f20"/>
    <rect x="108" y="36" width="3" height="1" fill="#231f20"/>
    <rect x="112" y="36" width="4" height="1" fill="#231f20"/>
    <rect x="118" y="36" width="2" height="1" fill="#231f20"/>
    <rect x="126" y="36" width="4" height="1" fill="#231f20"/>
    <rect x="133" y="36" width="5" height="1" fill="#231f20"/>
    <rect x="145" y="36" width="2" height="1" fill="#231f20"/>
    <rect x="149" y="36" width="11" height="1" fill="#231f20"/>
    <rect x="172" y="36" width="1" height="1" fill="#231f20"/>
    <rect x="0" y="37" width="1" height="1" fill="#231f20"/>
    <rect x="14" y="37" width="1" height="1" fill="#231f20"/>
    <rect x="29" y="37" width="1" height="1" fill="#231f20"/>
    <rect x="49" y="37" width="3" height="1" fill="#231f20"/>
    <rect x="54" y="37" width="3" height="1" fill="#231f20"/>
    <rect x="65" y="37" width="3" height="1" fill="#231f20"/>
    <rect x="70" y="37" width="2" height="1" fill="#231f20"/>
    <rect x="74" y="37" width="2" height="1" fill="#231f20"/>
    <rect x="77" y="37" width="3" height="1" fill="#231f20"/>
    <rect x="90" y="37" width="5" height="1" fill="#231f20"/>
    <rect x="98" y="37" width="2" height="1" fill="#231f20"/>
    <rect x="104" y="37" width="3" height="1" fill="#231f20"/>
    <rect x="108" y="37" width="3" height="1" fill="#231f20"/>
    <rect x="112" y="37" width="4" height="1" fill="#231f20"/>
    <rect x="117" y="37" width="3" height="1" fill="#231f20"/>
    <rect x="125" y="37" width="6" height="1" fill="#231f20"/>
    <rect x="133" y="37" width="5" height="1" fill="#231f20"/>
    <rect x="145" y="37" width="2" height="1" fill="#231f20"/>
    <rect x="149" y="37" width="11" height="1" fill="#231f20"/>
    <rect x="172" y="37" width="1" height="1" fill="#231f20"/>
    <rect x="0" y="38" width="1" height="1" fill="#231f20"/>
    <rect x="14" y="38" width="1" height="1" fill="#231f20"/>
    <rect x="29" y="38" width="1" height="1" fill="#231f20"/>
    <rect x="49" y="38" width="3" height="1" fill="#231f20"/>
    <rect x="54" y="38" width="3" height="1" fill="#231f20"/>
    <rect x="67" y="38" width="1" height="1" fill="#231f20"/>
    <rect x="70" y="38" width="2" height="1" fill="#231f20"/>
    <rect x="74" y="38" width="2" height="1" fill="#231f20"/>
    <rect x="77" y="38" width="3" height="1" fill="#231f20"/>
    <rect x="90" y="38" width="2" height="1" fill="#231f20"/>
    <rect x="93" y="38" width="3" height="1" fill="#231f20"/>
    <rect x="97" y="38" width="4" height="1" fill="#231f20"/>
    <rect x="108" y="38" width="3" height="1" fill="#231f20"/>
    <rect x="112" y="38" width="4" height="1" fill="#231f20"/>
    <rect x="117" y="38" width="3" height="1" fill="#231f20"/>
    <rect x="125" y="38" width="6" height="1" fill="#231f20"/>
    <rect x="133" y="38" width="5" height="1" fill="#231f20"/>
    <rect x="145" y="38" width="2" height="1" fill="#231f20"/>
    <rect x="149" y="38" width="1" height="1" fill="#231f20"/>
    <rect x="151" y="38" width="9" height="1" fill="#231f20"/>
    <rect x="172" y="38" width="1" height="1" fill="#231f20"/>
    <rect x="0" y="39" width="1" height="1" fill="#231f20"/>
    <rect x="14" y="39" width="1" height="1" fill="#231f20"/>
    <rect x="29" y="39" width="1" height="1" fill="#231f20"/>
    <rect x="50" y="39" width="2" height="1" fill="#231f20"/>
    <rect x="54" y="39" width="3" height="1" fill="#231f20"/>
    <rect x="70" y="39" width="2" height="1" fill="#231f20"/>
    <rect x="74" y="39" width="2" height="1" fill="#231f20"/>
    <rect x="77" y="39" width="3" height="1" fill="#231f20"/>
    <rect x="89" y="39" width="3" height="1" fill="#231f20"/>
    <rect x="93" y="39" width="3" height="1" fill="#231f20"/>
    <rect x="97" y="39" width="3" height="1" fill="#231f20"/>
    <rect x="108" y="39" width="8" height="1" fill="#231f20"/>
    <rect x="117" y="39" width="2" height="1" fill="#231f20"/>
    <rect x="125" y="39" width="14" height="1" fill="#231f20"/>
    <rect x="145" y="39" width="2" height="1" fill="#231f20"/>
    <rect x="151" y="39" width="2" height="1" fill="#231f20"/>
    <rect x="154" y="39" width="2" height="1" fill="#231f20"/>
    <rect x="157" y="39" width="2" height="1" fill="#231f20"/>
    <rect x="172" y="39" width="1" height="1" fill="#231f20"/>
    <rect x="0" y="40" width="1" height="1" fill="#231f20"/>
    <rect x="14" y="40" width="1" height="1" fill="#231f20"/>
    <rect x="29" y="40" width="1" height="1" fill="#231f20"/>
    <rect x="50" y="40" width="6" height="1" fill="#231f20"/>
    <rect x="67" y="40" width="1" height="1" fill="#231f20"/>
    <rect x="70" y="40" width="2" height="1" fill="#231f20"/>
    <rect x="74" y="40" width="2" height="1" fill="#231f20"/>
    <rect x="77" y="40" width="3" height="1" fill="#231f20"/>
    <rect x="88" y="40" width="4" height="1" fill="#231f20"/>
    <rect x="94" y="40" width="5" height="1" fill="#231f20"/>
    <rect x="108" y="40" width="5" height="1" fill="#231f20"/>
    <rect x="114" y="40" width="5" height="1" fill="#231f20"/>
    <rect x="124" y="40" width="6" height="1" fill="#231f20"/>
    <rect x="131" y="40" width="9" height="1" fill="#231f20"/>
    <rect x="145" y="40" width="2" height="1" fill="#231f20"/>
    <rect x="150" y="40" width="3" height="1" fill="#231f20"/>
    <rect x="154" y="40" width="2" height="1" fill="#231f20"/>
    <rect x="157" y="40" width="2" height="1" fill="#231f20"/>
    <rect x="172" y="40" width="1" height="1" fill="#231f20"/>
    <rect x="0" y="41" width="1" height="1" fill="#231f20"/>
    <rect x="14" y="41" width="1" height="1" fill="#231f20"/>
    <rect x="29" y="41" width="1" height="1" fill="#231f20"/>
    <rect x="50" y="41" width="6" height="1" fill="#231f20"/>
    <rect x="66" y="41" width="2" height="1" fill="#231f20"/>
    <rect x="70" y="41" width="6" height="1" fill="#231f20"/>
    <rect x="77" y="41" width="3" height="1" fill="#231f20"/>
    <rect x="87" y="41" width="5" height="1" fill="#231f20"/>
    <rect x="94" y="41" width="4" height="1" fill="#231f20"/>
    <rect x="107" y="41" width="5" height="1" fill="#231f20"/>
    <rect x="115" y="41" width="4" height="1" fill="#231f20"/>
    <rect x="124" y="41" width="2" height="1" fill="#231f20"/>
    <rect x="127" y="41" width="2" height="1" fill="#231f20"/>
    <rect x="131" y="41" width="10" height="1" fill="#231f20"/>
    <rect x="145" y="41" width="4" height="1" fill="#231f20"/>
    <rect x="150" y="41" width="2" height="1" fill="#231f20"/>
    <rect x="154" y="41" width="2" height="1" fill="#231f20"/>
    <rect x="157" y="41" width="2" height="1" fill="#231f20"/>
    <rect x="172" y="41" width="1" height="1" fill="#231f20"/>
    <rect x="0" y="42" width="1" height="1" fill="#231f20"/>
    <rect x="14" y="42" width="1" height="1" fill="#231f20"/>
    <rect x="29" y="42" width="1" height="1" fill="#231f20"/>
    <rect x="50" y="42" width="5" height="1" fill="#231f20"/>
    <rect x="66" y="42" width="3" height="1" fill="#231f20"/>
    <rect x="70" y="42" width="6" height="1" fill="#231f20"/>
    <rect x="77" y="42" width="3" height="1" fill="#231f20"/>
    <rect x="86" y="42" width="6" height="1" fill="#231f20"/>
    <rect x="95" y="42" width="2" height="1" fill="#231f20"/>
    <rect x="104" y="42" width="7" height="1" fill="#231f20"/>
    <rect x="115" y="42" width="3" height="1" fill="#231f20"/>
    <rect x="124" y="42" width="2" height="1" fill="#231f20"/>
    <rect x="127" y="42" width="2" height="1" fill="#231f20"/>
    <rect x="131" y="42" width="6" height="1" fill="#231f20"/>
    <rect x="138" y="42" width="4" height="1" fill="#231f20"/>
    <rect x="145" y="42" width="4" height="1" fill="#231f20"/>
    <rect x="150" y="42" width="2" height="1" fill="#231f20"/>
    <rect x="154" y="42" width="2" height="1" fill="#231f20"/>
    <rect x="157" y="42" width="2" height="1" fill="#231f20"/>
    <rect x="172" y="42" width="1" height="1" fill="#231f20"/>
    <rect x="0" y="43" width="1" height="1" fill="#231f20"/>
    <rect x="14" y="43" width="1" height="1" fill="#231f20"/>
    <rect x="29" y="43" width="1" height="1" fill="#231f20"/>
    <rect x="51" y="43" width="4" height="1" fill="#231f20"/>
    <rect x="66" y="43" width="2" height="1" fill="#231f20"/>
    <rect x="70" y="43" width="6" height="1" fill="#231f20"/>
    <rect x="77" y="43" width="3" height="1" fill="#231f20"/>
    <rect x="85" y="43" width="4" height="1" fill="#231f20"/>
    <rect x="90" y="43" width="2" height="1" fill="#231f20"/>
    <rect x="95" y="43" width="2" height="1" fill="#231f20"/>
    <rect x="104" y="43" width="7" height="1" fill="#231f20"/>
    <rect x="116" y="43" width="2" height="1" fill="#231f20"/>
    <rect x="125" y="43" width="1" height="1" fill="#231f20"/>
    <rect x="127" y="43" width="2" height="1" fill="#231f20"/>
    <rect x="130" y="43" width="3" height="1" fill="#231f20"/>
    <rect x="134" y="43" width="3" height="1" fill="#231f20"/>
    <rect x="139" y="43" width="2" height="1" fill="#231f20"/>
    <rect x="144" y="43" width="8" height="1" fill="#231f20"/>
    <rect x="153" y="43" width="3" height="1" fill="#231f20"/>
    <rect x="157" y="43" width="2" height="1" fill="#231f20"/>
    <rect x="172" y="43" width="1" height="1" fill="#231f20"/>
    <rect x="0" y="44" width="1" height="1" fill="#231f20"/>
    <rect x="14" y="44" width="1" height="1" fill="#231f20"/>
    <rect x="29" y="44" width="1" height="1" fill="#231f20"/>
    <rect x="50" y="44" width="7" height="1" fill="#231f20"/>
    <rect x="65" y="44" width="3" height="1" fill="#231f20"/>
    <rect x="70" y="44" width="2" height="1" fill="#231f20"/>
    <rect x="74" y="44" width="2" height="1" fill="#231f20"/>
    <rect x="77" y="44" width="3" height="1" fill="#231f20"/>
    <rect x="85" y="44" width="3" height="1" fill="#231f20"/>
    <rect x="90" y="44" width="2" height="1" fill="#231f20"/>
    <rect x="95" y="44" width="3" height="1" fill="#231f20"/>
    <rect x="105" y="44" width="1" height="1" fill="#231f20"/>
    <rect x="108" y="44" width="3" height="1" fill="#231f20"/>
    <rect x="115" y="44" width="3" height="1" fill="#231f20"/>
    <rect x="125" y="44" width="1" height="1" fill="#231f20"/>
    <rect x="127" y="44" width="2" height="1" fill="#231f20"/>
    <rect x="130" y="44" width="2" height="1" fill="#231f20"/>
    <rect x="134" y="44" width="3" height="1" fill="#231f20"/>
    <rect x="140" y="44" width="1" height="1" fill="#231f20"/>
    <rect x="142" y="44" width="9" height="1" fill="#231f20"/>
    <rect x="153" y="44" width="2" height="1" fill="#231f20"/>
    <rect x="157" y="44" width="2" height="1" fill="#231f20"/>
    <rect x="172" y="44" width="1" height="1" fill="#231f20"/>
    <rect x="0" y="45" width="1" height="1" fill="#231f20"/>
    <rect x="14" y="45" width="16" height="1" fill="#231f20"/>
    <rect x="49" y="45" width="10" height="1" fill="#231f20"/>
    <rect x="65" y="45" width="3" height="1" fill="#231f20"/>
    <rect x="70" y="45" width="2" height="1" fill="#231f20"/>
    <rect x="77" y="45" width="3" height="1" fill="#231f20"/>
    <rect x="86" y="45" width="2" height="1" fill="#231f20"/>
    <rect x="90" y="45" width="2" height="1" fill="#231f20"/>
    <rect x="94" y="45" width="1" height="1" fill="#231f20"/>
    <rect x="96" y="45" width="3" height="1" fill="#231f20"/>
    <rect x="108" y="45" width="3" height="1" fill="#231f20"/>
    <rect x="114" y="45" width="5" height="1" fill="#231f20"/>
    <rect x="127" y="45" width="2" height="1" fill="#231f20"/>
    <rect x="131" y="45" width="1" height="1" fill="#231f20"/>
    <rect x="134" y="45" width="3" height="1" fill="#231f20"/>
    <rect x="142" y="45" width="4" height="1" fill="#231f20"/>
    <rect x="148" y="45" width="2" height="1" fill="#231f20"/>
    <rect x="152" y="45" width="3" height="1" fill="#231f20"/>
    <rect x="157" y="45" width="2" height="1" fill="#231f20"/>
    <rect x="172" y="45" width="1" height="1" fill="#231f20"/>
    <rect x="0" y="46" width="1" height="1" fill="#231f20"/>
    <rect x="47" y="46" width="5" height="1" fill="#231f20"/>
    <rect x="54" y="46" width="8" height="1" fill="#231f20"/>
    <rect x="65" y="46" width="3" height="1" fill="#231f20"/>
    <rect x="70" y="46" width="2" height="1" fill="#231f20"/>
    <rect x="77" y="46" width="3" height="1" fill="#231f20"/>
    <rect x="90" y="46" width="2" height="1" fill="#231f20"/>
    <rect x="93" y="46" width="2" height="1" fill="#231f20"/>
    <rect x="96" y="46" width="4" height="1" fill="#231f20"/>
    <rect x="108" y="46" width="3" height="1" fill="#231f20"/>
    <rect x="113" y="46" width="3" height="1" fill="#231f20"/>
    <rect x="117" y="46" width="3" height="1" fill="#231f20"/>
    <rect x="127" y="46" width="2" height="1" fill="#231f20"/>
    <rect x="134" y="46" width="3" height="1" fill="#231f20"/>
    <rect x="142" y="46" width="3" height="1" fill="#231f20"/>
    <rect x="149" y="46" width="1" height="1" fill="#231f20"/>
    <rect x="151" y="46" width="4" height="1" fill="#231f20"/>
    <rect x="157" y="46" width="2" height="1" fill="#231f20"/>
    <rect x="172" y="46" width="1" height="1" fill="#231f20"/>
    <rect x="0" y="47" width="1" height="1" fill="#231f20"/>
    <rect x="45" y="47" width="6" height="1" fill="#231f20"/>
    <rect x="55" y="47" width="6" height="1" fill="#231f20"/>
    <rect x="65" y="47" width="2" height="1" fill="#231f20"/>
    <rect x="77" y="47" width="3" height="1" fill="#231f20"/>
    <rect x="90" y="47" width="5" height="1" fill="#231f20"/>
    <rect x="97" y="47" width="5" height="1" fill="#231f20"/>
    <rect x="108" y="47" width="3" height="1" fill="#231f20"/>
    <rect x="112" y="47" width="4" height="1" fill="#231f20"/>
    <rect x="117" y="47" width="4" height="1" fill="#231f20"/>
    <rect x="127" y="47" width="2" height="1" fill="#231f20"/>
    <rect x="134" y="47" width="3" height="1" fill="#231f20"/>
    <rect x="143" y="47" width="1" height="1" fill="#231f20"/>
    <rect x="150" y="47" width="9" height="1" fill="#231f20"/>
    <rect x="172" y="47" width="1" height="1" fill="#231f20"/>
    <rect x="0" y="48" width="1" height="1" fill="#231f20"/>
    <rect x="45" y="48" width="4" height="1" fill="#231f20"/>
    <rect x="57" y="48" width="4" height="1" fill="#231f20"/>
    <rect x="64" y="48" width="3" height="1" fill="#231f20"/>
    <rect x="75" y="48" width="4" height="1" fill="#231f20"/>
    <rect x="90" y="48" width="4" height="1" fill="#231f20"/>
    <rect x="98" y="48" width="3" height="1" fill="#231f20"/>
    <rect x="108" y="48" width="7" height="1" fill="#231f20"/>
    <rect x="118" y="48" width="4" height="1" fill="#231f20"/>
    <rect x="126" y="48" width="3" height="1" fill="#231f20"/>
    <rect x="134" y="48" width="3" height="1" fill="#231f20"/>
    <rect x="149" y="48" width="4" height="1" fill="#231f20"/>
    <rect x="154" y="48" width="5" height="1" fill="#231f20"/>
    <rect x="172" y="48" width="1" height="1" fill="#231f20"/>
    <rect x="0" y="49" width="1" height="1" fill="#231f20"/>
    <rect x="46" y="49" width="2" height="1" fill="#231f20"/>
    <rect x="58" y="49" width="3" height="1" fill="#231f20"/>
    <rect x="64" y="49" width="3" height="1" fill="#231f20"/>
    <rect x="75" y="49" width="4" height="1" fill="#231f20"/>
    <rect x="89" y="49" width="4" height="1" fill="#231f20"/>
    <rect x="100" y="49" width="1" height="1" fill="#231f20"/>
    <rect x="108" y="49" width="6" height="1" fill="#231f20"/>
    <rect x="119" y="49" width="2" height="1" fill="#231f20"/>
    <rect x="126" y="49" width="3" height="1" fill="#231f20"/>
    <rect x="134" y="49" width="3" height="1" fill="#231f20"/>
    <rect x="149" y="49" width="3" height="1" fill="#231f20"/>
    <rect x="155" y="49" width="4" height="1" fill="#231f20"/>
    <rect x="172" y="49" width="1" height="1" fill="#231f20"/>
    <rect x="0" y="50" width="1" height="1" fill="#231f20"/>
    <rect x="66" y="50" width="1" height="1" fill="#231f20"/>
    <rect x="76" y="50" width="1" height="1" fill="#231f20"/>
    <rect x="89" y="50" width="3" height="1" fill="#231f20"/>
    <rect x="108" y="50" width="3" height="1" fill="#231f20"/>
    <rect x="112" y="50" width="1" height="1" fill="#231f20"/>
    <rect x="120" y="50" width="1" height="1" fill="#231f20"/>
    <rect x="150" y="50" width="2" height="1" fill="#231f20"/>
    <rect x="155" y="50" width="2" height="1" fill="#231f20"/>
    <rect x="172" y="50" width="1" height="1" fill="#231f20"/>
    <rect x="0" y="51" width="1" height="1" fill="#231f20"/>
    <rect x="90" y="51" width="2" height="1" fill="#231f20"/>
    <rect x="172" y="51" width="1" height="1" fill="#231f20"/>
    <rect x="0" y="52" width="1" height="1" fill="#231f20"/>
    <rect x="172" y="52" width="1" height="1" fill="#231f20"/>
    <rect x="0" y="53" width="1" height="1" fill="#231f20"/>
    <rect x="172" y="53" width="1" height="1" fill="#231f20"/>
    <rect x="0" y="54" width="1" height="1" fill="#231f20"/>
    <rect x="172" y="54" width="1" height="1" fill="#231f20"/>
    <rect x="0" y="55" width="1" height="1" fill="#231f20"/>
    <rect x="172" y="55" width="1" height="1" fill="#231f20"/>
    <rect x="0" y="56" width="1" height="1" fill="#231f20"/>
    <rect x="172" y="56" width="1" height="1" fill="#231f20"/>
    <rect x="0" y="57" width="1" height="1" fill="#231f20"/>
    <rect x="172" y="57" width="1" height="1" fill="#231f20"/>
    <rect x="0" y="58" width="1" height="1" fill="#231f20"/>
    <rect x="172" y="58" width="1" height="1" fill="#231f20"/>
    <rect x="0" y="59" width="1" height="1" fill="#231f20"/>
    <rect x="172" y="59" width="1" height="1" fill="#231f20"/>
    <rect x="0" y="60" width="1" height="1" fill="#231f20"/>
    <rect x="172" y="60" width="1" height="1" fill="#231f20"/>
    <rect x="0" y="61" width="1" height="1" fill="#231f20"/>
    <rect x="172" y="61" width="1" height="1" fill="#231f20"/>
    <rect x="0" y="62" width="1" height="1" fill="#231f20"/>
    <rect x="172" y="62" width="1" height="1" fill="#231f20"/>
    <rect x="0" y="63" width="1" height="1" fill="#231f20"/>
    <rect x="172" y="63" width="1" height="1" fill="#231f20"/>
    <rect x="0" y="64" width="1" height="1" fill="#231f20"/>
    <rect x="172" y="64" width="1" height="1" fill="#231f20"/>
    <rect x="0" y="65" width="1" height="1" fill="#231f20"/>
    <rect x="172" y="65" width="1" height="1" fill="#231f20"/>
    <rect x="0" y="66" width="1" height="1" fill="#231f20"/>
    <rect x="172" y="66" width="1" height="1" fill="#231f20"/>
    <rect x="0" y="67" width="1" height="1" fill="#231f20"/>
    <rect x="172" y="67" width="1" height="1" fill="#231f20"/>
    <rect x="0" y="68" width="1" height="1" fill="#231f20"/>
    <rect x="172" y="68" width="1" height="1" fill="#231f20"/>
    <rect x="0" y="69" width="1" height="1" fill="#231f20"/>
    <rect x="172" y="69" width="1" height="1" fill="#231f20"/>
    <rect x="0" y="70" width="1" height="1" fill="#231f20"/>
    <rect x="172" y="70" width="1" height="1" fill="#231f20"/>
    <rect x="0" y="71" width="1" height="1" fill="#231f20"/>
    <rect x="172" y="71" width="1" height="1" fill="#231f20"/>
    <rect x="0" y="72" width="1" height="1" fill="#231f20"/>
    <rect x="172" y="72" width="1" height="1" fill="#231f20"/>
    <rect x="0" y="73" width="1" height="1" fill="#231f20"/>
    <rect x="172" y="73" width="1" height="1" fill="#231f20"/>
    <rect x="0" y="74" width="1" height="1" fill="#231f20"/>
    <rect x="172" y="74" width="1" height="1" fill="#231f20"/>
    <rect x="0" y="75" width="1" height="1" fill="#231f20"/>
    <rect x="172" y="75" width="1" height="1" fill="#231f20"/>
    <rect x="0" y="76" width="1" height="1" fill="#231f20"/>
    <rect x="172" y="76" width="1" height="1" fill="#231f20"/>
    <rect x="0" y="77" width="1" height="1" fill="#231f20"/>
    <rect x="172" y="77" width="1" height="1" fill="#231f20"/>
    <rect x="0" y="78" width="173" height="1" fill="#231f20"/>
  </g>
</svg>