<?xml version="1.0" encoding="UTF-8"?>
<svg xmlns="http://www.w3.org/2000/svg" viewBox="0 0 71 57" width="71" height="57">
  <!-- Auto-converted from legend-837.png -->
  <rect x="0" y="0" width="71" height="57" fill="none"/>
  <g fill="#231f20" stroke="none">
    <rect x="0" y="0" width="71" height="1" fill="#231f20"/>
    <rect x="0" y="1" width="1" height="1" fill="#231f20"/>
    <rect x="70" y="1" width="1" height="1" fill="#231f20"/>
    <rect x="0" y="2" width="1" height="1" fill="#231f20"/>
    <rect x="70" y="2" width="1" height="1" fill="#231f20"/>
    <rect x="0" y="3" width="1" height="1" fill="#231f20"/>
    <rect x="70" y="3" width="1" height="1" fill="#231f20"/>
    <rect x="0" y="4" width="1" height="1" fill="#231f20"/>
    <rect x="70" y="4" width="1" height="1" fill="#231f20"/>
    <rect x="0" y="5" width="1" height="1" fill="#231f20"/>
    <rect x="70" y="5" width="1" height="1" fill="#231f20"/>
    <rect x="0" y="6" width="1" height="1" fill="#231f20"/>
    <rect x="70" y="6" width="1" height="1" fill="#231f20"/>
    <rect x="0" y="7" width="1" height="1" fill="#231f20"/>
    <rect x="70" y="7" width="1" height="1" fill="#231f20"/>
    <rect x="0" y="8" width="1" height="1" fill="#231f20"/>
    <rect x="70" y="8" width="1" height="1" fill="#231f20"/>
    <rect x="0" y="9" width="1" height="1" fill="#231f20"/>
    <rect x="70" y="9" width="1" height="1" fill="#231f20"/>
    <rect x="0" y="10" width="1" height="1" fill="#231f20"/>
    <rect x="70" y="10" width="1" height="1" fill="#231f20"/>
    <rect x="0" y="11" width="1" height="1" fill="#231f20"/>
    <rect x="70" y="11" width="1" height="1" fill="#231f20"/>
    <rect x="0" y="12" width="1" height="1" fill="#231f20"/>
    <rect x="70" y="12" width="1" height="1" fill="#231f20"/>
    <rect x="0" y="13" width="1" height="1" fill="#231f20"/>
    <rect x="70" y="13" width="1" height="1" fill="#231f20"/>
    <rect x="0" y="14" width="1" height="1" fill="#231f20"/>
    <rect x="70" y="14" width="1" height="1" fill="#231f20"/>
    <rect x="0" y="15" width="1" height="1" fill="#231f20"/>
    <rect x="70" y="15" width="1" height="1" fill="#231f20"/>
    <rect x="0" y="16" width="1" height="1" fill="#231f20"/>
    <rect x="70" y="16" width="1" height="1" fill="#231f20"/>
    <rect x="0" y="17" width="1" height="1" fill="#231f20"/>
    <rect x="24" y="17" width="22" height="1" fill="#231f20"/>
    <rect x="70" y="17" width="1" height="1" fill="#231f20"/>
    <rect x="0" y="18" width="1" height="1" fill="#231f20"/>
    <rect x="24" y="18" width="1" height="1" fill="#231f20"/>
    <rect x="45" y="18" width="1" height="1" fill="#231f20"/>
    <rect x="70" y="18" width="1" height="1" fill="#231f20"/>
    <rect x="0" y="19" width="1" height="1" fill="#231f20"/>
    <rect x="24" y="19" width="1" height="1" fill="#231f20"/>
    <rect x="45" y="19" width="1" height="1" fill="#231f20"/>
    <rect x="70" y="19" width="1" height="1" fill="#231f20"/>
    <rect x="0" y="20" width="1" height="1" fill="#231f20"/>
    <rect x="24" y="20" width="1" height="1" fill="#231f20"/>
    <rect x="45" y="20" width="1" height="1" fill="#231f20"/>
    <rect x="70" y="20" width="1" height="1" fill="#231f20"/>
    <rect x="0" y="21" width="1" height="1" fill="#231f20"/>
    <rect x="24" y="21" width="1" height="1" fill="#231f20"/>
    <rect x="45" y="21" width="1" height="1" fill="#231f20"/>
    <rect x="70" y="21" width="1" height="1" fill="#231f20"/>
    <rect x="0" y="22" width="1" height="1" fill="#231f20"/>
    <rect x="24" y="22" width="1" height="1" fill="#231f20"/>
    <rect x="45" y="22" width="1" height="1" fill="#231f20"/>
    <rect x="70" y="22" width="1" height="1" fill="#231f20"/>
    <rect x="0" y="23" width="1" height="1" fill="#231f20"/>
    <rect x="24" y="23" width="1" height="1" fill="#231f20"/>
    <rect x="45" y="23" width="1" height="1" fill="#231f20"/>
    <rect x="70" y="23" width="1" height="1" fill="#231f20"/>
    <rect x="0" y="24" width="1" height="1" fill="#231f20"/>
    <rect x="24" y="24" width="1" height="1" fill="#231f20"/>
    <rect x="45" y="24" width="1" height="1" fill="#231f20"/>
    <rect x="70" y="24" width="1" height="1" fill="#231f20"/>
    <rect x="0" y="25" width="1" height="1" fill="#231f20"/>
    <rect x="24" y="25" width="1" height="1" fill="#231f20"/>
    <rect x="45" y="25" width="1" height="1" fill="#231f20"/>
    <rect x="70" y="25" width="1" height="1" fill="#231f20"/>
    <rect x="0" y="26" width="1" height="1" fill="#231f20"/>
    <rect x="24" y="26" width="1" height="1" fill="#231f20"/>
    <rect x="45" y="26" width="1" height="1" fill="#231f20"/>
    <rect x="70" y="26" width="1" height="1" fill="#231f20"/>
    <rect x="0" y="27" width="1" height="1" fill="#231f20"/>
    <rect x="24" y="27" width="1" height="1" fill="#231f20"/>
    <rect x="45" y="27" width="1" height="1" fill="#231f20"/>
    <rect x="70" y="27" width="1" height="1" fill="#231f20"/>
    <rect x="0" y="28" width="1" height="1" fill="#231f20"/>
    <rect x="24" y="28" width="1" height="1" fill="#231f20"/>
    <rect x="45" y="28" width="1" height="1" fill="#231f20"/>
    <rect x="70" y="28" width="1" height="1" fill="#231f20"/>
    <rect x="0" y="29" width="1" height="1" fill="#231f20"/>
    <rect x="24" y="29" width="1" height="1" fill="#231f20"/>
    <rect x="45" y="29" width="1" height="1" fill="#231f20"/>
    <rect x="70" y="29" width="1" height="1" fill="#231f20"/>
    <rect x="0" y="30" width="1" height="1" fill="#231f20"/>
    <rect x="24" y="30" width="1" height="1" fill="#231f20"/>
    <rect x="45" y="30" width="1" height="1" fill="#231f20"/>
    <rect x="70" y="30" width="1" height="1" fill="#231f20"/>
    <rect x="0" y="31" width="1" height="1" fill="#231f20"/>
    <rect x="24" y="31" width="1" height="1" fill="#231f20"/>
    <rect x="45" y="31" width="1" height="1" fill="#231f20"/>
    <rect x="70" y="31" width="1" height="1" fill="#231f20"/>
    <rect x="0" y="32" width="1" height="1" fill="#231f20"/>
    <rect x="24" y="32" width="1" height="1" fill="#231f20"/>
    <rect x="45" y="32" width="1" height="1" fill="#231f20"/>
    <rect x="70" y="32" width="1" height="1" fill="#231f20"/>
    <rect x="0" y="33" width="1" height="1" fill="#231f20"/>
    <rect x="24" y="33" width="1" height="1" fill="#231f20"/>
    <rect x="45" y="33" width="1" height="1" fill="#231f20"/>
    <rect x="70" y="33" width="1" height="1" fill="#231f20"/>
    <rect x="0" y="34" width="1" height="1" fill="#231f20"/>
    <rect x="24" y="34" width="1" height="1" fill="#231f20"/>
    <rect x="45" y="34" width="1" height="1" fill="#231f20"/>
    <rect x="70" y="34" width="1" height="1" fill="#231f20"/>
    <rect x="0" y="35" width="1" height="1" fill="#231f20"/>
    <rect x="24" y="35" width="1" height="1" fill="#231f20"/>
    <rect x="45" y="35" width="1" height="1" fill="#231f20"/>
    <rect x="70" y="35" width="1" height="1" fill="#231f20"/>
    <rect x="0" y="36" width="1" height="1" fill="#231f20"/>
    <rect x="24" y="36" width="1" height="1" fill="#231f20"/>
    <rect x="45" y="36" width="1" height="1" fill="#231f20"/>
    <rect x="70" y="36" width="1" height="1" fill="#231f20"/>
    <rect x="0" y="37" width="1" height="1" fill="#231f20"/>
    <rect x="24" y="37" width="1" height="1" fill="#231f20"/>
    <rect x="45" y="37" width="1" height="1" fill="#231f20"/>
    <rect x="70" y="37" width="1" height="1" fill="#231f20"/>
    <rect x="0" y="38" width="1" height="1" fill="#231f20"/>
    <rect x="24" y="38" width="22" height="1" fill="#231f20"/>
    <rect x="70" y="38" width="1" height="1" fill="#231f20"/>
    <rect x="0" y="39" width="1" height="1" fill="#231f20"/>
    <rect x="70" y="39" width="1" height="1" fill="#231f20"/>
    <rect x="0" y="40" width="1" height="1" fill="#231f20"/>
    <rect x="70" y="40" width="1" height="1" fill="#231f20"/>
    <rect x="0" y="41" width="1" height="1" fill="#231f20"/>
    <rect x="70" y="41" width="1" height="1" fill="#231f20"/>
    <rect x="0" y="42" width="1" height="1" fill="#231f20"/>
    <rect x="70" y="42" width="1" height="1" fill="#231f20"/>
    <rect x="0" y="43" width="1" height="1" fill="#231f20"/>
    <rect x="70" y="43" width="1" height="1" fill="#231f20"/>
    <rect x="0" y="44" width="1" height="1" fill="#231f20"/>
    <rect x="70" y="44" width="1" height="1" fill="#231f20"/>
    <rect x="0" y="45" width="1" height="1" fill="#231f20"/>
    <rect x="70" y="45" width="1" height="1" fill="#231f20"/>
    <rect x="0" y="46" width="1" height="1" fill="#231f20"/>
    <rect x="70" y="46" width="1" height="1" fill="#231f20"/>
    <rect x="0" y="47" width="1" height="1" fill="#231f20"/>
    <rect x="70" y="47" width="1" height="1" fill="#231f20"/>
    <rect x="0" y="48" width="1" height="1" fill="#231f20"/>
    <rect x="70" y="48" width="1" height="1" fill="#231f20"/>
    <rect x="0" y="49" width="1" height="1" fill="#231f20"/>
    <rect x="70" y="49" width="1" height="1" fill="#231f20"/>
    <rect x="0" y="50" width="1" height="1" fill="#231f20"/>
    <rect x="70" y="50" width="1" height="1" fill="#231f20"/>
    <rect x="0" y="51" width="1" height="1" fill="#231f20"/>
    <rect x="70" y="51" width="1" height="1" fill="#231f20"/>
    <rect x="0" y="52" width="1" height="1" fill="#231f20"/>
    <rect x="70" y="52" width="1" height="1" fill="#231f20"/>
    <rect x="0" y="53" width="1" height="1" fill="#231f20"/>
    <rect x="70" y="53" width="1" height="1" fill="#231f20"/>
    <rect x="0" y="54" width="1" height="1" fill="#231f20"/>
    <rect x="70" y="54" width="1" height="1" fill="#231f20"/>
    <rect x="0" y="55" width="1" height="1" fill="#231f20"/>
    <rect x="70" y="55" width="1" height="1" fill="#231f20"/>
    <rect x="0" y="56" width="71" height="1" fill="#231f20"/>
  </g>
</svg>