<?xml version="1.0" encoding="UTF-8"?>
<svg xmlns="http://www.w3.org/2000/svg" viewBox="0 0 174 70" width="174" height="70">
  <!-- Auto-converted from legend-1468.png -->
  <rect x="0" y="0" width="174" height="70" fill="none"/>
  <g fill="#231f20" stroke="none">
    <rect x="0" y="0" width="174" height="1" fill="#231f20"/>
    <rect x="0" y="1" width="1" height="1" fill="#231f20"/>
    <rect x="35" y="1" width="1" height="1" fill="#231f20"/>
    <rect x="104" y="1" width="1" height="1" fill="#231f20"/>
    <rect x="173" y="1" width="1" height="1" fill="#231f20"/>
    <rect x="0" y="2" width="1" height="1" fill="#231f20"/>
    <rect x="35" y="2" width="1" height="1" fill="#231f20"/>
    <rect x="104" y="2" width="1" height="1" fill="#231f20"/>
    <rect x="173" y="2" width="1" height="1" fill="#231f20"/>
    <rect x="0" y="3" width="1" height="1" fill="#231f20"/>
    <rect x="35" y="3" width="1" height="1" fill="#231f20"/>
    <rect x="104" y="3" width="1" height="1" fill="#231f20"/>
    <rect x="173" y="3" width="1" height="1" fill="#231f20"/>
    <rect x="0" y="4" width="1" height="1" fill="#231f20"/>
    <rect x="35" y="4" width="1" height="1" fill="#231f20"/>
    <rect x="104" y="4" width="1" height="1" fill="#231f20"/>
    <rect x="173" y="4" width="1" height="1" fill="#231f20"/>
    <rect x="0" y="5" width="1" height="1" fill="#231f20"/>
    <rect x="35" y="5" width="1" height="1" fill="#231f20"/>
    <rect x="104" y="5" width="1" height="1" fill="#231f20"/>
    <rect x="173" y="5" width="1" height="1" fill="#231f20"/>
    <rect x="0" y="6" width="1" height="1" fill="#231f20"/>
    <rect x="35" y="6" width="1" height="1" fill="#231f20"/>
    <rect x="104" y="6" width="1" height="1" fill="#231f20"/>
    <rect x="173" y="6" width="1" height="1" fill="#231f20"/>
    <rect x="0" y="7" width="1" height="1" fill="#231f20"/>
    <rect x="35" y="7" width="1" height="1" fill="#231f20"/>
    <rect x="104" y="7" width="1" height="1" fill="#231f20"/>
    <rect x="173" y="7" width="1" height="1" fill="#231f20"/>
    <rect x="0" y="8" width="1" height="1" fill="#231f20"/>
    <rect x="35" y="8" width="1" height="1" fill="#231f20"/>
    <rect x="104" y="8" width="1" height="1" fill="#231f20"/>
    <rect x="173" y="8" width="1" height="1" fill="#231f20"/>
    <rect x="0" y="9" width="1" height="1" fill="#231f20"/>
    <rect x="35" y="9" width="1" height="1" fill="#231f20"/>
    <rect x="104" y="9" width="1" height="1" fill="#231f20"/>
    <rect x="173" y="9" width="1" height="1" fill="#231f20"/>
    <rect x="0" y="10" width="1" height="1" fill="#231f20"/>
    <rect x="35" y="10" width="1" height="1" fill="#231f20"/>
    <rect x="41" y="10" width="3" height="1" fill="#231f20"/>
    <rect x="104" y="10" width="1" height="1" fill="#231f20"/>
    <rect x="110" y="10" width="3" height="1" fill="#231f20"/>
    <rect x="173" y="10" width="1" height="1" fill="#231f20"/>
    <rect x="0" y="11" width="1" height="1" fill="#231f20"/>
    <rect x="26" y="11" width="16" height="1" fill="#231f20"/>
    <rect x="44" y="11" width="2" height="1" fill="#231f20"/>
    <rect x="95" y="11" width="16" height="1" fill="#231f20"/>
    <rect x="113" y="11" width="2" height="1" fill="#231f20"/>
    <rect x="173" y="11" width="1" height="1" fill="#231f20"/>
    <rect x="0" y="12" width="1" height="1" fill="#231f20"/>
    <rect x="25" y="12" width="2" height="1" fill="#231f20"/>
    <rect x="35" y="12" width="1" height="1" fill="#231f20"/>
    <rect x="45" y="12" width="2" height="1" fill="#231f20"/>
    <rect x="94" y="12" width="2" height="1" fill="#231f20"/>
    <rect x="104" y="12" width="1" height="1" fill="#231f20"/>
    <rect x="114" y="12" width="2" height="1" fill="#231f20"/>
    <rect x="173" y="12" width="1" height="1" fill="#231f20"/>
    <rect x="0" y="13" width="1" height="1" fill="#231f20"/>
    <rect x="25" y="13" width="1" height="1" fill="#231f20"/>
    <rect x="35" y="13" width="1" height="1" fill="#231f20"/>
    <rect x="46" y="13" width="1" height="1" fill="#231f20"/>
    <rect x="94" y="13" width="1" height="1" fill="#231f20"/>
    <rect x="104" y="13" width="1" height="1" fill="#231f20"/>
    <rect x="115" y="13" width="1" height="1" fill="#231f20"/>
    <rect x="173" y="13" width="1" height="1" fill="#231f20"/>
    <rect x="0" y="14" width="1" height="1" fill="#231f20"/>
    <rect x="25" y="14" width="1" height="1" fill="#231f20"/>
    <rect x="35" y="14" width="1" height="1" fill="#231f20"/>
    <rect x="47" y="14" width="1" height="1" fill="#231f20"/>
    <rect x="93" y="14" width="1" height="1" fill="#231f20"/>
    <rect x="104" y="14" width="1" height="1" fill="#231f20"/>
    <rect x="115" y="14" width="2" height="1" fill="#231f20"/>
    <rect x="173" y="14" width="1" height="1" fill="#231f20"/>
    <rect x="0" y="15" width="1" height="1" fill="#231f20"/>
    <rect x="24" y="15" width="1" height="1" fill="#231f20"/>
    <rect x="35" y="15" width="1" height="1" fill="#231f20"/>
    <rect x="47" y="15" width="1" height="1" fill="#231f20"/>
    <rect x="93" y="15" width="1" height="1" fill="#231f20"/>
    <rect x="104" y="15" width="1" height="1" fill="#231f20"/>
    <rect x="116" y="15" width="1" height="1" fill="#231f20"/>
    <rect x="173" y="15" width="1" height="1" fill="#231f20"/>
    <rect x="0" y="16" width="1" height="1" fill="#231f20"/>
    <rect x="24" y="16" width="1" height="1" fill="#231f20"/>
    <rect x="35" y="16" width="1" height="1" fill="#231f20"/>
    <rect x="47" y="16" width="1" height="1" fill="#231f20"/>
    <rect x="93" y="16" width="1" height="1" fill="#231f20"/>
    <rect x="104" y="16" width="1" height="1" fill="#231f20"/>
    <rect x="116" y="16" width="1" height="1" fill="#231f20"/>
    <rect x="173" y="16" width="1" height="1" fill="#231f20"/>
    <rect x="0" y="17" width="1" height="1" fill="#231f20"/>
    <rect x="24" y="17" width="1" height="1" fill="#231f20"/>
    <rect x="35" y="17" width="1" height="1" fill="#231f20"/>
    <rect x="47" y="17" width="1" height="1" fill="#231f20"/>
    <rect x="93" y="17" width="1" height="1" fill="#231f20"/>
    <rect x="104" y="17" width="1" height="1" fill="#231f20"/>
    <rect x="115" y="17" width="1" height="1" fill="#231f20"/>
    <rect x="173" y="17" width="1" height="1" fill="#231f20"/>
    <rect x="0" y="18" width="1" height="1" fill="#231f20"/>
    <rect x="24" y="18" width="1" height="1" fill="#231f20"/>
    <rect x="35" y="18" width="1" height="1" fill="#231f20"/>
    <rect x="46" y="18" width="1" height="1" fill="#231f20"/>
    <rect x="93" y="18" width="1" height="1" fill="#231f20"/>
    <rect x="104" y="18" width="1" height="1" fill="#231f20"/>
    <rect x="115" y="18" width="1" height="1" fill="#231f20"/>
    <rect x="173" y="18" width="1" height="1" fill="#231f20"/>
    <rect x="0" y="19" width="1" height="1" fill="#231f20"/>
    <rect x="24" y="19" width="1" height="1" fill="#231f20"/>
    <rect x="35" y="19" width="1" height="1" fill="#231f20"/>
    <rect x="46" y="19" width="1" height="1" fill="#231f20"/>
    <rect x="93" y="19" width="1" height="1" fill="#231f20"/>
    <rect x="104" y="19" width="1" height="1" fill="#231f20"/>
    <rect x="115" y="19" width="1" height="1" fill="#231f20"/>
    <rect x="173" y="19" width="1" height="1" fill="#231f20"/>
    <rect x="0" y="20" width="1" height="1" fill="#231f20"/>
    <rect x="24" y="20" width="1" height="1" fill="#231f20"/>
    <rect x="35" y="20" width="1" height="1" fill="#231f20"/>
    <rect x="46" y="20" width="1" height="1" fill="#231f20"/>
    <rect x="93" y="20" width="1" height="1" fill="#231f20"/>
    <rect x="104" y="20" width="1" height="1" fill="#231f20"/>
    <rect x="114" y="20" width="1" height="1" fill="#231f20"/>
    <rect x="173" y="20" width="1" height="1" fill="#231f20"/>
    <rect x="0" y="21" width="1" height="1" fill="#231f20"/>
    <rect x="24" y="21" width="1" height="1" fill="#231f20"/>
    <rect x="35" y="21" width="1" height="1" fill="#231f20"/>
    <rect x="45" y="21" width="1" height="1" fill="#231f20"/>
    <rect x="93" y="21" width="1" height="1" fill="#231f20"/>
    <rect x="104" y="21" width="1" height="1" fill="#231f20"/>
    <rect x="114" y="21" width="1" height="1" fill="#231f20"/>
    <rect x="173" y="21" width="1" height="1" fill="#231f20"/>
    <rect x="0" y="22" width="1" height="1" fill="#231f20"/>
    <rect x="24" y="22" width="1" height="1" fill="#231f20"/>
    <rect x="35" y="22" width="1" height="1" fill="#231f20"/>
    <rect x="45" y="22" width="1" height="1" fill="#231f20"/>
    <rect x="93" y="22" width="1" height="1" fill="#231f20"/>
    <rect x="104" y="22" width="1" height="1" fill="#231f20"/>
    <rect x="114" y="22" width="1" height="1" fill="#231f20"/>
    <rect x="173" y="22" width="1" height="1" fill="#231f20"/>
    <rect x="0" y="23" width="174" height="1" fill="#231f20"/>
    <rect x="0" y="24" width="1" height="1" fill="#231f20"/>
    <rect x="25" y="24" width="1" height="1" fill="#231f20"/>
    <rect x="45" y="24" width="1" height="1" fill="#231f20"/>
    <rect x="69" y="24" width="1" height="1" fill="#231f20"/>
    <rect x="94" y="24" width="1" height="1" fill="#231f20"/>
    <rect x="113" y="24" width="1" height="1" fill="#231f20"/>
    <rect x="138" y="24" width="1" height="1" fill="#231f20"/>
    <rect x="173" y="24" width="1" height="1" fill="#231f20"/>
    <rect x="0" y="25" width="1" height="1" fill="#231f20"/>
    <rect x="25" y="25" width="1" height="1" fill="#231f20"/>
    <rect x="44" y="25" width="1" height="1" fill="#231f20"/>
    <rect x="69" y="25" width="1" height="1" fill="#231f20"/>
    <rect x="94" y="25" width="1" height="1" fill="#231f20"/>
    <rect x="113" y="25" width="1" height="1" fill="#231f20"/>
    <rect x="138" y="25" width="1" height="1" fill="#231f20"/>
    <rect x="173" y="25" width="1" height="1" fill="#231f20"/>
    <rect x="0" y="26" width="1" height="1" fill="#231f20"/>
    <rect x="25" y="26" width="1" height="1" fill="#231f20"/>
    <rect x="43" y="26" width="1" height="1" fill="#231f20"/>
    <rect x="69" y="26" width="1" height="1" fill="#231f20"/>
    <rect x="94" y="26" width="1" height="1" fill="#231f20"/>
    <rect x="112" y="26" width="1" height="1" fill="#231f20"/>
    <rect x="138" y="26" width="1" height="1" fill="#231f20"/>
    <rect x="173" y="26" width="1" height="1" fill="#231f20"/>
    <rect x="0" y="27" width="1" height="1" fill="#231f20"/>
    <rect x="26" y="27" width="1" height="1" fill="#231f20"/>
    <rect x="43" y="27" width="1" height="1" fill="#231f20"/>
    <rect x="69" y="27" width="1" height="1" fill="#231f20"/>
    <rect x="95" y="27" width="1" height="1" fill="#231f20"/>
    <rect x="111" y="27" width="1" height="1" fill="#231f20"/>
    <rect x="138" y="27" width="1" height="1" fill="#231f20"/>
    <rect x="173" y="27" width="1" height="1" fill="#231f20"/>
    <rect x="0" y="28" width="1" height="1" fill="#231f20"/>
    <rect x="26" y="28" width="1" height="1" fill="#231f20"/>
    <rect x="42" y="28" width="1" height="1" fill="#231f20"/>
    <rect x="69" y="28" width="1" height="1" fill="#231f20"/>
    <rect x="95" y="28" width="1" height="1" fill="#231f20"/>
    <rect x="111" y="28" width="1" height="1" fill="#231f20"/>
    <rect x="138" y="28" width="1" height="1" fill="#231f20"/>
    <rect x="173" y="28" width="1" height="1" fill="#231f20"/>
    <rect x="0" y="29" width="1" height="1" fill="#231f20"/>
    <rect x="26" y="29" width="1" height="1" fill="#231f20"/>
    <rect x="42" y="29" width="1" height="1" fill="#231f20"/>
    <rect x="69" y="29" width="1" height="1" fill="#231f20"/>
    <rect x="95" y="29" width="1" height="1" fill="#231f20"/>
    <rect x="111" y="29" width="1" height="1" fill="#231f20"/>
    <rect x="138" y="29" width="1" height="1" fill="#231f20"/>
    <rect x="173" y="29" width="1" height="1" fill="#231f20"/>
    <rect x="0" y="30" width="1" height="1" fill="#231f20"/>
    <rect x="26" y="30" width="1" height="1" fill="#231f20"/>
    <rect x="42" y="30" width="1" height="1" fill="#231f20"/>
    <rect x="69" y="30" width="1" height="1" fill="#231f20"/>
    <rect x="95" y="30" width="1" height="1" fill="#231f20"/>
    <rect x="111" y="30" width="1" height="1" fill="#231f20"/>
    <rect x="138" y="30" width="1" height="1" fill="#231f20"/>
    <rect x="173" y="30" width="1" height="1" fill="#231f20"/>
    <rect x="0" y="31" width="1" height="1" fill="#231f20"/>
    <rect x="26" y="31" width="1" height="1" fill="#231f20"/>
    <rect x="41" y="31" width="1" height="1" fill="#231f20"/>
    <rect x="69" y="31" width="1" height="1" fill="#231f20"/>
    <rect x="95" y="31" width="1" height="1" fill="#231f20"/>
    <rect x="110" y="31" width="1" height="1" fill="#231f20"/>
    <rect x="138" y="31" width="1" height="1" fill="#231f20"/>
    <rect x="173" y="31" width="1" height="1" fill="#231f20"/>
    <rect x="0" y="32" width="1" height="1" fill="#231f20"/>
    <rect x="26" y="32" width="1" height="1" fill="#231f20"/>
    <rect x="41" y="32" width="1" height="1" fill="#231f20"/>
    <rect x="69" y="32" width="1" height="1" fill="#231f20"/>
    <rect x="95" y="32" width="1" height="1" fill="#231f20"/>
    <rect x="110" y="32" width="1" height="1" fill="#231f20"/>
    <rect x="138" y="32" width="1" height="1" fill="#231f20"/>
    <rect x="173" y="32" width="1" height="1" fill="#231f20"/>
    <rect x="0" y="33" width="1" height="1" fill="#231f20"/>
    <rect x="27" y="33" width="1" height="1" fill="#231f20"/>
    <rect x="41" y="33" width="1" height="1" fill="#231f20"/>
    <rect x="69" y="33" width="1" height="1" fill="#231f20"/>
    <rect x="96" y="33" width="1" height="1" fill="#231f20"/>
    <rect x="110" y="33" width="1" height="1" fill="#231f20"/>
    <rect x="138" y="33" width="1" height="1" fill="#231f20"/>
    <rect x="173" y="33" width="1" height="1" fill="#231f20"/>
    <rect x="0" y="34" width="1" height="1" fill="#231f20"/>
    <rect x="27" y="34" width="1" height="1" fill="#231f20"/>
    <rect x="41" y="34" width="1" height="1" fill="#231f20"/>
    <rect x="69" y="34" width="1" height="1" fill="#231f20"/>
    <rect x="96" y="34" width="1" height="1" fill="#231f20"/>
    <rect x="110" y="34" width="1" height="1" fill="#231f20"/>
    <rect x="138" y="34" width="1" height="1" fill="#231f20"/>
    <rect x="173" y="34" width="1" height="1" fill="#231f20"/>
    <rect x="0" y="35" width="1" height="1" fill="#231f20"/>
    <rect x="27" y="35" width="1" height="1" fill="#231f20"/>
    <rect x="41" y="35" width="1" height="1" fill="#231f20"/>
    <rect x="69" y="35" width="1" height="1" fill="#231f20"/>
    <rect x="96" y="35" width="1" height="1" fill="#231f20"/>
    <rect x="110" y="35" width="1" height="1" fill="#231f20"/>
    <rect x="138" y="35" width="1" height="1" fill="#231f20"/>
    <rect x="173" y="35" width="1" height="1" fill="#231f20"/>
    <rect x="0" y="36" width="1" height="1" fill="#231f20"/>
    <rect x="28" y="36" width="1" height="1" fill="#231f20"/>
    <rect x="41" y="36" width="1" height="1" fill="#231f20"/>
    <rect x="69" y="36" width="1" height="1" fill="#231f20"/>
    <rect x="97" y="36" width="1" height="1" fill="#231f20"/>
    <rect x="110" y="36" width="1" height="1" fill="#231f20"/>
    <rect x="138" y="36" width="1" height="1" fill="#231f20"/>
    <rect x="173" y="36" width="1" height="1" fill="#231f20"/>
    <rect x="0" y="37" width="1" height="1" fill="#231f20"/>
    <rect x="28" y="37" width="1" height="1" fill="#231f20"/>
    <rect x="41" y="37" width="1" height="1" fill="#231f20"/>
    <rect x="69" y="37" width="1" height="1" fill="#231f20"/>
    <rect x="97" y="37" width="1" height="1" fill="#231f20"/>
    <rect x="109" y="37" width="1" height="1" fill="#231f20"/>
    <rect x="138" y="37" width="1" height="1" fill="#231f20"/>
    <rect x="173" y="37" width="1" height="1" fill="#231f20"/>
    <rect x="0" y="38" width="1" height="1" fill="#231f20"/>
    <rect x="28" y="38" width="1" height="1" fill="#231f20"/>
    <rect x="40" y="38" width="1" height="1" fill="#231f20"/>
    <rect x="69" y="38" width="1" height="1" fill="#231f20"/>
    <rect x="97" y="38" width="1" height="1" fill="#231f20"/>
    <rect x="109" y="38" width="1" height="1" fill="#231f20"/>
    <rect x="138" y="38" width="1" height="1" fill="#231f20"/>
    <rect x="173" y="38" width="1" height="1" fill="#231f20"/>
    <rect x="0" y="39" width="1" height="1" fill="#231f20"/>
    <rect x="29" y="39" width="1" height="1" fill="#231f20"/>
    <rect x="40" y="39" width="1" height="1" fill="#231f20"/>
    <rect x="69" y="39" width="1" height="1" fill="#231f20"/>
    <rect x="98" y="39" width="1" height="1" fill="#231f20"/>
    <rect x="109" y="39" width="1" height="1" fill="#231f20"/>
    <rect x="138" y="39" width="1" height="1" fill="#231f20"/>
    <rect x="173" y="39" width="1" height="1" fill="#231f20"/>
    <rect x="0" y="40" width="1" height="1" fill="#231f20"/>
    <rect x="29" y="40" width="1" height="1" fill="#231f20"/>
    <rect x="40" y="40" width="1" height="1" fill="#231f20"/>
    <rect x="69" y="40" width="1" height="1" fill="#231f20"/>
    <rect x="98" y="40" width="1" height="1" fill="#231f20"/>
    <rect x="109" y="40" width="1" height="1" fill="#231f20"/>
    <rect x="138" y="40" width="1" height="1" fill="#231f20"/>
    <rect x="173" y="40" width="1" height="1" fill="#231f20"/>
    <rect x="0" y="41" width="1" height="1" fill="#231f20"/>
    <rect x="29" y="41" width="1" height="1" fill="#231f20"/>
    <rect x="39" y="41" width="1" height="1" fill="#231f20"/>
    <rect x="69" y="41" width="1" height="1" fill="#231f20"/>
    <rect x="98" y="41" width="1" height="1" fill="#231f20"/>
    <rect x="108" y="41" width="1" height="1" fill="#231f20"/>
    <rect x="138" y="41" width="1" height="1" fill="#231f20"/>
    <rect x="173" y="41" width="1" height="1" fill="#231f20"/>
    <rect x="0" y="42" width="1" height="1" fill="#231f20"/>
    <rect x="29" y="42" width="1" height="1" fill="#231f20"/>
    <rect x="39" y="42" width="1" height="1" fill="#231f20"/>
    <rect x="69" y="42" width="1" height="1" fill="#231f20"/>
    <rect x="98" y="42" width="1" height="1" fill="#231f20"/>
    <rect x="108" y="42" width="1" height="1" fill="#231f20"/>
    <rect x="138" y="42" width="1" height="1" fill="#231f20"/>
    <rect x="173" y="42" width="1" height="1" fill="#231f20"/>
    <rect x="0" y="43" width="1" height="1" fill="#231f20"/>
    <rect x="30" y="43" width="1" height="1" fill="#231f20"/>
    <rect x="39" y="43" width="1" height="1" fill="#231f20"/>
    <rect x="69" y="43" width="1" height="1" fill="#231f20"/>
    <rect x="98" y="43" width="1" height="1" fill="#231f20"/>
    <rect x="108" y="43" width="1" height="1" fill="#231f20"/>
    <rect x="138" y="43" width="1" height="1" fill="#231f20"/>
    <rect x="173" y="43" width="1" height="1" fill="#231f20"/>
    <rect x="0" y="44" width="1" height="1" fill="#231f20"/>
    <rect x="30" y="44" width="1" height="1" fill="#231f20"/>
    <rect x="39" y="44" width="1" height="1" fill="#231f20"/>
    <rect x="69" y="44" width="1" height="1" fill="#231f20"/>
    <rect x="99" y="44" width="1" height="1" fill="#231f20"/>
    <rect x="108" y="44" width="1" height="1" fill="#231f20"/>
    <rect x="138" y="44" width="1" height="1" fill="#231f20"/>
    <rect x="173" y="44" width="1" height="1" fill="#231f20"/>
    <rect x="0" y="45" width="1" height="1" fill="#231f20"/>
    <rect x="30" y="45" width="1" height="1" fill="#231f20"/>
    <rect x="39" y="45" width="1" height="1" fill="#231f20"/>
    <rect x="69" y="45" width="1" height="1" fill="#231f20"/>
    <rect x="99" y="45" width="1" height="1" fill="#231f20"/>
    <rect x="107" y="45" width="1" height="1" fill="#231f20"/>
    <rect x="138" y="45" width="1" height="1" fill="#231f20"/>
    <rect x="173" y="45" width="1" height="1" fill="#231f20"/>
    <rect x="0" y="46" width="174" height="1" fill="#231f20"/>
    <rect x="0" y="47" width="1" height="1" fill="#231f20"/>
    <rect x="30" y="47" width="1" height="1" fill="#231f20"/>
    <rect x="35" y="47" width="1" height="1" fill="#231f20"/>
    <rect x="38" y="47" width="1" height="1" fill="#231f20"/>
    <rect x="99" y="47" width="1" height="1" fill="#231f20"/>
    <rect x="104" y="47" width="1" height="1" fill="#231f20"/>
    <rect x="107" y="47" width="1" height="1" fill="#231f20"/>
    <rect x="173" y="47" width="1" height="1" fill="#231f20"/>
    <rect x="0" y="48" width="1" height="1" fill="#231f20"/>
    <rect x="30" y="48" width="1" height="1" fill="#231f20"/>
    <rect x="35" y="48" width="1" height="1" fill="#231f20"/>
    <rect x="38" y="48" width="1" height="1" fill="#231f20"/>
    <rect x="99" y="48" width="1" height="1" fill="#231f20"/>
    <rect x="104" y="48" width="1" height="1" fill="#231f20"/>
    <rect x="107" y="48" width="1" height="1" fill="#231f20"/>
    <rect x="173" y="48" width="1" height="1" fill="#231f20"/>
    <rect x="0" y="49" width="1" height="1" fill="#231f20"/>
    <rect x="30" y="49" width="1" height="1" fill="#231f20"/>
    <rect x="35" y="49" width="1" height="1" fill="#231f20"/>
    <rect x="38" y="49" width="2" height="1" fill="#231f20"/>
    <rect x="99" y="49" width="1" height="1" fill="#231f20"/>
    <rect x="104" y="49" width="1" height="1" fill="#231f20"/>
    <rect x="107" y="49" width="1" height="1" fill="#231f20"/>
    <rect x="173" y="49" width="1" height="1" fill="#231f20"/>
    <rect x="0" y="50" width="1" height="1" fill="#231f20"/>
    <rect x="30" y="50" width="1" height="1" fill="#231f20"/>
    <rect x="35" y="50" width="1" height="1" fill="#231f20"/>
    <rect x="39" y="50" width="1" height="1" fill="#231f20"/>
    <rect x="99" y="50" width="1" height="1" fill="#231f20"/>
    <rect x="104" y="50" width="1" height="1" fill="#231f20"/>
    <rect x="107" y="50" width="1" height="1" fill="#231f20"/>
    <rect x="173" y="50" width="1" height="1" fill="#231f20"/>
    <rect x="0" y="51" width="1" height="1" fill="#231f20"/>
    <rect x="30" y="51" width="1" height="1" fill="#231f20"/>
    <rect x="35" y="51" width="1" height="1" fill="#231f20"/>
    <rect x="39" y="51" width="1" height="1" fill="#231f20"/>
    <rect x="99" y="51" width="1" height="1" fill="#231f20"/>
    <rect x="104" y="51" width="1" height="1" fill="#231f20"/>
    <rect x="107" y="51" width="2" height="1" fill="#231f20"/>
    <rect x="173" y="51" width="1" height="1" fill="#231f20"/>
    <rect x="0" y="52" width="1" height="1" fill="#231f20"/>
    <rect x="30" y="52" width="1" height="1" fill="#231f20"/>
    <rect x="35" y="52" width="1" height="1" fill="#231f20"/>
    <rect x="39" y="52" width="1" height="1" fill="#231f20"/>
    <rect x="99" y="52" width="1" height="1" fill="#231f20"/>
    <rect x="104" y="52" width="1" height="1" fill="#231f20"/>
    <rect x="108" y="52" width="1" height="1" fill="#231f20"/>
    <rect x="173" y="52" width="1" height="1" fill="#231f20"/>
    <rect x="0" y="53" width="1" height="1" fill="#231f20"/>
    <rect x="30" y="53" width="2" height="1" fill="#231f20"/>
    <rect x="35" y="53" width="1" height="1" fill="#231f20"/>
    <rect x="39" y="53" width="1" height="1" fill="#231f20"/>
    <rect x="99" y="53" width="1" height="1" fill="#231f20"/>
    <rect x="104" y="53" width="1" height="1" fill="#231f20"/>
    <rect x="108" y="53" width="1" height="1" fill="#231f20"/>
    <rect x="173" y="53" width="1" height="1" fill="#231f20"/>
    <rect x="0" y="54" width="1" height="1" fill="#231f20"/>
    <rect x="31" y="54" width="1" height="1" fill="#231f20"/>
    <rect x="35" y="54" width="1" height="1" fill="#231f20"/>
    <rect x="39" y="54" width="1" height="1" fill="#231f20"/>
    <rect x="99" y="54" width="1" height="1" fill="#231f20"/>
    <rect x="104" y="54" width="1" height="1" fill="#231f20"/>
    <rect x="108" y="54" width="1" height="1" fill="#231f20"/>
    <rect x="173" y="54" width="1" height="1" fill="#231f20"/>
    <rect x="0" y="55" width="1" height="1" fill="#231f20"/>
    <rect x="31" y="55" width="1" height="1" fill="#231f20"/>
    <rect x="35" y="55" width="1" height="1" fill="#231f20"/>
    <rect x="39" y="55" width="1" height="1" fill="#231f20"/>
    <rect x="99" y="55" width="1" height="1" fill="#231f20"/>
    <rect x="104" y="55" width="1" height="1" fill="#231f20"/>
    <rect x="108" y="55" width="1" height="1" fill="#231f20"/>
    <rect x="173" y="55" width="1" height="1" fill="#231f20"/>
    <rect x="0" y="56" width="1" height="1" fill="#231f20"/>
    <rect x="30" y="56" width="2" height="1" fill="#231f20"/>
    <rect x="35" y="56" width="1" height="1" fill="#231f20"/>
    <rect x="39" y="56" width="1" height="1" fill="#231f20"/>
    <rect x="99" y="56" width="1" height="1" fill="#231f20"/>
    <rect x="104" y="56" width="1" height="1" fill="#231f20"/>
    <rect x="108" y="56" width="1" height="1" fill="#231f20"/>
    <rect x="173" y="56" width="1" height="1" fill="#231f20"/>
    <rect x="0" y="57" width="1" height="1" fill="#231f20"/>
    <rect x="30" y="57" width="2" height="1" fill="#231f20"/>
    <rect x="35" y="57" width="1" height="1" fill="#231f20"/>
    <rect x="39" y="57" width="1" height="1" fill="#231f20"/>
    <rect x="99" y="57" width="1" height="1" fill="#231f20"/>
    <rect x="104" y="57" width="1" height="1" fill="#231f20"/>
    <rect x="107" y="57" width="2" height="1" fill="#231f20"/>
    <rect x="173" y="57" width="1" height="1" fill="#231f20"/>
    <rect x="0" y="58" width="1" height="1" fill="#231f20"/>
    <rect x="31" y="58" width="1" height="1" fill="#231f20"/>
    <rect x="35" y="58" width="1" height="1" fill="#231f20"/>
    <rect x="38" y="58" width="1" height="1" fill="#231f20"/>
    <rect x="99" y="58" width="2" height="1" fill="#231f20"/>
    <rect x="104" y="58" width="1" height="1" fill="#231f20"/>
    <rect x="107" y="58" width="1" height="1" fill="#231f20"/>
    <rect x="173" y="58" width="1" height="1" fill="#231f20"/>
    <rect x="0" y="59" width="1" height="1" fill="#231f20"/>
    <rect x="31" y="59" width="8" height="1" fill="#231f20"/>
    <rect x="100" y="59" width="8" height="1" fill="#231f20"/>
    <rect x="173" y="59" width="1" height="1" fill="#231f20"/>
    <rect x="0" y="60" width="1" height="1" fill="#231f20"/>
    <rect x="35" y="60" width="1" height="1" fill="#231f20"/>
    <rect x="104" y="60" width="1" height="1" fill="#231f20"/>
    <rect x="173" y="60" width="1" height="1" fill="#231f20"/>
    <rect x="0" y="61" width="1" height="1" fill="#231f20"/>
    <rect x="35" y="61" width="1" height="1" fill="#231f20"/>
    <rect x="104" y="61" width="1" height="1" fill="#231f20"/>
    <rect x="173" y="61" width="1" height="1" fill="#231f20"/>
    <rect x="0" y="62" width="1" height="1" fill="#231f20"/>
    <rect x="35" y="62" width="1" height="1" fill="#231f20"/>
    <rect x="104" y="62" width="1" height="1" fill="#231f20"/>
    <rect x="173" y="62" width="1" height="1" fill="#231f20"/>
    <rect x="0" y="63" width="1" height="1" fill="#231f20"/>
    <rect x="35" y="63" width="1" height="1" fill="#231f20"/>
    <rect x="104" y="63" width="1" height="1" fill="#231f20"/>
    <rect x="173" y="63" width="1" height="1" fill="#231f20"/>
    <rect x="0" y="64" width="1" height="1" fill="#231f20"/>
    <rect x="35" y="64" width="1" height="1" fill="#231f20"/>
    <rect x="104" y="64" width="1" height="1" fill="#231f20"/>
    <rect x="173" y="64" width="1" height="1" fill="#231f20"/>
    <rect x="0" y="65" width="1" height="1" fill="#231f20"/>
    <rect x="35" y="65" width="1" height="1" fill="#231f20"/>
    <rect x="104" y="65" width="1" height="1" fill="#231f20"/>
    <rect x="173" y="65" width="1" height="1" fill="#231f20"/>
    <rect x="0" y="66" width="1" height="1" fill="#231f20"/>
    <rect x="35" y="66" width="1" height="1" fill="#231f20"/>
    <rect x="104" y="66" width="1" height="1" fill="#231f20"/>
    <rect x="173" y="66" width="1" height="1" fill="#231f20"/>
    <rect x="0" y="67" width="1" height="1" fill="#231f20"/>
    <rect x="35" y="67" width="1" height="1" fill="#231f20"/>
    <rect x="104" y="67" width="1" height="1" fill="#231f20"/>
    <rect x="173" y="67" width="1" height="1" fill="#231f20"/>
    <rect x="0" y="68" width="1" height="1" fill="#231f20"/>
    <rect x="35" y="68" width="1" height="1" fill="#231f20"/>
    <rect x="104" y="68" width="1" height="1" fill="#231f20"/>
    <rect x="173" y="68" width="1" height="1" fill="#231f20"/>
    <rect x="0" y="69" width="174" height="1" fill="#231f20"/>
  </g>
</svg>