<?xml version="1.0" encoding="UTF-8"?>
<svg xmlns="http://www.w3.org/2000/svg" viewBox="0 0 56 56" width="56" height="56">
  <!-- Auto-converted from legend-767.png -->
  <rect x="0" y="0" width="56" height="56" fill="none"/>
  <g fill="#231f20" stroke="none">
    <rect x="0" y="0" width="56" height="1" fill="#231f20"/>
    <rect x="0" y="1" width="1" height="1" fill="#231f20"/>
    <rect x="55" y="1" width="1" height="1" fill="#231f20"/>
    <rect x="0" y="2" width="1" height="1" fill="#231f20"/>
    <rect x="23" y="2" width="10" height="1" fill="#231f20"/>
    <rect x="55" y="2" width="1" height="1" fill="#231f20"/>
    <rect x="0" y="3" width="1" height="1" fill="#231f20"/>
    <rect x="21" y="3" width="14" height="1" fill="#231f20"/>
    <rect x="55" y="3" width="1" height="1" fill="#231f20"/>
    <rect x="0" y="4" width="1" height="1" fill="#231f20"/>
    <rect x="20" y="4" width="16" height="1" fill="#231f20"/>
    <rect x="55" y="4" width="1" height="1" fill="#231f20"/>
    <rect x="0" y="5" width="1" height="1" fill="#231f20"/>
    <rect x="19" y="5" width="7" height="1" fill="#231f20"/>
    <rect x="30" y="5" width="7" height="1" fill="#231f20"/>
    <rect x="55" y="5" width="1" height="1" fill="#231f20"/>
    <rect x="0" y="6" width="1" height="1" fill="#231f20"/>
    <rect x="18" y="6" width="6" height="1" fill="#231f20"/>
    <rect x="25" y="6" width="6" height="1" fill="#231f20"/>
    <rect x="32" y="6" width="6" height="1" fill="#231f20"/>
    <rect x="55" y="6" width="1" height="1" fill="#231f20"/>
    <rect x="0" y="7" width="1" height="1" fill="#231f20"/>
    <rect x="17" y="7" width="22" height="1" fill="#231f20"/>
    <rect x="55" y="7" width="1" height="1" fill="#231f20"/>
    <rect x="0" y="8" width="1" height="1" fill="#231f20"/>
    <rect x="17" y="8" width="23" height="1" fill="#231f20"/>
    <rect x="55" y="8" width="1" height="1" fill="#231f20"/>
    <rect x="0" y="9" width="1" height="1" fill="#231f20"/>
    <rect x="16" y="9" width="24" height="1" fill="#231f20"/>
    <rect x="55" y="9" width="1" height="1" fill="#231f20"/>
    <rect x="0" y="10" width="1" height="1" fill="#231f20"/>
    <rect x="16" y="10" width="8" height="1" fill="#231f20"/>
    <rect x="32" y="10" width="9" height="1" fill="#231f20"/>
    <rect x="55" y="10" width="1" height="1" fill="#231f20"/>
    <rect x="0" y="11" width="1" height="1" fill="#231f20"/>
    <rect x="15" y="11" width="7" height="1" fill="#231f20"/>
    <rect x="34" y="11" width="7" height="1" fill="#231f20"/>
    <rect x="55" y="11" width="1" height="1" fill="#231f20"/>
    <rect x="0" y="12" width="1" height="1" fill="#231f20"/>
    <rect x="15" y="12" width="5" height="1" fill="#231f20"/>
    <rect x="35" y="12" width="6" height="1" fill="#231f20"/>
    <rect x="55" y="12" width="1" height="1" fill="#231f20"/>
    <rect x="0" y="13" width="1" height="1" fill="#231f20"/>
    <rect x="15" y="13" width="3" height="1" fill="#231f20"/>
    <rect x="24" y="13" width="7" height="1" fill="#231f20"/>
    <rect x="38" y="13" width="3" height="1" fill="#231f20"/>
    <rect x="55" y="13" width="1" height="1" fill="#231f20"/>
    <rect x="0" y="14" width="1" height="1" fill="#231f20"/>
    <rect x="15" y="14" width="3" height="1" fill="#231f20"/>
    <rect x="22" y="14" width="14" height="1" fill="#231f20"/>
    <rect x="38" y="14" width="4" height="1" fill="#231f20"/>
    <rect x="55" y="14" width="1" height="1" fill="#231f20"/>
    <rect x="0" y="15" width="1" height="1" fill="#231f20"/>
    <rect x="14" y="15" width="4" height="1" fill="#231f20"/>
    <rect x="19" y="15" width="23" height="1" fill="#231f20"/>
    <rect x="55" y="15" width="1" height="1" fill="#231f20"/>
    <rect x="0" y="16" width="1" height="1" fill="#231f20"/>
    <rect x="14" y="16" width="12" height="1" fill="#231f20"/>
    <rect x="31" y="16" width="11" height="1" fill="#231f20"/>
    <rect x="55" y="16" width="1" height="1" fill="#231f20"/>
    <rect x="0" y="17" width="1" height="1" fill="#231f20"/>
    <rect x="14" y="17" width="10" height="1" fill="#231f20"/>
    <rect x="33" y="17" width="9" height="1" fill="#231f20"/>
    <rect x="55" y="17" width="1" height="1" fill="#231f20"/>
    <rect x="0" y="18" width="1" height="1" fill="#231f20"/>
    <rect x="14" y="18" width="8" height="1" fill="#231f20"/>
    <rect x="35" y="18" width="7" height="1" fill="#231f20"/>
    <rect x="55" y="18" width="1" height="1" fill="#231f20"/>
    <rect x="0" y="19" width="1" height="1" fill="#231f20"/>
    <rect x="14" y="19" width="4" height="1" fill="#231f20"/>
    <rect x="38" y="19" width="4" height="1" fill="#231f20"/>
    <rect x="55" y="19" width="1" height="1" fill="#231f20"/>
    <rect x="0" y="20" width="1" height="1" fill="#231f20"/>
    <rect x="14" y="20" width="3" height="1" fill="#231f20"/>
    <rect x="39" y="20" width="3" height="1" fill="#231f20"/>
    <rect x="55" y="20" width="1" height="1" fill="#231f20"/>
    <rect x="0" y="21" width="1" height="1" fill="#231f20"/>
    <rect x="14" y="21" width="3" height="1" fill="#231f20"/>
    <rect x="22" y="21" width="12" height="1" fill="#231f20"/>
    <rect x="39" y="21" width="3" height="1" fill="#231f20"/>
    <rect x="55" y="21" width="1" height="1" fill="#231f20"/>
    <rect x="0" y="22" width="1" height="1" fill="#231f20"/>
    <rect x="14" y="22" width="3" height="1" fill="#231f20"/>
    <rect x="20" y="22" width="16" height="1" fill="#231f20"/>
    <rect x="39" y="22" width="3" height="1" fill="#231f20"/>
    <rect x="55" y="22" width="1" height="1" fill="#231f20"/>
    <rect x="0" y="23" width="1" height="1" fill="#231f20"/>
    <rect x="14" y="23" width="24" height="1" fill="#231f20"/>
    <rect x="39" y="23" width="3" height="1" fill="#231f20"/>
    <rect x="55" y="23" width="1" height="1" fill="#231f20"/>
    <rect x="0" y="24" width="1" height="1" fill="#231f20"/>
    <rect x="14" y="24" width="10" height="1" fill="#231f20"/>
    <rect x="32" y="24" width="10" height="1" fill="#231f20"/>
    <rect x="55" y="24" width="1" height="1" fill="#231f20"/>
    <rect x="0" y="25" width="1" height="1" fill="#231f20"/>
    <rect x="14" y="25" width="6" height="1" fill="#231f20"/>
    <rect x="34" y="25" width="8" height="1" fill="#231f20"/>
    <rect x="55" y="25" width="1" height="1" fill="#231f20"/>
    <rect x="0" y="26" width="1" height="1" fill="#231f20"/>
    <rect x="14" y="26" width="5" height="1" fill="#231f20"/>
    <rect x="36" y="26" width="6" height="1" fill="#231f20"/>
    <rect x="55" y="26" width="1" height="1" fill="#231f20"/>
    <rect x="0" y="27" width="1" height="1" fill="#231f20"/>
    <rect x="14" y="27" width="3" height="1" fill="#231f20"/>
    <rect x="39" y="27" width="3" height="1" fill="#231f20"/>
    <rect x="55" y="27" width="1" height="1" fill="#231f20"/>
    <rect x="0" y="28" width="1" height="1" fill="#231f20"/>
    <rect x="14" y="28" width="3" height="1" fill="#231f20"/>
    <rect x="39" y="28" width="3" height="1" fill="#231f20"/>
    <rect x="55" y="28" width="1" height="1" fill="#231f20"/>
    <rect x="0" y="29" width="1" height="1" fill="#231f20"/>
    <rect x="14" y="29" width="3" height="1" fill="#231f20"/>
    <rect x="39" y="29" width="3" height="1" fill="#231f20"/>
    <rect x="55" y="29" width="1" height="1" fill="#231f20"/>
    <rect x="0" y="30" width="1" height="1" fill="#231f20"/>
    <rect x="14" y="30" width="3" height="1" fill="#231f20"/>
    <rect x="23" y="30" width="10" height="1" fill="#231f20"/>
    <rect x="39" y="30" width="3" height="1" fill="#231f20"/>
    <rect x="55" y="30" width="1" height="1" fill="#231f20"/>
    <rect x="0" y="31" width="1" height="1" fill="#231f20"/>
    <rect x="14" y="31" width="3" height="1" fill="#231f20"/>
    <rect x="20" y="31" width="17" height="1" fill="#231f20"/>
    <rect x="39" y="31" width="3" height="1" fill="#231f20"/>
    <rect x="55" y="31" width="1" height="1" fill="#231f20"/>
    <rect x="0" y="32" width="1" height="1" fill="#231f20"/>
    <rect x="14" y="32" width="3" height="1" fill="#231f20"/>
    <rect x="19" y="32" width="19" height="1" fill="#231f20"/>
    <rect x="39" y="32" width="3" height="1" fill="#231f20"/>
    <rect x="55" y="32" width="1" height="1" fill="#231f20"/>
    <rect x="0" y="33" width="1" height="1" fill="#231f20"/>
    <rect x="14" y="33" width="12" height="1" fill="#231f20"/>
    <rect x="31" y="33" width="11" height="1" fill="#231f20"/>
    <rect x="55" y="33" width="1" height="1" fill="#231f20"/>
    <rect x="0" y="34" width="1" height="1" fill="#231f20"/>
    <rect x="14" y="34" width="9" height="1" fill="#231f20"/>
    <rect x="34" y="34" width="8" height="1" fill="#231f20"/>
    <rect x="55" y="34" width="1" height="1" fill="#231f20"/>
    <rect x="0" y="35" width="1" height="1" fill="#231f20"/>
    <rect x="15" y="35" width="6" height="1" fill="#231f20"/>
    <rect x="37" y="35" width="4" height="1" fill="#231f20"/>
    <rect x="55" y="35" width="1" height="1" fill="#231f20"/>
    <rect x="0" y="36" width="1" height="1" fill="#231f20"/>
    <rect x="15" y="36" width="3" height="1" fill="#231f20"/>
    <rect x="37" y="36" width="4" height="1" fill="#231f20"/>
    <rect x="55" y="36" width="1" height="1" fill="#231f20"/>
    <rect x="0" y="37" width="1" height="1" fill="#231f20"/>
    <rect x="15" y="37" width="4" height="1" fill="#231f20"/>
    <rect x="37" y="37" width="4" height="1" fill="#231f20"/>
    <rect x="55" y="37" width="1" height="1" fill="#231f20"/>
    <rect x="0" y="38" width="1" height="1" fill="#231f20"/>
    <rect x="15" y="38" width="4" height="1" fill="#231f20"/>
    <rect x="37" y="38" width="3" height="1" fill="#231f20"/>
    <rect x="55" y="38" width="1" height="1" fill="#231f20"/>
    <rect x="0" y="39" width="1" height="1" fill="#231f20"/>
    <rect x="16" y="39" width="3" height="1" fill="#231f20"/>
    <rect x="23" y="39" width="11" height="1" fill="#231f20"/>
    <rect x="36" y="39" width="4" height="1" fill="#231f20"/>
    <rect x="55" y="39" width="1" height="1" fill="#231f20"/>
    <rect x="0" y="40" width="1" height="1" fill="#231f20"/>
    <rect x="16" y="40" width="4" height="1" fill="#231f20"/>
    <rect x="21" y="40" width="19" height="1" fill="#231f20"/>
    <rect x="55" y="40" width="1" height="1" fill="#231f20"/>
    <rect x="0" y="41" width="1" height="1" fill="#231f20"/>
    <rect x="16" y="41" width="23" height="1" fill="#231f20"/>
    <rect x="55" y="41" width="1" height="1" fill="#231f20"/>
    <rect x="0" y="42" width="1" height="1" fill="#231f20"/>
    <rect x="17" y="42" width="8" height="1" fill="#231f20"/>
    <rect x="31" y="42" width="8" height="1" fill="#231f20"/>
    <rect x="55" y="42" width="1" height="1" fill="#231f20"/>
    <rect x="0" y="43" width="1" height="1" fill="#231f20"/>
    <rect x="17" y="43" width="6" height="1" fill="#231f20"/>
    <rect x="34" y="43" width="4" height="1" fill="#231f20"/>
    <rect x="55" y="43" width="1" height="1" fill="#231f20"/>
    <rect x="0" y="44" width="1" height="1" fill="#231f20"/>
    <rect x="18" y="44" width="4" height="1" fill="#231f20"/>
    <rect x="33" y="44" width="5" height="1" fill="#231f20"/>
    <rect x="55" y="44" width="1" height="1" fill="#231f20"/>
    <rect x="0" y="45" width="1" height="1" fill="#231f20"/>
    <rect x="18" y="45" width="5" height="1" fill="#231f20"/>
    <rect x="32" y="45" width="6" height="1" fill="#231f20"/>
    <rect x="55" y="45" width="1" height="1" fill="#231f20"/>
    <rect x="0" y="46" width="1" height="1" fill="#231f20"/>
    <rect x="19" y="46" width="6" height="1" fill="#231f20"/>
    <rect x="32" y="46" width="5" height="1" fill="#231f20"/>
    <rect x="55" y="46" width="1" height="1" fill="#231f20"/>
    <rect x="0" y="47" width="1" height="1" fill="#231f20"/>
    <rect x="20" y="47" width="5" height="1" fill="#231f20"/>
    <rect x="31" y="47" width="5" height="1" fill="#231f20"/>
    <rect x="55" y="47" width="1" height="1" fill="#231f20"/>
    <rect x="0" y="48" width="1" height="1" fill="#231f20"/>
    <rect x="21" y="48" width="14" height="1" fill="#231f20"/>
    <rect x="55" y="48" width="1" height="1" fill="#231f20"/>
    <rect x="0" y="49" width="1" height="1" fill="#231f20"/>
    <rect x="21" y="49" width="14" height="1" fill="#231f20"/>
    <rect x="55" y="49" width="1" height="1" fill="#231f20"/>
    <rect x="0" y="50" width="1" height="1" fill="#231f20"/>
    <rect x="22" y="50" width="12" height="1" fill="#231f20"/>
    <rect x="55" y="50" width="1" height="1" fill="#231f20"/>
    <rect x="0" y="51" width="1" height="1" fill="#231f20"/>
    <rect x="55" y="51" width="1" height="1" fill="#231f20"/>
    <rect x="0" y="52" width="1" height="1" fill="#231f20"/>
    <rect x="55" y="52" width="1" height="1" fill="#231f20"/>
    <rect x="0" y="53" width="1" height="1" fill="#231f20"/>
    <rect x="55" y="53" width="1" height="1" fill="#231f20"/>
    <rect x="0" y="54" width="1" height="1" fill="#231f20"/>
    <rect x="55" y="54" width="1" height="1" fill="#231f20"/>
    <rect x="0" y="55" width="56" height="1" fill="#231f20"/>
  </g>
</svg>