<?xml version="1.0" encoding="UTF-8"?>
<svg xmlns="http://www.w3.org/2000/svg" viewBox="0 0 313 212" width="313" height="212">
  <!-- Auto-converted from legend-365.png -->
  <rect x="0" y="0" width="313" height="212" fill="none"/>
  <g fill="#bebb2a" stroke="none">
    <rect x="1" y="2" width="312" height="1" fill="#bebb2a"/>
    <rect x="1" y="3" width="312" height="1" fill="#bebb2a"/>
    <rect x="1" y="4" width="312" height="1" fill="#bebb2a"/>
    <rect x="1" y="5" width="312" height="1" fill="#bebb2a"/>
    <rect x="1" y="6" width="4" height="1" fill="#bebb2a"/>
    <rect x="308" y="6" width="5" height="1" fill="#bebb2a"/>
    <rect x="1" y="7" width="4" height="1" fill="#bebb2a"/>
    <rect x="308" y="7" width="5" height="1" fill="#bebb2a"/>
    <rect x="1" y="8" width="4" height="1" fill="#bebb2a"/>
    <rect x="308" y="8" width="5" height="1" fill="#bebb2a"/>
    <rect x="1" y="9" width="4" height="1" fill="#bebb2a"/>
    <rect x="308" y="9" width="5" height="1" fill="#bebb2a"/>
    <rect x="1" y="10" width="4" height="1" fill="#bebb2a"/>
    <rect x="308" y="10" width="5" height="1" fill="#bebb2a"/>
    <rect x="1" y="11" width="4" height="1" fill="#bebb2a"/>
    <rect x="308" y="11" width="5" height="1" fill="#bebb2a"/>
    <rect x="1" y="12" width="4" height="1" fill="#bebb2a"/>
    <rect x="308" y="12" width="5" height="1" fill="#bebb2a"/>
    <rect x="1" y="13" width="4" height="1" fill="#bebb2a"/>
    <rect x="308" y="13" width="5" height="1" fill="#bebb2a"/>
    <rect x="1" y="14" width="4" height="1" fill="#bebb2a"/>
    <rect x="308" y="14" width="5" height="1" fill="#bebb2a"/>
    <rect x="1" y="15" width="4" height="1" fill="#bebb2a"/>
    <rect x="308" y="15" width="5" height="1" fill="#bebb2a"/>
    <rect x="1" y="16" width="4" height="1" fill="#bebb2a"/>
    <rect x="308" y="16" width="5" height="1" fill="#bebb2a"/>
    <rect x="1" y="17" width="4" height="1" fill="#bebb2a"/>
    <rect x="308" y="17" width="5" height="1" fill="#bebb2a"/>
    <rect x="1" y="18" width="4" height="1" fill="#bebb2a"/>
    <rect x="308" y="18" width="5" height="1" fill="#bebb2a"/>
    <rect x="1" y="19" width="4" height="1" fill="#bebb2a"/>
    <rect x="308" y="19" width="5" height="1" fill="#bebb2a"/>
    <rect x="1" y="20" width="4" height="1" fill="#bebb2a"/>
    <rect x="308" y="20" width="5" height="1" fill="#bebb2a"/>
    <rect x="1" y="21" width="4" height="1" fill="#bebb2a"/>
    <rect x="308" y="21" width="5" height="1" fill="#bebb2a"/>
    <rect x="1" y="22" width="4" height="1" fill="#bebb2a"/>
    <rect x="308" y="22" width="5" height="1" fill="#bebb2a"/>
    <rect x="1" y="23" width="4" height="1" fill="#bebb2a"/>
    <rect x="308" y="23" width="5" height="1" fill="#bebb2a"/>
    <rect x="1" y="24" width="4" height="1" fill="#bebb2a"/>
    <rect x="308" y="24" width="5" height="1" fill="#bebb2a"/>
    <rect x="1" y="25" width="4" height="1" fill="#bebb2a"/>
    <rect x="308" y="25" width="5" height="1" fill="#bebb2a"/>
    <rect x="1" y="26" width="4" height="1" fill="#bebb2a"/>
    <rect x="308" y="26" width="5" height="1" fill="#bebb2a"/>
    <rect x="1" y="27" width="4" height="1" fill="#bebb2a"/>
    <rect x="308" y="27" width="5" height="1" fill="#bebb2a"/>
    <rect x="1" y="28" width="4" height="1" fill="#bebb2a"/>
    <rect x="308" y="28" width="5" height="1" fill="#bebb2a"/>
    <rect x="1" y="29" width="4" height="1" fill="#bebb2a"/>
    <rect x="308" y="29" width="5" height="1" fill="#bebb2a"/>
    <rect x="1" y="30" width="4" height="1" fill="#bebb2a"/>
    <rect x="308" y="30" width="5" height="1" fill="#bebb2a"/>
    <rect x="1" y="31" width="4" height="1" fill="#bebb2a"/>
    <rect x="308" y="31" width="5" height="1" fill="#bebb2a"/>
    <rect x="1" y="32" width="4" height="1" fill="#bebb2a"/>
    <rect x="308" y="32" width="5" height="1" fill="#bebb2a"/>
    <rect x="1" y="33" width="4" height="1" fill="#bebb2a"/>
    <rect x="308" y="33" width="5" height="1" fill="#bebb2a"/>
    <rect x="1" y="34" width="4" height="1" fill="#bebb2a"/>
    <rect x="308" y="34" width="5" height="1" fill="#bebb2a"/>
    <rect x="1" y="35" width="4" height="1" fill="#bebb2a"/>
    <rect x="146" y="35" width="24" height="1" fill="#bebb2a"/>
    <rect x="308" y="35" width="5" height="1" fill="#bebb2a"/>
    <rect x="1" y="36" width="4" height="1" fill="#bebb2a"/>
    <rect x="139" y="36" width="38" height="1" fill="#bebb2a"/>
    <rect x="308" y="36" width="5" height="1" fill="#bebb2a"/>
    <rect x="1" y="37" width="4" height="1" fill="#bebb2a"/>
    <rect x="129" y="37" width="58" height="1" fill="#bebb2a"/>
    <rect x="308" y="37" width="5" height="1" fill="#bebb2a"/>
    <rect x="1" y="38" width="4" height="1" fill="#bebb2a"/>
    <rect x="122" y="38" width="72" height="1" fill="#bebb2a"/>
    <rect x="308" y="38" width="5" height="1" fill="#bebb2a"/>
    <rect x="1" y="39" width="4" height="1" fill="#bebb2a"/>
    <rect x="119" y="39" width="79" height="1" fill="#bebb2a"/>
    <rect x="308" y="39" width="5" height="1" fill="#bebb2a"/>
    <rect x="1" y="40" width="4" height="1" fill="#bebb2a"/>
    <rect x="112" y="40" width="92" height="1" fill="#bebb2a"/>
    <rect x="308" y="40" width="5" height="1" fill="#bebb2a"/>
    <rect x="1" y="41" width="4" height="1" fill="#bebb2a"/>
    <rect x="110" y="41" width="96" height="1" fill="#bebb2a"/>
    <rect x="308" y="41" width="5" height="1" fill="#bebb2a"/>
    <rect x="1" y="42" width="4" height="1" fill="#bebb2a"/>
    <rect x="107" y="42" width="103" height="1" fill="#bebb2a"/>
    <rect x="308" y="42" width="5" height="1" fill="#bebb2a"/>
    <rect x="1" y="43" width="4" height="1" fill="#bebb2a"/>
    <rect x="105" y="43" width="107" height="1" fill="#bebb2a"/>
    <rect x="308" y="43" width="5" height="1" fill="#bebb2a"/>
    <rect x="1" y="44" width="4" height="1" fill="#bebb2a"/>
    <rect x="101" y="44" width="115" height="1" fill="#bebb2a"/>
    <rect x="308" y="44" width="5" height="1" fill="#bebb2a"/>
    <rect x="1" y="45" width="4" height="1" fill="#bebb2a"/>
    <rect x="99" y="45" width="118" height="1" fill="#bebb2a"/>
    <rect x="308" y="45" width="5" height="1" fill="#bebb2a"/>
    <rect x="1" y="46" width="4" height="1" fill="#bebb2a"/>
    <rect x="96" y="46" width="125" height="1" fill="#bebb2a"/>
    <rect x="308" y="46" width="5" height="1" fill="#bebb2a"/>
    <rect x="1" y="47" width="4" height="1" fill="#bebb2a"/>
    <rect x="93" y="47" width="131" height="1" fill="#bebb2a"/>
    <rect x="308" y="47" width="5" height="1" fill="#bebb2a"/>
    <rect x="1" y="48" width="4" height="1" fill="#bebb2a"/>
    <rect x="91" y="48" width="134" height="1" fill="#bebb2a"/>
    <rect x="308" y="48" width="5" height="1" fill="#bebb2a"/>
    <rect x="1" y="49" width="4" height="1" fill="#bebb2a"/>
    <rect x="88" y="49" width="140" height="1" fill="#bebb2a"/>
    <rect x="308" y="49" width="5" height="1" fill="#bebb2a"/>
    <rect x="1" y="50" width="4" height="1" fill="#bebb2a"/>
    <rect x="87" y="50" width="143" height="1" fill="#bebb2a"/>
    <rect x="308" y="50" width="5" height="1" fill="#bebb2a"/>
    <rect x="1" y="51" width="4" height="1" fill="#bebb2a"/>
    <rect x="84" y="51" width="149" height="1" fill="#bebb2a"/>
    <rect x="308" y="51" width="5" height="1" fill="#bebb2a"/>
    <rect x="1" y="52" width="4" height="1" fill="#bebb2a"/>
    <rect x="83" y="52" width="151" height="1" fill="#bebb2a"/>
    <rect x="308" y="52" width="5" height="1" fill="#bebb2a"/>
    <rect x="1" y="53" width="4" height="1" fill="#bebb2a"/>
    <rect x="80" y="53" width="156" height="1" fill="#bebb2a"/>
    <rect x="308" y="53" width="5" height="1" fill="#bebb2a"/>
    <rect x="1" y="54" width="4" height="1" fill="#bebb2a"/>
    <rect x="79" y="54" width="159" height="1" fill="#bebb2a"/>
    <rect x="308" y="54" width="5" height="1" fill="#bebb2a"/>
    <rect x="1" y="55" width="4" height="1" fill="#bebb2a"/>
    <rect x="77" y="55" width="163" height="1" fill="#bebb2a"/>
    <rect x="308" y="55" width="5" height="1" fill="#bebb2a"/>
    <rect x="1" y="56" width="4" height="1" fill="#bebb2a"/>
    <rect x="76" y="56" width="165" height="1" fill="#bebb2a"/>
    <rect x="308" y="56" width="5" height="1" fill="#bebb2a"/>
    <rect x="1" y="57" width="4" height="1" fill="#bebb2a"/>
    <rect x="73" y="57" width="170" height="1" fill="#bebb2a"/>
    <rect x="308" y="57" width="5" height="1" fill="#bebb2a"/>
    <rect x="1" y="58" width="4" height="1" fill="#bebb2a"/>
    <rect x="72" y="58" width="173" height="1" fill="#bebb2a"/>
    <rect x="308" y="58" width="5" height="1" fill="#bebb2a"/>
    <rect x="1" y="59" width="4" height="1" fill="#bebb2a"/>
    <rect x="71" y="59" width="175" height="1" fill="#bebb2a"/>
    <rect x="308" y="59" width="5" height="1" fill="#bebb2a"/>
    <rect x="1" y="60" width="4" height="1" fill="#bebb2a"/>
    <rect x="69" y="60" width="178" height="1" fill="#bebb2a"/>
    <rect x="308" y="60" width="5" height="1" fill="#bebb2a"/>
    <rect x="1" y="61" width="4" height="1" fill="#bebb2a"/>
    <rect x="68" y="61" width="180" height="1" fill="#bebb2a"/>
    <rect x="308" y="61" width="5" height="1" fill="#bebb2a"/>
    <rect x="1" y="62" width="4" height="1" fill="#bebb2a"/>
    <rect x="67" y="62" width="182" height="1" fill="#bebb2a"/>
    <rect x="308" y="62" width="5" height="1" fill="#bebb2a"/>
    <rect x="1" y="63" width="4" height="1" fill="#bebb2a"/>
    <rect x="66" y="63" width="185" height="1" fill="#bebb2a"/>
    <rect x="308" y="63" width="5" height="1" fill="#bebb2a"/>
    <rect x="1" y="64" width="4" height="1" fill="#bebb2a"/>
    <rect x="65" y="64" width="187" height="1" fill="#bebb2a"/>
    <rect x="308" y="64" width="5" height="1" fill="#bebb2a"/>
    <rect x="1" y="65" width="4" height="1" fill="#bebb2a"/>
    <rect x="64" y="65" width="189" height="1" fill="#bebb2a"/>
    <rect x="308" y="65" width="5" height="1" fill="#bebb2a"/>
    <rect x="1" y="66" width="4" height="1" fill="#bebb2a"/>
    <rect x="62" y="66" width="192" height="1" fill="#bebb2a"/>
    <rect x="308" y="66" width="5" height="1" fill="#bebb2a"/>
    <rect x="1" y="67" width="4" height="1" fill="#bebb2a"/>
    <rect x="62" y="67" width="193" height="1" fill="#bebb2a"/>
    <rect x="308" y="67" width="5" height="1" fill="#bebb2a"/>
    <rect x="1" y="68" width="4" height="1" fill="#bebb2a"/>
    <rect x="60" y="68" width="196" height="1" fill="#bebb2a"/>
    <rect x="308" y="68" width="5" height="1" fill="#bebb2a"/>
    <rect x="1" y="69" width="4" height="1" fill="#bebb2a"/>
    <rect x="59" y="69" width="199" height="1" fill="#bebb2a"/>
    <rect x="308" y="69" width="5" height="1" fill="#bebb2a"/>
    <rect x="1" y="70" width="4" height="1" fill="#bebb2a"/>
    <rect x="58" y="70" width="201" height="1" fill="#bebb2a"/>
    <rect x="308" y="70" width="5" height="1" fill="#bebb2a"/>
    <rect x="1" y="71" width="4" height="1" fill="#bebb2a"/>
    <rect x="57" y="71" width="203" height="1" fill="#bebb2a"/>
    <rect x="308" y="71" width="5" height="1" fill="#bebb2a"/>
    <rect x="1" y="72" width="4" height="1" fill="#bebb2a"/>
    <rect x="56" y="72" width="205" height="1" fill="#bebb2a"/>
    <rect x="308" y="72" width="5" height="1" fill="#bebb2a"/>
    <rect x="1" y="73" width="4" height="1" fill="#bebb2a"/>
    <rect x="55" y="73" width="206" height="1" fill="#bebb2a"/>
    <rect x="308" y="73" width="5" height="1" fill="#bebb2a"/>
    <rect x="1" y="74" width="4" height="1" fill="#bebb2a"/>
    <rect x="55" y="74" width="207" height="1" fill="#bebb2a"/>
    <rect x="308" y="74" width="5" height="1" fill="#bebb2a"/>
    <rect x="1" y="75" width="4" height="1" fill="#bebb2a"/>
    <rect x="54" y="75" width="209" height="1" fill="#bebb2a"/>
    <rect x="308" y="75" width="5" height="1" fill="#bebb2a"/>
    <rect x="1" y="76" width="4" height="1" fill="#bebb2a"/>
    <rect x="53" y="76" width="211" height="1" fill="#bebb2a"/>
    <rect x="308" y="76" width="5" height="1" fill="#bebb2a"/>
    <rect x="1" y="77" width="4" height="1" fill="#bebb2a"/>
    <rect x="52" y="77" width="212" height="1" fill="#bebb2a"/>
    <rect x="308" y="77" width="5" height="1" fill="#bebb2a"/>
    <rect x="1" y="78" width="4" height="1" fill="#bebb2a"/>
    <rect x="52" y="78" width="213" height="1" fill="#bebb2a"/>
    <rect x="308" y="78" width="5" height="1" fill="#bebb2a"/>
    <rect x="1" y="79" width="4" height="1" fill="#bebb2a"/>
    <rect x="50" y="79" width="216" height="1" fill="#bebb2a"/>
    <rect x="308" y="79" width="5" height="1" fill="#bebb2a"/>
    <rect x="1" y="80" width="4" height="1" fill="#bebb2a"/>
    <rect x="50" y="80" width="217" height="1" fill="#bebb2a"/>
    <rect x="308" y="80" width="5" height="1" fill="#bebb2a"/>
    <rect x="1" y="81" width="4" height="1" fill="#bebb2a"/>
    <rect x="50" y="81" width="217" height="1" fill="#bebb2a"/>
    <rect x="308" y="81" width="5" height="1" fill="#bebb2a"/>
    <rect x="1" y="82" width="4" height="1" fill="#bebb2a"/>
    <rect x="49" y="82" width="219" height="1" fill="#bebb2a"/>
    <rect x="308" y="82" width="5" height="1" fill="#bebb2a"/>
    <rect x="1" y="83" width="4" height="1" fill="#bebb2a"/>
    <rect x="49" y="83" width="219" height="1" fill="#bebb2a"/>
    <rect x="308" y="83" width="5" height="1" fill="#bebb2a"/>
    <rect x="1" y="84" width="4" height="1" fill="#bebb2a"/>
    <rect x="48" y="84" width="221" height="1" fill="#bebb2a"/>
    <rect x="308" y="84" width="5" height="1" fill="#bebb2a"/>
    <rect x="1" y="85" width="4" height="1" fill="#bebb2a"/>
    <rect x="47" y="85" width="222" height="1" fill="#bebb2a"/>
    <rect x="308" y="85" width="5" height="1" fill="#bebb2a"/>
    <rect x="1" y="86" width="4" height="1" fill="#bebb2a"/>
    <rect x="47" y="86" width="223" height="1" fill="#bebb2a"/>
    <rect x="308" y="86" width="5" height="1" fill="#bebb2a"/>
    <rect x="1" y="87" width="4" height="1" fill="#bebb2a"/>
    <rect x="47" y="87" width="223" height="1" fill="#bebb2a"/>
    <rect x="308" y="87" width="5" height="1" fill="#bebb2a"/>
    <rect x="1" y="88" width="4" height="1" fill="#bebb2a"/>
    <rect x="45" y="88" width="226" height="1" fill="#bebb2a"/>
    <rect x="308" y="88" width="5" height="1" fill="#bebb2a"/>
    <rect x="1" y="89" width="4" height="1" fill="#bebb2a"/>
    <rect x="45" y="89" width="226" height="1" fill="#bebb2a"/>
    <rect x="308" y="89" width="5" height="1" fill="#bebb2a"/>
    <rect x="1" y="90" width="4" height="1" fill="#bebb2a"/>
    <rect x="45" y="90" width="227" height="1" fill="#bebb2a"/>
    <rect x="308" y="90" width="5" height="1" fill="#bebb2a"/>
    <rect x="1" y="91" width="4" height="1" fill="#bebb2a"/>
    <rect x="44" y="91" width="229" height="1" fill="#bebb2a"/>
    <rect x="308" y="91" width="5" height="1" fill="#bebb2a"/>
    <rect x="1" y="92" width="4" height="1" fill="#bebb2a"/>
    <rect x="44" y="92" width="229" height="1" fill="#bebb2a"/>
    <rect x="308" y="92" width="5" height="1" fill="#bebb2a"/>
    <rect x="1" y="93" width="4" height="1" fill="#bebb2a"/>
    <rect x="44" y="93" width="229" height="1" fill="#bebb2a"/>
    <rect x="308" y="93" width="5" height="1" fill="#bebb2a"/>
    <rect x="1" y="94" width="4" height="1" fill="#bebb2a"/>
    <rect x="43" y="94" width="230" height="1" fill="#bebb2a"/>
    <rect x="308" y="94" width="5" height="1" fill="#bebb2a"/>
    <rect x="1" y="95" width="4" height="1" fill="#bebb2a"/>
    <rect x="43" y="95" width="231" height="1" fill="#bebb2a"/>
    <rect x="308" y="95" width="5" height="1" fill="#bebb2a"/>
    <rect x="1" y="96" width="4" height="1" fill="#bebb2a"/>
    <rect x="43" y="96" width="231" height="1" fill="#bebb2a"/>
    <rect x="308" y="96" width="5" height="1" fill="#bebb2a"/>
    <rect x="1" y="97" width="4" height="1" fill="#bebb2a"/>
    <rect x="42" y="97" width="233" height="1" fill="#bebb2a"/>
    <rect x="308" y="97" width="5" height="1" fill="#bebb2a"/>
    <rect x="1" y="98" width="4" height="1" fill="#bebb2a"/>
    <rect x="42" y="98" width="233" height="1" fill="#bebb2a"/>
    <rect x="308" y="98" width="5" height="1" fill="#bebb2a"/>
    <rect x="1" y="99" width="4" height="1" fill="#bebb2a"/>
    <rect x="41" y="99" width="234" height="1" fill="#bebb2a"/>
    <rect x="308" y="99" width="5" height="1" fill="#bebb2a"/>
    <rect x="1" y="100" width="4" height="1" fill="#bebb2a"/>
    <rect x="41" y="100" width="235" height="1" fill="#bebb2a"/>
    <rect x="308" y="100" width="5" height="1" fill="#bebb2a"/>
    <rect x="1" y="101" width="4" height="1" fill="#bebb2a"/>
    <rect x="41" y="101" width="235" height="1" fill="#bebb2a"/>
    <rect x="308" y="101" width="5" height="1" fill="#bebb2a"/>
    <rect x="1" y="102" width="4" height="1" fill="#bebb2a"/>
    <rect x="41" y="102" width="235" height="1" fill="#bebb2a"/>
    <rect x="308" y="102" width="5" height="1" fill="#bebb2a"/>
    <rect x="1" y="103" width="4" height="1" fill="#bebb2a"/>
    <rect x="41" y="103" width="235" height="1" fill="#bebb2a"/>
    <rect x="308" y="103" width="5" height="1" fill="#bebb2a"/>
    <rect x="1" y="104" width="4" height="1" fill="#bebb2a"/>
    <rect x="41" y="104" width="235" height="1" fill="#bebb2a"/>
    <rect x="308" y="104" width="5" height="1" fill="#bebb2a"/>
    <rect x="1" y="105" width="4" height="1" fill="#bebb2a"/>
    <rect x="41" y="105" width="236" height="1" fill="#bebb2a"/>
    <rect x="308" y="105" width="5" height="1" fill="#bebb2a"/>
    <rect x="1" y="106" width="4" height="1" fill="#bebb2a"/>
    <rect x="41" y="106" width="236" height="1" fill="#bebb2a"/>
    <rect x="308" y="106" width="5" height="1" fill="#bebb2a"/>
    <rect x="1" y="107" width="4" height="1" fill="#bebb2a"/>
    <rect x="42" y="107" width="235" height="1" fill="#bebb2a"/>
    <rect x="308" y="107" width="5" height="1" fill="#bebb2a"/>
    <rect x="1" y="108" width="4" height="1" fill="#bebb2a"/>
    <rect x="41" y="108" width="236" height="1" fill="#bebb2a"/>
    <rect x="308" y="108" width="5" height="1" fill="#bebb2a"/>
    <rect x="1" y="109" width="4" height="1" fill="#bebb2a"/>
    <rect x="41" y="109" width="236" height="1" fill="#bebb2a"/>
    <rect x="308" y="109" width="5" height="1" fill="#bebb2a"/>
    <rect x="1" y="110" width="4" height="1" fill="#bebb2a"/>
    <rect x="41" y="110" width="236" height="1" fill="#bebb2a"/>
    <rect x="308" y="110" width="5" height="1" fill="#bebb2a"/>
    <rect x="1" y="111" width="4" height="1" fill="#bebb2a"/>
    <rect x="41" y="111" width="236" height="1" fill="#bebb2a"/>
    <rect x="308" y="111" width="5" height="1" fill="#bebb2a"/>
    <rect x="1" y="112" width="4" height="1" fill="#bebb2a"/>
    <rect x="41" y="112" width="235" height="1" fill="#bebb2a"/>
    <rect x="308" y="112" width="5" height="1" fill="#bebb2a"/>
    <rect x="1" y="113" width="4" height="1" fill="#bebb2a"/>
    <rect x="41" y="113" width="235" height="1" fill="#bebb2a"/>
    <rect x="308" y="113" width="5" height="1" fill="#bebb2a"/>
    <rect x="1" y="114" width="4" height="1" fill="#bebb2a"/>
    <rect x="41" y="114" width="235" height="1" fill="#bebb2a"/>
    <rect x="308" y="114" width="5" height="1" fill="#bebb2a"/>
    <rect x="1" y="115" width="4" height="1" fill="#bebb2a"/>
    <rect x="41" y="115" width="235" height="1" fill="#bebb2a"/>
    <rect x="308" y="115" width="5" height="1" fill="#bebb2a"/>
    <rect x="1" y="116" width="4" height="1" fill="#bebb2a"/>
    <rect x="41" y="116" width="235" height="1" fill="#bebb2a"/>
    <rect x="308" y="116" width="5" height="1" fill="#bebb2a"/>
    <rect x="1" y="117" width="4" height="1" fill="#bebb2a"/>
    <rect x="41" y="117" width="234" height="1" fill="#bebb2a"/>
    <rect x="308" y="117" width="5" height="1" fill="#bebb2a"/>
    <rect x="1" y="118" width="4" height="1" fill="#bebb2a"/>
    <rect x="41" y="118" width="234" height="1" fill="#bebb2a"/>
    <rect x="308" y="118" width="5" height="1" fill="#bebb2a"/>
    <rect x="1" y="119" width="4" height="1" fill="#bebb2a"/>
    <rect x="42" y="119" width="233" height="1" fill="#bebb2a"/>
    <rect x="308" y="119" width="5" height="1" fill="#bebb2a"/>
    <rect x="1" y="120" width="4" height="1" fill="#bebb2a"/>
    <rect x="42" y="120" width="233" height="1" fill="#bebb2a"/>
    <rect x="308" y="120" width="5" height="1" fill="#bebb2a"/>
    <rect x="1" y="121" width="4" height="1" fill="#bebb2a"/>
    <rect x="43" y="121" width="231" height="1" fill="#bebb2a"/>
    <rect x="308" y="121" width="5" height="1" fill="#bebb2a"/>
    <rect x="1" y="122" width="4" height="1" fill="#bebb2a"/>
    <rect x="43" y="122" width="231" height="1" fill="#bebb2a"/>
    <rect x="308" y="122" width="5" height="1" fill="#bebb2a"/>
    <rect x="1" y="123" width="4" height="1" fill="#bebb2a"/>
    <rect x="43" y="123" width="230" height="1" fill="#bebb2a"/>
    <rect x="308" y="123" width="5" height="1" fill="#bebb2a"/>
    <rect x="1" y="124" width="4" height="1" fill="#bebb2a"/>
    <rect x="44" y="124" width="229" height="1" fill="#bebb2a"/>
    <rect x="308" y="124" width="5" height="1" fill="#bebb2a"/>
    <rect x="1" y="125" width="4" height="1" fill="#bebb2a"/>
    <rect x="44" y="125" width="229" height="1" fill="#bebb2a"/>
    <rect x="308" y="125" width="5" height="1" fill="#bebb2a"/>
    <rect x="1" y="126" width="4" height="1" fill="#bebb2a"/>
    <rect x="45" y="126" width="227" height="1" fill="#bebb2a"/>
    <rect x="308" y="126" width="5" height="1" fill="#bebb2a"/>
    <rect x="1" y="127" width="4" height="1" fill="#bebb2a"/>
    <rect x="45" y="127" width="227" height="1" fill="#bebb2a"/>
    <rect x="308" y="127" width="5" height="1" fill="#bebb2a"/>
    <rect x="1" y="128" width="4" height="1" fill="#bebb2a"/>
    <rect x="45" y="128" width="226" height="1" fill="#bebb2a"/>
    <rect x="308" y="128" width="5" height="1" fill="#bebb2a"/>
    <rect x="1" y="129" width="4" height="1" fill="#bebb2a"/>
    <rect x="45" y="129" width="226" height="1" fill="#bebb2a"/>
    <rect x="308" y="129" width="5" height="1" fill="#bebb2a"/>
    <rect x="1" y="130" width="4" height="1" fill="#bebb2a"/>
    <rect x="47" y="130" width="223" height="1" fill="#bebb2a"/>
    <rect x="308" y="130" width="5" height="1" fill="#bebb2a"/>
    <rect x="1" y="131" width="4" height="1" fill="#bebb2a"/>
    <rect x="47" y="131" width="223" height="1" fill="#bebb2a"/>
    <rect x="308" y="131" width="5" height="1" fill="#bebb2a"/>
    <rect x="1" y="132" width="4" height="1" fill="#bebb2a"/>
    <rect x="47" y="132" width="222" height="1" fill="#bebb2a"/>
    <rect x="308" y="132" width="5" height="1" fill="#bebb2a"/>
    <rect x="1" y="133" width="4" height="1" fill="#bebb2a"/>
    <rect x="48" y="133" width="221" height="1" fill="#bebb2a"/>
    <rect x="308" y="133" width="5" height="1" fill="#bebb2a"/>
    <rect x="1" y="134" width="4" height="1" fill="#bebb2a"/>
    <rect x="49" y="134" width="219" height="1" fill="#bebb2a"/>
    <rect x="308" y="134" width="5" height="1" fill="#bebb2a"/>
    <rect x="1" y="135" width="4" height="1" fill="#bebb2a"/>
    <rect x="49" y="135" width="219" height="1" fill="#bebb2a"/>
    <rect x="308" y="135" width="5" height="1" fill="#bebb2a"/>
    <rect x="1" y="136" width="4" height="1" fill="#bebb2a"/>
    <rect x="50" y="136" width="217" height="1" fill="#bebb2a"/>
    <rect x="308" y="136" width="5" height="1" fill="#bebb2a"/>
    <rect x="1" y="137" width="4" height="1" fill="#bebb2a"/>
    <rect x="50" y="137" width="216" height="1" fill="#bebb2a"/>
    <rect x="308" y="137" width="5" height="1" fill="#bebb2a"/>
    <rect x="1" y="138" width="4" height="1" fill="#bebb2a"/>
    <rect x="50" y="138" width="216" height="1" fill="#bebb2a"/>
    <rect x="308" y="138" width="5" height="1" fill="#bebb2a"/>
    <rect x="1" y="139" width="4" height="1" fill="#bebb2a"/>
    <rect x="52" y="139" width="213" height="1" fill="#bebb2a"/>
    <rect x="308" y="139" width="5" height="1" fill="#bebb2a"/>
    <rect x="1" y="140" width="4" height="1" fill="#bebb2a"/>
    <rect x="52" y="140" width="212" height="1" fill="#bebb2a"/>
    <rect x="308" y="140" width="5" height="1" fill="#bebb2a"/>
    <rect x="1" y="141" width="4" height="1" fill="#bebb2a"/>
    <rect x="53" y="141" width="211" height="1" fill="#bebb2a"/>
    <rect x="308" y="141" width="5" height="1" fill="#bebb2a"/>
    <rect x="1" y="142" width="4" height="1" fill="#bebb2a"/>
    <rect x="54" y="142" width="209" height="1" fill="#bebb2a"/>
    <rect x="308" y="142" width="5" height="1" fill="#bebb2a"/>
    <rect x="1" y="143" width="4" height="1" fill="#bebb2a"/>
    <rect x="55" y="143" width="207" height="1" fill="#bebb2a"/>
    <rect x="308" y="143" width="5" height="1" fill="#bebb2a"/>
    <rect x="1" y="144" width="4" height="1" fill="#bebb2a"/>
    <rect x="56" y="144" width="205" height="1" fill="#bebb2a"/>
    <rect x="308" y="144" width="5" height="1" fill="#bebb2a"/>
    <rect x="1" y="145" width="4" height="1" fill="#bebb2a"/>
    <rect x="56" y="145" width="205" height="1" fill="#bebb2a"/>
    <rect x="308" y="145" width="5" height="1" fill="#bebb2a"/>
    <rect x="1" y="146" width="4" height="1" fill="#bebb2a"/>
    <rect x="57" y="146" width="202" height="1" fill="#bebb2a"/>
    <rect x="308" y="146" width="5" height="1" fill="#bebb2a"/>
    <rect x="1" y="147" width="4" height="1" fill="#bebb2a"/>
    <rect x="58" y="147" width="201" height="1" fill="#bebb2a"/>
    <rect x="308" y="147" width="5" height="1" fill="#bebb2a"/>
    <rect x="1" y="148" width="4" height="1" fill="#bebb2a"/>
    <rect x="59" y="148" width="198" height="1" fill="#bebb2a"/>
    <rect x="308" y="148" width="5" height="1" fill="#bebb2a"/>
    <rect x="1" y="149" width="4" height="1" fill="#bebb2a"/>
    <rect x="60" y="149" width="196" height="1" fill="#bebb2a"/>
    <rect x="308" y="149" width="5" height="1" fill="#bebb2a"/>
    <rect x="1" y="150" width="4" height="1" fill="#bebb2a"/>
    <rect x="62" y="150" width="193" height="1" fill="#bebb2a"/>
    <rect x="308" y="150" width="5" height="1" fill="#bebb2a"/>
    <rect x="1" y="151" width="4" height="1" fill="#bebb2a"/>
    <rect x="62" y="151" width="192" height="1" fill="#bebb2a"/>
    <rect x="308" y="151" width="5" height="1" fill="#bebb2a"/>
    <rect x="1" y="152" width="4" height="1" fill="#bebb2a"/>
    <rect x="64" y="152" width="189" height="1" fill="#bebb2a"/>
    <rect x="308" y="152" width="5" height="1" fill="#bebb2a"/>
    <rect x="1" y="153" width="4" height="1" fill="#bebb2a"/>
    <rect x="65" y="153" width="186" height="1" fill="#bebb2a"/>
    <rect x="308" y="153" width="5" height="1" fill="#bebb2a"/>
    <rect x="1" y="154" width="4" height="1" fill="#bebb2a"/>
    <rect x="66" y="154" width="185" height="1" fill="#bebb2a"/>
    <rect x="308" y="154" width="5" height="1" fill="#bebb2a"/>
    <rect x="1" y="155" width="4" height="1" fill="#bebb2a"/>
    <rect x="68" y="155" width="181" height="1" fill="#bebb2a"/>
    <rect x="308" y="155" width="5" height="1" fill="#bebb2a"/>
    <rect x="1" y="156" width="4" height="1" fill="#bebb2a"/>
    <rect x="69" y="156" width="179" height="1" fill="#bebb2a"/>
    <rect x="308" y="156" width="5" height="1" fill="#bebb2a"/>
    <rect x="1" y="157" width="4" height="1" fill="#bebb2a"/>
    <rect x="71" y="157" width="175" height="1" fill="#bebb2a"/>
    <rect x="308" y="157" width="5" height="1" fill="#bebb2a"/>
    <rect x="1" y="158" width="4" height="1" fill="#bebb2a"/>
    <rect x="72" y="158" width="173" height="1" fill="#bebb2a"/>
    <rect x="308" y="158" width="5" height="1" fill="#bebb2a"/>
    <rect x="1" y="159" width="4" height="1" fill="#bebb2a"/>
    <rect x="73" y="159" width="170" height="1" fill="#bebb2a"/>
    <rect x="308" y="159" width="5" height="1" fill="#bebb2a"/>
    <rect x="1" y="160" width="4" height="1" fill="#bebb2a"/>
    <rect x="75" y="160" width="167" height="1" fill="#bebb2a"/>
    <rect x="308" y="160" width="5" height="1" fill="#bebb2a"/>
    <rect x="1" y="161" width="4" height="1" fill="#bebb2a"/>
    <rect x="77" y="161" width="163" height="1" fill="#bebb2a"/>
    <rect x="308" y="161" width="5" height="1" fill="#bebb2a"/>
    <rect x="1" y="162" width="4" height="1" fill="#bebb2a"/>
    <rect x="77" y="162" width="162" height="1" fill="#bebb2a"/>
    <rect x="308" y="162" width="5" height="1" fill="#bebb2a"/>
    <rect x="1" y="163" width="4" height="1" fill="#bebb2a"/>
    <rect x="80" y="163" width="157" height="1" fill="#bebb2a"/>
    <rect x="308" y="163" width="5" height="1" fill="#bebb2a"/>
    <rect x="1" y="164" width="4" height="1" fill="#bebb2a"/>
    <rect x="81" y="164" width="154" height="1" fill="#bebb2a"/>
    <rect x="308" y="164" width="5" height="1" fill="#bebb2a"/>
    <rect x="1" y="165" width="4" height="1" fill="#bebb2a"/>
    <rect x="83" y="165" width="151" height="1" fill="#bebb2a"/>
    <rect x="308" y="165" width="5" height="1" fill="#bebb2a"/>
    <rect x="1" y="166" width="4" height="1" fill="#bebb2a"/>
    <rect x="85" y="166" width="146" height="1" fill="#bebb2a"/>
    <rect x="308" y="166" width="5" height="1" fill="#bebb2a"/>
    <rect x="1" y="167" width="4" height="1" fill="#bebb2a"/>
    <rect x="87" y="167" width="143" height="1" fill="#bebb2a"/>
    <rect x="308" y="167" width="5" height="1" fill="#bebb2a"/>
    <rect x="1" y="168" width="4" height="1" fill="#bebb2a"/>
    <rect x="89" y="168" width="138" height="1" fill="#bebb2a"/>
    <rect x="308" y="168" width="5" height="1" fill="#bebb2a"/>
    <rect x="1" y="169" width="4" height="1" fill="#bebb2a"/>
    <rect x="91" y="169" width="134" height="1" fill="#bebb2a"/>
    <rect x="308" y="169" width="5" height="1" fill="#bebb2a"/>
    <rect x="1" y="170" width="4" height="1" fill="#bebb2a"/>
    <rect x="94" y="170" width="128" height="1" fill="#bebb2a"/>
    <rect x="308" y="170" width="5" height="1" fill="#bebb2a"/>
    <rect x="1" y="171" width="4" height="1" fill="#bebb2a"/>
    <rect x="96" y="171" width="125" height="1" fill="#bebb2a"/>
    <rect x="308" y="171" width="5" height="1" fill="#bebb2a"/>
    <rect x="1" y="172" width="4" height="1" fill="#bebb2a"/>
    <rect x="99" y="172" width="118" height="1" fill="#bebb2a"/>
    <rect x="308" y="172" width="5" height="1" fill="#bebb2a"/>
    <rect x="1" y="173" width="4" height="1" fill="#bebb2a"/>
    <rect x="101" y="173" width="115" height="1" fill="#bebb2a"/>
    <rect x="308" y="173" width="5" height="1" fill="#bebb2a"/>
    <rect x="1" y="174" width="4" height="1" fill="#bebb2a"/>
    <rect x="105" y="174" width="107" height="1" fill="#bebb2a"/>
    <rect x="308" y="174" width="5" height="1" fill="#bebb2a"/>
    <rect x="1" y="175" width="4" height="1" fill="#bebb2a"/>
    <rect x="109" y="175" width="99" height="1" fill="#bebb2a"/>
    <rect x="308" y="175" width="5" height="1" fill="#bebb2a"/>
    <rect x="1" y="176" width="4" height="1" fill="#bebb2a"/>
    <rect x="110" y="176" width="96" height="1" fill="#bebb2a"/>
    <rect x="308" y="176" width="5" height="1" fill="#bebb2a"/>
    <rect x="1" y="177" width="4" height="1" fill="#bebb2a"/>
    <rect x="115" y="177" width="86" height="1" fill="#bebb2a"/>
    <rect x="308" y="177" width="5" height="1" fill="#bebb2a"/>
    <rect x="1" y="178" width="4" height="1" fill="#bebb2a"/>
    <rect x="119" y="178" width="79" height="1" fill="#bebb2a"/>
    <rect x="308" y="178" width="5" height="1" fill="#bebb2a"/>
    <rect x="1" y="179" width="4" height="1" fill="#bebb2a"/>
    <rect x="126" y="179" width="65" height="1" fill="#bebb2a"/>
    <rect x="308" y="179" width="5" height="1" fill="#bebb2a"/>
    <rect x="1" y="180" width="4" height="1" fill="#bebb2a"/>
    <rect x="129" y="180" width="58" height="1" fill="#bebb2a"/>
    <rect x="308" y="180" width="5" height="1" fill="#bebb2a"/>
    <rect x="1" y="181" width="4" height="1" fill="#bebb2a"/>
    <rect x="139" y="181" width="38" height="1" fill="#bebb2a"/>
    <rect x="308" y="181" width="5" height="1" fill="#bebb2a"/>
    <rect x="1" y="182" width="4" height="1" fill="#bebb2a"/>
    <rect x="152" y="182" width="13" height="1" fill="#bebb2a"/>
    <rect x="308" y="182" width="5" height="1" fill="#bebb2a"/>
    <rect x="1" y="183" width="4" height="1" fill="#bebb2a"/>
    <rect x="308" y="183" width="5" height="1" fill="#bebb2a"/>
    <rect x="1" y="184" width="4" height="1" fill="#bebb2a"/>
    <rect x="308" y="184" width="5" height="1" fill="#bebb2a"/>
    <rect x="1" y="185" width="4" height="1" fill="#bebb2a"/>
    <rect x="308" y="185" width="5" height="1" fill="#bebb2a"/>
    <rect x="1" y="186" width="4" height="1" fill="#bebb2a"/>
    <rect x="308" y="186" width="5" height="1" fill="#bebb2a"/>
    <rect x="1" y="187" width="4" height="1" fill="#bebb2a"/>
    <rect x="308" y="187" width="5" height="1" fill="#bebb2a"/>
    <rect x="1" y="188" width="4" height="1" fill="#bebb2a"/>
    <rect x="308" y="188" width="5" height="1" fill="#bebb2a"/>
    <rect x="1" y="189" width="4" height="1" fill="#bebb2a"/>
    <rect x="308" y="189" width="5" height="1" fill="#bebb2a"/>
    <rect x="1" y="190" width="4" height="1" fill="#bebb2a"/>
    <rect x="308" y="190" width="5" height="1" fill="#bebb2a"/>
    <rect x="1" y="191" width="4" height="1" fill="#bebb2a"/>
    <rect x="308" y="191" width="5" height="1" fill="#bebb2a"/>
    <rect x="1" y="192" width="4" height="1" fill="#bebb2a"/>
    <rect x="308" y="192" width="5" height="1" fill="#bebb2a"/>
    <rect x="1" y="193" width="4" height="1" fill="#bebb2a"/>
    <rect x="308" y="193" width="5" height="1" fill="#bebb2a"/>
    <rect x="1" y="194" width="4" height="1" fill="#bebb2a"/>
    <rect x="308" y="194" width="5" height="1" fill="#bebb2a"/>
    <rect x="1" y="195" width="4" height="1" fill="#bebb2a"/>
    <rect x="308" y="195" width="5" height="1" fill="#bebb2a"/>
    <rect x="1" y="196" width="4" height="1" fill="#bebb2a"/>
    <rect x="308" y="196" width="5" height="1" fill="#bebb2a"/>
    <rect x="1" y="197" width="4" height="1" fill="#bebb2a"/>
    <rect x="308" y="197" width="5" height="1" fill="#bebb2a"/>
    <rect x="1" y="198" width="4" height="1" fill="#bebb2a"/>
    <rect x="308" y="198" width="5" height="1" fill="#bebb2a"/>
    <rect x="1" y="199" width="4" height="1" fill="#bebb2a"/>
    <rect x="308" y="199" width="5" height="1" fill="#bebb2a"/>
    <rect x="1" y="200" width="4" height="1" fill="#bebb2a"/>
    <rect x="308" y="200" width="5" height="1" fill="#bebb2a"/>
    <rect x="1" y="201" width="4" height="1" fill="#bebb2a"/>
    <rect x="308" y="201" width="5" height="1" fill="#bebb2a"/>
    <rect x="1" y="202" width="4" height="1" fill="#bebb2a"/>
    <rect x="308" y="202" width="5" height="1" fill="#bebb2a"/>
    <rect x="1" y="203" width="4" height="1" fill="#bebb2a"/>
    <rect x="308" y="203" width="5" height="1" fill="#bebb2a"/>
    <rect x="1" y="204" width="4" height="1" fill="#bebb2a"/>
    <rect x="308" y="204" width="5" height="1" fill="#bebb2a"/>
    <rect x="1" y="205" width="4" height="1" fill="#bebb2a"/>
    <rect x="308" y="205" width="5" height="1" fill="#bebb2a"/>
    <rect x="1" y="206" width="312" height="1" fill="#bebb2a"/>
    <rect x="1" y="207" width="312" height="1" fill="#bebb2a"/>
    <rect x="1" y="208" width="312" height="1" fill="#bebb2a"/>
    <rect x="1" y="209" width="312" height="1" fill="#bebb2a"/>
    <rect x="2" y="210" width="311" height="1" fill="#bebb2a"/>
  </g>
</svg>