<?xml version="1.0" encoding="UTF-8"?>
<svg xmlns="http://www.w3.org/2000/svg" viewBox="0 0 153 61" width="153" height="61">
  <!-- Auto-converted from legend-2355.png -->
  <rect x="0" y="0" width="153" height="61" fill="none"/>
  <g fill="#231f20" stroke="none">
    <rect x="0" y="0" width="153" height="1" fill="#231f20"/>
    <rect x="0" y="1" width="1" height="1" fill="#231f20"/>
    <rect x="152" y="1" width="1" height="1" fill="#231f20"/>
    <rect x="0" y="2" width="1" height="1" fill="#231f20"/>
    <rect x="21" y="2" width="9" height="1" fill="#231f20"/>
    <rect x="152" y="2" width="1" height="1" fill="#231f20"/>
    <rect x="0" y="3" width="1" height="1" fill="#231f20"/>
    <rect x="21" y="3" width="1" height="1" fill="#231f20"/>
    <rect x="29" y="3" width="1" height="1" fill="#231f20"/>
    <rect x="81" y="3" width="1" height="1" fill="#231f20"/>
    <rect x="91" y="3" width="1" height="1" fill="#231f20"/>
    <rect x="116" y="3" width="1" height="1" fill="#231f20"/>
    <rect x="152" y="3" width="1" height="1" fill="#231f20"/>
    <rect x="0" y="4" width="1" height="1" fill="#231f20"/>
    <rect x="21" y="4" width="1" height="1" fill="#231f20"/>
    <rect x="29" y="4" width="1" height="1" fill="#231f20"/>
    <rect x="52" y="4" width="7" height="1" fill="#231f20"/>
    <rect x="82" y="4" width="1" height="1" fill="#231f20"/>
    <rect x="91" y="4" width="1" height="1" fill="#231f20"/>
    <rect x="116" y="4" width="1" height="1" fill="#231f20"/>
    <rect x="152" y="4" width="1" height="1" fill="#231f20"/>
    <rect x="0" y="5" width="1" height="1" fill="#231f20"/>
    <rect x="21" y="5" width="1" height="1" fill="#231f20"/>
    <rect x="29" y="5" width="1" height="1" fill="#231f20"/>
    <rect x="51" y="5" width="1" height="1" fill="#231f20"/>
    <rect x="59" y="5" width="1" height="1" fill="#231f20"/>
    <rect x="82" y="5" width="1" height="1" fill="#231f20"/>
    <rect x="90" y="5" width="1" height="1" fill="#231f20"/>
    <rect x="116" y="5" width="1" height="1" fill="#231f20"/>
    <rect x="152" y="5" width="1" height="1" fill="#231f20"/>
    <rect x="0" y="6" width="1" height="1" fill="#231f20"/>
    <rect x="21" y="6" width="1" height="1" fill="#231f20"/>
    <rect x="29" y="6" width="1" height="1" fill="#231f20"/>
    <rect x="50" y="6" width="1" height="1" fill="#231f20"/>
    <rect x="60" y="6" width="1" height="1" fill="#231f20"/>
    <rect x="83" y="6" width="1" height="1" fill="#231f20"/>
    <rect x="90" y="6" width="1" height="1" fill="#231f20"/>
    <rect x="116" y="6" width="1" height="1" fill="#231f20"/>
    <rect x="152" y="6" width="1" height="1" fill="#231f20"/>
    <rect x="0" y="7" width="1" height="1" fill="#231f20"/>
    <rect x="21" y="7" width="1" height="1" fill="#231f20"/>
    <rect x="29" y="7" width="1" height="1" fill="#231f20"/>
    <rect x="49" y="7" width="1" height="1" fill="#231f20"/>
    <rect x="61" y="7" width="1" height="1" fill="#231f20"/>
    <rect x="83" y="7" width="1" height="1" fill="#231f20"/>
    <rect x="89" y="7" width="1" height="1" fill="#231f20"/>
    <rect x="112" y="7" width="9" height="1" fill="#231f20"/>
    <rect x="152" y="7" width="1" height="1" fill="#231f20"/>
    <rect x="0" y="8" width="1" height="1" fill="#231f20"/>
    <rect x="21" y="8" width="1" height="1" fill="#231f20"/>
    <rect x="29" y="8" width="1" height="1" fill="#231f20"/>
    <rect x="50" y="8" width="2" height="1" fill="#231f20"/>
    <rect x="59" y="8" width="2" height="1" fill="#231f20"/>
    <rect x="84" y="8" width="1" height="1" fill="#231f20"/>
    <rect x="89" y="8" width="1" height="1" fill="#231f20"/>
    <rect x="116" y="8" width="1" height="1" fill="#231f20"/>
    <rect x="152" y="8" width="1" height="1" fill="#231f20"/>
    <rect x="0" y="9" width="1" height="1" fill="#231f20"/>
    <rect x="21" y="9" width="1" height="1" fill="#231f20"/>
    <rect x="29" y="9" width="1" height="1" fill="#231f20"/>
    <rect x="52" y="9" width="1" height="1" fill="#231f20"/>
    <rect x="58" y="9" width="1" height="1" fill="#231f20"/>
    <rect x="84" y="9" width="1" height="1" fill="#231f20"/>
    <rect x="88" y="9" width="1" height="1" fill="#231f20"/>
    <rect x="116" y="9" width="1" height="1" fill="#231f20"/>
    <rect x="152" y="9" width="1" height="1" fill="#231f20"/>
    <rect x="0" y="10" width="1" height="1" fill="#231f20"/>
    <rect x="21" y="10" width="1" height="1" fill="#231f20"/>
    <rect x="29" y="10" width="1" height="1" fill="#231f20"/>
    <rect x="53" y="10" width="2" height="1" fill="#231f20"/>
    <rect x="56" y="10" width="2" height="1" fill="#231f20"/>
    <rect x="85" y="10" width="1" height="1" fill="#231f20"/>
    <rect x="88" y="10" width="1" height="1" fill="#231f20"/>
    <rect x="116" y="10" width="1" height="1" fill="#231f20"/>
    <rect x="152" y="10" width="1" height="1" fill="#231f20"/>
    <rect x="0" y="11" width="1" height="1" fill="#231f20"/>
    <rect x="21" y="11" width="1" height="1" fill="#231f20"/>
    <rect x="29" y="11" width="1" height="1" fill="#231f20"/>
    <rect x="55" y="11" width="1" height="1" fill="#231f20"/>
    <rect x="85" y="11" width="1" height="1" fill="#231f20"/>
    <rect x="87" y="11" width="1" height="1" fill="#231f20"/>
    <rect x="98" y="11" width="27" height="1" fill="#231f20"/>
    <rect x="152" y="11" width="1" height="1" fill="#231f20"/>
    <rect x="0" y="12" width="1" height="1" fill="#231f20"/>
    <rect x="21" y="12" width="9" height="1" fill="#231f20"/>
    <rect x="86" y="12" width="2" height="1" fill="#231f20"/>
    <rect x="89" y="12" width="9" height="1" fill="#231f20"/>
    <rect x="125" y="12" width="12" height="1" fill="#231f20"/>
    <rect x="152" y="12" width="1" height="1" fill="#231f20"/>
    <rect x="0" y="13" width="1" height="1" fill="#231f20"/>
    <rect x="83" y="13" width="6" height="1" fill="#231f20"/>
    <rect x="137" y="13" width="8" height="1" fill="#231f20"/>
    <rect x="152" y="13" width="1" height="1" fill="#231f20"/>
    <rect x="0" y="14" width="1" height="1" fill="#231f20"/>
    <rect x="78" y="14" width="5" height="1" fill="#231f20"/>
    <rect x="145" y="14" width="8" height="1" fill="#231f20"/>
    <rect x="0" y="15" width="7" height="1" fill="#231f20"/>
    <rect x="69" y="15" width="9" height="1" fill="#231f20"/>
    <rect x="152" y="15" width="1" height="1" fill="#231f20"/>
    <rect x="0" y="16" width="1" height="1" fill="#231f20"/>
    <rect x="7" y="16" width="9" height="1" fill="#231f20"/>
    <rect x="63" y="16" width="6" height="1" fill="#231f20"/>
    <rect x="152" y="16" width="1" height="1" fill="#231f20"/>
    <rect x="0" y="17" width="1" height="1" fill="#231f20"/>
    <rect x="16" y="17" width="12" height="1" fill="#231f20"/>
    <rect x="53" y="17" width="10" height="1" fill="#231f20"/>
    <rect x="152" y="17" width="1" height="1" fill="#231f20"/>
    <rect x="0" y="18" width="1" height="1" fill="#231f20"/>
    <rect x="28" y="18" width="25" height="1" fill="#231f20"/>
    <rect x="152" y="18" width="1" height="1" fill="#231f20"/>
    <rect x="0" y="19" width="1" height="1" fill="#231f20"/>
    <rect x="152" y="19" width="1" height="1" fill="#231f20"/>
    <rect x="0" y="20" width="153" height="1" fill="#231f20"/>
    <rect x="0" y="21" width="1" height="1" fill="#231f20"/>
    <rect x="152" y="21" width="1" height="1" fill="#231f20"/>
    <rect x="0" y="22" width="1" height="1" fill="#231f20"/>
    <rect x="122" y="22" width="9" height="1" fill="#231f20"/>
    <rect x="152" y="22" width="1" height="1" fill="#231f20"/>
    <rect x="0" y="23" width="1" height="1" fill="#231f20"/>
    <rect x="60" y="23" width="1" height="1" fill="#231f20"/>
    <rect x="70" y="23" width="1" height="1" fill="#231f20"/>
    <rect x="122" y="23" width="1" height="1" fill="#231f20"/>
    <rect x="130" y="23" width="1" height="1" fill="#231f20"/>
    <rect x="152" y="23" width="1" height="1" fill="#231f20"/>
    <rect x="0" y="24" width="1" height="1" fill="#231f20"/>
    <rect x="35" y="24" width="1" height="1" fill="#231f20"/>
    <rect x="61" y="24" width="1" height="1" fill="#231f20"/>
    <rect x="70" y="24" width="1" height="1" fill="#231f20"/>
    <rect x="93" y="24" width="7" height="1" fill="#231f20"/>
    <rect x="122" y="24" width="1" height="1" fill="#231f20"/>
    <rect x="130" y="24" width="1" height="1" fill="#231f20"/>
    <rect x="152" y="24" width="1" height="1" fill="#231f20"/>
    <rect x="0" y="25" width="1" height="1" fill="#231f20"/>
    <rect x="35" y="25" width="1" height="1" fill="#231f20"/>
    <rect x="61" y="25" width="1" height="1" fill="#231f20"/>
    <rect x="69" y="25" width="1" height="1" fill="#231f20"/>
    <rect x="92" y="25" width="1" height="1" fill="#231f20"/>
    <rect x="100" y="25" width="1" height="1" fill="#231f20"/>
    <rect x="122" y="25" width="1" height="1" fill="#231f20"/>
    <rect x="130" y="25" width="1" height="1" fill="#231f20"/>
    <rect x="152" y="25" width="1" height="1" fill="#231f20"/>
    <rect x="0" y="26" width="1" height="1" fill="#231f20"/>
    <rect x="35" y="26" width="1" height="1" fill="#231f20"/>
    <rect x="62" y="26" width="1" height="1" fill="#231f20"/>
    <rect x="69" y="26" width="1" height="1" fill="#231f20"/>
    <rect x="91" y="26" width="1" height="1" fill="#231f20"/>
    <rect x="101" y="26" width="1" height="1" fill="#231f20"/>
    <rect x="122" y="26" width="1" height="1" fill="#231f20"/>
    <rect x="130" y="26" width="1" height="1" fill="#231f20"/>
    <rect x="152" y="26" width="1" height="1" fill="#231f20"/>
    <rect x="0" y="27" width="1" height="1" fill="#231f20"/>
    <rect x="31" y="27" width="9" height="1" fill="#231f20"/>
    <rect x="62" y="27" width="1" height="1" fill="#231f20"/>
    <rect x="68" y="27" width="1" height="1" fill="#231f20"/>
    <rect x="90" y="27" width="1" height="1" fill="#231f20"/>
    <rect x="102" y="27" width="1" height="1" fill="#231f20"/>
    <rect x="122" y="27" width="1" height="1" fill="#231f20"/>
    <rect x="130" y="27" width="1" height="1" fill="#231f20"/>
    <rect x="152" y="27" width="1" height="1" fill="#231f20"/>
    <rect x="0" y="28" width="1" height="1" fill="#231f20"/>
    <rect x="35" y="28" width="1" height="1" fill="#231f20"/>
    <rect x="63" y="28" width="1" height="1" fill="#231f20"/>
    <rect x="68" y="28" width="1" height="1" fill="#231f20"/>
    <rect x="91" y="28" width="2" height="1" fill="#231f20"/>
    <rect x="100" y="28" width="2" height="1" fill="#231f20"/>
    <rect x="122" y="28" width="1" height="1" fill="#231f20"/>
    <rect x="130" y="28" width="1" height="1" fill="#231f20"/>
    <rect x="152" y="28" width="1" height="1" fill="#231f20"/>
    <rect x="0" y="29" width="1" height="1" fill="#231f20"/>
    <rect x="35" y="29" width="1" height="1" fill="#231f20"/>
    <rect x="63" y="29" width="1" height="1" fill="#231f20"/>
    <rect x="67" y="29" width="1" height="1" fill="#231f20"/>
    <rect x="93" y="29" width="1" height="1" fill="#231f20"/>
    <rect x="99" y="29" width="1" height="1" fill="#231f20"/>
    <rect x="122" y="29" width="1" height="1" fill="#231f20"/>
    <rect x="130" y="29" width="1" height="1" fill="#231f20"/>
    <rect x="152" y="29" width="1" height="1" fill="#231f20"/>
    <rect x="0" y="30" width="1" height="1" fill="#231f20"/>
    <rect x="35" y="30" width="1" height="1" fill="#231f20"/>
    <rect x="64" y="30" width="1" height="1" fill="#231f20"/>
    <rect x="67" y="30" width="1" height="1" fill="#231f20"/>
    <rect x="94" y="30" width="2" height="1" fill="#231f20"/>
    <rect x="97" y="30" width="2" height="1" fill="#231f20"/>
    <rect x="122" y="30" width="1" height="1" fill="#231f20"/>
    <rect x="130" y="30" width="1" height="1" fill="#231f20"/>
    <rect x="152" y="30" width="1" height="1" fill="#231f20"/>
    <rect x="0" y="31" width="1" height="1" fill="#231f20"/>
    <rect x="35" y="31" width="1" height="1" fill="#231f20"/>
    <rect x="64" y="31" width="1" height="1" fill="#231f20"/>
    <rect x="66" y="31" width="1" height="1" fill="#231f20"/>
    <rect x="96" y="31" width="1" height="1" fill="#231f20"/>
    <rect x="122" y="31" width="1" height="1" fill="#231f20"/>
    <rect x="130" y="31" width="1" height="1" fill="#231f20"/>
    <rect x="152" y="31" width="1" height="1" fill="#231f20"/>
    <rect x="0" y="32" width="1" height="1" fill="#231f20"/>
    <rect x="65" y="32" width="2" height="1" fill="#231f20"/>
    <rect x="98" y="32" width="27" height="1" fill="#231f20"/>
    <rect x="130" y="32" width="1" height="1" fill="#231f20"/>
    <rect x="152" y="32" width="1" height="1" fill="#231f20"/>
    <rect x="0" y="33" width="1" height="1" fill="#231f20"/>
    <rect x="65" y="33" width="1" height="1" fill="#231f20"/>
    <rect x="89" y="33" width="9" height="1" fill="#231f20"/>
    <rect x="122" y="33" width="12" height="1" fill="#231f20"/>
    <rect x="152" y="33" width="1" height="1" fill="#231f20"/>
    <rect x="0" y="34" width="1" height="1" fill="#231f20"/>
    <rect x="83" y="34" width="6" height="1" fill="#231f20"/>
    <rect x="134" y="34" width="11" height="1" fill="#231f20"/>
    <rect x="152" y="34" width="1" height="1" fill="#231f20"/>
    <rect x="0" y="35" width="1" height="1" fill="#231f20"/>
    <rect x="78" y="35" width="5" height="1" fill="#231f20"/>
    <rect x="145" y="35" width="8" height="1" fill="#231f20"/>
    <rect x="0" y="36" width="7" height="1" fill="#231f20"/>
    <rect x="69" y="36" width="9" height="1" fill="#231f20"/>
    <rect x="152" y="36" width="1" height="1" fill="#231f20"/>
    <rect x="0" y="37" width="1" height="1" fill="#231f20"/>
    <rect x="7" y="37" width="9" height="1" fill="#231f20"/>
    <rect x="63" y="37" width="6" height="1" fill="#231f20"/>
    <rect x="152" y="37" width="1" height="1" fill="#231f20"/>
    <rect x="0" y="38" width="1" height="1" fill="#231f20"/>
    <rect x="16" y="38" width="12" height="1" fill="#231f20"/>
    <rect x="53" y="38" width="10" height="1" fill="#231f20"/>
    <rect x="152" y="38" width="1" height="1" fill="#231f20"/>
    <rect x="0" y="39" width="1" height="1" fill="#231f20"/>
    <rect x="28" y="39" width="25" height="1" fill="#231f20"/>
    <rect x="152" y="39" width="1" height="1" fill="#231f20"/>
    <rect x="0" y="40" width="153" height="1" fill="#231f20"/>
    <rect x="0" y="41" width="1" height="1" fill="#231f20"/>
    <rect x="152" y="41" width="1" height="1" fill="#231f20"/>
    <rect x="0" y="42" width="1" height="1" fill="#231f20"/>
    <rect x="152" y="42" width="1" height="1" fill="#231f20"/>
    <rect x="0" y="43" width="1" height="1" fill="#231f20"/>
    <rect x="21" y="43" width="9" height="1" fill="#231f20"/>
    <rect x="81" y="43" width="1" height="1" fill="#231f20"/>
    <rect x="91" y="43" width="1" height="1" fill="#231f20"/>
    <rect x="152" y="43" width="1" height="1" fill="#231f20"/>
    <rect x="0" y="44" width="1" height="1" fill="#231f20"/>
    <rect x="21" y="44" width="1" height="1" fill="#231f20"/>
    <rect x="29" y="44" width="1" height="1" fill="#231f20"/>
    <rect x="81" y="44" width="1" height="1" fill="#231f20"/>
    <rect x="91" y="44" width="1" height="1" fill="#231f20"/>
    <rect x="116" y="44" width="1" height="1" fill="#231f20"/>
    <rect x="152" y="44" width="1" height="1" fill="#231f20"/>
    <rect x="0" y="45" width="1" height="1" fill="#231f20"/>
    <rect x="21" y="45" width="1" height="1" fill="#231f20"/>
    <rect x="29" y="45" width="1" height="1" fill="#231f20"/>
    <rect x="52" y="45" width="7" height="1" fill="#231f20"/>
    <rect x="82" y="45" width="1" height="1" fill="#231f20"/>
    <rect x="90" y="45" width="1" height="1" fill="#231f20"/>
    <rect x="116" y="45" width="1" height="1" fill="#231f20"/>
    <rect x="152" y="45" width="1" height="1" fill="#231f20"/>
    <rect x="0" y="46" width="1" height="1" fill="#231f20"/>
    <rect x="21" y="46" width="1" height="1" fill="#231f20"/>
    <rect x="29" y="46" width="1" height="1" fill="#231f20"/>
    <rect x="50" y="46" width="2" height="1" fill="#231f20"/>
    <rect x="59" y="46" width="2" height="1" fill="#231f20"/>
    <rect x="82" y="46" width="1" height="1" fill="#231f20"/>
    <rect x="90" y="46" width="1" height="1" fill="#231f20"/>
    <rect x="116" y="46" width="1" height="1" fill="#231f20"/>
    <rect x="152" y="46" width="1" height="1" fill="#231f20"/>
    <rect x="0" y="47" width="1" height="1" fill="#231f20"/>
    <rect x="21" y="47" width="1" height="1" fill="#231f20"/>
    <rect x="29" y="47" width="1" height="1" fill="#231f20"/>
    <rect x="49" y="47" width="1" height="1" fill="#231f20"/>
    <rect x="61" y="47" width="1" height="1" fill="#231f20"/>
    <rect x="83" y="47" width="1" height="1" fill="#231f20"/>
    <rect x="89" y="47" width="1" height="1" fill="#231f20"/>
    <rect x="116" y="47" width="1" height="1" fill="#231f20"/>
    <rect x="152" y="47" width="1" height="1" fill="#231f20"/>
    <rect x="0" y="48" width="1" height="1" fill="#231f20"/>
    <rect x="21" y="48" width="1" height="1" fill="#231f20"/>
    <rect x="29" y="48" width="1" height="1" fill="#231f20"/>
    <rect x="50" y="48" width="2" height="1" fill="#231f20"/>
    <rect x="59" y="48" width="2" height="1" fill="#231f20"/>
    <rect x="83" y="48" width="1" height="1" fill="#231f20"/>
    <rect x="89" y="48" width="1" height="1" fill="#231f20"/>
    <rect x="112" y="48" width="9" height="1" fill="#231f20"/>
    <rect x="152" y="48" width="1" height="1" fill="#231f20"/>
    <rect x="0" y="49" width="1" height="1" fill="#231f20"/>
    <rect x="21" y="49" width="1" height="1" fill="#231f20"/>
    <rect x="29" y="49" width="1" height="1" fill="#231f20"/>
    <rect x="52" y="49" width="1" height="1" fill="#231f20"/>
    <rect x="58" y="49" width="1" height="1" fill="#231f20"/>
    <rect x="84" y="49" width="1" height="1" fill="#231f20"/>
    <rect x="88" y="49" width="1" height="1" fill="#231f20"/>
    <rect x="116" y="49" width="1" height="1" fill="#231f20"/>
    <rect x="152" y="49" width="1" height="1" fill="#231f20"/>
    <rect x="0" y="50" width="1" height="1" fill="#231f20"/>
    <rect x="21" y="50" width="1" height="1" fill="#231f20"/>
    <rect x="29" y="50" width="1" height="1" fill="#231f20"/>
    <rect x="53" y="50" width="2" height="1" fill="#231f20"/>
    <rect x="56" y="50" width="2" height="1" fill="#231f20"/>
    <rect x="84" y="50" width="1" height="1" fill="#231f20"/>
    <rect x="88" y="50" width="1" height="1" fill="#231f20"/>
    <rect x="116" y="50" width="1" height="1" fill="#231f20"/>
    <rect x="152" y="50" width="1" height="1" fill="#231f20"/>
    <rect x="0" y="51" width="1" height="1" fill="#231f20"/>
    <rect x="21" y="51" width="1" height="1" fill="#231f20"/>
    <rect x="29" y="51" width="1" height="1" fill="#231f20"/>
    <rect x="55" y="51" width="1" height="1" fill="#231f20"/>
    <rect x="85" y="51" width="1" height="1" fill="#231f20"/>
    <rect x="87" y="51" width="1" height="1" fill="#231f20"/>
    <rect x="116" y="51" width="1" height="1" fill="#231f20"/>
    <rect x="152" y="51" width="1" height="1" fill="#231f20"/>
    <rect x="0" y="52" width="1" height="1" fill="#231f20"/>
    <rect x="21" y="52" width="1" height="1" fill="#231f20"/>
    <rect x="29" y="52" width="1" height="1" fill="#231f20"/>
    <rect x="85" y="52" width="1" height="1" fill="#231f20"/>
    <rect x="87" y="52" width="1" height="1" fill="#231f20"/>
    <rect x="93" y="52" width="37" height="1" fill="#231f20"/>
    <rect x="152" y="52" width="1" height="1" fill="#231f20"/>
    <rect x="0" y="53" width="1" height="1" fill="#231f20"/>
    <rect x="21" y="53" width="9" height="1" fill="#231f20"/>
    <rect x="86" y="53" width="7" height="1" fill="#231f20"/>
    <rect x="130" y="53" width="10" height="1" fill="#231f20"/>
    <rect x="152" y="53" width="1" height="1" fill="#231f20"/>
    <rect x="0" y="54" width="1" height="1" fill="#231f20"/>
    <rect x="78" y="54" width="9" height="1" fill="#231f20"/>
    <rect x="140" y="54" width="10" height="1" fill="#231f20"/>
    <rect x="152" y="54" width="1" height="1" fill="#231f20"/>
    <rect x="0" y="55" width="3" height="1" fill="#231f20"/>
    <rect x="74" y="55" width="4" height="1" fill="#231f20"/>
    <rect x="150" y="55" width="3" height="1" fill="#231f20"/>
    <rect x="0" y="56" width="1" height="1" fill="#231f20"/>
    <rect x="3" y="56" width="9" height="1" fill="#231f20"/>
    <rect x="65" y="56" width="9" height="1" fill="#231f20"/>
    <rect x="152" y="56" width="1" height="1" fill="#231f20"/>
    <rect x="0" y="57" width="1" height="1" fill="#231f20"/>
    <rect x="12" y="57" width="9" height="1" fill="#231f20"/>
    <rect x="58" y="57" width="7" height="1" fill="#231f20"/>
    <rect x="152" y="57" width="1" height="1" fill="#231f20"/>
    <rect x="0" y="58" width="1" height="1" fill="#231f20"/>
    <rect x="21" y="58" width="16" height="1" fill="#231f20"/>
    <rect x="44" y="58" width="14" height="1" fill="#231f20"/>
    <rect x="152" y="58" width="1" height="1" fill="#231f20"/>
    <rect x="0" y="59" width="1" height="1" fill="#231f20"/>
    <rect x="37" y="59" width="7" height="1" fill="#231f20"/>
    <rect x="152" y="59" width="1" height="1" fill="#231f20"/>
    <rect x="0" y="60" width="153" height="1" fill="#231f20"/>
  </g>
</svg>