<?xml version="1.0" encoding="UTF-8"?>
<svg xmlns="http://www.w3.org/2000/svg" viewBox="0 0 179 75" width="179" height="75">
  <!-- Auto-converted from legend-880.png -->
  <rect x="0" y="0" width="179" height="75" fill="none"/>
  <g fill="#231f20" stroke="none">
    <rect x="2" y="2" width="174" height="1" fill="#231f20"/>
    <rect x="2" y="3" width="1" height="1" fill="#231f20"/>
    <rect x="175" y="3" width="1" height="1" fill="#231f20"/>
    <rect x="2" y="4" width="1" height="1" fill="#231f20"/>
    <rect x="175" y="4" width="1" height="1" fill="#231f20"/>
    <rect x="2" y="5" width="1" height="1" fill="#231f20"/>
    <rect x="175" y="5" width="1" height="1" fill="#231f20"/>
    <rect x="2" y="6" width="1" height="1" fill="#231f20"/>
    <rect x="175" y="6" width="1" height="1" fill="#231f20"/>
    <rect x="2" y="7" width="1" height="1" fill="#231f20"/>
    <rect x="175" y="7" width="1" height="1" fill="#231f20"/>
    <rect x="2" y="8" width="1" height="1" fill="#231f20"/>
    <rect x="175" y="8" width="1" height="1" fill="#231f20"/>
    <rect x="2" y="9" width="1" height="1" fill="#231f20"/>
    <rect x="175" y="9" width="1" height="1" fill="#231f20"/>
    <rect x="2" y="10" width="1" height="1" fill="#231f20"/>
    <rect x="175" y="10" width="1" height="1" fill="#231f20"/>
    <rect x="2" y="11" width="1" height="1" fill="#231f20"/>
    <rect x="175" y="11" width="1" height="1" fill="#231f20"/>
    <rect x="2" y="12" width="1" height="1" fill="#231f20"/>
    <rect x="175" y="12" width="1" height="1" fill="#231f20"/>
    <rect x="2" y="13" width="1" height="1" fill="#231f20"/>
    <rect x="175" y="13" width="1" height="1" fill="#231f20"/>
    <rect x="2" y="14" width="1" height="1" fill="#231f20"/>
    <rect x="175" y="14" width="1" height="1" fill="#231f20"/>
    <rect x="2" y="15" width="1" height="1" fill="#231f20"/>
    <rect x="175" y="15" width="1" height="1" fill="#231f20"/>
    <rect x="2" y="16" width="1" height="1" fill="#231f20"/>
    <rect x="175" y="16" width="1" height="1" fill="#231f20"/>
    <rect x="2" y="17" width="1" height="1" fill="#231f20"/>
    <rect x="175" y="17" width="1" height="1" fill="#231f20"/>
    <rect x="2" y="18" width="1" height="1" fill="#231f20"/>
    <rect x="175" y="18" width="1" height="1" fill="#231f20"/>
    <rect x="2" y="19" width="1" height="1" fill="#231f20"/>
    <rect x="175" y="19" width="1" height="1" fill="#231f20"/>
    <rect x="2" y="20" width="1" height="1" fill="#231f20"/>
    <rect x="175" y="20" width="1" height="1" fill="#231f20"/>
    <rect x="2" y="21" width="1" height="1" fill="#231f20"/>
    <rect x="175" y="21" width="1" height="1" fill="#231f20"/>
    <rect x="2" y="22" width="1" height="1" fill="#231f20"/>
    <rect x="175" y="22" width="1" height="1" fill="#231f20"/>
    <rect x="2" y="23" width="1" height="1" fill="#231f20"/>
    <rect x="175" y="23" width="1" height="1" fill="#231f20"/>
    <rect x="2" y="24" width="1" height="1" fill="#231f20"/>
    <rect x="175" y="24" width="1" height="1" fill="#231f20"/>
    <rect x="2" y="25" width="1" height="1" fill="#231f20"/>
    <rect x="175" y="25" width="1" height="1" fill="#231f20"/>
    <rect x="2" y="26" width="1" height="1" fill="#231f20"/>
    <rect x="175" y="26" width="1" height="1" fill="#231f20"/>
    <rect x="2" y="27" width="1" height="1" fill="#231f20"/>
    <rect x="84" y="27" width="29" height="1" fill="#231f20"/>
    <rect x="175" y="27" width="1" height="1" fill="#231f20"/>
    <rect x="2" y="28" width="1" height="1" fill="#231f20"/>
    <rect x="77" y="28" width="45" height="1" fill="#231f20"/>
    <rect x="175" y="28" width="1" height="1" fill="#231f20"/>
    <rect x="2" y="29" width="1" height="1" fill="#231f20"/>
    <rect x="72" y="29" width="57" height="1" fill="#231f20"/>
    <rect x="175" y="29" width="1" height="1" fill="#231f20"/>
    <rect x="2" y="30" width="1" height="1" fill="#231f20"/>
    <rect x="69" y="30" width="15" height="1" fill="#231f20"/>
    <rect x="113" y="30" width="21" height="1" fill="#231f20"/>
    <rect x="175" y="30" width="1" height="1" fill="#231f20"/>
    <rect x="2" y="31" width="1" height="1" fill="#231f20"/>
    <rect x="63" y="31" width="14" height="1" fill="#231f20"/>
    <rect x="120" y="31" width="17" height="1" fill="#231f20"/>
    <rect x="175" y="31" width="1" height="1" fill="#231f20"/>
    <rect x="2" y="32" width="1" height="1" fill="#231f20"/>
    <rect x="60" y="32" width="12" height="1" fill="#231f20"/>
    <rect x="129" y="32" width="10" height="1" fill="#231f20"/>
    <rect x="175" y="32" width="1" height="1" fill="#231f20"/>
    <rect x="2" y="33" width="1" height="1" fill="#231f20"/>
    <rect x="57" y="33" width="12" height="1" fill="#231f20"/>
    <rect x="131" y="33" width="10" height="1" fill="#231f20"/>
    <rect x="175" y="33" width="1" height="1" fill="#231f20"/>
    <rect x="2" y="34" width="1" height="1" fill="#231f20"/>
    <rect x="52" y="34" width="11" height="1" fill="#231f20"/>
    <rect x="134" y="34" width="8" height="1" fill="#231f20"/>
    <rect x="175" y="34" width="1" height="1" fill="#231f20"/>
    <rect x="2" y="35" width="1" height="1" fill="#231f20"/>
    <rect x="44" y="35" width="16" height="1" fill="#231f20"/>
    <rect x="137" y="35" width="5" height="1" fill="#231f20"/>
    <rect x="175" y="35" width="1" height="1" fill="#231f20"/>
    <rect x="2" y="36" width="1" height="1" fill="#231f20"/>
    <rect x="40" y="36" width="17" height="1" fill="#231f20"/>
    <rect x="96" y="36" width="3" height="1" fill="#231f20"/>
    <rect x="138" y="36" width="4" height="1" fill="#231f20"/>
    <rect x="175" y="36" width="1" height="1" fill="#231f20"/>
    <rect x="2" y="37" width="1" height="1" fill="#231f20"/>
    <rect x="39" y="37" width="13" height="1" fill="#231f20"/>
    <rect x="96" y="37" width="3" height="1" fill="#231f20"/>
    <rect x="137" y="37" width="5" height="1" fill="#231f20"/>
    <rect x="175" y="37" width="1" height="1" fill="#231f20"/>
    <rect x="2" y="38" width="1" height="1" fill="#231f20"/>
    <rect x="39" y="38" width="16" height="1" fill="#231f20"/>
    <rect x="96" y="38" width="2" height="1" fill="#231f20"/>
    <rect x="135" y="38" width="7" height="1" fill="#231f20"/>
    <rect x="175" y="38" width="1" height="1" fill="#231f20"/>
    <rect x="2" y="39" width="1" height="1" fill="#231f20"/>
    <rect x="44" y="39" width="14" height="1" fill="#231f20"/>
    <rect x="131" y="39" width="10" height="1" fill="#231f20"/>
    <rect x="175" y="39" width="1" height="1" fill="#231f20"/>
    <rect x="2" y="40" width="1" height="1" fill="#231f20"/>
    <rect x="51" y="40" width="13" height="1" fill="#231f20"/>
    <rect x="128" y="40" width="11" height="1" fill="#231f20"/>
    <rect x="175" y="40" width="1" height="1" fill="#231f20"/>
    <rect x="2" y="41" width="1" height="1" fill="#231f20"/>
    <rect x="55" y="41" width="15" height="1" fill="#231f20"/>
    <rect x="123" y="41" width="14" height="1" fill="#231f20"/>
    <rect x="175" y="41" width="1" height="1" fill="#231f20"/>
    <rect x="2" y="42" width="1" height="1" fill="#231f20"/>
    <rect x="58" y="42" width="18" height="1" fill="#231f20"/>
    <rect x="118" y="42" width="15" height="1" fill="#231f20"/>
    <rect x="175" y="42" width="1" height="1" fill="#231f20"/>
    <rect x="2" y="43" width="1" height="1" fill="#231f20"/>
    <rect x="64" y="43" width="18" height="1" fill="#231f20"/>
    <rect x="109" y="43" width="21" height="1" fill="#231f20"/>
    <rect x="175" y="43" width="1" height="1" fill="#231f20"/>
    <rect x="2" y="44" width="1" height="1" fill="#231f20"/>
    <rect x="70" y="44" width="55" height="1" fill="#231f20"/>
    <rect x="175" y="44" width="1" height="1" fill="#231f20"/>
    <rect x="2" y="45" width="1" height="1" fill="#231f20"/>
    <rect x="76" y="45" width="42" height="1" fill="#231f20"/>
    <rect x="175" y="45" width="1" height="1" fill="#231f20"/>
    <rect x="2" y="46" width="1" height="1" fill="#231f20"/>
    <rect x="82" y="46" width="27" height="1" fill="#231f20"/>
    <rect x="175" y="46" width="1" height="1" fill="#231f20"/>
    <rect x="2" y="47" width="1" height="1" fill="#231f20"/>
    <rect x="175" y="47" width="1" height="1" fill="#231f20"/>
    <rect x="2" y="48" width="1" height="1" fill="#231f20"/>
    <rect x="175" y="48" width="1" height="1" fill="#231f20"/>
    <rect x="2" y="49" width="1" height="1" fill="#231f20"/>
    <rect x="175" y="49" width="1" height="1" fill="#231f20"/>
    <rect x="2" y="50" width="1" height="1" fill="#231f20"/>
    <rect x="175" y="50" width="1" height="1" fill="#231f20"/>
    <rect x="2" y="51" width="1" height="1" fill="#231f20"/>
    <rect x="175" y="51" width="1" height="1" fill="#231f20"/>
    <rect x="2" y="52" width="1" height="1" fill="#231f20"/>
    <rect x="175" y="52" width="1" height="1" fill="#231f20"/>
    <rect x="2" y="53" width="1" height="1" fill="#231f20"/>
    <rect x="175" y="53" width="1" height="1" fill="#231f20"/>
    <rect x="2" y="54" width="1" height="1" fill="#231f20"/>
    <rect x="175" y="54" width="1" height="1" fill="#231f20"/>
    <rect x="2" y="55" width="1" height="1" fill="#231f20"/>
    <rect x="175" y="55" width="1" height="1" fill="#231f20"/>
    <rect x="2" y="56" width="1" height="1" fill="#231f20"/>
    <rect x="175" y="56" width="1" height="1" fill="#231f20"/>
    <rect x="2" y="57" width="1" height="1" fill="#231f20"/>
    <rect x="175" y="57" width="1" height="1" fill="#231f20"/>
    <rect x="2" y="58" width="1" height="1" fill="#231f20"/>
    <rect x="175" y="58" width="1" height="1" fill="#231f20"/>
    <rect x="2" y="59" width="1" height="1" fill="#231f20"/>
    <rect x="175" y="59" width="1" height="1" fill="#231f20"/>
    <rect x="2" y="60" width="1" height="1" fill="#231f20"/>
    <rect x="175" y="60" width="1" height="1" fill="#231f20"/>
    <rect x="2" y="61" width="1" height="1" fill="#231f20"/>
    <rect x="175" y="61" width="1" height="1" fill="#231f20"/>
    <rect x="2" y="62" width="1" height="1" fill="#231f20"/>
    <rect x="175" y="62" width="1" height="1" fill="#231f20"/>
    <rect x="2" y="63" width="1" height="1" fill="#231f20"/>
    <rect x="175" y="63" width="1" height="1" fill="#231f20"/>
    <rect x="2" y="64" width="1" height="1" fill="#231f20"/>
    <rect x="175" y="64" width="1" height="1" fill="#231f20"/>
    <rect x="2" y="65" width="1" height="1" fill="#231f20"/>
    <rect x="175" y="65" width="1" height="1" fill="#231f20"/>
    <rect x="2" y="66" width="1" height="1" fill="#231f20"/>
    <rect x="175" y="66" width="1" height="1" fill="#231f20"/>
    <rect x="2" y="67" width="1" height="1" fill="#231f20"/>
    <rect x="175" y="67" width="1" height="1" fill="#231f20"/>
    <rect x="2" y="68" width="1" height="1" fill="#231f20"/>
    <rect x="175" y="68" width="1" height="1" fill="#231f20"/>
    <rect x="2" y="69" width="1" height="1" fill="#231f20"/>
    <rect x="175" y="69" width="1" height="1" fill="#231f20"/>
    <rect x="2" y="70" width="1" height="1" fill="#231f20"/>
    <rect x="175" y="70" width="1" height="1" fill="#231f20"/>
    <rect x="2" y="71" width="174" height="1" fill="#231f20"/>
  </g>
</svg>