<?xml version="1.0" encoding="UTF-8"?>
<svg xmlns="http://www.w3.org/2000/svg" viewBox="0 0 172 69" width="172" height="69">
  <!-- Auto-converted from legend-666.png -->
  <rect x="0" y="0" width="172" height="69" fill="none"/>
  <g fill="#6e2820" stroke="none">
    <rect x="0" y="0" width="172" height="1" fill="#6e2820"/>
    <rect x="0" y="1" width="1" height="1" fill="#6e2820"/>
    <rect x="171" y="1" width="1" height="1" fill="#6e2820"/>
    <rect x="0" y="2" width="1" height="1" fill="#6e2820"/>
    <rect x="171" y="2" width="1" height="1" fill="#6e2820"/>
    <rect x="0" y="3" width="1" height="1" fill="#6e2820"/>
    <rect x="171" y="3" width="1" height="1" fill="#6e2820"/>
    <rect x="0" y="4" width="1" height="1" fill="#6e2820"/>
    <rect x="171" y="4" width="1" height="1" fill="#6e2820"/>
    <rect x="0" y="5" width="1" height="1" fill="#6e2820"/>
    <rect x="171" y="5" width="1" height="1" fill="#6e2820"/>
    <rect x="0" y="6" width="1" height="1" fill="#6e2820"/>
    <rect x="171" y="6" width="1" height="1" fill="#6e2820"/>
    <rect x="0" y="7" width="1" height="1" fill="#6e2820"/>
    <rect x="171" y="7" width="1" height="1" fill="#6e2820"/>
    <rect x="0" y="8" width="1" height="1" fill="#6e2820"/>
    <rect x="171" y="8" width="1" height="1" fill="#6e2820"/>
    <rect x="0" y="9" width="1" height="1" fill="#6e2820"/>
    <rect x="171" y="9" width="1" height="1" fill="#6e2820"/>
    <rect x="0" y="10" width="1" height="1" fill="#6e2820"/>
    <rect x="171" y="10" width="1" height="1" fill="#6e2820"/>
    <rect x="0" y="11" width="1" height="1" fill="#6e2820"/>
    <rect x="171" y="11" width="1" height="1" fill="#6e2820"/>
    <rect x="0" y="12" width="1" height="1" fill="#6e2820"/>
    <rect x="171" y="12" width="1" height="1" fill="#6e2820"/>
    <rect x="0" y="13" width="1" height="1" fill="#6e2820"/>
    <rect x="171" y="13" width="1" height="1" fill="#6e2820"/>
    <rect x="0" y="14" width="1" height="1" fill="#6e2820"/>
    <rect x="171" y="14" width="1" height="1" fill="#6e2820"/>
    <rect x="0" y="15" width="1" height="1" fill="#6e2820"/>
    <rect x="171" y="15" width="1" height="1" fill="#6e2820"/>
    <rect x="0" y="16" width="1" height="1" fill="#6e2820"/>
    <rect x="171" y="16" width="1" height="1" fill="#6e2820"/>
    <rect x="0" y="17" width="1" height="1" fill="#6e2820"/>
    <rect x="171" y="17" width="1" height="1" fill="#6e2820"/>
    <rect x="0" y="18" width="1" height="1" fill="#6e2820"/>
    <rect x="171" y="18" width="1" height="1" fill="#6e2820"/>
    <rect x="0" y="19" width="1" height="1" fill="#6e2820"/>
    <rect x="171" y="19" width="1" height="1" fill="#6e2820"/>
    <rect x="0" y="20" width="1" height="1" fill="#6e2820"/>
    <rect x="171" y="20" width="1" height="1" fill="#6e2820"/>
    <rect x="0" y="21" width="1" height="1" fill="#6e2820"/>
    <rect x="171" y="21" width="1" height="1" fill="#6e2820"/>
    <rect x="0" y="22" width="1" height="1" fill="#6e2820"/>
    <rect x="171" y="22" width="1" height="1" fill="#6e2820"/>
    <rect x="0" y="23" width="1" height="1" fill="#6e2820"/>
    <rect x="171" y="23" width="1" height="1" fill="#6e2820"/>
    <rect x="0" y="24" width="1" height="1" fill="#6e2820"/>
    <rect x="171" y="24" width="1" height="1" fill="#6e2820"/>
    <rect x="0" y="25" width="1" height="1" fill="#6e2820"/>
    <rect x="171" y="25" width="1" height="1" fill="#6e2820"/>
    <rect x="0" y="26" width="1" height="1" fill="#6e2820"/>
    <rect x="171" y="26" width="1" height="1" fill="#6e2820"/>
    <rect x="0" y="27" width="1" height="1" fill="#6e2820"/>
    <rect x="171" y="27" width="1" height="1" fill="#6e2820"/>
    <rect x="0" y="28" width="1" height="1" fill="#6e2820"/>
    <rect x="171" y="28" width="1" height="1" fill="#6e2820"/>
    <rect x="0" y="29" width="1" height="1" fill="#6e2820"/>
    <rect x="171" y="29" width="1" height="1" fill="#6e2820"/>
    <rect x="0" y="30" width="1" height="1" fill="#6e2820"/>
    <rect x="171" y="30" width="1" height="1" fill="#6e2820"/>
    <rect x="0" y="31" width="1" height="1" fill="#6e2820"/>
    <rect x="66" y="31" width="5" height="1" fill="#6e2820"/>
    <rect x="171" y="31" width="1" height="1" fill="#6e2820"/>
    <rect x="0" y="32" width="1" height="1" fill="#6e2820"/>
    <rect x="64" y="32" width="10" height="1" fill="#6e2820"/>
    <rect x="171" y="32" width="1" height="1" fill="#6e2820"/>
    <rect x="0" y="33" width="1" height="1" fill="#6e2820"/>
    <rect x="63" y="33" width="14" height="1" fill="#6e2820"/>
    <rect x="171" y="33" width="1" height="1" fill="#6e2820"/>
    <rect x="0" y="34" width="1" height="1" fill="#6e2820"/>
    <rect x="63" y="34" width="16" height="1" fill="#6e2820"/>
    <rect x="90" y="34" width="3" height="1" fill="#6e2820"/>
    <rect x="170" y="34" width="2" height="1" fill="#6e2820"/>
    <rect x="0" y="35" width="1" height="1" fill="#6e2820"/>
    <rect x="62" y="35" width="4" height="1" fill="#6e2820"/>
    <rect x="72" y="35" width="9" height="1" fill="#6e2820"/>
    <rect x="89" y="35" width="4" height="1" fill="#6e2820"/>
    <rect x="168" y="35" width="4" height="1" fill="#6e2820"/>
    <rect x="0" y="36" width="1" height="1" fill="#6e2820"/>
    <rect x="63" y="36" width="3" height="1" fill="#6e2820"/>
    <rect x="77" y="36" width="6" height="1" fill="#6e2820"/>
    <rect x="88" y="36" width="5" height="1" fill="#6e2820"/>
    <rect x="165" y="36" width="7" height="1" fill="#6e2820"/>
    <rect x="0" y="37" width="1" height="1" fill="#6e2820"/>
    <rect x="78" y="37" width="14" height="1" fill="#6e2820"/>
    <rect x="163" y="37" width="9" height="1" fill="#6e2820"/>
    <rect x="0" y="38" width="1" height="1" fill="#6e2820"/>
    <rect x="79" y="38" width="12" height="1" fill="#6e2820"/>
    <rect x="160" y="38" width="12" height="1" fill="#6e2820"/>
    <rect x="0" y="39" width="1" height="1" fill="#6e2820"/>
    <rect x="81" y="39" width="9" height="1" fill="#6e2820"/>
    <rect x="158" y="39" width="14" height="1" fill="#6e2820"/>
    <rect x="0" y="40" width="1" height="1" fill="#6e2820"/>
    <rect x="85" y="40" width="3" height="1" fill="#6e2820"/>
    <rect x="155" y="40" width="17" height="1" fill="#6e2820"/>
    <rect x="0" y="41" width="1" height="1" fill="#6e2820"/>
    <rect x="153" y="41" width="19" height="1" fill="#6e2820"/>
    <rect x="0" y="42" width="1" height="1" fill="#6e2820"/>
    <rect x="150" y="42" width="22" height="1" fill="#6e2820"/>
    <rect x="0" y="43" width="1" height="1" fill="#6e2820"/>
    <rect x="148" y="43" width="24" height="1" fill="#6e2820"/>
    <rect x="0" y="44" width="1" height="1" fill="#6e2820"/>
    <rect x="145" y="44" width="27" height="1" fill="#6e2820"/>
    <rect x="0" y="45" width="1" height="1" fill="#6e2820"/>
    <rect x="143" y="45" width="29" height="1" fill="#6e2820"/>
    <rect x="0" y="46" width="1" height="1" fill="#6e2820"/>
    <rect x="140" y="46" width="32" height="1" fill="#6e2820"/>
    <rect x="0" y="47" width="1" height="1" fill="#6e2820"/>
    <rect x="138" y="47" width="34" height="1" fill="#6e2820"/>
    <rect x="0" y="48" width="1" height="1" fill="#6e2820"/>
    <rect x="135" y="48" width="37" height="1" fill="#6e2820"/>
    <rect x="0" y="49" width="1" height="1" fill="#6e2820"/>
    <rect x="133" y="49" width="39" height="1" fill="#6e2820"/>
    <rect x="0" y="50" width="1" height="1" fill="#6e2820"/>
    <rect x="130" y="50" width="42" height="1" fill="#6e2820"/>
    <rect x="0" y="51" width="1" height="1" fill="#6e2820"/>
    <rect x="128" y="51" width="44" height="1" fill="#6e2820"/>
    <rect x="0" y="52" width="1" height="1" fill="#6e2820"/>
    <rect x="125" y="52" width="47" height="1" fill="#6e2820"/>
    <rect x="0" y="53" width="1" height="1" fill="#6e2820"/>
    <rect x="123" y="53" width="49" height="1" fill="#6e2820"/>
    <rect x="0" y="54" width="1" height="1" fill="#6e2820"/>
    <rect x="120" y="54" width="52" height="1" fill="#6e2820"/>
    <rect x="0" y="55" width="1" height="1" fill="#6e2820"/>
    <rect x="118" y="55" width="54" height="1" fill="#6e2820"/>
    <rect x="0" y="56" width="1" height="1" fill="#6e2820"/>
    <rect x="115" y="56" width="57" height="1" fill="#6e2820"/>
    <rect x="0" y="57" width="1" height="1" fill="#6e2820"/>
    <rect x="113" y="57" width="59" height="1" fill="#6e2820"/>
    <rect x="0" y="58" width="1" height="1" fill="#6e2820"/>
    <rect x="110" y="58" width="62" height="1" fill="#6e2820"/>
    <rect x="0" y="59" width="1" height="1" fill="#6e2820"/>
    <rect x="108" y="59" width="64" height="1" fill="#6e2820"/>
    <rect x="0" y="60" width="1" height="1" fill="#6e2820"/>
    <rect x="105" y="60" width="67" height="1" fill="#6e2820"/>
    <rect x="0" y="61" width="1" height="1" fill="#6e2820"/>
    <rect x="103" y="61" width="69" height="1" fill="#6e2820"/>
    <rect x="0" y="62" width="1" height="1" fill="#6e2820"/>
    <rect x="100" y="62" width="72" height="1" fill="#6e2820"/>
    <rect x="0" y="63" width="1" height="1" fill="#6e2820"/>
    <rect x="98" y="63" width="74" height="1" fill="#6e2820"/>
    <rect x="0" y="64" width="1" height="1" fill="#6e2820"/>
    <rect x="95" y="64" width="77" height="1" fill="#6e2820"/>
    <rect x="0" y="65" width="1" height="1" fill="#6e2820"/>
    <rect x="93" y="65" width="79" height="1" fill="#6e2820"/>
    <rect x="0" y="66" width="1" height="1" fill="#6e2820"/>
    <rect x="90" y="66" width="82" height="1" fill="#6e2820"/>
    <rect x="0" y="67" width="1" height="1" fill="#6e2820"/>
    <rect x="88" y="67" width="84" height="1" fill="#6e2820"/>
    <rect x="0" y="68" width="172" height="1" fill="#6e2820"/>
  </g>
</svg>