<?xml version="1.0" encoding="UTF-8"?>
<svg xmlns="http://www.w3.org/2000/svg" viewBox="0 0 174 69" width="174" height="69">
  <!-- Auto-converted from legend-2399.png -->
  <rect x="0" y="0" width="174" height="69" fill="none"/>
  <g fill="#231f20" stroke="none">
    <rect x="0" y="0" width="174" height="1" fill="#231f20"/>
    <rect x="0" y="1" width="1" height="1" fill="#231f20"/>
    <rect x="173" y="1" width="1" height="1" fill="#231f20"/>
    <rect x="0" y="2" width="1" height="1" fill="#231f20"/>
    <rect x="173" y="2" width="1" height="1" fill="#231f20"/>
    <rect x="0" y="3" width="1" height="1" fill="#231f20"/>
    <rect x="173" y="3" width="1" height="1" fill="#231f20"/>
    <rect x="0" y="4" width="1" height="1" fill="#231f20"/>
    <rect x="173" y="4" width="1" height="1" fill="#231f20"/>
    <rect x="0" y="5" width="1" height="1" fill="#231f20"/>
    <rect x="111" y="5" width="1" height="1" fill="#231f20"/>
    <rect x="114" y="5" width="1" height="1" fill="#231f20"/>
    <rect x="140" y="5" width="1" height="1" fill="#231f20"/>
    <rect x="142" y="5" width="1" height="1" fill="#231f20"/>
    <rect x="173" y="5" width="1" height="1" fill="#231f20"/>
    <rect x="0" y="6" width="1" height="1" fill="#231f20"/>
    <rect x="78" y="6" width="1" height="1" fill="#231f20"/>
    <rect x="89" y="6" width="1" height="1" fill="#231f20"/>
    <rect x="111" y="6" width="1" height="1" fill="#231f20"/>
    <rect x="114" y="6" width="1" height="1" fill="#231f20"/>
    <rect x="140" y="6" width="1" height="1" fill="#231f20"/>
    <rect x="142" y="6" width="1" height="1" fill="#231f20"/>
    <rect x="173" y="6" width="1" height="1" fill="#231f20"/>
    <rect x="0" y="7" width="1" height="1" fill="#231f20"/>
    <rect x="31" y="7" width="2" height="1" fill="#231f20"/>
    <rect x="53" y="7" width="5" height="1" fill="#231f20"/>
    <rect x="79" y="7" width="1" height="1" fill="#231f20"/>
    <rect x="89" y="7" width="1" height="1" fill="#231f20"/>
    <rect x="110" y="7" width="1" height="1" fill="#231f20"/>
    <rect x="115" y="7" width="1" height="1" fill="#231f20"/>
    <rect x="139" y="7" width="1" height="1" fill="#231f20"/>
    <rect x="143" y="7" width="1" height="1" fill="#231f20"/>
    <rect x="173" y="7" width="1" height="1" fill="#231f20"/>
    <rect x="0" y="8" width="1" height="1" fill="#231f20"/>
    <rect x="27" y="8" width="4" height="1" fill="#231f20"/>
    <rect x="32" y="8" width="1" height="1" fill="#231f20"/>
    <rect x="52" y="8" width="1" height="1" fill="#231f20"/>
    <rect x="57" y="8" width="1" height="1" fill="#231f20"/>
    <rect x="79" y="8" width="1" height="1" fill="#231f20"/>
    <rect x="88" y="8" width="1" height="1" fill="#231f20"/>
    <rect x="110" y="8" width="1" height="1" fill="#231f20"/>
    <rect x="115" y="8" width="1" height="1" fill="#231f20"/>
    <rect x="139" y="8" width="1" height="1" fill="#231f20"/>
    <rect x="143" y="8" width="1" height="1" fill="#231f20"/>
    <rect x="173" y="8" width="1" height="1" fill="#231f20"/>
    <rect x="0" y="9" width="1" height="1" fill="#231f20"/>
    <rect x="23" y="9" width="4" height="1" fill="#231f20"/>
    <rect x="32" y="9" width="1" height="1" fill="#231f20"/>
    <rect x="52" y="9" width="1" height="1" fill="#231f20"/>
    <rect x="57" y="9" width="1" height="1" fill="#231f20"/>
    <rect x="80" y="9" width="1" height="1" fill="#231f20"/>
    <rect x="88" y="9" width="1" height="1" fill="#231f20"/>
    <rect x="110" y="9" width="1" height="1" fill="#231f20"/>
    <rect x="115" y="9" width="1" height="1" fill="#231f20"/>
    <rect x="138" y="9" width="1" height="1" fill="#231f20"/>
    <rect x="144" y="9" width="1" height="1" fill="#231f20"/>
    <rect x="173" y="9" width="1" height="1" fill="#231f20"/>
    <rect x="0" y="10" width="1" height="1" fill="#231f20"/>
    <rect x="19" y="10" width="4" height="1" fill="#231f20"/>
    <rect x="32" y="10" width="1" height="1" fill="#231f20"/>
    <rect x="52" y="10" width="1" height="1" fill="#231f20"/>
    <rect x="80" y="10" width="1" height="1" fill="#231f20"/>
    <rect x="87" y="10" width="1" height="1" fill="#231f20"/>
    <rect x="109" y="10" width="1" height="1" fill="#231f20"/>
    <rect x="116" y="10" width="1" height="1" fill="#231f20"/>
    <rect x="138" y="10" width="1" height="1" fill="#231f20"/>
    <rect x="144" y="10" width="1" height="1" fill="#231f20"/>
    <rect x="173" y="10" width="1" height="1" fill="#231f20"/>
    <rect x="0" y="11" width="1" height="1" fill="#231f20"/>
    <rect x="17" y="11" width="2" height="1" fill="#231f20"/>
    <rect x="32" y="11" width="1" height="1" fill="#231f20"/>
    <rect x="53" y="11" width="1" height="1" fill="#231f20"/>
    <rect x="81" y="11" width="1" height="1" fill="#231f20"/>
    <rect x="87" y="11" width="1" height="1" fill="#231f20"/>
    <rect x="109" y="11" width="1" height="1" fill="#231f20"/>
    <rect x="116" y="11" width="1" height="1" fill="#231f20"/>
    <rect x="137" y="11" width="1" height="1" fill="#231f20"/>
    <rect x="144" y="11" width="1" height="1" fill="#231f20"/>
    <rect x="173" y="11" width="1" height="1" fill="#231f20"/>
    <rect x="0" y="12" width="1" height="1" fill="#231f20"/>
    <rect x="19" y="12" width="4" height="1" fill="#231f20"/>
    <rect x="32" y="12" width="1" height="1" fill="#231f20"/>
    <rect x="54" y="12" width="2" height="1" fill="#231f20"/>
    <rect x="81" y="12" width="1" height="1" fill="#231f20"/>
    <rect x="86" y="12" width="1" height="1" fill="#231f20"/>
    <rect x="109" y="12" width="1" height="1" fill="#231f20"/>
    <rect x="116" y="12" width="1" height="1" fill="#231f20"/>
    <rect x="137" y="12" width="1" height="1" fill="#231f20"/>
    <rect x="145" y="12" width="1" height="1" fill="#231f20"/>
    <rect x="173" y="12" width="1" height="1" fill="#231f20"/>
    <rect x="0" y="13" width="1" height="1" fill="#231f20"/>
    <rect x="23" y="13" width="4" height="1" fill="#231f20"/>
    <rect x="32" y="13" width="1" height="1" fill="#231f20"/>
    <rect x="56" y="13" width="1" height="1" fill="#231f20"/>
    <rect x="82" y="13" width="1" height="1" fill="#231f20"/>
    <rect x="86" y="13" width="1" height="1" fill="#231f20"/>
    <rect x="108" y="13" width="1" height="1" fill="#231f20"/>
    <rect x="117" y="13" width="1" height="1" fill="#231f20"/>
    <rect x="137" y="13" width="1" height="1" fill="#231f20"/>
    <rect x="145" y="13" width="1" height="1" fill="#231f20"/>
    <rect x="173" y="13" width="1" height="1" fill="#231f20"/>
    <rect x="0" y="14" width="1" height="1" fill="#231f20"/>
    <rect x="27" y="14" width="4" height="1" fill="#231f20"/>
    <rect x="32" y="14" width="1" height="1" fill="#231f20"/>
    <rect x="57" y="14" width="1" height="1" fill="#231f20"/>
    <rect x="82" y="14" width="1" height="1" fill="#231f20"/>
    <rect x="85" y="14" width="1" height="1" fill="#231f20"/>
    <rect x="108" y="14" width="1" height="1" fill="#231f20"/>
    <rect x="117" y="14" width="1" height="1" fill="#231f20"/>
    <rect x="136" y="14" width="1" height="1" fill="#231f20"/>
    <rect x="146" y="14" width="1" height="1" fill="#231f20"/>
    <rect x="173" y="14" width="1" height="1" fill="#231f20"/>
    <rect x="0" y="15" width="1" height="1" fill="#231f20"/>
    <rect x="31" y="15" width="2" height="1" fill="#231f20"/>
    <rect x="52" y="15" width="1" height="1" fill="#231f20"/>
    <rect x="57" y="15" width="1" height="1" fill="#231f20"/>
    <rect x="83" y="15" width="1" height="1" fill="#231f20"/>
    <rect x="85" y="15" width="1" height="1" fill="#231f20"/>
    <rect x="108" y="15" width="1" height="1" fill="#231f20"/>
    <rect x="117" y="15" width="1" height="1" fill="#231f20"/>
    <rect x="136" y="15" width="1" height="1" fill="#231f20"/>
    <rect x="146" y="15" width="1" height="1" fill="#231f20"/>
    <rect x="173" y="15" width="1" height="1" fill="#231f20"/>
    <rect x="0" y="16" width="1" height="1" fill="#231f20"/>
    <rect x="52" y="16" width="1" height="1" fill="#231f20"/>
    <rect x="57" y="16" width="1" height="1" fill="#231f20"/>
    <rect x="83" y="16" width="2" height="1" fill="#231f20"/>
    <rect x="107" y="16" width="1" height="1" fill="#231f20"/>
    <rect x="118" y="16" width="1" height="1" fill="#231f20"/>
    <rect x="135" y="16" width="1" height="1" fill="#231f20"/>
    <rect x="147" y="16" width="1" height="1" fill="#231f20"/>
    <rect x="173" y="16" width="1" height="1" fill="#231f20"/>
    <rect x="0" y="17" width="1" height="1" fill="#231f20"/>
    <rect x="52" y="17" width="5" height="1" fill="#231f20"/>
    <rect x="84" y="17" width="1" height="1" fill="#231f20"/>
    <rect x="107" y="17" width="1" height="1" fill="#231f20"/>
    <rect x="118" y="17" width="1" height="1" fill="#231f20"/>
    <rect x="135" y="17" width="1" height="1" fill="#231f20"/>
    <rect x="147" y="17" width="1" height="1" fill="#231f20"/>
    <rect x="173" y="17" width="1" height="1" fill="#231f20"/>
    <rect x="0" y="18" width="1" height="1" fill="#231f20"/>
    <rect x="173" y="18" width="1" height="1" fill="#231f20"/>
    <rect x="0" y="19" width="1" height="1" fill="#231f20"/>
    <rect x="173" y="19" width="1" height="1" fill="#231f20"/>
    <rect x="0" y="20" width="1" height="1" fill="#231f20"/>
    <rect x="173" y="20" width="1" height="1" fill="#231f20"/>
    <rect x="0" y="21" width="1" height="1" fill="#231f20"/>
    <rect x="173" y="21" width="1" height="1" fill="#231f20"/>
    <rect x="0" y="22" width="1" height="1" fill="#231f20"/>
    <rect x="173" y="22" width="1" height="1" fill="#231f20"/>
    <rect x="0" y="23" width="174" height="1" fill="#231f20"/>
    <rect x="0" y="24" width="1" height="1" fill="#231f20"/>
    <rect x="173" y="24" width="1" height="1" fill="#231f20"/>
    <rect x="0" y="25" width="1" height="1" fill="#231f20"/>
    <rect x="173" y="25" width="1" height="1" fill="#231f20"/>
    <rect x="0" y="26" width="1" height="1" fill="#231f20"/>
    <rect x="173" y="26" width="1" height="1" fill="#231f20"/>
    <rect x="0" y="27" width="1" height="1" fill="#231f20"/>
    <rect x="173" y="27" width="1" height="1" fill="#231f20"/>
    <rect x="0" y="28" width="1" height="1" fill="#231f20"/>
    <rect x="31" y="28" width="1" height="1" fill="#231f20"/>
    <rect x="33" y="28" width="1" height="1" fill="#231f20"/>
    <rect x="59" y="28" width="1" height="1" fill="#231f20"/>
    <rect x="62" y="28" width="1" height="1" fill="#231f20"/>
    <rect x="173" y="28" width="1" height="1" fill="#231f20"/>
    <rect x="0" y="29" width="1" height="1" fill="#231f20"/>
    <rect x="31" y="29" width="1" height="1" fill="#231f20"/>
    <rect x="33" y="29" width="1" height="1" fill="#231f20"/>
    <rect x="59" y="29" width="1" height="1" fill="#231f20"/>
    <rect x="62" y="29" width="1" height="1" fill="#231f20"/>
    <rect x="84" y="29" width="1" height="1" fill="#231f20"/>
    <rect x="95" y="29" width="1" height="1" fill="#231f20"/>
    <rect x="173" y="29" width="1" height="1" fill="#231f20"/>
    <rect x="0" y="30" width="1" height="1" fill="#231f20"/>
    <rect x="30" y="30" width="1" height="1" fill="#231f20"/>
    <rect x="34" y="30" width="1" height="1" fill="#231f20"/>
    <rect x="58" y="30" width="1" height="1" fill="#231f20"/>
    <rect x="63" y="30" width="1" height="1" fill="#231f20"/>
    <rect x="84" y="30" width="1" height="1" fill="#231f20"/>
    <rect x="94" y="30" width="1" height="1" fill="#231f20"/>
    <rect x="116" y="30" width="5" height="1" fill="#231f20"/>
    <rect x="155" y="30" width="2" height="1" fill="#231f20"/>
    <rect x="173" y="30" width="1" height="1" fill="#231f20"/>
    <rect x="0" y="31" width="1" height="1" fill="#231f20"/>
    <rect x="30" y="31" width="1" height="1" fill="#231f20"/>
    <rect x="34" y="31" width="1" height="1" fill="#231f20"/>
    <rect x="58" y="31" width="1" height="1" fill="#231f20"/>
    <rect x="63" y="31" width="1" height="1" fill="#231f20"/>
    <rect x="85" y="31" width="1" height="1" fill="#231f20"/>
    <rect x="94" y="31" width="1" height="1" fill="#231f20"/>
    <rect x="115" y="31" width="1" height="1" fill="#231f20"/>
    <rect x="120" y="31" width="1" height="1" fill="#231f20"/>
    <rect x="151" y="31" width="4" height="1" fill="#231f20"/>
    <rect x="156" y="31" width="1" height="1" fill="#231f20"/>
    <rect x="173" y="31" width="1" height="1" fill="#231f20"/>
    <rect x="0" y="32" width="1" height="1" fill="#231f20"/>
    <rect x="29" y="32" width="1" height="1" fill="#231f20"/>
    <rect x="35" y="32" width="1" height="1" fill="#231f20"/>
    <rect x="58" y="32" width="1" height="1" fill="#231f20"/>
    <rect x="63" y="32" width="1" height="1" fill="#231f20"/>
    <rect x="85" y="32" width="1" height="1" fill="#231f20"/>
    <rect x="93" y="32" width="1" height="1" fill="#231f20"/>
    <rect x="115" y="32" width="1" height="1" fill="#231f20"/>
    <rect x="120" y="32" width="1" height="1" fill="#231f20"/>
    <rect x="147" y="32" width="4" height="1" fill="#231f20"/>
    <rect x="156" y="32" width="1" height="1" fill="#231f20"/>
    <rect x="173" y="32" width="1" height="1" fill="#231f20"/>
    <rect x="0" y="33" width="1" height="1" fill="#231f20"/>
    <rect x="29" y="33" width="1" height="1" fill="#231f20"/>
    <rect x="35" y="33" width="1" height="1" fill="#231f20"/>
    <rect x="57" y="33" width="1" height="1" fill="#231f20"/>
    <rect x="64" y="33" width="1" height="1" fill="#231f20"/>
    <rect x="86" y="33" width="1" height="1" fill="#231f20"/>
    <rect x="93" y="33" width="1" height="1" fill="#231f20"/>
    <rect x="115" y="33" width="1" height="1" fill="#231f20"/>
    <rect x="143" y="33" width="4" height="1" fill="#231f20"/>
    <rect x="156" y="33" width="1" height="1" fill="#231f20"/>
    <rect x="173" y="33" width="1" height="1" fill="#231f20"/>
    <rect x="0" y="34" width="1" height="1" fill="#231f20"/>
    <rect x="28" y="34" width="1" height="1" fill="#231f20"/>
    <rect x="35" y="34" width="1" height="1" fill="#231f20"/>
    <rect x="57" y="34" width="1" height="1" fill="#231f20"/>
    <rect x="64" y="34" width="1" height="1" fill="#231f20"/>
    <rect x="86" y="34" width="1" height="1" fill="#231f20"/>
    <rect x="92" y="34" width="1" height="1" fill="#231f20"/>
    <rect x="116" y="34" width="1" height="1" fill="#231f20"/>
    <rect x="141" y="34" width="2" height="1" fill="#231f20"/>
    <rect x="156" y="34" width="1" height="1" fill="#231f20"/>
    <rect x="173" y="34" width="1" height="1" fill="#231f20"/>
    <rect x="0" y="35" width="1" height="1" fill="#231f20"/>
    <rect x="28" y="35" width="1" height="1" fill="#231f20"/>
    <rect x="36" y="35" width="1" height="1" fill="#231f20"/>
    <rect x="57" y="35" width="1" height="1" fill="#231f20"/>
    <rect x="64" y="35" width="1" height="1" fill="#231f20"/>
    <rect x="87" y="35" width="1" height="1" fill="#231f20"/>
    <rect x="92" y="35" width="1" height="1" fill="#231f20"/>
    <rect x="117" y="35" width="2" height="1" fill="#231f20"/>
    <rect x="143" y="35" width="4" height="1" fill="#231f20"/>
    <rect x="156" y="35" width="1" height="1" fill="#231f20"/>
    <rect x="173" y="35" width="1" height="1" fill="#231f20"/>
    <rect x="0" y="36" width="1" height="1" fill="#231f20"/>
    <rect x="28" y="36" width="1" height="1" fill="#231f20"/>
    <rect x="36" y="36" width="1" height="1" fill="#231f20"/>
    <rect x="56" y="36" width="1" height="1" fill="#231f20"/>
    <rect x="65" y="36" width="1" height="1" fill="#231f20"/>
    <rect x="87" y="36" width="1" height="1" fill="#231f20"/>
    <rect x="91" y="36" width="1" height="1" fill="#231f20"/>
    <rect x="119" y="36" width="1" height="1" fill="#231f20"/>
    <rect x="147" y="36" width="4" height="1" fill="#231f20"/>
    <rect x="156" y="36" width="1" height="1" fill="#231f20"/>
    <rect x="173" y="36" width="1" height="1" fill="#231f20"/>
    <rect x="0" y="37" width="1" height="1" fill="#231f20"/>
    <rect x="27" y="37" width="1" height="1" fill="#231f20"/>
    <rect x="37" y="37" width="1" height="1" fill="#231f20"/>
    <rect x="56" y="37" width="1" height="1" fill="#231f20"/>
    <rect x="65" y="37" width="1" height="1" fill="#231f20"/>
    <rect x="88" y="37" width="1" height="1" fill="#231f20"/>
    <rect x="91" y="37" width="1" height="1" fill="#231f20"/>
    <rect x="120" y="37" width="1" height="1" fill="#231f20"/>
    <rect x="151" y="37" width="4" height="1" fill="#231f20"/>
    <rect x="156" y="37" width="1" height="1" fill="#231f20"/>
    <rect x="173" y="37" width="1" height="1" fill="#231f20"/>
    <rect x="0" y="38" width="1" height="1" fill="#231f20"/>
    <rect x="27" y="38" width="1" height="1" fill="#231f20"/>
    <rect x="37" y="38" width="1" height="1" fill="#231f20"/>
    <rect x="56" y="38" width="1" height="1" fill="#231f20"/>
    <rect x="65" y="38" width="1" height="1" fill="#231f20"/>
    <rect x="88" y="38" width="1" height="1" fill="#231f20"/>
    <rect x="90" y="38" width="1" height="1" fill="#231f20"/>
    <rect x="115" y="38" width="1" height="1" fill="#231f20"/>
    <rect x="120" y="38" width="1" height="1" fill="#231f20"/>
    <rect x="155" y="38" width="2" height="1" fill="#231f20"/>
    <rect x="173" y="38" width="1" height="1" fill="#231f20"/>
    <rect x="0" y="39" width="1" height="1" fill="#231f20"/>
    <rect x="26" y="39" width="1" height="1" fill="#231f20"/>
    <rect x="38" y="39" width="1" height="1" fill="#231f20"/>
    <rect x="55" y="39" width="1" height="1" fill="#231f20"/>
    <rect x="66" y="39" width="1" height="1" fill="#231f20"/>
    <rect x="89" y="39" width="2" height="1" fill="#231f20"/>
    <rect x="115" y="39" width="1" height="1" fill="#231f20"/>
    <rect x="120" y="39" width="1" height="1" fill="#231f20"/>
    <rect x="173" y="39" width="1" height="1" fill="#231f20"/>
    <rect x="0" y="40" width="1" height="1" fill="#231f20"/>
    <rect x="26" y="40" width="1" height="1" fill="#231f20"/>
    <rect x="38" y="40" width="1" height="1" fill="#231f20"/>
    <rect x="55" y="40" width="1" height="1" fill="#231f20"/>
    <rect x="66" y="40" width="1" height="1" fill="#231f20"/>
    <rect x="89" y="40" width="1" height="1" fill="#231f20"/>
    <rect x="115" y="40" width="5" height="1" fill="#231f20"/>
    <rect x="173" y="40" width="1" height="1" fill="#231f20"/>
    <rect x="0" y="41" width="1" height="1" fill="#231f20"/>
    <rect x="173" y="41" width="1" height="1" fill="#231f20"/>
    <rect x="0" y="42" width="1" height="1" fill="#231f20"/>
    <rect x="173" y="42" width="1" height="1" fill="#231f20"/>
    <rect x="0" y="43" width="1" height="1" fill="#231f20"/>
    <rect x="173" y="43" width="1" height="1" fill="#231f20"/>
    <rect x="0" y="44" width="1" height="1" fill="#231f20"/>
    <rect x="173" y="44" width="1" height="1" fill="#231f20"/>
    <rect x="0" y="45" width="174" height="1" fill="#231f20"/>
    <rect x="0" y="46" width="1" height="1" fill="#231f20"/>
    <rect x="173" y="46" width="1" height="1" fill="#231f20"/>
    <rect x="0" y="47" width="1" height="1" fill="#231f20"/>
    <rect x="173" y="47" width="1" height="1" fill="#231f20"/>
    <rect x="0" y="48" width="1" height="1" fill="#231f20"/>
    <rect x="173" y="48" width="1" height="1" fill="#231f20"/>
    <rect x="0" y="49" width="1" height="1" fill="#231f20"/>
    <rect x="173" y="49" width="1" height="1" fill="#231f20"/>
    <rect x="0" y="50" width="1" height="1" fill="#231f20"/>
    <rect x="173" y="50" width="1" height="1" fill="#231f20"/>
    <rect x="0" y="51" width="1" height="1" fill="#231f20"/>
    <rect x="78" y="51" width="1" height="1" fill="#231f20"/>
    <rect x="89" y="51" width="1" height="1" fill="#231f20"/>
    <rect x="111" y="51" width="1" height="1" fill="#231f20"/>
    <rect x="114" y="51" width="1" height="1" fill="#231f20"/>
    <rect x="140" y="51" width="1" height="1" fill="#231f20"/>
    <rect x="142" y="51" width="1" height="1" fill="#231f20"/>
    <rect x="173" y="51" width="1" height="1" fill="#231f20"/>
    <rect x="0" y="52" width="1" height="1" fill="#231f20"/>
    <rect x="79" y="52" width="1" height="1" fill="#231f20"/>
    <rect x="89" y="52" width="1" height="1" fill="#231f20"/>
    <rect x="111" y="52" width="1" height="1" fill="#231f20"/>
    <rect x="114" y="52" width="1" height="1" fill="#231f20"/>
    <rect x="140" y="52" width="1" height="1" fill="#231f20"/>
    <rect x="142" y="52" width="1" height="1" fill="#231f20"/>
    <rect x="173" y="52" width="1" height="1" fill="#231f20"/>
    <rect x="0" y="53" width="1" height="1" fill="#231f20"/>
    <rect x="31" y="53" width="2" height="1" fill="#231f20"/>
    <rect x="53" y="53" width="5" height="1" fill="#231f20"/>
    <rect x="79" y="53" width="1" height="1" fill="#231f20"/>
    <rect x="88" y="53" width="1" height="1" fill="#231f20"/>
    <rect x="110" y="53" width="1" height="1" fill="#231f20"/>
    <rect x="115" y="53" width="1" height="1" fill="#231f20"/>
    <rect x="139" y="53" width="1" height="1" fill="#231f20"/>
    <rect x="143" y="53" width="1" height="1" fill="#231f20"/>
    <rect x="173" y="53" width="1" height="1" fill="#231f20"/>
    <rect x="0" y="54" width="1" height="1" fill="#231f20"/>
    <rect x="27" y="54" width="4" height="1" fill="#231f20"/>
    <rect x="32" y="54" width="1" height="1" fill="#231f20"/>
    <rect x="52" y="54" width="1" height="1" fill="#231f20"/>
    <rect x="57" y="54" width="1" height="1" fill="#231f20"/>
    <rect x="80" y="54" width="1" height="1" fill="#231f20"/>
    <rect x="88" y="54" width="1" height="1" fill="#231f20"/>
    <rect x="110" y="54" width="1" height="1" fill="#231f20"/>
    <rect x="115" y="54" width="1" height="1" fill="#231f20"/>
    <rect x="139" y="54" width="1" height="1" fill="#231f20"/>
    <rect x="143" y="54" width="1" height="1" fill="#231f20"/>
    <rect x="173" y="54" width="1" height="1" fill="#231f20"/>
    <rect x="0" y="55" width="1" height="1" fill="#231f20"/>
    <rect x="23" y="55" width="4" height="1" fill="#231f20"/>
    <rect x="32" y="55" width="1" height="1" fill="#231f20"/>
    <rect x="52" y="55" width="1" height="1" fill="#231f20"/>
    <rect x="57" y="55" width="1" height="1" fill="#231f20"/>
    <rect x="80" y="55" width="1" height="1" fill="#231f20"/>
    <rect x="87" y="55" width="1" height="1" fill="#231f20"/>
    <rect x="110" y="55" width="1" height="1" fill="#231f20"/>
    <rect x="115" y="55" width="1" height="1" fill="#231f20"/>
    <rect x="138" y="55" width="1" height="1" fill="#231f20"/>
    <rect x="144" y="55" width="1" height="1" fill="#231f20"/>
    <rect x="173" y="55" width="1" height="1" fill="#231f20"/>
    <rect x="0" y="56" width="1" height="1" fill="#231f20"/>
    <rect x="19" y="56" width="4" height="1" fill="#231f20"/>
    <rect x="32" y="56" width="1" height="1" fill="#231f20"/>
    <rect x="52" y="56" width="1" height="1" fill="#231f20"/>
    <rect x="81" y="56" width="1" height="1" fill="#231f20"/>
    <rect x="87" y="56" width="1" height="1" fill="#231f20"/>
    <rect x="109" y="56" width="1" height="1" fill="#231f20"/>
    <rect x="116" y="56" width="1" height="1" fill="#231f20"/>
    <rect x="138" y="56" width="1" height="1" fill="#231f20"/>
    <rect x="144" y="56" width="1" height="1" fill="#231f20"/>
    <rect x="173" y="56" width="1" height="1" fill="#231f20"/>
    <rect x="0" y="57" width="1" height="1" fill="#231f20"/>
    <rect x="17" y="57" width="2" height="1" fill="#231f20"/>
    <rect x="32" y="57" width="1" height="1" fill="#231f20"/>
    <rect x="53" y="57" width="1" height="1" fill="#231f20"/>
    <rect x="81" y="57" width="1" height="1" fill="#231f20"/>
    <rect x="86" y="57" width="1" height="1" fill="#231f20"/>
    <rect x="109" y="57" width="1" height="1" fill="#231f20"/>
    <rect x="116" y="57" width="1" height="1" fill="#231f20"/>
    <rect x="137" y="57" width="1" height="1" fill="#231f20"/>
    <rect x="144" y="57" width="1" height="1" fill="#231f20"/>
    <rect x="173" y="57" width="1" height="1" fill="#231f20"/>
    <rect x="0" y="58" width="1" height="1" fill="#231f20"/>
    <rect x="19" y="58" width="4" height="1" fill="#231f20"/>
    <rect x="32" y="58" width="1" height="1" fill="#231f20"/>
    <rect x="54" y="58" width="2" height="1" fill="#231f20"/>
    <rect x="82" y="58" width="1" height="1" fill="#231f20"/>
    <rect x="86" y="58" width="1" height="1" fill="#231f20"/>
    <rect x="109" y="58" width="1" height="1" fill="#231f20"/>
    <rect x="116" y="58" width="1" height="1" fill="#231f20"/>
    <rect x="137" y="58" width="1" height="1" fill="#231f20"/>
    <rect x="145" y="58" width="1" height="1" fill="#231f20"/>
    <rect x="173" y="58" width="1" height="1" fill="#231f20"/>
    <rect x="0" y="59" width="1" height="1" fill="#231f20"/>
    <rect x="23" y="59" width="4" height="1" fill="#231f20"/>
    <rect x="32" y="59" width="1" height="1" fill="#231f20"/>
    <rect x="56" y="59" width="1" height="1" fill="#231f20"/>
    <rect x="82" y="59" width="1" height="1" fill="#231f20"/>
    <rect x="86" y="59" width="1" height="1" fill="#231f20"/>
    <rect x="108" y="59" width="1" height="1" fill="#231f20"/>
    <rect x="117" y="59" width="1" height="1" fill="#231f20"/>
    <rect x="137" y="59" width="1" height="1" fill="#231f20"/>
    <rect x="145" y="59" width="1" height="1" fill="#231f20"/>
    <rect x="173" y="59" width="1" height="1" fill="#231f20"/>
    <rect x="0" y="60" width="1" height="1" fill="#231f20"/>
    <rect x="27" y="60" width="4" height="1" fill="#231f20"/>
    <rect x="32" y="60" width="1" height="1" fill="#231f20"/>
    <rect x="57" y="60" width="1" height="1" fill="#231f20"/>
    <rect x="83" y="60" width="1" height="1" fill="#231f20"/>
    <rect x="85" y="60" width="1" height="1" fill="#231f20"/>
    <rect x="108" y="60" width="1" height="1" fill="#231f20"/>
    <rect x="117" y="60" width="1" height="1" fill="#231f20"/>
    <rect x="136" y="60" width="1" height="1" fill="#231f20"/>
    <rect x="146" y="60" width="1" height="1" fill="#231f20"/>
    <rect x="173" y="60" width="1" height="1" fill="#231f20"/>
    <rect x="0" y="61" width="1" height="1" fill="#231f20"/>
    <rect x="31" y="61" width="2" height="1" fill="#231f20"/>
    <rect x="52" y="61" width="1" height="1" fill="#231f20"/>
    <rect x="57" y="61" width="1" height="1" fill="#231f20"/>
    <rect x="83" y="61" width="1" height="1" fill="#231f20"/>
    <rect x="85" y="61" width="1" height="1" fill="#231f20"/>
    <rect x="108" y="61" width="1" height="1" fill="#231f20"/>
    <rect x="117" y="61" width="1" height="1" fill="#231f20"/>
    <rect x="136" y="61" width="1" height="1" fill="#231f20"/>
    <rect x="146" y="61" width="1" height="1" fill="#231f20"/>
    <rect x="173" y="61" width="1" height="1" fill="#231f20"/>
    <rect x="0" y="62" width="1" height="1" fill="#231f20"/>
    <rect x="52" y="62" width="1" height="1" fill="#231f20"/>
    <rect x="57" y="62" width="1" height="1" fill="#231f20"/>
    <rect x="84" y="62" width="1" height="1" fill="#231f20"/>
    <rect x="107" y="62" width="1" height="1" fill="#231f20"/>
    <rect x="118" y="62" width="1" height="1" fill="#231f20"/>
    <rect x="135" y="62" width="1" height="1" fill="#231f20"/>
    <rect x="147" y="62" width="1" height="1" fill="#231f20"/>
    <rect x="173" y="62" width="1" height="1" fill="#231f20"/>
    <rect x="0" y="63" width="1" height="1" fill="#231f20"/>
    <rect x="52" y="63" width="5" height="1" fill="#231f20"/>
    <rect x="84" y="63" width="1" height="1" fill="#231f20"/>
    <rect x="107" y="63" width="1" height="1" fill="#231f20"/>
    <rect x="118" y="63" width="1" height="1" fill="#231f20"/>
    <rect x="135" y="63" width="1" height="1" fill="#231f20"/>
    <rect x="147" y="63" width="1" height="1" fill="#231f20"/>
    <rect x="173" y="63" width="1" height="1" fill="#231f20"/>
    <rect x="0" y="64" width="1" height="1" fill="#231f20"/>
    <rect x="173" y="64" width="1" height="1" fill="#231f20"/>
    <rect x="0" y="65" width="1" height="1" fill="#231f20"/>
    <rect x="173" y="65" width="1" height="1" fill="#231f20"/>
    <rect x="0" y="66" width="1" height="1" fill="#231f20"/>
    <rect x="173" y="66" width="1" height="1" fill="#231f20"/>
    <rect x="0" y="67" width="1" height="1" fill="#231f20"/>
    <rect x="173" y="67" width="1" height="1" fill="#231f20"/>
    <rect x="0" y="68" width="174" height="1" fill="#231f20"/>
  </g>
</svg>