<?xml version="1.0" encoding="UTF-8"?>
<svg xmlns="http://www.w3.org/2000/svg" viewBox="0 0 71 71" width="71" height="71">
  <!-- Auto-converted from legend-1945.png -->
  <rect x="0" y="0" width="71" height="71" fill="none"/>
  <g fill="#231f20" stroke="none">
    <rect x="0" y="0" width="71" height="1" fill="#231f20"/>
    <rect x="0" y="1" width="1" height="1" fill="#231f20"/>
    <rect x="70" y="1" width="1" height="1" fill="#231f20"/>
    <rect x="0" y="2" width="1" height="1" fill="#231f20"/>
    <rect x="70" y="2" width="1" height="1" fill="#231f20"/>
    <rect x="0" y="3" width="1" height="1" fill="#231f20"/>
    <rect x="70" y="3" width="1" height="1" fill="#231f20"/>
    <rect x="0" y="4" width="1" height="1" fill="#231f20"/>
    <rect x="70" y="4" width="1" height="1" fill="#231f20"/>
    <rect x="0" y="5" width="1" height="1" fill="#231f20"/>
    <rect x="70" y="5" width="1" height="1" fill="#231f20"/>
    <rect x="0" y="6" width="1" height="1" fill="#231f20"/>
    <rect x="70" y="6" width="1" height="1" fill="#231f20"/>
    <rect x="0" y="7" width="1" height="1" fill="#231f20"/>
    <rect x="70" y="7" width="1" height="1" fill="#231f20"/>
    <rect x="0" y="8" width="1" height="1" fill="#231f20"/>
    <rect x="70" y="8" width="1" height="1" fill="#231f20"/>
    <rect x="0" y="9" width="1" height="1" fill="#231f20"/>
    <rect x="70" y="9" width="1" height="1" fill="#231f20"/>
    <rect x="0" y="10" width="1" height="1" fill="#231f20"/>
    <rect x="70" y="10" width="1" height="1" fill="#231f20"/>
    <rect x="0" y="11" width="1" height="1" fill="#231f20"/>
    <rect x="70" y="11" width="1" height="1" fill="#231f20"/>
    <rect x="0" y="12" width="1" height="1" fill="#231f20"/>
    <rect x="70" y="12" width="1" height="1" fill="#231f20"/>
    <rect x="0" y="13" width="1" height="1" fill="#231f20"/>
    <rect x="10" y="13" width="50" height="1" fill="#231f20"/>
    <rect x="70" y="13" width="1" height="1" fill="#231f20"/>
    <rect x="0" y="14" width="1" height="1" fill="#231f20"/>
    <rect x="9" y="14" width="52" height="1" fill="#231f20"/>
    <rect x="70" y="14" width="1" height="1" fill="#231f20"/>
    <rect x="0" y="15" width="1" height="1" fill="#231f20"/>
    <rect x="9" y="15" width="52" height="1" fill="#231f20"/>
    <rect x="70" y="15" width="1" height="1" fill="#231f20"/>
    <rect x="0" y="16" width="1" height="1" fill="#231f20"/>
    <rect x="9" y="16" width="3" height="1" fill="#231f20"/>
    <rect x="58" y="16" width="3" height="1" fill="#231f20"/>
    <rect x="70" y="16" width="1" height="1" fill="#231f20"/>
    <rect x="0" y="17" width="1" height="1" fill="#231f20"/>
    <rect x="9" y="17" width="3" height="1" fill="#231f20"/>
    <rect x="58" y="17" width="3" height="1" fill="#231f20"/>
    <rect x="70" y="17" width="1" height="1" fill="#231f20"/>
    <rect x="0" y="18" width="1" height="1" fill="#231f20"/>
    <rect x="9" y="18" width="3" height="1" fill="#231f20"/>
    <rect x="58" y="18" width="3" height="1" fill="#231f20"/>
    <rect x="70" y="18" width="1" height="1" fill="#231f20"/>
    <rect x="0" y="19" width="1" height="1" fill="#231f20"/>
    <rect x="9" y="19" width="3" height="1" fill="#231f20"/>
    <rect x="58" y="19" width="3" height="1" fill="#231f20"/>
    <rect x="70" y="19" width="1" height="1" fill="#231f20"/>
    <rect x="0" y="20" width="1" height="1" fill="#231f20"/>
    <rect x="9" y="20" width="3" height="1" fill="#231f20"/>
    <rect x="58" y="20" width="3" height="1" fill="#231f20"/>
    <rect x="70" y="20" width="1" height="1" fill="#231f20"/>
    <rect x="0" y="21" width="1" height="1" fill="#231f20"/>
    <rect x="9" y="21" width="3" height="1" fill="#231f20"/>
    <rect x="58" y="21" width="3" height="1" fill="#231f20"/>
    <rect x="70" y="21" width="1" height="1" fill="#231f20"/>
    <rect x="0" y="22" width="1" height="1" fill="#231f20"/>
    <rect x="9" y="22" width="3" height="1" fill="#231f20"/>
    <rect x="58" y="22" width="3" height="1" fill="#231f20"/>
    <rect x="70" y="22" width="1" height="1" fill="#231f20"/>
    <rect x="0" y="23" width="1" height="1" fill="#231f20"/>
    <rect x="9" y="23" width="3" height="1" fill="#231f20"/>
    <rect x="58" y="23" width="3" height="1" fill="#231f20"/>
    <rect x="70" y="23" width="1" height="1" fill="#231f20"/>
    <rect x="0" y="24" width="1" height="1" fill="#231f20"/>
    <rect x="9" y="24" width="3" height="1" fill="#231f20"/>
    <rect x="58" y="24" width="3" height="1" fill="#231f20"/>
    <rect x="70" y="24" width="1" height="1" fill="#231f20"/>
    <rect x="0" y="25" width="1" height="1" fill="#231f20"/>
    <rect x="9" y="25" width="3" height="1" fill="#231f20"/>
    <rect x="58" y="25" width="3" height="1" fill="#231f20"/>
    <rect x="70" y="25" width="1" height="1" fill="#231f20"/>
    <rect x="0" y="26" width="1" height="1" fill="#231f20"/>
    <rect x="9" y="26" width="3" height="1" fill="#231f20"/>
    <rect x="58" y="26" width="3" height="1" fill="#231f20"/>
    <rect x="70" y="26" width="1" height="1" fill="#231f20"/>
    <rect x="0" y="27" width="1" height="1" fill="#231f20"/>
    <rect x="9" y="27" width="3" height="1" fill="#231f20"/>
    <rect x="58" y="27" width="3" height="1" fill="#231f20"/>
    <rect x="70" y="27" width="1" height="1" fill="#231f20"/>
    <rect x="0" y="28" width="1" height="1" fill="#231f20"/>
    <rect x="9" y="28" width="3" height="1" fill="#231f20"/>
    <rect x="58" y="28" width="3" height="1" fill="#231f20"/>
    <rect x="70" y="28" width="1" height="1" fill="#231f20"/>
    <rect x="0" y="29" width="1" height="1" fill="#231f20"/>
    <rect x="9" y="29" width="3" height="1" fill="#231f20"/>
    <rect x="58" y="29" width="3" height="1" fill="#231f20"/>
    <rect x="70" y="29" width="1" height="1" fill="#231f20"/>
    <rect x="0" y="30" width="1" height="1" fill="#231f20"/>
    <rect x="9" y="30" width="3" height="1" fill="#231f20"/>
    <rect x="58" y="30" width="3" height="1" fill="#231f20"/>
    <rect x="70" y="30" width="1" height="1" fill="#231f20"/>
    <rect x="0" y="31" width="1" height="1" fill="#231f20"/>
    <rect x="9" y="31" width="3" height="1" fill="#231f20"/>
    <rect x="58" y="31" width="3" height="1" fill="#231f20"/>
    <rect x="70" y="31" width="1" height="1" fill="#231f20"/>
    <rect x="0" y="32" width="1" height="1" fill="#231f20"/>
    <rect x="9" y="32" width="3" height="1" fill="#231f20"/>
    <rect x="58" y="32" width="3" height="1" fill="#231f20"/>
    <rect x="70" y="32" width="1" height="1" fill="#231f20"/>
    <rect x="0" y="33" width="1" height="1" fill="#231f20"/>
    <rect x="9" y="33" width="3" height="1" fill="#231f20"/>
    <rect x="58" y="33" width="3" height="1" fill="#231f20"/>
    <rect x="70" y="33" width="1" height="1" fill="#231f20"/>
    <rect x="0" y="34" width="1" height="1" fill="#231f20"/>
    <rect x="9" y="34" width="3" height="1" fill="#231f20"/>
    <rect x="58" y="34" width="3" height="1" fill="#231f20"/>
    <rect x="70" y="34" width="1" height="1" fill="#231f20"/>
    <rect x="0" y="35" width="1" height="1" fill="#231f20"/>
    <rect x="9" y="35" width="3" height="1" fill="#231f20"/>
    <rect x="58" y="35" width="3" height="1" fill="#231f20"/>
    <rect x="70" y="35" width="1" height="1" fill="#231f20"/>
    <rect x="0" y="36" width="1" height="1" fill="#231f20"/>
    <rect x="9" y="36" width="3" height="1" fill="#231f20"/>
    <rect x="58" y="36" width="3" height="1" fill="#231f20"/>
    <rect x="70" y="36" width="1" height="1" fill="#231f20"/>
    <rect x="0" y="37" width="1" height="1" fill="#231f20"/>
    <rect x="9" y="37" width="3" height="1" fill="#231f20"/>
    <rect x="58" y="37" width="3" height="1" fill="#231f20"/>
    <rect x="70" y="37" width="1" height="1" fill="#231f20"/>
    <rect x="0" y="38" width="1" height="1" fill="#231f20"/>
    <rect x="9" y="38" width="3" height="1" fill="#231f20"/>
    <rect x="58" y="38" width="3" height="1" fill="#231f20"/>
    <rect x="70" y="38" width="1" height="1" fill="#231f20"/>
    <rect x="0" y="39" width="1" height="1" fill="#231f20"/>
    <rect x="9" y="39" width="3" height="1" fill="#231f20"/>
    <rect x="58" y="39" width="3" height="1" fill="#231f20"/>
    <rect x="70" y="39" width="1" height="1" fill="#231f20"/>
    <rect x="0" y="40" width="1" height="1" fill="#231f20"/>
    <rect x="9" y="40" width="3" height="1" fill="#231f20"/>
    <rect x="58" y="40" width="3" height="1" fill="#231f20"/>
    <rect x="70" y="40" width="1" height="1" fill="#231f20"/>
    <rect x="0" y="41" width="1" height="1" fill="#231f20"/>
    <rect x="9" y="41" width="3" height="1" fill="#231f20"/>
    <rect x="58" y="41" width="3" height="1" fill="#231f20"/>
    <rect x="70" y="41" width="1" height="1" fill="#231f20"/>
    <rect x="0" y="42" width="1" height="1" fill="#231f20"/>
    <rect x="9" y="42" width="3" height="1" fill="#231f20"/>
    <rect x="58" y="42" width="3" height="1" fill="#231f20"/>
    <rect x="70" y="42" width="1" height="1" fill="#231f20"/>
    <rect x="0" y="43" width="1" height="1" fill="#231f20"/>
    <rect x="9" y="43" width="3" height="1" fill="#231f20"/>
    <rect x="58" y="43" width="3" height="1" fill="#231f20"/>
    <rect x="70" y="43" width="1" height="1" fill="#231f20"/>
    <rect x="0" y="44" width="1" height="1" fill="#231f20"/>
    <rect x="9" y="44" width="3" height="1" fill="#231f20"/>
    <rect x="58" y="44" width="3" height="1" fill="#231f20"/>
    <rect x="70" y="44" width="1" height="1" fill="#231f20"/>
    <rect x="0" y="45" width="1" height="1" fill="#231f20"/>
    <rect x="9" y="45" width="3" height="1" fill="#231f20"/>
    <rect x="58" y="45" width="3" height="1" fill="#231f20"/>
    <rect x="70" y="45" width="1" height="1" fill="#231f20"/>
    <rect x="0" y="46" width="1" height="1" fill="#231f20"/>
    <rect x="9" y="46" width="3" height="1" fill="#231f20"/>
    <rect x="58" y="46" width="3" height="1" fill="#231f20"/>
    <rect x="70" y="46" width="1" height="1" fill="#231f20"/>
    <rect x="0" y="47" width="1" height="1" fill="#231f20"/>
    <rect x="9" y="47" width="3" height="1" fill="#231f20"/>
    <rect x="58" y="47" width="3" height="1" fill="#231f20"/>
    <rect x="70" y="47" width="1" height="1" fill="#231f20"/>
    <rect x="0" y="48" width="1" height="1" fill="#231f20"/>
    <rect x="9" y="48" width="3" height="1" fill="#231f20"/>
    <rect x="58" y="48" width="3" height="1" fill="#231f20"/>
    <rect x="70" y="48" width="1" height="1" fill="#231f20"/>
    <rect x="0" y="49" width="1" height="1" fill="#231f20"/>
    <rect x="9" y="49" width="3" height="1" fill="#231f20"/>
    <rect x="58" y="49" width="3" height="1" fill="#231f20"/>
    <rect x="70" y="49" width="1" height="1" fill="#231f20"/>
    <rect x="0" y="50" width="1" height="1" fill="#231f20"/>
    <rect x="9" y="50" width="3" height="1" fill="#231f20"/>
    <rect x="58" y="50" width="3" height="1" fill="#231f20"/>
    <rect x="70" y="50" width="1" height="1" fill="#231f20"/>
    <rect x="0" y="51" width="1" height="1" fill="#231f20"/>
    <rect x="9" y="51" width="3" height="1" fill="#231f20"/>
    <rect x="58" y="51" width="3" height="1" fill="#231f20"/>
    <rect x="70" y="51" width="1" height="1" fill="#231f20"/>
    <rect x="0" y="52" width="1" height="1" fill="#231f20"/>
    <rect x="9" y="52" width="3" height="1" fill="#231f20"/>
    <rect x="58" y="52" width="3" height="1" fill="#231f20"/>
    <rect x="70" y="52" width="1" height="1" fill="#231f20"/>
    <rect x="0" y="53" width="1" height="1" fill="#231f20"/>
    <rect x="9" y="53" width="3" height="1" fill="#231f20"/>
    <rect x="58" y="53" width="3" height="1" fill="#231f20"/>
    <rect x="70" y="53" width="1" height="1" fill="#231f20"/>
    <rect x="0" y="54" width="1" height="1" fill="#231f20"/>
    <rect x="9" y="54" width="3" height="1" fill="#231f20"/>
    <rect x="58" y="54" width="3" height="1" fill="#231f20"/>
    <rect x="70" y="54" width="1" height="1" fill="#231f20"/>
    <rect x="0" y="55" width="1" height="1" fill="#231f20"/>
    <rect x="9" y="55" width="52" height="1" fill="#231f20"/>
    <rect x="70" y="55" width="1" height="1" fill="#231f20"/>
    <rect x="0" y="56" width="1" height="1" fill="#231f20"/>
    <rect x="9" y="56" width="52" height="1" fill="#231f20"/>
    <rect x="70" y="56" width="1" height="1" fill="#231f20"/>
    <rect x="0" y="57" width="1" height="1" fill="#231f20"/>
    <rect x="10" y="57" width="50" height="1" fill="#231f20"/>
    <rect x="70" y="57" width="1" height="1" fill="#231f20"/>
    <rect x="0" y="58" width="1" height="1" fill="#231f20"/>
    <rect x="70" y="58" width="1" height="1" fill="#231f20"/>
    <rect x="0" y="59" width="1" height="1" fill="#231f20"/>
    <rect x="70" y="59" width="1" height="1" fill="#231f20"/>
    <rect x="0" y="60" width="1" height="1" fill="#231f20"/>
    <rect x="70" y="60" width="1" height="1" fill="#231f20"/>
    <rect x="0" y="61" width="1" height="1" fill="#231f20"/>
    <rect x="70" y="61" width="1" height="1" fill="#231f20"/>
    <rect x="0" y="62" width="1" height="1" fill="#231f20"/>
    <rect x="70" y="62" width="1" height="1" fill="#231f20"/>
    <rect x="0" y="63" width="1" height="1" fill="#231f20"/>
    <rect x="70" y="63" width="1" height="1" fill="#231f20"/>
    <rect x="0" y="64" width="1" height="1" fill="#231f20"/>
    <rect x="70" y="64" width="1" height="1" fill="#231f20"/>
    <rect x="0" y="65" width="1" height="1" fill="#231f20"/>
    <rect x="70" y="65" width="1" height="1" fill="#231f20"/>
    <rect x="0" y="66" width="1" height="1" fill="#231f20"/>
    <rect x="70" y="66" width="1" height="1" fill="#231f20"/>
    <rect x="0" y="67" width="1" height="1" fill="#231f20"/>
    <rect x="70" y="67" width="1" height="1" fill="#231f20"/>
    <rect x="0" y="68" width="1" height="1" fill="#231f20"/>
    <rect x="70" y="68" width="1" height="1" fill="#231f20"/>
    <rect x="0" y="69" width="1" height="1" fill="#231f20"/>
    <rect x="70" y="69" width="1" height="1" fill="#231f20"/>
    <rect x="0" y="70" width="71" height="1" fill="#231f20"/>
  </g>
</svg>