<?xml version="1.0" encoding="UTF-8"?>
<svg xmlns="http://www.w3.org/2000/svg" viewBox="0 0 174 69" width="174" height="69">
  <!-- Auto-converted from legend-1838.png -->
  <rect x="0" y="0" width="174" height="69" fill="none"/>
  <g fill="#231f20" stroke="none">
    <rect x="0" y="0" width="174" height="1" fill="#231f20"/>
    <rect x="0" y="1" width="1" height="1" fill="#231f20"/>
    <rect x="173" y="1" width="1" height="1" fill="#231f20"/>
    <rect x="0" y="2" width="1" height="1" fill="#231f20"/>
    <rect x="173" y="2" width="1" height="1" fill="#231f20"/>
    <rect x="0" y="3" width="1" height="1" fill="#231f20"/>
    <rect x="173" y="3" width="1" height="1" fill="#231f20"/>
    <rect x="0" y="4" width="1" height="1" fill="#231f20"/>
    <rect x="173" y="4" width="1" height="1" fill="#231f20"/>
    <rect x="0" y="5" width="1" height="1" fill="#231f20"/>
    <rect x="33" y="5" width="1" height="1" fill="#231f20"/>
    <rect x="36" y="5" width="1" height="1" fill="#231f20"/>
    <rect x="173" y="5" width="1" height="1" fill="#231f20"/>
    <rect x="0" y="6" width="1" height="1" fill="#231f20"/>
    <rect x="33" y="6" width="1" height="1" fill="#231f20"/>
    <rect x="36" y="6" width="1" height="1" fill="#231f20"/>
    <rect x="173" y="6" width="1" height="1" fill="#231f20"/>
    <rect x="0" y="7" width="1" height="1" fill="#231f20"/>
    <rect x="32" y="7" width="1" height="1" fill="#231f20"/>
    <rect x="37" y="7" width="1" height="1" fill="#231f20"/>
    <rect x="77" y="7" width="3" height="1" fill="#231f20"/>
    <rect x="81" y="7" width="3" height="1" fill="#231f20"/>
    <rect x="123" y="7" width="3" height="1" fill="#231f20"/>
    <rect x="127" y="7" width="3" height="1" fill="#231f20"/>
    <rect x="173" y="7" width="1" height="1" fill="#231f20"/>
    <rect x="0" y="8" width="1" height="1" fill="#231f20"/>
    <rect x="32" y="8" width="1" height="1" fill="#231f20"/>
    <rect x="37" y="8" width="1" height="1" fill="#231f20"/>
    <rect x="78" y="8" width="2" height="1" fill="#231f20"/>
    <rect x="81" y="8" width="2" height="1" fill="#231f20"/>
    <rect x="124" y="8" width="2" height="1" fill="#231f20"/>
    <rect x="127" y="8" width="2" height="1" fill="#231f20"/>
    <rect x="173" y="8" width="1" height="1" fill="#231f20"/>
    <rect x="0" y="9" width="1" height="1" fill="#231f20"/>
    <rect x="32" y="9" width="1" height="1" fill="#231f20"/>
    <rect x="38" y="9" width="1" height="1" fill="#231f20"/>
    <rect x="78" y="9" width="2" height="1" fill="#231f20"/>
    <rect x="81" y="9" width="2" height="1" fill="#231f20"/>
    <rect x="124" y="9" width="2" height="1" fill="#231f20"/>
    <rect x="127" y="9" width="2" height="1" fill="#231f20"/>
    <rect x="173" y="9" width="1" height="1" fill="#231f20"/>
    <rect x="0" y="10" width="1" height="1" fill="#231f20"/>
    <rect x="31" y="10" width="1" height="1" fill="#231f20"/>
    <rect x="38" y="10" width="1" height="1" fill="#231f20"/>
    <rect x="78" y="10" width="2" height="1" fill="#231f20"/>
    <rect x="81" y="10" width="2" height="1" fill="#231f20"/>
    <rect x="124" y="10" width="2" height="1" fill="#231f20"/>
    <rect x="127" y="10" width="2" height="1" fill="#231f20"/>
    <rect x="173" y="10" width="1" height="1" fill="#231f20"/>
    <rect x="0" y="11" width="1" height="1" fill="#231f20"/>
    <rect x="31" y="11" width="1" height="1" fill="#231f20"/>
    <rect x="38" y="11" width="1" height="1" fill="#231f20"/>
    <rect x="78" y="11" width="2" height="1" fill="#231f20"/>
    <rect x="81" y="11" width="2" height="1" fill="#231f20"/>
    <rect x="124" y="11" width="2" height="1" fill="#231f20"/>
    <rect x="127" y="11" width="2" height="1" fill="#231f20"/>
    <rect x="173" y="11" width="1" height="1" fill="#231f20"/>
    <rect x="0" y="12" width="1" height="1" fill="#231f20"/>
    <rect x="31" y="12" width="1" height="1" fill="#231f20"/>
    <rect x="39" y="12" width="1" height="1" fill="#231f20"/>
    <rect x="78" y="12" width="1" height="1" fill="#231f20"/>
    <rect x="80" y="12" width="1" height="1" fill="#231f20"/>
    <rect x="82" y="12" width="1" height="1" fill="#231f20"/>
    <rect x="124" y="12" width="1" height="1" fill="#231f20"/>
    <rect x="126" y="12" width="1" height="1" fill="#231f20"/>
    <rect x="128" y="12" width="1" height="1" fill="#231f20"/>
    <rect x="173" y="12" width="1" height="1" fill="#231f20"/>
    <rect x="0" y="13" width="1" height="1" fill="#231f20"/>
    <rect x="30" y="13" width="1" height="1" fill="#231f20"/>
    <rect x="39" y="13" width="1" height="1" fill="#231f20"/>
    <rect x="78" y="13" width="1" height="1" fill="#231f20"/>
    <rect x="80" y="13" width="1" height="1" fill="#231f20"/>
    <rect x="82" y="13" width="1" height="1" fill="#231f20"/>
    <rect x="124" y="13" width="1" height="1" fill="#231f20"/>
    <rect x="126" y="13" width="1" height="1" fill="#231f20"/>
    <rect x="128" y="13" width="1" height="1" fill="#231f20"/>
    <rect x="173" y="13" width="1" height="1" fill="#231f20"/>
    <rect x="0" y="14" width="1" height="1" fill="#231f20"/>
    <rect x="30" y="14" width="1" height="1" fill="#231f20"/>
    <rect x="40" y="14" width="1" height="1" fill="#231f20"/>
    <rect x="78" y="14" width="1" height="1" fill="#231f20"/>
    <rect x="80" y="14" width="1" height="1" fill="#231f20"/>
    <rect x="82" y="14" width="1" height="1" fill="#231f20"/>
    <rect x="124" y="14" width="1" height="1" fill="#231f20"/>
    <rect x="126" y="14" width="1" height="1" fill="#231f20"/>
    <rect x="128" y="14" width="1" height="1" fill="#231f20"/>
    <rect x="173" y="14" width="1" height="1" fill="#231f20"/>
    <rect x="0" y="15" width="1" height="1" fill="#231f20"/>
    <rect x="30" y="15" width="1" height="1" fill="#231f20"/>
    <rect x="40" y="15" width="1" height="1" fill="#231f20"/>
    <rect x="78" y="15" width="1" height="1" fill="#231f20"/>
    <rect x="80" y="15" width="1" height="1" fill="#231f20"/>
    <rect x="82" y="15" width="1" height="1" fill="#231f20"/>
    <rect x="124" y="15" width="1" height="1" fill="#231f20"/>
    <rect x="126" y="15" width="1" height="1" fill="#231f20"/>
    <rect x="128" y="15" width="1" height="1" fill="#231f20"/>
    <rect x="173" y="15" width="1" height="1" fill="#231f20"/>
    <rect x="0" y="16" width="1" height="1" fill="#231f20"/>
    <rect x="29" y="16" width="1" height="1" fill="#231f20"/>
    <rect x="41" y="16" width="1" height="1" fill="#231f20"/>
    <rect x="78" y="16" width="1" height="1" fill="#231f20"/>
    <rect x="80" y="16" width="1" height="1" fill="#231f20"/>
    <rect x="82" y="16" width="1" height="1" fill="#231f20"/>
    <rect x="124" y="16" width="1" height="1" fill="#231f20"/>
    <rect x="126" y="16" width="1" height="1" fill="#231f20"/>
    <rect x="128" y="16" width="1" height="1" fill="#231f20"/>
    <rect x="173" y="16" width="1" height="1" fill="#231f20"/>
    <rect x="0" y="17" width="1" height="1" fill="#231f20"/>
    <rect x="29" y="17" width="1" height="1" fill="#231f20"/>
    <rect x="41" y="17" width="1" height="1" fill="#231f20"/>
    <rect x="77" y="17" width="2" height="1" fill="#231f20"/>
    <rect x="80" y="17" width="1" height="1" fill="#231f20"/>
    <rect x="82" y="17" width="2" height="1" fill="#231f20"/>
    <rect x="123" y="17" width="2" height="1" fill="#231f20"/>
    <rect x="126" y="17" width="1" height="1" fill="#231f20"/>
    <rect x="128" y="17" width="2" height="1" fill="#231f20"/>
    <rect x="173" y="17" width="1" height="1" fill="#231f20"/>
    <rect x="0" y="18" width="1" height="1" fill="#231f20"/>
    <rect x="173" y="18" width="1" height="1" fill="#231f20"/>
    <rect x="0" y="19" width="1" height="1" fill="#231f20"/>
    <rect x="173" y="19" width="1" height="1" fill="#231f20"/>
    <rect x="0" y="20" width="1" height="1" fill="#231f20"/>
    <rect x="173" y="20" width="1" height="1" fill="#231f20"/>
    <rect x="0" y="21" width="1" height="1" fill="#231f20"/>
    <rect x="173" y="21" width="1" height="1" fill="#231f20"/>
    <rect x="0" y="22" width="1" height="1" fill="#231f20"/>
    <rect x="173" y="22" width="1" height="1" fill="#231f20"/>
    <rect x="0" y="23" width="174" height="1" fill="#231f20"/>
    <rect x="0" y="24" width="1" height="1" fill="#231f20"/>
    <rect x="173" y="24" width="1" height="1" fill="#231f20"/>
    <rect x="0" y="25" width="1" height="1" fill="#231f20"/>
    <rect x="173" y="25" width="1" height="1" fill="#231f20"/>
    <rect x="0" y="26" width="1" height="1" fill="#231f20"/>
    <rect x="173" y="26" width="1" height="1" fill="#231f20"/>
    <rect x="0" y="27" width="1" height="1" fill="#231f20"/>
    <rect x="173" y="27" width="1" height="1" fill="#231f20"/>
    <rect x="0" y="28" width="1" height="1" fill="#231f20"/>
    <rect x="137" y="28" width="1" height="1" fill="#231f20"/>
    <rect x="140" y="28" width="1" height="1" fill="#231f20"/>
    <rect x="173" y="28" width="1" height="1" fill="#231f20"/>
    <rect x="0" y="29" width="1" height="1" fill="#231f20"/>
    <rect x="137" y="29" width="1" height="1" fill="#231f20"/>
    <rect x="140" y="29" width="1" height="1" fill="#231f20"/>
    <rect x="173" y="29" width="1" height="1" fill="#231f20"/>
    <rect x="0" y="30" width="1" height="1" fill="#231f20"/>
    <rect x="42" y="30" width="3" height="1" fill="#231f20"/>
    <rect x="46" y="30" width="3" height="1" fill="#231f20"/>
    <rect x="88" y="30" width="3" height="1" fill="#231f20"/>
    <rect x="92" y="30" width="3" height="1" fill="#231f20"/>
    <rect x="136" y="30" width="1" height="1" fill="#231f20"/>
    <rect x="141" y="30" width="1" height="1" fill="#231f20"/>
    <rect x="173" y="30" width="1" height="1" fill="#231f20"/>
    <rect x="0" y="31" width="1" height="1" fill="#231f20"/>
    <rect x="43" y="31" width="2" height="1" fill="#231f20"/>
    <rect x="46" y="31" width="2" height="1" fill="#231f20"/>
    <rect x="89" y="31" width="2" height="1" fill="#231f20"/>
    <rect x="92" y="31" width="2" height="1" fill="#231f20"/>
    <rect x="136" y="31" width="1" height="1" fill="#231f20"/>
    <rect x="141" y="31" width="1" height="1" fill="#231f20"/>
    <rect x="173" y="31" width="1" height="1" fill="#231f20"/>
    <rect x="0" y="32" width="1" height="1" fill="#231f20"/>
    <rect x="43" y="32" width="2" height="1" fill="#231f20"/>
    <rect x="46" y="32" width="2" height="1" fill="#231f20"/>
    <rect x="89" y="32" width="2" height="1" fill="#231f20"/>
    <rect x="92" y="32" width="2" height="1" fill="#231f20"/>
    <rect x="135" y="32" width="1" height="1" fill="#231f20"/>
    <rect x="141" y="32" width="1" height="1" fill="#231f20"/>
    <rect x="173" y="32" width="1" height="1" fill="#231f20"/>
    <rect x="0" y="33" width="1" height="1" fill="#231f20"/>
    <rect x="43" y="33" width="2" height="1" fill="#231f20"/>
    <rect x="46" y="33" width="2" height="1" fill="#231f20"/>
    <rect x="89" y="33" width="2" height="1" fill="#231f20"/>
    <rect x="92" y="33" width="2" height="1" fill="#231f20"/>
    <rect x="135" y="33" width="1" height="1" fill="#231f20"/>
    <rect x="142" y="33" width="1" height="1" fill="#231f20"/>
    <rect x="173" y="33" width="1" height="1" fill="#231f20"/>
    <rect x="0" y="34" width="1" height="1" fill="#231f20"/>
    <rect x="43" y="34" width="2" height="1" fill="#231f20"/>
    <rect x="46" y="34" width="2" height="1" fill="#231f20"/>
    <rect x="89" y="34" width="2" height="1" fill="#231f20"/>
    <rect x="92" y="34" width="2" height="1" fill="#231f20"/>
    <rect x="134" y="34" width="1" height="1" fill="#231f20"/>
    <rect x="142" y="34" width="1" height="1" fill="#231f20"/>
    <rect x="173" y="34" width="1" height="1" fill="#231f20"/>
    <rect x="0" y="35" width="1" height="1" fill="#231f20"/>
    <rect x="43" y="35" width="1" height="1" fill="#231f20"/>
    <rect x="45" y="35" width="1" height="1" fill="#231f20"/>
    <rect x="47" y="35" width="1" height="1" fill="#231f20"/>
    <rect x="89" y="35" width="1" height="1" fill="#231f20"/>
    <rect x="91" y="35" width="1" height="1" fill="#231f20"/>
    <rect x="93" y="35" width="1" height="1" fill="#231f20"/>
    <rect x="134" y="35" width="1" height="1" fill="#231f20"/>
    <rect x="142" y="35" width="1" height="1" fill="#231f20"/>
    <rect x="173" y="35" width="1" height="1" fill="#231f20"/>
    <rect x="0" y="36" width="1" height="1" fill="#231f20"/>
    <rect x="43" y="36" width="1" height="1" fill="#231f20"/>
    <rect x="45" y="36" width="1" height="1" fill="#231f20"/>
    <rect x="47" y="36" width="1" height="1" fill="#231f20"/>
    <rect x="89" y="36" width="1" height="1" fill="#231f20"/>
    <rect x="91" y="36" width="1" height="1" fill="#231f20"/>
    <rect x="93" y="36" width="1" height="1" fill="#231f20"/>
    <rect x="134" y="36" width="1" height="1" fill="#231f20"/>
    <rect x="143" y="36" width="1" height="1" fill="#231f20"/>
    <rect x="173" y="36" width="1" height="1" fill="#231f20"/>
    <rect x="0" y="37" width="1" height="1" fill="#231f20"/>
    <rect x="43" y="37" width="1" height="1" fill="#231f20"/>
    <rect x="45" y="37" width="1" height="1" fill="#231f20"/>
    <rect x="47" y="37" width="1" height="1" fill="#231f20"/>
    <rect x="89" y="37" width="1" height="1" fill="#231f20"/>
    <rect x="91" y="37" width="1" height="1" fill="#231f20"/>
    <rect x="93" y="37" width="1" height="1" fill="#231f20"/>
    <rect x="133" y="37" width="1" height="1" fill="#231f20"/>
    <rect x="143" y="37" width="1" height="1" fill="#231f20"/>
    <rect x="173" y="37" width="1" height="1" fill="#231f20"/>
    <rect x="0" y="38" width="1" height="1" fill="#231f20"/>
    <rect x="43" y="38" width="1" height="1" fill="#231f20"/>
    <rect x="45" y="38" width="1" height="1" fill="#231f20"/>
    <rect x="47" y="38" width="1" height="1" fill="#231f20"/>
    <rect x="89" y="38" width="1" height="1" fill="#231f20"/>
    <rect x="91" y="38" width="1" height="1" fill="#231f20"/>
    <rect x="93" y="38" width="1" height="1" fill="#231f20"/>
    <rect x="133" y="38" width="1" height="1" fill="#231f20"/>
    <rect x="143" y="38" width="1" height="1" fill="#231f20"/>
    <rect x="173" y="38" width="1" height="1" fill="#231f20"/>
    <rect x="0" y="39" width="1" height="1" fill="#231f20"/>
    <rect x="43" y="39" width="1" height="1" fill="#231f20"/>
    <rect x="45" y="39" width="1" height="1" fill="#231f20"/>
    <rect x="47" y="39" width="1" height="1" fill="#231f20"/>
    <rect x="89" y="39" width="1" height="1" fill="#231f20"/>
    <rect x="91" y="39" width="1" height="1" fill="#231f20"/>
    <rect x="93" y="39" width="1" height="1" fill="#231f20"/>
    <rect x="132" y="39" width="1" height="1" fill="#231f20"/>
    <rect x="144" y="39" width="1" height="1" fill="#231f20"/>
    <rect x="173" y="39" width="1" height="1" fill="#231f20"/>
    <rect x="0" y="40" width="1" height="1" fill="#231f20"/>
    <rect x="42" y="40" width="2" height="1" fill="#231f20"/>
    <rect x="45" y="40" width="1" height="1" fill="#231f20"/>
    <rect x="47" y="40" width="2" height="1" fill="#231f20"/>
    <rect x="88" y="40" width="2" height="1" fill="#231f20"/>
    <rect x="91" y="40" width="1" height="1" fill="#231f20"/>
    <rect x="93" y="40" width="2" height="1" fill="#231f20"/>
    <rect x="132" y="40" width="1" height="1" fill="#231f20"/>
    <rect x="144" y="40" width="1" height="1" fill="#231f20"/>
    <rect x="173" y="40" width="1" height="1" fill="#231f20"/>
    <rect x="0" y="41" width="1" height="1" fill="#231f20"/>
    <rect x="173" y="41" width="1" height="1" fill="#231f20"/>
    <rect x="0" y="42" width="1" height="1" fill="#231f20"/>
    <rect x="173" y="42" width="1" height="1" fill="#231f20"/>
    <rect x="0" y="43" width="1" height="1" fill="#231f20"/>
    <rect x="173" y="43" width="1" height="1" fill="#231f20"/>
    <rect x="0" y="44" width="1" height="1" fill="#231f20"/>
    <rect x="173" y="44" width="1" height="1" fill="#231f20"/>
    <rect x="0" y="45" width="174" height="1" fill="#231f20"/>
    <rect x="0" y="46" width="1" height="1" fill="#231f20"/>
    <rect x="173" y="46" width="1" height="1" fill="#231f20"/>
    <rect x="0" y="47" width="1" height="1" fill="#231f20"/>
    <rect x="173" y="47" width="1" height="1" fill="#231f20"/>
    <rect x="0" y="48" width="1" height="1" fill="#231f20"/>
    <rect x="173" y="48" width="1" height="1" fill="#231f20"/>
    <rect x="0" y="49" width="1" height="1" fill="#231f20"/>
    <rect x="173" y="49" width="1" height="1" fill="#231f20"/>
    <rect x="0" y="50" width="1" height="1" fill="#231f20"/>
    <rect x="173" y="50" width="1" height="1" fill="#231f20"/>
    <rect x="0" y="51" width="1" height="1" fill="#231f20"/>
    <rect x="33" y="51" width="1" height="1" fill="#231f20"/>
    <rect x="36" y="51" width="1" height="1" fill="#231f20"/>
    <rect x="173" y="51" width="1" height="1" fill="#231f20"/>
    <rect x="0" y="52" width="1" height="1" fill="#231f20"/>
    <rect x="33" y="52" width="1" height="1" fill="#231f20"/>
    <rect x="36" y="52" width="1" height="1" fill="#231f20"/>
    <rect x="173" y="52" width="1" height="1" fill="#231f20"/>
    <rect x="0" y="53" width="1" height="1" fill="#231f20"/>
    <rect x="32" y="53" width="1" height="1" fill="#231f20"/>
    <rect x="37" y="53" width="1" height="1" fill="#231f20"/>
    <rect x="77" y="53" width="3" height="1" fill="#231f20"/>
    <rect x="81" y="53" width="3" height="1" fill="#231f20"/>
    <rect x="123" y="53" width="3" height="1" fill="#231f20"/>
    <rect x="127" y="53" width="3" height="1" fill="#231f20"/>
    <rect x="173" y="53" width="1" height="1" fill="#231f20"/>
    <rect x="0" y="54" width="1" height="1" fill="#231f20"/>
    <rect x="32" y="54" width="1" height="1" fill="#231f20"/>
    <rect x="37" y="54" width="1" height="1" fill="#231f20"/>
    <rect x="78" y="54" width="2" height="1" fill="#231f20"/>
    <rect x="81" y="54" width="2" height="1" fill="#231f20"/>
    <rect x="124" y="54" width="2" height="1" fill="#231f20"/>
    <rect x="127" y="54" width="2" height="1" fill="#231f20"/>
    <rect x="173" y="54" width="1" height="1" fill="#231f20"/>
    <rect x="0" y="55" width="1" height="1" fill="#231f20"/>
    <rect x="32" y="55" width="1" height="1" fill="#231f20"/>
    <rect x="38" y="55" width="1" height="1" fill="#231f20"/>
    <rect x="78" y="55" width="2" height="1" fill="#231f20"/>
    <rect x="81" y="55" width="2" height="1" fill="#231f20"/>
    <rect x="124" y="55" width="2" height="1" fill="#231f20"/>
    <rect x="127" y="55" width="2" height="1" fill="#231f20"/>
    <rect x="173" y="55" width="1" height="1" fill="#231f20"/>
    <rect x="0" y="56" width="1" height="1" fill="#231f20"/>
    <rect x="31" y="56" width="1" height="1" fill="#231f20"/>
    <rect x="38" y="56" width="1" height="1" fill="#231f20"/>
    <rect x="78" y="56" width="2" height="1" fill="#231f20"/>
    <rect x="81" y="56" width="2" height="1" fill="#231f20"/>
    <rect x="124" y="56" width="2" height="1" fill="#231f20"/>
    <rect x="127" y="56" width="2" height="1" fill="#231f20"/>
    <rect x="173" y="56" width="1" height="1" fill="#231f20"/>
    <rect x="0" y="57" width="1" height="1" fill="#231f20"/>
    <rect x="31" y="57" width="1" height="1" fill="#231f20"/>
    <rect x="38" y="57" width="1" height="1" fill="#231f20"/>
    <rect x="78" y="57" width="2" height="1" fill="#231f20"/>
    <rect x="81" y="57" width="2" height="1" fill="#231f20"/>
    <rect x="124" y="57" width="2" height="1" fill="#231f20"/>
    <rect x="127" y="57" width="2" height="1" fill="#231f20"/>
    <rect x="173" y="57" width="1" height="1" fill="#231f20"/>
    <rect x="0" y="58" width="1" height="1" fill="#231f20"/>
    <rect x="31" y="58" width="1" height="1" fill="#231f20"/>
    <rect x="39" y="58" width="1" height="1" fill="#231f20"/>
    <rect x="78" y="58" width="1" height="1" fill="#231f20"/>
    <rect x="80" y="58" width="1" height="1" fill="#231f20"/>
    <rect x="82" y="58" width="1" height="1" fill="#231f20"/>
    <rect x="124" y="58" width="1" height="1" fill="#231f20"/>
    <rect x="126" y="58" width="1" height="1" fill="#231f20"/>
    <rect x="128" y="58" width="1" height="1" fill="#231f20"/>
    <rect x="173" y="58" width="1" height="1" fill="#231f20"/>
    <rect x="0" y="59" width="1" height="1" fill="#231f20"/>
    <rect x="30" y="59" width="1" height="1" fill="#231f20"/>
    <rect x="39" y="59" width="1" height="1" fill="#231f20"/>
    <rect x="78" y="59" width="1" height="1" fill="#231f20"/>
    <rect x="80" y="59" width="1" height="1" fill="#231f20"/>
    <rect x="82" y="59" width="1" height="1" fill="#231f20"/>
    <rect x="124" y="59" width="1" height="1" fill="#231f20"/>
    <rect x="126" y="59" width="1" height="1" fill="#231f20"/>
    <rect x="128" y="59" width="1" height="1" fill="#231f20"/>
    <rect x="173" y="59" width="1" height="1" fill="#231f20"/>
    <rect x="0" y="60" width="1" height="1" fill="#231f20"/>
    <rect x="30" y="60" width="1" height="1" fill="#231f20"/>
    <rect x="40" y="60" width="1" height="1" fill="#231f20"/>
    <rect x="78" y="60" width="1" height="1" fill="#231f20"/>
    <rect x="80" y="60" width="1" height="1" fill="#231f20"/>
    <rect x="82" y="60" width="1" height="1" fill="#231f20"/>
    <rect x="124" y="60" width="1" height="1" fill="#231f20"/>
    <rect x="126" y="60" width="1" height="1" fill="#231f20"/>
    <rect x="128" y="60" width="1" height="1" fill="#231f20"/>
    <rect x="173" y="60" width="1" height="1" fill="#231f20"/>
    <rect x="0" y="61" width="1" height="1" fill="#231f20"/>
    <rect x="30" y="61" width="1" height="1" fill="#231f20"/>
    <rect x="40" y="61" width="1" height="1" fill="#231f20"/>
    <rect x="78" y="61" width="1" height="1" fill="#231f20"/>
    <rect x="80" y="61" width="1" height="1" fill="#231f20"/>
    <rect x="82" y="61" width="1" height="1" fill="#231f20"/>
    <rect x="124" y="61" width="1" height="1" fill="#231f20"/>
    <rect x="126" y="61" width="1" height="1" fill="#231f20"/>
    <rect x="128" y="61" width="1" height="1" fill="#231f20"/>
    <rect x="173" y="61" width="1" height="1" fill="#231f20"/>
    <rect x="0" y="62" width="1" height="1" fill="#231f20"/>
    <rect x="29" y="62" width="1" height="1" fill="#231f20"/>
    <rect x="41" y="62" width="1" height="1" fill="#231f20"/>
    <rect x="78" y="62" width="1" height="1" fill="#231f20"/>
    <rect x="80" y="62" width="1" height="1" fill="#231f20"/>
    <rect x="82" y="62" width="1" height="1" fill="#231f20"/>
    <rect x="124" y="62" width="1" height="1" fill="#231f20"/>
    <rect x="126" y="62" width="1" height="1" fill="#231f20"/>
    <rect x="128" y="62" width="1" height="1" fill="#231f20"/>
    <rect x="173" y="62" width="1" height="1" fill="#231f20"/>
    <rect x="0" y="63" width="1" height="1" fill="#231f20"/>
    <rect x="29" y="63" width="1" height="1" fill="#231f20"/>
    <rect x="41" y="63" width="1" height="1" fill="#231f20"/>
    <rect x="77" y="63" width="2" height="1" fill="#231f20"/>
    <rect x="80" y="63" width="1" height="1" fill="#231f20"/>
    <rect x="82" y="63" width="2" height="1" fill="#231f20"/>
    <rect x="123" y="63" width="2" height="1" fill="#231f20"/>
    <rect x="126" y="63" width="1" height="1" fill="#231f20"/>
    <rect x="128" y="63" width="2" height="1" fill="#231f20"/>
    <rect x="173" y="63" width="1" height="1" fill="#231f20"/>
    <rect x="0" y="64" width="1" height="1" fill="#231f20"/>
    <rect x="173" y="64" width="1" height="1" fill="#231f20"/>
    <rect x="0" y="65" width="1" height="1" fill="#231f20"/>
    <rect x="173" y="65" width="1" height="1" fill="#231f20"/>
    <rect x="0" y="66" width="1" height="1" fill="#231f20"/>
    <rect x="173" y="66" width="1" height="1" fill="#231f20"/>
    <rect x="0" y="67" width="1" height="1" fill="#231f20"/>
    <rect x="173" y="67" width="1" height="1" fill="#231f20"/>
    <rect x="0" y="68" width="174" height="1" fill="#231f20"/>
  </g>
</svg>