<?xml version="1.0" encoding="UTF-8"?>
<svg xmlns="http://www.w3.org/2000/svg" viewBox="0 0 161 65" width="161" height="65">
  <!-- Auto-converted from legend-1480.png -->
  <rect x="0" y="0" width="161" height="65" fill="none"/>
  <g fill="#231f20" stroke="none">
    <rect x="0" y="0" width="161" height="1" fill="#231f20"/>
    <rect x="0" y="1" width="1" height="1" fill="#231f20"/>
    <rect x="64" y="1" width="1" height="1" fill="#231f20"/>
    <rect x="128" y="1" width="1" height="1" fill="#231f20"/>
    <rect x="160" y="1" width="1" height="1" fill="#231f20"/>
    <rect x="0" y="2" width="1" height="1" fill="#231f20"/>
    <rect x="64" y="2" width="1" height="1" fill="#231f20"/>
    <rect x="128" y="2" width="1" height="1" fill="#231f20"/>
    <rect x="160" y="2" width="1" height="1" fill="#231f20"/>
    <rect x="0" y="3" width="1" height="1" fill="#231f20"/>
    <rect x="64" y="3" width="1" height="1" fill="#231f20"/>
    <rect x="128" y="3" width="1" height="1" fill="#231f20"/>
    <rect x="160" y="3" width="1" height="1" fill="#231f20"/>
    <rect x="0" y="4" width="1" height="1" fill="#231f20"/>
    <rect x="64" y="4" width="1" height="1" fill="#231f20"/>
    <rect x="128" y="4" width="1" height="1" fill="#231f20"/>
    <rect x="160" y="4" width="1" height="1" fill="#231f20"/>
    <rect x="0" y="5" width="1" height="1" fill="#231f20"/>
    <rect x="64" y="5" width="1" height="1" fill="#231f20"/>
    <rect x="128" y="5" width="1" height="1" fill="#231f20"/>
    <rect x="160" y="5" width="1" height="1" fill="#231f20"/>
    <rect x="0" y="6" width="1" height="1" fill="#231f20"/>
    <rect x="64" y="6" width="1" height="1" fill="#231f20"/>
    <rect x="128" y="6" width="1" height="1" fill="#231f20"/>
    <rect x="160" y="6" width="1" height="1" fill="#231f20"/>
    <rect x="0" y="7" width="1" height="1" fill="#231f20"/>
    <rect x="64" y="7" width="1" height="1" fill="#231f20"/>
    <rect x="128" y="7" width="1" height="1" fill="#231f20"/>
    <rect x="160" y="7" width="1" height="1" fill="#231f20"/>
    <rect x="0" y="8" width="1" height="1" fill="#231f20"/>
    <rect x="64" y="8" width="1" height="1" fill="#231f20"/>
    <rect x="128" y="8" width="1" height="1" fill="#231f20"/>
    <rect x="160" y="8" width="1" height="1" fill="#231f20"/>
    <rect x="0" y="9" width="1" height="1" fill="#231f20"/>
    <rect x="28" y="9" width="2" height="1" fill="#231f20"/>
    <rect x="34" y="9" width="1" height="1" fill="#231f20"/>
    <rect x="64" y="9" width="1" height="1" fill="#231f20"/>
    <rect x="92" y="9" width="2" height="1" fill="#231f20"/>
    <rect x="98" y="9" width="1" height="1" fill="#231f20"/>
    <rect x="128" y="9" width="1" height="1" fill="#231f20"/>
    <rect x="160" y="9" width="1" height="1" fill="#231f20"/>
    <rect x="0" y="10" width="1" height="1" fill="#231f20"/>
    <rect x="27" y="10" width="1" height="1" fill="#231f20"/>
    <rect x="30" y="10" width="1" height="1" fill="#231f20"/>
    <rect x="64" y="10" width="1" height="1" fill="#231f20"/>
    <rect x="91" y="10" width="1" height="1" fill="#231f20"/>
    <rect x="94" y="10" width="1" height="1" fill="#231f20"/>
    <rect x="128" y="10" width="1" height="1" fill="#231f20"/>
    <rect x="160" y="10" width="1" height="1" fill="#231f20"/>
    <rect x="0" y="11" width="1" height="1" fill="#231f20"/>
    <rect x="27" y="11" width="2" height="1" fill="#231f20"/>
    <rect x="34" y="11" width="1" height="1" fill="#231f20"/>
    <rect x="64" y="11" width="1" height="1" fill="#231f20"/>
    <rect x="91" y="11" width="2" height="1" fill="#231f20"/>
    <rect x="98" y="11" width="1" height="1" fill="#231f20"/>
    <rect x="128" y="11" width="1" height="1" fill="#231f20"/>
    <rect x="160" y="11" width="1" height="1" fill="#231f20"/>
    <rect x="0" y="12" width="1" height="1" fill="#231f20"/>
    <rect x="29" y="12" width="2" height="1" fill="#231f20"/>
    <rect x="34" y="12" width="1" height="1" fill="#231f20"/>
    <rect x="64" y="12" width="1" height="1" fill="#231f20"/>
    <rect x="93" y="12" width="2" height="1" fill="#231f20"/>
    <rect x="98" y="12" width="1" height="1" fill="#231f20"/>
    <rect x="128" y="12" width="1" height="1" fill="#231f20"/>
    <rect x="160" y="12" width="1" height="1" fill="#231f20"/>
    <rect x="0" y="13" width="1" height="1" fill="#231f20"/>
    <rect x="27" y="13" width="1" height="1" fill="#231f20"/>
    <rect x="30" y="13" width="1" height="1" fill="#231f20"/>
    <rect x="34" y="13" width="1" height="1" fill="#231f20"/>
    <rect x="64" y="13" width="1" height="1" fill="#231f20"/>
    <rect x="91" y="13" width="1" height="1" fill="#231f20"/>
    <rect x="94" y="13" width="1" height="1" fill="#231f20"/>
    <rect x="98" y="13" width="1" height="1" fill="#231f20"/>
    <rect x="128" y="13" width="1" height="1" fill="#231f20"/>
    <rect x="160" y="13" width="1" height="1" fill="#231f20"/>
    <rect x="0" y="14" width="1" height="1" fill="#231f20"/>
    <rect x="28" y="14" width="2" height="1" fill="#231f20"/>
    <rect x="34" y="14" width="1" height="1" fill="#231f20"/>
    <rect x="64" y="14" width="1" height="1" fill="#231f20"/>
    <rect x="92" y="14" width="2" height="1" fill="#231f20"/>
    <rect x="98" y="14" width="1" height="1" fill="#231f20"/>
    <rect x="128" y="14" width="1" height="1" fill="#231f20"/>
    <rect x="160" y="14" width="1" height="1" fill="#231f20"/>
    <rect x="0" y="15" width="1" height="1" fill="#231f20"/>
    <rect x="64" y="15" width="1" height="1" fill="#231f20"/>
    <rect x="128" y="15" width="1" height="1" fill="#231f20"/>
    <rect x="160" y="15" width="1" height="1" fill="#231f20"/>
    <rect x="0" y="16" width="1" height="1" fill="#231f20"/>
    <rect x="64" y="16" width="1" height="1" fill="#231f20"/>
    <rect x="128" y="16" width="1" height="1" fill="#231f20"/>
    <rect x="160" y="16" width="1" height="1" fill="#231f20"/>
    <rect x="0" y="17" width="1" height="1" fill="#231f20"/>
    <rect x="64" y="17" width="1" height="1" fill="#231f20"/>
    <rect x="128" y="17" width="1" height="1" fill="#231f20"/>
    <rect x="160" y="17" width="1" height="1" fill="#231f20"/>
    <rect x="0" y="18" width="1" height="1" fill="#231f20"/>
    <rect x="64" y="18" width="1" height="1" fill="#231f20"/>
    <rect x="128" y="18" width="1" height="1" fill="#231f20"/>
    <rect x="160" y="18" width="1" height="1" fill="#231f20"/>
    <rect x="0" y="19" width="1" height="1" fill="#231f20"/>
    <rect x="64" y="19" width="1" height="1" fill="#231f20"/>
    <rect x="128" y="19" width="1" height="1" fill="#231f20"/>
    <rect x="160" y="19" width="1" height="1" fill="#231f20"/>
    <rect x="0" y="20" width="1" height="1" fill="#231f20"/>
    <rect x="64" y="20" width="1" height="1" fill="#231f20"/>
    <rect x="128" y="20" width="1" height="1" fill="#231f20"/>
    <rect x="160" y="20" width="1" height="1" fill="#231f20"/>
    <rect x="0" y="21" width="161" height="1" fill="#231f20"/>
    <rect x="0" y="22" width="1" height="1" fill="#231f20"/>
    <rect x="32" y="22" width="1" height="1" fill="#231f20"/>
    <rect x="96" y="22" width="1" height="1" fill="#231f20"/>
    <rect x="160" y="22" width="1" height="1" fill="#231f20"/>
    <rect x="0" y="23" width="1" height="1" fill="#231f20"/>
    <rect x="32" y="23" width="1" height="1" fill="#231f20"/>
    <rect x="96" y="23" width="1" height="1" fill="#231f20"/>
    <rect x="160" y="23" width="1" height="1" fill="#231f20"/>
    <rect x="0" y="24" width="1" height="1" fill="#231f20"/>
    <rect x="32" y="24" width="1" height="1" fill="#231f20"/>
    <rect x="96" y="24" width="1" height="1" fill="#231f20"/>
    <rect x="160" y="24" width="1" height="1" fill="#231f20"/>
    <rect x="0" y="25" width="1" height="1" fill="#231f20"/>
    <rect x="32" y="25" width="1" height="1" fill="#231f20"/>
    <rect x="96" y="25" width="1" height="1" fill="#231f20"/>
    <rect x="160" y="25" width="1" height="1" fill="#231f20"/>
    <rect x="0" y="26" width="1" height="1" fill="#231f20"/>
    <rect x="32" y="26" width="1" height="1" fill="#231f20"/>
    <rect x="96" y="26" width="1" height="1" fill="#231f20"/>
    <rect x="160" y="26" width="1" height="1" fill="#231f20"/>
    <rect x="0" y="27" width="1" height="1" fill="#231f20"/>
    <rect x="32" y="27" width="1" height="1" fill="#231f20"/>
    <rect x="96" y="27" width="1" height="1" fill="#231f20"/>
    <rect x="160" y="27" width="1" height="1" fill="#231f20"/>
    <rect x="0" y="28" width="1" height="1" fill="#231f20"/>
    <rect x="32" y="28" width="1" height="1" fill="#231f20"/>
    <rect x="96" y="28" width="1" height="1" fill="#231f20"/>
    <rect x="160" y="28" width="1" height="1" fill="#231f20"/>
    <rect x="0" y="29" width="1" height="1" fill="#231f20"/>
    <rect x="32" y="29" width="1" height="1" fill="#231f20"/>
    <rect x="96" y="29" width="1" height="1" fill="#231f20"/>
    <rect x="160" y="29" width="1" height="1" fill="#231f20"/>
    <rect x="0" y="30" width="1" height="1" fill="#231f20"/>
    <rect x="32" y="30" width="1" height="1" fill="#231f20"/>
    <rect x="60" y="30" width="2" height="1" fill="#231f20"/>
    <rect x="66" y="30" width="1" height="1" fill="#231f20"/>
    <rect x="96" y="30" width="1" height="1" fill="#231f20"/>
    <rect x="124" y="30" width="2" height="1" fill="#231f20"/>
    <rect x="130" y="30" width="1" height="1" fill="#231f20"/>
    <rect x="160" y="30" width="1" height="1" fill="#231f20"/>
    <rect x="0" y="31" width="1" height="1" fill="#231f20"/>
    <rect x="32" y="31" width="1" height="1" fill="#231f20"/>
    <rect x="59" y="31" width="1" height="1" fill="#231f20"/>
    <rect x="62" y="31" width="1" height="1" fill="#231f20"/>
    <rect x="96" y="31" width="1" height="1" fill="#231f20"/>
    <rect x="123" y="31" width="1" height="1" fill="#231f20"/>
    <rect x="126" y="31" width="1" height="1" fill="#231f20"/>
    <rect x="160" y="31" width="1" height="1" fill="#231f20"/>
    <rect x="0" y="32" width="1" height="1" fill="#231f20"/>
    <rect x="32" y="32" width="1" height="1" fill="#231f20"/>
    <rect x="59" y="32" width="2" height="1" fill="#231f20"/>
    <rect x="66" y="32" width="1" height="1" fill="#231f20"/>
    <rect x="96" y="32" width="1" height="1" fill="#231f20"/>
    <rect x="123" y="32" width="2" height="1" fill="#231f20"/>
    <rect x="130" y="32" width="1" height="1" fill="#231f20"/>
    <rect x="160" y="32" width="1" height="1" fill="#231f20"/>
    <rect x="0" y="33" width="1" height="1" fill="#231f20"/>
    <rect x="32" y="33" width="1" height="1" fill="#231f20"/>
    <rect x="61" y="33" width="2" height="1" fill="#231f20"/>
    <rect x="66" y="33" width="1" height="1" fill="#231f20"/>
    <rect x="96" y="33" width="1" height="1" fill="#231f20"/>
    <rect x="125" y="33" width="2" height="1" fill="#231f20"/>
    <rect x="130" y="33" width="1" height="1" fill="#231f20"/>
    <rect x="160" y="33" width="1" height="1" fill="#231f20"/>
    <rect x="0" y="34" width="1" height="1" fill="#231f20"/>
    <rect x="32" y="34" width="1" height="1" fill="#231f20"/>
    <rect x="59" y="34" width="1" height="1" fill="#231f20"/>
    <rect x="62" y="34" width="1" height="1" fill="#231f20"/>
    <rect x="66" y="34" width="1" height="1" fill="#231f20"/>
    <rect x="96" y="34" width="1" height="1" fill="#231f20"/>
    <rect x="123" y="34" width="1" height="1" fill="#231f20"/>
    <rect x="126" y="34" width="1" height="1" fill="#231f20"/>
    <rect x="130" y="34" width="1" height="1" fill="#231f20"/>
    <rect x="160" y="34" width="1" height="1" fill="#231f20"/>
    <rect x="0" y="35" width="1" height="1" fill="#231f20"/>
    <rect x="32" y="35" width="1" height="1" fill="#231f20"/>
    <rect x="60" y="35" width="2" height="1" fill="#231f20"/>
    <rect x="66" y="35" width="1" height="1" fill="#231f20"/>
    <rect x="96" y="35" width="1" height="1" fill="#231f20"/>
    <rect x="124" y="35" width="2" height="1" fill="#231f20"/>
    <rect x="130" y="35" width="1" height="1" fill="#231f20"/>
    <rect x="160" y="35" width="1" height="1" fill="#231f20"/>
    <rect x="0" y="36" width="1" height="1" fill="#231f20"/>
    <rect x="32" y="36" width="1" height="1" fill="#231f20"/>
    <rect x="96" y="36" width="1" height="1" fill="#231f20"/>
    <rect x="160" y="36" width="1" height="1" fill="#231f20"/>
    <rect x="0" y="37" width="1" height="1" fill="#231f20"/>
    <rect x="32" y="37" width="1" height="1" fill="#231f20"/>
    <rect x="96" y="37" width="1" height="1" fill="#231f20"/>
    <rect x="160" y="37" width="1" height="1" fill="#231f20"/>
    <rect x="0" y="38" width="1" height="1" fill="#231f20"/>
    <rect x="32" y="38" width="1" height="1" fill="#231f20"/>
    <rect x="96" y="38" width="1" height="1" fill="#231f20"/>
    <rect x="160" y="38" width="1" height="1" fill="#231f20"/>
    <rect x="0" y="39" width="1" height="1" fill="#231f20"/>
    <rect x="32" y="39" width="1" height="1" fill="#231f20"/>
    <rect x="96" y="39" width="1" height="1" fill="#231f20"/>
    <rect x="160" y="39" width="1" height="1" fill="#231f20"/>
    <rect x="0" y="40" width="1" height="1" fill="#231f20"/>
    <rect x="32" y="40" width="1" height="1" fill="#231f20"/>
    <rect x="96" y="40" width="1" height="1" fill="#231f20"/>
    <rect x="160" y="40" width="1" height="1" fill="#231f20"/>
    <rect x="0" y="41" width="1" height="1" fill="#231f20"/>
    <rect x="32" y="41" width="1" height="1" fill="#231f20"/>
    <rect x="96" y="41" width="1" height="1" fill="#231f20"/>
    <rect x="160" y="41" width="1" height="1" fill="#231f20"/>
    <rect x="0" y="42" width="1" height="1" fill="#231f20"/>
    <rect x="32" y="42" width="1" height="1" fill="#231f20"/>
    <rect x="96" y="42" width="1" height="1" fill="#231f20"/>
    <rect x="160" y="42" width="1" height="1" fill="#231f20"/>
    <rect x="0" y="43" width="161" height="1" fill="#231f20"/>
    <rect x="0" y="44" width="1" height="1" fill="#231f20"/>
    <rect x="64" y="44" width="1" height="1" fill="#231f20"/>
    <rect x="128" y="44" width="1" height="1" fill="#231f20"/>
    <rect x="160" y="44" width="1" height="1" fill="#231f20"/>
    <rect x="0" y="45" width="1" height="1" fill="#231f20"/>
    <rect x="64" y="45" width="1" height="1" fill="#231f20"/>
    <rect x="128" y="45" width="1" height="1" fill="#231f20"/>
    <rect x="160" y="45" width="1" height="1" fill="#231f20"/>
    <rect x="0" y="46" width="1" height="1" fill="#231f20"/>
    <rect x="64" y="46" width="1" height="1" fill="#231f20"/>
    <rect x="128" y="46" width="1" height="1" fill="#231f20"/>
    <rect x="160" y="46" width="1" height="1" fill="#231f20"/>
    <rect x="0" y="47" width="1" height="1" fill="#231f20"/>
    <rect x="64" y="47" width="1" height="1" fill="#231f20"/>
    <rect x="128" y="47" width="1" height="1" fill="#231f20"/>
    <rect x="160" y="47" width="1" height="1" fill="#231f20"/>
    <rect x="0" y="48" width="1" height="1" fill="#231f20"/>
    <rect x="64" y="48" width="1" height="1" fill="#231f20"/>
    <rect x="128" y="48" width="1" height="1" fill="#231f20"/>
    <rect x="160" y="48" width="1" height="1" fill="#231f20"/>
    <rect x="0" y="49" width="1" height="1" fill="#231f20"/>
    <rect x="64" y="49" width="1" height="1" fill="#231f20"/>
    <rect x="128" y="49" width="1" height="1" fill="#231f20"/>
    <rect x="160" y="49" width="1" height="1" fill="#231f20"/>
    <rect x="0" y="50" width="1" height="1" fill="#231f20"/>
    <rect x="64" y="50" width="1" height="1" fill="#231f20"/>
    <rect x="128" y="50" width="1" height="1" fill="#231f20"/>
    <rect x="160" y="50" width="1" height="1" fill="#231f20"/>
    <rect x="0" y="51" width="1" height="1" fill="#231f20"/>
    <rect x="28" y="51" width="2" height="1" fill="#231f20"/>
    <rect x="34" y="51" width="1" height="1" fill="#231f20"/>
    <rect x="64" y="51" width="1" height="1" fill="#231f20"/>
    <rect x="92" y="51" width="2" height="1" fill="#231f20"/>
    <rect x="98" y="51" width="1" height="1" fill="#231f20"/>
    <rect x="128" y="51" width="1" height="1" fill="#231f20"/>
    <rect x="160" y="51" width="1" height="1" fill="#231f20"/>
    <rect x="0" y="52" width="1" height="1" fill="#231f20"/>
    <rect x="27" y="52" width="1" height="1" fill="#231f20"/>
    <rect x="30" y="52" width="1" height="1" fill="#231f20"/>
    <rect x="64" y="52" width="1" height="1" fill="#231f20"/>
    <rect x="91" y="52" width="1" height="1" fill="#231f20"/>
    <rect x="94" y="52" width="1" height="1" fill="#231f20"/>
    <rect x="128" y="52" width="1" height="1" fill="#231f20"/>
    <rect x="160" y="52" width="1" height="1" fill="#231f20"/>
    <rect x="0" y="53" width="1" height="1" fill="#231f20"/>
    <rect x="27" y="53" width="2" height="1" fill="#231f20"/>
    <rect x="34" y="53" width="1" height="1" fill="#231f20"/>
    <rect x="64" y="53" width="1" height="1" fill="#231f20"/>
    <rect x="91" y="53" width="2" height="1" fill="#231f20"/>
    <rect x="98" y="53" width="1" height="1" fill="#231f20"/>
    <rect x="128" y="53" width="1" height="1" fill="#231f20"/>
    <rect x="160" y="53" width="1" height="1" fill="#231f20"/>
    <rect x="0" y="54" width="1" height="1" fill="#231f20"/>
    <rect x="29" y="54" width="2" height="1" fill="#231f20"/>
    <rect x="34" y="54" width="1" height="1" fill="#231f20"/>
    <rect x="64" y="54" width="1" height="1" fill="#231f20"/>
    <rect x="93" y="54" width="2" height="1" fill="#231f20"/>
    <rect x="98" y="54" width="1" height="1" fill="#231f20"/>
    <rect x="128" y="54" width="1" height="1" fill="#231f20"/>
    <rect x="160" y="54" width="1" height="1" fill="#231f20"/>
    <rect x="0" y="55" width="1" height="1" fill="#231f20"/>
    <rect x="27" y="55" width="1" height="1" fill="#231f20"/>
    <rect x="30" y="55" width="1" height="1" fill="#231f20"/>
    <rect x="34" y="55" width="1" height="1" fill="#231f20"/>
    <rect x="64" y="55" width="1" height="1" fill="#231f20"/>
    <rect x="91" y="55" width="1" height="1" fill="#231f20"/>
    <rect x="94" y="55" width="1" height="1" fill="#231f20"/>
    <rect x="98" y="55" width="1" height="1" fill="#231f20"/>
    <rect x="128" y="55" width="1" height="1" fill="#231f20"/>
    <rect x="160" y="55" width="1" height="1" fill="#231f20"/>
    <rect x="0" y="56" width="1" height="1" fill="#231f20"/>
    <rect x="28" y="56" width="2" height="1" fill="#231f20"/>
    <rect x="34" y="56" width="1" height="1" fill="#231f20"/>
    <rect x="64" y="56" width="1" height="1" fill="#231f20"/>
    <rect x="92" y="56" width="2" height="1" fill="#231f20"/>
    <rect x="98" y="56" width="1" height="1" fill="#231f20"/>
    <rect x="128" y="56" width="1" height="1" fill="#231f20"/>
    <rect x="160" y="56" width="1" height="1" fill="#231f20"/>
    <rect x="0" y="57" width="1" height="1" fill="#231f20"/>
    <rect x="64" y="57" width="1" height="1" fill="#231f20"/>
    <rect x="128" y="57" width="1" height="1" fill="#231f20"/>
    <rect x="160" y="57" width="1" height="1" fill="#231f20"/>
    <rect x="0" y="58" width="1" height="1" fill="#231f20"/>
    <rect x="64" y="58" width="1" height="1" fill="#231f20"/>
    <rect x="128" y="58" width="1" height="1" fill="#231f20"/>
    <rect x="160" y="58" width="1" height="1" fill="#231f20"/>
    <rect x="0" y="59" width="1" height="1" fill="#231f20"/>
    <rect x="64" y="59" width="1" height="1" fill="#231f20"/>
    <rect x="128" y="59" width="1" height="1" fill="#231f20"/>
    <rect x="160" y="59" width="1" height="1" fill="#231f20"/>
    <rect x="0" y="60" width="1" height="1" fill="#231f20"/>
    <rect x="64" y="60" width="1" height="1" fill="#231f20"/>
    <rect x="128" y="60" width="1" height="1" fill="#231f20"/>
    <rect x="160" y="60" width="1" height="1" fill="#231f20"/>
    <rect x="0" y="61" width="1" height="1" fill="#231f20"/>
    <rect x="64" y="61" width="1" height="1" fill="#231f20"/>
    <rect x="128" y="61" width="1" height="1" fill="#231f20"/>
    <rect x="160" y="61" width="1" height="1" fill="#231f20"/>
    <rect x="0" y="62" width="1" height="1" fill="#231f20"/>
    <rect x="64" y="62" width="1" height="1" fill="#231f20"/>
    <rect x="128" y="62" width="1" height="1" fill="#231f20"/>
    <rect x="160" y="62" width="1" height="1" fill="#231f20"/>
    <rect x="0" y="63" width="1" height="1" fill="#231f20"/>
    <rect x="64" y="63" width="1" height="1" fill="#231f20"/>
    <rect x="128" y="63" width="1" height="1" fill="#231f20"/>
    <rect x="160" y="63" width="1" height="1" fill="#231f20"/>
    <rect x="0" y="64" width="161" height="1" fill="#231f20"/>
  </g>
</svg>