<?xml version="1.0" encoding="UTF-8"?>
<svg xmlns="http://www.w3.org/2000/svg" viewBox="0 0 198 80" width="198" height="80">
  <!-- Auto-converted from legend-980.png -->
  <rect x="0" y="0" width="198" height="80" fill="none"/>
  <g fill="#231f20" stroke="none">
    <rect x="0" y="0" width="198" height="1" fill="#231f20"/>
    <rect x="0" y="1" width="1" height="1" fill="#231f20"/>
    <rect x="197" y="1" width="1" height="1" fill="#231f20"/>
    <rect x="0" y="2" width="1" height="1" fill="#231f20"/>
    <rect x="197" y="2" width="1" height="1" fill="#231f20"/>
    <rect x="0" y="3" width="1" height="1" fill="#231f20"/>
    <rect x="197" y="3" width="1" height="1" fill="#231f20"/>
    <rect x="0" y="4" width="1" height="1" fill="#231f20"/>
    <rect x="197" y="4" width="1" height="1" fill="#231f20"/>
    <rect x="0" y="5" width="1" height="1" fill="#231f20"/>
    <rect x="197" y="5" width="1" height="1" fill="#231f20"/>
    <rect x="0" y="6" width="1" height="1" fill="#231f20"/>
    <rect x="197" y="6" width="1" height="1" fill="#231f20"/>
    <rect x="0" y="7" width="1" height="1" fill="#231f20"/>
    <rect x="197" y="7" width="1" height="1" fill="#231f20"/>
    <rect x="0" y="8" width="1" height="1" fill="#231f20"/>
    <rect x="197" y="8" width="1" height="1" fill="#231f20"/>
    <rect x="0" y="9" width="1" height="1" fill="#231f20"/>
    <rect x="197" y="9" width="1" height="1" fill="#231f20"/>
    <rect x="0" y="10" width="1" height="1" fill="#231f20"/>
    <rect x="197" y="10" width="1" height="1" fill="#231f20"/>
    <rect x="0" y="11" width="1" height="1" fill="#231f20"/>
    <rect x="18" y="11" width="4" height="1" fill="#231f20"/>
    <rect x="25" y="11" width="4" height="1" fill="#231f20"/>
    <rect x="74" y="11" width="4" height="1" fill="#231f20"/>
    <rect x="80" y="11" width="4" height="1" fill="#231f20"/>
    <rect x="126" y="11" width="4" height="1" fill="#231f20"/>
    <rect x="133" y="11" width="4" height="1" fill="#231f20"/>
    <rect x="197" y="11" width="1" height="1" fill="#231f20"/>
    <rect x="0" y="12" width="1" height="1" fill="#231f20"/>
    <rect x="18" y="12" width="1" height="1" fill="#231f20"/>
    <rect x="22" y="12" width="1" height="1" fill="#231f20"/>
    <rect x="24" y="12" width="2" height="1" fill="#231f20"/>
    <rect x="28" y="12" width="2" height="1" fill="#231f20"/>
    <rect x="73" y="12" width="1" height="1" fill="#231f20"/>
    <rect x="77" y="12" width="1" height="1" fill="#231f20"/>
    <rect x="80" y="12" width="1" height="1" fill="#231f20"/>
    <rect x="84" y="12" width="1" height="1" fill="#231f20"/>
    <rect x="126" y="12" width="1" height="1" fill="#231f20"/>
    <rect x="130" y="12" width="1" height="1" fill="#231f20"/>
    <rect x="132" y="12" width="2" height="1" fill="#231f20"/>
    <rect x="136" y="12" width="2" height="1" fill="#231f20"/>
    <rect x="197" y="12" width="1" height="1" fill="#231f20"/>
    <rect x="0" y="13" width="1" height="1" fill="#231f20"/>
    <rect x="17" y="13" width="1" height="1" fill="#231f20"/>
    <rect x="22" y="13" width="1" height="1" fill="#231f20"/>
    <rect x="24" y="13" width="1" height="1" fill="#231f20"/>
    <rect x="29" y="13" width="1" height="1" fill="#231f20"/>
    <rect x="73" y="13" width="1" height="1" fill="#231f20"/>
    <rect x="78" y="13" width="2" height="1" fill="#231f20"/>
    <rect x="84" y="13" width="1" height="1" fill="#231f20"/>
    <rect x="125" y="13" width="1" height="1" fill="#231f20"/>
    <rect x="130" y="13" width="1" height="1" fill="#231f20"/>
    <rect x="132" y="13" width="1" height="1" fill="#231f20"/>
    <rect x="137" y="13" width="1" height="1" fill="#231f20"/>
    <rect x="197" y="13" width="1" height="1" fill="#231f20"/>
    <rect x="0" y="14" width="1" height="1" fill="#231f20"/>
    <rect x="17" y="14" width="1" height="1" fill="#231f20"/>
    <rect x="22" y="14" width="3" height="1" fill="#231f20"/>
    <rect x="29" y="14" width="1" height="1" fill="#231f20"/>
    <rect x="73" y="14" width="1" height="1" fill="#231f20"/>
    <rect x="78" y="14" width="2" height="1" fill="#231f20"/>
    <rect x="84" y="14" width="2" height="1" fill="#231f20"/>
    <rect x="125" y="14" width="1" height="1" fill="#231f20"/>
    <rect x="130" y="14" width="1" height="1" fill="#231f20"/>
    <rect x="132" y="14" width="1" height="1" fill="#231f20"/>
    <rect x="137" y="14" width="1" height="1" fill="#231f20"/>
    <rect x="197" y="14" width="1" height="1" fill="#231f20"/>
    <rect x="0" y="15" width="1" height="1" fill="#231f20"/>
    <rect x="17" y="15" width="2" height="1" fill="#231f20"/>
    <rect x="22" y="15" width="1" height="1" fill="#231f20"/>
    <rect x="24" y="15" width="2" height="1" fill="#231f20"/>
    <rect x="28" y="15" width="2" height="1" fill="#231f20"/>
    <rect x="73" y="15" width="1" height="1" fill="#231f20"/>
    <rect x="77" y="15" width="4" height="1" fill="#231f20"/>
    <rect x="84" y="15" width="1" height="1" fill="#231f20"/>
    <rect x="125" y="15" width="2" height="1" fill="#231f20"/>
    <rect x="130" y="15" width="1" height="1" fill="#231f20"/>
    <rect x="132" y="15" width="2" height="1" fill="#231f20"/>
    <rect x="136" y="15" width="2" height="1" fill="#231f20"/>
    <rect x="197" y="15" width="1" height="1" fill="#231f20"/>
    <rect x="0" y="16" width="1" height="1" fill="#231f20"/>
    <rect x="18" y="16" width="4" height="1" fill="#231f20"/>
    <rect x="25" y="16" width="4" height="1" fill="#231f20"/>
    <rect x="74" y="16" width="4" height="1" fill="#231f20"/>
    <rect x="80" y="16" width="4" height="1" fill="#231f20"/>
    <rect x="126" y="16" width="4" height="1" fill="#231f20"/>
    <rect x="133" y="16" width="4" height="1" fill="#231f20"/>
    <rect x="197" y="16" width="1" height="1" fill="#231f20"/>
    <rect x="0" y="17" width="1" height="1" fill="#231f20"/>
    <rect x="197" y="17" width="1" height="1" fill="#231f20"/>
    <rect x="0" y="18" width="1" height="1" fill="#231f20"/>
    <rect x="197" y="18" width="1" height="1" fill="#231f20"/>
    <rect x="0" y="19" width="1" height="1" fill="#231f20"/>
    <rect x="197" y="19" width="1" height="1" fill="#231f20"/>
    <rect x="0" y="20" width="1" height="1" fill="#231f20"/>
    <rect x="197" y="20" width="1" height="1" fill="#231f20"/>
    <rect x="0" y="21" width="1" height="1" fill="#231f20"/>
    <rect x="197" y="21" width="1" height="1" fill="#231f20"/>
    <rect x="0" y="22" width="1" height="1" fill="#231f20"/>
    <rect x="197" y="22" width="1" height="1" fill="#231f20"/>
    <rect x="0" y="23" width="1" height="1" fill="#231f20"/>
    <rect x="197" y="23" width="1" height="1" fill="#231f20"/>
    <rect x="0" y="24" width="1" height="1" fill="#231f20"/>
    <rect x="197" y="24" width="1" height="1" fill="#231f20"/>
    <rect x="0" y="25" width="1" height="1" fill="#231f20"/>
    <rect x="197" y="25" width="1" height="1" fill="#231f20"/>
    <rect x="0" y="26" width="1" height="1" fill="#231f20"/>
    <rect x="197" y="26" width="1" height="1" fill="#231f20"/>
    <rect x="0" y="27" width="198" height="1" fill="#231f20"/>
    <rect x="0" y="28" width="1" height="1" fill="#231f20"/>
    <rect x="197" y="28" width="1" height="1" fill="#231f20"/>
    <rect x="0" y="29" width="1" height="1" fill="#231f20"/>
    <rect x="197" y="29" width="1" height="1" fill="#231f20"/>
    <rect x="0" y="30" width="1" height="1" fill="#231f20"/>
    <rect x="197" y="30" width="1" height="1" fill="#231f20"/>
    <rect x="0" y="31" width="1" height="1" fill="#231f20"/>
    <rect x="197" y="31" width="1" height="1" fill="#231f20"/>
    <rect x="0" y="32" width="1" height="1" fill="#231f20"/>
    <rect x="197" y="32" width="1" height="1" fill="#231f20"/>
    <rect x="0" y="33" width="1" height="1" fill="#231f20"/>
    <rect x="197" y="33" width="1" height="1" fill="#231f20"/>
    <rect x="0" y="34" width="1" height="1" fill="#231f20"/>
    <rect x="197" y="34" width="1" height="1" fill="#231f20"/>
    <rect x="0" y="35" width="1" height="1" fill="#231f20"/>
    <rect x="197" y="35" width="1" height="1" fill="#231f20"/>
    <rect x="0" y="36" width="1" height="1" fill="#231f20"/>
    <rect x="197" y="36" width="1" height="1" fill="#231f20"/>
    <rect x="0" y="37" width="1" height="1" fill="#231f20"/>
    <rect x="61" y="37" width="4" height="1" fill="#231f20"/>
    <rect x="68" y="37" width="3" height="1" fill="#231f20"/>
    <rect x="116" y="37" width="4" height="1" fill="#231f20"/>
    <rect x="123" y="37" width="4" height="1" fill="#231f20"/>
    <rect x="169" y="37" width="4" height="1" fill="#231f20"/>
    <rect x="175" y="37" width="4" height="1" fill="#231f20"/>
    <rect x="197" y="37" width="1" height="1" fill="#231f20"/>
    <rect x="0" y="38" width="1" height="1" fill="#231f20"/>
    <rect x="60" y="38" width="2" height="1" fill="#231f20"/>
    <rect x="64" y="38" width="2" height="1" fill="#231f20"/>
    <rect x="67" y="38" width="1" height="1" fill="#231f20"/>
    <rect x="71" y="38" width="1" height="1" fill="#231f20"/>
    <rect x="116" y="38" width="1" height="1" fill="#231f20"/>
    <rect x="120" y="38" width="1" height="1" fill="#231f20"/>
    <rect x="122" y="38" width="2" height="1" fill="#231f20"/>
    <rect x="126" y="38" width="2" height="1" fill="#231f20"/>
    <rect x="168" y="38" width="2" height="1" fill="#231f20"/>
    <rect x="172" y="38" width="2" height="1" fill="#231f20"/>
    <rect x="175" y="38" width="1" height="1" fill="#231f20"/>
    <rect x="179" y="38" width="1" height="1" fill="#231f20"/>
    <rect x="197" y="38" width="1" height="1" fill="#231f20"/>
    <rect x="0" y="39" width="1" height="1" fill="#231f20"/>
    <rect x="60" y="39" width="1" height="1" fill="#231f20"/>
    <rect x="65" y="39" width="3" height="1" fill="#231f20"/>
    <rect x="71" y="39" width="2" height="1" fill="#231f20"/>
    <rect x="115" y="39" width="1" height="1" fill="#231f20"/>
    <rect x="120" y="39" width="1" height="1" fill="#231f20"/>
    <rect x="122" y="39" width="1" height="1" fill="#231f20"/>
    <rect x="127" y="39" width="1" height="1" fill="#231f20"/>
    <rect x="168" y="39" width="1" height="1" fill="#231f20"/>
    <rect x="173" y="39" width="3" height="1" fill="#231f20"/>
    <rect x="179" y="39" width="2" height="1" fill="#231f20"/>
    <rect x="197" y="39" width="1" height="1" fill="#231f20"/>
    <rect x="0" y="40" width="1" height="1" fill="#231f20"/>
    <rect x="60" y="40" width="1" height="1" fill="#231f20"/>
    <rect x="65" y="40" width="2" height="1" fill="#231f20"/>
    <rect x="72" y="40" width="1" height="1" fill="#231f20"/>
    <rect x="115" y="40" width="1" height="1" fill="#231f20"/>
    <rect x="120" y="40" width="1" height="1" fill="#231f20"/>
    <rect x="122" y="40" width="1" height="1" fill="#231f20"/>
    <rect x="127" y="40" width="1" height="1" fill="#231f20"/>
    <rect x="168" y="40" width="1" height="1" fill="#231f20"/>
    <rect x="173" y="40" width="2" height="1" fill="#231f20"/>
    <rect x="180" y="40" width="1" height="1" fill="#231f20"/>
    <rect x="197" y="40" width="1" height="1" fill="#231f20"/>
    <rect x="0" y="41" width="1" height="1" fill="#231f20"/>
    <rect x="60" y="41" width="2" height="1" fill="#231f20"/>
    <rect x="64" y="41" width="2" height="1" fill="#231f20"/>
    <rect x="67" y="41" width="1" height="1" fill="#231f20"/>
    <rect x="71" y="41" width="1" height="1" fill="#231f20"/>
    <rect x="115" y="41" width="2" height="1" fill="#231f20"/>
    <rect x="120" y="41" width="1" height="1" fill="#231f20"/>
    <rect x="122" y="41" width="2" height="1" fill="#231f20"/>
    <rect x="126" y="41" width="2" height="1" fill="#231f20"/>
    <rect x="168" y="41" width="2" height="1" fill="#231f20"/>
    <rect x="172" y="41" width="2" height="1" fill="#231f20"/>
    <rect x="175" y="41" width="1" height="1" fill="#231f20"/>
    <rect x="179" y="41" width="1" height="1" fill="#231f20"/>
    <rect x="197" y="41" width="1" height="1" fill="#231f20"/>
    <rect x="0" y="42" width="1" height="1" fill="#231f20"/>
    <rect x="61" y="42" width="4" height="1" fill="#231f20"/>
    <rect x="68" y="42" width="3" height="1" fill="#231f20"/>
    <rect x="116" y="42" width="4" height="1" fill="#231f20"/>
    <rect x="123" y="42" width="4" height="1" fill="#231f20"/>
    <rect x="169" y="42" width="4" height="1" fill="#231f20"/>
    <rect x="175" y="42" width="4" height="1" fill="#231f20"/>
    <rect x="197" y="42" width="1" height="1" fill="#231f20"/>
    <rect x="0" y="43" width="1" height="1" fill="#231f20"/>
    <rect x="197" y="43" width="1" height="1" fill="#231f20"/>
    <rect x="0" y="44" width="1" height="1" fill="#231f20"/>
    <rect x="197" y="44" width="1" height="1" fill="#231f20"/>
    <rect x="0" y="45" width="1" height="1" fill="#231f20"/>
    <rect x="197" y="45" width="1" height="1" fill="#231f20"/>
    <rect x="0" y="46" width="1" height="1" fill="#231f20"/>
    <rect x="197" y="46" width="1" height="1" fill="#231f20"/>
    <rect x="0" y="47" width="1" height="1" fill="#231f20"/>
    <rect x="197" y="47" width="1" height="1" fill="#231f20"/>
    <rect x="0" y="48" width="1" height="1" fill="#231f20"/>
    <rect x="197" y="48" width="1" height="1" fill="#231f20"/>
    <rect x="0" y="49" width="1" height="1" fill="#231f20"/>
    <rect x="197" y="49" width="1" height="1" fill="#231f20"/>
    <rect x="0" y="50" width="1" height="1" fill="#231f20"/>
    <rect x="197" y="50" width="1" height="1" fill="#231f20"/>
    <rect x="0" y="51" width="1" height="1" fill="#231f20"/>
    <rect x="197" y="51" width="1" height="1" fill="#231f20"/>
    <rect x="0" y="52" width="1" height="1" fill="#231f20"/>
    <rect x="197" y="52" width="1" height="1" fill="#231f20"/>
    <rect x="0" y="53" width="198" height="1" fill="#231f20"/>
    <rect x="0" y="54" width="1" height="1" fill="#231f20"/>
    <rect x="197" y="54" width="1" height="1" fill="#231f20"/>
    <rect x="0" y="55" width="1" height="1" fill="#231f20"/>
    <rect x="197" y="55" width="1" height="1" fill="#231f20"/>
    <rect x="0" y="56" width="1" height="1" fill="#231f20"/>
    <rect x="197" y="56" width="1" height="1" fill="#231f20"/>
    <rect x="0" y="57" width="1" height="1" fill="#231f20"/>
    <rect x="197" y="57" width="1" height="1" fill="#231f20"/>
    <rect x="0" y="58" width="1" height="1" fill="#231f20"/>
    <rect x="197" y="58" width="1" height="1" fill="#231f20"/>
    <rect x="0" y="59" width="1" height="1" fill="#231f20"/>
    <rect x="197" y="59" width="1" height="1" fill="#231f20"/>
    <rect x="0" y="60" width="1" height="1" fill="#231f20"/>
    <rect x="197" y="60" width="1" height="1" fill="#231f20"/>
    <rect x="0" y="61" width="1" height="1" fill="#231f20"/>
    <rect x="197" y="61" width="1" height="1" fill="#231f20"/>
    <rect x="0" y="62" width="1" height="1" fill="#231f20"/>
    <rect x="197" y="62" width="1" height="1" fill="#231f20"/>
    <rect x="0" y="63" width="1" height="1" fill="#231f20"/>
    <rect x="197" y="63" width="1" height="1" fill="#231f20"/>
    <rect x="0" y="64" width="1" height="1" fill="#231f20"/>
    <rect x="18" y="64" width="5" height="1" fill="#231f20"/>
    <rect x="25" y="64" width="4" height="1" fill="#231f20"/>
    <rect x="73" y="64" width="5" height="1" fill="#231f20"/>
    <rect x="80" y="64" width="5" height="1" fill="#231f20"/>
    <rect x="126" y="64" width="1" height="1" fill="#231f20"/>
    <rect x="130" y="64" width="1" height="1" fill="#231f20"/>
    <rect x="133" y="64" width="4" height="1" fill="#231f20"/>
    <rect x="197" y="64" width="1" height="1" fill="#231f20"/>
    <rect x="0" y="65" width="1" height="1" fill="#231f20"/>
    <rect x="17" y="65" width="2" height="1" fill="#231f20"/>
    <rect x="22" y="65" width="1" height="1" fill="#231f20"/>
    <rect x="24" y="65" width="1" height="1" fill="#231f20"/>
    <rect x="29" y="65" width="1" height="1" fill="#231f20"/>
    <rect x="73" y="65" width="1" height="1" fill="#231f20"/>
    <rect x="77" y="65" width="4" height="1" fill="#231f20"/>
    <rect x="84" y="65" width="1" height="1" fill="#231f20"/>
    <rect x="125" y="65" width="2" height="1" fill="#231f20"/>
    <rect x="130" y="65" width="1" height="1" fill="#231f20"/>
    <rect x="132" y="65" width="1" height="1" fill="#231f20"/>
    <rect x="137" y="65" width="1" height="1" fill="#231f20"/>
    <rect x="197" y="65" width="1" height="1" fill="#231f20"/>
    <rect x="0" y="66" width="1" height="1" fill="#231f20"/>
    <rect x="17" y="66" width="1" height="1" fill="#231f20"/>
    <rect x="22" y="66" width="3" height="1" fill="#231f20"/>
    <rect x="29" y="66" width="1" height="1" fill="#231f20"/>
    <rect x="73" y="66" width="1" height="1" fill="#231f20"/>
    <rect x="78" y="66" width="2" height="1" fill="#231f20"/>
    <rect x="84" y="66" width="2" height="1" fill="#231f20"/>
    <rect x="130" y="66" width="1" height="1" fill="#231f20"/>
    <rect x="132" y="66" width="1" height="1" fill="#231f20"/>
    <rect x="137" y="66" width="1" height="1" fill="#231f20"/>
    <rect x="197" y="66" width="1" height="1" fill="#231f20"/>
    <rect x="0" y="67" width="1" height="1" fill="#231f20"/>
    <rect x="17" y="67" width="1" height="1" fill="#231f20"/>
    <rect x="22" y="67" width="1" height="1" fill="#231f20"/>
    <rect x="24" y="67" width="1" height="1" fill="#231f20"/>
    <rect x="29" y="67" width="1" height="1" fill="#231f20"/>
    <rect x="73" y="67" width="1" height="1" fill="#231f20"/>
    <rect x="78" y="67" width="2" height="1" fill="#231f20"/>
    <rect x="84" y="67" width="1" height="1" fill="#231f20"/>
    <rect x="132" y="67" width="1" height="1" fill="#231f20"/>
    <rect x="137" y="67" width="1" height="1" fill="#231f20"/>
    <rect x="197" y="67" width="1" height="1" fill="#231f20"/>
    <rect x="0" y="68" width="1" height="1" fill="#231f20"/>
    <rect x="18" y="68" width="1" height="1" fill="#231f20"/>
    <rect x="21" y="68" width="2" height="1" fill="#231f20"/>
    <rect x="24" y="68" width="2" height="1" fill="#231f20"/>
    <rect x="28" y="68" width="2" height="1" fill="#231f20"/>
    <rect x="73" y="68" width="2" height="1" fill="#231f20"/>
    <rect x="77" y="68" width="1" height="1" fill="#231f20"/>
    <rect x="80" y="68" width="1" height="1" fill="#231f20"/>
    <rect x="83" y="68" width="2" height="1" fill="#231f20"/>
    <rect x="132" y="68" width="2" height="1" fill="#231f20"/>
    <rect x="136" y="68" width="2" height="1" fill="#231f20"/>
    <rect x="197" y="68" width="1" height="1" fill="#231f20"/>
    <rect x="0" y="69" width="1" height="1" fill="#231f20"/>
    <rect x="19" y="69" width="3" height="1" fill="#231f20"/>
    <rect x="25" y="69" width="3" height="1" fill="#231f20"/>
    <rect x="74" y="69" width="3" height="1" fill="#231f20"/>
    <rect x="81" y="69" width="3" height="1" fill="#231f20"/>
    <rect x="127" y="69" width="3" height="1" fill="#231f20"/>
    <rect x="133" y="69" width="3" height="1" fill="#231f20"/>
    <rect x="197" y="69" width="1" height="1" fill="#231f20"/>
    <rect x="0" y="70" width="1" height="1" fill="#231f20"/>
    <rect x="197" y="70" width="1" height="1" fill="#231f20"/>
    <rect x="0" y="71" width="1" height="1" fill="#231f20"/>
    <rect x="197" y="71" width="1" height="1" fill="#231f20"/>
    <rect x="0" y="72" width="1" height="1" fill="#231f20"/>
    <rect x="197" y="72" width="1" height="1" fill="#231f20"/>
    <rect x="0" y="73" width="1" height="1" fill="#231f20"/>
    <rect x="197" y="73" width="1" height="1" fill="#231f20"/>
    <rect x="0" y="74" width="1" height="1" fill="#231f20"/>
    <rect x="197" y="74" width="1" height="1" fill="#231f20"/>
    <rect x="0" y="75" width="1" height="1" fill="#231f20"/>
    <rect x="197" y="75" width="1" height="1" fill="#231f20"/>
    <rect x="0" y="76" width="1" height="1" fill="#231f20"/>
    <rect x="197" y="76" width="1" height="1" fill="#231f20"/>
    <rect x="0" y="77" width="1" height="1" fill="#231f20"/>
    <rect x="197" y="77" width="1" height="1" fill="#231f20"/>
    <rect x="0" y="78" width="1" height="1" fill="#231f20"/>
    <rect x="197" y="78" width="1" height="1" fill="#231f20"/>
    <rect x="0" y="79" width="198" height="1" fill="#231f20"/>
  </g>
</svg>