<?xml version="1.0" encoding="UTF-8"?>
<svg xmlns="http://www.w3.org/2000/svg" viewBox="0 0 125 84" width="125" height="84">
  <!-- Auto-converted from legend-308.png -->
  <rect x="0" y="0" width="125" height="84" fill="none"/>
  <g fill="#231f20" stroke="none">
    <rect x="1" y="0" width="124" height="1" fill="#231f20"/>
    <rect x="1" y="1" width="1" height="1" fill="#231f20"/>
    <rect x="124" y="1" width="1" height="1" fill="#231f20"/>
    <rect x="1" y="2" width="1" height="1" fill="#231f20"/>
    <rect x="120" y="2" width="3" height="1" fill="#231f20"/>
    <rect x="124" y="2" width="1" height="1" fill="#231f20"/>
    <rect x="1" y="3" width="1" height="1" fill="#231f20"/>
    <rect x="118" y="3" width="7" height="1" fill="#231f20"/>
    <rect x="1" y="4" width="1" height="1" fill="#231f20"/>
    <rect x="116" y="4" width="9" height="1" fill="#231f20"/>
    <rect x="1" y="5" width="1" height="1" fill="#231f20"/>
    <rect x="114" y="5" width="11" height="1" fill="#231f20"/>
    <rect x="1" y="6" width="1" height="1" fill="#231f20"/>
    <rect x="112" y="6" width="11" height="1" fill="#231f20"/>
    <rect x="124" y="6" width="1" height="1" fill="#231f20"/>
    <rect x="1" y="7" width="1" height="1" fill="#231f20"/>
    <rect x="110" y="7" width="12" height="1" fill="#231f20"/>
    <rect x="124" y="7" width="1" height="1" fill="#231f20"/>
    <rect x="1" y="8" width="1" height="1" fill="#231f20"/>
    <rect x="108" y="8" width="12" height="1" fill="#231f20"/>
    <rect x="124" y="8" width="1" height="1" fill="#231f20"/>
    <rect x="1" y="9" width="1" height="1" fill="#231f20"/>
    <rect x="106" y="9" width="12" height="1" fill="#231f20"/>
    <rect x="124" y="9" width="1" height="1" fill="#231f20"/>
    <rect x="1" y="10" width="1" height="1" fill="#231f20"/>
    <rect x="104" y="10" width="12" height="1" fill="#231f20"/>
    <rect x="124" y="10" width="1" height="1" fill="#231f20"/>
    <rect x="1" y="11" width="1" height="1" fill="#231f20"/>
    <rect x="102" y="11" width="12" height="1" fill="#231f20"/>
    <rect x="124" y="11" width="1" height="1" fill="#231f20"/>
    <rect x="1" y="12" width="1" height="1" fill="#231f20"/>
    <rect x="100" y="12" width="12" height="1" fill="#231f20"/>
    <rect x="124" y="12" width="1" height="1" fill="#231f20"/>
    <rect x="1" y="13" width="1" height="1" fill="#231f20"/>
    <rect x="98" y="13" width="12" height="1" fill="#231f20"/>
    <rect x="124" y="13" width="1" height="1" fill="#231f20"/>
    <rect x="1" y="14" width="1" height="1" fill="#231f20"/>
    <rect x="97" y="14" width="11" height="1" fill="#231f20"/>
    <rect x="124" y="14" width="1" height="1" fill="#231f20"/>
    <rect x="1" y="15" width="1" height="1" fill="#231f20"/>
    <rect x="95" y="15" width="11" height="1" fill="#231f20"/>
    <rect x="124" y="15" width="1" height="1" fill="#231f20"/>
    <rect x="1" y="16" width="1" height="1" fill="#231f20"/>
    <rect x="94" y="16" width="10" height="1" fill="#231f20"/>
    <rect x="124" y="16" width="1" height="1" fill="#231f20"/>
    <rect x="1" y="17" width="1" height="1" fill="#231f20"/>
    <rect x="92" y="17" width="10" height="1" fill="#231f20"/>
    <rect x="124" y="17" width="1" height="1" fill="#231f20"/>
    <rect x="1" y="18" width="1" height="1" fill="#231f20"/>
    <rect x="90" y="18" width="10" height="1" fill="#231f20"/>
    <rect x="124" y="18" width="1" height="1" fill="#231f20"/>
    <rect x="1" y="19" width="1" height="1" fill="#231f20"/>
    <rect x="89" y="19" width="10" height="1" fill="#231f20"/>
    <rect x="124" y="19" width="1" height="1" fill="#231f20"/>
    <rect x="1" y="20" width="1" height="1" fill="#231f20"/>
    <rect x="47" y="20" width="1" height="1" fill="#231f20"/>
    <rect x="87" y="20" width="10" height="1" fill="#231f20"/>
    <rect x="124" y="20" width="1" height="1" fill="#231f20"/>
    <rect x="1" y="21" width="1" height="1" fill="#231f20"/>
    <rect x="47" y="21" width="2" height="1" fill="#231f20"/>
    <rect x="85" y="21" width="10" height="1" fill="#231f20"/>
    <rect x="124" y="21" width="1" height="1" fill="#231f20"/>
    <rect x="1" y="22" width="1" height="1" fill="#231f20"/>
    <rect x="48" y="22" width="3" height="1" fill="#231f20"/>
    <rect x="83" y="22" width="11" height="1" fill="#231f20"/>
    <rect x="124" y="22" width="1" height="1" fill="#231f20"/>
    <rect x="1" y="23" width="1" height="1" fill="#231f20"/>
    <rect x="48" y="23" width="1" height="1" fill="#231f20"/>
    <rect x="51" y="23" width="1" height="1" fill="#231f20"/>
    <rect x="81" y="23" width="11" height="1" fill="#231f20"/>
    <rect x="124" y="23" width="1" height="1" fill="#231f20"/>
    <rect x="1" y="24" width="1" height="1" fill="#231f20"/>
    <rect x="48" y="24" width="1" height="1" fill="#231f20"/>
    <rect x="52" y="24" width="1" height="1" fill="#231f20"/>
    <rect x="79" y="24" width="12" height="1" fill="#231f20"/>
    <rect x="124" y="24" width="1" height="1" fill="#231f20"/>
    <rect x="1" y="25" width="1" height="1" fill="#231f20"/>
    <rect x="49" y="25" width="1" height="1" fill="#231f20"/>
    <rect x="53" y="25" width="1" height="1" fill="#231f20"/>
    <rect x="77" y="25" width="12" height="1" fill="#231f20"/>
    <rect x="124" y="25" width="1" height="1" fill="#231f20"/>
    <rect x="1" y="26" width="1" height="1" fill="#231f20"/>
    <rect x="49" y="26" width="1" height="1" fill="#231f20"/>
    <rect x="54" y="26" width="2" height="1" fill="#231f20"/>
    <rect x="75" y="26" width="12" height="1" fill="#231f20"/>
    <rect x="124" y="26" width="1" height="1" fill="#231f20"/>
    <rect x="1" y="27" width="1" height="1" fill="#231f20"/>
    <rect x="49" y="27" width="1" height="1" fill="#231f20"/>
    <rect x="56" y="27" width="1" height="1" fill="#231f20"/>
    <rect x="74" y="27" width="11" height="1" fill="#231f20"/>
    <rect x="124" y="27" width="1" height="1" fill="#231f20"/>
    <rect x="1" y="28" width="1" height="1" fill="#231f20"/>
    <rect x="49" y="28" width="1" height="1" fill="#231f20"/>
    <rect x="57" y="28" width="1" height="1" fill="#231f20"/>
    <rect x="72" y="28" width="11" height="1" fill="#231f20"/>
    <rect x="124" y="28" width="1" height="1" fill="#231f20"/>
    <rect x="1" y="29" width="1" height="1" fill="#231f20"/>
    <rect x="50" y="29" width="1" height="1" fill="#231f20"/>
    <rect x="58" y="29" width="2" height="1" fill="#231f20"/>
    <rect x="71" y="29" width="10" height="1" fill="#231f20"/>
    <rect x="124" y="29" width="1" height="1" fill="#231f20"/>
    <rect x="1" y="30" width="1" height="1" fill="#231f20"/>
    <rect x="50" y="30" width="1" height="1" fill="#231f20"/>
    <rect x="60" y="30" width="1" height="1" fill="#231f20"/>
    <rect x="70" y="30" width="9" height="1" fill="#231f20"/>
    <rect x="124" y="30" width="1" height="1" fill="#231f20"/>
    <rect x="1" y="31" width="1" height="1" fill="#231f20"/>
    <rect x="50" y="31" width="1" height="1" fill="#231f20"/>
    <rect x="61" y="31" width="1" height="1" fill="#231f20"/>
    <rect x="68" y="31" width="9" height="1" fill="#231f20"/>
    <rect x="124" y="31" width="1" height="1" fill="#231f20"/>
    <rect x="1" y="32" width="1" height="1" fill="#231f20"/>
    <rect x="51" y="32" width="1" height="1" fill="#231f20"/>
    <rect x="62" y="32" width="1" height="1" fill="#231f20"/>
    <rect x="66" y="32" width="10" height="1" fill="#231f20"/>
    <rect x="124" y="32" width="1" height="1" fill="#231f20"/>
    <rect x="1" y="33" width="1" height="1" fill="#231f20"/>
    <rect x="51" y="33" width="1" height="1" fill="#231f20"/>
    <rect x="63" y="33" width="11" height="1" fill="#231f20"/>
    <rect x="124" y="33" width="1" height="1" fill="#231f20"/>
    <rect x="1" y="34" width="1" height="1" fill="#231f20"/>
    <rect x="51" y="34" width="1" height="1" fill="#231f20"/>
    <rect x="63" y="34" width="10" height="1" fill="#231f20"/>
    <rect x="124" y="34" width="1" height="1" fill="#231f20"/>
    <rect x="1" y="35" width="1" height="1" fill="#231f20"/>
    <rect x="52" y="35" width="1" height="1" fill="#231f20"/>
    <rect x="61" y="35" width="10" height="1" fill="#231f20"/>
    <rect x="124" y="35" width="1" height="1" fill="#231f20"/>
    <rect x="1" y="36" width="1" height="1" fill="#231f20"/>
    <rect x="52" y="36" width="1" height="1" fill="#231f20"/>
    <rect x="60" y="36" width="10" height="1" fill="#231f20"/>
    <rect x="124" y="36" width="1" height="1" fill="#231f20"/>
    <rect x="1" y="37" width="1" height="1" fill="#231f20"/>
    <rect x="52" y="37" width="1" height="1" fill="#231f20"/>
    <rect x="59" y="37" width="9" height="1" fill="#231f20"/>
    <rect x="124" y="37" width="1" height="1" fill="#231f20"/>
    <rect x="1" y="38" width="1" height="1" fill="#231f20"/>
    <rect x="52" y="38" width="1" height="1" fill="#231f20"/>
    <rect x="57" y="38" width="9" height="1" fill="#231f20"/>
    <rect x="124" y="38" width="1" height="1" fill="#231f20"/>
    <rect x="1" y="39" width="1" height="1" fill="#231f20"/>
    <rect x="53" y="39" width="1" height="1" fill="#231f20"/>
    <rect x="55" y="39" width="10" height="1" fill="#231f20"/>
    <rect x="124" y="39" width="1" height="1" fill="#231f20"/>
    <rect x="1" y="40" width="1" height="1" fill="#231f20"/>
    <rect x="53" y="40" width="10" height="1" fill="#231f20"/>
    <rect x="124" y="40" width="1" height="1" fill="#231f20"/>
    <rect x="1" y="41" width="1" height="1" fill="#231f20"/>
    <rect x="52" y="41" width="10" height="1" fill="#231f20"/>
    <rect x="124" y="41" width="1" height="1" fill="#231f20"/>
    <rect x="1" y="42" width="1" height="1" fill="#231f20"/>
    <rect x="52" y="42" width="8" height="1" fill="#231f20"/>
    <rect x="124" y="42" width="1" height="1" fill="#231f20"/>
    <rect x="1" y="43" width="1" height="1" fill="#231f20"/>
    <rect x="51" y="43" width="8" height="1" fill="#231f20"/>
    <rect x="124" y="43" width="1" height="1" fill="#231f20"/>
    <rect x="1" y="44" width="1" height="1" fill="#231f20"/>
    <rect x="48" y="44" width="9" height="1" fill="#231f20"/>
    <rect x="124" y="44" width="1" height="1" fill="#231f20"/>
    <rect x="1" y="45" width="1" height="1" fill="#231f20"/>
    <rect x="46" y="45" width="9" height="1" fill="#231f20"/>
    <rect x="124" y="45" width="1" height="1" fill="#231f20"/>
    <rect x="1" y="46" width="1" height="1" fill="#231f20"/>
    <rect x="45" y="46" width="8" height="1" fill="#231f20"/>
    <rect x="124" y="46" width="1" height="1" fill="#231f20"/>
    <rect x="1" y="47" width="1" height="1" fill="#231f20"/>
    <rect x="45" y="47" width="7" height="1" fill="#231f20"/>
    <rect x="124" y="47" width="1" height="1" fill="#231f20"/>
    <rect x="1" y="48" width="1" height="1" fill="#231f20"/>
    <rect x="44" y="48" width="8" height="1" fill="#231f20"/>
    <rect x="124" y="48" width="1" height="1" fill="#231f20"/>
    <rect x="1" y="49" width="1" height="1" fill="#231f20"/>
    <rect x="41" y="49" width="9" height="1" fill="#231f20"/>
    <rect x="124" y="49" width="1" height="1" fill="#231f20"/>
    <rect x="1" y="50" width="1" height="1" fill="#231f20"/>
    <rect x="39" y="50" width="9" height="1" fill="#231f20"/>
    <rect x="124" y="50" width="1" height="1" fill="#231f20"/>
    <rect x="1" y="51" width="1" height="1" fill="#231f20"/>
    <rect x="38" y="51" width="8" height="1" fill="#231f20"/>
    <rect x="124" y="51" width="1" height="1" fill="#231f20"/>
    <rect x="1" y="52" width="1" height="1" fill="#231f20"/>
    <rect x="38" y="52" width="7" height="1" fill="#231f20"/>
    <rect x="124" y="52" width="1" height="1" fill="#231f20"/>
    <rect x="1" y="53" width="1" height="1" fill="#231f20"/>
    <rect x="37" y="53" width="8" height="1" fill="#231f20"/>
    <rect x="124" y="53" width="1" height="1" fill="#231f20"/>
    <rect x="1" y="54" width="1" height="1" fill="#231f20"/>
    <rect x="34" y="54" width="9" height="1" fill="#231f20"/>
    <rect x="124" y="54" width="1" height="1" fill="#231f20"/>
    <rect x="1" y="55" width="1" height="1" fill="#231f20"/>
    <rect x="32" y="55" width="9" height="1" fill="#231f20"/>
    <rect x="124" y="55" width="1" height="1" fill="#231f20"/>
    <rect x="1" y="56" width="1" height="1" fill="#231f20"/>
    <rect x="31" y="56" width="8" height="1" fill="#231f20"/>
    <rect x="124" y="56" width="1" height="1" fill="#231f20"/>
    <rect x="1" y="57" width="1" height="1" fill="#231f20"/>
    <rect x="30" y="57" width="8" height="1" fill="#231f20"/>
    <rect x="124" y="57" width="1" height="1" fill="#231f20"/>
    <rect x="1" y="58" width="1" height="1" fill="#231f20"/>
    <rect x="29" y="58" width="9" height="1" fill="#231f20"/>
    <rect x="124" y="58" width="1" height="1" fill="#231f20"/>
    <rect x="1" y="59" width="1" height="1" fill="#231f20"/>
    <rect x="27" y="59" width="9" height="1" fill="#231f20"/>
    <rect x="124" y="59" width="1" height="1" fill="#231f20"/>
    <rect x="1" y="60" width="1" height="1" fill="#231f20"/>
    <rect x="26" y="60" width="8" height="1" fill="#231f20"/>
    <rect x="124" y="60" width="1" height="1" fill="#231f20"/>
    <rect x="1" y="61" width="1" height="1" fill="#231f20"/>
    <rect x="25" y="61" width="8" height="1" fill="#231f20"/>
    <rect x="124" y="61" width="1" height="1" fill="#231f20"/>
    <rect x="1" y="62" width="1" height="1" fill="#231f20"/>
    <rect x="24" y="62" width="8" height="1" fill="#231f20"/>
    <rect x="124" y="62" width="1" height="1" fill="#231f20"/>
    <rect x="1" y="63" width="1" height="1" fill="#231f20"/>
    <rect x="22" y="63" width="9" height="1" fill="#231f20"/>
    <rect x="124" y="63" width="1" height="1" fill="#231f20"/>
    <rect x="1" y="64" width="1" height="1" fill="#231f20"/>
    <rect x="21" y="64" width="8" height="1" fill="#231f20"/>
    <rect x="124" y="64" width="1" height="1" fill="#231f20"/>
    <rect x="1" y="65" width="1" height="1" fill="#231f20"/>
    <rect x="20" y="65" width="8" height="1" fill="#231f20"/>
    <rect x="124" y="65" width="1" height="1" fill="#231f20"/>
    <rect x="1" y="66" width="1" height="1" fill="#231f20"/>
    <rect x="18" y="66" width="9" height="1" fill="#231f20"/>
    <rect x="124" y="66" width="1" height="1" fill="#231f20"/>
    <rect x="1" y="67" width="1" height="1" fill="#231f20"/>
    <rect x="17" y="67" width="9" height="1" fill="#231f20"/>
    <rect x="124" y="67" width="1" height="1" fill="#231f20"/>
    <rect x="1" y="68" width="1" height="1" fill="#231f20"/>
    <rect x="16" y="68" width="8" height="1" fill="#231f20"/>
    <rect x="124" y="68" width="1" height="1" fill="#231f20"/>
    <rect x="1" y="69" width="1" height="1" fill="#231f20"/>
    <rect x="14" y="69" width="9" height="1" fill="#231f20"/>
    <rect x="124" y="69" width="1" height="1" fill="#231f20"/>
    <rect x="1" y="70" width="1" height="1" fill="#231f20"/>
    <rect x="13" y="70" width="9" height="1" fill="#231f20"/>
    <rect x="124" y="70" width="1" height="1" fill="#231f20"/>
    <rect x="1" y="71" width="1" height="1" fill="#231f20"/>
    <rect x="12" y="71" width="8" height="1" fill="#231f20"/>
    <rect x="124" y="71" width="1" height="1" fill="#231f20"/>
    <rect x="1" y="72" width="1" height="1" fill="#231f20"/>
    <rect x="10" y="72" width="9" height="1" fill="#231f20"/>
    <rect x="124" y="72" width="1" height="1" fill="#231f20"/>
    <rect x="1" y="73" width="1" height="1" fill="#231f20"/>
    <rect x="9" y="73" width="9" height="1" fill="#231f20"/>
    <rect x="124" y="73" width="1" height="1" fill="#231f20"/>
    <rect x="1" y="74" width="1" height="1" fill="#231f20"/>
    <rect x="8" y="74" width="8" height="1" fill="#231f20"/>
    <rect x="124" y="74" width="1" height="1" fill="#231f20"/>
    <rect x="1" y="75" width="1" height="1" fill="#231f20"/>
    <rect x="6" y="75" width="9" height="1" fill="#231f20"/>
    <rect x="124" y="75" width="1" height="1" fill="#231f20"/>
    <rect x="1" y="76" width="1" height="1" fill="#231f20"/>
    <rect x="5" y="76" width="9" height="1" fill="#231f20"/>
    <rect x="124" y="76" width="1" height="1" fill="#231f20"/>
    <rect x="1" y="77" width="1" height="1" fill="#231f20"/>
    <rect x="4" y="77" width="8" height="1" fill="#231f20"/>
    <rect x="124" y="77" width="1" height="1" fill="#231f20"/>
    <rect x="1" y="78" width="1" height="1" fill="#231f20"/>
    <rect x="4" y="78" width="7" height="1" fill="#231f20"/>
    <rect x="124" y="78" width="1" height="1" fill="#231f20"/>
    <rect x="1" y="79" width="1" height="1" fill="#231f20"/>
    <rect x="3" y="79" width="7" height="1" fill="#231f20"/>
    <rect x="124" y="79" width="1" height="1" fill="#231f20"/>
    <rect x="1" y="80" width="1" height="1" fill="#231f20"/>
    <rect x="4" y="80" width="4" height="1" fill="#231f20"/>
    <rect x="124" y="80" width="1" height="1" fill="#231f20"/>
    <rect x="1" y="81" width="1" height="1" fill="#231f20"/>
    <rect x="4" y="81" width="3" height="1" fill="#231f20"/>
    <rect x="124" y="81" width="1" height="1" fill="#231f20"/>
    <rect x="1" y="82" width="124" height="1" fill="#231f20"/>
  </g>
</svg>