<?xml version="1.0" encoding="UTF-8"?>
<svg xmlns="http://www.w3.org/2000/svg" viewBox="0 0 70 57" width="70" height="57">
  <!-- Auto-converted from legend-734.png -->
  <rect x="0" y="0" width="70" height="57" fill="none"/>
  <g fill="#2a2627" stroke="none">
    <rect x="0" y="0" width="70" height="1" fill="#2a2627"/>
    <rect x="0" y="1" width="70" height="1" fill="#2a2627"/>
    <rect x="0" y="2" width="2" height="1" fill="#2a2627"/>
    <rect x="68" y="2" width="2" height="1" fill="#2a2627"/>
    <rect x="0" y="3" width="2" height="1" fill="#2a2627"/>
    <rect x="68" y="3" width="2" height="1" fill="#2a2627"/>
    <rect x="0" y="4" width="2" height="1" fill="#2a2627"/>
    <rect x="68" y="4" width="2" height="1" fill="#2a2627"/>
    <rect x="0" y="5" width="2" height="1" fill="#2a2627"/>
    <rect x="68" y="5" width="2" height="1" fill="#2a2627"/>
    <rect x="0" y="6" width="2" height="1" fill="#2a2627"/>
    <rect x="68" y="6" width="2" height="1" fill="#2a2627"/>
    <rect x="0" y="7" width="2" height="1" fill="#2a2627"/>
    <rect x="68" y="7" width="2" height="1" fill="#2a2627"/>
    <rect x="0" y="8" width="2" height="1" fill="#2a2627"/>
    <rect x="68" y="8" width="2" height="1" fill="#2a2627"/>
    <rect x="0" y="9" width="2" height="1" fill="#2a2627"/>
    <rect x="68" y="9" width="2" height="1" fill="#2a2627"/>
    <rect x="0" y="10" width="2" height="1" fill="#2a2627"/>
    <rect x="68" y="10" width="2" height="1" fill="#2a2627"/>
    <rect x="0" y="11" width="2" height="1" fill="#2a2627"/>
    <rect x="68" y="11" width="2" height="1" fill="#2a2627"/>
    <rect x="0" y="12" width="2" height="1" fill="#2a2627"/>
    <rect x="68" y="12" width="2" height="1" fill="#2a2627"/>
    <rect x="0" y="13" width="2" height="1" fill="#2a2627"/>
    <rect x="68" y="13" width="2" height="1" fill="#2a2627"/>
    <rect x="0" y="14" width="2" height="1" fill="#2a2627"/>
    <rect x="68" y="14" width="2" height="1" fill="#2a2627"/>
    <rect x="0" y="15" width="2" height="1" fill="#2a2627"/>
    <rect x="68" y="15" width="2" height="1" fill="#2a2627"/>
    <rect x="0" y="16" width="2" height="1" fill="#2a2627"/>
    <rect x="68" y="16" width="2" height="1" fill="#2a2627"/>
    <rect x="0" y="17" width="2" height="1" fill="#2a2627"/>
    <rect x="68" y="17" width="2" height="1" fill="#2a2627"/>
    <rect x="0" y="18" width="2" height="1" fill="#2a2627"/>
    <rect x="68" y="18" width="2" height="1" fill="#2a2627"/>
    <rect x="0" y="19" width="2" height="1" fill="#2a2627"/>
    <rect x="68" y="19" width="2" height="1" fill="#2a2627"/>
    <rect x="0" y="20" width="2" height="1" fill="#2a2627"/>
    <rect x="68" y="20" width="2" height="1" fill="#2a2627"/>
    <rect x="0" y="21" width="2" height="1" fill="#2a2627"/>
    <rect x="68" y="21" width="2" height="1" fill="#2a2627"/>
    <rect x="0" y="22" width="2" height="1" fill="#2a2627"/>
    <rect x="68" y="22" width="2" height="1" fill="#2a2627"/>
    <rect x="0" y="23" width="2" height="1" fill="#2a2627"/>
    <rect x="14" y="23" width="43" height="1" fill="#2a2627"/>
    <rect x="68" y="23" width="2" height="1" fill="#2a2627"/>
    <rect x="0" y="24" width="2" height="1" fill="#2a2627"/>
    <rect x="13" y="24" width="45" height="1" fill="#2a2627"/>
    <rect x="68" y="24" width="2" height="1" fill="#2a2627"/>
    <rect x="0" y="25" width="2" height="1" fill="#2a2627"/>
    <rect x="14" y="25" width="43" height="1" fill="#2a2627"/>
    <rect x="68" y="25" width="2" height="1" fill="#2a2627"/>
    <rect x="0" y="26" width="2" height="1" fill="#2a2627"/>
    <rect x="21" y="26" width="2" height="1" fill="#2a2627"/>
    <rect x="34" y="26" width="2" height="1" fill="#2a2627"/>
    <rect x="48" y="26" width="2" height="1" fill="#2a2627"/>
    <rect x="68" y="26" width="2" height="1" fill="#2a2627"/>
    <rect x="0" y="27" width="2" height="1" fill="#2a2627"/>
    <rect x="21" y="27" width="2" height="1" fill="#2a2627"/>
    <rect x="34" y="27" width="2" height="1" fill="#2a2627"/>
    <rect x="48" y="27" width="2" height="1" fill="#2a2627"/>
    <rect x="68" y="27" width="2" height="1" fill="#2a2627"/>
    <rect x="0" y="28" width="2" height="1" fill="#2a2627"/>
    <rect x="21" y="28" width="2" height="1" fill="#2a2627"/>
    <rect x="34" y="28" width="2" height="1" fill="#2a2627"/>
    <rect x="48" y="28" width="2" height="1" fill="#2a2627"/>
    <rect x="68" y="28" width="2" height="1" fill="#2a2627"/>
    <rect x="0" y="29" width="2" height="1" fill="#2a2627"/>
    <rect x="21" y="29" width="2" height="1" fill="#2a2627"/>
    <rect x="34" y="29" width="2" height="1" fill="#2a2627"/>
    <rect x="48" y="29" width="2" height="1" fill="#2a2627"/>
    <rect x="68" y="29" width="2" height="1" fill="#2a2627"/>
    <rect x="0" y="30" width="2" height="1" fill="#2a2627"/>
    <rect x="21" y="30" width="2" height="1" fill="#2a2627"/>
    <rect x="34" y="30" width="2" height="1" fill="#2a2627"/>
    <rect x="48" y="30" width="2" height="1" fill="#2a2627"/>
    <rect x="68" y="30" width="2" height="1" fill="#2a2627"/>
    <rect x="0" y="31" width="2" height="1" fill="#2a2627"/>
    <rect x="14" y="31" width="43" height="1" fill="#2a2627"/>
    <rect x="68" y="31" width="2" height="1" fill="#2a2627"/>
    <rect x="0" y="32" width="2" height="1" fill="#2a2627"/>
    <rect x="13" y="32" width="45" height="1" fill="#2a2627"/>
    <rect x="68" y="32" width="2" height="1" fill="#2a2627"/>
    <rect x="0" y="33" width="2" height="1" fill="#2a2627"/>
    <rect x="68" y="33" width="2" height="1" fill="#2a2627"/>
    <rect x="0" y="34" width="2" height="1" fill="#2a2627"/>
    <rect x="68" y="34" width="2" height="1" fill="#2a2627"/>
    <rect x="0" y="35" width="2" height="1" fill="#2a2627"/>
    <rect x="68" y="35" width="2" height="1" fill="#2a2627"/>
    <rect x="0" y="36" width="2" height="1" fill="#2a2627"/>
    <rect x="68" y="36" width="2" height="1" fill="#2a2627"/>
    <rect x="0" y="37" width="2" height="1" fill="#2a2627"/>
    <rect x="68" y="37" width="2" height="1" fill="#2a2627"/>
    <rect x="0" y="38" width="2" height="1" fill="#2a2627"/>
    <rect x="68" y="38" width="2" height="1" fill="#2a2627"/>
    <rect x="0" y="39" width="2" height="1" fill="#2a2627"/>
    <rect x="68" y="39" width="2" height="1" fill="#2a2627"/>
    <rect x="0" y="40" width="2" height="1" fill="#2a2627"/>
    <rect x="68" y="40" width="2" height="1" fill="#2a2627"/>
    <rect x="0" y="41" width="2" height="1" fill="#2a2627"/>
    <rect x="68" y="41" width="2" height="1" fill="#2a2627"/>
    <rect x="0" y="42" width="2" height="1" fill="#2a2627"/>
    <rect x="68" y="42" width="2" height="1" fill="#2a2627"/>
    <rect x="0" y="43" width="2" height="1" fill="#2a2627"/>
    <rect x="68" y="43" width="2" height="1" fill="#2a2627"/>
    <rect x="0" y="44" width="2" height="1" fill="#2a2627"/>
    <rect x="68" y="44" width="2" height="1" fill="#2a2627"/>
    <rect x="0" y="45" width="2" height="1" fill="#2a2627"/>
    <rect x="68" y="45" width="2" height="1" fill="#2a2627"/>
    <rect x="0" y="46" width="2" height="1" fill="#2a2627"/>
    <rect x="68" y="46" width="2" height="1" fill="#2a2627"/>
    <rect x="0" y="47" width="2" height="1" fill="#2a2627"/>
    <rect x="68" y="47" width="2" height="1" fill="#2a2627"/>
    <rect x="0" y="48" width="2" height="1" fill="#2a2627"/>
    <rect x="68" y="48" width="2" height="1" fill="#2a2627"/>
    <rect x="0" y="49" width="2" height="1" fill="#2a2627"/>
    <rect x="68" y="49" width="2" height="1" fill="#2a2627"/>
    <rect x="0" y="50" width="2" height="1" fill="#2a2627"/>
    <rect x="68" y="50" width="2" height="1" fill="#2a2627"/>
    <rect x="0" y="51" width="2" height="1" fill="#2a2627"/>
    <rect x="68" y="51" width="2" height="1" fill="#2a2627"/>
    <rect x="0" y="52" width="2" height="1" fill="#2a2627"/>
    <rect x="68" y="52" width="2" height="1" fill="#2a2627"/>
    <rect x="0" y="53" width="2" height="1" fill="#2a2627"/>
    <rect x="68" y="53" width="2" height="1" fill="#2a2627"/>
    <rect x="0" y="54" width="2" height="1" fill="#2a2627"/>
    <rect x="68" y="54" width="2" height="1" fill="#2a2627"/>
    <rect x="0" y="55" width="70" height="1" fill="#2a2627"/>
    <rect x="0" y="56" width="70" height="1" fill="#2a2627"/>
  </g>
</svg>