<?xml version="1.0" encoding="UTF-8"?>
<svg xmlns="http://www.w3.org/2000/svg" viewBox="0 0 213 86" width="213" height="86">
  <!-- Auto-converted from legend-972.png -->
  <rect x="0" y="0" width="213" height="86" fill="none"/>
  <g fill="#231f20" stroke="none">
    <rect x="0" y="0" width="213" height="1" fill="#231f20"/>
    <rect x="0" y="1" width="1" height="1" fill="#231f20"/>
    <rect x="212" y="1" width="1" height="1" fill="#231f20"/>
    <rect x="0" y="2" width="1" height="1" fill="#231f20"/>
    <rect x="212" y="2" width="1" height="1" fill="#231f20"/>
    <rect x="0" y="3" width="1" height="1" fill="#231f20"/>
    <rect x="41" y="3" width="3" height="1" fill="#231f20"/>
    <rect x="212" y="3" width="1" height="1" fill="#231f20"/>
    <rect x="0" y="4" width="1" height="1" fill="#231f20"/>
    <rect x="38" y="4" width="3" height="1" fill="#231f20"/>
    <rect x="44" y="4" width="3" height="1" fill="#231f20"/>
    <rect x="212" y="4" width="1" height="1" fill="#231f20"/>
    <rect x="0" y="5" width="1" height="1" fill="#231f20"/>
    <rect x="36" y="5" width="2" height="1" fill="#231f20"/>
    <rect x="47" y="5" width="2" height="1" fill="#231f20"/>
    <rect x="212" y="5" width="1" height="1" fill="#231f20"/>
    <rect x="0" y="6" width="1" height="1" fill="#231f20"/>
    <rect x="35" y="6" width="1" height="1" fill="#231f20"/>
    <rect x="49" y="6" width="2" height="1" fill="#231f20"/>
    <rect x="212" y="6" width="1" height="1" fill="#231f20"/>
    <rect x="0" y="7" width="1" height="1" fill="#231f20"/>
    <rect x="34" y="7" width="1" height="1" fill="#231f20"/>
    <rect x="50" y="7" width="1" height="1" fill="#231f20"/>
    <rect x="212" y="7" width="1" height="1" fill="#231f20"/>
    <rect x="0" y="8" width="1" height="1" fill="#231f20"/>
    <rect x="33" y="8" width="1" height="1" fill="#231f20"/>
    <rect x="51" y="8" width="1" height="1" fill="#231f20"/>
    <rect x="212" y="8" width="1" height="1" fill="#231f20"/>
    <rect x="0" y="9" width="1" height="1" fill="#231f20"/>
    <rect x="33" y="9" width="1" height="1" fill="#231f20"/>
    <rect x="51" y="9" width="1" height="1" fill="#231f20"/>
    <rect x="212" y="9" width="1" height="1" fill="#231f20"/>
    <rect x="0" y="10" width="1" height="1" fill="#231f20"/>
    <rect x="32" y="10" width="1" height="1" fill="#231f20"/>
    <rect x="52" y="10" width="1" height="1" fill="#231f20"/>
    <rect x="212" y="10" width="1" height="1" fill="#231f20"/>
    <rect x="0" y="11" width="1" height="1" fill="#231f20"/>
    <rect x="32" y="11" width="1" height="1" fill="#231f20"/>
    <rect x="52" y="11" width="1" height="1" fill="#231f20"/>
    <rect x="212" y="11" width="1" height="1" fill="#231f20"/>
    <rect x="0" y="12" width="1" height="1" fill="#231f20"/>
    <rect x="32" y="12" width="1" height="1" fill="#231f20"/>
    <rect x="52" y="12" width="1" height="1" fill="#231f20"/>
    <rect x="212" y="12" width="1" height="1" fill="#231f20"/>
    <rect x="0" y="13" width="1" height="1" fill="#231f20"/>
    <rect x="32" y="13" width="1" height="1" fill="#231f20"/>
    <rect x="53" y="13" width="1" height="1" fill="#231f20"/>
    <rect x="212" y="13" width="1" height="1" fill="#231f20"/>
    <rect x="0" y="14" width="1" height="1" fill="#231f20"/>
    <rect x="31" y="14" width="1" height="1" fill="#231f20"/>
    <rect x="53" y="14" width="1" height="1" fill="#231f20"/>
    <rect x="212" y="14" width="1" height="1" fill="#231f20"/>
    <rect x="0" y="15" width="1" height="1" fill="#231f20"/>
    <rect x="32" y="15" width="1" height="1" fill="#231f20"/>
    <rect x="53" y="15" width="1" height="1" fill="#231f20"/>
    <rect x="212" y="15" width="1" height="1" fill="#231f20"/>
    <rect x="0" y="16" width="1" height="1" fill="#231f20"/>
    <rect x="32" y="16" width="1" height="1" fill="#231f20"/>
    <rect x="52" y="16" width="1" height="1" fill="#231f20"/>
    <rect x="212" y="16" width="1" height="1" fill="#231f20"/>
    <rect x="0" y="17" width="1" height="1" fill="#231f20"/>
    <rect x="32" y="17" width="1" height="1" fill="#231f20"/>
    <rect x="52" y="17" width="1" height="1" fill="#231f20"/>
    <rect x="212" y="17" width="1" height="1" fill="#231f20"/>
    <rect x="0" y="18" width="1" height="1" fill="#231f20"/>
    <rect x="32" y="18" width="1" height="1" fill="#231f20"/>
    <rect x="52" y="18" width="1" height="1" fill="#231f20"/>
    <rect x="212" y="18" width="1" height="1" fill="#231f20"/>
    <rect x="0" y="19" width="1" height="1" fill="#231f20"/>
    <rect x="33" y="19" width="1" height="1" fill="#231f20"/>
    <rect x="51" y="19" width="1" height="1" fill="#231f20"/>
    <rect x="212" y="19" width="1" height="1" fill="#231f20"/>
    <rect x="0" y="20" width="1" height="1" fill="#231f20"/>
    <rect x="33" y="20" width="1" height="1" fill="#231f20"/>
    <rect x="51" y="20" width="1" height="1" fill="#231f20"/>
    <rect x="212" y="20" width="1" height="1" fill="#231f20"/>
    <rect x="0" y="21" width="1" height="1" fill="#231f20"/>
    <rect x="34" y="21" width="2" height="1" fill="#231f20"/>
    <rect x="50" y="21" width="1" height="1" fill="#231f20"/>
    <rect x="212" y="21" width="1" height="1" fill="#231f20"/>
    <rect x="0" y="22" width="1" height="1" fill="#231f20"/>
    <rect x="35" y="22" width="1" height="1" fill="#231f20"/>
    <rect x="49" y="22" width="1" height="1" fill="#231f20"/>
    <rect x="212" y="22" width="1" height="1" fill="#231f20"/>
    <rect x="0" y="23" width="1" height="1" fill="#231f20"/>
    <rect x="36" y="23" width="2" height="1" fill="#231f20"/>
    <rect x="47" y="23" width="2" height="1" fill="#231f20"/>
    <rect x="212" y="23" width="1" height="1" fill="#231f20"/>
    <rect x="0" y="24" width="1" height="1" fill="#231f20"/>
    <rect x="38" y="24" width="4" height="1" fill="#231f20"/>
    <rect x="43" y="24" width="4" height="1" fill="#231f20"/>
    <rect x="212" y="24" width="1" height="1" fill="#231f20"/>
    <rect x="0" y="25" width="1" height="1" fill="#231f20"/>
    <rect x="42" y="25" width="1" height="1" fill="#231f20"/>
    <rect x="212" y="25" width="1" height="1" fill="#231f20"/>
    <rect x="0" y="26" width="1" height="1" fill="#231f20"/>
    <rect x="212" y="26" width="1" height="1" fill="#231f20"/>
    <rect x="0" y="27" width="1" height="1" fill="#231f20"/>
    <rect x="212" y="27" width="1" height="1" fill="#231f20"/>
    <rect x="0" y="28" width="213" height="1" fill="#231f20"/>
    <rect x="0" y="29" width="1" height="1" fill="#231f20"/>
    <rect x="212" y="29" width="1" height="1" fill="#231f20"/>
    <rect x="0" y="30" width="1" height="1" fill="#231f20"/>
    <rect x="212" y="30" width="1" height="1" fill="#231f20"/>
    <rect x="0" y="31" width="1" height="1" fill="#231f20"/>
    <rect x="212" y="31" width="1" height="1" fill="#231f20"/>
    <rect x="0" y="32" width="1" height="1" fill="#231f20"/>
    <rect x="165" y="32" width="9" height="1" fill="#231f20"/>
    <rect x="212" y="32" width="1" height="1" fill="#231f20"/>
    <rect x="0" y="33" width="1" height="1" fill="#231f20"/>
    <rect x="163" y="33" width="2" height="1" fill="#231f20"/>
    <rect x="174" y="33" width="2" height="1" fill="#231f20"/>
    <rect x="212" y="33" width="1" height="1" fill="#231f20"/>
    <rect x="0" y="34" width="1" height="1" fill="#231f20"/>
    <rect x="163" y="34" width="1" height="1" fill="#231f20"/>
    <rect x="176" y="34" width="1" height="1" fill="#231f20"/>
    <rect x="212" y="34" width="1" height="1" fill="#231f20"/>
    <rect x="0" y="35" width="1" height="1" fill="#231f20"/>
    <rect x="161" y="35" width="2" height="1" fill="#231f20"/>
    <rect x="177" y="35" width="1" height="1" fill="#231f20"/>
    <rect x="212" y="35" width="1" height="1" fill="#231f20"/>
    <rect x="0" y="36" width="1" height="1" fill="#231f20"/>
    <rect x="160" y="36" width="1" height="1" fill="#231f20"/>
    <rect x="178" y="36" width="1" height="1" fill="#231f20"/>
    <rect x="212" y="36" width="1" height="1" fill="#231f20"/>
    <rect x="0" y="37" width="1" height="1" fill="#231f20"/>
    <rect x="160" y="37" width="1" height="1" fill="#231f20"/>
    <rect x="179" y="37" width="1" height="1" fill="#231f20"/>
    <rect x="212" y="37" width="1" height="1" fill="#231f20"/>
    <rect x="0" y="38" width="1" height="1" fill="#231f20"/>
    <rect x="159" y="38" width="1" height="1" fill="#231f20"/>
    <rect x="179" y="38" width="1" height="1" fill="#231f20"/>
    <rect x="212" y="38" width="1" height="1" fill="#231f20"/>
    <rect x="0" y="39" width="1" height="1" fill="#231f20"/>
    <rect x="159" y="39" width="1" height="1" fill="#231f20"/>
    <rect x="179" y="39" width="1" height="1" fill="#231f20"/>
    <rect x="212" y="39" width="1" height="1" fill="#231f20"/>
    <rect x="0" y="40" width="1" height="1" fill="#231f20"/>
    <rect x="159" y="40" width="1" height="1" fill="#231f20"/>
    <rect x="180" y="40" width="1" height="1" fill="#231f20"/>
    <rect x="212" y="40" width="1" height="1" fill="#231f20"/>
    <rect x="0" y="41" width="1" height="1" fill="#231f20"/>
    <rect x="159" y="41" width="1" height="1" fill="#231f20"/>
    <rect x="180" y="41" width="1" height="1" fill="#231f20"/>
    <rect x="212" y="41" width="1" height="1" fill="#231f20"/>
    <rect x="0" y="42" width="1" height="1" fill="#231f20"/>
    <rect x="159" y="42" width="1" height="1" fill="#231f20"/>
    <rect x="180" y="42" width="1" height="1" fill="#231f20"/>
    <rect x="212" y="42" width="1" height="1" fill="#231f20"/>
    <rect x="0" y="43" width="1" height="1" fill="#231f20"/>
    <rect x="159" y="43" width="1" height="1" fill="#231f20"/>
    <rect x="180" y="43" width="1" height="1" fill="#231f20"/>
    <rect x="212" y="43" width="1" height="1" fill="#231f20"/>
    <rect x="0" y="44" width="1" height="1" fill="#231f20"/>
    <rect x="159" y="44" width="1" height="1" fill="#231f20"/>
    <rect x="180" y="44" width="1" height="1" fill="#231f20"/>
    <rect x="212" y="44" width="1" height="1" fill="#231f20"/>
    <rect x="0" y="45" width="1" height="1" fill="#231f20"/>
    <rect x="159" y="45" width="1" height="1" fill="#231f20"/>
    <rect x="179" y="45" width="1" height="1" fill="#231f20"/>
    <rect x="212" y="45" width="1" height="1" fill="#231f20"/>
    <rect x="0" y="46" width="1" height="1" fill="#231f20"/>
    <rect x="159" y="46" width="1" height="1" fill="#231f20"/>
    <rect x="179" y="46" width="1" height="1" fill="#231f20"/>
    <rect x="212" y="46" width="1" height="1" fill="#231f20"/>
    <rect x="0" y="47" width="1" height="1" fill="#231f20"/>
    <rect x="160" y="47" width="1" height="1" fill="#231f20"/>
    <rect x="179" y="47" width="1" height="1" fill="#231f20"/>
    <rect x="212" y="47" width="1" height="1" fill="#231f20"/>
    <rect x="0" y="48" width="1" height="1" fill="#231f20"/>
    <rect x="160" y="48" width="1" height="1" fill="#231f20"/>
    <rect x="178" y="48" width="1" height="1" fill="#231f20"/>
    <rect x="212" y="48" width="1" height="1" fill="#231f20"/>
    <rect x="0" y="49" width="1" height="1" fill="#231f20"/>
    <rect x="161" y="49" width="1" height="1" fill="#231f20"/>
    <rect x="177" y="49" width="1" height="1" fill="#231f20"/>
    <rect x="212" y="49" width="1" height="1" fill="#231f20"/>
    <rect x="0" y="50" width="1" height="1" fill="#231f20"/>
    <rect x="162" y="50" width="2" height="1" fill="#231f20"/>
    <rect x="176" y="50" width="2" height="1" fill="#231f20"/>
    <rect x="212" y="50" width="1" height="1" fill="#231f20"/>
    <rect x="0" y="51" width="1" height="1" fill="#231f20"/>
    <rect x="163" y="51" width="1" height="1" fill="#231f20"/>
    <rect x="175" y="51" width="1" height="1" fill="#231f20"/>
    <rect x="212" y="51" width="1" height="1" fill="#231f20"/>
    <rect x="0" y="52" width="1" height="1" fill="#231f20"/>
    <rect x="164" y="52" width="3" height="1" fill="#231f20"/>
    <rect x="172" y="52" width="3" height="1" fill="#231f20"/>
    <rect x="212" y="52" width="1" height="1" fill="#231f20"/>
    <rect x="0" y="53" width="1" height="1" fill="#231f20"/>
    <rect x="167" y="53" width="5" height="1" fill="#231f20"/>
    <rect x="212" y="53" width="1" height="1" fill="#231f20"/>
    <rect x="0" y="54" width="1" height="1" fill="#231f20"/>
    <rect x="212" y="54" width="1" height="1" fill="#231f20"/>
    <rect x="0" y="55" width="1" height="1" fill="#231f20"/>
    <rect x="212" y="55" width="1" height="1" fill="#231f20"/>
    <rect x="0" y="56" width="213" height="1" fill="#231f20"/>
    <rect x="0" y="57" width="1" height="1" fill="#231f20"/>
    <rect x="212" y="57" width="1" height="1" fill="#231f20"/>
    <rect x="0" y="58" width="1" height="1" fill="#231f20"/>
    <rect x="212" y="58" width="1" height="1" fill="#231f20"/>
    <rect x="0" y="59" width="1" height="1" fill="#231f20"/>
    <rect x="212" y="59" width="1" height="1" fill="#231f20"/>
    <rect x="0" y="60" width="1" height="1" fill="#231f20"/>
    <rect x="39" y="60" width="7" height="1" fill="#231f20"/>
    <rect x="212" y="60" width="1" height="1" fill="#231f20"/>
    <rect x="0" y="61" width="1" height="1" fill="#231f20"/>
    <rect x="37" y="61" width="2" height="1" fill="#231f20"/>
    <rect x="46" y="61" width="2" height="1" fill="#231f20"/>
    <rect x="212" y="61" width="1" height="1" fill="#231f20"/>
    <rect x="0" y="62" width="1" height="1" fill="#231f20"/>
    <rect x="35" y="62" width="2" height="1" fill="#231f20"/>
    <rect x="48" y="62" width="2" height="1" fill="#231f20"/>
    <rect x="212" y="62" width="1" height="1" fill="#231f20"/>
    <rect x="0" y="63" width="1" height="1" fill="#231f20"/>
    <rect x="35" y="63" width="1" height="1" fill="#231f20"/>
    <rect x="50" y="63" width="1" height="1" fill="#231f20"/>
    <rect x="212" y="63" width="1" height="1" fill="#231f20"/>
    <rect x="0" y="64" width="1" height="1" fill="#231f20"/>
    <rect x="34" y="64" width="1" height="1" fill="#231f20"/>
    <rect x="50" y="64" width="1" height="1" fill="#231f20"/>
    <rect x="212" y="64" width="1" height="1" fill="#231f20"/>
    <rect x="0" y="65" width="1" height="1" fill="#231f20"/>
    <rect x="33" y="65" width="1" height="1" fill="#231f20"/>
    <rect x="51" y="65" width="1" height="1" fill="#231f20"/>
    <rect x="212" y="65" width="1" height="1" fill="#231f20"/>
    <rect x="0" y="66" width="1" height="1" fill="#231f20"/>
    <rect x="32" y="66" width="1" height="1" fill="#231f20"/>
    <rect x="52" y="66" width="1" height="1" fill="#231f20"/>
    <rect x="212" y="66" width="1" height="1" fill="#231f20"/>
    <rect x="0" y="67" width="1" height="1" fill="#231f20"/>
    <rect x="32" y="67" width="1" height="1" fill="#231f20"/>
    <rect x="52" y="67" width="1" height="1" fill="#231f20"/>
    <rect x="212" y="67" width="1" height="1" fill="#231f20"/>
    <rect x="0" y="68" width="1" height="1" fill="#231f20"/>
    <rect x="32" y="68" width="1" height="1" fill="#231f20"/>
    <rect x="52" y="68" width="1" height="1" fill="#231f20"/>
    <rect x="212" y="68" width="1" height="1" fill="#231f20"/>
    <rect x="0" y="69" width="1" height="1" fill="#231f20"/>
    <rect x="32" y="69" width="1" height="1" fill="#231f20"/>
    <rect x="53" y="69" width="1" height="1" fill="#231f20"/>
    <rect x="212" y="69" width="1" height="1" fill="#231f20"/>
    <rect x="0" y="70" width="1" height="1" fill="#231f20"/>
    <rect x="31" y="70" width="1" height="1" fill="#231f20"/>
    <rect x="53" y="70" width="1" height="1" fill="#231f20"/>
    <rect x="212" y="70" width="1" height="1" fill="#231f20"/>
    <rect x="0" y="71" width="1" height="1" fill="#231f20"/>
    <rect x="32" y="71" width="1" height="1" fill="#231f20"/>
    <rect x="53" y="71" width="1" height="1" fill="#231f20"/>
    <rect x="212" y="71" width="1" height="1" fill="#231f20"/>
    <rect x="0" y="72" width="1" height="1" fill="#231f20"/>
    <rect x="32" y="72" width="1" height="1" fill="#231f20"/>
    <rect x="53" y="72" width="1" height="1" fill="#231f20"/>
    <rect x="212" y="72" width="1" height="1" fill="#231f20"/>
    <rect x="0" y="73" width="1" height="1" fill="#231f20"/>
    <rect x="32" y="73" width="1" height="1" fill="#231f20"/>
    <rect x="52" y="73" width="1" height="1" fill="#231f20"/>
    <rect x="212" y="73" width="1" height="1" fill="#231f20"/>
    <rect x="0" y="74" width="1" height="1" fill="#231f20"/>
    <rect x="32" y="74" width="1" height="1" fill="#231f20"/>
    <rect x="52" y="74" width="1" height="1" fill="#231f20"/>
    <rect x="212" y="74" width="1" height="1" fill="#231f20"/>
    <rect x="0" y="75" width="1" height="1" fill="#231f20"/>
    <rect x="33" y="75" width="1" height="1" fill="#231f20"/>
    <rect x="51" y="75" width="1" height="1" fill="#231f20"/>
    <rect x="212" y="75" width="1" height="1" fill="#231f20"/>
    <rect x="0" y="76" width="1" height="1" fill="#231f20"/>
    <rect x="33" y="76" width="1" height="1" fill="#231f20"/>
    <rect x="51" y="76" width="1" height="1" fill="#231f20"/>
    <rect x="212" y="76" width="1" height="1" fill="#231f20"/>
    <rect x="0" y="77" width="1" height="1" fill="#231f20"/>
    <rect x="34" y="77" width="1" height="1" fill="#231f20"/>
    <rect x="50" y="77" width="1" height="1" fill="#231f20"/>
    <rect x="212" y="77" width="1" height="1" fill="#231f20"/>
    <rect x="0" y="78" width="1" height="1" fill="#231f20"/>
    <rect x="35" y="78" width="1" height="1" fill="#231f20"/>
    <rect x="50" y="78" width="1" height="1" fill="#231f20"/>
    <rect x="212" y="78" width="1" height="1" fill="#231f20"/>
    <rect x="0" y="79" width="1" height="1" fill="#231f20"/>
    <rect x="35" y="79" width="2" height="1" fill="#231f20"/>
    <rect x="48" y="79" width="2" height="1" fill="#231f20"/>
    <rect x="212" y="79" width="1" height="1" fill="#231f20"/>
    <rect x="0" y="80" width="1" height="1" fill="#231f20"/>
    <rect x="37" y="80" width="2" height="1" fill="#231f20"/>
    <rect x="46" y="80" width="2" height="1" fill="#231f20"/>
    <rect x="212" y="80" width="1" height="1" fill="#231f20"/>
    <rect x="0" y="81" width="1" height="1" fill="#231f20"/>
    <rect x="39" y="81" width="7" height="1" fill="#231f20"/>
    <rect x="212" y="81" width="1" height="1" fill="#231f20"/>
    <rect x="0" y="82" width="1" height="1" fill="#231f20"/>
    <rect x="212" y="82" width="1" height="1" fill="#231f20"/>
    <rect x="0" y="83" width="1" height="1" fill="#231f20"/>
    <rect x="212" y="83" width="1" height="1" fill="#231f20"/>
    <rect x="0" y="84" width="1" height="1" fill="#231f20"/>
    <rect x="212" y="84" width="1" height="1" fill="#231f20"/>
    <rect x="0" y="85" width="213" height="1" fill="#231f20"/>
  </g>
</svg>