<?xml version="1.0" encoding="UTF-8"?>
<svg xmlns="http://www.w3.org/2000/svg" viewBox="0 0 313 212" width="313" height="212">
  <!-- Auto-converted from legend-2792.png -->
  <rect x="0" y="0" width="313" height="212" fill="none"/>
  <g fill="#565b7a" stroke="none">
    <rect x="2" y="1" width="311" height="1" fill="#565b7a"/>
    <rect x="1" y="2" width="312" height="1" fill="#565b7a"/>
    <rect x="1" y="3" width="312" height="1" fill="#565b7a"/>
    <rect x="1" y="4" width="312" height="1" fill="#565b7a"/>
    <rect x="1" y="5" width="4" height="1" fill="#565b7a"/>
    <rect x="308" y="5" width="5" height="1" fill="#565b7a"/>
    <rect x="1" y="6" width="4" height="1" fill="#565b7a"/>
    <rect x="308" y="6" width="5" height="1" fill="#565b7a"/>
    <rect x="1" y="7" width="4" height="1" fill="#565b7a"/>
    <rect x="308" y="7" width="5" height="1" fill="#565b7a"/>
    <rect x="1" y="8" width="4" height="1" fill="#565b7a"/>
    <rect x="308" y="8" width="5" height="1" fill="#565b7a"/>
    <rect x="1" y="9" width="4" height="1" fill="#565b7a"/>
    <rect x="308" y="9" width="5" height="1" fill="#565b7a"/>
    <rect x="1" y="10" width="4" height="1" fill="#565b7a"/>
    <rect x="308" y="10" width="5" height="1" fill="#565b7a"/>
    <rect x="1" y="11" width="4" height="1" fill="#565b7a"/>
    <rect x="308" y="11" width="5" height="1" fill="#565b7a"/>
    <rect x="1" y="12" width="4" height="1" fill="#565b7a"/>
    <rect x="308" y="12" width="5" height="1" fill="#565b7a"/>
    <rect x="1" y="13" width="4" height="1" fill="#565b7a"/>
    <rect x="308" y="13" width="5" height="1" fill="#565b7a"/>
    <rect x="1" y="14" width="4" height="1" fill="#565b7a"/>
    <rect x="308" y="14" width="5" height="1" fill="#565b7a"/>
    <rect x="1" y="15" width="4" height="1" fill="#565b7a"/>
    <rect x="308" y="15" width="5" height="1" fill="#565b7a"/>
    <rect x="1" y="16" width="4" height="1" fill="#565b7a"/>
    <rect x="308" y="16" width="5" height="1" fill="#565b7a"/>
    <rect x="1" y="17" width="4" height="1" fill="#565b7a"/>
    <rect x="308" y="17" width="5" height="1" fill="#565b7a"/>
    <rect x="1" y="18" width="4" height="1" fill="#565b7a"/>
    <rect x="308" y="18" width="5" height="1" fill="#565b7a"/>
    <rect x="1" y="19" width="4" height="1" fill="#565b7a"/>
    <rect x="308" y="19" width="5" height="1" fill="#565b7a"/>
    <rect x="1" y="20" width="4" height="1" fill="#565b7a"/>
    <rect x="308" y="20" width="5" height="1" fill="#565b7a"/>
    <rect x="1" y="21" width="4" height="1" fill="#565b7a"/>
    <rect x="308" y="21" width="5" height="1" fill="#565b7a"/>
    <rect x="1" y="22" width="4" height="1" fill="#565b7a"/>
    <rect x="308" y="22" width="5" height="1" fill="#565b7a"/>
    <rect x="1" y="23" width="4" height="1" fill="#565b7a"/>
    <rect x="308" y="23" width="5" height="1" fill="#565b7a"/>
    <rect x="1" y="24" width="4" height="1" fill="#565b7a"/>
    <rect x="308" y="24" width="5" height="1" fill="#565b7a"/>
    <rect x="1" y="25" width="4" height="1" fill="#565b7a"/>
    <rect x="308" y="25" width="5" height="1" fill="#565b7a"/>
    <rect x="1" y="26" width="4" height="1" fill="#565b7a"/>
    <rect x="308" y="26" width="5" height="1" fill="#565b7a"/>
    <rect x="1" y="27" width="4" height="1" fill="#565b7a"/>
    <rect x="308" y="27" width="5" height="1" fill="#565b7a"/>
    <rect x="1" y="28" width="4" height="1" fill="#565b7a"/>
    <rect x="37" y="28" width="189" height="1" fill="#565b7a"/>
    <rect x="308" y="28" width="5" height="1" fill="#565b7a"/>
    <rect x="1" y="29" width="4" height="1" fill="#565b7a"/>
    <rect x="36" y="29" width="190" height="1" fill="#565b7a"/>
    <rect x="308" y="29" width="5" height="1" fill="#565b7a"/>
    <rect x="1" y="30" width="4" height="1" fill="#565b7a"/>
    <rect x="36" y="30" width="190" height="1" fill="#565b7a"/>
    <rect x="308" y="30" width="5" height="1" fill="#565b7a"/>
    <rect x="1" y="31" width="4" height="1" fill="#565b7a"/>
    <rect x="36" y="31" width="2" height="1" fill="#565b7a"/>
    <rect x="39" y="31" width="184" height="1" fill="#565b7a"/>
    <rect x="224" y="31" width="2" height="1" fill="#565b7a"/>
    <rect x="308" y="31" width="5" height="1" fill="#565b7a"/>
    <rect x="1" y="32" width="4" height="1" fill="#565b7a"/>
    <rect x="36" y="32" width="190" height="1" fill="#565b7a"/>
    <rect x="308" y="32" width="5" height="1" fill="#565b7a"/>
    <rect x="1" y="33" width="4" height="1" fill="#565b7a"/>
    <rect x="36" y="33" width="190" height="1" fill="#565b7a"/>
    <rect x="308" y="33" width="5" height="1" fill="#565b7a"/>
    <rect x="1" y="34" width="4" height="1" fill="#565b7a"/>
    <rect x="36" y="34" width="190" height="1" fill="#565b7a"/>
    <rect x="308" y="34" width="5" height="1" fill="#565b7a"/>
    <rect x="1" y="35" width="4" height="1" fill="#565b7a"/>
    <rect x="36" y="35" width="190" height="1" fill="#565b7a"/>
    <rect x="308" y="35" width="5" height="1" fill="#565b7a"/>
    <rect x="1" y="36" width="4" height="1" fill="#565b7a"/>
    <rect x="36" y="36" width="190" height="1" fill="#565b7a"/>
    <rect x="308" y="36" width="5" height="1" fill="#565b7a"/>
    <rect x="1" y="37" width="4" height="1" fill="#565b7a"/>
    <rect x="36" y="37" width="190" height="1" fill="#565b7a"/>
    <rect x="308" y="37" width="5" height="1" fill="#565b7a"/>
    <rect x="1" y="38" width="4" height="1" fill="#565b7a"/>
    <rect x="36" y="38" width="190" height="1" fill="#565b7a"/>
    <rect x="308" y="38" width="5" height="1" fill="#565b7a"/>
    <rect x="1" y="39" width="4" height="1" fill="#565b7a"/>
    <rect x="36" y="39" width="190" height="1" fill="#565b7a"/>
    <rect x="308" y="39" width="5" height="1" fill="#565b7a"/>
    <rect x="1" y="40" width="4" height="1" fill="#565b7a"/>
    <rect x="36" y="40" width="190" height="1" fill="#565b7a"/>
    <rect x="308" y="40" width="5" height="1" fill="#565b7a"/>
    <rect x="1" y="41" width="4" height="1" fill="#565b7a"/>
    <rect x="36" y="41" width="190" height="1" fill="#565b7a"/>
    <rect x="308" y="41" width="5" height="1" fill="#565b7a"/>
    <rect x="1" y="42" width="4" height="1" fill="#565b7a"/>
    <rect x="36" y="42" width="190" height="1" fill="#565b7a"/>
    <rect x="308" y="42" width="5" height="1" fill="#565b7a"/>
    <rect x="1" y="43" width="4" height="1" fill="#565b7a"/>
    <rect x="36" y="43" width="190" height="1" fill="#565b7a"/>
    <rect x="308" y="43" width="5" height="1" fill="#565b7a"/>
    <rect x="1" y="44" width="4" height="1" fill="#565b7a"/>
    <rect x="36" y="44" width="190" height="1" fill="#565b7a"/>
    <rect x="308" y="44" width="5" height="1" fill="#565b7a"/>
    <rect x="1" y="45" width="4" height="1" fill="#565b7a"/>
    <rect x="36" y="45" width="190" height="1" fill="#565b7a"/>
    <rect x="308" y="45" width="5" height="1" fill="#565b7a"/>
    <rect x="1" y="46" width="4" height="1" fill="#565b7a"/>
    <rect x="36" y="46" width="190" height="1" fill="#565b7a"/>
    <rect x="308" y="46" width="5" height="1" fill="#565b7a"/>
    <rect x="1" y="47" width="4" height="1" fill="#565b7a"/>
    <rect x="36" y="47" width="190" height="1" fill="#565b7a"/>
    <rect x="308" y="47" width="5" height="1" fill="#565b7a"/>
    <rect x="1" y="48" width="4" height="1" fill="#565b7a"/>
    <rect x="36" y="48" width="190" height="1" fill="#565b7a"/>
    <rect x="308" y="48" width="5" height="1" fill="#565b7a"/>
    <rect x="1" y="49" width="4" height="1" fill="#565b7a"/>
    <rect x="36" y="49" width="190" height="1" fill="#565b7a"/>
    <rect x="308" y="49" width="5" height="1" fill="#565b7a"/>
    <rect x="1" y="50" width="4" height="1" fill="#565b7a"/>
    <rect x="36" y="50" width="190" height="1" fill="#565b7a"/>
    <rect x="308" y="50" width="5" height="1" fill="#565b7a"/>
    <rect x="1" y="51" width="4" height="1" fill="#565b7a"/>
    <rect x="36" y="51" width="190" height="1" fill="#565b7a"/>
    <rect x="308" y="51" width="5" height="1" fill="#565b7a"/>
    <rect x="1" y="52" width="4" height="1" fill="#565b7a"/>
    <rect x="36" y="52" width="190" height="1" fill="#565b7a"/>
    <rect x="308" y="52" width="5" height="1" fill="#565b7a"/>
    <rect x="1" y="53" width="4" height="1" fill="#565b7a"/>
    <rect x="36" y="53" width="190" height="1" fill="#565b7a"/>
    <rect x="308" y="53" width="5" height="1" fill="#565b7a"/>
    <rect x="1" y="54" width="4" height="1" fill="#565b7a"/>
    <rect x="36" y="54" width="190" height="1" fill="#565b7a"/>
    <rect x="308" y="54" width="5" height="1" fill="#565b7a"/>
    <rect x="1" y="55" width="4" height="1" fill="#565b7a"/>
    <rect x="36" y="55" width="190" height="1" fill="#565b7a"/>
    <rect x="308" y="55" width="5" height="1" fill="#565b7a"/>
    <rect x="1" y="56" width="4" height="1" fill="#565b7a"/>
    <rect x="36" y="56" width="190" height="1" fill="#565b7a"/>
    <rect x="308" y="56" width="5" height="1" fill="#565b7a"/>
    <rect x="1" y="57" width="4" height="1" fill="#565b7a"/>
    <rect x="36" y="57" width="190" height="1" fill="#565b7a"/>
    <rect x="308" y="57" width="5" height="1" fill="#565b7a"/>
    <rect x="1" y="58" width="4" height="1" fill="#565b7a"/>
    <rect x="36" y="58" width="190" height="1" fill="#565b7a"/>
    <rect x="308" y="58" width="5" height="1" fill="#565b7a"/>
    <rect x="1" y="59" width="4" height="1" fill="#565b7a"/>
    <rect x="36" y="59" width="190" height="1" fill="#565b7a"/>
    <rect x="308" y="59" width="5" height="1" fill="#565b7a"/>
    <rect x="1" y="60" width="4" height="1" fill="#565b7a"/>
    <rect x="36" y="60" width="190" height="1" fill="#565b7a"/>
    <rect x="308" y="60" width="5" height="1" fill="#565b7a"/>
    <rect x="1" y="61" width="4" height="1" fill="#565b7a"/>
    <rect x="36" y="61" width="190" height="1" fill="#565b7a"/>
    <rect x="308" y="61" width="5" height="1" fill="#565b7a"/>
    <rect x="1" y="62" width="4" height="1" fill="#565b7a"/>
    <rect x="36" y="62" width="190" height="1" fill="#565b7a"/>
    <rect x="308" y="62" width="5" height="1" fill="#565b7a"/>
    <rect x="1" y="63" width="4" height="1" fill="#565b7a"/>
    <rect x="36" y="63" width="190" height="1" fill="#565b7a"/>
    <rect x="308" y="63" width="5" height="1" fill="#565b7a"/>
    <rect x="1" y="64" width="4" height="1" fill="#565b7a"/>
    <rect x="36" y="64" width="190" height="1" fill="#565b7a"/>
    <rect x="308" y="64" width="5" height="1" fill="#565b7a"/>
    <rect x="1" y="65" width="4" height="1" fill="#565b7a"/>
    <rect x="36" y="65" width="190" height="1" fill="#565b7a"/>
    <rect x="308" y="65" width="5" height="1" fill="#565b7a"/>
    <rect x="1" y="66" width="4" height="1" fill="#565b7a"/>
    <rect x="36" y="66" width="190" height="1" fill="#565b7a"/>
    <rect x="308" y="66" width="5" height="1" fill="#565b7a"/>
    <rect x="1" y="67" width="4" height="1" fill="#565b7a"/>
    <rect x="36" y="67" width="190" height="1" fill="#565b7a"/>
    <rect x="308" y="67" width="5" height="1" fill="#565b7a"/>
    <rect x="1" y="68" width="4" height="1" fill="#565b7a"/>
    <rect x="36" y="68" width="47" height="1" fill="#565b7a"/>
    <rect x="84" y="68" width="142" height="1" fill="#565b7a"/>
    <rect x="308" y="68" width="5" height="1" fill="#565b7a"/>
    <rect x="1" y="69" width="4" height="1" fill="#565b7a"/>
    <rect x="36" y="69" width="190" height="1" fill="#565b7a"/>
    <rect x="308" y="69" width="5" height="1" fill="#565b7a"/>
    <rect x="1" y="70" width="4" height="1" fill="#565b7a"/>
    <rect x="36" y="70" width="136" height="1" fill="#565b7a"/>
    <rect x="173" y="70" width="53" height="1" fill="#565b7a"/>
    <rect x="308" y="70" width="5" height="1" fill="#565b7a"/>
    <rect x="1" y="71" width="4" height="1" fill="#565b7a"/>
    <rect x="36" y="71" width="164" height="1" fill="#565b7a"/>
    <rect x="201" y="71" width="25" height="1" fill="#565b7a"/>
    <rect x="308" y="71" width="5" height="1" fill="#565b7a"/>
    <rect x="1" y="72" width="4" height="1" fill="#565b7a"/>
    <rect x="36" y="72" width="190" height="1" fill="#565b7a"/>
    <rect x="308" y="72" width="5" height="1" fill="#565b7a"/>
    <rect x="1" y="73" width="4" height="1" fill="#565b7a"/>
    <rect x="36" y="73" width="190" height="1" fill="#565b7a"/>
    <rect x="308" y="73" width="5" height="1" fill="#565b7a"/>
    <rect x="1" y="74" width="4" height="1" fill="#565b7a"/>
    <rect x="36" y="74" width="190" height="1" fill="#565b7a"/>
    <rect x="308" y="74" width="5" height="1" fill="#565b7a"/>
    <rect x="1" y="75" width="4" height="1" fill="#565b7a"/>
    <rect x="36" y="75" width="190" height="1" fill="#565b7a"/>
    <rect x="308" y="75" width="5" height="1" fill="#565b7a"/>
    <rect x="1" y="76" width="4" height="1" fill="#565b7a"/>
    <rect x="36" y="76" width="190" height="1" fill="#565b7a"/>
    <rect x="308" y="76" width="5" height="1" fill="#565b7a"/>
    <rect x="1" y="77" width="4" height="1" fill="#565b7a"/>
    <rect x="36" y="77" width="136" height="1" fill="#565b7a"/>
    <rect x="173" y="77" width="53" height="1" fill="#565b7a"/>
    <rect x="308" y="77" width="5" height="1" fill="#565b7a"/>
    <rect x="1" y="78" width="4" height="1" fill="#565b7a"/>
    <rect x="36" y="78" width="190" height="1" fill="#565b7a"/>
    <rect x="308" y="78" width="5" height="1" fill="#565b7a"/>
    <rect x="1" y="79" width="4" height="1" fill="#565b7a"/>
    <rect x="36" y="79" width="190" height="1" fill="#565b7a"/>
    <rect x="308" y="79" width="5" height="1" fill="#565b7a"/>
    <rect x="1" y="80" width="4" height="1" fill="#565b7a"/>
    <rect x="36" y="80" width="190" height="1" fill="#565b7a"/>
    <rect x="308" y="80" width="5" height="1" fill="#565b7a"/>
    <rect x="1" y="81" width="4" height="1" fill="#565b7a"/>
    <rect x="36" y="81" width="190" height="1" fill="#565b7a"/>
    <rect x="308" y="81" width="5" height="1" fill="#565b7a"/>
    <rect x="1" y="82" width="4" height="1" fill="#565b7a"/>
    <rect x="36" y="82" width="134" height="1" fill="#565b7a"/>
    <rect x="171" y="82" width="55" height="1" fill="#565b7a"/>
    <rect x="308" y="82" width="5" height="1" fill="#565b7a"/>
    <rect x="1" y="83" width="4" height="1" fill="#565b7a"/>
    <rect x="36" y="83" width="41" height="1" fill="#565b7a"/>
    <rect x="78" y="83" width="148" height="1" fill="#565b7a"/>
    <rect x="308" y="83" width="5" height="1" fill="#565b7a"/>
    <rect x="1" y="84" width="4" height="1" fill="#565b7a"/>
    <rect x="36" y="84" width="190" height="1" fill="#565b7a"/>
    <rect x="308" y="84" width="5" height="1" fill="#565b7a"/>
    <rect x="1" y="85" width="4" height="1" fill="#565b7a"/>
    <rect x="36" y="85" width="190" height="1" fill="#565b7a"/>
    <rect x="308" y="85" width="5" height="1" fill="#565b7a"/>
    <rect x="1" y="86" width="4" height="1" fill="#565b7a"/>
    <rect x="36" y="86" width="190" height="1" fill="#565b7a"/>
    <rect x="308" y="86" width="5" height="1" fill="#565b7a"/>
    <rect x="1" y="87" width="4" height="1" fill="#565b7a"/>
    <rect x="36" y="87" width="190" height="1" fill="#565b7a"/>
    <rect x="308" y="87" width="5" height="1" fill="#565b7a"/>
    <rect x="1" y="88" width="4" height="1" fill="#565b7a"/>
    <rect x="36" y="88" width="190" height="1" fill="#565b7a"/>
    <rect x="308" y="88" width="5" height="1" fill="#565b7a"/>
    <rect x="1" y="89" width="4" height="1" fill="#565b7a"/>
    <rect x="36" y="89" width="83" height="1" fill="#565b7a"/>
    <rect x="120" y="89" width="5" height="1" fill="#565b7a"/>
    <rect x="126" y="89" width="100" height="1" fill="#565b7a"/>
    <rect x="308" y="89" width="5" height="1" fill="#565b7a"/>
    <rect x="1" y="90" width="4" height="1" fill="#565b7a"/>
    <rect x="36" y="90" width="190" height="1" fill="#565b7a"/>
    <rect x="308" y="90" width="5" height="1" fill="#565b7a"/>
    <rect x="1" y="91" width="4" height="1" fill="#565b7a"/>
    <rect x="36" y="91" width="190" height="1" fill="#565b7a"/>
    <rect x="308" y="91" width="5" height="1" fill="#565b7a"/>
    <rect x="1" y="92" width="4" height="1" fill="#565b7a"/>
    <rect x="36" y="92" width="190" height="1" fill="#565b7a"/>
    <rect x="308" y="92" width="5" height="1" fill="#565b7a"/>
    <rect x="1" y="93" width="4" height="1" fill="#565b7a"/>
    <rect x="36" y="93" width="190" height="1" fill="#565b7a"/>
    <rect x="308" y="93" width="5" height="1" fill="#565b7a"/>
    <rect x="1" y="94" width="4" height="1" fill="#565b7a"/>
    <rect x="36" y="94" width="190" height="1" fill="#565b7a"/>
    <rect x="308" y="94" width="5" height="1" fill="#565b7a"/>
    <rect x="1" y="95" width="4" height="1" fill="#565b7a"/>
    <rect x="36" y="95" width="190" height="1" fill="#565b7a"/>
    <rect x="308" y="95" width="5" height="1" fill="#565b7a"/>
    <rect x="1" y="96" width="4" height="1" fill="#565b7a"/>
    <rect x="36" y="96" width="190" height="1" fill="#565b7a"/>
    <rect x="308" y="96" width="5" height="1" fill="#565b7a"/>
    <rect x="1" y="97" width="4" height="1" fill="#565b7a"/>
    <rect x="36" y="97" width="190" height="1" fill="#565b7a"/>
    <rect x="308" y="97" width="5" height="1" fill="#565b7a"/>
    <rect x="1" y="98" width="4" height="1" fill="#565b7a"/>
    <rect x="36" y="98" width="190" height="1" fill="#565b7a"/>
    <rect x="308" y="98" width="5" height="1" fill="#565b7a"/>
    <rect x="1" y="99" width="4" height="1" fill="#565b7a"/>
    <rect x="36" y="99" width="190" height="1" fill="#565b7a"/>
    <rect x="308" y="99" width="5" height="1" fill="#565b7a"/>
    <rect x="1" y="100" width="4" height="1" fill="#565b7a"/>
    <rect x="36" y="100" width="190" height="1" fill="#565b7a"/>
    <rect x="308" y="100" width="5" height="1" fill="#565b7a"/>
    <rect x="1" y="101" width="4" height="1" fill="#565b7a"/>
    <rect x="36" y="101" width="190" height="1" fill="#565b7a"/>
    <rect x="308" y="101" width="5" height="1" fill="#565b7a"/>
    <rect x="1" y="102" width="4" height="1" fill="#565b7a"/>
    <rect x="36" y="102" width="190" height="1" fill="#565b7a"/>
    <rect x="308" y="102" width="5" height="1" fill="#565b7a"/>
    <rect x="1" y="103" width="4" height="1" fill="#565b7a"/>
    <rect x="36" y="103" width="190" height="1" fill="#565b7a"/>
    <rect x="308" y="103" width="5" height="1" fill="#565b7a"/>
    <rect x="1" y="104" width="4" height="1" fill="#565b7a"/>
    <rect x="36" y="104" width="190" height="1" fill="#565b7a"/>
    <rect x="308" y="104" width="5" height="1" fill="#565b7a"/>
    <rect x="1" y="105" width="4" height="1" fill="#565b7a"/>
    <rect x="36" y="105" width="190" height="1" fill="#565b7a"/>
    <rect x="308" y="105" width="5" height="1" fill="#565b7a"/>
    <rect x="1" y="106" width="4" height="1" fill="#565b7a"/>
    <rect x="36" y="106" width="191" height="1" fill="#565b7a"/>
    <rect x="308" y="106" width="5" height="1" fill="#565b7a"/>
    <rect x="1" y="107" width="4" height="1" fill="#565b7a"/>
    <rect x="36" y="107" width="191" height="1" fill="#565b7a"/>
    <rect x="308" y="107" width="5" height="1" fill="#565b7a"/>
    <rect x="1" y="108" width="4" height="1" fill="#565b7a"/>
    <rect x="36" y="108" width="192" height="1" fill="#565b7a"/>
    <rect x="308" y="108" width="5" height="1" fill="#565b7a"/>
    <rect x="1" y="109" width="4" height="1" fill="#565b7a"/>
    <rect x="36" y="109" width="192" height="1" fill="#565b7a"/>
    <rect x="308" y="109" width="5" height="1" fill="#565b7a"/>
    <rect x="1" y="110" width="4" height="1" fill="#565b7a"/>
    <rect x="36" y="110" width="193" height="1" fill="#565b7a"/>
    <rect x="308" y="110" width="5" height="1" fill="#565b7a"/>
    <rect x="1" y="111" width="4" height="1" fill="#565b7a"/>
    <rect x="36" y="111" width="194" height="1" fill="#565b7a"/>
    <rect x="308" y="111" width="5" height="1" fill="#565b7a"/>
    <rect x="1" y="112" width="4" height="1" fill="#565b7a"/>
    <rect x="36" y="112" width="191" height="1" fill="#565b7a"/>
    <rect x="228" y="112" width="3" height="1" fill="#565b7a"/>
    <rect x="308" y="112" width="5" height="1" fill="#565b7a"/>
    <rect x="1" y="113" width="4" height="1" fill="#565b7a"/>
    <rect x="36" y="113" width="195" height="1" fill="#565b7a"/>
    <rect x="308" y="113" width="5" height="1" fill="#565b7a"/>
    <rect x="1" y="114" width="4" height="1" fill="#565b7a"/>
    <rect x="36" y="114" width="87" height="1" fill="#565b7a"/>
    <rect x="124" y="114" width="104" height="1" fill="#565b7a"/>
    <rect x="229" y="114" width="3" height="1" fill="#565b7a"/>
    <rect x="308" y="114" width="5" height="1" fill="#565b7a"/>
    <rect x="1" y="115" width="4" height="1" fill="#565b7a"/>
    <rect x="36" y="115" width="196" height="1" fill="#565b7a"/>
    <rect x="308" y="115" width="5" height="1" fill="#565b7a"/>
    <rect x="1" y="116" width="4" height="1" fill="#565b7a"/>
    <rect x="36" y="116" width="197" height="1" fill="#565b7a"/>
    <rect x="308" y="116" width="5" height="1" fill="#565b7a"/>
    <rect x="1" y="117" width="4" height="1" fill="#565b7a"/>
    <rect x="36" y="117" width="197" height="1" fill="#565b7a"/>
    <rect x="308" y="117" width="5" height="1" fill="#565b7a"/>
    <rect x="1" y="118" width="4" height="1" fill="#565b7a"/>
    <rect x="36" y="118" width="198" height="1" fill="#565b7a"/>
    <rect x="308" y="118" width="5" height="1" fill="#565b7a"/>
    <rect x="1" y="119" width="4" height="1" fill="#565b7a"/>
    <rect x="36" y="119" width="199" height="1" fill="#565b7a"/>
    <rect x="308" y="119" width="5" height="1" fill="#565b7a"/>
    <rect x="1" y="120" width="4" height="1" fill="#565b7a"/>
    <rect x="36" y="120" width="127" height="1" fill="#565b7a"/>
    <rect x="165" y="120" width="8" height="1" fill="#565b7a"/>
    <rect x="175" y="120" width="60" height="1" fill="#565b7a"/>
    <rect x="308" y="120" width="5" height="1" fill="#565b7a"/>
    <rect x="1" y="121" width="4" height="1" fill="#565b7a"/>
    <rect x="36" y="121" width="200" height="1" fill="#565b7a"/>
    <rect x="308" y="121" width="5" height="1" fill="#565b7a"/>
    <rect x="1" y="122" width="4" height="1" fill="#565b7a"/>
    <rect x="36" y="122" width="200" height="1" fill="#565b7a"/>
    <rect x="308" y="122" width="5" height="1" fill="#565b7a"/>
    <rect x="1" y="123" width="4" height="1" fill="#565b7a"/>
    <rect x="36" y="123" width="201" height="1" fill="#565b7a"/>
    <rect x="308" y="123" width="5" height="1" fill="#565b7a"/>
    <rect x="1" y="124" width="4" height="1" fill="#565b7a"/>
    <rect x="36" y="124" width="201" height="1" fill="#565b7a"/>
    <rect x="308" y="124" width="5" height="1" fill="#565b7a"/>
    <rect x="1" y="125" width="4" height="1" fill="#565b7a"/>
    <rect x="36" y="125" width="202" height="1" fill="#565b7a"/>
    <rect x="308" y="125" width="5" height="1" fill="#565b7a"/>
    <rect x="1" y="126" width="4" height="1" fill="#565b7a"/>
    <rect x="36" y="126" width="203" height="1" fill="#565b7a"/>
    <rect x="308" y="126" width="5" height="1" fill="#565b7a"/>
    <rect x="1" y="127" width="4" height="1" fill="#565b7a"/>
    <rect x="36" y="127" width="200" height="1" fill="#565b7a"/>
    <rect x="237" y="127" width="3" height="1" fill="#565b7a"/>
    <rect x="308" y="127" width="5" height="1" fill="#565b7a"/>
    <rect x="1" y="128" width="4" height="1" fill="#565b7a"/>
    <rect x="36" y="128" width="205" height="1" fill="#565b7a"/>
    <rect x="308" y="128" width="5" height="1" fill="#565b7a"/>
    <rect x="1" y="129" width="4" height="1" fill="#565b7a"/>
    <rect x="36" y="129" width="205" height="1" fill="#565b7a"/>
    <rect x="308" y="129" width="5" height="1" fill="#565b7a"/>
    <rect x="1" y="130" width="4" height="1" fill="#565b7a"/>
    <rect x="36" y="130" width="206" height="1" fill="#565b7a"/>
    <rect x="308" y="130" width="5" height="1" fill="#565b7a"/>
    <rect x="1" y="131" width="4" height="1" fill="#565b7a"/>
    <rect x="36" y="131" width="49" height="1" fill="#565b7a"/>
    <rect x="86" y="131" width="5" height="1" fill="#565b7a"/>
    <rect x="92" y="131" width="150" height="1" fill="#565b7a"/>
    <rect x="308" y="131" width="5" height="1" fill="#565b7a"/>
    <rect x="1" y="132" width="4" height="1" fill="#565b7a"/>
    <rect x="36" y="132" width="69" height="1" fill="#565b7a"/>
    <rect x="107" y="132" width="36" height="1" fill="#565b7a"/>
    <rect x="144" y="132" width="99" height="1" fill="#565b7a"/>
    <rect x="308" y="132" width="5" height="1" fill="#565b7a"/>
    <rect x="1" y="133" width="4" height="1" fill="#565b7a"/>
    <rect x="36" y="133" width="207" height="1" fill="#565b7a"/>
    <rect x="308" y="133" width="5" height="1" fill="#565b7a"/>
    <rect x="1" y="134" width="4" height="1" fill="#565b7a"/>
    <rect x="36" y="134" width="208" height="1" fill="#565b7a"/>
    <rect x="308" y="134" width="5" height="1" fill="#565b7a"/>
    <rect x="1" y="135" width="4" height="1" fill="#565b7a"/>
    <rect x="36" y="135" width="209" height="1" fill="#565b7a"/>
    <rect x="308" y="135" width="5" height="1" fill="#565b7a"/>
    <rect x="1" y="136" width="4" height="1" fill="#565b7a"/>
    <rect x="36" y="136" width="209" height="1" fill="#565b7a"/>
    <rect x="308" y="136" width="5" height="1" fill="#565b7a"/>
    <rect x="1" y="137" width="4" height="1" fill="#565b7a"/>
    <rect x="36" y="137" width="210" height="1" fill="#565b7a"/>
    <rect x="308" y="137" width="5" height="1" fill="#565b7a"/>
    <rect x="1" y="138" width="4" height="1" fill="#565b7a"/>
    <rect x="36" y="138" width="210" height="1" fill="#565b7a"/>
    <rect x="308" y="138" width="5" height="1" fill="#565b7a"/>
    <rect x="1" y="139" width="4" height="1" fill="#565b7a"/>
    <rect x="36" y="139" width="211" height="1" fill="#565b7a"/>
    <rect x="308" y="139" width="5" height="1" fill="#565b7a"/>
    <rect x="1" y="140" width="4" height="1" fill="#565b7a"/>
    <rect x="36" y="140" width="208" height="1" fill="#565b7a"/>
    <rect x="245" y="140" width="2" height="1" fill="#565b7a"/>
    <rect x="308" y="140" width="5" height="1" fill="#565b7a"/>
    <rect x="1" y="141" width="4" height="1" fill="#565b7a"/>
    <rect x="36" y="141" width="213" height="1" fill="#565b7a"/>
    <rect x="308" y="141" width="5" height="1" fill="#565b7a"/>
    <rect x="1" y="142" width="4" height="1" fill="#565b7a"/>
    <rect x="36" y="142" width="213" height="1" fill="#565b7a"/>
    <rect x="308" y="142" width="5" height="1" fill="#565b7a"/>
    <rect x="1" y="143" width="4" height="1" fill="#565b7a"/>
    <rect x="36" y="143" width="190" height="1" fill="#565b7a"/>
    <rect x="227" y="143" width="23" height="1" fill="#565b7a"/>
    <rect x="308" y="143" width="5" height="1" fill="#565b7a"/>
    <rect x="1" y="144" width="4" height="1" fill="#565b7a"/>
    <rect x="36" y="144" width="190" height="1" fill="#565b7a"/>
    <rect x="229" y="144" width="3" height="1" fill="#565b7a"/>
    <rect x="233" y="144" width="17" height="1" fill="#565b7a"/>
    <rect x="308" y="144" width="5" height="1" fill="#565b7a"/>
    <rect x="1" y="145" width="4" height="1" fill="#565b7a"/>
    <rect x="36" y="145" width="190" height="1" fill="#565b7a"/>
    <rect x="229" y="145" width="22" height="1" fill="#565b7a"/>
    <rect x="308" y="145" width="5" height="1" fill="#565b7a"/>
    <rect x="1" y="146" width="4" height="1" fill="#565b7a"/>
    <rect x="36" y="146" width="190" height="1" fill="#565b7a"/>
    <rect x="231" y="146" width="20" height="1" fill="#565b7a"/>
    <rect x="308" y="146" width="5" height="1" fill="#565b7a"/>
    <rect x="1" y="147" width="4" height="1" fill="#565b7a"/>
    <rect x="36" y="147" width="190" height="1" fill="#565b7a"/>
    <rect x="231" y="147" width="21" height="1" fill="#565b7a"/>
    <rect x="308" y="147" width="5" height="1" fill="#565b7a"/>
    <rect x="1" y="148" width="4" height="1" fill="#565b7a"/>
    <rect x="36" y="148" width="190" height="1" fill="#565b7a"/>
    <rect x="233" y="148" width="20" height="1" fill="#565b7a"/>
    <rect x="308" y="148" width="5" height="1" fill="#565b7a"/>
    <rect x="1" y="149" width="4" height="1" fill="#565b7a"/>
    <rect x="36" y="149" width="190" height="1" fill="#565b7a"/>
    <rect x="234" y="149" width="19" height="1" fill="#565b7a"/>
    <rect x="308" y="149" width="5" height="1" fill="#565b7a"/>
    <rect x="1" y="150" width="4" height="1" fill="#565b7a"/>
    <rect x="36" y="150" width="190" height="1" fill="#565b7a"/>
    <rect x="235" y="150" width="19" height="1" fill="#565b7a"/>
    <rect x="308" y="150" width="5" height="1" fill="#565b7a"/>
    <rect x="1" y="151" width="4" height="1" fill="#565b7a"/>
    <rect x="36" y="151" width="190" height="1" fill="#565b7a"/>
    <rect x="237" y="151" width="18" height="1" fill="#565b7a"/>
    <rect x="308" y="151" width="5" height="1" fill="#565b7a"/>
    <rect x="1" y="152" width="4" height="1" fill="#565b7a"/>
    <rect x="36" y="152" width="190" height="1" fill="#565b7a"/>
    <rect x="237" y="152" width="18" height="1" fill="#565b7a"/>
    <rect x="308" y="152" width="5" height="1" fill="#565b7a"/>
    <rect x="1" y="153" width="4" height="1" fill="#565b7a"/>
    <rect x="36" y="153" width="190" height="1" fill="#565b7a"/>
    <rect x="238" y="153" width="18" height="1" fill="#565b7a"/>
    <rect x="308" y="153" width="5" height="1" fill="#565b7a"/>
    <rect x="1" y="154" width="4" height="1" fill="#565b7a"/>
    <rect x="36" y="154" width="190" height="1" fill="#565b7a"/>
    <rect x="239" y="154" width="17" height="1" fill="#565b7a"/>
    <rect x="308" y="154" width="5" height="1" fill="#565b7a"/>
    <rect x="1" y="155" width="4" height="1" fill="#565b7a"/>
    <rect x="36" y="155" width="190" height="1" fill="#565b7a"/>
    <rect x="241" y="155" width="16" height="1" fill="#565b7a"/>
    <rect x="308" y="155" width="5" height="1" fill="#565b7a"/>
    <rect x="1" y="156" width="4" height="1" fill="#565b7a"/>
    <rect x="36" y="156" width="190" height="1" fill="#565b7a"/>
    <rect x="241" y="156" width="4" height="1" fill="#565b7a"/>
    <rect x="246" y="156" width="12" height="1" fill="#565b7a"/>
    <rect x="308" y="156" width="5" height="1" fill="#565b7a"/>
    <rect x="1" y="157" width="4" height="1" fill="#565b7a"/>
    <rect x="36" y="157" width="190" height="1" fill="#565b7a"/>
    <rect x="243" y="157" width="15" height="1" fill="#565b7a"/>
    <rect x="308" y="157" width="5" height="1" fill="#565b7a"/>
    <rect x="1" y="158" width="4" height="1" fill="#565b7a"/>
    <rect x="36" y="158" width="190" height="1" fill="#565b7a"/>
    <rect x="243" y="158" width="12" height="1" fill="#565b7a"/>
    <rect x="256" y="158" width="3" height="1" fill="#565b7a"/>
    <rect x="308" y="158" width="5" height="1" fill="#565b7a"/>
    <rect x="1" y="159" width="4" height="1" fill="#565b7a"/>
    <rect x="36" y="159" width="190" height="1" fill="#565b7a"/>
    <rect x="245" y="159" width="14" height="1" fill="#565b7a"/>
    <rect x="308" y="159" width="5" height="1" fill="#565b7a"/>
    <rect x="1" y="160" width="4" height="1" fill="#565b7a"/>
    <rect x="36" y="160" width="190" height="1" fill="#565b7a"/>
    <rect x="246" y="160" width="14" height="1" fill="#565b7a"/>
    <rect x="308" y="160" width="5" height="1" fill="#565b7a"/>
    <rect x="1" y="161" width="4" height="1" fill="#565b7a"/>
    <rect x="36" y="161" width="190" height="1" fill="#565b7a"/>
    <rect x="247" y="161" width="13" height="1" fill="#565b7a"/>
    <rect x="308" y="161" width="5" height="1" fill="#565b7a"/>
    <rect x="1" y="162" width="4" height="1" fill="#565b7a"/>
    <rect x="36" y="162" width="190" height="1" fill="#565b7a"/>
    <rect x="248" y="162" width="13" height="1" fill="#565b7a"/>
    <rect x="308" y="162" width="5" height="1" fill="#565b7a"/>
    <rect x="1" y="163" width="4" height="1" fill="#565b7a"/>
    <rect x="36" y="163" width="190" height="1" fill="#565b7a"/>
    <rect x="249" y="163" width="13" height="1" fill="#565b7a"/>
    <rect x="308" y="163" width="5" height="1" fill="#565b7a"/>
    <rect x="1" y="164" width="4" height="1" fill="#565b7a"/>
    <rect x="36" y="164" width="190" height="1" fill="#565b7a"/>
    <rect x="251" y="164" width="8" height="1" fill="#565b7a"/>
    <rect x="260" y="164" width="3" height="1" fill="#565b7a"/>
    <rect x="308" y="164" width="5" height="1" fill="#565b7a"/>
    <rect x="1" y="165" width="4" height="1" fill="#565b7a"/>
    <rect x="36" y="165" width="190" height="1" fill="#565b7a"/>
    <rect x="251" y="165" width="12" height="1" fill="#565b7a"/>
    <rect x="308" y="165" width="5" height="1" fill="#565b7a"/>
    <rect x="1" y="166" width="4" height="1" fill="#565b7a"/>
    <rect x="36" y="166" width="190" height="1" fill="#565b7a"/>
    <rect x="252" y="166" width="12" height="1" fill="#565b7a"/>
    <rect x="308" y="166" width="5" height="1" fill="#565b7a"/>
    <rect x="1" y="167" width="4" height="1" fill="#565b7a"/>
    <rect x="36" y="167" width="190" height="1" fill="#565b7a"/>
    <rect x="254" y="167" width="11" height="1" fill="#565b7a"/>
    <rect x="308" y="167" width="5" height="1" fill="#565b7a"/>
    <rect x="1" y="168" width="4" height="1" fill="#565b7a"/>
    <rect x="36" y="168" width="190" height="1" fill="#565b7a"/>
    <rect x="255" y="168" width="10" height="1" fill="#565b7a"/>
    <rect x="308" y="168" width="5" height="1" fill="#565b7a"/>
    <rect x="1" y="169" width="4" height="1" fill="#565b7a"/>
    <rect x="36" y="169" width="190" height="1" fill="#565b7a"/>
    <rect x="256" y="169" width="10" height="1" fill="#565b7a"/>
    <rect x="308" y="169" width="5" height="1" fill="#565b7a"/>
    <rect x="1" y="170" width="4" height="1" fill="#565b7a"/>
    <rect x="36" y="170" width="190" height="1" fill="#565b7a"/>
    <rect x="257" y="170" width="9" height="1" fill="#565b7a"/>
    <rect x="308" y="170" width="5" height="1" fill="#565b7a"/>
    <rect x="1" y="171" width="4" height="1" fill="#565b7a"/>
    <rect x="36" y="171" width="190" height="1" fill="#565b7a"/>
    <rect x="258" y="171" width="9" height="1" fill="#565b7a"/>
    <rect x="308" y="171" width="5" height="1" fill="#565b7a"/>
    <rect x="1" y="172" width="4" height="1" fill="#565b7a"/>
    <rect x="36" y="172" width="190" height="1" fill="#565b7a"/>
    <rect x="259" y="172" width="8" height="1" fill="#565b7a"/>
    <rect x="308" y="172" width="5" height="1" fill="#565b7a"/>
    <rect x="1" y="173" width="4" height="1" fill="#565b7a"/>
    <rect x="36" y="173" width="190" height="1" fill="#565b7a"/>
    <rect x="260" y="173" width="8" height="1" fill="#565b7a"/>
    <rect x="308" y="173" width="5" height="1" fill="#565b7a"/>
    <rect x="1" y="174" width="4" height="1" fill="#565b7a"/>
    <rect x="36" y="174" width="190" height="1" fill="#565b7a"/>
    <rect x="261" y="174" width="4" height="1" fill="#565b7a"/>
    <rect x="266" y="174" width="2" height="1" fill="#565b7a"/>
    <rect x="308" y="174" width="5" height="1" fill="#565b7a"/>
    <rect x="1" y="175" width="4" height="1" fill="#565b7a"/>
    <rect x="36" y="175" width="190" height="1" fill="#565b7a"/>
    <rect x="263" y="175" width="3" height="1" fill="#565b7a"/>
    <rect x="267" y="175" width="2" height="1" fill="#565b7a"/>
    <rect x="308" y="175" width="5" height="1" fill="#565b7a"/>
    <rect x="1" y="176" width="4" height="1" fill="#565b7a"/>
    <rect x="36" y="176" width="2" height="1" fill="#565b7a"/>
    <rect x="39" y="176" width="187" height="1" fill="#565b7a"/>
    <rect x="264" y="176" width="6" height="1" fill="#565b7a"/>
    <rect x="308" y="176" width="5" height="1" fill="#565b7a"/>
    <rect x="1" y="177" width="4" height="1" fill="#565b7a"/>
    <rect x="36" y="177" width="2" height="1" fill="#565b7a"/>
    <rect x="39" y="177" width="184" height="1" fill="#565b7a"/>
    <rect x="224" y="177" width="2" height="1" fill="#565b7a"/>
    <rect x="264" y="177" width="6" height="1" fill="#565b7a"/>
    <rect x="308" y="177" width="5" height="1" fill="#565b7a"/>
    <rect x="1" y="178" width="4" height="1" fill="#565b7a"/>
    <rect x="36" y="178" width="190" height="1" fill="#565b7a"/>
    <rect x="266" y="178" width="6" height="1" fill="#565b7a"/>
    <rect x="308" y="178" width="5" height="1" fill="#565b7a"/>
    <rect x="1" y="179" width="4" height="1" fill="#565b7a"/>
    <rect x="36" y="179" width="190" height="1" fill="#565b7a"/>
    <rect x="267" y="179" width="5" height="1" fill="#565b7a"/>
    <rect x="308" y="179" width="5" height="1" fill="#565b7a"/>
    <rect x="1" y="180" width="4" height="1" fill="#565b7a"/>
    <rect x="268" y="180" width="5" height="1" fill="#565b7a"/>
    <rect x="308" y="180" width="5" height="1" fill="#565b7a"/>
    <rect x="1" y="181" width="4" height="1" fill="#565b7a"/>
    <rect x="269" y="181" width="4" height="1" fill="#565b7a"/>
    <rect x="308" y="181" width="5" height="1" fill="#565b7a"/>
    <rect x="1" y="182" width="4" height="1" fill="#565b7a"/>
    <rect x="271" y="182" width="3" height="1" fill="#565b7a"/>
    <rect x="308" y="182" width="5" height="1" fill="#565b7a"/>
    <rect x="1" y="183" width="4" height="1" fill="#565b7a"/>
    <rect x="272" y="183" width="1" height="1" fill="#565b7a"/>
    <rect x="308" y="183" width="5" height="1" fill="#565b7a"/>
    <rect x="1" y="184" width="4" height="1" fill="#565b7a"/>
    <rect x="308" y="184" width="5" height="1" fill="#565b7a"/>
    <rect x="1" y="185" width="4" height="1" fill="#565b7a"/>
    <rect x="308" y="185" width="5" height="1" fill="#565b7a"/>
    <rect x="1" y="186" width="4" height="1" fill="#565b7a"/>
    <rect x="308" y="186" width="5" height="1" fill="#565b7a"/>
    <rect x="1" y="187" width="4" height="1" fill="#565b7a"/>
    <rect x="308" y="187" width="5" height="1" fill="#565b7a"/>
    <rect x="1" y="188" width="4" height="1" fill="#565b7a"/>
    <rect x="308" y="188" width="5" height="1" fill="#565b7a"/>
    <rect x="1" y="189" width="4" height="1" fill="#565b7a"/>
    <rect x="308" y="189" width="5" height="1" fill="#565b7a"/>
    <rect x="1" y="190" width="4" height="1" fill="#565b7a"/>
    <rect x="308" y="190" width="5" height="1" fill="#565b7a"/>
    <rect x="1" y="191" width="4" height="1" fill="#565b7a"/>
    <rect x="308" y="191" width="5" height="1" fill="#565b7a"/>
    <rect x="1" y="192" width="4" height="1" fill="#565b7a"/>
    <rect x="308" y="192" width="5" height="1" fill="#565b7a"/>
    <rect x="1" y="193" width="4" height="1" fill="#565b7a"/>
    <rect x="308" y="193" width="5" height="1" fill="#565b7a"/>
    <rect x="1" y="194" width="4" height="1" fill="#565b7a"/>
    <rect x="308" y="194" width="5" height="1" fill="#565b7a"/>
    <rect x="1" y="195" width="4" height="1" fill="#565b7a"/>
    <rect x="308" y="195" width="5" height="1" fill="#565b7a"/>
    <rect x="1" y="196" width="4" height="1" fill="#565b7a"/>
    <rect x="308" y="196" width="5" height="1" fill="#565b7a"/>
    <rect x="1" y="197" width="4" height="1" fill="#565b7a"/>
    <rect x="308" y="197" width="5" height="1" fill="#565b7a"/>
    <rect x="1" y="198" width="4" height="1" fill="#565b7a"/>
    <rect x="308" y="198" width="5" height="1" fill="#565b7a"/>
    <rect x="1" y="199" width="4" height="1" fill="#565b7a"/>
    <rect x="308" y="199" width="5" height="1" fill="#565b7a"/>
    <rect x="1" y="200" width="4" height="1" fill="#565b7a"/>
    <rect x="308" y="200" width="5" height="1" fill="#565b7a"/>
    <rect x="1" y="201" width="4" height="1" fill="#565b7a"/>
    <rect x="308" y="201" width="5" height="1" fill="#565b7a"/>
    <rect x="1" y="202" width="4" height="1" fill="#565b7a"/>
    <rect x="308" y="202" width="5" height="1" fill="#565b7a"/>
    <rect x="1" y="203" width="4" height="1" fill="#565b7a"/>
    <rect x="308" y="203" width="5" height="1" fill="#565b7a"/>
    <rect x="1" y="204" width="4" height="1" fill="#565b7a"/>
    <rect x="308" y="204" width="5" height="1" fill="#565b7a"/>
    <rect x="1" y="205" width="4" height="1" fill="#565b7a"/>
    <rect x="308" y="205" width="5" height="1" fill="#565b7a"/>
    <rect x="1" y="206" width="4" height="1" fill="#565b7a"/>
    <rect x="308" y="206" width="5" height="1" fill="#565b7a"/>
    <rect x="1" y="207" width="312" height="1" fill="#565b7a"/>
    <rect x="1" y="208" width="312" height="1" fill="#565b7a"/>
    <rect x="1" y="209" width="312" height="1" fill="#565b7a"/>
    <rect x="2" y="210" width="311" height="1" fill="#565b7a"/>
    <rect x="2" y="211" width="311" height="1" fill="#565b7a"/>
  </g>
</svg>