<?xml version="1.0" encoding="UTF-8"?>
<svg xmlns="http://www.w3.org/2000/svg" viewBox="0 0 900 300" width="900" height="300">
  <!-- Parallel unconformity with ticks on both sides -->
  <g stroke="black" stroke-width="6">
    <line x1="30" y1="100" x2="870" y2="100" />
    <line x1="30" y1="150" x2="870" y2="150" />
    <g>
      <!-- Upper ticks -->
      <line x1="40" y1="60" x2="40" y2="130" />
      <line x1="80" y1="60" x2="80" y2="130" />
      <line x1="120" y1="60" x2="120" y2="130" />
      <line x1="160" y1="60" x2="160" y2="130" />
      <line x1="200" y1="60" x2="200" y2="130" />
      <line x1="240" y1="60" x2="240" y="130" />
      <line x1="280" y1="60" x2="280" y="130" />
      <line x1="320" y1="60" x2="320" y="130" />
      <line x1="360" y1="60" x2="360" y="130" />
      <line x1="400" y1="60" x2="400" y="130" />
      <line x1="440" y1="60" x2="440" y="130" />
      <line x1="480" y1="60" x2="480" y="130" />
      <line x1="520" y1="60" x2="520" y="130" />
      <line x1="560" y1="60" x2="560" y="130" />
      <line x="600" y1="60" x2="600" y="130" />
      <line x="640" y1="60" x2="640" y="130" />
      <line x="680" y1="60" x="680" y="130" />
      <line x="720" y1="60" x="720" y="130" />
      <line x="760" y1="60" x2="760" y="130" />
      <line x="800" y1="60" x2="800" y="130" />
      <line x="840" y1="60" x2="840" y="130" />
      <!-- Lower ticks -->
      <line x1="40" y1="150" x2="40" y2="220" />
      <line x1="80" y1="150" x2="80" y="220" />
      <line x1="120" y1="150" x2="120" y="220" />
      <line x="160" y1="150" x2="160" y="220" />
      <line x="200" y1="150" x2="200" y="220" />
      <line x="240" y1="150" x2="240" y="220" />
      <line x="280" y1="150" x2="280" y="220" />
      <line x="320" y1="150" x2="320" y="220" />
      <line x="360" y1="150" x2="360" y="220" />
      <line x="400" y1="150" x="400" y="220" />
      <line x="440" y1="150" x="440" y="220" />
      <line x="480" y1="150" x="480" y="220" />
      <line x="520" y1="150" x="520" y="220" />
      <line x="560" y1="150" x="560" y="220" />
      <line x="600" y1="150" x="600" y="220" />
      <line x="640" y1="150" x="640" y="220" />
      <line x="680" y1="150" x="680" y="220" />
      <line x="720" y1="150" x="720" y="220" />
      <line x="760" y1="150" x="760" y="220" />
      <line x="800" y1="150" x="800" y="220" />
      <line x="840" y1="150" x="840" y="220" />
    </g>
  </g>
</svg>
