<?xml version="1.0" encoding="UTF-8"?>
<svg xmlns="http://www.w3.org/2000/svg" viewBox="0 0 313 212" width="313" height="212">
  <!-- Auto-converted from legend-2796.png -->
  <rect x="0" y="0" width="313" height="212" fill="none"/>
  <g fill="#813229" stroke="none">
    <rect x="2" y="2" width="309" height="1" fill="#813229"/>
    <rect x="2" y="3" width="309" height="1" fill="#813229"/>
    <rect x="2" y="4" width="309" height="1" fill="#813229"/>
    <rect x="2" y="5" width="309" height="1" fill="#813229"/>
    <rect x="2" y="6" width="309" height="1" fill="#813229"/>
    <rect x="2" y="7" width="4" height="1" fill="#813229"/>
    <rect x="307" y="7" width="4" height="1" fill="#813229"/>
    <rect x="2" y="8" width="4" height="1" fill="#813229"/>
    <rect x="307" y="8" width="4" height="1" fill="#813229"/>
    <rect x="2" y="9" width="4" height="1" fill="#813229"/>
    <rect x="307" y="9" width="4" height="1" fill="#813229"/>
    <rect x="2" y="10" width="4" height="1" fill="#813229"/>
    <rect x="307" y="10" width="4" height="1" fill="#813229"/>
    <rect x="2" y="11" width="4" height="1" fill="#813229"/>
    <rect x="307" y="11" width="4" height="1" fill="#813229"/>
    <rect x="2" y="12" width="4" height="1" fill="#813229"/>
    <rect x="307" y="12" width="4" height="1" fill="#813229"/>
    <rect x="2" y="13" width="4" height="1" fill="#813229"/>
    <rect x="307" y="13" width="4" height="1" fill="#813229"/>
    <rect x="2" y="14" width="4" height="1" fill="#813229"/>
    <rect x="307" y="14" width="4" height="1" fill="#813229"/>
    <rect x="2" y="15" width="4" height="1" fill="#813229"/>
    <rect x="307" y="15" width="4" height="1" fill="#813229"/>
    <rect x="2" y="16" width="4" height="1" fill="#813229"/>
    <rect x="307" y="16" width="4" height="1" fill="#813229"/>
    <rect x="2" y="17" width="4" height="1" fill="#813229"/>
    <rect x="307" y="17" width="4" height="1" fill="#813229"/>
    <rect x="2" y="18" width="4" height="1" fill="#813229"/>
    <rect x="307" y="18" width="4" height="1" fill="#813229"/>
    <rect x="2" y="19" width="4" height="1" fill="#813229"/>
    <rect x="307" y="19" width="4" height="1" fill="#813229"/>
    <rect x="2" y="20" width="4" height="1" fill="#813229"/>
    <rect x="307" y="20" width="4" height="1" fill="#813229"/>
    <rect x="2" y="21" width="4" height="1" fill="#813229"/>
    <rect x="307" y="21" width="4" height="1" fill="#813229"/>
    <rect x="2" y="22" width="4" height="1" fill="#813229"/>
    <rect x="307" y="22" width="4" height="1" fill="#813229"/>
    <rect x="2" y="23" width="4" height="1" fill="#813229"/>
    <rect x="307" y="23" width="4" height="1" fill="#813229"/>
    <rect x="2" y="24" width="4" height="1" fill="#813229"/>
    <rect x="307" y="24" width="4" height="1" fill="#813229"/>
    <rect x="2" y="25" width="4" height="1" fill="#813229"/>
    <rect x="307" y="25" width="4" height="1" fill="#813229"/>
    <rect x="2" y="26" width="4" height="1" fill="#813229"/>
    <rect x="307" y="26" width="4" height="1" fill="#813229"/>
    <rect x="2" y="27" width="4" height="1" fill="#813229"/>
    <rect x="307" y="27" width="4" height="1" fill="#813229"/>
    <rect x="2" y="28" width="4" height="1" fill="#813229"/>
    <rect x="307" y="28" width="4" height="1" fill="#813229"/>
    <rect x="2" y="29" width="4" height="1" fill="#813229"/>
    <rect x="41" y="29" width="166" height="1" fill="#813229"/>
    <rect x="307" y="29" width="4" height="1" fill="#813229"/>
    <rect x="2" y="30" width="4" height="1" fill="#813229"/>
    <rect x="39" y="30" width="168" height="1" fill="#813229"/>
    <rect x="307" y="30" width="4" height="1" fill="#813229"/>
    <rect x="2" y="31" width="4" height="1" fill="#813229"/>
    <rect x="39" y="31" width="168" height="1" fill="#813229"/>
    <rect x="307" y="31" width="4" height="1" fill="#813229"/>
    <rect x="2" y="32" width="4" height="1" fill="#813229"/>
    <rect x="39" y="32" width="2" height="1" fill="#813229"/>
    <rect x="205" y="32" width="2" height="1" fill="#813229"/>
    <rect x="307" y="32" width="4" height="1" fill="#813229"/>
    <rect x="2" y="33" width="4" height="1" fill="#813229"/>
    <rect x="39" y="33" width="2" height="1" fill="#813229"/>
    <rect x="205" y="33" width="2" height="1" fill="#813229"/>
    <rect x="307" y="33" width="4" height="1" fill="#813229"/>
    <rect x="2" y="34" width="4" height="1" fill="#813229"/>
    <rect x="39" y="34" width="2" height="1" fill="#813229"/>
    <rect x="205" y="34" width="2" height="1" fill="#813229"/>
    <rect x="307" y="34" width="4" height="1" fill="#813229"/>
    <rect x="2" y="35" width="4" height="1" fill="#813229"/>
    <rect x="39" y="35" width="2" height="1" fill="#813229"/>
    <rect x="205" y="35" width="2" height="1" fill="#813229"/>
    <rect x="307" y="35" width="4" height="1" fill="#813229"/>
    <rect x="2" y="36" width="4" height="1" fill="#813229"/>
    <rect x="39" y="36" width="2" height="1" fill="#813229"/>
    <rect x="205" y="36" width="2" height="1" fill="#813229"/>
    <rect x="307" y="36" width="4" height="1" fill="#813229"/>
    <rect x="2" y="37" width="4" height="1" fill="#813229"/>
    <rect x="39" y="37" width="2" height="1" fill="#813229"/>
    <rect x="205" y="37" width="2" height="1" fill="#813229"/>
    <rect x="307" y="37" width="4" height="1" fill="#813229"/>
    <rect x="2" y="38" width="4" height="1" fill="#813229"/>
    <rect x="39" y="38" width="2" height="1" fill="#813229"/>
    <rect x="205" y="38" width="2" height="1" fill="#813229"/>
    <rect x="307" y="38" width="4" height="1" fill="#813229"/>
    <rect x="2" y="39" width="4" height="1" fill="#813229"/>
    <rect x="39" y="39" width="2" height="1" fill="#813229"/>
    <rect x="205" y="39" width="2" height="1" fill="#813229"/>
    <rect x="307" y="39" width="4" height="1" fill="#813229"/>
    <rect x="2" y="40" width="4" height="1" fill="#813229"/>
    <rect x="39" y="40" width="2" height="1" fill="#813229"/>
    <rect x="205" y="40" width="2" height="1" fill="#813229"/>
    <rect x="307" y="40" width="4" height="1" fill="#813229"/>
    <rect x="2" y="41" width="4" height="1" fill="#813229"/>
    <rect x="39" y="41" width="2" height="1" fill="#813229"/>
    <rect x="205" y="41" width="2" height="1" fill="#813229"/>
    <rect x="307" y="41" width="4" height="1" fill="#813229"/>
    <rect x="2" y="42" width="4" height="1" fill="#813229"/>
    <rect x="39" y="42" width="2" height="1" fill="#813229"/>
    <rect x="205" y="42" width="2" height="1" fill="#813229"/>
    <rect x="307" y="42" width="4" height="1" fill="#813229"/>
    <rect x="2" y="43" width="4" height="1" fill="#813229"/>
    <rect x="39" y="43" width="2" height="1" fill="#813229"/>
    <rect x="205" y="43" width="2" height="1" fill="#813229"/>
    <rect x="307" y="43" width="4" height="1" fill="#813229"/>
    <rect x="2" y="44" width="4" height="1" fill="#813229"/>
    <rect x="39" y="44" width="2" height="1" fill="#813229"/>
    <rect x="205" y="44" width="2" height="1" fill="#813229"/>
    <rect x="307" y="44" width="4" height="1" fill="#813229"/>
    <rect x="2" y="45" width="4" height="1" fill="#813229"/>
    <rect x="39" y="45" width="2" height="1" fill="#813229"/>
    <rect x="205" y="45" width="2" height="1" fill="#813229"/>
    <rect x="307" y="45" width="4" height="1" fill="#813229"/>
    <rect x="2" y="46" width="4" height="1" fill="#813229"/>
    <rect x="39" y="46" width="2" height="1" fill="#813229"/>
    <rect x="205" y="46" width="2" height="1" fill="#813229"/>
    <rect x="307" y="46" width="4" height="1" fill="#813229"/>
    <rect x="2" y="47" width="4" height="1" fill="#813229"/>
    <rect x="39" y="47" width="2" height="1" fill="#813229"/>
    <rect x="205" y="47" width="2" height="1" fill="#813229"/>
    <rect x="307" y="47" width="4" height="1" fill="#813229"/>
    <rect x="2" y="48" width="4" height="1" fill="#813229"/>
    <rect x="39" y="48" width="2" height="1" fill="#813229"/>
    <rect x="205" y="48" width="2" height="1" fill="#813229"/>
    <rect x="307" y="48" width="4" height="1" fill="#813229"/>
    <rect x="2" y="49" width="4" height="1" fill="#813229"/>
    <rect x="39" y="49" width="2" height="1" fill="#813229"/>
    <rect x="205" y="49" width="2" height="1" fill="#813229"/>
    <rect x="307" y="49" width="4" height="1" fill="#813229"/>
    <rect x="2" y="50" width="4" height="1" fill="#813229"/>
    <rect x="39" y="50" width="2" height="1" fill="#813229"/>
    <rect x="205" y="50" width="2" height="1" fill="#813229"/>
    <rect x="307" y="50" width="4" height="1" fill="#813229"/>
    <rect x="2" y="51" width="4" height="1" fill="#813229"/>
    <rect x="39" y="51" width="2" height="1" fill="#813229"/>
    <rect x="205" y="51" width="2" height="1" fill="#813229"/>
    <rect x="307" y="51" width="4" height="1" fill="#813229"/>
    <rect x="2" y="52" width="4" height="1" fill="#813229"/>
    <rect x="39" y="52" width="2" height="1" fill="#813229"/>
    <rect x="205" y="52" width="2" height="1" fill="#813229"/>
    <rect x="307" y="52" width="4" height="1" fill="#813229"/>
    <rect x="2" y="53" width="4" height="1" fill="#813229"/>
    <rect x="39" y="53" width="2" height="1" fill="#813229"/>
    <rect x="205" y="53" width="2" height="1" fill="#813229"/>
    <rect x="307" y="53" width="4" height="1" fill="#813229"/>
    <rect x="2" y="54" width="4" height="1" fill="#813229"/>
    <rect x="39" y="54" width="2" height="1" fill="#813229"/>
    <rect x="205" y="54" width="2" height="1" fill="#813229"/>
    <rect x="307" y="54" width="4" height="1" fill="#813229"/>
    <rect x="2" y="55" width="4" height="1" fill="#813229"/>
    <rect x="39" y="55" width="2" height="1" fill="#813229"/>
    <rect x="205" y="55" width="2" height="1" fill="#813229"/>
    <rect x="307" y="55" width="4" height="1" fill="#813229"/>
    <rect x="2" y="56" width="4" height="1" fill="#813229"/>
    <rect x="39" y="56" width="2" height="1" fill="#813229"/>
    <rect x="205" y="56" width="2" height="1" fill="#813229"/>
    <rect x="307" y="56" width="4" height="1" fill="#813229"/>
    <rect x="2" y="57" width="4" height="1" fill="#813229"/>
    <rect x="39" y="57" width="2" height="1" fill="#813229"/>
    <rect x="205" y="57" width="2" height="1" fill="#813229"/>
    <rect x="307" y="57" width="4" height="1" fill="#813229"/>
    <rect x="2" y="58" width="4" height="1" fill="#813229"/>
    <rect x="39" y="58" width="2" height="1" fill="#813229"/>
    <rect x="205" y="58" width="2" height="1" fill="#813229"/>
    <rect x="307" y="58" width="4" height="1" fill="#813229"/>
    <rect x="2" y="59" width="4" height="1" fill="#813229"/>
    <rect x="39" y="59" width="2" height="1" fill="#813229"/>
    <rect x="205" y="59" width="2" height="1" fill="#813229"/>
    <rect x="307" y="59" width="4" height="1" fill="#813229"/>
    <rect x="2" y="60" width="4" height="1" fill="#813229"/>
    <rect x="39" y="60" width="2" height="1" fill="#813229"/>
    <rect x="205" y="60" width="2" height="1" fill="#813229"/>
    <rect x="307" y="60" width="4" height="1" fill="#813229"/>
    <rect x="2" y="61" width="4" height="1" fill="#813229"/>
    <rect x="39" y="61" width="2" height="1" fill="#813229"/>
    <rect x="205" y="61" width="2" height="1" fill="#813229"/>
    <rect x="307" y="61" width="4" height="1" fill="#813229"/>
    <rect x="2" y="62" width="4" height="1" fill="#813229"/>
    <rect x="39" y="62" width="2" height="1" fill="#813229"/>
    <rect x="205" y="62" width="2" height="1" fill="#813229"/>
    <rect x="307" y="62" width="4" height="1" fill="#813229"/>
    <rect x="2" y="63" width="4" height="1" fill="#813229"/>
    <rect x="39" y="63" width="2" height="1" fill="#813229"/>
    <rect x="205" y="63" width="2" height="1" fill="#813229"/>
    <rect x="307" y="63" width="4" height="1" fill="#813229"/>
    <rect x="2" y="64" width="4" height="1" fill="#813229"/>
    <rect x="39" y="64" width="2" height="1" fill="#813229"/>
    <rect x="205" y="64" width="2" height="1" fill="#813229"/>
    <rect x="307" y="64" width="4" height="1" fill="#813229"/>
    <rect x="2" y="65" width="4" height="1" fill="#813229"/>
    <rect x="39" y="65" width="2" height="1" fill="#813229"/>
    <rect x="205" y="65" width="2" height="1" fill="#813229"/>
    <rect x="307" y="65" width="4" height="1" fill="#813229"/>
    <rect x="2" y="66" width="4" height="1" fill="#813229"/>
    <rect x="39" y="66" width="2" height="1" fill="#813229"/>
    <rect x="205" y="66" width="2" height="1" fill="#813229"/>
    <rect x="307" y="66" width="4" height="1" fill="#813229"/>
    <rect x="2" y="67" width="4" height="1" fill="#813229"/>
    <rect x="39" y="67" width="2" height="1" fill="#813229"/>
    <rect x="205" y="67" width="2" height="1" fill="#813229"/>
    <rect x="307" y="67" width="4" height="1" fill="#813229"/>
    <rect x="2" y="68" width="4" height="1" fill="#813229"/>
    <rect x="39" y="68" width="2" height="1" fill="#813229"/>
    <rect x="205" y="68" width="2" height="1" fill="#813229"/>
    <rect x="307" y="68" width="4" height="1" fill="#813229"/>
    <rect x="2" y="69" width="4" height="1" fill="#813229"/>
    <rect x="39" y="69" width="2" height="1" fill="#813229"/>
    <rect x="205" y="69" width="2" height="1" fill="#813229"/>
    <rect x="307" y="69" width="4" height="1" fill="#813229"/>
    <rect x="2" y="70" width="4" height="1" fill="#813229"/>
    <rect x="39" y="70" width="2" height="1" fill="#813229"/>
    <rect x="205" y="70" width="2" height="1" fill="#813229"/>
    <rect x="307" y="70" width="4" height="1" fill="#813229"/>
    <rect x="2" y="71" width="4" height="1" fill="#813229"/>
    <rect x="39" y="71" width="2" height="1" fill="#813229"/>
    <rect x="205" y="71" width="2" height="1" fill="#813229"/>
    <rect x="307" y="71" width="4" height="1" fill="#813229"/>
    <rect x="2" y="72" width="4" height="1" fill="#813229"/>
    <rect x="39" y="72" width="2" height="1" fill="#813229"/>
    <rect x="205" y="72" width="2" height="1" fill="#813229"/>
    <rect x="307" y="72" width="4" height="1" fill="#813229"/>
    <rect x="2" y="73" width="4" height="1" fill="#813229"/>
    <rect x="39" y="73" width="2" height="1" fill="#813229"/>
    <rect x="205" y="73" width="2" height="1" fill="#813229"/>
    <rect x="307" y="73" width="4" height="1" fill="#813229"/>
    <rect x="2" y="74" width="4" height="1" fill="#813229"/>
    <rect x="39" y="74" width="2" height="1" fill="#813229"/>
    <rect x="205" y="74" width="2" height="1" fill="#813229"/>
    <rect x="307" y="74" width="4" height="1" fill="#813229"/>
    <rect x="2" y="75" width="4" height="1" fill="#813229"/>
    <rect x="39" y="75" width="2" height="1" fill="#813229"/>
    <rect x="205" y="75" width="2" height="1" fill="#813229"/>
    <rect x="307" y="75" width="4" height="1" fill="#813229"/>
    <rect x="2" y="76" width="4" height="1" fill="#813229"/>
    <rect x="39" y="76" width="2" height="1" fill="#813229"/>
    <rect x="205" y="76" width="2" height="1" fill="#813229"/>
    <rect x="307" y="76" width="4" height="1" fill="#813229"/>
    <rect x="2" y="77" width="4" height="1" fill="#813229"/>
    <rect x="39" y="77" width="2" height="1" fill="#813229"/>
    <rect x="205" y="77" width="2" height="1" fill="#813229"/>
    <rect x="307" y="77" width="4" height="1" fill="#813229"/>
    <rect x="2" y="78" width="4" height="1" fill="#813229"/>
    <rect x="39" y="78" width="2" height="1" fill="#813229"/>
    <rect x="205" y="78" width="2" height="1" fill="#813229"/>
    <rect x="307" y="78" width="4" height="1" fill="#813229"/>
    <rect x="2" y="79" width="4" height="1" fill="#813229"/>
    <rect x="39" y="79" width="2" height="1" fill="#813229"/>
    <rect x="205" y="79" width="2" height="1" fill="#813229"/>
    <rect x="307" y="79" width="4" height="1" fill="#813229"/>
    <rect x="2" y="80" width="4" height="1" fill="#813229"/>
    <rect x="39" y="80" width="2" height="1" fill="#813229"/>
    <rect x="205" y="80" width="2" height="1" fill="#813229"/>
    <rect x="307" y="80" width="4" height="1" fill="#813229"/>
    <rect x="2" y="81" width="4" height="1" fill="#813229"/>
    <rect x="39" y="81" width="2" height="1" fill="#813229"/>
    <rect x="205" y="81" width="2" height="1" fill="#813229"/>
    <rect x="307" y="81" width="4" height="1" fill="#813229"/>
    <rect x="2" y="82" width="4" height="1" fill="#813229"/>
    <rect x="39" y="82" width="2" height="1" fill="#813229"/>
    <rect x="205" y="82" width="2" height="1" fill="#813229"/>
    <rect x="307" y="82" width="4" height="1" fill="#813229"/>
    <rect x="2" y="83" width="4" height="1" fill="#813229"/>
    <rect x="39" y="83" width="2" height="1" fill="#813229"/>
    <rect x="205" y="83" width="2" height="1" fill="#813229"/>
    <rect x="307" y="83" width="4" height="1" fill="#813229"/>
    <rect x="2" y="84" width="4" height="1" fill="#813229"/>
    <rect x="39" y="84" width="2" height="1" fill="#813229"/>
    <rect x="205" y="84" width="2" height="1" fill="#813229"/>
    <rect x="307" y="84" width="4" height="1" fill="#813229"/>
    <rect x="2" y="85" width="4" height="1" fill="#813229"/>
    <rect x="39" y="85" width="2" height="1" fill="#813229"/>
    <rect x="205" y="85" width="2" height="1" fill="#813229"/>
    <rect x="307" y="85" width="4" height="1" fill="#813229"/>
    <rect x="2" y="86" width="4" height="1" fill="#813229"/>
    <rect x="39" y="86" width="2" height="1" fill="#813229"/>
    <rect x="205" y="86" width="2" height="1" fill="#813229"/>
    <rect x="307" y="86" width="4" height="1" fill="#813229"/>
    <rect x="2" y="87" width="4" height="1" fill="#813229"/>
    <rect x="39" y="87" width="2" height="1" fill="#813229"/>
    <rect x="205" y="87" width="2" height="1" fill="#813229"/>
    <rect x="307" y="87" width="4" height="1" fill="#813229"/>
    <rect x="2" y="88" width="4" height="1" fill="#813229"/>
    <rect x="39" y="88" width="2" height="1" fill="#813229"/>
    <rect x="205" y="88" width="2" height="1" fill="#813229"/>
    <rect x="307" y="88" width="4" height="1" fill="#813229"/>
    <rect x="2" y="89" width="4" height="1" fill="#813229"/>
    <rect x="39" y="89" width="2" height="1" fill="#813229"/>
    <rect x="205" y="89" width="2" height="1" fill="#813229"/>
    <rect x="307" y="89" width="4" height="1" fill="#813229"/>
    <rect x="2" y="90" width="4" height="1" fill="#813229"/>
    <rect x="39" y="90" width="2" height="1" fill="#813229"/>
    <rect x="205" y="90" width="2" height="1" fill="#813229"/>
    <rect x="307" y="90" width="4" height="1" fill="#813229"/>
    <rect x="2" y="91" width="4" height="1" fill="#813229"/>
    <rect x="39" y="91" width="2" height="1" fill="#813229"/>
    <rect x="205" y="91" width="2" height="1" fill="#813229"/>
    <rect x="307" y="91" width="4" height="1" fill="#813229"/>
    <rect x="2" y="92" width="4" height="1" fill="#813229"/>
    <rect x="39" y="92" width="2" height="1" fill="#813229"/>
    <rect x="205" y="92" width="2" height="1" fill="#813229"/>
    <rect x="307" y="92" width="4" height="1" fill="#813229"/>
    <rect x="2" y="93" width="4" height="1" fill="#813229"/>
    <rect x="39" y="93" width="2" height="1" fill="#813229"/>
    <rect x="205" y="93" width="2" height="1" fill="#813229"/>
    <rect x="307" y="93" width="4" height="1" fill="#813229"/>
    <rect x="2" y="94" width="4" height="1" fill="#813229"/>
    <rect x="39" y="94" width="2" height="1" fill="#813229"/>
    <rect x="205" y="94" width="2" height="1" fill="#813229"/>
    <rect x="307" y="94" width="4" height="1" fill="#813229"/>
    <rect x="2" y="95" width="4" height="1" fill="#813229"/>
    <rect x="39" y="95" width="2" height="1" fill="#813229"/>
    <rect x="205" y="95" width="2" height="1" fill="#813229"/>
    <rect x="307" y="95" width="4" height="1" fill="#813229"/>
    <rect x="2" y="96" width="4" height="1" fill="#813229"/>
    <rect x="39" y="96" width="2" height="1" fill="#813229"/>
    <rect x="205" y="96" width="2" height="1" fill="#813229"/>
    <rect x="307" y="96" width="4" height="1" fill="#813229"/>
    <rect x="2" y="97" width="4" height="1" fill="#813229"/>
    <rect x="39" y="97" width="2" height="1" fill="#813229"/>
    <rect x="205" y="97" width="2" height="1" fill="#813229"/>
    <rect x="307" y="97" width="4" height="1" fill="#813229"/>
    <rect x="2" y="98" width="4" height="1" fill="#813229"/>
    <rect x="39" y="98" width="2" height="1" fill="#813229"/>
    <rect x="205" y="98" width="2" height="1" fill="#813229"/>
    <rect x="307" y="98" width="4" height="1" fill="#813229"/>
    <rect x="2" y="99" width="4" height="1" fill="#813229"/>
    <rect x="39" y="99" width="2" height="1" fill="#813229"/>
    <rect x="205" y="99" width="2" height="1" fill="#813229"/>
    <rect x="307" y="99" width="4" height="1" fill="#813229"/>
    <rect x="2" y="100" width="4" height="1" fill="#813229"/>
    <rect x="39" y="100" width="2" height="1" fill="#813229"/>
    <rect x="205" y="100" width="2" height="1" fill="#813229"/>
    <rect x="307" y="100" width="4" height="1" fill="#813229"/>
    <rect x="2" y="101" width="4" height="1" fill="#813229"/>
    <rect x="39" y="101" width="2" height="1" fill="#813229"/>
    <rect x="205" y="101" width="2" height="1" fill="#813229"/>
    <rect x="307" y="101" width="4" height="1" fill="#813229"/>
    <rect x="2" y="102" width="4" height="1" fill="#813229"/>
    <rect x="39" y="102" width="2" height="1" fill="#813229"/>
    <rect x="205" y="102" width="2" height="1" fill="#813229"/>
    <rect x="307" y="102" width="4" height="1" fill="#813229"/>
    <rect x="2" y="103" width="4" height="1" fill="#813229"/>
    <rect x="39" y="103" width="2" height="1" fill="#813229"/>
    <rect x="205" y="103" width="2" height="1" fill="#813229"/>
    <rect x="307" y="103" width="4" height="1" fill="#813229"/>
    <rect x="2" y="104" width="4" height="1" fill="#813229"/>
    <rect x="39" y="104" width="2" height="1" fill="#813229"/>
    <rect x="205" y="104" width="2" height="1" fill="#813229"/>
    <rect x="307" y="104" width="4" height="1" fill="#813229"/>
    <rect x="2" y="105" width="4" height="1" fill="#813229"/>
    <rect x="39" y="105" width="2" height="1" fill="#813229"/>
    <rect x="205" y="105" width="2" height="1" fill="#813229"/>
    <rect x="307" y="105" width="4" height="1" fill="#813229"/>
    <rect x="2" y="106" width="4" height="1" fill="#813229"/>
    <rect x="39" y="106" width="2" height="1" fill="#813229"/>
    <rect x="205" y="106" width="2" height="1" fill="#813229"/>
    <rect x="307" y="106" width="4" height="1" fill="#813229"/>
    <rect x="2" y="107" width="4" height="1" fill="#813229"/>
    <rect x="39" y="107" width="2" height="1" fill="#813229"/>
    <rect x="205" y="107" width="2" height="1" fill="#813229"/>
    <rect x="307" y="107" width="4" height="1" fill="#813229"/>
    <rect x="2" y="108" width="4" height="1" fill="#813229"/>
    <rect x="39" y="108" width="2" height="1" fill="#813229"/>
    <rect x="205" y="108" width="2" height="1" fill="#813229"/>
    <rect x="307" y="108" width="4" height="1" fill="#813229"/>
    <rect x="2" y="109" width="4" height="1" fill="#813229"/>
    <rect x="39" y="109" width="2" height="1" fill="#813229"/>
    <rect x="205" y="109" width="2" height="1" fill="#813229"/>
    <rect x="307" y="109" width="4" height="1" fill="#813229"/>
    <rect x="2" y="110" width="4" height="1" fill="#813229"/>
    <rect x="39" y="110" width="2" height="1" fill="#813229"/>
    <rect x="205" y="110" width="2" height="1" fill="#813229"/>
    <rect x="307" y="110" width="4" height="1" fill="#813229"/>
    <rect x="2" y="111" width="4" height="1" fill="#813229"/>
    <rect x="39" y="111" width="2" height="1" fill="#813229"/>
    <rect x="205" y="111" width="2" height="1" fill="#813229"/>
    <rect x="307" y="111" width="4" height="1" fill="#813229"/>
    <rect x="2" y="112" width="4" height="1" fill="#813229"/>
    <rect x="39" y="112" width="2" height="1" fill="#813229"/>
    <rect x="205" y="112" width="2" height="1" fill="#813229"/>
    <rect x="307" y="112" width="4" height="1" fill="#813229"/>
    <rect x="2" y="113" width="4" height="1" fill="#813229"/>
    <rect x="39" y="113" width="2" height="1" fill="#813229"/>
    <rect x="205" y="113" width="2" height="1" fill="#813229"/>
    <rect x="307" y="113" width="4" height="1" fill="#813229"/>
    <rect x="2" y="114" width="4" height="1" fill="#813229"/>
    <rect x="39" y="114" width="2" height="1" fill="#813229"/>
    <rect x="205" y="114" width="2" height="1" fill="#813229"/>
    <rect x="307" y="114" width="4" height="1" fill="#813229"/>
    <rect x="2" y="115" width="4" height="1" fill="#813229"/>
    <rect x="39" y="115" width="2" height="1" fill="#813229"/>
    <rect x="205" y="115" width="2" height="1" fill="#813229"/>
    <rect x="307" y="115" width="4" height="1" fill="#813229"/>
    <rect x="2" y="116" width="4" height="1" fill="#813229"/>
    <rect x="39" y="116" width="2" height="1" fill="#813229"/>
    <rect x="205" y="116" width="2" height="1" fill="#813229"/>
    <rect x="307" y="116" width="4" height="1" fill="#813229"/>
    <rect x="2" y="117" width="4" height="1" fill="#813229"/>
    <rect x="39" y="117" width="2" height="1" fill="#813229"/>
    <rect x="205" y="117" width="2" height="1" fill="#813229"/>
    <rect x="307" y="117" width="4" height="1" fill="#813229"/>
    <rect x="2" y="118" width="4" height="1" fill="#813229"/>
    <rect x="39" y="118" width="2" height="1" fill="#813229"/>
    <rect x="205" y="118" width="2" height="1" fill="#813229"/>
    <rect x="307" y="118" width="4" height="1" fill="#813229"/>
    <rect x="2" y="119" width="4" height="1" fill="#813229"/>
    <rect x="39" y="119" width="2" height="1" fill="#813229"/>
    <rect x="205" y="119" width="2" height="1" fill="#813229"/>
    <rect x="307" y="119" width="4" height="1" fill="#813229"/>
    <rect x="2" y="120" width="4" height="1" fill="#813229"/>
    <rect x="39" y="120" width="2" height="1" fill="#813229"/>
    <rect x="205" y="120" width="2" height="1" fill="#813229"/>
    <rect x="307" y="120" width="4" height="1" fill="#813229"/>
    <rect x="2" y="121" width="4" height="1" fill="#813229"/>
    <rect x="39" y="121" width="2" height="1" fill="#813229"/>
    <rect x="205" y="121" width="2" height="1" fill="#813229"/>
    <rect x="307" y="121" width="4" height="1" fill="#813229"/>
    <rect x="2" y="122" width="4" height="1" fill="#813229"/>
    <rect x="39" y="122" width="2" height="1" fill="#813229"/>
    <rect x="205" y="122" width="2" height="1" fill="#813229"/>
    <rect x="307" y="122" width="4" height="1" fill="#813229"/>
    <rect x="2" y="123" width="4" height="1" fill="#813229"/>
    <rect x="39" y="123" width="2" height="1" fill="#813229"/>
    <rect x="205" y="123" width="2" height="1" fill="#813229"/>
    <rect x="307" y="123" width="4" height="1" fill="#813229"/>
    <rect x="2" y="124" width="4" height="1" fill="#813229"/>
    <rect x="39" y="124" width="2" height="1" fill="#813229"/>
    <rect x="205" y="124" width="2" height="1" fill="#813229"/>
    <rect x="307" y="124" width="4" height="1" fill="#813229"/>
    <rect x="2" y="125" width="4" height="1" fill="#813229"/>
    <rect x="39" y="125" width="2" height="1" fill="#813229"/>
    <rect x="205" y="125" width="2" height="1" fill="#813229"/>
    <rect x="307" y="125" width="4" height="1" fill="#813229"/>
    <rect x="2" y="126" width="4" height="1" fill="#813229"/>
    <rect x="39" y="126" width="2" height="1" fill="#813229"/>
    <rect x="205" y="126" width="2" height="1" fill="#813229"/>
    <rect x="307" y="126" width="4" height="1" fill="#813229"/>
    <rect x="2" y="127" width="4" height="1" fill="#813229"/>
    <rect x="39" y="127" width="2" height="1" fill="#813229"/>
    <rect x="205" y="127" width="3" height="1" fill="#813229"/>
    <rect x="307" y="127" width="4" height="1" fill="#813229"/>
    <rect x="2" y="128" width="4" height="1" fill="#813229"/>
    <rect x="39" y="128" width="2" height="1" fill="#813229"/>
    <rect x="206" y="128" width="3" height="1" fill="#813229"/>
    <rect x="307" y="128" width="4" height="1" fill="#813229"/>
    <rect x="2" y="129" width="4" height="1" fill="#813229"/>
    <rect x="39" y="129" width="2" height="1" fill="#813229"/>
    <rect x="207" y="129" width="3" height="1" fill="#813229"/>
    <rect x="307" y="129" width="4" height="1" fill="#813229"/>
    <rect x="2" y="130" width="4" height="1" fill="#813229"/>
    <rect x="39" y="130" width="2" height="1" fill="#813229"/>
    <rect x="208" y="130" width="3" height="1" fill="#813229"/>
    <rect x="307" y="130" width="4" height="1" fill="#813229"/>
    <rect x="2" y="131" width="4" height="1" fill="#813229"/>
    <rect x="39" y="131" width="2" height="1" fill="#813229"/>
    <rect x="209" y="131" width="3" height="1" fill="#813229"/>
    <rect x="307" y="131" width="4" height="1" fill="#813229"/>
    <rect x="2" y="132" width="4" height="1" fill="#813229"/>
    <rect x="39" y="132" width="2" height="1" fill="#813229"/>
    <rect x="210" y="132" width="3" height="1" fill="#813229"/>
    <rect x="307" y="132" width="4" height="1" fill="#813229"/>
    <rect x="2" y="133" width="4" height="1" fill="#813229"/>
    <rect x="39" y="133" width="2" height="1" fill="#813229"/>
    <rect x="211" y="133" width="3" height="1" fill="#813229"/>
    <rect x="307" y="133" width="4" height="1" fill="#813229"/>
    <rect x="2" y="134" width="4" height="1" fill="#813229"/>
    <rect x="39" y="134" width="2" height="1" fill="#813229"/>
    <rect x="211" y="134" width="3" height="1" fill="#813229"/>
    <rect x="307" y="134" width="4" height="1" fill="#813229"/>
    <rect x="2" y="135" width="4" height="1" fill="#813229"/>
    <rect x="39" y="135" width="2" height="1" fill="#813229"/>
    <rect x="212" y="135" width="4" height="1" fill="#813229"/>
    <rect x="307" y="135" width="4" height="1" fill="#813229"/>
    <rect x="2" y="136" width="4" height="1" fill="#813229"/>
    <rect x="39" y="136" width="2" height="1" fill="#813229"/>
    <rect x="213" y="136" width="3" height="1" fill="#813229"/>
    <rect x="307" y="136" width="4" height="1" fill="#813229"/>
    <rect x="2" y="137" width="4" height="1" fill="#813229"/>
    <rect x="39" y="137" width="2" height="1" fill="#813229"/>
    <rect x="214" y="137" width="4" height="1" fill="#813229"/>
    <rect x="307" y="137" width="4" height="1" fill="#813229"/>
    <rect x="2" y="138" width="4" height="1" fill="#813229"/>
    <rect x="39" y="138" width="2" height="1" fill="#813229"/>
    <rect x="215" y="138" width="3" height="1" fill="#813229"/>
    <rect x="307" y="138" width="4" height="1" fill="#813229"/>
    <rect x="2" y="139" width="4" height="1" fill="#813229"/>
    <rect x="39" y="139" width="2" height="1" fill="#813229"/>
    <rect x="216" y="139" width="4" height="1" fill="#813229"/>
    <rect x="307" y="139" width="4" height="1" fill="#813229"/>
    <rect x="2" y="140" width="4" height="1" fill="#813229"/>
    <rect x="39" y="140" width="2" height="1" fill="#813229"/>
    <rect x="217" y="140" width="3" height="1" fill="#813229"/>
    <rect x="307" y="140" width="4" height="1" fill="#813229"/>
    <rect x="2" y="141" width="4" height="1" fill="#813229"/>
    <rect x="39" y="141" width="2" height="1" fill="#813229"/>
    <rect x="218" y="141" width="4" height="1" fill="#813229"/>
    <rect x="307" y="141" width="4" height="1" fill="#813229"/>
    <rect x="2" y="142" width="4" height="1" fill="#813229"/>
    <rect x="39" y="142" width="2" height="1" fill="#813229"/>
    <rect x="219" y="142" width="4" height="1" fill="#813229"/>
    <rect x="307" y="142" width="4" height="1" fill="#813229"/>
    <rect x="2" y="143" width="4" height="1" fill="#813229"/>
    <rect x="39" y="143" width="2" height="1" fill="#813229"/>
    <rect x="220" y="143" width="3" height="1" fill="#813229"/>
    <rect x="307" y="143" width="4" height="1" fill="#813229"/>
    <rect x="2" y="144" width="4" height="1" fill="#813229"/>
    <rect x="39" y="144" width="2" height="1" fill="#813229"/>
    <rect x="222" y="144" width="3" height="1" fill="#813229"/>
    <rect x="307" y="144" width="4" height="1" fill="#813229"/>
    <rect x="2" y="145" width="4" height="1" fill="#813229"/>
    <rect x="39" y="145" width="2" height="1" fill="#813229"/>
    <rect x="222" y="145" width="3" height="1" fill="#813229"/>
    <rect x="307" y="145" width="4" height="1" fill="#813229"/>
    <rect x="2" y="146" width="4" height="1" fill="#813229"/>
    <rect x="39" y="146" width="2" height="1" fill="#813229"/>
    <rect x="224" y="146" width="3" height="1" fill="#813229"/>
    <rect x="307" y="146" width="4" height="1" fill="#813229"/>
    <rect x="2" y="147" width="4" height="1" fill="#813229"/>
    <rect x="39" y="147" width="2" height="1" fill="#813229"/>
    <rect x="224" y="147" width="3" height="1" fill="#813229"/>
    <rect x="307" y="147" width="4" height="1" fill="#813229"/>
    <rect x="2" y="148" width="4" height="1" fill="#813229"/>
    <rect x="39" y="148" width="2" height="1" fill="#813229"/>
    <rect x="226" y="148" width="3" height="1" fill="#813229"/>
    <rect x="307" y="148" width="4" height="1" fill="#813229"/>
    <rect x="2" y="149" width="4" height="1" fill="#813229"/>
    <rect x="39" y="149" width="2" height="1" fill="#813229"/>
    <rect x="226" y="149" width="3" height="1" fill="#813229"/>
    <rect x="307" y="149" width="4" height="1" fill="#813229"/>
    <rect x="2" y="150" width="4" height="1" fill="#813229"/>
    <rect x="39" y="150" width="2" height="1" fill="#813229"/>
    <rect x="227" y="150" width="4" height="1" fill="#813229"/>
    <rect x="307" y="150" width="4" height="1" fill="#813229"/>
    <rect x="2" y="151" width="4" height="1" fill="#813229"/>
    <rect x="39" y="151" width="2" height="1" fill="#813229"/>
    <rect x="228" y="151" width="3" height="1" fill="#813229"/>
    <rect x="307" y="151" width="4" height="1" fill="#813229"/>
    <rect x="2" y="152" width="4" height="1" fill="#813229"/>
    <rect x="39" y="152" width="2" height="1" fill="#813229"/>
    <rect x="229" y="152" width="4" height="1" fill="#813229"/>
    <rect x="307" y="152" width="4" height="1" fill="#813229"/>
    <rect x="2" y="153" width="4" height="1" fill="#813229"/>
    <rect x="39" y="153" width="2" height="1" fill="#813229"/>
    <rect x="230" y="153" width="3" height="1" fill="#813229"/>
    <rect x="307" y="153" width="4" height="1" fill="#813229"/>
    <rect x="2" y="154" width="4" height="1" fill="#813229"/>
    <rect x="39" y="154" width="2" height="1" fill="#813229"/>
    <rect x="231" y="154" width="3" height="1" fill="#813229"/>
    <rect x="307" y="154" width="4" height="1" fill="#813229"/>
    <rect x="2" y="155" width="4" height="1" fill="#813229"/>
    <rect x="39" y="155" width="2" height="1" fill="#813229"/>
    <rect x="232" y="155" width="4" height="1" fill="#813229"/>
    <rect x="307" y="155" width="4" height="1" fill="#813229"/>
    <rect x="2" y="156" width="4" height="1" fill="#813229"/>
    <rect x="39" y="156" width="2" height="1" fill="#813229"/>
    <rect x="233" y="156" width="4" height="1" fill="#813229"/>
    <rect x="307" y="156" width="4" height="1" fill="#813229"/>
    <rect x="2" y="157" width="4" height="1" fill="#813229"/>
    <rect x="39" y="157" width="2" height="1" fill="#813229"/>
    <rect x="235" y="157" width="3" height="1" fill="#813229"/>
    <rect x="307" y="157" width="4" height="1" fill="#813229"/>
    <rect x="2" y="158" width="4" height="1" fill="#813229"/>
    <rect x="39" y="158" width="2" height="1" fill="#813229"/>
    <rect x="235" y="158" width="3" height="1" fill="#813229"/>
    <rect x="307" y="158" width="4" height="1" fill="#813229"/>
    <rect x="2" y="159" width="4" height="1" fill="#813229"/>
    <rect x="39" y="159" width="2" height="1" fill="#813229"/>
    <rect x="237" y="159" width="3" height="1" fill="#813229"/>
    <rect x="307" y="159" width="4" height="1" fill="#813229"/>
    <rect x="2" y="160" width="4" height="1" fill="#813229"/>
    <rect x="39" y="160" width="2" height="1" fill="#813229"/>
    <rect x="237" y="160" width="3" height="1" fill="#813229"/>
    <rect x="307" y="160" width="4" height="1" fill="#813229"/>
    <rect x="2" y="161" width="4" height="1" fill="#813229"/>
    <rect x="39" y="161" width="2" height="1" fill="#813229"/>
    <rect x="206" y="161" width="2" height="1" fill="#813229"/>
    <rect x="239" y="161" width="3" height="1" fill="#813229"/>
    <rect x="307" y="161" width="4" height="1" fill="#813229"/>
    <rect x="2" y="162" width="4" height="1" fill="#813229"/>
    <rect x="39" y="162" width="2" height="1" fill="#813229"/>
    <rect x="205" y="162" width="4" height="1" fill="#813229"/>
    <rect x="239" y="162" width="3" height="1" fill="#813229"/>
    <rect x="307" y="162" width="4" height="1" fill="#813229"/>
    <rect x="2" y="163" width="4" height="1" fill="#813229"/>
    <rect x="39" y="163" width="2" height="1" fill="#813229"/>
    <rect x="205" y="163" width="7" height="1" fill="#813229"/>
    <rect x="240" y="163" width="4" height="1" fill="#813229"/>
    <rect x="307" y="163" width="4" height="1" fill="#813229"/>
    <rect x="2" y="164" width="4" height="1" fill="#813229"/>
    <rect x="39" y="164" width="2" height="1" fill="#813229"/>
    <rect x="205" y="164" width="9" height="1" fill="#813229"/>
    <rect x="241" y="164" width="3" height="1" fill="#813229"/>
    <rect x="307" y="164" width="4" height="1" fill="#813229"/>
    <rect x="2" y="165" width="4" height="1" fill="#813229"/>
    <rect x="39" y="165" width="2" height="1" fill="#813229"/>
    <rect x="205" y="165" width="2" height="1" fill="#813229"/>
    <rect x="209" y="165" width="6" height="1" fill="#813229"/>
    <rect x="242" y="165" width="3" height="1" fill="#813229"/>
    <rect x="307" y="165" width="4" height="1" fill="#813229"/>
    <rect x="2" y="166" width="4" height="1" fill="#813229"/>
    <rect x="39" y="166" width="2" height="1" fill="#813229"/>
    <rect x="205" y="166" width="2" height="1" fill="#813229"/>
    <rect x="212" y="166" width="6" height="1" fill="#813229"/>
    <rect x="243" y="166" width="3" height="1" fill="#813229"/>
    <rect x="307" y="166" width="4" height="1" fill="#813229"/>
    <rect x="2" y="167" width="4" height="1" fill="#813229"/>
    <rect x="39" y="167" width="2" height="1" fill="#813229"/>
    <rect x="205" y="167" width="2" height="1" fill="#813229"/>
    <rect x="214" y="167" width="5" height="1" fill="#813229"/>
    <rect x="244" y="167" width="3" height="1" fill="#813229"/>
    <rect x="307" y="167" width="4" height="1" fill="#813229"/>
    <rect x="2" y="168" width="4" height="1" fill="#813229"/>
    <rect x="39" y="168" width="2" height="1" fill="#813229"/>
    <rect x="205" y="168" width="2" height="1" fill="#813229"/>
    <rect x="216" y="168" width="5" height="1" fill="#813229"/>
    <rect x="245" y="168" width="4" height="1" fill="#813229"/>
    <rect x="307" y="168" width="4" height="1" fill="#813229"/>
    <rect x="2" y="169" width="4" height="1" fill="#813229"/>
    <rect x="39" y="169" width="2" height="1" fill="#813229"/>
    <rect x="205" y="169" width="2" height="1" fill="#813229"/>
    <rect x="218" y="169" width="5" height="1" fill="#813229"/>
    <rect x="246" y="169" width="4" height="1" fill="#813229"/>
    <rect x="307" y="169" width="4" height="1" fill="#813229"/>
    <rect x="2" y="170" width="4" height="1" fill="#813229"/>
    <rect x="39" y="170" width="2" height="1" fill="#813229"/>
    <rect x="205" y="170" width="2" height="1" fill="#813229"/>
    <rect x="220" y="170" width="6" height="1" fill="#813229"/>
    <rect x="248" y="170" width="3" height="1" fill="#813229"/>
    <rect x="307" y="170" width="4" height="1" fill="#813229"/>
    <rect x="2" y="171" width="4" height="1" fill="#813229"/>
    <rect x="39" y="171" width="2" height="1" fill="#813229"/>
    <rect x="205" y="171" width="2" height="1" fill="#813229"/>
    <rect x="222" y="171" width="5" height="1" fill="#813229"/>
    <rect x="248" y="171" width="3" height="1" fill="#813229"/>
    <rect x="307" y="171" width="4" height="1" fill="#813229"/>
    <rect x="2" y="172" width="4" height="1" fill="#813229"/>
    <rect x="39" y="172" width="2" height="1" fill="#813229"/>
    <rect x="205" y="172" width="2" height="1" fill="#813229"/>
    <rect x="225" y="172" width="5" height="1" fill="#813229"/>
    <rect x="250" y="172" width="3" height="1" fill="#813229"/>
    <rect x="307" y="172" width="4" height="1" fill="#813229"/>
    <rect x="2" y="173" width="4" height="1" fill="#813229"/>
    <rect x="39" y="173" width="2" height="1" fill="#813229"/>
    <rect x="205" y="173" width="2" height="1" fill="#813229"/>
    <rect x="226" y="173" width="5" height="1" fill="#813229"/>
    <rect x="250" y="173" width="3" height="1" fill="#813229"/>
    <rect x="307" y="173" width="4" height="1" fill="#813229"/>
    <rect x="2" y="174" width="4" height="1" fill="#813229"/>
    <rect x="39" y="174" width="2" height="1" fill="#813229"/>
    <rect x="205" y="174" width="2" height="1" fill="#813229"/>
    <rect x="229" y="174" width="5" height="1" fill="#813229"/>
    <rect x="252" y="174" width="3" height="1" fill="#813229"/>
    <rect x="307" y="174" width="4" height="1" fill="#813229"/>
    <rect x="2" y="175" width="4" height="1" fill="#813229"/>
    <rect x="39" y="175" width="2" height="1" fill="#813229"/>
    <rect x="205" y="175" width="2" height="1" fill="#813229"/>
    <rect x="230" y="175" width="6" height="1" fill="#813229"/>
    <rect x="252" y="175" width="3" height="1" fill="#813229"/>
    <rect x="307" y="175" width="4" height="1" fill="#813229"/>
    <rect x="2" y="176" width="4" height="1" fill="#813229"/>
    <rect x="39" y="176" width="2" height="1" fill="#813229"/>
    <rect x="205" y="176" width="2" height="1" fill="#813229"/>
    <rect x="231" y="176" width="6" height="1" fill="#813229"/>
    <rect x="253" y="176" width="3" height="1" fill="#813229"/>
    <rect x="307" y="176" width="4" height="1" fill="#813229"/>
    <rect x="2" y="177" width="4" height="1" fill="#813229"/>
    <rect x="39" y="177" width="2" height="1" fill="#813229"/>
    <rect x="205" y="177" width="2" height="1" fill="#813229"/>
    <rect x="234" y="177" width="6" height="1" fill="#813229"/>
    <rect x="254" y="177" width="3" height="1" fill="#813229"/>
    <rect x="307" y="177" width="4" height="1" fill="#813229"/>
    <rect x="2" y="178" width="4" height="1" fill="#813229"/>
    <rect x="39" y="178" width="2" height="1" fill="#813229"/>
    <rect x="205" y="178" width="2" height="1" fill="#813229"/>
    <rect x="236" y="178" width="5" height="1" fill="#813229"/>
    <rect x="255" y="178" width="3" height="1" fill="#813229"/>
    <rect x="307" y="178" width="4" height="1" fill="#813229"/>
    <rect x="2" y="179" width="4" height="1" fill="#813229"/>
    <rect x="39" y="179" width="2" height="1" fill="#813229"/>
    <rect x="205" y="179" width="2" height="1" fill="#813229"/>
    <rect x="239" y="179" width="5" height="1" fill="#813229"/>
    <rect x="256" y="179" width="3" height="1" fill="#813229"/>
    <rect x="307" y="179" width="4" height="1" fill="#813229"/>
    <rect x="2" y="180" width="4" height="1" fill="#813229"/>
    <rect x="39" y="180" width="2" height="1" fill="#813229"/>
    <rect x="205" y="180" width="2" height="1" fill="#813229"/>
    <rect x="240" y="180" width="5" height="1" fill="#813229"/>
    <rect x="257" y="180" width="3" height="1" fill="#813229"/>
    <rect x="307" y="180" width="4" height="1" fill="#813229"/>
    <rect x="2" y="181" width="4" height="1" fill="#813229"/>
    <rect x="39" y="181" width="168" height="1" fill="#813229"/>
    <rect x="242" y="181" width="6" height="1" fill="#813229"/>
    <rect x="258" y="181" width="4" height="1" fill="#813229"/>
    <rect x="307" y="181" width="4" height="1" fill="#813229"/>
    <rect x="2" y="182" width="4" height="1" fill="#813229"/>
    <rect x="39" y="182" width="168" height="1" fill="#813229"/>
    <rect x="244" y="182" width="5" height="1" fill="#813229"/>
    <rect x="259" y="182" width="4" height="1" fill="#813229"/>
    <rect x="307" y="182" width="4" height="1" fill="#813229"/>
    <rect x="2" y="183" width="4" height="1" fill="#813229"/>
    <rect x="247" y="183" width="5" height="1" fill="#813229"/>
    <rect x="261" y="183" width="3" height="1" fill="#813229"/>
    <rect x="307" y="183" width="4" height="1" fill="#813229"/>
    <rect x="2" y="184" width="4" height="1" fill="#813229"/>
    <rect x="248" y="184" width="5" height="1" fill="#813229"/>
    <rect x="261" y="184" width="3" height="1" fill="#813229"/>
    <rect x="307" y="184" width="4" height="1" fill="#813229"/>
    <rect x="2" y="185" width="4" height="1" fill="#813229"/>
    <rect x="251" y="185" width="5" height="1" fill="#813229"/>
    <rect x="263" y="185" width="3" height="1" fill="#813229"/>
    <rect x="307" y="185" width="4" height="1" fill="#813229"/>
    <rect x="2" y="186" width="4" height="1" fill="#813229"/>
    <rect x="252" y="186" width="6" height="1" fill="#813229"/>
    <rect x="263" y="186" width="3" height="1" fill="#813229"/>
    <rect x="307" y="186" width="4" height="1" fill="#813229"/>
    <rect x="2" y="187" width="4" height="1" fill="#813229"/>
    <rect x="254" y="187" width="5" height="1" fill="#813229"/>
    <rect x="264" y="187" width="3" height="1" fill="#813229"/>
    <rect x="307" y="187" width="4" height="1" fill="#813229"/>
    <rect x="2" y="188" width="4" height="1" fill="#813229"/>
    <rect x="256" y="188" width="6" height="1" fill="#813229"/>
    <rect x="265" y="188" width="3" height="1" fill="#813229"/>
    <rect x="307" y="188" width="4" height="1" fill="#813229"/>
    <rect x="2" y="189" width="4" height="1" fill="#813229"/>
    <rect x="258" y="189" width="5" height="1" fill="#813229"/>
    <rect x="266" y="189" width="3" height="1" fill="#813229"/>
    <rect x="307" y="189" width="4" height="1" fill="#813229"/>
    <rect x="2" y="190" width="4" height="1" fill="#813229"/>
    <rect x="261" y="190" width="5" height="1" fill="#813229"/>
    <rect x="267" y="190" width="3" height="1" fill="#813229"/>
    <rect x="307" y="190" width="4" height="1" fill="#813229"/>
    <rect x="2" y="191" width="4" height="1" fill="#813229"/>
    <rect x="262" y="191" width="9" height="1" fill="#813229"/>
    <rect x="307" y="191" width="4" height="1" fill="#813229"/>
    <rect x="2" y="192" width="4" height="1" fill="#813229"/>
    <rect x="265" y="192" width="7" height="1" fill="#813229"/>
    <rect x="307" y="192" width="4" height="1" fill="#813229"/>
    <rect x="2" y="193" width="4" height="1" fill="#813229"/>
    <rect x="266" y="193" width="7" height="1" fill="#813229"/>
    <rect x="307" y="193" width="4" height="1" fill="#813229"/>
    <rect x="2" y="194" width="4" height="1" fill="#813229"/>
    <rect x="269" y="194" width="5" height="1" fill="#813229"/>
    <rect x="307" y="194" width="4" height="1" fill="#813229"/>
    <rect x="2" y="195" width="4" height="1" fill="#813229"/>
    <rect x="270" y="195" width="5" height="1" fill="#813229"/>
    <rect x="307" y="195" width="4" height="1" fill="#813229"/>
    <rect x="2" y="196" width="4" height="1" fill="#813229"/>
    <rect x="272" y="196" width="3" height="1" fill="#813229"/>
    <rect x="307" y="196" width="4" height="1" fill="#813229"/>
    <rect x="2" y="197" width="4" height="1" fill="#813229"/>
    <rect x="307" y="197" width="4" height="1" fill="#813229"/>
    <rect x="2" y="198" width="4" height="1" fill="#813229"/>
    <rect x="307" y="198" width="4" height="1" fill="#813229"/>
    <rect x="2" y="199" width="4" height="1" fill="#813229"/>
    <rect x="307" y="199" width="4" height="1" fill="#813229"/>
    <rect x="2" y="200" width="4" height="1" fill="#813229"/>
    <rect x="307" y="200" width="4" height="1" fill="#813229"/>
    <rect x="2" y="201" width="4" height="1" fill="#813229"/>
    <rect x="307" y="201" width="4" height="1" fill="#813229"/>
    <rect x="2" y="202" width="4" height="1" fill="#813229"/>
    <rect x="307" y="202" width="4" height="1" fill="#813229"/>
    <rect x="2" y="203" width="4" height="1" fill="#813229"/>
    <rect x="307" y="203" width="4" height="1" fill="#813229"/>
    <rect x="2" y="204" width="4" height="1" fill="#813229"/>
    <rect x="307" y="204" width="4" height="1" fill="#813229"/>
    <rect x="2" y="205" width="4" height="1" fill="#813229"/>
    <rect x="307" y="205" width="4" height="1" fill="#813229"/>
    <rect x="2" y="206" width="4" height="1" fill="#813229"/>
    <rect x="307" y="206" width="4" height="1" fill="#813229"/>
    <rect x="2" y="207" width="309" height="1" fill="#813229"/>
    <rect x="2" y="208" width="309" height="1" fill="#813229"/>
    <rect x="2" y="209" width="309" height="1" fill="#813229"/>
    <rect x="2" y="210" width="309" height="1" fill="#813229"/>
    <rect x="4" y="211" width="306" height="1" fill="#813229"/>
  </g>
</svg>