<?xml version="1.0" encoding="UTF-8"?>
<svg xmlns="http://www.w3.org/2000/svg" viewBox="0 0 84 83" width="84" height="83">
  <!-- Auto-converted from legend-537.png -->
  <rect x="0" y="0" width="84" height="83" fill="none"/>
  <g fill="#314828" stroke="none">
    <rect x="0" y="0" width="84" height="1" fill="#314828"/>
    <rect x="0" y="1" width="1" height="1" fill="#314828"/>
    <rect x="83" y="1" width="1" height="1" fill="#314828"/>
    <rect x="0" y="2" width="1" height="1" fill="#314828"/>
    <rect x="83" y="2" width="1" height="1" fill="#314828"/>
    <rect x="0" y="3" width="1" height="1" fill="#314828"/>
    <rect x="83" y="3" width="1" height="1" fill="#314828"/>
    <rect x="0" y="4" width="1" height="1" fill="#314828"/>
    <rect x="83" y="4" width="1" height="1" fill="#314828"/>
    <rect x="0" y="5" width="1" height="1" fill="#314828"/>
    <rect x="83" y="5" width="1" height="1" fill="#314828"/>
    <rect x="0" y="6" width="1" height="1" fill="#314828"/>
    <rect x="83" y="6" width="1" height="1" fill="#314828"/>
    <rect x="0" y="7" width="1" height="1" fill="#314828"/>
    <rect x="83" y="7" width="1" height="1" fill="#314828"/>
    <rect x="0" y="8" width="1" height="1" fill="#314828"/>
    <rect x="83" y="8" width="1" height="1" fill="#314828"/>
    <rect x="0" y="9" width="1" height="1" fill="#314828"/>
    <rect x="83" y="9" width="1" height="1" fill="#314828"/>
    <rect x="0" y="10" width="1" height="1" fill="#314828"/>
    <rect x="83" y="10" width="1" height="1" fill="#314828"/>
    <rect x="0" y="11" width="1" height="1" fill="#314828"/>
    <rect x="83" y="11" width="1" height="1" fill="#314828"/>
    <rect x="0" y="12" width="1" height="1" fill="#314828"/>
    <rect x="83" y="12" width="1" height="1" fill="#314828"/>
    <rect x="0" y="13" width="1" height="1" fill="#314828"/>
    <rect x="83" y="13" width="1" height="1" fill="#314828"/>
    <rect x="0" y="14" width="1" height="1" fill="#314828"/>
    <rect x="83" y="14" width="1" height="1" fill="#314828"/>
    <rect x="0" y="15" width="1" height="1" fill="#314828"/>
    <rect x="83" y="15" width="1" height="1" fill="#314828"/>
    <rect x="0" y="16" width="1" height="1" fill="#314828"/>
    <rect x="41" y="16" width="1" height="1" fill="#314828"/>
    <rect x="83" y="16" width="1" height="1" fill="#314828"/>
    <rect x="0" y="17" width="1" height="1" fill="#314828"/>
    <rect x="41" y="17" width="1" height="1" fill="#314828"/>
    <rect x="83" y="17" width="1" height="1" fill="#314828"/>
    <rect x="0" y="18" width="1" height="1" fill="#314828"/>
    <rect x="41" y="18" width="2" height="1" fill="#314828"/>
    <rect x="83" y="18" width="1" height="1" fill="#314828"/>
    <rect x="0" y="19" width="1" height="1" fill="#314828"/>
    <rect x="40" y="19" width="3" height="1" fill="#314828"/>
    <rect x="83" y="19" width="1" height="1" fill="#314828"/>
    <rect x="0" y="20" width="1" height="1" fill="#314828"/>
    <rect x="40" y="20" width="3" height="1" fill="#314828"/>
    <rect x="83" y="20" width="1" height="1" fill="#314828"/>
    <rect x="0" y="21" width="1" height="1" fill="#314828"/>
    <rect x="40" y="21" width="3" height="1" fill="#314828"/>
    <rect x="83" y="21" width="1" height="1" fill="#314828"/>
    <rect x="0" y="22" width="1" height="1" fill="#314828"/>
    <rect x="40" y="22" width="4" height="1" fill="#314828"/>
    <rect x="83" y="22" width="1" height="1" fill="#314828"/>
    <rect x="0" y="23" width="1" height="1" fill="#314828"/>
    <rect x="39" y="23" width="5" height="1" fill="#314828"/>
    <rect x="83" y="23" width="1" height="1" fill="#314828"/>
    <rect x="0" y="24" width="1" height="1" fill="#314828"/>
    <rect x="39" y="24" width="5" height="1" fill="#314828"/>
    <rect x="83" y="24" width="1" height="1" fill="#314828"/>
    <rect x="0" y="25" width="1" height="1" fill="#314828"/>
    <rect x="39" y="25" width="6" height="1" fill="#314828"/>
    <rect x="83" y="25" width="1" height="1" fill="#314828"/>
    <rect x="0" y="26" width="1" height="1" fill="#314828"/>
    <rect x="39" y="26" width="6" height="1" fill="#314828"/>
    <rect x="83" y="26" width="1" height="1" fill="#314828"/>
    <rect x="0" y="27" width="1" height="1" fill="#314828"/>
    <rect x="38" y="27" width="7" height="1" fill="#314828"/>
    <rect x="83" y="27" width="1" height="1" fill="#314828"/>
    <rect x="0" y="28" width="1" height="1" fill="#314828"/>
    <rect x="38" y="28" width="8" height="1" fill="#314828"/>
    <rect x="83" y="28" width="1" height="1" fill="#314828"/>
    <rect x="0" y="29" width="1" height="1" fill="#314828"/>
    <rect x="38" y="29" width="8" height="1" fill="#314828"/>
    <rect x="83" y="29" width="1" height="1" fill="#314828"/>
    <rect x="0" y="30" width="1" height="1" fill="#314828"/>
    <rect x="38" y="30" width="8" height="1" fill="#314828"/>
    <rect x="83" y="30" width="1" height="1" fill="#314828"/>
    <rect x="0" y="31" width="1" height="1" fill="#314828"/>
    <rect x="37" y="31" width="9" height="1" fill="#314828"/>
    <rect x="83" y="31" width="1" height="1" fill="#314828"/>
    <rect x="0" y="32" width="1" height="1" fill="#314828"/>
    <rect x="37" y="32" width="10" height="1" fill="#314828"/>
    <rect x="83" y="32" width="1" height="1" fill="#314828"/>
    <rect x="0" y="33" width="1" height="1" fill="#314828"/>
    <rect x="37" y="33" width="10" height="1" fill="#314828"/>
    <rect x="83" y="33" width="1" height="1" fill="#314828"/>
    <rect x="0" y="34" width="1" height="1" fill="#314828"/>
    <rect x="40" y="34" width="3" height="1" fill="#314828"/>
    <rect x="83" y="34" width="1" height="1" fill="#314828"/>
    <rect x="0" y="35" width="1" height="1" fill="#314828"/>
    <rect x="40" y="35" width="3" height="1" fill="#314828"/>
    <rect x="83" y="35" width="1" height="1" fill="#314828"/>
    <rect x="0" y="36" width="1" height="1" fill="#314828"/>
    <rect x="40" y="36" width="3" height="1" fill="#314828"/>
    <rect x="83" y="36" width="1" height="1" fill="#314828"/>
    <rect x="0" y="37" width="1" height="1" fill="#314828"/>
    <rect x="40" y="37" width="3" height="1" fill="#314828"/>
    <rect x="83" y="37" width="1" height="1" fill="#314828"/>
    <rect x="0" y="38" width="1" height="1" fill="#314828"/>
    <rect x="40" y="38" width="3" height="1" fill="#314828"/>
    <rect x="83" y="38" width="1" height="1" fill="#314828"/>
    <rect x="0" y="39" width="1" height="1" fill="#314828"/>
    <rect x="40" y="39" width="3" height="1" fill="#314828"/>
    <rect x="83" y="39" width="1" height="1" fill="#314828"/>
    <rect x="0" y="40" width="1" height="1" fill="#314828"/>
    <rect x="40" y="40" width="3" height="1" fill="#314828"/>
    <rect x="83" y="40" width="1" height="1" fill="#314828"/>
    <rect x="0" y="41" width="1" height="1" fill="#314828"/>
    <rect x="38" y="41" width="8" height="1" fill="#314828"/>
    <rect x="83" y="41" width="1" height="1" fill="#314828"/>
    <rect x="0" y="42" width="1" height="1" fill="#314828"/>
    <rect x="35" y="42" width="14" height="1" fill="#314828"/>
    <rect x="83" y="42" width="1" height="1" fill="#314828"/>
    <rect x="0" y="43" width="1" height="1" fill="#314828"/>
    <rect x="33" y="43" width="18" height="1" fill="#314828"/>
    <rect x="83" y="43" width="1" height="1" fill="#314828"/>
    <rect x="0" y="44" width="1" height="1" fill="#314828"/>
    <rect x="32" y="44" width="20" height="1" fill="#314828"/>
    <rect x="83" y="44" width="1" height="1" fill="#314828"/>
    <rect x="0" y="45" width="1" height="1" fill="#314828"/>
    <rect x="31" y="45" width="22" height="1" fill="#314828"/>
    <rect x="83" y="45" width="1" height="1" fill="#314828"/>
    <rect x="0" y="46" width="1" height="1" fill="#314828"/>
    <rect x="30" y="46" width="24" height="1" fill="#314828"/>
    <rect x="83" y="46" width="1" height="1" fill="#314828"/>
    <rect x="0" y="47" width="1" height="1" fill="#314828"/>
    <rect x="29" y="47" width="26" height="1" fill="#314828"/>
    <rect x="83" y="47" width="1" height="1" fill="#314828"/>
    <rect x="0" y="48" width="1" height="1" fill="#314828"/>
    <rect x="28" y="48" width="28" height="1" fill="#314828"/>
    <rect x="83" y="48" width="1" height="1" fill="#314828"/>
    <rect x="0" y="49" width="1" height="1" fill="#314828"/>
    <rect x="28" y="49" width="29" height="1" fill="#314828"/>
    <rect x="83" y="49" width="1" height="1" fill="#314828"/>
    <rect x="0" y="50" width="1" height="1" fill="#314828"/>
    <rect x="27" y="50" width="30" height="1" fill="#314828"/>
    <rect x="83" y="50" width="1" height="1" fill="#314828"/>
    <rect x="0" y="51" width="1" height="1" fill="#314828"/>
    <rect x="27" y="51" width="31" height="1" fill="#314828"/>
    <rect x="83" y="51" width="1" height="1" fill="#314828"/>
    <rect x="0" y="52" width="1" height="1" fill="#314828"/>
    <rect x="26" y="52" width="32" height="1" fill="#314828"/>
    <rect x="83" y="52" width="1" height="1" fill="#314828"/>
    <rect x="0" y="53" width="1" height="1" fill="#314828"/>
    <rect x="26" y="53" width="32" height="1" fill="#314828"/>
    <rect x="83" y="53" width="1" height="1" fill="#314828"/>
    <rect x="0" y="54" width="1" height="1" fill="#314828"/>
    <rect x="25" y="54" width="34" height="1" fill="#314828"/>
    <rect x="83" y="54" width="1" height="1" fill="#314828"/>
    <rect x="0" y="55" width="1" height="1" fill="#314828"/>
    <rect x="25" y="55" width="34" height="1" fill="#314828"/>
    <rect x="83" y="55" width="1" height="1" fill="#314828"/>
    <rect x="0" y="56" width="1" height="1" fill="#314828"/>
    <rect x="25" y="56" width="34" height="1" fill="#314828"/>
    <rect x="83" y="56" width="1" height="1" fill="#314828"/>
    <rect x="0" y="57" width="1" height="1" fill="#314828"/>
    <rect x="25" y="57" width="34" height="1" fill="#314828"/>
    <rect x="83" y="57" width="1" height="1" fill="#314828"/>
    <rect x="0" y="58" width="1" height="1" fill="#314828"/>
    <rect x="25" y="58" width="34" height="1" fill="#314828"/>
    <rect x="83" y="58" width="1" height="1" fill="#314828"/>
    <rect x="0" y="59" width="1" height="1" fill="#314828"/>
    <rect x="25" y="59" width="34" height="1" fill="#314828"/>
    <rect x="83" y="59" width="1" height="1" fill="#314828"/>
    <rect x="0" y="60" width="1" height="1" fill="#314828"/>
    <rect x="25" y="60" width="34" height="1" fill="#314828"/>
    <rect x="83" y="60" width="1" height="1" fill="#314828"/>
    <rect x="0" y="61" width="1" height="1" fill="#314828"/>
    <rect x="25" y="61" width="34" height="1" fill="#314828"/>
    <rect x="83" y="61" width="1" height="1" fill="#314828"/>
    <rect x="0" y="62" width="1" height="1" fill="#314828"/>
    <rect x="26" y="62" width="33" height="1" fill="#314828"/>
    <rect x="83" y="62" width="1" height="1" fill="#314828"/>
    <rect x="0" y="63" width="1" height="1" fill="#314828"/>
    <rect x="26" y="63" width="32" height="1" fill="#314828"/>
    <rect x="83" y="63" width="1" height="1" fill="#314828"/>
    <rect x="0" y="64" width="1" height="1" fill="#314828"/>
    <rect x="27" y="64" width="31" height="1" fill="#314828"/>
    <rect x="83" y="64" width="1" height="1" fill="#314828"/>
    <rect x="0" y="65" width="1" height="1" fill="#314828"/>
    <rect x="27" y="65" width="30" height="1" fill="#314828"/>
    <rect x="83" y="65" width="1" height="1" fill="#314828"/>
    <rect x="0" y="66" width="1" height="1" fill="#314828"/>
    <rect x="28" y="66" width="29" height="1" fill="#314828"/>
    <rect x="83" y="66" width="1" height="1" fill="#314828"/>
    <rect x="0" y="67" width="1" height="1" fill="#314828"/>
    <rect x="28" y="67" width="28" height="1" fill="#314828"/>
    <rect x="83" y="67" width="1" height="1" fill="#314828"/>
    <rect x="0" y="68" width="1" height="1" fill="#314828"/>
    <rect x="29" y="68" width="26" height="1" fill="#314828"/>
    <rect x="83" y="68" width="1" height="1" fill="#314828"/>
    <rect x="0" y="69" width="1" height="1" fill="#314828"/>
    <rect x="30" y="69" width="24" height="1" fill="#314828"/>
    <rect x="83" y="69" width="1" height="1" fill="#314828"/>
    <rect x="0" y="70" width="1" height="1" fill="#314828"/>
    <rect x="31" y="70" width="22" height="1" fill="#314828"/>
    <rect x="83" y="70" width="1" height="1" fill="#314828"/>
    <rect x="0" y="71" width="1" height="1" fill="#314828"/>
    <rect x="32" y="71" width="20" height="1" fill="#314828"/>
    <rect x="83" y="71" width="1" height="1" fill="#314828"/>
    <rect x="0" y="72" width="1" height="1" fill="#314828"/>
    <rect x="34" y="72" width="16" height="1" fill="#314828"/>
    <rect x="83" y="72" width="1" height="1" fill="#314828"/>
    <rect x="0" y="73" width="1" height="1" fill="#314828"/>
    <rect x="36" y="73" width="12" height="1" fill="#314828"/>
    <rect x="83" y="73" width="1" height="1" fill="#314828"/>
    <rect x="0" y="74" width="1" height="1" fill="#314828"/>
    <rect x="38" y="74" width="8" height="1" fill="#314828"/>
    <rect x="83" y="74" width="1" height="1" fill="#314828"/>
    <rect x="0" y="75" width="1" height="1" fill="#314828"/>
    <rect x="83" y="75" width="1" height="1" fill="#314828"/>
    <rect x="0" y="76" width="1" height="1" fill="#314828"/>
    <rect x="83" y="76" width="1" height="1" fill="#314828"/>
    <rect x="0" y="77" width="1" height="1" fill="#314828"/>
    <rect x="83" y="77" width="1" height="1" fill="#314828"/>
    <rect x="0" y="78" width="1" height="1" fill="#314828"/>
    <rect x="83" y="78" width="1" height="1" fill="#314828"/>
    <rect x="0" y="79" width="1" height="1" fill="#314828"/>
    <rect x="83" y="79" width="1" height="1" fill="#314828"/>
    <rect x="0" y="80" width="1" height="1" fill="#314828"/>
    <rect x="83" y="80" width="1" height="1" fill="#314828"/>
    <rect x="0" y="81" width="1" height="1" fill="#314828"/>
    <rect x="83" y="81" width="1" height="1" fill="#314828"/>
    <rect x="0" y="82" width="84" height="1" fill="#314828"/>
  </g>
</svg>