<?xml version="1.0" encoding="UTF-8"?>
<svg xmlns="http://www.w3.org/2000/svg" viewBox="0 0 53 52" width="53" height="52">
  <!-- Auto-converted from legend-768.png -->
  <rect x="0" y="0" width="53" height="52" fill="none"/>
  <g fill="#231f20" stroke="none">
    <rect x="0" y="0" width="53" height="1" fill="#231f20"/>
    <rect x="0" y="1" width="1" height="1" fill="#231f20"/>
    <rect x="52" y="1" width="1" height="1" fill="#231f20"/>
    <rect x="0" y="2" width="1" height="1" fill="#231f20"/>
    <rect x="52" y="2" width="1" height="1" fill="#231f20"/>
    <rect x="0" y="3" width="1" height="1" fill="#231f20"/>
    <rect x="52" y="3" width="1" height="1" fill="#231f20"/>
    <rect x="0" y="4" width="1" height="1" fill="#231f20"/>
    <rect x="22" y="4" width="9" height="1" fill="#231f20"/>
    <rect x="52" y="4" width="1" height="1" fill="#231f20"/>
    <rect x="0" y="5" width="1" height="1" fill="#231f20"/>
    <rect x="21" y="5" width="11" height="1" fill="#231f20"/>
    <rect x="52" y="5" width="1" height="1" fill="#231f20"/>
    <rect x="0" y="6" width="1" height="1" fill="#231f20"/>
    <rect x="19" y="6" width="15" height="1" fill="#231f20"/>
    <rect x="52" y="6" width="1" height="1" fill="#231f20"/>
    <rect x="0" y="7" width="1" height="1" fill="#231f20"/>
    <rect x="18" y="7" width="7" height="1" fill="#231f20"/>
    <rect x="28" y="7" width="7" height="1" fill="#231f20"/>
    <rect x="52" y="7" width="1" height="1" fill="#231f20"/>
    <rect x="0" y="8" width="1" height="1" fill="#231f20"/>
    <rect x="17" y="8" width="6" height="1" fill="#231f20"/>
    <rect x="30" y="8" width="6" height="1" fill="#231f20"/>
    <rect x="52" y="8" width="1" height="1" fill="#231f20"/>
    <rect x="0" y="9" width="1" height="1" fill="#231f20"/>
    <rect x="16" y="9" width="5" height="1" fill="#231f20"/>
    <rect x="32" y="9" width="5" height="1" fill="#231f20"/>
    <rect x="52" y="9" width="1" height="1" fill="#231f20"/>
    <rect x="0" y="10" width="1" height="1" fill="#231f20"/>
    <rect x="15" y="10" width="5" height="1" fill="#231f20"/>
    <rect x="33" y="10" width="5" height="1" fill="#231f20"/>
    <rect x="52" y="10" width="1" height="1" fill="#231f20"/>
    <rect x="0" y="11" width="1" height="1" fill="#231f20"/>
    <rect x="14" y="11" width="5" height="1" fill="#231f20"/>
    <rect x="34" y="11" width="5" height="1" fill="#231f20"/>
    <rect x="52" y="11" width="1" height="1" fill="#231f20"/>
    <rect x="0" y="12" width="1" height="1" fill="#231f20"/>
    <rect x="13" y="12" width="5" height="1" fill="#231f20"/>
    <rect x="35" y="12" width="5" height="1" fill="#231f20"/>
    <rect x="52" y="12" width="1" height="1" fill="#231f20"/>
    <rect x="0" y="13" width="1" height="1" fill="#231f20"/>
    <rect x="13" y="13" width="5" height="1" fill="#231f20"/>
    <rect x="35" y="13" width="5" height="1" fill="#231f20"/>
    <rect x="52" y="13" width="1" height="1" fill="#231f20"/>
    <rect x="0" y="14" width="1" height="1" fill="#231f20"/>
    <rect x="12" y="14" width="5" height="1" fill="#231f20"/>
    <rect x="36" y="14" width="5" height="1" fill="#231f20"/>
    <rect x="52" y="14" width="1" height="1" fill="#231f20"/>
    <rect x="0" y="15" width="1" height="1" fill="#231f20"/>
    <rect x="12" y="15" width="4" height="1" fill="#231f20"/>
    <rect x="24" y="15" width="6" height="1" fill="#231f20"/>
    <rect x="37" y="15" width="4" height="1" fill="#231f20"/>
    <rect x="52" y="15" width="1" height="1" fill="#231f20"/>
    <rect x="0" y="16" width="1" height="1" fill="#231f20"/>
    <rect x="12" y="16" width="4" height="1" fill="#231f20"/>
    <rect x="23" y="16" width="9" height="1" fill="#231f20"/>
    <rect x="37" y="16" width="4" height="1" fill="#231f20"/>
    <rect x="52" y="16" width="1" height="1" fill="#231f20"/>
    <rect x="0" y="17" width="1" height="1" fill="#231f20"/>
    <rect x="11" y="17" width="4" height="1" fill="#231f20"/>
    <rect x="21" y="17" width="12" height="1" fill="#231f20"/>
    <rect x="38" y="17" width="4" height="1" fill="#231f20"/>
    <rect x="52" y="17" width="1" height="1" fill="#231f20"/>
    <rect x="0" y="18" width="1" height="1" fill="#231f20"/>
    <rect x="11" y="18" width="4" height="1" fill="#231f20"/>
    <rect x="21" y="18" width="13" height="1" fill="#231f20"/>
    <rect x="38" y="18" width="4" height="1" fill="#231f20"/>
    <rect x="52" y="18" width="1" height="1" fill="#231f20"/>
    <rect x="0" y="19" width="1" height="1" fill="#231f20"/>
    <rect x="11" y="19" width="4" height="1" fill="#231f20"/>
    <rect x="20" y="19" width="5" height="1" fill="#231f20"/>
    <rect x="29" y="19" width="5" height="1" fill="#231f20"/>
    <rect x="38" y="19" width="4" height="1" fill="#231f20"/>
    <rect x="52" y="19" width="1" height="1" fill="#231f20"/>
    <rect x="0" y="20" width="1" height="1" fill="#231f20"/>
    <rect x="10" y="20" width="4" height="1" fill="#231f20"/>
    <rect x="19" y="20" width="5" height="1" fill="#231f20"/>
    <rect x="30" y="20" width="5" height="1" fill="#231f20"/>
    <rect x="39" y="20" width="3" height="1" fill="#231f20"/>
    <rect x="52" y="20" width="1" height="1" fill="#231f20"/>
    <rect x="0" y="21" width="1" height="1" fill="#231f20"/>
    <rect x="10" y="21" width="4" height="1" fill="#231f20"/>
    <rect x="18" y="21" width="5" height="1" fill="#231f20"/>
    <rect x="31" y="21" width="4" height="1" fill="#231f20"/>
    <rect x="39" y="21" width="3" height="1" fill="#231f20"/>
    <rect x="52" y="21" width="1" height="1" fill="#231f20"/>
    <rect x="0" y="22" width="1" height="1" fill="#231f20"/>
    <rect x="10" y="22" width="3" height="1" fill="#231f20"/>
    <rect x="18" y="22" width="4" height="1" fill="#231f20"/>
    <rect x="31" y="22" width="4" height="1" fill="#231f20"/>
    <rect x="39" y="22" width="4" height="1" fill="#231f20"/>
    <rect x="52" y="22" width="1" height="1" fill="#231f20"/>
    <rect x="0" y="23" width="1" height="1" fill="#231f20"/>
    <rect x="10" y="23" width="3" height="1" fill="#231f20"/>
    <rect x="18" y="23" width="4" height="1" fill="#231f20"/>
    <rect x="32" y="23" width="4" height="1" fill="#231f20"/>
    <rect x="39" y="23" width="4" height="1" fill="#231f20"/>
    <rect x="52" y="23" width="1" height="1" fill="#231f20"/>
    <rect x="0" y="24" width="1" height="1" fill="#231f20"/>
    <rect x="10" y="24" width="3" height="1" fill="#231f20"/>
    <rect x="17" y="24" width="4" height="1" fill="#231f20"/>
    <rect x="32" y="24" width="4" height="1" fill="#231f20"/>
    <rect x="40" y="24" width="3" height="1" fill="#231f20"/>
    <rect x="52" y="24" width="1" height="1" fill="#231f20"/>
    <rect x="0" y="25" width="1" height="1" fill="#231f20"/>
    <rect x="10" y="25" width="3" height="1" fill="#231f20"/>
    <rect x="17" y="25" width="4" height="1" fill="#231f20"/>
    <rect x="33" y="25" width="3" height="1" fill="#231f20"/>
    <rect x="40" y="25" width="3" height="1" fill="#231f20"/>
    <rect x="52" y="25" width="1" height="1" fill="#231f20"/>
    <rect x="0" y="26" width="1" height="1" fill="#231f20"/>
    <rect x="10" y="26" width="3" height="1" fill="#231f20"/>
    <rect x="17" y="26" width="3" height="1" fill="#231f20"/>
    <rect x="33" y="26" width="4" height="1" fill="#231f20"/>
    <rect x="40" y="26" width="3" height="1" fill="#231f20"/>
    <rect x="52" y="26" width="1" height="1" fill="#231f20"/>
    <rect x="0" y="27" width="1" height="1" fill="#231f20"/>
    <rect x="10" y="27" width="3" height="1" fill="#231f20"/>
    <rect x="16" y="27" width="4" height="1" fill="#231f20"/>
    <rect x="24" y="27" width="4" height="1" fill="#231f20"/>
    <rect x="33" y="27" width="4" height="1" fill="#231f20"/>
    <rect x="40" y="27" width="3" height="1" fill="#231f20"/>
    <rect x="52" y="27" width="1" height="1" fill="#231f20"/>
    <rect x="0" y="28" width="1" height="1" fill="#231f20"/>
    <rect x="9" y="28" width="4" height="1" fill="#231f20"/>
    <rect x="16" y="28" width="4" height="1" fill="#231f20"/>
    <rect x="23" y="28" width="7" height="1" fill="#231f20"/>
    <rect x="34" y="28" width="3" height="1" fill="#231f20"/>
    <rect x="40" y="28" width="3" height="1" fill="#231f20"/>
    <rect x="52" y="28" width="1" height="1" fill="#231f20"/>
    <rect x="0" y="29" width="1" height="1" fill="#231f20"/>
    <rect x="9" y="29" width="4" height="1" fill="#231f20"/>
    <rect x="16" y="29" width="3" height="1" fill="#231f20"/>
    <rect x="22" y="29" width="9" height="1" fill="#231f20"/>
    <rect x="34" y="29" width="3" height="1" fill="#231f20"/>
    <rect x="40" y="29" width="3" height="1" fill="#231f20"/>
    <rect x="52" y="29" width="1" height="1" fill="#231f20"/>
    <rect x="0" y="30" width="1" height="1" fill="#231f20"/>
    <rect x="9" y="30" width="3" height="1" fill="#231f20"/>
    <rect x="16" y="30" width="3" height="1" fill="#231f20"/>
    <rect x="22" y="30" width="9" height="1" fill="#231f20"/>
    <rect x="34" y="30" width="4" height="1" fill="#231f20"/>
    <rect x="40" y="30" width="3" height="1" fill="#231f20"/>
    <rect x="52" y="30" width="1" height="1" fill="#231f20"/>
    <rect x="0" y="31" width="1" height="1" fill="#231f20"/>
    <rect x="9" y="31" width="3" height="1" fill="#231f20"/>
    <rect x="16" y="31" width="3" height="1" fill="#231f20"/>
    <rect x="21" y="31" width="5" height="1" fill="#231f20"/>
    <rect x="27" y="31" width="4" height="1" fill="#231f20"/>
    <rect x="34" y="31" width="4" height="1" fill="#231f20"/>
    <rect x="40" y="31" width="3" height="1" fill="#231f20"/>
    <rect x="52" y="31" width="1" height="1" fill="#231f20"/>
    <rect x="0" y="32" width="1" height="1" fill="#231f20"/>
    <rect x="9" y="32" width="3" height="1" fill="#231f20"/>
    <rect x="16" y="32" width="3" height="1" fill="#231f20"/>
    <rect x="21" y="32" width="4" height="1" fill="#231f20"/>
    <rect x="28" y="32" width="4" height="1" fill="#231f20"/>
    <rect x="35" y="32" width="3" height="1" fill="#231f20"/>
    <rect x="40" y="32" width="3" height="1" fill="#231f20"/>
    <rect x="52" y="32" width="1" height="1" fill="#231f20"/>
    <rect x="0" y="33" width="1" height="1" fill="#231f20"/>
    <rect x="9" y="33" width="3" height="1" fill="#231f20"/>
    <rect x="15" y="33" width="4" height="1" fill="#231f20"/>
    <rect x="21" y="33" width="4" height="1" fill="#231f20"/>
    <rect x="28" y="33" width="4" height="1" fill="#231f20"/>
    <rect x="35" y="33" width="3" height="1" fill="#231f20"/>
    <rect x="41" y="33" width="3" height="1" fill="#231f20"/>
    <rect x="52" y="33" width="1" height="1" fill="#231f20"/>
    <rect x="0" y="34" width="1" height="1" fill="#231f20"/>
    <rect x="9" y="34" width="3" height="1" fill="#231f20"/>
    <rect x="15" y="34" width="4" height="1" fill="#231f20"/>
    <rect x="21" y="34" width="3" height="1" fill="#231f20"/>
    <rect x="29" y="34" width="3" height="1" fill="#231f20"/>
    <rect x="35" y="34" width="3" height="1" fill="#231f20"/>
    <rect x="41" y="34" width="3" height="1" fill="#231f20"/>
    <rect x="52" y="34" width="1" height="1" fill="#231f20"/>
    <rect x="0" y="35" width="1" height="1" fill="#231f20"/>
    <rect x="9" y="35" width="3" height="1" fill="#231f20"/>
    <rect x="15" y="35" width="3" height="1" fill="#231f20"/>
    <rect x="21" y="35" width="3" height="1" fill="#231f20"/>
    <rect x="29" y="35" width="3" height="1" fill="#231f20"/>
    <rect x="35" y="35" width="3" height="1" fill="#231f20"/>
    <rect x="41" y="35" width="3" height="1" fill="#231f20"/>
    <rect x="52" y="35" width="1" height="1" fill="#231f20"/>
    <rect x="0" y="36" width="1" height="1" fill="#231f20"/>
    <rect x="9" y="36" width="3" height="1" fill="#231f20"/>
    <rect x="15" y="36" width="3" height="1" fill="#231f20"/>
    <rect x="21" y="36" width="3" height="1" fill="#231f20"/>
    <rect x="29" y="36" width="3" height="1" fill="#231f20"/>
    <rect x="35" y="36" width="3" height="1" fill="#231f20"/>
    <rect x="41" y="36" width="3" height="1" fill="#231f20"/>
    <rect x="52" y="36" width="1" height="1" fill="#231f20"/>
    <rect x="0" y="37" width="1" height="1" fill="#231f20"/>
    <rect x="9" y="37" width="3" height="1" fill="#231f20"/>
    <rect x="15" y="37" width="3" height="1" fill="#231f20"/>
    <rect x="21" y="37" width="3" height="1" fill="#231f20"/>
    <rect x="29" y="37" width="3" height="1" fill="#231f20"/>
    <rect x="35" y="37" width="3" height="1" fill="#231f20"/>
    <rect x="41" y="37" width="3" height="1" fill="#231f20"/>
    <rect x="52" y="37" width="1" height="1" fill="#231f20"/>
    <rect x="0" y="38" width="1" height="1" fill="#231f20"/>
    <rect x="9" y="38" width="3" height="1" fill="#231f20"/>
    <rect x="15" y="38" width="3" height="1" fill="#231f20"/>
    <rect x="21" y="38" width="3" height="1" fill="#231f20"/>
    <rect x="29" y="38" width="3" height="1" fill="#231f20"/>
    <rect x="35" y="38" width="3" height="1" fill="#231f20"/>
    <rect x="41" y="38" width="3" height="1" fill="#231f20"/>
    <rect x="52" y="38" width="1" height="1" fill="#231f20"/>
    <rect x="0" y="39" width="1" height="1" fill="#231f20"/>
    <rect x="9" y="39" width="3" height="1" fill="#231f20"/>
    <rect x="15" y="39" width="3" height="1" fill="#231f20"/>
    <rect x="20" y="39" width="4" height="1" fill="#231f20"/>
    <rect x="29" y="39" width="4" height="1" fill="#231f20"/>
    <rect x="35" y="39" width="3" height="1" fill="#231f20"/>
    <rect x="41" y="39" width="3" height="1" fill="#231f20"/>
    <rect x="52" y="39" width="1" height="1" fill="#231f20"/>
    <rect x="0" y="40" width="1" height="1" fill="#231f20"/>
    <rect x="9" y="40" width="3" height="1" fill="#231f20"/>
    <rect x="15" y="40" width="3" height="1" fill="#231f20"/>
    <rect x="20" y="40" width="4" height="1" fill="#231f20"/>
    <rect x="29" y="40" width="4" height="1" fill="#231f20"/>
    <rect x="35" y="40" width="3" height="1" fill="#231f20"/>
    <rect x="40" y="40" width="4" height="1" fill="#231f20"/>
    <rect x="52" y="40" width="1" height="1" fill="#231f20"/>
    <rect x="0" y="41" width="1" height="1" fill="#231f20"/>
    <rect x="9" y="41" width="3" height="1" fill="#231f20"/>
    <rect x="15" y="41" width="3" height="1" fill="#231f20"/>
    <rect x="20" y="41" width="3" height="1" fill="#231f20"/>
    <rect x="30" y="41" width="3" height="1" fill="#231f20"/>
    <rect x="35" y="41" width="3" height="1" fill="#231f20"/>
    <rect x="40" y="41" width="4" height="1" fill="#231f20"/>
    <rect x="52" y="41" width="1" height="1" fill="#231f20"/>
    <rect x="0" y="42" width="1" height="1" fill="#231f20"/>
    <rect x="9" y="42" width="3" height="1" fill="#231f20"/>
    <rect x="15" y="42" width="3" height="1" fill="#231f20"/>
    <rect x="20" y="42" width="3" height="1" fill="#231f20"/>
    <rect x="30" y="42" width="3" height="1" fill="#231f20"/>
    <rect x="35" y="42" width="3" height="1" fill="#231f20"/>
    <rect x="40" y="42" width="3" height="1" fill="#231f20"/>
    <rect x="52" y="42" width="1" height="1" fill="#231f20"/>
    <rect x="0" y="43" width="1" height="1" fill="#231f20"/>
    <rect x="9" y="43" width="3" height="1" fill="#231f20"/>
    <rect x="15" y="43" width="3" height="1" fill="#231f20"/>
    <rect x="20" y="43" width="3" height="1" fill="#231f20"/>
    <rect x="30" y="43" width="3" height="1" fill="#231f20"/>
    <rect x="35" y="43" width="3" height="1" fill="#231f20"/>
    <rect x="40" y="43" width="3" height="1" fill="#231f20"/>
    <rect x="52" y="43" width="1" height="1" fill="#231f20"/>
    <rect x="0" y="44" width="1" height="1" fill="#231f20"/>
    <rect x="9" y="44" width="3" height="1" fill="#231f20"/>
    <rect x="15" y="44" width="3" height="1" fill="#231f20"/>
    <rect x="20" y="44" width="3" height="1" fill="#231f20"/>
    <rect x="30" y="44" width="3" height="1" fill="#231f20"/>
    <rect x="35" y="44" width="3" height="1" fill="#231f20"/>
    <rect x="40" y="44" width="3" height="1" fill="#231f20"/>
    <rect x="52" y="44" width="1" height="1" fill="#231f20"/>
    <rect x="0" y="45" width="1" height="1" fill="#231f20"/>
    <rect x="5" y="45" width="42" height="1" fill="#231f20"/>
    <rect x="52" y="45" width="1" height="1" fill="#231f20"/>
    <rect x="0" y="46" width="1" height="1" fill="#231f20"/>
    <rect x="4" y="46" width="44" height="1" fill="#231f20"/>
    <rect x="52" y="46" width="1" height="1" fill="#231f20"/>
    <rect x="0" y="47" width="1" height="1" fill="#231f20"/>
    <rect x="5" y="47" width="42" height="1" fill="#231f20"/>
    <rect x="52" y="47" width="1" height="1" fill="#231f20"/>
    <rect x="0" y="48" width="1" height="1" fill="#231f20"/>
    <rect x="52" y="48" width="1" height="1" fill="#231f20"/>
    <rect x="0" y="49" width="1" height="1" fill="#231f20"/>
    <rect x="52" y="49" width="1" height="1" fill="#231f20"/>
    <rect x="0" y="50" width="1" height="1" fill="#231f20"/>
    <rect x="52" y="50" width="1" height="1" fill="#231f20"/>
    <rect x="0" y="51" width="53" height="1" fill="#231f20"/>
  </g>
</svg>