<?xml version="1.0" encoding="UTF-8"?>
<svg xmlns="http://www.w3.org/2000/svg" viewBox="0 0 173 70" width="173" height="70">
  <!-- Auto-converted from legend-673.png -->
  <rect x="0" y="0" width="173" height="70" fill="none"/>
  <g fill="#468a32" stroke="none">
    <rect x="1" y="1" width="172" height="1" fill="#468a32"/>
    <rect x="1" y="2" width="170" height="1" fill="#468a32"/>
    <rect x="172" y="2" width="1" height="1" fill="#468a32"/>
    <rect x="1" y="3" width="168" height="1" fill="#468a32"/>
    <rect x="172" y="3" width="1" height="1" fill="#468a32"/>
    <rect x="1" y="4" width="165" height="1" fill="#468a32"/>
    <rect x="172" y="4" width="1" height="1" fill="#468a32"/>
    <rect x="1" y="5" width="163" height="1" fill="#468a32"/>
    <rect x="172" y="5" width="1" height="1" fill="#468a32"/>
    <rect x="1" y="6" width="160" height="1" fill="#468a32"/>
    <rect x="172" y="6" width="1" height="1" fill="#468a32"/>
    <rect x="1" y="7" width="158" height="1" fill="#468a32"/>
    <rect x="172" y="7" width="1" height="1" fill="#468a32"/>
    <rect x="1" y="8" width="155" height="1" fill="#468a32"/>
    <rect x="172" y="8" width="1" height="1" fill="#468a32"/>
    <rect x="1" y="9" width="153" height="1" fill="#468a32"/>
    <rect x="172" y="9" width="1" height="1" fill="#468a32"/>
    <rect x="1" y="10" width="150" height="1" fill="#468a32"/>
    <rect x="172" y="10" width="1" height="1" fill="#468a32"/>
    <rect x="1" y="11" width="148" height="1" fill="#468a32"/>
    <rect x="172" y="11" width="1" height="1" fill="#468a32"/>
    <rect x="1" y="12" width="145" height="1" fill="#468a32"/>
    <rect x="172" y="12" width="1" height="1" fill="#468a32"/>
    <rect x="1" y="13" width="143" height="1" fill="#468a32"/>
    <rect x="172" y="13" width="1" height="1" fill="#468a32"/>
    <rect x="1" y="14" width="140" height="1" fill="#468a32"/>
    <rect x="172" y="14" width="1" height="1" fill="#468a32"/>
    <rect x="1" y="15" width="138" height="1" fill="#468a32"/>
    <rect x="172" y="15" width="1" height="1" fill="#468a32"/>
    <rect x="1" y="16" width="135" height="1" fill="#468a32"/>
    <rect x="172" y="16" width="1" height="1" fill="#468a32"/>
    <rect x="1" y="17" width="133" height="1" fill="#468a32"/>
    <rect x="172" y="17" width="1" height="1" fill="#468a32"/>
    <rect x="1" y="18" width="130" height="1" fill="#468a32"/>
    <rect x="172" y="18" width="1" height="1" fill="#468a32"/>
    <rect x="1" y="19" width="127" height="1" fill="#468a32"/>
    <rect x="172" y="19" width="1" height="1" fill="#468a32"/>
    <rect x="1" y="20" width="125" height="1" fill="#468a32"/>
    <rect x="172" y="20" width="1" height="1" fill="#468a32"/>
    <rect x="1" y="21" width="122" height="1" fill="#468a32"/>
    <rect x="172" y="21" width="1" height="1" fill="#468a32"/>
    <rect x="1" y="22" width="120" height="1" fill="#468a32"/>
    <rect x="172" y="22" width="1" height="1" fill="#468a32"/>
    <rect x="1" y="23" width="117" height="1" fill="#468a32"/>
    <rect x="172" y="23" width="1" height="1" fill="#468a32"/>
    <rect x="1" y="24" width="115" height="1" fill="#468a32"/>
    <rect x="172" y="24" width="1" height="1" fill="#468a32"/>
    <rect x="1" y="25" width="112" height="1" fill="#468a32"/>
    <rect x="172" y="25" width="1" height="1" fill="#468a32"/>
    <rect x="1" y="26" width="110" height="1" fill="#468a32"/>
    <rect x="172" y="26" width="1" height="1" fill="#468a32"/>
    <rect x="1" y="27" width="107" height="1" fill="#468a32"/>
    <rect x="172" y="27" width="1" height="1" fill="#468a32"/>
    <rect x="1" y="28" width="105" height="1" fill="#468a32"/>
    <rect x="172" y="28" width="1" height="1" fill="#468a32"/>
    <rect x="1" y="29" width="102" height="1" fill="#468a32"/>
    <rect x="172" y="29" width="1" height="1" fill="#468a32"/>
    <rect x="1" y="30" width="100" height="1" fill="#468a32"/>
    <rect x="172" y="30" width="1" height="1" fill="#468a32"/>
    <rect x="1" y="31" width="97" height="1" fill="#468a32"/>
    <rect x="172" y="31" width="1" height="1" fill="#468a32"/>
    <rect x="1" y="32" width="95" height="1" fill="#468a32"/>
    <rect x="172" y="32" width="1" height="1" fill="#468a32"/>
    <rect x="1" y="33" width="92" height="1" fill="#468a32"/>
    <rect x="172" y="33" width="1" height="1" fill="#468a32"/>
    <rect x="1" y="34" width="90" height="1" fill="#468a32"/>
    <rect x="172" y="34" width="1" height="1" fill="#468a32"/>
    <rect x="1" y="35" width="87" height="1" fill="#468a32"/>
    <rect x="172" y="35" width="1" height="1" fill="#468a32"/>
    <rect x="1" y="36" width="85" height="1" fill="#468a32"/>
    <rect x="172" y="36" width="1" height="1" fill="#468a32"/>
    <rect x="1" y="37" width="82" height="1" fill="#468a32"/>
    <rect x="172" y="37" width="1" height="1" fill="#468a32"/>
    <rect x="1" y="38" width="80" height="1" fill="#468a32"/>
    <rect x="172" y="38" width="1" height="1" fill="#468a32"/>
    <rect x="1" y="39" width="77" height="1" fill="#468a32"/>
    <rect x="172" y="39" width="1" height="1" fill="#468a32"/>
    <rect x="1" y="40" width="75" height="1" fill="#468a32"/>
    <rect x="172" y="40" width="1" height="1" fill="#468a32"/>
    <rect x="1" y="41" width="72" height="1" fill="#468a32"/>
    <rect x="172" y="41" width="1" height="1" fill="#468a32"/>
    <rect x="1" y="42" width="70" height="1" fill="#468a32"/>
    <rect x="172" y="42" width="1" height="1" fill="#468a32"/>
    <rect x="1" y="43" width="67" height="1" fill="#468a32"/>
    <rect x="172" y="43" width="1" height="1" fill="#468a32"/>
    <rect x="1" y="44" width="65" height="1" fill="#468a32"/>
    <rect x="172" y="44" width="1" height="1" fill="#468a32"/>
    <rect x="1" y="45" width="62" height="1" fill="#468a32"/>
    <rect x="172" y="45" width="1" height="1" fill="#468a32"/>
    <rect x="1" y="46" width="60" height="1" fill="#468a32"/>
    <rect x="172" y="46" width="1" height="1" fill="#468a32"/>
    <rect x="1" y="47" width="57" height="1" fill="#468a32"/>
    <rect x="172" y="47" width="1" height="1" fill="#468a32"/>
    <rect x="1" y="48" width="55" height="1" fill="#468a32"/>
    <rect x="122" y="48" width="7" height="1" fill="#468a32"/>
    <rect x="172" y="48" width="1" height="1" fill="#468a32"/>
    <rect x="1" y="49" width="52" height="1" fill="#468a32"/>
    <rect x="121" y="49" width="10" height="1" fill="#468a32"/>
    <rect x="172" y="49" width="1" height="1" fill="#468a32"/>
    <rect x="1" y="50" width="50" height="1" fill="#468a32"/>
    <rect x="121" y="50" width="13" height="1" fill="#468a32"/>
    <rect x="142" y="50" width="1" height="1" fill="#468a32"/>
    <rect x="172" y="50" width="1" height="1" fill="#468a32"/>
    <rect x="1" y="51" width="47" height="1" fill="#468a32"/>
    <rect x="120" y="51" width="5" height="1" fill="#468a32"/>
    <rect x="127" y="51" width="9" height="1" fill="#468a32"/>
    <rect x="140" y="51" width="4" height="1" fill="#468a32"/>
    <rect x="172" y="51" width="1" height="1" fill="#468a32"/>
    <rect x="1" y="52" width="45" height="1" fill="#468a32"/>
    <rect x="121" y="52" width="3" height="1" fill="#468a32"/>
    <rect x="129" y="52" width="9" height="1" fill="#468a32"/>
    <rect x="139" y="52" width="5" height="1" fill="#468a32"/>
    <rect x="172" y="52" width="1" height="1" fill="#468a32"/>
    <rect x="1" y="53" width="42" height="1" fill="#468a32"/>
    <rect x="132" y="53" width="12" height="1" fill="#468a32"/>
    <rect x="172" y="53" width="1" height="1" fill="#468a32"/>
    <rect x="1" y="54" width="39" height="1" fill="#468a32"/>
    <rect x="134" y="54" width="9" height="1" fill="#468a32"/>
    <rect x="172" y="54" width="1" height="1" fill="#468a32"/>
    <rect x="1" y="55" width="37" height="1" fill="#468a32"/>
    <rect x="136" y="55" width="5" height="1" fill="#468a32"/>
    <rect x="172" y="55" width="1" height="1" fill="#468a32"/>
    <rect x="1" y="56" width="34" height="1" fill="#468a32"/>
    <rect x="172" y="56" width="1" height="1" fill="#468a32"/>
    <rect x="1" y="57" width="32" height="1" fill="#468a32"/>
    <rect x="172" y="57" width="1" height="1" fill="#468a32"/>
    <rect x="1" y="58" width="29" height="1" fill="#468a32"/>
    <rect x="172" y="58" width="1" height="1" fill="#468a32"/>
    <rect x="1" y="59" width="27" height="1" fill="#468a32"/>
    <rect x="172" y="59" width="1" height="1" fill="#468a32"/>
    <rect x="1" y="60" width="24" height="1" fill="#468a32"/>
    <rect x="172" y="60" width="1" height="1" fill="#468a32"/>
    <rect x="1" y="61" width="22" height="1" fill="#468a32"/>
    <rect x="172" y="61" width="1" height="1" fill="#468a32"/>
    <rect x="1" y="62" width="19" height="1" fill="#468a32"/>
    <rect x="172" y="62" width="1" height="1" fill="#468a32"/>
    <rect x="1" y="63" width="17" height="1" fill="#468a32"/>
    <rect x="172" y="63" width="1" height="1" fill="#468a32"/>
    <rect x="1" y="64" width="14" height="1" fill="#468a32"/>
    <rect x="172" y="64" width="1" height="1" fill="#468a32"/>
    <rect x="1" y="65" width="12" height="1" fill="#468a32"/>
    <rect x="172" y="65" width="1" height="1" fill="#468a32"/>
    <rect x="1" y="66" width="9" height="1" fill="#468a32"/>
    <rect x="172" y="66" width="1" height="1" fill="#468a32"/>
    <rect x="1" y="67" width="7" height="1" fill="#468a32"/>
    <rect x="172" y="67" width="1" height="1" fill="#468a32"/>
    <rect x="1" y="68" width="4" height="1" fill="#468a32"/>
    <rect x="172" y="68" width="1" height="1" fill="#468a32"/>
    <rect x="1" y="69" width="172" height="1" fill="#468a32"/>
  </g>
</svg>