<?xml version="1.0" encoding="UTF-8"?>
<svg xmlns="http://www.w3.org/2000/svg" viewBox="0 0 150 151" width="150" height="151">
  <!-- Auto-converted from legend-771.png -->
  <rect x="0" y="0" width="150" height="151" fill="none"/>
  <g fill="#231f20" stroke="none">
    <rect x="0" y="0" width="150" height="1" fill="#231f20"/>
    <rect x="0" y="1" width="1" height="1" fill="#231f20"/>
    <rect x="149" y="1" width="1" height="1" fill="#231f20"/>
    <rect x="0" y="2" width="1" height="1" fill="#231f20"/>
    <rect x="149" y="2" width="1" height="1" fill="#231f20"/>
    <rect x="0" y="3" width="1" height="1" fill="#231f20"/>
    <rect x="149" y="3" width="1" height="1" fill="#231f20"/>
    <rect x="0" y="4" width="1" height="1" fill="#231f20"/>
    <rect x="149" y="4" width="1" height="1" fill="#231f20"/>
    <rect x="0" y="5" width="1" height="1" fill="#231f20"/>
    <rect x="149" y="5" width="1" height="1" fill="#231f20"/>
    <rect x="0" y="6" width="1" height="1" fill="#231f20"/>
    <rect x="149" y="6" width="1" height="1" fill="#231f20"/>
    <rect x="0" y="7" width="1" height="1" fill="#231f20"/>
    <rect x="149" y="7" width="1" height="1" fill="#231f20"/>
    <rect x="0" y="8" width="1" height="1" fill="#231f20"/>
    <rect x="149" y="8" width="1" height="1" fill="#231f20"/>
    <rect x="0" y="9" width="1" height="1" fill="#231f20"/>
    <rect x="149" y="9" width="1" height="1" fill="#231f20"/>
    <rect x="0" y="10" width="1" height="1" fill="#231f20"/>
    <rect x="149" y="10" width="1" height="1" fill="#231f20"/>
    <rect x="0" y="11" width="1" height="1" fill="#231f20"/>
    <rect x="149" y="11" width="1" height="1" fill="#231f20"/>
    <rect x="0" y="12" width="1" height="1" fill="#231f20"/>
    <rect x="149" y="12" width="1" height="1" fill="#231f20"/>
    <rect x="0" y="13" width="1" height="1" fill="#231f20"/>
    <rect x="149" y="13" width="1" height="1" fill="#231f20"/>
    <rect x="0" y="14" width="1" height="1" fill="#231f20"/>
    <rect x="88" y="14" width="3" height="1" fill="#231f20"/>
    <rect x="149" y="14" width="1" height="1" fill="#231f20"/>
    <rect x="0" y="15" width="1" height="1" fill="#231f20"/>
    <rect x="87" y="15" width="4" height="1" fill="#231f20"/>
    <rect x="149" y="15" width="1" height="1" fill="#231f20"/>
    <rect x="0" y="16" width="1" height="1" fill="#231f20"/>
    <rect x="86" y="16" width="5" height="1" fill="#231f20"/>
    <rect x="149" y="16" width="1" height="1" fill="#231f20"/>
    <rect x="0" y="17" width="1" height="1" fill="#231f20"/>
    <rect x="85" y="17" width="5" height="1" fill="#231f20"/>
    <rect x="149" y="17" width="1" height="1" fill="#231f20"/>
    <rect x="0" y="18" width="1" height="1" fill="#231f20"/>
    <rect x="84" y="18" width="5" height="1" fill="#231f20"/>
    <rect x="149" y="18" width="1" height="1" fill="#231f20"/>
    <rect x="0" y="19" width="1" height="1" fill="#231f20"/>
    <rect x="84" y="19" width="4" height="1" fill="#231f20"/>
    <rect x="149" y="19" width="1" height="1" fill="#231f20"/>
    <rect x="0" y="20" width="1" height="1" fill="#231f20"/>
    <rect x="83" y="20" width="4" height="1" fill="#231f20"/>
    <rect x="149" y="20" width="1" height="1" fill="#231f20"/>
    <rect x="0" y="21" width="1" height="1" fill="#231f20"/>
    <rect x="82" y="21" width="5" height="1" fill="#231f20"/>
    <rect x="149" y="21" width="1" height="1" fill="#231f20"/>
    <rect x="0" y="22" width="1" height="1" fill="#231f20"/>
    <rect x="81" y="22" width="5" height="1" fill="#231f20"/>
    <rect x="149" y="22" width="1" height="1" fill="#231f20"/>
    <rect x="0" y="23" width="1" height="1" fill="#231f20"/>
    <rect x="80" y="23" width="5" height="1" fill="#231f20"/>
    <rect x="149" y="23" width="1" height="1" fill="#231f20"/>
    <rect x="0" y="24" width="1" height="1" fill="#231f20"/>
    <rect x="79" y="24" width="5" height="1" fill="#231f20"/>
    <rect x="149" y="24" width="1" height="1" fill="#231f20"/>
    <rect x="0" y="25" width="1" height="1" fill="#231f20"/>
    <rect x="78" y="25" width="5" height="1" fill="#231f20"/>
    <rect x="149" y="25" width="1" height="1" fill="#231f20"/>
    <rect x="0" y="26" width="1" height="1" fill="#231f20"/>
    <rect x="77" y="26" width="5" height="1" fill="#231f20"/>
    <rect x="149" y="26" width="1" height="1" fill="#231f20"/>
    <rect x="0" y="27" width="1" height="1" fill="#231f20"/>
    <rect x="76" y="27" width="5" height="1" fill="#231f20"/>
    <rect x="149" y="27" width="1" height="1" fill="#231f20"/>
    <rect x="0" y="28" width="1" height="1" fill="#231f20"/>
    <rect x="75" y="28" width="7" height="1" fill="#231f20"/>
    <rect x="149" y="28" width="1" height="1" fill="#231f20"/>
    <rect x="0" y="29" width="1" height="1" fill="#231f20"/>
    <rect x="75" y="29" width="9" height="1" fill="#231f20"/>
    <rect x="149" y="29" width="1" height="1" fill="#231f20"/>
    <rect x="0" y="30" width="1" height="1" fill="#231f20"/>
    <rect x="74" y="30" width="4" height="1" fill="#231f20"/>
    <rect x="79" y="30" width="6" height="1" fill="#231f20"/>
    <rect x="149" y="30" width="1" height="1" fill="#231f20"/>
    <rect x="0" y="31" width="1" height="1" fill="#231f20"/>
    <rect x="73" y="31" width="5" height="1" fill="#231f20"/>
    <rect x="80" y="31" width="6" height="1" fill="#231f20"/>
    <rect x="149" y="31" width="1" height="1" fill="#231f20"/>
    <rect x="0" y="32" width="1" height="1" fill="#231f20"/>
    <rect x="72" y="32" width="5" height="1" fill="#231f20"/>
    <rect x="82" y="32" width="5" height="1" fill="#231f20"/>
    <rect x="105" y="32" width="3" height="1" fill="#231f20"/>
    <rect x="149" y="32" width="1" height="1" fill="#231f20"/>
    <rect x="0" y="33" width="1" height="1" fill="#231f20"/>
    <rect x="71" y="33" width="5" height="1" fill="#231f20"/>
    <rect x="83" y="33" width="5" height="1" fill="#231f20"/>
    <rect x="104" y="33" width="4" height="1" fill="#231f20"/>
    <rect x="149" y="33" width="1" height="1" fill="#231f20"/>
    <rect x="0" y="34" width="1" height="1" fill="#231f20"/>
    <rect x="70" y="34" width="5" height="1" fill="#231f20"/>
    <rect x="84" y="34" width="6" height="1" fill="#231f20"/>
    <rect x="103" y="34" width="5" height="1" fill="#231f20"/>
    <rect x="149" y="34" width="1" height="1" fill="#231f20"/>
    <rect x="0" y="35" width="1" height="1" fill="#231f20"/>
    <rect x="69" y="35" width="7" height="1" fill="#231f20"/>
    <rect x="85" y="35" width="6" height="1" fill="#231f20"/>
    <rect x="102" y="35" width="5" height="1" fill="#231f20"/>
    <rect x="149" y="35" width="1" height="1" fill="#231f20"/>
    <rect x="0" y="36" width="1" height="1" fill="#231f20"/>
    <rect x="68" y="36" width="10" height="1" fill="#231f20"/>
    <rect x="86" y="36" width="6" height="1" fill="#231f20"/>
    <rect x="101" y="36" width="5" height="1" fill="#231f20"/>
    <rect x="149" y="36" width="1" height="1" fill="#231f20"/>
    <rect x="0" y="37" width="1" height="1" fill="#231f20"/>
    <rect x="67" y="37" width="5" height="1" fill="#231f20"/>
    <rect x="73" y="37" width="6" height="1" fill="#231f20"/>
    <rect x="88" y="37" width="5" height="1" fill="#231f20"/>
    <rect x="101" y="37" width="4" height="1" fill="#231f20"/>
    <rect x="149" y="37" width="1" height="1" fill="#231f20"/>
    <rect x="0" y="38" width="1" height="1" fill="#231f20"/>
    <rect x="67" y="38" width="4" height="1" fill="#231f20"/>
    <rect x="74" y="38" width="6" height="1" fill="#231f20"/>
    <rect x="89" y="38" width="5" height="1" fill="#231f20"/>
    <rect x="100" y="38" width="4" height="1" fill="#231f20"/>
    <rect x="149" y="38" width="1" height="1" fill="#231f20"/>
    <rect x="0" y="39" width="1" height="1" fill="#231f20"/>
    <rect x="66" y="39" width="4" height="1" fill="#231f20"/>
    <rect x="76" y="39" width="5" height="1" fill="#231f20"/>
    <rect x="90" y="39" width="6" height="1" fill="#231f20"/>
    <rect x="99" y="39" width="5" height="1" fill="#231f20"/>
    <rect x="149" y="39" width="1" height="1" fill="#231f20"/>
    <rect x="0" y="40" width="1" height="1" fill="#231f20"/>
    <rect x="65" y="40" width="5" height="1" fill="#231f20"/>
    <rect x="77" y="40" width="5" height="1" fill="#231f20"/>
    <rect x="91" y="40" width="6" height="1" fill="#231f20"/>
    <rect x="98" y="40" width="5" height="1" fill="#231f20"/>
    <rect x="149" y="40" width="1" height="1" fill="#231f20"/>
    <rect x="0" y="41" width="1" height="1" fill="#231f20"/>
    <rect x="64" y="41" width="5" height="1" fill="#231f20"/>
    <rect x="78" y="41" width="6" height="1" fill="#231f20"/>
    <rect x="92" y="41" width="10" height="1" fill="#231f20"/>
    <rect x="149" y="41" width="1" height="1" fill="#231f20"/>
    <rect x="0" y="42" width="1" height="1" fill="#231f20"/>
    <rect x="63" y="42" width="7" height="1" fill="#231f20"/>
    <rect x="79" y="42" width="6" height="1" fill="#231f20"/>
    <rect x="94" y="42" width="7" height="1" fill="#231f20"/>
    <rect x="149" y="42" width="1" height="1" fill="#231f20"/>
    <rect x="0" y="43" width="1" height="1" fill="#231f20"/>
    <rect x="62" y="43" width="10" height="1" fill="#231f20"/>
    <rect x="80" y="43" width="6" height="1" fill="#231f20"/>
    <rect x="95" y="43" width="5" height="1" fill="#231f20"/>
    <rect x="149" y="43" width="1" height="1" fill="#231f20"/>
    <rect x="0" y="44" width="1" height="1" fill="#231f20"/>
    <rect x="61" y="44" width="5" height="1" fill="#231f20"/>
    <rect x="67" y="44" width="6" height="1" fill="#231f20"/>
    <rect x="82" y="44" width="5" height="1" fill="#231f20"/>
    <rect x="94" y="44" width="5" height="1" fill="#231f20"/>
    <rect x="149" y="44" width="1" height="1" fill="#231f20"/>
    <rect x="0" y="45" width="1" height="1" fill="#231f20"/>
    <rect x="60" y="45" width="5" height="1" fill="#231f20"/>
    <rect x="68" y="45" width="6" height="1" fill="#231f20"/>
    <rect x="83" y="45" width="5" height="1" fill="#231f20"/>
    <rect x="93" y="45" width="5" height="1" fill="#231f20"/>
    <rect x="149" y="45" width="1" height="1" fill="#231f20"/>
    <rect x="0" y="46" width="1" height="1" fill="#231f20"/>
    <rect x="59" y="46" width="5" height="1" fill="#231f20"/>
    <rect x="70" y="46" width="5" height="1" fill="#231f20"/>
    <rect x="84" y="46" width="6" height="1" fill="#231f20"/>
    <rect x="92" y="46" width="5" height="1" fill="#231f20"/>
    <rect x="149" y="46" width="1" height="1" fill="#231f20"/>
    <rect x="0" y="47" width="1" height="1" fill="#231f20"/>
    <rect x="59" y="47" width="4" height="1" fill="#231f20"/>
    <rect x="71" y="47" width="5" height="1" fill="#231f20"/>
    <rect x="85" y="47" width="6" height="1" fill="#231f20"/>
    <rect x="92" y="47" width="4" height="1" fill="#231f20"/>
    <rect x="149" y="47" width="1" height="1" fill="#231f20"/>
    <rect x="0" y="48" width="1" height="1" fill="#231f20"/>
    <rect x="58" y="48" width="6" height="1" fill="#231f20"/>
    <rect x="72" y="48" width="6" height="1" fill="#231f20"/>
    <rect x="86" y="48" width="9" height="1" fill="#231f20"/>
    <rect x="149" y="48" width="1" height="1" fill="#231f20"/>
    <rect x="0" y="49" width="1" height="1" fill="#231f20"/>
    <rect x="57" y="49" width="8" height="1" fill="#231f20"/>
    <rect x="73" y="49" width="6" height="1" fill="#231f20"/>
    <rect x="88" y="49" width="7" height="1" fill="#231f20"/>
    <rect x="149" y="49" width="1" height="1" fill="#231f20"/>
    <rect x="0" y="50" width="1" height="1" fill="#231f20"/>
    <rect x="56" y="50" width="10" height="1" fill="#231f20"/>
    <rect x="74" y="50" width="6" height="1" fill="#231f20"/>
    <rect x="89" y="50" width="5" height="1" fill="#231f20"/>
    <rect x="149" y="50" width="1" height="1" fill="#231f20"/>
    <rect x="0" y="51" width="1" height="1" fill="#231f20"/>
    <rect x="55" y="51" width="5" height="1" fill="#231f20"/>
    <rect x="62" y="51" width="6" height="1" fill="#231f20"/>
    <rect x="76" y="51" width="5" height="1" fill="#231f20"/>
    <rect x="88" y="51" width="8" height="1" fill="#231f20"/>
    <rect x="149" y="51" width="1" height="1" fill="#231f20"/>
    <rect x="0" y="52" width="1" height="1" fill="#231f20"/>
    <rect x="54" y="52" width="5" height="1" fill="#231f20"/>
    <rect x="63" y="52" width="6" height="1" fill="#231f20"/>
    <rect x="77" y="52" width="5" height="1" fill="#231f20"/>
    <rect x="87" y="52" width="11" height="1" fill="#231f20"/>
    <rect x="149" y="52" width="1" height="1" fill="#231f20"/>
    <rect x="0" y="53" width="1" height="1" fill="#231f20"/>
    <rect x="53" y="53" width="5" height="1" fill="#231f20"/>
    <rect x="64" y="53" width="6" height="1" fill="#231f20"/>
    <rect x="78" y="53" width="6" height="1" fill="#231f20"/>
    <rect x="86" y="53" width="5" height="1" fill="#231f20"/>
    <rect x="92" y="53" width="6" height="1" fill="#231f20"/>
    <rect x="149" y="53" width="1" height="1" fill="#231f20"/>
    <rect x="0" y="54" width="1" height="1" fill="#231f20"/>
    <rect x="52" y="54" width="6" height="1" fill="#231f20"/>
    <rect x="66" y="54" width="5" height="1" fill="#231f20"/>
    <rect x="79" y="54" width="11" height="1" fill="#231f20"/>
    <rect x="93" y="54" width="6" height="1" fill="#231f20"/>
    <rect x="149" y="54" width="1" height="1" fill="#231f20"/>
    <rect x="0" y="55" width="1" height="1" fill="#231f20"/>
    <rect x="51" y="55" width="8" height="1" fill="#231f20"/>
    <rect x="67" y="55" width="5" height="1" fill="#231f20"/>
    <rect x="80" y="55" width="9" height="1" fill="#231f20"/>
    <rect x="92" y="55" width="8" height="1" fill="#231f20"/>
    <rect x="149" y="55" width="1" height="1" fill="#231f20"/>
    <rect x="0" y="56" width="1" height="1" fill="#231f20"/>
    <rect x="50" y="56" width="10" height="1" fill="#231f20"/>
    <rect x="68" y="56" width="5" height="1" fill="#231f20"/>
    <rect x="82" y="56" width="6" height="1" fill="#231f20"/>
    <rect x="91" y="56" width="11" height="1" fill="#231f20"/>
    <rect x="149" y="56" width="1" height="1" fill="#231f20"/>
    <rect x="0" y="57" width="1" height="1" fill="#231f20"/>
    <rect x="50" y="57" width="4" height="1" fill="#231f20"/>
    <rect x="56" y="57" width="6" height="1" fill="#231f20"/>
    <rect x="69" y="57" width="5" height="1" fill="#231f20"/>
    <rect x="83" y="57" width="4" height="1" fill="#231f20"/>
    <rect x="90" y="57" width="5" height="1" fill="#231f20"/>
    <rect x="97" y="57" width="6" height="1" fill="#231f20"/>
    <rect x="149" y="57" width="1" height="1" fill="#231f20"/>
    <rect x="0" y="58" width="1" height="1" fill="#231f20"/>
    <rect x="49" y="58" width="4" height="1" fill="#231f20"/>
    <rect x="57" y="58" width="6" height="1" fill="#231f20"/>
    <rect x="70" y="58" width="5" height="1" fill="#231f20"/>
    <rect x="82" y="58" width="5" height="1" fill="#231f20"/>
    <rect x="89" y="58" width="5" height="1" fill="#231f20"/>
    <rect x="98" y="58" width="6" height="1" fill="#231f20"/>
    <rect x="149" y="58" width="1" height="1" fill="#231f20"/>
    <rect x="0" y="59" width="1" height="1" fill="#231f20"/>
    <rect x="48" y="59" width="5" height="1" fill="#231f20"/>
    <rect x="58" y="59" width="6" height="1" fill="#231f20"/>
    <rect x="71" y="59" width="6" height="1" fill="#231f20"/>
    <rect x="81" y="59" width="5" height="1" fill="#231f20"/>
    <rect x="88" y="59" width="5" height="1" fill="#231f20"/>
    <rect x="100" y="59" width="6" height="1" fill="#231f20"/>
    <rect x="149" y="59" width="1" height="1" fill="#231f20"/>
    <rect x="0" y="60" width="1" height="1" fill="#231f20"/>
    <rect x="47" y="60" width="5" height="1" fill="#231f20"/>
    <rect x="60" y="60" width="5" height="1" fill="#231f20"/>
    <rect x="72" y="60" width="6" height="1" fill="#231f20"/>
    <rect x="80" y="60" width="5" height="1" fill="#231f20"/>
    <rect x="87" y="60" width="5" height="1" fill="#231f20"/>
    <rect x="101" y="60" width="5" height="1" fill="#231f20"/>
    <rect x="149" y="60" width="1" height="1" fill="#231f20"/>
    <rect x="0" y="61" width="1" height="1" fill="#231f20"/>
    <rect x="46" y="61" width="6" height="1" fill="#231f20"/>
    <rect x="61" y="61" width="5" height="1" fill="#231f20"/>
    <rect x="73" y="61" width="11" height="1" fill="#231f20"/>
    <rect x="86" y="61" width="5" height="1" fill="#231f20"/>
    <rect x="101" y="61" width="7" height="1" fill="#231f20"/>
    <rect x="149" y="61" width="1" height="1" fill="#231f20"/>
    <rect x="0" y="62" width="1" height="1" fill="#231f20"/>
    <rect x="45" y="62" width="8" height="1" fill="#231f20"/>
    <rect x="62" y="62" width="5" height="1" fill="#231f20"/>
    <rect x="75" y="62" width="8" height="1" fill="#231f20"/>
    <rect x="86" y="62" width="4" height="1" fill="#231f20"/>
    <rect x="100" y="62" width="9" height="1" fill="#231f20"/>
    <rect x="149" y="62" width="1" height="1" fill="#231f20"/>
    <rect x="0" y="63" width="1" height="1" fill="#231f20"/>
    <rect x="44" y="63" width="10" height="1" fill="#231f20"/>
    <rect x="63" y="63" width="5" height="1" fill="#231f20"/>
    <rect x="76" y="63" width="6" height="1" fill="#231f20"/>
    <rect x="85" y="63" width="4" height="1" fill="#231f20"/>
    <rect x="99" y="63" width="11" height="1" fill="#231f20"/>
    <rect x="149" y="63" width="1" height="1" fill="#231f20"/>
    <rect x="0" y="64" width="1" height="1" fill="#231f20"/>
    <rect x="43" y="64" width="5" height="1" fill="#231f20"/>
    <rect x="50" y="64" width="6" height="1" fill="#231f20"/>
    <rect x="64" y="64" width="5" height="1" fill="#231f20"/>
    <rect x="76" y="64" width="5" height="1" fill="#231f20"/>
    <rect x="84" y="64" width="5" height="1" fill="#231f20"/>
    <rect x="98" y="64" width="5" height="1" fill="#231f20"/>
    <rect x="106" y="64" width="5" height="1" fill="#231f20"/>
    <rect x="149" y="64" width="1" height="1" fill="#231f20"/>
    <rect x="0" y="65" width="1" height="1" fill="#231f20"/>
    <rect x="42" y="65" width="5" height="1" fill="#231f20"/>
    <rect x="51" y="65" width="6" height="1" fill="#231f20"/>
    <rect x="65" y="65" width="6" height="1" fill="#231f20"/>
    <rect x="76" y="65" width="5" height="1" fill="#231f20"/>
    <rect x="83" y="65" width="5" height="1" fill="#231f20"/>
    <rect x="97" y="65" width="5" height="1" fill="#231f20"/>
    <rect x="107" y="65" width="6" height="1" fill="#231f20"/>
    <rect x="149" y="65" width="1" height="1" fill="#231f20"/>
    <rect x="0" y="66" width="1" height="1" fill="#231f20"/>
    <rect x="42" y="66" width="4" height="1" fill="#231f20"/>
    <rect x="52" y="66" width="6" height="1" fill="#231f20"/>
    <rect x="66" y="66" width="6" height="1" fill="#231f20"/>
    <rect x="75" y="66" width="4" height="1" fill="#231f20"/>
    <rect x="82" y="66" width="5" height="1" fill="#231f20"/>
    <rect x="96" y="66" width="5" height="1" fill="#231f20"/>
    <rect x="108" y="66" width="6" height="1" fill="#231f20"/>
    <rect x="149" y="66" width="1" height="1" fill="#231f20"/>
    <rect x="0" y="67" width="1" height="1" fill="#231f20"/>
    <rect x="41" y="67" width="5" height="1" fill="#231f20"/>
    <rect x="54" y="67" width="5" height="1" fill="#231f20"/>
    <rect x="67" y="67" width="6" height="1" fill="#231f20"/>
    <rect x="74" y="67" width="5" height="1" fill="#231f20"/>
    <rect x="81" y="67" width="5" height="1" fill="#231f20"/>
    <rect x="95" y="67" width="5" height="1" fill="#231f20"/>
    <rect x="109" y="67" width="6" height="1" fill="#231f20"/>
    <rect x="149" y="67" width="1" height="1" fill="#231f20"/>
    <rect x="0" y="68" width="1" height="1" fill="#231f20"/>
    <rect x="40" y="68" width="7" height="1" fill="#231f20"/>
    <rect x="55" y="68" width="5" height="1" fill="#231f20"/>
    <rect x="69" y="68" width="9" height="1" fill="#231f20"/>
    <rect x="80" y="68" width="5" height="1" fill="#231f20"/>
    <rect x="94" y="68" width="5" height="1" fill="#231f20"/>
    <rect x="109" y="68" width="7" height="1" fill="#231f20"/>
    <rect x="149" y="68" width="1" height="1" fill="#231f20"/>
    <rect x="0" y="69" width="1" height="1" fill="#231f20"/>
    <rect x="39" y="69" width="10" height="1" fill="#231f20"/>
    <rect x="56" y="69" width="5" height="1" fill="#231f20"/>
    <rect x="70" y="69" width="14" height="1" fill="#231f20"/>
    <rect x="94" y="69" width="4" height="1" fill="#231f20"/>
    <rect x="108" y="69" width="9" height="1" fill="#231f20"/>
    <rect x="149" y="69" width="1" height="1" fill="#231f20"/>
    <rect x="0" y="70" width="1" height="1" fill="#231f20"/>
    <rect x="38" y="70" width="5" height="1" fill="#231f20"/>
    <rect x="44" y="70" width="6" height="1" fill="#231f20"/>
    <rect x="57" y="70" width="5" height="1" fill="#231f20"/>
    <rect x="71" y="70" width="12" height="1" fill="#231f20"/>
    <rect x="93" y="70" width="4" height="1" fill="#231f20"/>
    <rect x="107" y="70" width="5" height="1" fill="#231f20"/>
    <rect x="113" y="70" width="6" height="1" fill="#231f20"/>
    <rect x="149" y="70" width="1" height="1" fill="#231f20"/>
    <rect x="0" y="71" width="1" height="1" fill="#231f20"/>
    <rect x="37" y="71" width="5" height="1" fill="#231f20"/>
    <rect x="45" y="71" width="6" height="1" fill="#231f20"/>
    <rect x="58" y="71" width="5" height="1" fill="#231f20"/>
    <rect x="70" y="71" width="5" height="1" fill="#231f20"/>
    <rect x="76" y="71" width="6" height="1" fill="#231f20"/>
    <rect x="92" y="71" width="5" height="1" fill="#231f20"/>
    <rect x="106" y="71" width="5" height="1" fill="#231f20"/>
    <rect x="114" y="71" width="6" height="1" fill="#231f20"/>
    <rect x="149" y="71" width="1" height="1" fill="#231f20"/>
    <rect x="0" y="72" width="1" height="1" fill="#231f20"/>
    <rect x="36" y="72" width="5" height="1" fill="#231f20"/>
    <rect x="47" y="72" width="5" height="1" fill="#231f20"/>
    <rect x="59" y="72" width="6" height="1" fill="#231f20"/>
    <rect x="69" y="72" width="5" height="1" fill="#231f20"/>
    <rect x="77" y="72" width="6" height="1" fill="#231f20"/>
    <rect x="91" y="72" width="5" height="1" fill="#231f20"/>
    <rect x="105" y="72" width="5" height="1" fill="#231f20"/>
    <rect x="115" y="72" width="6" height="1" fill="#231f20"/>
    <rect x="149" y="72" width="1" height="1" fill="#231f20"/>
    <rect x="0" y="73" width="1" height="1" fill="#231f20"/>
    <rect x="35" y="73" width="5" height="1" fill="#231f20"/>
    <rect x="48" y="73" width="5" height="1" fill="#231f20"/>
    <rect x="60" y="73" width="6" height="1" fill="#231f20"/>
    <rect x="68" y="73" width="5" height="1" fill="#231f20"/>
    <rect x="79" y="73" width="5" height="1" fill="#231f20"/>
    <rect x="90" y="73" width="5" height="1" fill="#231f20"/>
    <rect x="104" y="73" width="5" height="1" fill="#231f20"/>
    <rect x="117" y="73" width="6" height="1" fill="#231f20"/>
    <rect x="149" y="73" width="1" height="1" fill="#231f20"/>
    <rect x="0" y="74" width="1" height="1" fill="#231f20"/>
    <rect x="34" y="74" width="6" height="1" fill="#231f20"/>
    <rect x="49" y="74" width="6" height="1" fill="#231f20"/>
    <rect x="61" y="74" width="11" height="1" fill="#231f20"/>
    <rect x="80" y="74" width="5" height="1" fill="#231f20"/>
    <rect x="89" y="74" width="5" height="1" fill="#231f20"/>
    <rect x="103" y="74" width="5" height="1" fill="#231f20"/>
    <rect x="118" y="74" width="6" height="1" fill="#231f20"/>
    <rect x="149" y="74" width="1" height="1" fill="#231f20"/>
    <rect x="0" y="75" width="1" height="1" fill="#231f20"/>
    <rect x="34" y="75" width="8" height="1" fill="#231f20"/>
    <rect x="50" y="75" width="6" height="1" fill="#231f20"/>
    <rect x="63" y="75" width="8" height="1" fill="#231f20"/>
    <rect x="81" y="75" width="6" height="1" fill="#231f20"/>
    <rect x="88" y="75" width="5" height="1" fill="#231f20"/>
    <rect x="102" y="75" width="5" height="1" fill="#231f20"/>
    <rect x="118" y="75" width="7" height="1" fill="#231f20"/>
    <rect x="149" y="75" width="1" height="1" fill="#231f20"/>
    <rect x="0" y="76" width="1" height="1" fill="#231f20"/>
    <rect x="33" y="76" width="10" height="1" fill="#231f20"/>
    <rect x="51" y="76" width="6" height="1" fill="#231f20"/>
    <rect x="64" y="76" width="6" height="1" fill="#231f20"/>
    <rect x="82" y="76" width="10" height="1" fill="#231f20"/>
    <rect x="102" y="76" width="4" height="1" fill="#231f20"/>
    <rect x="117" y="76" width="9" height="1" fill="#231f20"/>
    <rect x="149" y="76" width="1" height="1" fill="#231f20"/>
    <rect x="0" y="77" width="1" height="1" fill="#231f20"/>
    <rect x="32" y="77" width="5" height="1" fill="#231f20"/>
    <rect x="38" y="77" width="6" height="1" fill="#231f20"/>
    <rect x="53" y="77" width="5" height="1" fill="#231f20"/>
    <rect x="65" y="77" width="5" height="1" fill="#231f20"/>
    <rect x="83" y="77" width="8" height="1" fill="#231f20"/>
    <rect x="101" y="77" width="4" height="1" fill="#231f20"/>
    <rect x="116" y="77" width="5" height="1" fill="#231f20"/>
    <rect x="122" y="77" width="5" height="1" fill="#231f20"/>
    <rect x="149" y="77" width="1" height="1" fill="#231f20"/>
    <rect x="0" y="78" width="1" height="1" fill="#231f20"/>
    <rect x="31" y="78" width="5" height="1" fill="#231f20"/>
    <rect x="39" y="78" width="6" height="1" fill="#231f20"/>
    <rect x="54" y="78" width="5" height="1" fill="#231f20"/>
    <rect x="64" y="78" width="5" height="1" fill="#231f20"/>
    <rect x="85" y="78" width="5" height="1" fill="#231f20"/>
    <rect x="100" y="78" width="5" height="1" fill="#231f20"/>
    <rect x="115" y="78" width="5" height="1" fill="#231f20"/>
    <rect x="123" y="78" width="5" height="1" fill="#231f20"/>
    <rect x="149" y="78" width="1" height="1" fill="#231f20"/>
    <rect x="0" y="79" width="1" height="1" fill="#231f20"/>
    <rect x="30" y="79" width="5" height="1" fill="#231f20"/>
    <rect x="41" y="79" width="5" height="1" fill="#231f20"/>
    <rect x="55" y="79" width="6" height="1" fill="#231f20"/>
    <rect x="63" y="79" width="5" height="1" fill="#231f20"/>
    <rect x="86" y="79" width="5" height="1" fill="#231f20"/>
    <rect x="99" y="79" width="5" height="1" fill="#231f20"/>
    <rect x="114" y="79" width="5" height="1" fill="#231f20"/>
    <rect x="124" y="79" width="6" height="1" fill="#231f20"/>
    <rect x="149" y="79" width="1" height="1" fill="#231f20"/>
    <rect x="0" y="80" width="1" height="1" fill="#231f20"/>
    <rect x="29" y="80" width="5" height="1" fill="#231f20"/>
    <rect x="42" y="80" width="6" height="1" fill="#231f20"/>
    <rect x="56" y="80" width="11" height="1" fill="#231f20"/>
    <rect x="87" y="80" width="6" height="1" fill="#231f20"/>
    <rect x="98" y="80" width="5" height="1" fill="#231f20"/>
    <rect x="113" y="80" width="5" height="1" fill="#231f20"/>
    <rect x="125" y="80" width="6" height="1" fill="#231f20"/>
    <rect x="149" y="80" width="1" height="1" fill="#231f20"/>
    <rect x="0" y="81" width="1" height="1" fill="#231f20"/>
    <rect x="28" y="81" width="6" height="1" fill="#231f20"/>
    <rect x="43" y="81" width="6" height="1" fill="#231f20"/>
    <rect x="57" y="81" width="9" height="1" fill="#231f20"/>
    <rect x="88" y="81" width="6" height="1" fill="#231f20"/>
    <rect x="97" y="81" width="5" height="1" fill="#231f20"/>
    <rect x="112" y="81" width="5" height="1" fill="#231f20"/>
    <rect x="126" y="81" width="6" height="1" fill="#231f20"/>
    <rect x="149" y="81" width="1" height="1" fill="#231f20"/>
    <rect x="0" y="82" width="1" height="1" fill="#231f20"/>
    <rect x="27" y="82" width="8" height="1" fill="#231f20"/>
    <rect x="44" y="82" width="6" height="1" fill="#231f20"/>
    <rect x="59" y="82" width="6" height="1" fill="#231f20"/>
    <rect x="89" y="82" width="6" height="1" fill="#231f20"/>
    <rect x="96" y="82" width="5" height="1" fill="#231f20"/>
    <rect x="110" y="82" width="6" height="1" fill="#231f20"/>
    <rect x="126" y="82" width="7" height="1" fill="#231f20"/>
    <rect x="149" y="82" width="1" height="1" fill="#231f20"/>
    <rect x="0" y="83" width="1" height="1" fill="#231f20"/>
    <rect x="26" y="83" width="11" height="1" fill="#231f20"/>
    <rect x="45" y="83" width="6" height="1" fill="#231f20"/>
    <rect x="59" y="83" width="5" height="1" fill="#231f20"/>
    <rect x="91" y="83" width="9" height="1" fill="#231f20"/>
    <rect x="109" y="83" width="6" height="1" fill="#231f20"/>
    <rect x="125" y="83" width="9" height="1" fill="#231f20"/>
    <rect x="149" y="83" width="1" height="1" fill="#231f20"/>
    <rect x="0" y="84" width="1" height="1" fill="#231f20"/>
    <rect x="25" y="84" width="5" height="1" fill="#231f20"/>
    <rect x="32" y="84" width="6" height="1" fill="#231f20"/>
    <rect x="47" y="84" width="5" height="1" fill="#231f20"/>
    <rect x="59" y="84" width="5" height="1" fill="#231f20"/>
    <rect x="92" y="84" width="7" height="1" fill="#231f20"/>
    <rect x="108" y="84" width="5" height="1" fill="#231f20"/>
    <rect x="124" y="84" width="5" height="1" fill="#231f20"/>
    <rect x="130" y="84" width="6" height="1" fill="#231f20"/>
    <rect x="149" y="84" width="1" height="1" fill="#231f20"/>
    <rect x="0" y="85" width="1" height="1" fill="#231f20"/>
    <rect x="25" y="85" width="4" height="1" fill="#231f20"/>
    <rect x="33" y="85" width="6" height="1" fill="#231f20"/>
    <rect x="48" y="85" width="6" height="1" fill="#231f20"/>
    <rect x="58" y="85" width="4" height="1" fill="#231f20"/>
    <rect x="93" y="85" width="6" height="1" fill="#231f20"/>
    <rect x="107" y="85" width="5" height="1" fill="#231f20"/>
    <rect x="123" y="85" width="5" height="1" fill="#231f20"/>
    <rect x="131" y="85" width="6" height="1" fill="#231f20"/>
    <rect x="149" y="85" width="1" height="1" fill="#231f20"/>
    <rect x="0" y="86" width="1" height="1" fill="#231f20"/>
    <rect x="24" y="86" width="4" height="1" fill="#231f20"/>
    <rect x="35" y="86" width="5" height="1" fill="#231f20"/>
    <rect x="49" y="86" width="6" height="1" fill="#231f20"/>
    <rect x="57" y="86" width="5" height="1" fill="#231f20"/>
    <rect x="94" y="86" width="6" height="1" fill="#231f20"/>
    <rect x="106" y="86" width="5" height="1" fill="#231f20"/>
    <rect x="122" y="86" width="5" height="1" fill="#231f20"/>
    <rect x="132" y="86" width="6" height="1" fill="#231f20"/>
    <rect x="149" y="86" width="1" height="1" fill="#231f20"/>
    <rect x="0" y="87" width="1" height="1" fill="#231f20"/>
    <rect x="23" y="87" width="5" height="1" fill="#231f20"/>
    <rect x="36" y="87" width="5" height="1" fill="#231f20"/>
    <rect x="50" y="87" width="11" height="1" fill="#231f20"/>
    <rect x="95" y="87" width="6" height="1" fill="#231f20"/>
    <rect x="105" y="87" width="5" height="1" fill="#231f20"/>
    <rect x="121" y="87" width="5" height="1" fill="#231f20"/>
    <rect x="134" y="87" width="4" height="1" fill="#231f20"/>
    <rect x="149" y="87" width="1" height="1" fill="#231f20"/>
    <rect x="0" y="88" width="1" height="1" fill="#231f20"/>
    <rect x="22" y="88" width="7" height="1" fill="#231f20"/>
    <rect x="37" y="88" width="6" height="1" fill="#231f20"/>
    <rect x="51" y="88" width="9" height="1" fill="#231f20"/>
    <rect x="96" y="88" width="6" height="1" fill="#231f20"/>
    <rect x="104" y="88" width="5" height="1" fill="#231f20"/>
    <rect x="120" y="88" width="5" height="1" fill="#231f20"/>
    <rect x="135" y="88" width="3" height="1" fill="#231f20"/>
    <rect x="149" y="88" width="1" height="1" fill="#231f20"/>
    <rect x="0" y="89" width="1" height="1" fill="#231f20"/>
    <rect x="21" y="89" width="10" height="1" fill="#231f20"/>
    <rect x="38" y="89" width="6" height="1" fill="#231f20"/>
    <rect x="53" y="89" width="6" height="1" fill="#231f20"/>
    <rect x="98" y="89" width="10" height="1" fill="#231f20"/>
    <rect x="118" y="89" width="6" height="1" fill="#231f20"/>
    <rect x="149" y="89" width="1" height="1" fill="#231f20"/>
    <rect x="0" y="90" width="1" height="1" fill="#231f20"/>
    <rect x="21" y="90" width="4" height="1" fill="#231f20"/>
    <rect x="26" y="90" width="6" height="1" fill="#231f20"/>
    <rect x="39" y="90" width="6" height="1" fill="#231f20"/>
    <rect x="53" y="90" width="5" height="1" fill="#231f20"/>
    <rect x="99" y="90" width="8" height="1" fill="#231f20"/>
    <rect x="117" y="90" width="6" height="1" fill="#231f20"/>
    <rect x="149" y="90" width="1" height="1" fill="#231f20"/>
    <rect x="0" y="91" width="1" height="1" fill="#231f20"/>
    <rect x="21" y="91" width="3" height="1" fill="#231f20"/>
    <rect x="27" y="91" width="6" height="1" fill="#231f20"/>
    <rect x="41" y="91" width="5" height="1" fill="#231f20"/>
    <rect x="52" y="91" width="5" height="1" fill="#231f20"/>
    <rect x="100" y="91" width="6" height="1" fill="#231f20"/>
    <rect x="116" y="91" width="5" height="1" fill="#231f20"/>
    <rect x="149" y="91" width="1" height="1" fill="#231f20"/>
    <rect x="0" y="92" width="1" height="1" fill="#231f20"/>
    <rect x="29" y="92" width="5" height="1" fill="#231f20"/>
    <rect x="42" y="92" width="5" height="1" fill="#231f20"/>
    <rect x="51" y="92" width="5" height="1" fill="#231f20"/>
    <rect x="101" y="92" width="6" height="1" fill="#231f20"/>
    <rect x="115" y="92" width="5" height="1" fill="#231f20"/>
    <rect x="149" y="92" width="1" height="1" fill="#231f20"/>
    <rect x="0" y="93" width="1" height="1" fill="#231f20"/>
    <rect x="30" y="93" width="5" height="1" fill="#231f20"/>
    <rect x="43" y="93" width="6" height="1" fill="#231f20"/>
    <rect x="51" y="93" width="4" height="1" fill="#231f20"/>
    <rect x="102" y="93" width="6" height="1" fill="#231f20"/>
    <rect x="114" y="93" width="5" height="1" fill="#231f20"/>
    <rect x="149" y="93" width="1" height="1" fill="#231f20"/>
    <rect x="0" y="94" width="1" height="1" fill="#231f20"/>
    <rect x="31" y="94" width="6" height="1" fill="#231f20"/>
    <rect x="44" y="94" width="10" height="1" fill="#231f20"/>
    <rect x="104" y="94" width="5" height="1" fill="#231f20"/>
    <rect x="113" y="94" width="5" height="1" fill="#231f20"/>
    <rect x="149" y="94" width="1" height="1" fill="#231f20"/>
    <rect x="0" y="95" width="1" height="1" fill="#231f20"/>
    <rect x="32" y="95" width="6" height="1" fill="#231f20"/>
    <rect x="45" y="95" width="9" height="1" fill="#231f20"/>
    <rect x="105" y="95" width="5" height="1" fill="#231f20"/>
    <rect x="112" y="95" width="5" height="1" fill="#231f20"/>
    <rect x="149" y="95" width="1" height="1" fill="#231f20"/>
    <rect x="0" y="96" width="1" height="1" fill="#231f20"/>
    <rect x="33" y="96" width="6" height="1" fill="#231f20"/>
    <rect x="47" y="96" width="6" height="1" fill="#231f20"/>
    <rect x="106" y="96" width="10" height="1" fill="#231f20"/>
    <rect x="149" y="96" width="1" height="1" fill="#231f20"/>
    <rect x="0" y="97" width="1" height="1" fill="#231f20"/>
    <rect x="35" y="97" width="5" height="1" fill="#231f20"/>
    <rect x="47" y="97" width="5" height="1" fill="#231f20"/>
    <rect x="107" y="97" width="8" height="1" fill="#231f20"/>
    <rect x="149" y="97" width="1" height="1" fill="#231f20"/>
    <rect x="0" y="98" width="1" height="1" fill="#231f20"/>
    <rect x="36" y="98" width="5" height="1" fill="#231f20"/>
    <rect x="46" y="98" width="6" height="1" fill="#231f20"/>
    <rect x="108" y="98" width="6" height="1" fill="#231f20"/>
    <rect x="149" y="98" width="1" height="1" fill="#231f20"/>
    <rect x="0" y="99" width="1" height="1" fill="#231f20"/>
    <rect x="37" y="99" width="6" height="1" fill="#231f20"/>
    <rect x="45" y="99" width="5" height="1" fill="#231f20"/>
    <rect x="110" y="99" width="5" height="1" fill="#231f20"/>
    <rect x="149" y="99" width="1" height="1" fill="#231f20"/>
    <rect x="0" y="100" width="1" height="1" fill="#231f20"/>
    <rect x="38" y="100" width="11" height="1" fill="#231f20"/>
    <rect x="111" y="100" width="5" height="1" fill="#231f20"/>
    <rect x="149" y="100" width="1" height="1" fill="#231f20"/>
    <rect x="0" y="101" width="1" height="1" fill="#231f20"/>
    <rect x="39" y="101" width="9" height="1" fill="#231f20"/>
    <rect x="112" y="101" width="6" height="1" fill="#231f20"/>
    <rect x="149" y="101" width="1" height="1" fill="#231f20"/>
    <rect x="0" y="102" width="1" height="1" fill="#231f20"/>
    <rect x="41" y="102" width="6" height="1" fill="#231f20"/>
    <rect x="113" y="102" width="6" height="1" fill="#231f20"/>
    <rect x="149" y="102" width="1" height="1" fill="#231f20"/>
    <rect x="0" y="103" width="1" height="1" fill="#231f20"/>
    <rect x="42" y="103" width="4" height="1" fill="#231f20"/>
    <rect x="114" y="103" width="6" height="1" fill="#231f20"/>
    <rect x="149" y="103" width="1" height="1" fill="#231f20"/>
    <rect x="0" y="104" width="1" height="1" fill="#231f20"/>
    <rect x="41" y="104" width="5" height="1" fill="#231f20"/>
    <rect x="116" y="104" width="5" height="1" fill="#231f20"/>
    <rect x="149" y="104" width="1" height="1" fill="#231f20"/>
    <rect x="0" y="105" width="1" height="1" fill="#231f20"/>
    <rect x="40" y="105" width="5" height="1" fill="#231f20"/>
    <rect x="117" y="105" width="4" height="1" fill="#231f20"/>
    <rect x="149" y="105" width="1" height="1" fill="#231f20"/>
    <rect x="0" y="106" width="1" height="1" fill="#231f20"/>
    <rect x="39" y="106" width="5" height="1" fill="#231f20"/>
    <rect x="118" y="106" width="3" height="1" fill="#231f20"/>
    <rect x="149" y="106" width="1" height="1" fill="#231f20"/>
    <rect x="0" y="107" width="1" height="1" fill="#231f20"/>
    <rect x="38" y="107" width="5" height="1" fill="#231f20"/>
    <rect x="149" y="107" width="1" height="1" fill="#231f20"/>
    <rect x="0" y="108" width="1" height="1" fill="#231f20"/>
    <rect x="38" y="108" width="4" height="1" fill="#231f20"/>
    <rect x="149" y="108" width="1" height="1" fill="#231f20"/>
    <rect x="0" y="109" width="1" height="1" fill="#231f20"/>
    <rect x="38" y="109" width="3" height="1" fill="#231f20"/>
    <rect x="149" y="109" width="1" height="1" fill="#231f20"/>
    <rect x="0" y="110" width="1" height="1" fill="#231f20"/>
    <rect x="149" y="110" width="1" height="1" fill="#231f20"/>
    <rect x="0" y="111" width="1" height="1" fill="#231f20"/>
    <rect x="149" y="111" width="1" height="1" fill="#231f20"/>
    <rect x="0" y="112" width="1" height="1" fill="#231f20"/>
    <rect x="149" y="112" width="1" height="1" fill="#231f20"/>
    <rect x="0" y="113" width="1" height="1" fill="#231f20"/>
    <rect x="149" y="113" width="1" height="1" fill="#231f20"/>
    <rect x="0" y="114" width="1" height="1" fill="#231f20"/>
    <rect x="149" y="114" width="1" height="1" fill="#231f20"/>
    <rect x="0" y="115" width="1" height="1" fill="#231f20"/>
    <rect x="149" y="115" width="1" height="1" fill="#231f20"/>
    <rect x="0" y="116" width="1" height="1" fill="#231f20"/>
    <rect x="149" y="116" width="1" height="1" fill="#231f20"/>
    <rect x="0" y="117" width="1" height="1" fill="#231f20"/>
    <rect x="149" y="117" width="1" height="1" fill="#231f20"/>
    <rect x="0" y="118" width="1" height="1" fill="#231f20"/>
    <rect x="149" y="118" width="1" height="1" fill="#231f20"/>
    <rect x="0" y="119" width="1" height="1" fill="#231f20"/>
    <rect x="149" y="119" width="1" height="1" fill="#231f20"/>
    <rect x="0" y="120" width="1" height="1" fill="#231f20"/>
    <rect x="149" y="120" width="1" height="1" fill="#231f20"/>
    <rect x="0" y="121" width="1" height="1" fill="#231f20"/>
    <rect x="149" y="121" width="1" height="1" fill="#231f20"/>
    <rect x="0" y="122" width="1" height="1" fill="#231f20"/>
    <rect x="149" y="122" width="1" height="1" fill="#231f20"/>
    <rect x="0" y="123" width="1" height="1" fill="#231f20"/>
    <rect x="149" y="123" width="1" height="1" fill="#231f20"/>
    <rect x="0" y="124" width="1" height="1" fill="#231f20"/>
    <rect x="149" y="124" width="1" height="1" fill="#231f20"/>
    <rect x="0" y="125" width="1" height="1" fill="#231f20"/>
    <rect x="149" y="125" width="1" height="1" fill="#231f20"/>
    <rect x="0" y="126" width="1" height="1" fill="#231f20"/>
    <rect x="149" y="126" width="1" height="1" fill="#231f20"/>
    <rect x="0" y="127" width="1" height="1" fill="#231f20"/>
    <rect x="149" y="127" width="1" height="1" fill="#231f20"/>
    <rect x="0" y="128" width="1" height="1" fill="#231f20"/>
    <rect x="149" y="128" width="1" height="1" fill="#231f20"/>
    <rect x="0" y="129" width="1" height="1" fill="#231f20"/>
    <rect x="149" y="129" width="1" height="1" fill="#231f20"/>
    <rect x="0" y="130" width="1" height="1" fill="#231f20"/>
    <rect x="149" y="130" width="1" height="1" fill="#231f20"/>
    <rect x="0" y="131" width="1" height="1" fill="#231f20"/>
    <rect x="149" y="131" width="1" height="1" fill="#231f20"/>
    <rect x="0" y="132" width="1" height="1" fill="#231f20"/>
    <rect x="149" y="132" width="1" height="1" fill="#231f20"/>
    <rect x="0" y="133" width="1" height="1" fill="#231f20"/>
    <rect x="149" y="133" width="1" height="1" fill="#231f20"/>
    <rect x="0" y="134" width="1" height="1" fill="#231f20"/>
    <rect x="149" y="134" width="1" height="1" fill="#231f20"/>
    <rect x="0" y="135" width="1" height="1" fill="#231f20"/>
    <rect x="149" y="135" width="1" height="1" fill="#231f20"/>
    <rect x="0" y="136" width="1" height="1" fill="#231f20"/>
    <rect x="149" y="136" width="1" height="1" fill="#231f20"/>
    <rect x="0" y="137" width="1" height="1" fill="#231f20"/>
    <rect x="149" y="137" width="1" height="1" fill="#231f20"/>
    <rect x="0" y="138" width="1" height="1" fill="#231f20"/>
    <rect x="149" y="138" width="1" height="1" fill="#231f20"/>
    <rect x="0" y="139" width="1" height="1" fill="#231f20"/>
    <rect x="149" y="139" width="1" height="1" fill="#231f20"/>
    <rect x="0" y="140" width="1" height="1" fill="#231f20"/>
    <rect x="149" y="140" width="1" height="1" fill="#231f20"/>
    <rect x="0" y="141" width="1" height="1" fill="#231f20"/>
    <rect x="149" y="141" width="1" height="1" fill="#231f20"/>
    <rect x="0" y="142" width="1" height="1" fill="#231f20"/>
    <rect x="149" y="142" width="1" height="1" fill="#231f20"/>
    <rect x="0" y="143" width="1" height="1" fill="#231f20"/>
    <rect x="149" y="143" width="1" height="1" fill="#231f20"/>
    <rect x="0" y="144" width="1" height="1" fill="#231f20"/>
    <rect x="149" y="144" width="1" height="1" fill="#231f20"/>
    <rect x="0" y="145" width="1" height="1" fill="#231f20"/>
    <rect x="149" y="145" width="1" height="1" fill="#231f20"/>
    <rect x="0" y="146" width="1" height="1" fill="#231f20"/>
    <rect x="149" y="146" width="1" height="1" fill="#231f20"/>
    <rect x="0" y="147" width="1" height="1" fill="#231f20"/>
    <rect x="149" y="147" width="1" height="1" fill="#231f20"/>
    <rect x="0" y="148" width="1" height="1" fill="#231f20"/>
    <rect x="149" y="148" width="1" height="1" fill="#231f20"/>
    <rect x="0" y="149" width="1" height="1" fill="#231f20"/>
    <rect x="149" y="149" width="1" height="1" fill="#231f20"/>
    <rect x="0" y="150" width="150" height="1" fill="#231f20"/>
  </g>
</svg>