<?xml version="1.0" encoding="UTF-8"?>
<svg xmlns="http://www.w3.org/2000/svg" viewBox="0 0 402 212" width="402" height="212">
  <!-- Auto-converted from legend-204.png -->
  <rect x="0" y="0" width="402" height="212" fill="none"/>
  <g fill="#a6a79c" stroke="none">
    <rect x="1" y="0" width="401" height="1" fill="#a6a79c"/>
    <rect x="0" y="1" width="402" height="1" fill="#a6a79c"/>
    <rect x="0" y="2" width="402" height="1" fill="#a6a79c"/>
    <rect x="0" y="3" width="402" height="1" fill="#a6a79c"/>
    <rect x="0" y="4" width="402" height="1" fill="#a6a79c"/>
    <rect x="0" y="5" width="402" height="1" fill="#a6a79c"/>
    <rect x="0" y="6" width="402" height="1" fill="#a6a79c"/>
    <rect x="0" y="7" width="5" height="1" fill="#a6a79c"/>
    <rect x="200" y="7" width="202" height="1" fill="#a6a79c"/>
    <rect x="0" y="8" width="5" height="1" fill="#a6a79c"/>
    <rect x="200" y="8" width="202" height="1" fill="#a6a79c"/>
    <rect x="0" y="9" width="5" height="1" fill="#a6a79c"/>
    <rect x="200" y="9" width="202" height="1" fill="#a6a79c"/>
    <rect x="0" y="10" width="5" height="1" fill="#a6a79c"/>
    <rect x="200" y="10" width="202" height="1" fill="#a6a79c"/>
    <rect x="0" y="11" width="5" height="1" fill="#a6a79c"/>
    <rect x="200" y="11" width="202" height="1" fill="#a6a79c"/>
    <rect x="0" y="12" width="5" height="1" fill="#a6a79c"/>
    <rect x="200" y="12" width="202" height="1" fill="#a6a79c"/>
    <rect x="0" y="13" width="5" height="1" fill="#a6a79c"/>
    <rect x="200" y="13" width="202" height="1" fill="#a6a79c"/>
    <rect x="0" y="14" width="5" height="1" fill="#a6a79c"/>
    <rect x="200" y="14" width="202" height="1" fill="#a6a79c"/>
    <rect x="0" y="15" width="5" height="1" fill="#a6a79c"/>
    <rect x="200" y="15" width="202" height="1" fill="#a6a79c"/>
    <rect x="0" y="16" width="5" height="1" fill="#a6a79c"/>
    <rect x="200" y="16" width="202" height="1" fill="#a6a79c"/>
    <rect x="0" y="17" width="5" height="1" fill="#a6a79c"/>
    <rect x="200" y="17" width="202" height="1" fill="#a6a79c"/>
    <rect x="0" y="18" width="5" height="1" fill="#a6a79c"/>
    <rect x="200" y="18" width="202" height="1" fill="#a6a79c"/>
    <rect x="0" y="19" width="5" height="1" fill="#a6a79c"/>
    <rect x="200" y="19" width="202" height="1" fill="#a6a79c"/>
    <rect x="0" y="20" width="5" height="1" fill="#a6a79c"/>
    <rect x="200" y="20" width="202" height="1" fill="#a6a79c"/>
    <rect x="0" y="21" width="5" height="1" fill="#a6a79c"/>
    <rect x="200" y="21" width="202" height="1" fill="#a6a79c"/>
    <rect x="0" y="22" width="5" height="1" fill="#a6a79c"/>
    <rect x="200" y="22" width="202" height="1" fill="#a6a79c"/>
    <rect x="0" y="23" width="5" height="1" fill="#a6a79c"/>
    <rect x="200" y="23" width="202" height="1" fill="#a6a79c"/>
    <rect x="0" y="24" width="5" height="1" fill="#a6a79c"/>
    <rect x="200" y="24" width="202" height="1" fill="#a6a79c"/>
    <rect x="0" y="25" width="5" height="1" fill="#a6a79c"/>
    <rect x="200" y="25" width="202" height="1" fill="#a6a79c"/>
    <rect x="0" y="26" width="5" height="1" fill="#a6a79c"/>
    <rect x="200" y="26" width="202" height="1" fill="#a6a79c"/>
    <rect x="0" y="27" width="5" height="1" fill="#a6a79c"/>
    <rect x="200" y="27" width="202" height="1" fill="#a6a79c"/>
    <rect x="0" y="28" width="5" height="1" fill="#a6a79c"/>
    <rect x="200" y="28" width="202" height="1" fill="#a6a79c"/>
    <rect x="0" y="29" width="5" height="1" fill="#a6a79c"/>
    <rect x="200" y="29" width="202" height="1" fill="#a6a79c"/>
    <rect x="0" y="30" width="5" height="1" fill="#a6a79c"/>
    <rect x="200" y="30" width="202" height="1" fill="#a6a79c"/>
    <rect x="0" y="31" width="5" height="1" fill="#a6a79c"/>
    <rect x="200" y="31" width="202" height="1" fill="#a6a79c"/>
    <rect x="0" y="32" width="5" height="1" fill="#a6a79c"/>
    <rect x="200" y="32" width="202" height="1" fill="#a6a79c"/>
    <rect x="0" y="33" width="5" height="1" fill="#a6a79c"/>
    <rect x="200" y="33" width="202" height="1" fill="#a6a79c"/>
    <rect x="0" y="34" width="5" height="1" fill="#a6a79c"/>
    <rect x="200" y="34" width="202" height="1" fill="#a6a79c"/>
    <rect x="0" y="35" width="5" height="1" fill="#a6a79c"/>
    <rect x="200" y="35" width="202" height="1" fill="#a6a79c"/>
    <rect x="0" y="36" width="5" height="1" fill="#a6a79c"/>
    <rect x="200" y="36" width="202" height="1" fill="#a6a79c"/>
    <rect x="0" y="37" width="5" height="1" fill="#a6a79c"/>
    <rect x="200" y="37" width="202" height="1" fill="#a6a79c"/>
    <rect x="0" y="38" width="5" height="1" fill="#a6a79c"/>
    <rect x="200" y="38" width="202" height="1" fill="#a6a79c"/>
    <rect x="0" y="39" width="5" height="1" fill="#a6a79c"/>
    <rect x="200" y="39" width="202" height="1" fill="#a6a79c"/>
    <rect x="0" y="40" width="5" height="1" fill="#a6a79c"/>
    <rect x="200" y="40" width="202" height="1" fill="#a6a79c"/>
    <rect x="0" y="41" width="5" height="1" fill="#a6a79c"/>
    <rect x="200" y="41" width="202" height="1" fill="#a6a79c"/>
    <rect x="0" y="42" width="5" height="1" fill="#a6a79c"/>
    <rect x="200" y="42" width="202" height="1" fill="#a6a79c"/>
    <rect x="0" y="43" width="5" height="1" fill="#a6a79c"/>
    <rect x="200" y="43" width="202" height="1" fill="#a6a79c"/>
    <rect x="0" y="44" width="5" height="1" fill="#a6a79c"/>
    <rect x="200" y="44" width="202" height="1" fill="#a6a79c"/>
    <rect x="0" y="45" width="5" height="1" fill="#a6a79c"/>
    <rect x="200" y="45" width="202" height="1" fill="#a6a79c"/>
    <rect x="0" y="46" width="5" height="1" fill="#a6a79c"/>
    <rect x="200" y="46" width="202" height="1" fill="#a6a79c"/>
    <rect x="0" y="47" width="5" height="1" fill="#a6a79c"/>
    <rect x="200" y="47" width="202" height="1" fill="#a6a79c"/>
    <rect x="0" y="48" width="5" height="1" fill="#a6a79c"/>
    <rect x="200" y="48" width="202" height="1" fill="#a6a79c"/>
    <rect x="0" y="49" width="5" height="1" fill="#a6a79c"/>
    <rect x="200" y="49" width="202" height="1" fill="#a6a79c"/>
    <rect x="0" y="50" width="5" height="1" fill="#a6a79c"/>
    <rect x="200" y="50" width="202" height="1" fill="#a6a79c"/>
    <rect x="0" y="51" width="5" height="1" fill="#a6a79c"/>
    <rect x="200" y="51" width="202" height="1" fill="#a6a79c"/>
    <rect x="0" y="52" width="5" height="1" fill="#a6a79c"/>
    <rect x="200" y="52" width="202" height="1" fill="#a6a79c"/>
    <rect x="0" y="53" width="5" height="1" fill="#a6a79c"/>
    <rect x="200" y="53" width="202" height="1" fill="#a6a79c"/>
    <rect x="0" y="54" width="5" height="1" fill="#a6a79c"/>
    <rect x="200" y="54" width="202" height="1" fill="#a6a79c"/>
    <rect x="0" y="55" width="5" height="1" fill="#a6a79c"/>
    <rect x="200" y="55" width="202" height="1" fill="#a6a79c"/>
    <rect x="0" y="56" width="5" height="1" fill="#a6a79c"/>
    <rect x="200" y="56" width="202" height="1" fill="#a6a79c"/>
    <rect x="0" y="57" width="5" height="1" fill="#a6a79c"/>
    <rect x="200" y="57" width="202" height="1" fill="#a6a79c"/>
    <rect x="0" y="58" width="5" height="1" fill="#a6a79c"/>
    <rect x="200" y="58" width="202" height="1" fill="#a6a79c"/>
    <rect x="0" y="59" width="5" height="1" fill="#a6a79c"/>
    <rect x="200" y="59" width="202" height="1" fill="#a6a79c"/>
    <rect x="0" y="60" width="5" height="1" fill="#a6a79c"/>
    <rect x="200" y="60" width="202" height="1" fill="#a6a79c"/>
    <rect x="0" y="61" width="5" height="1" fill="#a6a79c"/>
    <rect x="200" y="61" width="202" height="1" fill="#a6a79c"/>
    <rect x="0" y="62" width="5" height="1" fill="#a6a79c"/>
    <rect x="200" y="62" width="202" height="1" fill="#a6a79c"/>
    <rect x="0" y="63" width="5" height="1" fill="#a6a79c"/>
    <rect x="200" y="63" width="202" height="1" fill="#a6a79c"/>
    <rect x="0" y="64" width="5" height="1" fill="#a6a79c"/>
    <rect x="200" y="64" width="202" height="1" fill="#a6a79c"/>
    <rect x="0" y="65" width="5" height="1" fill="#a6a79c"/>
    <rect x="200" y="65" width="202" height="1" fill="#a6a79c"/>
    <rect x="0" y="66" width="5" height="1" fill="#a6a79c"/>
    <rect x="200" y="66" width="202" height="1" fill="#a6a79c"/>
    <rect x="0" y="67" width="5" height="1" fill="#a6a79c"/>
    <rect x="200" y="67" width="202" height="1" fill="#a6a79c"/>
    <rect x="0" y="68" width="5" height="1" fill="#a6a79c"/>
    <rect x="200" y="68" width="202" height="1" fill="#a6a79c"/>
    <rect x="0" y="69" width="5" height="1" fill="#a6a79c"/>
    <rect x="200" y="69" width="202" height="1" fill="#a6a79c"/>
    <rect x="0" y="70" width="5" height="1" fill="#a6a79c"/>
    <rect x="200" y="70" width="202" height="1" fill="#a6a79c"/>
    <rect x="0" y="71" width="5" height="1" fill="#a6a79c"/>
    <rect x="200" y="71" width="202" height="1" fill="#a6a79c"/>
    <rect x="0" y="72" width="5" height="1" fill="#a6a79c"/>
    <rect x="200" y="72" width="202" height="1" fill="#a6a79c"/>
    <rect x="0" y="73" width="5" height="1" fill="#a6a79c"/>
    <rect x="200" y="73" width="202" height="1" fill="#a6a79c"/>
    <rect x="0" y="74" width="5" height="1" fill="#a6a79c"/>
    <rect x="200" y="74" width="202" height="1" fill="#a6a79c"/>
    <rect x="0" y="75" width="5" height="1" fill="#a6a79c"/>
    <rect x="200" y="75" width="202" height="1" fill="#a6a79c"/>
    <rect x="0" y="76" width="5" height="1" fill="#a6a79c"/>
    <rect x="200" y="76" width="202" height="1" fill="#a6a79c"/>
    <rect x="0" y="77" width="5" height="1" fill="#a6a79c"/>
    <rect x="200" y="77" width="202" height="1" fill="#a6a79c"/>
    <rect x="0" y="78" width="5" height="1" fill="#a6a79c"/>
    <rect x="200" y="78" width="202" height="1" fill="#a6a79c"/>
    <rect x="0" y="79" width="5" height="1" fill="#a6a79c"/>
    <rect x="200" y="79" width="202" height="1" fill="#a6a79c"/>
    <rect x="0" y="80" width="5" height="1" fill="#a6a79c"/>
    <rect x="200" y="80" width="202" height="1" fill="#a6a79c"/>
    <rect x="0" y="81" width="5" height="1" fill="#a6a79c"/>
    <rect x="200" y="81" width="202" height="1" fill="#a6a79c"/>
    <rect x="0" y="82" width="5" height="1" fill="#a6a79c"/>
    <rect x="200" y="82" width="202" height="1" fill="#a6a79c"/>
    <rect x="0" y="83" width="5" height="1" fill="#a6a79c"/>
    <rect x="200" y="83" width="202" height="1" fill="#a6a79c"/>
    <rect x="0" y="84" width="5" height="1" fill="#a6a79c"/>
    <rect x="200" y="84" width="202" height="1" fill="#a6a79c"/>
    <rect x="0" y="85" width="5" height="1" fill="#a6a79c"/>
    <rect x="200" y="85" width="202" height="1" fill="#a6a79c"/>
    <rect x="0" y="86" width="5" height="1" fill="#a6a79c"/>
    <rect x="200" y="86" width="202" height="1" fill="#a6a79c"/>
    <rect x="0" y="87" width="5" height="1" fill="#a6a79c"/>
    <rect x="200" y="87" width="202" height="1" fill="#a6a79c"/>
    <rect x="0" y="88" width="5" height="1" fill="#a6a79c"/>
    <rect x="200" y="88" width="202" height="1" fill="#a6a79c"/>
    <rect x="0" y="89" width="5" height="1" fill="#a6a79c"/>
    <rect x="200" y="89" width="202" height="1" fill="#a6a79c"/>
    <rect x="0" y="90" width="5" height="1" fill="#a6a79c"/>
    <rect x="200" y="90" width="202" height="1" fill="#a6a79c"/>
    <rect x="0" y="91" width="5" height="1" fill="#a6a79c"/>
    <rect x="200" y="91" width="202" height="1" fill="#a6a79c"/>
    <rect x="0" y="92" width="5" height="1" fill="#a6a79c"/>
    <rect x="200" y="92" width="202" height="1" fill="#a6a79c"/>
    <rect x="0" y="93" width="5" height="1" fill="#a6a79c"/>
    <rect x="200" y="93" width="202" height="1" fill="#a6a79c"/>
    <rect x="0" y="94" width="5" height="1" fill="#a6a79c"/>
    <rect x="200" y="94" width="202" height="1" fill="#a6a79c"/>
    <rect x="0" y="95" width="5" height="1" fill="#a6a79c"/>
    <rect x="200" y="95" width="202" height="1" fill="#a6a79c"/>
    <rect x="0" y="96" width="5" height="1" fill="#a6a79c"/>
    <rect x="200" y="96" width="202" height="1" fill="#a6a79c"/>
    <rect x="0" y="97" width="5" height="1" fill="#a6a79c"/>
    <rect x="200" y="97" width="202" height="1" fill="#a6a79c"/>
    <rect x="0" y="98" width="5" height="1" fill="#a6a79c"/>
    <rect x="200" y="98" width="202" height="1" fill="#a6a79c"/>
    <rect x="0" y="99" width="5" height="1" fill="#a6a79c"/>
    <rect x="200" y="99" width="202" height="1" fill="#a6a79c"/>
    <rect x="0" y="100" width="5" height="1" fill="#a6a79c"/>
    <rect x="200" y="100" width="202" height="1" fill="#a6a79c"/>
    <rect x="0" y="101" width="5" height="1" fill="#a6a79c"/>
    <rect x="200" y="101" width="202" height="1" fill="#a6a79c"/>
    <rect x="0" y="102" width="5" height="1" fill="#a6a79c"/>
    <rect x="200" y="102" width="202" height="1" fill="#a6a79c"/>
    <rect x="0" y="103" width="5" height="1" fill="#a6a79c"/>
    <rect x="200" y="103" width="202" height="1" fill="#a6a79c"/>
    <rect x="0" y="104" width="5" height="1" fill="#a6a79c"/>
    <rect x="200" y="104" width="202" height="1" fill="#a6a79c"/>
    <rect x="0" y="105" width="5" height="1" fill="#a6a79c"/>
    <rect x="200" y="105" width="202" height="1" fill="#a6a79c"/>
    <rect x="0" y="106" width="5" height="1" fill="#a6a79c"/>
    <rect x="200" y="106" width="202" height="1" fill="#a6a79c"/>
    <rect x="0" y="107" width="5" height="1" fill="#a6a79c"/>
    <rect x="200" y="107" width="202" height="1" fill="#a6a79c"/>
    <rect x="0" y="108" width="5" height="1" fill="#a6a79c"/>
    <rect x="200" y="108" width="202" height="1" fill="#a6a79c"/>
    <rect x="0" y="109" width="5" height="1" fill="#a6a79c"/>
    <rect x="200" y="109" width="202" height="1" fill="#a6a79c"/>
    <rect x="0" y="110" width="5" height="1" fill="#a6a79c"/>
    <rect x="200" y="110" width="202" height="1" fill="#a6a79c"/>
    <rect x="0" y="111" width="5" height="1" fill="#a6a79c"/>
    <rect x="200" y="111" width="202" height="1" fill="#a6a79c"/>
    <rect x="0" y="112" width="5" height="1" fill="#a6a79c"/>
    <rect x="200" y="112" width="202" height="1" fill="#a6a79c"/>
    <rect x="0" y="113" width="5" height="1" fill="#a6a79c"/>
    <rect x="200" y="113" width="202" height="1" fill="#a6a79c"/>
    <rect x="0" y="114" width="5" height="1" fill="#a6a79c"/>
    <rect x="200" y="114" width="202" height="1" fill="#a6a79c"/>
    <rect x="0" y="115" width="5" height="1" fill="#a6a79c"/>
    <rect x="200" y="115" width="202" height="1" fill="#a6a79c"/>
    <rect x="0" y="116" width="5" height="1" fill="#a6a79c"/>
    <rect x="200" y="116" width="202" height="1" fill="#a6a79c"/>
    <rect x="0" y="117" width="5" height="1" fill="#a6a79c"/>
    <rect x="200" y="117" width="202" height="1" fill="#a6a79c"/>
    <rect x="0" y="118" width="5" height="1" fill="#a6a79c"/>
    <rect x="200" y="118" width="202" height="1" fill="#a6a79c"/>
    <rect x="0" y="119" width="5" height="1" fill="#a6a79c"/>
    <rect x="200" y="119" width="202" height="1" fill="#a6a79c"/>
    <rect x="0" y="120" width="5" height="1" fill="#a6a79c"/>
    <rect x="200" y="120" width="202" height="1" fill="#a6a79c"/>
    <rect x="0" y="121" width="5" height="1" fill="#a6a79c"/>
    <rect x="200" y="121" width="202" height="1" fill="#a6a79c"/>
    <rect x="0" y="122" width="5" height="1" fill="#a6a79c"/>
    <rect x="200" y="122" width="202" height="1" fill="#a6a79c"/>
    <rect x="0" y="123" width="5" height="1" fill="#a6a79c"/>
    <rect x="200" y="123" width="202" height="1" fill="#a6a79c"/>
    <rect x="0" y="124" width="5" height="1" fill="#a6a79c"/>
    <rect x="200" y="124" width="202" height="1" fill="#a6a79c"/>
    <rect x="0" y="125" width="5" height="1" fill="#a6a79c"/>
    <rect x="200" y="125" width="202" height="1" fill="#a6a79c"/>
    <rect x="0" y="126" width="5" height="1" fill="#a6a79c"/>
    <rect x="200" y="126" width="202" height="1" fill="#a6a79c"/>
    <rect x="0" y="127" width="5" height="1" fill="#a6a79c"/>
    <rect x="200" y="127" width="202" height="1" fill="#a6a79c"/>
    <rect x="0" y="128" width="5" height="1" fill="#a6a79c"/>
    <rect x="200" y="128" width="202" height="1" fill="#a6a79c"/>
    <rect x="0" y="129" width="5" height="1" fill="#a6a79c"/>
    <rect x="200" y="129" width="202" height="1" fill="#a6a79c"/>
    <rect x="0" y="130" width="5" height="1" fill="#a6a79c"/>
    <rect x="200" y="130" width="202" height="1" fill="#a6a79c"/>
    <rect x="0" y="131" width="5" height="1" fill="#a6a79c"/>
    <rect x="200" y="131" width="202" height="1" fill="#a6a79c"/>
    <rect x="0" y="132" width="5" height="1" fill="#a6a79c"/>
    <rect x="200" y="132" width="202" height="1" fill="#a6a79c"/>
    <rect x="0" y="133" width="5" height="1" fill="#a6a79c"/>
    <rect x="200" y="133" width="202" height="1" fill="#a6a79c"/>
    <rect x="0" y="134" width="5" height="1" fill="#a6a79c"/>
    <rect x="200" y="134" width="202" height="1" fill="#a6a79c"/>
    <rect x="0" y="135" width="5" height="1" fill="#a6a79c"/>
    <rect x="200" y="135" width="202" height="1" fill="#a6a79c"/>
    <rect x="0" y="136" width="5" height="1" fill="#a6a79c"/>
    <rect x="200" y="136" width="202" height="1" fill="#a6a79c"/>
    <rect x="0" y="137" width="5" height="1" fill="#a6a79c"/>
    <rect x="200" y="137" width="202" height="1" fill="#a6a79c"/>
    <rect x="0" y="138" width="5" height="1" fill="#a6a79c"/>
    <rect x="200" y="138" width="202" height="1" fill="#a6a79c"/>
    <rect x="0" y="139" width="5" height="1" fill="#a6a79c"/>
    <rect x="200" y="139" width="202" height="1" fill="#a6a79c"/>
    <rect x="0" y="140" width="5" height="1" fill="#a6a79c"/>
    <rect x="200" y="140" width="202" height="1" fill="#a6a79c"/>
    <rect x="0" y="141" width="5" height="1" fill="#a6a79c"/>
    <rect x="200" y="141" width="202" height="1" fill="#a6a79c"/>
    <rect x="0" y="142" width="5" height="1" fill="#a6a79c"/>
    <rect x="200" y="142" width="202" height="1" fill="#a6a79c"/>
    <rect x="0" y="143" width="5" height="1" fill="#a6a79c"/>
    <rect x="200" y="143" width="202" height="1" fill="#a6a79c"/>
    <rect x="0" y="144" width="5" height="1" fill="#a6a79c"/>
    <rect x="200" y="144" width="202" height="1" fill="#a6a79c"/>
    <rect x="0" y="145" width="5" height="1" fill="#a6a79c"/>
    <rect x="200" y="145" width="202" height="1" fill="#a6a79c"/>
    <rect x="0" y="146" width="5" height="1" fill="#a6a79c"/>
    <rect x="200" y="146" width="202" height="1" fill="#a6a79c"/>
    <rect x="0" y="147" width="5" height="1" fill="#a6a79c"/>
    <rect x="200" y="147" width="202" height="1" fill="#a6a79c"/>
    <rect x="0" y="148" width="5" height="1" fill="#a6a79c"/>
    <rect x="200" y="148" width="202" height="1" fill="#a6a79c"/>
    <rect x="0" y="149" width="5" height="1" fill="#a6a79c"/>
    <rect x="200" y="149" width="202" height="1" fill="#a6a79c"/>
    <rect x="0" y="150" width="5" height="1" fill="#a6a79c"/>
    <rect x="200" y="150" width="202" height="1" fill="#a6a79c"/>
    <rect x="0" y="151" width="5" height="1" fill="#a6a79c"/>
    <rect x="200" y="151" width="202" height="1" fill="#a6a79c"/>
    <rect x="0" y="152" width="5" height="1" fill="#a6a79c"/>
    <rect x="200" y="152" width="202" height="1" fill="#a6a79c"/>
    <rect x="0" y="153" width="5" height="1" fill="#a6a79c"/>
    <rect x="200" y="153" width="202" height="1" fill="#a6a79c"/>
    <rect x="0" y="154" width="5" height="1" fill="#a6a79c"/>
    <rect x="200" y="154" width="202" height="1" fill="#a6a79c"/>
    <rect x="0" y="155" width="5" height="1" fill="#a6a79c"/>
    <rect x="200" y="155" width="202" height="1" fill="#a6a79c"/>
    <rect x="0" y="156" width="5" height="1" fill="#a6a79c"/>
    <rect x="200" y="156" width="202" height="1" fill="#a6a79c"/>
    <rect x="0" y="157" width="5" height="1" fill="#a6a79c"/>
    <rect x="200" y="157" width="202" height="1" fill="#a6a79c"/>
    <rect x="0" y="158" width="5" height="1" fill="#a6a79c"/>
    <rect x="200" y="158" width="202" height="1" fill="#a6a79c"/>
    <rect x="0" y="159" width="5" height="1" fill="#a6a79c"/>
    <rect x="200" y="159" width="202" height="1" fill="#a6a79c"/>
    <rect x="0" y="160" width="5" height="1" fill="#a6a79c"/>
    <rect x="200" y="160" width="202" height="1" fill="#a6a79c"/>
    <rect x="0" y="161" width="5" height="1" fill="#a6a79c"/>
    <rect x="200" y="161" width="202" height="1" fill="#a6a79c"/>
    <rect x="0" y="162" width="5" height="1" fill="#a6a79c"/>
    <rect x="200" y="162" width="202" height="1" fill="#a6a79c"/>
    <rect x="0" y="163" width="5" height="1" fill="#a6a79c"/>
    <rect x="200" y="163" width="202" height="1" fill="#a6a79c"/>
    <rect x="0" y="164" width="5" height="1" fill="#a6a79c"/>
    <rect x="200" y="164" width="202" height="1" fill="#a6a79c"/>
    <rect x="0" y="165" width="5" height="1" fill="#a6a79c"/>
    <rect x="200" y="165" width="202" height="1" fill="#a6a79c"/>
    <rect x="0" y="166" width="5" height="1" fill="#a6a79c"/>
    <rect x="200" y="166" width="202" height="1" fill="#a6a79c"/>
    <rect x="0" y="167" width="5" height="1" fill="#a6a79c"/>
    <rect x="200" y="167" width="202" height="1" fill="#a6a79c"/>
    <rect x="0" y="168" width="5" height="1" fill="#a6a79c"/>
    <rect x="200" y="168" width="202" height="1" fill="#a6a79c"/>
    <rect x="0" y="169" width="5" height="1" fill="#a6a79c"/>
    <rect x="200" y="169" width="202" height="1" fill="#a6a79c"/>
    <rect x="0" y="170" width="5" height="1" fill="#a6a79c"/>
    <rect x="200" y="170" width="202" height="1" fill="#a6a79c"/>
    <rect x="0" y="171" width="5" height="1" fill="#a6a79c"/>
    <rect x="200" y="171" width="202" height="1" fill="#a6a79c"/>
    <rect x="0" y="172" width="5" height="1" fill="#a6a79c"/>
    <rect x="200" y="172" width="202" height="1" fill="#a6a79c"/>
    <rect x="0" y="173" width="5" height="1" fill="#a6a79c"/>
    <rect x="200" y="173" width="202" height="1" fill="#a6a79c"/>
    <rect x="0" y="174" width="5" height="1" fill="#a6a79c"/>
    <rect x="200" y="174" width="202" height="1" fill="#a6a79c"/>
    <rect x="0" y="175" width="5" height="1" fill="#a6a79c"/>
    <rect x="200" y="175" width="202" height="1" fill="#a6a79c"/>
    <rect x="0" y="176" width="5" height="1" fill="#a6a79c"/>
    <rect x="200" y="176" width="202" height="1" fill="#a6a79c"/>
    <rect x="0" y="177" width="5" height="1" fill="#a6a79c"/>
    <rect x="200" y="177" width="202" height="1" fill="#a6a79c"/>
    <rect x="0" y="178" width="5" height="1" fill="#a6a79c"/>
    <rect x="200" y="178" width="202" height="1" fill="#a6a79c"/>
    <rect x="0" y="179" width="5" height="1" fill="#a6a79c"/>
    <rect x="200" y="179" width="202" height="1" fill="#a6a79c"/>
    <rect x="0" y="180" width="5" height="1" fill="#a6a79c"/>
    <rect x="200" y="180" width="202" height="1" fill="#a6a79c"/>
    <rect x="0" y="181" width="5" height="1" fill="#a6a79c"/>
    <rect x="200" y="181" width="202" height="1" fill="#a6a79c"/>
    <rect x="0" y="182" width="5" height="1" fill="#a6a79c"/>
    <rect x="200" y="182" width="202" height="1" fill="#a6a79c"/>
    <rect x="0" y="183" width="5" height="1" fill="#a6a79c"/>
    <rect x="200" y="183" width="202" height="1" fill="#a6a79c"/>
    <rect x="0" y="184" width="5" height="1" fill="#a6a79c"/>
    <rect x="200" y="184" width="202" height="1" fill="#a6a79c"/>
    <rect x="0" y="185" width="5" height="1" fill="#a6a79c"/>
    <rect x="200" y="185" width="202" height="1" fill="#a6a79c"/>
    <rect x="0" y="186" width="5" height="1" fill="#a6a79c"/>
    <rect x="200" y="186" width="202" height="1" fill="#a6a79c"/>
    <rect x="0" y="187" width="5" height="1" fill="#a6a79c"/>
    <rect x="200" y="187" width="202" height="1" fill="#a6a79c"/>
    <rect x="0" y="188" width="5" height="1" fill="#a6a79c"/>
    <rect x="200" y="188" width="202" height="1" fill="#a6a79c"/>
    <rect x="0" y="189" width="5" height="1" fill="#a6a79c"/>
    <rect x="200" y="189" width="202" height="1" fill="#a6a79c"/>
    <rect x="0" y="190" width="5" height="1" fill="#a6a79c"/>
    <rect x="200" y="190" width="202" height="1" fill="#a6a79c"/>
    <rect x="0" y="191" width="5" height="1" fill="#a6a79c"/>
    <rect x="200" y="191" width="202" height="1" fill="#a6a79c"/>
    <rect x="0" y="192" width="5" height="1" fill="#a6a79c"/>
    <rect x="200" y="192" width="202" height="1" fill="#a6a79c"/>
    <rect x="0" y="193" width="5" height="1" fill="#a6a79c"/>
    <rect x="200" y="193" width="202" height="1" fill="#a6a79c"/>
    <rect x="0" y="194" width="5" height="1" fill="#a6a79c"/>
    <rect x="200" y="194" width="202" height="1" fill="#a6a79c"/>
    <rect x="0" y="195" width="5" height="1" fill="#a6a79c"/>
    <rect x="200" y="195" width="202" height="1" fill="#a6a79c"/>
    <rect x="0" y="196" width="5" height="1" fill="#a6a79c"/>
    <rect x="200" y="196" width="202" height="1" fill="#a6a79c"/>
    <rect x="0" y="197" width="5" height="1" fill="#a6a79c"/>
    <rect x="200" y="197" width="202" height="1" fill="#a6a79c"/>
    <rect x="0" y="198" width="5" height="1" fill="#a6a79c"/>
    <rect x="200" y="198" width="202" height="1" fill="#a6a79c"/>
    <rect x="0" y="199" width="5" height="1" fill="#a6a79c"/>
    <rect x="200" y="199" width="202" height="1" fill="#a6a79c"/>
    <rect x="0" y="200" width="5" height="1" fill="#a6a79c"/>
    <rect x="200" y="200" width="202" height="1" fill="#a6a79c"/>
    <rect x="0" y="201" width="5" height="1" fill="#a6a79c"/>
    <rect x="200" y="201" width="202" height="1" fill="#a6a79c"/>
    <rect x="0" y="202" width="5" height="1" fill="#a6a79c"/>
    <rect x="200" y="202" width="202" height="1" fill="#a6a79c"/>
    <rect x="0" y="203" width="5" height="1" fill="#a6a79c"/>
    <rect x="200" y="203" width="202" height="1" fill="#a6a79c"/>
    <rect x="0" y="204" width="5" height="1" fill="#a6a79c"/>
    <rect x="200" y="204" width="202" height="1" fill="#a6a79c"/>
    <rect x="0" y="205" width="5" height="1" fill="#a6a79c"/>
    <rect x="200" y="205" width="202" height="1" fill="#a6a79c"/>
    <rect x="0" y="206" width="402" height="1" fill="#a6a79c"/>
    <rect x="0" y="207" width="402" height="1" fill="#a6a79c"/>
    <rect x="0" y="208" width="402" height="1" fill="#a6a79c"/>
    <rect x="0" y="209" width="402" height="1" fill="#a6a79c"/>
    <rect x="0" y="210" width="402" height="1" fill="#a6a79c"/>
    <rect x="0" y="211" width="402" height="1" fill="#a6a79c"/>
  </g>
</svg>