<?xml version="1.0" encoding="UTF-8"?>
<svg xmlns="http://www.w3.org/2000/svg" viewBox="0 0 180 74" width="180" height="74">
  <!-- Auto-converted from legend-818.png -->
  <rect x="0" y="0" width="180" height="74" fill="none"/>
  <g fill="#231f20" stroke="none">
    <rect x="3" y="2" width="174" height="1" fill="#231f20"/>
    <rect x="3" y="3" width="1" height="1" fill="#231f20"/>
    <rect x="176" y="3" width="1" height="1" fill="#231f20"/>
    <rect x="3" y="4" width="1" height="1" fill="#231f20"/>
    <rect x="176" y="4" width="1" height="1" fill="#231f20"/>
    <rect x="3" y="5" width="1" height="1" fill="#231f20"/>
    <rect x="176" y="5" width="1" height="1" fill="#231f20"/>
    <rect x="3" y="6" width="1" height="1" fill="#231f20"/>
    <rect x="176" y="6" width="1" height="1" fill="#231f20"/>
    <rect x="3" y="7" width="1" height="1" fill="#231f20"/>
    <rect x="176" y="7" width="1" height="1" fill="#231f20"/>
    <rect x="3" y="8" width="1" height="1" fill="#231f20"/>
    <rect x="83" y="8" width="12" height="1" fill="#231f20"/>
    <rect x="176" y="8" width="1" height="1" fill="#231f20"/>
    <rect x="3" y="9" width="1" height="1" fill="#231f20"/>
    <rect x="77" y="9" width="26" height="1" fill="#231f20"/>
    <rect x="176" y="9" width="1" height="1" fill="#231f20"/>
    <rect x="3" y="10" width="1" height="1" fill="#231f20"/>
    <rect x="73" y="10" width="34" height="1" fill="#231f20"/>
    <rect x="176" y="10" width="1" height="1" fill="#231f20"/>
    <rect x="3" y="11" width="1" height="1" fill="#231f20"/>
    <rect x="69" y="11" width="14" height="1" fill="#231f20"/>
    <rect x="95" y="11" width="16" height="1" fill="#231f20"/>
    <rect x="176" y="11" width="1" height="1" fill="#231f20"/>
    <rect x="3" y="12" width="1" height="1" fill="#231f20"/>
    <rect x="67" y="12" width="10" height="1" fill="#231f20"/>
    <rect x="103" y="12" width="12" height="1" fill="#231f20"/>
    <rect x="176" y="12" width="1" height="1" fill="#231f20"/>
    <rect x="3" y="13" width="1" height="1" fill="#231f20"/>
    <rect x="64" y="13" width="9" height="1" fill="#231f20"/>
    <rect x="107" y="13" width="10" height="1" fill="#231f20"/>
    <rect x="176" y="13" width="1" height="1" fill="#231f20"/>
    <rect x="3" y="14" width="1" height="1" fill="#231f20"/>
    <rect x="63" y="14" width="6" height="1" fill="#231f20"/>
    <rect x="111" y="14" width="10" height="1" fill="#231f20"/>
    <rect x="176" y="14" width="1" height="1" fill="#231f20"/>
    <rect x="3" y="15" width="1" height="1" fill="#231f20"/>
    <rect x="62" y="15" width="5" height="1" fill="#231f20"/>
    <rect x="115" y="15" width="8" height="1" fill="#231f20"/>
    <rect x="176" y="15" width="1" height="1" fill="#231f20"/>
    <rect x="3" y="16" width="1" height="1" fill="#231f20"/>
    <rect x="60" y="16" width="7" height="1" fill="#231f20"/>
    <rect x="117" y="16" width="7" height="1" fill="#231f20"/>
    <rect x="176" y="16" width="1" height="1" fill="#231f20"/>
    <rect x="3" y="17" width="1" height="1" fill="#231f20"/>
    <rect x="58" y="17" width="7" height="1" fill="#231f20"/>
    <rect x="120" y="17" width="6" height="1" fill="#231f20"/>
    <rect x="176" y="17" width="1" height="1" fill="#231f20"/>
    <rect x="3" y="18" width="1" height="1" fill="#231f20"/>
    <rect x="57" y="18" width="7" height="1" fill="#231f20"/>
    <rect x="121" y="18" width="7" height="1" fill="#231f20"/>
    <rect x="176" y="18" width="1" height="1" fill="#231f20"/>
    <rect x="3" y="19" width="1" height="1" fill="#231f20"/>
    <rect x="56" y="19" width="6" height="1" fill="#231f20"/>
    <rect x="81" y="19" width="18" height="1" fill="#231f20"/>
    <rect x="124" y="19" width="6" height="1" fill="#231f20"/>
    <rect x="176" y="19" width="1" height="1" fill="#231f20"/>
    <rect x="3" y="20" width="1" height="1" fill="#231f20"/>
    <rect x="55" y="20" width="5" height="1" fill="#231f20"/>
    <rect x="80" y="20" width="20" height="1" fill="#231f20"/>
    <rect x="126" y="20" width="6" height="1" fill="#231f20"/>
    <rect x="176" y="20" width="1" height="1" fill="#231f20"/>
    <rect x="3" y="21" width="1" height="1" fill="#231f20"/>
    <rect x="54" y="21" width="6" height="1" fill="#231f20"/>
    <rect x="81" y="21" width="18" height="1" fill="#231f20"/>
    <rect x="128" y="21" width="6" height="1" fill="#231f20"/>
    <rect x="176" y="21" width="1" height="1" fill="#231f20"/>
    <rect x="3" y="22" width="1" height="1" fill="#231f20"/>
    <rect x="53" y="22" width="5" height="1" fill="#231f20"/>
    <rect x="130" y="22" width="5" height="1" fill="#231f20"/>
    <rect x="176" y="22" width="1" height="1" fill="#231f20"/>
    <rect x="3" y="23" width="1" height="1" fill="#231f20"/>
    <rect x="52" y="23" width="5" height="1" fill="#231f20"/>
    <rect x="131" y="23" width="6" height="1" fill="#231f20"/>
    <rect x="176" y="23" width="1" height="1" fill="#231f20"/>
    <rect x="3" y="24" width="1" height="1" fill="#231f20"/>
    <rect x="52" y="24" width="5" height="1" fill="#231f20"/>
    <rect x="132" y="24" width="6" height="1" fill="#231f20"/>
    <rect x="176" y="24" width="1" height="1" fill="#231f20"/>
    <rect x="3" y="25" width="1" height="1" fill="#231f20"/>
    <rect x="51" y="25" width="4" height="1" fill="#231f20"/>
    <rect x="134" y="25" width="5" height="1" fill="#231f20"/>
    <rect x="176" y="25" width="1" height="1" fill="#231f20"/>
    <rect x="3" y="26" width="1" height="1" fill="#231f20"/>
    <rect x="50" y="26" width="5" height="1" fill="#231f20"/>
    <rect x="135" y="26" width="5" height="1" fill="#231f20"/>
    <rect x="176" y="26" width="1" height="1" fill="#231f20"/>
    <rect x="3" y="27" width="1" height="1" fill="#231f20"/>
    <rect x="49" y="27" width="5" height="1" fill="#231f20"/>
    <rect x="136" y="27" width="6" height="1" fill="#231f20"/>
    <rect x="176" y="27" width="1" height="1" fill="#231f20"/>
    <rect x="3" y="28" width="1" height="1" fill="#231f20"/>
    <rect x="49" y="28" width="4" height="1" fill="#231f20"/>
    <rect x="137" y="28" width="6" height="1" fill="#231f20"/>
    <rect x="176" y="28" width="1" height="1" fill="#231f20"/>
    <rect x="3" y="29" width="1" height="1" fill="#231f20"/>
    <rect x="48" y="29" width="4" height="1" fill="#231f20"/>
    <rect x="138" y="29" width="6" height="1" fill="#231f20"/>
    <rect x="176" y="29" width="1" height="1" fill="#231f20"/>
    <rect x="3" y="30" width="1" height="1" fill="#231f20"/>
    <rect x="48" y="30" width="4" height="1" fill="#231f20"/>
    <rect x="140" y="30" width="5" height="1" fill="#231f20"/>
    <rect x="176" y="30" width="1" height="1" fill="#231f20"/>
    <rect x="3" y="31" width="1" height="1" fill="#231f20"/>
    <rect x="48" y="31" width="3" height="1" fill="#231f20"/>
    <rect x="62" y="31" width="18" height="1" fill="#231f20"/>
    <rect x="101" y="31" width="18" height="1" fill="#231f20"/>
    <rect x="140" y="31" width="5" height="1" fill="#231f20"/>
    <rect x="176" y="31" width="1" height="1" fill="#231f20"/>
    <rect x="3" y="32" width="1" height="1" fill="#231f20"/>
    <rect x="48" y="32" width="3" height="1" fill="#231f20"/>
    <rect x="61" y="32" width="20" height="1" fill="#231f20"/>
    <rect x="100" y="32" width="20" height="1" fill="#231f20"/>
    <rect x="142" y="32" width="4" height="1" fill="#231f20"/>
    <rect x="176" y="32" width="1" height="1" fill="#231f20"/>
    <rect x="3" y="33" width="1" height="1" fill="#231f20"/>
    <rect x="47" y="33" width="3" height="1" fill="#231f20"/>
    <rect x="62" y="33" width="18" height="1" fill="#231f20"/>
    <rect x="101" y="33" width="18" height="1" fill="#231f20"/>
    <rect x="142" y="33" width="5" height="1" fill="#231f20"/>
    <rect x="176" y="33" width="1" height="1" fill="#231f20"/>
    <rect x="3" y="34" width="1" height="1" fill="#231f20"/>
    <rect x="47" y="34" width="3" height="1" fill="#231f20"/>
    <rect x="143" y="34" width="4" height="1" fill="#231f20"/>
    <rect x="176" y="34" width="1" height="1" fill="#231f20"/>
    <rect x="3" y="35" width="1" height="1" fill="#231f20"/>
    <rect x="46" y="35" width="3" height="1" fill="#231f20"/>
    <rect x="143" y="35" width="5" height="1" fill="#231f20"/>
    <rect x="176" y="35" width="1" height="1" fill="#231f20"/>
    <rect x="3" y="36" width="1" height="1" fill="#231f20"/>
    <rect x="46" y="36" width="3" height="1" fill="#231f20"/>
    <rect x="144" y="36" width="4" height="1" fill="#231f20"/>
    <rect x="176" y="36" width="1" height="1" fill="#231f20"/>
    <rect x="3" y="37" width="1" height="1" fill="#231f20"/>
    <rect x="45" y="37" width="3" height="1" fill="#231f20"/>
    <rect x="145" y="37" width="4" height="1" fill="#231f20"/>
    <rect x="176" y="37" width="1" height="1" fill="#231f20"/>
    <rect x="3" y="38" width="1" height="1" fill="#231f20"/>
    <rect x="45" y="38" width="3" height="1" fill="#231f20"/>
    <rect x="145" y="38" width="4" height="1" fill="#231f20"/>
    <rect x="176" y="38" width="1" height="1" fill="#231f20"/>
    <rect x="3" y="39" width="1" height="1" fill="#231f20"/>
    <rect x="44" y="39" width="3" height="1" fill="#231f20"/>
    <rect x="146" y="39" width="4" height="1" fill="#231f20"/>
    <rect x="176" y="39" width="1" height="1" fill="#231f20"/>
    <rect x="3" y="40" width="1" height="1" fill="#231f20"/>
    <rect x="44" y="40" width="3" height="1" fill="#231f20"/>
    <rect x="146" y="40" width="4" height="1" fill="#231f20"/>
    <rect x="176" y="40" width="1" height="1" fill="#231f20"/>
    <rect x="3" y="41" width="1" height="1" fill="#231f20"/>
    <rect x="44" y="41" width="3" height="1" fill="#231f20"/>
    <rect x="81" y="41" width="18" height="1" fill="#231f20"/>
    <rect x="147" y="41" width="3" height="1" fill="#231f20"/>
    <rect x="176" y="41" width="1" height="1" fill="#231f20"/>
    <rect x="3" y="42" width="1" height="1" fill="#231f20"/>
    <rect x="44" y="42" width="3" height="1" fill="#231f20"/>
    <rect x="80" y="42" width="20" height="1" fill="#231f20"/>
    <rect x="147" y="42" width="4" height="1" fill="#231f20"/>
    <rect x="176" y="42" width="1" height="1" fill="#231f20"/>
    <rect x="3" y="43" width="1" height="1" fill="#231f20"/>
    <rect x="43" y="43" width="3" height="1" fill="#231f20"/>
    <rect x="81" y="43" width="18" height="1" fill="#231f20"/>
    <rect x="147" y="43" width="4" height="1" fill="#231f20"/>
    <rect x="176" y="43" width="1" height="1" fill="#231f20"/>
    <rect x="3" y="44" width="1" height="1" fill="#231f20"/>
    <rect x="43" y="44" width="3" height="1" fill="#231f20"/>
    <rect x="148" y="44" width="3" height="1" fill="#231f20"/>
    <rect x="176" y="44" width="1" height="1" fill="#231f20"/>
    <rect x="3" y="45" width="1" height="1" fill="#231f20"/>
    <rect x="43" y="45" width="3" height="1" fill="#231f20"/>
    <rect x="148" y="45" width="3" height="1" fill="#231f20"/>
    <rect x="176" y="45" width="1" height="1" fill="#231f20"/>
    <rect x="3" y="46" width="1" height="1" fill="#231f20"/>
    <rect x="43" y="46" width="3" height="1" fill="#231f20"/>
    <rect x="149" y="46" width="3" height="1" fill="#231f20"/>
    <rect x="176" y="46" width="1" height="1" fill="#231f20"/>
    <rect x="3" y="47" width="1" height="1" fill="#231f20"/>
    <rect x="42" y="47" width="3" height="1" fill="#231f20"/>
    <rect x="149" y="47" width="3" height="1" fill="#231f20"/>
    <rect x="176" y="47" width="1" height="1" fill="#231f20"/>
    <rect x="3" y="48" width="1" height="1" fill="#231f20"/>
    <rect x="42" y="48" width="3" height="1" fill="#231f20"/>
    <rect x="149" y="48" width="3" height="1" fill="#231f20"/>
    <rect x="176" y="48" width="1" height="1" fill="#231f20"/>
    <rect x="3" y="49" width="1" height="1" fill="#231f20"/>
    <rect x="42" y="49" width="3" height="1" fill="#231f20"/>
    <rect x="149" y="49" width="3" height="1" fill="#231f20"/>
    <rect x="176" y="49" width="1" height="1" fill="#231f20"/>
    <rect x="3" y="50" width="1" height="1" fill="#231f20"/>
    <rect x="42" y="50" width="3" height="1" fill="#231f20"/>
    <rect x="149" y="50" width="3" height="1" fill="#231f20"/>
    <rect x="176" y="50" width="1" height="1" fill="#231f20"/>
    <rect x="3" y="51" width="1" height="1" fill="#231f20"/>
    <rect x="42" y="51" width="3" height="1" fill="#231f20"/>
    <rect x="149" y="51" width="3" height="1" fill="#231f20"/>
    <rect x="176" y="51" width="1" height="1" fill="#231f20"/>
    <rect x="3" y="52" width="1" height="1" fill="#231f20"/>
    <rect x="42" y="52" width="3" height="1" fill="#231f20"/>
    <rect x="149" y="52" width="3" height="1" fill="#231f20"/>
    <rect x="176" y="52" width="1" height="1" fill="#231f20"/>
    <rect x="3" y="53" width="1" height="1" fill="#231f20"/>
    <rect x="42" y="53" width="3" height="1" fill="#231f20"/>
    <rect x="46" y="53" width="88" height="1" fill="#231f20"/>
    <rect x="148" y="53" width="4" height="1" fill="#231f20"/>
    <rect x="176" y="53" width="1" height="1" fill="#231f20"/>
    <rect x="3" y="54" width="1" height="1" fill="#231f20"/>
    <rect x="41" y="54" width="98" height="1" fill="#231f20"/>
    <rect x="147" y="54" width="5" height="1" fill="#231f20"/>
    <rect x="176" y="54" width="1" height="1" fill="#231f20"/>
    <rect x="3" y="55" width="1" height="1" fill="#231f20"/>
    <rect x="41" y="55" width="110" height="1" fill="#231f20"/>
    <rect x="176" y="55" width="1" height="1" fill="#231f20"/>
    <rect x="3" y="56" width="1" height="1" fill="#231f20"/>
    <rect x="41" y="56" width="5" height="1" fill="#231f20"/>
    <rect x="132" y="56" width="19" height="1" fill="#231f20"/>
    <rect x="176" y="56" width="1" height="1" fill="#231f20"/>
    <rect x="3" y="57" width="1" height="1" fill="#231f20"/>
    <rect x="137" y="57" width="12" height="1" fill="#231f20"/>
    <rect x="176" y="57" width="1" height="1" fill="#231f20"/>
    <rect x="3" y="58" width="1" height="1" fill="#231f20"/>
    <rect x="176" y="58" width="1" height="1" fill="#231f20"/>
    <rect x="3" y="59" width="1" height="1" fill="#231f20"/>
    <rect x="176" y="59" width="1" height="1" fill="#231f20"/>
    <rect x="3" y="60" width="1" height="1" fill="#231f20"/>
    <rect x="176" y="60" width="1" height="1" fill="#231f20"/>
    <rect x="3" y="61" width="1" height="1" fill="#231f20"/>
    <rect x="176" y="61" width="1" height="1" fill="#231f20"/>
    <rect x="3" y="62" width="1" height="1" fill="#231f20"/>
    <rect x="176" y="62" width="1" height="1" fill="#231f20"/>
    <rect x="3" y="63" width="1" height="1" fill="#231f20"/>
    <rect x="176" y="63" width="1" height="1" fill="#231f20"/>
    <rect x="3" y="64" width="1" height="1" fill="#231f20"/>
    <rect x="176" y="64" width="1" height="1" fill="#231f20"/>
    <rect x="3" y="65" width="1" height="1" fill="#231f20"/>
    <rect x="176" y="65" width="1" height="1" fill="#231f20"/>
    <rect x="3" y="66" width="1" height="1" fill="#231f20"/>
    <rect x="176" y="66" width="1" height="1" fill="#231f20"/>
    <rect x="3" y="67" width="1" height="1" fill="#231f20"/>
    <rect x="176" y="67" width="1" height="1" fill="#231f20"/>
    <rect x="3" y="68" width="1" height="1" fill="#231f20"/>
    <rect x="176" y="68" width="1" height="1" fill="#231f20"/>
    <rect x="3" y="69" width="1" height="1" fill="#231f20"/>
    <rect x="176" y="69" width="1" height="1" fill="#231f20"/>
    <rect x="3" y="70" width="1" height="1" fill="#231f20"/>
    <rect x="176" y="70" width="1" height="1" fill="#231f20"/>
    <rect x="3" y="71" width="174" height="1" fill="#231f20"/>
  </g>
</svg>