<?xml version="1.0" encoding="UTF-8"?>
<svg xmlns="http://www.w3.org/2000/svg" viewBox="0 0 76 54" width="76" height="54">
  <!-- Auto-converted from legend-594.png -->
  <rect x="0" y="0" width="76" height="54" fill="none"/>
  <g fill="#293323" stroke="none">
    <rect x="2" y="3" width="72" height="1" fill="#293323"/>
    <rect x="2" y="4" width="1" height="1" fill="#293323"/>
    <rect x="21" y="4" width="1" height="1" fill="#293323"/>
    <rect x="39" y="4" width="1" height="1" fill="#293323"/>
    <rect x="73" y="4" width="1" height="1" fill="#293323"/>
    <rect x="2" y="5" width="1" height="1" fill="#293323"/>
    <rect x="21" y="5" width="1" height="1" fill="#293323"/>
    <rect x="39" y="5" width="1" height="1" fill="#293323"/>
    <rect x="73" y="5" width="1" height="1" fill="#293323"/>
    <rect x="2" y="6" width="1" height="1" fill="#293323"/>
    <rect x="21" y="6" width="1" height="1" fill="#293323"/>
    <rect x="39" y="6" width="1" height="1" fill="#293323"/>
    <rect x="73" y="6" width="1" height="1" fill="#293323"/>
    <rect x="2" y="7" width="1" height="1" fill="#293323"/>
    <rect x="21" y="7" width="1" height="1" fill="#293323"/>
    <rect x="39" y="7" width="1" height="1" fill="#293323"/>
    <rect x="73" y="7" width="1" height="1" fill="#293323"/>
    <rect x="2" y="8" width="1" height="1" fill="#293323"/>
    <rect x="13" y="8" width="3" height="1" fill="#293323"/>
    <rect x="28" y="8" width="1" height="1" fill="#293323"/>
    <rect x="73" y="8" width="1" height="1" fill="#293323"/>
    <rect x="2" y="9" width="1" height="1" fill="#293323"/>
    <rect x="14" y="9" width="2" height="1" fill="#293323"/>
    <rect x="27" y="9" width="2" height="1" fill="#293323"/>
    <rect x="73" y="9" width="1" height="1" fill="#293323"/>
    <rect x="2" y="10" width="1" height="1" fill="#293323"/>
    <rect x="14" y="10" width="2" height="1" fill="#293323"/>
    <rect x="27" y="10" width="2" height="1" fill="#293323"/>
    <rect x="73" y="10" width="1" height="1" fill="#293323"/>
    <rect x="2" y="11" width="1" height="1" fill="#293323"/>
    <rect x="14" y="11" width="2" height="1" fill="#293323"/>
    <rect x="27" y="11" width="3" height="1" fill="#293323"/>
    <rect x="73" y="11" width="1" height="1" fill="#293323"/>
    <rect x="2" y="12" width="1" height="1" fill="#293323"/>
    <rect x="14" y="12" width="2" height="1" fill="#293323"/>
    <rect x="21" y="12" width="1" height="1" fill="#293323"/>
    <rect x="28" y="12" width="1" height="1" fill="#293323"/>
    <rect x="40" y="12" width="1" height="1" fill="#293323"/>
    <rect x="73" y="12" width="1" height="1" fill="#293323"/>
    <rect x="2" y="13" width="1" height="1" fill="#293323"/>
    <rect x="13" y="13" width="3" height="1" fill="#293323"/>
    <rect x="21" y="13" width="1" height="1" fill="#293323"/>
    <rect x="28" y="13" width="1" height="1" fill="#293323"/>
    <rect x="40" y="13" width="1" height="1" fill="#293323"/>
    <rect x="73" y="13" width="1" height="1" fill="#293323"/>
    <rect x="2" y="14" width="1" height="1" fill="#293323"/>
    <rect x="21" y="14" width="1" height="1" fill="#293323"/>
    <rect x="40" y="14" width="1" height="1" fill="#293323"/>
    <rect x="73" y="14" width="1" height="1" fill="#293323"/>
    <rect x="2" y="15" width="1" height="1" fill="#293323"/>
    <rect x="21" y="15" width="1" height="1" fill="#293323"/>
    <rect x="40" y="15" width="1" height="1" fill="#293323"/>
    <rect x="73" y="15" width="1" height="1" fill="#293323"/>
    <rect x="2" y="16" width="1" height="1" fill="#293323"/>
    <rect x="21" y="16" width="1" height="1" fill="#293323"/>
    <rect x="40" y="16" width="1" height="1" fill="#293323"/>
    <rect x="73" y="16" width="1" height="1" fill="#293323"/>
    <rect x="2" y="17" width="1" height="1" fill="#293323"/>
    <rect x="21" y="17" width="1" height="1" fill="#293323"/>
    <rect x="40" y="17" width="1" height="1" fill="#293323"/>
    <rect x="73" y="17" width="1" height="1" fill="#293323"/>
    <rect x="2" y="18" width="1" height="1" fill="#293323"/>
    <rect x="21" y="18" width="1" height="1" fill="#293323"/>
    <rect x="40" y="18" width="1" height="1" fill="#293323"/>
    <rect x="73" y="18" width="1" height="1" fill="#293323"/>
    <rect x="2" y="19" width="72" height="1" fill="#293323"/>
    <rect x="2" y="20" width="1" height="1" fill="#293323"/>
    <rect x="21" y="20" width="20" height="1" fill="#293323"/>
    <rect x="73" y="20" width="1" height="1" fill="#293323"/>
    <rect x="2" y="21" width="1" height="1" fill="#293323"/>
    <rect x="21" y="21" width="20" height="1" fill="#293323"/>
    <rect x="73" y="21" width="1" height="1" fill="#293323"/>
    <rect x="2" y="22" width="1" height="1" fill="#293323"/>
    <rect x="21" y="22" width="20" height="1" fill="#293323"/>
    <rect x="73" y="22" width="1" height="1" fill="#293323"/>
    <rect x="2" y="23" width="1" height="1" fill="#293323"/>
    <rect x="21" y="23" width="20" height="1" fill="#293323"/>
    <rect x="73" y="23" width="1" height="1" fill="#293323"/>
    <rect x="2" y="24" width="1" height="1" fill="#293323"/>
    <rect x="21" y="24" width="20" height="1" fill="#293323"/>
    <rect x="73" y="24" width="1" height="1" fill="#293323"/>
    <rect x="2" y="25" width="1" height="1" fill="#293323"/>
    <rect x="21" y="25" width="20" height="1" fill="#293323"/>
    <rect x="73" y="25" width="1" height="1" fill="#293323"/>
    <rect x="2" y="26" width="1" height="1" fill="#293323"/>
    <rect x="21" y="26" width="20" height="1" fill="#293323"/>
    <rect x="73" y="26" width="1" height="1" fill="#293323"/>
    <rect x="2" y="27" width="1" height="1" fill="#293323"/>
    <rect x="21" y="27" width="20" height="1" fill="#293323"/>
    <rect x="73" y="27" width="1" height="1" fill="#293323"/>
    <rect x="2" y="28" width="1" height="1" fill="#293323"/>
    <rect x="21" y="28" width="20" height="1" fill="#293323"/>
    <rect x="73" y="28" width="1" height="1" fill="#293323"/>
    <rect x="2" y="29" width="1" height="1" fill="#293323"/>
    <rect x="21" y="29" width="20" height="1" fill="#293323"/>
    <rect x="73" y="29" width="1" height="1" fill="#293323"/>
    <rect x="2" y="30" width="1" height="1" fill="#293323"/>
    <rect x="21" y="30" width="20" height="1" fill="#293323"/>
    <rect x="73" y="30" width="1" height="1" fill="#293323"/>
    <rect x="2" y="31" width="1" height="1" fill="#293323"/>
    <rect x="21" y="31" width="20" height="1" fill="#293323"/>
    <rect x="73" y="31" width="1" height="1" fill="#293323"/>
    <rect x="2" y="32" width="1" height="1" fill="#293323"/>
    <rect x="21" y="32" width="20" height="1" fill="#293323"/>
    <rect x="73" y="32" width="1" height="1" fill="#293323"/>
    <rect x="2" y="33" width="1" height="1" fill="#293323"/>
    <rect x="21" y="33" width="20" height="1" fill="#293323"/>
    <rect x="73" y="33" width="1" height="1" fill="#293323"/>
    <rect x="2" y="34" width="1" height="1" fill="#293323"/>
    <rect x="21" y="34" width="20" height="1" fill="#293323"/>
    <rect x="73" y="34" width="1" height="1" fill="#293323"/>
    <rect x="2" y="35" width="72" height="1" fill="#293323"/>
    <rect x="2" y="36" width="1" height="1" fill="#293323"/>
    <rect x="73" y="36" width="1" height="1" fill="#293323"/>
    <rect x="2" y="37" width="1" height="1" fill="#293323"/>
    <rect x="73" y="37" width="1" height="1" fill="#293323"/>
    <rect x="2" y="38" width="1" height="1" fill="#293323"/>
    <rect x="73" y="38" width="1" height="1" fill="#293323"/>
    <rect x="2" y="39" width="1" height="1" fill="#293323"/>
    <rect x="73" y="39" width="1" height="1" fill="#293323"/>
    <rect x="2" y="40" width="1" height="1" fill="#293323"/>
    <rect x="73" y="40" width="1" height="1" fill="#293323"/>
    <rect x="2" y="41" width="1" height="1" fill="#293323"/>
    <rect x="73" y="41" width="1" height="1" fill="#293323"/>
    <rect x="2" y="42" width="1" height="1" fill="#293323"/>
    <rect x="73" y="42" width="1" height="1" fill="#293323"/>
    <rect x="2" y="43" width="1" height="1" fill="#293323"/>
    <rect x="73" y="43" width="1" height="1" fill="#293323"/>
    <rect x="2" y="44" width="1" height="1" fill="#293323"/>
    <rect x="73" y="44" width="1" height="1" fill="#293323"/>
    <rect x="2" y="45" width="1" height="1" fill="#293323"/>
    <rect x="73" y="45" width="1" height="1" fill="#293323"/>
    <rect x="2" y="46" width="1" height="1" fill="#293323"/>
    <rect x="73" y="46" width="1" height="1" fill="#293323"/>
    <rect x="2" y="47" width="1" height="1" fill="#293323"/>
    <rect x="73" y="47" width="1" height="1" fill="#293323"/>
    <rect x="2" y="48" width="1" height="1" fill="#293323"/>
    <rect x="73" y="48" width="1" height="1" fill="#293323"/>
    <rect x="2" y="49" width="1" height="1" fill="#293323"/>
    <rect x="73" y="49" width="1" height="1" fill="#293323"/>
    <rect x="2" y="50" width="72" height="1" fill="#293323"/>
  </g>
</svg>