<?xml version="1.0" encoding="UTF-8"?>
<svg xmlns="http://www.w3.org/2000/svg" viewBox="0 0 154 61" width="154" height="61">
  <!-- Auto-converted from legend-1714.png -->
  <rect x="0" y="0" width="154" height="61" fill="none"/>
  <g fill="#231f20" stroke="none">
    <rect x="0" y="0" width="154" height="1" fill="#231f20"/>
    <rect x="0" y="1" width="1" height="1" fill="#231f20"/>
    <rect x="153" y="1" width="1" height="1" fill="#231f20"/>
    <rect x="0" y="2" width="1" height="1" fill="#231f20"/>
    <rect x="153" y="2" width="1" height="1" fill="#231f20"/>
    <rect x="0" y="3" width="1" height="1" fill="#231f20"/>
    <rect x="153" y="3" width="1" height="1" fill="#231f20"/>
    <rect x="0" y="4" width="1" height="1" fill="#231f20"/>
    <rect x="153" y="4" width="1" height="1" fill="#231f20"/>
    <rect x="0" y="5" width="1" height="1" fill="#231f20"/>
    <rect x="26" y="5" width="1" height="1" fill="#231f20"/>
    <rect x="87" y="5" width="1" height="1" fill="#231f20"/>
    <rect x="116" y="5" width="1" height="1" fill="#231f20"/>
    <rect x="118" y="5" width="1" height="1" fill="#231f20"/>
    <rect x="153" y="5" width="1" height="1" fill="#231f20"/>
    <rect x="0" y="6" width="1" height="1" fill="#231f20"/>
    <rect x="25" y="6" width="1" height="1" fill="#231f20"/>
    <rect x="27" y="6" width="1" height="1" fill="#231f20"/>
    <rect x="86" y="6" width="1" height="1" fill="#231f20"/>
    <rect x="88" y="6" width="1" height="1" fill="#231f20"/>
    <rect x="116" y="6" width="1" height="1" fill="#231f20"/>
    <rect x="118" y="6" width="1" height="1" fill="#231f20"/>
    <rect x="153" y="6" width="1" height="1" fill="#231f20"/>
    <rect x="0" y="7" width="1" height="1" fill="#231f20"/>
    <rect x="25" y="7" width="1" height="1" fill="#231f20"/>
    <rect x="27" y="7" width="1" height="1" fill="#231f20"/>
    <rect x="53" y="7" width="3" height="1" fill="#231f20"/>
    <rect x="57" y="7" width="3" height="1" fill="#231f20"/>
    <rect x="86" y="7" width="1" height="1" fill="#231f20"/>
    <rect x="88" y="7" width="1" height="1" fill="#231f20"/>
    <rect x="115" y="7" width="1" height="1" fill="#231f20"/>
    <rect x="119" y="7" width="1" height="1" fill="#231f20"/>
    <rect x="153" y="7" width="1" height="1" fill="#231f20"/>
    <rect x="0" y="8" width="1" height="1" fill="#231f20"/>
    <rect x="24" y="8" width="1" height="1" fill="#231f20"/>
    <rect x="28" y="8" width="1" height="1" fill="#231f20"/>
    <rect x="54" y="8" width="2" height="1" fill="#231f20"/>
    <rect x="57" y="8" width="2" height="1" fill="#231f20"/>
    <rect x="85" y="8" width="1" height="1" fill="#231f20"/>
    <rect x="89" y="8" width="1" height="1" fill="#231f20"/>
    <rect x="115" y="8" width="1" height="1" fill="#231f20"/>
    <rect x="119" y="8" width="1" height="1" fill="#231f20"/>
    <rect x="153" y="8" width="1" height="1" fill="#231f20"/>
    <rect x="0" y="9" width="1" height="1" fill="#231f20"/>
    <rect x="24" y="9" width="1" height="1" fill="#231f20"/>
    <rect x="28" y="9" width="1" height="1" fill="#231f20"/>
    <rect x="54" y="9" width="2" height="1" fill="#231f20"/>
    <rect x="57" y="9" width="2" height="1" fill="#231f20"/>
    <rect x="85" y="9" width="1" height="1" fill="#231f20"/>
    <rect x="89" y="9" width="1" height="1" fill="#231f20"/>
    <rect x="114" y="9" width="1" height="1" fill="#231f20"/>
    <rect x="120" y="9" width="1" height="1" fill="#231f20"/>
    <rect x="153" y="9" width="1" height="1" fill="#231f20"/>
    <rect x="0" y="10" width="1" height="1" fill="#231f20"/>
    <rect x="23" y="10" width="1" height="1" fill="#231f20"/>
    <rect x="29" y="10" width="1" height="1" fill="#231f20"/>
    <rect x="54" y="10" width="2" height="1" fill="#231f20"/>
    <rect x="57" y="10" width="2" height="1" fill="#231f20"/>
    <rect x="84" y="10" width="1" height="1" fill="#231f20"/>
    <rect x="90" y="10" width="1" height="1" fill="#231f20"/>
    <rect x="114" y="10" width="1" height="1" fill="#231f20"/>
    <rect x="120" y="10" width="1" height="1" fill="#231f20"/>
    <rect x="153" y="10" width="1" height="1" fill="#231f20"/>
    <rect x="0" y="11" width="1" height="1" fill="#231f20"/>
    <rect x="23" y="11" width="1" height="1" fill="#231f20"/>
    <rect x="29" y="11" width="1" height="1" fill="#231f20"/>
    <rect x="54" y="11" width="1" height="1" fill="#231f20"/>
    <rect x="56" y="11" width="1" height="1" fill="#231f20"/>
    <rect x="58" y="11" width="1" height="1" fill="#231f20"/>
    <rect x="84" y="11" width="1" height="1" fill="#231f20"/>
    <rect x="90" y="11" width="1" height="1" fill="#231f20"/>
    <rect x="114" y="11" width="1" height="1" fill="#231f20"/>
    <rect x="120" y="11" width="1" height="1" fill="#231f20"/>
    <rect x="153" y="11" width="1" height="1" fill="#231f20"/>
    <rect x="0" y="12" width="1" height="1" fill="#231f20"/>
    <rect x="22" y="12" width="1" height="1" fill="#231f20"/>
    <rect x="30" y="12" width="1" height="1" fill="#231f20"/>
    <rect x="54" y="12" width="1" height="1" fill="#231f20"/>
    <rect x="56" y="12" width="1" height="1" fill="#231f20"/>
    <rect x="58" y="12" width="1" height="1" fill="#231f20"/>
    <rect x="83" y="12" width="1" height="1" fill="#231f20"/>
    <rect x="91" y="12" width="1" height="1" fill="#231f20"/>
    <rect x="113" y="12" width="1" height="1" fill="#231f20"/>
    <rect x="121" y="12" width="1" height="1" fill="#231f20"/>
    <rect x="153" y="12" width="1" height="1" fill="#231f20"/>
    <rect x="0" y="13" width="1" height="1" fill="#231f20"/>
    <rect x="22" y="13" width="1" height="1" fill="#231f20"/>
    <rect x="30" y="13" width="1" height="1" fill="#231f20"/>
    <rect x="54" y="13" width="1" height="1" fill="#231f20"/>
    <rect x="56" y="13" width="1" height="1" fill="#231f20"/>
    <rect x="58" y="13" width="1" height="1" fill="#231f20"/>
    <rect x="83" y="13" width="1" height="1" fill="#231f20"/>
    <rect x="91" y="13" width="1" height="1" fill="#231f20"/>
    <rect x="113" y="13" width="1" height="1" fill="#231f20"/>
    <rect x="121" y="13" width="1" height="1" fill="#231f20"/>
    <rect x="153" y="13" width="1" height="1" fill="#231f20"/>
    <rect x="0" y="14" width="1" height="1" fill="#231f20"/>
    <rect x="21" y="14" width="11" height="1" fill="#231f20"/>
    <rect x="54" y="14" width="1" height="1" fill="#231f20"/>
    <rect x="56" y="14" width="1" height="1" fill="#231f20"/>
    <rect x="58" y="14" width="1" height="1" fill="#231f20"/>
    <rect x="82" y="14" width="11" height="1" fill="#231f20"/>
    <rect x="112" y="14" width="1" height="1" fill="#231f20"/>
    <rect x="122" y="14" width="1" height="1" fill="#231f20"/>
    <rect x="153" y="14" width="1" height="1" fill="#231f20"/>
    <rect x="0" y="15" width="1" height="1" fill="#231f20"/>
    <rect x="53" y="15" width="2" height="1" fill="#231f20"/>
    <rect x="56" y="15" width="1" height="1" fill="#231f20"/>
    <rect x="58" y="15" width="2" height="1" fill="#231f20"/>
    <rect x="112" y="15" width="1" height="1" fill="#231f20"/>
    <rect x="122" y="15" width="1" height="1" fill="#231f20"/>
    <rect x="153" y="15" width="1" height="1" fill="#231f20"/>
    <rect x="0" y="16" width="1" height="1" fill="#231f20"/>
    <rect x="153" y="16" width="1" height="1" fill="#231f20"/>
    <rect x="0" y="17" width="1" height="1" fill="#231f20"/>
    <rect x="153" y="17" width="1" height="1" fill="#231f20"/>
    <rect x="0" y="18" width="1" height="1" fill="#231f20"/>
    <rect x="153" y="18" width="1" height="1" fill="#231f20"/>
    <rect x="0" y="19" width="1" height="1" fill="#231f20"/>
    <rect x="153" y="19" width="1" height="1" fill="#231f20"/>
    <rect x="0" y="20" width="154" height="1" fill="#231f20"/>
    <rect x="0" y="21" width="1" height="1" fill="#231f20"/>
    <rect x="153" y="21" width="1" height="1" fill="#231f20"/>
    <rect x="0" y="22" width="1" height="1" fill="#231f20"/>
    <rect x="153" y="22" width="1" height="1" fill="#231f20"/>
    <rect x="0" y="23" width="1" height="1" fill="#231f20"/>
    <rect x="153" y="23" width="1" height="1" fill="#231f20"/>
    <rect x="0" y="24" width="1" height="1" fill="#231f20"/>
    <rect x="153" y="24" width="1" height="1" fill="#231f20"/>
    <rect x="0" y="25" width="1" height="1" fill="#231f20"/>
    <rect x="35" y="25" width="1" height="1" fill="#231f20"/>
    <rect x="37" y="25" width="1" height="1" fill="#231f20"/>
    <rect x="66" y="25" width="1" height="1" fill="#231f20"/>
    <rect x="127" y="25" width="1" height="1" fill="#231f20"/>
    <rect x="153" y="25" width="1" height="1" fill="#231f20"/>
    <rect x="0" y="26" width="1" height="1" fill="#231f20"/>
    <rect x="35" y="26" width="1" height="1" fill="#231f20"/>
    <rect x="37" y="26" width="1" height="1" fill="#231f20"/>
    <rect x="65" y="26" width="1" height="1" fill="#231f20"/>
    <rect x="67" y="26" width="1" height="1" fill="#231f20"/>
    <rect x="126" y="26" width="1" height="1" fill="#231f20"/>
    <rect x="128" y="26" width="1" height="1" fill="#231f20"/>
    <rect x="153" y="26" width="1" height="1" fill="#231f20"/>
    <rect x="0" y="27" width="1" height="1" fill="#231f20"/>
    <rect x="34" y="27" width="1" height="1" fill="#231f20"/>
    <rect x="38" y="27" width="1" height="1" fill="#231f20"/>
    <rect x="65" y="27" width="1" height="1" fill="#231f20"/>
    <rect x="67" y="27" width="1" height="1" fill="#231f20"/>
    <rect x="93" y="27" width="3" height="1" fill="#231f20"/>
    <rect x="97" y="27" width="3" height="1" fill="#231f20"/>
    <rect x="126" y="27" width="1" height="1" fill="#231f20"/>
    <rect x="128" y="27" width="1" height="1" fill="#231f20"/>
    <rect x="153" y="27" width="1" height="1" fill="#231f20"/>
    <rect x="0" y="28" width="1" height="1" fill="#231f20"/>
    <rect x="34" y="28" width="1" height="1" fill="#231f20"/>
    <rect x="38" y="28" width="1" height="1" fill="#231f20"/>
    <rect x="64" y="28" width="1" height="1" fill="#231f20"/>
    <rect x="68" y="28" width="1" height="1" fill="#231f20"/>
    <rect x="94" y="28" width="2" height="1" fill="#231f20"/>
    <rect x="97" y="28" width="2" height="1" fill="#231f20"/>
    <rect x="125" y="28" width="1" height="1" fill="#231f20"/>
    <rect x="129" y="28" width="1" height="1" fill="#231f20"/>
    <rect x="153" y="28" width="1" height="1" fill="#231f20"/>
    <rect x="0" y="29" width="1" height="1" fill="#231f20"/>
    <rect x="33" y="29" width="1" height="1" fill="#231f20"/>
    <rect x="39" y="29" width="1" height="1" fill="#231f20"/>
    <rect x="64" y="29" width="1" height="1" fill="#231f20"/>
    <rect x="68" y="29" width="1" height="1" fill="#231f20"/>
    <rect x="94" y="29" width="2" height="1" fill="#231f20"/>
    <rect x="97" y="29" width="2" height="1" fill="#231f20"/>
    <rect x="125" y="29" width="1" height="1" fill="#231f20"/>
    <rect x="129" y="29" width="1" height="1" fill="#231f20"/>
    <rect x="153" y="29" width="1" height="1" fill="#231f20"/>
    <rect x="0" y="30" width="1" height="1" fill="#231f20"/>
    <rect x="33" y="30" width="1" height="1" fill="#231f20"/>
    <rect x="39" y="30" width="1" height="1" fill="#231f20"/>
    <rect x="63" y="30" width="1" height="1" fill="#231f20"/>
    <rect x="69" y="30" width="1" height="1" fill="#231f20"/>
    <rect x="94" y="30" width="2" height="1" fill="#231f20"/>
    <rect x="97" y="30" width="2" height="1" fill="#231f20"/>
    <rect x="124" y="30" width="1" height="1" fill="#231f20"/>
    <rect x="130" y="30" width="1" height="1" fill="#231f20"/>
    <rect x="153" y="30" width="1" height="1" fill="#231f20"/>
    <rect x="0" y="31" width="1" height="1" fill="#231f20"/>
    <rect x="33" y="31" width="1" height="1" fill="#231f20"/>
    <rect x="39" y="31" width="1" height="1" fill="#231f20"/>
    <rect x="63" y="31" width="1" height="1" fill="#231f20"/>
    <rect x="69" y="31" width="1" height="1" fill="#231f20"/>
    <rect x="94" y="31" width="1" height="1" fill="#231f20"/>
    <rect x="96" y="31" width="1" height="1" fill="#231f20"/>
    <rect x="98" y="31" width="1" height="1" fill="#231f20"/>
    <rect x="124" y="31" width="1" height="1" fill="#231f20"/>
    <rect x="130" y="31" width="1" height="1" fill="#231f20"/>
    <rect x="153" y="31" width="1" height="1" fill="#231f20"/>
    <rect x="0" y="32" width="1" height="1" fill="#231f20"/>
    <rect x="32" y="32" width="1" height="1" fill="#231f20"/>
    <rect x="40" y="32" width="1" height="1" fill="#231f20"/>
    <rect x="62" y="32" width="1" height="1" fill="#231f20"/>
    <rect x="70" y="32" width="1" height="1" fill="#231f20"/>
    <rect x="94" y="32" width="1" height="1" fill="#231f20"/>
    <rect x="96" y="32" width="1" height="1" fill="#231f20"/>
    <rect x="98" y="32" width="1" height="1" fill="#231f20"/>
    <rect x="123" y="32" width="1" height="1" fill="#231f20"/>
    <rect x="131" y="32" width="1" height="1" fill="#231f20"/>
    <rect x="153" y="32" width="1" height="1" fill="#231f20"/>
    <rect x="0" y="33" width="1" height="1" fill="#231f20"/>
    <rect x="32" y="33" width="1" height="1" fill="#231f20"/>
    <rect x="40" y="33" width="1" height="1" fill="#231f20"/>
    <rect x="62" y="33" width="1" height="1" fill="#231f20"/>
    <rect x="70" y="33" width="1" height="1" fill="#231f20"/>
    <rect x="94" y="33" width="1" height="1" fill="#231f20"/>
    <rect x="96" y="33" width="1" height="1" fill="#231f20"/>
    <rect x="98" y="33" width="1" height="1" fill="#231f20"/>
    <rect x="123" y="33" width="1" height="1" fill="#231f20"/>
    <rect x="131" y="33" width="1" height="1" fill="#231f20"/>
    <rect x="153" y="33" width="1" height="1" fill="#231f20"/>
    <rect x="0" y="34" width="1" height="1" fill="#231f20"/>
    <rect x="31" y="34" width="1" height="1" fill="#231f20"/>
    <rect x="41" y="34" width="1" height="1" fill="#231f20"/>
    <rect x="61" y="34" width="11" height="1" fill="#231f20"/>
    <rect x="94" y="34" width="1" height="1" fill="#231f20"/>
    <rect x="96" y="34" width="1" height="1" fill="#231f20"/>
    <rect x="98" y="34" width="1" height="1" fill="#231f20"/>
    <rect x="122" y="34" width="11" height="1" fill="#231f20"/>
    <rect x="153" y="34" width="1" height="1" fill="#231f20"/>
    <rect x="0" y="35" width="1" height="1" fill="#231f20"/>
    <rect x="31" y="35" width="1" height="1" fill="#231f20"/>
    <rect x="41" y="35" width="1" height="1" fill="#231f20"/>
    <rect x="93" y="35" width="2" height="1" fill="#231f20"/>
    <rect x="96" y="35" width="1" height="1" fill="#231f20"/>
    <rect x="98" y="35" width="2" height="1" fill="#231f20"/>
    <rect x="153" y="35" width="1" height="1" fill="#231f20"/>
    <rect x="0" y="36" width="1" height="1" fill="#231f20"/>
    <rect x="153" y="36" width="1" height="1" fill="#231f20"/>
    <rect x="0" y="37" width="1" height="1" fill="#231f20"/>
    <rect x="153" y="37" width="1" height="1" fill="#231f20"/>
    <rect x="0" y="38" width="1" height="1" fill="#231f20"/>
    <rect x="153" y="38" width="1" height="1" fill="#231f20"/>
    <rect x="0" y="39" width="1" height="1" fill="#231f20"/>
    <rect x="153" y="39" width="1" height="1" fill="#231f20"/>
    <rect x="0" y="40" width="154" height="1" fill="#231f20"/>
    <rect x="0" y="41" width="1" height="1" fill="#231f20"/>
    <rect x="153" y="41" width="1" height="1" fill="#231f20"/>
    <rect x="0" y="42" width="1" height="1" fill="#231f20"/>
    <rect x="153" y="42" width="1" height="1" fill="#231f20"/>
    <rect x="0" y="43" width="1" height="1" fill="#231f20"/>
    <rect x="153" y="43" width="1" height="1" fill="#231f20"/>
    <rect x="0" y="44" width="1" height="1" fill="#231f20"/>
    <rect x="153" y="44" width="1" height="1" fill="#231f20"/>
    <rect x="0" y="45" width="1" height="1" fill="#231f20"/>
    <rect x="116" y="45" width="1" height="1" fill="#231f20"/>
    <rect x="118" y="45" width="1" height="1" fill="#231f20"/>
    <rect x="153" y="45" width="1" height="1" fill="#231f20"/>
    <rect x="0" y="46" width="1" height="1" fill="#231f20"/>
    <rect x="26" y="46" width="1" height="1" fill="#231f20"/>
    <rect x="87" y="46" width="1" height="1" fill="#231f20"/>
    <rect x="116" y="46" width="1" height="1" fill="#231f20"/>
    <rect x="118" y="46" width="1" height="1" fill="#231f20"/>
    <rect x="153" y="46" width="1" height="1" fill="#231f20"/>
    <rect x="0" y="47" width="1" height="1" fill="#231f20"/>
    <rect x="25" y="47" width="1" height="1" fill="#231f20"/>
    <rect x="27" y="47" width="1" height="1" fill="#231f20"/>
    <rect x="53" y="47" width="3" height="1" fill="#231f20"/>
    <rect x="57" y="47" width="3" height="1" fill="#231f20"/>
    <rect x="86" y="47" width="1" height="1" fill="#231f20"/>
    <rect x="88" y="47" width="1" height="1" fill="#231f20"/>
    <rect x="115" y="47" width="1" height="1" fill="#231f20"/>
    <rect x="119" y="47" width="1" height="1" fill="#231f20"/>
    <rect x="153" y="47" width="1" height="1" fill="#231f20"/>
    <rect x="0" y="48" width="1" height="1" fill="#231f20"/>
    <rect x="25" y="48" width="1" height="1" fill="#231f20"/>
    <rect x="27" y="48" width="1" height="1" fill="#231f20"/>
    <rect x="54" y="48" width="2" height="1" fill="#231f20"/>
    <rect x="57" y="48" width="2" height="1" fill="#231f20"/>
    <rect x="86" y="48" width="1" height="1" fill="#231f20"/>
    <rect x="88" y="48" width="1" height="1" fill="#231f20"/>
    <rect x="115" y="48" width="1" height="1" fill="#231f20"/>
    <rect x="119" y="48" width="1" height="1" fill="#231f20"/>
    <rect x="153" y="48" width="1" height="1" fill="#231f20"/>
    <rect x="0" y="49" width="1" height="1" fill="#231f20"/>
    <rect x="24" y="49" width="1" height="1" fill="#231f20"/>
    <rect x="28" y="49" width="1" height="1" fill="#231f20"/>
    <rect x="54" y="49" width="2" height="1" fill="#231f20"/>
    <rect x="57" y="49" width="2" height="1" fill="#231f20"/>
    <rect x="85" y="49" width="1" height="1" fill="#231f20"/>
    <rect x="89" y="49" width="1" height="1" fill="#231f20"/>
    <rect x="114" y="49" width="1" height="1" fill="#231f20"/>
    <rect x="120" y="49" width="1" height="1" fill="#231f20"/>
    <rect x="153" y="49" width="1" height="1" fill="#231f20"/>
    <rect x="0" y="50" width="1" height="1" fill="#231f20"/>
    <rect x="24" y="50" width="1" height="1" fill="#231f20"/>
    <rect x="28" y="50" width="1" height="1" fill="#231f20"/>
    <rect x="54" y="50" width="2" height="1" fill="#231f20"/>
    <rect x="57" y="50" width="2" height="1" fill="#231f20"/>
    <rect x="85" y="50" width="1" height="1" fill="#231f20"/>
    <rect x="89" y="50" width="1" height="1" fill="#231f20"/>
    <rect x="114" y="50" width="1" height="1" fill="#231f20"/>
    <rect x="120" y="50" width="1" height="1" fill="#231f20"/>
    <rect x="153" y="50" width="1" height="1" fill="#231f20"/>
    <rect x="0" y="51" width="1" height="1" fill="#231f20"/>
    <rect x="23" y="51" width="1" height="1" fill="#231f20"/>
    <rect x="29" y="51" width="1" height="1" fill="#231f20"/>
    <rect x="54" y="51" width="1" height="1" fill="#231f20"/>
    <rect x="56" y="51" width="1" height="1" fill="#231f20"/>
    <rect x="58" y="51" width="1" height="1" fill="#231f20"/>
    <rect x="84" y="51" width="1" height="1" fill="#231f20"/>
    <rect x="90" y="51" width="1" height="1" fill="#231f20"/>
    <rect x="114" y="51" width="1" height="1" fill="#231f20"/>
    <rect x="120" y="51" width="1" height="1" fill="#231f20"/>
    <rect x="153" y="51" width="1" height="1" fill="#231f20"/>
    <rect x="0" y="52" width="1" height="1" fill="#231f20"/>
    <rect x="23" y="52" width="1" height="1" fill="#231f20"/>
    <rect x="29" y="52" width="1" height="1" fill="#231f20"/>
    <rect x="54" y="52" width="1" height="1" fill="#231f20"/>
    <rect x="56" y="52" width="1" height="1" fill="#231f20"/>
    <rect x="58" y="52" width="1" height="1" fill="#231f20"/>
    <rect x="84" y="52" width="1" height="1" fill="#231f20"/>
    <rect x="90" y="52" width="1" height="1" fill="#231f20"/>
    <rect x="113" y="52" width="1" height="1" fill="#231f20"/>
    <rect x="121" y="52" width="1" height="1" fill="#231f20"/>
    <rect x="153" y="52" width="1" height="1" fill="#231f20"/>
    <rect x="0" y="53" width="1" height="1" fill="#231f20"/>
    <rect x="22" y="53" width="1" height="1" fill="#231f20"/>
    <rect x="30" y="53" width="1" height="1" fill="#231f20"/>
    <rect x="54" y="53" width="1" height="1" fill="#231f20"/>
    <rect x="56" y="53" width="1" height="1" fill="#231f20"/>
    <rect x="58" y="53" width="1" height="1" fill="#231f20"/>
    <rect x="83" y="53" width="1" height="1" fill="#231f20"/>
    <rect x="91" y="53" width="1" height="1" fill="#231f20"/>
    <rect x="113" y="53" width="1" height="1" fill="#231f20"/>
    <rect x="121" y="53" width="1" height="1" fill="#231f20"/>
    <rect x="153" y="53" width="1" height="1" fill="#231f20"/>
    <rect x="0" y="54" width="1" height="1" fill="#231f20"/>
    <rect x="22" y="54" width="1" height="1" fill="#231f20"/>
    <rect x="30" y="54" width="1" height="1" fill="#231f20"/>
    <rect x="54" y="54" width="1" height="1" fill="#231f20"/>
    <rect x="56" y="54" width="1" height="1" fill="#231f20"/>
    <rect x="58" y="54" width="1" height="1" fill="#231f20"/>
    <rect x="83" y="54" width="1" height="1" fill="#231f20"/>
    <rect x="91" y="54" width="1" height="1" fill="#231f20"/>
    <rect x="112" y="54" width="1" height="1" fill="#231f20"/>
    <rect x="122" y="54" width="1" height="1" fill="#231f20"/>
    <rect x="153" y="54" width="1" height="1" fill="#231f20"/>
    <rect x="0" y="55" width="1" height="1" fill="#231f20"/>
    <rect x="21" y="55" width="11" height="1" fill="#231f20"/>
    <rect x="53" y="55" width="2" height="1" fill="#231f20"/>
    <rect x="56" y="55" width="1" height="1" fill="#231f20"/>
    <rect x="58" y="55" width="2" height="1" fill="#231f20"/>
    <rect x="82" y="55" width="11" height="1" fill="#231f20"/>
    <rect x="112" y="55" width="1" height="1" fill="#231f20"/>
    <rect x="122" y="55" width="1" height="1" fill="#231f20"/>
    <rect x="153" y="55" width="1" height="1" fill="#231f20"/>
    <rect x="0" y="56" width="1" height="1" fill="#231f20"/>
    <rect x="153" y="56" width="1" height="1" fill="#231f20"/>
    <rect x="0" y="57" width="1" height="1" fill="#231f20"/>
    <rect x="153" y="57" width="1" height="1" fill="#231f20"/>
    <rect x="0" y="58" width="1" height="1" fill="#231f20"/>
    <rect x="153" y="58" width="1" height="1" fill="#231f20"/>
    <rect x="0" y="59" width="1" height="1" fill="#231f20"/>
    <rect x="153" y="59" width="1" height="1" fill="#231f20"/>
    <rect x="0" y="60" width="154" height="1" fill="#231f20"/>
  </g>
</svg>