<?xml version="1.0" encoding="UTF-8"?>
<svg xmlns="http://www.w3.org/2000/svg" viewBox="0 0 308 202" width="308" height="202">
  <!-- Auto-converted from legend-078.png -->
  <rect x="0" y="0" width="308" height="202" fill="none"/>
  <g fill="#c1c0c0" stroke="none">
    <rect x="2" y="1" width="306" height="1" fill="#c1c0c0"/>
    <rect x="1" y="2" width="307" height="1" fill="#c1c0c0"/>
    <rect x="1" y="3" width="307" height="1" fill="#c1c0c0"/>
    <rect x="1" y="4" width="307" height="1" fill="#c1c0c0"/>
    <rect x="1" y="5" width="4" height="1" fill="#c1c0c0"/>
    <rect x="303" y="5" width="5" height="1" fill="#c1c0c0"/>
    <rect x="1" y="6" width="4" height="1" fill="#c1c0c0"/>
    <rect x="303" y="6" width="5" height="1" fill="#c1c0c0"/>
    <rect x="1" y="7" width="4" height="1" fill="#c1c0c0"/>
    <rect x="303" y="7" width="5" height="1" fill="#c1c0c0"/>
    <rect x="1" y="8" width="4" height="1" fill="#c1c0c0"/>
    <rect x="303" y="8" width="5" height="1" fill="#c1c0c0"/>
    <rect x="1" y="9" width="4" height="1" fill="#c1c0c0"/>
    <rect x="303" y="9" width="5" height="1" fill="#c1c0c0"/>
    <rect x="1" y="10" width="4" height="1" fill="#c1c0c0"/>
    <rect x="303" y="10" width="5" height="1" fill="#c1c0c0"/>
    <rect x="1" y="11" width="4" height="1" fill="#c1c0c0"/>
    <rect x="303" y="11" width="5" height="1" fill="#c1c0c0"/>
    <rect x="1" y="12" width="4" height="1" fill="#c1c0c0"/>
    <rect x="303" y="12" width="5" height="1" fill="#c1c0c0"/>
    <rect x="1" y="13" width="4" height="1" fill="#c1c0c0"/>
    <rect x="303" y="13" width="5" height="1" fill="#c1c0c0"/>
    <rect x="1" y="14" width="4" height="1" fill="#c1c0c0"/>
    <rect x="303" y="14" width="5" height="1" fill="#c1c0c0"/>
    <rect x="1" y="15" width="4" height="1" fill="#c1c0c0"/>
    <rect x="303" y="15" width="5" height="1" fill="#c1c0c0"/>
    <rect x="1" y="16" width="4" height="1" fill="#c1c0c0"/>
    <rect x="303" y="16" width="5" height="1" fill="#c1c0c0"/>
    <rect x="1" y="17" width="4" height="1" fill="#c1c0c0"/>
    <rect x="303" y="17" width="5" height="1" fill="#c1c0c0"/>
    <rect x="1" y="18" width="4" height="1" fill="#c1c0c0"/>
    <rect x="303" y="18" width="5" height="1" fill="#c1c0c0"/>
    <rect x="1" y="19" width="4" height="1" fill="#c1c0c0"/>
    <rect x="303" y="19" width="5" height="1" fill="#c1c0c0"/>
    <rect x="1" y="20" width="4" height="1" fill="#c1c0c0"/>
    <rect x="303" y="20" width="5" height="1" fill="#c1c0c0"/>
    <rect x="1" y="21" width="4" height="1" fill="#c1c0c0"/>
    <rect x="303" y="21" width="5" height="1" fill="#c1c0c0"/>
    <rect x="1" y="22" width="4" height="1" fill="#c1c0c0"/>
    <rect x="303" y="22" width="5" height="1" fill="#c1c0c0"/>
    <rect x="1" y="23" width="4" height="1" fill="#c1c0c0"/>
    <rect x="303" y="23" width="5" height="1" fill="#c1c0c0"/>
    <rect x="1" y="24" width="4" height="1" fill="#c1c0c0"/>
    <rect x="303" y="24" width="5" height="1" fill="#c1c0c0"/>
    <rect x="1" y="25" width="4" height="1" fill="#c1c0c0"/>
    <rect x="303" y="25" width="5" height="1" fill="#c1c0c0"/>
    <rect x="1" y="26" width="4" height="1" fill="#c1c0c0"/>
    <rect x="303" y="26" width="5" height="1" fill="#c1c0c0"/>
    <rect x="1" y="27" width="4" height="1" fill="#c1c0c0"/>
    <rect x="303" y="27" width="5" height="1" fill="#c1c0c0"/>
    <rect x="1" y="28" width="4" height="1" fill="#c1c0c0"/>
    <rect x="40" y="28" width="232" height="1" fill="#c1c0c0"/>
    <rect x="303" y="28" width="5" height="1" fill="#c1c0c0"/>
    <rect x="1" y="29" width="4" height="1" fill="#c1c0c0"/>
    <rect x="39" y="29" width="233" height="1" fill="#c1c0c0"/>
    <rect x="303" y="29" width="5" height="1" fill="#c1c0c0"/>
    <rect x="1" y="30" width="4" height="1" fill="#c1c0c0"/>
    <rect x="39" y="30" width="2" height="1" fill="#c1c0c0"/>
    <rect x="270" y="30" width="2" height="1" fill="#c1c0c0"/>
    <rect x="303" y="30" width="5" height="1" fill="#c1c0c0"/>
    <rect x="1" y="31" width="4" height="1" fill="#c1c0c0"/>
    <rect x="39" y="31" width="2" height="1" fill="#c1c0c0"/>
    <rect x="270" y="31" width="2" height="1" fill="#c1c0c0"/>
    <rect x="303" y="31" width="5" height="1" fill="#c1c0c0"/>
    <rect x="1" y="32" width="4" height="1" fill="#c1c0c0"/>
    <rect x="39" y="32" width="2" height="1" fill="#c1c0c0"/>
    <rect x="270" y="32" width="2" height="1" fill="#c1c0c0"/>
    <rect x="303" y="32" width="5" height="1" fill="#c1c0c0"/>
    <rect x="1" y="33" width="4" height="1" fill="#c1c0c0"/>
    <rect x="39" y="33" width="2" height="1" fill="#c1c0c0"/>
    <rect x="270" y="33" width="2" height="1" fill="#c1c0c0"/>
    <rect x="303" y="33" width="5" height="1" fill="#c1c0c0"/>
    <rect x="1" y="34" width="4" height="1" fill="#c1c0c0"/>
    <rect x="39" y="34" width="2" height="1" fill="#c1c0c0"/>
    <rect x="270" y="34" width="2" height="1" fill="#c1c0c0"/>
    <rect x="303" y="34" width="5" height="1" fill="#c1c0c0"/>
    <rect x="1" y="35" width="4" height="1" fill="#c1c0c0"/>
    <rect x="39" y="35" width="2" height="1" fill="#c1c0c0"/>
    <rect x="270" y="35" width="2" height="1" fill="#c1c0c0"/>
    <rect x="303" y="35" width="5" height="1" fill="#c1c0c0"/>
    <rect x="1" y="36" width="4" height="1" fill="#c1c0c0"/>
    <rect x="39" y="36" width="2" height="1" fill="#c1c0c0"/>
    <rect x="270" y="36" width="2" height="1" fill="#c1c0c0"/>
    <rect x="303" y="36" width="5" height="1" fill="#c1c0c0"/>
    <rect x="1" y="37" width="4" height="1" fill="#c1c0c0"/>
    <rect x="39" y="37" width="2" height="1" fill="#c1c0c0"/>
    <rect x="270" y="37" width="2" height="1" fill="#c1c0c0"/>
    <rect x="303" y="37" width="5" height="1" fill="#c1c0c0"/>
    <rect x="1" y="38" width="4" height="1" fill="#c1c0c0"/>
    <rect x="39" y="38" width="2" height="1" fill="#c1c0c0"/>
    <rect x="270" y="38" width="2" height="1" fill="#c1c0c0"/>
    <rect x="303" y="38" width="5" height="1" fill="#c1c0c0"/>
    <rect x="1" y="39" width="4" height="1" fill="#c1c0c0"/>
    <rect x="39" y="39" width="2" height="1" fill="#c1c0c0"/>
    <rect x="270" y="39" width="2" height="1" fill="#c1c0c0"/>
    <rect x="303" y="39" width="5" height="1" fill="#c1c0c0"/>
    <rect x="1" y="40" width="4" height="1" fill="#c1c0c0"/>
    <rect x="39" y="40" width="2" height="1" fill="#c1c0c0"/>
    <rect x="270" y="40" width="2" height="1" fill="#c1c0c0"/>
    <rect x="303" y="40" width="5" height="1" fill="#c1c0c0"/>
    <rect x="1" y="41" width="4" height="1" fill="#c1c0c0"/>
    <rect x="39" y="41" width="2" height="1" fill="#c1c0c0"/>
    <rect x="270" y="41" width="2" height="1" fill="#c1c0c0"/>
    <rect x="303" y="41" width="5" height="1" fill="#c1c0c0"/>
    <rect x="1" y="42" width="4" height="1" fill="#c1c0c0"/>
    <rect x="39" y="42" width="2" height="1" fill="#c1c0c0"/>
    <rect x="270" y="42" width="2" height="1" fill="#c1c0c0"/>
    <rect x="303" y="42" width="5" height="1" fill="#c1c0c0"/>
    <rect x="1" y="43" width="4" height="1" fill="#c1c0c0"/>
    <rect x="39" y="43" width="2" height="1" fill="#c1c0c0"/>
    <rect x="270" y="43" width="2" height="1" fill="#c1c0c0"/>
    <rect x="303" y="43" width="5" height="1" fill="#c1c0c0"/>
    <rect x="1" y="44" width="4" height="1" fill="#c1c0c0"/>
    <rect x="39" y="44" width="2" height="1" fill="#c1c0c0"/>
    <rect x="270" y="44" width="2" height="1" fill="#c1c0c0"/>
    <rect x="303" y="44" width="5" height="1" fill="#c1c0c0"/>
    <rect x="1" y="45" width="4" height="1" fill="#c1c0c0"/>
    <rect x="39" y="45" width="2" height="1" fill="#c1c0c0"/>
    <rect x="270" y="45" width="2" height="1" fill="#c1c0c0"/>
    <rect x="303" y="45" width="5" height="1" fill="#c1c0c0"/>
    <rect x="1" y="46" width="4" height="1" fill="#c1c0c0"/>
    <rect x="39" y="46" width="2" height="1" fill="#c1c0c0"/>
    <rect x="270" y="46" width="2" height="1" fill="#c1c0c0"/>
    <rect x="303" y="46" width="5" height="1" fill="#c1c0c0"/>
    <rect x="1" y="47" width="4" height="1" fill="#c1c0c0"/>
    <rect x="39" y="47" width="2" height="1" fill="#c1c0c0"/>
    <rect x="270" y="47" width="2" height="1" fill="#c1c0c0"/>
    <rect x="303" y="47" width="5" height="1" fill="#c1c0c0"/>
    <rect x="1" y="48" width="4" height="1" fill="#c1c0c0"/>
    <rect x="39" y="48" width="2" height="1" fill="#c1c0c0"/>
    <rect x="270" y="48" width="2" height="1" fill="#c1c0c0"/>
    <rect x="303" y="48" width="5" height="1" fill="#c1c0c0"/>
    <rect x="1" y="49" width="4" height="1" fill="#c1c0c0"/>
    <rect x="39" y="49" width="2" height="1" fill="#c1c0c0"/>
    <rect x="270" y="49" width="2" height="1" fill="#c1c0c0"/>
    <rect x="303" y="49" width="5" height="1" fill="#c1c0c0"/>
    <rect x="1" y="50" width="4" height="1" fill="#c1c0c0"/>
    <rect x="39" y="50" width="2" height="1" fill="#c1c0c0"/>
    <rect x="270" y="50" width="2" height="1" fill="#c1c0c0"/>
    <rect x="303" y="50" width="5" height="1" fill="#c1c0c0"/>
    <rect x="1" y="51" width="4" height="1" fill="#c1c0c0"/>
    <rect x="39" y="51" width="2" height="1" fill="#c1c0c0"/>
    <rect x="270" y="51" width="2" height="1" fill="#c1c0c0"/>
    <rect x="303" y="51" width="5" height="1" fill="#c1c0c0"/>
    <rect x="1" y="52" width="4" height="1" fill="#c1c0c0"/>
    <rect x="39" y="52" width="2" height="1" fill="#c1c0c0"/>
    <rect x="270" y="52" width="2" height="1" fill="#c1c0c0"/>
    <rect x="303" y="52" width="5" height="1" fill="#c1c0c0"/>
    <rect x="1" y="53" width="4" height="1" fill="#c1c0c0"/>
    <rect x="39" y="53" width="2" height="1" fill="#c1c0c0"/>
    <rect x="270" y="53" width="2" height="1" fill="#c1c0c0"/>
    <rect x="303" y="53" width="5" height="1" fill="#c1c0c0"/>
    <rect x="1" y="54" width="4" height="1" fill="#c1c0c0"/>
    <rect x="39" y="54" width="2" height="1" fill="#c1c0c0"/>
    <rect x="270" y="54" width="2" height="1" fill="#c1c0c0"/>
    <rect x="303" y="54" width="5" height="1" fill="#c1c0c0"/>
    <rect x="1" y="55" width="4" height="1" fill="#c1c0c0"/>
    <rect x="39" y="55" width="2" height="1" fill="#c1c0c0"/>
    <rect x="270" y="55" width="2" height="1" fill="#c1c0c0"/>
    <rect x="303" y="55" width="5" height="1" fill="#c1c0c0"/>
    <rect x="1" y="56" width="4" height="1" fill="#c1c0c0"/>
    <rect x="39" y="56" width="2" height="1" fill="#c1c0c0"/>
    <rect x="270" y="56" width="2" height="1" fill="#c1c0c0"/>
    <rect x="303" y="56" width="5" height="1" fill="#c1c0c0"/>
    <rect x="1" y="57" width="4" height="1" fill="#c1c0c0"/>
    <rect x="39" y="57" width="2" height="1" fill="#c1c0c0"/>
    <rect x="270" y="57" width="2" height="1" fill="#c1c0c0"/>
    <rect x="303" y="57" width="5" height="1" fill="#c1c0c0"/>
    <rect x="1" y="58" width="4" height="1" fill="#c1c0c0"/>
    <rect x="39" y="58" width="2" height="1" fill="#c1c0c0"/>
    <rect x="270" y="58" width="2" height="1" fill="#c1c0c0"/>
    <rect x="303" y="58" width="5" height="1" fill="#c1c0c0"/>
    <rect x="1" y="59" width="4" height="1" fill="#c1c0c0"/>
    <rect x="39" y="59" width="2" height="1" fill="#c1c0c0"/>
    <rect x="270" y="59" width="2" height="1" fill="#c1c0c0"/>
    <rect x="303" y="59" width="5" height="1" fill="#c1c0c0"/>
    <rect x="1" y="60" width="4" height="1" fill="#c1c0c0"/>
    <rect x="39" y="60" width="2" height="1" fill="#c1c0c0"/>
    <rect x="270" y="60" width="2" height="1" fill="#c1c0c0"/>
    <rect x="303" y="60" width="5" height="1" fill="#c1c0c0"/>
    <rect x="1" y="61" width="4" height="1" fill="#c1c0c0"/>
    <rect x="39" y="61" width="2" height="1" fill="#c1c0c0"/>
    <rect x="270" y="61" width="2" height="1" fill="#c1c0c0"/>
    <rect x="303" y="61" width="5" height="1" fill="#c1c0c0"/>
    <rect x="1" y="62" width="4" height="1" fill="#c1c0c0"/>
    <rect x="39" y="62" width="2" height="1" fill="#c1c0c0"/>
    <rect x="270" y="62" width="2" height="1" fill="#c1c0c0"/>
    <rect x="303" y="62" width="5" height="1" fill="#c1c0c0"/>
    <rect x="1" y="63" width="4" height="1" fill="#c1c0c0"/>
    <rect x="39" y="63" width="2" height="1" fill="#c1c0c0"/>
    <rect x="270" y="63" width="2" height="1" fill="#c1c0c0"/>
    <rect x="303" y="63" width="5" height="1" fill="#c1c0c0"/>
    <rect x="1" y="64" width="4" height="1" fill="#c1c0c0"/>
    <rect x="39" y="64" width="2" height="1" fill="#c1c0c0"/>
    <rect x="270" y="64" width="2" height="1" fill="#c1c0c0"/>
    <rect x="303" y="64" width="5" height="1" fill="#c1c0c0"/>
    <rect x="1" y="65" width="4" height="1" fill="#c1c0c0"/>
    <rect x="39" y="65" width="2" height="1" fill="#c1c0c0"/>
    <rect x="270" y="65" width="2" height="1" fill="#c1c0c0"/>
    <rect x="303" y="65" width="5" height="1" fill="#c1c0c0"/>
    <rect x="1" y="66" width="4" height="1" fill="#c1c0c0"/>
    <rect x="39" y="66" width="2" height="1" fill="#c1c0c0"/>
    <rect x="270" y="66" width="2" height="1" fill="#c1c0c0"/>
    <rect x="303" y="66" width="5" height="1" fill="#c1c0c0"/>
    <rect x="1" y="67" width="4" height="1" fill="#c1c0c0"/>
    <rect x="39" y="67" width="2" height="1" fill="#c1c0c0"/>
    <rect x="270" y="67" width="2" height="1" fill="#c1c0c0"/>
    <rect x="303" y="67" width="5" height="1" fill="#c1c0c0"/>
    <rect x="1" y="68" width="4" height="1" fill="#c1c0c0"/>
    <rect x="39" y="68" width="2" height="1" fill="#c1c0c0"/>
    <rect x="270" y="68" width="2" height="1" fill="#c1c0c0"/>
    <rect x="303" y="68" width="5" height="1" fill="#c1c0c0"/>
    <rect x="1" y="69" width="4" height="1" fill="#c1c0c0"/>
    <rect x="39" y="69" width="2" height="1" fill="#c1c0c0"/>
    <rect x="270" y="69" width="2" height="1" fill="#c1c0c0"/>
    <rect x="303" y="69" width="5" height="1" fill="#c1c0c0"/>
    <rect x="1" y="70" width="4" height="1" fill="#c1c0c0"/>
    <rect x="39" y="70" width="2" height="1" fill="#c1c0c0"/>
    <rect x="270" y="70" width="2" height="1" fill="#c1c0c0"/>
    <rect x="303" y="70" width="5" height="1" fill="#c1c0c0"/>
    <rect x="1" y="71" width="4" height="1" fill="#c1c0c0"/>
    <rect x="39" y="71" width="2" height="1" fill="#c1c0c0"/>
    <rect x="270" y="71" width="2" height="1" fill="#c1c0c0"/>
    <rect x="303" y="71" width="5" height="1" fill="#c1c0c0"/>
    <rect x="1" y="72" width="4" height="1" fill="#c1c0c0"/>
    <rect x="39" y="72" width="2" height="1" fill="#c1c0c0"/>
    <rect x="270" y="72" width="2" height="1" fill="#c1c0c0"/>
    <rect x="303" y="72" width="5" height="1" fill="#c1c0c0"/>
    <rect x="1" y="73" width="4" height="1" fill="#c1c0c0"/>
    <rect x="39" y="73" width="2" height="1" fill="#c1c0c0"/>
    <rect x="270" y="73" width="2" height="1" fill="#c1c0c0"/>
    <rect x="303" y="73" width="5" height="1" fill="#c1c0c0"/>
    <rect x="1" y="74" width="4" height="1" fill="#c1c0c0"/>
    <rect x="39" y="74" width="2" height="1" fill="#c1c0c0"/>
    <rect x="270" y="74" width="2" height="1" fill="#c1c0c0"/>
    <rect x="303" y="74" width="5" height="1" fill="#c1c0c0"/>
    <rect x="1" y="75" width="4" height="1" fill="#c1c0c0"/>
    <rect x="39" y="75" width="2" height="1" fill="#c1c0c0"/>
    <rect x="270" y="75" width="2" height="1" fill="#c1c0c0"/>
    <rect x="303" y="75" width="5" height="1" fill="#c1c0c0"/>
    <rect x="1" y="76" width="4" height="1" fill="#c1c0c0"/>
    <rect x="39" y="76" width="2" height="1" fill="#c1c0c0"/>
    <rect x="270" y="76" width="2" height="1" fill="#c1c0c0"/>
    <rect x="303" y="76" width="5" height="1" fill="#c1c0c0"/>
    <rect x="1" y="77" width="4" height="1" fill="#c1c0c0"/>
    <rect x="39" y="77" width="2" height="1" fill="#c1c0c0"/>
    <rect x="270" y="77" width="2" height="1" fill="#c1c0c0"/>
    <rect x="303" y="77" width="5" height="1" fill="#c1c0c0"/>
    <rect x="1" y="78" width="4" height="1" fill="#c1c0c0"/>
    <rect x="39" y="78" width="2" height="1" fill="#c1c0c0"/>
    <rect x="270" y="78" width="2" height="1" fill="#c1c0c0"/>
    <rect x="303" y="78" width="5" height="1" fill="#c1c0c0"/>
    <rect x="1" y="79" width="4" height="1" fill="#c1c0c0"/>
    <rect x="39" y="79" width="2" height="1" fill="#c1c0c0"/>
    <rect x="270" y="79" width="2" height="1" fill="#c1c0c0"/>
    <rect x="303" y="79" width="5" height="1" fill="#c1c0c0"/>
    <rect x="1" y="80" width="4" height="1" fill="#c1c0c0"/>
    <rect x="39" y="80" width="2" height="1" fill="#c1c0c0"/>
    <rect x="270" y="80" width="2" height="1" fill="#c1c0c0"/>
    <rect x="303" y="80" width="5" height="1" fill="#c1c0c0"/>
    <rect x="1" y="81" width="4" height="1" fill="#c1c0c0"/>
    <rect x="39" y="81" width="2" height="1" fill="#c1c0c0"/>
    <rect x="270" y="81" width="2" height="1" fill="#c1c0c0"/>
    <rect x="303" y="81" width="5" height="1" fill="#c1c0c0"/>
    <rect x="1" y="82" width="4" height="1" fill="#c1c0c0"/>
    <rect x="39" y="82" width="2" height="1" fill="#c1c0c0"/>
    <rect x="270" y="82" width="2" height="1" fill="#c1c0c0"/>
    <rect x="303" y="82" width="5" height="1" fill="#c1c0c0"/>
    <rect x="1" y="83" width="4" height="1" fill="#c1c0c0"/>
    <rect x="39" y="83" width="2" height="1" fill="#c1c0c0"/>
    <rect x="270" y="83" width="2" height="1" fill="#c1c0c0"/>
    <rect x="303" y="83" width="5" height="1" fill="#c1c0c0"/>
    <rect x="1" y="84" width="4" height="1" fill="#c1c0c0"/>
    <rect x="39" y="84" width="2" height="1" fill="#c1c0c0"/>
    <rect x="270" y="84" width="2" height="1" fill="#c1c0c0"/>
    <rect x="303" y="84" width="5" height="1" fill="#c1c0c0"/>
    <rect x="1" y="85" width="4" height="1" fill="#c1c0c0"/>
    <rect x="39" y="85" width="2" height="1" fill="#c1c0c0"/>
    <rect x="270" y="85" width="2" height="1" fill="#c1c0c0"/>
    <rect x="303" y="85" width="5" height="1" fill="#c1c0c0"/>
    <rect x="1" y="86" width="4" height="1" fill="#c1c0c0"/>
    <rect x="39" y="86" width="2" height="1" fill="#c1c0c0"/>
    <rect x="270" y="86" width="2" height="1" fill="#c1c0c0"/>
    <rect x="303" y="86" width="5" height="1" fill="#c1c0c0"/>
    <rect x="1" y="87" width="4" height="1" fill="#c1c0c0"/>
    <rect x="39" y="87" width="2" height="1" fill="#c1c0c0"/>
    <rect x="270" y="87" width="2" height="1" fill="#c1c0c0"/>
    <rect x="303" y="87" width="5" height="1" fill="#c1c0c0"/>
    <rect x="1" y="88" width="4" height="1" fill="#c1c0c0"/>
    <rect x="39" y="88" width="2" height="1" fill="#c1c0c0"/>
    <rect x="270" y="88" width="2" height="1" fill="#c1c0c0"/>
    <rect x="303" y="88" width="5" height="1" fill="#c1c0c0"/>
    <rect x="1" y="89" width="4" height="1" fill="#c1c0c0"/>
    <rect x="39" y="89" width="2" height="1" fill="#c1c0c0"/>
    <rect x="270" y="89" width="2" height="1" fill="#c1c0c0"/>
    <rect x="303" y="89" width="5" height="1" fill="#c1c0c0"/>
    <rect x="1" y="90" width="4" height="1" fill="#c1c0c0"/>
    <rect x="39" y="90" width="2" height="1" fill="#c1c0c0"/>
    <rect x="270" y="90" width="2" height="1" fill="#c1c0c0"/>
    <rect x="303" y="90" width="5" height="1" fill="#c1c0c0"/>
    <rect x="1" y="91" width="4" height="1" fill="#c1c0c0"/>
    <rect x="39" y="91" width="2" height="1" fill="#c1c0c0"/>
    <rect x="270" y="91" width="2" height="1" fill="#c1c0c0"/>
    <rect x="303" y="91" width="5" height="1" fill="#c1c0c0"/>
    <rect x="1" y="92" width="4" height="1" fill="#c1c0c0"/>
    <rect x="39" y="92" width="2" height="1" fill="#c1c0c0"/>
    <rect x="270" y="92" width="2" height="1" fill="#c1c0c0"/>
    <rect x="303" y="92" width="5" height="1" fill="#c1c0c0"/>
    <rect x="1" y="93" width="4" height="1" fill="#c1c0c0"/>
    <rect x="39" y="93" width="2" height="1" fill="#c1c0c0"/>
    <rect x="270" y="93" width="2" height="1" fill="#c1c0c0"/>
    <rect x="303" y="93" width="5" height="1" fill="#c1c0c0"/>
    <rect x="1" y="94" width="4" height="1" fill="#c1c0c0"/>
    <rect x="39" y="94" width="2" height="1" fill="#c1c0c0"/>
    <rect x="270" y="94" width="2" height="1" fill="#c1c0c0"/>
    <rect x="303" y="94" width="5" height="1" fill="#c1c0c0"/>
    <rect x="1" y="95" width="4" height="1" fill="#c1c0c0"/>
    <rect x="39" y="95" width="2" height="1" fill="#c1c0c0"/>
    <rect x="270" y="95" width="2" height="1" fill="#c1c0c0"/>
    <rect x="303" y="95" width="5" height="1" fill="#c1c0c0"/>
    <rect x="1" y="96" width="4" height="1" fill="#c1c0c0"/>
    <rect x="39" y="96" width="2" height="1" fill="#c1c0c0"/>
    <rect x="270" y="96" width="2" height="1" fill="#c1c0c0"/>
    <rect x="303" y="96" width="5" height="1" fill="#c1c0c0"/>
    <rect x="1" y="97" width="4" height="1" fill="#c1c0c0"/>
    <rect x="39" y="97" width="2" height="1" fill="#c1c0c0"/>
    <rect x="270" y="97" width="2" height="1" fill="#c1c0c0"/>
    <rect x="303" y="97" width="5" height="1" fill="#c1c0c0"/>
    <rect x="1" y="98" width="4" height="1" fill="#c1c0c0"/>
    <rect x="39" y="98" width="2" height="1" fill="#c1c0c0"/>
    <rect x="270" y="98" width="2" height="1" fill="#c1c0c0"/>
    <rect x="303" y="98" width="5" height="1" fill="#c1c0c0"/>
    <rect x="1" y="99" width="4" height="1" fill="#c1c0c0"/>
    <rect x="39" y="99" width="2" height="1" fill="#c1c0c0"/>
    <rect x="270" y="99" width="2" height="1" fill="#c1c0c0"/>
    <rect x="303" y="99" width="5" height="1" fill="#c1c0c0"/>
    <rect x="1" y="100" width="4" height="1" fill="#c1c0c0"/>
    <rect x="39" y="100" width="2" height="1" fill="#c1c0c0"/>
    <rect x="270" y="100" width="2" height="1" fill="#c1c0c0"/>
    <rect x="303" y="100" width="5" height="1" fill="#c1c0c0"/>
    <rect x="1" y="101" width="4" height="1" fill="#c1c0c0"/>
    <rect x="39" y="101" width="2" height="1" fill="#c1c0c0"/>
    <rect x="270" y="101" width="2" height="1" fill="#c1c0c0"/>
    <rect x="303" y="101" width="5" height="1" fill="#c1c0c0"/>
    <rect x="1" y="102" width="4" height="1" fill="#c1c0c0"/>
    <rect x="39" y="102" width="2" height="1" fill="#c1c0c0"/>
    <rect x="270" y="102" width="2" height="1" fill="#c1c0c0"/>
    <rect x="303" y="102" width="5" height="1" fill="#c1c0c0"/>
    <rect x="1" y="103" width="4" height="1" fill="#c1c0c0"/>
    <rect x="39" y="103" width="2" height="1" fill="#c1c0c0"/>
    <rect x="270" y="103" width="2" height="1" fill="#c1c0c0"/>
    <rect x="303" y="103" width="5" height="1" fill="#c1c0c0"/>
    <rect x="1" y="104" width="4" height="1" fill="#c1c0c0"/>
    <rect x="39" y="104" width="2" height="1" fill="#c1c0c0"/>
    <rect x="270" y="104" width="2" height="1" fill="#c1c0c0"/>
    <rect x="303" y="104" width="5" height="1" fill="#c1c0c0"/>
    <rect x="1" y="105" width="4" height="1" fill="#c1c0c0"/>
    <rect x="39" y="105" width="2" height="1" fill="#c1c0c0"/>
    <rect x="270" y="105" width="2" height="1" fill="#c1c0c0"/>
    <rect x="303" y="105" width="5" height="1" fill="#c1c0c0"/>
    <rect x="1" y="106" width="4" height="1" fill="#c1c0c0"/>
    <rect x="39" y="106" width="2" height="1" fill="#c1c0c0"/>
    <rect x="270" y="106" width="2" height="1" fill="#c1c0c0"/>
    <rect x="303" y="106" width="5" height="1" fill="#c1c0c0"/>
    <rect x="1" y="107" width="4" height="1" fill="#c1c0c0"/>
    <rect x="39" y="107" width="2" height="1" fill="#c1c0c0"/>
    <rect x="270" y="107" width="2" height="1" fill="#c1c0c0"/>
    <rect x="303" y="107" width="5" height="1" fill="#c1c0c0"/>
    <rect x="1" y="108" width="4" height="1" fill="#c1c0c0"/>
    <rect x="39" y="108" width="2" height="1" fill="#c1c0c0"/>
    <rect x="270" y="108" width="2" height="1" fill="#c1c0c0"/>
    <rect x="303" y="108" width="5" height="1" fill="#c1c0c0"/>
    <rect x="1" y="109" width="4" height="1" fill="#c1c0c0"/>
    <rect x="39" y="109" width="2" height="1" fill="#c1c0c0"/>
    <rect x="270" y="109" width="2" height="1" fill="#c1c0c0"/>
    <rect x="303" y="109" width="5" height="1" fill="#c1c0c0"/>
    <rect x="1" y="110" width="4" height="1" fill="#c1c0c0"/>
    <rect x="39" y="110" width="2" height="1" fill="#c1c0c0"/>
    <rect x="270" y="110" width="2" height="1" fill="#c1c0c0"/>
    <rect x="303" y="110" width="5" height="1" fill="#c1c0c0"/>
    <rect x="1" y="111" width="4" height="1" fill="#c1c0c0"/>
    <rect x="39" y="111" width="2" height="1" fill="#c1c0c0"/>
    <rect x="270" y="111" width="2" height="1" fill="#c1c0c0"/>
    <rect x="303" y="111" width="5" height="1" fill="#c1c0c0"/>
    <rect x="1" y="112" width="4" height="1" fill="#c1c0c0"/>
    <rect x="39" y="112" width="2" height="1" fill="#c1c0c0"/>
    <rect x="270" y="112" width="2" height="1" fill="#c1c0c0"/>
    <rect x="303" y="112" width="5" height="1" fill="#c1c0c0"/>
    <rect x="1" y="113" width="4" height="1" fill="#c1c0c0"/>
    <rect x="39" y="113" width="2" height="1" fill="#c1c0c0"/>
    <rect x="270" y="113" width="2" height="1" fill="#c1c0c0"/>
    <rect x="303" y="113" width="5" height="1" fill="#c1c0c0"/>
    <rect x="1" y="114" width="4" height="1" fill="#c1c0c0"/>
    <rect x="39" y="114" width="2" height="1" fill="#c1c0c0"/>
    <rect x="270" y="114" width="2" height="1" fill="#c1c0c0"/>
    <rect x="303" y="114" width="5" height="1" fill="#c1c0c0"/>
    <rect x="1" y="115" width="4" height="1" fill="#c1c0c0"/>
    <rect x="39" y="115" width="2" height="1" fill="#c1c0c0"/>
    <rect x="270" y="115" width="2" height="1" fill="#c1c0c0"/>
    <rect x="303" y="115" width="5" height="1" fill="#c1c0c0"/>
    <rect x="1" y="116" width="4" height="1" fill="#c1c0c0"/>
    <rect x="39" y="116" width="2" height="1" fill="#c1c0c0"/>
    <rect x="270" y="116" width="2" height="1" fill="#c1c0c0"/>
    <rect x="303" y="116" width="5" height="1" fill="#c1c0c0"/>
    <rect x="1" y="117" width="4" height="1" fill="#c1c0c0"/>
    <rect x="39" y="117" width="2" height="1" fill="#c1c0c0"/>
    <rect x="270" y="117" width="2" height="1" fill="#c1c0c0"/>
    <rect x="303" y="117" width="5" height="1" fill="#c1c0c0"/>
    <rect x="1" y="118" width="4" height="1" fill="#c1c0c0"/>
    <rect x="39" y="118" width="2" height="1" fill="#c1c0c0"/>
    <rect x="270" y="118" width="2" height="1" fill="#c1c0c0"/>
    <rect x="303" y="118" width="5" height="1" fill="#c1c0c0"/>
    <rect x="1" y="119" width="4" height="1" fill="#c1c0c0"/>
    <rect x="39" y="119" width="2" height="1" fill="#c1c0c0"/>
    <rect x="270" y="119" width="2" height="1" fill="#c1c0c0"/>
    <rect x="303" y="119" width="5" height="1" fill="#c1c0c0"/>
    <rect x="1" y="120" width="4" height="1" fill="#c1c0c0"/>
    <rect x="39" y="120" width="2" height="1" fill="#c1c0c0"/>
    <rect x="270" y="120" width="2" height="1" fill="#c1c0c0"/>
    <rect x="303" y="120" width="5" height="1" fill="#c1c0c0"/>
    <rect x="1" y="121" width="4" height="1" fill="#c1c0c0"/>
    <rect x="39" y="121" width="2" height="1" fill="#c1c0c0"/>
    <rect x="270" y="121" width="2" height="1" fill="#c1c0c0"/>
    <rect x="303" y="121" width="5" height="1" fill="#c1c0c0"/>
    <rect x="1" y="122" width="4" height="1" fill="#c1c0c0"/>
    <rect x="39" y="122" width="2" height="1" fill="#c1c0c0"/>
    <rect x="270" y="122" width="2" height="1" fill="#c1c0c0"/>
    <rect x="303" y="122" width="5" height="1" fill="#c1c0c0"/>
    <rect x="1" y="123" width="4" height="1" fill="#c1c0c0"/>
    <rect x="39" y="123" width="2" height="1" fill="#c1c0c0"/>
    <rect x="270" y="123" width="2" height="1" fill="#c1c0c0"/>
    <rect x="303" y="123" width="5" height="1" fill="#c1c0c0"/>
    <rect x="1" y="124" width="4" height="1" fill="#c1c0c0"/>
    <rect x="39" y="124" width="2" height="1" fill="#c1c0c0"/>
    <rect x="270" y="124" width="2" height="1" fill="#c1c0c0"/>
    <rect x="303" y="124" width="5" height="1" fill="#c1c0c0"/>
    <rect x="1" y="125" width="4" height="1" fill="#c1c0c0"/>
    <rect x="39" y="125" width="2" height="1" fill="#c1c0c0"/>
    <rect x="270" y="125" width="2" height="1" fill="#c1c0c0"/>
    <rect x="303" y="125" width="5" height="1" fill="#c1c0c0"/>
    <rect x="1" y="126" width="4" height="1" fill="#c1c0c0"/>
    <rect x="39" y="126" width="2" height="1" fill="#c1c0c0"/>
    <rect x="270" y="126" width="2" height="1" fill="#c1c0c0"/>
    <rect x="303" y="126" width="5" height="1" fill="#c1c0c0"/>
    <rect x="1" y="127" width="4" height="1" fill="#c1c0c0"/>
    <rect x="39" y="127" width="2" height="1" fill="#c1c0c0"/>
    <rect x="270" y="127" width="2" height="1" fill="#c1c0c0"/>
    <rect x="303" y="127" width="5" height="1" fill="#c1c0c0"/>
    <rect x="1" y="128" width="4" height="1" fill="#c1c0c0"/>
    <rect x="39" y="128" width="2" height="1" fill="#c1c0c0"/>
    <rect x="270" y="128" width="2" height="1" fill="#c1c0c0"/>
    <rect x="303" y="128" width="5" height="1" fill="#c1c0c0"/>
    <rect x="1" y="129" width="4" height="1" fill="#c1c0c0"/>
    <rect x="39" y="129" width="2" height="1" fill="#c1c0c0"/>
    <rect x="270" y="129" width="2" height="1" fill="#c1c0c0"/>
    <rect x="303" y="129" width="5" height="1" fill="#c1c0c0"/>
    <rect x="1" y="130" width="4" height="1" fill="#c1c0c0"/>
    <rect x="39" y="130" width="2" height="1" fill="#c1c0c0"/>
    <rect x="270" y="130" width="2" height="1" fill="#c1c0c0"/>
    <rect x="303" y="130" width="5" height="1" fill="#c1c0c0"/>
    <rect x="1" y="131" width="4" height="1" fill="#c1c0c0"/>
    <rect x="39" y="131" width="2" height="1" fill="#c1c0c0"/>
    <rect x="270" y="131" width="2" height="1" fill="#c1c0c0"/>
    <rect x="303" y="131" width="5" height="1" fill="#c1c0c0"/>
    <rect x="1" y="132" width="4" height="1" fill="#c1c0c0"/>
    <rect x="39" y="132" width="2" height="1" fill="#c1c0c0"/>
    <rect x="270" y="132" width="2" height="1" fill="#c1c0c0"/>
    <rect x="303" y="132" width="5" height="1" fill="#c1c0c0"/>
    <rect x="1" y="133" width="4" height="1" fill="#c1c0c0"/>
    <rect x="39" y="133" width="2" height="1" fill="#c1c0c0"/>
    <rect x="270" y="133" width="2" height="1" fill="#c1c0c0"/>
    <rect x="303" y="133" width="5" height="1" fill="#c1c0c0"/>
    <rect x="1" y="134" width="4" height="1" fill="#c1c0c0"/>
    <rect x="39" y="134" width="2" height="1" fill="#c1c0c0"/>
    <rect x="270" y="134" width="2" height="1" fill="#c1c0c0"/>
    <rect x="303" y="134" width="5" height="1" fill="#c1c0c0"/>
    <rect x="1" y="135" width="4" height="1" fill="#c1c0c0"/>
    <rect x="39" y="135" width="2" height="1" fill="#c1c0c0"/>
    <rect x="270" y="135" width="2" height="1" fill="#c1c0c0"/>
    <rect x="303" y="135" width="5" height="1" fill="#c1c0c0"/>
    <rect x="1" y="136" width="4" height="1" fill="#c1c0c0"/>
    <rect x="39" y="136" width="2" height="1" fill="#c1c0c0"/>
    <rect x="270" y="136" width="2" height="1" fill="#c1c0c0"/>
    <rect x="303" y="136" width="5" height="1" fill="#c1c0c0"/>
    <rect x="1" y="137" width="4" height="1" fill="#c1c0c0"/>
    <rect x="39" y="137" width="2" height="1" fill="#c1c0c0"/>
    <rect x="270" y="137" width="2" height="1" fill="#c1c0c0"/>
    <rect x="303" y="137" width="5" height="1" fill="#c1c0c0"/>
    <rect x="1" y="138" width="4" height="1" fill="#c1c0c0"/>
    <rect x="39" y="138" width="2" height="1" fill="#c1c0c0"/>
    <rect x="270" y="138" width="2" height="1" fill="#c1c0c0"/>
    <rect x="303" y="138" width="5" height="1" fill="#c1c0c0"/>
    <rect x="1" y="139" width="4" height="1" fill="#c1c0c0"/>
    <rect x="39" y="139" width="2" height="1" fill="#c1c0c0"/>
    <rect x="270" y="139" width="2" height="1" fill="#c1c0c0"/>
    <rect x="303" y="139" width="5" height="1" fill="#c1c0c0"/>
    <rect x="1" y="140" width="4" height="1" fill="#c1c0c0"/>
    <rect x="39" y="140" width="2" height="1" fill="#c1c0c0"/>
    <rect x="270" y="140" width="2" height="1" fill="#c1c0c0"/>
    <rect x="303" y="140" width="5" height="1" fill="#c1c0c0"/>
    <rect x="1" y="141" width="4" height="1" fill="#c1c0c0"/>
    <rect x="39" y="141" width="2" height="1" fill="#c1c0c0"/>
    <rect x="270" y="141" width="2" height="1" fill="#c1c0c0"/>
    <rect x="303" y="141" width="5" height="1" fill="#c1c0c0"/>
    <rect x="1" y="142" width="4" height="1" fill="#c1c0c0"/>
    <rect x="39" y="142" width="2" height="1" fill="#c1c0c0"/>
    <rect x="270" y="142" width="2" height="1" fill="#c1c0c0"/>
    <rect x="303" y="142" width="5" height="1" fill="#c1c0c0"/>
    <rect x="1" y="143" width="4" height="1" fill="#c1c0c0"/>
    <rect x="39" y="143" width="2" height="1" fill="#c1c0c0"/>
    <rect x="270" y="143" width="2" height="1" fill="#c1c0c0"/>
    <rect x="303" y="143" width="5" height="1" fill="#c1c0c0"/>
    <rect x="1" y="144" width="4" height="1" fill="#c1c0c0"/>
    <rect x="39" y="144" width="2" height="1" fill="#c1c0c0"/>
    <rect x="270" y="144" width="2" height="1" fill="#c1c0c0"/>
    <rect x="303" y="144" width="5" height="1" fill="#c1c0c0"/>
    <rect x="1" y="145" width="4" height="1" fill="#c1c0c0"/>
    <rect x="39" y="145" width="2" height="1" fill="#c1c0c0"/>
    <rect x="270" y="145" width="2" height="1" fill="#c1c0c0"/>
    <rect x="303" y="145" width="5" height="1" fill="#c1c0c0"/>
    <rect x="1" y="146" width="4" height="1" fill="#c1c0c0"/>
    <rect x="39" y="146" width="2" height="1" fill="#c1c0c0"/>
    <rect x="270" y="146" width="2" height="1" fill="#c1c0c0"/>
    <rect x="303" y="146" width="5" height="1" fill="#c1c0c0"/>
    <rect x="1" y="147" width="4" height="1" fill="#c1c0c0"/>
    <rect x="39" y="147" width="2" height="1" fill="#c1c0c0"/>
    <rect x="270" y="147" width="2" height="1" fill="#c1c0c0"/>
    <rect x="303" y="147" width="5" height="1" fill="#c1c0c0"/>
    <rect x="1" y="148" width="4" height="1" fill="#c1c0c0"/>
    <rect x="39" y="148" width="2" height="1" fill="#c1c0c0"/>
    <rect x="270" y="148" width="2" height="1" fill="#c1c0c0"/>
    <rect x="303" y="148" width="5" height="1" fill="#c1c0c0"/>
    <rect x="1" y="149" width="4" height="1" fill="#c1c0c0"/>
    <rect x="39" y="149" width="2" height="1" fill="#c1c0c0"/>
    <rect x="270" y="149" width="2" height="1" fill="#c1c0c0"/>
    <rect x="303" y="149" width="5" height="1" fill="#c1c0c0"/>
    <rect x="1" y="150" width="4" height="1" fill="#c1c0c0"/>
    <rect x="39" y="150" width="2" height="1" fill="#c1c0c0"/>
    <rect x="270" y="150" width="2" height="1" fill="#c1c0c0"/>
    <rect x="303" y="150" width="5" height="1" fill="#c1c0c0"/>
    <rect x="1" y="151" width="4" height="1" fill="#c1c0c0"/>
    <rect x="39" y="151" width="2" height="1" fill="#c1c0c0"/>
    <rect x="270" y="151" width="2" height="1" fill="#c1c0c0"/>
    <rect x="303" y="151" width="5" height="1" fill="#c1c0c0"/>
    <rect x="1" y="152" width="4" height="1" fill="#c1c0c0"/>
    <rect x="39" y="152" width="2" height="1" fill="#c1c0c0"/>
    <rect x="270" y="152" width="2" height="1" fill="#c1c0c0"/>
    <rect x="303" y="152" width="5" height="1" fill="#c1c0c0"/>
    <rect x="1" y="153" width="4" height="1" fill="#c1c0c0"/>
    <rect x="39" y="153" width="2" height="1" fill="#c1c0c0"/>
    <rect x="270" y="153" width="2" height="1" fill="#c1c0c0"/>
    <rect x="303" y="153" width="5" height="1" fill="#c1c0c0"/>
    <rect x="1" y="154" width="4" height="1" fill="#c1c0c0"/>
    <rect x="39" y="154" width="2" height="1" fill="#c1c0c0"/>
    <rect x="270" y="154" width="2" height="1" fill="#c1c0c0"/>
    <rect x="303" y="154" width="5" height="1" fill="#c1c0c0"/>
    <rect x="1" y="155" width="4" height="1" fill="#c1c0c0"/>
    <rect x="39" y="155" width="2" height="1" fill="#c1c0c0"/>
    <rect x="270" y="155" width="2" height="1" fill="#c1c0c0"/>
    <rect x="303" y="155" width="5" height="1" fill="#c1c0c0"/>
    <rect x="1" y="156" width="4" height="1" fill="#c1c0c0"/>
    <rect x="39" y="156" width="2" height="1" fill="#c1c0c0"/>
    <rect x="270" y="156" width="2" height="1" fill="#c1c0c0"/>
    <rect x="303" y="156" width="5" height="1" fill="#c1c0c0"/>
    <rect x="1" y="157" width="4" height="1" fill="#c1c0c0"/>
    <rect x="39" y="157" width="2" height="1" fill="#c1c0c0"/>
    <rect x="270" y="157" width="2" height="1" fill="#c1c0c0"/>
    <rect x="303" y="157" width="5" height="1" fill="#c1c0c0"/>
    <rect x="1" y="158" width="4" height="1" fill="#c1c0c0"/>
    <rect x="39" y="158" width="2" height="1" fill="#c1c0c0"/>
    <rect x="270" y="158" width="2" height="1" fill="#c1c0c0"/>
    <rect x="303" y="158" width="5" height="1" fill="#c1c0c0"/>
    <rect x="1" y="159" width="4" height="1" fill="#c1c0c0"/>
    <rect x="39" y="159" width="2" height="1" fill="#c1c0c0"/>
    <rect x="270" y="159" width="2" height="1" fill="#c1c0c0"/>
    <rect x="303" y="159" width="5" height="1" fill="#c1c0c0"/>
    <rect x="1" y="160" width="4" height="1" fill="#c1c0c0"/>
    <rect x="39" y="160" width="2" height="1" fill="#c1c0c0"/>
    <rect x="270" y="160" width="2" height="1" fill="#c1c0c0"/>
    <rect x="303" y="160" width="5" height="1" fill="#c1c0c0"/>
    <rect x="1" y="161" width="4" height="1" fill="#c1c0c0"/>
    <rect x="39" y="161" width="2" height="1" fill="#c1c0c0"/>
    <rect x="270" y="161" width="2" height="1" fill="#c1c0c0"/>
    <rect x="303" y="161" width="5" height="1" fill="#c1c0c0"/>
    <rect x="1" y="162" width="4" height="1" fill="#c1c0c0"/>
    <rect x="39" y="162" width="2" height="1" fill="#c1c0c0"/>
    <rect x="270" y="162" width="2" height="1" fill="#c1c0c0"/>
    <rect x="303" y="162" width="5" height="1" fill="#c1c0c0"/>
    <rect x="1" y="163" width="4" height="1" fill="#c1c0c0"/>
    <rect x="39" y="163" width="2" height="1" fill="#c1c0c0"/>
    <rect x="270" y="163" width="2" height="1" fill="#c1c0c0"/>
    <rect x="303" y="163" width="5" height="1" fill="#c1c0c0"/>
    <rect x="1" y="164" width="4" height="1" fill="#c1c0c0"/>
    <rect x="39" y="164" width="2" height="1" fill="#c1c0c0"/>
    <rect x="270" y="164" width="2" height="1" fill="#c1c0c0"/>
    <rect x="303" y="164" width="5" height="1" fill="#c1c0c0"/>
    <rect x="1" y="165" width="4" height="1" fill="#c1c0c0"/>
    <rect x="39" y="165" width="2" height="1" fill="#c1c0c0"/>
    <rect x="270" y="165" width="2" height="1" fill="#c1c0c0"/>
    <rect x="303" y="165" width="5" height="1" fill="#c1c0c0"/>
    <rect x="1" y="166" width="4" height="1" fill="#c1c0c0"/>
    <rect x="39" y="166" width="2" height="1" fill="#c1c0c0"/>
    <rect x="270" y="166" width="2" height="1" fill="#c1c0c0"/>
    <rect x="303" y="166" width="5" height="1" fill="#c1c0c0"/>
    <rect x="1" y="167" width="4" height="1" fill="#c1c0c0"/>
    <rect x="39" y="167" width="2" height="1" fill="#c1c0c0"/>
    <rect x="270" y="167" width="2" height="1" fill="#c1c0c0"/>
    <rect x="303" y="167" width="5" height="1" fill="#c1c0c0"/>
    <rect x="1" y="168" width="4" height="1" fill="#c1c0c0"/>
    <rect x="39" y="168" width="2" height="1" fill="#c1c0c0"/>
    <rect x="270" y="168" width="2" height="1" fill="#c1c0c0"/>
    <rect x="303" y="168" width="5" height="1" fill="#c1c0c0"/>
    <rect x="1" y="169" width="4" height="1" fill="#c1c0c0"/>
    <rect x="39" y="169" width="2" height="1" fill="#c1c0c0"/>
    <rect x="270" y="169" width="2" height="1" fill="#c1c0c0"/>
    <rect x="303" y="169" width="5" height="1" fill="#c1c0c0"/>
    <rect x="1" y="170" width="4" height="1" fill="#c1c0c0"/>
    <rect x="39" y="170" width="233" height="1" fill="#c1c0c0"/>
    <rect x="303" y="170" width="5" height="1" fill="#c1c0c0"/>
    <rect x="1" y="171" width="4" height="1" fill="#c1c0c0"/>
    <rect x="39" y="171" width="233" height="1" fill="#c1c0c0"/>
    <rect x="303" y="171" width="5" height="1" fill="#c1c0c0"/>
    <rect x="1" y="172" width="4" height="1" fill="#c1c0c0"/>
    <rect x="39" y="172" width="233" height="1" fill="#c1c0c0"/>
    <rect x="303" y="172" width="5" height="1" fill="#c1c0c0"/>
    <rect x="1" y="173" width="4" height="1" fill="#c1c0c0"/>
    <rect x="303" y="173" width="5" height="1" fill="#c1c0c0"/>
    <rect x="1" y="174" width="4" height="1" fill="#c1c0c0"/>
    <rect x="303" y="174" width="5" height="1" fill="#c1c0c0"/>
    <rect x="1" y="175" width="4" height="1" fill="#c1c0c0"/>
    <rect x="303" y="175" width="5" height="1" fill="#c1c0c0"/>
    <rect x="1" y="176" width="4" height="1" fill="#c1c0c0"/>
    <rect x="303" y="176" width="5" height="1" fill="#c1c0c0"/>
    <rect x="1" y="177" width="4" height="1" fill="#c1c0c0"/>
    <rect x="303" y="177" width="5" height="1" fill="#c1c0c0"/>
    <rect x="1" y="178" width="4" height="1" fill="#c1c0c0"/>
    <rect x="303" y="178" width="5" height="1" fill="#c1c0c0"/>
    <rect x="1" y="179" width="4" height="1" fill="#c1c0c0"/>
    <rect x="303" y="179" width="5" height="1" fill="#c1c0c0"/>
    <rect x="1" y="180" width="4" height="1" fill="#c1c0c0"/>
    <rect x="303" y="180" width="5" height="1" fill="#c1c0c0"/>
    <rect x="1" y="181" width="4" height="1" fill="#c1c0c0"/>
    <rect x="303" y="181" width="5" height="1" fill="#c1c0c0"/>
    <rect x="1" y="182" width="4" height="1" fill="#c1c0c0"/>
    <rect x="303" y="182" width="5" height="1" fill="#c1c0c0"/>
    <rect x="1" y="183" width="4" height="1" fill="#c1c0c0"/>
    <rect x="303" y="183" width="5" height="1" fill="#c1c0c0"/>
    <rect x="1" y="184" width="4" height="1" fill="#c1c0c0"/>
    <rect x="303" y="184" width="5" height="1" fill="#c1c0c0"/>
    <rect x="1" y="185" width="4" height="1" fill="#c1c0c0"/>
    <rect x="303" y="185" width="5" height="1" fill="#c1c0c0"/>
    <rect x="1" y="186" width="4" height="1" fill="#c1c0c0"/>
    <rect x="303" y="186" width="5" height="1" fill="#c1c0c0"/>
    <rect x="1" y="187" width="4" height="1" fill="#c1c0c0"/>
    <rect x="303" y="187" width="5" height="1" fill="#c1c0c0"/>
    <rect x="1" y="188" width="4" height="1" fill="#c1c0c0"/>
    <rect x="303" y="188" width="5" height="1" fill="#c1c0c0"/>
    <rect x="1" y="189" width="4" height="1" fill="#c1c0c0"/>
    <rect x="303" y="189" width="5" height="1" fill="#c1c0c0"/>
    <rect x="1" y="190" width="4" height="1" fill="#c1c0c0"/>
    <rect x="303" y="190" width="5" height="1" fill="#c1c0c0"/>
    <rect x="1" y="191" width="4" height="1" fill="#c1c0c0"/>
    <rect x="303" y="191" width="5" height="1" fill="#c1c0c0"/>
    <rect x="1" y="192" width="4" height="1" fill="#c1c0c0"/>
    <rect x="303" y="192" width="5" height="1" fill="#c1c0c0"/>
    <rect x="1" y="193" width="4" height="1" fill="#c1c0c0"/>
    <rect x="303" y="193" width="5" height="1" fill="#c1c0c0"/>
    <rect x="1" y="194" width="4" height="1" fill="#c1c0c0"/>
    <rect x="303" y="194" width="5" height="1" fill="#c1c0c0"/>
    <rect x="1" y="195" width="4" height="1" fill="#c1c0c0"/>
    <rect x="303" y="195" width="5" height="1" fill="#c1c0c0"/>
    <rect x="1" y="196" width="4" height="1" fill="#c1c0c0"/>
    <rect x="303" y="196" width="5" height="1" fill="#c1c0c0"/>
    <rect x="1" y="197" width="307" height="1" fill="#c1c0c0"/>
    <rect x="1" y="198" width="307" height="1" fill="#c1c0c0"/>
    <rect x="1" y="199" width="307" height="1" fill="#c1c0c0"/>
    <rect x="2" y="200" width="306" height="1" fill="#c1c0c0"/>
  </g>
</svg>