<?xml version="1.0" encoding="UTF-8"?>
<svg xmlns="http://www.w3.org/2000/svg" viewBox="0 0 241 229" width="241" height="229">
  <!-- Auto-converted from legend-2815.png -->
  <rect x="0" y="0" width="241" height="229" fill="none"/>
  <g fill="#292526" stroke="none">
    <rect x="0" y="0" width="241" height="1" fill="#292526"/>
    <rect x="0" y="1" width="241" height="1" fill="#292526"/>
    <rect x="0" y="2" width="241" height="1" fill="#292526"/>
    <rect x="0" y="3" width="241" height="1" fill="#292526"/>
    <rect x="0" y="4" width="241" height="1" fill="#292526"/>
    <rect x="0" y="5" width="4" height="1" fill="#292526"/>
    <rect x="237" y="5" width="4" height="1" fill="#292526"/>
    <rect x="0" y="6" width="5" height="1" fill="#292526"/>
    <rect x="237" y="6" width="4" height="1" fill="#292526"/>
    <rect x="0" y="7" width="5" height="1" fill="#292526"/>
    <rect x="237" y="7" width="4" height="1" fill="#292526"/>
    <rect x="0" y="8" width="5" height="1" fill="#292526"/>
    <rect x="237" y="8" width="4" height="1" fill="#292526"/>
    <rect x="0" y="9" width="5" height="1" fill="#292526"/>
    <rect x="120" y="9" width="3" height="1" fill="#292526"/>
    <rect x="237" y="9" width="4" height="1" fill="#292526"/>
    <rect x="0" y="10" width="5" height="1" fill="#292526"/>
    <rect x="118" y="10" width="6" height="1" fill="#292526"/>
    <rect x="237" y="10" width="4" height="1" fill="#292526"/>
    <rect x="0" y="11" width="5" height="1" fill="#292526"/>
    <rect x="118" y="11" width="7" height="1" fill="#292526"/>
    <rect x="237" y="11" width="4" height="1" fill="#292526"/>
    <rect x="0" y="12" width="5" height="1" fill="#292526"/>
    <rect x="117" y="12" width="8" height="1" fill="#292526"/>
    <rect x="237" y="12" width="4" height="1" fill="#292526"/>
    <rect x="0" y="13" width="5" height="1" fill="#292526"/>
    <rect x="117" y="13" width="8" height="1" fill="#292526"/>
    <rect x="237" y="13" width="4" height="1" fill="#292526"/>
    <rect x="0" y="14" width="5" height="1" fill="#292526"/>
    <rect x="117" y="14" width="8" height="1" fill="#292526"/>
    <rect x="237" y="14" width="4" height="1" fill="#292526"/>
    <rect x="0" y="15" width="5" height="1" fill="#292526"/>
    <rect x="117" y="15" width="8" height="1" fill="#292526"/>
    <rect x="237" y="15" width="4" height="1" fill="#292526"/>
    <rect x="0" y="16" width="5" height="1" fill="#292526"/>
    <rect x="117" y="16" width="8" height="1" fill="#292526"/>
    <rect x="237" y="16" width="4" height="1" fill="#292526"/>
    <rect x="0" y="17" width="5" height="1" fill="#292526"/>
    <rect x="117" y="17" width="8" height="1" fill="#292526"/>
    <rect x="237" y="17" width="4" height="1" fill="#292526"/>
    <rect x="0" y="18" width="5" height="1" fill="#292526"/>
    <rect x="117" y="18" width="8" height="1" fill="#292526"/>
    <rect x="237" y="18" width="4" height="1" fill="#292526"/>
    <rect x="0" y="19" width="5" height="1" fill="#292526"/>
    <rect x="117" y="19" width="8" height="1" fill="#292526"/>
    <rect x="237" y="19" width="4" height="1" fill="#292526"/>
    <rect x="0" y="20" width="5" height="1" fill="#292526"/>
    <rect x="117" y="20" width="8" height="1" fill="#292526"/>
    <rect x="237" y="20" width="4" height="1" fill="#292526"/>
    <rect x="0" y="21" width="5" height="1" fill="#292526"/>
    <rect x="117" y="21" width="8" height="1" fill="#292526"/>
    <rect x="237" y="21" width="4" height="1" fill="#292526"/>
    <rect x="0" y="22" width="5" height="1" fill="#292526"/>
    <rect x="117" y="22" width="8" height="1" fill="#292526"/>
    <rect x="237" y="22" width="4" height="1" fill="#292526"/>
    <rect x="0" y="23" width="5" height="1" fill="#292526"/>
    <rect x="117" y="23" width="8" height="1" fill="#292526"/>
    <rect x="237" y="23" width="4" height="1" fill="#292526"/>
    <rect x="0" y="24" width="5" height="1" fill="#292526"/>
    <rect x="117" y="24" width="8" height="1" fill="#292526"/>
    <rect x="237" y="24" width="4" height="1" fill="#292526"/>
    <rect x="0" y="25" width="5" height="1" fill="#292526"/>
    <rect x="117" y="25" width="8" height="1" fill="#292526"/>
    <rect x="237" y="25" width="4" height="1" fill="#292526"/>
    <rect x="0" y="26" width="5" height="1" fill="#292526"/>
    <rect x="117" y="26" width="8" height="1" fill="#292526"/>
    <rect x="237" y="26" width="4" height="1" fill="#292526"/>
    <rect x="0" y="27" width="5" height="1" fill="#292526"/>
    <rect x="117" y="27" width="8" height="1" fill="#292526"/>
    <rect x="237" y="27" width="4" height="1" fill="#292526"/>
    <rect x="0" y="28" width="5" height="1" fill="#292526"/>
    <rect x="117" y="28" width="8" height="1" fill="#292526"/>
    <rect x="237" y="28" width="4" height="1" fill="#292526"/>
    <rect x="0" y="29" width="5" height="1" fill="#292526"/>
    <rect x="117" y="29" width="8" height="1" fill="#292526"/>
    <rect x="237" y="29" width="4" height="1" fill="#292526"/>
    <rect x="0" y="30" width="5" height="1" fill="#292526"/>
    <rect x="117" y="30" width="8" height="1" fill="#292526"/>
    <rect x="237" y="30" width="4" height="1" fill="#292526"/>
    <rect x="0" y="31" width="5" height="1" fill="#292526"/>
    <rect x="117" y="31" width="8" height="1" fill="#292526"/>
    <rect x="237" y="31" width="4" height="1" fill="#292526"/>
    <rect x="0" y="32" width="5" height="1" fill="#292526"/>
    <rect x="117" y="32" width="8" height="1" fill="#292526"/>
    <rect x="237" y="32" width="4" height="1" fill="#292526"/>
    <rect x="0" y="33" width="5" height="1" fill="#292526"/>
    <rect x="117" y="33" width="8" height="1" fill="#292526"/>
    <rect x="237" y="33" width="4" height="1" fill="#292526"/>
    <rect x="0" y="34" width="5" height="1" fill="#292526"/>
    <rect x="117" y="34" width="8" height="1" fill="#292526"/>
    <rect x="237" y="34" width="4" height="1" fill="#292526"/>
    <rect x="0" y="35" width="5" height="1" fill="#292526"/>
    <rect x="117" y="35" width="8" height="1" fill="#292526"/>
    <rect x="237" y="35" width="4" height="1" fill="#292526"/>
    <rect x="0" y="36" width="5" height="1" fill="#292526"/>
    <rect x="117" y="36" width="8" height="1" fill="#292526"/>
    <rect x="237" y="36" width="4" height="1" fill="#292526"/>
    <rect x="0" y="37" width="5" height="1" fill="#292526"/>
    <rect x="117" y="37" width="8" height="1" fill="#292526"/>
    <rect x="237" y="37" width="4" height="1" fill="#292526"/>
    <rect x="0" y="38" width="5" height="1" fill="#292526"/>
    <rect x="117" y="38" width="8" height="1" fill="#292526"/>
    <rect x="237" y="38" width="4" height="1" fill="#292526"/>
    <rect x="0" y="39" width="5" height="1" fill="#292526"/>
    <rect x="117" y="39" width="8" height="1" fill="#292526"/>
    <rect x="237" y="39" width="4" height="1" fill="#292526"/>
    <rect x="0" y="40" width="5" height="1" fill="#292526"/>
    <rect x="81" y="40" width="80" height="1" fill="#292526"/>
    <rect x="237" y="40" width="4" height="1" fill="#292526"/>
    <rect x="0" y="41" width="5" height="1" fill="#292526"/>
    <rect x="80" y="41" width="82" height="1" fill="#292526"/>
    <rect x="237" y="41" width="4" height="1" fill="#292526"/>
    <rect x="0" y="42" width="5" height="1" fill="#292526"/>
    <rect x="79" y="42" width="84" height="1" fill="#292526"/>
    <rect x="237" y="42" width="4" height="1" fill="#292526"/>
    <rect x="0" y="43" width="5" height="1" fill="#292526"/>
    <rect x="79" y="43" width="84" height="1" fill="#292526"/>
    <rect x="237" y="43" width="4" height="1" fill="#292526"/>
    <rect x="0" y="44" width="5" height="1" fill="#292526"/>
    <rect x="79" y="44" width="84" height="1" fill="#292526"/>
    <rect x="237" y="44" width="4" height="1" fill="#292526"/>
    <rect x="0" y="45" width="5" height="1" fill="#292526"/>
    <rect x="79" y="45" width="84" height="1" fill="#292526"/>
    <rect x="237" y="45" width="4" height="1" fill="#292526"/>
    <rect x="0" y="46" width="5" height="1" fill="#292526"/>
    <rect x="80" y="46" width="82" height="1" fill="#292526"/>
    <rect x="237" y="46" width="4" height="1" fill="#292526"/>
    <rect x="0" y="47" width="5" height="1" fill="#292526"/>
    <rect x="81" y="47" width="81" height="1" fill="#292526"/>
    <rect x="237" y="47" width="4" height="1" fill="#292526"/>
    <rect x="0" y="48" width="5" height="1" fill="#292526"/>
    <rect x="117" y="48" width="8" height="1" fill="#292526"/>
    <rect x="237" y="48" width="4" height="1" fill="#292526"/>
    <rect x="0" y="49" width="5" height="1" fill="#292526"/>
    <rect x="117" y="49" width="8" height="1" fill="#292526"/>
    <rect x="237" y="49" width="4" height="1" fill="#292526"/>
    <rect x="0" y="50" width="5" height="1" fill="#292526"/>
    <rect x="117" y="50" width="8" height="1" fill="#292526"/>
    <rect x="237" y="50" width="4" height="1" fill="#292526"/>
    <rect x="0" y="51" width="5" height="1" fill="#292526"/>
    <rect x="117" y="51" width="8" height="1" fill="#292526"/>
    <rect x="237" y="51" width="4" height="1" fill="#292526"/>
    <rect x="0" y="52" width="5" height="1" fill="#292526"/>
    <rect x="117" y="52" width="8" height="1" fill="#292526"/>
    <rect x="237" y="52" width="4" height="1" fill="#292526"/>
    <rect x="0" y="53" width="5" height="1" fill="#292526"/>
    <rect x="117" y="53" width="8" height="1" fill="#292526"/>
    <rect x="237" y="53" width="4" height="1" fill="#292526"/>
    <rect x="0" y="54" width="5" height="1" fill="#292526"/>
    <rect x="117" y="54" width="8" height="1" fill="#292526"/>
    <rect x="237" y="54" width="4" height="1" fill="#292526"/>
    <rect x="0" y="55" width="5" height="1" fill="#292526"/>
    <rect x="117" y="55" width="8" height="1" fill="#292526"/>
    <rect x="237" y="55" width="4" height="1" fill="#292526"/>
    <rect x="0" y="56" width="5" height="1" fill="#292526"/>
    <rect x="117" y="56" width="8" height="1" fill="#292526"/>
    <rect x="237" y="56" width="4" height="1" fill="#292526"/>
    <rect x="0" y="57" width="5" height="1" fill="#292526"/>
    <rect x="117" y="57" width="8" height="1" fill="#292526"/>
    <rect x="237" y="57" width="4" height="1" fill="#292526"/>
    <rect x="0" y="58" width="5" height="1" fill="#292526"/>
    <rect x="117" y="58" width="8" height="1" fill="#292526"/>
    <rect x="237" y="58" width="4" height="1" fill="#292526"/>
    <rect x="0" y="59" width="5" height="1" fill="#292526"/>
    <rect x="117" y="59" width="8" height="1" fill="#292526"/>
    <rect x="237" y="59" width="4" height="1" fill="#292526"/>
    <rect x="0" y="60" width="5" height="1" fill="#292526"/>
    <rect x="117" y="60" width="8" height="1" fill="#292526"/>
    <rect x="237" y="60" width="4" height="1" fill="#292526"/>
    <rect x="0" y="61" width="5" height="1" fill="#292526"/>
    <rect x="117" y="61" width="8" height="1" fill="#292526"/>
    <rect x="237" y="61" width="4" height="1" fill="#292526"/>
    <rect x="0" y="62" width="5" height="1" fill="#292526"/>
    <rect x="117" y="62" width="8" height="1" fill="#292526"/>
    <rect x="237" y="62" width="4" height="1" fill="#292526"/>
    <rect x="0" y="63" width="5" height="1" fill="#292526"/>
    <rect x="117" y="63" width="8" height="1" fill="#292526"/>
    <rect x="237" y="63" width="4" height="1" fill="#292526"/>
    <rect x="0" y="64" width="5" height="1" fill="#292526"/>
    <rect x="117" y="64" width="8" height="1" fill="#292526"/>
    <rect x="237" y="64" width="4" height="1" fill="#292526"/>
    <rect x="0" y="65" width="5" height="1" fill="#292526"/>
    <rect x="117" y="65" width="8" height="1" fill="#292526"/>
    <rect x="237" y="65" width="4" height="1" fill="#292526"/>
    <rect x="0" y="66" width="5" height="1" fill="#292526"/>
    <rect x="117" y="66" width="8" height="1" fill="#292526"/>
    <rect x="237" y="66" width="4" height="1" fill="#292526"/>
    <rect x="0" y="67" width="5" height="1" fill="#292526"/>
    <rect x="117" y="67" width="8" height="1" fill="#292526"/>
    <rect x="237" y="67" width="4" height="1" fill="#292526"/>
    <rect x="0" y="68" width="5" height="1" fill="#292526"/>
    <rect x="117" y="68" width="8" height="1" fill="#292526"/>
    <rect x="237" y="68" width="4" height="1" fill="#292526"/>
    <rect x="0" y="69" width="5" height="1" fill="#292526"/>
    <rect x="117" y="69" width="8" height="1" fill="#292526"/>
    <rect x="237" y="69" width="4" height="1" fill="#292526"/>
    <rect x="0" y="70" width="5" height="1" fill="#292526"/>
    <rect x="117" y="70" width="8" height="1" fill="#292526"/>
    <rect x="237" y="70" width="4" height="1" fill="#292526"/>
    <rect x="0" y="71" width="5" height="1" fill="#292526"/>
    <rect x="82" y="71" width="77" height="1" fill="#292526"/>
    <rect x="237" y="71" width="4" height="1" fill="#292526"/>
    <rect x="0" y="72" width="5" height="1" fill="#292526"/>
    <rect x="80" y="72" width="82" height="1" fill="#292526"/>
    <rect x="237" y="72" width="4" height="1" fill="#292526"/>
    <rect x="0" y="73" width="5" height="1" fill="#292526"/>
    <rect x="79" y="73" width="84" height="1" fill="#292526"/>
    <rect x="237" y="73" width="4" height="1" fill="#292526"/>
    <rect x="0" y="74" width="5" height="1" fill="#292526"/>
    <rect x="79" y="74" width="84" height="1" fill="#292526"/>
    <rect x="237" y="74" width="4" height="1" fill="#292526"/>
    <rect x="0" y="75" width="5" height="1" fill="#292526"/>
    <rect x="79" y="75" width="84" height="1" fill="#292526"/>
    <rect x="237" y="75" width="4" height="1" fill="#292526"/>
    <rect x="0" y="76" width="5" height="1" fill="#292526"/>
    <rect x="79" y="76" width="84" height="1" fill="#292526"/>
    <rect x="237" y="76" width="4" height="1" fill="#292526"/>
    <rect x="0" y="77" width="5" height="1" fill="#292526"/>
    <rect x="79" y="77" width="84" height="1" fill="#292526"/>
    <rect x="237" y="77" width="4" height="1" fill="#292526"/>
    <rect x="0" y="78" width="5" height="1" fill="#292526"/>
    <rect x="80" y="78" width="82" height="1" fill="#292526"/>
    <rect x="237" y="78" width="4" height="1" fill="#292526"/>
    <rect x="0" y="79" width="5" height="1" fill="#292526"/>
    <rect x="117" y="79" width="8" height="1" fill="#292526"/>
    <rect x="237" y="79" width="4" height="1" fill="#292526"/>
    <rect x="0" y="80" width="5" height="1" fill="#292526"/>
    <rect x="117" y="80" width="8" height="1" fill="#292526"/>
    <rect x="237" y="80" width="4" height="1" fill="#292526"/>
    <rect x="0" y="81" width="5" height="1" fill="#292526"/>
    <rect x="117" y="81" width="8" height="1" fill="#292526"/>
    <rect x="237" y="81" width="4" height="1" fill="#292526"/>
    <rect x="0" y="82" width="5" height="1" fill="#292526"/>
    <rect x="117" y="82" width="8" height="1" fill="#292526"/>
    <rect x="237" y="82" width="4" height="1" fill="#292526"/>
    <rect x="0" y="83" width="5" height="1" fill="#292526"/>
    <rect x="117" y="83" width="8" height="1" fill="#292526"/>
    <rect x="237" y="83" width="4" height="1" fill="#292526"/>
    <rect x="0" y="84" width="5" height="1" fill="#292526"/>
    <rect x="117" y="84" width="8" height="1" fill="#292526"/>
    <rect x="237" y="84" width="4" height="1" fill="#292526"/>
    <rect x="0" y="85" width="5" height="1" fill="#292526"/>
    <rect x="117" y="85" width="8" height="1" fill="#292526"/>
    <rect x="237" y="85" width="4" height="1" fill="#292526"/>
    <rect x="0" y="86" width="5" height="1" fill="#292526"/>
    <rect x="117" y="86" width="8" height="1" fill="#292526"/>
    <rect x="237" y="86" width="4" height="1" fill="#292526"/>
    <rect x="0" y="87" width="5" height="1" fill="#292526"/>
    <rect x="117" y="87" width="8" height="1" fill="#292526"/>
    <rect x="237" y="87" width="4" height="1" fill="#292526"/>
    <rect x="0" y="88" width="5" height="1" fill="#292526"/>
    <rect x="117" y="88" width="8" height="1" fill="#292526"/>
    <rect x="237" y="88" width="4" height="1" fill="#292526"/>
    <rect x="0" y="89" width="5" height="1" fill="#292526"/>
    <rect x="117" y="89" width="8" height="1" fill="#292526"/>
    <rect x="237" y="89" width="4" height="1" fill="#292526"/>
    <rect x="0" y="90" width="5" height="1" fill="#292526"/>
    <rect x="117" y="90" width="8" height="1" fill="#292526"/>
    <rect x="237" y="90" width="4" height="1" fill="#292526"/>
    <rect x="0" y="91" width="5" height="1" fill="#292526"/>
    <rect x="117" y="91" width="8" height="1" fill="#292526"/>
    <rect x="237" y="91" width="4" height="1" fill="#292526"/>
    <rect x="0" y="92" width="5" height="1" fill="#292526"/>
    <rect x="117" y="92" width="8" height="1" fill="#292526"/>
    <rect x="237" y="92" width="4" height="1" fill="#292526"/>
    <rect x="0" y="93" width="5" height="1" fill="#292526"/>
    <rect x="117" y="93" width="8" height="1" fill="#292526"/>
    <rect x="237" y="93" width="4" height="1" fill="#292526"/>
    <rect x="0" y="94" width="5" height="1" fill="#292526"/>
    <rect x="117" y="94" width="8" height="1" fill="#292526"/>
    <rect x="237" y="94" width="4" height="1" fill="#292526"/>
    <rect x="0" y="95" width="5" height="1" fill="#292526"/>
    <rect x="117" y="95" width="8" height="1" fill="#292526"/>
    <rect x="237" y="95" width="4" height="1" fill="#292526"/>
    <rect x="0" y="96" width="5" height="1" fill="#292526"/>
    <rect x="117" y="96" width="8" height="1" fill="#292526"/>
    <rect x="237" y="96" width="4" height="1" fill="#292526"/>
    <rect x="0" y="97" width="5" height="1" fill="#292526"/>
    <rect x="117" y="97" width="8" height="1" fill="#292526"/>
    <rect x="237" y="97" width="4" height="1" fill="#292526"/>
    <rect x="0" y="98" width="5" height="1" fill="#292526"/>
    <rect x="117" y="98" width="8" height="1" fill="#292526"/>
    <rect x="237" y="98" width="4" height="1" fill="#292526"/>
    <rect x="0" y="99" width="5" height="1" fill="#292526"/>
    <rect x="117" y="99" width="8" height="1" fill="#292526"/>
    <rect x="237" y="99" width="4" height="1" fill="#292526"/>
    <rect x="0" y="100" width="5" height="1" fill="#292526"/>
    <rect x="117" y="100" width="8" height="1" fill="#292526"/>
    <rect x="237" y="100" width="4" height="1" fill="#292526"/>
    <rect x="0" y="101" width="5" height="1" fill="#292526"/>
    <rect x="117" y="101" width="8" height="1" fill="#292526"/>
    <rect x="237" y="101" width="4" height="1" fill="#292526"/>
    <rect x="0" y="102" width="5" height="1" fill="#292526"/>
    <rect x="117" y="102" width="8" height="1" fill="#292526"/>
    <rect x="237" y="102" width="4" height="1" fill="#292526"/>
    <rect x="0" y="103" width="5" height="1" fill="#292526"/>
    <rect x="117" y="103" width="8" height="1" fill="#292526"/>
    <rect x="237" y="103" width="4" height="1" fill="#292526"/>
    <rect x="0" y="104" width="5" height="1" fill="#292526"/>
    <rect x="117" y="104" width="8" height="1" fill="#292526"/>
    <rect x="237" y="104" width="4" height="1" fill="#292526"/>
    <rect x="0" y="105" width="5" height="1" fill="#292526"/>
    <rect x="117" y="105" width="8" height="1" fill="#292526"/>
    <rect x="237" y="105" width="4" height="1" fill="#292526"/>
    <rect x="0" y="106" width="5" height="1" fill="#292526"/>
    <rect x="117" y="106" width="8" height="1" fill="#292526"/>
    <rect x="237" y="106" width="4" height="1" fill="#292526"/>
    <rect x="0" y="107" width="5" height="1" fill="#292526"/>
    <rect x="117" y="107" width="8" height="1" fill="#292526"/>
    <rect x="237" y="107" width="4" height="1" fill="#292526"/>
    <rect x="0" y="108" width="5" height="1" fill="#292526"/>
    <rect x="117" y="108" width="8" height="1" fill="#292526"/>
    <rect x="237" y="108" width="4" height="1" fill="#292526"/>
    <rect x="0" y="109" width="5" height="1" fill="#292526"/>
    <rect x="117" y="109" width="8" height="1" fill="#292526"/>
    <rect x="237" y="109" width="4" height="1" fill="#292526"/>
    <rect x="0" y="110" width="5" height="1" fill="#292526"/>
    <rect x="117" y="110" width="8" height="1" fill="#292526"/>
    <rect x="237" y="110" width="4" height="1" fill="#292526"/>
    <rect x="0" y="111" width="5" height="1" fill="#292526"/>
    <rect x="117" y="111" width="8" height="1" fill="#292526"/>
    <rect x="237" y="111" width="4" height="1" fill="#292526"/>
    <rect x="0" y="112" width="5" height="1" fill="#292526"/>
    <rect x="117" y="112" width="8" height="1" fill="#292526"/>
    <rect x="237" y="112" width="4" height="1" fill="#292526"/>
    <rect x="0" y="113" width="5" height="1" fill="#292526"/>
    <rect x="117" y="113" width="8" height="1" fill="#292526"/>
    <rect x="237" y="113" width="4" height="1" fill="#292526"/>
    <rect x="0" y="114" width="5" height="1" fill="#292526"/>
    <rect x="117" y="114" width="8" height="1" fill="#292526"/>
    <rect x="237" y="114" width="4" height="1" fill="#292526"/>
    <rect x="0" y="115" width="5" height="1" fill="#292526"/>
    <rect x="117" y="115" width="9" height="1" fill="#292526"/>
    <rect x="237" y="115" width="4" height="1" fill="#292526"/>
    <rect x="0" y="116" width="5" height="1" fill="#292526"/>
    <rect x="116" y="116" width="10" height="1" fill="#292526"/>
    <rect x="237" y="116" width="4" height="1" fill="#292526"/>
    <rect x="0" y="117" width="5" height="1" fill="#292526"/>
    <rect x="115" y="117" width="12" height="1" fill="#292526"/>
    <rect x="237" y="117" width="4" height="1" fill="#292526"/>
    <rect x="0" y="118" width="5" height="1" fill="#292526"/>
    <rect x="115" y="118" width="13" height="1" fill="#292526"/>
    <rect x="237" y="118" width="4" height="1" fill="#292526"/>
    <rect x="0" y="119" width="5" height="1" fill="#292526"/>
    <rect x="114" y="119" width="15" height="1" fill="#292526"/>
    <rect x="237" y="119" width="4" height="1" fill="#292526"/>
    <rect x="0" y="120" width="5" height="1" fill="#292526"/>
    <rect x="113" y="120" width="17" height="1" fill="#292526"/>
    <rect x="237" y="120" width="4" height="1" fill="#292526"/>
    <rect x="0" y="121" width="5" height="1" fill="#292526"/>
    <rect x="112" y="121" width="19" height="1" fill="#292526"/>
    <rect x="237" y="121" width="4" height="1" fill="#292526"/>
    <rect x="0" y="122" width="5" height="1" fill="#292526"/>
    <rect x="111" y="122" width="21" height="1" fill="#292526"/>
    <rect x="237" y="122" width="4" height="1" fill="#292526"/>
    <rect x="0" y="123" width="5" height="1" fill="#292526"/>
    <rect x="110" y="123" width="11" height="1" fill="#292526"/>
    <rect x="122" y="123" width="11" height="1" fill="#292526"/>
    <rect x="237" y="123" width="4" height="1" fill="#292526"/>
    <rect x="0" y="124" width="5" height="1" fill="#292526"/>
    <rect x="109" y="124" width="11" height="1" fill="#292526"/>
    <rect x="123" y="124" width="11" height="1" fill="#292526"/>
    <rect x="237" y="124" width="4" height="1" fill="#292526"/>
    <rect x="0" y="125" width="5" height="1" fill="#292526"/>
    <rect x="108" y="125" width="11" height="1" fill="#292526"/>
    <rect x="124" y="125" width="11" height="1" fill="#292526"/>
    <rect x="237" y="125" width="4" height="1" fill="#292526"/>
    <rect x="0" y="126" width="5" height="1" fill="#292526"/>
    <rect x="107" y="126" width="11" height="1" fill="#292526"/>
    <rect x="125" y="126" width="10" height="1" fill="#292526"/>
    <rect x="237" y="126" width="4" height="1" fill="#292526"/>
    <rect x="0" y="127" width="5" height="1" fill="#292526"/>
    <rect x="106" y="127" width="11" height="1" fill="#292526"/>
    <rect x="126" y="127" width="11" height="1" fill="#292526"/>
    <rect x="237" y="127" width="4" height="1" fill="#292526"/>
    <rect x="0" y="128" width="5" height="1" fill="#292526"/>
    <rect x="105" y="128" width="11" height="1" fill="#292526"/>
    <rect x="127" y="128" width="10" height="1" fill="#292526"/>
    <rect x="237" y="128" width="4" height="1" fill="#292526"/>
    <rect x="0" y="129" width="5" height="1" fill="#292526"/>
    <rect x="104" y="129" width="11" height="1" fill="#292526"/>
    <rect x="128" y="129" width="10" height="1" fill="#292526"/>
    <rect x="237" y="129" width="4" height="1" fill="#292526"/>
    <rect x="0" y="130" width="5" height="1" fill="#292526"/>
    <rect x="104" y="130" width="10" height="1" fill="#292526"/>
    <rect x="128" y="130" width="11" height="1" fill="#292526"/>
    <rect x="237" y="130" width="4" height="1" fill="#292526"/>
    <rect x="0" y="131" width="5" height="1" fill="#292526"/>
    <rect x="103" y="131" width="10" height="1" fill="#292526"/>
    <rect x="129" y="131" width="11" height="1" fill="#292526"/>
    <rect x="237" y="131" width="4" height="1" fill="#292526"/>
    <rect x="0" y="132" width="5" height="1" fill="#292526"/>
    <rect x="102" y="132" width="11" height="1" fill="#292526"/>
    <rect x="130" y="132" width="11" height="1" fill="#292526"/>
    <rect x="237" y="132" width="4" height="1" fill="#292526"/>
    <rect x="0" y="133" width="5" height="1" fill="#292526"/>
    <rect x="101" y="133" width="10" height="1" fill="#292526"/>
    <rect x="131" y="133" width="11" height="1" fill="#292526"/>
    <rect x="237" y="133" width="4" height="1" fill="#292526"/>
    <rect x="0" y="134" width="5" height="1" fill="#292526"/>
    <rect x="100" y="134" width="10" height="1" fill="#292526"/>
    <rect x="132" y="134" width="11" height="1" fill="#292526"/>
    <rect x="237" y="134" width="4" height="1" fill="#292526"/>
    <rect x="0" y="135" width="5" height="1" fill="#292526"/>
    <rect x="99" y="135" width="11" height="1" fill="#292526"/>
    <rect x="133" y="135" width="11" height="1" fill="#292526"/>
    <rect x="237" y="135" width="4" height="1" fill="#292526"/>
    <rect x="0" y="136" width="5" height="1" fill="#292526"/>
    <rect x="98" y="136" width="11" height="1" fill="#292526"/>
    <rect x="134" y="136" width="11" height="1" fill="#292526"/>
    <rect x="237" y="136" width="4" height="1" fill="#292526"/>
    <rect x="0" y="137" width="5" height="1" fill="#292526"/>
    <rect x="97" y="137" width="11" height="1" fill="#292526"/>
    <rect x="135" y="137" width="11" height="1" fill="#292526"/>
    <rect x="237" y="137" width="4" height="1" fill="#292526"/>
    <rect x="0" y="138" width="5" height="1" fill="#292526"/>
    <rect x="96" y="138" width="11" height="1" fill="#292526"/>
    <rect x="136" y="138" width="10" height="1" fill="#292526"/>
    <rect x="237" y="138" width="4" height="1" fill="#292526"/>
    <rect x="0" y="139" width="5" height="1" fill="#292526"/>
    <rect x="95" y="139" width="11" height="1" fill="#292526"/>
    <rect x="137" y="139" width="11" height="1" fill="#292526"/>
    <rect x="237" y="139" width="4" height="1" fill="#292526"/>
    <rect x="0" y="140" width="5" height="1" fill="#292526"/>
    <rect x="94" y="140" width="11" height="1" fill="#292526"/>
    <rect x="138" y="140" width="10" height="1" fill="#292526"/>
    <rect x="237" y="140" width="4" height="1" fill="#292526"/>
    <rect x="0" y="141" width="5" height="1" fill="#292526"/>
    <rect x="93" y="141" width="11" height="1" fill="#292526"/>
    <rect x="139" y="141" width="10" height="1" fill="#292526"/>
    <rect x="237" y="141" width="4" height="1" fill="#292526"/>
    <rect x="0" y="142" width="5" height="1" fill="#292526"/>
    <rect x="93" y="142" width="10" height="1" fill="#292526"/>
    <rect x="139" y="142" width="11" height="1" fill="#292526"/>
    <rect x="237" y="142" width="4" height="1" fill="#292526"/>
    <rect x="0" y="143" width="5" height="1" fill="#292526"/>
    <rect x="92" y="143" width="10" height="1" fill="#292526"/>
    <rect x="140" y="143" width="11" height="1" fill="#292526"/>
    <rect x="237" y="143" width="4" height="1" fill="#292526"/>
    <rect x="0" y="144" width="5" height="1" fill="#292526"/>
    <rect x="91" y="144" width="11" height="1" fill="#292526"/>
    <rect x="141" y="144" width="11" height="1" fill="#292526"/>
    <rect x="237" y="144" width="4" height="1" fill="#292526"/>
    <rect x="0" y="145" width="5" height="1" fill="#292526"/>
    <rect x="90" y="145" width="10" height="1" fill="#292526"/>
    <rect x="142" y="145" width="11" height="1" fill="#292526"/>
    <rect x="237" y="145" width="4" height="1" fill="#292526"/>
    <rect x="0" y="146" width="5" height="1" fill="#292526"/>
    <rect x="89" y="146" width="10" height="1" fill="#292526"/>
    <rect x="143" y="146" width="11" height="1" fill="#292526"/>
    <rect x="237" y="146" width="4" height="1" fill="#292526"/>
    <rect x="0" y="147" width="5" height="1" fill="#292526"/>
    <rect x="88" y="147" width="11" height="1" fill="#292526"/>
    <rect x="144" y="147" width="11" height="1" fill="#292526"/>
    <rect x="237" y="147" width="4" height="1" fill="#292526"/>
    <rect x="0" y="148" width="5" height="1" fill="#292526"/>
    <rect x="87" y="148" width="11" height="1" fill="#292526"/>
    <rect x="145" y="148" width="11" height="1" fill="#292526"/>
    <rect x="237" y="148" width="4" height="1" fill="#292526"/>
    <rect x="0" y="149" width="5" height="1" fill="#292526"/>
    <rect x="86" y="149" width="11" height="1" fill="#292526"/>
    <rect x="146" y="149" width="11" height="1" fill="#292526"/>
    <rect x="237" y="149" width="4" height="1" fill="#292526"/>
    <rect x="0" y="150" width="5" height="1" fill="#292526"/>
    <rect x="85" y="150" width="11" height="1" fill="#292526"/>
    <rect x="147" y="150" width="10" height="1" fill="#292526"/>
    <rect x="237" y="150" width="4" height="1" fill="#292526"/>
    <rect x="0" y="151" width="5" height="1" fill="#292526"/>
    <rect x="84" y="151" width="11" height="1" fill="#292526"/>
    <rect x="148" y="151" width="11" height="1" fill="#292526"/>
    <rect x="237" y="151" width="4" height="1" fill="#292526"/>
    <rect x="0" y="152" width="5" height="1" fill="#292526"/>
    <rect x="83" y="152" width="11" height="1" fill="#292526"/>
    <rect x="149" y="152" width="10" height="1" fill="#292526"/>
    <rect x="237" y="152" width="4" height="1" fill="#292526"/>
    <rect x="0" y="153" width="5" height="1" fill="#292526"/>
    <rect x="82" y="153" width="11" height="1" fill="#292526"/>
    <rect x="150" y="153" width="10" height="1" fill="#292526"/>
    <rect x="237" y="153" width="4" height="1" fill="#292526"/>
    <rect x="0" y="154" width="5" height="1" fill="#292526"/>
    <rect x="26" y="154" width="190" height="1" fill="#292526"/>
    <rect x="237" y="154" width="4" height="1" fill="#292526"/>
    <rect x="0" y="155" width="5" height="1" fill="#292526"/>
    <rect x="24" y="155" width="195" height="1" fill="#292526"/>
    <rect x="237" y="155" width="4" height="1" fill="#292526"/>
    <rect x="0" y="156" width="5" height="1" fill="#292526"/>
    <rect x="23" y="156" width="197" height="1" fill="#292526"/>
    <rect x="237" y="156" width="4" height="1" fill="#292526"/>
    <rect x="0" y="157" width="5" height="1" fill="#292526"/>
    <rect x="23" y="157" width="197" height="1" fill="#292526"/>
    <rect x="237" y="157" width="4" height="1" fill="#292526"/>
    <rect x="0" y="158" width="5" height="1" fill="#292526"/>
    <rect x="22" y="158" width="198" height="1" fill="#292526"/>
    <rect x="237" y="158" width="4" height="1" fill="#292526"/>
    <rect x="0" y="159" width="5" height="1" fill="#292526"/>
    <rect x="22" y="159" width="198" height="1" fill="#292526"/>
    <rect x="237" y="159" width="4" height="1" fill="#292526"/>
    <rect x="0" y="160" width="5" height="1" fill="#292526"/>
    <rect x="23" y="160" width="197" height="1" fill="#292526"/>
    <rect x="237" y="160" width="4" height="1" fill="#292526"/>
    <rect x="0" y="161" width="5" height="1" fill="#292526"/>
    <rect x="23" y="161" width="197" height="1" fill="#292526"/>
    <rect x="237" y="161" width="4" height="1" fill="#292526"/>
    <rect x="0" y="162" width="5" height="1" fill="#292526"/>
    <rect x="25" y="162" width="193" height="1" fill="#292526"/>
    <rect x="237" y="162" width="4" height="1" fill="#292526"/>
    <rect x="0" y="163" width="5" height="1" fill="#292526"/>
    <rect x="237" y="163" width="4" height="1" fill="#292526"/>
    <rect x="0" y="164" width="5" height="1" fill="#292526"/>
    <rect x="237" y="164" width="4" height="1" fill="#292526"/>
    <rect x="0" y="165" width="5" height="1" fill="#292526"/>
    <rect x="237" y="165" width="4" height="1" fill="#292526"/>
    <rect x="0" y="166" width="5" height="1" fill="#292526"/>
    <rect x="237" y="166" width="4" height="1" fill="#292526"/>
    <rect x="0" y="167" width="5" height="1" fill="#292526"/>
    <rect x="237" y="167" width="4" height="1" fill="#292526"/>
    <rect x="0" y="168" width="5" height="1" fill="#292526"/>
    <rect x="237" y="168" width="4" height="1" fill="#292526"/>
    <rect x="0" y="169" width="5" height="1" fill="#292526"/>
    <rect x="237" y="169" width="4" height="1" fill="#292526"/>
    <rect x="0" y="170" width="5" height="1" fill="#292526"/>
    <rect x="237" y="170" width="4" height="1" fill="#292526"/>
    <rect x="0" y="171" width="5" height="1" fill="#292526"/>
    <rect x="237" y="171" width="4" height="1" fill="#292526"/>
    <rect x="0" y="172" width="5" height="1" fill="#292526"/>
    <rect x="237" y="172" width="4" height="1" fill="#292526"/>
    <rect x="0" y="173" width="5" height="1" fill="#292526"/>
    <rect x="237" y="173" width="4" height="1" fill="#292526"/>
    <rect x="0" y="174" width="5" height="1" fill="#292526"/>
    <rect x="237" y="174" width="4" height="1" fill="#292526"/>
    <rect x="0" y="175" width="5" height="1" fill="#292526"/>
    <rect x="237" y="175" width="4" height="1" fill="#292526"/>
    <rect x="0" y="176" width="5" height="1" fill="#292526"/>
    <rect x="237" y="176" width="4" height="1" fill="#292526"/>
    <rect x="0" y="177" width="5" height="1" fill="#292526"/>
    <rect x="237" y="177" width="4" height="1" fill="#292526"/>
    <rect x="0" y="178" width="5" height="1" fill="#292526"/>
    <rect x="237" y="178" width="4" height="1" fill="#292526"/>
    <rect x="0" y="179" width="5" height="1" fill="#292526"/>
    <rect x="237" y="179" width="4" height="1" fill="#292526"/>
    <rect x="0" y="180" width="5" height="1" fill="#292526"/>
    <rect x="237" y="180" width="4" height="1" fill="#292526"/>
    <rect x="0" y="181" width="5" height="1" fill="#292526"/>
    <rect x="237" y="181" width="4" height="1" fill="#292526"/>
    <rect x="0" y="182" width="5" height="1" fill="#292526"/>
    <rect x="237" y="182" width="4" height="1" fill="#292526"/>
    <rect x="0" y="183" width="5" height="1" fill="#292526"/>
    <rect x="237" y="183" width="4" height="1" fill="#292526"/>
    <rect x="0" y="184" width="5" height="1" fill="#292526"/>
    <rect x="237" y="184" width="4" height="1" fill="#292526"/>
    <rect x="0" y="185" width="5" height="1" fill="#292526"/>
    <rect x="24" y="185" width="195" height="1" fill="#292526"/>
    <rect x="237" y="185" width="4" height="1" fill="#292526"/>
    <rect x="0" y="186" width="5" height="1" fill="#292526"/>
    <rect x="22" y="186" width="198" height="1" fill="#292526"/>
    <rect x="237" y="186" width="4" height="1" fill="#292526"/>
    <rect x="0" y="187" width="5" height="1" fill="#292526"/>
    <rect x="21" y="187" width="200" height="1" fill="#292526"/>
    <rect x="237" y="187" width="4" height="1" fill="#292526"/>
    <rect x="0" y="188" width="5" height="1" fill="#292526"/>
    <rect x="21" y="188" width="200" height="1" fill="#292526"/>
    <rect x="237" y="188" width="4" height="1" fill="#292526"/>
    <rect x="0" y="189" width="5" height="1" fill="#292526"/>
    <rect x="21" y="189" width="201" height="1" fill="#292526"/>
    <rect x="237" y="189" width="4" height="1" fill="#292526"/>
    <rect x="0" y="190" width="5" height="1" fill="#292526"/>
    <rect x="21" y="190" width="201" height="1" fill="#292526"/>
    <rect x="237" y="190" width="4" height="1" fill="#292526"/>
    <rect x="0" y="191" width="5" height="1" fill="#292526"/>
    <rect x="21" y="191" width="201" height="1" fill="#292526"/>
    <rect x="237" y="191" width="4" height="1" fill="#292526"/>
    <rect x="0" y="192" width="5" height="1" fill="#292526"/>
    <rect x="21" y="192" width="200" height="1" fill="#292526"/>
    <rect x="237" y="192" width="4" height="1" fill="#292526"/>
    <rect x="0" y="193" width="5" height="1" fill="#292526"/>
    <rect x="22" y="193" width="199" height="1" fill="#292526"/>
    <rect x="237" y="193" width="4" height="1" fill="#292526"/>
    <rect x="0" y="194" width="5" height="1" fill="#292526"/>
    <rect x="22" y="194" width="198" height="1" fill="#292526"/>
    <rect x="237" y="194" width="4" height="1" fill="#292526"/>
    <rect x="0" y="195" width="5" height="1" fill="#292526"/>
    <rect x="24" y="195" width="195" height="1" fill="#292526"/>
    <rect x="237" y="195" width="4" height="1" fill="#292526"/>
    <rect x="0" y="196" width="5" height="1" fill="#292526"/>
    <rect x="60" y="196" width="8" height="1" fill="#292526"/>
    <rect x="117" y="196" width="8" height="1" fill="#292526"/>
    <rect x="175" y="196" width="7" height="1" fill="#292526"/>
    <rect x="237" y="196" width="4" height="1" fill="#292526"/>
    <rect x="0" y="197" width="5" height="1" fill="#292526"/>
    <rect x="60" y="197" width="8" height="1" fill="#292526"/>
    <rect x="117" y="197" width="8" height="1" fill="#292526"/>
    <rect x="174" y="197" width="8" height="1" fill="#292526"/>
    <rect x="237" y="197" width="4" height="1" fill="#292526"/>
    <rect x="0" y="198" width="5" height="1" fill="#292526"/>
    <rect x="60" y="198" width="8" height="1" fill="#292526"/>
    <rect x="117" y="198" width="8" height="1" fill="#292526"/>
    <rect x="174" y="198" width="8" height="1" fill="#292526"/>
    <rect x="237" y="198" width="4" height="1" fill="#292526"/>
    <rect x="0" y="199" width="5" height="1" fill="#292526"/>
    <rect x="60" y="199" width="8" height="1" fill="#292526"/>
    <rect x="117" y="199" width="8" height="1" fill="#292526"/>
    <rect x="174" y="199" width="8" height="1" fill="#292526"/>
    <rect x="237" y="199" width="4" height="1" fill="#292526"/>
    <rect x="0" y="200" width="5" height="1" fill="#292526"/>
    <rect x="60" y="200" width="8" height="1" fill="#292526"/>
    <rect x="117" y="200" width="8" height="1" fill="#292526"/>
    <rect x="174" y="200" width="8" height="1" fill="#292526"/>
    <rect x="237" y="200" width="4" height="1" fill="#292526"/>
    <rect x="0" y="201" width="5" height="1" fill="#292526"/>
    <rect x="60" y="201" width="8" height="1" fill="#292526"/>
    <rect x="117" y="201" width="8" height="1" fill="#292526"/>
    <rect x="174" y="201" width="8" height="1" fill="#292526"/>
    <rect x="237" y="201" width="4" height="1" fill="#292526"/>
    <rect x="0" y="202" width="5" height="1" fill="#292526"/>
    <rect x="60" y="202" width="8" height="1" fill="#292526"/>
    <rect x="117" y="202" width="8" height="1" fill="#292526"/>
    <rect x="174" y="202" width="8" height="1" fill="#292526"/>
    <rect x="237" y="202" width="4" height="1" fill="#292526"/>
    <rect x="0" y="203" width="5" height="1" fill="#292526"/>
    <rect x="60" y="203" width="8" height="1" fill="#292526"/>
    <rect x="117" y="203" width="8" height="1" fill="#292526"/>
    <rect x="174" y="203" width="8" height="1" fill="#292526"/>
    <rect x="237" y="203" width="4" height="1" fill="#292526"/>
    <rect x="0" y="204" width="5" height="1" fill="#292526"/>
    <rect x="60" y="204" width="8" height="1" fill="#292526"/>
    <rect x="117" y="204" width="8" height="1" fill="#292526"/>
    <rect x="174" y="204" width="8" height="1" fill="#292526"/>
    <rect x="237" y="204" width="4" height="1" fill="#292526"/>
    <rect x="0" y="205" width="5" height="1" fill="#292526"/>
    <rect x="60" y="205" width="8" height="1" fill="#292526"/>
    <rect x="117" y="205" width="8" height="1" fill="#292526"/>
    <rect x="174" y="205" width="8" height="1" fill="#292526"/>
    <rect x="237" y="205" width="4" height="1" fill="#292526"/>
    <rect x="0" y="206" width="5" height="1" fill="#292526"/>
    <rect x="60" y="206" width="8" height="1" fill="#292526"/>
    <rect x="117" y="206" width="8" height="1" fill="#292526"/>
    <rect x="174" y="206" width="8" height="1" fill="#292526"/>
    <rect x="237" y="206" width="4" height="1" fill="#292526"/>
    <rect x="0" y="207" width="5" height="1" fill="#292526"/>
    <rect x="60" y="207" width="8" height="1" fill="#292526"/>
    <rect x="117" y="207" width="8" height="1" fill="#292526"/>
    <rect x="174" y="207" width="8" height="1" fill="#292526"/>
    <rect x="237" y="207" width="4" height="1" fill="#292526"/>
    <rect x="0" y="208" width="5" height="1" fill="#292526"/>
    <rect x="60" y="208" width="8" height="1" fill="#292526"/>
    <rect x="117" y="208" width="8" height="1" fill="#292526"/>
    <rect x="174" y="208" width="8" height="1" fill="#292526"/>
    <rect x="237" y="208" width="4" height="1" fill="#292526"/>
    <rect x="0" y="209" width="5" height="1" fill="#292526"/>
    <rect x="60" y="209" width="8" height="1" fill="#292526"/>
    <rect x="117" y="209" width="8" height="1" fill="#292526"/>
    <rect x="174" y="209" width="8" height="1" fill="#292526"/>
    <rect x="237" y="209" width="4" height="1" fill="#292526"/>
    <rect x="0" y="210" width="5" height="1" fill="#292526"/>
    <rect x="60" y="210" width="8" height="1" fill="#292526"/>
    <rect x="117" y="210" width="8" height="1" fill="#292526"/>
    <rect x="174" y="210" width="8" height="1" fill="#292526"/>
    <rect x="237" y="210" width="4" height="1" fill="#292526"/>
    <rect x="0" y="211" width="5" height="1" fill="#292526"/>
    <rect x="60" y="211" width="8" height="1" fill="#292526"/>
    <rect x="117" y="211" width="8" height="1" fill="#292526"/>
    <rect x="174" y="211" width="8" height="1" fill="#292526"/>
    <rect x="237" y="211" width="4" height="1" fill="#292526"/>
    <rect x="0" y="212" width="5" height="1" fill="#292526"/>
    <rect x="60" y="212" width="8" height="1" fill="#292526"/>
    <rect x="117" y="212" width="8" height="1" fill="#292526"/>
    <rect x="174" y="212" width="8" height="1" fill="#292526"/>
    <rect x="237" y="212" width="4" height="1" fill="#292526"/>
    <rect x="0" y="213" width="5" height="1" fill="#292526"/>
    <rect x="60" y="213" width="8" height="1" fill="#292526"/>
    <rect x="117" y="213" width="8" height="1" fill="#292526"/>
    <rect x="174" y="213" width="8" height="1" fill="#292526"/>
    <rect x="237" y="213" width="4" height="1" fill="#292526"/>
    <rect x="0" y="214" width="5" height="1" fill="#292526"/>
    <rect x="60" y="214" width="8" height="1" fill="#292526"/>
    <rect x="117" y="214" width="8" height="1" fill="#292526"/>
    <rect x="174" y="214" width="8" height="1" fill="#292526"/>
    <rect x="237" y="214" width="4" height="1" fill="#292526"/>
    <rect x="0" y="215" width="5" height="1" fill="#292526"/>
    <rect x="60" y="215" width="8" height="1" fill="#292526"/>
    <rect x="117" y="215" width="8" height="1" fill="#292526"/>
    <rect x="174" y="215" width="8" height="1" fill="#292526"/>
    <rect x="237" y="215" width="4" height="1" fill="#292526"/>
    <rect x="0" y="216" width="5" height="1" fill="#292526"/>
    <rect x="60" y="216" width="8" height="1" fill="#292526"/>
    <rect x="117" y="216" width="8" height="1" fill="#292526"/>
    <rect x="174" y="216" width="8" height="1" fill="#292526"/>
    <rect x="237" y="216" width="4" height="1" fill="#292526"/>
    <rect x="0" y="217" width="5" height="1" fill="#292526"/>
    <rect x="60" y="217" width="8" height="1" fill="#292526"/>
    <rect x="117" y="217" width="8" height="1" fill="#292526"/>
    <rect x="174" y="217" width="8" height="1" fill="#292526"/>
    <rect x="237" y="217" width="4" height="1" fill="#292526"/>
    <rect x="0" y="218" width="5" height="1" fill="#292526"/>
    <rect x="60" y="218" width="8" height="1" fill="#292526"/>
    <rect x="117" y="218" width="8" height="1" fill="#292526"/>
    <rect x="174" y="218" width="8" height="1" fill="#292526"/>
    <rect x="237" y="218" width="4" height="1" fill="#292526"/>
    <rect x="0" y="219" width="5" height="1" fill="#292526"/>
    <rect x="60" y="219" width="8" height="1" fill="#292526"/>
    <rect x="117" y="219" width="8" height="1" fill="#292526"/>
    <rect x="174" y="219" width="8" height="1" fill="#292526"/>
    <rect x="237" y="219" width="4" height="1" fill="#292526"/>
    <rect x="0" y="220" width="5" height="1" fill="#292526"/>
    <rect x="60" y="220" width="8" height="1" fill="#292526"/>
    <rect x="117" y="220" width="8" height="1" fill="#292526"/>
    <rect x="174" y="220" width="8" height="1" fill="#292526"/>
    <rect x="237" y="220" width="4" height="1" fill="#292526"/>
    <rect x="0" y="221" width="5" height="1" fill="#292526"/>
    <rect x="60" y="221" width="8" height="1" fill="#292526"/>
    <rect x="117" y="221" width="8" height="1" fill="#292526"/>
    <rect x="175" y="221" width="7" height="1" fill="#292526"/>
    <rect x="237" y="221" width="4" height="1" fill="#292526"/>
    <rect x="0" y="222" width="5" height="1" fill="#292526"/>
    <rect x="61" y="222" width="7" height="1" fill="#292526"/>
    <rect x="118" y="222" width="7" height="1" fill="#292526"/>
    <rect x="175" y="222" width="7" height="1" fill="#292526"/>
    <rect x="237" y="222" width="4" height="1" fill="#292526"/>
    <rect x="0" y="223" width="5" height="1" fill="#292526"/>
    <rect x="61" y="223" width="6" height="1" fill="#292526"/>
    <rect x="118" y="223" width="7" height="1" fill="#292526"/>
    <rect x="175" y="223" width="7" height="1" fill="#292526"/>
    <rect x="237" y="223" width="4" height="1" fill="#292526"/>
    <rect x="0" y="224" width="4" height="1" fill="#292526"/>
    <rect x="63" y="224" width="3" height="1" fill="#292526"/>
    <rect x="119" y="224" width="4" height="1" fill="#292526"/>
    <rect x="176" y="224" width="5" height="1" fill="#292526"/>
    <rect x="237" y="224" width="4" height="1" fill="#292526"/>
    <rect x="0" y="225" width="241" height="1" fill="#292526"/>
    <rect x="0" y="226" width="241" height="1" fill="#292526"/>
    <rect x="0" y="227" width="241" height="1" fill="#292526"/>
    <rect x="0" y="228" width="241" height="1" fill="#292526"/>
  </g>
</svg>