<?xml version="1.0" encoding="UTF-8"?>
<svg xmlns="http://www.w3.org/2000/svg" viewBox="0 0 154 63" width="154" height="63">
  <!-- Auto-converted from legend-2480.png -->
  <rect x="0" y="0" width="154" height="63" fill="none"/>
  <g fill="#e0670c" stroke="none">
    <rect x="1" y="1" width="152" height="1" fill="#e0670c"/>
    <rect x="1" y="2" width="1" height="1" fill="#e0670c"/>
    <rect x="152" y="2" width="1" height="1" fill="#e0670c"/>
    <rect x="1" y="3" width="1" height="1" fill="#e0670c"/>
    <rect x="152" y="3" width="1" height="1" fill="#e0670c"/>
    <rect x="1" y="4" width="1" height="1" fill="#e0670c"/>
    <rect x="152" y="4" width="1" height="1" fill="#e0670c"/>
    <rect x="1" y="5" width="1" height="1" fill="#e0670c"/>
    <rect x="152" y="5" width="1" height="1" fill="#e0670c"/>
    <rect x="1" y="6" width="1" height="1" fill="#e0670c"/>
    <rect x="152" y="6" width="1" height="1" fill="#e0670c"/>
    <rect x="1" y="7" width="1" height="1" fill="#e0670c"/>
    <rect x="152" y="7" width="1" height="1" fill="#e0670c"/>
    <rect x="1" y="8" width="1" height="1" fill="#e0670c"/>
    <rect x="152" y="8" width="1" height="1" fill="#e0670c"/>
    <rect x="1" y="9" width="1" height="1" fill="#e0670c"/>
    <rect x="152" y="9" width="1" height="1" fill="#e0670c"/>
    <rect x="1" y="10" width="1" height="1" fill="#e0670c"/>
    <rect x="152" y="10" width="1" height="1" fill="#e0670c"/>
    <rect x="1" y="11" width="1" height="1" fill="#e0670c"/>
    <rect x="152" y="11" width="1" height="1" fill="#e0670c"/>
    <rect x="1" y="12" width="1" height="1" fill="#e0670c"/>
    <rect x="152" y="12" width="1" height="1" fill="#e0670c"/>
    <rect x="1" y="13" width="1" height="1" fill="#e0670c"/>
    <rect x="152" y="13" width="1" height="1" fill="#e0670c"/>
    <rect x="1" y="14" width="1" height="1" fill="#e0670c"/>
    <rect x="152" y="14" width="1" height="1" fill="#e0670c"/>
    <rect x="1" y="15" width="1" height="1" fill="#e0670c"/>
    <rect x="152" y="15" width="1" height="1" fill="#e0670c"/>
    <rect x="1" y="16" width="1" height="1" fill="#e0670c"/>
    <rect x="152" y="16" width="1" height="1" fill="#e0670c"/>
    <rect x="1" y="17" width="1" height="1" fill="#e0670c"/>
    <rect x="152" y="17" width="1" height="1" fill="#e0670c"/>
    <rect x="1" y="18" width="1" height="1" fill="#e0670c"/>
    <rect x="152" y="18" width="1" height="1" fill="#e0670c"/>
    <rect x="1" y="19" width="1" height="1" fill="#e0670c"/>
    <rect x="83" y="19" width="3" height="1" fill="#e0670c"/>
    <rect x="152" y="19" width="1" height="1" fill="#e0670c"/>
    <rect x="1" y="20" width="1" height="1" fill="#e0670c"/>
    <rect x="64" y="20" width="9" height="1" fill="#e0670c"/>
    <rect x="75" y="20" width="2" height="1" fill="#e0670c"/>
    <rect x="80" y="20" width="6" height="1" fill="#e0670c"/>
    <rect x="152" y="20" width="1" height="1" fill="#e0670c"/>
    <rect x="1" y="21" width="1" height="1" fill="#e0670c"/>
    <rect x="62" y="21" width="4" height="1" fill="#e0670c"/>
    <rect x="71" y="21" width="6" height="1" fill="#e0670c"/>
    <rect x="79" y="21" width="7" height="1" fill="#e0670c"/>
    <rect x="152" y="21" width="1" height="1" fill="#e0670c"/>
    <rect x="1" y="22" width="1" height="1" fill="#e0670c"/>
    <rect x="60" y="22" width="4" height="1" fill="#e0670c"/>
    <rect x="73" y="22" width="4" height="1" fill="#e0670c"/>
    <rect x="82" y="22" width="4" height="1" fill="#e0670c"/>
    <rect x="152" y="22" width="1" height="1" fill="#e0670c"/>
    <rect x="1" y="23" width="1" height="1" fill="#e0670c"/>
    <rect x="59" y="23" width="4" height="1" fill="#e0670c"/>
    <rect x="74" y="23" width="3" height="1" fill="#e0670c"/>
    <rect x="82" y="23" width="4" height="1" fill="#e0670c"/>
    <rect x="152" y="23" width="1" height="1" fill="#e0670c"/>
    <rect x="1" y="24" width="1" height="1" fill="#e0670c"/>
    <rect x="58" y="24" width="4" height="1" fill="#e0670c"/>
    <rect x="75" y="24" width="2" height="1" fill="#e0670c"/>
    <rect x="82" y="24" width="4" height="1" fill="#e0670c"/>
    <rect x="152" y="24" width="1" height="1" fill="#e0670c"/>
    <rect x="1" y="25" width="1" height="1" fill="#e0670c"/>
    <rect x="57" y="25" width="5" height="1" fill="#e0670c"/>
    <rect x="75" y="25" width="3" height="1" fill="#e0670c"/>
    <rect x="82" y="25" width="4" height="1" fill="#e0670c"/>
    <rect x="152" y="25" width="1" height="1" fill="#e0670c"/>
    <rect x="1" y="26" width="1" height="1" fill="#e0670c"/>
    <rect x="57" y="26" width="4" height="1" fill="#e0670c"/>
    <rect x="76" y="26" width="2" height="1" fill="#e0670c"/>
    <rect x="82" y="26" width="4" height="1" fill="#e0670c"/>
    <rect x="152" y="26" width="1" height="1" fill="#e0670c"/>
    <rect x="1" y="27" width="1" height="1" fill="#e0670c"/>
    <rect x="56" y="27" width="5" height="1" fill="#e0670c"/>
    <rect x="76" y="27" width="2" height="1" fill="#e0670c"/>
    <rect x="82" y="27" width="4" height="1" fill="#e0670c"/>
    <rect x="152" y="27" width="1" height="1" fill="#e0670c"/>
    <rect x="1" y="28" width="1" height="1" fill="#e0670c"/>
    <rect x="56" y="28" width="5" height="1" fill="#e0670c"/>
    <rect x="82" y="28" width="4" height="1" fill="#e0670c"/>
    <rect x="88" y="28" width="6" height="1" fill="#e0670c"/>
    <rect x="152" y="28" width="1" height="1" fill="#e0670c"/>
    <rect x="1" y="29" width="1" height="1" fill="#e0670c"/>
    <rect x="56" y="29" width="4" height="1" fill="#e0670c"/>
    <rect x="82" y="29" width="4" height="1" fill="#e0670c"/>
    <rect x="87" y="29" width="8" height="1" fill="#e0670c"/>
    <rect x="152" y="29" width="1" height="1" fill="#e0670c"/>
    <rect x="1" y="30" width="1" height="1" fill="#e0670c"/>
    <rect x="56" y="30" width="4" height="1" fill="#e0670c"/>
    <rect x="82" y="30" width="6" height="1" fill="#e0670c"/>
    <rect x="91" y="30" width="4" height="1" fill="#e0670c"/>
    <rect x="152" y="30" width="1" height="1" fill="#e0670c"/>
    <rect x="1" y="31" width="1" height="1" fill="#e0670c"/>
    <rect x="55" y="31" width="5" height="1" fill="#e0670c"/>
    <rect x="82" y="31" width="5" height="1" fill="#e0670c"/>
    <rect x="92" y="31" width="4" height="1" fill="#e0670c"/>
    <rect x="152" y="31" width="1" height="1" fill="#e0670c"/>
    <rect x="1" y="32" width="1" height="1" fill="#e0670c"/>
    <rect x="55" y="32" width="5" height="1" fill="#e0670c"/>
    <rect x="82" y="32" width="4" height="1" fill="#e0670c"/>
    <rect x="92" y="32" width="4" height="1" fill="#e0670c"/>
    <rect x="152" y="32" width="1" height="1" fill="#e0670c"/>
    <rect x="1" y="33" width="1" height="1" fill="#e0670c"/>
    <rect x="55" y="33" width="5" height="1" fill="#e0670c"/>
    <rect x="82" y="33" width="4" height="1" fill="#e0670c"/>
    <rect x="92" y="33" width="4" height="1" fill="#e0670c"/>
    <rect x="152" y="33" width="1" height="1" fill="#e0670c"/>
    <rect x="1" y="34" width="1" height="1" fill="#e0670c"/>
    <rect x="55" y="34" width="5" height="1" fill="#e0670c"/>
    <rect x="82" y="34" width="4" height="1" fill="#e0670c"/>
    <rect x="92" y="34" width="4" height="1" fill="#e0670c"/>
    <rect x="152" y="34" width="1" height="1" fill="#e0670c"/>
    <rect x="1" y="35" width="1" height="1" fill="#e0670c"/>
    <rect x="56" y="35" width="5" height="1" fill="#e0670c"/>
    <rect x="82" y="35" width="4" height="1" fill="#e0670c"/>
    <rect x="92" y="35" width="4" height="1" fill="#e0670c"/>
    <rect x="152" y="35" width="1" height="1" fill="#e0670c"/>
    <rect x="1" y="36" width="1" height="1" fill="#e0670c"/>
    <rect x="56" y="36" width="5" height="1" fill="#e0670c"/>
    <rect x="82" y="36" width="4" height="1" fill="#e0670c"/>
    <rect x="92" y="36" width="4" height="1" fill="#e0670c"/>
    <rect x="152" y="36" width="1" height="1" fill="#e0670c"/>
    <rect x="1" y="37" width="1" height="1" fill="#e0670c"/>
    <rect x="56" y="37" width="5" height="1" fill="#e0670c"/>
    <rect x="82" y="37" width="4" height="1" fill="#e0670c"/>
    <rect x="92" y="37" width="4" height="1" fill="#e0670c"/>
    <rect x="152" y="37" width="1" height="1" fill="#e0670c"/>
    <rect x="1" y="38" width="1" height="1" fill="#e0670c"/>
    <rect x="57" y="38" width="5" height="1" fill="#e0670c"/>
    <rect x="77" y="38" width="1" height="1" fill="#e0670c"/>
    <rect x="82" y="38" width="4" height="1" fill="#e0670c"/>
    <rect x="92" y="38" width="4" height="1" fill="#e0670c"/>
    <rect x="152" y="38" width="1" height="1" fill="#e0670c"/>
    <rect x="1" y="39" width="1" height="1" fill="#e0670c"/>
    <rect x="57" y="39" width="5" height="1" fill="#e0670c"/>
    <rect x="76" y="39" width="2" height="1" fill="#e0670c"/>
    <rect x="82" y="39" width="4" height="1" fill="#e0670c"/>
    <rect x="92" y="39" width="4" height="1" fill="#e0670c"/>
    <rect x="152" y="39" width="1" height="1" fill="#e0670c"/>
    <rect x="1" y="40" width="1" height="1" fill="#e0670c"/>
    <rect x="58" y="40" width="5" height="1" fill="#e0670c"/>
    <rect x="75" y="40" width="2" height="1" fill="#e0670c"/>
    <rect x="82" y="40" width="4" height="1" fill="#e0670c"/>
    <rect x="92" y="40" width="4" height="1" fill="#e0670c"/>
    <rect x="152" y="40" width="1" height="1" fill="#e0670c"/>
    <rect x="1" y="41" width="1" height="1" fill="#e0670c"/>
    <rect x="59" y="41" width="5" height="1" fill="#e0670c"/>
    <rect x="74" y="41" width="2" height="1" fill="#e0670c"/>
    <rect x="82" y="41" width="4" height="1" fill="#e0670c"/>
    <rect x="92" y="41" width="4" height="1" fill="#e0670c"/>
    <rect x="152" y="41" width="1" height="1" fill="#e0670c"/>
    <rect x="1" y="42" width="1" height="1" fill="#e0670c"/>
    <rect x="60" y="42" width="6" height="1" fill="#e0670c"/>
    <rect x="72" y="42" width="3" height="1" fill="#e0670c"/>
    <rect x="82" y="42" width="4" height="1" fill="#e0670c"/>
    <rect x="92" y="42" width="4" height="1" fill="#e0670c"/>
    <rect x="152" y="42" width="1" height="1" fill="#e0670c"/>
    <rect x="1" y="43" width="1" height="1" fill="#e0670c"/>
    <rect x="61" y="43" width="13" height="1" fill="#e0670c"/>
    <rect x="82" y="43" width="4" height="1" fill="#e0670c"/>
    <rect x="92" y="43" width="4" height="1" fill="#e0670c"/>
    <rect x="152" y="43" width="1" height="1" fill="#e0670c"/>
    <rect x="1" y="44" width="1" height="1" fill="#e0670c"/>
    <rect x="64" y="44" width="8" height="1" fill="#e0670c"/>
    <rect x="79" y="44" width="19" height="1" fill="#e0670c"/>
    <rect x="152" y="44" width="1" height="1" fill="#e0670c"/>
    <rect x="1" y="45" width="1" height="1" fill="#e0670c"/>
    <rect x="152" y="45" width="1" height="1" fill="#e0670c"/>
    <rect x="1" y="46" width="1" height="1" fill="#e0670c"/>
    <rect x="152" y="46" width="1" height="1" fill="#e0670c"/>
    <rect x="1" y="47" width="1" height="1" fill="#e0670c"/>
    <rect x="152" y="47" width="1" height="1" fill="#e0670c"/>
    <rect x="1" y="48" width="1" height="1" fill="#e0670c"/>
    <rect x="152" y="48" width="1" height="1" fill="#e0670c"/>
    <rect x="1" y="49" width="1" height="1" fill="#e0670c"/>
    <rect x="152" y="49" width="1" height="1" fill="#e0670c"/>
    <rect x="1" y="50" width="1" height="1" fill="#e0670c"/>
    <rect x="152" y="50" width="1" height="1" fill="#e0670c"/>
    <rect x="1" y="51" width="1" height="1" fill="#e0670c"/>
    <rect x="152" y="51" width="1" height="1" fill="#e0670c"/>
    <rect x="1" y="52" width="1" height="1" fill="#e0670c"/>
    <rect x="152" y="52" width="1" height="1" fill="#e0670c"/>
    <rect x="1" y="53" width="1" height="1" fill="#e0670c"/>
    <rect x="152" y="53" width="1" height="1" fill="#e0670c"/>
    <rect x="1" y="54" width="1" height="1" fill="#e0670c"/>
    <rect x="152" y="54" width="1" height="1" fill="#e0670c"/>
    <rect x="1" y="55" width="1" height="1" fill="#e0670c"/>
    <rect x="152" y="55" width="1" height="1" fill="#e0670c"/>
    <rect x="1" y="56" width="1" height="1" fill="#e0670c"/>
    <rect x="152" y="56" width="1" height="1" fill="#e0670c"/>
    <rect x="1" y="57" width="1" height="1" fill="#e0670c"/>
    <rect x="152" y="57" width="1" height="1" fill="#e0670c"/>
    <rect x="1" y="58" width="1" height="1" fill="#e0670c"/>
    <rect x="152" y="58" width="1" height="1" fill="#e0670c"/>
    <rect x="1" y="59" width="1" height="1" fill="#e0670c"/>
    <rect x="152" y="59" width="1" height="1" fill="#e0670c"/>
    <rect x="1" y="60" width="1" height="1" fill="#e0670c"/>
    <rect x="152" y="60" width="1" height="1" fill="#e0670c"/>
    <rect x="1" y="61" width="152" height="1" fill="#e0670c"/>
  </g>
</svg>