<?xml version="1.0" encoding="UTF-8"?>
<svg xmlns="http://www.w3.org/2000/svg" viewBox="0 0 318 212" width="318" height="212">
  <!-- Auto-converted from legend-357.png -->
  <rect x="0" y="0" width="318" height="212" fill="none"/>
  <g fill="#393637" stroke="none">
    <rect x="2" y="2" width="316" height="1" fill="#393637"/>
    <rect x="1" y="3" width="317" height="1" fill="#393637"/>
    <rect x="1" y="4" width="317" height="1" fill="#393637"/>
    <rect x="1" y="5" width="317" height="1" fill="#393637"/>
    <rect x="1" y="6" width="5" height="1" fill="#393637"/>
    <rect x="312" y="6" width="6" height="1" fill="#393637"/>
    <rect x="1" y="7" width="5" height="1" fill="#393637"/>
    <rect x="312" y="7" width="6" height="1" fill="#393637"/>
    <rect x="1" y="8" width="5" height="1" fill="#393637"/>
    <rect x="312" y="8" width="6" height="1" fill="#393637"/>
    <rect x="1" y="9" width="5" height="1" fill="#393637"/>
    <rect x="312" y="9" width="6" height="1" fill="#393637"/>
    <rect x="1" y="10" width="5" height="1" fill="#393637"/>
    <rect x="312" y="10" width="6" height="1" fill="#393637"/>
    <rect x="1" y="11" width="5" height="1" fill="#393637"/>
    <rect x="312" y="11" width="6" height="1" fill="#393637"/>
    <rect x="1" y="12" width="5" height="1" fill="#393637"/>
    <rect x="312" y="12" width="6" height="1" fill="#393637"/>
    <rect x="1" y="13" width="5" height="1" fill="#393637"/>
    <rect x="312" y="13" width="6" height="1" fill="#393637"/>
    <rect x="1" y="14" width="5" height="1" fill="#393637"/>
    <rect x="312" y="14" width="6" height="1" fill="#393637"/>
    <rect x="1" y="15" width="5" height="1" fill="#393637"/>
    <rect x="312" y="15" width="6" height="1" fill="#393637"/>
    <rect x="1" y="16" width="5" height="1" fill="#393637"/>
    <rect x="312" y="16" width="6" height="1" fill="#393637"/>
    <rect x="1" y="17" width="5" height="1" fill="#393637"/>
    <rect x="312" y="17" width="6" height="1" fill="#393637"/>
    <rect x="1" y="18" width="5" height="1" fill="#393637"/>
    <rect x="312" y="18" width="6" height="1" fill="#393637"/>
    <rect x="1" y="19" width="5" height="1" fill="#393637"/>
    <rect x="312" y="19" width="6" height="1" fill="#393637"/>
    <rect x="1" y="20" width="5" height="1" fill="#393637"/>
    <rect x="312" y="20" width="6" height="1" fill="#393637"/>
    <rect x="1" y="21" width="5" height="1" fill="#393637"/>
    <rect x="312" y="21" width="6" height="1" fill="#393637"/>
    <rect x="1" y="22" width="5" height="1" fill="#393637"/>
    <rect x="312" y="22" width="6" height="1" fill="#393637"/>
    <rect x="1" y="23" width="5" height="1" fill="#393637"/>
    <rect x="312" y="23" width="6" height="1" fill="#393637"/>
    <rect x="1" y="24" width="5" height="1" fill="#393637"/>
    <rect x="312" y="24" width="6" height="1" fill="#393637"/>
    <rect x="1" y="25" width="5" height="1" fill="#393637"/>
    <rect x="312" y="25" width="6" height="1" fill="#393637"/>
    <rect x="1" y="26" width="5" height="1" fill="#393637"/>
    <rect x="312" y="26" width="6" height="1" fill="#393637"/>
    <rect x="1" y="27" width="5" height="1" fill="#393637"/>
    <rect x="312" y="27" width="6" height="1" fill="#393637"/>
    <rect x="1" y="28" width="5" height="1" fill="#393637"/>
    <rect x="312" y="28" width="6" height="1" fill="#393637"/>
    <rect x="1" y="29" width="5" height="1" fill="#393637"/>
    <rect x="312" y="29" width="6" height="1" fill="#393637"/>
    <rect x="1" y="30" width="5" height="1" fill="#393637"/>
    <rect x="312" y="30" width="6" height="1" fill="#393637"/>
    <rect x="1" y="31" width="5" height="1" fill="#393637"/>
    <rect x="312" y="31" width="6" height="1" fill="#393637"/>
    <rect x="1" y="32" width="5" height="1" fill="#393637"/>
    <rect x="312" y="32" width="6" height="1" fill="#393637"/>
    <rect x="1" y="33" width="5" height="1" fill="#393637"/>
    <rect x="38" y="33" width="239" height="1" fill="#393637"/>
    <rect x="312" y="33" width="6" height="1" fill="#393637"/>
    <rect x="1" y="34" width="5" height="1" fill="#393637"/>
    <rect x="38" y="34" width="239" height="1" fill="#393637"/>
    <rect x="312" y="34" width="6" height="1" fill="#393637"/>
    <rect x="1" y="35" width="5" height="1" fill="#393637"/>
    <rect x="38" y="35" width="239" height="1" fill="#393637"/>
    <rect x="312" y="35" width="6" height="1" fill="#393637"/>
    <rect x="1" y="36" width="5" height="1" fill="#393637"/>
    <rect x="38" y="36" width="239" height="1" fill="#393637"/>
    <rect x="312" y="36" width="6" height="1" fill="#393637"/>
    <rect x="1" y="37" width="5" height="1" fill="#393637"/>
    <rect x="38" y="37" width="239" height="1" fill="#393637"/>
    <rect x="312" y="37" width="6" height="1" fill="#393637"/>
    <rect x="1" y="38" width="5" height="1" fill="#393637"/>
    <rect x="38" y="38" width="239" height="1" fill="#393637"/>
    <rect x="312" y="38" width="6" height="1" fill="#393637"/>
    <rect x="1" y="39" width="5" height="1" fill="#393637"/>
    <rect x="38" y="39" width="239" height="1" fill="#393637"/>
    <rect x="312" y="39" width="6" height="1" fill="#393637"/>
    <rect x="1" y="40" width="5" height="1" fill="#393637"/>
    <rect x="38" y="40" width="239" height="1" fill="#393637"/>
    <rect x="312" y="40" width="6" height="1" fill="#393637"/>
    <rect x="1" y="41" width="5" height="1" fill="#393637"/>
    <rect x="38" y="41" width="239" height="1" fill="#393637"/>
    <rect x="312" y="41" width="6" height="1" fill="#393637"/>
    <rect x="1" y="42" width="5" height="1" fill="#393637"/>
    <rect x="38" y="42" width="239" height="1" fill="#393637"/>
    <rect x="312" y="42" width="6" height="1" fill="#393637"/>
    <rect x="1" y="43" width="5" height="1" fill="#393637"/>
    <rect x="38" y="43" width="239" height="1" fill="#393637"/>
    <rect x="312" y="43" width="6" height="1" fill="#393637"/>
    <rect x="1" y="44" width="5" height="1" fill="#393637"/>
    <rect x="38" y="44" width="239" height="1" fill="#393637"/>
    <rect x="312" y="44" width="6" height="1" fill="#393637"/>
    <rect x="1" y="45" width="5" height="1" fill="#393637"/>
    <rect x="38" y="45" width="239" height="1" fill="#393637"/>
    <rect x="312" y="45" width="6" height="1" fill="#393637"/>
    <rect x="1" y="46" width="5" height="1" fill="#393637"/>
    <rect x="38" y="46" width="239" height="1" fill="#393637"/>
    <rect x="312" y="46" width="6" height="1" fill="#393637"/>
    <rect x="1" y="47" width="5" height="1" fill="#393637"/>
    <rect x="38" y="47" width="239" height="1" fill="#393637"/>
    <rect x="312" y="47" width="6" height="1" fill="#393637"/>
    <rect x="1" y="48" width="5" height="1" fill="#393637"/>
    <rect x="38" y="48" width="239" height="1" fill="#393637"/>
    <rect x="312" y="48" width="6" height="1" fill="#393637"/>
    <rect x="1" y="49" width="5" height="1" fill="#393637"/>
    <rect x="38" y="49" width="239" height="1" fill="#393637"/>
    <rect x="312" y="49" width="6" height="1" fill="#393637"/>
    <rect x="1" y="50" width="5" height="1" fill="#393637"/>
    <rect x="38" y="50" width="239" height="1" fill="#393637"/>
    <rect x="312" y="50" width="6" height="1" fill="#393637"/>
    <rect x="1" y="51" width="5" height="1" fill="#393637"/>
    <rect x="38" y="51" width="239" height="1" fill="#393637"/>
    <rect x="312" y="51" width="6" height="1" fill="#393637"/>
    <rect x="1" y="52" width="5" height="1" fill="#393637"/>
    <rect x="38" y="52" width="239" height="1" fill="#393637"/>
    <rect x="312" y="52" width="6" height="1" fill="#393637"/>
    <rect x="1" y="53" width="5" height="1" fill="#393637"/>
    <rect x="38" y="53" width="239" height="1" fill="#393637"/>
    <rect x="312" y="53" width="6" height="1" fill="#393637"/>
    <rect x="1" y="54" width="5" height="1" fill="#393637"/>
    <rect x="38" y="54" width="239" height="1" fill="#393637"/>
    <rect x="312" y="54" width="6" height="1" fill="#393637"/>
    <rect x="1" y="55" width="5" height="1" fill="#393637"/>
    <rect x="38" y="55" width="239" height="1" fill="#393637"/>
    <rect x="312" y="55" width="6" height="1" fill="#393637"/>
    <rect x="1" y="56" width="5" height="1" fill="#393637"/>
    <rect x="38" y="56" width="239" height="1" fill="#393637"/>
    <rect x="312" y="56" width="6" height="1" fill="#393637"/>
    <rect x="1" y="57" width="5" height="1" fill="#393637"/>
    <rect x="38" y="57" width="239" height="1" fill="#393637"/>
    <rect x="312" y="57" width="6" height="1" fill="#393637"/>
    <rect x="1" y="58" width="5" height="1" fill="#393637"/>
    <rect x="38" y="58" width="239" height="1" fill="#393637"/>
    <rect x="312" y="58" width="6" height="1" fill="#393637"/>
    <rect x="1" y="59" width="5" height="1" fill="#393637"/>
    <rect x="38" y="59" width="239" height="1" fill="#393637"/>
    <rect x="312" y="59" width="6" height="1" fill="#393637"/>
    <rect x="1" y="60" width="5" height="1" fill="#393637"/>
    <rect x="38" y="60" width="239" height="1" fill="#393637"/>
    <rect x="312" y="60" width="6" height="1" fill="#393637"/>
    <rect x="1" y="61" width="5" height="1" fill="#393637"/>
    <rect x="38" y="61" width="239" height="1" fill="#393637"/>
    <rect x="312" y="61" width="6" height="1" fill="#393637"/>
    <rect x="1" y="62" width="5" height="1" fill="#393637"/>
    <rect x="38" y="62" width="239" height="1" fill="#393637"/>
    <rect x="312" y="62" width="6" height="1" fill="#393637"/>
    <rect x="1" y="63" width="5" height="1" fill="#393637"/>
    <rect x="38" y="63" width="239" height="1" fill="#393637"/>
    <rect x="312" y="63" width="6" height="1" fill="#393637"/>
    <rect x="1" y="64" width="5" height="1" fill="#393637"/>
    <rect x="38" y="64" width="239" height="1" fill="#393637"/>
    <rect x="312" y="64" width="6" height="1" fill="#393637"/>
    <rect x="1" y="65" width="5" height="1" fill="#393637"/>
    <rect x="38" y="65" width="239" height="1" fill="#393637"/>
    <rect x="312" y="65" width="6" height="1" fill="#393637"/>
    <rect x="1" y="66" width="5" height="1" fill="#393637"/>
    <rect x="38" y="66" width="239" height="1" fill="#393637"/>
    <rect x="312" y="66" width="6" height="1" fill="#393637"/>
    <rect x="1" y="67" width="5" height="1" fill="#393637"/>
    <rect x="38" y="67" width="239" height="1" fill="#393637"/>
    <rect x="312" y="67" width="6" height="1" fill="#393637"/>
    <rect x="1" y="68" width="5" height="1" fill="#393637"/>
    <rect x="38" y="68" width="239" height="1" fill="#393637"/>
    <rect x="312" y="68" width="6" height="1" fill="#393637"/>
    <rect x="1" y="69" width="5" height="1" fill="#393637"/>
    <rect x="38" y="69" width="239" height="1" fill="#393637"/>
    <rect x="312" y="69" width="6" height="1" fill="#393637"/>
    <rect x="1" y="70" width="5" height="1" fill="#393637"/>
    <rect x="38" y="70" width="239" height="1" fill="#393637"/>
    <rect x="312" y="70" width="6" height="1" fill="#393637"/>
    <rect x="1" y="71" width="5" height="1" fill="#393637"/>
    <rect x="38" y="71" width="239" height="1" fill="#393637"/>
    <rect x="312" y="71" width="6" height="1" fill="#393637"/>
    <rect x="1" y="72" width="5" height="1" fill="#393637"/>
    <rect x="38" y="72" width="239" height="1" fill="#393637"/>
    <rect x="312" y="72" width="6" height="1" fill="#393637"/>
    <rect x="1" y="73" width="5" height="1" fill="#393637"/>
    <rect x="38" y="73" width="239" height="1" fill="#393637"/>
    <rect x="312" y="73" width="6" height="1" fill="#393637"/>
    <rect x="1" y="74" width="5" height="1" fill="#393637"/>
    <rect x="38" y="74" width="239" height="1" fill="#393637"/>
    <rect x="312" y="74" width="6" height="1" fill="#393637"/>
    <rect x="1" y="75" width="5" height="1" fill="#393637"/>
    <rect x="38" y="75" width="239" height="1" fill="#393637"/>
    <rect x="312" y="75" width="6" height="1" fill="#393637"/>
    <rect x="1" y="76" width="5" height="1" fill="#393637"/>
    <rect x="38" y="76" width="239" height="1" fill="#393637"/>
    <rect x="312" y="76" width="6" height="1" fill="#393637"/>
    <rect x="1" y="77" width="5" height="1" fill="#393637"/>
    <rect x="38" y="77" width="239" height="1" fill="#393637"/>
    <rect x="312" y="77" width="6" height="1" fill="#393637"/>
    <rect x="1" y="78" width="5" height="1" fill="#393637"/>
    <rect x="38" y="78" width="239" height="1" fill="#393637"/>
    <rect x="312" y="78" width="6" height="1" fill="#393637"/>
    <rect x="1" y="79" width="5" height="1" fill="#393637"/>
    <rect x="38" y="79" width="239" height="1" fill="#393637"/>
    <rect x="312" y="79" width="6" height="1" fill="#393637"/>
    <rect x="1" y="80" width="5" height="1" fill="#393637"/>
    <rect x="38" y="80" width="239" height="1" fill="#393637"/>
    <rect x="312" y="80" width="6" height="1" fill="#393637"/>
    <rect x="1" y="81" width="5" height="1" fill="#393637"/>
    <rect x="38" y="81" width="239" height="1" fill="#393637"/>
    <rect x="312" y="81" width="6" height="1" fill="#393637"/>
    <rect x="1" y="82" width="5" height="1" fill="#393637"/>
    <rect x="38" y="82" width="239" height="1" fill="#393637"/>
    <rect x="312" y="82" width="6" height="1" fill="#393637"/>
    <rect x="1" y="83" width="5" height="1" fill="#393637"/>
    <rect x="38" y="83" width="239" height="1" fill="#393637"/>
    <rect x="312" y="83" width="6" height="1" fill="#393637"/>
    <rect x="1" y="84" width="5" height="1" fill="#393637"/>
    <rect x="38" y="84" width="239" height="1" fill="#393637"/>
    <rect x="312" y="84" width="6" height="1" fill="#393637"/>
    <rect x="1" y="85" width="5" height="1" fill="#393637"/>
    <rect x="38" y="85" width="239" height="1" fill="#393637"/>
    <rect x="312" y="85" width="6" height="1" fill="#393637"/>
    <rect x="1" y="86" width="5" height="1" fill="#393637"/>
    <rect x="38" y="86" width="239" height="1" fill="#393637"/>
    <rect x="312" y="86" width="6" height="1" fill="#393637"/>
    <rect x="1" y="87" width="5" height="1" fill="#393637"/>
    <rect x="38" y="87" width="239" height="1" fill="#393637"/>
    <rect x="312" y="87" width="6" height="1" fill="#393637"/>
    <rect x="1" y="88" width="5" height="1" fill="#393637"/>
    <rect x="38" y="88" width="239" height="1" fill="#393637"/>
    <rect x="312" y="88" width="6" height="1" fill="#393637"/>
    <rect x="1" y="89" width="5" height="1" fill="#393637"/>
    <rect x="38" y="89" width="239" height="1" fill="#393637"/>
    <rect x="312" y="89" width="6" height="1" fill="#393637"/>
    <rect x="1" y="90" width="5" height="1" fill="#393637"/>
    <rect x="38" y="90" width="239" height="1" fill="#393637"/>
    <rect x="312" y="90" width="6" height="1" fill="#393637"/>
    <rect x="1" y="91" width="5" height="1" fill="#393637"/>
    <rect x="38" y="91" width="239" height="1" fill="#393637"/>
    <rect x="312" y="91" width="6" height="1" fill="#393637"/>
    <rect x="1" y="92" width="5" height="1" fill="#393637"/>
    <rect x="38" y="92" width="239" height="1" fill="#393637"/>
    <rect x="312" y="92" width="6" height="1" fill="#393637"/>
    <rect x="1" y="93" width="5" height="1" fill="#393637"/>
    <rect x="38" y="93" width="239" height="1" fill="#393637"/>
    <rect x="312" y="93" width="6" height="1" fill="#393637"/>
    <rect x="1" y="94" width="5" height="1" fill="#393637"/>
    <rect x="38" y="94" width="239" height="1" fill="#393637"/>
    <rect x="312" y="94" width="6" height="1" fill="#393637"/>
    <rect x="1" y="95" width="5" height="1" fill="#393637"/>
    <rect x="38" y="95" width="239" height="1" fill="#393637"/>
    <rect x="312" y="95" width="6" height="1" fill="#393637"/>
    <rect x="1" y="96" width="5" height="1" fill="#393637"/>
    <rect x="38" y="96" width="239" height="1" fill="#393637"/>
    <rect x="312" y="96" width="6" height="1" fill="#393637"/>
    <rect x="1" y="97" width="5" height="1" fill="#393637"/>
    <rect x="38" y="97" width="239" height="1" fill="#393637"/>
    <rect x="312" y="97" width="6" height="1" fill="#393637"/>
    <rect x="1" y="98" width="5" height="1" fill="#393637"/>
    <rect x="38" y="98" width="239" height="1" fill="#393637"/>
    <rect x="312" y="98" width="6" height="1" fill="#393637"/>
    <rect x="1" y="99" width="5" height="1" fill="#393637"/>
    <rect x="38" y="99" width="239" height="1" fill="#393637"/>
    <rect x="312" y="99" width="6" height="1" fill="#393637"/>
    <rect x="1" y="100" width="5" height="1" fill="#393637"/>
    <rect x="38" y="100" width="239" height="1" fill="#393637"/>
    <rect x="312" y="100" width="6" height="1" fill="#393637"/>
    <rect x="1" y="101" width="5" height="1" fill="#393637"/>
    <rect x="38" y="101" width="239" height="1" fill="#393637"/>
    <rect x="312" y="101" width="6" height="1" fill="#393637"/>
    <rect x="1" y="102" width="5" height="1" fill="#393637"/>
    <rect x="38" y="102" width="239" height="1" fill="#393637"/>
    <rect x="312" y="102" width="6" height="1" fill="#393637"/>
    <rect x="1" y="103" width="5" height="1" fill="#393637"/>
    <rect x="38" y="103" width="239" height="1" fill="#393637"/>
    <rect x="312" y="103" width="6" height="1" fill="#393637"/>
    <rect x="1" y="104" width="5" height="1" fill="#393637"/>
    <rect x="38" y="104" width="239" height="1" fill="#393637"/>
    <rect x="312" y="104" width="6" height="1" fill="#393637"/>
    <rect x="1" y="105" width="5" height="1" fill="#393637"/>
    <rect x="38" y="105" width="239" height="1" fill="#393637"/>
    <rect x="312" y="105" width="6" height="1" fill="#393637"/>
    <rect x="1" y="106" width="5" height="1" fill="#393637"/>
    <rect x="38" y="106" width="239" height="1" fill="#393637"/>
    <rect x="312" y="106" width="6" height="1" fill="#393637"/>
    <rect x="1" y="107" width="5" height="1" fill="#393637"/>
    <rect x="38" y="107" width="239" height="1" fill="#393637"/>
    <rect x="312" y="107" width="6" height="1" fill="#393637"/>
    <rect x="1" y="108" width="5" height="1" fill="#393637"/>
    <rect x="38" y="108" width="239" height="1" fill="#393637"/>
    <rect x="312" y="108" width="6" height="1" fill="#393637"/>
    <rect x="1" y="109" width="5" height="1" fill="#393637"/>
    <rect x="38" y="109" width="239" height="1" fill="#393637"/>
    <rect x="312" y="109" width="6" height="1" fill="#393637"/>
    <rect x="1" y="110" width="5" height="1" fill="#393637"/>
    <rect x="38" y="110" width="239" height="1" fill="#393637"/>
    <rect x="312" y="110" width="6" height="1" fill="#393637"/>
    <rect x="1" y="111" width="5" height="1" fill="#393637"/>
    <rect x="38" y="111" width="239" height="1" fill="#393637"/>
    <rect x="312" y="111" width="6" height="1" fill="#393637"/>
    <rect x="1" y="112" width="5" height="1" fill="#393637"/>
    <rect x="38" y="112" width="239" height="1" fill="#393637"/>
    <rect x="312" y="112" width="6" height="1" fill="#393637"/>
    <rect x="1" y="113" width="5" height="1" fill="#393637"/>
    <rect x="38" y="113" width="239" height="1" fill="#393637"/>
    <rect x="312" y="113" width="6" height="1" fill="#393637"/>
    <rect x="1" y="114" width="5" height="1" fill="#393637"/>
    <rect x="38" y="114" width="239" height="1" fill="#393637"/>
    <rect x="312" y="114" width="6" height="1" fill="#393637"/>
    <rect x="1" y="115" width="5" height="1" fill="#393637"/>
    <rect x="38" y="115" width="239" height="1" fill="#393637"/>
    <rect x="312" y="115" width="6" height="1" fill="#393637"/>
    <rect x="1" y="116" width="5" height="1" fill="#393637"/>
    <rect x="38" y="116" width="239" height="1" fill="#393637"/>
    <rect x="312" y="116" width="6" height="1" fill="#393637"/>
    <rect x="1" y="117" width="5" height="1" fill="#393637"/>
    <rect x="38" y="117" width="239" height="1" fill="#393637"/>
    <rect x="312" y="117" width="6" height="1" fill="#393637"/>
    <rect x="1" y="118" width="5" height="1" fill="#393637"/>
    <rect x="38" y="118" width="239" height="1" fill="#393637"/>
    <rect x="312" y="118" width="6" height="1" fill="#393637"/>
    <rect x="1" y="119" width="5" height="1" fill="#393637"/>
    <rect x="38" y="119" width="239" height="1" fill="#393637"/>
    <rect x="312" y="119" width="6" height="1" fill="#393637"/>
    <rect x="1" y="120" width="5" height="1" fill="#393637"/>
    <rect x="38" y="120" width="239" height="1" fill="#393637"/>
    <rect x="312" y="120" width="6" height="1" fill="#393637"/>
    <rect x="1" y="121" width="5" height="1" fill="#393637"/>
    <rect x="38" y="121" width="239" height="1" fill="#393637"/>
    <rect x="312" y="121" width="6" height="1" fill="#393637"/>
    <rect x="1" y="122" width="5" height="1" fill="#393637"/>
    <rect x="38" y="122" width="239" height="1" fill="#393637"/>
    <rect x="312" y="122" width="6" height="1" fill="#393637"/>
    <rect x="1" y="123" width="5" height="1" fill="#393637"/>
    <rect x="38" y="123" width="239" height="1" fill="#393637"/>
    <rect x="312" y="123" width="6" height="1" fill="#393637"/>
    <rect x="1" y="124" width="5" height="1" fill="#393637"/>
    <rect x="38" y="124" width="239" height="1" fill="#393637"/>
    <rect x="312" y="124" width="6" height="1" fill="#393637"/>
    <rect x="1" y="125" width="5" height="1" fill="#393637"/>
    <rect x="38" y="125" width="239" height="1" fill="#393637"/>
    <rect x="312" y="125" width="6" height="1" fill="#393637"/>
    <rect x="1" y="126" width="5" height="1" fill="#393637"/>
    <rect x="38" y="126" width="239" height="1" fill="#393637"/>
    <rect x="312" y="126" width="6" height="1" fill="#393637"/>
    <rect x="1" y="127" width="5" height="1" fill="#393637"/>
    <rect x="38" y="127" width="239" height="1" fill="#393637"/>
    <rect x="312" y="127" width="6" height="1" fill="#393637"/>
    <rect x="1" y="128" width="5" height="1" fill="#393637"/>
    <rect x="38" y="128" width="239" height="1" fill="#393637"/>
    <rect x="312" y="128" width="6" height="1" fill="#393637"/>
    <rect x="1" y="129" width="5" height="1" fill="#393637"/>
    <rect x="38" y="129" width="239" height="1" fill="#393637"/>
    <rect x="312" y="129" width="6" height="1" fill="#393637"/>
    <rect x="1" y="130" width="5" height="1" fill="#393637"/>
    <rect x="38" y="130" width="239" height="1" fill="#393637"/>
    <rect x="312" y="130" width="6" height="1" fill="#393637"/>
    <rect x="1" y="131" width="5" height="1" fill="#393637"/>
    <rect x="38" y="131" width="239" height="1" fill="#393637"/>
    <rect x="312" y="131" width="6" height="1" fill="#393637"/>
    <rect x="1" y="132" width="5" height="1" fill="#393637"/>
    <rect x="38" y="132" width="239" height="1" fill="#393637"/>
    <rect x="312" y="132" width="6" height="1" fill="#393637"/>
    <rect x="1" y="133" width="5" height="1" fill="#393637"/>
    <rect x="38" y="133" width="239" height="1" fill="#393637"/>
    <rect x="312" y="133" width="6" height="1" fill="#393637"/>
    <rect x="1" y="134" width="5" height="1" fill="#393637"/>
    <rect x="38" y="134" width="239" height="1" fill="#393637"/>
    <rect x="312" y="134" width="6" height="1" fill="#393637"/>
    <rect x="1" y="135" width="5" height="1" fill="#393637"/>
    <rect x="38" y="135" width="239" height="1" fill="#393637"/>
    <rect x="312" y="135" width="6" height="1" fill="#393637"/>
    <rect x="1" y="136" width="5" height="1" fill="#393637"/>
    <rect x="38" y="136" width="239" height="1" fill="#393637"/>
    <rect x="312" y="136" width="6" height="1" fill="#393637"/>
    <rect x="1" y="137" width="5" height="1" fill="#393637"/>
    <rect x="38" y="137" width="239" height="1" fill="#393637"/>
    <rect x="312" y="137" width="6" height="1" fill="#393637"/>
    <rect x="1" y="138" width="5" height="1" fill="#393637"/>
    <rect x="38" y="138" width="239" height="1" fill="#393637"/>
    <rect x="312" y="138" width="6" height="1" fill="#393637"/>
    <rect x="1" y="139" width="5" height="1" fill="#393637"/>
    <rect x="38" y="139" width="239" height="1" fill="#393637"/>
    <rect x="312" y="139" width="6" height="1" fill="#393637"/>
    <rect x="1" y="140" width="5" height="1" fill="#393637"/>
    <rect x="38" y="140" width="239" height="1" fill="#393637"/>
    <rect x="312" y="140" width="6" height="1" fill="#393637"/>
    <rect x="1" y="141" width="5" height="1" fill="#393637"/>
    <rect x="38" y="141" width="239" height="1" fill="#393637"/>
    <rect x="312" y="141" width="6" height="1" fill="#393637"/>
    <rect x="1" y="142" width="5" height="1" fill="#393637"/>
    <rect x="38" y="142" width="239" height="1" fill="#393637"/>
    <rect x="312" y="142" width="6" height="1" fill="#393637"/>
    <rect x="1" y="143" width="5" height="1" fill="#393637"/>
    <rect x="38" y="143" width="239" height="1" fill="#393637"/>
    <rect x="312" y="143" width="6" height="1" fill="#393637"/>
    <rect x="1" y="144" width="5" height="1" fill="#393637"/>
    <rect x="38" y="144" width="239" height="1" fill="#393637"/>
    <rect x="312" y="144" width="6" height="1" fill="#393637"/>
    <rect x="1" y="145" width="5" height="1" fill="#393637"/>
    <rect x="38" y="145" width="239" height="1" fill="#393637"/>
    <rect x="312" y="145" width="6" height="1" fill="#393637"/>
    <rect x="1" y="146" width="5" height="1" fill="#393637"/>
    <rect x="38" y="146" width="239" height="1" fill="#393637"/>
    <rect x="312" y="146" width="6" height="1" fill="#393637"/>
    <rect x="1" y="147" width="5" height="1" fill="#393637"/>
    <rect x="38" y="147" width="239" height="1" fill="#393637"/>
    <rect x="312" y="147" width="6" height="1" fill="#393637"/>
    <rect x="1" y="148" width="5" height="1" fill="#393637"/>
    <rect x="38" y="148" width="239" height="1" fill="#393637"/>
    <rect x="312" y="148" width="6" height="1" fill="#393637"/>
    <rect x="1" y="149" width="5" height="1" fill="#393637"/>
    <rect x="38" y="149" width="239" height="1" fill="#393637"/>
    <rect x="312" y="149" width="6" height="1" fill="#393637"/>
    <rect x="1" y="150" width="5" height="1" fill="#393637"/>
    <rect x="38" y="150" width="239" height="1" fill="#393637"/>
    <rect x="312" y="150" width="6" height="1" fill="#393637"/>
    <rect x="1" y="151" width="5" height="1" fill="#393637"/>
    <rect x="38" y="151" width="239" height="1" fill="#393637"/>
    <rect x="312" y="151" width="6" height="1" fill="#393637"/>
    <rect x="1" y="152" width="5" height="1" fill="#393637"/>
    <rect x="38" y="152" width="239" height="1" fill="#393637"/>
    <rect x="312" y="152" width="6" height="1" fill="#393637"/>
    <rect x="1" y="153" width="5" height="1" fill="#393637"/>
    <rect x="38" y="153" width="239" height="1" fill="#393637"/>
    <rect x="312" y="153" width="6" height="1" fill="#393637"/>
    <rect x="1" y="154" width="5" height="1" fill="#393637"/>
    <rect x="38" y="154" width="239" height="1" fill="#393637"/>
    <rect x="312" y="154" width="6" height="1" fill="#393637"/>
    <rect x="1" y="155" width="5" height="1" fill="#393637"/>
    <rect x="38" y="155" width="239" height="1" fill="#393637"/>
    <rect x="312" y="155" width="6" height="1" fill="#393637"/>
    <rect x="1" y="156" width="5" height="1" fill="#393637"/>
    <rect x="38" y="156" width="239" height="1" fill="#393637"/>
    <rect x="312" y="156" width="6" height="1" fill="#393637"/>
    <rect x="1" y="157" width="5" height="1" fill="#393637"/>
    <rect x="38" y="157" width="239" height="1" fill="#393637"/>
    <rect x="312" y="157" width="6" height="1" fill="#393637"/>
    <rect x="1" y="158" width="5" height="1" fill="#393637"/>
    <rect x="38" y="158" width="239" height="1" fill="#393637"/>
    <rect x="312" y="158" width="6" height="1" fill="#393637"/>
    <rect x="1" y="159" width="5" height="1" fill="#393637"/>
    <rect x="38" y="159" width="239" height="1" fill="#393637"/>
    <rect x="312" y="159" width="6" height="1" fill="#393637"/>
    <rect x="1" y="160" width="5" height="1" fill="#393637"/>
    <rect x="38" y="160" width="239" height="1" fill="#393637"/>
    <rect x="312" y="160" width="6" height="1" fill="#393637"/>
    <rect x="1" y="161" width="5" height="1" fill="#393637"/>
    <rect x="38" y="161" width="239" height="1" fill="#393637"/>
    <rect x="312" y="161" width="6" height="1" fill="#393637"/>
    <rect x="1" y="162" width="5" height="1" fill="#393637"/>
    <rect x="38" y="162" width="239" height="1" fill="#393637"/>
    <rect x="312" y="162" width="6" height="1" fill="#393637"/>
    <rect x="1" y="163" width="5" height="1" fill="#393637"/>
    <rect x="38" y="163" width="239" height="1" fill="#393637"/>
    <rect x="312" y="163" width="6" height="1" fill="#393637"/>
    <rect x="1" y="164" width="5" height="1" fill="#393637"/>
    <rect x="38" y="164" width="239" height="1" fill="#393637"/>
    <rect x="312" y="164" width="6" height="1" fill="#393637"/>
    <rect x="1" y="165" width="5" height="1" fill="#393637"/>
    <rect x="38" y="165" width="239" height="1" fill="#393637"/>
    <rect x="312" y="165" width="6" height="1" fill="#393637"/>
    <rect x="1" y="166" width="5" height="1" fill="#393637"/>
    <rect x="38" y="166" width="239" height="1" fill="#393637"/>
    <rect x="312" y="166" width="6" height="1" fill="#393637"/>
    <rect x="1" y="167" width="5" height="1" fill="#393637"/>
    <rect x="38" y="167" width="239" height="1" fill="#393637"/>
    <rect x="312" y="167" width="6" height="1" fill="#393637"/>
    <rect x="1" y="168" width="5" height="1" fill="#393637"/>
    <rect x="38" y="168" width="239" height="1" fill="#393637"/>
    <rect x="312" y="168" width="6" height="1" fill="#393637"/>
    <rect x="1" y="169" width="5" height="1" fill="#393637"/>
    <rect x="38" y="169" width="239" height="1" fill="#393637"/>
    <rect x="312" y="169" width="6" height="1" fill="#393637"/>
    <rect x="1" y="170" width="5" height="1" fill="#393637"/>
    <rect x="38" y="170" width="239" height="1" fill="#393637"/>
    <rect x="312" y="170" width="6" height="1" fill="#393637"/>
    <rect x="1" y="171" width="5" height="1" fill="#393637"/>
    <rect x="38" y="171" width="239" height="1" fill="#393637"/>
    <rect x="312" y="171" width="6" height="1" fill="#393637"/>
    <rect x="1" y="172" width="5" height="1" fill="#393637"/>
    <rect x="38" y="172" width="239" height="1" fill="#393637"/>
    <rect x="312" y="172" width="6" height="1" fill="#393637"/>
    <rect x="1" y="173" width="5" height="1" fill="#393637"/>
    <rect x="38" y="173" width="239" height="1" fill="#393637"/>
    <rect x="312" y="173" width="6" height="1" fill="#393637"/>
    <rect x="1" y="174" width="5" height="1" fill="#393637"/>
    <rect x="38" y="174" width="239" height="1" fill="#393637"/>
    <rect x="312" y="174" width="6" height="1" fill="#393637"/>
    <rect x="1" y="175" width="5" height="1" fill="#393637"/>
    <rect x="38" y="175" width="239" height="1" fill="#393637"/>
    <rect x="312" y="175" width="6" height="1" fill="#393637"/>
    <rect x="1" y="176" width="5" height="1" fill="#393637"/>
    <rect x="38" y="176" width="239" height="1" fill="#393637"/>
    <rect x="312" y="176" width="6" height="1" fill="#393637"/>
    <rect x="1" y="177" width="5" height="1" fill="#393637"/>
    <rect x="38" y="177" width="239" height="1" fill="#393637"/>
    <rect x="312" y="177" width="6" height="1" fill="#393637"/>
    <rect x="1" y="178" width="5" height="1" fill="#393637"/>
    <rect x="38" y="178" width="239" height="1" fill="#393637"/>
    <rect x="312" y="178" width="6" height="1" fill="#393637"/>
    <rect x="1" y="179" width="5" height="1" fill="#393637"/>
    <rect x="38" y="179" width="239" height="1" fill="#393637"/>
    <rect x="312" y="179" width="6" height="1" fill="#393637"/>
    <rect x="1" y="180" width="5" height="1" fill="#393637"/>
    <rect x="38" y="180" width="239" height="1" fill="#393637"/>
    <rect x="312" y="180" width="6" height="1" fill="#393637"/>
    <rect x="1" y="181" width="5" height="1" fill="#393637"/>
    <rect x="38" y="181" width="239" height="1" fill="#393637"/>
    <rect x="312" y="181" width="6" height="1" fill="#393637"/>
    <rect x="1" y="182" width="5" height="1" fill="#393637"/>
    <rect x="312" y="182" width="6" height="1" fill="#393637"/>
    <rect x="1" y="183" width="5" height="1" fill="#393637"/>
    <rect x="312" y="183" width="6" height="1" fill="#393637"/>
    <rect x="1" y="184" width="5" height="1" fill="#393637"/>
    <rect x="312" y="184" width="6" height="1" fill="#393637"/>
    <rect x="1" y="185" width="5" height="1" fill="#393637"/>
    <rect x="312" y="185" width="6" height="1" fill="#393637"/>
    <rect x="1" y="186" width="5" height="1" fill="#393637"/>
    <rect x="312" y="186" width="6" height="1" fill="#393637"/>
    <rect x="1" y="187" width="5" height="1" fill="#393637"/>
    <rect x="312" y="187" width="6" height="1" fill="#393637"/>
    <rect x="1" y="188" width="5" height="1" fill="#393637"/>
    <rect x="312" y="188" width="6" height="1" fill="#393637"/>
    <rect x="1" y="189" width="5" height="1" fill="#393637"/>
    <rect x="312" y="189" width="6" height="1" fill="#393637"/>
    <rect x="1" y="190" width="5" height="1" fill="#393637"/>
    <rect x="312" y="190" width="6" height="1" fill="#393637"/>
    <rect x="1" y="191" width="5" height="1" fill="#393637"/>
    <rect x="312" y="191" width="6" height="1" fill="#393637"/>
    <rect x="1" y="192" width="5" height="1" fill="#393637"/>
    <rect x="312" y="192" width="6" height="1" fill="#393637"/>
    <rect x="1" y="193" width="5" height="1" fill="#393637"/>
    <rect x="312" y="193" width="6" height="1" fill="#393637"/>
    <rect x="1" y="194" width="5" height="1" fill="#393637"/>
    <rect x="312" y="194" width="6" height="1" fill="#393637"/>
    <rect x="1" y="195" width="5" height="1" fill="#393637"/>
    <rect x="312" y="195" width="6" height="1" fill="#393637"/>
    <rect x="1" y="196" width="5" height="1" fill="#393637"/>
    <rect x="312" y="196" width="6" height="1" fill="#393637"/>
    <rect x="1" y="197" width="5" height="1" fill="#393637"/>
    <rect x="312" y="197" width="6" height="1" fill="#393637"/>
    <rect x="1" y="198" width="5" height="1" fill="#393637"/>
    <rect x="312" y="198" width="6" height="1" fill="#393637"/>
    <rect x="1" y="199" width="5" height="1" fill="#393637"/>
    <rect x="312" y="199" width="6" height="1" fill="#393637"/>
    <rect x="1" y="200" width="5" height="1" fill="#393637"/>
    <rect x="312" y="200" width="6" height="1" fill="#393637"/>
    <rect x="1" y="201" width="5" height="1" fill="#393637"/>
    <rect x="312" y="201" width="6" height="1" fill="#393637"/>
    <rect x="1" y="202" width="5" height="1" fill="#393637"/>
    <rect x="312" y="202" width="6" height="1" fill="#393637"/>
    <rect x="1" y="203" width="5" height="1" fill="#393637"/>
    <rect x="312" y="203" width="6" height="1" fill="#393637"/>
    <rect x="1" y="204" width="5" height="1" fill="#393637"/>
    <rect x="312" y="204" width="6" height="1" fill="#393637"/>
    <rect x="1" y="205" width="5" height="1" fill="#393637"/>
    <rect x="312" y="205" width="6" height="1" fill="#393637"/>
    <rect x="1" y="206" width="5" height="1" fill="#393637"/>
    <rect x="312" y="206" width="6" height="1" fill="#393637"/>
    <rect x="1" y="207" width="317" height="1" fill="#393637"/>
    <rect x="1" y="208" width="317" height="1" fill="#393637"/>
    <rect x="1" y="209" width="317" height="1" fill="#393637"/>
    <rect x="2" y="210" width="316" height="1" fill="#393637"/>
    <rect x="3" y="211" width="312" height="1" fill="#393637"/>
  </g>
</svg>