<?xml version="1.0" encoding="UTF-8"?>
<svg xmlns="http://www.w3.org/2000/svg" viewBox="0 0 147 59" width="147" height="59">
  <!-- Auto-converted from legend-1595.png -->
  <rect x="0" y="0" width="147" height="59" fill="none"/>
  <g fill="#231f20" stroke="none">
    <rect x="0" y="0" width="147" height="1" fill="#231f20"/>
    <rect x="0" y="1" width="1" height="1" fill="#231f20"/>
    <rect x="146" y="1" width="1" height="1" fill="#231f20"/>
    <rect x="0" y="2" width="1" height="1" fill="#231f20"/>
    <rect x="146" y="2" width="1" height="1" fill="#231f20"/>
    <rect x="0" y="3" width="1" height="1" fill="#231f20"/>
    <rect x="146" y="3" width="1" height="1" fill="#231f20"/>
    <rect x="0" y="4" width="1" height="1" fill="#231f20"/>
    <rect x="146" y="4" width="1" height="1" fill="#231f20"/>
    <rect x="0" y="5" width="1" height="1" fill="#231f20"/>
    <rect x="146" y="5" width="1" height="1" fill="#231f20"/>
    <rect x="0" y="6" width="1" height="1" fill="#231f20"/>
    <rect x="146" y="6" width="1" height="1" fill="#231f20"/>
    <rect x="0" y="7" width="1" height="1" fill="#231f20"/>
    <rect x="146" y="7" width="1" height="1" fill="#231f20"/>
    <rect x="0" y="8" width="1" height="1" fill="#231f20"/>
    <rect x="146" y="8" width="1" height="1" fill="#231f20"/>
    <rect x="0" y="9" width="1" height="1" fill="#231f20"/>
    <rect x="146" y="9" width="1" height="1" fill="#231f20"/>
    <rect x="0" y="10" width="1" height="1" fill="#231f20"/>
    <rect x="146" y="10" width="1" height="1" fill="#231f20"/>
    <rect x="0" y="11" width="1" height="1" fill="#231f20"/>
    <rect x="146" y="11" width="1" height="1" fill="#231f20"/>
    <rect x="0" y="12" width="1" height="1" fill="#231f20"/>
    <rect x="146" y="12" width="1" height="1" fill="#231f20"/>
    <rect x="0" y="13" width="1" height="1" fill="#231f20"/>
    <rect x="146" y="13" width="1" height="1" fill="#231f20"/>
    <rect x="0" y="14" width="1" height="1" fill="#231f20"/>
    <rect x="146" y="14" width="1" height="1" fill="#231f20"/>
    <rect x="0" y="15" width="1" height="1" fill="#231f20"/>
    <rect x="146" y="15" width="1" height="1" fill="#231f20"/>
    <rect x="0" y="16" width="1" height="1" fill="#231f20"/>
    <rect x="146" y="16" width="1" height="1" fill="#231f20"/>
    <rect x="0" y="17" width="1" height="1" fill="#231f20"/>
    <rect x="146" y="17" width="1" height="1" fill="#231f20"/>
    <rect x="0" y="18" width="1" height="1" fill="#231f20"/>
    <rect x="74" y="18" width="3" height="1" fill="#231f20"/>
    <rect x="146" y="18" width="1" height="1" fill="#231f20"/>
    <rect x="0" y="19" width="1" height="1" fill="#231f20"/>
    <rect x="15" y="19" width="3" height="1" fill="#231f20"/>
    <rect x="36" y="19" width="3" height="1" fill="#231f20"/>
    <rect x="55" y="19" width="3" height="1" fill="#231f20"/>
    <rect x="74" y="19" width="3" height="1" fill="#231f20"/>
    <rect x="94" y="19" width="3" height="1" fill="#231f20"/>
    <rect x="112" y="19" width="3" height="1" fill="#231f20"/>
    <rect x="132" y="19" width="3" height="1" fill="#231f20"/>
    <rect x="146" y="19" width="1" height="1" fill="#231f20"/>
    <rect x="0" y="20" width="147" height="1" fill="#231f20"/>
    <rect x="0" y="21" width="1" height="1" fill="#231f20"/>
    <rect x="13" y="21" width="5" height="1" fill="#231f20"/>
    <rect x="34" y="21" width="5" height="1" fill="#231f20"/>
    <rect x="53" y="21" width="5" height="1" fill="#231f20"/>
    <rect x="73" y="21" width="4" height="1" fill="#231f20"/>
    <rect x="92" y="21" width="5" height="1" fill="#231f20"/>
    <rect x="110" y="21" width="5" height="1" fill="#231f20"/>
    <rect x="130" y="21" width="5" height="1" fill="#231f20"/>
    <rect x="146" y="21" width="1" height="1" fill="#231f20"/>
    <rect x="0" y="22" width="1" height="1" fill="#231f20"/>
    <rect x="12" y="22" width="5" height="1" fill="#231f20"/>
    <rect x="33" y="22" width="5" height="1" fill="#231f20"/>
    <rect x="52" y="22" width="5" height="1" fill="#231f20"/>
    <rect x="71" y="22" width="5" height="1" fill="#231f20"/>
    <rect x="91" y="22" width="5" height="1" fill="#231f20"/>
    <rect x="110" y="22" width="4" height="1" fill="#231f20"/>
    <rect x="129" y="22" width="5" height="1" fill="#231f20"/>
    <rect x="146" y="22" width="1" height="1" fill="#231f20"/>
    <rect x="0" y="23" width="1" height="1" fill="#231f20"/>
    <rect x="12" y="23" width="4" height="1" fill="#231f20"/>
    <rect x="32" y="23" width="5" height="1" fill="#231f20"/>
    <rect x="51" y="23" width="5" height="1" fill="#231f20"/>
    <rect x="70" y="23" width="4" height="1" fill="#231f20"/>
    <rect x="91" y="23" width="4" height="1" fill="#231f20"/>
    <rect x="109" y="23" width="4" height="1" fill="#231f20"/>
    <rect x="129" y="23" width="4" height="1" fill="#231f20"/>
    <rect x="146" y="23" width="1" height="1" fill="#231f20"/>
    <rect x="0" y="24" width="1" height="1" fill="#231f20"/>
    <rect x="11" y="24" width="4" height="1" fill="#231f20"/>
    <rect x="32" y="24" width="4" height="1" fill="#231f20"/>
    <rect x="51" y="24" width="4" height="1" fill="#231f20"/>
    <rect x="69" y="24" width="6" height="1" fill="#231f20"/>
    <rect x="90" y="24" width="4" height="1" fill="#231f20"/>
    <rect x="108" y="24" width="5" height="1" fill="#231f20"/>
    <rect x="128" y="24" width="4" height="1" fill="#231f20"/>
    <rect x="145" y="24" width="2" height="1" fill="#231f20"/>
    <rect x="0" y="25" width="1" height="1" fill="#231f20"/>
    <rect x="10" y="25" width="5" height="1" fill="#231f20"/>
    <rect x="31" y="25" width="4" height="1" fill="#231f20"/>
    <rect x="50" y="25" width="4" height="1" fill="#231f20"/>
    <rect x="69" y="25" width="6" height="1" fill="#231f20"/>
    <rect x="89" y="25" width="5" height="1" fill="#231f20"/>
    <rect x="107" y="25" width="5" height="1" fill="#231f20"/>
    <rect x="127" y="25" width="5" height="1" fill="#231f20"/>
    <rect x="144" y="25" width="3" height="1" fill="#231f20"/>
    <rect x="0" y="26" width="1" height="1" fill="#231f20"/>
    <rect x="9" y="26" width="5" height="1" fill="#231f20"/>
    <rect x="30" y="26" width="5" height="1" fill="#231f20"/>
    <rect x="49" y="26" width="5" height="1" fill="#231f20"/>
    <rect x="68" y="26" width="7" height="1" fill="#231f20"/>
    <rect x="88" y="26" width="5" height="1" fill="#231f20"/>
    <rect x="106" y="26" width="5" height="1" fill="#231f20"/>
    <rect x="126" y="26" width="5" height="1" fill="#231f20"/>
    <rect x="143" y="26" width="4" height="1" fill="#231f20"/>
    <rect x="0" y="27" width="1" height="1" fill="#231f20"/>
    <rect x="8" y="27" width="5" height="1" fill="#231f20"/>
    <rect x="29" y="27" width="5" height="1" fill="#231f20"/>
    <rect x="48" y="27" width="5" height="1" fill="#231f20"/>
    <rect x="67" y="27" width="8" height="1" fill="#231f20"/>
    <rect x="87" y="27" width="5" height="1" fill="#231f20"/>
    <rect x="106" y="27" width="4" height="1" fill="#231f20"/>
    <rect x="125" y="27" width="5" height="1" fill="#231f20"/>
    <rect x="142" y="27" width="5" height="1" fill="#231f20"/>
    <rect x="0" y="28" width="1" height="1" fill="#231f20"/>
    <rect x="7" y="28" width="5" height="1" fill="#231f20"/>
    <rect x="28" y="28" width="5" height="1" fill="#231f20"/>
    <rect x="47" y="28" width="5" height="1" fill="#231f20"/>
    <rect x="66" y="28" width="5" height="1" fill="#231f20"/>
    <rect x="72" y="28" width="3" height="1" fill="#231f20"/>
    <rect x="86" y="28" width="5" height="1" fill="#231f20"/>
    <rect x="105" y="28" width="4" height="1" fill="#231f20"/>
    <rect x="124" y="28" width="5" height="1" fill="#231f20"/>
    <rect x="142" y="28" width="5" height="1" fill="#231f20"/>
    <rect x="0" y="29" width="1" height="1" fill="#231f20"/>
    <rect x="7" y="29" width="4" height="1" fill="#231f20"/>
    <rect x="27" y="29" width="5" height="1" fill="#231f20"/>
    <rect x="46" y="29" width="5" height="1" fill="#231f20"/>
    <rect x="65" y="29" width="5" height="1" fill="#231f20"/>
    <rect x="72" y="29" width="3" height="1" fill="#231f20"/>
    <rect x="78" y="29" width="3" height="1" fill="#231f20"/>
    <rect x="85" y="29" width="5" height="1" fill="#231f20"/>
    <rect x="104" y="29" width="5" height="1" fill="#231f20"/>
    <rect x="124" y="29" width="4" height="1" fill="#231f20"/>
    <rect x="141" y="29" width="4" height="1" fill="#231f20"/>
    <rect x="146" y="29" width="1" height="1" fill="#231f20"/>
    <rect x="0" y="30" width="1" height="1" fill="#231f20"/>
    <rect x="6" y="30" width="4" height="1" fill="#231f20"/>
    <rect x="26" y="30" width="5" height="1" fill="#231f20"/>
    <rect x="45" y="30" width="5" height="1" fill="#231f20"/>
    <rect x="65" y="30" width="4" height="1" fill="#231f20"/>
    <rect x="72" y="30" width="3" height="1" fill="#231f20"/>
    <rect x="77" y="30" width="3" height="1" fill="#231f20"/>
    <rect x="84" y="30" width="5" height="1" fill="#231f20"/>
    <rect x="103" y="30" width="5" height="1" fill="#231f20"/>
    <rect x="123" y="30" width="4" height="1" fill="#231f20"/>
    <rect x="140" y="30" width="5" height="1" fill="#231f20"/>
    <rect x="146" y="30" width="1" height="1" fill="#231f20"/>
    <rect x="0" y="31" width="1" height="1" fill="#231f20"/>
    <rect x="5" y="31" width="5" height="1" fill="#231f20"/>
    <rect x="25" y="31" width="5" height="1" fill="#231f20"/>
    <rect x="44" y="31" width="5" height="1" fill="#231f20"/>
    <rect x="64" y="31" width="4" height="1" fill="#231f20"/>
    <rect x="72" y="31" width="3" height="1" fill="#231f20"/>
    <rect x="76" y="31" width="3" height="1" fill="#231f20"/>
    <rect x="84" y="31" width="4" height="1" fill="#231f20"/>
    <rect x="103" y="31" width="4" height="1" fill="#231f20"/>
    <rect x="122" y="31" width="5" height="1" fill="#231f20"/>
    <rect x="139" y="31" width="5" height="1" fill="#231f20"/>
    <rect x="146" y="31" width="1" height="1" fill="#231f20"/>
    <rect x="0" y="32" width="1" height="1" fill="#231f20"/>
    <rect x="4" y="32" width="5" height="1" fill="#231f20"/>
    <rect x="24" y="32" width="5" height="1" fill="#231f20"/>
    <rect x="43" y="32" width="5" height="1" fill="#231f20"/>
    <rect x="63" y="32" width="5" height="1" fill="#231f20"/>
    <rect x="72" y="32" width="6" height="1" fill="#231f20"/>
    <rect x="83" y="32" width="4" height="1" fill="#231f20"/>
    <rect x="102" y="32" width="4" height="1" fill="#231f20"/>
    <rect x="121" y="32" width="5" height="1" fill="#231f20"/>
    <rect x="138" y="32" width="5" height="1" fill="#231f20"/>
    <rect x="146" y="32" width="1" height="1" fill="#231f20"/>
    <rect x="0" y="33" width="1" height="1" fill="#231f20"/>
    <rect x="3" y="33" width="5" height="1" fill="#231f20"/>
    <rect x="23" y="33" width="5" height="1" fill="#231f20"/>
    <rect x="42" y="33" width="5" height="1" fill="#231f20"/>
    <rect x="62" y="33" width="5" height="1" fill="#231f20"/>
    <rect x="72" y="33" width="7" height="1" fill="#231f20"/>
    <rect x="82" y="33" width="5" height="1" fill="#231f20"/>
    <rect x="101" y="33" width="5" height="1" fill="#231f20"/>
    <rect x="120" y="33" width="5" height="1" fill="#231f20"/>
    <rect x="137" y="33" width="5" height="1" fill="#231f20"/>
    <rect x="146" y="33" width="1" height="1" fill="#231f20"/>
    <rect x="0" y="34" width="1" height="1" fill="#231f20"/>
    <rect x="2" y="34" width="5" height="1" fill="#231f20"/>
    <rect x="23" y="34" width="4" height="1" fill="#231f20"/>
    <rect x="42" y="34" width="4" height="1" fill="#231f20"/>
    <rect x="61" y="34" width="5" height="1" fill="#231f20"/>
    <rect x="72" y="34" width="3" height="1" fill="#231f20"/>
    <rect x="77" y="34" width="3" height="1" fill="#231f20"/>
    <rect x="81" y="34" width="5" height="1" fill="#231f20"/>
    <rect x="100" y="34" width="5" height="1" fill="#231f20"/>
    <rect x="119" y="34" width="5" height="1" fill="#231f20"/>
    <rect x="136" y="34" width="5" height="1" fill="#231f20"/>
    <rect x="146" y="34" width="1" height="1" fill="#231f20"/>
    <rect x="0" y="35" width="1" height="1" fill="#231f20"/>
    <rect x="2" y="35" width="4" height="1" fill="#231f20"/>
    <rect x="22" y="35" width="4" height="1" fill="#231f20"/>
    <rect x="41" y="35" width="4" height="1" fill="#231f20"/>
    <rect x="60" y="35" width="5" height="1" fill="#231f20"/>
    <rect x="72" y="35" width="3" height="1" fill="#231f20"/>
    <rect x="77" y="35" width="3" height="1" fill="#231f20"/>
    <rect x="81" y="35" width="4" height="1" fill="#231f20"/>
    <rect x="99" y="35" width="5" height="1" fill="#231f20"/>
    <rect x="119" y="35" width="4" height="1" fill="#231f20"/>
    <rect x="136" y="35" width="4" height="1" fill="#231f20"/>
    <rect x="146" y="35" width="1" height="1" fill="#231f20"/>
    <rect x="0" y="36" width="5" height="1" fill="#231f20"/>
    <rect x="21" y="36" width="5" height="1" fill="#231f20"/>
    <rect x="40" y="36" width="5" height="1" fill="#231f20"/>
    <rect x="60" y="36" width="4" height="1" fill="#231f20"/>
    <rect x="72" y="36" width="3" height="1" fill="#231f20"/>
    <rect x="78" y="36" width="6" height="1" fill="#231f20"/>
    <rect x="99" y="36" width="4" height="1" fill="#231f20"/>
    <rect x="118" y="36" width="4" height="1" fill="#231f20"/>
    <rect x="135" y="36" width="4" height="1" fill="#231f20"/>
    <rect x="146" y="36" width="1" height="1" fill="#231f20"/>
    <rect x="0" y="37" width="5" height="1" fill="#231f20"/>
    <rect x="20" y="37" width="5" height="1" fill="#231f20"/>
    <rect x="39" y="37" width="5" height="1" fill="#231f20"/>
    <rect x="59" y="37" width="4" height="1" fill="#231f20"/>
    <rect x="72" y="37" width="3" height="1" fill="#231f20"/>
    <rect x="78" y="37" width="4" height="1" fill="#231f20"/>
    <rect x="98" y="37" width="4" height="1" fill="#231f20"/>
    <rect x="117" y="37" width="5" height="1" fill="#231f20"/>
    <rect x="134" y="37" width="5" height="1" fill="#231f20"/>
    <rect x="146" y="37" width="1" height="1" fill="#231f20"/>
    <rect x="0" y="38" width="4" height="1" fill="#231f20"/>
    <rect x="19" y="38" width="5" height="1" fill="#231f20"/>
    <rect x="38" y="38" width="5" height="1" fill="#231f20"/>
    <rect x="58" y="38" width="5" height="1" fill="#231f20"/>
    <rect x="77" y="38" width="5" height="1" fill="#231f20"/>
    <rect x="97" y="38" width="5" height="1" fill="#231f20"/>
    <rect x="116" y="38" width="5" height="1" fill="#231f20"/>
    <rect x="133" y="38" width="5" height="1" fill="#231f20"/>
    <rect x="146" y="38" width="1" height="1" fill="#231f20"/>
    <rect x="0" y="39" width="147" height="1" fill="#231f20"/>
    <rect x="0" y="40" width="2" height="1" fill="#231f20"/>
    <rect x="19" y="40" width="3" height="1" fill="#231f20"/>
    <rect x="38" y="40" width="3" height="1" fill="#231f20"/>
    <rect x="58" y="40" width="3" height="1" fill="#231f20"/>
    <rect x="77" y="40" width="3" height="1" fill="#231f20"/>
    <rect x="97" y="40" width="3" height="1" fill="#231f20"/>
    <rect x="116" y="40" width="3" height="1" fill="#231f20"/>
    <rect x="133" y="40" width="3" height="1" fill="#231f20"/>
    <rect x="146" y="40" width="1" height="1" fill="#231f20"/>
    <rect x="0" y="41" width="1" height="1" fill="#231f20"/>
    <rect x="146" y="41" width="1" height="1" fill="#231f20"/>
    <rect x="0" y="42" width="1" height="1" fill="#231f20"/>
    <rect x="146" y="42" width="1" height="1" fill="#231f20"/>
    <rect x="0" y="43" width="1" height="1" fill="#231f20"/>
    <rect x="146" y="43" width="1" height="1" fill="#231f20"/>
    <rect x="0" y="44" width="1" height="1" fill="#231f20"/>
    <rect x="146" y="44" width="1" height="1" fill="#231f20"/>
    <rect x="0" y="45" width="1" height="1" fill="#231f20"/>
    <rect x="146" y="45" width="1" height="1" fill="#231f20"/>
    <rect x="0" y="46" width="1" height="1" fill="#231f20"/>
    <rect x="146" y="46" width="1" height="1" fill="#231f20"/>
    <rect x="0" y="47" width="1" height="1" fill="#231f20"/>
    <rect x="146" y="47" width="1" height="1" fill="#231f20"/>
    <rect x="0" y="48" width="1" height="1" fill="#231f20"/>
    <rect x="146" y="48" width="1" height="1" fill="#231f20"/>
    <rect x="0" y="49" width="1" height="1" fill="#231f20"/>
    <rect x="146" y="49" width="1" height="1" fill="#231f20"/>
    <rect x="0" y="50" width="1" height="1" fill="#231f20"/>
    <rect x="146" y="50" width="1" height="1" fill="#231f20"/>
    <rect x="0" y="51" width="1" height="1" fill="#231f20"/>
    <rect x="146" y="51" width="1" height="1" fill="#231f20"/>
    <rect x="0" y="52" width="1" height="1" fill="#231f20"/>
    <rect x="146" y="52" width="1" height="1" fill="#231f20"/>
    <rect x="0" y="53" width="1" height="1" fill="#231f20"/>
    <rect x="146" y="53" width="1" height="1" fill="#231f20"/>
    <rect x="0" y="54" width="1" height="1" fill="#231f20"/>
    <rect x="146" y="54" width="1" height="1" fill="#231f20"/>
    <rect x="0" y="55" width="1" height="1" fill="#231f20"/>
    <rect x="146" y="55" width="1" height="1" fill="#231f20"/>
    <rect x="0" y="56" width="1" height="1" fill="#231f20"/>
    <rect x="146" y="56" width="1" height="1" fill="#231f20"/>
    <rect x="0" y="57" width="1" height="1" fill="#231f20"/>
    <rect x="146" y="57" width="1" height="1" fill="#231f20"/>
    <rect x="0" y="58" width="147" height="1" fill="#231f20"/>
  </g>
</svg>