<?xml version="1.0" encoding="UTF-8"?>
<svg xmlns="http://www.w3.org/2000/svg" viewBox="0 0 173 79" width="173" height="79">
  <!-- Auto-converted from legend-2703.png -->
  <rect x="0" y="0" width="173" height="79" fill="none"/>
  <g fill="#2a2627" stroke="none">
    <rect x="0" y="0" width="173" height="1" fill="#2a2627"/>
    <rect x="0" y="1" width="1" height="1" fill="#2a2627"/>
    <rect x="172" y="1" width="1" height="1" fill="#2a2627"/>
    <rect x="0" y="2" width="1" height="1" fill="#2a2627"/>
    <rect x="172" y="2" width="1" height="1" fill="#2a2627"/>
    <rect x="0" y="3" width="1" height="1" fill="#2a2627"/>
    <rect x="172" y="3" width="1" height="1" fill="#2a2627"/>
    <rect x="0" y="4" width="1" height="1" fill="#2a2627"/>
    <rect x="172" y="4" width="1" height="1" fill="#2a2627"/>
    <rect x="0" y="5" width="1" height="1" fill="#2a2627"/>
    <rect x="172" y="5" width="1" height="1" fill="#2a2627"/>
    <rect x="0" y="6" width="1" height="1" fill="#2a2627"/>
    <rect x="172" y="6" width="1" height="1" fill="#2a2627"/>
    <rect x="0" y="7" width="1" height="1" fill="#2a2627"/>
    <rect x="172" y="7" width="1" height="1" fill="#2a2627"/>
    <rect x="0" y="8" width="1" height="1" fill="#2a2627"/>
    <rect x="172" y="8" width="1" height="1" fill="#2a2627"/>
    <rect x="0" y="9" width="1" height="1" fill="#2a2627"/>
    <rect x="172" y="9" width="1" height="1" fill="#2a2627"/>
    <rect x="0" y="10" width="1" height="1" fill="#2a2627"/>
    <rect x="172" y="10" width="1" height="1" fill="#2a2627"/>
    <rect x="0" y="11" width="1" height="1" fill="#2a2627"/>
    <rect x="172" y="11" width="1" height="1" fill="#2a2627"/>
    <rect x="0" y="12" width="1" height="1" fill="#2a2627"/>
    <rect x="172" y="12" width="1" height="1" fill="#2a2627"/>
    <rect x="0" y="13" width="1" height="1" fill="#2a2627"/>
    <rect x="172" y="13" width="1" height="1" fill="#2a2627"/>
    <rect x="0" y="14" width="1" height="1" fill="#2a2627"/>
    <rect x="172" y="14" width="1" height="1" fill="#2a2627"/>
    <rect x="0" y="15" width="1" height="1" fill="#2a2627"/>
    <rect x="172" y="15" width="1" height="1" fill="#2a2627"/>
    <rect x="0" y="16" width="1" height="1" fill="#2a2627"/>
    <rect x="172" y="16" width="1" height="1" fill="#2a2627"/>
    <rect x="0" y="17" width="1" height="1" fill="#2a2627"/>
    <rect x="172" y="17" width="1" height="1" fill="#2a2627"/>
    <rect x="0" y="18" width="1" height="1" fill="#2a2627"/>
    <rect x="172" y="18" width="1" height="1" fill="#2a2627"/>
    <rect x="0" y="19" width="1" height="1" fill="#2a2627"/>
    <rect x="172" y="19" width="1" height="1" fill="#2a2627"/>
    <rect x="0" y="20" width="1" height="1" fill="#2a2627"/>
    <rect x="172" y="20" width="1" height="1" fill="#2a2627"/>
    <rect x="0" y="21" width="1" height="1" fill="#2a2627"/>
    <rect x="172" y="21" width="1" height="1" fill="#2a2627"/>
    <rect x="0" y="22" width="1" height="1" fill="#2a2627"/>
    <rect x="172" y="22" width="1" height="1" fill="#2a2627"/>
    <rect x="0" y="23" width="1" height="1" fill="#2a2627"/>
    <rect x="172" y="23" width="1" height="1" fill="#2a2627"/>
    <rect x="0" y="24" width="1" height="1" fill="#2a2627"/>
    <rect x="172" y="24" width="1" height="1" fill="#2a2627"/>
    <rect x="0" y="25" width="1" height="1" fill="#2a2627"/>
    <rect x="172" y="25" width="1" height="1" fill="#2a2627"/>
    <rect x="0" y="26" width="1" height="1" fill="#2a2627"/>
    <rect x="172" y="26" width="1" height="1" fill="#2a2627"/>
    <rect x="0" y="27" width="1" height="1" fill="#2a2627"/>
    <rect x="172" y="27" width="1" height="1" fill="#2a2627"/>
    <rect x="0" y="28" width="1" height="1" fill="#2a2627"/>
    <rect x="172" y="28" width="1" height="1" fill="#2a2627"/>
    <rect x="0" y="29" width="1" height="1" fill="#2a2627"/>
    <rect x="172" y="29" width="1" height="1" fill="#2a2627"/>
    <rect x="0" y="30" width="1" height="1" fill="#2a2627"/>
    <rect x="76" y="30" width="7" height="1" fill="#2a2627"/>
    <rect x="84" y="30" width="9" height="1" fill="#2a2627"/>
    <rect x="97" y="30" width="15" height="1" fill="#2a2627"/>
    <rect x="120" y="30" width="1" height="1" fill="#2a2627"/>
    <rect x="129" y="30" width="1" height="1" fill="#2a2627"/>
    <rect x="172" y="30" width="1" height="1" fill="#2a2627"/>
    <rect x="0" y="31" width="1" height="1" fill="#2a2627"/>
    <rect x="36" y="31" width="17" height="1" fill="#2a2627"/>
    <rect x="76" y="31" width="2" height="1" fill="#2a2627"/>
    <rect x="81" y="31" width="1" height="1" fill="#2a2627"/>
    <rect x="84" y="31" width="9" height="1" fill="#2a2627"/>
    <rect x="104" y="31" width="1" height="1" fill="#2a2627"/>
    <rect x="120" y="31" width="1" height="1" fill="#2a2627"/>
    <rect x="129" y="31" width="1" height="1" fill="#2a2627"/>
    <rect x="172" y="31" width="1" height="1" fill="#2a2627"/>
    <rect x="0" y="32" width="1" height="1" fill="#2a2627"/>
    <rect x="36" y="32" width="17" height="1" fill="#2a2627"/>
    <rect x="76" y="32" width="2" height="1" fill="#2a2627"/>
    <rect x="80" y="32" width="2" height="1" fill="#2a2627"/>
    <rect x="84" y="32" width="2" height="1" fill="#2a2627"/>
    <rect x="91" y="32" width="2" height="1" fill="#2a2627"/>
    <rect x="104" y="32" width="1" height="1" fill="#2a2627"/>
    <rect x="119" y="32" width="2" height="1" fill="#2a2627"/>
    <rect x="124" y="32" width="11" height="1" fill="#2a2627"/>
    <rect x="172" y="32" width="1" height="1" fill="#2a2627"/>
    <rect x="0" y="33" width="1" height="1" fill="#2a2627"/>
    <rect x="36" y="33" width="17" height="1" fill="#2a2627"/>
    <rect x="76" y="33" width="2" height="1" fill="#2a2627"/>
    <rect x="80" y="33" width="2" height="1" fill="#2a2627"/>
    <rect x="84" y="33" width="2" height="1" fill="#2a2627"/>
    <rect x="91" y="33" width="2" height="1" fill="#2a2627"/>
    <rect x="99" y="33" width="1" height="1" fill="#2a2627"/>
    <rect x="104" y="33" width="1" height="1" fill="#2a2627"/>
    <rect x="109" y="33" width="2" height="1" fill="#2a2627"/>
    <rect x="119" y="33" width="2" height="1" fill="#2a2627"/>
    <rect x="123" y="33" width="1" height="1" fill="#2a2627"/>
    <rect x="129" y="33" width="1" height="1" fill="#2a2627"/>
    <rect x="172" y="33" width="1" height="1" fill="#2a2627"/>
    <rect x="0" y="34" width="1" height="1" fill="#2a2627"/>
    <rect x="36" y="34" width="17" height="1" fill="#2a2627"/>
    <rect x="76" y="34" width="2" height="1" fill="#2a2627"/>
    <rect x="80" y="34" width="1" height="1" fill="#2a2627"/>
    <rect x="84" y="34" width="2" height="1" fill="#2a2627"/>
    <rect x="91" y="34" width="2" height="1" fill="#2a2627"/>
    <rect x="99" y="34" width="1" height="1" fill="#2a2627"/>
    <rect x="104" y="34" width="1" height="1" fill="#2a2627"/>
    <rect x="109" y="34" width="2" height="1" fill="#2a2627"/>
    <rect x="118" y="34" width="6" height="1" fill="#2a2627"/>
    <rect x="129" y="34" width="1" height="1" fill="#2a2627"/>
    <rect x="172" y="34" width="1" height="1" fill="#2a2627"/>
    <rect x="0" y="35" width="1" height="1" fill="#2a2627"/>
    <rect x="36" y="35" width="17" height="1" fill="#2a2627"/>
    <rect x="76" y="35" width="2" height="1" fill="#2a2627"/>
    <rect x="80" y="35" width="1" height="1" fill="#2a2627"/>
    <rect x="84" y="35" width="2" height="1" fill="#2a2627"/>
    <rect x="91" y="35" width="2" height="1" fill="#2a2627"/>
    <rect x="99" y="35" width="2" height="1" fill="#2a2627"/>
    <rect x="104" y="35" width="1" height="1" fill="#2a2627"/>
    <rect x="108" y="35" width="2" height="1" fill="#2a2627"/>
    <rect x="118" y="35" width="2" height="1" fill="#2a2627"/>
    <rect x="126" y="35" width="8" height="1" fill="#2a2627"/>
    <rect x="172" y="35" width="1" height="1" fill="#2a2627"/>
    <rect x="0" y="36" width="1" height="1" fill="#2a2627"/>
    <rect x="36" y="36" width="17" height="1" fill="#2a2627"/>
    <rect x="76" y="36" width="2" height="1" fill="#2a2627"/>
    <rect x="79" y="36" width="2" height="1" fill="#2a2627"/>
    <rect x="84" y="36" width="2" height="1" fill="#2a2627"/>
    <rect x="91" y="36" width="2" height="1" fill="#2a2627"/>
    <rect x="99" y="36" width="2" height="1" fill="#2a2627"/>
    <rect x="104" y="36" width="1" height="1" fill="#2a2627"/>
    <rect x="108" y="36" width="2" height="1" fill="#2a2627"/>
    <rect x="117" y="36" width="2" height="1" fill="#2a2627"/>
    <rect x="126" y="36" width="1" height="1" fill="#2a2627"/>
    <rect x="132" y="36" width="2" height="1" fill="#2a2627"/>
    <rect x="172" y="36" width="1" height="1" fill="#2a2627"/>
    <rect x="0" y="37" width="1" height="1" fill="#2a2627"/>
    <rect x="36" y="37" width="17" height="1" fill="#2a2627"/>
    <rect x="76" y="37" width="2" height="1" fill="#2a2627"/>
    <rect x="80" y="37" width="1" height="1" fill="#2a2627"/>
    <rect x="84" y="37" width="9" height="1" fill="#2a2627"/>
    <rect x="104" y="37" width="1" height="1" fill="#2a2627"/>
    <rect x="108" y="37" width="1" height="1" fill="#2a2627"/>
    <rect x="117" y="37" width="1" height="1" fill="#2a2627"/>
    <rect x="119" y="37" width="4" height="1" fill="#2a2627"/>
    <rect x="126" y="37" width="8" height="1" fill="#2a2627"/>
    <rect x="172" y="37" width="1" height="1" fill="#2a2627"/>
    <rect x="0" y="38" width="1" height="1" fill="#2a2627"/>
    <rect x="36" y="38" width="17" height="1" fill="#2a2627"/>
    <rect x="76" y="38" width="2" height="1" fill="#2a2627"/>
    <rect x="80" y="38" width="2" height="1" fill="#2a2627"/>
    <rect x="84" y="38" width="2" height="1" fill="#2a2627"/>
    <rect x="91" y="38" width="2" height="1" fill="#2a2627"/>
    <rect x="104" y="38" width="1" height="1" fill="#2a2627"/>
    <rect x="120" y="38" width="1" height="1" fill="#2a2627"/>
    <rect x="126" y="38" width="1" height="1" fill="#2a2627"/>
    <rect x="132" y="38" width="2" height="1" fill="#2a2627"/>
    <rect x="172" y="38" width="1" height="1" fill="#2a2627"/>
    <rect x="0" y="39" width="1" height="1" fill="#2a2627"/>
    <rect x="36" y="39" width="17" height="1" fill="#2a2627"/>
    <rect x="76" y="39" width="2" height="1" fill="#2a2627"/>
    <rect x="81" y="39" width="1" height="1" fill="#2a2627"/>
    <rect x="84" y="39" width="2" height="1" fill="#2a2627"/>
    <rect x="91" y="39" width="2" height="1" fill="#2a2627"/>
    <rect x="95" y="39" width="19" height="1" fill="#2a2627"/>
    <rect x="120" y="39" width="1" height="1" fill="#2a2627"/>
    <rect x="126" y="39" width="8" height="1" fill="#2a2627"/>
    <rect x="172" y="39" width="1" height="1" fill="#2a2627"/>
    <rect x="0" y="40" width="1" height="1" fill="#2a2627"/>
    <rect x="36" y="40" width="17" height="1" fill="#2a2627"/>
    <rect x="76" y="40" width="2" height="1" fill="#2a2627"/>
    <rect x="81" y="40" width="2" height="1" fill="#2a2627"/>
    <rect x="84" y="40" width="2" height="1" fill="#2a2627"/>
    <rect x="91" y="40" width="2" height="1" fill="#2a2627"/>
    <rect x="95" y="40" width="19" height="1" fill="#2a2627"/>
    <rect x="118" y="40" width="6" height="1" fill="#2a2627"/>
    <rect x="126" y="40" width="1" height="1" fill="#2a2627"/>
    <rect x="132" y="40" width="2" height="1" fill="#2a2627"/>
    <rect x="172" y="40" width="1" height="1" fill="#2a2627"/>
    <rect x="0" y="41" width="1" height="1" fill="#2a2627"/>
    <rect x="36" y="41" width="17" height="1" fill="#2a2627"/>
    <rect x="76" y="41" width="2" height="1" fill="#2a2627"/>
    <rect x="81" y="41" width="2" height="1" fill="#2a2627"/>
    <rect x="84" y="41" width="2" height="1" fill="#2a2627"/>
    <rect x="91" y="41" width="2" height="1" fill="#2a2627"/>
    <rect x="104" y="41" width="1" height="1" fill="#2a2627"/>
    <rect x="118" y="41" width="6" height="1" fill="#2a2627"/>
    <rect x="126" y="41" width="8" height="1" fill="#2a2627"/>
    <rect x="172" y="41" width="1" height="1" fill="#2a2627"/>
    <rect x="0" y="42" width="1" height="1" fill="#2a2627"/>
    <rect x="36" y="42" width="17" height="1" fill="#2a2627"/>
    <rect x="76" y="42" width="2" height="1" fill="#2a2627"/>
    <rect x="79" y="42" width="3" height="1" fill="#2a2627"/>
    <rect x="84" y="42" width="2" height="1" fill="#2a2627"/>
    <rect x="91" y="42" width="2" height="1" fill="#2a2627"/>
    <rect x="104" y="42" width="1" height="1" fill="#2a2627"/>
    <rect x="120" y="42" width="1" height="1" fill="#2a2627"/>
    <rect x="126" y="42" width="1" height="1" fill="#2a2627"/>
    <rect x="132" y="42" width="2" height="1" fill="#2a2627"/>
    <rect x="172" y="42" width="1" height="1" fill="#2a2627"/>
    <rect x="0" y="43" width="1" height="1" fill="#2a2627"/>
    <rect x="36" y="43" width="17" height="1" fill="#2a2627"/>
    <rect x="76" y="43" width="2" height="1" fill="#2a2627"/>
    <rect x="79" y="43" width="2" height="1" fill="#2a2627"/>
    <rect x="84" y="43" width="9" height="1" fill="#2a2627"/>
    <rect x="104" y="43" width="1" height="1" fill="#2a2627"/>
    <rect x="120" y="43" width="1" height="1" fill="#2a2627"/>
    <rect x="126" y="43" width="1" height="1" fill="#2a2627"/>
    <rect x="132" y="43" width="2" height="1" fill="#2a2627"/>
    <rect x="172" y="43" width="1" height="1" fill="#2a2627"/>
    <rect x="0" y="44" width="1" height="1" fill="#2a2627"/>
    <rect x="36" y="44" width="17" height="1" fill="#2a2627"/>
    <rect x="76" y="44" width="2" height="1" fill="#2a2627"/>
    <rect x="84" y="44" width="9" height="1" fill="#2a2627"/>
    <rect x="104" y="44" width="1" height="1" fill="#2a2627"/>
    <rect x="120" y="44" width="1" height="1" fill="#2a2627"/>
    <rect x="124" y="44" width="12" height="1" fill="#2a2627"/>
    <rect x="172" y="44" width="1" height="1" fill="#2a2627"/>
    <rect x="0" y="45" width="1" height="1" fill="#2a2627"/>
    <rect x="36" y="45" width="17" height="1" fill="#2a2627"/>
    <rect x="76" y="45" width="2" height="1" fill="#2a2627"/>
    <rect x="84" y="45" width="2" height="1" fill="#2a2627"/>
    <rect x="91" y="45" width="2" height="1" fill="#2a2627"/>
    <rect x="104" y="45" width="1" height="1" fill="#2a2627"/>
    <rect x="120" y="45" width="4" height="1" fill="#2a2627"/>
    <rect x="126" y="45" width="1" height="1" fill="#2a2627"/>
    <rect x="131" y="45" width="1" height="1" fill="#2a2627"/>
    <rect x="172" y="45" width="1" height="1" fill="#2a2627"/>
    <rect x="0" y="46" width="1" height="1" fill="#2a2627"/>
    <rect x="36" y="46" width="17" height="1" fill="#2a2627"/>
    <rect x="76" y="46" width="2" height="1" fill="#2a2627"/>
    <rect x="84" y="46" width="2" height="1" fill="#2a2627"/>
    <rect x="91" y="46" width="2" height="1" fill="#2a2627"/>
    <rect x="104" y="46" width="2" height="1" fill="#2a2627"/>
    <rect x="120" y="46" width="2" height="1" fill="#2a2627"/>
    <rect x="126" y="46" width="2" height="1" fill="#2a2627"/>
    <rect x="131" y="46" width="3" height="1" fill="#2a2627"/>
    <rect x="172" y="46" width="1" height="1" fill="#2a2627"/>
    <rect x="0" y="47" width="1" height="1" fill="#2a2627"/>
    <rect x="36" y="47" width="17" height="1" fill="#2a2627"/>
    <rect x="104" y="47" width="2" height="1" fill="#2a2627"/>
    <rect x="120" y="47" width="1" height="1" fill="#2a2627"/>
    <rect x="124" y="47" width="3" height="1" fill="#2a2627"/>
    <rect x="133" y="47" width="3" height="1" fill="#2a2627"/>
    <rect x="172" y="47" width="1" height="1" fill="#2a2627"/>
    <rect x="0" y="48" width="1" height="1" fill="#2a2627"/>
    <rect x="124" y="48" width="1" height="1" fill="#2a2627"/>
    <rect x="134" y="48" width="1" height="1" fill="#2a2627"/>
    <rect x="172" y="48" width="1" height="1" fill="#2a2627"/>
    <rect x="0" y="49" width="1" height="1" fill="#2a2627"/>
    <rect x="172" y="49" width="1" height="1" fill="#2a2627"/>
    <rect x="0" y="50" width="1" height="1" fill="#2a2627"/>
    <rect x="172" y="50" width="1" height="1" fill="#2a2627"/>
    <rect x="0" y="51" width="1" height="1" fill="#2a2627"/>
    <rect x="172" y="51" width="1" height="1" fill="#2a2627"/>
    <rect x="0" y="52" width="1" height="1" fill="#2a2627"/>
    <rect x="172" y="52" width="1" height="1" fill="#2a2627"/>
    <rect x="0" y="53" width="1" height="1" fill="#2a2627"/>
    <rect x="172" y="53" width="1" height="1" fill="#2a2627"/>
    <rect x="0" y="54" width="1" height="1" fill="#2a2627"/>
    <rect x="172" y="54" width="1" height="1" fill="#2a2627"/>
    <rect x="0" y="55" width="1" height="1" fill="#2a2627"/>
    <rect x="172" y="55" width="1" height="1" fill="#2a2627"/>
    <rect x="0" y="56" width="1" height="1" fill="#2a2627"/>
    <rect x="172" y="56" width="1" height="1" fill="#2a2627"/>
    <rect x="0" y="57" width="1" height="1" fill="#2a2627"/>
    <rect x="172" y="57" width="1" height="1" fill="#2a2627"/>
    <rect x="0" y="58" width="1" height="1" fill="#2a2627"/>
    <rect x="172" y="58" width="1" height="1" fill="#2a2627"/>
    <rect x="0" y="59" width="1" height="1" fill="#2a2627"/>
    <rect x="172" y="59" width="1" height="1" fill="#2a2627"/>
    <rect x="0" y="60" width="1" height="1" fill="#2a2627"/>
    <rect x="172" y="60" width="1" height="1" fill="#2a2627"/>
    <rect x="0" y="61" width="1" height="1" fill="#2a2627"/>
    <rect x="172" y="61" width="1" height="1" fill="#2a2627"/>
    <rect x="0" y="62" width="1" height="1" fill="#2a2627"/>
    <rect x="172" y="62" width="1" height="1" fill="#2a2627"/>
    <rect x="0" y="63" width="1" height="1" fill="#2a2627"/>
    <rect x="172" y="63" width="1" height="1" fill="#2a2627"/>
    <rect x="0" y="64" width="1" height="1" fill="#2a2627"/>
    <rect x="172" y="64" width="1" height="1" fill="#2a2627"/>
    <rect x="0" y="65" width="1" height="1" fill="#2a2627"/>
    <rect x="172" y="65" width="1" height="1" fill="#2a2627"/>
    <rect x="0" y="66" width="1" height="1" fill="#2a2627"/>
    <rect x="172" y="66" width="1" height="1" fill="#2a2627"/>
    <rect x="0" y="67" width="1" height="1" fill="#2a2627"/>
    <rect x="172" y="67" width="1" height="1" fill="#2a2627"/>
    <rect x="0" y="68" width="1" height="1" fill="#2a2627"/>
    <rect x="172" y="68" width="1" height="1" fill="#2a2627"/>
    <rect x="0" y="69" width="1" height="1" fill="#2a2627"/>
    <rect x="172" y="69" width="1" height="1" fill="#2a2627"/>
    <rect x="0" y="70" width="1" height="1" fill="#2a2627"/>
    <rect x="172" y="70" width="1" height="1" fill="#2a2627"/>
    <rect x="0" y="71" width="1" height="1" fill="#2a2627"/>
    <rect x="172" y="71" width="1" height="1" fill="#2a2627"/>
    <rect x="0" y="72" width="1" height="1" fill="#2a2627"/>
    <rect x="172" y="72" width="1" height="1" fill="#2a2627"/>
    <rect x="0" y="73" width="1" height="1" fill="#2a2627"/>
    <rect x="172" y="73" width="1" height="1" fill="#2a2627"/>
    <rect x="0" y="74" width="1" height="1" fill="#2a2627"/>
    <rect x="172" y="74" width="1" height="1" fill="#2a2627"/>
    <rect x="0" y="75" width="1" height="1" fill="#2a2627"/>
    <rect x="172" y="75" width="1" height="1" fill="#2a2627"/>
    <rect x="0" y="76" width="1" height="1" fill="#2a2627"/>
    <rect x="172" y="76" width="1" height="1" fill="#2a2627"/>
    <rect x="0" y="77" width="1" height="1" fill="#2a2627"/>
    <rect x="172" y="77" width="1" height="1" fill="#2a2627"/>
    <rect x="0" y="78" width="173" height="1" fill="#2a2627"/>
  </g>
</svg>