<?xml version="1.0" encoding="UTF-8"?>
<svg xmlns="http://www.w3.org/2000/svg" viewBox="0 0 154 156" width="154" height="156">
  <!-- Auto-converted from legend-820.png -->
  <rect x="0" y="0" width="154" height="156" fill="none"/>
  <g fill="#231f20" stroke="none">
    <rect x="2" y="2" width="150" height="1" fill="#231f20"/>
    <rect x="2" y="3" width="1" height="1" fill="#231f20"/>
    <rect x="151" y="3" width="1" height="1" fill="#231f20"/>
    <rect x="2" y="4" width="1" height="1" fill="#231f20"/>
    <rect x="151" y="4" width="1" height="1" fill="#231f20"/>
    <rect x="2" y="5" width="1" height="1" fill="#231f20"/>
    <rect x="151" y="5" width="1" height="1" fill="#231f20"/>
    <rect x="2" y="6" width="1" height="1" fill="#231f20"/>
    <rect x="151" y="6" width="1" height="1" fill="#231f20"/>
    <rect x="2" y="7" width="1" height="1" fill="#231f20"/>
    <rect x="151" y="7" width="1" height="1" fill="#231f20"/>
    <rect x="2" y="8" width="1" height="1" fill="#231f20"/>
    <rect x="151" y="8" width="1" height="1" fill="#231f20"/>
    <rect x="2" y="9" width="1" height="1" fill="#231f20"/>
    <rect x="151" y="9" width="1" height="1" fill="#231f20"/>
    <rect x="2" y="10" width="1" height="1" fill="#231f20"/>
    <rect x="151" y="10" width="1" height="1" fill="#231f20"/>
    <rect x="2" y="11" width="1" height="1" fill="#231f20"/>
    <rect x="151" y="11" width="1" height="1" fill="#231f20"/>
    <rect x="2" y="12" width="1" height="1" fill="#231f20"/>
    <rect x="151" y="12" width="1" height="1" fill="#231f20"/>
    <rect x="2" y="13" width="1" height="1" fill="#231f20"/>
    <rect x="151" y="13" width="1" height="1" fill="#231f20"/>
    <rect x="2" y="14" width="1" height="1" fill="#231f20"/>
    <rect x="151" y="14" width="1" height="1" fill="#231f20"/>
    <rect x="2" y="15" width="1" height="1" fill="#231f20"/>
    <rect x="151" y="15" width="1" height="1" fill="#231f20"/>
    <rect x="2" y="16" width="1" height="1" fill="#231f20"/>
    <rect x="151" y="16" width="1" height="1" fill="#231f20"/>
    <rect x="2" y="17" width="1" height="1" fill="#231f20"/>
    <rect x="151" y="17" width="1" height="1" fill="#231f20"/>
    <rect x="2" y="18" width="1" height="1" fill="#231f20"/>
    <rect x="151" y="18" width="1" height="1" fill="#231f20"/>
    <rect x="2" y="19" width="1" height="1" fill="#231f20"/>
    <rect x="151" y="19" width="1" height="1" fill="#231f20"/>
    <rect x="2" y="20" width="1" height="1" fill="#231f20"/>
    <rect x="151" y="20" width="1" height="1" fill="#231f20"/>
    <rect x="2" y="21" width="1" height="1" fill="#231f20"/>
    <rect x="151" y="21" width="1" height="1" fill="#231f20"/>
    <rect x="2" y="22" width="1" height="1" fill="#231f20"/>
    <rect x="151" y="22" width="1" height="1" fill="#231f20"/>
    <rect x="2" y="23" width="1" height="1" fill="#231f20"/>
    <rect x="151" y="23" width="1" height="1" fill="#231f20"/>
    <rect x="2" y="24" width="1" height="1" fill="#231f20"/>
    <rect x="151" y="24" width="1" height="1" fill="#231f20"/>
    <rect x="2" y="25" width="1" height="1" fill="#231f20"/>
    <rect x="151" y="25" width="1" height="1" fill="#231f20"/>
    <rect x="2" y="26" width="1" height="1" fill="#231f20"/>
    <rect x="151" y="26" width="1" height="1" fill="#231f20"/>
    <rect x="2" y="27" width="1" height="1" fill="#231f20"/>
    <rect x="151" y="27" width="1" height="1" fill="#231f20"/>
    <rect x="2" y="28" width="1" height="1" fill="#231f20"/>
    <rect x="151" y="28" width="1" height="1" fill="#231f20"/>
    <rect x="2" y="29" width="1" height="1" fill="#231f20"/>
    <rect x="151" y="29" width="1" height="1" fill="#231f20"/>
    <rect x="2" y="30" width="1" height="1" fill="#231f20"/>
    <rect x="151" y="30" width="1" height="1" fill="#231f20"/>
    <rect x="2" y="31" width="1" height="1" fill="#231f20"/>
    <rect x="128" y="31" width="3" height="1" fill="#231f20"/>
    <rect x="151" y="31" width="1" height="1" fill="#231f20"/>
    <rect x="2" y="32" width="1" height="1" fill="#231f20"/>
    <rect x="124" y="32" width="8" height="1" fill="#231f20"/>
    <rect x="151" y="32" width="1" height="1" fill="#231f20"/>
    <rect x="2" y="33" width="1" height="1" fill="#231f20"/>
    <rect x="121" y="33" width="12" height="1" fill="#231f20"/>
    <rect x="151" y="33" width="1" height="1" fill="#231f20"/>
    <rect x="2" y="34" width="1" height="1" fill="#231f20"/>
    <rect x="117" y="34" width="11" height="1" fill="#231f20"/>
    <rect x="129" y="34" width="4" height="1" fill="#231f20"/>
    <rect x="151" y="34" width="1" height="1" fill="#231f20"/>
    <rect x="2" y="35" width="1" height="1" fill="#231f20"/>
    <rect x="114" y="35" width="10" height="1" fill="#231f20"/>
    <rect x="129" y="35" width="4" height="1" fill="#231f20"/>
    <rect x="151" y="35" width="1" height="1" fill="#231f20"/>
    <rect x="2" y="36" width="1" height="1" fill="#231f20"/>
    <rect x="110" y="36" width="11" height="1" fill="#231f20"/>
    <rect x="130" y="36" width="3" height="1" fill="#231f20"/>
    <rect x="151" y="36" width="1" height="1" fill="#231f20"/>
    <rect x="2" y="37" width="1" height="1" fill="#231f20"/>
    <rect x="107" y="37" width="10" height="1" fill="#231f20"/>
    <rect x="130" y="37" width="3" height="1" fill="#231f20"/>
    <rect x="151" y="37" width="1" height="1" fill="#231f20"/>
    <rect x="2" y="38" width="1" height="1" fill="#231f20"/>
    <rect x="103" y="38" width="11" height="1" fill="#231f20"/>
    <rect x="130" y="38" width="3" height="1" fill="#231f20"/>
    <rect x="151" y="38" width="1" height="1" fill="#231f20"/>
    <rect x="2" y="39" width="1" height="1" fill="#231f20"/>
    <rect x="100" y="39" width="10" height="1" fill="#231f20"/>
    <rect x="128" y="39" width="4" height="1" fill="#231f20"/>
    <rect x="151" y="39" width="1" height="1" fill="#231f20"/>
    <rect x="2" y="40" width="1" height="1" fill="#231f20"/>
    <rect x="96" y="40" width="11" height="1" fill="#231f20"/>
    <rect x="128" y="40" width="4" height="1" fill="#231f20"/>
    <rect x="151" y="40" width="1" height="1" fill="#231f20"/>
    <rect x="2" y="41" width="1" height="1" fill="#231f20"/>
    <rect x="93" y="41" width="10" height="1" fill="#231f20"/>
    <rect x="128" y="41" width="4" height="1" fill="#231f20"/>
    <rect x="151" y="41" width="1" height="1" fill="#231f20"/>
    <rect x="2" y="42" width="1" height="1" fill="#231f20"/>
    <rect x="89" y="42" width="11" height="1" fill="#231f20"/>
    <rect x="128" y="42" width="5" height="1" fill="#231f20"/>
    <rect x="151" y="42" width="1" height="1" fill="#231f20"/>
    <rect x="2" y="43" width="1" height="1" fill="#231f20"/>
    <rect x="86" y="43" width="10" height="1" fill="#231f20"/>
    <rect x="128" y="43" width="5" height="1" fill="#231f20"/>
    <rect x="151" y="43" width="1" height="1" fill="#231f20"/>
    <rect x="2" y="44" width="1" height="1" fill="#231f20"/>
    <rect x="82" y="44" width="11" height="1" fill="#231f20"/>
    <rect x="129" y="44" width="4" height="1" fill="#231f20"/>
    <rect x="151" y="44" width="1" height="1" fill="#231f20"/>
    <rect x="2" y="45" width="1" height="1" fill="#231f20"/>
    <rect x="79" y="45" width="10" height="1" fill="#231f20"/>
    <rect x="130" y="45" width="3" height="1" fill="#231f20"/>
    <rect x="151" y="45" width="1" height="1" fill="#231f20"/>
    <rect x="2" y="46" width="1" height="1" fill="#231f20"/>
    <rect x="75" y="46" width="11" height="1" fill="#231f20"/>
    <rect x="129" y="46" width="4" height="1" fill="#231f20"/>
    <rect x="151" y="46" width="1" height="1" fill="#231f20"/>
    <rect x="2" y="47" width="1" height="1" fill="#231f20"/>
    <rect x="72" y="47" width="10" height="1" fill="#231f20"/>
    <rect x="128" y="47" width="5" height="1" fill="#231f20"/>
    <rect x="151" y="47" width="1" height="1" fill="#231f20"/>
    <rect x="2" y="48" width="1" height="1" fill="#231f20"/>
    <rect x="68" y="48" width="11" height="1" fill="#231f20"/>
    <rect x="128" y="48" width="5" height="1" fill="#231f20"/>
    <rect x="151" y="48" width="1" height="1" fill="#231f20"/>
    <rect x="2" y="49" width="1" height="1" fill="#231f20"/>
    <rect x="65" y="49" width="10" height="1" fill="#231f20"/>
    <rect x="128" y="49" width="4" height="1" fill="#231f20"/>
    <rect x="151" y="49" width="1" height="1" fill="#231f20"/>
    <rect x="2" y="50" width="1" height="1" fill="#231f20"/>
    <rect x="61" y="50" width="11" height="1" fill="#231f20"/>
    <rect x="128" y="50" width="3" height="1" fill="#231f20"/>
    <rect x="151" y="50" width="1" height="1" fill="#231f20"/>
    <rect x="2" y="51" width="1" height="1" fill="#231f20"/>
    <rect x="58" y="51" width="10" height="1" fill="#231f20"/>
    <rect x="128" y="51" width="4" height="1" fill="#231f20"/>
    <rect x="151" y="51" width="1" height="1" fill="#231f20"/>
    <rect x="2" y="52" width="1" height="1" fill="#231f20"/>
    <rect x="54" y="52" width="11" height="1" fill="#231f20"/>
    <rect x="128" y="52" width="4" height="1" fill="#231f20"/>
    <rect x="151" y="52" width="1" height="1" fill="#231f20"/>
    <rect x="2" y="53" width="1" height="1" fill="#231f20"/>
    <rect x="51" y="53" width="10" height="1" fill="#231f20"/>
    <rect x="129" y="53" width="4" height="1" fill="#231f20"/>
    <rect x="151" y="53" width="1" height="1" fill="#231f20"/>
    <rect x="2" y="54" width="1" height="1" fill="#231f20"/>
    <rect x="47" y="54" width="11" height="1" fill="#231f20"/>
    <rect x="113" y="54" width="2" height="1" fill="#231f20"/>
    <rect x="129" y="54" width="4" height="1" fill="#231f20"/>
    <rect x="151" y="54" width="1" height="1" fill="#231f20"/>
    <rect x="2" y="55" width="1" height="1" fill="#231f20"/>
    <rect x="44" y="55" width="10" height="1" fill="#231f20"/>
    <rect x="109" y="55" width="7" height="1" fill="#231f20"/>
    <rect x="130" y="55" width="3" height="1" fill="#231f20"/>
    <rect x="151" y="55" width="1" height="1" fill="#231f20"/>
    <rect x="2" y="56" width="1" height="1" fill="#231f20"/>
    <rect x="40" y="56" width="11" height="1" fill="#231f20"/>
    <rect x="106" y="56" width="9" height="1" fill="#231f20"/>
    <rect x="130" y="56" width="3" height="1" fill="#231f20"/>
    <rect x="151" y="56" width="1" height="1" fill="#231f20"/>
    <rect x="2" y="57" width="1" height="1" fill="#231f20"/>
    <rect x="37" y="57" width="10" height="1" fill="#231f20"/>
    <rect x="103" y="57" width="10" height="1" fill="#231f20"/>
    <rect x="129" y="57" width="4" height="1" fill="#231f20"/>
    <rect x="151" y="57" width="1" height="1" fill="#231f20"/>
    <rect x="2" y="58" width="1" height="1" fill="#231f20"/>
    <rect x="33" y="58" width="11" height="1" fill="#231f20"/>
    <rect x="99" y="58" width="10" height="1" fill="#231f20"/>
    <rect x="129" y="58" width="4" height="1" fill="#231f20"/>
    <rect x="151" y="58" width="1" height="1" fill="#231f20"/>
    <rect x="2" y="59" width="1" height="1" fill="#231f20"/>
    <rect x="30" y="59" width="10" height="1" fill="#231f20"/>
    <rect x="96" y="59" width="10" height="1" fill="#231f20"/>
    <rect x="128" y="59" width="5" height="1" fill="#231f20"/>
    <rect x="151" y="59" width="1" height="1" fill="#231f20"/>
    <rect x="2" y="60" width="1" height="1" fill="#231f20"/>
    <rect x="26" y="60" width="11" height="1" fill="#231f20"/>
    <rect x="92" y="60" width="11" height="1" fill="#231f20"/>
    <rect x="127" y="60" width="5" height="1" fill="#231f20"/>
    <rect x="151" y="60" width="1" height="1" fill="#231f20"/>
    <rect x="2" y="61" width="1" height="1" fill="#231f20"/>
    <rect x="23" y="61" width="10" height="1" fill="#231f20"/>
    <rect x="89" y="61" width="10" height="1" fill="#231f20"/>
    <rect x="127" y="61" width="4" height="1" fill="#231f20"/>
    <rect x="151" y="61" width="1" height="1" fill="#231f20"/>
    <rect x="2" y="62" width="1" height="1" fill="#231f20"/>
    <rect x="23" y="62" width="7" height="1" fill="#231f20"/>
    <rect x="86" y="62" width="10" height="1" fill="#231f20"/>
    <rect x="127" y="62" width="4" height="1" fill="#231f20"/>
    <rect x="151" y="62" width="1" height="1" fill="#231f20"/>
    <rect x="2" y="63" width="1" height="1" fill="#231f20"/>
    <rect x="23" y="63" width="5" height="1" fill="#231f20"/>
    <rect x="82" y="63" width="10" height="1" fill="#231f20"/>
    <rect x="127" y="63" width="3" height="1" fill="#231f20"/>
    <rect x="151" y="63" width="1" height="1" fill="#231f20"/>
    <rect x="2" y="64" width="1" height="1" fill="#231f20"/>
    <rect x="24" y="64" width="4" height="1" fill="#231f20"/>
    <rect x="79" y="64" width="10" height="1" fill="#231f20"/>
    <rect x="127" y="64" width="3" height="1" fill="#231f20"/>
    <rect x="151" y="64" width="1" height="1" fill="#231f20"/>
    <rect x="2" y="65" width="1" height="1" fill="#231f20"/>
    <rect x="25" y="65" width="3" height="1" fill="#231f20"/>
    <rect x="75" y="65" width="11" height="1" fill="#231f20"/>
    <rect x="127" y="65" width="4" height="1" fill="#231f20"/>
    <rect x="151" y="65" width="1" height="1" fill="#231f20"/>
    <rect x="2" y="66" width="1" height="1" fill="#231f20"/>
    <rect x="25" y="66" width="3" height="1" fill="#231f20"/>
    <rect x="72" y="66" width="10" height="1" fill="#231f20"/>
    <rect x="127" y="66" width="4" height="1" fill="#231f20"/>
    <rect x="151" y="66" width="1" height="1" fill="#231f20"/>
    <rect x="2" y="67" width="1" height="1" fill="#231f20"/>
    <rect x="25" y="67" width="3" height="1" fill="#231f20"/>
    <rect x="68" y="67" width="11" height="1" fill="#231f20"/>
    <rect x="128" y="67" width="3" height="1" fill="#231f20"/>
    <rect x="151" y="67" width="1" height="1" fill="#231f20"/>
    <rect x="2" y="68" width="1" height="1" fill="#231f20"/>
    <rect x="25" y="68" width="3" height="1" fill="#231f20"/>
    <rect x="65" y="68" width="10" height="1" fill="#231f20"/>
    <rect x="128" y="68" width="4" height="1" fill="#231f20"/>
    <rect x="151" y="68" width="1" height="1" fill="#231f20"/>
    <rect x="2" y="69" width="1" height="1" fill="#231f20"/>
    <rect x="23" y="69" width="4" height="1" fill="#231f20"/>
    <rect x="62" y="69" width="10" height="1" fill="#231f20"/>
    <rect x="128" y="69" width="4" height="1" fill="#231f20"/>
    <rect x="151" y="69" width="1" height="1" fill="#231f20"/>
    <rect x="2" y="70" width="1" height="1" fill="#231f20"/>
    <rect x="23" y="70" width="4" height="1" fill="#231f20"/>
    <rect x="58" y="70" width="10" height="1" fill="#231f20"/>
    <rect x="129" y="70" width="3" height="1" fill="#231f20"/>
    <rect x="151" y="70" width="1" height="1" fill="#231f20"/>
    <rect x="2" y="71" width="1" height="1" fill="#231f20"/>
    <rect x="23" y="71" width="4" height="1" fill="#231f20"/>
    <rect x="55" y="71" width="10" height="1" fill="#231f20"/>
    <rect x="129" y="71" width="3" height="1" fill="#231f20"/>
    <rect x="151" y="71" width="1" height="1" fill="#231f20"/>
    <rect x="2" y="72" width="1" height="1" fill="#231f20"/>
    <rect x="23" y="72" width="5" height="1" fill="#231f20"/>
    <rect x="51" y="72" width="11" height="1" fill="#231f20"/>
    <rect x="129" y="72" width="3" height="1" fill="#231f20"/>
    <rect x="151" y="72" width="1" height="1" fill="#231f20"/>
    <rect x="2" y="73" width="1" height="1" fill="#231f20"/>
    <rect x="24" y="73" width="4" height="1" fill="#231f20"/>
    <rect x="48" y="73" width="10" height="1" fill="#231f20"/>
    <rect x="129" y="73" width="3" height="1" fill="#231f20"/>
    <rect x="151" y="73" width="1" height="1" fill="#231f20"/>
    <rect x="2" y="74" width="1" height="1" fill="#231f20"/>
    <rect x="24" y="74" width="4" height="1" fill="#231f20"/>
    <rect x="45" y="74" width="10" height="1" fill="#231f20"/>
    <rect x="128" y="74" width="4" height="1" fill="#231f20"/>
    <rect x="151" y="74" width="1" height="1" fill="#231f20"/>
    <rect x="2" y="75" width="1" height="1" fill="#231f20"/>
    <rect x="25" y="75" width="3" height="1" fill="#231f20"/>
    <rect x="41" y="75" width="10" height="1" fill="#231f20"/>
    <rect x="128" y="75" width="4" height="1" fill="#231f20"/>
    <rect x="151" y="75" width="1" height="1" fill="#231f20"/>
    <rect x="2" y="76" width="1" height="1" fill="#231f20"/>
    <rect x="24" y="76" width="4" height="1" fill="#231f20"/>
    <rect x="39" y="76" width="9" height="1" fill="#231f20"/>
    <rect x="113" y="76" width="2" height="1" fill="#231f20"/>
    <rect x="127" y="76" width="4" height="1" fill="#231f20"/>
    <rect x="151" y="76" width="1" height="1" fill="#231f20"/>
    <rect x="2" y="77" width="1" height="1" fill="#231f20"/>
    <rect x="23" y="77" width="5" height="1" fill="#231f20"/>
    <rect x="38" y="77" width="7" height="1" fill="#231f20"/>
    <rect x="110" y="77" width="6" height="1" fill="#231f20"/>
    <rect x="127" y="77" width="4" height="1" fill="#231f20"/>
    <rect x="151" y="77" width="1" height="1" fill="#231f20"/>
    <rect x="2" y="78" width="1" height="1" fill="#231f20"/>
    <rect x="23" y="78" width="4" height="1" fill="#231f20"/>
    <rect x="39" y="78" width="2" height="1" fill="#231f20"/>
    <rect x="106" y="78" width="9" height="1" fill="#231f20"/>
    <rect x="127" y="78" width="3" height="1" fill="#231f20"/>
    <rect x="151" y="78" width="1" height="1" fill="#231f20"/>
    <rect x="2" y="79" width="1" height="1" fill="#231f20"/>
    <rect x="23" y="79" width="4" height="1" fill="#231f20"/>
    <rect x="103" y="79" width="10" height="1" fill="#231f20"/>
    <rect x="127" y="79" width="4" height="1" fill="#231f20"/>
    <rect x="151" y="79" width="1" height="1" fill="#231f20"/>
    <rect x="2" y="80" width="1" height="1" fill="#231f20"/>
    <rect x="23" y="80" width="3" height="1" fill="#231f20"/>
    <rect x="100" y="80" width="10" height="1" fill="#231f20"/>
    <rect x="127" y="80" width="4" height="1" fill="#231f20"/>
    <rect x="151" y="80" width="1" height="1" fill="#231f20"/>
    <rect x="2" y="81" width="1" height="1" fill="#231f20"/>
    <rect x="23" y="81" width="4" height="1" fill="#231f20"/>
    <rect x="97" y="81" width="9" height="1" fill="#231f20"/>
    <rect x="128" y="81" width="4" height="1" fill="#231f20"/>
    <rect x="151" y="81" width="1" height="1" fill="#231f20"/>
    <rect x="2" y="82" width="1" height="1" fill="#231f20"/>
    <rect x="23" y="82" width="4" height="1" fill="#231f20"/>
    <rect x="93" y="82" width="10" height="1" fill="#231f20"/>
    <rect x="128" y="82" width="4" height="1" fill="#231f20"/>
    <rect x="151" y="82" width="1" height="1" fill="#231f20"/>
    <rect x="2" y="83" width="1" height="1" fill="#231f20"/>
    <rect x="24" y="83" width="4" height="1" fill="#231f20"/>
    <rect x="90" y="83" width="10" height="1" fill="#231f20"/>
    <rect x="129" y="83" width="3" height="1" fill="#231f20"/>
    <rect x="151" y="83" width="1" height="1" fill="#231f20"/>
    <rect x="2" y="84" width="1" height="1" fill="#231f20"/>
    <rect x="24" y="84" width="4" height="1" fill="#231f20"/>
    <rect x="87" y="84" width="10" height="1" fill="#231f20"/>
    <rect x="129" y="84" width="4" height="1" fill="#231f20"/>
    <rect x="151" y="84" width="1" height="1" fill="#231f20"/>
    <rect x="2" y="85" width="1" height="1" fill="#231f20"/>
    <rect x="25" y="85" width="3" height="1" fill="#231f20"/>
    <rect x="84" y="85" width="9" height="1" fill="#231f20"/>
    <rect x="129" y="85" width="4" height="1" fill="#231f20"/>
    <rect x="151" y="85" width="1" height="1" fill="#231f20"/>
    <rect x="2" y="86" width="1" height="1" fill="#231f20"/>
    <rect x="25" y="86" width="3" height="1" fill="#231f20"/>
    <rect x="80" y="86" width="10" height="1" fill="#231f20"/>
    <rect x="129" y="86" width="4" height="1" fill="#231f20"/>
    <rect x="151" y="86" width="1" height="1" fill="#231f20"/>
    <rect x="2" y="87" width="1" height="1" fill="#231f20"/>
    <rect x="24" y="87" width="4" height="1" fill="#231f20"/>
    <rect x="77" y="87" width="10" height="1" fill="#231f20"/>
    <rect x="130" y="87" width="3" height="1" fill="#231f20"/>
    <rect x="151" y="87" width="1" height="1" fill="#231f20"/>
    <rect x="2" y="88" width="1" height="1" fill="#231f20"/>
    <rect x="24" y="88" width="4" height="1" fill="#231f20"/>
    <rect x="74" y="88" width="10" height="1" fill="#231f20"/>
    <rect x="129" y="88" width="4" height="1" fill="#231f20"/>
    <rect x="151" y="88" width="1" height="1" fill="#231f20"/>
    <rect x="2" y="89" width="1" height="1" fill="#231f20"/>
    <rect x="23" y="89" width="5" height="1" fill="#231f20"/>
    <rect x="70" y="89" width="10" height="1" fill="#231f20"/>
    <rect x="129" y="89" width="4" height="1" fill="#231f20"/>
    <rect x="151" y="89" width="1" height="1" fill="#231f20"/>
    <rect x="2" y="90" width="1" height="1" fill="#231f20"/>
    <rect x="22" y="90" width="5" height="1" fill="#231f20"/>
    <rect x="67" y="90" width="10" height="1" fill="#231f20"/>
    <rect x="129" y="90" width="3" height="1" fill="#231f20"/>
    <rect x="151" y="90" width="1" height="1" fill="#231f20"/>
    <rect x="2" y="91" width="1" height="1" fill="#231f20"/>
    <rect x="22" y="91" width="4" height="1" fill="#231f20"/>
    <rect x="64" y="91" width="10" height="1" fill="#231f20"/>
    <rect x="128" y="91" width="4" height="1" fill="#231f20"/>
    <rect x="151" y="91" width="1" height="1" fill="#231f20"/>
    <rect x="2" y="92" width="1" height="1" fill="#231f20"/>
    <rect x="22" y="92" width="4" height="1" fill="#231f20"/>
    <rect x="61" y="92" width="9" height="1" fill="#231f20"/>
    <rect x="124" y="92" width="8" height="1" fill="#231f20"/>
    <rect x="151" y="92" width="1" height="1" fill="#231f20"/>
    <rect x="2" y="93" width="1" height="1" fill="#231f20"/>
    <rect x="22" y="93" width="3" height="1" fill="#231f20"/>
    <rect x="57" y="93" width="10" height="1" fill="#231f20"/>
    <rect x="121" y="93" width="10" height="1" fill="#231f20"/>
    <rect x="151" y="93" width="1" height="1" fill="#231f20"/>
    <rect x="2" y="94" width="1" height="1" fill="#231f20"/>
    <rect x="22" y="94" width="3" height="1" fill="#231f20"/>
    <rect x="54" y="94" width="10" height="1" fill="#231f20"/>
    <rect x="117" y="94" width="11" height="1" fill="#231f20"/>
    <rect x="151" y="94" width="1" height="1" fill="#231f20"/>
    <rect x="2" y="95" width="1" height="1" fill="#231f20"/>
    <rect x="22" y="95" width="4" height="1" fill="#231f20"/>
    <rect x="51" y="95" width="10" height="1" fill="#231f20"/>
    <rect x="114" y="95" width="10" height="1" fill="#231f20"/>
    <rect x="151" y="95" width="1" height="1" fill="#231f20"/>
    <rect x="2" y="96" width="1" height="1" fill="#231f20"/>
    <rect x="22" y="96" width="4" height="1" fill="#231f20"/>
    <rect x="48" y="96" width="9" height="1" fill="#231f20"/>
    <rect x="110" y="96" width="11" height="1" fill="#231f20"/>
    <rect x="151" y="96" width="1" height="1" fill="#231f20"/>
    <rect x="2" y="97" width="1" height="1" fill="#231f20"/>
    <rect x="23" y="97" width="3" height="1" fill="#231f20"/>
    <rect x="44" y="97" width="10" height="1" fill="#231f20"/>
    <rect x="107" y="97" width="10" height="1" fill="#231f20"/>
    <rect x="151" y="97" width="1" height="1" fill="#231f20"/>
    <rect x="2" y="98" width="1" height="1" fill="#231f20"/>
    <rect x="23" y="98" width="4" height="1" fill="#231f20"/>
    <rect x="41" y="98" width="10" height="1" fill="#231f20"/>
    <rect x="103" y="98" width="11" height="1" fill="#231f20"/>
    <rect x="151" y="98" width="1" height="1" fill="#231f20"/>
    <rect x="2" y="99" width="1" height="1" fill="#231f20"/>
    <rect x="23" y="99" width="4" height="1" fill="#231f20"/>
    <rect x="39" y="99" width="9" height="1" fill="#231f20"/>
    <rect x="100" y="99" width="10" height="1" fill="#231f20"/>
    <rect x="151" y="99" width="1" height="1" fill="#231f20"/>
    <rect x="2" y="100" width="1" height="1" fill="#231f20"/>
    <rect x="24" y="100" width="3" height="1" fill="#231f20"/>
    <rect x="38" y="100" width="6" height="1" fill="#231f20"/>
    <rect x="96" y="100" width="11" height="1" fill="#231f20"/>
    <rect x="151" y="100" width="1" height="1" fill="#231f20"/>
    <rect x="2" y="101" width="1" height="1" fill="#231f20"/>
    <rect x="24" y="101" width="3" height="1" fill="#231f20"/>
    <rect x="39" y="101" width="2" height="1" fill="#231f20"/>
    <rect x="93" y="101" width="10" height="1" fill="#231f20"/>
    <rect x="151" y="101" width="1" height="1" fill="#231f20"/>
    <rect x="2" y="102" width="1" height="1" fill="#231f20"/>
    <rect x="24" y="102" width="3" height="1" fill="#231f20"/>
    <rect x="89" y="102" width="11" height="1" fill="#231f20"/>
    <rect x="151" y="102" width="1" height="1" fill="#231f20"/>
    <rect x="2" y="103" width="1" height="1" fill="#231f20"/>
    <rect x="23" y="103" width="4" height="1" fill="#231f20"/>
    <rect x="86" y="103" width="10" height="1" fill="#231f20"/>
    <rect x="151" y="103" width="1" height="1" fill="#231f20"/>
    <rect x="2" y="104" width="1" height="1" fill="#231f20"/>
    <rect x="23" y="104" width="4" height="1" fill="#231f20"/>
    <rect x="82" y="104" width="11" height="1" fill="#231f20"/>
    <rect x="151" y="104" width="1" height="1" fill="#231f20"/>
    <rect x="2" y="105" width="1" height="1" fill="#231f20"/>
    <rect x="23" y="105" width="3" height="1" fill="#231f20"/>
    <rect x="79" y="105" width="10" height="1" fill="#231f20"/>
    <rect x="151" y="105" width="1" height="1" fill="#231f20"/>
    <rect x="2" y="106" width="1" height="1" fill="#231f20"/>
    <rect x="22" y="106" width="4" height="1" fill="#231f20"/>
    <rect x="75" y="106" width="11" height="1" fill="#231f20"/>
    <rect x="151" y="106" width="1" height="1" fill="#231f20"/>
    <rect x="2" y="107" width="1" height="1" fill="#231f20"/>
    <rect x="22" y="107" width="4" height="1" fill="#231f20"/>
    <rect x="72" y="107" width="10" height="1" fill="#231f20"/>
    <rect x="151" y="107" width="1" height="1" fill="#231f20"/>
    <rect x="2" y="108" width="1" height="1" fill="#231f20"/>
    <rect x="22" y="108" width="4" height="1" fill="#231f20"/>
    <rect x="68" y="108" width="11" height="1" fill="#231f20"/>
    <rect x="151" y="108" width="1" height="1" fill="#231f20"/>
    <rect x="2" y="109" width="1" height="1" fill="#231f20"/>
    <rect x="22" y="109" width="4" height="1" fill="#231f20"/>
    <rect x="65" y="109" width="10" height="1" fill="#231f20"/>
    <rect x="151" y="109" width="1" height="1" fill="#231f20"/>
    <rect x="2" y="110" width="1" height="1" fill="#231f20"/>
    <rect x="22" y="110" width="4" height="1" fill="#231f20"/>
    <rect x="61" y="110" width="11" height="1" fill="#231f20"/>
    <rect x="151" y="110" width="1" height="1" fill="#231f20"/>
    <rect x="2" y="111" width="1" height="1" fill="#231f20"/>
    <rect x="23" y="111" width="4" height="1" fill="#231f20"/>
    <rect x="58" y="111" width="10" height="1" fill="#231f20"/>
    <rect x="151" y="111" width="1" height="1" fill="#231f20"/>
    <rect x="2" y="112" width="1" height="1" fill="#231f20"/>
    <rect x="23" y="112" width="4" height="1" fill="#231f20"/>
    <rect x="54" y="112" width="11" height="1" fill="#231f20"/>
    <rect x="151" y="112" width="1" height="1" fill="#231f20"/>
    <rect x="2" y="113" width="1" height="1" fill="#231f20"/>
    <rect x="24" y="113" width="3" height="1" fill="#231f20"/>
    <rect x="51" y="113" width="10" height="1" fill="#231f20"/>
    <rect x="151" y="113" width="1" height="1" fill="#231f20"/>
    <rect x="2" y="114" width="1" height="1" fill="#231f20"/>
    <rect x="24" y="114" width="4" height="1" fill="#231f20"/>
    <rect x="47" y="114" width="11" height="1" fill="#231f20"/>
    <rect x="151" y="114" width="1" height="1" fill="#231f20"/>
    <rect x="2" y="115" width="1" height="1" fill="#231f20"/>
    <rect x="24" y="115" width="4" height="1" fill="#231f20"/>
    <rect x="44" y="115" width="10" height="1" fill="#231f20"/>
    <rect x="151" y="115" width="1" height="1" fill="#231f20"/>
    <rect x="2" y="116" width="1" height="1" fill="#231f20"/>
    <rect x="25" y="116" width="3" height="1" fill="#231f20"/>
    <rect x="40" y="116" width="11" height="1" fill="#231f20"/>
    <rect x="151" y="116" width="1" height="1" fill="#231f20"/>
    <rect x="2" y="117" width="1" height="1" fill="#231f20"/>
    <rect x="25" y="117" width="3" height="1" fill="#231f20"/>
    <rect x="37" y="117" width="10" height="1" fill="#231f20"/>
    <rect x="151" y="117" width="1" height="1" fill="#231f20"/>
    <rect x="2" y="118" width="1" height="1" fill="#231f20"/>
    <rect x="24" y="118" width="4" height="1" fill="#231f20"/>
    <rect x="33" y="118" width="11" height="1" fill="#231f20"/>
    <rect x="151" y="118" width="1" height="1" fill="#231f20"/>
    <rect x="2" y="119" width="1" height="1" fill="#231f20"/>
    <rect x="24" y="119" width="4" height="1" fill="#231f20"/>
    <rect x="30" y="119" width="10" height="1" fill="#231f20"/>
    <rect x="151" y="119" width="1" height="1" fill="#231f20"/>
    <rect x="2" y="120" width="1" height="1" fill="#231f20"/>
    <rect x="24" y="120" width="13" height="1" fill="#231f20"/>
    <rect x="151" y="120" width="1" height="1" fill="#231f20"/>
    <rect x="2" y="121" width="1" height="1" fill="#231f20"/>
    <rect x="24" y="121" width="9" height="1" fill="#231f20"/>
    <rect x="151" y="121" width="1" height="1" fill="#231f20"/>
    <rect x="2" y="122" width="1" height="1" fill="#231f20"/>
    <rect x="23" y="122" width="7" height="1" fill="#231f20"/>
    <rect x="151" y="122" width="1" height="1" fill="#231f20"/>
    <rect x="2" y="123" width="1" height="1" fill="#231f20"/>
    <rect x="24" y="123" width="2" height="1" fill="#231f20"/>
    <rect x="151" y="123" width="1" height="1" fill="#231f20"/>
    <rect x="2" y="124" width="1" height="1" fill="#231f20"/>
    <rect x="151" y="124" width="1" height="1" fill="#231f20"/>
    <rect x="2" y="125" width="1" height="1" fill="#231f20"/>
    <rect x="151" y="125" width="1" height="1" fill="#231f20"/>
    <rect x="2" y="126" width="1" height="1" fill="#231f20"/>
    <rect x="151" y="126" width="1" height="1" fill="#231f20"/>
    <rect x="2" y="127" width="1" height="1" fill="#231f20"/>
    <rect x="151" y="127" width="1" height="1" fill="#231f20"/>
    <rect x="2" y="128" width="1" height="1" fill="#231f20"/>
    <rect x="151" y="128" width="1" height="1" fill="#231f20"/>
    <rect x="2" y="129" width="1" height="1" fill="#231f20"/>
    <rect x="151" y="129" width="1" height="1" fill="#231f20"/>
    <rect x="2" y="130" width="1" height="1" fill="#231f20"/>
    <rect x="151" y="130" width="1" height="1" fill="#231f20"/>
    <rect x="2" y="131" width="1" height="1" fill="#231f20"/>
    <rect x="151" y="131" width="1" height="1" fill="#231f20"/>
    <rect x="2" y="132" width="1" height="1" fill="#231f20"/>
    <rect x="151" y="132" width="1" height="1" fill="#231f20"/>
    <rect x="2" y="133" width="1" height="1" fill="#231f20"/>
    <rect x="151" y="133" width="1" height="1" fill="#231f20"/>
    <rect x="2" y="134" width="1" height="1" fill="#231f20"/>
    <rect x="151" y="134" width="1" height="1" fill="#231f20"/>
    <rect x="2" y="135" width="1" height="1" fill="#231f20"/>
    <rect x="151" y="135" width="1" height="1" fill="#231f20"/>
    <rect x="2" y="136" width="1" height="1" fill="#231f20"/>
    <rect x="151" y="136" width="1" height="1" fill="#231f20"/>
    <rect x="2" y="137" width="1" height="1" fill="#231f20"/>
    <rect x="151" y="137" width="1" height="1" fill="#231f20"/>
    <rect x="2" y="138" width="1" height="1" fill="#231f20"/>
    <rect x="151" y="138" width="1" height="1" fill="#231f20"/>
    <rect x="2" y="139" width="1" height="1" fill="#231f20"/>
    <rect x="151" y="139" width="1" height="1" fill="#231f20"/>
    <rect x="2" y="140" width="1" height="1" fill="#231f20"/>
    <rect x="151" y="140" width="1" height="1" fill="#231f20"/>
    <rect x="2" y="141" width="1" height="1" fill="#231f20"/>
    <rect x="151" y="141" width="1" height="1" fill="#231f20"/>
    <rect x="2" y="142" width="1" height="1" fill="#231f20"/>
    <rect x="151" y="142" width="1" height="1" fill="#231f20"/>
    <rect x="2" y="143" width="1" height="1" fill="#231f20"/>
    <rect x="151" y="143" width="1" height="1" fill="#231f20"/>
    <rect x="2" y="144" width="1" height="1" fill="#231f20"/>
    <rect x="151" y="144" width="1" height="1" fill="#231f20"/>
    <rect x="2" y="145" width="1" height="1" fill="#231f20"/>
    <rect x="151" y="145" width="1" height="1" fill="#231f20"/>
    <rect x="2" y="146" width="1" height="1" fill="#231f20"/>
    <rect x="151" y="146" width="1" height="1" fill="#231f20"/>
    <rect x="2" y="147" width="1" height="1" fill="#231f20"/>
    <rect x="151" y="147" width="1" height="1" fill="#231f20"/>
    <rect x="2" y="148" width="1" height="1" fill="#231f20"/>
    <rect x="151" y="148" width="1" height="1" fill="#231f20"/>
    <rect x="2" y="149" width="1" height="1" fill="#231f20"/>
    <rect x="151" y="149" width="1" height="1" fill="#231f20"/>
    <rect x="2" y="150" width="1" height="1" fill="#231f20"/>
    <rect x="151" y="150" width="1" height="1" fill="#231f20"/>
    <rect x="2" y="151" width="1" height="1" fill="#231f20"/>
    <rect x="151" y="151" width="1" height="1" fill="#231f20"/>
    <rect x="2" y="152" width="150" height="1" fill="#231f20"/>
  </g>
</svg>