<?xml version="1.0" encoding="UTF-8"?>
<svg xmlns="http://www.w3.org/2000/svg" viewBox="0 0 154 61" width="154" height="61">
  <!-- Auto-converted from legend-2173.png -->
  <rect x="0" y="0" width="154" height="61" fill="none"/>
  <g fill="#231f20" stroke="none">
    <rect x="0" y="0" width="154" height="1" fill="#231f20"/>
    <rect x="0" y="1" width="1" height="1" fill="#231f20"/>
    <rect x="153" y="1" width="1" height="1" fill="#231f20"/>
    <rect x="0" y="2" width="1" height="1" fill="#231f20"/>
    <rect x="153" y="2" width="1" height="1" fill="#231f20"/>
    <rect x="0" y="3" width="1" height="1" fill="#231f20"/>
    <rect x="153" y="3" width="1" height="1" fill="#231f20"/>
    <rect x="0" y="4" width="1" height="1" fill="#231f20"/>
    <rect x="153" y="4" width="1" height="1" fill="#231f20"/>
    <rect x="0" y="5" width="1" height="1" fill="#231f20"/>
    <rect x="153" y="5" width="1" height="1" fill="#231f20"/>
    <rect x="0" y="6" width="1" height="1" fill="#231f20"/>
    <rect x="72" y="6" width="1" height="1" fill="#231f20"/>
    <rect x="112" y="6" width="1" height="1" fill="#231f20"/>
    <rect x="153" y="6" width="1" height="1" fill="#231f20"/>
    <rect x="0" y="7" width="1" height="1" fill="#231f20"/>
    <rect x="72" y="7" width="1" height="1" fill="#231f20"/>
    <rect x="112" y="7" width="1" height="1" fill="#231f20"/>
    <rect x="153" y="7" width="1" height="1" fill="#231f20"/>
    <rect x="0" y="8" width="1" height="1" fill="#231f20"/>
    <rect x="27" y="8" width="4" height="1" fill="#231f20"/>
    <rect x="72" y="8" width="1" height="1" fill="#231f20"/>
    <rect x="112" y="8" width="1" height="1" fill="#231f20"/>
    <rect x="153" y="8" width="1" height="1" fill="#231f20"/>
    <rect x="0" y="9" width="1" height="1" fill="#231f20"/>
    <rect x="26" y="9" width="6" height="1" fill="#231f20"/>
    <rect x="36" y="9" width="1" height="1" fill="#231f20"/>
    <rect x="72" y="9" width="1" height="1" fill="#231f20"/>
    <rect x="112" y="9" width="1" height="1" fill="#231f20"/>
    <rect x="153" y="9" width="1" height="1" fill="#231f20"/>
    <rect x="0" y="10" width="1" height="1" fill="#231f20"/>
    <rect x="26" y="10" width="2" height="1" fill="#231f20"/>
    <rect x="30" y="10" width="1" height="1" fill="#231f20"/>
    <rect x="32" y="10" width="4" height="1" fill="#231f20"/>
    <rect x="68" y="10" width="8" height="1" fill="#231f20"/>
    <rect x="108" y="10" width="9" height="1" fill="#231f20"/>
    <rect x="153" y="10" width="1" height="1" fill="#231f20"/>
    <rect x="0" y="11" width="1" height="1" fill="#231f20"/>
    <rect x="26" y="11" width="1" height="1" fill="#231f20"/>
    <rect x="31" y="11" width="6" height="1" fill="#231f20"/>
    <rect x="72" y="11" width="1" height="1" fill="#231f20"/>
    <rect x="112" y="11" width="1" height="1" fill="#231f20"/>
    <rect x="153" y="11" width="1" height="1" fill="#231f20"/>
    <rect x="0" y="12" width="1" height="1" fill="#231f20"/>
    <rect x="32" y="12" width="4" height="1" fill="#231f20"/>
    <rect x="72" y="12" width="1" height="1" fill="#231f20"/>
    <rect x="112" y="12" width="1" height="1" fill="#231f20"/>
    <rect x="153" y="12" width="1" height="1" fill="#231f20"/>
    <rect x="0" y="13" width="1" height="1" fill="#231f20"/>
    <rect x="72" y="13" width="1" height="1" fill="#231f20"/>
    <rect x="112" y="13" width="1" height="1" fill="#231f20"/>
    <rect x="153" y="13" width="1" height="1" fill="#231f20"/>
    <rect x="0" y="14" width="1" height="1" fill="#231f20"/>
    <rect x="153" y="14" width="1" height="1" fill="#231f20"/>
    <rect x="0" y="15" width="1" height="1" fill="#231f20"/>
    <rect x="153" y="15" width="1" height="1" fill="#231f20"/>
    <rect x="0" y="16" width="1" height="1" fill="#231f20"/>
    <rect x="153" y="16" width="1" height="1" fill="#231f20"/>
    <rect x="0" y="17" width="1" height="1" fill="#231f20"/>
    <rect x="153" y="17" width="1" height="1" fill="#231f20"/>
    <rect x="0" y="18" width="1" height="1" fill="#231f20"/>
    <rect x="153" y="18" width="1" height="1" fill="#231f20"/>
    <rect x="0" y="19" width="1" height="1" fill="#231f20"/>
    <rect x="153" y="19" width="1" height="1" fill="#231f20"/>
    <rect x="0" y="20" width="154" height="1" fill="#231f20"/>
    <rect x="0" y="21" width="1" height="1" fill="#231f20"/>
    <rect x="153" y="21" width="1" height="1" fill="#231f20"/>
    <rect x="0" y="22" width="1" height="1" fill="#231f20"/>
    <rect x="153" y="22" width="1" height="1" fill="#231f20"/>
    <rect x="0" y="23" width="1" height="1" fill="#231f20"/>
    <rect x="153" y="23" width="1" height="1" fill="#231f20"/>
    <rect x="0" y="24" width="1" height="1" fill="#231f20"/>
    <rect x="153" y="24" width="1" height="1" fill="#231f20"/>
    <rect x="0" y="25" width="1" height="1" fill="#231f20"/>
    <rect x="153" y="25" width="1" height="1" fill="#231f20"/>
    <rect x="0" y="26" width="1" height="1" fill="#231f20"/>
    <rect x="41" y="26" width="1" height="1" fill="#231f20"/>
    <rect x="81" y="26" width="1" height="1" fill="#231f20"/>
    <rect x="153" y="26" width="1" height="1" fill="#231f20"/>
    <rect x="0" y="27" width="1" height="1" fill="#231f20"/>
    <rect x="41" y="27" width="1" height="1" fill="#231f20"/>
    <rect x="81" y="27" width="1" height="1" fill="#231f20"/>
    <rect x="153" y="27" width="1" height="1" fill="#231f20"/>
    <rect x="0" y="28" width="1" height="1" fill="#231f20"/>
    <rect x="41" y="28" width="1" height="1" fill="#231f20"/>
    <rect x="81" y="28" width="1" height="1" fill="#231f20"/>
    <rect x="119" y="28" width="3" height="1" fill="#231f20"/>
    <rect x="153" y="28" width="1" height="1" fill="#231f20"/>
    <rect x="0" y="29" width="1" height="1" fill="#231f20"/>
    <rect x="41" y="29" width="1" height="1" fill="#231f20"/>
    <rect x="81" y="29" width="1" height="1" fill="#231f20"/>
    <rect x="118" y="29" width="1" height="1" fill="#231f20"/>
    <rect x="121" y="29" width="2" height="1" fill="#231f20"/>
    <rect x="153" y="29" width="1" height="1" fill="#231f20"/>
    <rect x="0" y="30" width="1" height="1" fill="#231f20"/>
    <rect x="37" y="30" width="9" height="1" fill="#231f20"/>
    <rect x="78" y="30" width="8" height="1" fill="#231f20"/>
    <rect x="117" y="30" width="5" height="1" fill="#231f20"/>
    <rect x="123" y="30" width="1" height="1" fill="#231f20"/>
    <rect x="127" y="30" width="1" height="1" fill="#231f20"/>
    <rect x="153" y="30" width="1" height="1" fill="#231f20"/>
    <rect x="0" y="31" width="1" height="1" fill="#231f20"/>
    <rect x="41" y="31" width="1" height="1" fill="#231f20"/>
    <rect x="81" y="31" width="1" height="1" fill="#231f20"/>
    <rect x="117" y="31" width="2" height="1" fill="#231f20"/>
    <rect x="122" y="31" width="1" height="1" fill="#231f20"/>
    <rect x="124" y="31" width="4" height="1" fill="#231f20"/>
    <rect x="153" y="31" width="1" height="1" fill="#231f20"/>
    <rect x="0" y="32" width="1" height="1" fill="#231f20"/>
    <rect x="41" y="32" width="1" height="1" fill="#231f20"/>
    <rect x="81" y="32" width="1" height="1" fill="#231f20"/>
    <rect x="123" y="32" width="5" height="1" fill="#231f20"/>
    <rect x="153" y="32" width="1" height="1" fill="#231f20"/>
    <rect x="0" y="33" width="1" height="1" fill="#231f20"/>
    <rect x="41" y="33" width="1" height="1" fill="#231f20"/>
    <rect x="81" y="33" width="1" height="1" fill="#231f20"/>
    <rect x="125" y="33" width="1" height="1" fill="#231f20"/>
    <rect x="153" y="33" width="1" height="1" fill="#231f20"/>
    <rect x="0" y="34" width="1" height="1" fill="#231f20"/>
    <rect x="41" y="34" width="1" height="1" fill="#231f20"/>
    <rect x="81" y="34" width="1" height="1" fill="#231f20"/>
    <rect x="153" y="34" width="1" height="1" fill="#231f20"/>
    <rect x="0" y="35" width="1" height="1" fill="#231f20"/>
    <rect x="153" y="35" width="1" height="1" fill="#231f20"/>
    <rect x="0" y="36" width="1" height="1" fill="#231f20"/>
    <rect x="153" y="36" width="1" height="1" fill="#231f20"/>
    <rect x="0" y="37" width="1" height="1" fill="#231f20"/>
    <rect x="153" y="37" width="1" height="1" fill="#231f20"/>
    <rect x="0" y="38" width="1" height="1" fill="#231f20"/>
    <rect x="153" y="38" width="1" height="1" fill="#231f20"/>
    <rect x="0" y="39" width="1" height="1" fill="#231f20"/>
    <rect x="153" y="39" width="1" height="1" fill="#231f20"/>
    <rect x="0" y="40" width="154" height="1" fill="#231f20"/>
    <rect x="0" y="41" width="1" height="1" fill="#231f20"/>
    <rect x="153" y="41" width="1" height="1" fill="#231f20"/>
    <rect x="0" y="42" width="1" height="1" fill="#231f20"/>
    <rect x="153" y="42" width="1" height="1" fill="#231f20"/>
    <rect x="0" y="43" width="1" height="1" fill="#231f20"/>
    <rect x="153" y="43" width="1" height="1" fill="#231f20"/>
    <rect x="0" y="44" width="1" height="1" fill="#231f20"/>
    <rect x="153" y="44" width="1" height="1" fill="#231f20"/>
    <rect x="0" y="45" width="1" height="1" fill="#231f20"/>
    <rect x="153" y="45" width="1" height="1" fill="#231f20"/>
    <rect x="0" y="46" width="1" height="1" fill="#231f20"/>
    <rect x="72" y="46" width="1" height="1" fill="#231f20"/>
    <rect x="112" y="46" width="1" height="1" fill="#231f20"/>
    <rect x="153" y="46" width="1" height="1" fill="#231f20"/>
    <rect x="0" y="47" width="1" height="1" fill="#231f20"/>
    <rect x="72" y="47" width="1" height="1" fill="#231f20"/>
    <rect x="112" y="47" width="1" height="1" fill="#231f20"/>
    <rect x="153" y="47" width="1" height="1" fill="#231f20"/>
    <rect x="0" y="48" width="1" height="1" fill="#231f20"/>
    <rect x="28" y="48" width="2" height="1" fill="#231f20"/>
    <rect x="72" y="48" width="1" height="1" fill="#231f20"/>
    <rect x="112" y="48" width="1" height="1" fill="#231f20"/>
    <rect x="153" y="48" width="1" height="1" fill="#231f20"/>
    <rect x="0" y="49" width="1" height="1" fill="#231f20"/>
    <rect x="27" y="49" width="2" height="1" fill="#231f20"/>
    <rect x="30" y="49" width="1" height="1" fill="#231f20"/>
    <rect x="72" y="49" width="1" height="1" fill="#231f20"/>
    <rect x="112" y="49" width="1" height="1" fill="#231f20"/>
    <rect x="153" y="49" width="1" height="1" fill="#231f20"/>
    <rect x="0" y="50" width="1" height="1" fill="#231f20"/>
    <rect x="26" y="50" width="7" height="1" fill="#231f20"/>
    <rect x="35" y="50" width="2" height="1" fill="#231f20"/>
    <rect x="68" y="50" width="8" height="1" fill="#231f20"/>
    <rect x="108" y="50" width="9" height="1" fill="#231f20"/>
    <rect x="153" y="50" width="1" height="1" fill="#231f20"/>
    <rect x="0" y="51" width="1" height="1" fill="#231f20"/>
    <rect x="26" y="51" width="1" height="1" fill="#231f20"/>
    <rect x="30" y="51" width="7" height="1" fill="#231f20"/>
    <rect x="72" y="51" width="1" height="1" fill="#231f20"/>
    <rect x="112" y="51" width="1" height="1" fill="#231f20"/>
    <rect x="153" y="51" width="1" height="1" fill="#231f20"/>
    <rect x="0" y="52" width="1" height="1" fill="#231f20"/>
    <rect x="32" y="52" width="1" height="1" fill="#231f20"/>
    <rect x="35" y="52" width="1" height="1" fill="#231f20"/>
    <rect x="72" y="52" width="1" height="1" fill="#231f20"/>
    <rect x="112" y="52" width="1" height="1" fill="#231f20"/>
    <rect x="153" y="52" width="1" height="1" fill="#231f20"/>
    <rect x="0" y="53" width="1" height="1" fill="#231f20"/>
    <rect x="33" y="53" width="2" height="1" fill="#231f20"/>
    <rect x="72" y="53" width="1" height="1" fill="#231f20"/>
    <rect x="112" y="53" width="1" height="1" fill="#231f20"/>
    <rect x="153" y="53" width="1" height="1" fill="#231f20"/>
    <rect x="0" y="54" width="1" height="1" fill="#231f20"/>
    <rect x="72" y="54" width="1" height="1" fill="#231f20"/>
    <rect x="112" y="54" width="1" height="1" fill="#231f20"/>
    <rect x="153" y="54" width="1" height="1" fill="#231f20"/>
    <rect x="0" y="55" width="1" height="1" fill="#231f20"/>
    <rect x="153" y="55" width="1" height="1" fill="#231f20"/>
    <rect x="0" y="56" width="1" height="1" fill="#231f20"/>
    <rect x="153" y="56" width="1" height="1" fill="#231f20"/>
    <rect x="0" y="57" width="1" height="1" fill="#231f20"/>
    <rect x="153" y="57" width="1" height="1" fill="#231f20"/>
    <rect x="0" y="58" width="1" height="1" fill="#231f20"/>
    <rect x="153" y="58" width="1" height="1" fill="#231f20"/>
    <rect x="0" y="59" width="1" height="1" fill="#231f20"/>
    <rect x="153" y="59" width="1" height="1" fill="#231f20"/>
    <rect x="0" y="60" width="154" height="1" fill="#231f20"/>
  </g>
</svg>