<?xml version="1.0" encoding="UTF-8"?>
<svg xmlns="http://www.w3.org/2000/svg" viewBox="0 0 174 69" width="174" height="69">
  <!-- Auto-converted from legend-2247.png -->
  <rect x="0" y="0" width="174" height="69" fill="none"/>
  <g fill="#231f20" stroke="none">
    <rect x="0" y="0" width="174" height="1" fill="#231f20"/>
    <rect x="0" y="1" width="1" height="1" fill="#231f20"/>
    <rect x="108" y="1" width="1" height="1" fill="#231f20"/>
    <rect x="173" y="1" width="1" height="1" fill="#231f20"/>
    <rect x="0" y="2" width="1" height="1" fill="#231f20"/>
    <rect x="107" y="2" width="1" height="1" fill="#231f20"/>
    <rect x="173" y="2" width="1" height="1" fill="#231f20"/>
    <rect x="0" y="3" width="1" height="1" fill="#231f20"/>
    <rect x="106" y="3" width="1" height="1" fill="#231f20"/>
    <rect x="173" y="3" width="1" height="1" fill="#231f20"/>
    <rect x="0" y="4" width="1" height="1" fill="#231f20"/>
    <rect x="105" y="4" width="1" height="1" fill="#231f20"/>
    <rect x="173" y="4" width="1" height="1" fill="#231f20"/>
    <rect x="0" y="5" width="1" height="1" fill="#231f20"/>
    <rect x="104" y="5" width="1" height="1" fill="#231f20"/>
    <rect x="173" y="5" width="1" height="1" fill="#231f20"/>
    <rect x="0" y="6" width="1" height="1" fill="#231f20"/>
    <rect x="58" y="6" width="1" height="1" fill="#231f20"/>
    <rect x="69" y="6" width="1" height="1" fill="#231f20"/>
    <rect x="103" y="6" width="1" height="1" fill="#231f20"/>
    <rect x="126" y="6" width="1" height="1" fill="#231f20"/>
    <rect x="138" y="6" width="1" height="1" fill="#231f20"/>
    <rect x="173" y="6" width="1" height="1" fill="#231f20"/>
    <rect x="0" y="7" width="1" height="1" fill="#231f20"/>
    <rect x="24" y="7" width="3" height="1" fill="#231f20"/>
    <rect x="58" y="7" width="1" height="1" fill="#231f20"/>
    <rect x="68" y="7" width="1" height="1" fill="#231f20"/>
    <rect x="102" y="7" width="1" height="1" fill="#231f20"/>
    <rect x="127" y="7" width="1" height="1" fill="#231f20"/>
    <rect x="137" y="7" width="1" height="1" fill="#231f20"/>
    <rect x="173" y="7" width="1" height="1" fill="#231f20"/>
    <rect x="0" y="8" width="1" height="1" fill="#231f20"/>
    <rect x="23" y="8" width="1" height="1" fill="#231f20"/>
    <rect x="27" y="8" width="1" height="1" fill="#231f20"/>
    <rect x="59" y="8" width="1" height="1" fill="#231f20"/>
    <rect x="68" y="8" width="1" height="1" fill="#231f20"/>
    <rect x="101" y="8" width="1" height="1" fill="#231f20"/>
    <rect x="127" y="8" width="1" height="1" fill="#231f20"/>
    <rect x="137" y="8" width="1" height="1" fill="#231f20"/>
    <rect x="173" y="8" width="1" height="1" fill="#231f20"/>
    <rect x="0" y="9" width="1" height="1" fill="#231f20"/>
    <rect x="22" y="9" width="1" height="1" fill="#231f20"/>
    <rect x="27" y="9" width="2" height="1" fill="#231f20"/>
    <rect x="59" y="9" width="1" height="1" fill="#231f20"/>
    <rect x="67" y="9" width="1" height="1" fill="#231f20"/>
    <rect x="100" y="9" width="1" height="1" fill="#231f20"/>
    <rect x="128" y="9" width="1" height="1" fill="#231f20"/>
    <rect x="136" y="9" width="1" height="1" fill="#231f20"/>
    <rect x="173" y="9" width="1" height="1" fill="#231f20"/>
    <rect x="0" y="10" width="1" height="1" fill="#231f20"/>
    <rect x="21" y="10" width="2" height="1" fill="#231f20"/>
    <rect x="28" y="10" width="2" height="1" fill="#231f20"/>
    <rect x="60" y="10" width="1" height="1" fill="#231f20"/>
    <rect x="67" y="10" width="1" height="1" fill="#231f20"/>
    <rect x="99" y="10" width="1" height="1" fill="#231f20"/>
    <rect x="128" y="10" width="1" height="1" fill="#231f20"/>
    <rect x="136" y="10" width="1" height="1" fill="#231f20"/>
    <rect x="173" y="10" width="1" height="1" fill="#231f20"/>
    <rect x="0" y="11" width="1" height="1" fill="#231f20"/>
    <rect x="21" y="11" width="1" height="1" fill="#231f20"/>
    <rect x="29" y="11" width="1" height="1" fill="#231f20"/>
    <rect x="38" y="11" width="1" height="1" fill="#231f20"/>
    <rect x="60" y="11" width="1" height="1" fill="#231f20"/>
    <rect x="66" y="11" width="1" height="1" fill="#231f20"/>
    <rect x="98" y="11" width="1" height="1" fill="#231f20"/>
    <rect x="129" y="11" width="1" height="1" fill="#231f20"/>
    <rect x="135" y="11" width="1" height="1" fill="#231f20"/>
    <rect x="173" y="11" width="1" height="1" fill="#231f20"/>
    <rect x="0" y="12" width="1" height="1" fill="#231f20"/>
    <rect x="30" y="12" width="1" height="1" fill="#231f20"/>
    <rect x="37" y="12" width="1" height="1" fill="#231f20"/>
    <rect x="61" y="12" width="1" height="1" fill="#231f20"/>
    <rect x="66" y="12" width="1" height="1" fill="#231f20"/>
    <rect x="97" y="12" width="1" height="1" fill="#231f20"/>
    <rect x="129" y="12" width="1" height="1" fill="#231f20"/>
    <rect x="135" y="12" width="1" height="1" fill="#231f20"/>
    <rect x="173" y="12" width="1" height="1" fill="#231f20"/>
    <rect x="0" y="13" width="1" height="1" fill="#231f20"/>
    <rect x="30" y="13" width="2" height="1" fill="#231f20"/>
    <rect x="36" y="13" width="2" height="1" fill="#231f20"/>
    <rect x="61" y="13" width="1" height="1" fill="#231f20"/>
    <rect x="65" y="13" width="1" height="1" fill="#231f20"/>
    <rect x="96" y="13" width="1" height="1" fill="#231f20"/>
    <rect x="130" y="13" width="1" height="1" fill="#231f20"/>
    <rect x="134" y="13" width="1" height="1" fill="#231f20"/>
    <rect x="173" y="13" width="1" height="1" fill="#231f20"/>
    <rect x="0" y="14" width="1" height="1" fill="#231f20"/>
    <rect x="31" y="14" width="2" height="1" fill="#231f20"/>
    <rect x="35" y="14" width="2" height="1" fill="#231f20"/>
    <rect x="62" y="14" width="1" height="1" fill="#231f20"/>
    <rect x="65" y="14" width="1" height="1" fill="#231f20"/>
    <rect x="95" y="14" width="1" height="1" fill="#231f20"/>
    <rect x="130" y="14" width="1" height="1" fill="#231f20"/>
    <rect x="134" y="14" width="1" height="1" fill="#231f20"/>
    <rect x="173" y="14" width="1" height="1" fill="#231f20"/>
    <rect x="0" y="15" width="1" height="1" fill="#231f20"/>
    <rect x="32" y="15" width="4" height="1" fill="#231f20"/>
    <rect x="62" y="15" width="1" height="1" fill="#231f20"/>
    <rect x="64" y="15" width="1" height="1" fill="#231f20"/>
    <rect x="94" y="15" width="1" height="1" fill="#231f20"/>
    <rect x="131" y="15" width="1" height="1" fill="#231f20"/>
    <rect x="133" y="15" width="1" height="1" fill="#231f20"/>
    <rect x="173" y="15" width="1" height="1" fill="#231f20"/>
    <rect x="0" y="16" width="1" height="1" fill="#231f20"/>
    <rect x="63" y="16" width="2" height="1" fill="#231f20"/>
    <rect x="93" y="16" width="1" height="1" fill="#231f20"/>
    <rect x="131" y="16" width="1" height="1" fill="#231f20"/>
    <rect x="133" y="16" width="1" height="1" fill="#231f20"/>
    <rect x="173" y="16" width="1" height="1" fill="#231f20"/>
    <rect x="0" y="17" width="1" height="1" fill="#231f20"/>
    <rect x="63" y="17" width="1" height="1" fill="#231f20"/>
    <rect x="92" y="17" width="1" height="1" fill="#231f20"/>
    <rect x="132" y="17" width="1" height="1" fill="#231f20"/>
    <rect x="173" y="17" width="1" height="1" fill="#231f20"/>
    <rect x="0" y="18" width="1" height="1" fill="#231f20"/>
    <rect x="91" y="18" width="1" height="1" fill="#231f20"/>
    <rect x="173" y="18" width="1" height="1" fill="#231f20"/>
    <rect x="0" y="19" width="1" height="1" fill="#231f20"/>
    <rect x="90" y="19" width="1" height="1" fill="#231f20"/>
    <rect x="173" y="19" width="1" height="1" fill="#231f20"/>
    <rect x="0" y="20" width="1" height="1" fill="#231f20"/>
    <rect x="89" y="20" width="1" height="1" fill="#231f20"/>
    <rect x="173" y="20" width="1" height="1" fill="#231f20"/>
    <rect x="0" y="21" width="1" height="1" fill="#231f20"/>
    <rect x="88" y="21" width="1" height="1" fill="#231f20"/>
    <rect x="173" y="21" width="1" height="1" fill="#231f20"/>
    <rect x="0" y="22" width="1" height="1" fill="#231f20"/>
    <rect x="87" y="22" width="1" height="1" fill="#231f20"/>
    <rect x="173" y="22" width="1" height="1" fill="#231f20"/>
    <rect x="0" y="23" width="174" height="1" fill="#231f20"/>
    <rect x="0" y="24" width="1" height="1" fill="#231f20"/>
    <rect x="85" y="24" width="1" height="1" fill="#231f20"/>
    <rect x="173" y="24" width="1" height="1" fill="#231f20"/>
    <rect x="0" y="25" width="1" height="1" fill="#231f20"/>
    <rect x="84" y="25" width="1" height="1" fill="#231f20"/>
    <rect x="173" y="25" width="1" height="1" fill="#231f20"/>
    <rect x="0" y="26" width="1" height="1" fill="#231f20"/>
    <rect x="83" y="26" width="1" height="1" fill="#231f20"/>
    <rect x="173" y="26" width="1" height="1" fill="#231f20"/>
    <rect x="0" y="27" width="1" height="1" fill="#231f20"/>
    <rect x="82" y="27" width="1" height="1" fill="#231f20"/>
    <rect x="173" y="27" width="1" height="1" fill="#231f20"/>
    <rect x="0" y="28" width="1" height="1" fill="#231f20"/>
    <rect x="35" y="28" width="1" height="1" fill="#231f20"/>
    <rect x="47" y="28" width="1" height="1" fill="#231f20"/>
    <rect x="81" y="28" width="1" height="1" fill="#231f20"/>
    <rect x="104" y="28" width="1" height="1" fill="#231f20"/>
    <rect x="115" y="28" width="1" height="1" fill="#231f20"/>
    <rect x="173" y="28" width="1" height="1" fill="#231f20"/>
    <rect x="0" y="29" width="1" height="1" fill="#231f20"/>
    <rect x="36" y="29" width="1" height="1" fill="#231f20"/>
    <rect x="47" y="29" width="1" height="1" fill="#231f20"/>
    <rect x="80" y="29" width="1" height="1" fill="#231f20"/>
    <rect x="104" y="29" width="1" height="1" fill="#231f20"/>
    <rect x="115" y="29" width="1" height="1" fill="#231f20"/>
    <rect x="173" y="29" width="1" height="1" fill="#231f20"/>
    <rect x="0" y="30" width="1" height="1" fill="#231f20"/>
    <rect x="36" y="30" width="1" height="1" fill="#231f20"/>
    <rect x="46" y="30" width="1" height="1" fill="#231f20"/>
    <rect x="79" y="30" width="1" height="1" fill="#231f20"/>
    <rect x="105" y="30" width="1" height="1" fill="#231f20"/>
    <rect x="114" y="30" width="1" height="1" fill="#231f20"/>
    <rect x="138" y="30" width="4" height="1" fill="#231f20"/>
    <rect x="173" y="30" width="1" height="1" fill="#231f20"/>
    <rect x="0" y="31" width="1" height="1" fill="#231f20"/>
    <rect x="37" y="31" width="1" height="1" fill="#231f20"/>
    <rect x="46" y="31" width="1" height="1" fill="#231f20"/>
    <rect x="78" y="31" width="1" height="1" fill="#231f20"/>
    <rect x="105" y="31" width="1" height="1" fill="#231f20"/>
    <rect x="114" y="31" width="1" height="1" fill="#231f20"/>
    <rect x="137" y="31" width="2" height="1" fill="#231f20"/>
    <rect x="141" y="31" width="2" height="1" fill="#231f20"/>
    <rect x="173" y="31" width="1" height="1" fill="#231f20"/>
    <rect x="0" y="32" width="1" height="1" fill="#231f20"/>
    <rect x="37" y="32" width="1" height="1" fill="#231f20"/>
    <rect x="45" y="32" width="1" height="1" fill="#231f20"/>
    <rect x="77" y="32" width="1" height="1" fill="#231f20"/>
    <rect x="106" y="32" width="1" height="1" fill="#231f20"/>
    <rect x="113" y="32" width="1" height="1" fill="#231f20"/>
    <rect x="137" y="32" width="1" height="1" fill="#231f20"/>
    <rect x="142" y="32" width="2" height="1" fill="#231f20"/>
    <rect x="173" y="32" width="1" height="1" fill="#231f20"/>
    <rect x="0" y="33" width="1" height="1" fill="#231f20"/>
    <rect x="38" y="33" width="1" height="1" fill="#231f20"/>
    <rect x="45" y="33" width="1" height="1" fill="#231f20"/>
    <rect x="76" y="33" width="1" height="1" fill="#231f20"/>
    <rect x="106" y="33" width="1" height="1" fill="#231f20"/>
    <rect x="113" y="33" width="1" height="1" fill="#231f20"/>
    <rect x="136" y="33" width="1" height="1" fill="#231f20"/>
    <rect x="143" y="33" width="1" height="1" fill="#231f20"/>
    <rect x="173" y="33" width="1" height="1" fill="#231f20"/>
    <rect x="0" y="34" width="1" height="1" fill="#231f20"/>
    <rect x="38" y="34" width="1" height="1" fill="#231f20"/>
    <rect x="44" y="34" width="1" height="1" fill="#231f20"/>
    <rect x="75" y="34" width="1" height="1" fill="#231f20"/>
    <rect x="106" y="34" width="1" height="1" fill="#231f20"/>
    <rect x="112" y="34" width="1" height="1" fill="#231f20"/>
    <rect x="135" y="34" width="1" height="1" fill="#231f20"/>
    <rect x="144" y="34" width="1" height="1" fill="#231f20"/>
    <rect x="153" y="34" width="1" height="1" fill="#231f20"/>
    <rect x="173" y="34" width="1" height="1" fill="#231f20"/>
    <rect x="0" y="35" width="1" height="1" fill="#231f20"/>
    <rect x="39" y="35" width="1" height="1" fill="#231f20"/>
    <rect x="44" y="35" width="1" height="1" fill="#231f20"/>
    <rect x="74" y="35" width="1" height="1" fill="#231f20"/>
    <rect x="107" y="35" width="1" height="1" fill="#231f20"/>
    <rect x="112" y="35" width="1" height="1" fill="#231f20"/>
    <rect x="144" y="35" width="1" height="1" fill="#231f20"/>
    <rect x="152" y="35" width="1" height="1" fill="#231f20"/>
    <rect x="173" y="35" width="1" height="1" fill="#231f20"/>
    <rect x="0" y="36" width="1" height="1" fill="#231f20"/>
    <rect x="39" y="36" width="1" height="1" fill="#231f20"/>
    <rect x="43" y="36" width="1" height="1" fill="#231f20"/>
    <rect x="73" y="36" width="1" height="1" fill="#231f20"/>
    <rect x="107" y="36" width="1" height="1" fill="#231f20"/>
    <rect x="111" y="36" width="1" height="1" fill="#231f20"/>
    <rect x="145" y="36" width="2" height="1" fill="#231f20"/>
    <rect x="151" y="36" width="1" height="1" fill="#231f20"/>
    <rect x="173" y="36" width="1" height="1" fill="#231f20"/>
    <rect x="0" y="37" width="1" height="1" fill="#231f20"/>
    <rect x="40" y="37" width="1" height="1" fill="#231f20"/>
    <rect x="43" y="37" width="1" height="1" fill="#231f20"/>
    <rect x="72" y="37" width="1" height="1" fill="#231f20"/>
    <rect x="108" y="37" width="1" height="1" fill="#231f20"/>
    <rect x="111" y="37" width="1" height="1" fill="#231f20"/>
    <rect x="146" y="37" width="1" height="1" fill="#231f20"/>
    <rect x="150" y="37" width="2" height="1" fill="#231f20"/>
    <rect x="173" y="37" width="1" height="1" fill="#231f20"/>
    <rect x="0" y="38" width="1" height="1" fill="#231f20"/>
    <rect x="40" y="38" width="1" height="1" fill="#231f20"/>
    <rect x="42" y="38" width="1" height="1" fill="#231f20"/>
    <rect x="71" y="38" width="1" height="1" fill="#231f20"/>
    <rect x="108" y="38" width="1" height="1" fill="#231f20"/>
    <rect x="110" y="38" width="1" height="1" fill="#231f20"/>
    <rect x="147" y="38" width="4" height="1" fill="#231f20"/>
    <rect x="173" y="38" width="1" height="1" fill="#231f20"/>
    <rect x="0" y="39" width="1" height="1" fill="#231f20"/>
    <rect x="41" y="39" width="2" height="1" fill="#231f20"/>
    <rect x="70" y="39" width="1" height="1" fill="#231f20"/>
    <rect x="109" y="39" width="2" height="1" fill="#231f20"/>
    <rect x="173" y="39" width="1" height="1" fill="#231f20"/>
    <rect x="0" y="40" width="1" height="1" fill="#231f20"/>
    <rect x="41" y="40" width="1" height="1" fill="#231f20"/>
    <rect x="69" y="40" width="1" height="1" fill="#231f20"/>
    <rect x="109" y="40" width="1" height="1" fill="#231f20"/>
    <rect x="173" y="40" width="1" height="1" fill="#231f20"/>
    <rect x="0" y="41" width="1" height="1" fill="#231f20"/>
    <rect x="68" y="41" width="1" height="1" fill="#231f20"/>
    <rect x="173" y="41" width="1" height="1" fill="#231f20"/>
    <rect x="0" y="42" width="1" height="1" fill="#231f20"/>
    <rect x="67" y="42" width="1" height="1" fill="#231f20"/>
    <rect x="173" y="42" width="1" height="1" fill="#231f20"/>
    <rect x="0" y="43" width="1" height="1" fill="#231f20"/>
    <rect x="66" y="43" width="1" height="1" fill="#231f20"/>
    <rect x="173" y="43" width="1" height="1" fill="#231f20"/>
    <rect x="0" y="44" width="1" height="1" fill="#231f20"/>
    <rect x="65" y="44" width="1" height="1" fill="#231f20"/>
    <rect x="173" y="44" width="1" height="1" fill="#231f20"/>
    <rect x="0" y="45" width="174" height="1" fill="#231f20"/>
    <rect x="0" y="46" width="1" height="1" fill="#231f20"/>
    <rect x="108" y="46" width="1" height="1" fill="#231f20"/>
    <rect x="173" y="46" width="1" height="1" fill="#231f20"/>
    <rect x="0" y="47" width="1" height="1" fill="#231f20"/>
    <rect x="107" y="47" width="1" height="1" fill="#231f20"/>
    <rect x="173" y="47" width="1" height="1" fill="#231f20"/>
    <rect x="0" y="48" width="1" height="1" fill="#231f20"/>
    <rect x="106" y="48" width="1" height="1" fill="#231f20"/>
    <rect x="173" y="48" width="1" height="1" fill="#231f20"/>
    <rect x="0" y="49" width="1" height="1" fill="#231f20"/>
    <rect x="105" y="49" width="1" height="1" fill="#231f20"/>
    <rect x="173" y="49" width="1" height="1" fill="#231f20"/>
    <rect x="0" y="50" width="1" height="1" fill="#231f20"/>
    <rect x="104" y="50" width="1" height="1" fill="#231f20"/>
    <rect x="173" y="50" width="1" height="1" fill="#231f20"/>
    <rect x="0" y="51" width="1" height="1" fill="#231f20"/>
    <rect x="103" y="51" width="1" height="1" fill="#231f20"/>
    <rect x="173" y="51" width="1" height="1" fill="#231f20"/>
    <rect x="0" y="52" width="1" height="1" fill="#231f20"/>
    <rect x="58" y="52" width="1" height="1" fill="#231f20"/>
    <rect x="69" y="52" width="1" height="1" fill="#231f20"/>
    <rect x="102" y="52" width="1" height="1" fill="#231f20"/>
    <rect x="126" y="52" width="1" height="1" fill="#231f20"/>
    <rect x="138" y="52" width="1" height="1" fill="#231f20"/>
    <rect x="173" y="52" width="1" height="1" fill="#231f20"/>
    <rect x="0" y="53" width="1" height="1" fill="#231f20"/>
    <rect x="24" y="53" width="3" height="1" fill="#231f20"/>
    <rect x="58" y="53" width="1" height="1" fill="#231f20"/>
    <rect x="68" y="53" width="1" height="1" fill="#231f20"/>
    <rect x="101" y="53" width="1" height="1" fill="#231f20"/>
    <rect x="127" y="53" width="1" height="1" fill="#231f20"/>
    <rect x="137" y="53" width="1" height="1" fill="#231f20"/>
    <rect x="173" y="53" width="1" height="1" fill="#231f20"/>
    <rect x="0" y="54" width="1" height="1" fill="#231f20"/>
    <rect x="22" y="54" width="2" height="1" fill="#231f20"/>
    <rect x="27" y="54" width="1" height="1" fill="#231f20"/>
    <rect x="59" y="54" width="1" height="1" fill="#231f20"/>
    <rect x="68" y="54" width="1" height="1" fill="#231f20"/>
    <rect x="100" y="54" width="1" height="1" fill="#231f20"/>
    <rect x="127" y="54" width="1" height="1" fill="#231f20"/>
    <rect x="137" y="54" width="1" height="1" fill="#231f20"/>
    <rect x="173" y="54" width="1" height="1" fill="#231f20"/>
    <rect x="0" y="55" width="1" height="1" fill="#231f20"/>
    <rect x="22" y="55" width="1" height="1" fill="#231f20"/>
    <rect x="28" y="55" width="1" height="1" fill="#231f20"/>
    <rect x="59" y="55" width="1" height="1" fill="#231f20"/>
    <rect x="67" y="55" width="1" height="1" fill="#231f20"/>
    <rect x="99" y="55" width="1" height="1" fill="#231f20"/>
    <rect x="128" y="55" width="1" height="1" fill="#231f20"/>
    <rect x="136" y="55" width="1" height="1" fill="#231f20"/>
    <rect x="173" y="55" width="1" height="1" fill="#231f20"/>
    <rect x="0" y="56" width="1" height="1" fill="#231f20"/>
    <rect x="21" y="56" width="2" height="1" fill="#231f20"/>
    <rect x="28" y="56" width="2" height="1" fill="#231f20"/>
    <rect x="60" y="56" width="1" height="1" fill="#231f20"/>
    <rect x="67" y="56" width="1" height="1" fill="#231f20"/>
    <rect x="98" y="56" width="1" height="1" fill="#231f20"/>
    <rect x="128" y="56" width="1" height="1" fill="#231f20"/>
    <rect x="136" y="56" width="1" height="1" fill="#231f20"/>
    <rect x="173" y="56" width="1" height="1" fill="#231f20"/>
    <rect x="0" y="57" width="1" height="1" fill="#231f20"/>
    <rect x="21" y="57" width="1" height="1" fill="#231f20"/>
    <rect x="29" y="57" width="1" height="1" fill="#231f20"/>
    <rect x="38" y="57" width="1" height="1" fill="#231f20"/>
    <rect x="60" y="57" width="1" height="1" fill="#231f20"/>
    <rect x="66" y="57" width="1" height="1" fill="#231f20"/>
    <rect x="97" y="57" width="1" height="1" fill="#231f20"/>
    <rect x="129" y="57" width="1" height="1" fill="#231f20"/>
    <rect x="135" y="57" width="1" height="1" fill="#231f20"/>
    <rect x="173" y="57" width="1" height="1" fill="#231f20"/>
    <rect x="0" y="58" width="1" height="1" fill="#231f20"/>
    <rect x="30" y="58" width="1" height="1" fill="#231f20"/>
    <rect x="37" y="58" width="1" height="1" fill="#231f20"/>
    <rect x="61" y="58" width="1" height="1" fill="#231f20"/>
    <rect x="66" y="58" width="1" height="1" fill="#231f20"/>
    <rect x="96" y="58" width="1" height="1" fill="#231f20"/>
    <rect x="129" y="58" width="1" height="1" fill="#231f20"/>
    <rect x="135" y="58" width="1" height="1" fill="#231f20"/>
    <rect x="173" y="58" width="1" height="1" fill="#231f20"/>
    <rect x="0" y="59" width="1" height="1" fill="#231f20"/>
    <rect x="30" y="59" width="2" height="1" fill="#231f20"/>
    <rect x="36" y="59" width="2" height="1" fill="#231f20"/>
    <rect x="61" y="59" width="1" height="1" fill="#231f20"/>
    <rect x="65" y="59" width="1" height="1" fill="#231f20"/>
    <rect x="95" y="59" width="1" height="1" fill="#231f20"/>
    <rect x="130" y="59" width="1" height="1" fill="#231f20"/>
    <rect x="134" y="59" width="1" height="1" fill="#231f20"/>
    <rect x="173" y="59" width="1" height="1" fill="#231f20"/>
    <rect x="0" y="60" width="1" height="1" fill="#231f20"/>
    <rect x="31" y="60" width="2" height="1" fill="#231f20"/>
    <rect x="35" y="60" width="2" height="1" fill="#231f20"/>
    <rect x="62" y="60" width="1" height="1" fill="#231f20"/>
    <rect x="65" y="60" width="1" height="1" fill="#231f20"/>
    <rect x="94" y="60" width="1" height="1" fill="#231f20"/>
    <rect x="130" y="60" width="1" height="1" fill="#231f20"/>
    <rect x="134" y="60" width="1" height="1" fill="#231f20"/>
    <rect x="173" y="60" width="1" height="1" fill="#231f20"/>
    <rect x="0" y="61" width="1" height="1" fill="#231f20"/>
    <rect x="32" y="61" width="4" height="1" fill="#231f20"/>
    <rect x="62" y="61" width="1" height="1" fill="#231f20"/>
    <rect x="64" y="61" width="1" height="1" fill="#231f20"/>
    <rect x="93" y="61" width="1" height="1" fill="#231f20"/>
    <rect x="131" y="61" width="1" height="1" fill="#231f20"/>
    <rect x="133" y="61" width="1" height="1" fill="#231f20"/>
    <rect x="173" y="61" width="1" height="1" fill="#231f20"/>
    <rect x="0" y="62" width="1" height="1" fill="#231f20"/>
    <rect x="63" y="62" width="2" height="1" fill="#231f20"/>
    <rect x="92" y="62" width="1" height="1" fill="#231f20"/>
    <rect x="131" y="62" width="1" height="1" fill="#231f20"/>
    <rect x="133" y="62" width="1" height="1" fill="#231f20"/>
    <rect x="173" y="62" width="1" height="1" fill="#231f20"/>
    <rect x="0" y="63" width="1" height="1" fill="#231f20"/>
    <rect x="63" y="63" width="1" height="1" fill="#231f20"/>
    <rect x="91" y="63" width="1" height="1" fill="#231f20"/>
    <rect x="132" y="63" width="1" height="1" fill="#231f20"/>
    <rect x="173" y="63" width="1" height="1" fill="#231f20"/>
    <rect x="0" y="64" width="1" height="1" fill="#231f20"/>
    <rect x="90" y="64" width="1" height="1" fill="#231f20"/>
    <rect x="173" y="64" width="1" height="1" fill="#231f20"/>
    <rect x="0" y="65" width="1" height="1" fill="#231f20"/>
    <rect x="89" y="65" width="1" height="1" fill="#231f20"/>
    <rect x="173" y="65" width="1" height="1" fill="#231f20"/>
    <rect x="0" y="66" width="1" height="1" fill="#231f20"/>
    <rect x="88" y="66" width="1" height="1" fill="#231f20"/>
    <rect x="173" y="66" width="1" height="1" fill="#231f20"/>
    <rect x="0" y="67" width="1" height="1" fill="#231f20"/>
    <rect x="87" y="67" width="1" height="1" fill="#231f20"/>
    <rect x="173" y="67" width="1" height="1" fill="#231f20"/>
    <rect x="0" y="68" width="174" height="1" fill="#231f20"/>
  </g>
</svg>