<?xml version="1.0" encoding="UTF-8"?>
<svg xmlns="http://www.w3.org/2000/svg" viewBox="0 0 173 70" width="173" height="70">
  <!-- Auto-converted from legend-2329.png -->
  <rect x="0" y="0" width="173" height="70" fill="none"/>
  <g fill="#231f20" stroke="none">
    <rect x="0" y="0" width="173" height="1" fill="#231f20"/>
    <rect x="0" y="1" width="1" height="1" fill="#231f20"/>
    <rect x="172" y="1" width="1" height="1" fill="#231f20"/>
    <rect x="0" y="2" width="1" height="1" fill="#231f20"/>
    <rect x="172" y="2" width="1" height="1" fill="#231f20"/>
    <rect x="0" y="3" width="1" height="1" fill="#231f20"/>
    <rect x="172" y="3" width="1" height="1" fill="#231f20"/>
    <rect x="0" y="4" width="1" height="1" fill="#231f20"/>
    <rect x="20" y="4" width="3" height="1" fill="#231f20"/>
    <rect x="64" y="4" width="1" height="1" fill="#231f20"/>
    <rect x="172" y="4" width="1" height="1" fill="#231f20"/>
    <rect x="0" y="5" width="1" height="1" fill="#231f20"/>
    <rect x="16" y="5" width="5" height="1" fill="#231f20"/>
    <rect x="22" y="5" width="5" height="1" fill="#231f20"/>
    <rect x="63" y="5" width="1" height="1" fill="#231f20"/>
    <rect x="172" y="5" width="1" height="1" fill="#231f20"/>
    <rect x="0" y="6" width="1" height="1" fill="#231f20"/>
    <rect x="13" y="6" width="3" height="1" fill="#231f20"/>
    <rect x="27" y="6" width="2" height="1" fill="#231f20"/>
    <rect x="61" y="6" width="2" height="1" fill="#231f20"/>
    <rect x="172" y="6" width="1" height="1" fill="#231f20"/>
    <rect x="0" y="7" width="1" height="1" fill="#231f20"/>
    <rect x="11" y="7" width="2" height="1" fill="#231f20"/>
    <rect x="29" y="7" width="3" height="1" fill="#231f20"/>
    <rect x="60" y="7" width="1" height="1" fill="#231f20"/>
    <rect x="172" y="7" width="1" height="1" fill="#231f20"/>
    <rect x="0" y="8" width="1" height="1" fill="#231f20"/>
    <rect x="9" y="8" width="2" height="1" fill="#231f20"/>
    <rect x="16" y="8" width="5" height="1" fill="#231f20"/>
    <rect x="32" y="8" width="2" height="1" fill="#231f20"/>
    <rect x="58" y="8" width="2" height="1" fill="#231f20"/>
    <rect x="172" y="8" width="1" height="1" fill="#231f20"/>
    <rect x="0" y="9" width="1" height="1" fill="#231f20"/>
    <rect x="5" y="9" width="4" height="1" fill="#231f20"/>
    <rect x="15" y="9" width="6" height="1" fill="#231f20"/>
    <rect x="34" y="9" width="1" height="1" fill="#231f20"/>
    <rect x="56" y="9" width="2" height="1" fill="#231f20"/>
    <rect x="172" y="9" width="1" height="1" fill="#231f20"/>
    <rect x="0" y="10" width="1" height="1" fill="#231f20"/>
    <rect x="3" y="10" width="2" height="1" fill="#231f20"/>
    <rect x="15" y="10" width="11" height="1" fill="#231f20"/>
    <rect x="35" y="10" width="2" height="1" fill="#231f20"/>
    <rect x="54" y="10" width="2" height="1" fill="#231f20"/>
    <rect x="63" y="10" width="2" height="1" fill="#231f20"/>
    <rect x="100" y="10" width="1" height="1" fill="#231f20"/>
    <rect x="103" y="10" width="1" height="1" fill="#231f20"/>
    <rect x="172" y="10" width="1" height="1" fill="#231f20"/>
    <rect x="0" y="11" width="1" height="1" fill="#231f20"/>
    <rect x="2" y="11" width="1" height="1" fill="#231f20"/>
    <rect x="15" y="11" width="6" height="1" fill="#231f20"/>
    <rect x="25" y="11" width="4" height="1" fill="#231f20"/>
    <rect x="37" y="11" width="2" height="1" fill="#231f20"/>
    <rect x="52" y="11" width="2" height="1" fill="#231f20"/>
    <rect x="62" y="11" width="1" height="1" fill="#231f20"/>
    <rect x="100" y="11" width="1" height="1" fill="#231f20"/>
    <rect x="103" y="11" width="1" height="1" fill="#231f20"/>
    <rect x="172" y="11" width="1" height="1" fill="#231f20"/>
    <rect x="0" y="12" width="2" height="1" fill="#231f20"/>
    <rect x="12" y="12" width="9" height="1" fill="#231f20"/>
    <rect x="29" y="12" width="2" height="1" fill="#231f20"/>
    <rect x="39" y="12" width="4" height="1" fill="#231f20"/>
    <rect x="48" y="12" width="4" height="1" fill="#231f20"/>
    <rect x="56" y="12" width="6" height="1" fill="#231f20"/>
    <rect x="99" y="12" width="1" height="1" fill="#231f20"/>
    <rect x="104" y="12" width="1" height="1" fill="#231f20"/>
    <rect x="172" y="12" width="1" height="1" fill="#231f20"/>
    <rect x="0" y="13" width="1" height="1" fill="#231f20"/>
    <rect x="11" y="13" width="1" height="1" fill="#231f20"/>
    <rect x="17" y="13" width="3" height="1" fill="#231f20"/>
    <rect x="31" y="13" width="2" height="1" fill="#231f20"/>
    <rect x="37" y="13" width="3" height="1" fill="#231f20"/>
    <rect x="43" y="13" width="6" height="1" fill="#231f20"/>
    <rect x="55" y="13" width="6" height="1" fill="#231f20"/>
    <rect x="99" y="13" width="1" height="1" fill="#231f20"/>
    <rect x="104" y="13" width="1" height="1" fill="#231f20"/>
    <rect x="172" y="13" width="1" height="1" fill="#231f20"/>
    <rect x="0" y="14" width="1" height="1" fill="#231f20"/>
    <rect x="9" y="14" width="2" height="1" fill="#231f20"/>
    <rect x="33" y="14" width="2" height="1" fill="#231f20"/>
    <rect x="36" y="14" width="5" height="1" fill="#231f20"/>
    <rect x="55" y="14" width="7" height="1" fill="#231f20"/>
    <rect x="99" y="14" width="1" height="1" fill="#231f20"/>
    <rect x="105" y="14" width="1" height="1" fill="#231f20"/>
    <rect x="148" y="14" width="1" height="1" fill="#231f20"/>
    <rect x="151" y="14" width="1" height="1" fill="#231f20"/>
    <rect x="172" y="14" width="1" height="1" fill="#231f20"/>
    <rect x="0" y="15" width="1" height="1" fill="#231f20"/>
    <rect x="6" y="15" width="3" height="1" fill="#231f20"/>
    <rect x="35" y="15" width="6" height="1" fill="#231f20"/>
    <rect x="55" y="15" width="6" height="1" fill="#231f20"/>
    <rect x="98" y="15" width="1" height="1" fill="#231f20"/>
    <rect x="105" y="15" width="1" height="1" fill="#231f20"/>
    <rect x="148" y="15" width="1" height="1" fill="#231f20"/>
    <rect x="151" y="15" width="1" height="1" fill="#231f20"/>
    <rect x="172" y="15" width="1" height="1" fill="#231f20"/>
    <rect x="0" y="16" width="1" height="1" fill="#231f20"/>
    <rect x="2" y="16" width="4" height="1" fill="#231f20"/>
    <rect x="35" y="16" width="7" height="1" fill="#231f20"/>
    <rect x="53" y="16" width="2" height="1" fill="#231f20"/>
    <rect x="56" y="16" width="5" height="1" fill="#231f20"/>
    <rect x="98" y="16" width="1" height="1" fill="#231f20"/>
    <rect x="106" y="16" width="1" height="1" fill="#231f20"/>
    <rect x="147" y="16" width="1" height="1" fill="#231f20"/>
    <rect x="152" y="16" width="1" height="1" fill="#231f20"/>
    <rect x="172" y="16" width="1" height="1" fill="#231f20"/>
    <rect x="0" y="17" width="2" height="1" fill="#231f20"/>
    <rect x="35" y="17" width="7" height="1" fill="#231f20"/>
    <rect x="51" y="17" width="2" height="1" fill="#231f20"/>
    <rect x="57" y="17" width="3" height="1" fill="#231f20"/>
    <rect x="97" y="17" width="1" height="1" fill="#231f20"/>
    <rect x="106" y="17" width="1" height="1" fill="#231f20"/>
    <rect x="147" y="17" width="1" height="1" fill="#231f20"/>
    <rect x="152" y="17" width="1" height="1" fill="#231f20"/>
    <rect x="172" y="17" width="1" height="1" fill="#231f20"/>
    <rect x="0" y="18" width="1" height="1" fill="#231f20"/>
    <rect x="36" y="18" width="15" height="1" fill="#231f20"/>
    <rect x="97" y="18" width="1" height="1" fill="#231f20"/>
    <rect x="107" y="18" width="1" height="1" fill="#231f20"/>
    <rect x="147" y="18" width="1" height="1" fill="#231f20"/>
    <rect x="153" y="18" width="1" height="1" fill="#231f20"/>
    <rect x="172" y="18" width="1" height="1" fill="#231f20"/>
    <rect x="0" y="19" width="1" height="1" fill="#231f20"/>
    <rect x="37" y="19" width="3" height="1" fill="#231f20"/>
    <rect x="97" y="19" width="1" height="1" fill="#231f20"/>
    <rect x="107" y="19" width="1" height="1" fill="#231f20"/>
    <rect x="146" y="19" width="1" height="1" fill="#231f20"/>
    <rect x="153" y="19" width="1" height="1" fill="#231f20"/>
    <rect x="172" y="19" width="1" height="1" fill="#231f20"/>
    <rect x="0" y="20" width="1" height="1" fill="#231f20"/>
    <rect x="96" y="20" width="1" height="1" fill="#231f20"/>
    <rect x="108" y="20" width="1" height="1" fill="#231f20"/>
    <rect x="146" y="20" width="1" height="1" fill="#231f20"/>
    <rect x="153" y="20" width="1" height="1" fill="#231f20"/>
    <rect x="172" y="20" width="1" height="1" fill="#231f20"/>
    <rect x="0" y="21" width="1" height="1" fill="#231f20"/>
    <rect x="83" y="21" width="26" height="1" fill="#231f20"/>
    <rect x="146" y="21" width="1" height="1" fill="#231f20"/>
    <rect x="154" y="21" width="1" height="1" fill="#231f20"/>
    <rect x="172" y="21" width="1" height="1" fill="#231f20"/>
    <rect x="0" y="22" width="1" height="1" fill="#231f20"/>
    <rect x="72" y="22" width="11" height="1" fill="#231f20"/>
    <rect x="108" y="22" width="10" height="1" fill="#231f20"/>
    <rect x="145" y="22" width="1" height="1" fill="#231f20"/>
    <rect x="154" y="22" width="1" height="1" fill="#231f20"/>
    <rect x="172" y="22" width="1" height="1" fill="#231f20"/>
    <rect x="0" y="23" width="1" height="1" fill="#231f20"/>
    <rect x="64" y="23" width="8" height="1" fill="#231f20"/>
    <rect x="118" y="23" width="8" height="1" fill="#231f20"/>
    <rect x="145" y="23" width="1" height="1" fill="#231f20"/>
    <rect x="155" y="23" width="1" height="1" fill="#231f20"/>
    <rect x="172" y="23" width="1" height="1" fill="#231f20"/>
    <rect x="0" y="24" width="1" height="1" fill="#231f20"/>
    <rect x="59" y="24" width="5" height="1" fill="#231f20"/>
    <rect x="126" y="24" width="7" height="1" fill="#231f20"/>
    <rect x="145" y="24" width="1" height="1" fill="#231f20"/>
    <rect x="155" y="24" width="1" height="1" fill="#231f20"/>
    <rect x="172" y="24" width="1" height="1" fill="#231f20"/>
    <rect x="0" y="25" width="1" height="1" fill="#231f20"/>
    <rect x="52" y="25" width="7" height="1" fill="#231f20"/>
    <rect x="80" y="25" width="30" height="1" fill="#231f20"/>
    <rect x="133" y="25" width="12" height="1" fill="#231f20"/>
    <rect x="156" y="25" width="1" height="1" fill="#231f20"/>
    <rect x="172" y="25" width="1" height="1" fill="#231f20"/>
    <rect x="0" y="26" width="6" height="1" fill="#231f20"/>
    <rect x="48" y="26" width="4" height="1" fill="#231f20"/>
    <rect x="69" y="26" width="11" height="1" fill="#231f20"/>
    <rect x="110" y="26" width="11" height="1" fill="#231f20"/>
    <rect x="144" y="26" width="4" height="1" fill="#231f20"/>
    <rect x="156" y="26" width="1" height="1" fill="#231f20"/>
    <rect x="172" y="26" width="1" height="1" fill="#231f20"/>
    <rect x="0" y="27" width="1" height="1" fill="#231f20"/>
    <rect x="6" y="27" width="1" height="1" fill="#231f20"/>
    <rect x="43" y="27" width="5" height="1" fill="#231f20"/>
    <rect x="64" y="27" width="5" height="1" fill="#231f20"/>
    <rect x="121" y="27" width="8" height="1" fill="#231f20"/>
    <rect x="148" y="27" width="5" height="1" fill="#231f20"/>
    <rect x="172" y="27" width="1" height="1" fill="#231f20"/>
    <rect x="0" y="28" width="1" height="1" fill="#231f20"/>
    <rect x="7" y="28" width="6" height="1" fill="#231f20"/>
    <rect x="38" y="28" width="5" height="1" fill="#231f20"/>
    <rect x="59" y="28" width="5" height="1" fill="#231f20"/>
    <rect x="129" y="28" width="4" height="1" fill="#231f20"/>
    <rect x="153" y="28" width="6" height="1" fill="#231f20"/>
    <rect x="172" y="28" width="1" height="1" fill="#231f20"/>
    <rect x="0" y="29" width="1" height="1" fill="#231f20"/>
    <rect x="13" y="29" width="8" height="1" fill="#231f20"/>
    <rect x="27" y="29" width="11" height="1" fill="#231f20"/>
    <rect x="52" y="29" width="7" height="1" fill="#231f20"/>
    <rect x="133" y="29" width="11" height="1" fill="#231f20"/>
    <rect x="159" y="29" width="5" height="1" fill="#231f20"/>
    <rect x="172" y="29" width="1" height="1" fill="#231f20"/>
    <rect x="0" y="30" width="5" height="1" fill="#231f20"/>
    <rect x="21" y="30" width="6" height="1" fill="#231f20"/>
    <rect x="48" y="30" width="4" height="1" fill="#231f20"/>
    <rect x="144" y="30" width="4" height="1" fill="#231f20"/>
    <rect x="164" y="30" width="5" height="1" fill="#231f20"/>
    <rect x="172" y="30" width="1" height="1" fill="#231f20"/>
    <rect x="0" y="31" width="1" height="1" fill="#231f20"/>
    <rect x="5" y="31" width="4" height="1" fill="#231f20"/>
    <rect x="43" y="31" width="5" height="1" fill="#231f20"/>
    <rect x="148" y="31" width="5" height="1" fill="#231f20"/>
    <rect x="169" y="31" width="2" height="1" fill="#231f20"/>
    <rect x="172" y="31" width="1" height="1" fill="#231f20"/>
    <rect x="0" y="32" width="1" height="1" fill="#231f20"/>
    <rect x="9" y="32" width="5" height="1" fill="#231f20"/>
    <rect x="37" y="32" width="6" height="1" fill="#231f20"/>
    <rect x="153" y="32" width="5" height="1" fill="#231f20"/>
    <rect x="171" y="32" width="2" height="1" fill="#231f20"/>
    <rect x="0" y="33" width="1" height="1" fill="#231f20"/>
    <rect x="14" y="33" width="23" height="1" fill="#231f20"/>
    <rect x="158" y="33" width="6" height="1" fill="#231f20"/>
    <rect x="172" y="33" width="1" height="1" fill="#231f20"/>
    <rect x="0" y="34" width="1" height="1" fill="#231f20"/>
    <rect x="164" y="34" width="6" height="1" fill="#231f20"/>
    <rect x="172" y="34" width="1" height="1" fill="#231f20"/>
    <rect x="0" y="35" width="1" height="1" fill="#231f20"/>
    <rect x="170" y="35" width="3" height="1" fill="#231f20"/>
    <rect x="0" y="36" width="1" height="1" fill="#231f20"/>
    <rect x="172" y="36" width="1" height="1" fill="#231f20"/>
    <rect x="0" y="37" width="1" height="1" fill="#231f20"/>
    <rect x="172" y="37" width="1" height="1" fill="#231f20"/>
    <rect x="0" y="38" width="1" height="1" fill="#231f20"/>
    <rect x="172" y="38" width="1" height="1" fill="#231f20"/>
    <rect x="0" y="39" width="1" height="1" fill="#231f20"/>
    <rect x="172" y="39" width="1" height="1" fill="#231f20"/>
    <rect x="0" y="40" width="1" height="1" fill="#231f20"/>
    <rect x="172" y="40" width="1" height="1" fill="#231f20"/>
    <rect x="0" y="41" width="1" height="1" fill="#231f20"/>
    <rect x="125" y="41" width="9" height="1" fill="#231f20"/>
    <rect x="171" y="41" width="2" height="1" fill="#231f20"/>
    <rect x="0" y="42" width="1" height="1" fill="#231f20"/>
    <rect x="122" y="42" width="3" height="1" fill="#231f20"/>
    <rect x="134" y="42" width="2" height="1" fill="#231f20"/>
    <rect x="169" y="42" width="2" height="1" fill="#231f20"/>
    <rect x="172" y="42" width="1" height="1" fill="#231f20"/>
    <rect x="0" y="43" width="1" height="1" fill="#231f20"/>
    <rect x="69" y="43" width="1" height="1" fill="#231f20"/>
    <rect x="72" y="43" width="1" height="1" fill="#231f20"/>
    <rect x="119" y="43" width="3" height="1" fill="#231f20"/>
    <rect x="136" y="43" width="4" height="1" fill="#231f20"/>
    <rect x="168" y="43" width="1" height="1" fill="#231f20"/>
    <rect x="172" y="43" width="1" height="1" fill="#231f20"/>
    <rect x="0" y="44" width="1" height="1" fill="#231f20"/>
    <rect x="69" y="44" width="1" height="1" fill="#231f20"/>
    <rect x="72" y="44" width="1" height="1" fill="#231f20"/>
    <rect x="117" y="44" width="2" height="1" fill="#231f20"/>
    <rect x="125" y="44" width="3" height="1" fill="#231f20"/>
    <rect x="140" y="44" width="2" height="1" fill="#231f20"/>
    <rect x="167" y="44" width="1" height="1" fill="#231f20"/>
    <rect x="172" y="44" width="1" height="1" fill="#231f20"/>
    <rect x="0" y="45" width="1" height="1" fill="#231f20"/>
    <rect x="68" y="45" width="1" height="1" fill="#231f20"/>
    <rect x="73" y="45" width="1" height="1" fill="#231f20"/>
    <rect x="115" y="45" width="2" height="1" fill="#231f20"/>
    <rect x="124" y="45" width="5" height="1" fill="#231f20"/>
    <rect x="142" y="45" width="1" height="1" fill="#231f20"/>
    <rect x="165" y="45" width="2" height="1" fill="#231f20"/>
    <rect x="172" y="45" width="1" height="1" fill="#231f20"/>
    <rect x="0" y="46" width="1" height="1" fill="#231f20"/>
    <rect x="68" y="46" width="1" height="1" fill="#231f20"/>
    <rect x="73" y="46" width="1" height="1" fill="#231f20"/>
    <rect x="111" y="46" width="4" height="1" fill="#231f20"/>
    <rect x="123" y="46" width="10" height="1" fill="#231f20"/>
    <rect x="143" y="46" width="2" height="1" fill="#231f20"/>
    <rect x="163" y="46" width="2" height="1" fill="#231f20"/>
    <rect x="172" y="46" width="1" height="1" fill="#231f20"/>
    <rect x="0" y="47" width="1" height="1" fill="#231f20"/>
    <rect x="22" y="47" width="1" height="1" fill="#231f20"/>
    <rect x="24" y="47" width="1" height="1" fill="#231f20"/>
    <rect x="68" y="47" width="1" height="1" fill="#231f20"/>
    <rect x="74" y="47" width="1" height="1" fill="#231f20"/>
    <rect x="110" y="47" width="1" height="1" fill="#231f20"/>
    <rect x="123" y="47" width="7" height="1" fill="#231f20"/>
    <rect x="132" y="47" width="4" height="1" fill="#231f20"/>
    <rect x="145" y="47" width="2" height="1" fill="#231f20"/>
    <rect x="161" y="47" width="2" height="1" fill="#231f20"/>
    <rect x="171" y="47" width="2" height="1" fill="#231f20"/>
    <rect x="0" y="48" width="1" height="1" fill="#231f20"/>
    <rect x="22" y="48" width="1" height="1" fill="#231f20"/>
    <rect x="24" y="48" width="1" height="1" fill="#231f20"/>
    <rect x="67" y="48" width="1" height="1" fill="#231f20"/>
    <rect x="74" y="48" width="1" height="1" fill="#231f20"/>
    <rect x="109" y="48" width="1" height="1" fill="#231f20"/>
    <rect x="122" y="48" width="7" height="1" fill="#231f20"/>
    <rect x="136" y="48" width="2" height="1" fill="#231f20"/>
    <rect x="147" y="48" width="3" height="1" fill="#231f20"/>
    <rect x="157" y="48" width="4" height="1" fill="#231f20"/>
    <rect x="165" y="48" width="3" height="1" fill="#231f20"/>
    <rect x="169" y="48" width="2" height="1" fill="#231f20"/>
    <rect x="172" y="48" width="1" height="1" fill="#231f20"/>
    <rect x="0" y="49" width="1" height="1" fill="#231f20"/>
    <rect x="21" y="49" width="1" height="1" fill="#231f20"/>
    <rect x="25" y="49" width="1" height="1" fill="#231f20"/>
    <rect x="67" y="49" width="1" height="1" fill="#231f20"/>
    <rect x="75" y="49" width="1" height="1" fill="#231f20"/>
    <rect x="120" y="49" width="2" height="1" fill="#231f20"/>
    <rect x="124" y="49" width="5" height="1" fill="#231f20"/>
    <rect x="138" y="49" width="3" height="1" fill="#231f20"/>
    <rect x="146" y="49" width="1" height="1" fill="#231f20"/>
    <rect x="150" y="49" width="8" height="1" fill="#231f20"/>
    <rect x="164" y="49" width="5" height="1" fill="#231f20"/>
    <rect x="172" y="49" width="1" height="1" fill="#231f20"/>
    <rect x="0" y="50" width="1" height="1" fill="#231f20"/>
    <rect x="21" y="50" width="1" height="1" fill="#231f20"/>
    <rect x="25" y="50" width="1" height="1" fill="#231f20"/>
    <rect x="66" y="50" width="1" height="1" fill="#231f20"/>
    <rect x="75" y="50" width="1" height="1" fill="#231f20"/>
    <rect x="117" y="50" width="3" height="1" fill="#231f20"/>
    <rect x="126" y="50" width="1" height="1" fill="#231f20"/>
    <rect x="141" y="50" width="2" height="1" fill="#231f20"/>
    <rect x="144" y="50" width="5" height="1" fill="#231f20"/>
    <rect x="163" y="50" width="6" height="1" fill="#231f20"/>
    <rect x="172" y="50" width="1" height="1" fill="#231f20"/>
    <rect x="0" y="51" width="1" height="1" fill="#231f20"/>
    <rect x="20" y="51" width="1" height="1" fill="#231f20"/>
    <rect x="26" y="51" width="1" height="1" fill="#231f20"/>
    <rect x="66" y="51" width="1" height="1" fill="#231f20"/>
    <rect x="76" y="51" width="1" height="1" fill="#231f20"/>
    <rect x="114" y="51" width="3" height="1" fill="#231f20"/>
    <rect x="143" y="51" width="6" height="1" fill="#231f20"/>
    <rect x="163" y="51" width="7" height="1" fill="#231f20"/>
    <rect x="172" y="51" width="1" height="1" fill="#231f20"/>
    <rect x="0" y="52" width="1" height="1" fill="#231f20"/>
    <rect x="20" y="52" width="1" height="1" fill="#231f20"/>
    <rect x="26" y="52" width="1" height="1" fill="#231f20"/>
    <rect x="66" y="52" width="1" height="1" fill="#231f20"/>
    <rect x="76" y="52" width="1" height="1" fill="#231f20"/>
    <rect x="112" y="52" width="2" height="1" fill="#231f20"/>
    <rect x="143" y="52" width="7" height="1" fill="#231f20"/>
    <rect x="162" y="52" width="7" height="1" fill="#231f20"/>
    <rect x="172" y="52" width="1" height="1" fill="#231f20"/>
    <rect x="0" y="53" width="1" height="1" fill="#231f20"/>
    <rect x="19" y="53" width="1" height="1" fill="#231f20"/>
    <rect x="26" y="53" width="1" height="1" fill="#231f20"/>
    <rect x="65" y="53" width="1" height="1" fill="#231f20"/>
    <rect x="77" y="53" width="1" height="1" fill="#231f20"/>
    <rect x="109" y="53" width="3" height="1" fill="#231f20"/>
    <rect x="143" y="53" width="6" height="1" fill="#231f20"/>
    <rect x="159" y="53" width="3" height="1" fill="#231f20"/>
    <rect x="164" y="53" width="5" height="1" fill="#231f20"/>
    <rect x="172" y="53" width="1" height="1" fill="#231f20"/>
    <rect x="0" y="54" width="1" height="1" fill="#231f20"/>
    <rect x="19" y="54" width="1" height="1" fill="#231f20"/>
    <rect x="27" y="54" width="1" height="1" fill="#231f20"/>
    <rect x="65" y="54" width="1" height="1" fill="#231f20"/>
    <rect x="77" y="54" width="1" height="1" fill="#231f20"/>
    <rect x="144" y="54" width="9" height="1" fill="#231f20"/>
    <rect x="155" y="54" width="4" height="1" fill="#231f20"/>
    <rect x="172" y="54" width="1" height="1" fill="#231f20"/>
    <rect x="0" y="55" width="1" height="1" fill="#231f20"/>
    <rect x="19" y="55" width="1" height="1" fill="#231f20"/>
    <rect x="27" y="55" width="1" height="1" fill="#231f20"/>
    <rect x="77" y="55" width="36" height="1" fill="#231f20"/>
    <rect x="145" y="55" width="3" height="1" fill="#231f20"/>
    <rect x="153" y="55" width="3" height="1" fill="#231f20"/>
    <rect x="172" y="55" width="1" height="1" fill="#231f20"/>
    <rect x="0" y="56" width="1" height="1" fill="#231f20"/>
    <rect x="18" y="56" width="1" height="1" fill="#231f20"/>
    <rect x="28" y="56" width="1" height="1" fill="#231f20"/>
    <rect x="69" y="56" width="8" height="1" fill="#231f20"/>
    <rect x="113" y="56" width="8" height="1" fill="#231f20"/>
    <rect x="172" y="56" width="1" height="1" fill="#231f20"/>
    <rect x="0" y="57" width="1" height="1" fill="#231f20"/>
    <rect x="18" y="57" width="1" height="1" fill="#231f20"/>
    <rect x="28" y="57" width="1" height="1" fill="#231f20"/>
    <rect x="62" y="57" width="7" height="1" fill="#231f20"/>
    <rect x="121" y="57" width="8" height="1" fill="#231f20"/>
    <rect x="172" y="57" width="1" height="1" fill="#231f20"/>
    <rect x="0" y="58" width="1" height="1" fill="#231f20"/>
    <rect x="17" y="58" width="1" height="1" fill="#231f20"/>
    <rect x="29" y="58" width="1" height="1" fill="#231f20"/>
    <rect x="56" y="58" width="6" height="1" fill="#231f20"/>
    <rect x="129" y="58" width="9" height="1" fill="#231f20"/>
    <rect x="172" y="58" width="1" height="1" fill="#231f20"/>
    <rect x="0" y="59" width="3" height="1" fill="#231f20"/>
    <rect x="17" y="59" width="1" height="1" fill="#231f20"/>
    <rect x="29" y="59" width="1" height="1" fill="#231f20"/>
    <rect x="52" y="59" width="4" height="1" fill="#231f20"/>
    <rect x="77" y="59" width="36" height="1" fill="#231f20"/>
    <rect x="138" y="59" width="6" height="1" fill="#231f20"/>
    <rect x="172" y="59" width="1" height="1" fill="#231f20"/>
    <rect x="0" y="60" width="1" height="1" fill="#231f20"/>
    <rect x="3" y="60" width="2" height="1" fill="#231f20"/>
    <rect x="48" y="60" width="4" height="1" fill="#231f20"/>
    <rect x="66" y="60" width="11" height="1" fill="#231f20"/>
    <rect x="113" y="60" width="10" height="1" fill="#231f20"/>
    <rect x="144" y="60" width="4" height="1" fill="#231f20"/>
    <rect x="172" y="60" width="1" height="1" fill="#231f20"/>
    <rect x="0" y="61" width="1" height="1" fill="#231f20"/>
    <rect x="5" y="61" width="4" height="1" fill="#231f20"/>
    <rect x="42" y="61" width="6" height="1" fill="#231f20"/>
    <rect x="60" y="61" width="6" height="1" fill="#231f20"/>
    <rect x="123" y="61" width="10" height="1" fill="#231f20"/>
    <rect x="148" y="61" width="8" height="1" fill="#231f20"/>
    <rect x="172" y="61" width="1" height="1" fill="#231f20"/>
    <rect x="0" y="62" width="1" height="1" fill="#231f20"/>
    <rect x="9" y="62" width="5" height="1" fill="#231f20"/>
    <rect x="35" y="62" width="7" height="1" fill="#231f20"/>
    <rect x="56" y="62" width="4" height="1" fill="#231f20"/>
    <rect x="133" y="62" width="5" height="1" fill="#231f20"/>
    <rect x="156" y="62" width="5" height="1" fill="#231f20"/>
    <rect x="172" y="62" width="1" height="1" fill="#231f20"/>
    <rect x="0" y="63" width="3" height="1" fill="#231f20"/>
    <rect x="14" y="63" width="21" height="1" fill="#231f20"/>
    <rect x="52" y="63" width="4" height="1" fill="#231f20"/>
    <rect x="138" y="63" width="6" height="1" fill="#231f20"/>
    <rect x="161" y="63" width="3" height="1" fill="#231f20"/>
    <rect x="172" y="63" width="1" height="1" fill="#231f20"/>
    <rect x="0" y="64" width="1" height="1" fill="#231f20"/>
    <rect x="3" y="64" width="2" height="1" fill="#231f20"/>
    <rect x="48" y="64" width="4" height="1" fill="#231f20"/>
    <rect x="144" y="64" width="6" height="1" fill="#231f20"/>
    <rect x="164" y="64" width="6" height="1" fill="#231f20"/>
    <rect x="172" y="64" width="1" height="1" fill="#231f20"/>
    <rect x="0" y="65" width="1" height="1" fill="#231f20"/>
    <rect x="5" y="65" width="5" height="1" fill="#231f20"/>
    <rect x="42" y="65" width="6" height="1" fill="#231f20"/>
    <rect x="150" y="65" width="6" height="1" fill="#231f20"/>
    <rect x="170" y="65" width="3" height="1" fill="#231f20"/>
    <rect x="0" y="66" width="1" height="1" fill="#231f20"/>
    <rect x="10" y="66" width="5" height="1" fill="#231f20"/>
    <rect x="34" y="66" width="8" height="1" fill="#231f20"/>
    <rect x="156" y="66" width="5" height="1" fill="#231f20"/>
    <rect x="172" y="66" width="1" height="1" fill="#231f20"/>
    <rect x="0" y="67" width="1" height="1" fill="#231f20"/>
    <rect x="15" y="67" width="19" height="1" fill="#231f20"/>
    <rect x="161" y="67" width="5" height="1" fill="#231f20"/>
    <rect x="172" y="67" width="1" height="1" fill="#231f20"/>
    <rect x="0" y="68" width="1" height="1" fill="#231f20"/>
    <rect x="166" y="68" width="4" height="1" fill="#231f20"/>
    <rect x="172" y="68" width="1" height="1" fill="#231f20"/>
    <rect x="0" y="69" width="173" height="1" fill="#231f20"/>
  </g>
</svg>