<?xml version="1.0" encoding="UTF-8"?>
<svg xmlns="http://www.w3.org/2000/svg" viewBox="0 0 173 69" width="173" height="69">
  <!-- Auto-converted from legend-1756.png -->
  <rect x="0" y="0" width="173" height="69" fill="none"/>
  <g fill="#231f20" stroke="none">
    <rect x="0" y="0" width="173" height="1" fill="#231f20"/>
    <rect x="0" y="1" width="1" height="1" fill="#231f20"/>
    <rect x="172" y="1" width="1" height="1" fill="#231f20"/>
    <rect x="0" y="2" width="1" height="1" fill="#231f20"/>
    <rect x="172" y="2" width="1" height="1" fill="#231f20"/>
    <rect x="0" y="3" width="1" height="1" fill="#231f20"/>
    <rect x="172" y="3" width="1" height="1" fill="#231f20"/>
    <rect x="0" y="4" width="1" height="1" fill="#231f20"/>
    <rect x="172" y="4" width="1" height="1" fill="#231f20"/>
    <rect x="0" y="5" width="1" height="1" fill="#231f20"/>
    <rect x="172" y="5" width="1" height="1" fill="#231f20"/>
    <rect x="0" y="6" width="1" height="1" fill="#231f20"/>
    <rect x="172" y="6" width="1" height="1" fill="#231f20"/>
    <rect x="0" y="7" width="1" height="1" fill="#231f20"/>
    <rect x="30" y="7" width="3" height="1" fill="#231f20"/>
    <rect x="34" y="7" width="3" height="1" fill="#231f20"/>
    <rect x="76" y="7" width="3" height="1" fill="#231f20"/>
    <rect x="80" y="7" width="3" height="1" fill="#231f20"/>
    <rect x="122" y="7" width="3" height="1" fill="#231f20"/>
    <rect x="126" y="7" width="3" height="1" fill="#231f20"/>
    <rect x="172" y="7" width="1" height="1" fill="#231f20"/>
    <rect x="0" y="8" width="1" height="1" fill="#231f20"/>
    <rect x="31" y="8" width="2" height="1" fill="#231f20"/>
    <rect x="34" y="8" width="2" height="1" fill="#231f20"/>
    <rect x="77" y="8" width="2" height="1" fill="#231f20"/>
    <rect x="80" y="8" width="2" height="1" fill="#231f20"/>
    <rect x="123" y="8" width="2" height="1" fill="#231f20"/>
    <rect x="126" y="8" width="2" height="1" fill="#231f20"/>
    <rect x="172" y="8" width="1" height="1" fill="#231f20"/>
    <rect x="0" y="9" width="1" height="1" fill="#231f20"/>
    <rect x="31" y="9" width="2" height="1" fill="#231f20"/>
    <rect x="34" y="9" width="2" height="1" fill="#231f20"/>
    <rect x="77" y="9" width="2" height="1" fill="#231f20"/>
    <rect x="80" y="9" width="2" height="1" fill="#231f20"/>
    <rect x="123" y="9" width="2" height="1" fill="#231f20"/>
    <rect x="126" y="9" width="2" height="1" fill="#231f20"/>
    <rect x="172" y="9" width="1" height="1" fill="#231f20"/>
    <rect x="0" y="10" width="1" height="1" fill="#231f20"/>
    <rect x="31" y="10" width="2" height="1" fill="#231f20"/>
    <rect x="34" y="10" width="2" height="1" fill="#231f20"/>
    <rect x="77" y="10" width="2" height="1" fill="#231f20"/>
    <rect x="80" y="10" width="2" height="1" fill="#231f20"/>
    <rect x="123" y="10" width="2" height="1" fill="#231f20"/>
    <rect x="126" y="10" width="2" height="1" fill="#231f20"/>
    <rect x="172" y="10" width="1" height="1" fill="#231f20"/>
    <rect x="0" y="11" width="1" height="1" fill="#231f20"/>
    <rect x="31" y="11" width="2" height="1" fill="#231f20"/>
    <rect x="34" y="11" width="2" height="1" fill="#231f20"/>
    <rect x="77" y="11" width="2" height="1" fill="#231f20"/>
    <rect x="80" y="11" width="2" height="1" fill="#231f20"/>
    <rect x="123" y="11" width="2" height="1" fill="#231f20"/>
    <rect x="126" y="11" width="2" height="1" fill="#231f20"/>
    <rect x="172" y="11" width="1" height="1" fill="#231f20"/>
    <rect x="0" y="12" width="1" height="1" fill="#231f20"/>
    <rect x="31" y="12" width="1" height="1" fill="#231f20"/>
    <rect x="33" y="12" width="1" height="1" fill="#231f20"/>
    <rect x="35" y="12" width="1" height="1" fill="#231f20"/>
    <rect x="77" y="12" width="1" height="1" fill="#231f20"/>
    <rect x="79" y="12" width="1" height="1" fill="#231f20"/>
    <rect x="81" y="12" width="1" height="1" fill="#231f20"/>
    <rect x="123" y="12" width="1" height="1" fill="#231f20"/>
    <rect x="125" y="12" width="1" height="1" fill="#231f20"/>
    <rect x="127" y="12" width="1" height="1" fill="#231f20"/>
    <rect x="172" y="12" width="1" height="1" fill="#231f20"/>
    <rect x="0" y="13" width="1" height="1" fill="#231f20"/>
    <rect x="31" y="13" width="1" height="1" fill="#231f20"/>
    <rect x="33" y="13" width="1" height="1" fill="#231f20"/>
    <rect x="35" y="13" width="1" height="1" fill="#231f20"/>
    <rect x="77" y="13" width="1" height="1" fill="#231f20"/>
    <rect x="79" y="13" width="1" height="1" fill="#231f20"/>
    <rect x="81" y="13" width="1" height="1" fill="#231f20"/>
    <rect x="123" y="13" width="1" height="1" fill="#231f20"/>
    <rect x="125" y="13" width="1" height="1" fill="#231f20"/>
    <rect x="127" y="13" width="1" height="1" fill="#231f20"/>
    <rect x="172" y="13" width="1" height="1" fill="#231f20"/>
    <rect x="0" y="14" width="1" height="1" fill="#231f20"/>
    <rect x="31" y="14" width="1" height="1" fill="#231f20"/>
    <rect x="33" y="14" width="1" height="1" fill="#231f20"/>
    <rect x="35" y="14" width="1" height="1" fill="#231f20"/>
    <rect x="77" y="14" width="1" height="1" fill="#231f20"/>
    <rect x="79" y="14" width="1" height="1" fill="#231f20"/>
    <rect x="81" y="14" width="1" height="1" fill="#231f20"/>
    <rect x="123" y="14" width="1" height="1" fill="#231f20"/>
    <rect x="125" y="14" width="1" height="1" fill="#231f20"/>
    <rect x="127" y="14" width="1" height="1" fill="#231f20"/>
    <rect x="172" y="14" width="1" height="1" fill="#231f20"/>
    <rect x="0" y="15" width="1" height="1" fill="#231f20"/>
    <rect x="31" y="15" width="1" height="1" fill="#231f20"/>
    <rect x="33" y="15" width="1" height="1" fill="#231f20"/>
    <rect x="35" y="15" width="1" height="1" fill="#231f20"/>
    <rect x="77" y="15" width="1" height="1" fill="#231f20"/>
    <rect x="79" y="15" width="1" height="1" fill="#231f20"/>
    <rect x="81" y="15" width="1" height="1" fill="#231f20"/>
    <rect x="123" y="15" width="1" height="1" fill="#231f20"/>
    <rect x="125" y="15" width="1" height="1" fill="#231f20"/>
    <rect x="127" y="15" width="1" height="1" fill="#231f20"/>
    <rect x="172" y="15" width="1" height="1" fill="#231f20"/>
    <rect x="0" y="16" width="1" height="1" fill="#231f20"/>
    <rect x="31" y="16" width="1" height="1" fill="#231f20"/>
    <rect x="33" y="16" width="1" height="1" fill="#231f20"/>
    <rect x="35" y="16" width="1" height="1" fill="#231f20"/>
    <rect x="77" y="16" width="1" height="1" fill="#231f20"/>
    <rect x="79" y="16" width="1" height="1" fill="#231f20"/>
    <rect x="81" y="16" width="1" height="1" fill="#231f20"/>
    <rect x="123" y="16" width="1" height="1" fill="#231f20"/>
    <rect x="125" y="16" width="1" height="1" fill="#231f20"/>
    <rect x="127" y="16" width="1" height="1" fill="#231f20"/>
    <rect x="172" y="16" width="1" height="1" fill="#231f20"/>
    <rect x="0" y="17" width="1" height="1" fill="#231f20"/>
    <rect x="30" y="17" width="2" height="1" fill="#231f20"/>
    <rect x="33" y="17" width="1" height="1" fill="#231f20"/>
    <rect x="35" y="17" width="2" height="1" fill="#231f20"/>
    <rect x="76" y="17" width="2" height="1" fill="#231f20"/>
    <rect x="79" y="17" width="1" height="1" fill="#231f20"/>
    <rect x="81" y="17" width="2" height="1" fill="#231f20"/>
    <rect x="122" y="17" width="2" height="1" fill="#231f20"/>
    <rect x="125" y="17" width="1" height="1" fill="#231f20"/>
    <rect x="127" y="17" width="2" height="1" fill="#231f20"/>
    <rect x="172" y="17" width="1" height="1" fill="#231f20"/>
    <rect x="0" y="18" width="1" height="1" fill="#231f20"/>
    <rect x="172" y="18" width="1" height="1" fill="#231f20"/>
    <rect x="0" y="19" width="1" height="1" fill="#231f20"/>
    <rect x="172" y="19" width="1" height="1" fill="#231f20"/>
    <rect x="0" y="20" width="1" height="1" fill="#231f20"/>
    <rect x="172" y="20" width="1" height="1" fill="#231f20"/>
    <rect x="0" y="21" width="1" height="1" fill="#231f20"/>
    <rect x="172" y="21" width="1" height="1" fill="#231f20"/>
    <rect x="0" y="22" width="1" height="1" fill="#231f20"/>
    <rect x="172" y="22" width="1" height="1" fill="#231f20"/>
    <rect x="0" y="23" width="173" height="1" fill="#231f20"/>
    <rect x="0" y="24" width="1" height="1" fill="#231f20"/>
    <rect x="172" y="24" width="1" height="1" fill="#231f20"/>
    <rect x="0" y="25" width="1" height="1" fill="#231f20"/>
    <rect x="172" y="25" width="1" height="1" fill="#231f20"/>
    <rect x="0" y="26" width="1" height="1" fill="#231f20"/>
    <rect x="172" y="26" width="1" height="1" fill="#231f20"/>
    <rect x="0" y="27" width="1" height="1" fill="#231f20"/>
    <rect x="172" y="27" width="1" height="1" fill="#231f20"/>
    <rect x="0" y="28" width="1" height="1" fill="#231f20"/>
    <rect x="172" y="28" width="1" height="1" fill="#231f20"/>
    <rect x="0" y="29" width="1" height="1" fill="#231f20"/>
    <rect x="172" y="29" width="1" height="1" fill="#231f20"/>
    <rect x="0" y="30" width="1" height="1" fill="#231f20"/>
    <rect x="42" y="30" width="3" height="1" fill="#231f20"/>
    <rect x="46" y="30" width="3" height="1" fill="#231f20"/>
    <rect x="88" y="30" width="3" height="1" fill="#231f20"/>
    <rect x="92" y="30" width="3" height="1" fill="#231f20"/>
    <rect x="133" y="30" width="3" height="1" fill="#231f20"/>
    <rect x="137" y="30" width="3" height="1" fill="#231f20"/>
    <rect x="172" y="30" width="1" height="1" fill="#231f20"/>
    <rect x="0" y="31" width="1" height="1" fill="#231f20"/>
    <rect x="43" y="31" width="2" height="1" fill="#231f20"/>
    <rect x="46" y="31" width="2" height="1" fill="#231f20"/>
    <rect x="89" y="31" width="2" height="1" fill="#231f20"/>
    <rect x="92" y="31" width="2" height="1" fill="#231f20"/>
    <rect x="134" y="31" width="2" height="1" fill="#231f20"/>
    <rect x="137" y="31" width="2" height="1" fill="#231f20"/>
    <rect x="172" y="31" width="1" height="1" fill="#231f20"/>
    <rect x="0" y="32" width="1" height="1" fill="#231f20"/>
    <rect x="43" y="32" width="2" height="1" fill="#231f20"/>
    <rect x="46" y="32" width="2" height="1" fill="#231f20"/>
    <rect x="89" y="32" width="2" height="1" fill="#231f20"/>
    <rect x="92" y="32" width="2" height="1" fill="#231f20"/>
    <rect x="134" y="32" width="2" height="1" fill="#231f20"/>
    <rect x="137" y="32" width="2" height="1" fill="#231f20"/>
    <rect x="172" y="32" width="1" height="1" fill="#231f20"/>
    <rect x="0" y="33" width="1" height="1" fill="#231f20"/>
    <rect x="43" y="33" width="2" height="1" fill="#231f20"/>
    <rect x="46" y="33" width="2" height="1" fill="#231f20"/>
    <rect x="89" y="33" width="2" height="1" fill="#231f20"/>
    <rect x="92" y="33" width="2" height="1" fill="#231f20"/>
    <rect x="134" y="33" width="2" height="1" fill="#231f20"/>
    <rect x="137" y="33" width="2" height="1" fill="#231f20"/>
    <rect x="172" y="33" width="1" height="1" fill="#231f20"/>
    <rect x="0" y="34" width="1" height="1" fill="#231f20"/>
    <rect x="43" y="34" width="2" height="1" fill="#231f20"/>
    <rect x="46" y="34" width="2" height="1" fill="#231f20"/>
    <rect x="89" y="34" width="2" height="1" fill="#231f20"/>
    <rect x="92" y="34" width="2" height="1" fill="#231f20"/>
    <rect x="134" y="34" width="2" height="1" fill="#231f20"/>
    <rect x="137" y="34" width="2" height="1" fill="#231f20"/>
    <rect x="172" y="34" width="1" height="1" fill="#231f20"/>
    <rect x="0" y="35" width="1" height="1" fill="#231f20"/>
    <rect x="43" y="35" width="1" height="1" fill="#231f20"/>
    <rect x="45" y="35" width="1" height="1" fill="#231f20"/>
    <rect x="47" y="35" width="1" height="1" fill="#231f20"/>
    <rect x="89" y="35" width="1" height="1" fill="#231f20"/>
    <rect x="91" y="35" width="1" height="1" fill="#231f20"/>
    <rect x="93" y="35" width="1" height="1" fill="#231f20"/>
    <rect x="134" y="35" width="1" height="1" fill="#231f20"/>
    <rect x="136" y="35" width="1" height="1" fill="#231f20"/>
    <rect x="138" y="35" width="1" height="1" fill="#231f20"/>
    <rect x="172" y="35" width="1" height="1" fill="#231f20"/>
    <rect x="0" y="36" width="1" height="1" fill="#231f20"/>
    <rect x="43" y="36" width="1" height="1" fill="#231f20"/>
    <rect x="45" y="36" width="1" height="1" fill="#231f20"/>
    <rect x="47" y="36" width="1" height="1" fill="#231f20"/>
    <rect x="89" y="36" width="1" height="1" fill="#231f20"/>
    <rect x="91" y="36" width="1" height="1" fill="#231f20"/>
    <rect x="93" y="36" width="1" height="1" fill="#231f20"/>
    <rect x="134" y="36" width="1" height="1" fill="#231f20"/>
    <rect x="136" y="36" width="1" height="1" fill="#231f20"/>
    <rect x="138" y="36" width="1" height="1" fill="#231f20"/>
    <rect x="172" y="36" width="1" height="1" fill="#231f20"/>
    <rect x="0" y="37" width="1" height="1" fill="#231f20"/>
    <rect x="43" y="37" width="1" height="1" fill="#231f20"/>
    <rect x="45" y="37" width="1" height="1" fill="#231f20"/>
    <rect x="47" y="37" width="1" height="1" fill="#231f20"/>
    <rect x="89" y="37" width="1" height="1" fill="#231f20"/>
    <rect x="91" y="37" width="1" height="1" fill="#231f20"/>
    <rect x="93" y="37" width="1" height="1" fill="#231f20"/>
    <rect x="134" y="37" width="1" height="1" fill="#231f20"/>
    <rect x="136" y="37" width="1" height="1" fill="#231f20"/>
    <rect x="138" y="37" width="1" height="1" fill="#231f20"/>
    <rect x="172" y="37" width="1" height="1" fill="#231f20"/>
    <rect x="0" y="38" width="1" height="1" fill="#231f20"/>
    <rect x="43" y="38" width="1" height="1" fill="#231f20"/>
    <rect x="45" y="38" width="1" height="1" fill="#231f20"/>
    <rect x="47" y="38" width="1" height="1" fill="#231f20"/>
    <rect x="89" y="38" width="1" height="1" fill="#231f20"/>
    <rect x="91" y="38" width="1" height="1" fill="#231f20"/>
    <rect x="93" y="38" width="1" height="1" fill="#231f20"/>
    <rect x="134" y="38" width="1" height="1" fill="#231f20"/>
    <rect x="136" y="38" width="1" height="1" fill="#231f20"/>
    <rect x="138" y="38" width="1" height="1" fill="#231f20"/>
    <rect x="172" y="38" width="1" height="1" fill="#231f20"/>
    <rect x="0" y="39" width="1" height="1" fill="#231f20"/>
    <rect x="43" y="39" width="1" height="1" fill="#231f20"/>
    <rect x="45" y="39" width="1" height="1" fill="#231f20"/>
    <rect x="47" y="39" width="1" height="1" fill="#231f20"/>
    <rect x="89" y="39" width="1" height="1" fill="#231f20"/>
    <rect x="91" y="39" width="1" height="1" fill="#231f20"/>
    <rect x="93" y="39" width="1" height="1" fill="#231f20"/>
    <rect x="134" y="39" width="1" height="1" fill="#231f20"/>
    <rect x="136" y="39" width="1" height="1" fill="#231f20"/>
    <rect x="138" y="39" width="1" height="1" fill="#231f20"/>
    <rect x="172" y="39" width="1" height="1" fill="#231f20"/>
    <rect x="0" y="40" width="1" height="1" fill="#231f20"/>
    <rect x="42" y="40" width="2" height="1" fill="#231f20"/>
    <rect x="45" y="40" width="1" height="1" fill="#231f20"/>
    <rect x="47" y="40" width="2" height="1" fill="#231f20"/>
    <rect x="88" y="40" width="2" height="1" fill="#231f20"/>
    <rect x="91" y="40" width="1" height="1" fill="#231f20"/>
    <rect x="93" y="40" width="2" height="1" fill="#231f20"/>
    <rect x="133" y="40" width="2" height="1" fill="#231f20"/>
    <rect x="136" y="40" width="1" height="1" fill="#231f20"/>
    <rect x="138" y="40" width="2" height="1" fill="#231f20"/>
    <rect x="172" y="40" width="1" height="1" fill="#231f20"/>
    <rect x="0" y="41" width="1" height="1" fill="#231f20"/>
    <rect x="172" y="41" width="1" height="1" fill="#231f20"/>
    <rect x="0" y="42" width="1" height="1" fill="#231f20"/>
    <rect x="172" y="42" width="1" height="1" fill="#231f20"/>
    <rect x="0" y="43" width="1" height="1" fill="#231f20"/>
    <rect x="172" y="43" width="1" height="1" fill="#231f20"/>
    <rect x="0" y="44" width="1" height="1" fill="#231f20"/>
    <rect x="172" y="44" width="1" height="1" fill="#231f20"/>
    <rect x="0" y="45" width="173" height="1" fill="#231f20"/>
    <rect x="0" y="46" width="1" height="1" fill="#231f20"/>
    <rect x="172" y="46" width="1" height="1" fill="#231f20"/>
    <rect x="0" y="47" width="1" height="1" fill="#231f20"/>
    <rect x="172" y="47" width="1" height="1" fill="#231f20"/>
    <rect x="0" y="48" width="1" height="1" fill="#231f20"/>
    <rect x="172" y="48" width="1" height="1" fill="#231f20"/>
    <rect x="0" y="49" width="1" height="1" fill="#231f20"/>
    <rect x="172" y="49" width="1" height="1" fill="#231f20"/>
    <rect x="0" y="50" width="1" height="1" fill="#231f20"/>
    <rect x="172" y="50" width="1" height="1" fill="#231f20"/>
    <rect x="0" y="51" width="1" height="1" fill="#231f20"/>
    <rect x="172" y="51" width="1" height="1" fill="#231f20"/>
    <rect x="0" y="52" width="1" height="1" fill="#231f20"/>
    <rect x="30" y="52" width="3" height="1" fill="#231f20"/>
    <rect x="34" y="52" width="3" height="1" fill="#231f20"/>
    <rect x="76" y="52" width="3" height="1" fill="#231f20"/>
    <rect x="80" y="52" width="3" height="1" fill="#231f20"/>
    <rect x="122" y="52" width="3" height="1" fill="#231f20"/>
    <rect x="126" y="52" width="3" height="1" fill="#231f20"/>
    <rect x="172" y="52" width="1" height="1" fill="#231f20"/>
    <rect x="0" y="53" width="1" height="1" fill="#231f20"/>
    <rect x="31" y="53" width="2" height="1" fill="#231f20"/>
    <rect x="34" y="53" width="2" height="1" fill="#231f20"/>
    <rect x="77" y="53" width="2" height="1" fill="#231f20"/>
    <rect x="80" y="53" width="2" height="1" fill="#231f20"/>
    <rect x="123" y="53" width="2" height="1" fill="#231f20"/>
    <rect x="126" y="53" width="2" height="1" fill="#231f20"/>
    <rect x="172" y="53" width="1" height="1" fill="#231f20"/>
    <rect x="0" y="54" width="1" height="1" fill="#231f20"/>
    <rect x="31" y="54" width="2" height="1" fill="#231f20"/>
    <rect x="34" y="54" width="2" height="1" fill="#231f20"/>
    <rect x="77" y="54" width="2" height="1" fill="#231f20"/>
    <rect x="80" y="54" width="2" height="1" fill="#231f20"/>
    <rect x="123" y="54" width="2" height="1" fill="#231f20"/>
    <rect x="126" y="54" width="2" height="1" fill="#231f20"/>
    <rect x="172" y="54" width="1" height="1" fill="#231f20"/>
    <rect x="0" y="55" width="1" height="1" fill="#231f20"/>
    <rect x="31" y="55" width="2" height="1" fill="#231f20"/>
    <rect x="34" y="55" width="2" height="1" fill="#231f20"/>
    <rect x="77" y="55" width="2" height="1" fill="#231f20"/>
    <rect x="80" y="55" width="2" height="1" fill="#231f20"/>
    <rect x="123" y="55" width="2" height="1" fill="#231f20"/>
    <rect x="126" y="55" width="2" height="1" fill="#231f20"/>
    <rect x="172" y="55" width="1" height="1" fill="#231f20"/>
    <rect x="0" y="56" width="1" height="1" fill="#231f20"/>
    <rect x="31" y="56" width="2" height="1" fill="#231f20"/>
    <rect x="34" y="56" width="2" height="1" fill="#231f20"/>
    <rect x="77" y="56" width="2" height="1" fill="#231f20"/>
    <rect x="80" y="56" width="2" height="1" fill="#231f20"/>
    <rect x="123" y="56" width="2" height="1" fill="#231f20"/>
    <rect x="126" y="56" width="2" height="1" fill="#231f20"/>
    <rect x="172" y="56" width="1" height="1" fill="#231f20"/>
    <rect x="0" y="57" width="1" height="1" fill="#231f20"/>
    <rect x="31" y="57" width="1" height="1" fill="#231f20"/>
    <rect x="33" y="57" width="1" height="1" fill="#231f20"/>
    <rect x="35" y="57" width="1" height="1" fill="#231f20"/>
    <rect x="77" y="57" width="1" height="1" fill="#231f20"/>
    <rect x="79" y="57" width="1" height="1" fill="#231f20"/>
    <rect x="81" y="57" width="1" height="1" fill="#231f20"/>
    <rect x="123" y="57" width="1" height="1" fill="#231f20"/>
    <rect x="125" y="57" width="1" height="1" fill="#231f20"/>
    <rect x="127" y="57" width="1" height="1" fill="#231f20"/>
    <rect x="172" y="57" width="1" height="1" fill="#231f20"/>
    <rect x="0" y="58" width="1" height="1" fill="#231f20"/>
    <rect x="31" y="58" width="1" height="1" fill="#231f20"/>
    <rect x="33" y="58" width="1" height="1" fill="#231f20"/>
    <rect x="35" y="58" width="1" height="1" fill="#231f20"/>
    <rect x="77" y="58" width="1" height="1" fill="#231f20"/>
    <rect x="79" y="58" width="1" height="1" fill="#231f20"/>
    <rect x="81" y="58" width="1" height="1" fill="#231f20"/>
    <rect x="123" y="58" width="1" height="1" fill="#231f20"/>
    <rect x="125" y="58" width="1" height="1" fill="#231f20"/>
    <rect x="127" y="58" width="1" height="1" fill="#231f20"/>
    <rect x="172" y="58" width="1" height="1" fill="#231f20"/>
    <rect x="0" y="59" width="1" height="1" fill="#231f20"/>
    <rect x="31" y="59" width="1" height="1" fill="#231f20"/>
    <rect x="33" y="59" width="1" height="1" fill="#231f20"/>
    <rect x="35" y="59" width="1" height="1" fill="#231f20"/>
    <rect x="77" y="59" width="1" height="1" fill="#231f20"/>
    <rect x="79" y="59" width="1" height="1" fill="#231f20"/>
    <rect x="81" y="59" width="1" height="1" fill="#231f20"/>
    <rect x="123" y="59" width="1" height="1" fill="#231f20"/>
    <rect x="125" y="59" width="1" height="1" fill="#231f20"/>
    <rect x="127" y="59" width="1" height="1" fill="#231f20"/>
    <rect x="172" y="59" width="1" height="1" fill="#231f20"/>
    <rect x="0" y="60" width="1" height="1" fill="#231f20"/>
    <rect x="31" y="60" width="1" height="1" fill="#231f20"/>
    <rect x="33" y="60" width="1" height="1" fill="#231f20"/>
    <rect x="35" y="60" width="1" height="1" fill="#231f20"/>
    <rect x="77" y="60" width="1" height="1" fill="#231f20"/>
    <rect x="79" y="60" width="1" height="1" fill="#231f20"/>
    <rect x="81" y="60" width="1" height="1" fill="#231f20"/>
    <rect x="123" y="60" width="1" height="1" fill="#231f20"/>
    <rect x="125" y="60" width="1" height="1" fill="#231f20"/>
    <rect x="127" y="60" width="1" height="1" fill="#231f20"/>
    <rect x="172" y="60" width="1" height="1" fill="#231f20"/>
    <rect x="0" y="61" width="1" height="1" fill="#231f20"/>
    <rect x="31" y="61" width="1" height="1" fill="#231f20"/>
    <rect x="33" y="61" width="1" height="1" fill="#231f20"/>
    <rect x="35" y="61" width="1" height="1" fill="#231f20"/>
    <rect x="77" y="61" width="1" height="1" fill="#231f20"/>
    <rect x="79" y="61" width="1" height="1" fill="#231f20"/>
    <rect x="81" y="61" width="1" height="1" fill="#231f20"/>
    <rect x="123" y="61" width="1" height="1" fill="#231f20"/>
    <rect x="125" y="61" width="1" height="1" fill="#231f20"/>
    <rect x="127" y="61" width="1" height="1" fill="#231f20"/>
    <rect x="172" y="61" width="1" height="1" fill="#231f20"/>
    <rect x="0" y="62" width="1" height="1" fill="#231f20"/>
    <rect x="30" y="62" width="2" height="1" fill="#231f20"/>
    <rect x="33" y="62" width="1" height="1" fill="#231f20"/>
    <rect x="35" y="62" width="2" height="1" fill="#231f20"/>
    <rect x="76" y="62" width="2" height="1" fill="#231f20"/>
    <rect x="79" y="62" width="1" height="1" fill="#231f20"/>
    <rect x="81" y="62" width="2" height="1" fill="#231f20"/>
    <rect x="122" y="62" width="2" height="1" fill="#231f20"/>
    <rect x="125" y="62" width="1" height="1" fill="#231f20"/>
    <rect x="127" y="62" width="2" height="1" fill="#231f20"/>
    <rect x="172" y="62" width="1" height="1" fill="#231f20"/>
    <rect x="0" y="63" width="1" height="1" fill="#231f20"/>
    <rect x="172" y="63" width="1" height="1" fill="#231f20"/>
    <rect x="0" y="64" width="1" height="1" fill="#231f20"/>
    <rect x="172" y="64" width="1" height="1" fill="#231f20"/>
    <rect x="0" y="65" width="1" height="1" fill="#231f20"/>
    <rect x="172" y="65" width="1" height="1" fill="#231f20"/>
    <rect x="0" y="66" width="1" height="1" fill="#231f20"/>
    <rect x="172" y="66" width="1" height="1" fill="#231f20"/>
    <rect x="0" y="67" width="1" height="1" fill="#231f20"/>
    <rect x="172" y="67" width="1" height="1" fill="#231f20"/>
    <rect x="0" y="68" width="173" height="1" fill="#231f20"/>
  </g>
</svg>