<?xml version="1.0" encoding="UTF-8"?>
<svg xmlns="http://www.w3.org/2000/svg" viewBox="0 0 163 66" width="163" height="66">
  <!-- Auto-converted from legend-1508.png -->
  <rect x="0" y="0" width="163" height="66" fill="none"/>
  <g fill="#231f20" stroke="none">
    <rect x="0" y="0" width="163" height="1" fill="#231f20"/>
    <rect x="0" y="1" width="1" height="1" fill="#231f20"/>
    <rect x="65" y="1" width="1" height="1" fill="#231f20"/>
    <rect x="129" y="1" width="1" height="1" fill="#231f20"/>
    <rect x="162" y="1" width="1" height="1" fill="#231f20"/>
    <rect x="0" y="2" width="1" height="1" fill="#231f20"/>
    <rect x="65" y="2" width="1" height="1" fill="#231f20"/>
    <rect x="129" y="2" width="1" height="1" fill="#231f20"/>
    <rect x="162" y="2" width="1" height="1" fill="#231f20"/>
    <rect x="0" y="3" width="1" height="1" fill="#231f20"/>
    <rect x="65" y="3" width="1" height="1" fill="#231f20"/>
    <rect x="129" y="3" width="1" height="1" fill="#231f20"/>
    <rect x="162" y="3" width="1" height="1" fill="#231f20"/>
    <rect x="0" y="4" width="1" height="1" fill="#231f20"/>
    <rect x="65" y="4" width="1" height="1" fill="#231f20"/>
    <rect x="129" y="4" width="1" height="1" fill="#231f20"/>
    <rect x="162" y="4" width="1" height="1" fill="#231f20"/>
    <rect x="0" y="5" width="1" height="1" fill="#231f20"/>
    <rect x="65" y="5" width="1" height="1" fill="#231f20"/>
    <rect x="129" y="5" width="1" height="1" fill="#231f20"/>
    <rect x="162" y="5" width="1" height="1" fill="#231f20"/>
    <rect x="0" y="6" width="1" height="1" fill="#231f20"/>
    <rect x="65" y="6" width="1" height="1" fill="#231f20"/>
    <rect x="129" y="6" width="1" height="1" fill="#231f20"/>
    <rect x="162" y="6" width="1" height="1" fill="#231f20"/>
    <rect x="0" y="7" width="1" height="1" fill="#231f20"/>
    <rect x="65" y="7" width="1" height="1" fill="#231f20"/>
    <rect x="129" y="7" width="1" height="1" fill="#231f20"/>
    <rect x="162" y="7" width="1" height="1" fill="#231f20"/>
    <rect x="0" y="8" width="1" height="1" fill="#231f20"/>
    <rect x="65" y="8" width="1" height="1" fill="#231f20"/>
    <rect x="129" y="8" width="1" height="1" fill="#231f20"/>
    <rect x="162" y="8" width="1" height="1" fill="#231f20"/>
    <rect x="0" y="9" width="1" height="1" fill="#231f20"/>
    <rect x="65" y="9" width="1" height="1" fill="#231f20"/>
    <rect x="129" y="9" width="1" height="1" fill="#231f20"/>
    <rect x="162" y="9" width="1" height="1" fill="#231f20"/>
    <rect x="0" y="10" width="1" height="1" fill="#231f20"/>
    <rect x="65" y="10" width="1" height="1" fill="#231f20"/>
    <rect x="129" y="10" width="1" height="1" fill="#231f20"/>
    <rect x="162" y="10" width="1" height="1" fill="#231f20"/>
    <rect x="0" y="11" width="1" height="1" fill="#231f20"/>
    <rect x="30" y="11" width="6" height="1" fill="#231f20"/>
    <rect x="65" y="11" width="1" height="1" fill="#231f20"/>
    <rect x="129" y="11" width="1" height="1" fill="#231f20"/>
    <rect x="162" y="11" width="1" height="1" fill="#231f20"/>
    <rect x="0" y="12" width="1" height="1" fill="#231f20"/>
    <rect x="65" y="12" width="1" height="1" fill="#231f20"/>
    <rect x="129" y="12" width="1" height="1" fill="#231f20"/>
    <rect x="162" y="12" width="1" height="1" fill="#231f20"/>
    <rect x="0" y="13" width="1" height="1" fill="#231f20"/>
    <rect x="65" y="13" width="1" height="1" fill="#231f20"/>
    <rect x="129" y="13" width="1" height="1" fill="#231f20"/>
    <rect x="162" y="13" width="1" height="1" fill="#231f20"/>
    <rect x="0" y="14" width="1" height="1" fill="#231f20"/>
    <rect x="65" y="14" width="1" height="1" fill="#231f20"/>
    <rect x="129" y="14" width="1" height="1" fill="#231f20"/>
    <rect x="162" y="14" width="1" height="1" fill="#231f20"/>
    <rect x="0" y="15" width="1" height="1" fill="#231f20"/>
    <rect x="65" y="15" width="1" height="1" fill="#231f20"/>
    <rect x="129" y="15" width="1" height="1" fill="#231f20"/>
    <rect x="162" y="15" width="1" height="1" fill="#231f20"/>
    <rect x="0" y="16" width="1" height="1" fill="#231f20"/>
    <rect x="65" y="16" width="1" height="1" fill="#231f20"/>
    <rect x="129" y="16" width="1" height="1" fill="#231f20"/>
    <rect x="162" y="16" width="1" height="1" fill="#231f20"/>
    <rect x="0" y="17" width="1" height="1" fill="#231f20"/>
    <rect x="65" y="17" width="1" height="1" fill="#231f20"/>
    <rect x="129" y="17" width="1" height="1" fill="#231f20"/>
    <rect x="162" y="17" width="1" height="1" fill="#231f20"/>
    <rect x="0" y="18" width="1" height="1" fill="#231f20"/>
    <rect x="65" y="18" width="1" height="1" fill="#231f20"/>
    <rect x="129" y="18" width="1" height="1" fill="#231f20"/>
    <rect x="162" y="18" width="1" height="1" fill="#231f20"/>
    <rect x="0" y="19" width="1" height="1" fill="#231f20"/>
    <rect x="65" y="19" width="1" height="1" fill="#231f20"/>
    <rect x="129" y="19" width="1" height="1" fill="#231f20"/>
    <rect x="162" y="19" width="1" height="1" fill="#231f20"/>
    <rect x="0" y="20" width="1" height="1" fill="#231f20"/>
    <rect x="65" y="20" width="1" height="1" fill="#231f20"/>
    <rect x="129" y="20" width="1" height="1" fill="#231f20"/>
    <rect x="162" y="20" width="1" height="1" fill="#231f20"/>
    <rect x="0" y="21" width="1" height="1" fill="#231f20"/>
    <rect x="65" y="21" width="1" height="1" fill="#231f20"/>
    <rect x="129" y="21" width="1" height="1" fill="#231f20"/>
    <rect x="162" y="21" width="1" height="1" fill="#231f20"/>
    <rect x="0" y="22" width="163" height="1" fill="#231f20"/>
    <rect x="0" y="23" width="1" height="1" fill="#231f20"/>
    <rect x="33" y="23" width="1" height="1" fill="#231f20"/>
    <rect x="97" y="23" width="1" height="1" fill="#231f20"/>
    <rect x="162" y="23" width="1" height="1" fill="#231f20"/>
    <rect x="0" y="24" width="1" height="1" fill="#231f20"/>
    <rect x="33" y="24" width="1" height="1" fill="#231f20"/>
    <rect x="97" y="24" width="1" height="1" fill="#231f20"/>
    <rect x="162" y="24" width="1" height="1" fill="#231f20"/>
    <rect x="0" y="25" width="1" height="1" fill="#231f20"/>
    <rect x="33" y="25" width="1" height="1" fill="#231f20"/>
    <rect x="97" y="25" width="1" height="1" fill="#231f20"/>
    <rect x="162" y="25" width="1" height="1" fill="#231f20"/>
    <rect x="0" y="26" width="1" height="1" fill="#231f20"/>
    <rect x="33" y="26" width="1" height="1" fill="#231f20"/>
    <rect x="97" y="26" width="1" height="1" fill="#231f20"/>
    <rect x="162" y="26" width="1" height="1" fill="#231f20"/>
    <rect x="0" y="27" width="1" height="1" fill="#231f20"/>
    <rect x="33" y="27" width="1" height="1" fill="#231f20"/>
    <rect x="97" y="27" width="1" height="1" fill="#231f20"/>
    <rect x="162" y="27" width="1" height="1" fill="#231f20"/>
    <rect x="0" y="28" width="1" height="1" fill="#231f20"/>
    <rect x="33" y="28" width="1" height="1" fill="#231f20"/>
    <rect x="97" y="28" width="1" height="1" fill="#231f20"/>
    <rect x="162" y="28" width="1" height="1" fill="#231f20"/>
    <rect x="0" y="29" width="1" height="1" fill="#231f20"/>
    <rect x="33" y="29" width="1" height="1" fill="#231f20"/>
    <rect x="97" y="29" width="1" height="1" fill="#231f20"/>
    <rect x="162" y="29" width="1" height="1" fill="#231f20"/>
    <rect x="0" y="30" width="1" height="1" fill="#231f20"/>
    <rect x="33" y="30" width="1" height="1" fill="#231f20"/>
    <rect x="97" y="30" width="1" height="1" fill="#231f20"/>
    <rect x="162" y="30" width="1" height="1" fill="#231f20"/>
    <rect x="0" y="31" width="1" height="1" fill="#231f20"/>
    <rect x="33" y="31" width="1" height="1" fill="#231f20"/>
    <rect x="97" y="31" width="1" height="1" fill="#231f20"/>
    <rect x="162" y="31" width="1" height="1" fill="#231f20"/>
    <rect x="0" y="32" width="1" height="1" fill="#231f20"/>
    <rect x="33" y="32" width="1" height="1" fill="#231f20"/>
    <rect x="97" y="32" width="1" height="1" fill="#231f20"/>
    <rect x="162" y="32" width="1" height="1" fill="#231f20"/>
    <rect x="0" y="33" width="1" height="1" fill="#231f20"/>
    <rect x="33" y="33" width="1" height="1" fill="#231f20"/>
    <rect x="97" y="33" width="1" height="1" fill="#231f20"/>
    <rect x="127" y="33" width="5" height="1" fill="#231f20"/>
    <rect x="162" y="33" width="1" height="1" fill="#231f20"/>
    <rect x="0" y="34" width="1" height="1" fill="#231f20"/>
    <rect x="33" y="34" width="1" height="1" fill="#231f20"/>
    <rect x="97" y="34" width="1" height="1" fill="#231f20"/>
    <rect x="162" y="34" width="1" height="1" fill="#231f20"/>
    <rect x="0" y="35" width="1" height="1" fill="#231f20"/>
    <rect x="33" y="35" width="1" height="1" fill="#231f20"/>
    <rect x="97" y="35" width="1" height="1" fill="#231f20"/>
    <rect x="162" y="35" width="1" height="1" fill="#231f20"/>
    <rect x="0" y="36" width="1" height="1" fill="#231f20"/>
    <rect x="33" y="36" width="1" height="1" fill="#231f20"/>
    <rect x="97" y="36" width="1" height="1" fill="#231f20"/>
    <rect x="162" y="36" width="1" height="1" fill="#231f20"/>
    <rect x="0" y="37" width="1" height="1" fill="#231f20"/>
    <rect x="33" y="37" width="1" height="1" fill="#231f20"/>
    <rect x="97" y="37" width="1" height="1" fill="#231f20"/>
    <rect x="162" y="37" width="1" height="1" fill="#231f20"/>
    <rect x="0" y="38" width="1" height="1" fill="#231f20"/>
    <rect x="33" y="38" width="1" height="1" fill="#231f20"/>
    <rect x="97" y="38" width="1" height="1" fill="#231f20"/>
    <rect x="162" y="38" width="1" height="1" fill="#231f20"/>
    <rect x="0" y="39" width="1" height="1" fill="#231f20"/>
    <rect x="33" y="39" width="1" height="1" fill="#231f20"/>
    <rect x="97" y="39" width="1" height="1" fill="#231f20"/>
    <rect x="162" y="39" width="1" height="1" fill="#231f20"/>
    <rect x="0" y="40" width="1" height="1" fill="#231f20"/>
    <rect x="33" y="40" width="1" height="1" fill="#231f20"/>
    <rect x="97" y="40" width="1" height="1" fill="#231f20"/>
    <rect x="162" y="40" width="1" height="1" fill="#231f20"/>
    <rect x="0" y="41" width="1" height="1" fill="#231f20"/>
    <rect x="33" y="41" width="1" height="1" fill="#231f20"/>
    <rect x="97" y="41" width="1" height="1" fill="#231f20"/>
    <rect x="162" y="41" width="1" height="1" fill="#231f20"/>
    <rect x="0" y="42" width="1" height="1" fill="#231f20"/>
    <rect x="33" y="42" width="1" height="1" fill="#231f20"/>
    <rect x="97" y="42" width="1" height="1" fill="#231f20"/>
    <rect x="162" y="42" width="1" height="1" fill="#231f20"/>
    <rect x="0" y="43" width="163" height="1" fill="#231f20"/>
    <rect x="0" y="44" width="1" height="1" fill="#231f20"/>
    <rect x="65" y="44" width="1" height="1" fill="#231f20"/>
    <rect x="129" y="44" width="1" height="1" fill="#231f20"/>
    <rect x="162" y="44" width="1" height="1" fill="#231f20"/>
    <rect x="0" y="45" width="1" height="1" fill="#231f20"/>
    <rect x="65" y="45" width="1" height="1" fill="#231f20"/>
    <rect x="129" y="45" width="1" height="1" fill="#231f20"/>
    <rect x="162" y="45" width="1" height="1" fill="#231f20"/>
    <rect x="0" y="46" width="1" height="1" fill="#231f20"/>
    <rect x="65" y="46" width="1" height="1" fill="#231f20"/>
    <rect x="129" y="46" width="1" height="1" fill="#231f20"/>
    <rect x="162" y="46" width="1" height="1" fill="#231f20"/>
    <rect x="0" y="47" width="1" height="1" fill="#231f20"/>
    <rect x="65" y="47" width="1" height="1" fill="#231f20"/>
    <rect x="129" y="47" width="1" height="1" fill="#231f20"/>
    <rect x="162" y="47" width="1" height="1" fill="#231f20"/>
    <rect x="0" y="48" width="1" height="1" fill="#231f20"/>
    <rect x="65" y="48" width="1" height="1" fill="#231f20"/>
    <rect x="129" y="48" width="1" height="1" fill="#231f20"/>
    <rect x="162" y="48" width="1" height="1" fill="#231f20"/>
    <rect x="0" y="49" width="1" height="1" fill="#231f20"/>
    <rect x="65" y="49" width="1" height="1" fill="#231f20"/>
    <rect x="129" y="49" width="1" height="1" fill="#231f20"/>
    <rect x="162" y="49" width="1" height="1" fill="#231f20"/>
    <rect x="0" y="50" width="1" height="1" fill="#231f20"/>
    <rect x="65" y="50" width="1" height="1" fill="#231f20"/>
    <rect x="129" y="50" width="1" height="1" fill="#231f20"/>
    <rect x="162" y="50" width="1" height="1" fill="#231f20"/>
    <rect x="0" y="51" width="1" height="1" fill="#231f20"/>
    <rect x="65" y="51" width="1" height="1" fill="#231f20"/>
    <rect x="129" y="51" width="1" height="1" fill="#231f20"/>
    <rect x="162" y="51" width="1" height="1" fill="#231f20"/>
    <rect x="0" y="52" width="1" height="1" fill="#231f20"/>
    <rect x="65" y="52" width="1" height="1" fill="#231f20"/>
    <rect x="129" y="52" width="1" height="1" fill="#231f20"/>
    <rect x="162" y="52" width="1" height="1" fill="#231f20"/>
    <rect x="0" y="53" width="1" height="1" fill="#231f20"/>
    <rect x="65" y="53" width="1" height="1" fill="#231f20"/>
    <rect x="129" y="53" width="1" height="1" fill="#231f20"/>
    <rect x="162" y="53" width="1" height="1" fill="#231f20"/>
    <rect x="0" y="54" width="1" height="1" fill="#231f20"/>
    <rect x="30" y="54" width="6" height="1" fill="#231f20"/>
    <rect x="65" y="54" width="1" height="1" fill="#231f20"/>
    <rect x="129" y="54" width="1" height="1" fill="#231f20"/>
    <rect x="162" y="54" width="1" height="1" fill="#231f20"/>
    <rect x="0" y="55" width="1" height="1" fill="#231f20"/>
    <rect x="65" y="55" width="1" height="1" fill="#231f20"/>
    <rect x="129" y="55" width="1" height="1" fill="#231f20"/>
    <rect x="162" y="55" width="1" height="1" fill="#231f20"/>
    <rect x="0" y="56" width="1" height="1" fill="#231f20"/>
    <rect x="65" y="56" width="1" height="1" fill="#231f20"/>
    <rect x="129" y="56" width="1" height="1" fill="#231f20"/>
    <rect x="162" y="56" width="1" height="1" fill="#231f20"/>
    <rect x="0" y="57" width="1" height="1" fill="#231f20"/>
    <rect x="65" y="57" width="1" height="1" fill="#231f20"/>
    <rect x="129" y="57" width="1" height="1" fill="#231f20"/>
    <rect x="162" y="57" width="1" height="1" fill="#231f20"/>
    <rect x="0" y="58" width="1" height="1" fill="#231f20"/>
    <rect x="65" y="58" width="1" height="1" fill="#231f20"/>
    <rect x="129" y="58" width="1" height="1" fill="#231f20"/>
    <rect x="162" y="58" width="1" height="1" fill="#231f20"/>
    <rect x="0" y="59" width="1" height="1" fill="#231f20"/>
    <rect x="65" y="59" width="1" height="1" fill="#231f20"/>
    <rect x="129" y="59" width="1" height="1" fill="#231f20"/>
    <rect x="162" y="59" width="1" height="1" fill="#231f20"/>
    <rect x="0" y="60" width="1" height="1" fill="#231f20"/>
    <rect x="65" y="60" width="1" height="1" fill="#231f20"/>
    <rect x="129" y="60" width="1" height="1" fill="#231f20"/>
    <rect x="162" y="60" width="1" height="1" fill="#231f20"/>
    <rect x="0" y="61" width="1" height="1" fill="#231f20"/>
    <rect x="65" y="61" width="1" height="1" fill="#231f20"/>
    <rect x="129" y="61" width="1" height="1" fill="#231f20"/>
    <rect x="162" y="61" width="1" height="1" fill="#231f20"/>
    <rect x="0" y="62" width="1" height="1" fill="#231f20"/>
    <rect x="65" y="62" width="1" height="1" fill="#231f20"/>
    <rect x="129" y="62" width="1" height="1" fill="#231f20"/>
    <rect x="162" y="62" width="1" height="1" fill="#231f20"/>
    <rect x="0" y="63" width="1" height="1" fill="#231f20"/>
    <rect x="65" y="63" width="1" height="1" fill="#231f20"/>
    <rect x="129" y="63" width="1" height="1" fill="#231f20"/>
    <rect x="162" y="63" width="1" height="1" fill="#231f20"/>
    <rect x="0" y="64" width="1" height="1" fill="#231f20"/>
    <rect x="65" y="64" width="1" height="1" fill="#231f20"/>
    <rect x="129" y="64" width="1" height="1" fill="#231f20"/>
    <rect x="162" y="64" width="1" height="1" fill="#231f20"/>
    <rect x="0" y="65" width="163" height="1" fill="#231f20"/>
  </g>
</svg>