<?xml version="1.0" encoding="UTF-8"?>
<svg xmlns="http://www.w3.org/2000/svg" viewBox="0 0 173 55" width="173" height="55">
  <!-- Auto-converted from legend-2759.png -->
  <rect x="0" y="0" width="173" height="55" fill="none"/>
  <g fill="#222d44" stroke="none">
    <rect x="0" y="0" width="173" height="1" fill="#222d44"/>
    <rect x="0" y="1" width="1" height="1" fill="#222d44"/>
    <rect x="172" y="1" width="1" height="1" fill="#222d44"/>
    <rect x="0" y="2" width="1" height="1" fill="#222d44"/>
    <rect x="172" y="2" width="1" height="1" fill="#222d44"/>
    <rect x="0" y="3" width="1" height="1" fill="#222d44"/>
    <rect x="172" y="3" width="1" height="1" fill="#222d44"/>
    <rect x="0" y="4" width="1" height="1" fill="#222d44"/>
    <rect x="172" y="4" width="1" height="1" fill="#222d44"/>
    <rect x="0" y="5" width="1" height="1" fill="#222d44"/>
    <rect x="172" y="5" width="1" height="1" fill="#222d44"/>
    <rect x="0" y="6" width="1" height="1" fill="#222d44"/>
    <rect x="172" y="6" width="1" height="1" fill="#222d44"/>
    <rect x="0" y="7" width="1" height="1" fill="#222d44"/>
    <rect x="172" y="7" width="1" height="1" fill="#222d44"/>
    <rect x="0" y="8" width="1" height="1" fill="#222d44"/>
    <rect x="172" y="8" width="1" height="1" fill="#222d44"/>
    <rect x="0" y="9" width="1" height="1" fill="#222d44"/>
    <rect x="172" y="9" width="1" height="1" fill="#222d44"/>
    <rect x="0" y="10" width="1" height="1" fill="#222d44"/>
    <rect x="172" y="10" width="1" height="1" fill="#222d44"/>
    <rect x="0" y="11" width="1" height="1" fill="#222d44"/>
    <rect x="172" y="11" width="1" height="1" fill="#222d44"/>
    <rect x="0" y="12" width="1" height="1" fill="#222d44"/>
    <rect x="172" y="12" width="1" height="1" fill="#222d44"/>
    <rect x="0" y="13" width="1" height="1" fill="#222d44"/>
    <rect x="172" y="13" width="1" height="1" fill="#222d44"/>
    <rect x="0" y="14" width="1" height="1" fill="#222d44"/>
    <rect x="172" y="14" width="1" height="1" fill="#222d44"/>
    <rect x="0" y="15" width="1" height="1" fill="#222d44"/>
    <rect x="172" y="15" width="1" height="1" fill="#222d44"/>
    <rect x="0" y="16" width="1" height="1" fill="#222d44"/>
    <rect x="172" y="16" width="1" height="1" fill="#222d44"/>
    <rect x="0" y="17" width="1" height="1" fill="#222d44"/>
    <rect x="172" y="17" width="1" height="1" fill="#222d44"/>
    <rect x="0" y="18" width="1" height="1" fill="#222d44"/>
    <rect x="172" y="18" width="1" height="1" fill="#222d44"/>
    <rect x="0" y="19" width="1" height="1" fill="#222d44"/>
    <rect x="172" y="19" width="1" height="1" fill="#222d44"/>
    <rect x="0" y="20" width="1" height="1" fill="#222d44"/>
    <rect x="172" y="20" width="1" height="1" fill="#222d44"/>
    <rect x="0" y="21" width="1" height="1" fill="#222d44"/>
    <rect x="92" y="21" width="1" height="1" fill="#222d44"/>
    <rect x="94" y="21" width="1" height="1" fill="#222d44"/>
    <rect x="105" y="21" width="1" height="1" fill="#222d44"/>
    <rect x="121" y="21" width="1" height="1" fill="#222d44"/>
    <rect x="124" y="21" width="1" height="1" fill="#222d44"/>
    <rect x="138" y="21" width="1" height="1" fill="#222d44"/>
    <rect x="172" y="21" width="1" height="1" fill="#222d44"/>
    <rect x="0" y="22" width="1" height="1" fill="#222d44"/>
    <rect x="90" y="22" width="1" height="1" fill="#222d44"/>
    <rect x="92" y="22" width="4" height="1" fill="#222d44"/>
    <rect x="104" y="22" width="3" height="1" fill="#222d44"/>
    <rect x="109" y="22" width="2" height="1" fill="#222d44"/>
    <rect x="121" y="22" width="2" height="1" fill="#222d44"/>
    <rect x="124" y="22" width="2" height="1" fill="#222d44"/>
    <rect x="129" y="22" width="1" height="1" fill="#222d44"/>
    <rect x="138" y="22" width="2" height="1" fill="#222d44"/>
    <rect x="148" y="22" width="2" height="1" fill="#222d44"/>
    <rect x="172" y="22" width="1" height="1" fill="#222d44"/>
    <rect x="0" y="23" width="1" height="1" fill="#222d44"/>
    <rect x="85" y="23" width="9" height="1" fill="#222d44"/>
    <rect x="95" y="23" width="2" height="1" fill="#222d44"/>
    <rect x="98" y="23" width="2" height="1" fill="#222d44"/>
    <rect x="104" y="23" width="8" height="1" fill="#222d44"/>
    <rect x="116" y="23" width="15" height="1" fill="#222d44"/>
    <rect x="138" y="23" width="2" height="1" fill="#222d44"/>
    <rect x="145" y="23" width="1" height="1" fill="#222d44"/>
    <rect x="149" y="23" width="2" height="1" fill="#222d44"/>
    <rect x="160" y="23" width="2" height="1" fill="#222d44"/>
    <rect x="172" y="23" width="1" height="1" fill="#222d44"/>
    <rect x="0" y="24" width="1" height="1" fill="#222d44"/>
    <rect x="11" y="24" width="4" height="1" fill="#222d44"/>
    <rect x="25" y="24" width="3" height="1" fill="#222d44"/>
    <rect x="39" y="24" width="4" height="1" fill="#222d44"/>
    <rect x="44" y="24" width="1" height="1" fill="#222d44"/>
    <rect x="54" y="24" width="2" height="1" fill="#222d44"/>
    <rect x="66" y="24" width="1" height="1" fill="#222d44"/>
    <rect x="86" y="24" width="4" height="1" fill="#222d44"/>
    <rect x="92" y="24" width="9" height="1" fill="#222d44"/>
    <rect x="104" y="24" width="9" height="1" fill="#222d44"/>
    <rect x="121" y="24" width="2" height="1" fill="#222d44"/>
    <rect x="125" y="24" width="4" height="1" fill="#222d44"/>
    <rect x="132" y="24" width="15" height="1" fill="#222d44"/>
    <rect x="150" y="24" width="13" height="1" fill="#222d44"/>
    <rect x="172" y="24" width="1" height="1" fill="#222d44"/>
    <rect x="0" y="25" width="1" height="1" fill="#222d44"/>
    <rect x="8" y="25" width="7" height="1" fill="#222d44"/>
    <rect x="16" y="25" width="1" height="1" fill="#222d44"/>
    <rect x="24" y="25" width="5" height="1" fill="#222d44"/>
    <rect x="37" y="25" width="9" height="1" fill="#222d44"/>
    <rect x="55" y="25" width="2" height="1" fill="#222d44"/>
    <rect x="66" y="25" width="2" height="1" fill="#222d44"/>
    <rect x="73" y="25" width="1" height="1" fill="#222d44"/>
    <rect x="86" y="25" width="4" height="1" fill="#222d44"/>
    <rect x="92" y="25" width="2" height="1" fill="#222d44"/>
    <rect x="95" y="25" width="2" height="1" fill="#222d44"/>
    <rect x="102" y="25" width="12" height="1" fill="#222d44"/>
    <rect x="117" y="25" width="4" height="1" fill="#222d44"/>
    <rect x="122" y="25" width="1" height="1" fill="#222d44"/>
    <rect x="125" y="25" width="6" height="1" fill="#222d44"/>
    <rect x="133" y="25" width="17" height="1" fill="#222d44"/>
    <rect x="151" y="25" width="2" height="1" fill="#222d44"/>
    <rect x="156" y="25" width="2" height="1" fill="#222d44"/>
    <rect x="172" y="25" width="1" height="1" fill="#222d44"/>
    <rect x="0" y="26" width="1" height="1" fill="#222d44"/>
    <rect x="9" y="26" width="2" height="1" fill="#222d44"/>
    <rect x="12" y="26" width="6" height="1" fill="#222d44"/>
    <rect x="24" y="26" width="6" height="1" fill="#222d44"/>
    <rect x="37" y="26" width="1" height="1" fill="#222d44"/>
    <rect x="40" y="26" width="1" height="1" fill="#222d44"/>
    <rect x="42" y="26" width="3" height="1" fill="#222d44"/>
    <rect x="51" y="26" width="9" height="1" fill="#222d44"/>
    <rect x="67" y="26" width="8" height="1" fill="#222d44"/>
    <rect x="86" y="26" width="2" height="1" fill="#222d44"/>
    <rect x="89" y="26" width="6" height="1" fill="#222d44"/>
    <rect x="96" y="26" width="3" height="1" fill="#222d44"/>
    <rect x="101" y="26" width="13" height="1" fill="#222d44"/>
    <rect x="118" y="26" width="1" height="1" fill="#222d44"/>
    <rect x="120" y="26" width="12" height="1" fill="#222d44"/>
    <rect x="137" y="26" width="2" height="1" fill="#222d44"/>
    <rect x="140" y="26" width="3" height="1" fill="#222d44"/>
    <rect x="148" y="26" width="3" height="1" fill="#222d44"/>
    <rect x="152" y="26" width="1" height="1" fill="#222d44"/>
    <rect x="157" y="26" width="2" height="1" fill="#222d44"/>
    <rect x="172" y="26" width="1" height="1" fill="#222d44"/>
    <rect x="0" y="27" width="1" height="1" fill="#222d44"/>
    <rect x="9" y="27" width="1" height="1" fill="#222d44"/>
    <rect x="11" y="27" width="5" height="1" fill="#222d44"/>
    <rect x="23" y="27" width="8" height="1" fill="#222d44"/>
    <rect x="37" y="27" width="9" height="1" fill="#222d44"/>
    <rect x="52" y="27" width="9" height="1" fill="#222d44"/>
    <rect x="66" y="27" width="1" height="1" fill="#222d44"/>
    <rect x="68" y="27" width="2" height="1" fill="#222d44"/>
    <rect x="71" y="27" width="1" height="1" fill="#222d44"/>
    <rect x="86" y="27" width="14" height="1" fill="#222d44"/>
    <rect x="104" y="27" width="2" height="1" fill="#222d44"/>
    <rect x="108" y="27" width="2" height="1" fill="#222d44"/>
    <rect x="112" y="27" width="2" height="1" fill="#222d44"/>
    <rect x="118" y="27" width="13" height="1" fill="#222d44"/>
    <rect x="137" y="27" width="2" height="1" fill="#222d44"/>
    <rect x="141" y="27" width="1" height="1" fill="#222d44"/>
    <rect x="145" y="27" width="1" height="1" fill="#222d44"/>
    <rect x="149" y="27" width="4" height="1" fill="#222d44"/>
    <rect x="157" y="27" width="2" height="1" fill="#222d44"/>
    <rect x="172" y="27" width="1" height="1" fill="#222d44"/>
    <rect x="0" y="28" width="1" height="1" fill="#222d44"/>
    <rect x="9" y="28" width="5" height="1" fill="#222d44"/>
    <rect x="15" y="28" width="2" height="1" fill="#222d44"/>
    <rect x="23" y="28" width="8" height="1" fill="#222d44"/>
    <rect x="38" y="28" width="9" height="1" fill="#222d44"/>
    <rect x="54" y="28" width="2" height="1" fill="#222d44"/>
    <rect x="57" y="28" width="1" height="1" fill="#222d44"/>
    <rect x="67" y="28" width="3" height="1" fill="#222d44"/>
    <rect x="71" y="28" width="2" height="1" fill="#222d44"/>
    <rect x="87" y="28" width="1" height="1" fill="#222d44"/>
    <rect x="89" y="28" width="2" height="1" fill="#222d44"/>
    <rect x="92" y="28" width="9" height="1" fill="#222d44"/>
    <rect x="104" y="28" width="12" height="1" fill="#222d44"/>
    <rect x="118" y="28" width="14" height="1" fill="#222d44"/>
    <rect x="136" y="28" width="11" height="1" fill="#222d44"/>
    <rect x="150" y="28" width="3" height="1" fill="#222d44"/>
    <rect x="157" y="28" width="2" height="1" fill="#222d44"/>
    <rect x="172" y="28" width="1" height="1" fill="#222d44"/>
    <rect x="0" y="29" width="1" height="1" fill="#222d44"/>
    <rect x="9" y="29" width="9" height="1" fill="#222d44"/>
    <rect x="25" y="29" width="6" height="1" fill="#222d44"/>
    <rect x="38" y="29" width="9" height="1" fill="#222d44"/>
    <rect x="54" y="29" width="7" height="1" fill="#222d44"/>
    <rect x="67" y="29" width="3" height="1" fill="#222d44"/>
    <rect x="72" y="29" width="1" height="1" fill="#222d44"/>
    <rect x="89" y="29" width="6" height="1" fill="#222d44"/>
    <rect x="96" y="29" width="2" height="1" fill="#222d44"/>
    <rect x="99" y="29" width="1" height="1" fill="#222d44"/>
    <rect x="102" y="29" width="15" height="1" fill="#222d44"/>
    <rect x="121" y="29" width="10" height="1" fill="#222d44"/>
    <rect x="136" y="29" width="3" height="1" fill="#222d44"/>
    <rect x="141" y="29" width="2" height="1" fill="#222d44"/>
    <rect x="145" y="29" width="2" height="1" fill="#222d44"/>
    <rect x="152" y="29" width="1" height="1" fill="#222d44"/>
    <rect x="157" y="29" width="2" height="1" fill="#222d44"/>
    <rect x="172" y="29" width="1" height="1" fill="#222d44"/>
    <rect x="0" y="30" width="1" height="1" fill="#222d44"/>
    <rect x="11" y="30" width="3" height="1" fill="#222d44"/>
    <rect x="15" y="30" width="1" height="1" fill="#222d44"/>
    <rect x="25" y="30" width="1" height="1" fill="#222d44"/>
    <rect x="30" y="30" width="2" height="1" fill="#222d44"/>
    <rect x="39" y="30" width="7" height="1" fill="#222d44"/>
    <rect x="54" y="30" width="2" height="1" fill="#222d44"/>
    <rect x="57" y="30" width="1" height="1" fill="#222d44"/>
    <rect x="59" y="30" width="2" height="1" fill="#222d44"/>
    <rect x="68" y="30" width="2" height="1" fill="#222d44"/>
    <rect x="72" y="30" width="1" height="1" fill="#222d44"/>
    <rect x="89" y="30" width="3" height="1" fill="#222d44"/>
    <rect x="94" y="30" width="7" height="1" fill="#222d44"/>
    <rect x="103" y="30" width="28" height="1" fill="#222d44"/>
    <rect x="136" y="30" width="1" height="1" fill="#222d44"/>
    <rect x="138" y="30" width="2" height="1" fill="#222d44"/>
    <rect x="141" y="30" width="2" height="1" fill="#222d44"/>
    <rect x="145" y="30" width="2" height="1" fill="#222d44"/>
    <rect x="152" y="30" width="1" height="1" fill="#222d44"/>
    <rect x="158" y="30" width="2" height="1" fill="#222d44"/>
    <rect x="172" y="30" width="1" height="1" fill="#222d44"/>
    <rect x="0" y="31" width="1" height="1" fill="#222d44"/>
    <rect x="10" y="31" width="3" height="1" fill="#222d44"/>
    <rect x="14" y="31" width="4" height="1" fill="#222d44"/>
    <rect x="23" y="31" width="10" height="1" fill="#222d44"/>
    <rect x="38" y="31" width="8" height="1" fill="#222d44"/>
    <rect x="54" y="31" width="7" height="1" fill="#222d44"/>
    <rect x="68" y="31" width="2" height="1" fill="#222d44"/>
    <rect x="72" y="31" width="2" height="1" fill="#222d44"/>
    <rect x="88" y="31" width="4" height="1" fill="#222d44"/>
    <rect x="94" y="31" width="8" height="1" fill="#222d44"/>
    <rect x="106" y="31" width="9" height="1" fill="#222d44"/>
    <rect x="119" y="31" width="9" height="1" fill="#222d44"/>
    <rect x="129" y="31" width="2" height="1" fill="#222d44"/>
    <rect x="135" y="31" width="1" height="1" fill="#222d44"/>
    <rect x="138" y="31" width="2" height="1" fill="#222d44"/>
    <rect x="142" y="31" width="2" height="1" fill="#222d44"/>
    <rect x="146" y="31" width="2" height="1" fill="#222d44"/>
    <rect x="150" y="31" width="3" height="1" fill="#222d44"/>
    <rect x="158" y="31" width="2" height="1" fill="#222d44"/>
    <rect x="172" y="31" width="1" height="1" fill="#222d44"/>
    <rect x="0" y="32" width="1" height="1" fill="#222d44"/>
    <rect x="10" y="32" width="3" height="1" fill="#222d44"/>
    <rect x="14" y="32" width="5" height="1" fill="#222d44"/>
    <rect x="26" y="32" width="6" height="1" fill="#222d44"/>
    <rect x="39" y="32" width="7" height="1" fill="#222d44"/>
    <rect x="53" y="32" width="4" height="1" fill="#222d44"/>
    <rect x="58" y="32" width="1" height="1" fill="#222d44"/>
    <rect x="60" y="32" width="1" height="1" fill="#222d44"/>
    <rect x="67" y="32" width="3" height="1" fill="#222d44"/>
    <rect x="72" y="32" width="2" height="1" fill="#222d44"/>
    <rect x="88" y="32" width="1" height="1" fill="#222d44"/>
    <rect x="91" y="32" width="1" height="1" fill="#222d44"/>
    <rect x="94" y="32" width="2" height="1" fill="#222d44"/>
    <rect x="97" y="32" width="2" height="1" fill="#222d44"/>
    <rect x="106" y="32" width="1" height="1" fill="#222d44"/>
    <rect x="113" y="32" width="2" height="1" fill="#222d44"/>
    <rect x="120" y="32" width="8" height="1" fill="#222d44"/>
    <rect x="129" y="32" width="2" height="1" fill="#222d44"/>
    <rect x="133" y="32" width="2" height="1" fill="#222d44"/>
    <rect x="138" y="32" width="2" height="1" fill="#222d44"/>
    <rect x="142" y="32" width="2" height="1" fill="#222d44"/>
    <rect x="146" y="32" width="2" height="1" fill="#222d44"/>
    <rect x="151" y="32" width="2" height="1" fill="#222d44"/>
    <rect x="158" y="32" width="2" height="1" fill="#222d44"/>
    <rect x="172" y="32" width="1" height="1" fill="#222d44"/>
    <rect x="0" y="33" width="1" height="1" fill="#222d44"/>
    <rect x="10" y="33" width="1" height="1" fill="#222d44"/>
    <rect x="12" y="33" width="1" height="1" fill="#222d44"/>
    <rect x="14" y="33" width="3" height="1" fill="#222d44"/>
    <rect x="26" y="33" width="6" height="1" fill="#222d44"/>
    <rect x="39" y="33" width="9" height="1" fill="#222d44"/>
    <rect x="53" y="33" width="1" height="1" fill="#222d44"/>
    <rect x="55" y="33" width="2" height="1" fill="#222d44"/>
    <rect x="58" y="33" width="4" height="1" fill="#222d44"/>
    <rect x="68" y="33" width="2" height="1" fill="#222d44"/>
    <rect x="73" y="33" width="1" height="1" fill="#222d44"/>
    <rect x="87" y="33" width="2" height="1" fill="#222d44"/>
    <rect x="91" y="33" width="2" height="1" fill="#222d44"/>
    <rect x="95" y="33" width="2" height="1" fill="#222d44"/>
    <rect x="98" y="33" width="2" height="1" fill="#222d44"/>
    <rect x="101" y="33" width="1" height="1" fill="#222d44"/>
    <rect x="106" y="33" width="9" height="1" fill="#222d44"/>
    <rect x="119" y="33" width="15" height="1" fill="#222d44"/>
    <rect x="139" y="33" width="2" height="1" fill="#222d44"/>
    <rect x="142" y="33" width="6" height="1" fill="#222d44"/>
    <rect x="152" y="33" width="2" height="1" fill="#222d44"/>
    <rect x="159" y="33" width="2" height="1" fill="#222d44"/>
    <rect x="164" y="33" width="1" height="1" fill="#222d44"/>
    <rect x="172" y="33" width="1" height="1" fill="#222d44"/>
    <rect x="0" y="34" width="1" height="1" fill="#222d44"/>
    <rect x="10" y="34" width="1" height="1" fill="#222d44"/>
    <rect x="12" y="34" width="7" height="1" fill="#222d44"/>
    <rect x="26" y="34" width="6" height="1" fill="#222d44"/>
    <rect x="39" y="34" width="9" height="1" fill="#222d44"/>
    <rect x="56" y="34" width="6" height="1" fill="#222d44"/>
    <rect x="69" y="34" width="1" height="1" fill="#222d44"/>
    <rect x="73" y="34" width="2" height="1" fill="#222d44"/>
    <rect x="76" y="34" width="1" height="1" fill="#222d44"/>
    <rect x="90" y="34" width="3" height="1" fill="#222d44"/>
    <rect x="95" y="34" width="8" height="1" fill="#222d44"/>
    <rect x="106" y="34" width="2" height="1" fill="#222d44"/>
    <rect x="114" y="34" width="2" height="1" fill="#222d44"/>
    <rect x="119" y="34" width="4" height="1" fill="#222d44"/>
    <rect x="124" y="34" width="5" height="1" fill="#222d44"/>
    <rect x="131" y="34" width="3" height="1" fill="#222d44"/>
    <rect x="139" y="34" width="2" height="1" fill="#222d44"/>
    <rect x="142" y="34" width="3" height="1" fill="#222d44"/>
    <rect x="146" y="34" width="2" height="1" fill="#222d44"/>
    <rect x="152" y="34" width="14" height="1" fill="#222d44"/>
    <rect x="172" y="34" width="1" height="1" fill="#222d44"/>
    <rect x="0" y="35" width="1" height="1" fill="#222d44"/>
    <rect x="11" y="35" width="3" height="1" fill="#222d44"/>
    <rect x="15" y="35" width="5" height="1" fill="#222d44"/>
    <rect x="26" y="35" width="6" height="1" fill="#222d44"/>
    <rect x="39" y="35" width="4" height="1" fill="#222d44"/>
    <rect x="44" y="35" width="5" height="1" fill="#222d44"/>
    <rect x="56" y="35" width="6" height="1" fill="#222d44"/>
    <rect x="69" y="35" width="9" height="1" fill="#222d44"/>
    <rect x="90" y="35" width="3" height="1" fill="#222d44"/>
    <rect x="95" y="35" width="2" height="1" fill="#222d44"/>
    <rect x="106" y="35" width="10" height="1" fill="#222d44"/>
    <rect x="119" y="35" width="1" height="1" fill="#222d44"/>
    <rect x="121" y="35" width="2" height="1" fill="#222d44"/>
    <rect x="126" y="35" width="2" height="1" fill="#222d44"/>
    <rect x="132" y="35" width="2" height="1" fill="#222d44"/>
    <rect x="143" y="35" width="2" height="1" fill="#222d44"/>
    <rect x="146" y="35" width="1" height="1" fill="#222d44"/>
    <rect x="152" y="35" width="2" height="1" fill="#222d44"/>
    <rect x="172" y="35" width="1" height="1" fill="#222d44"/>
    <rect x="0" y="36" width="1" height="1" fill="#222d44"/>
    <rect x="12" y="36" width="2" height="1" fill="#222d44"/>
    <rect x="15" y="36" width="1" height="1" fill="#222d44"/>
    <rect x="27" y="36" width="1" height="1" fill="#222d44"/>
    <rect x="31" y="36" width="2" height="1" fill="#222d44"/>
    <rect x="40" y="36" width="1" height="1" fill="#222d44"/>
    <rect x="43" y="36" width="2" height="1" fill="#222d44"/>
    <rect x="47" y="36" width="2" height="1" fill="#222d44"/>
    <rect x="59" y="36" width="1" height="1" fill="#222d44"/>
    <rect x="69" y="36" width="1" height="1" fill="#222d44"/>
    <rect x="91" y="36" width="1" height="1" fill="#222d44"/>
    <rect x="95" y="36" width="2" height="1" fill="#222d44"/>
    <rect x="107" y="36" width="2" height="1" fill="#222d44"/>
    <rect x="114" y="36" width="1" height="1" fill="#222d44"/>
    <rect x="120" y="36" width="2" height="1" fill="#222d44"/>
    <rect x="126" y="36" width="1" height="1" fill="#222d44"/>
    <rect x="134" y="36" width="1" height="1" fill="#222d44"/>
    <rect x="143" y="36" width="2" height="1" fill="#222d44"/>
    <rect x="172" y="36" width="1" height="1" fill="#222d44"/>
    <rect x="0" y="37" width="1" height="1" fill="#222d44"/>
    <rect x="172" y="37" width="1" height="1" fill="#222d44"/>
    <rect x="0" y="38" width="1" height="1" fill="#222d44"/>
    <rect x="172" y="38" width="1" height="1" fill="#222d44"/>
    <rect x="0" y="39" width="1" height="1" fill="#222d44"/>
    <rect x="172" y="39" width="1" height="1" fill="#222d44"/>
    <rect x="0" y="40" width="1" height="1" fill="#222d44"/>
    <rect x="172" y="40" width="1" height="1" fill="#222d44"/>
    <rect x="0" y="41" width="1" height="1" fill="#222d44"/>
    <rect x="172" y="41" width="1" height="1" fill="#222d44"/>
    <rect x="0" y="42" width="1" height="1" fill="#222d44"/>
    <rect x="172" y="42" width="1" height="1" fill="#222d44"/>
    <rect x="0" y="43" width="1" height="1" fill="#222d44"/>
    <rect x="172" y="43" width="1" height="1" fill="#222d44"/>
    <rect x="0" y="44" width="1" height="1" fill="#222d44"/>
    <rect x="172" y="44" width="1" height="1" fill="#222d44"/>
    <rect x="0" y="45" width="1" height="1" fill="#222d44"/>
    <rect x="172" y="45" width="1" height="1" fill="#222d44"/>
    <rect x="0" y="46" width="1" height="1" fill="#222d44"/>
    <rect x="172" y="46" width="1" height="1" fill="#222d44"/>
    <rect x="0" y="47" width="1" height="1" fill="#222d44"/>
    <rect x="172" y="47" width="1" height="1" fill="#222d44"/>
    <rect x="0" y="48" width="1" height="1" fill="#222d44"/>
    <rect x="172" y="48" width="1" height="1" fill="#222d44"/>
    <rect x="0" y="49" width="1" height="1" fill="#222d44"/>
    <rect x="172" y="49" width="1" height="1" fill="#222d44"/>
    <rect x="0" y="50" width="1" height="1" fill="#222d44"/>
    <rect x="172" y="50" width="1" height="1" fill="#222d44"/>
    <rect x="0" y="51" width="1" height="1" fill="#222d44"/>
    <rect x="172" y="51" width="1" height="1" fill="#222d44"/>
    <rect x="0" y="52" width="1" height="1" fill="#222d44"/>
    <rect x="172" y="52" width="1" height="1" fill="#222d44"/>
    <rect x="0" y="53" width="1" height="1" fill="#222d44"/>
    <rect x="172" y="53" width="1" height="1" fill="#222d44"/>
    <rect x="0" y="54" width="173" height="1" fill="#222d44"/>
  </g>
</svg>