<?xml version="1.0" encoding="UTF-8"?>
<svg xmlns="http://www.w3.org/2000/svg" viewBox="0 0 143 57" width="143" height="57">
  <!-- Auto-converted from legend-1687.png -->
  <rect x="0" y="0" width="143" height="57" fill="none"/>
  <g fill="#231f20" stroke="none">
    <rect x="0" y="0" width="143" height="1" fill="#231f20"/>
    <rect x="0" y="1" width="1" height="1" fill="#231f20"/>
    <rect x="142" y="1" width="1" height="1" fill="#231f20"/>
    <rect x="0" y="2" width="1" height="1" fill="#231f20"/>
    <rect x="142" y="2" width="1" height="1" fill="#231f20"/>
    <rect x="0" y="3" width="1" height="1" fill="#231f20"/>
    <rect x="142" y="3" width="1" height="1" fill="#231f20"/>
    <rect x="0" y="4" width="1" height="1" fill="#231f20"/>
    <rect x="69" y="4" width="1" height="1" fill="#231f20"/>
    <rect x="142" y="4" width="1" height="1" fill="#231f20"/>
    <rect x="0" y="5" width="1" height="1" fill="#231f20"/>
    <rect x="26" y="5" width="1" height="1" fill="#231f20"/>
    <rect x="68" y="5" width="1" height="1" fill="#231f20"/>
    <rect x="70" y="5" width="1" height="1" fill="#231f20"/>
    <rect x="142" y="5" width="1" height="1" fill="#231f20"/>
    <rect x="0" y="6" width="1" height="1" fill="#231f20"/>
    <rect x="27" y="6" width="2" height="1" fill="#231f20"/>
    <rect x="67" y="6" width="1" height="1" fill="#231f20"/>
    <rect x="70" y="6" width="1" height="1" fill="#231f20"/>
    <rect x="101" y="6" width="2" height="1" fill="#231f20"/>
    <rect x="142" y="6" width="1" height="1" fill="#231f20"/>
    <rect x="0" y="7" width="1" height="1" fill="#231f20"/>
    <rect x="27" y="7" width="1" height="1" fill="#231f20"/>
    <rect x="29" y="7" width="2" height="1" fill="#231f20"/>
    <rect x="66" y="7" width="1" height="1" fill="#231f20"/>
    <rect x="71" y="7" width="1" height="1" fill="#231f20"/>
    <rect x="102" y="7" width="5" height="1" fill="#231f20"/>
    <rect x="142" y="7" width="1" height="1" fill="#231f20"/>
    <rect x="0" y="8" width="1" height="1" fill="#231f20"/>
    <rect x="28" y="8" width="1" height="1" fill="#231f20"/>
    <rect x="31" y="8" width="1" height="1" fill="#231f20"/>
    <rect x="65" y="8" width="1" height="1" fill="#231f20"/>
    <rect x="72" y="8" width="1" height="1" fill="#231f20"/>
    <rect x="103" y="8" width="1" height="1" fill="#231f20"/>
    <rect x="107" y="8" width="2" height="1" fill="#231f20"/>
    <rect x="142" y="8" width="1" height="1" fill="#231f20"/>
    <rect x="0" y="9" width="1" height="1" fill="#231f20"/>
    <rect x="28" y="9" width="1" height="1" fill="#231f20"/>
    <rect x="32" y="9" width="2" height="1" fill="#231f20"/>
    <rect x="64" y="9" width="5" height="1" fill="#231f20"/>
    <rect x="72" y="9" width="1" height="1" fill="#231f20"/>
    <rect x="104" y="9" width="1" height="1" fill="#231f20"/>
    <rect x="107" y="9" width="1" height="1" fill="#231f20"/>
    <rect x="142" y="9" width="1" height="1" fill="#231f20"/>
    <rect x="0" y="10" width="1" height="1" fill="#231f20"/>
    <rect x="29" y="10" width="1" height="1" fill="#231f20"/>
    <rect x="34" y="10" width="1" height="1" fill="#231f20"/>
    <rect x="69" y="10" width="5" height="1" fill="#231f20"/>
    <rect x="105" y="10" width="1" height="1" fill="#231f20"/>
    <rect x="107" y="10" width="1" height="1" fill="#231f20"/>
    <rect x="142" y="10" width="1" height="1" fill="#231f20"/>
    <rect x="0" y="11" width="1" height="1" fill="#231f20"/>
    <rect x="29" y="11" width="1" height="1" fill="#231f20"/>
    <rect x="33" y="11" width="1" height="1" fill="#231f20"/>
    <rect x="106" y="11" width="1" height="1" fill="#231f20"/>
    <rect x="142" y="11" width="1" height="1" fill="#231f20"/>
    <rect x="0" y="12" width="1" height="1" fill="#231f20"/>
    <rect x="30" y="12" width="1" height="1" fill="#231f20"/>
    <rect x="33" y="12" width="1" height="1" fill="#231f20"/>
    <rect x="142" y="12" width="1" height="1" fill="#231f20"/>
    <rect x="0" y="13" width="1" height="1" fill="#231f20"/>
    <rect x="30" y="13" width="1" height="1" fill="#231f20"/>
    <rect x="32" y="13" width="1" height="1" fill="#231f20"/>
    <rect x="142" y="13" width="1" height="1" fill="#231f20"/>
    <rect x="0" y="14" width="1" height="1" fill="#231f20"/>
    <rect x="31" y="14" width="1" height="1" fill="#231f20"/>
    <rect x="142" y="14" width="1" height="1" fill="#231f20"/>
    <rect x="0" y="15" width="1" height="1" fill="#231f20"/>
    <rect x="142" y="15" width="1" height="1" fill="#231f20"/>
    <rect x="0" y="16" width="1" height="1" fill="#231f20"/>
    <rect x="142" y="16" width="1" height="1" fill="#231f20"/>
    <rect x="0" y="17" width="1" height="1" fill="#231f20"/>
    <rect x="142" y="17" width="1" height="1" fill="#231f20"/>
    <rect x="0" y="18" width="1" height="1" fill="#231f20"/>
    <rect x="142" y="18" width="1" height="1" fill="#231f20"/>
    <rect x="0" y="19" width="143" height="1" fill="#231f20"/>
    <rect x="0" y="20" width="1" height="1" fill="#231f20"/>
    <rect x="142" y="20" width="1" height="1" fill="#231f20"/>
    <rect x="0" y="21" width="1" height="1" fill="#231f20"/>
    <rect x="142" y="21" width="1" height="1" fill="#231f20"/>
    <rect x="0" y="22" width="1" height="1" fill="#231f20"/>
    <rect x="142" y="22" width="1" height="1" fill="#231f20"/>
    <rect x="0" y="23" width="1" height="1" fill="#231f20"/>
    <rect x="48" y="23" width="1" height="1" fill="#231f20"/>
    <rect x="92" y="23" width="1" height="1" fill="#231f20"/>
    <rect x="142" y="23" width="1" height="1" fill="#231f20"/>
    <rect x="0" y="24" width="1" height="1" fill="#231f20"/>
    <rect x="47" y="24" width="1" height="1" fill="#231f20"/>
    <rect x="49" y="24" width="1" height="1" fill="#231f20"/>
    <rect x="91" y="24" width="2" height="1" fill="#231f20"/>
    <rect x="142" y="24" width="1" height="1" fill="#231f20"/>
    <rect x="0" y="25" width="1" height="1" fill="#231f20"/>
    <rect x="47" y="25" width="1" height="1" fill="#231f20"/>
    <rect x="49" y="25" width="1" height="1" fill="#231f20"/>
    <rect x="91" y="25" width="1" height="1" fill="#231f20"/>
    <rect x="93" y="25" width="1" height="1" fill="#231f20"/>
    <rect x="142" y="25" width="1" height="1" fill="#231f20"/>
    <rect x="0" y="26" width="1" height="1" fill="#231f20"/>
    <rect x="46" y="26" width="1" height="1" fill="#231f20"/>
    <rect x="50" y="26" width="1" height="1" fill="#231f20"/>
    <rect x="90" y="26" width="1" height="1" fill="#231f20"/>
    <rect x="93" y="26" width="1" height="1" fill="#231f20"/>
    <rect x="142" y="26" width="1" height="1" fill="#231f20"/>
    <rect x="0" y="27" width="1" height="1" fill="#231f20"/>
    <rect x="45" y="27" width="1" height="1" fill="#231f20"/>
    <rect x="50" y="27" width="1" height="1" fill="#231f20"/>
    <rect x="89" y="27" width="1" height="1" fill="#231f20"/>
    <rect x="94" y="27" width="1" height="1" fill="#231f20"/>
    <rect x="142" y="27" width="1" height="1" fill="#231f20"/>
    <rect x="0" y="28" width="1" height="1" fill="#231f20"/>
    <rect x="44" y="28" width="1" height="1" fill="#231f20"/>
    <rect x="51" y="28" width="1" height="1" fill="#231f20"/>
    <rect x="88" y="28" width="1" height="1" fill="#231f20"/>
    <rect x="94" y="28" width="1" height="1" fill="#231f20"/>
    <rect x="142" y="28" width="1" height="1" fill="#231f20"/>
    <rect x="0" y="29" width="1" height="1" fill="#231f20"/>
    <rect x="44" y="29" width="1" height="1" fill="#231f20"/>
    <rect x="51" y="29" width="1" height="1" fill="#231f20"/>
    <rect x="88" y="29" width="1" height="1" fill="#231f20"/>
    <rect x="95" y="29" width="1" height="1" fill="#231f20"/>
    <rect x="142" y="29" width="1" height="1" fill="#231f20"/>
    <rect x="0" y="30" width="1" height="1" fill="#231f20"/>
    <rect x="43" y="30" width="10" height="1" fill="#231f20"/>
    <rect x="87" y="30" width="9" height="1" fill="#231f20"/>
    <rect x="142" y="30" width="1" height="1" fill="#231f20"/>
    <rect x="0" y="31" width="1" height="1" fill="#231f20"/>
    <rect x="142" y="31" width="1" height="1" fill="#231f20"/>
    <rect x="0" y="32" width="1" height="1" fill="#231f20"/>
    <rect x="142" y="32" width="1" height="1" fill="#231f20"/>
    <rect x="0" y="33" width="1" height="1" fill="#231f20"/>
    <rect x="142" y="33" width="1" height="1" fill="#231f20"/>
    <rect x="0" y="34" width="1" height="1" fill="#231f20"/>
    <rect x="142" y="34" width="1" height="1" fill="#231f20"/>
    <rect x="0" y="35" width="1" height="1" fill="#231f20"/>
    <rect x="142" y="35" width="1" height="1" fill="#231f20"/>
    <rect x="0" y="36" width="1" height="1" fill="#231f20"/>
    <rect x="142" y="36" width="1" height="1" fill="#231f20"/>
    <rect x="0" y="37" width="143" height="1" fill="#231f20"/>
    <rect x="0" y="38" width="1" height="1" fill="#231f20"/>
    <rect x="142" y="38" width="1" height="1" fill="#231f20"/>
    <rect x="0" y="39" width="1" height="1" fill="#231f20"/>
    <rect x="142" y="39" width="1" height="1" fill="#231f20"/>
    <rect x="0" y="40" width="1" height="1" fill="#231f20"/>
    <rect x="142" y="40" width="1" height="1" fill="#231f20"/>
    <rect x="0" y="41" width="1" height="1" fill="#231f20"/>
    <rect x="142" y="41" width="1" height="1" fill="#231f20"/>
    <rect x="0" y="42" width="1" height="1" fill="#231f20"/>
    <rect x="142" y="42" width="1" height="1" fill="#231f20"/>
    <rect x="0" y="43" width="1" height="1" fill="#231f20"/>
    <rect x="142" y="43" width="1" height="1" fill="#231f20"/>
    <rect x="0" y="44" width="1" height="1" fill="#231f20"/>
    <rect x="24" y="44" width="2" height="1" fill="#231f20"/>
    <rect x="73" y="44" width="1" height="1" fill="#231f20"/>
    <rect x="99" y="44" width="5" height="1" fill="#231f20"/>
    <rect x="142" y="44" width="1" height="1" fill="#231f20"/>
    <rect x="0" y="45" width="1" height="1" fill="#231f20"/>
    <rect x="24" y="45" width="1" height="1" fill="#231f20"/>
    <rect x="26" y="45" width="2" height="1" fill="#231f20"/>
    <rect x="71" y="45" width="3" height="1" fill="#231f20"/>
    <rect x="99" y="45" width="1" height="1" fill="#231f20"/>
    <rect x="104" y="45" width="5" height="1" fill="#231f20"/>
    <rect x="142" y="45" width="1" height="1" fill="#231f20"/>
    <rect x="0" y="46" width="1" height="1" fill="#231f20"/>
    <rect x="24" y="46" width="1" height="1" fill="#231f20"/>
    <rect x="28" y="46" width="2" height="1" fill="#231f20"/>
    <rect x="69" y="46" width="2" height="1" fill="#231f20"/>
    <rect x="73" y="46" width="1" height="1" fill="#231f20"/>
    <rect x="99" y="46" width="1" height="1" fill="#231f20"/>
    <rect x="105" y="46" width="2" height="1" fill="#231f20"/>
    <rect x="142" y="46" width="1" height="1" fill="#231f20"/>
    <rect x="0" y="47" width="1" height="1" fill="#231f20"/>
    <rect x="24" y="47" width="1" height="1" fill="#231f20"/>
    <rect x="30" y="47" width="2" height="1" fill="#231f20"/>
    <rect x="68" y="47" width="1" height="1" fill="#231f20"/>
    <rect x="73" y="47" width="1" height="1" fill="#231f20"/>
    <rect x="98" y="47" width="1" height="1" fill="#231f20"/>
    <rect x="102" y="47" width="3" height="1" fill="#231f20"/>
    <rect x="142" y="47" width="1" height="1" fill="#231f20"/>
    <rect x="0" y="48" width="1" height="1" fill="#231f20"/>
    <rect x="24" y="48" width="1" height="1" fill="#231f20"/>
    <rect x="28" y="48" width="2" height="1" fill="#231f20"/>
    <rect x="69" y="48" width="2" height="1" fill="#231f20"/>
    <rect x="73" y="48" width="1" height="1" fill="#231f20"/>
    <rect x="98" y="48" width="1" height="1" fill="#231f20"/>
    <rect x="100" y="48" width="2" height="1" fill="#231f20"/>
    <rect x="142" y="48" width="1" height="1" fill="#231f20"/>
    <rect x="0" y="49" width="1" height="1" fill="#231f20"/>
    <rect x="24" y="49" width="1" height="1" fill="#231f20"/>
    <rect x="26" y="49" width="2" height="1" fill="#231f20"/>
    <rect x="71" y="49" width="3" height="1" fill="#231f20"/>
    <rect x="98" y="49" width="2" height="1" fill="#231f20"/>
    <rect x="142" y="49" width="1" height="1" fill="#231f20"/>
    <rect x="0" y="50" width="1" height="1" fill="#231f20"/>
    <rect x="24" y="50" width="2" height="1" fill="#231f20"/>
    <rect x="73" y="50" width="1" height="1" fill="#231f20"/>
    <rect x="142" y="50" width="1" height="1" fill="#231f20"/>
    <rect x="0" y="51" width="1" height="1" fill="#231f20"/>
    <rect x="142" y="51" width="1" height="1" fill="#231f20"/>
    <rect x="0" y="52" width="1" height="1" fill="#231f20"/>
    <rect x="142" y="52" width="1" height="1" fill="#231f20"/>
    <rect x="0" y="53" width="1" height="1" fill="#231f20"/>
    <rect x="142" y="53" width="1" height="1" fill="#231f20"/>
    <rect x="0" y="54" width="1" height="1" fill="#231f20"/>
    <rect x="142" y="54" width="1" height="1" fill="#231f20"/>
    <rect x="0" y="55" width="1" height="1" fill="#231f20"/>
    <rect x="142" y="55" width="1" height="1" fill="#231f20"/>
    <rect x="0" y="56" width="143" height="1" fill="#231f20"/>
  </g>
</svg>