<?xml version="1.0" encoding="UTF-8"?>
<svg xmlns="http://www.w3.org/2000/svg" viewBox="0 0 316 179" width="316" height="179">
  <!-- Auto-converted from legend-080.png -->
  <rect x="0" y="0" width="316" height="179" fill="none"/>
  <g fill="#a2db8a" stroke="none">
    <rect x="1" y="2" width="315" height="1" fill="#a2db8a"/>
    <rect x="1" y="3" width="315" height="1" fill="#a2db8a"/>
    <rect x="1" y="4" width="315" height="1" fill="#a2db8a"/>
    <rect x="1" y="5" width="315" height="1" fill="#a2db8a"/>
    <rect x="1" y="6" width="4" height="1" fill="#a2db8a"/>
    <rect x="311" y="6" width="5" height="1" fill="#a2db8a"/>
    <rect x="1" y="7" width="4" height="1" fill="#a2db8a"/>
    <rect x="311" y="7" width="5" height="1" fill="#a2db8a"/>
    <rect x="1" y="8" width="4" height="1" fill="#a2db8a"/>
    <rect x="311" y="8" width="5" height="1" fill="#a2db8a"/>
    <rect x="1" y="9" width="4" height="1" fill="#a2db8a"/>
    <rect x="311" y="9" width="5" height="1" fill="#a2db8a"/>
    <rect x="1" y="10" width="4" height="1" fill="#a2db8a"/>
    <rect x="311" y="10" width="5" height="1" fill="#a2db8a"/>
    <rect x="1" y="11" width="4" height="1" fill="#a2db8a"/>
    <rect x="311" y="11" width="5" height="1" fill="#a2db8a"/>
    <rect x="1" y="12" width="4" height="1" fill="#a2db8a"/>
    <rect x="311" y="12" width="5" height="1" fill="#a2db8a"/>
    <rect x="1" y="13" width="4" height="1" fill="#a2db8a"/>
    <rect x="311" y="13" width="5" height="1" fill="#a2db8a"/>
    <rect x="1" y="14" width="4" height="1" fill="#a2db8a"/>
    <rect x="311" y="14" width="5" height="1" fill="#a2db8a"/>
    <rect x="1" y="15" width="4" height="1" fill="#a2db8a"/>
    <rect x="311" y="15" width="5" height="1" fill="#a2db8a"/>
    <rect x="1" y="16" width="4" height="1" fill="#a2db8a"/>
    <rect x="311" y="16" width="5" height="1" fill="#a2db8a"/>
    <rect x="1" y="17" width="4" height="1" fill="#a2db8a"/>
    <rect x="311" y="17" width="5" height="1" fill="#a2db8a"/>
    <rect x="1" y="18" width="4" height="1" fill="#a2db8a"/>
    <rect x="311" y="18" width="5" height="1" fill="#a2db8a"/>
    <rect x="1" y="19" width="4" height="1" fill="#a2db8a"/>
    <rect x="311" y="19" width="5" height="1" fill="#a2db8a"/>
    <rect x="1" y="20" width="4" height="1" fill="#a2db8a"/>
    <rect x="311" y="20" width="5" height="1" fill="#a2db8a"/>
    <rect x="1" y="21" width="4" height="1" fill="#a2db8a"/>
    <rect x="311" y="21" width="5" height="1" fill="#a2db8a"/>
    <rect x="1" y="22" width="4" height="1" fill="#a2db8a"/>
    <rect x="311" y="22" width="5" height="1" fill="#a2db8a"/>
    <rect x="1" y="23" width="4" height="1" fill="#a2db8a"/>
    <rect x="311" y="23" width="5" height="1" fill="#a2db8a"/>
    <rect x="1" y="24" width="4" height="1" fill="#a2db8a"/>
    <rect x="41" y="24" width="237" height="1" fill="#a2db8a"/>
    <rect x="311" y="24" width="5" height="1" fill="#a2db8a"/>
    <rect x="1" y="25" width="4" height="1" fill="#a2db8a"/>
    <rect x="40" y="25" width="240" height="1" fill="#a2db8a"/>
    <rect x="311" y="25" width="5" height="1" fill="#a2db8a"/>
    <rect x="1" y="26" width="4" height="1" fill="#a2db8a"/>
    <rect x="40" y="26" width="240" height="1" fill="#a2db8a"/>
    <rect x="311" y="26" width="5" height="1" fill="#a2db8a"/>
    <rect x="1" y="27" width="4" height="1" fill="#a2db8a"/>
    <rect x="40" y="27" width="3" height="1" fill="#a2db8a"/>
    <rect x="277" y="27" width="3" height="1" fill="#a2db8a"/>
    <rect x="311" y="27" width="5" height="1" fill="#a2db8a"/>
    <rect x="1" y="28" width="4" height="1" fill="#a2db8a"/>
    <rect x="40" y="28" width="3" height="1" fill="#a2db8a"/>
    <rect x="277" y="28" width="3" height="1" fill="#a2db8a"/>
    <rect x="311" y="28" width="5" height="1" fill="#a2db8a"/>
    <rect x="1" y="29" width="4" height="1" fill="#a2db8a"/>
    <rect x="40" y="29" width="3" height="1" fill="#a2db8a"/>
    <rect x="277" y="29" width="3" height="1" fill="#a2db8a"/>
    <rect x="311" y="29" width="5" height="1" fill="#a2db8a"/>
    <rect x="1" y="30" width="4" height="1" fill="#a2db8a"/>
    <rect x="40" y="30" width="3" height="1" fill="#a2db8a"/>
    <rect x="277" y="30" width="3" height="1" fill="#a2db8a"/>
    <rect x="311" y="30" width="5" height="1" fill="#a2db8a"/>
    <rect x="1" y="31" width="4" height="1" fill="#a2db8a"/>
    <rect x="40" y="31" width="3" height="1" fill="#a2db8a"/>
    <rect x="277" y="31" width="3" height="1" fill="#a2db8a"/>
    <rect x="311" y="31" width="5" height="1" fill="#a2db8a"/>
    <rect x="1" y="32" width="4" height="1" fill="#a2db8a"/>
    <rect x="40" y="32" width="3" height="1" fill="#a2db8a"/>
    <rect x="277" y="32" width="3" height="1" fill="#a2db8a"/>
    <rect x="311" y="32" width="5" height="1" fill="#a2db8a"/>
    <rect x="1" y="33" width="4" height="1" fill="#a2db8a"/>
    <rect x="40" y="33" width="3" height="1" fill="#a2db8a"/>
    <rect x="277" y="33" width="3" height="1" fill="#a2db8a"/>
    <rect x="311" y="33" width="5" height="1" fill="#a2db8a"/>
    <rect x="1" y="34" width="4" height="1" fill="#a2db8a"/>
    <rect x="40" y="34" width="3" height="1" fill="#a2db8a"/>
    <rect x="277" y="34" width="3" height="1" fill="#a2db8a"/>
    <rect x="311" y="34" width="5" height="1" fill="#a2db8a"/>
    <rect x="1" y="35" width="4" height="1" fill="#a2db8a"/>
    <rect x="40" y="35" width="3" height="1" fill="#a2db8a"/>
    <rect x="277" y="35" width="3" height="1" fill="#a2db8a"/>
    <rect x="311" y="35" width="5" height="1" fill="#a2db8a"/>
    <rect x="1" y="36" width="4" height="1" fill="#a2db8a"/>
    <rect x="40" y="36" width="3" height="1" fill="#a2db8a"/>
    <rect x="277" y="36" width="3" height="1" fill="#a2db8a"/>
    <rect x="311" y="36" width="5" height="1" fill="#a2db8a"/>
    <rect x="1" y="37" width="4" height="1" fill="#a2db8a"/>
    <rect x="40" y="37" width="3" height="1" fill="#a2db8a"/>
    <rect x="277" y="37" width="3" height="1" fill="#a2db8a"/>
    <rect x="311" y="37" width="5" height="1" fill="#a2db8a"/>
    <rect x="1" y="38" width="4" height="1" fill="#a2db8a"/>
    <rect x="40" y="38" width="3" height="1" fill="#a2db8a"/>
    <rect x="277" y="38" width="3" height="1" fill="#a2db8a"/>
    <rect x="311" y="38" width="5" height="1" fill="#a2db8a"/>
    <rect x="1" y="39" width="4" height="1" fill="#a2db8a"/>
    <rect x="40" y="39" width="3" height="1" fill="#a2db8a"/>
    <rect x="277" y="39" width="3" height="1" fill="#a2db8a"/>
    <rect x="311" y="39" width="5" height="1" fill="#a2db8a"/>
    <rect x="1" y="40" width="4" height="1" fill="#a2db8a"/>
    <rect x="40" y="40" width="3" height="1" fill="#a2db8a"/>
    <rect x="277" y="40" width="3" height="1" fill="#a2db8a"/>
    <rect x="311" y="40" width="5" height="1" fill="#a2db8a"/>
    <rect x="1" y="41" width="4" height="1" fill="#a2db8a"/>
    <rect x="40" y="41" width="3" height="1" fill="#a2db8a"/>
    <rect x="277" y="41" width="3" height="1" fill="#a2db8a"/>
    <rect x="311" y="41" width="5" height="1" fill="#a2db8a"/>
    <rect x="1" y="42" width="4" height="1" fill="#a2db8a"/>
    <rect x="40" y="42" width="3" height="1" fill="#a2db8a"/>
    <rect x="277" y="42" width="3" height="1" fill="#a2db8a"/>
    <rect x="311" y="42" width="5" height="1" fill="#a2db8a"/>
    <rect x="1" y="43" width="4" height="1" fill="#a2db8a"/>
    <rect x="40" y="43" width="3" height="1" fill="#a2db8a"/>
    <rect x="277" y="43" width="3" height="1" fill="#a2db8a"/>
    <rect x="311" y="43" width="5" height="1" fill="#a2db8a"/>
    <rect x="1" y="44" width="4" height="1" fill="#a2db8a"/>
    <rect x="40" y="44" width="3" height="1" fill="#a2db8a"/>
    <rect x="277" y="44" width="3" height="1" fill="#a2db8a"/>
    <rect x="311" y="44" width="5" height="1" fill="#a2db8a"/>
    <rect x="1" y="45" width="4" height="1" fill="#a2db8a"/>
    <rect x="40" y="45" width="3" height="1" fill="#a2db8a"/>
    <rect x="277" y="45" width="3" height="1" fill="#a2db8a"/>
    <rect x="311" y="45" width="5" height="1" fill="#a2db8a"/>
    <rect x="1" y="46" width="4" height="1" fill="#a2db8a"/>
    <rect x="40" y="46" width="3" height="1" fill="#a2db8a"/>
    <rect x="277" y="46" width="3" height="1" fill="#a2db8a"/>
    <rect x="311" y="46" width="5" height="1" fill="#a2db8a"/>
    <rect x="1" y="47" width="4" height="1" fill="#a2db8a"/>
    <rect x="40" y="47" width="3" height="1" fill="#a2db8a"/>
    <rect x="277" y="47" width="3" height="1" fill="#a2db8a"/>
    <rect x="311" y="47" width="5" height="1" fill="#a2db8a"/>
    <rect x="1" y="48" width="4" height="1" fill="#a2db8a"/>
    <rect x="40" y="48" width="3" height="1" fill="#a2db8a"/>
    <rect x="277" y="48" width="3" height="1" fill="#a2db8a"/>
    <rect x="311" y="48" width="5" height="1" fill="#a2db8a"/>
    <rect x="1" y="49" width="4" height="1" fill="#a2db8a"/>
    <rect x="40" y="49" width="3" height="1" fill="#a2db8a"/>
    <rect x="277" y="49" width="3" height="1" fill="#a2db8a"/>
    <rect x="311" y="49" width="5" height="1" fill="#a2db8a"/>
    <rect x="1" y="50" width="4" height="1" fill="#a2db8a"/>
    <rect x="40" y="50" width="3" height="1" fill="#a2db8a"/>
    <rect x="277" y="50" width="3" height="1" fill="#a2db8a"/>
    <rect x="311" y="50" width="5" height="1" fill="#a2db8a"/>
    <rect x="1" y="51" width="4" height="1" fill="#a2db8a"/>
    <rect x="40" y="51" width="3" height="1" fill="#a2db8a"/>
    <rect x="277" y="51" width="3" height="1" fill="#a2db8a"/>
    <rect x="311" y="51" width="5" height="1" fill="#a2db8a"/>
    <rect x="1" y="52" width="4" height="1" fill="#a2db8a"/>
    <rect x="40" y="52" width="3" height="1" fill="#a2db8a"/>
    <rect x="277" y="52" width="3" height="1" fill="#a2db8a"/>
    <rect x="311" y="52" width="5" height="1" fill="#a2db8a"/>
    <rect x="1" y="53" width="4" height="1" fill="#a2db8a"/>
    <rect x="40" y="53" width="3" height="1" fill="#a2db8a"/>
    <rect x="277" y="53" width="3" height="1" fill="#a2db8a"/>
    <rect x="311" y="53" width="5" height="1" fill="#a2db8a"/>
    <rect x="1" y="54" width="4" height="1" fill="#a2db8a"/>
    <rect x="40" y="54" width="3" height="1" fill="#a2db8a"/>
    <rect x="277" y="54" width="3" height="1" fill="#a2db8a"/>
    <rect x="311" y="54" width="5" height="1" fill="#a2db8a"/>
    <rect x="1" y="55" width="4" height="1" fill="#a2db8a"/>
    <rect x="40" y="55" width="3" height="1" fill="#a2db8a"/>
    <rect x="277" y="55" width="3" height="1" fill="#a2db8a"/>
    <rect x="311" y="55" width="5" height="1" fill="#a2db8a"/>
    <rect x="1" y="56" width="4" height="1" fill="#a2db8a"/>
    <rect x="40" y="56" width="3" height="1" fill="#a2db8a"/>
    <rect x="277" y="56" width="3" height="1" fill="#a2db8a"/>
    <rect x="311" y="56" width="5" height="1" fill="#a2db8a"/>
    <rect x="1" y="57" width="4" height="1" fill="#a2db8a"/>
    <rect x="40" y="57" width="3" height="1" fill="#a2db8a"/>
    <rect x="277" y="57" width="3" height="1" fill="#a2db8a"/>
    <rect x="311" y="57" width="5" height="1" fill="#a2db8a"/>
    <rect x="1" y="58" width="4" height="1" fill="#a2db8a"/>
    <rect x="40" y="58" width="3" height="1" fill="#a2db8a"/>
    <rect x="277" y="58" width="3" height="1" fill="#a2db8a"/>
    <rect x="311" y="58" width="5" height="1" fill="#a2db8a"/>
    <rect x="1" y="59" width="4" height="1" fill="#a2db8a"/>
    <rect x="40" y="59" width="3" height="1" fill="#a2db8a"/>
    <rect x="277" y="59" width="3" height="1" fill="#a2db8a"/>
    <rect x="311" y="59" width="5" height="1" fill="#a2db8a"/>
    <rect x="1" y="60" width="4" height="1" fill="#a2db8a"/>
    <rect x="40" y="60" width="3" height="1" fill="#a2db8a"/>
    <rect x="277" y="60" width="3" height="1" fill="#a2db8a"/>
    <rect x="311" y="60" width="5" height="1" fill="#a2db8a"/>
    <rect x="1" y="61" width="4" height="1" fill="#a2db8a"/>
    <rect x="40" y="61" width="3" height="1" fill="#a2db8a"/>
    <rect x="277" y="61" width="3" height="1" fill="#a2db8a"/>
    <rect x="311" y="61" width="5" height="1" fill="#a2db8a"/>
    <rect x="1" y="62" width="4" height="1" fill="#a2db8a"/>
    <rect x="40" y="62" width="3" height="1" fill="#a2db8a"/>
    <rect x="277" y="62" width="3" height="1" fill="#a2db8a"/>
    <rect x="311" y="62" width="5" height="1" fill="#a2db8a"/>
    <rect x="1" y="63" width="4" height="1" fill="#a2db8a"/>
    <rect x="40" y="63" width="3" height="1" fill="#a2db8a"/>
    <rect x="277" y="63" width="3" height="1" fill="#a2db8a"/>
    <rect x="311" y="63" width="5" height="1" fill="#a2db8a"/>
    <rect x="1" y="64" width="4" height="1" fill="#a2db8a"/>
    <rect x="40" y="64" width="3" height="1" fill="#a2db8a"/>
    <rect x="277" y="64" width="3" height="1" fill="#a2db8a"/>
    <rect x="311" y="64" width="5" height="1" fill="#a2db8a"/>
    <rect x="1" y="65" width="4" height="1" fill="#a2db8a"/>
    <rect x="40" y="65" width="3" height="1" fill="#a2db8a"/>
    <rect x="277" y="65" width="3" height="1" fill="#a2db8a"/>
    <rect x="311" y="65" width="5" height="1" fill="#a2db8a"/>
    <rect x="1" y="66" width="4" height="1" fill="#a2db8a"/>
    <rect x="40" y="66" width="3" height="1" fill="#a2db8a"/>
    <rect x="277" y="66" width="3" height="1" fill="#a2db8a"/>
    <rect x="311" y="66" width="5" height="1" fill="#a2db8a"/>
    <rect x="1" y="67" width="4" height="1" fill="#a2db8a"/>
    <rect x="40" y="67" width="3" height="1" fill="#a2db8a"/>
    <rect x="277" y="67" width="3" height="1" fill="#a2db8a"/>
    <rect x="311" y="67" width="5" height="1" fill="#a2db8a"/>
    <rect x="1" y="68" width="4" height="1" fill="#a2db8a"/>
    <rect x="40" y="68" width="3" height="1" fill="#a2db8a"/>
    <rect x="277" y="68" width="3" height="1" fill="#a2db8a"/>
    <rect x="311" y="68" width="5" height="1" fill="#a2db8a"/>
    <rect x="1" y="69" width="4" height="1" fill="#a2db8a"/>
    <rect x="40" y="69" width="3" height="1" fill="#a2db8a"/>
    <rect x="277" y="69" width="3" height="1" fill="#a2db8a"/>
    <rect x="311" y="69" width="5" height="1" fill="#a2db8a"/>
    <rect x="1" y="70" width="4" height="1" fill="#a2db8a"/>
    <rect x="40" y="70" width="3" height="1" fill="#a2db8a"/>
    <rect x="277" y="70" width="3" height="1" fill="#a2db8a"/>
    <rect x="311" y="70" width="5" height="1" fill="#a2db8a"/>
    <rect x="1" y="71" width="4" height="1" fill="#a2db8a"/>
    <rect x="40" y="71" width="3" height="1" fill="#a2db8a"/>
    <rect x="277" y="71" width="3" height="1" fill="#a2db8a"/>
    <rect x="311" y="71" width="5" height="1" fill="#a2db8a"/>
    <rect x="1" y="72" width="4" height="1" fill="#a2db8a"/>
    <rect x="40" y="72" width="3" height="1" fill="#a2db8a"/>
    <rect x="277" y="72" width="3" height="1" fill="#a2db8a"/>
    <rect x="311" y="72" width="5" height="1" fill="#a2db8a"/>
    <rect x="1" y="73" width="4" height="1" fill="#a2db8a"/>
    <rect x="40" y="73" width="3" height="1" fill="#a2db8a"/>
    <rect x="277" y="73" width="3" height="1" fill="#a2db8a"/>
    <rect x="311" y="73" width="5" height="1" fill="#a2db8a"/>
    <rect x="1" y="74" width="4" height="1" fill="#a2db8a"/>
    <rect x="40" y="74" width="3" height="1" fill="#a2db8a"/>
    <rect x="277" y="74" width="3" height="1" fill="#a2db8a"/>
    <rect x="311" y="74" width="5" height="1" fill="#a2db8a"/>
    <rect x="1" y="75" width="4" height="1" fill="#a2db8a"/>
    <rect x="40" y="75" width="3" height="1" fill="#a2db8a"/>
    <rect x="277" y="75" width="3" height="1" fill="#a2db8a"/>
    <rect x="311" y="75" width="5" height="1" fill="#a2db8a"/>
    <rect x="1" y="76" width="4" height="1" fill="#a2db8a"/>
    <rect x="40" y="76" width="3" height="1" fill="#a2db8a"/>
    <rect x="277" y="76" width="3" height="1" fill="#a2db8a"/>
    <rect x="311" y="76" width="5" height="1" fill="#a2db8a"/>
    <rect x="1" y="77" width="4" height="1" fill="#a2db8a"/>
    <rect x="40" y="77" width="3" height="1" fill="#a2db8a"/>
    <rect x="277" y="77" width="3" height="1" fill="#a2db8a"/>
    <rect x="311" y="77" width="5" height="1" fill="#a2db8a"/>
    <rect x="1" y="78" width="4" height="1" fill="#a2db8a"/>
    <rect x="40" y="78" width="3" height="1" fill="#a2db8a"/>
    <rect x="277" y="78" width="3" height="1" fill="#a2db8a"/>
    <rect x="311" y="78" width="5" height="1" fill="#a2db8a"/>
    <rect x="1" y="79" width="4" height="1" fill="#a2db8a"/>
    <rect x="40" y="79" width="3" height="1" fill="#a2db8a"/>
    <rect x="277" y="79" width="3" height="1" fill="#a2db8a"/>
    <rect x="311" y="79" width="5" height="1" fill="#a2db8a"/>
    <rect x="1" y="80" width="4" height="1" fill="#a2db8a"/>
    <rect x="40" y="80" width="3" height="1" fill="#a2db8a"/>
    <rect x="277" y="80" width="3" height="1" fill="#a2db8a"/>
    <rect x="311" y="80" width="5" height="1" fill="#a2db8a"/>
    <rect x="1" y="81" width="4" height="1" fill="#a2db8a"/>
    <rect x="40" y="81" width="3" height="1" fill="#a2db8a"/>
    <rect x="277" y="81" width="3" height="1" fill="#a2db8a"/>
    <rect x="311" y="81" width="5" height="1" fill="#a2db8a"/>
    <rect x="1" y="82" width="4" height="1" fill="#a2db8a"/>
    <rect x="40" y="82" width="3" height="1" fill="#a2db8a"/>
    <rect x="277" y="82" width="3" height="1" fill="#a2db8a"/>
    <rect x="311" y="82" width="5" height="1" fill="#a2db8a"/>
    <rect x="1" y="83" width="4" height="1" fill="#a2db8a"/>
    <rect x="40" y="83" width="3" height="1" fill="#a2db8a"/>
    <rect x="277" y="83" width="3" height="1" fill="#a2db8a"/>
    <rect x="311" y="83" width="5" height="1" fill="#a2db8a"/>
    <rect x="1" y="84" width="4" height="1" fill="#a2db8a"/>
    <rect x="40" y="84" width="3" height="1" fill="#a2db8a"/>
    <rect x="277" y="84" width="3" height="1" fill="#a2db8a"/>
    <rect x="311" y="84" width="5" height="1" fill="#a2db8a"/>
    <rect x="1" y="85" width="4" height="1" fill="#a2db8a"/>
    <rect x="40" y="85" width="3" height="1" fill="#a2db8a"/>
    <rect x="277" y="85" width="3" height="1" fill="#a2db8a"/>
    <rect x="311" y="85" width="5" height="1" fill="#a2db8a"/>
    <rect x="1" y="86" width="4" height="1" fill="#a2db8a"/>
    <rect x="40" y="86" width="3" height="1" fill="#a2db8a"/>
    <rect x="277" y="86" width="3" height="1" fill="#a2db8a"/>
    <rect x="311" y="86" width="5" height="1" fill="#a2db8a"/>
    <rect x="1" y="87" width="4" height="1" fill="#a2db8a"/>
    <rect x="40" y="87" width="3" height="1" fill="#a2db8a"/>
    <rect x="277" y="87" width="3" height="1" fill="#a2db8a"/>
    <rect x="311" y="87" width="5" height="1" fill="#a2db8a"/>
    <rect x="1" y="88" width="4" height="1" fill="#a2db8a"/>
    <rect x="40" y="88" width="3" height="1" fill="#a2db8a"/>
    <rect x="277" y="88" width="3" height="1" fill="#a2db8a"/>
    <rect x="311" y="88" width="5" height="1" fill="#a2db8a"/>
    <rect x="1" y="89" width="4" height="1" fill="#a2db8a"/>
    <rect x="40" y="89" width="3" height="1" fill="#a2db8a"/>
    <rect x="277" y="89" width="3" height="1" fill="#a2db8a"/>
    <rect x="311" y="89" width="5" height="1" fill="#a2db8a"/>
    <rect x="1" y="90" width="4" height="1" fill="#a2db8a"/>
    <rect x="40" y="90" width="3" height="1" fill="#a2db8a"/>
    <rect x="277" y="90" width="3" height="1" fill="#a2db8a"/>
    <rect x="311" y="90" width="5" height="1" fill="#a2db8a"/>
    <rect x="1" y="91" width="4" height="1" fill="#a2db8a"/>
    <rect x="40" y="91" width="3" height="1" fill="#a2db8a"/>
    <rect x="277" y="91" width="3" height="1" fill="#a2db8a"/>
    <rect x="311" y="91" width="5" height="1" fill="#a2db8a"/>
    <rect x="1" y="92" width="4" height="1" fill="#a2db8a"/>
    <rect x="40" y="92" width="3" height="1" fill="#a2db8a"/>
    <rect x="277" y="92" width="3" height="1" fill="#a2db8a"/>
    <rect x="311" y="92" width="5" height="1" fill="#a2db8a"/>
    <rect x="1" y="93" width="4" height="1" fill="#a2db8a"/>
    <rect x="40" y="93" width="3" height="1" fill="#a2db8a"/>
    <rect x="277" y="93" width="3" height="1" fill="#a2db8a"/>
    <rect x="311" y="93" width="5" height="1" fill="#a2db8a"/>
    <rect x="1" y="94" width="4" height="1" fill="#a2db8a"/>
    <rect x="40" y="94" width="3" height="1" fill="#a2db8a"/>
    <rect x="277" y="94" width="3" height="1" fill="#a2db8a"/>
    <rect x="311" y="94" width="5" height="1" fill="#a2db8a"/>
    <rect x="1" y="95" width="4" height="1" fill="#a2db8a"/>
    <rect x="40" y="95" width="3" height="1" fill="#a2db8a"/>
    <rect x="277" y="95" width="3" height="1" fill="#a2db8a"/>
    <rect x="311" y="95" width="5" height="1" fill="#a2db8a"/>
    <rect x="1" y="96" width="4" height="1" fill="#a2db8a"/>
    <rect x="40" y="96" width="3" height="1" fill="#a2db8a"/>
    <rect x="277" y="96" width="3" height="1" fill="#a2db8a"/>
    <rect x="311" y="96" width="5" height="1" fill="#a2db8a"/>
    <rect x="1" y="97" width="4" height="1" fill="#a2db8a"/>
    <rect x="40" y="97" width="3" height="1" fill="#a2db8a"/>
    <rect x="277" y="97" width="3" height="1" fill="#a2db8a"/>
    <rect x="311" y="97" width="5" height="1" fill="#a2db8a"/>
    <rect x="1" y="98" width="4" height="1" fill="#a2db8a"/>
    <rect x="40" y="98" width="3" height="1" fill="#a2db8a"/>
    <rect x="277" y="98" width="3" height="1" fill="#a2db8a"/>
    <rect x="311" y="98" width="5" height="1" fill="#a2db8a"/>
    <rect x="1" y="99" width="4" height="1" fill="#a2db8a"/>
    <rect x="40" y="99" width="3" height="1" fill="#a2db8a"/>
    <rect x="277" y="99" width="3" height="1" fill="#a2db8a"/>
    <rect x="311" y="99" width="5" height="1" fill="#a2db8a"/>
    <rect x="1" y="100" width="4" height="1" fill="#a2db8a"/>
    <rect x="40" y="100" width="3" height="1" fill="#a2db8a"/>
    <rect x="277" y="100" width="3" height="1" fill="#a2db8a"/>
    <rect x="311" y="100" width="5" height="1" fill="#a2db8a"/>
    <rect x="1" y="101" width="4" height="1" fill="#a2db8a"/>
    <rect x="40" y="101" width="3" height="1" fill="#a2db8a"/>
    <rect x="277" y="101" width="3" height="1" fill="#a2db8a"/>
    <rect x="311" y="101" width="5" height="1" fill="#a2db8a"/>
    <rect x="1" y="102" width="4" height="1" fill="#a2db8a"/>
    <rect x="40" y="102" width="3" height="1" fill="#a2db8a"/>
    <rect x="277" y="102" width="3" height="1" fill="#a2db8a"/>
    <rect x="311" y="102" width="5" height="1" fill="#a2db8a"/>
    <rect x="1" y="103" width="4" height="1" fill="#a2db8a"/>
    <rect x="40" y="103" width="3" height="1" fill="#a2db8a"/>
    <rect x="277" y="103" width="3" height="1" fill="#a2db8a"/>
    <rect x="311" y="103" width="5" height="1" fill="#a2db8a"/>
    <rect x="1" y="104" width="4" height="1" fill="#a2db8a"/>
    <rect x="40" y="104" width="3" height="1" fill="#a2db8a"/>
    <rect x="277" y="104" width="3" height="1" fill="#a2db8a"/>
    <rect x="311" y="104" width="5" height="1" fill="#a2db8a"/>
    <rect x="1" y="105" width="4" height="1" fill="#a2db8a"/>
    <rect x="40" y="105" width="3" height="1" fill="#a2db8a"/>
    <rect x="277" y="105" width="3" height="1" fill="#a2db8a"/>
    <rect x="311" y="105" width="5" height="1" fill="#a2db8a"/>
    <rect x="1" y="106" width="4" height="1" fill="#a2db8a"/>
    <rect x="40" y="106" width="3" height="1" fill="#a2db8a"/>
    <rect x="277" y="106" width="3" height="1" fill="#a2db8a"/>
    <rect x="311" y="106" width="5" height="1" fill="#a2db8a"/>
    <rect x="1" y="107" width="4" height="1" fill="#a2db8a"/>
    <rect x="40" y="107" width="3" height="1" fill="#a2db8a"/>
    <rect x="277" y="107" width="3" height="1" fill="#a2db8a"/>
    <rect x="311" y="107" width="5" height="1" fill="#a2db8a"/>
    <rect x="1" y="108" width="4" height="1" fill="#a2db8a"/>
    <rect x="40" y="108" width="3" height="1" fill="#a2db8a"/>
    <rect x="277" y="108" width="3" height="1" fill="#a2db8a"/>
    <rect x="311" y="108" width="5" height="1" fill="#a2db8a"/>
    <rect x="1" y="109" width="4" height="1" fill="#a2db8a"/>
    <rect x="40" y="109" width="3" height="1" fill="#a2db8a"/>
    <rect x="277" y="109" width="3" height="1" fill="#a2db8a"/>
    <rect x="311" y="109" width="5" height="1" fill="#a2db8a"/>
    <rect x="1" y="110" width="4" height="1" fill="#a2db8a"/>
    <rect x="40" y="110" width="3" height="1" fill="#a2db8a"/>
    <rect x="277" y="110" width="3" height="1" fill="#a2db8a"/>
    <rect x="311" y="110" width="5" height="1" fill="#a2db8a"/>
    <rect x="1" y="111" width="4" height="1" fill="#a2db8a"/>
    <rect x="40" y="111" width="3" height="1" fill="#a2db8a"/>
    <rect x="277" y="111" width="3" height="1" fill="#a2db8a"/>
    <rect x="311" y="111" width="5" height="1" fill="#a2db8a"/>
    <rect x="1" y="112" width="4" height="1" fill="#a2db8a"/>
    <rect x="40" y="112" width="3" height="1" fill="#a2db8a"/>
    <rect x="277" y="112" width="3" height="1" fill="#a2db8a"/>
    <rect x="311" y="112" width="5" height="1" fill="#a2db8a"/>
    <rect x="1" y="113" width="4" height="1" fill="#a2db8a"/>
    <rect x="40" y="113" width="3" height="1" fill="#a2db8a"/>
    <rect x="277" y="113" width="3" height="1" fill="#a2db8a"/>
    <rect x="311" y="113" width="5" height="1" fill="#a2db8a"/>
    <rect x="1" y="114" width="4" height="1" fill="#a2db8a"/>
    <rect x="40" y="114" width="3" height="1" fill="#a2db8a"/>
    <rect x="277" y="114" width="3" height="1" fill="#a2db8a"/>
    <rect x="311" y="114" width="5" height="1" fill="#a2db8a"/>
    <rect x="1" y="115" width="4" height="1" fill="#a2db8a"/>
    <rect x="40" y="115" width="3" height="1" fill="#a2db8a"/>
    <rect x="277" y="115" width="3" height="1" fill="#a2db8a"/>
    <rect x="311" y="115" width="5" height="1" fill="#a2db8a"/>
    <rect x="1" y="116" width="4" height="1" fill="#a2db8a"/>
    <rect x="40" y="116" width="3" height="1" fill="#a2db8a"/>
    <rect x="277" y="116" width="3" height="1" fill="#a2db8a"/>
    <rect x="311" y="116" width="5" height="1" fill="#a2db8a"/>
    <rect x="1" y="117" width="4" height="1" fill="#a2db8a"/>
    <rect x="40" y="117" width="3" height="1" fill="#a2db8a"/>
    <rect x="277" y="117" width="3" height="1" fill="#a2db8a"/>
    <rect x="311" y="117" width="5" height="1" fill="#a2db8a"/>
    <rect x="1" y="118" width="4" height="1" fill="#a2db8a"/>
    <rect x="40" y="118" width="3" height="1" fill="#a2db8a"/>
    <rect x="277" y="118" width="3" height="1" fill="#a2db8a"/>
    <rect x="311" y="118" width="5" height="1" fill="#a2db8a"/>
    <rect x="1" y="119" width="4" height="1" fill="#a2db8a"/>
    <rect x="40" y="119" width="3" height="1" fill="#a2db8a"/>
    <rect x="277" y="119" width="3" height="1" fill="#a2db8a"/>
    <rect x="311" y="119" width="5" height="1" fill="#a2db8a"/>
    <rect x="1" y="120" width="4" height="1" fill="#a2db8a"/>
    <rect x="40" y="120" width="3" height="1" fill="#a2db8a"/>
    <rect x="277" y="120" width="3" height="1" fill="#a2db8a"/>
    <rect x="311" y="120" width="5" height="1" fill="#a2db8a"/>
    <rect x="1" y="121" width="4" height="1" fill="#a2db8a"/>
    <rect x="40" y="121" width="3" height="1" fill="#a2db8a"/>
    <rect x="277" y="121" width="3" height="1" fill="#a2db8a"/>
    <rect x="311" y="121" width="5" height="1" fill="#a2db8a"/>
    <rect x="1" y="122" width="4" height="1" fill="#a2db8a"/>
    <rect x="40" y="122" width="3" height="1" fill="#a2db8a"/>
    <rect x="277" y="122" width="3" height="1" fill="#a2db8a"/>
    <rect x="311" y="122" width="5" height="1" fill="#a2db8a"/>
    <rect x="1" y="123" width="4" height="1" fill="#a2db8a"/>
    <rect x="40" y="123" width="3" height="1" fill="#a2db8a"/>
    <rect x="277" y="123" width="3" height="1" fill="#a2db8a"/>
    <rect x="311" y="123" width="5" height="1" fill="#a2db8a"/>
    <rect x="1" y="124" width="4" height="1" fill="#a2db8a"/>
    <rect x="40" y="124" width="3" height="1" fill="#a2db8a"/>
    <rect x="277" y="124" width="3" height="1" fill="#a2db8a"/>
    <rect x="311" y="124" width="5" height="1" fill="#a2db8a"/>
    <rect x="1" y="125" width="4" height="1" fill="#a2db8a"/>
    <rect x="40" y="125" width="3" height="1" fill="#a2db8a"/>
    <rect x="277" y="125" width="3" height="1" fill="#a2db8a"/>
    <rect x="311" y="125" width="5" height="1" fill="#a2db8a"/>
    <rect x="1" y="126" width="4" height="1" fill="#a2db8a"/>
    <rect x="40" y="126" width="3" height="1" fill="#a2db8a"/>
    <rect x="277" y="126" width="3" height="1" fill="#a2db8a"/>
    <rect x="311" y="126" width="5" height="1" fill="#a2db8a"/>
    <rect x="1" y="127" width="4" height="1" fill="#a2db8a"/>
    <rect x="40" y="127" width="3" height="1" fill="#a2db8a"/>
    <rect x="277" y="127" width="3" height="1" fill="#a2db8a"/>
    <rect x="311" y="127" width="5" height="1" fill="#a2db8a"/>
    <rect x="1" y="128" width="4" height="1" fill="#a2db8a"/>
    <rect x="40" y="128" width="3" height="1" fill="#a2db8a"/>
    <rect x="277" y="128" width="3" height="1" fill="#a2db8a"/>
    <rect x="311" y="128" width="5" height="1" fill="#a2db8a"/>
    <rect x="1" y="129" width="4" height="1" fill="#a2db8a"/>
    <rect x="40" y="129" width="3" height="1" fill="#a2db8a"/>
    <rect x="277" y="129" width="3" height="1" fill="#a2db8a"/>
    <rect x="311" y="129" width="5" height="1" fill="#a2db8a"/>
    <rect x="1" y="130" width="4" height="1" fill="#a2db8a"/>
    <rect x="40" y="130" width="3" height="1" fill="#a2db8a"/>
    <rect x="277" y="130" width="3" height="1" fill="#a2db8a"/>
    <rect x="311" y="130" width="5" height="1" fill="#a2db8a"/>
    <rect x="1" y="131" width="4" height="1" fill="#a2db8a"/>
    <rect x="40" y="131" width="3" height="1" fill="#a2db8a"/>
    <rect x="277" y="131" width="3" height="1" fill="#a2db8a"/>
    <rect x="311" y="131" width="5" height="1" fill="#a2db8a"/>
    <rect x="1" y="132" width="4" height="1" fill="#a2db8a"/>
    <rect x="40" y="132" width="3" height="1" fill="#a2db8a"/>
    <rect x="277" y="132" width="3" height="1" fill="#a2db8a"/>
    <rect x="311" y="132" width="5" height="1" fill="#a2db8a"/>
    <rect x="1" y="133" width="4" height="1" fill="#a2db8a"/>
    <rect x="40" y="133" width="3" height="1" fill="#a2db8a"/>
    <rect x="277" y="133" width="3" height="1" fill="#a2db8a"/>
    <rect x="311" y="133" width="5" height="1" fill="#a2db8a"/>
    <rect x="1" y="134" width="4" height="1" fill="#a2db8a"/>
    <rect x="40" y="134" width="3" height="1" fill="#a2db8a"/>
    <rect x="277" y="134" width="3" height="1" fill="#a2db8a"/>
    <rect x="311" y="134" width="5" height="1" fill="#a2db8a"/>
    <rect x="1" y="135" width="4" height="1" fill="#a2db8a"/>
    <rect x="40" y="135" width="3" height="1" fill="#a2db8a"/>
    <rect x="277" y="135" width="3" height="1" fill="#a2db8a"/>
    <rect x="311" y="135" width="5" height="1" fill="#a2db8a"/>
    <rect x="1" y="136" width="4" height="1" fill="#a2db8a"/>
    <rect x="40" y="136" width="3" height="1" fill="#a2db8a"/>
    <rect x="277" y="136" width="3" height="1" fill="#a2db8a"/>
    <rect x="311" y="136" width="5" height="1" fill="#a2db8a"/>
    <rect x="1" y="137" width="4" height="1" fill="#a2db8a"/>
    <rect x="40" y="137" width="3" height="1" fill="#a2db8a"/>
    <rect x="277" y="137" width="3" height="1" fill="#a2db8a"/>
    <rect x="311" y="137" width="5" height="1" fill="#a2db8a"/>
    <rect x="1" y="138" width="4" height="1" fill="#a2db8a"/>
    <rect x="40" y="138" width="3" height="1" fill="#a2db8a"/>
    <rect x="277" y="138" width="3" height="1" fill="#a2db8a"/>
    <rect x="311" y="138" width="5" height="1" fill="#a2db8a"/>
    <rect x="1" y="139" width="4" height="1" fill="#a2db8a"/>
    <rect x="40" y="139" width="3" height="1" fill="#a2db8a"/>
    <rect x="277" y="139" width="3" height="1" fill="#a2db8a"/>
    <rect x="311" y="139" width="5" height="1" fill="#a2db8a"/>
    <rect x="1" y="140" width="4" height="1" fill="#a2db8a"/>
    <rect x="40" y="140" width="3" height="1" fill="#a2db8a"/>
    <rect x="277" y="140" width="3" height="1" fill="#a2db8a"/>
    <rect x="311" y="140" width="5" height="1" fill="#a2db8a"/>
    <rect x="1" y="141" width="4" height="1" fill="#a2db8a"/>
    <rect x="40" y="141" width="3" height="1" fill="#a2db8a"/>
    <rect x="277" y="141" width="3" height="1" fill="#a2db8a"/>
    <rect x="311" y="141" width="5" height="1" fill="#a2db8a"/>
    <rect x="1" y="142" width="4" height="1" fill="#a2db8a"/>
    <rect x="40" y="142" width="3" height="1" fill="#a2db8a"/>
    <rect x="277" y="142" width="3" height="1" fill="#a2db8a"/>
    <rect x="311" y="142" width="5" height="1" fill="#a2db8a"/>
    <rect x="1" y="143" width="4" height="1" fill="#a2db8a"/>
    <rect x="40" y="143" width="3" height="1" fill="#a2db8a"/>
    <rect x="277" y="143" width="3" height="1" fill="#a2db8a"/>
    <rect x="311" y="143" width="5" height="1" fill="#a2db8a"/>
    <rect x="1" y="144" width="4" height="1" fill="#a2db8a"/>
    <rect x="40" y="144" width="3" height="1" fill="#a2db8a"/>
    <rect x="277" y="144" width="3" height="1" fill="#a2db8a"/>
    <rect x="311" y="144" width="5" height="1" fill="#a2db8a"/>
    <rect x="1" y="145" width="4" height="1" fill="#a2db8a"/>
    <rect x="40" y="145" width="3" height="1" fill="#a2db8a"/>
    <rect x="277" y="145" width="3" height="1" fill="#a2db8a"/>
    <rect x="311" y="145" width="5" height="1" fill="#a2db8a"/>
    <rect x="1" y="146" width="4" height="1" fill="#a2db8a"/>
    <rect x="40" y="146" width="3" height="1" fill="#a2db8a"/>
    <rect x="277" y="146" width="3" height="1" fill="#a2db8a"/>
    <rect x="311" y="146" width="5" height="1" fill="#a2db8a"/>
    <rect x="1" y="147" width="4" height="1" fill="#a2db8a"/>
    <rect x="40" y="147" width="3" height="1" fill="#a2db8a"/>
    <rect x="277" y="147" width="3" height="1" fill="#a2db8a"/>
    <rect x="311" y="147" width="5" height="1" fill="#a2db8a"/>
    <rect x="1" y="148" width="4" height="1" fill="#a2db8a"/>
    <rect x="40" y="148" width="3" height="1" fill="#a2db8a"/>
    <rect x="277" y="148" width="3" height="1" fill="#a2db8a"/>
    <rect x="311" y="148" width="5" height="1" fill="#a2db8a"/>
    <rect x="1" y="149" width="4" height="1" fill="#a2db8a"/>
    <rect x="40" y="149" width="240" height="1" fill="#a2db8a"/>
    <rect x="311" y="149" width="5" height="1" fill="#a2db8a"/>
    <rect x="1" y="150" width="4" height="1" fill="#a2db8a"/>
    <rect x="40" y="150" width="240" height="1" fill="#a2db8a"/>
    <rect x="311" y="150" width="5" height="1" fill="#a2db8a"/>
    <rect x="1" y="151" width="4" height="1" fill="#a2db8a"/>
    <rect x="40" y="151" width="239" height="1" fill="#a2db8a"/>
    <rect x="311" y="151" width="5" height="1" fill="#a2db8a"/>
    <rect x="1" y="152" width="4" height="1" fill="#a2db8a"/>
    <rect x="311" y="152" width="5" height="1" fill="#a2db8a"/>
    <rect x="1" y="153" width="4" height="1" fill="#a2db8a"/>
    <rect x="311" y="153" width="5" height="1" fill="#a2db8a"/>
    <rect x="1" y="154" width="4" height="1" fill="#a2db8a"/>
    <rect x="311" y="154" width="5" height="1" fill="#a2db8a"/>
    <rect x="1" y="155" width="4" height="1" fill="#a2db8a"/>
    <rect x="311" y="155" width="5" height="1" fill="#a2db8a"/>
    <rect x="1" y="156" width="4" height="1" fill="#a2db8a"/>
    <rect x="311" y="156" width="5" height="1" fill="#a2db8a"/>
    <rect x="1" y="157" width="4" height="1" fill="#a2db8a"/>
    <rect x="311" y="157" width="5" height="1" fill="#a2db8a"/>
    <rect x="1" y="158" width="4" height="1" fill="#a2db8a"/>
    <rect x="311" y="158" width="5" height="1" fill="#a2db8a"/>
    <rect x="1" y="159" width="4" height="1" fill="#a2db8a"/>
    <rect x="311" y="159" width="5" height="1" fill="#a2db8a"/>
    <rect x="1" y="160" width="4" height="1" fill="#a2db8a"/>
    <rect x="311" y="160" width="5" height="1" fill="#a2db8a"/>
    <rect x="1" y="161" width="4" height="1" fill="#a2db8a"/>
    <rect x="311" y="161" width="5" height="1" fill="#a2db8a"/>
    <rect x="1" y="162" width="4" height="1" fill="#a2db8a"/>
    <rect x="311" y="162" width="5" height="1" fill="#a2db8a"/>
    <rect x="1" y="163" width="4" height="1" fill="#a2db8a"/>
    <rect x="311" y="163" width="5" height="1" fill="#a2db8a"/>
    <rect x="1" y="164" width="4" height="1" fill="#a2db8a"/>
    <rect x="311" y="164" width="5" height="1" fill="#a2db8a"/>
    <rect x="1" y="165" width="4" height="1" fill="#a2db8a"/>
    <rect x="311" y="165" width="5" height="1" fill="#a2db8a"/>
    <rect x="1" y="166" width="4" height="1" fill="#a2db8a"/>
    <rect x="311" y="166" width="5" height="1" fill="#a2db8a"/>
    <rect x="1" y="167" width="4" height="1" fill="#a2db8a"/>
    <rect x="311" y="167" width="5" height="1" fill="#a2db8a"/>
    <rect x="1" y="168" width="4" height="1" fill="#a2db8a"/>
    <rect x="311" y="168" width="5" height="1" fill="#a2db8a"/>
    <rect x="1" y="169" width="4" height="1" fill="#a2db8a"/>
    <rect x="311" y="169" width="5" height="1" fill="#a2db8a"/>
    <rect x="1" y="170" width="4" height="1" fill="#a2db8a"/>
    <rect x="311" y="170" width="5" height="1" fill="#a2db8a"/>
    <rect x="1" y="171" width="4" height="1" fill="#a2db8a"/>
    <rect x="311" y="171" width="5" height="1" fill="#a2db8a"/>
    <rect x="1" y="172" width="4" height="1" fill="#a2db8a"/>
    <rect x="311" y="172" width="5" height="1" fill="#a2db8a"/>
    <rect x="1" y="173" width="4" height="1" fill="#a2db8a"/>
    <rect x="311" y="173" width="5" height="1" fill="#a2db8a"/>
    <rect x="1" y="174" width="315" height="1" fill="#a2db8a"/>
    <rect x="1" y="175" width="315" height="1" fill="#a2db8a"/>
    <rect x="1" y="176" width="315" height="1" fill="#a2db8a"/>
    <rect x="2" y="177" width="314" height="1" fill="#a2db8a"/>
  </g>
</svg>