<?xml version="1.0" encoding="UTF-8"?>
<svg xmlns="http://www.w3.org/2000/svg" viewBox="0 0 61 145" width="61" height="145">
  <!-- Auto-converted from legend-1321.png -->
  <rect x="0" y="0" width="61" height="145" fill="none"/>
  <g fill="#231f20" stroke="none">
    <rect x="0" y="0" width="61" height="1" fill="#231f20"/>
    <rect x="0" y="1" width="1" height="1" fill="#231f20"/>
    <rect x="60" y="1" width="1" height="1" fill="#231f20"/>
    <rect x="0" y="2" width="1" height="1" fill="#231f20"/>
    <rect x="60" y="2" width="1" height="1" fill="#231f20"/>
    <rect x="0" y="3" width="1" height="1" fill="#231f20"/>
    <rect x="60" y="3" width="1" height="1" fill="#231f20"/>
    <rect x="0" y="4" width="1" height="1" fill="#231f20"/>
    <rect x="60" y="4" width="1" height="1" fill="#231f20"/>
    <rect x="0" y="5" width="1" height="1" fill="#231f20"/>
    <rect x="60" y="5" width="1" height="1" fill="#231f20"/>
    <rect x="0" y="6" width="1" height="1" fill="#231f20"/>
    <rect x="60" y="6" width="1" height="1" fill="#231f20"/>
    <rect x="0" y="7" width="1" height="1" fill="#231f20"/>
    <rect x="60" y="7" width="1" height="1" fill="#231f20"/>
    <rect x="0" y="8" width="1" height="1" fill="#231f20"/>
    <rect x="60" y="8" width="1" height="1" fill="#231f20"/>
    <rect x="0" y="9" width="1" height="1" fill="#231f20"/>
    <rect x="60" y="9" width="1" height="1" fill="#231f20"/>
    <rect x="0" y="10" width="1" height="1" fill="#231f20"/>
    <rect x="60" y="10" width="1" height="1" fill="#231f20"/>
    <rect x="0" y="11" width="1" height="1" fill="#231f20"/>
    <rect x="60" y="11" width="1" height="1" fill="#231f20"/>
    <rect x="0" y="12" width="1" height="1" fill="#231f20"/>
    <rect x="60" y="12" width="1" height="1" fill="#231f20"/>
    <rect x="0" y="13" width="1" height="1" fill="#231f20"/>
    <rect x="60" y="13" width="1" height="1" fill="#231f20"/>
    <rect x="0" y="14" width="1" height="1" fill="#231f20"/>
    <rect x="12" y="14" width="49" height="1" fill="#231f20"/>
    <rect x="0" y="15" width="1" height="1" fill="#231f20"/>
    <rect x="60" y="15" width="1" height="1" fill="#231f20"/>
    <rect x="0" y="16" width="1" height="1" fill="#231f20"/>
    <rect x="60" y="16" width="1" height="1" fill="#231f20"/>
    <rect x="0" y="17" width="1" height="1" fill="#231f20"/>
    <rect x="60" y="17" width="1" height="1" fill="#231f20"/>
    <rect x="0" y="18" width="1" height="1" fill="#231f20"/>
    <rect x="60" y="18" width="1" height="1" fill="#231f20"/>
    <rect x="0" y="19" width="1" height="1" fill="#231f20"/>
    <rect x="60" y="19" width="1" height="1" fill="#231f20"/>
    <rect x="0" y="20" width="1" height="1" fill="#231f20"/>
    <rect x="60" y="20" width="1" height="1" fill="#231f20"/>
    <rect x="0" y="21" width="1" height="1" fill="#231f20"/>
    <rect x="60" y="21" width="1" height="1" fill="#231f20"/>
    <rect x="0" y="22" width="1" height="1" fill="#231f20"/>
    <rect x="60" y="22" width="1" height="1" fill="#231f20"/>
    <rect x="0" y="23" width="1" height="1" fill="#231f20"/>
    <rect x="60" y="23" width="1" height="1" fill="#231f20"/>
    <rect x="0" y="24" width="1" height="1" fill="#231f20"/>
    <rect x="60" y="24" width="1" height="1" fill="#231f20"/>
    <rect x="0" y="25" width="1" height="1" fill="#231f20"/>
    <rect x="60" y="25" width="1" height="1" fill="#231f20"/>
    <rect x="0" y="26" width="11" height="1" fill="#231f20"/>
    <rect x="60" y="26" width="1" height="1" fill="#231f20"/>
    <rect x="0" y="27" width="1" height="1" fill="#231f20"/>
    <rect x="2" y="27" width="8" height="1" fill="#231f20"/>
    <rect x="60" y="27" width="1" height="1" fill="#231f20"/>
    <rect x="0" y="28" width="1" height="1" fill="#231f20"/>
    <rect x="2" y="28" width="8" height="1" fill="#231f20"/>
    <rect x="60" y="28" width="1" height="1" fill="#231f20"/>
    <rect x="0" y="29" width="1" height="1" fill="#231f20"/>
    <rect x="3" y="29" width="6" height="1" fill="#231f20"/>
    <rect x="12" y="29" width="49" height="1" fill="#231f20"/>
    <rect x="0" y="30" width="1" height="1" fill="#231f20"/>
    <rect x="4" y="30" width="5" height="1" fill="#231f20"/>
    <rect x="60" y="30" width="1" height="1" fill="#231f20"/>
    <rect x="0" y="31" width="1" height="1" fill="#231f20"/>
    <rect x="5" y="31" width="3" height="1" fill="#231f20"/>
    <rect x="60" y="31" width="1" height="1" fill="#231f20"/>
    <rect x="0" y="32" width="1" height="1" fill="#231f20"/>
    <rect x="5" y="32" width="3" height="1" fill="#231f20"/>
    <rect x="60" y="32" width="1" height="1" fill="#231f20"/>
    <rect x="0" y="33" width="1" height="1" fill="#231f20"/>
    <rect x="6" y="33" width="1" height="1" fill="#231f20"/>
    <rect x="60" y="33" width="1" height="1" fill="#231f20"/>
    <rect x="0" y="34" width="1" height="1" fill="#231f20"/>
    <rect x="60" y="34" width="1" height="1" fill="#231f20"/>
    <rect x="0" y="35" width="1" height="1" fill="#231f20"/>
    <rect x="60" y="35" width="1" height="1" fill="#231f20"/>
    <rect x="0" y="36" width="1" height="1" fill="#231f20"/>
    <rect x="60" y="36" width="1" height="1" fill="#231f20"/>
    <rect x="0" y="37" width="1" height="1" fill="#231f20"/>
    <rect x="60" y="37" width="1" height="1" fill="#231f20"/>
    <rect x="0" y="38" width="1" height="1" fill="#231f20"/>
    <rect x="60" y="38" width="1" height="1" fill="#231f20"/>
    <rect x="0" y="39" width="1" height="1" fill="#231f20"/>
    <rect x="60" y="39" width="1" height="1" fill="#231f20"/>
    <rect x="0" y="40" width="1" height="1" fill="#231f20"/>
    <rect x="60" y="40" width="1" height="1" fill="#231f20"/>
    <rect x="0" y="41" width="1" height="1" fill="#231f20"/>
    <rect x="60" y="41" width="1" height="1" fill="#231f20"/>
    <rect x="0" y="42" width="1" height="1" fill="#231f20"/>
    <rect x="60" y="42" width="1" height="1" fill="#231f20"/>
    <rect x="0" y="43" width="1" height="1" fill="#231f20"/>
    <rect x="12" y="43" width="49" height="1" fill="#231f20"/>
    <rect x="0" y="44" width="1" height="1" fill="#231f20"/>
    <rect x="60" y="44" width="1" height="1" fill="#231f20"/>
    <rect x="0" y="45" width="1" height="1" fill="#231f20"/>
    <rect x="60" y="45" width="1" height="1" fill="#231f20"/>
    <rect x="0" y="46" width="1" height="1" fill="#231f20"/>
    <rect x="60" y="46" width="1" height="1" fill="#231f20"/>
    <rect x="0" y="47" width="1" height="1" fill="#231f20"/>
    <rect x="60" y="47" width="1" height="1" fill="#231f20"/>
    <rect x="0" y="48" width="1" height="1" fill="#231f20"/>
    <rect x="60" y="48" width="1" height="1" fill="#231f20"/>
    <rect x="0" y="49" width="1" height="1" fill="#231f20"/>
    <rect x="60" y="49" width="1" height="1" fill="#231f20"/>
    <rect x="0" y="50" width="1" height="1" fill="#231f20"/>
    <rect x="60" y="50" width="1" height="1" fill="#231f20"/>
    <rect x="0" y="51" width="1" height="1" fill="#231f20"/>
    <rect x="60" y="51" width="1" height="1" fill="#231f20"/>
    <rect x="0" y="52" width="1" height="1" fill="#231f20"/>
    <rect x="60" y="52" width="1" height="1" fill="#231f20"/>
    <rect x="0" y="53" width="1" height="1" fill="#231f20"/>
    <rect x="60" y="53" width="1" height="1" fill="#231f20"/>
    <rect x="0" y="54" width="1" height="1" fill="#231f20"/>
    <rect x="60" y="54" width="1" height="1" fill="#231f20"/>
    <rect x="0" y="55" width="1" height="1" fill="#231f20"/>
    <rect x="60" y="55" width="1" height="1" fill="#231f20"/>
    <rect x="0" y="56" width="1" height="1" fill="#231f20"/>
    <rect x="60" y="56" width="1" height="1" fill="#231f20"/>
    <rect x="0" y="57" width="1" height="1" fill="#231f20"/>
    <rect x="60" y="57" width="1" height="1" fill="#231f20"/>
    <rect x="0" y="58" width="49" height="1" fill="#231f20"/>
    <rect x="60" y="58" width="1" height="1" fill="#231f20"/>
    <rect x="0" y="59" width="1" height="1" fill="#231f20"/>
    <rect x="60" y="59" width="1" height="1" fill="#231f20"/>
    <rect x="0" y="60" width="1" height="1" fill="#231f20"/>
    <rect x="60" y="60" width="1" height="1" fill="#231f20"/>
    <rect x="0" y="61" width="1" height="1" fill="#231f20"/>
    <rect x="60" y="61" width="1" height="1" fill="#231f20"/>
    <rect x="0" y="62" width="1" height="1" fill="#231f20"/>
    <rect x="60" y="62" width="1" height="1" fill="#231f20"/>
    <rect x="0" y="63" width="1" height="1" fill="#231f20"/>
    <rect x="60" y="63" width="1" height="1" fill="#231f20"/>
    <rect x="0" y="64" width="1" height="1" fill="#231f20"/>
    <rect x="60" y="64" width="1" height="1" fill="#231f20"/>
    <rect x="0" y="65" width="1" height="1" fill="#231f20"/>
    <rect x="60" y="65" width="1" height="1" fill="#231f20"/>
    <rect x="0" y="66" width="1" height="1" fill="#231f20"/>
    <rect x="60" y="66" width="1" height="1" fill="#231f20"/>
    <rect x="0" y="67" width="1" height="1" fill="#231f20"/>
    <rect x="60" y="67" width="1" height="1" fill="#231f20"/>
    <rect x="0" y="68" width="1" height="1" fill="#231f20"/>
    <rect x="60" y="68" width="1" height="1" fill="#231f20"/>
    <rect x="0" y="69" width="1" height="1" fill="#231f20"/>
    <rect x="49" y="69" width="10" height="1" fill="#231f20"/>
    <rect x="60" y="69" width="1" height="1" fill="#231f20"/>
    <rect x="0" y="70" width="1" height="1" fill="#231f20"/>
    <rect x="50" y="70" width="9" height="1" fill="#231f20"/>
    <rect x="60" y="70" width="1" height="1" fill="#231f20"/>
    <rect x="0" y="71" width="1" height="1" fill="#231f20"/>
    <rect x="50" y="71" width="8" height="1" fill="#231f20"/>
    <rect x="60" y="71" width="1" height="1" fill="#231f20"/>
    <rect x="0" y="72" width="49" height="1" fill="#231f20"/>
    <rect x="51" y="72" width="7" height="1" fill="#231f20"/>
    <rect x="60" y="72" width="1" height="1" fill="#231f20"/>
    <rect x="0" y="73" width="1" height="1" fill="#231f20"/>
    <rect x="52" y="73" width="5" height="1" fill="#231f20"/>
    <rect x="60" y="73" width="1" height="1" fill="#231f20"/>
    <rect x="0" y="74" width="1" height="1" fill="#231f20"/>
    <rect x="52" y="74" width="5" height="1" fill="#231f20"/>
    <rect x="60" y="74" width="1" height="1" fill="#231f20"/>
    <rect x="0" y="75" width="1" height="1" fill="#231f20"/>
    <rect x="53" y="75" width="3" height="1" fill="#231f20"/>
    <rect x="60" y="75" width="1" height="1" fill="#231f20"/>
    <rect x="0" y="76" width="1" height="1" fill="#231f20"/>
    <rect x="53" y="76" width="3" height="1" fill="#231f20"/>
    <rect x="60" y="76" width="1" height="1" fill="#231f20"/>
    <rect x="0" y="77" width="1" height="1" fill="#231f20"/>
    <rect x="54" y="77" width="1" height="1" fill="#231f20"/>
    <rect x="60" y="77" width="1" height="1" fill="#231f20"/>
    <rect x="0" y="78" width="1" height="1" fill="#231f20"/>
    <rect x="60" y="78" width="1" height="1" fill="#231f20"/>
    <rect x="0" y="79" width="1" height="1" fill="#231f20"/>
    <rect x="60" y="79" width="1" height="1" fill="#231f20"/>
    <rect x="0" y="80" width="1" height="1" fill="#231f20"/>
    <rect x="60" y="80" width="1" height="1" fill="#231f20"/>
    <rect x="0" y="81" width="1" height="1" fill="#231f20"/>
    <rect x="60" y="81" width="1" height="1" fill="#231f20"/>
    <rect x="0" y="82" width="1" height="1" fill="#231f20"/>
    <rect x="60" y="82" width="1" height="1" fill="#231f20"/>
    <rect x="0" y="83" width="1" height="1" fill="#231f20"/>
    <rect x="60" y="83" width="1" height="1" fill="#231f20"/>
    <rect x="0" y="84" width="1" height="1" fill="#231f20"/>
    <rect x="60" y="84" width="1" height="1" fill="#231f20"/>
    <rect x="0" y="85" width="1" height="1" fill="#231f20"/>
    <rect x="60" y="85" width="1" height="1" fill="#231f20"/>
    <rect x="0" y="86" width="1" height="1" fill="#231f20"/>
    <rect x="60" y="86" width="1" height="1" fill="#231f20"/>
    <rect x="0" y="87" width="49" height="1" fill="#231f20"/>
    <rect x="60" y="87" width="1" height="1" fill="#231f20"/>
    <rect x="0" y="88" width="1" height="1" fill="#231f20"/>
    <rect x="60" y="88" width="1" height="1" fill="#231f20"/>
    <rect x="0" y="89" width="1" height="1" fill="#231f20"/>
    <rect x="60" y="89" width="1" height="1" fill="#231f20"/>
    <rect x="0" y="90" width="1" height="1" fill="#231f20"/>
    <rect x="60" y="90" width="1" height="1" fill="#231f20"/>
    <rect x="0" y="91" width="1" height="1" fill="#231f20"/>
    <rect x="60" y="91" width="1" height="1" fill="#231f20"/>
    <rect x="0" y="92" width="1" height="1" fill="#231f20"/>
    <rect x="60" y="92" width="1" height="1" fill="#231f20"/>
    <rect x="0" y="93" width="1" height="1" fill="#231f20"/>
    <rect x="60" y="93" width="1" height="1" fill="#231f20"/>
    <rect x="0" y="94" width="1" height="1" fill="#231f20"/>
    <rect x="60" y="94" width="1" height="1" fill="#231f20"/>
    <rect x="0" y="95" width="1" height="1" fill="#231f20"/>
    <rect x="60" y="95" width="1" height="1" fill="#231f20"/>
    <rect x="0" y="96" width="1" height="1" fill="#231f20"/>
    <rect x="60" y="96" width="1" height="1" fill="#231f20"/>
    <rect x="0" y="97" width="1" height="1" fill="#231f20"/>
    <rect x="60" y="97" width="1" height="1" fill="#231f20"/>
    <rect x="0" y="98" width="1" height="1" fill="#231f20"/>
    <rect x="60" y="98" width="1" height="1" fill="#231f20"/>
    <rect x="0" y="99" width="1" height="1" fill="#231f20"/>
    <rect x="60" y="99" width="1" height="1" fill="#231f20"/>
    <rect x="0" y="100" width="1" height="1" fill="#231f20"/>
    <rect x="60" y="100" width="1" height="1" fill="#231f20"/>
    <rect x="0" y="101" width="1" height="1" fill="#231f20"/>
    <rect x="12" y="101" width="49" height="1" fill="#231f20"/>
    <rect x="0" y="102" width="1" height="1" fill="#231f20"/>
    <rect x="60" y="102" width="1" height="1" fill="#231f20"/>
    <rect x="0" y="103" width="1" height="1" fill="#231f20"/>
    <rect x="60" y="103" width="1" height="1" fill="#231f20"/>
    <rect x="0" y="104" width="1" height="1" fill="#231f20"/>
    <rect x="60" y="104" width="1" height="1" fill="#231f20"/>
    <rect x="0" y="105" width="1" height="1" fill="#231f20"/>
    <rect x="60" y="105" width="1" height="1" fill="#231f20"/>
    <rect x="0" y="106" width="1" height="1" fill="#231f20"/>
    <rect x="60" y="106" width="1" height="1" fill="#231f20"/>
    <rect x="0" y="107" width="1" height="1" fill="#231f20"/>
    <rect x="60" y="107" width="1" height="1" fill="#231f20"/>
    <rect x="0" y="108" width="1" height="1" fill="#231f20"/>
    <rect x="60" y="108" width="1" height="1" fill="#231f20"/>
    <rect x="0" y="109" width="1" height="1" fill="#231f20"/>
    <rect x="60" y="109" width="1" height="1" fill="#231f20"/>
    <rect x="0" y="110" width="1" height="1" fill="#231f20"/>
    <rect x="60" y="110" width="1" height="1" fill="#231f20"/>
    <rect x="0" y="111" width="1" height="1" fill="#231f20"/>
    <rect x="60" y="111" width="1" height="1" fill="#231f20"/>
    <rect x="0" y="112" width="1" height="1" fill="#231f20"/>
    <rect x="60" y="112" width="1" height="1" fill="#231f20"/>
    <rect x="0" y="113" width="11" height="1" fill="#231f20"/>
    <rect x="60" y="113" width="1" height="1" fill="#231f20"/>
    <rect x="0" y="114" width="1" height="1" fill="#231f20"/>
    <rect x="2" y="114" width="8" height="1" fill="#231f20"/>
    <rect x="60" y="114" width="1" height="1" fill="#231f20"/>
    <rect x="0" y="115" width="1" height="1" fill="#231f20"/>
    <rect x="2" y="115" width="8" height="1" fill="#231f20"/>
    <rect x="12" y="115" width="49" height="1" fill="#231f20"/>
    <rect x="0" y="116" width="1" height="1" fill="#231f20"/>
    <rect x="3" y="116" width="6" height="1" fill="#231f20"/>
    <rect x="60" y="116" width="1" height="1" fill="#231f20"/>
    <rect x="0" y="117" width="1" height="1" fill="#231f20"/>
    <rect x="4" y="117" width="5" height="1" fill="#231f20"/>
    <rect x="60" y="117" width="1" height="1" fill="#231f20"/>
    <rect x="0" y="118" width="1" height="1" fill="#231f20"/>
    <rect x="5" y="118" width="3" height="1" fill="#231f20"/>
    <rect x="60" y="118" width="1" height="1" fill="#231f20"/>
    <rect x="0" y="119" width="1" height="1" fill="#231f20"/>
    <rect x="5" y="119" width="3" height="1" fill="#231f20"/>
    <rect x="60" y="119" width="1" height="1" fill="#231f20"/>
    <rect x="0" y="120" width="1" height="1" fill="#231f20"/>
    <rect x="6" y="120" width="1" height="1" fill="#231f20"/>
    <rect x="60" y="120" width="1" height="1" fill="#231f20"/>
    <rect x="0" y="121" width="1" height="1" fill="#231f20"/>
    <rect x="60" y="121" width="1" height="1" fill="#231f20"/>
    <rect x="0" y="122" width="1" height="1" fill="#231f20"/>
    <rect x="60" y="122" width="1" height="1" fill="#231f20"/>
    <rect x="0" y="123" width="1" height="1" fill="#231f20"/>
    <rect x="60" y="123" width="1" height="1" fill="#231f20"/>
    <rect x="0" y="124" width="1" height="1" fill="#231f20"/>
    <rect x="60" y="124" width="1" height="1" fill="#231f20"/>
    <rect x="0" y="125" width="1" height="1" fill="#231f20"/>
    <rect x="60" y="125" width="1" height="1" fill="#231f20"/>
    <rect x="0" y="126" width="1" height="1" fill="#231f20"/>
    <rect x="60" y="126" width="1" height="1" fill="#231f20"/>
    <rect x="0" y="127" width="1" height="1" fill="#231f20"/>
    <rect x="60" y="127" width="1" height="1" fill="#231f20"/>
    <rect x="0" y="128" width="1" height="1" fill="#231f20"/>
    <rect x="60" y="128" width="1" height="1" fill="#231f20"/>
    <rect x="0" y="129" width="1" height="1" fill="#231f20"/>
    <rect x="60" y="129" width="1" height="1" fill="#231f20"/>
    <rect x="0" y="130" width="1" height="1" fill="#231f20"/>
    <rect x="12" y="130" width="49" height="1" fill="#231f20"/>
    <rect x="0" y="131" width="1" height="1" fill="#231f20"/>
    <rect x="60" y="131" width="1" height="1" fill="#231f20"/>
    <rect x="0" y="132" width="1" height="1" fill="#231f20"/>
    <rect x="60" y="132" width="1" height="1" fill="#231f20"/>
    <rect x="0" y="133" width="1" height="1" fill="#231f20"/>
    <rect x="60" y="133" width="1" height="1" fill="#231f20"/>
    <rect x="0" y="134" width="1" height="1" fill="#231f20"/>
    <rect x="60" y="134" width="1" height="1" fill="#231f20"/>
    <rect x="0" y="135" width="1" height="1" fill="#231f20"/>
    <rect x="60" y="135" width="1" height="1" fill="#231f20"/>
    <rect x="0" y="136" width="1" height="1" fill="#231f20"/>
    <rect x="60" y="136" width="1" height="1" fill="#231f20"/>
    <rect x="0" y="137" width="1" height="1" fill="#231f20"/>
    <rect x="60" y="137" width="1" height="1" fill="#231f20"/>
    <rect x="0" y="138" width="1" height="1" fill="#231f20"/>
    <rect x="60" y="138" width="1" height="1" fill="#231f20"/>
    <rect x="0" y="139" width="1" height="1" fill="#231f20"/>
    <rect x="60" y="139" width="1" height="1" fill="#231f20"/>
    <rect x="0" y="140" width="1" height="1" fill="#231f20"/>
    <rect x="60" y="140" width="1" height="1" fill="#231f20"/>
    <rect x="0" y="141" width="1" height="1" fill="#231f20"/>
    <rect x="60" y="141" width="1" height="1" fill="#231f20"/>
    <rect x="0" y="142" width="1" height="1" fill="#231f20"/>
    <rect x="60" y="142" width="1" height="1" fill="#231f20"/>
    <rect x="0" y="143" width="1" height="1" fill="#231f20"/>
    <rect x="60" y="143" width="1" height="1" fill="#231f20"/>
    <rect x="0" y="144" width="61" height="1" fill="#231f20"/>
  </g>
</svg>