<?xml version="1.0" encoding="UTF-8"?>
<svg xmlns="http://www.w3.org/2000/svg" viewBox="0 0 172 69" width="172" height="69">
  <!-- Auto-converted from legend-2430.png -->
  <rect x="0" y="0" width="172" height="69" fill="none"/>
  <g fill="#000000" stroke="none">
    <rect x="0" y="0" width="172" height="1" fill="#000000"/>
    <rect x="0" y="1" width="1" height="1" fill="#000000"/>
    <rect x="171" y="1" width="1" height="1" fill="#000000"/>
    <rect x="0" y="2" width="1" height="1" fill="#000000"/>
    <rect x="171" y="2" width="1" height="1" fill="#000000"/>
    <rect x="0" y="3" width="1" height="1" fill="#000000"/>
    <rect x="171" y="3" width="1" height="1" fill="#000000"/>
    <rect x="0" y="4" width="1" height="1" fill="#000000"/>
    <rect x="171" y="4" width="1" height="1" fill="#000000"/>
    <rect x="0" y="5" width="1" height="1" fill="#000000"/>
    <rect x="171" y="5" width="1" height="1" fill="#000000"/>
    <rect x="0" y="6" width="1" height="1" fill="#000000"/>
    <rect x="171" y="6" width="1" height="1" fill="#000000"/>
    <rect x="0" y="7" width="1" height="1" fill="#000000"/>
    <rect x="171" y="7" width="1" height="1" fill="#000000"/>
    <rect x="0" y="8" width="1" height="1" fill="#000000"/>
    <rect x="171" y="8" width="1" height="1" fill="#000000"/>
    <rect x="0" y="9" width="1" height="1" fill="#000000"/>
    <rect x="171" y="9" width="1" height="1" fill="#000000"/>
    <rect x="0" y="10" width="1" height="1" fill="#000000"/>
    <rect x="171" y="10" width="1" height="1" fill="#000000"/>
    <rect x="0" y="11" width="1" height="1" fill="#000000"/>
    <rect x="171" y="11" width="1" height="1" fill="#000000"/>
    <rect x="0" y="12" width="1" height="1" fill="#000000"/>
    <rect x="171" y="12" width="1" height="1" fill="#000000"/>
    <rect x="0" y="13" width="1" height="1" fill="#000000"/>
    <rect x="171" y="13" width="1" height="1" fill="#000000"/>
    <rect x="0" y="14" width="1" height="1" fill="#000000"/>
    <rect x="171" y="14" width="1" height="1" fill="#000000"/>
    <rect x="0" y="15" width="1" height="1" fill="#000000"/>
    <rect x="171" y="15" width="1" height="1" fill="#000000"/>
    <rect x="0" y="16" width="1" height="1" fill="#000000"/>
    <rect x="171" y="16" width="1" height="1" fill="#000000"/>
    <rect x="0" y="17" width="1" height="1" fill="#000000"/>
    <rect x="171" y="17" width="1" height="1" fill="#000000"/>
    <rect x="0" y="18" width="1" height="1" fill="#000000"/>
    <rect x="171" y="18" width="1" height="1" fill="#000000"/>
    <rect x="0" y="19" width="1" height="1" fill="#000000"/>
    <rect x="171" y="19" width="1" height="1" fill="#000000"/>
    <rect x="0" y="20" width="1" height="1" fill="#000000"/>
    <rect x="77" y="20" width="2" height="1" fill="#000000"/>
    <rect x="171" y="20" width="1" height="1" fill="#000000"/>
    <rect x="0" y="21" width="1" height="1" fill="#000000"/>
    <rect x="77" y="21" width="3" height="1" fill="#000000"/>
    <rect x="171" y="21" width="1" height="1" fill="#000000"/>
    <rect x="0" y="22" width="1" height="1" fill="#000000"/>
    <rect x="76" y="22" width="4" height="1" fill="#000000"/>
    <rect x="171" y="22" width="1" height="1" fill="#000000"/>
    <rect x="0" y="23" width="1" height="1" fill="#000000"/>
    <rect x="76" y="23" width="5" height="1" fill="#000000"/>
    <rect x="171" y="23" width="1" height="1" fill="#000000"/>
    <rect x="0" y="24" width="1" height="1" fill="#000000"/>
    <rect x="76" y="24" width="5" height="1" fill="#000000"/>
    <rect x="171" y="24" width="1" height="1" fill="#000000"/>
    <rect x="0" y="25" width="1" height="1" fill="#000000"/>
    <rect x="75" y="25" width="6" height="1" fill="#000000"/>
    <rect x="171" y="25" width="1" height="1" fill="#000000"/>
    <rect x="0" y="26" width="1" height="1" fill="#000000"/>
    <rect x="75" y="26" width="7" height="1" fill="#000000"/>
    <rect x="171" y="26" width="1" height="1" fill="#000000"/>
    <rect x="0" y="27" width="1" height="1" fill="#000000"/>
    <rect x="74" y="27" width="8" height="1" fill="#000000"/>
    <rect x="171" y="27" width="1" height="1" fill="#000000"/>
    <rect x="0" y="28" width="1" height="1" fill="#000000"/>
    <rect x="74" y="28" width="3" height="1" fill="#000000"/>
    <rect x="78" y="28" width="5" height="1" fill="#000000"/>
    <rect x="171" y="28" width="1" height="1" fill="#000000"/>
    <rect x="0" y="29" width="1" height="1" fill="#000000"/>
    <rect x="74" y="29" width="3" height="1" fill="#000000"/>
    <rect x="78" y="29" width="5" height="1" fill="#000000"/>
    <rect x="97" y="29" width="4" height="1" fill="#000000"/>
    <rect x="103" y="29" width="5" height="1" fill="#000000"/>
    <rect x="171" y="29" width="1" height="1" fill="#000000"/>
    <rect x="0" y="30" width="1" height="1" fill="#000000"/>
    <rect x="73" y="30" width="3" height="1" fill="#000000"/>
    <rect x="79" y="30" width="4" height="1" fill="#000000"/>
    <rect x="94" y="30" width="7" height="1" fill="#000000"/>
    <rect x="102" y="30" width="6" height="1" fill="#000000"/>
    <rect x="171" y="30" width="1" height="1" fill="#000000"/>
    <rect x="0" y="31" width="1" height="1" fill="#000000"/>
    <rect x="73" y="31" width="3" height="1" fill="#000000"/>
    <rect x="79" y="31" width="5" height="1" fill="#000000"/>
    <rect x="94" y="31" width="14" height="1" fill="#000000"/>
    <rect x="171" y="31" width="1" height="1" fill="#000000"/>
    <rect x="0" y="32" width="1" height="1" fill="#000000"/>
    <rect x="72" y="32" width="3" height="1" fill="#000000"/>
    <rect x="79" y="32" width="5" height="1" fill="#000000"/>
    <rect x="96" y="32" width="7" height="1" fill="#000000"/>
    <rect x="104" y="32" width="4" height="1" fill="#000000"/>
    <rect x="171" y="32" width="1" height="1" fill="#000000"/>
    <rect x="0" y="33" width="1" height="1" fill="#000000"/>
    <rect x="72" y="33" width="3" height="1" fill="#000000"/>
    <rect x="80" y="33" width="5" height="1" fill="#000000"/>
    <rect x="97" y="33" width="5" height="1" fill="#000000"/>
    <rect x="171" y="33" width="1" height="1" fill="#000000"/>
    <rect x="0" y="34" width="1" height="1" fill="#000000"/>
    <rect x="72" y="34" width="3" height="1" fill="#000000"/>
    <rect x="80" y="34" width="5" height="1" fill="#000000"/>
    <rect x="97" y="34" width="5" height="1" fill="#000000"/>
    <rect x="171" y="34" width="1" height="1" fill="#000000"/>
    <rect x="0" y="35" width="1" height="1" fill="#000000"/>
    <rect x="71" y="35" width="3" height="1" fill="#000000"/>
    <rect x="80" y="35" width="5" height="1" fill="#000000"/>
    <rect x="97" y="35" width="4" height="1" fill="#000000"/>
    <rect x="171" y="35" width="1" height="1" fill="#000000"/>
    <rect x="0" y="36" width="1" height="1" fill="#000000"/>
    <rect x="71" y="36" width="3" height="1" fill="#000000"/>
    <rect x="81" y="36" width="5" height="1" fill="#000000"/>
    <rect x="97" y="36" width="4" height="1" fill="#000000"/>
    <rect x="171" y="36" width="1" height="1" fill="#000000"/>
    <rect x="0" y="37" width="1" height="1" fill="#000000"/>
    <rect x="70" y="37" width="3" height="1" fill="#000000"/>
    <rect x="81" y="37" width="5" height="1" fill="#000000"/>
    <rect x="97" y="37" width="4" height="1" fill="#000000"/>
    <rect x="171" y="37" width="1" height="1" fill="#000000"/>
    <rect x="0" y="38" width="1" height="1" fill="#000000"/>
    <rect x="70" y="38" width="17" height="1" fill="#000000"/>
    <rect x="97" y="38" width="4" height="1" fill="#000000"/>
    <rect x="171" y="38" width="1" height="1" fill="#000000"/>
    <rect x="0" y="39" width="1" height="1" fill="#000000"/>
    <rect x="69" y="39" width="18" height="1" fill="#000000"/>
    <rect x="97" y="39" width="4" height="1" fill="#000000"/>
    <rect x="171" y="39" width="1" height="1" fill="#000000"/>
    <rect x="0" y="40" width="1" height="1" fill="#000000"/>
    <rect x="69" y="40" width="3" height="1" fill="#000000"/>
    <rect x="82" y="40" width="5" height="1" fill="#000000"/>
    <rect x="97" y="40" width="4" height="1" fill="#000000"/>
    <rect x="171" y="40" width="1" height="1" fill="#000000"/>
    <rect x="0" y="41" width="1" height="1" fill="#000000"/>
    <rect x="69" y="41" width="3" height="1" fill="#000000"/>
    <rect x="83" y="41" width="5" height="1" fill="#000000"/>
    <rect x="97" y="41" width="4" height="1" fill="#000000"/>
    <rect x="171" y="41" width="1" height="1" fill="#000000"/>
    <rect x="0" y="42" width="1" height="1" fill="#000000"/>
    <rect x="68" y="42" width="3" height="1" fill="#000000"/>
    <rect x="83" y="42" width="5" height="1" fill="#000000"/>
    <rect x="97" y="42" width="4" height="1" fill="#000000"/>
    <rect x="171" y="42" width="1" height="1" fill="#000000"/>
    <rect x="0" y="43" width="1" height="1" fill="#000000"/>
    <rect x="68" y="43" width="3" height="1" fill="#000000"/>
    <rect x="84" y="43" width="5" height="1" fill="#000000"/>
    <rect x="97" y="43" width="4" height="1" fill="#000000"/>
    <rect x="171" y="43" width="1" height="1" fill="#000000"/>
    <rect x="0" y="44" width="1" height="1" fill="#000000"/>
    <rect x="67" y="44" width="3" height="1" fill="#000000"/>
    <rect x="84" y="44" width="5" height="1" fill="#000000"/>
    <rect x="97" y="44" width="4" height="1" fill="#000000"/>
    <rect x="171" y="44" width="1" height="1" fill="#000000"/>
    <rect x="0" y="45" width="1" height="1" fill="#000000"/>
    <rect x="67" y="45" width="3" height="1" fill="#000000"/>
    <rect x="84" y="45" width="5" height="1" fill="#000000"/>
    <rect x="97" y="45" width="4" height="1" fill="#000000"/>
    <rect x="171" y="45" width="1" height="1" fill="#000000"/>
    <rect x="0" y="46" width="1" height="1" fill="#000000"/>
    <rect x="66" y="46" width="4" height="1" fill="#000000"/>
    <rect x="84" y="46" width="6" height="1" fill="#000000"/>
    <rect x="97" y="46" width="5" height="1" fill="#000000"/>
    <rect x="171" y="46" width="1" height="1" fill="#000000"/>
    <rect x="0" y="47" width="1" height="1" fill="#000000"/>
    <rect x="64" y="47" width="7" height="1" fill="#000000"/>
    <rect x="83" y="47" width="9" height="1" fill="#000000"/>
    <rect x="95" y="47" width="8" height="1" fill="#000000"/>
    <rect x="171" y="47" width="1" height="1" fill="#000000"/>
    <rect x="0" y="48" width="1" height="1" fill="#000000"/>
    <rect x="63" y="48" width="10" height="1" fill="#000000"/>
    <rect x="81" y="48" width="12" height="1" fill="#000000"/>
    <rect x="94" y="48" width="10" height="1" fill="#000000"/>
    <rect x="171" y="48" width="1" height="1" fill="#000000"/>
    <rect x="0" y="49" width="1" height="1" fill="#000000"/>
    <rect x="171" y="49" width="1" height="1" fill="#000000"/>
    <rect x="0" y="50" width="1" height="1" fill="#000000"/>
    <rect x="171" y="50" width="1" height="1" fill="#000000"/>
    <rect x="0" y="51" width="1" height="1" fill="#000000"/>
    <rect x="171" y="51" width="1" height="1" fill="#000000"/>
    <rect x="0" y="52" width="1" height="1" fill="#000000"/>
    <rect x="171" y="52" width="1" height="1" fill="#000000"/>
    <rect x="0" y="53" width="1" height="1" fill="#000000"/>
    <rect x="171" y="53" width="1" height="1" fill="#000000"/>
    <rect x="0" y="54" width="1" height="1" fill="#000000"/>
    <rect x="171" y="54" width="1" height="1" fill="#000000"/>
    <rect x="0" y="55" width="1" height="1" fill="#000000"/>
    <rect x="171" y="55" width="1" height="1" fill="#000000"/>
    <rect x="0" y="56" width="1" height="1" fill="#000000"/>
    <rect x="171" y="56" width="1" height="1" fill="#000000"/>
    <rect x="0" y="57" width="1" height="1" fill="#000000"/>
    <rect x="171" y="57" width="1" height="1" fill="#000000"/>
    <rect x="0" y="58" width="1" height="1" fill="#000000"/>
    <rect x="171" y="58" width="1" height="1" fill="#000000"/>
    <rect x="0" y="59" width="1" height="1" fill="#000000"/>
    <rect x="171" y="59" width="1" height="1" fill="#000000"/>
    <rect x="0" y="60" width="1" height="1" fill="#000000"/>
    <rect x="171" y="60" width="1" height="1" fill="#000000"/>
    <rect x="0" y="61" width="1" height="1" fill="#000000"/>
    <rect x="171" y="61" width="1" height="1" fill="#000000"/>
    <rect x="0" y="62" width="1" height="1" fill="#000000"/>
    <rect x="171" y="62" width="1" height="1" fill="#000000"/>
    <rect x="0" y="63" width="1" height="1" fill="#000000"/>
    <rect x="171" y="63" width="1" height="1" fill="#000000"/>
    <rect x="0" y="64" width="1" height="1" fill="#000000"/>
    <rect x="171" y="64" width="1" height="1" fill="#000000"/>
    <rect x="0" y="65" width="1" height="1" fill="#000000"/>
    <rect x="171" y="65" width="1" height="1" fill="#000000"/>
    <rect x="0" y="66" width="1" height="1" fill="#000000"/>
    <rect x="171" y="66" width="1" height="1" fill="#000000"/>
    <rect x="0" y="67" width="1" height="1" fill="#000000"/>
    <rect x="171" y="67" width="1" height="1" fill="#000000"/>
    <rect x="0" y="68" width="172" height="1" fill="#000000"/>
  </g>
</svg>