<?xml version="1.0" encoding="UTF-8"?>
<svg xmlns="http://www.w3.org/2000/svg" viewBox="0 0 173 70" width="173" height="70">
  <!-- Auto-converted from legend-1021.png -->
  <rect x="0" y="0" width="173" height="70" fill="none"/>
  <g fill="#231f20" stroke="none">
    <rect x="0" y="0" width="173" height="1" fill="#231f20"/>
    <rect x="0" y="1" width="1" height="1" fill="#231f20"/>
    <rect x="172" y="1" width="1" height="1" fill="#231f20"/>
    <rect x="0" y="2" width="1" height="1" fill="#231f20"/>
    <rect x="172" y="2" width="1" height="1" fill="#231f20"/>
    <rect x="0" y="3" width="1" height="1" fill="#231f20"/>
    <rect x="172" y="3" width="1" height="1" fill="#231f20"/>
    <rect x="0" y="4" width="1" height="1" fill="#231f20"/>
    <rect x="172" y="4" width="1" height="1" fill="#231f20"/>
    <rect x="0" y="5" width="1" height="1" fill="#231f20"/>
    <rect x="172" y="5" width="1" height="1" fill="#231f20"/>
    <rect x="0" y="6" width="1" height="1" fill="#231f20"/>
    <rect x="42" y="6" width="1" height="1" fill="#231f20"/>
    <rect x="45" y="6" width="1" height="1" fill="#231f20"/>
    <rect x="118" y="6" width="1" height="1" fill="#231f20"/>
    <rect x="172" y="6" width="1" height="1" fill="#231f20"/>
    <rect x="0" y="7" width="1" height="1" fill="#231f20"/>
    <rect x="42" y="7" width="1" height="1" fill="#231f20"/>
    <rect x="45" y="7" width="1" height="1" fill="#231f20"/>
    <rect x="117" y="7" width="1" height="1" fill="#231f20"/>
    <rect x="119" y="7" width="1" height="1" fill="#231f20"/>
    <rect x="172" y="7" width="1" height="1" fill="#231f20"/>
    <rect x="0" y="8" width="1" height="1" fill="#231f20"/>
    <rect x="41" y="8" width="1" height="1" fill="#231f20"/>
    <rect x="46" y="8" width="1" height="1" fill="#231f20"/>
    <rect x="117" y="8" width="1" height="1" fill="#231f20"/>
    <rect x="119" y="8" width="1" height="1" fill="#231f20"/>
    <rect x="172" y="8" width="1" height="1" fill="#231f20"/>
    <rect x="0" y="9" width="1" height="1" fill="#231f20"/>
    <rect x="41" y="9" width="1" height="1" fill="#231f20"/>
    <rect x="46" y="9" width="1" height="1" fill="#231f20"/>
    <rect x="116" y="9" width="1" height="1" fill="#231f20"/>
    <rect x="120" y="9" width="1" height="1" fill="#231f20"/>
    <rect x="172" y="9" width="1" height="1" fill="#231f20"/>
    <rect x="0" y="10" width="1" height="1" fill="#231f20"/>
    <rect x="41" y="10" width="1" height="1" fill="#231f20"/>
    <rect x="46" y="10" width="1" height="1" fill="#231f20"/>
    <rect x="115" y="10" width="1" height="1" fill="#231f20"/>
    <rect x="121" y="10" width="1" height="1" fill="#231f20"/>
    <rect x="172" y="10" width="1" height="1" fill="#231f20"/>
    <rect x="0" y="11" width="1" height="1" fill="#231f20"/>
    <rect x="40" y="11" width="1" height="1" fill="#231f20"/>
    <rect x="47" y="11" width="1" height="1" fill="#231f20"/>
    <rect x="114" y="11" width="1" height="1" fill="#231f20"/>
    <rect x="121" y="11" width="1" height="1" fill="#231f20"/>
    <rect x="172" y="11" width="1" height="1" fill="#231f20"/>
    <rect x="0" y="12" width="1" height="1" fill="#231f20"/>
    <rect x="40" y="12" width="1" height="1" fill="#231f20"/>
    <rect x="47" y="12" width="1" height="1" fill="#231f20"/>
    <rect x="114" y="12" width="1" height="1" fill="#231f20"/>
    <rect x="122" y="12" width="1" height="1" fill="#231f20"/>
    <rect x="172" y="12" width="1" height="1" fill="#231f20"/>
    <rect x="0" y="13" width="1" height="1" fill="#231f20"/>
    <rect x="39" y="13" width="1" height="1" fill="#231f20"/>
    <rect x="48" y="13" width="1" height="1" fill="#231f20"/>
    <rect x="113" y="13" width="1" height="1" fill="#231f20"/>
    <rect x="122" y="13" width="1" height="1" fill="#231f20"/>
    <rect x="172" y="13" width="1" height="1" fill="#231f20"/>
    <rect x="0" y="14" width="1" height="1" fill="#231f20"/>
    <rect x="39" y="14" width="1" height="1" fill="#231f20"/>
    <rect x="48" y="14" width="1" height="1" fill="#231f20"/>
    <rect x="112" y="14" width="1" height="1" fill="#231f20"/>
    <rect x="123" y="14" width="1" height="1" fill="#231f20"/>
    <rect x="172" y="14" width="1" height="1" fill="#231f20"/>
    <rect x="0" y="15" width="1" height="1" fill="#231f20"/>
    <rect x="39" y="15" width="1" height="1" fill="#231f20"/>
    <rect x="48" y="15" width="1" height="1" fill="#231f20"/>
    <rect x="111" y="15" width="1" height="1" fill="#231f20"/>
    <rect x="124" y="15" width="1" height="1" fill="#231f20"/>
    <rect x="172" y="15" width="1" height="1" fill="#231f20"/>
    <rect x="0" y="16" width="1" height="1" fill="#231f20"/>
    <rect x="38" y="16" width="1" height="1" fill="#231f20"/>
    <rect x="49" y="16" width="1" height="1" fill="#231f20"/>
    <rect x="111" y="16" width="1" height="1" fill="#231f20"/>
    <rect x="124" y="16" width="1" height="1" fill="#231f20"/>
    <rect x="172" y="16" width="1" height="1" fill="#231f20"/>
    <rect x="0" y="17" width="1" height="1" fill="#231f20"/>
    <rect x="38" y="17" width="1" height="1" fill="#231f20"/>
    <rect x="49" y="17" width="1" height="1" fill="#231f20"/>
    <rect x="110" y="17" width="16" height="1" fill="#231f20"/>
    <rect x="172" y="17" width="1" height="1" fill="#231f20"/>
    <rect x="0" y="18" width="1" height="1" fill="#231f20"/>
    <rect x="172" y="18" width="1" height="1" fill="#231f20"/>
    <rect x="0" y="19" width="1" height="1" fill="#231f20"/>
    <rect x="172" y="19" width="1" height="1" fill="#231f20"/>
    <rect x="0" y="20" width="1" height="1" fill="#231f20"/>
    <rect x="172" y="20" width="1" height="1" fill="#231f20"/>
    <rect x="0" y="21" width="1" height="1" fill="#231f20"/>
    <rect x="172" y="21" width="1" height="1" fill="#231f20"/>
    <rect x="0" y="22" width="1" height="1" fill="#231f20"/>
    <rect x="172" y="22" width="1" height="1" fill="#231f20"/>
    <rect x="0" y="23" width="173" height="1" fill="#231f20"/>
    <rect x="0" y="24" width="1" height="1" fill="#231f20"/>
    <rect x="172" y="24" width="1" height="1" fill="#231f20"/>
    <rect x="0" y="25" width="1" height="1" fill="#231f20"/>
    <rect x="172" y="25" width="1" height="1" fill="#231f20"/>
    <rect x="0" y="26" width="1" height="1" fill="#231f20"/>
    <rect x="172" y="26" width="1" height="1" fill="#231f20"/>
    <rect x="0" y="27" width="1" height="1" fill="#231f20"/>
    <rect x="172" y="27" width="1" height="1" fill="#231f20"/>
    <rect x="0" y="28" width="1" height="1" fill="#231f20"/>
    <rect x="172" y="28" width="1" height="1" fill="#231f20"/>
    <rect x="0" y="29" width="1" height="1" fill="#231f20"/>
    <rect x="55" y="29" width="1" height="1" fill="#231f20"/>
    <rect x="128" y="29" width="1" height="1" fill="#231f20"/>
    <rect x="131" y="29" width="1" height="1" fill="#231f20"/>
    <rect x="172" y="29" width="1" height="1" fill="#231f20"/>
    <rect x="0" y="30" width="1" height="1" fill="#231f20"/>
    <rect x="54" y="30" width="1" height="1" fill="#231f20"/>
    <rect x="56" y="30" width="1" height="1" fill="#231f20"/>
    <rect x="128" y="30" width="1" height="1" fill="#231f20"/>
    <rect x="131" y="30" width="1" height="1" fill="#231f20"/>
    <rect x="172" y="30" width="1" height="1" fill="#231f20"/>
    <rect x="0" y="31" width="1" height="1" fill="#231f20"/>
    <rect x="54" y="31" width="1" height="1" fill="#231f20"/>
    <rect x="56" y="31" width="1" height="1" fill="#231f20"/>
    <rect x="127" y="31" width="1" height="1" fill="#231f20"/>
    <rect x="132" y="31" width="1" height="1" fill="#231f20"/>
    <rect x="172" y="31" width="1" height="1" fill="#231f20"/>
    <rect x="0" y="32" width="1" height="1" fill="#231f20"/>
    <rect x="53" y="32" width="1" height="1" fill="#231f20"/>
    <rect x="57" y="32" width="1" height="1" fill="#231f20"/>
    <rect x="127" y="32" width="1" height="1" fill="#231f20"/>
    <rect x="132" y="32" width="1" height="1" fill="#231f20"/>
    <rect x="172" y="32" width="1" height="1" fill="#231f20"/>
    <rect x="0" y="33" width="1" height="1" fill="#231f20"/>
    <rect x="52" y="33" width="1" height="1" fill="#231f20"/>
    <rect x="58" y="33" width="1" height="1" fill="#231f20"/>
    <rect x="127" y="33" width="1" height="1" fill="#231f20"/>
    <rect x="132" y="33" width="1" height="1" fill="#231f20"/>
    <rect x="172" y="33" width="1" height="1" fill="#231f20"/>
    <rect x="0" y="34" width="1" height="1" fill="#231f20"/>
    <rect x="52" y="34" width="1" height="1" fill="#231f20"/>
    <rect x="59" y="34" width="1" height="1" fill="#231f20"/>
    <rect x="126" y="34" width="1" height="1" fill="#231f20"/>
    <rect x="133" y="34" width="1" height="1" fill="#231f20"/>
    <rect x="172" y="34" width="1" height="1" fill="#231f20"/>
    <rect x="0" y="35" width="1" height="1" fill="#231f20"/>
    <rect x="51" y="35" width="1" height="1" fill="#231f20"/>
    <rect x="59" y="35" width="1" height="1" fill="#231f20"/>
    <rect x="126" y="35" width="1" height="1" fill="#231f20"/>
    <rect x="133" y="35" width="1" height="1" fill="#231f20"/>
    <rect x="172" y="35" width="1" height="1" fill="#231f20"/>
    <rect x="0" y="36" width="1" height="1" fill="#231f20"/>
    <rect x="51" y="36" width="1" height="1" fill="#231f20"/>
    <rect x="60" y="36" width="1" height="1" fill="#231f20"/>
    <rect x="125" y="36" width="1" height="1" fill="#231f20"/>
    <rect x="134" y="36" width="1" height="1" fill="#231f20"/>
    <rect x="172" y="36" width="1" height="1" fill="#231f20"/>
    <rect x="0" y="37" width="1" height="1" fill="#231f20"/>
    <rect x="50" y="37" width="1" height="1" fill="#231f20"/>
    <rect x="61" y="37" width="1" height="1" fill="#231f20"/>
    <rect x="125" y="37" width="1" height="1" fill="#231f20"/>
    <rect x="134" y="37" width="1" height="1" fill="#231f20"/>
    <rect x="172" y="37" width="1" height="1" fill="#231f20"/>
    <rect x="0" y="38" width="1" height="1" fill="#231f20"/>
    <rect x="49" y="38" width="1" height="1" fill="#231f20"/>
    <rect x="62" y="38" width="1" height="1" fill="#231f20"/>
    <rect x="125" y="38" width="1" height="1" fill="#231f20"/>
    <rect x="134" y="38" width="1" height="1" fill="#231f20"/>
    <rect x="172" y="38" width="1" height="1" fill="#231f20"/>
    <rect x="0" y="39" width="1" height="1" fill="#231f20"/>
    <rect x="49" y="39" width="1" height="1" fill="#231f20"/>
    <rect x="62" y="39" width="1" height="1" fill="#231f20"/>
    <rect x="124" y="39" width="1" height="1" fill="#231f20"/>
    <rect x="135" y="39" width="1" height="1" fill="#231f20"/>
    <rect x="172" y="39" width="1" height="1" fill="#231f20"/>
    <rect x="0" y="40" width="1" height="1" fill="#231f20"/>
    <rect x="48" y="40" width="16" height="1" fill="#231f20"/>
    <rect x="124" y="40" width="1" height="1" fill="#231f20"/>
    <rect x="135" y="40" width="1" height="1" fill="#231f20"/>
    <rect x="172" y="40" width="1" height="1" fill="#231f20"/>
    <rect x="0" y="41" width="1" height="1" fill="#231f20"/>
    <rect x="172" y="41" width="1" height="1" fill="#231f20"/>
    <rect x="0" y="42" width="1" height="1" fill="#231f20"/>
    <rect x="172" y="42" width="1" height="1" fill="#231f20"/>
    <rect x="0" y="43" width="1" height="1" fill="#231f20"/>
    <rect x="172" y="43" width="1" height="1" fill="#231f20"/>
    <rect x="0" y="44" width="1" height="1" fill="#231f20"/>
    <rect x="172" y="44" width="1" height="1" fill="#231f20"/>
    <rect x="0" y="45" width="1" height="1" fill="#231f20"/>
    <rect x="172" y="45" width="1" height="1" fill="#231f20"/>
    <rect x="0" y="46" width="173" height="1" fill="#231f20"/>
    <rect x="0" y="47" width="1" height="1" fill="#231f20"/>
    <rect x="172" y="47" width="1" height="1" fill="#231f20"/>
    <rect x="0" y="48" width="1" height="1" fill="#231f20"/>
    <rect x="172" y="48" width="1" height="1" fill="#231f20"/>
    <rect x="0" y="49" width="1" height="1" fill="#231f20"/>
    <rect x="172" y="49" width="1" height="1" fill="#231f20"/>
    <rect x="0" y="50" width="1" height="1" fill="#231f20"/>
    <rect x="172" y="50" width="1" height="1" fill="#231f20"/>
    <rect x="0" y="51" width="1" height="1" fill="#231f20"/>
    <rect x="172" y="51" width="1" height="1" fill="#231f20"/>
    <rect x="0" y="52" width="1" height="1" fill="#231f20"/>
    <rect x="42" y="52" width="1" height="1" fill="#231f20"/>
    <rect x="45" y="52" width="1" height="1" fill="#231f20"/>
    <rect x="118" y="52" width="1" height="1" fill="#231f20"/>
    <rect x="172" y="52" width="1" height="1" fill="#231f20"/>
    <rect x="0" y="53" width="1" height="1" fill="#231f20"/>
    <rect x="42" y="53" width="1" height="1" fill="#231f20"/>
    <rect x="45" y="53" width="1" height="1" fill="#231f20"/>
    <rect x="117" y="53" width="1" height="1" fill="#231f20"/>
    <rect x="119" y="53" width="1" height="1" fill="#231f20"/>
    <rect x="172" y="53" width="1" height="1" fill="#231f20"/>
    <rect x="0" y="54" width="1" height="1" fill="#231f20"/>
    <rect x="41" y="54" width="1" height="1" fill="#231f20"/>
    <rect x="46" y="54" width="1" height="1" fill="#231f20"/>
    <rect x="117" y="54" width="1" height="1" fill="#231f20"/>
    <rect x="119" y="54" width="1" height="1" fill="#231f20"/>
    <rect x="172" y="54" width="1" height="1" fill="#231f20"/>
    <rect x="0" y="55" width="1" height="1" fill="#231f20"/>
    <rect x="41" y="55" width="1" height="1" fill="#231f20"/>
    <rect x="46" y="55" width="1" height="1" fill="#231f20"/>
    <rect x="116" y="55" width="1" height="1" fill="#231f20"/>
    <rect x="120" y="55" width="1" height="1" fill="#231f20"/>
    <rect x="172" y="55" width="1" height="1" fill="#231f20"/>
    <rect x="0" y="56" width="1" height="1" fill="#231f20"/>
    <rect x="41" y="56" width="1" height="1" fill="#231f20"/>
    <rect x="46" y="56" width="1" height="1" fill="#231f20"/>
    <rect x="115" y="56" width="1" height="1" fill="#231f20"/>
    <rect x="121" y="56" width="1" height="1" fill="#231f20"/>
    <rect x="172" y="56" width="1" height="1" fill="#231f20"/>
    <rect x="0" y="57" width="1" height="1" fill="#231f20"/>
    <rect x="40" y="57" width="1" height="1" fill="#231f20"/>
    <rect x="47" y="57" width="1" height="1" fill="#231f20"/>
    <rect x="114" y="57" width="1" height="1" fill="#231f20"/>
    <rect x="121" y="57" width="1" height="1" fill="#231f20"/>
    <rect x="172" y="57" width="1" height="1" fill="#231f20"/>
    <rect x="0" y="58" width="1" height="1" fill="#231f20"/>
    <rect x="40" y="58" width="1" height="1" fill="#231f20"/>
    <rect x="47" y="58" width="1" height="1" fill="#231f20"/>
    <rect x="114" y="58" width="1" height="1" fill="#231f20"/>
    <rect x="122" y="58" width="1" height="1" fill="#231f20"/>
    <rect x="172" y="58" width="1" height="1" fill="#231f20"/>
    <rect x="0" y="59" width="1" height="1" fill="#231f20"/>
    <rect x="39" y="59" width="1" height="1" fill="#231f20"/>
    <rect x="48" y="59" width="1" height="1" fill="#231f20"/>
    <rect x="113" y="59" width="1" height="1" fill="#231f20"/>
    <rect x="122" y="59" width="1" height="1" fill="#231f20"/>
    <rect x="172" y="59" width="1" height="1" fill="#231f20"/>
    <rect x="0" y="60" width="1" height="1" fill="#231f20"/>
    <rect x="39" y="60" width="1" height="1" fill="#231f20"/>
    <rect x="48" y="60" width="1" height="1" fill="#231f20"/>
    <rect x="112" y="60" width="1" height="1" fill="#231f20"/>
    <rect x="123" y="60" width="1" height="1" fill="#231f20"/>
    <rect x="172" y="60" width="1" height="1" fill="#231f20"/>
    <rect x="0" y="61" width="1" height="1" fill="#231f20"/>
    <rect x="39" y="61" width="1" height="1" fill="#231f20"/>
    <rect x="48" y="61" width="1" height="1" fill="#231f20"/>
    <rect x="111" y="61" width="1" height="1" fill="#231f20"/>
    <rect x="124" y="61" width="1" height="1" fill="#231f20"/>
    <rect x="172" y="61" width="1" height="1" fill="#231f20"/>
    <rect x="0" y="62" width="1" height="1" fill="#231f20"/>
    <rect x="38" y="62" width="1" height="1" fill="#231f20"/>
    <rect x="49" y="62" width="1" height="1" fill="#231f20"/>
    <rect x="111" y="62" width="1" height="1" fill="#231f20"/>
    <rect x="124" y="62" width="1" height="1" fill="#231f20"/>
    <rect x="172" y="62" width="1" height="1" fill="#231f20"/>
    <rect x="0" y="63" width="1" height="1" fill="#231f20"/>
    <rect x="38" y="63" width="1" height="1" fill="#231f20"/>
    <rect x="49" y="63" width="1" height="1" fill="#231f20"/>
    <rect x="110" y="63" width="16" height="1" fill="#231f20"/>
    <rect x="172" y="63" width="1" height="1" fill="#231f20"/>
    <rect x="0" y="64" width="1" height="1" fill="#231f20"/>
    <rect x="172" y="64" width="1" height="1" fill="#231f20"/>
    <rect x="0" y="65" width="1" height="1" fill="#231f20"/>
    <rect x="172" y="65" width="1" height="1" fill="#231f20"/>
    <rect x="0" y="66" width="1" height="1" fill="#231f20"/>
    <rect x="172" y="66" width="1" height="1" fill="#231f20"/>
    <rect x="0" y="67" width="1" height="1" fill="#231f20"/>
    <rect x="172" y="67" width="1" height="1" fill="#231f20"/>
    <rect x="0" y="68" width="1" height="1" fill="#231f20"/>
    <rect x="172" y="68" width="1" height="1" fill="#231f20"/>
    <rect x="0" y="69" width="173" height="1" fill="#231f20"/>
  </g>
</svg>