<?xml version="1.0" encoding="UTF-8"?>
<svg xmlns="http://www.w3.org/2000/svg" viewBox="0 0 153 61" width="153" height="61">
  <!-- Auto-converted from legend-1901.png -->
  <rect x="0" y="0" width="153" height="61" fill="none"/>
  <g fill="#231f20" stroke="none">
    <rect x="0" y="0" width="153" height="1" fill="#231f20"/>
    <rect x="0" y="1" width="1" height="1" fill="#231f20"/>
    <rect x="152" y="1" width="1" height="1" fill="#231f20"/>
    <rect x="0" y="2" width="1" height="1" fill="#231f20"/>
    <rect x="152" y="2" width="1" height="1" fill="#231f20"/>
    <rect x="0" y="3" width="1" height="1" fill="#231f20"/>
    <rect x="152" y="3" width="1" height="1" fill="#231f20"/>
    <rect x="0" y="4" width="1" height="1" fill="#231f20"/>
    <rect x="152" y="4" width="1" height="1" fill="#231f20"/>
    <rect x="0" y="5" width="1" height="1" fill="#231f20"/>
    <rect x="46" y="5" width="1" height="1" fill="#231f20"/>
    <rect x="49" y="5" width="1" height="1" fill="#231f20"/>
    <rect x="72" y="5" width="1" height="1" fill="#231f20"/>
    <rect x="74" y="5" width="1" height="1" fill="#231f20"/>
    <rect x="97" y="5" width="1" height="1" fill="#231f20"/>
    <rect x="99" y="5" width="1" height="1" fill="#231f20"/>
    <rect x="122" y="5" width="1" height="1" fill="#231f20"/>
    <rect x="125" y="5" width="1" height="1" fill="#231f20"/>
    <rect x="152" y="5" width="1" height="1" fill="#231f20"/>
    <rect x="0" y="6" width="1" height="1" fill="#231f20"/>
    <rect x="18" y="6" width="3" height="1" fill="#231f20"/>
    <rect x="46" y="6" width="1" height="1" fill="#231f20"/>
    <rect x="49" y="6" width="1" height="1" fill="#231f20"/>
    <rect x="72" y="6" width="1" height="1" fill="#231f20"/>
    <rect x="74" y="6" width="1" height="1" fill="#231f20"/>
    <rect x="97" y="6" width="1" height="1" fill="#231f20"/>
    <rect x="99" y="6" width="1" height="1" fill="#231f20"/>
    <rect x="122" y="6" width="1" height="1" fill="#231f20"/>
    <rect x="125" y="6" width="1" height="1" fill="#231f20"/>
    <rect x="152" y="6" width="1" height="1" fill="#231f20"/>
    <rect x="0" y="7" width="1" height="1" fill="#231f20"/>
    <rect x="17" y="7" width="2" height="1" fill="#231f20"/>
    <rect x="20" y="7" width="2" height="1" fill="#231f20"/>
    <rect x="45" y="7" width="1" height="1" fill="#231f20"/>
    <rect x="50" y="7" width="1" height="1" fill="#231f20"/>
    <rect x="71" y="7" width="1" height="1" fill="#231f20"/>
    <rect x="75" y="7" width="1" height="1" fill="#231f20"/>
    <rect x="96" y="7" width="1" height="1" fill="#231f20"/>
    <rect x="100" y="7" width="1" height="1" fill="#231f20"/>
    <rect x="121" y="7" width="1" height="1" fill="#231f20"/>
    <rect x="126" y="7" width="1" height="1" fill="#231f20"/>
    <rect x="152" y="7" width="1" height="1" fill="#231f20"/>
    <rect x="0" y="8" width="1" height="1" fill="#231f20"/>
    <rect x="16" y="8" width="2" height="1" fill="#231f20"/>
    <rect x="21" y="8" width="1" height="1" fill="#231f20"/>
    <rect x="45" y="8" width="1" height="1" fill="#231f20"/>
    <rect x="50" y="8" width="1" height="1" fill="#231f20"/>
    <rect x="71" y="8" width="1" height="1" fill="#231f20"/>
    <rect x="75" y="8" width="1" height="1" fill="#231f20"/>
    <rect x="96" y="8" width="1" height="1" fill="#231f20"/>
    <rect x="100" y="8" width="1" height="1" fill="#231f20"/>
    <rect x="121" y="8" width="1" height="1" fill="#231f20"/>
    <rect x="126" y="8" width="1" height="1" fill="#231f20"/>
    <rect x="152" y="8" width="1" height="1" fill="#231f20"/>
    <rect x="0" y="9" width="1" height="1" fill="#231f20"/>
    <rect x="16" y="9" width="1" height="1" fill="#231f20"/>
    <rect x="22" y="9" width="1" height="1" fill="#231f20"/>
    <rect x="44" y="9" width="1" height="1" fill="#231f20"/>
    <rect x="51" y="9" width="1" height="1" fill="#231f20"/>
    <rect x="70" y="9" width="1" height="1" fill="#231f20"/>
    <rect x="76" y="9" width="1" height="1" fill="#231f20"/>
    <rect x="95" y="9" width="1" height="1" fill="#231f20"/>
    <rect x="101" y="9" width="1" height="1" fill="#231f20"/>
    <rect x="120" y="9" width="1" height="1" fill="#231f20"/>
    <rect x="127" y="9" width="1" height="1" fill="#231f20"/>
    <rect x="152" y="9" width="1" height="1" fill="#231f20"/>
    <rect x="0" y="10" width="1" height="1" fill="#231f20"/>
    <rect x="15" y="10" width="1" height="1" fill="#231f20"/>
    <rect x="23" y="10" width="1" height="1" fill="#231f20"/>
    <rect x="30" y="10" width="1" height="1" fill="#231f20"/>
    <rect x="44" y="10" width="1" height="1" fill="#231f20"/>
    <rect x="51" y="10" width="1" height="1" fill="#231f20"/>
    <rect x="70" y="10" width="1" height="1" fill="#231f20"/>
    <rect x="76" y="10" width="1" height="1" fill="#231f20"/>
    <rect x="95" y="10" width="1" height="1" fill="#231f20"/>
    <rect x="101" y="10" width="1" height="1" fill="#231f20"/>
    <rect x="120" y="10" width="1" height="1" fill="#231f20"/>
    <rect x="127" y="10" width="1" height="1" fill="#231f20"/>
    <rect x="152" y="10" width="1" height="1" fill="#231f20"/>
    <rect x="0" y="11" width="1" height="1" fill="#231f20"/>
    <rect x="23" y="11" width="2" height="1" fill="#231f20"/>
    <rect x="29" y="11" width="2" height="1" fill="#231f20"/>
    <rect x="44" y="11" width="1" height="1" fill="#231f20"/>
    <rect x="51" y="11" width="1" height="1" fill="#231f20"/>
    <rect x="70" y="11" width="1" height="1" fill="#231f20"/>
    <rect x="76" y="11" width="1" height="1" fill="#231f20"/>
    <rect x="95" y="11" width="1" height="1" fill="#231f20"/>
    <rect x="101" y="11" width="1" height="1" fill="#231f20"/>
    <rect x="120" y="11" width="1" height="1" fill="#231f20"/>
    <rect x="127" y="11" width="1" height="1" fill="#231f20"/>
    <rect x="152" y="11" width="1" height="1" fill="#231f20"/>
    <rect x="0" y="12" width="1" height="1" fill="#231f20"/>
    <rect x="24" y="12" width="1" height="1" fill="#231f20"/>
    <rect x="29" y="12" width="1" height="1" fill="#231f20"/>
    <rect x="43" y="12" width="1" height="1" fill="#231f20"/>
    <rect x="52" y="12" width="1" height="1" fill="#231f20"/>
    <rect x="69" y="12" width="1" height="1" fill="#231f20"/>
    <rect x="77" y="12" width="1" height="1" fill="#231f20"/>
    <rect x="94" y="12" width="1" height="1" fill="#231f20"/>
    <rect x="102" y="12" width="1" height="1" fill="#231f20"/>
    <rect x="119" y="12" width="1" height="1" fill="#231f20"/>
    <rect x="128" y="12" width="1" height="1" fill="#231f20"/>
    <rect x="152" y="12" width="1" height="1" fill="#231f20"/>
    <rect x="0" y="13" width="1" height="1" fill="#231f20"/>
    <rect x="25" y="13" width="1" height="1" fill="#231f20"/>
    <rect x="27" y="13" width="2" height="1" fill="#231f20"/>
    <rect x="43" y="13" width="1" height="1" fill="#231f20"/>
    <rect x="52" y="13" width="1" height="1" fill="#231f20"/>
    <rect x="69" y="13" width="1" height="1" fill="#231f20"/>
    <rect x="77" y="13" width="1" height="1" fill="#231f20"/>
    <rect x="94" y="13" width="1" height="1" fill="#231f20"/>
    <rect x="102" y="13" width="1" height="1" fill="#231f20"/>
    <rect x="119" y="13" width="1" height="1" fill="#231f20"/>
    <rect x="128" y="13" width="1" height="1" fill="#231f20"/>
    <rect x="152" y="13" width="1" height="1" fill="#231f20"/>
    <rect x="0" y="14" width="1" height="1" fill="#231f20"/>
    <rect x="26" y="14" width="2" height="1" fill="#231f20"/>
    <rect x="42" y="14" width="1" height="1" fill="#231f20"/>
    <rect x="53" y="14" width="1" height="1" fill="#231f20"/>
    <rect x="68" y="14" width="1" height="1" fill="#231f20"/>
    <rect x="78" y="14" width="1" height="1" fill="#231f20"/>
    <rect x="93" y="14" width="1" height="1" fill="#231f20"/>
    <rect x="103" y="14" width="1" height="1" fill="#231f20"/>
    <rect x="118" y="14" width="1" height="1" fill="#231f20"/>
    <rect x="129" y="14" width="1" height="1" fill="#231f20"/>
    <rect x="152" y="14" width="1" height="1" fill="#231f20"/>
    <rect x="0" y="15" width="1" height="1" fill="#231f20"/>
    <rect x="42" y="15" width="1" height="1" fill="#231f20"/>
    <rect x="53" y="15" width="1" height="1" fill="#231f20"/>
    <rect x="68" y="15" width="1" height="1" fill="#231f20"/>
    <rect x="78" y="15" width="1" height="1" fill="#231f20"/>
    <rect x="93" y="15" width="1" height="1" fill="#231f20"/>
    <rect x="103" y="15" width="1" height="1" fill="#231f20"/>
    <rect x="118" y="15" width="1" height="1" fill="#231f20"/>
    <rect x="129" y="15" width="1" height="1" fill="#231f20"/>
    <rect x="152" y="15" width="1" height="1" fill="#231f20"/>
    <rect x="0" y="16" width="1" height="1" fill="#231f20"/>
    <rect x="152" y="16" width="1" height="1" fill="#231f20"/>
    <rect x="0" y="17" width="1" height="1" fill="#231f20"/>
    <rect x="152" y="17" width="1" height="1" fill="#231f20"/>
    <rect x="0" y="18" width="1" height="1" fill="#231f20"/>
    <rect x="152" y="18" width="1" height="1" fill="#231f20"/>
    <rect x="0" y="19" width="1" height="1" fill="#231f20"/>
    <rect x="152" y="19" width="1" height="1" fill="#231f20"/>
    <rect x="0" y="20" width="153" height="1" fill="#231f20"/>
    <rect x="0" y="21" width="1" height="1" fill="#231f20"/>
    <rect x="152" y="21" width="1" height="1" fill="#231f20"/>
    <rect x="0" y="22" width="1" height="1" fill="#231f20"/>
    <rect x="152" y="22" width="1" height="1" fill="#231f20"/>
    <rect x="0" y="23" width="1" height="1" fill="#231f20"/>
    <rect x="152" y="23" width="1" height="1" fill="#231f20"/>
    <rect x="0" y="24" width="1" height="1" fill="#231f20"/>
    <rect x="152" y="24" width="1" height="1" fill="#231f20"/>
    <rect x="0" y="25" width="1" height="1" fill="#231f20"/>
    <rect x="26" y="25" width="1" height="1" fill="#231f20"/>
    <rect x="29" y="25" width="1" height="1" fill="#231f20"/>
    <rect x="52" y="25" width="1" height="1" fill="#231f20"/>
    <rect x="54" y="25" width="1" height="1" fill="#231f20"/>
    <rect x="77" y="25" width="1" height="1" fill="#231f20"/>
    <rect x="80" y="25" width="1" height="1" fill="#231f20"/>
    <rect x="102" y="25" width="1" height="1" fill="#231f20"/>
    <rect x="105" y="25" width="1" height="1" fill="#231f20"/>
    <rect x="152" y="25" width="1" height="1" fill="#231f20"/>
    <rect x="0" y="26" width="1" height="1" fill="#231f20"/>
    <rect x="26" y="26" width="1" height="1" fill="#231f20"/>
    <rect x="29" y="26" width="1" height="1" fill="#231f20"/>
    <rect x="52" y="26" width="1" height="1" fill="#231f20"/>
    <rect x="54" y="26" width="1" height="1" fill="#231f20"/>
    <rect x="77" y="26" width="1" height="1" fill="#231f20"/>
    <rect x="80" y="26" width="1" height="1" fill="#231f20"/>
    <rect x="102" y="26" width="1" height="1" fill="#231f20"/>
    <rect x="105" y="26" width="1" height="1" fill="#231f20"/>
    <rect x="123" y="26" width="4" height="1" fill="#231f20"/>
    <rect x="152" y="26" width="1" height="1" fill="#231f20"/>
    <rect x="0" y="27" width="1" height="1" fill="#231f20"/>
    <rect x="25" y="27" width="1" height="1" fill="#231f20"/>
    <rect x="30" y="27" width="1" height="1" fill="#231f20"/>
    <rect x="51" y="27" width="1" height="1" fill="#231f20"/>
    <rect x="55" y="27" width="1" height="1" fill="#231f20"/>
    <rect x="76" y="27" width="1" height="1" fill="#231f20"/>
    <rect x="81" y="27" width="1" height="1" fill="#231f20"/>
    <rect x="101" y="27" width="1" height="1" fill="#231f20"/>
    <rect x="106" y="27" width="1" height="1" fill="#231f20"/>
    <rect x="122" y="27" width="2" height="1" fill="#231f20"/>
    <rect x="126" y="27" width="2" height="1" fill="#231f20"/>
    <rect x="152" y="27" width="1" height="1" fill="#231f20"/>
    <rect x="0" y="28" width="1" height="1" fill="#231f20"/>
    <rect x="25" y="28" width="1" height="1" fill="#231f20"/>
    <rect x="30" y="28" width="1" height="1" fill="#231f20"/>
    <rect x="51" y="28" width="1" height="1" fill="#231f20"/>
    <rect x="55" y="28" width="1" height="1" fill="#231f20"/>
    <rect x="76" y="28" width="1" height="1" fill="#231f20"/>
    <rect x="81" y="28" width="1" height="1" fill="#231f20"/>
    <rect x="101" y="28" width="1" height="1" fill="#231f20"/>
    <rect x="106" y="28" width="1" height="1" fill="#231f20"/>
    <rect x="122" y="28" width="1" height="1" fill="#231f20"/>
    <rect x="127" y="28" width="2" height="1" fill="#231f20"/>
    <rect x="152" y="28" width="1" height="1" fill="#231f20"/>
    <rect x="0" y="29" width="1" height="1" fill="#231f20"/>
    <rect x="25" y="29" width="1" height="1" fill="#231f20"/>
    <rect x="31" y="29" width="1" height="1" fill="#231f20"/>
    <rect x="50" y="29" width="1" height="1" fill="#231f20"/>
    <rect x="56" y="29" width="1" height="1" fill="#231f20"/>
    <rect x="75" y="29" width="1" height="1" fill="#231f20"/>
    <rect x="81" y="29" width="1" height="1" fill="#231f20"/>
    <rect x="101" y="29" width="1" height="1" fill="#231f20"/>
    <rect x="107" y="29" width="1" height="1" fill="#231f20"/>
    <rect x="121" y="29" width="1" height="1" fill="#231f20"/>
    <rect x="128" y="29" width="1" height="1" fill="#231f20"/>
    <rect x="152" y="29" width="1" height="1" fill="#231f20"/>
    <rect x="0" y="30" width="1" height="1" fill="#231f20"/>
    <rect x="24" y="30" width="1" height="1" fill="#231f20"/>
    <rect x="31" y="30" width="1" height="1" fill="#231f20"/>
    <rect x="50" y="30" width="1" height="1" fill="#231f20"/>
    <rect x="56" y="30" width="1" height="1" fill="#231f20"/>
    <rect x="75" y="30" width="1" height="1" fill="#231f20"/>
    <rect x="81" y="30" width="1" height="1" fill="#231f20"/>
    <rect x="100" y="30" width="1" height="1" fill="#231f20"/>
    <rect x="107" y="30" width="1" height="1" fill="#231f20"/>
    <rect x="128" y="30" width="1" height="1" fill="#231f20"/>
    <rect x="136" y="30" width="1" height="1" fill="#231f20"/>
    <rect x="152" y="30" width="1" height="1" fill="#231f20"/>
    <rect x="0" y="31" width="1" height="1" fill="#231f20"/>
    <rect x="24" y="31" width="1" height="1" fill="#231f20"/>
    <rect x="31" y="31" width="1" height="1" fill="#231f20"/>
    <rect x="50" y="31" width="1" height="1" fill="#231f20"/>
    <rect x="56" y="31" width="1" height="1" fill="#231f20"/>
    <rect x="75" y="31" width="1" height="1" fill="#231f20"/>
    <rect x="82" y="31" width="1" height="1" fill="#231f20"/>
    <rect x="100" y="31" width="1" height="1" fill="#231f20"/>
    <rect x="107" y="31" width="1" height="1" fill="#231f20"/>
    <rect x="129" y="31" width="1" height="1" fill="#231f20"/>
    <rect x="136" y="31" width="1" height="1" fill="#231f20"/>
    <rect x="152" y="31" width="1" height="1" fill="#231f20"/>
    <rect x="0" y="32" width="1" height="1" fill="#231f20"/>
    <rect x="24" y="32" width="1" height="1" fill="#231f20"/>
    <rect x="32" y="32" width="1" height="1" fill="#231f20"/>
    <rect x="49" y="32" width="1" height="1" fill="#231f20"/>
    <rect x="57" y="32" width="1" height="1" fill="#231f20"/>
    <rect x="74" y="32" width="1" height="1" fill="#231f20"/>
    <rect x="82" y="32" width="1" height="1" fill="#231f20"/>
    <rect x="100" y="32" width="1" height="1" fill="#231f20"/>
    <rect x="108" y="32" width="1" height="1" fill="#231f20"/>
    <rect x="130" y="32" width="1" height="1" fill="#231f20"/>
    <rect x="134" y="32" width="2" height="1" fill="#231f20"/>
    <rect x="152" y="32" width="1" height="1" fill="#231f20"/>
    <rect x="0" y="33" width="1" height="1" fill="#231f20"/>
    <rect x="24" y="33" width="1" height="1" fill="#231f20"/>
    <rect x="32" y="33" width="1" height="1" fill="#231f20"/>
    <rect x="49" y="33" width="1" height="1" fill="#231f20"/>
    <rect x="57" y="33" width="1" height="1" fill="#231f20"/>
    <rect x="74" y="33" width="1" height="1" fill="#231f20"/>
    <rect x="82" y="33" width="1" height="1" fill="#231f20"/>
    <rect x="100" y="33" width="1" height="1" fill="#231f20"/>
    <rect x="108" y="33" width="1" height="1" fill="#231f20"/>
    <rect x="130" y="33" width="2" height="1" fill="#231f20"/>
    <rect x="133" y="33" width="2" height="1" fill="#231f20"/>
    <rect x="152" y="33" width="1" height="1" fill="#231f20"/>
    <rect x="0" y="34" width="1" height="1" fill="#231f20"/>
    <rect x="23" y="34" width="1" height="1" fill="#231f20"/>
    <rect x="33" y="34" width="1" height="1" fill="#231f20"/>
    <rect x="48" y="34" width="1" height="1" fill="#231f20"/>
    <rect x="58" y="34" width="1" height="1" fill="#231f20"/>
    <rect x="73" y="34" width="1" height="1" fill="#231f20"/>
    <rect x="83" y="34" width="1" height="1" fill="#231f20"/>
    <rect x="99" y="34" width="1" height="1" fill="#231f20"/>
    <rect x="109" y="34" width="1" height="1" fill="#231f20"/>
    <rect x="131" y="34" width="3" height="1" fill="#231f20"/>
    <rect x="152" y="34" width="1" height="1" fill="#231f20"/>
    <rect x="0" y="35" width="1" height="1" fill="#231f20"/>
    <rect x="23" y="35" width="1" height="1" fill="#231f20"/>
    <rect x="33" y="35" width="1" height="1" fill="#231f20"/>
    <rect x="48" y="35" width="1" height="1" fill="#231f20"/>
    <rect x="58" y="35" width="1" height="1" fill="#231f20"/>
    <rect x="73" y="35" width="1" height="1" fill="#231f20"/>
    <rect x="83" y="35" width="1" height="1" fill="#231f20"/>
    <rect x="99" y="35" width="1" height="1" fill="#231f20"/>
    <rect x="109" y="35" width="1" height="1" fill="#231f20"/>
    <rect x="152" y="35" width="1" height="1" fill="#231f20"/>
    <rect x="0" y="36" width="1" height="1" fill="#231f20"/>
    <rect x="152" y="36" width="1" height="1" fill="#231f20"/>
    <rect x="0" y="37" width="1" height="1" fill="#231f20"/>
    <rect x="152" y="37" width="1" height="1" fill="#231f20"/>
    <rect x="0" y="38" width="1" height="1" fill="#231f20"/>
    <rect x="152" y="38" width="1" height="1" fill="#231f20"/>
    <rect x="0" y="39" width="1" height="1" fill="#231f20"/>
    <rect x="152" y="39" width="1" height="1" fill="#231f20"/>
    <rect x="0" y="40" width="153" height="1" fill="#231f20"/>
    <rect x="0" y="41" width="1" height="1" fill="#231f20"/>
    <rect x="152" y="41" width="1" height="1" fill="#231f20"/>
    <rect x="0" y="42" width="1" height="1" fill="#231f20"/>
    <rect x="152" y="42" width="1" height="1" fill="#231f20"/>
    <rect x="0" y="43" width="1" height="1" fill="#231f20"/>
    <rect x="152" y="43" width="1" height="1" fill="#231f20"/>
    <rect x="0" y="44" width="1" height="1" fill="#231f20"/>
    <rect x="152" y="44" width="1" height="1" fill="#231f20"/>
    <rect x="0" y="45" width="1" height="1" fill="#231f20"/>
    <rect x="46" y="45" width="1" height="1" fill="#231f20"/>
    <rect x="49" y="45" width="1" height="1" fill="#231f20"/>
    <rect x="72" y="45" width="1" height="1" fill="#231f20"/>
    <rect x="74" y="45" width="1" height="1" fill="#231f20"/>
    <rect x="97" y="45" width="1" height="1" fill="#231f20"/>
    <rect x="99" y="45" width="1" height="1" fill="#231f20"/>
    <rect x="122" y="45" width="1" height="1" fill="#231f20"/>
    <rect x="125" y="45" width="1" height="1" fill="#231f20"/>
    <rect x="152" y="45" width="1" height="1" fill="#231f20"/>
    <rect x="0" y="46" width="1" height="1" fill="#231f20"/>
    <rect x="46" y="46" width="1" height="1" fill="#231f20"/>
    <rect x="49" y="46" width="1" height="1" fill="#231f20"/>
    <rect x="72" y="46" width="1" height="1" fill="#231f20"/>
    <rect x="74" y="46" width="1" height="1" fill="#231f20"/>
    <rect x="97" y="46" width="1" height="1" fill="#231f20"/>
    <rect x="99" y="46" width="1" height="1" fill="#231f20"/>
    <rect x="122" y="46" width="1" height="1" fill="#231f20"/>
    <rect x="125" y="46" width="1" height="1" fill="#231f20"/>
    <rect x="152" y="46" width="1" height="1" fill="#231f20"/>
    <rect x="0" y="47" width="1" height="1" fill="#231f20"/>
    <rect x="17" y="47" width="4" height="1" fill="#231f20"/>
    <rect x="45" y="47" width="1" height="1" fill="#231f20"/>
    <rect x="50" y="47" width="1" height="1" fill="#231f20"/>
    <rect x="71" y="47" width="1" height="1" fill="#231f20"/>
    <rect x="75" y="47" width="1" height="1" fill="#231f20"/>
    <rect x="96" y="47" width="1" height="1" fill="#231f20"/>
    <rect x="100" y="47" width="1" height="1" fill="#231f20"/>
    <rect x="121" y="47" width="1" height="1" fill="#231f20"/>
    <rect x="126" y="47" width="1" height="1" fill="#231f20"/>
    <rect x="152" y="47" width="1" height="1" fill="#231f20"/>
    <rect x="0" y="48" width="1" height="1" fill="#231f20"/>
    <rect x="16" y="48" width="2" height="1" fill="#231f20"/>
    <rect x="21" y="48" width="1" height="1" fill="#231f20"/>
    <rect x="45" y="48" width="1" height="1" fill="#231f20"/>
    <rect x="50" y="48" width="1" height="1" fill="#231f20"/>
    <rect x="71" y="48" width="1" height="1" fill="#231f20"/>
    <rect x="75" y="48" width="1" height="1" fill="#231f20"/>
    <rect x="96" y="48" width="1" height="1" fill="#231f20"/>
    <rect x="100" y="48" width="1" height="1" fill="#231f20"/>
    <rect x="121" y="48" width="1" height="1" fill="#231f20"/>
    <rect x="126" y="48" width="1" height="1" fill="#231f20"/>
    <rect x="152" y="48" width="1" height="1" fill="#231f20"/>
    <rect x="0" y="49" width="1" height="1" fill="#231f20"/>
    <rect x="16" y="49" width="1" height="1" fill="#231f20"/>
    <rect x="21" y="49" width="2" height="1" fill="#231f20"/>
    <rect x="44" y="49" width="1" height="1" fill="#231f20"/>
    <rect x="51" y="49" width="1" height="1" fill="#231f20"/>
    <rect x="70" y="49" width="1" height="1" fill="#231f20"/>
    <rect x="76" y="49" width="1" height="1" fill="#231f20"/>
    <rect x="95" y="49" width="1" height="1" fill="#231f20"/>
    <rect x="101" y="49" width="1" height="1" fill="#231f20"/>
    <rect x="120" y="49" width="1" height="1" fill="#231f20"/>
    <rect x="127" y="49" width="1" height="1" fill="#231f20"/>
    <rect x="152" y="49" width="1" height="1" fill="#231f20"/>
    <rect x="0" y="50" width="1" height="1" fill="#231f20"/>
    <rect x="15" y="50" width="2" height="1" fill="#231f20"/>
    <rect x="22" y="50" width="2" height="1" fill="#231f20"/>
    <rect x="30" y="50" width="1" height="1" fill="#231f20"/>
    <rect x="44" y="50" width="1" height="1" fill="#231f20"/>
    <rect x="51" y="50" width="1" height="1" fill="#231f20"/>
    <rect x="70" y="50" width="1" height="1" fill="#231f20"/>
    <rect x="76" y="50" width="1" height="1" fill="#231f20"/>
    <rect x="95" y="50" width="1" height="1" fill="#231f20"/>
    <rect x="101" y="50" width="1" height="1" fill="#231f20"/>
    <rect x="120" y="50" width="1" height="1" fill="#231f20"/>
    <rect x="127" y="50" width="1" height="1" fill="#231f20"/>
    <rect x="152" y="50" width="1" height="1" fill="#231f20"/>
    <rect x="0" y="51" width="1" height="1" fill="#231f20"/>
    <rect x="23" y="51" width="1" height="1" fill="#231f20"/>
    <rect x="30" y="51" width="1" height="1" fill="#231f20"/>
    <rect x="44" y="51" width="1" height="1" fill="#231f20"/>
    <rect x="51" y="51" width="1" height="1" fill="#231f20"/>
    <rect x="70" y="51" width="1" height="1" fill="#231f20"/>
    <rect x="76" y="51" width="1" height="1" fill="#231f20"/>
    <rect x="95" y="51" width="1" height="1" fill="#231f20"/>
    <rect x="101" y="51" width="1" height="1" fill="#231f20"/>
    <rect x="120" y="51" width="1" height="1" fill="#231f20"/>
    <rect x="127" y="51" width="1" height="1" fill="#231f20"/>
    <rect x="152" y="51" width="1" height="1" fill="#231f20"/>
    <rect x="0" y="52" width="1" height="1" fill="#231f20"/>
    <rect x="24" y="52" width="1" height="1" fill="#231f20"/>
    <rect x="29" y="52" width="1" height="1" fill="#231f20"/>
    <rect x="43" y="52" width="1" height="1" fill="#231f20"/>
    <rect x="52" y="52" width="1" height="1" fill="#231f20"/>
    <rect x="69" y="52" width="1" height="1" fill="#231f20"/>
    <rect x="77" y="52" width="1" height="1" fill="#231f20"/>
    <rect x="94" y="52" width="1" height="1" fill="#231f20"/>
    <rect x="102" y="52" width="1" height="1" fill="#231f20"/>
    <rect x="119" y="52" width="1" height="1" fill="#231f20"/>
    <rect x="128" y="52" width="1" height="1" fill="#231f20"/>
    <rect x="152" y="52" width="1" height="1" fill="#231f20"/>
    <rect x="0" y="53" width="1" height="1" fill="#231f20"/>
    <rect x="24" y="53" width="2" height="1" fill="#231f20"/>
    <rect x="28" y="53" width="2" height="1" fill="#231f20"/>
    <rect x="43" y="53" width="1" height="1" fill="#231f20"/>
    <rect x="52" y="53" width="1" height="1" fill="#231f20"/>
    <rect x="69" y="53" width="1" height="1" fill="#231f20"/>
    <rect x="77" y="53" width="1" height="1" fill="#231f20"/>
    <rect x="94" y="53" width="1" height="1" fill="#231f20"/>
    <rect x="102" y="53" width="1" height="1" fill="#231f20"/>
    <rect x="119" y="53" width="1" height="1" fill="#231f20"/>
    <rect x="128" y="53" width="1" height="1" fill="#231f20"/>
    <rect x="152" y="53" width="1" height="1" fill="#231f20"/>
    <rect x="0" y="54" width="1" height="1" fill="#231f20"/>
    <rect x="25" y="54" width="4" height="1" fill="#231f20"/>
    <rect x="42" y="54" width="1" height="1" fill="#231f20"/>
    <rect x="53" y="54" width="1" height="1" fill="#231f20"/>
    <rect x="68" y="54" width="1" height="1" fill="#231f20"/>
    <rect x="78" y="54" width="1" height="1" fill="#231f20"/>
    <rect x="93" y="54" width="1" height="1" fill="#231f20"/>
    <rect x="103" y="54" width="1" height="1" fill="#231f20"/>
    <rect x="118" y="54" width="1" height="1" fill="#231f20"/>
    <rect x="129" y="54" width="1" height="1" fill="#231f20"/>
    <rect x="152" y="54" width="1" height="1" fill="#231f20"/>
    <rect x="0" y="55" width="1" height="1" fill="#231f20"/>
    <rect x="42" y="55" width="1" height="1" fill="#231f20"/>
    <rect x="53" y="55" width="1" height="1" fill="#231f20"/>
    <rect x="68" y="55" width="1" height="1" fill="#231f20"/>
    <rect x="78" y="55" width="1" height="1" fill="#231f20"/>
    <rect x="93" y="55" width="1" height="1" fill="#231f20"/>
    <rect x="103" y="55" width="1" height="1" fill="#231f20"/>
    <rect x="118" y="55" width="1" height="1" fill="#231f20"/>
    <rect x="129" y="55" width="1" height="1" fill="#231f20"/>
    <rect x="152" y="55" width="1" height="1" fill="#231f20"/>
    <rect x="0" y="56" width="1" height="1" fill="#231f20"/>
    <rect x="152" y="56" width="1" height="1" fill="#231f20"/>
    <rect x="0" y="57" width="1" height="1" fill="#231f20"/>
    <rect x="152" y="57" width="1" height="1" fill="#231f20"/>
    <rect x="0" y="58" width="1" height="1" fill="#231f20"/>
    <rect x="152" y="58" width="1" height="1" fill="#231f20"/>
    <rect x="0" y="59" width="1" height="1" fill="#231f20"/>
    <rect x="152" y="59" width="1" height="1" fill="#231f20"/>
    <rect x="0" y="60" width="153" height="1" fill="#231f20"/>
  </g>
</svg>