<?xml version="1.0" encoding="UTF-8"?>
<svg xmlns="http://www.w3.org/2000/svg" viewBox="0 0 58 69" width="58" height="69">
  <!-- Auto-converted from legend-1397.png -->
  <rect x="0" y="0" width="58" height="69" fill="none"/>
  <g fill="#231f20" stroke="none">
    <rect x="0" y="0" width="58" height="1" fill="#231f20"/>
    <rect x="0" y="1" width="1" height="1" fill="#231f20"/>
    <rect x="57" y="1" width="1" height="1" fill="#231f20"/>
    <rect x="0" y="2" width="1" height="1" fill="#231f20"/>
    <rect x="57" y="2" width="1" height="1" fill="#231f20"/>
    <rect x="0" y="3" width="1" height="1" fill="#231f20"/>
    <rect x="57" y="3" width="1" height="1" fill="#231f20"/>
    <rect x="0" y="4" width="1" height="1" fill="#231f20"/>
    <rect x="57" y="4" width="1" height="1" fill="#231f20"/>
    <rect x="0" y="5" width="1" height="1" fill="#231f20"/>
    <rect x="57" y="5" width="1" height="1" fill="#231f20"/>
    <rect x="0" y="6" width="1" height="1" fill="#231f20"/>
    <rect x="57" y="6" width="1" height="1" fill="#231f20"/>
    <rect x="0" y="7" width="1" height="1" fill="#231f20"/>
    <rect x="36" y="7" width="1" height="1" fill="#231f20"/>
    <rect x="42" y="7" width="3" height="1" fill="#231f20"/>
    <rect x="57" y="7" width="1" height="1" fill="#231f20"/>
    <rect x="0" y="8" width="1" height="1" fill="#231f20"/>
    <rect x="36" y="8" width="1" height="1" fill="#231f20"/>
    <rect x="44" y="8" width="1" height="1" fill="#231f20"/>
    <rect x="57" y="8" width="1" height="1" fill="#231f20"/>
    <rect x="0" y="9" width="1" height="1" fill="#231f20"/>
    <rect x="36" y="9" width="2" height="1" fill="#231f20"/>
    <rect x="44" y="9" width="1" height="1" fill="#231f20"/>
    <rect x="57" y="9" width="1" height="1" fill="#231f20"/>
    <rect x="0" y="10" width="1" height="1" fill="#231f20"/>
    <rect x="35" y="10" width="1" height="1" fill="#231f20"/>
    <rect x="37" y="10" width="1" height="1" fill="#231f20"/>
    <rect x="44" y="10" width="1" height="1" fill="#231f20"/>
    <rect x="57" y="10" width="1" height="1" fill="#231f20"/>
    <rect x="0" y="11" width="1" height="1" fill="#231f20"/>
    <rect x="13" y="11" width="9" height="1" fill="#231f20"/>
    <rect x="35" y="11" width="1" height="1" fill="#231f20"/>
    <rect x="37" y="11" width="1" height="1" fill="#231f20"/>
    <rect x="44" y="11" width="1" height="1" fill="#231f20"/>
    <rect x="57" y="11" width="1" height="1" fill="#231f20"/>
    <rect x="0" y="12" width="1" height="1" fill="#231f20"/>
    <rect x="35" y="12" width="1" height="1" fill="#231f20"/>
    <rect x="38" y="12" width="1" height="1" fill="#231f20"/>
    <rect x="44" y="12" width="1" height="1" fill="#231f20"/>
    <rect x="57" y="12" width="1" height="1" fill="#231f20"/>
    <rect x="0" y="13" width="1" height="1" fill="#231f20"/>
    <rect x="35" y="13" width="4" height="1" fill="#231f20"/>
    <rect x="44" y="13" width="1" height="1" fill="#231f20"/>
    <rect x="57" y="13" width="1" height="1" fill="#231f20"/>
    <rect x="0" y="14" width="1" height="1" fill="#231f20"/>
    <rect x="34" y="14" width="1" height="1" fill="#231f20"/>
    <rect x="38" y="14" width="1" height="1" fill="#231f20"/>
    <rect x="44" y="14" width="1" height="1" fill="#231f20"/>
    <rect x="57" y="14" width="1" height="1" fill="#231f20"/>
    <rect x="0" y="15" width="1" height="1" fill="#231f20"/>
    <rect x="34" y="15" width="1" height="1" fill="#231f20"/>
    <rect x="39" y="15" width="1" height="1" fill="#231f20"/>
    <rect x="44" y="15" width="1" height="1" fill="#231f20"/>
    <rect x="57" y="15" width="1" height="1" fill="#231f20"/>
    <rect x="0" y="16" width="1" height="1" fill="#231f20"/>
    <rect x="34" y="16" width="1" height="1" fill="#231f20"/>
    <rect x="39" y="16" width="1" height="1" fill="#231f20"/>
    <rect x="44" y="16" width="1" height="1" fill="#231f20"/>
    <rect x="57" y="16" width="1" height="1" fill="#231f20"/>
    <rect x="0" y="17" width="1" height="1" fill="#231f20"/>
    <rect x="33" y="17" width="3" height="1" fill="#231f20"/>
    <rect x="38" y="17" width="3" height="1" fill="#231f20"/>
    <rect x="42" y="17" width="5" height="1" fill="#231f20"/>
    <rect x="57" y="17" width="1" height="1" fill="#231f20"/>
    <rect x="0" y="18" width="1" height="1" fill="#231f20"/>
    <rect x="57" y="18" width="1" height="1" fill="#231f20"/>
    <rect x="0" y="19" width="1" height="1" fill="#231f20"/>
    <rect x="57" y="19" width="1" height="1" fill="#231f20"/>
    <rect x="0" y="20" width="1" height="1" fill="#231f20"/>
    <rect x="57" y="20" width="1" height="1" fill="#231f20"/>
    <rect x="0" y="21" width="1" height="1" fill="#231f20"/>
    <rect x="57" y="21" width="1" height="1" fill="#231f20"/>
    <rect x="0" y="22" width="1" height="1" fill="#231f20"/>
    <rect x="57" y="22" width="1" height="1" fill="#231f20"/>
    <rect x="0" y="23" width="58" height="1" fill="#231f20"/>
    <rect x="0" y="24" width="1" height="1" fill="#231f20"/>
    <rect x="57" y="24" width="1" height="1" fill="#231f20"/>
    <rect x="0" y="25" width="1" height="1" fill="#231f20"/>
    <rect x="57" y="25" width="1" height="1" fill="#231f20"/>
    <rect x="0" y="26" width="1" height="1" fill="#231f20"/>
    <rect x="57" y="26" width="1" height="1" fill="#231f20"/>
    <rect x="0" y="27" width="1" height="1" fill="#231f20"/>
    <rect x="57" y="27" width="1" height="1" fill="#231f20"/>
    <rect x="0" y="28" width="1" height="1" fill="#231f20"/>
    <rect x="57" y="28" width="1" height="1" fill="#231f20"/>
    <rect x="0" y="29" width="1" height="1" fill="#231f20"/>
    <rect x="57" y="29" width="1" height="1" fill="#231f20"/>
    <rect x="0" y="30" width="1" height="1" fill="#231f20"/>
    <rect x="13" y="30" width="1" height="1" fill="#231f20"/>
    <rect x="19" y="30" width="3" height="1" fill="#231f20"/>
    <rect x="57" y="30" width="1" height="1" fill="#231f20"/>
    <rect x="0" y="31" width="1" height="1" fill="#231f20"/>
    <rect x="13" y="31" width="1" height="1" fill="#231f20"/>
    <rect x="21" y="31" width="1" height="1" fill="#231f20"/>
    <rect x="57" y="31" width="1" height="1" fill="#231f20"/>
    <rect x="0" y="32" width="1" height="1" fill="#231f20"/>
    <rect x="13" y="32" width="2" height="1" fill="#231f20"/>
    <rect x="21" y="32" width="1" height="1" fill="#231f20"/>
    <rect x="57" y="32" width="1" height="1" fill="#231f20"/>
    <rect x="0" y="33" width="1" height="1" fill="#231f20"/>
    <rect x="12" y="33" width="1" height="1" fill="#231f20"/>
    <rect x="14" y="33" width="1" height="1" fill="#231f20"/>
    <rect x="21" y="33" width="1" height="1" fill="#231f20"/>
    <rect x="57" y="33" width="1" height="1" fill="#231f20"/>
    <rect x="0" y="34" width="1" height="1" fill="#231f20"/>
    <rect x="12" y="34" width="1" height="1" fill="#231f20"/>
    <rect x="14" y="34" width="1" height="1" fill="#231f20"/>
    <rect x="21" y="34" width="1" height="1" fill="#231f20"/>
    <rect x="36" y="34" width="9" height="1" fill="#231f20"/>
    <rect x="57" y="34" width="1" height="1" fill="#231f20"/>
    <rect x="0" y="35" width="1" height="1" fill="#231f20"/>
    <rect x="12" y="35" width="1" height="1" fill="#231f20"/>
    <rect x="15" y="35" width="1" height="1" fill="#231f20"/>
    <rect x="21" y="35" width="1" height="1" fill="#231f20"/>
    <rect x="57" y="35" width="1" height="1" fill="#231f20"/>
    <rect x="0" y="36" width="1" height="1" fill="#231f20"/>
    <rect x="12" y="36" width="4" height="1" fill="#231f20"/>
    <rect x="21" y="36" width="1" height="1" fill="#231f20"/>
    <rect x="57" y="36" width="1" height="1" fill="#231f20"/>
    <rect x="0" y="37" width="1" height="1" fill="#231f20"/>
    <rect x="11" y="37" width="1" height="1" fill="#231f20"/>
    <rect x="15" y="37" width="1" height="1" fill="#231f20"/>
    <rect x="21" y="37" width="1" height="1" fill="#231f20"/>
    <rect x="57" y="37" width="1" height="1" fill="#231f20"/>
    <rect x="0" y="38" width="1" height="1" fill="#231f20"/>
    <rect x="11" y="38" width="1" height="1" fill="#231f20"/>
    <rect x="16" y="38" width="1" height="1" fill="#231f20"/>
    <rect x="21" y="38" width="1" height="1" fill="#231f20"/>
    <rect x="57" y="38" width="1" height="1" fill="#231f20"/>
    <rect x="0" y="39" width="1" height="1" fill="#231f20"/>
    <rect x="11" y="39" width="1" height="1" fill="#231f20"/>
    <rect x="16" y="39" width="1" height="1" fill="#231f20"/>
    <rect x="21" y="39" width="1" height="1" fill="#231f20"/>
    <rect x="57" y="39" width="1" height="1" fill="#231f20"/>
    <rect x="0" y="40" width="1" height="1" fill="#231f20"/>
    <rect x="10" y="40" width="3" height="1" fill="#231f20"/>
    <rect x="15" y="40" width="3" height="1" fill="#231f20"/>
    <rect x="19" y="40" width="5" height="1" fill="#231f20"/>
    <rect x="57" y="40" width="1" height="1" fill="#231f20"/>
    <rect x="0" y="41" width="1" height="1" fill="#231f20"/>
    <rect x="57" y="41" width="1" height="1" fill="#231f20"/>
    <rect x="0" y="42" width="1" height="1" fill="#231f20"/>
    <rect x="57" y="42" width="1" height="1" fill="#231f20"/>
    <rect x="0" y="43" width="1" height="1" fill="#231f20"/>
    <rect x="57" y="43" width="1" height="1" fill="#231f20"/>
    <rect x="0" y="44" width="1" height="1" fill="#231f20"/>
    <rect x="57" y="44" width="1" height="1" fill="#231f20"/>
    <rect x="0" y="45" width="1" height="1" fill="#231f20"/>
    <rect x="57" y="45" width="1" height="1" fill="#231f20"/>
    <rect x="0" y="46" width="58" height="1" fill="#231f20"/>
    <rect x="0" y="47" width="1" height="1" fill="#231f20"/>
    <rect x="57" y="47" width="1" height="1" fill="#231f20"/>
    <rect x="0" y="48" width="1" height="1" fill="#231f20"/>
    <rect x="57" y="48" width="1" height="1" fill="#231f20"/>
    <rect x="0" y="49" width="1" height="1" fill="#231f20"/>
    <rect x="57" y="49" width="1" height="1" fill="#231f20"/>
    <rect x="0" y="50" width="1" height="1" fill="#231f20"/>
    <rect x="57" y="50" width="1" height="1" fill="#231f20"/>
    <rect x="0" y="51" width="1" height="1" fill="#231f20"/>
    <rect x="57" y="51" width="1" height="1" fill="#231f20"/>
    <rect x="0" y="52" width="1" height="1" fill="#231f20"/>
    <rect x="57" y="52" width="1" height="1" fill="#231f20"/>
    <rect x="0" y="53" width="1" height="1" fill="#231f20"/>
    <rect x="36" y="53" width="1" height="1" fill="#231f20"/>
    <rect x="42" y="53" width="3" height="1" fill="#231f20"/>
    <rect x="57" y="53" width="1" height="1" fill="#231f20"/>
    <rect x="0" y="54" width="1" height="1" fill="#231f20"/>
    <rect x="36" y="54" width="1" height="1" fill="#231f20"/>
    <rect x="44" y="54" width="1" height="1" fill="#231f20"/>
    <rect x="57" y="54" width="1" height="1" fill="#231f20"/>
    <rect x="0" y="55" width="1" height="1" fill="#231f20"/>
    <rect x="36" y="55" width="2" height="1" fill="#231f20"/>
    <rect x="44" y="55" width="1" height="1" fill="#231f20"/>
    <rect x="57" y="55" width="1" height="1" fill="#231f20"/>
    <rect x="0" y="56" width="1" height="1" fill="#231f20"/>
    <rect x="35" y="56" width="1" height="1" fill="#231f20"/>
    <rect x="37" y="56" width="1" height="1" fill="#231f20"/>
    <rect x="44" y="56" width="1" height="1" fill="#231f20"/>
    <rect x="57" y="56" width="1" height="1" fill="#231f20"/>
    <rect x="0" y="57" width="1" height="1" fill="#231f20"/>
    <rect x="13" y="57" width="9" height="1" fill="#231f20"/>
    <rect x="35" y="57" width="1" height="1" fill="#231f20"/>
    <rect x="37" y="57" width="1" height="1" fill="#231f20"/>
    <rect x="44" y="57" width="1" height="1" fill="#231f20"/>
    <rect x="57" y="57" width="1" height="1" fill="#231f20"/>
    <rect x="0" y="58" width="1" height="1" fill="#231f20"/>
    <rect x="35" y="58" width="1" height="1" fill="#231f20"/>
    <rect x="38" y="58" width="1" height="1" fill="#231f20"/>
    <rect x="44" y="58" width="1" height="1" fill="#231f20"/>
    <rect x="57" y="58" width="1" height="1" fill="#231f20"/>
    <rect x="0" y="59" width="1" height="1" fill="#231f20"/>
    <rect x="35" y="59" width="4" height="1" fill="#231f20"/>
    <rect x="44" y="59" width="1" height="1" fill="#231f20"/>
    <rect x="57" y="59" width="1" height="1" fill="#231f20"/>
    <rect x="0" y="60" width="1" height="1" fill="#231f20"/>
    <rect x="34" y="60" width="1" height="1" fill="#231f20"/>
    <rect x="38" y="60" width="1" height="1" fill="#231f20"/>
    <rect x="44" y="60" width="1" height="1" fill="#231f20"/>
    <rect x="57" y="60" width="1" height="1" fill="#231f20"/>
    <rect x="0" y="61" width="1" height="1" fill="#231f20"/>
    <rect x="34" y="61" width="1" height="1" fill="#231f20"/>
    <rect x="39" y="61" width="1" height="1" fill="#231f20"/>
    <rect x="44" y="61" width="1" height="1" fill="#231f20"/>
    <rect x="57" y="61" width="1" height="1" fill="#231f20"/>
    <rect x="0" y="62" width="1" height="1" fill="#231f20"/>
    <rect x="34" y="62" width="1" height="1" fill="#231f20"/>
    <rect x="39" y="62" width="1" height="1" fill="#231f20"/>
    <rect x="44" y="62" width="1" height="1" fill="#231f20"/>
    <rect x="57" y="62" width="1" height="1" fill="#231f20"/>
    <rect x="0" y="63" width="1" height="1" fill="#231f20"/>
    <rect x="33" y="63" width="3" height="1" fill="#231f20"/>
    <rect x="38" y="63" width="3" height="1" fill="#231f20"/>
    <rect x="42" y="63" width="5" height="1" fill="#231f20"/>
    <rect x="57" y="63" width="1" height="1" fill="#231f20"/>
    <rect x="0" y="64" width="1" height="1" fill="#231f20"/>
    <rect x="57" y="64" width="1" height="1" fill="#231f20"/>
    <rect x="0" y="65" width="1" height="1" fill="#231f20"/>
    <rect x="57" y="65" width="1" height="1" fill="#231f20"/>
    <rect x="0" y="66" width="1" height="1" fill="#231f20"/>
    <rect x="57" y="66" width="1" height="1" fill="#231f20"/>
    <rect x="0" y="67" width="1" height="1" fill="#231f20"/>
    <rect x="57" y="67" width="1" height="1" fill="#231f20"/>
    <rect x="0" y="68" width="58" height="1" fill="#231f20"/>
  </g>
</svg>