<?xml version="1.0" encoding="UTF-8"?>
<svg xmlns="http://www.w3.org/2000/svg" viewBox="0 0 332 332" width="332" height="332">
  <!-- Auto-converted from legend-635.png -->
  <rect x="0" y="0" width="332" height="332" fill="none"/>
  <g fill="#231f20" stroke="none">
    <rect x="1" y="0" width="330" height="1" fill="#231f20"/>
    <rect x="0" y="1" width="332" height="1" fill="#231f20"/>
    <rect x="0" y="2" width="332" height="1" fill="#231f20"/>
    <rect x="0" y="3" width="332" height="1" fill="#231f20"/>
    <rect x="0" y="4" width="332" height="1" fill="#231f20"/>
    <rect x="0" y="5" width="5" height="1" fill="#231f20"/>
    <rect x="327" y="5" width="5" height="1" fill="#231f20"/>
    <rect x="0" y="6" width="5" height="1" fill="#231f20"/>
    <rect x="327" y="6" width="5" height="1" fill="#231f20"/>
    <rect x="0" y="7" width="5" height="1" fill="#231f20"/>
    <rect x="327" y="7" width="5" height="1" fill="#231f20"/>
    <rect x="0" y="8" width="5" height="1" fill="#231f20"/>
    <rect x="327" y="8" width="5" height="1" fill="#231f20"/>
    <rect x="0" y="9" width="5" height="1" fill="#231f20"/>
    <rect x="327" y="9" width="5" height="1" fill="#231f20"/>
    <rect x="0" y="10" width="5" height="1" fill="#231f20"/>
    <rect x="327" y="10" width="5" height="1" fill="#231f20"/>
    <rect x="0" y="11" width="5" height="1" fill="#231f20"/>
    <rect x="327" y="11" width="5" height="1" fill="#231f20"/>
    <rect x="0" y="12" width="5" height="1" fill="#231f20"/>
    <rect x="327" y="12" width="5" height="1" fill="#231f20"/>
    <rect x="0" y="13" width="5" height="1" fill="#231f20"/>
    <rect x="327" y="13" width="5" height="1" fill="#231f20"/>
    <rect x="0" y="14" width="5" height="1" fill="#231f20"/>
    <rect x="327" y="14" width="5" height="1" fill="#231f20"/>
    <rect x="0" y="15" width="5" height="1" fill="#231f20"/>
    <rect x="327" y="15" width="5" height="1" fill="#231f20"/>
    <rect x="0" y="16" width="5" height="1" fill="#231f20"/>
    <rect x="327" y="16" width="5" height="1" fill="#231f20"/>
    <rect x="0" y="17" width="5" height="1" fill="#231f20"/>
    <rect x="327" y="17" width="5" height="1" fill="#231f20"/>
    <rect x="0" y="18" width="5" height="1" fill="#231f20"/>
    <rect x="327" y="18" width="5" height="1" fill="#231f20"/>
    <rect x="0" y="19" width="5" height="1" fill="#231f20"/>
    <rect x="327" y="19" width="5" height="1" fill="#231f20"/>
    <rect x="0" y="20" width="5" height="1" fill="#231f20"/>
    <rect x="327" y="20" width="5" height="1" fill="#231f20"/>
    <rect x="0" y="21" width="5" height="1" fill="#231f20"/>
    <rect x="327" y="21" width="5" height="1" fill="#231f20"/>
    <rect x="0" y="22" width="5" height="1" fill="#231f20"/>
    <rect x="327" y="22" width="5" height="1" fill="#231f20"/>
    <rect x="0" y="23" width="5" height="1" fill="#231f20"/>
    <rect x="327" y="23" width="5" height="1" fill="#231f20"/>
    <rect x="0" y="24" width="5" height="1" fill="#231f20"/>
    <rect x="327" y="24" width="5" height="1" fill="#231f20"/>
    <rect x="0" y="25" width="5" height="1" fill="#231f20"/>
    <rect x="327" y="25" width="5" height="1" fill="#231f20"/>
    <rect x="0" y="26" width="5" height="1" fill="#231f20"/>
    <rect x="327" y="26" width="5" height="1" fill="#231f20"/>
    <rect x="0" y="27" width="5" height="1" fill="#231f20"/>
    <rect x="327" y="27" width="5" height="1" fill="#231f20"/>
    <rect x="0" y="28" width="5" height="1" fill="#231f20"/>
    <rect x="327" y="28" width="5" height="1" fill="#231f20"/>
    <rect x="0" y="29" width="5" height="1" fill="#231f20"/>
    <rect x="327" y="29" width="5" height="1" fill="#231f20"/>
    <rect x="0" y="30" width="5" height="1" fill="#231f20"/>
    <rect x="327" y="30" width="5" height="1" fill="#231f20"/>
    <rect x="0" y="31" width="5" height="1" fill="#231f20"/>
    <rect x="327" y="31" width="5" height="1" fill="#231f20"/>
    <rect x="0" y="32" width="5" height="1" fill="#231f20"/>
    <rect x="327" y="32" width="5" height="1" fill="#231f20"/>
    <rect x="0" y="33" width="5" height="1" fill="#231f20"/>
    <rect x="327" y="33" width="5" height="1" fill="#231f20"/>
    <rect x="0" y="34" width="5" height="1" fill="#231f20"/>
    <rect x="327" y="34" width="5" height="1" fill="#231f20"/>
    <rect x="0" y="35" width="5" height="1" fill="#231f20"/>
    <rect x="327" y="35" width="5" height="1" fill="#231f20"/>
    <rect x="0" y="36" width="5" height="1" fill="#231f20"/>
    <rect x="327" y="36" width="5" height="1" fill="#231f20"/>
    <rect x="0" y="37" width="5" height="1" fill="#231f20"/>
    <rect x="327" y="37" width="5" height="1" fill="#231f20"/>
    <rect x="0" y="38" width="5" height="1" fill="#231f20"/>
    <rect x="327" y="38" width="5" height="1" fill="#231f20"/>
    <rect x="0" y="39" width="5" height="1" fill="#231f20"/>
    <rect x="327" y="39" width="5" height="1" fill="#231f20"/>
    <rect x="0" y="40" width="5" height="1" fill="#231f20"/>
    <rect x="327" y="40" width="5" height="1" fill="#231f20"/>
    <rect x="0" y="41" width="5" height="1" fill="#231f20"/>
    <rect x="327" y="41" width="5" height="1" fill="#231f20"/>
    <rect x="0" y="42" width="5" height="1" fill="#231f20"/>
    <rect x="327" y="42" width="5" height="1" fill="#231f20"/>
    <rect x="0" y="43" width="5" height="1" fill="#231f20"/>
    <rect x="327" y="43" width="5" height="1" fill="#231f20"/>
    <rect x="0" y="44" width="5" height="1" fill="#231f20"/>
    <rect x="327" y="44" width="5" height="1" fill="#231f20"/>
    <rect x="0" y="45" width="5" height="1" fill="#231f20"/>
    <rect x="327" y="45" width="5" height="1" fill="#231f20"/>
    <rect x="0" y="46" width="5" height="1" fill="#231f20"/>
    <rect x="327" y="46" width="5" height="1" fill="#231f20"/>
    <rect x="0" y="47" width="5" height="1" fill="#231f20"/>
    <rect x="327" y="47" width="5" height="1" fill="#231f20"/>
    <rect x="0" y="48" width="5" height="1" fill="#231f20"/>
    <rect x="327" y="48" width="5" height="1" fill="#231f20"/>
    <rect x="0" y="49" width="5" height="1" fill="#231f20"/>
    <rect x="327" y="49" width="5" height="1" fill="#231f20"/>
    <rect x="0" y="50" width="5" height="1" fill="#231f20"/>
    <rect x="327" y="50" width="5" height="1" fill="#231f20"/>
    <rect x="0" y="51" width="5" height="1" fill="#231f20"/>
    <rect x="327" y="51" width="5" height="1" fill="#231f20"/>
    <rect x="0" y="52" width="5" height="1" fill="#231f20"/>
    <rect x="327" y="52" width="5" height="1" fill="#231f20"/>
    <rect x="0" y="53" width="5" height="1" fill="#231f20"/>
    <rect x="327" y="53" width="5" height="1" fill="#231f20"/>
    <rect x="0" y="54" width="5" height="1" fill="#231f20"/>
    <rect x="327" y="54" width="5" height="1" fill="#231f20"/>
    <rect x="0" y="55" width="5" height="1" fill="#231f20"/>
    <rect x="327" y="55" width="5" height="1" fill="#231f20"/>
    <rect x="0" y="56" width="5" height="1" fill="#231f20"/>
    <rect x="327" y="56" width="5" height="1" fill="#231f20"/>
    <rect x="0" y="57" width="5" height="1" fill="#231f20"/>
    <rect x="327" y="57" width="5" height="1" fill="#231f20"/>
    <rect x="0" y="58" width="5" height="1" fill="#231f20"/>
    <rect x="327" y="58" width="5" height="1" fill="#231f20"/>
    <rect x="0" y="59" width="5" height="1" fill="#231f20"/>
    <rect x="327" y="59" width="5" height="1" fill="#231f20"/>
    <rect x="0" y="60" width="5" height="1" fill="#231f20"/>
    <rect x="327" y="60" width="5" height="1" fill="#231f20"/>
    <rect x="0" y="61" width="5" height="1" fill="#231f20"/>
    <rect x="327" y="61" width="5" height="1" fill="#231f20"/>
    <rect x="0" y="62" width="5" height="1" fill="#231f20"/>
    <rect x="327" y="62" width="5" height="1" fill="#231f20"/>
    <rect x="0" y="63" width="5" height="1" fill="#231f20"/>
    <rect x="327" y="63" width="5" height="1" fill="#231f20"/>
    <rect x="0" y="64" width="5" height="1" fill="#231f20"/>
    <rect x="327" y="64" width="5" height="1" fill="#231f20"/>
    <rect x="0" y="65" width="5" height="1" fill="#231f20"/>
    <rect x="327" y="65" width="5" height="1" fill="#231f20"/>
    <rect x="0" y="66" width="5" height="1" fill="#231f20"/>
    <rect x="327" y="66" width="5" height="1" fill="#231f20"/>
    <rect x="0" y="67" width="5" height="1" fill="#231f20"/>
    <rect x="327" y="67" width="5" height="1" fill="#231f20"/>
    <rect x="0" y="68" width="5" height="1" fill="#231f20"/>
    <rect x="327" y="68" width="5" height="1" fill="#231f20"/>
    <rect x="0" y="69" width="5" height="1" fill="#231f20"/>
    <rect x="327" y="69" width="5" height="1" fill="#231f20"/>
    <rect x="0" y="70" width="5" height="1" fill="#231f20"/>
    <rect x="327" y="70" width="5" height="1" fill="#231f20"/>
    <rect x="0" y="71" width="5" height="1" fill="#231f20"/>
    <rect x="327" y="71" width="5" height="1" fill="#231f20"/>
    <rect x="0" y="72" width="5" height="1" fill="#231f20"/>
    <rect x="327" y="72" width="5" height="1" fill="#231f20"/>
    <rect x="0" y="73" width="5" height="1" fill="#231f20"/>
    <rect x="327" y="73" width="5" height="1" fill="#231f20"/>
    <rect x="0" y="74" width="5" height="1" fill="#231f20"/>
    <rect x="327" y="74" width="5" height="1" fill="#231f20"/>
    <rect x="0" y="75" width="5" height="1" fill="#231f20"/>
    <rect x="327" y="75" width="5" height="1" fill="#231f20"/>
    <rect x="0" y="76" width="5" height="1" fill="#231f20"/>
    <rect x="327" y="76" width="5" height="1" fill="#231f20"/>
    <rect x="0" y="77" width="5" height="1" fill="#231f20"/>
    <rect x="327" y="77" width="5" height="1" fill="#231f20"/>
    <rect x="0" y="78" width="5" height="1" fill="#231f20"/>
    <rect x="327" y="78" width="5" height="1" fill="#231f20"/>
    <rect x="0" y="79" width="5" height="1" fill="#231f20"/>
    <rect x="327" y="79" width="5" height="1" fill="#231f20"/>
    <rect x="0" y="80" width="5" height="1" fill="#231f20"/>
    <rect x="327" y="80" width="5" height="1" fill="#231f20"/>
    <rect x="0" y="81" width="5" height="1" fill="#231f20"/>
    <rect x="327" y="81" width="5" height="1" fill="#231f20"/>
    <rect x="0" y="82" width="5" height="1" fill="#231f20"/>
    <rect x="327" y="82" width="5" height="1" fill="#231f20"/>
    <rect x="0" y="83" width="5" height="1" fill="#231f20"/>
    <rect x="327" y="83" width="5" height="1" fill="#231f20"/>
    <rect x="0" y="84" width="5" height="1" fill="#231f20"/>
    <rect x="327" y="84" width="5" height="1" fill="#231f20"/>
    <rect x="0" y="85" width="5" height="1" fill="#231f20"/>
    <rect x="327" y="85" width="5" height="1" fill="#231f20"/>
    <rect x="0" y="86" width="5" height="1" fill="#231f20"/>
    <rect x="327" y="86" width="5" height="1" fill="#231f20"/>
    <rect x="0" y="87" width="5" height="1" fill="#231f20"/>
    <rect x="327" y="87" width="5" height="1" fill="#231f20"/>
    <rect x="0" y="88" width="5" height="1" fill="#231f20"/>
    <rect x="327" y="88" width="5" height="1" fill="#231f20"/>
    <rect x="0" y="89" width="5" height="1" fill="#231f20"/>
    <rect x="327" y="89" width="5" height="1" fill="#231f20"/>
    <rect x="0" y="90" width="5" height="1" fill="#231f20"/>
    <rect x="327" y="90" width="5" height="1" fill="#231f20"/>
    <rect x="0" y="91" width="5" height="1" fill="#231f20"/>
    <rect x="327" y="91" width="5" height="1" fill="#231f20"/>
    <rect x="0" y="92" width="5" height="1" fill="#231f20"/>
    <rect x="327" y="92" width="5" height="1" fill="#231f20"/>
    <rect x="0" y="93" width="5" height="1" fill="#231f20"/>
    <rect x="327" y="93" width="5" height="1" fill="#231f20"/>
    <rect x="0" y="94" width="5" height="1" fill="#231f20"/>
    <rect x="327" y="94" width="5" height="1" fill="#231f20"/>
    <rect x="0" y="95" width="5" height="1" fill="#231f20"/>
    <rect x="327" y="95" width="5" height="1" fill="#231f20"/>
    <rect x="0" y="96" width="5" height="1" fill="#231f20"/>
    <rect x="327" y="96" width="5" height="1" fill="#231f20"/>
    <rect x="0" y="97" width="5" height="1" fill="#231f20"/>
    <rect x="327" y="97" width="5" height="1" fill="#231f20"/>
    <rect x="0" y="98" width="5" height="1" fill="#231f20"/>
    <rect x="327" y="98" width="5" height="1" fill="#231f20"/>
    <rect x="0" y="99" width="5" height="1" fill="#231f20"/>
    <rect x="327" y="99" width="5" height="1" fill="#231f20"/>
    <rect x="0" y="100" width="5" height="1" fill="#231f20"/>
    <rect x="327" y="100" width="5" height="1" fill="#231f20"/>
    <rect x="0" y="101" width="5" height="1" fill="#231f20"/>
    <rect x="327" y="101" width="5" height="1" fill="#231f20"/>
    <rect x="0" y="102" width="5" height="1" fill="#231f20"/>
    <rect x="327" y="102" width="5" height="1" fill="#231f20"/>
    <rect x="0" y="103" width="5" height="1" fill="#231f20"/>
    <rect x="327" y="103" width="5" height="1" fill="#231f20"/>
    <rect x="0" y="104" width="5" height="1" fill="#231f20"/>
    <rect x="327" y="104" width="5" height="1" fill="#231f20"/>
    <rect x="0" y="105" width="5" height="1" fill="#231f20"/>
    <rect x="327" y="105" width="5" height="1" fill="#231f20"/>
    <rect x="0" y="106" width="5" height="1" fill="#231f20"/>
    <rect x="327" y="106" width="5" height="1" fill="#231f20"/>
    <rect x="0" y="107" width="5" height="1" fill="#231f20"/>
    <rect x="327" y="107" width="5" height="1" fill="#231f20"/>
    <rect x="0" y="108" width="5" height="1" fill="#231f20"/>
    <rect x="327" y="108" width="5" height="1" fill="#231f20"/>
    <rect x="0" y="109" width="332" height="1" fill="#231f20"/>
    <rect x="0" y="110" width="332" height="1" fill="#231f20"/>
    <rect x="0" y="111" width="332" height="1" fill="#231f20"/>
    <rect x="0" y="112" width="332" height="1" fill="#231f20"/>
    <rect x="0" y="113" width="332" height="1" fill="#231f20"/>
    <rect x="0" y="114" width="5" height="1" fill="#231f20"/>
    <rect x="327" y="114" width="5" height="1" fill="#231f20"/>
    <rect x="0" y="115" width="5" height="1" fill="#231f20"/>
    <rect x="327" y="115" width="5" height="1" fill="#231f20"/>
    <rect x="0" y="116" width="5" height="1" fill="#231f20"/>
    <rect x="327" y="116" width="5" height="1" fill="#231f20"/>
    <rect x="0" y="117" width="5" height="1" fill="#231f20"/>
    <rect x="327" y="117" width="5" height="1" fill="#231f20"/>
    <rect x="0" y="118" width="5" height="1" fill="#231f20"/>
    <rect x="327" y="118" width="5" height="1" fill="#231f20"/>
    <rect x="0" y="119" width="5" height="1" fill="#231f20"/>
    <rect x="327" y="119" width="5" height="1" fill="#231f20"/>
    <rect x="0" y="120" width="5" height="1" fill="#231f20"/>
    <rect x="327" y="120" width="5" height="1" fill="#231f20"/>
    <rect x="0" y="121" width="5" height="1" fill="#231f20"/>
    <rect x="327" y="121" width="5" height="1" fill="#231f20"/>
    <rect x="0" y="122" width="5" height="1" fill="#231f20"/>
    <rect x="327" y="122" width="5" height="1" fill="#231f20"/>
    <rect x="0" y="123" width="5" height="1" fill="#231f20"/>
    <rect x="327" y="123" width="5" height="1" fill="#231f20"/>
    <rect x="0" y="124" width="5" height="1" fill="#231f20"/>
    <rect x="327" y="124" width="5" height="1" fill="#231f20"/>
    <rect x="0" y="125" width="5" height="1" fill="#231f20"/>
    <rect x="327" y="125" width="5" height="1" fill="#231f20"/>
    <rect x="0" y="126" width="5" height="1" fill="#231f20"/>
    <rect x="327" y="126" width="5" height="1" fill="#231f20"/>
    <rect x="0" y="127" width="5" height="1" fill="#231f20"/>
    <rect x="327" y="127" width="5" height="1" fill="#231f20"/>
    <rect x="0" y="128" width="5" height="1" fill="#231f20"/>
    <rect x="327" y="128" width="5" height="1" fill="#231f20"/>
    <rect x="0" y="129" width="5" height="1" fill="#231f20"/>
    <rect x="327" y="129" width="5" height="1" fill="#231f20"/>
    <rect x="0" y="130" width="5" height="1" fill="#231f20"/>
    <rect x="327" y="130" width="5" height="1" fill="#231f20"/>
    <rect x="0" y="131" width="5" height="1" fill="#231f20"/>
    <rect x="327" y="131" width="5" height="1" fill="#231f20"/>
    <rect x="0" y="132" width="5" height="1" fill="#231f20"/>
    <rect x="327" y="132" width="5" height="1" fill="#231f20"/>
    <rect x="0" y="133" width="5" height="1" fill="#231f20"/>
    <rect x="327" y="133" width="5" height="1" fill="#231f20"/>
    <rect x="0" y="134" width="5" height="1" fill="#231f20"/>
    <rect x="327" y="134" width="5" height="1" fill="#231f20"/>
    <rect x="0" y="135" width="5" height="1" fill="#231f20"/>
    <rect x="327" y="135" width="5" height="1" fill="#231f20"/>
    <rect x="0" y="136" width="5" height="1" fill="#231f20"/>
    <rect x="327" y="136" width="5" height="1" fill="#231f20"/>
    <rect x="0" y="137" width="5" height="1" fill="#231f20"/>
    <rect x="327" y="137" width="5" height="1" fill="#231f20"/>
    <rect x="0" y="138" width="5" height="1" fill="#231f20"/>
    <rect x="67" y="138" width="87" height="1" fill="#231f20"/>
    <rect x="327" y="138" width="5" height="1" fill="#231f20"/>
    <rect x="0" y="139" width="5" height="1" fill="#231f20"/>
    <rect x="68" y="139" width="85" height="1" fill="#231f20"/>
    <rect x="327" y="139" width="5" height="1" fill="#231f20"/>
    <rect x="0" y="140" width="5" height="1" fill="#231f20"/>
    <rect x="68" y="140" width="84" height="1" fill="#231f20"/>
    <rect x="327" y="140" width="5" height="1" fill="#231f20"/>
    <rect x="0" y="141" width="5" height="1" fill="#231f20"/>
    <rect x="69" y="141" width="83" height="1" fill="#231f20"/>
    <rect x="327" y="141" width="5" height="1" fill="#231f20"/>
    <rect x="0" y="142" width="5" height="1" fill="#231f20"/>
    <rect x="69" y="142" width="82" height="1" fill="#231f20"/>
    <rect x="327" y="142" width="5" height="1" fill="#231f20"/>
    <rect x="0" y="143" width="5" height="1" fill="#231f20"/>
    <rect x="70" y="143" width="81" height="1" fill="#231f20"/>
    <rect x="327" y="143" width="5" height="1" fill="#231f20"/>
    <rect x="0" y="144" width="5" height="1" fill="#231f20"/>
    <rect x="70" y="144" width="80" height="1" fill="#231f20"/>
    <rect x="327" y="144" width="5" height="1" fill="#231f20"/>
    <rect x="0" y="145" width="5" height="1" fill="#231f20"/>
    <rect x="71" y="145" width="78" height="1" fill="#231f20"/>
    <rect x="327" y="145" width="5" height="1" fill="#231f20"/>
    <rect x="0" y="146" width="5" height="1" fill="#231f20"/>
    <rect x="72" y="146" width="77" height="1" fill="#231f20"/>
    <rect x="327" y="146" width="5" height="1" fill="#231f20"/>
    <rect x="0" y="147" width="5" height="1" fill="#231f20"/>
    <rect x="72" y="147" width="76" height="1" fill="#231f20"/>
    <rect x="327" y="147" width="5" height="1" fill="#231f20"/>
    <rect x="0" y="148" width="5" height="1" fill="#231f20"/>
    <rect x="73" y="148" width="75" height="1" fill="#231f20"/>
    <rect x="327" y="148" width="5" height="1" fill="#231f20"/>
    <rect x="0" y="149" width="5" height="1" fill="#231f20"/>
    <rect x="73" y="149" width="74" height="1" fill="#231f20"/>
    <rect x="327" y="149" width="5" height="1" fill="#231f20"/>
    <rect x="0" y="150" width="5" height="1" fill="#231f20"/>
    <rect x="74" y="150" width="72" height="1" fill="#231f20"/>
    <rect x="327" y="150" width="5" height="1" fill="#231f20"/>
    <rect x="0" y="151" width="5" height="1" fill="#231f20"/>
    <rect x="74" y="151" width="72" height="1" fill="#231f20"/>
    <rect x="327" y="151" width="5" height="1" fill="#231f20"/>
    <rect x="0" y="152" width="5" height="1" fill="#231f20"/>
    <rect x="75" y="152" width="70" height="1" fill="#231f20"/>
    <rect x="327" y="152" width="5" height="1" fill="#231f20"/>
    <rect x="0" y="153" width="5" height="1" fill="#231f20"/>
    <rect x="36" y="153" width="5" height="1" fill="#231f20"/>
    <rect x="76" y="153" width="69" height="1" fill="#231f20"/>
    <rect x="327" y="153" width="5" height="1" fill="#231f20"/>
    <rect x="0" y="154" width="5" height="1" fill="#231f20"/>
    <rect x="33" y="154" width="12" height="1" fill="#231f20"/>
    <rect x="76" y="154" width="68" height="1" fill="#231f20"/>
    <rect x="327" y="154" width="5" height="1" fill="#231f20"/>
    <rect x="0" y="155" width="5" height="1" fill="#231f20"/>
    <rect x="32" y="155" width="14" height="1" fill="#231f20"/>
    <rect x="77" y="155" width="67" height="1" fill="#231f20"/>
    <rect x="327" y="155" width="5" height="1" fill="#231f20"/>
    <rect x="0" y="156" width="5" height="1" fill="#231f20"/>
    <rect x="31" y="156" width="16" height="1" fill="#231f20"/>
    <rect x="77" y="156" width="66" height="1" fill="#231f20"/>
    <rect x="327" y="156" width="5" height="1" fill="#231f20"/>
    <rect x="0" y="157" width="5" height="1" fill="#231f20"/>
    <rect x="30" y="157" width="18" height="1" fill="#231f20"/>
    <rect x="78" y="157" width="64" height="1" fill="#231f20"/>
    <rect x="327" y="157" width="5" height="1" fill="#231f20"/>
    <rect x="0" y="158" width="5" height="1" fill="#231f20"/>
    <rect x="29" y="158" width="8" height="1" fill="#231f20"/>
    <rect x="42" y="158" width="7" height="1" fill="#231f20"/>
    <rect x="78" y="158" width="64" height="1" fill="#231f20"/>
    <rect x="327" y="158" width="5" height="1" fill="#231f20"/>
    <rect x="0" y="159" width="5" height="1" fill="#231f20"/>
    <rect x="28" y="159" width="7" height="1" fill="#231f20"/>
    <rect x="43" y="159" width="7" height="1" fill="#231f20"/>
    <rect x="79" y="159" width="62" height="1" fill="#231f20"/>
    <rect x="327" y="159" width="5" height="1" fill="#231f20"/>
    <rect x="0" y="160" width="5" height="1" fill="#231f20"/>
    <rect x="28" y="160" width="6" height="1" fill="#231f20"/>
    <rect x="44" y="160" width="6" height="1" fill="#231f20"/>
    <rect x="80" y="160" width="61" height="1" fill="#231f20"/>
    <rect x="327" y="160" width="5" height="1" fill="#231f20"/>
    <rect x="0" y="161" width="5" height="1" fill="#231f20"/>
    <rect x="28" y="161" width="5" height="1" fill="#231f20"/>
    <rect x="45" y="161" width="5" height="1" fill="#231f20"/>
    <rect x="80" y="161" width="60" height="1" fill="#231f20"/>
    <rect x="327" y="161" width="5" height="1" fill="#231f20"/>
    <rect x="0" y="162" width="5" height="1" fill="#231f20"/>
    <rect x="27" y="162" width="6" height="1" fill="#231f20"/>
    <rect x="45" y="162" width="6" height="1" fill="#231f20"/>
    <rect x="81" y="162" width="58" height="1" fill="#231f20"/>
    <rect x="327" y="162" width="5" height="1" fill="#231f20"/>
    <rect x="0" y="163" width="5" height="1" fill="#231f20"/>
    <rect x="27" y="163" width="5" height="1" fill="#231f20"/>
    <rect x="46" y="163" width="5" height="1" fill="#231f20"/>
    <rect x="81" y="163" width="58" height="1" fill="#231f20"/>
    <rect x="327" y="163" width="5" height="1" fill="#231f20"/>
    <rect x="0" y="164" width="5" height="1" fill="#231f20"/>
    <rect x="27" y="164" width="5" height="1" fill="#231f20"/>
    <rect x="46" y="164" width="5" height="1" fill="#231f20"/>
    <rect x="82" y="164" width="56" height="1" fill="#231f20"/>
    <rect x="327" y="164" width="5" height="1" fill="#231f20"/>
    <rect x="0" y="165" width="5" height="1" fill="#231f20"/>
    <rect x="27" y="165" width="5" height="1" fill="#231f20"/>
    <rect x="46" y="165" width="5" height="1" fill="#231f20"/>
    <rect x="82" y="165" width="56" height="1" fill="#231f20"/>
    <rect x="327" y="165" width="5" height="1" fill="#231f20"/>
    <rect x="0" y="166" width="5" height="1" fill="#231f20"/>
    <rect x="27" y="166" width="5" height="1" fill="#231f20"/>
    <rect x="46" y="166" width="5" height="1" fill="#231f20"/>
    <rect x="83" y="166" width="54" height="1" fill="#231f20"/>
    <rect x="327" y="166" width="5" height="1" fill="#231f20"/>
    <rect x="0" y="167" width="5" height="1" fill="#231f20"/>
    <rect x="28" y="167" width="4" height="1" fill="#231f20"/>
    <rect x="46" y="167" width="4" height="1" fill="#231f20"/>
    <rect x="83" y="167" width="53" height="1" fill="#231f20"/>
    <rect x="327" y="167" width="5" height="1" fill="#231f20"/>
    <rect x="0" y="168" width="5" height="1" fill="#231f20"/>
    <rect x="28" y="168" width="5" height="1" fill="#231f20"/>
    <rect x="45" y="168" width="5" height="1" fill="#231f20"/>
    <rect x="84" y="168" width="52" height="1" fill="#231f20"/>
    <rect x="327" y="168" width="5" height="1" fill="#231f20"/>
    <rect x="0" y="169" width="5" height="1" fill="#231f20"/>
    <rect x="28" y="169" width="6" height="1" fill="#231f20"/>
    <rect x="44" y="169" width="6" height="1" fill="#231f20"/>
    <rect x="85" y="169" width="50" height="1" fill="#231f20"/>
    <rect x="327" y="169" width="5" height="1" fill="#231f20"/>
    <rect x="0" y="170" width="5" height="1" fill="#231f20"/>
    <rect x="28" y="170" width="7" height="1" fill="#231f20"/>
    <rect x="43" y="170" width="7" height="1" fill="#231f20"/>
    <rect x="85" y="170" width="50" height="1" fill="#231f20"/>
    <rect x="327" y="170" width="5" height="1" fill="#231f20"/>
    <rect x="0" y="171" width="5" height="1" fill="#231f20"/>
    <rect x="29" y="171" width="8" height="1" fill="#231f20"/>
    <rect x="42" y="171" width="7" height="1" fill="#231f20"/>
    <rect x="86" y="171" width="48" height="1" fill="#231f20"/>
    <rect x="327" y="171" width="5" height="1" fill="#231f20"/>
    <rect x="0" y="172" width="5" height="1" fill="#231f20"/>
    <rect x="30" y="172" width="18" height="1" fill="#231f20"/>
    <rect x="86" y="172" width="48" height="1" fill="#231f20"/>
    <rect x="327" y="172" width="5" height="1" fill="#231f20"/>
    <rect x="0" y="173" width="5" height="1" fill="#231f20"/>
    <rect x="31" y="173" width="16" height="1" fill="#231f20"/>
    <rect x="87" y="173" width="46" height="1" fill="#231f20"/>
    <rect x="327" y="173" width="5" height="1" fill="#231f20"/>
    <rect x="0" y="174" width="5" height="1" fill="#231f20"/>
    <rect x="32" y="174" width="14" height="1" fill="#231f20"/>
    <rect x="87" y="174" width="45" height="1" fill="#231f20"/>
    <rect x="327" y="174" width="5" height="1" fill="#231f20"/>
    <rect x="0" y="175" width="5" height="1" fill="#231f20"/>
    <rect x="33" y="175" width="12" height="1" fill="#231f20"/>
    <rect x="88" y="175" width="44" height="1" fill="#231f20"/>
    <rect x="327" y="175" width="5" height="1" fill="#231f20"/>
    <rect x="0" y="176" width="5" height="1" fill="#231f20"/>
    <rect x="36" y="176" width="5" height="1" fill="#231f20"/>
    <rect x="89" y="176" width="42" height="1" fill="#231f20"/>
    <rect x="327" y="176" width="5" height="1" fill="#231f20"/>
    <rect x="0" y="177" width="5" height="1" fill="#231f20"/>
    <rect x="89" y="177" width="42" height="1" fill="#231f20"/>
    <rect x="327" y="177" width="5" height="1" fill="#231f20"/>
    <rect x="0" y="178" width="5" height="1" fill="#231f20"/>
    <rect x="90" y="178" width="40" height="1" fill="#231f20"/>
    <rect x="327" y="178" width="5" height="1" fill="#231f20"/>
    <rect x="0" y="179" width="5" height="1" fill="#231f20"/>
    <rect x="90" y="179" width="39" height="1" fill="#231f20"/>
    <rect x="327" y="179" width="5" height="1" fill="#231f20"/>
    <rect x="0" y="180" width="5" height="1" fill="#231f20"/>
    <rect x="91" y="180" width="38" height="1" fill="#231f20"/>
    <rect x="327" y="180" width="5" height="1" fill="#231f20"/>
    <rect x="0" y="181" width="5" height="1" fill="#231f20"/>
    <rect x="91" y="181" width="37" height="1" fill="#231f20"/>
    <rect x="327" y="181" width="5" height="1" fill="#231f20"/>
    <rect x="0" y="182" width="5" height="1" fill="#231f20"/>
    <rect x="92" y="182" width="36" height="1" fill="#231f20"/>
    <rect x="327" y="182" width="5" height="1" fill="#231f20"/>
    <rect x="0" y="183" width="5" height="1" fill="#231f20"/>
    <rect x="93" y="183" width="34" height="1" fill="#231f20"/>
    <rect x="327" y="183" width="5" height="1" fill="#231f20"/>
    <rect x="0" y="184" width="5" height="1" fill="#231f20"/>
    <rect x="93" y="184" width="34" height="1" fill="#231f20"/>
    <rect x="327" y="184" width="5" height="1" fill="#231f20"/>
    <rect x="0" y="185" width="5" height="1" fill="#231f20"/>
    <rect x="94" y="185" width="32" height="1" fill="#231f20"/>
    <rect x="327" y="185" width="5" height="1" fill="#231f20"/>
    <rect x="0" y="186" width="5" height="1" fill="#231f20"/>
    <rect x="94" y="186" width="31" height="1" fill="#231f20"/>
    <rect x="327" y="186" width="5" height="1" fill="#231f20"/>
    <rect x="0" y="187" width="5" height="1" fill="#231f20"/>
    <rect x="95" y="187" width="30" height="1" fill="#231f20"/>
    <rect x="327" y="187" width="5" height="1" fill="#231f20"/>
    <rect x="0" y="188" width="5" height="1" fill="#231f20"/>
    <rect x="95" y="188" width="29" height="1" fill="#231f20"/>
    <rect x="327" y="188" width="5" height="1" fill="#231f20"/>
    <rect x="0" y="189" width="5" height="1" fill="#231f20"/>
    <rect x="96" y="189" width="28" height="1" fill="#231f20"/>
    <rect x="327" y="189" width="5" height="1" fill="#231f20"/>
    <rect x="0" y="190" width="5" height="1" fill="#231f20"/>
    <rect x="96" y="190" width="27" height="1" fill="#231f20"/>
    <rect x="327" y="190" width="5" height="1" fill="#231f20"/>
    <rect x="0" y="191" width="5" height="1" fill="#231f20"/>
    <rect x="97" y="191" width="25" height="1" fill="#231f20"/>
    <rect x="327" y="191" width="5" height="1" fill="#231f20"/>
    <rect x="0" y="192" width="5" height="1" fill="#231f20"/>
    <rect x="98" y="192" width="24" height="1" fill="#231f20"/>
    <rect x="327" y="192" width="5" height="1" fill="#231f20"/>
    <rect x="0" y="193" width="5" height="1" fill="#231f20"/>
    <rect x="98" y="193" width="23" height="1" fill="#231f20"/>
    <rect x="327" y="193" width="5" height="1" fill="#231f20"/>
    <rect x="0" y="194" width="5" height="1" fill="#231f20"/>
    <rect x="99" y="194" width="22" height="1" fill="#231f20"/>
    <rect x="327" y="194" width="5" height="1" fill="#231f20"/>
    <rect x="0" y="195" width="5" height="1" fill="#231f20"/>
    <rect x="99" y="195" width="21" height="1" fill="#231f20"/>
    <rect x="327" y="195" width="5" height="1" fill="#231f20"/>
    <rect x="0" y="196" width="5" height="1" fill="#231f20"/>
    <rect x="100" y="196" width="19" height="1" fill="#231f20"/>
    <rect x="327" y="196" width="5" height="1" fill="#231f20"/>
    <rect x="0" y="197" width="5" height="1" fill="#231f20"/>
    <rect x="100" y="197" width="19" height="1" fill="#231f20"/>
    <rect x="327" y="197" width="5" height="1" fill="#231f20"/>
    <rect x="0" y="198" width="5" height="1" fill="#231f20"/>
    <rect x="101" y="198" width="17" height="1" fill="#231f20"/>
    <rect x="327" y="198" width="5" height="1" fill="#231f20"/>
    <rect x="0" y="199" width="5" height="1" fill="#231f20"/>
    <rect x="102" y="199" width="16" height="1" fill="#231f20"/>
    <rect x="327" y="199" width="5" height="1" fill="#231f20"/>
    <rect x="0" y="200" width="5" height="1" fill="#231f20"/>
    <rect x="102" y="200" width="15" height="1" fill="#231f20"/>
    <rect x="327" y="200" width="5" height="1" fill="#231f20"/>
    <rect x="0" y="201" width="5" height="1" fill="#231f20"/>
    <rect x="103" y="201" width="14" height="1" fill="#231f20"/>
    <rect x="327" y="201" width="5" height="1" fill="#231f20"/>
    <rect x="0" y="202" width="5" height="1" fill="#231f20"/>
    <rect x="103" y="202" width="13" height="1" fill="#231f20"/>
    <rect x="327" y="202" width="5" height="1" fill="#231f20"/>
    <rect x="0" y="203" width="5" height="1" fill="#231f20"/>
    <rect x="104" y="203" width="11" height="1" fill="#231f20"/>
    <rect x="327" y="203" width="5" height="1" fill="#231f20"/>
    <rect x="0" y="204" width="5" height="1" fill="#231f20"/>
    <rect x="104" y="204" width="11" height="1" fill="#231f20"/>
    <rect x="327" y="204" width="5" height="1" fill="#231f20"/>
    <rect x="0" y="205" width="5" height="1" fill="#231f20"/>
    <rect x="105" y="205" width="9" height="1" fill="#231f20"/>
    <rect x="327" y="205" width="5" height="1" fill="#231f20"/>
    <rect x="0" y="206" width="5" height="1" fill="#231f20"/>
    <rect x="106" y="206" width="8" height="1" fill="#231f20"/>
    <rect x="327" y="206" width="5" height="1" fill="#231f20"/>
    <rect x="0" y="207" width="5" height="1" fill="#231f20"/>
    <rect x="106" y="207" width="7" height="1" fill="#231f20"/>
    <rect x="327" y="207" width="5" height="1" fill="#231f20"/>
    <rect x="0" y="208" width="5" height="1" fill="#231f20"/>
    <rect x="107" y="208" width="5" height="1" fill="#231f20"/>
    <rect x="327" y="208" width="5" height="1" fill="#231f20"/>
    <rect x="0" y="209" width="5" height="1" fill="#231f20"/>
    <rect x="107" y="209" width="5" height="1" fill="#231f20"/>
    <rect x="327" y="209" width="5" height="1" fill="#231f20"/>
    <rect x="0" y="210" width="5" height="1" fill="#231f20"/>
    <rect x="108" y="210" width="3" height="1" fill="#231f20"/>
    <rect x="327" y="210" width="5" height="1" fill="#231f20"/>
    <rect x="0" y="211" width="5" height="1" fill="#231f20"/>
    <rect x="108" y="211" width="3" height="1" fill="#231f20"/>
    <rect x="327" y="211" width="5" height="1" fill="#231f20"/>
    <rect x="0" y="212" width="5" height="1" fill="#231f20"/>
    <rect x="109" y="212" width="1" height="1" fill="#231f20"/>
    <rect x="327" y="212" width="5" height="1" fill="#231f20"/>
    <rect x="0" y="213" width="5" height="1" fill="#231f20"/>
    <rect x="327" y="213" width="5" height="1" fill="#231f20"/>
    <rect x="0" y="214" width="5" height="1" fill="#231f20"/>
    <rect x="327" y="214" width="5" height="1" fill="#231f20"/>
    <rect x="0" y="215" width="5" height="1" fill="#231f20"/>
    <rect x="327" y="215" width="5" height="1" fill="#231f20"/>
    <rect x="0" y="216" width="5" height="1" fill="#231f20"/>
    <rect x="327" y="216" width="5" height="1" fill="#231f20"/>
    <rect x="0" y="217" width="5" height="1" fill="#231f20"/>
    <rect x="327" y="217" width="5" height="1" fill="#231f20"/>
    <rect x="0" y="218" width="332" height="1" fill="#231f20"/>
    <rect x="0" y="219" width="332" height="1" fill="#231f20"/>
    <rect x="0" y="220" width="332" height="1" fill="#231f20"/>
    <rect x="0" y="221" width="332" height="1" fill="#231f20"/>
    <rect x="0" y="222" width="332" height="1" fill="#231f20"/>
    <rect x="0" y="223" width="5" height="1" fill="#231f20"/>
    <rect x="327" y="223" width="5" height="1" fill="#231f20"/>
    <rect x="0" y="224" width="5" height="1" fill="#231f20"/>
    <rect x="327" y="224" width="5" height="1" fill="#231f20"/>
    <rect x="0" y="225" width="5" height="1" fill="#231f20"/>
    <rect x="327" y="225" width="5" height="1" fill="#231f20"/>
    <rect x="0" y="226" width="5" height="1" fill="#231f20"/>
    <rect x="327" y="226" width="5" height="1" fill="#231f20"/>
    <rect x="0" y="227" width="5" height="1" fill="#231f20"/>
    <rect x="327" y="227" width="5" height="1" fill="#231f20"/>
    <rect x="0" y="228" width="5" height="1" fill="#231f20"/>
    <rect x="327" y="228" width="5" height="1" fill="#231f20"/>
    <rect x="0" y="229" width="5" height="1" fill="#231f20"/>
    <rect x="327" y="229" width="5" height="1" fill="#231f20"/>
    <rect x="0" y="230" width="5" height="1" fill="#231f20"/>
    <rect x="327" y="230" width="5" height="1" fill="#231f20"/>
    <rect x="0" y="231" width="5" height="1" fill="#231f20"/>
    <rect x="327" y="231" width="5" height="1" fill="#231f20"/>
    <rect x="0" y="232" width="5" height="1" fill="#231f20"/>
    <rect x="327" y="232" width="5" height="1" fill="#231f20"/>
    <rect x="0" y="233" width="5" height="1" fill="#231f20"/>
    <rect x="327" y="233" width="5" height="1" fill="#231f20"/>
    <rect x="0" y="234" width="5" height="1" fill="#231f20"/>
    <rect x="327" y="234" width="5" height="1" fill="#231f20"/>
    <rect x="0" y="235" width="5" height="1" fill="#231f20"/>
    <rect x="327" y="235" width="5" height="1" fill="#231f20"/>
    <rect x="0" y="236" width="5" height="1" fill="#231f20"/>
    <rect x="327" y="236" width="5" height="1" fill="#231f20"/>
    <rect x="0" y="237" width="5" height="1" fill="#231f20"/>
    <rect x="327" y="237" width="5" height="1" fill="#231f20"/>
    <rect x="0" y="238" width="5" height="1" fill="#231f20"/>
    <rect x="327" y="238" width="5" height="1" fill="#231f20"/>
    <rect x="0" y="239" width="5" height="1" fill="#231f20"/>
    <rect x="327" y="239" width="5" height="1" fill="#231f20"/>
    <rect x="0" y="240" width="5" height="1" fill="#231f20"/>
    <rect x="327" y="240" width="5" height="1" fill="#231f20"/>
    <rect x="0" y="241" width="5" height="1" fill="#231f20"/>
    <rect x="327" y="241" width="5" height="1" fill="#231f20"/>
    <rect x="0" y="242" width="5" height="1" fill="#231f20"/>
    <rect x="327" y="242" width="5" height="1" fill="#231f20"/>
    <rect x="0" y="243" width="5" height="1" fill="#231f20"/>
    <rect x="327" y="243" width="5" height="1" fill="#231f20"/>
    <rect x="0" y="244" width="5" height="1" fill="#231f20"/>
    <rect x="327" y="244" width="5" height="1" fill="#231f20"/>
    <rect x="0" y="245" width="5" height="1" fill="#231f20"/>
    <rect x="327" y="245" width="5" height="1" fill="#231f20"/>
    <rect x="0" y="246" width="5" height="1" fill="#231f20"/>
    <rect x="327" y="246" width="5" height="1" fill="#231f20"/>
    <rect x="0" y="247" width="5" height="1" fill="#231f20"/>
    <rect x="327" y="247" width="5" height="1" fill="#231f20"/>
    <rect x="0" y="248" width="5" height="1" fill="#231f20"/>
    <rect x="327" y="248" width="5" height="1" fill="#231f20"/>
    <rect x="0" y="249" width="5" height="1" fill="#231f20"/>
    <rect x="327" y="249" width="5" height="1" fill="#231f20"/>
    <rect x="0" y="250" width="5" height="1" fill="#231f20"/>
    <rect x="327" y="250" width="5" height="1" fill="#231f20"/>
    <rect x="0" y="251" width="5" height="1" fill="#231f20"/>
    <rect x="327" y="251" width="5" height="1" fill="#231f20"/>
    <rect x="0" y="252" width="5" height="1" fill="#231f20"/>
    <rect x="327" y="252" width="5" height="1" fill="#231f20"/>
    <rect x="0" y="253" width="5" height="1" fill="#231f20"/>
    <rect x="327" y="253" width="5" height="1" fill="#231f20"/>
    <rect x="0" y="254" width="5" height="1" fill="#231f20"/>
    <rect x="327" y="254" width="5" height="1" fill="#231f20"/>
    <rect x="0" y="255" width="5" height="1" fill="#231f20"/>
    <rect x="327" y="255" width="5" height="1" fill="#231f20"/>
    <rect x="0" y="256" width="5" height="1" fill="#231f20"/>
    <rect x="327" y="256" width="5" height="1" fill="#231f20"/>
    <rect x="0" y="257" width="5" height="1" fill="#231f20"/>
    <rect x="327" y="257" width="5" height="1" fill="#231f20"/>
    <rect x="0" y="258" width="5" height="1" fill="#231f20"/>
    <rect x="327" y="258" width="5" height="1" fill="#231f20"/>
    <rect x="0" y="259" width="5" height="1" fill="#231f20"/>
    <rect x="327" y="259" width="5" height="1" fill="#231f20"/>
    <rect x="0" y="260" width="5" height="1" fill="#231f20"/>
    <rect x="327" y="260" width="5" height="1" fill="#231f20"/>
    <rect x="0" y="261" width="5" height="1" fill="#231f20"/>
    <rect x="327" y="261" width="5" height="1" fill="#231f20"/>
    <rect x="0" y="262" width="5" height="1" fill="#231f20"/>
    <rect x="327" y="262" width="5" height="1" fill="#231f20"/>
    <rect x="0" y="263" width="5" height="1" fill="#231f20"/>
    <rect x="327" y="263" width="5" height="1" fill="#231f20"/>
    <rect x="0" y="264" width="5" height="1" fill="#231f20"/>
    <rect x="327" y="264" width="5" height="1" fill="#231f20"/>
    <rect x="0" y="265" width="5" height="1" fill="#231f20"/>
    <rect x="327" y="265" width="5" height="1" fill="#231f20"/>
    <rect x="0" y="266" width="5" height="1" fill="#231f20"/>
    <rect x="327" y="266" width="5" height="1" fill="#231f20"/>
    <rect x="0" y="267" width="5" height="1" fill="#231f20"/>
    <rect x="327" y="267" width="5" height="1" fill="#231f20"/>
    <rect x="0" y="268" width="5" height="1" fill="#231f20"/>
    <rect x="327" y="268" width="5" height="1" fill="#231f20"/>
    <rect x="0" y="269" width="5" height="1" fill="#231f20"/>
    <rect x="327" y="269" width="5" height="1" fill="#231f20"/>
    <rect x="0" y="270" width="5" height="1" fill="#231f20"/>
    <rect x="327" y="270" width="5" height="1" fill="#231f20"/>
    <rect x="0" y="271" width="5" height="1" fill="#231f20"/>
    <rect x="327" y="271" width="5" height="1" fill="#231f20"/>
    <rect x="0" y="272" width="5" height="1" fill="#231f20"/>
    <rect x="327" y="272" width="5" height="1" fill="#231f20"/>
    <rect x="0" y="273" width="5" height="1" fill="#231f20"/>
    <rect x="327" y="273" width="5" height="1" fill="#231f20"/>
    <rect x="0" y="274" width="5" height="1" fill="#231f20"/>
    <rect x="327" y="274" width="5" height="1" fill="#231f20"/>
    <rect x="0" y="275" width="5" height="1" fill="#231f20"/>
    <rect x="327" y="275" width="5" height="1" fill="#231f20"/>
    <rect x="0" y="276" width="5" height="1" fill="#231f20"/>
    <rect x="327" y="276" width="5" height="1" fill="#231f20"/>
    <rect x="0" y="277" width="5" height="1" fill="#231f20"/>
    <rect x="327" y="277" width="5" height="1" fill="#231f20"/>
    <rect x="0" y="278" width="5" height="1" fill="#231f20"/>
    <rect x="327" y="278" width="5" height="1" fill="#231f20"/>
    <rect x="0" y="279" width="5" height="1" fill="#231f20"/>
    <rect x="327" y="279" width="5" height="1" fill="#231f20"/>
    <rect x="0" y="280" width="5" height="1" fill="#231f20"/>
    <rect x="327" y="280" width="5" height="1" fill="#231f20"/>
    <rect x="0" y="281" width="5" height="1" fill="#231f20"/>
    <rect x="327" y="281" width="5" height="1" fill="#231f20"/>
    <rect x="0" y="282" width="5" height="1" fill="#231f20"/>
    <rect x="327" y="282" width="5" height="1" fill="#231f20"/>
    <rect x="0" y="283" width="5" height="1" fill="#231f20"/>
    <rect x="327" y="283" width="5" height="1" fill="#231f20"/>
    <rect x="0" y="284" width="5" height="1" fill="#231f20"/>
    <rect x="327" y="284" width="5" height="1" fill="#231f20"/>
    <rect x="0" y="285" width="5" height="1" fill="#231f20"/>
    <rect x="327" y="285" width="5" height="1" fill="#231f20"/>
    <rect x="0" y="286" width="5" height="1" fill="#231f20"/>
    <rect x="327" y="286" width="5" height="1" fill="#231f20"/>
    <rect x="0" y="287" width="5" height="1" fill="#231f20"/>
    <rect x="327" y="287" width="5" height="1" fill="#231f20"/>
    <rect x="0" y="288" width="5" height="1" fill="#231f20"/>
    <rect x="327" y="288" width="5" height="1" fill="#231f20"/>
    <rect x="0" y="289" width="5" height="1" fill="#231f20"/>
    <rect x="327" y="289" width="5" height="1" fill="#231f20"/>
    <rect x="0" y="290" width="5" height="1" fill="#231f20"/>
    <rect x="327" y="290" width="5" height="1" fill="#231f20"/>
    <rect x="0" y="291" width="5" height="1" fill="#231f20"/>
    <rect x="327" y="291" width="5" height="1" fill="#231f20"/>
    <rect x="0" y="292" width="5" height="1" fill="#231f20"/>
    <rect x="327" y="292" width="5" height="1" fill="#231f20"/>
    <rect x="0" y="293" width="5" height="1" fill="#231f20"/>
    <rect x="327" y="293" width="5" height="1" fill="#231f20"/>
    <rect x="0" y="294" width="5" height="1" fill="#231f20"/>
    <rect x="327" y="294" width="5" height="1" fill="#231f20"/>
    <rect x="0" y="295" width="5" height="1" fill="#231f20"/>
    <rect x="327" y="295" width="5" height="1" fill="#231f20"/>
    <rect x="0" y="296" width="5" height="1" fill="#231f20"/>
    <rect x="327" y="296" width="5" height="1" fill="#231f20"/>
    <rect x="0" y="297" width="5" height="1" fill="#231f20"/>
    <rect x="327" y="297" width="5" height="1" fill="#231f20"/>
    <rect x="0" y="298" width="5" height="1" fill="#231f20"/>
    <rect x="327" y="298" width="5" height="1" fill="#231f20"/>
    <rect x="0" y="299" width="5" height="1" fill="#231f20"/>
    <rect x="327" y="299" width="5" height="1" fill="#231f20"/>
    <rect x="0" y="300" width="5" height="1" fill="#231f20"/>
    <rect x="327" y="300" width="5" height="1" fill="#231f20"/>
    <rect x="0" y="301" width="5" height="1" fill="#231f20"/>
    <rect x="327" y="301" width="5" height="1" fill="#231f20"/>
    <rect x="0" y="302" width="5" height="1" fill="#231f20"/>
    <rect x="327" y="302" width="5" height="1" fill="#231f20"/>
    <rect x="0" y="303" width="5" height="1" fill="#231f20"/>
    <rect x="327" y="303" width="5" height="1" fill="#231f20"/>
    <rect x="0" y="304" width="5" height="1" fill="#231f20"/>
    <rect x="327" y="304" width="5" height="1" fill="#231f20"/>
    <rect x="0" y="305" width="5" height="1" fill="#231f20"/>
    <rect x="327" y="305" width="5" height="1" fill="#231f20"/>
    <rect x="0" y="306" width="5" height="1" fill="#231f20"/>
    <rect x="327" y="306" width="5" height="1" fill="#231f20"/>
    <rect x="0" y="307" width="5" height="1" fill="#231f20"/>
    <rect x="327" y="307" width="5" height="1" fill="#231f20"/>
    <rect x="0" y="308" width="5" height="1" fill="#231f20"/>
    <rect x="327" y="308" width="5" height="1" fill="#231f20"/>
    <rect x="0" y="309" width="5" height="1" fill="#231f20"/>
    <rect x="327" y="309" width="5" height="1" fill="#231f20"/>
    <rect x="0" y="310" width="5" height="1" fill="#231f20"/>
    <rect x="327" y="310" width="5" height="1" fill="#231f20"/>
    <rect x="0" y="311" width="5" height="1" fill="#231f20"/>
    <rect x="327" y="311" width="5" height="1" fill="#231f20"/>
    <rect x="0" y="312" width="5" height="1" fill="#231f20"/>
    <rect x="327" y="312" width="5" height="1" fill="#231f20"/>
    <rect x="0" y="313" width="5" height="1" fill="#231f20"/>
    <rect x="327" y="313" width="5" height="1" fill="#231f20"/>
    <rect x="0" y="314" width="5" height="1" fill="#231f20"/>
    <rect x="327" y="314" width="5" height="1" fill="#231f20"/>
    <rect x="0" y="315" width="5" height="1" fill="#231f20"/>
    <rect x="327" y="315" width="5" height="1" fill="#231f20"/>
    <rect x="0" y="316" width="5" height="1" fill="#231f20"/>
    <rect x="327" y="316" width="5" height="1" fill="#231f20"/>
    <rect x="0" y="317" width="5" height="1" fill="#231f20"/>
    <rect x="327" y="317" width="5" height="1" fill="#231f20"/>
    <rect x="0" y="318" width="5" height="1" fill="#231f20"/>
    <rect x="327" y="318" width="5" height="1" fill="#231f20"/>
    <rect x="0" y="319" width="5" height="1" fill="#231f20"/>
    <rect x="327" y="319" width="5" height="1" fill="#231f20"/>
    <rect x="0" y="320" width="5" height="1" fill="#231f20"/>
    <rect x="327" y="320" width="5" height="1" fill="#231f20"/>
    <rect x="0" y="321" width="5" height="1" fill="#231f20"/>
    <rect x="327" y="321" width="5" height="1" fill="#231f20"/>
    <rect x="0" y="322" width="5" height="1" fill="#231f20"/>
    <rect x="327" y="322" width="5" height="1" fill="#231f20"/>
    <rect x="0" y="323" width="5" height="1" fill="#231f20"/>
    <rect x="327" y="323" width="5" height="1" fill="#231f20"/>
    <rect x="0" y="324" width="5" height="1" fill="#231f20"/>
    <rect x="327" y="324" width="5" height="1" fill="#231f20"/>
    <rect x="0" y="325" width="5" height="1" fill="#231f20"/>
    <rect x="327" y="325" width="5" height="1" fill="#231f20"/>
    <rect x="0" y="326" width="5" height="1" fill="#231f20"/>
    <rect x="327" y="326" width="5" height="1" fill="#231f20"/>
    <rect x="0" y="327" width="332" height="1" fill="#231f20"/>
    <rect x="0" y="328" width="332" height="1" fill="#231f20"/>
    <rect x="0" y="329" width="332" height="1" fill="#231f20"/>
    <rect x="0" y="330" width="332" height="1" fill="#231f20"/>
    <rect x="1" y="331" width="330" height="1" fill="#231f20"/>
  </g>
</svg>