<?xml version="1.0" encoding="UTF-8"?>
<svg xmlns="http://www.w3.org/2000/svg" viewBox="0 0 172 67" width="172" height="67">
  <!-- Auto-converted from legend-2673.png -->
  <rect x="0" y="0" width="172" height="67" fill="none"/>
  <g fill="#231f20" stroke="none">
    <rect x="0" y="0" width="172" height="1" fill="#231f20"/>
    <rect x="0" y="1" width="1" height="1" fill="#231f20"/>
    <rect x="171" y="1" width="1" height="1" fill="#231f20"/>
    <rect x="0" y="2" width="1" height="1" fill="#231f20"/>
    <rect x="171" y="2" width="1" height="1" fill="#231f20"/>
    <rect x="0" y="3" width="1" height="1" fill="#231f20"/>
    <rect x="171" y="3" width="1" height="1" fill="#231f20"/>
    <rect x="0" y="4" width="1" height="1" fill="#231f20"/>
    <rect x="171" y="4" width="1" height="1" fill="#231f20"/>
    <rect x="0" y="5" width="1" height="1" fill="#231f20"/>
    <rect x="171" y="5" width="1" height="1" fill="#231f20"/>
    <rect x="0" y="6" width="1" height="1" fill="#231f20"/>
    <rect x="171" y="6" width="1" height="1" fill="#231f20"/>
    <rect x="0" y="7" width="1" height="1" fill="#231f20"/>
    <rect x="171" y="7" width="1" height="1" fill="#231f20"/>
    <rect x="0" y="8" width="1" height="1" fill="#231f20"/>
    <rect x="171" y="8" width="1" height="1" fill="#231f20"/>
    <rect x="0" y="9" width="1" height="1" fill="#231f20"/>
    <rect x="171" y="9" width="1" height="1" fill="#231f20"/>
    <rect x="0" y="10" width="1" height="1" fill="#231f20"/>
    <rect x="171" y="10" width="1" height="1" fill="#231f20"/>
    <rect x="0" y="11" width="1" height="1" fill="#231f20"/>
    <rect x="171" y="11" width="1" height="1" fill="#231f20"/>
    <rect x="0" y="12" width="1" height="1" fill="#231f20"/>
    <rect x="171" y="12" width="1" height="1" fill="#231f20"/>
    <rect x="0" y="13" width="1" height="1" fill="#231f20"/>
    <rect x="171" y="13" width="1" height="1" fill="#231f20"/>
    <rect x="0" y="14" width="1" height="1" fill="#231f20"/>
    <rect x="171" y="14" width="1" height="1" fill="#231f20"/>
    <rect x="0" y="15" width="1" height="1" fill="#231f20"/>
    <rect x="92" y="15" width="1" height="1" fill="#231f20"/>
    <rect x="97" y="15" width="1" height="1" fill="#231f20"/>
    <rect x="171" y="15" width="1" height="1" fill="#231f20"/>
    <rect x="0" y="16" width="1" height="1" fill="#231f20"/>
    <rect x="92" y="16" width="7" height="1" fill="#231f20"/>
    <rect x="171" y="16" width="1" height="1" fill="#231f20"/>
    <rect x="0" y="17" width="1" height="1" fill="#231f20"/>
    <rect x="92" y="17" width="6" height="1" fill="#231f20"/>
    <rect x="171" y="17" width="1" height="1" fill="#231f20"/>
    <rect x="0" y="18" width="1" height="1" fill="#231f20"/>
    <rect x="92" y="18" width="6" height="1" fill="#231f20"/>
    <rect x="171" y="18" width="1" height="1" fill="#231f20"/>
    <rect x="0" y="19" width="1" height="1" fill="#231f20"/>
    <rect x="9" y="19" width="13" height="1" fill="#231f20"/>
    <rect x="92" y="19" width="7" height="1" fill="#231f20"/>
    <rect x="171" y="19" width="1" height="1" fill="#231f20"/>
    <rect x="0" y="20" width="1" height="1" fill="#231f20"/>
    <rect x="8" y="20" width="22" height="1" fill="#231f20"/>
    <rect x="92" y="20" width="7" height="1" fill="#231f20"/>
    <rect x="171" y="20" width="1" height="1" fill="#231f20"/>
    <rect x="0" y="21" width="1" height="1" fill="#231f20"/>
    <rect x="9" y="21" width="39" height="1" fill="#231f20"/>
    <rect x="92" y="21" width="7" height="1" fill="#231f20"/>
    <rect x="116" y="21" width="1" height="1" fill="#231f20"/>
    <rect x="171" y="21" width="1" height="1" fill="#231f20"/>
    <rect x="0" y="22" width="1" height="1" fill="#231f20"/>
    <rect x="22" y="22" width="30" height="1" fill="#231f20"/>
    <rect x="92" y="22" width="2" height="1" fill="#231f20"/>
    <rect x="95" y="22" width="1" height="1" fill="#231f20"/>
    <rect x="97" y="22" width="2" height="1" fill="#231f20"/>
    <rect x="116" y="22" width="4" height="1" fill="#231f20"/>
    <rect x="171" y="22" width="1" height="1" fill="#231f20"/>
    <rect x="0" y="23" width="1" height="1" fill="#231f20"/>
    <rect x="30" y="23" width="25" height="1" fill="#231f20"/>
    <rect x="95" y="23" width="1" height="1" fill="#231f20"/>
    <rect x="98" y="23" width="1" height="1" fill="#231f20"/>
    <rect x="116" y="23" width="2" height="1" fill="#231f20"/>
    <rect x="119" y="23" width="1" height="1" fill="#231f20"/>
    <rect x="171" y="23" width="1" height="1" fill="#231f20"/>
    <rect x="0" y="24" width="1" height="1" fill="#231f20"/>
    <rect x="37" y="24" width="8" height="1" fill="#231f20"/>
    <rect x="46" y="24" width="16" height="1" fill="#231f20"/>
    <rect x="92" y="24" width="7" height="1" fill="#231f20"/>
    <rect x="116" y="24" width="2" height="1" fill="#231f20"/>
    <rect x="119" y="24" width="1" height="1" fill="#231f20"/>
    <rect x="171" y="24" width="1" height="1" fill="#231f20"/>
    <rect x="0" y="25" width="1" height="1" fill="#231f20"/>
    <rect x="42" y="25" width="2" height="1" fill="#231f20"/>
    <rect x="52" y="25" width="5" height="1" fill="#231f20"/>
    <rect x="61" y="25" width="5" height="1" fill="#231f20"/>
    <rect x="95" y="25" width="1" height="1" fill="#231f20"/>
    <rect x="98" y="25" width="1" height="1" fill="#231f20"/>
    <rect x="116" y="25" width="2" height="1" fill="#231f20"/>
    <rect x="119" y="25" width="1" height="1" fill="#231f20"/>
    <rect x="121" y="25" width="1" height="1" fill="#231f20"/>
    <rect x="171" y="25" width="1" height="1" fill="#231f20"/>
    <rect x="0" y="26" width="1" height="1" fill="#231f20"/>
    <rect x="57" y="26" width="2" height="1" fill="#231f20"/>
    <rect x="66" y="26" width="3" height="1" fill="#231f20"/>
    <rect x="92" y="26" width="8" height="1" fill="#231f20"/>
    <rect x="114" y="26" width="9" height="1" fill="#231f20"/>
    <rect x="171" y="26" width="1" height="1" fill="#231f20"/>
    <rect x="0" y="27" width="1" height="1" fill="#231f20"/>
    <rect x="59" y="27" width="13" height="1" fill="#231f20"/>
    <rect x="92" y="27" width="3" height="1" fill="#231f20"/>
    <rect x="96" y="27" width="1" height="1" fill="#231f20"/>
    <rect x="98" y="27" width="1" height="1" fill="#231f20"/>
    <rect x="116" y="27" width="5" height="1" fill="#231f20"/>
    <rect x="171" y="27" width="1" height="1" fill="#231f20"/>
    <rect x="0" y="28" width="1" height="1" fill="#231f20"/>
    <rect x="66" y="28" width="3" height="1" fill="#231f20"/>
    <rect x="72" y="28" width="4" height="1" fill="#231f20"/>
    <rect x="93" y="28" width="2" height="1" fill="#231f20"/>
    <rect x="96" y="28" width="4" height="1" fill="#231f20"/>
    <rect x="117" y="28" width="5" height="1" fill="#231f20"/>
    <rect x="138" y="28" width="1" height="1" fill="#231f20"/>
    <rect x="171" y="28" width="1" height="1" fill="#231f20"/>
    <rect x="0" y="29" width="1" height="1" fill="#231f20"/>
    <rect x="69" y="29" width="2" height="1" fill="#231f20"/>
    <rect x="76" y="29" width="3" height="1" fill="#231f20"/>
    <rect x="93" y="29" width="7" height="1" fill="#231f20"/>
    <rect x="117" y="29" width="5" height="1" fill="#231f20"/>
    <rect x="138" y="29" width="2" height="1" fill="#231f20"/>
    <rect x="145" y="29" width="1" height="1" fill="#231f20"/>
    <rect x="171" y="29" width="1" height="1" fill="#231f20"/>
    <rect x="0" y="30" width="1" height="1" fill="#231f20"/>
    <rect x="71" y="30" width="4" height="1" fill="#231f20"/>
    <rect x="79" y="30" width="3" height="1" fill="#231f20"/>
    <rect x="92" y="30" width="2" height="1" fill="#231f20"/>
    <rect x="95" y="30" width="1" height="1" fill="#231f20"/>
    <rect x="97" y="30" width="1" height="1" fill="#231f20"/>
    <rect x="99" y="30" width="1" height="1" fill="#231f20"/>
    <rect x="117" y="30" width="1" height="1" fill="#231f20"/>
    <rect x="119" y="30" width="2" height="1" fill="#231f20"/>
    <rect x="139" y="30" width="7" height="1" fill="#231f20"/>
    <rect x="171" y="30" width="1" height="1" fill="#231f20"/>
    <rect x="0" y="31" width="1" height="1" fill="#231f20"/>
    <rect x="75" y="31" width="3" height="1" fill="#231f20"/>
    <rect x="82" y="31" width="6" height="1" fill="#231f20"/>
    <rect x="116" y="31" width="2" height="1" fill="#231f20"/>
    <rect x="119" y="31" width="2" height="1" fill="#231f20"/>
    <rect x="139" y="31" width="2" height="1" fill="#231f20"/>
    <rect x="142" y="31" width="2" height="1" fill="#231f20"/>
    <rect x="171" y="31" width="1" height="1" fill="#231f20"/>
    <rect x="0" y="32" width="1" height="1" fill="#231f20"/>
    <rect x="78" y="32" width="3" height="1" fill="#231f20"/>
    <rect x="88" y="32" width="3" height="1" fill="#231f20"/>
    <rect x="116" y="32" width="2" height="1" fill="#231f20"/>
    <rect x="119" y="32" width="2" height="1" fill="#231f20"/>
    <rect x="122" y="32" width="1" height="1" fill="#231f20"/>
    <rect x="138" y="32" width="1" height="1" fill="#231f20"/>
    <rect x="140" y="32" width="1" height="1" fill="#231f20"/>
    <rect x="142" y="32" width="2" height="1" fill="#231f20"/>
    <rect x="171" y="32" width="1" height="1" fill="#231f20"/>
    <rect x="0" y="33" width="1" height="1" fill="#231f20"/>
    <rect x="81" y="33" width="4" height="1" fill="#231f20"/>
    <rect x="91" y="33" width="2" height="1" fill="#231f20"/>
    <rect x="116" y="33" width="4" height="1" fill="#231f20"/>
    <rect x="122" y="33" width="1" height="1" fill="#231f20"/>
    <rect x="138" y="33" width="3" height="1" fill="#231f20"/>
    <rect x="142" y="33" width="2" height="1" fill="#231f20"/>
    <rect x="171" y="33" width="1" height="1" fill="#231f20"/>
    <rect x="0" y="34" width="1" height="1" fill="#231f20"/>
    <rect x="85" y="34" width="3" height="1" fill="#231f20"/>
    <rect x="93" y="34" width="2" height="1" fill="#231f20"/>
    <rect x="116" y="34" width="1" height="1" fill="#231f20"/>
    <rect x="118" y="34" width="2" height="1" fill="#231f20"/>
    <rect x="122" y="34" width="1" height="1" fill="#231f20"/>
    <rect x="139" y="34" width="2" height="1" fill="#231f20"/>
    <rect x="142" y="34" width="2" height="1" fill="#231f20"/>
    <rect x="171" y="34" width="1" height="1" fill="#231f20"/>
    <rect x="0" y="35" width="1" height="1" fill="#231f20"/>
    <rect x="88" y="35" width="2" height="1" fill="#231f20"/>
    <rect x="93" y="35" width="4" height="1" fill="#231f20"/>
    <rect x="115" y="35" width="5" height="1" fill="#231f20"/>
    <rect x="122" y="35" width="1" height="1" fill="#231f20"/>
    <rect x="139" y="35" width="2" height="1" fill="#231f20"/>
    <rect x="142" y="35" width="2" height="1" fill="#231f20"/>
    <rect x="171" y="35" width="1" height="1" fill="#231f20"/>
    <rect x="0" y="36" width="1" height="1" fill="#231f20"/>
    <rect x="90" y="36" width="5" height="1" fill="#231f20"/>
    <rect x="97" y="36" width="3" height="1" fill="#231f20"/>
    <rect x="115" y="36" width="1" height="1" fill="#231f20"/>
    <rect x="119" y="36" width="5" height="1" fill="#231f20"/>
    <rect x="140" y="36" width="1" height="1" fill="#231f20"/>
    <rect x="143" y="36" width="2" height="1" fill="#231f20"/>
    <rect x="171" y="36" width="1" height="1" fill="#231f20"/>
    <rect x="0" y="37" width="1" height="1" fill="#231f20"/>
    <rect x="92" y="37" width="3" height="1" fill="#231f20"/>
    <rect x="100" y="37" width="3" height="1" fill="#231f20"/>
    <rect x="115" y="37" width="1" height="1" fill="#231f20"/>
    <rect x="120" y="37" width="3" height="1" fill="#231f20"/>
    <rect x="140" y="37" width="1" height="1" fill="#231f20"/>
    <rect x="143" y="37" width="2" height="1" fill="#231f20"/>
    <rect x="171" y="37" width="1" height="1" fill="#231f20"/>
    <rect x="0" y="38" width="1" height="1" fill="#231f20"/>
    <rect x="94" y="38" width="2" height="1" fill="#231f20"/>
    <rect x="103" y="38" width="3" height="1" fill="#231f20"/>
    <rect x="115" y="38" width="1" height="1" fill="#231f20"/>
    <rect x="138" y="38" width="3" height="1" fill="#231f20"/>
    <rect x="143" y="38" width="2" height="1" fill="#231f20"/>
    <rect x="171" y="38" width="1" height="1" fill="#231f20"/>
    <rect x="0" y="39" width="1" height="1" fill="#231f20"/>
    <rect x="96" y="39" width="3" height="1" fill="#231f20"/>
    <rect x="106" y="39" width="3" height="1" fill="#231f20"/>
    <rect x="139" y="39" width="2" height="1" fill="#231f20"/>
    <rect x="143" y="39" width="2" height="1" fill="#231f20"/>
    <rect x="171" y="39" width="1" height="1" fill="#231f20"/>
    <rect x="0" y="40" width="1" height="1" fill="#231f20"/>
    <rect x="99" y="40" width="4" height="1" fill="#231f20"/>
    <rect x="105" y="40" width="3" height="1" fill="#231f20"/>
    <rect x="109" y="40" width="2" height="1" fill="#231f20"/>
    <rect x="139" y="40" width="2" height="1" fill="#231f20"/>
    <rect x="143" y="40" width="2" height="1" fill="#231f20"/>
    <rect x="146" y="40" width="1" height="1" fill="#231f20"/>
    <rect x="171" y="40" width="1" height="1" fill="#231f20"/>
    <rect x="0" y="41" width="1" height="1" fill="#231f20"/>
    <rect x="103" y="41" width="5" height="1" fill="#231f20"/>
    <rect x="111" y="41" width="5" height="1" fill="#231f20"/>
    <rect x="139" y="41" width="8" height="1" fill="#231f20"/>
    <rect x="171" y="41" width="1" height="1" fill="#231f20"/>
    <rect x="0" y="42" width="1" height="1" fill="#231f20"/>
    <rect x="105" y="42" width="3" height="1" fill="#231f20"/>
    <rect x="116" y="42" width="3" height="1" fill="#231f20"/>
    <rect x="140" y="42" width="8" height="1" fill="#231f20"/>
    <rect x="171" y="42" width="1" height="1" fill="#231f20"/>
    <rect x="0" y="43" width="1" height="1" fill="#231f20"/>
    <rect x="108" y="43" width="3" height="1" fill="#231f20"/>
    <rect x="119" y="43" width="4" height="1" fill="#231f20"/>
    <rect x="140" y="43" width="1" height="1" fill="#231f20"/>
    <rect x="171" y="43" width="1" height="1" fill="#231f20"/>
    <rect x="0" y="44" width="1" height="1" fill="#231f20"/>
    <rect x="110" y="44" width="5" height="1" fill="#231f20"/>
    <rect x="118" y="44" width="2" height="1" fill="#231f20"/>
    <rect x="123" y="44" width="3" height="1" fill="#231f20"/>
    <rect x="171" y="44" width="1" height="1" fill="#231f20"/>
    <rect x="0" y="45" width="1" height="1" fill="#231f20"/>
    <rect x="115" y="45" width="5" height="1" fill="#231f20"/>
    <rect x="126" y="45" width="4" height="1" fill="#231f20"/>
    <rect x="171" y="45" width="1" height="1" fill="#231f20"/>
    <rect x="0" y="46" width="1" height="1" fill="#231f20"/>
    <rect x="119" y="46" width="3" height="1" fill="#231f20"/>
    <rect x="130" y="46" width="1" height="1" fill="#231f20"/>
    <rect x="171" y="46" width="1" height="1" fill="#231f20"/>
    <rect x="0" y="47" width="1" height="1" fill="#231f20"/>
    <rect x="122" y="47" width="2" height="1" fill="#231f20"/>
    <rect x="131" y="47" width="1" height="1" fill="#231f20"/>
    <rect x="171" y="47" width="1" height="1" fill="#231f20"/>
    <rect x="0" y="48" width="1" height="1" fill="#231f20"/>
    <rect x="124" y="48" width="3" height="1" fill="#231f20"/>
    <rect x="132" y="48" width="3" height="1" fill="#231f20"/>
    <rect x="171" y="48" width="1" height="1" fill="#231f20"/>
    <rect x="0" y="49" width="1" height="1" fill="#231f20"/>
    <rect x="127" y="49" width="3" height="1" fill="#231f20"/>
    <rect x="131" y="49" width="3" height="1" fill="#231f20"/>
    <rect x="135" y="49" width="4" height="1" fill="#231f20"/>
    <rect x="171" y="49" width="1" height="1" fill="#231f20"/>
    <rect x="0" y="50" width="1" height="1" fill="#231f20"/>
    <rect x="130" y="50" width="4" height="1" fill="#231f20"/>
    <rect x="139" y="50" width="2" height="1" fill="#231f20"/>
    <rect x="171" y="50" width="1" height="1" fill="#231f20"/>
    <rect x="0" y="51" width="1" height="1" fill="#231f20"/>
    <rect x="134" y="51" width="2" height="1" fill="#231f20"/>
    <rect x="141" y="51" width="3" height="1" fill="#231f20"/>
    <rect x="171" y="51" width="1" height="1" fill="#231f20"/>
    <rect x="0" y="52" width="1" height="1" fill="#231f20"/>
    <rect x="136" y="52" width="3" height="1" fill="#231f20"/>
    <rect x="144" y="52" width="4" height="1" fill="#231f20"/>
    <rect x="171" y="52" width="1" height="1" fill="#231f20"/>
    <rect x="0" y="53" width="1" height="1" fill="#231f20"/>
    <rect x="138" y="53" width="2" height="1" fill="#231f20"/>
    <rect x="143" y="53" width="8" height="1" fill="#231f20"/>
    <rect x="171" y="53" width="1" height="1" fill="#231f20"/>
    <rect x="0" y="54" width="1" height="1" fill="#231f20"/>
    <rect x="140" y="54" width="2" height="1" fill="#231f20"/>
    <rect x="143" y="54" width="5" height="1" fill="#231f20"/>
    <rect x="151" y="54" width="2" height="1" fill="#231f20"/>
    <rect x="171" y="54" width="1" height="1" fill="#231f20"/>
    <rect x="0" y="55" width="1" height="1" fill="#231f20"/>
    <rect x="142" y="55" width="6" height="1" fill="#231f20"/>
    <rect x="153" y="55" width="2" height="1" fill="#231f20"/>
    <rect x="171" y="55" width="1" height="1" fill="#231f20"/>
    <rect x="0" y="56" width="1" height="1" fill="#231f20"/>
    <rect x="142" y="56" width="5" height="1" fill="#231f20"/>
    <rect x="171" y="56" width="1" height="1" fill="#231f20"/>
    <rect x="0" y="57" width="1" height="1" fill="#231f20"/>
    <rect x="144" y="57" width="6" height="1" fill="#231f20"/>
    <rect x="171" y="57" width="1" height="1" fill="#231f20"/>
    <rect x="0" y="58" width="1" height="1" fill="#231f20"/>
    <rect x="149" y="58" width="3" height="1" fill="#231f20"/>
    <rect x="171" y="58" width="1" height="1" fill="#231f20"/>
    <rect x="0" y="59" width="1" height="1" fill="#231f20"/>
    <rect x="152" y="59" width="1" height="1" fill="#231f20"/>
    <rect x="171" y="59" width="1" height="1" fill="#231f20"/>
    <rect x="0" y="60" width="1" height="1" fill="#231f20"/>
    <rect x="171" y="60" width="1" height="1" fill="#231f20"/>
    <rect x="0" y="61" width="1" height="1" fill="#231f20"/>
    <rect x="171" y="61" width="1" height="1" fill="#231f20"/>
    <rect x="0" y="62" width="1" height="1" fill="#231f20"/>
    <rect x="171" y="62" width="1" height="1" fill="#231f20"/>
    <rect x="0" y="63" width="1" height="1" fill="#231f20"/>
    <rect x="171" y="63" width="1" height="1" fill="#231f20"/>
    <rect x="0" y="64" width="1" height="1" fill="#231f20"/>
    <rect x="171" y="64" width="1" height="1" fill="#231f20"/>
    <rect x="0" y="65" width="1" height="1" fill="#231f20"/>
    <rect x="171" y="65" width="1" height="1" fill="#231f20"/>
    <rect x="0" y="66" width="172" height="1" fill="#231f20"/>
  </g>
</svg>