<?xml version="1.0" encoding="UTF-8"?>
<svg xmlns="http://www.w3.org/2000/svg" viewBox="0 0 334 335" width="334" height="335">
  <!-- Auto-converted from legend-645.png -->
  <rect x="0" y="0" width="334" height="335" fill="none"/>
  <g fill="#231f20" stroke="none">
    <rect x="1" y="0" width="332" height="1" fill="#231f20"/>
    <rect x="0" y="1" width="334" height="1" fill="#231f20"/>
    <rect x="0" y="2" width="334" height="1" fill="#231f20"/>
    <rect x="0" y="3" width="334" height="1" fill="#231f20"/>
    <rect x="0" y="4" width="334" height="1" fill="#231f20"/>
    <rect x="0" y="5" width="5" height="1" fill="#231f20"/>
    <rect x="329" y="5" width="5" height="1" fill="#231f20"/>
    <rect x="0" y="6" width="5" height="1" fill="#231f20"/>
    <rect x="329" y="6" width="5" height="1" fill="#231f20"/>
    <rect x="0" y="7" width="5" height="1" fill="#231f20"/>
    <rect x="329" y="7" width="5" height="1" fill="#231f20"/>
    <rect x="0" y="8" width="5" height="1" fill="#231f20"/>
    <rect x="329" y="8" width="5" height="1" fill="#231f20"/>
    <rect x="0" y="9" width="5" height="1" fill="#231f20"/>
    <rect x="329" y="9" width="5" height="1" fill="#231f20"/>
    <rect x="0" y="10" width="5" height="1" fill="#231f20"/>
    <rect x="329" y="10" width="5" height="1" fill="#231f20"/>
    <rect x="0" y="11" width="5" height="1" fill="#231f20"/>
    <rect x="329" y="11" width="5" height="1" fill="#231f20"/>
    <rect x="0" y="12" width="5" height="1" fill="#231f20"/>
    <rect x="329" y="12" width="5" height="1" fill="#231f20"/>
    <rect x="0" y="13" width="5" height="1" fill="#231f20"/>
    <rect x="329" y="13" width="5" height="1" fill="#231f20"/>
    <rect x="0" y="14" width="5" height="1" fill="#231f20"/>
    <rect x="329" y="14" width="5" height="1" fill="#231f20"/>
    <rect x="0" y="15" width="5" height="1" fill="#231f20"/>
    <rect x="329" y="15" width="5" height="1" fill="#231f20"/>
    <rect x="0" y="16" width="5" height="1" fill="#231f20"/>
    <rect x="329" y="16" width="5" height="1" fill="#231f20"/>
    <rect x="0" y="17" width="5" height="1" fill="#231f20"/>
    <rect x="329" y="17" width="5" height="1" fill="#231f20"/>
    <rect x="0" y="18" width="5" height="1" fill="#231f20"/>
    <rect x="329" y="18" width="5" height="1" fill="#231f20"/>
    <rect x="0" y="19" width="5" height="1" fill="#231f20"/>
    <rect x="329" y="19" width="5" height="1" fill="#231f20"/>
    <rect x="0" y="20" width="5" height="1" fill="#231f20"/>
    <rect x="329" y="20" width="5" height="1" fill="#231f20"/>
    <rect x="0" y="21" width="5" height="1" fill="#231f20"/>
    <rect x="329" y="21" width="5" height="1" fill="#231f20"/>
    <rect x="0" y="22" width="5" height="1" fill="#231f20"/>
    <rect x="329" y="22" width="5" height="1" fill="#231f20"/>
    <rect x="0" y="23" width="5" height="1" fill="#231f20"/>
    <rect x="329" y="23" width="5" height="1" fill="#231f20"/>
    <rect x="0" y="24" width="5" height="1" fill="#231f20"/>
    <rect x="329" y="24" width="5" height="1" fill="#231f20"/>
    <rect x="0" y="25" width="5" height="1" fill="#231f20"/>
    <rect x="329" y="25" width="5" height="1" fill="#231f20"/>
    <rect x="0" y="26" width="5" height="1" fill="#231f20"/>
    <rect x="329" y="26" width="5" height="1" fill="#231f20"/>
    <rect x="0" y="27" width="5" height="1" fill="#231f20"/>
    <rect x="329" y="27" width="5" height="1" fill="#231f20"/>
    <rect x="0" y="28" width="5" height="1" fill="#231f20"/>
    <rect x="329" y="28" width="5" height="1" fill="#231f20"/>
    <rect x="0" y="29" width="5" height="1" fill="#231f20"/>
    <rect x="329" y="29" width="5" height="1" fill="#231f20"/>
    <rect x="0" y="30" width="5" height="1" fill="#231f20"/>
    <rect x="329" y="30" width="5" height="1" fill="#231f20"/>
    <rect x="0" y="31" width="5" height="1" fill="#231f20"/>
    <rect x="329" y="31" width="5" height="1" fill="#231f20"/>
    <rect x="0" y="32" width="5" height="1" fill="#231f20"/>
    <rect x="329" y="32" width="5" height="1" fill="#231f20"/>
    <rect x="0" y="33" width="5" height="1" fill="#231f20"/>
    <rect x="329" y="33" width="5" height="1" fill="#231f20"/>
    <rect x="0" y="34" width="5" height="1" fill="#231f20"/>
    <rect x="329" y="34" width="5" height="1" fill="#231f20"/>
    <rect x="0" y="35" width="5" height="1" fill="#231f20"/>
    <rect x="329" y="35" width="5" height="1" fill="#231f20"/>
    <rect x="0" y="36" width="5" height="1" fill="#231f20"/>
    <rect x="329" y="36" width="5" height="1" fill="#231f20"/>
    <rect x="0" y="37" width="5" height="1" fill="#231f20"/>
    <rect x="329" y="37" width="5" height="1" fill="#231f20"/>
    <rect x="0" y="38" width="5" height="1" fill="#231f20"/>
    <rect x="329" y="38" width="5" height="1" fill="#231f20"/>
    <rect x="0" y="39" width="5" height="1" fill="#231f20"/>
    <rect x="329" y="39" width="5" height="1" fill="#231f20"/>
    <rect x="0" y="40" width="5" height="1" fill="#231f20"/>
    <rect x="329" y="40" width="5" height="1" fill="#231f20"/>
    <rect x="0" y="41" width="5" height="1" fill="#231f20"/>
    <rect x="329" y="41" width="5" height="1" fill="#231f20"/>
    <rect x="0" y="42" width="5" height="1" fill="#231f20"/>
    <rect x="329" y="42" width="5" height="1" fill="#231f20"/>
    <rect x="0" y="43" width="5" height="1" fill="#231f20"/>
    <rect x="329" y="43" width="5" height="1" fill="#231f20"/>
    <rect x="0" y="44" width="5" height="1" fill="#231f20"/>
    <rect x="329" y="44" width="5" height="1" fill="#231f20"/>
    <rect x="0" y="45" width="5" height="1" fill="#231f20"/>
    <rect x="329" y="45" width="5" height="1" fill="#231f20"/>
    <rect x="0" y="46" width="5" height="1" fill="#231f20"/>
    <rect x="329" y="46" width="5" height="1" fill="#231f20"/>
    <rect x="0" y="47" width="5" height="1" fill="#231f20"/>
    <rect x="329" y="47" width="5" height="1" fill="#231f20"/>
    <rect x="0" y="48" width="5" height="1" fill="#231f20"/>
    <rect x="329" y="48" width="5" height="1" fill="#231f20"/>
    <rect x="0" y="49" width="5" height="1" fill="#231f20"/>
    <rect x="329" y="49" width="5" height="1" fill="#231f20"/>
    <rect x="0" y="50" width="5" height="1" fill="#231f20"/>
    <rect x="329" y="50" width="5" height="1" fill="#231f20"/>
    <rect x="0" y="51" width="5" height="1" fill="#231f20"/>
    <rect x="329" y="51" width="5" height="1" fill="#231f20"/>
    <rect x="0" y="52" width="5" height="1" fill="#231f20"/>
    <rect x="329" y="52" width="5" height="1" fill="#231f20"/>
    <rect x="0" y="53" width="5" height="1" fill="#231f20"/>
    <rect x="329" y="53" width="5" height="1" fill="#231f20"/>
    <rect x="0" y="54" width="5" height="1" fill="#231f20"/>
    <rect x="329" y="54" width="5" height="1" fill="#231f20"/>
    <rect x="0" y="55" width="5" height="1" fill="#231f20"/>
    <rect x="329" y="55" width="5" height="1" fill="#231f20"/>
    <rect x="0" y="56" width="5" height="1" fill="#231f20"/>
    <rect x="329" y="56" width="5" height="1" fill="#231f20"/>
    <rect x="0" y="57" width="5" height="1" fill="#231f20"/>
    <rect x="329" y="57" width="5" height="1" fill="#231f20"/>
    <rect x="0" y="58" width="5" height="1" fill="#231f20"/>
    <rect x="329" y="58" width="5" height="1" fill="#231f20"/>
    <rect x="0" y="59" width="5" height="1" fill="#231f20"/>
    <rect x="329" y="59" width="5" height="1" fill="#231f20"/>
    <rect x="0" y="60" width="5" height="1" fill="#231f20"/>
    <rect x="329" y="60" width="5" height="1" fill="#231f20"/>
    <rect x="0" y="61" width="5" height="1" fill="#231f20"/>
    <rect x="329" y="61" width="5" height="1" fill="#231f20"/>
    <rect x="0" y="62" width="5" height="1" fill="#231f20"/>
    <rect x="329" y="62" width="5" height="1" fill="#231f20"/>
    <rect x="0" y="63" width="5" height="1" fill="#231f20"/>
    <rect x="329" y="63" width="5" height="1" fill="#231f20"/>
    <rect x="0" y="64" width="5" height="1" fill="#231f20"/>
    <rect x="329" y="64" width="5" height="1" fill="#231f20"/>
    <rect x="0" y="65" width="5" height="1" fill="#231f20"/>
    <rect x="329" y="65" width="5" height="1" fill="#231f20"/>
    <rect x="0" y="66" width="5" height="1" fill="#231f20"/>
    <rect x="329" y="66" width="5" height="1" fill="#231f20"/>
    <rect x="0" y="67" width="5" height="1" fill="#231f20"/>
    <rect x="329" y="67" width="5" height="1" fill="#231f20"/>
    <rect x="0" y="68" width="5" height="1" fill="#231f20"/>
    <rect x="329" y="68" width="5" height="1" fill="#231f20"/>
    <rect x="0" y="69" width="5" height="1" fill="#231f20"/>
    <rect x="329" y="69" width="5" height="1" fill="#231f20"/>
    <rect x="0" y="70" width="5" height="1" fill="#231f20"/>
    <rect x="329" y="70" width="5" height="1" fill="#231f20"/>
    <rect x="0" y="71" width="5" height="1" fill="#231f20"/>
    <rect x="329" y="71" width="5" height="1" fill="#231f20"/>
    <rect x="0" y="72" width="5" height="1" fill="#231f20"/>
    <rect x="329" y="72" width="5" height="1" fill="#231f20"/>
    <rect x="0" y="73" width="5" height="1" fill="#231f20"/>
    <rect x="329" y="73" width="5" height="1" fill="#231f20"/>
    <rect x="0" y="74" width="5" height="1" fill="#231f20"/>
    <rect x="329" y="74" width="5" height="1" fill="#231f20"/>
    <rect x="0" y="75" width="5" height="1" fill="#231f20"/>
    <rect x="329" y="75" width="5" height="1" fill="#231f20"/>
    <rect x="0" y="76" width="5" height="1" fill="#231f20"/>
    <rect x="329" y="76" width="5" height="1" fill="#231f20"/>
    <rect x="0" y="77" width="5" height="1" fill="#231f20"/>
    <rect x="329" y="77" width="5" height="1" fill="#231f20"/>
    <rect x="0" y="78" width="5" height="1" fill="#231f20"/>
    <rect x="329" y="78" width="5" height="1" fill="#231f20"/>
    <rect x="0" y="79" width="5" height="1" fill="#231f20"/>
    <rect x="329" y="79" width="5" height="1" fill="#231f20"/>
    <rect x="0" y="80" width="5" height="1" fill="#231f20"/>
    <rect x="329" y="80" width="5" height="1" fill="#231f20"/>
    <rect x="0" y="81" width="5" height="1" fill="#231f20"/>
    <rect x="329" y="81" width="5" height="1" fill="#231f20"/>
    <rect x="0" y="82" width="5" height="1" fill="#231f20"/>
    <rect x="329" y="82" width="5" height="1" fill="#231f20"/>
    <rect x="0" y="83" width="5" height="1" fill="#231f20"/>
    <rect x="329" y="83" width="5" height="1" fill="#231f20"/>
    <rect x="0" y="84" width="5" height="1" fill="#231f20"/>
    <rect x="329" y="84" width="5" height="1" fill="#231f20"/>
    <rect x="0" y="85" width="5" height="1" fill="#231f20"/>
    <rect x="329" y="85" width="5" height="1" fill="#231f20"/>
    <rect x="0" y="86" width="5" height="1" fill="#231f20"/>
    <rect x="329" y="86" width="5" height="1" fill="#231f20"/>
    <rect x="0" y="87" width="5" height="1" fill="#231f20"/>
    <rect x="329" y="87" width="5" height="1" fill="#231f20"/>
    <rect x="0" y="88" width="5" height="1" fill="#231f20"/>
    <rect x="329" y="88" width="5" height="1" fill="#231f20"/>
    <rect x="0" y="89" width="5" height="1" fill="#231f20"/>
    <rect x="329" y="89" width="5" height="1" fill="#231f20"/>
    <rect x="0" y="90" width="5" height="1" fill="#231f20"/>
    <rect x="329" y="90" width="5" height="1" fill="#231f20"/>
    <rect x="0" y="91" width="5" height="1" fill="#231f20"/>
    <rect x="329" y="91" width="5" height="1" fill="#231f20"/>
    <rect x="0" y="92" width="5" height="1" fill="#231f20"/>
    <rect x="329" y="92" width="5" height="1" fill="#231f20"/>
    <rect x="0" y="93" width="5" height="1" fill="#231f20"/>
    <rect x="329" y="93" width="5" height="1" fill="#231f20"/>
    <rect x="0" y="94" width="5" height="1" fill="#231f20"/>
    <rect x="329" y="94" width="5" height="1" fill="#231f20"/>
    <rect x="0" y="95" width="5" height="1" fill="#231f20"/>
    <rect x="329" y="95" width="5" height="1" fill="#231f20"/>
    <rect x="0" y="96" width="5" height="1" fill="#231f20"/>
    <rect x="329" y="96" width="5" height="1" fill="#231f20"/>
    <rect x="0" y="97" width="5" height="1" fill="#231f20"/>
    <rect x="329" y="97" width="5" height="1" fill="#231f20"/>
    <rect x="0" y="98" width="5" height="1" fill="#231f20"/>
    <rect x="329" y="98" width="5" height="1" fill="#231f20"/>
    <rect x="0" y="99" width="5" height="1" fill="#231f20"/>
    <rect x="329" y="99" width="5" height="1" fill="#231f20"/>
    <rect x="0" y="100" width="5" height="1" fill="#231f20"/>
    <rect x="329" y="100" width="5" height="1" fill="#231f20"/>
    <rect x="0" y="101" width="5" height="1" fill="#231f20"/>
    <rect x="329" y="101" width="5" height="1" fill="#231f20"/>
    <rect x="0" y="102" width="5" height="1" fill="#231f20"/>
    <rect x="329" y="102" width="5" height="1" fill="#231f20"/>
    <rect x="0" y="103" width="5" height="1" fill="#231f20"/>
    <rect x="329" y="103" width="5" height="1" fill="#231f20"/>
    <rect x="0" y="104" width="5" height="1" fill="#231f20"/>
    <rect x="329" y="104" width="5" height="1" fill="#231f20"/>
    <rect x="0" y="105" width="5" height="1" fill="#231f20"/>
    <rect x="329" y="105" width="5" height="1" fill="#231f20"/>
    <rect x="0" y="106" width="5" height="1" fill="#231f20"/>
    <rect x="329" y="106" width="5" height="1" fill="#231f20"/>
    <rect x="0" y="107" width="5" height="1" fill="#231f20"/>
    <rect x="329" y="107" width="5" height="1" fill="#231f20"/>
    <rect x="0" y="108" width="5" height="1" fill="#231f20"/>
    <rect x="329" y="108" width="5" height="1" fill="#231f20"/>
    <rect x="0" y="109" width="5" height="1" fill="#231f20"/>
    <rect x="329" y="109" width="5" height="1" fill="#231f20"/>
    <rect x="0" y="110" width="334" height="1" fill="#231f20"/>
    <rect x="0" y="111" width="334" height="1" fill="#231f20"/>
    <rect x="0" y="112" width="334" height="1" fill="#231f20"/>
    <rect x="0" y="113" width="334" height="1" fill="#231f20"/>
    <rect x="0" y="114" width="334" height="1" fill="#231f20"/>
    <rect x="0" y="115" width="5" height="1" fill="#231f20"/>
    <rect x="329" y="115" width="5" height="1" fill="#231f20"/>
    <rect x="0" y="116" width="5" height="1" fill="#231f20"/>
    <rect x="329" y="116" width="5" height="1" fill="#231f20"/>
    <rect x="0" y="117" width="5" height="1" fill="#231f20"/>
    <rect x="329" y="117" width="5" height="1" fill="#231f20"/>
    <rect x="0" y="118" width="5" height="1" fill="#231f20"/>
    <rect x="329" y="118" width="5" height="1" fill="#231f20"/>
    <rect x="0" y="119" width="5" height="1" fill="#231f20"/>
    <rect x="329" y="119" width="5" height="1" fill="#231f20"/>
    <rect x="0" y="120" width="5" height="1" fill="#231f20"/>
    <rect x="329" y="120" width="5" height="1" fill="#231f20"/>
    <rect x="0" y="121" width="5" height="1" fill="#231f20"/>
    <rect x="329" y="121" width="5" height="1" fill="#231f20"/>
    <rect x="0" y="122" width="5" height="1" fill="#231f20"/>
    <rect x="329" y="122" width="5" height="1" fill="#231f20"/>
    <rect x="0" y="123" width="5" height="1" fill="#231f20"/>
    <rect x="329" y="123" width="5" height="1" fill="#231f20"/>
    <rect x="0" y="124" width="5" height="1" fill="#231f20"/>
    <rect x="329" y="124" width="5" height="1" fill="#231f20"/>
    <rect x="0" y="125" width="5" height="1" fill="#231f20"/>
    <rect x="329" y="125" width="5" height="1" fill="#231f20"/>
    <rect x="0" y="126" width="5" height="1" fill="#231f20"/>
    <rect x="329" y="126" width="5" height="1" fill="#231f20"/>
    <rect x="0" y="127" width="5" height="1" fill="#231f20"/>
    <rect x="329" y="127" width="5" height="1" fill="#231f20"/>
    <rect x="0" y="128" width="5" height="1" fill="#231f20"/>
    <rect x="234" y="128" width="85" height="1" fill="#231f20"/>
    <rect x="329" y="128" width="5" height="1" fill="#231f20"/>
    <rect x="0" y="129" width="5" height="1" fill="#231f20"/>
    <rect x="234" y="129" width="85" height="1" fill="#231f20"/>
    <rect x="329" y="129" width="5" height="1" fill="#231f20"/>
    <rect x="0" y="130" width="5" height="1" fill="#231f20"/>
    <rect x="234" y="130" width="84" height="1" fill="#231f20"/>
    <rect x="329" y="130" width="5" height="1" fill="#231f20"/>
    <rect x="0" y="131" width="5" height="1" fill="#231f20"/>
    <rect x="235" y="131" width="83" height="1" fill="#231f20"/>
    <rect x="329" y="131" width="5" height="1" fill="#231f20"/>
    <rect x="0" y="132" width="5" height="1" fill="#231f20"/>
    <rect x="235" y="132" width="82" height="1" fill="#231f20"/>
    <rect x="329" y="132" width="5" height="1" fill="#231f20"/>
    <rect x="0" y="133" width="5" height="1" fill="#231f20"/>
    <rect x="236" y="133" width="81" height="1" fill="#231f20"/>
    <rect x="329" y="133" width="5" height="1" fill="#231f20"/>
    <rect x="0" y="134" width="5" height="1" fill="#231f20"/>
    <rect x="236" y="134" width="80" height="1" fill="#231f20"/>
    <rect x="329" y="134" width="5" height="1" fill="#231f20"/>
    <rect x="0" y="135" width="5" height="1" fill="#231f20"/>
    <rect x="237" y="135" width="78" height="1" fill="#231f20"/>
    <rect x="329" y="135" width="5" height="1" fill="#231f20"/>
    <rect x="0" y="136" width="5" height="1" fill="#231f20"/>
    <rect x="238" y="136" width="77" height="1" fill="#231f20"/>
    <rect x="329" y="136" width="5" height="1" fill="#231f20"/>
    <rect x="0" y="137" width="5" height="1" fill="#231f20"/>
    <rect x="238" y="137" width="76" height="1" fill="#231f20"/>
    <rect x="329" y="137" width="5" height="1" fill="#231f20"/>
    <rect x="0" y="138" width="5" height="1" fill="#231f20"/>
    <rect x="239" y="138" width="75" height="1" fill="#231f20"/>
    <rect x="329" y="138" width="5" height="1" fill="#231f20"/>
    <rect x="0" y="139" width="5" height="1" fill="#231f20"/>
    <rect x="239" y="139" width="74" height="1" fill="#231f20"/>
    <rect x="329" y="139" width="5" height="1" fill="#231f20"/>
    <rect x="0" y="140" width="5" height="1" fill="#231f20"/>
    <rect x="240" y="140" width="72" height="1" fill="#231f20"/>
    <rect x="329" y="140" width="5" height="1" fill="#231f20"/>
    <rect x="0" y="141" width="5" height="1" fill="#231f20"/>
    <rect x="240" y="141" width="72" height="1" fill="#231f20"/>
    <rect x="329" y="141" width="5" height="1" fill="#231f20"/>
    <rect x="0" y="142" width="5" height="1" fill="#231f20"/>
    <rect x="241" y="142" width="70" height="1" fill="#231f20"/>
    <rect x="329" y="142" width="5" height="1" fill="#231f20"/>
    <rect x="0" y="143" width="5" height="1" fill="#231f20"/>
    <rect x="242" y="143" width="69" height="1" fill="#231f20"/>
    <rect x="329" y="143" width="5" height="1" fill="#231f20"/>
    <rect x="0" y="144" width="5" height="1" fill="#231f20"/>
    <rect x="242" y="144" width="68" height="1" fill="#231f20"/>
    <rect x="329" y="144" width="5" height="1" fill="#231f20"/>
    <rect x="0" y="145" width="5" height="1" fill="#231f20"/>
    <rect x="243" y="145" width="67" height="1" fill="#231f20"/>
    <rect x="329" y="145" width="5" height="1" fill="#231f20"/>
    <rect x="0" y="146" width="5" height="1" fill="#231f20"/>
    <rect x="243" y="146" width="66" height="1" fill="#231f20"/>
    <rect x="329" y="146" width="5" height="1" fill="#231f20"/>
    <rect x="0" y="147" width="5" height="1" fill="#231f20"/>
    <rect x="244" y="147" width="64" height="1" fill="#231f20"/>
    <rect x="329" y="147" width="5" height="1" fill="#231f20"/>
    <rect x="0" y="148" width="5" height="1" fill="#231f20"/>
    <rect x="244" y="148" width="64" height="1" fill="#231f20"/>
    <rect x="329" y="148" width="5" height="1" fill="#231f20"/>
    <rect x="0" y="149" width="5" height="1" fill="#231f20"/>
    <rect x="245" y="149" width="62" height="1" fill="#231f20"/>
    <rect x="329" y="149" width="5" height="1" fill="#231f20"/>
    <rect x="0" y="150" width="5" height="1" fill="#231f20"/>
    <rect x="246" y="150" width="61" height="1" fill="#231f20"/>
    <rect x="329" y="150" width="5" height="1" fill="#231f20"/>
    <rect x="0" y="151" width="5" height="1" fill="#231f20"/>
    <rect x="246" y="151" width="60" height="1" fill="#231f20"/>
    <rect x="329" y="151" width="5" height="1" fill="#231f20"/>
    <rect x="0" y="152" width="5" height="1" fill="#231f20"/>
    <rect x="247" y="152" width="58" height="1" fill="#231f20"/>
    <rect x="329" y="152" width="5" height="1" fill="#231f20"/>
    <rect x="0" y="153" width="5" height="1" fill="#231f20"/>
    <rect x="247" y="153" width="58" height="1" fill="#231f20"/>
    <rect x="329" y="153" width="5" height="1" fill="#231f20"/>
    <rect x="0" y="154" width="5" height="1" fill="#231f20"/>
    <rect x="248" y="154" width="56" height="1" fill="#231f20"/>
    <rect x="329" y="154" width="5" height="1" fill="#231f20"/>
    <rect x="0" y="155" width="5" height="1" fill="#231f20"/>
    <rect x="248" y="155" width="56" height="1" fill="#231f20"/>
    <rect x="329" y="155" width="5" height="1" fill="#231f20"/>
    <rect x="0" y="156" width="5" height="1" fill="#231f20"/>
    <rect x="249" y="156" width="54" height="1" fill="#231f20"/>
    <rect x="329" y="156" width="5" height="1" fill="#231f20"/>
    <rect x="0" y="157" width="5" height="1" fill="#231f20"/>
    <rect x="249" y="157" width="53" height="1" fill="#231f20"/>
    <rect x="329" y="157" width="5" height="1" fill="#231f20"/>
    <rect x="0" y="158" width="5" height="1" fill="#231f20"/>
    <rect x="250" y="158" width="52" height="1" fill="#231f20"/>
    <rect x="329" y="158" width="5" height="1" fill="#231f20"/>
    <rect x="0" y="159" width="5" height="1" fill="#231f20"/>
    <rect x="251" y="159" width="50" height="1" fill="#231f20"/>
    <rect x="329" y="159" width="5" height="1" fill="#231f20"/>
    <rect x="0" y="160" width="5" height="1" fill="#231f20"/>
    <rect x="251" y="160" width="50" height="1" fill="#231f20"/>
    <rect x="329" y="160" width="5" height="1" fill="#231f20"/>
    <rect x="0" y="161" width="5" height="1" fill="#231f20"/>
    <rect x="252" y="161" width="48" height="1" fill="#231f20"/>
    <rect x="329" y="161" width="5" height="1" fill="#231f20"/>
    <rect x="0" y="162" width="5" height="1" fill="#231f20"/>
    <rect x="252" y="162" width="48" height="1" fill="#231f20"/>
    <rect x="329" y="162" width="5" height="1" fill="#231f20"/>
    <rect x="0" y="163" width="5" height="1" fill="#231f20"/>
    <rect x="253" y="163" width="46" height="1" fill="#231f20"/>
    <rect x="329" y="163" width="5" height="1" fill="#231f20"/>
    <rect x="0" y="164" width="5" height="1" fill="#231f20"/>
    <rect x="253" y="164" width="45" height="1" fill="#231f20"/>
    <rect x="329" y="164" width="5" height="1" fill="#231f20"/>
    <rect x="0" y="165" width="5" height="1" fill="#231f20"/>
    <rect x="254" y="165" width="44" height="1" fill="#231f20"/>
    <rect x="329" y="165" width="5" height="1" fill="#231f20"/>
    <rect x="0" y="166" width="5" height="1" fill="#231f20"/>
    <rect x="255" y="166" width="42" height="1" fill="#231f20"/>
    <rect x="329" y="166" width="5" height="1" fill="#231f20"/>
    <rect x="0" y="167" width="5" height="1" fill="#231f20"/>
    <rect x="255" y="167" width="42" height="1" fill="#231f20"/>
    <rect x="329" y="167" width="5" height="1" fill="#231f20"/>
    <rect x="0" y="168" width="5" height="1" fill="#231f20"/>
    <rect x="256" y="168" width="40" height="1" fill="#231f20"/>
    <rect x="329" y="168" width="5" height="1" fill="#231f20"/>
    <rect x="0" y="169" width="5" height="1" fill="#231f20"/>
    <rect x="256" y="169" width="39" height="1" fill="#231f20"/>
    <rect x="329" y="169" width="5" height="1" fill="#231f20"/>
    <rect x="0" y="170" width="5" height="1" fill="#231f20"/>
    <rect x="257" y="170" width="38" height="1" fill="#231f20"/>
    <rect x="329" y="170" width="5" height="1" fill="#231f20"/>
    <rect x="0" y="171" width="5" height="1" fill="#231f20"/>
    <rect x="257" y="171" width="37" height="1" fill="#231f20"/>
    <rect x="329" y="171" width="5" height="1" fill="#231f20"/>
    <rect x="0" y="172" width="5" height="1" fill="#231f20"/>
    <rect x="258" y="172" width="36" height="1" fill="#231f20"/>
    <rect x="329" y="172" width="5" height="1" fill="#231f20"/>
    <rect x="0" y="173" width="5" height="1" fill="#231f20"/>
    <rect x="259" y="173" width="34" height="1" fill="#231f20"/>
    <rect x="329" y="173" width="5" height="1" fill="#231f20"/>
    <rect x="0" y="174" width="5" height="1" fill="#231f20"/>
    <rect x="259" y="174" width="34" height="1" fill="#231f20"/>
    <rect x="329" y="174" width="5" height="1" fill="#231f20"/>
    <rect x="0" y="175" width="5" height="1" fill="#231f20"/>
    <rect x="260" y="175" width="32" height="1" fill="#231f20"/>
    <rect x="329" y="175" width="5" height="1" fill="#231f20"/>
    <rect x="0" y="176" width="5" height="1" fill="#231f20"/>
    <rect x="260" y="176" width="31" height="1" fill="#231f20"/>
    <rect x="329" y="176" width="5" height="1" fill="#231f20"/>
    <rect x="0" y="177" width="5" height="1" fill="#231f20"/>
    <rect x="261" y="177" width="30" height="1" fill="#231f20"/>
    <rect x="329" y="177" width="5" height="1" fill="#231f20"/>
    <rect x="0" y="178" width="5" height="1" fill="#231f20"/>
    <rect x="261" y="178" width="29" height="1" fill="#231f20"/>
    <rect x="329" y="178" width="5" height="1" fill="#231f20"/>
    <rect x="0" y="179" width="5" height="1" fill="#231f20"/>
    <rect x="262" y="179" width="28" height="1" fill="#231f20"/>
    <rect x="329" y="179" width="5" height="1" fill="#231f20"/>
    <rect x="0" y="180" width="5" height="1" fill="#231f20"/>
    <rect x="262" y="180" width="27" height="1" fill="#231f20"/>
    <rect x="329" y="180" width="5" height="1" fill="#231f20"/>
    <rect x="0" y="181" width="5" height="1" fill="#231f20"/>
    <rect x="263" y="181" width="25" height="1" fill="#231f20"/>
    <rect x="329" y="181" width="5" height="1" fill="#231f20"/>
    <rect x="0" y="182" width="5" height="1" fill="#231f20"/>
    <rect x="264" y="182" width="24" height="1" fill="#231f20"/>
    <rect x="329" y="182" width="5" height="1" fill="#231f20"/>
    <rect x="0" y="183" width="5" height="1" fill="#231f20"/>
    <rect x="264" y="183" width="23" height="1" fill="#231f20"/>
    <rect x="329" y="183" width="5" height="1" fill="#231f20"/>
    <rect x="0" y="184" width="5" height="1" fill="#231f20"/>
    <rect x="265" y="184" width="22" height="1" fill="#231f20"/>
    <rect x="329" y="184" width="5" height="1" fill="#231f20"/>
    <rect x="0" y="185" width="5" height="1" fill="#231f20"/>
    <rect x="265" y="185" width="21" height="1" fill="#231f20"/>
    <rect x="329" y="185" width="5" height="1" fill="#231f20"/>
    <rect x="0" y="186" width="5" height="1" fill="#231f20"/>
    <rect x="266" y="186" width="19" height="1" fill="#231f20"/>
    <rect x="329" y="186" width="5" height="1" fill="#231f20"/>
    <rect x="0" y="187" width="5" height="1" fill="#231f20"/>
    <rect x="266" y="187" width="19" height="1" fill="#231f20"/>
    <rect x="329" y="187" width="5" height="1" fill="#231f20"/>
    <rect x="0" y="188" width="5" height="1" fill="#231f20"/>
    <rect x="267" y="188" width="17" height="1" fill="#231f20"/>
    <rect x="329" y="188" width="5" height="1" fill="#231f20"/>
    <rect x="0" y="189" width="5" height="1" fill="#231f20"/>
    <rect x="268" y="189" width="16" height="1" fill="#231f20"/>
    <rect x="329" y="189" width="5" height="1" fill="#231f20"/>
    <rect x="0" y="190" width="5" height="1" fill="#231f20"/>
    <rect x="268" y="190" width="15" height="1" fill="#231f20"/>
    <rect x="329" y="190" width="5" height="1" fill="#231f20"/>
    <rect x="0" y="191" width="5" height="1" fill="#231f20"/>
    <rect x="269" y="191" width="14" height="1" fill="#231f20"/>
    <rect x="329" y="191" width="5" height="1" fill="#231f20"/>
    <rect x="0" y="192" width="5" height="1" fill="#231f20"/>
    <rect x="269" y="192" width="13" height="1" fill="#231f20"/>
    <rect x="329" y="192" width="5" height="1" fill="#231f20"/>
    <rect x="0" y="193" width="5" height="1" fill="#231f20"/>
    <rect x="270" y="193" width="11" height="1" fill="#231f20"/>
    <rect x="329" y="193" width="5" height="1" fill="#231f20"/>
    <rect x="0" y="194" width="5" height="1" fill="#231f20"/>
    <rect x="270" y="194" width="11" height="1" fill="#231f20"/>
    <rect x="329" y="194" width="5" height="1" fill="#231f20"/>
    <rect x="0" y="195" width="5" height="1" fill="#231f20"/>
    <rect x="271" y="195" width="9" height="1" fill="#231f20"/>
    <rect x="329" y="195" width="5" height="1" fill="#231f20"/>
    <rect x="0" y="196" width="5" height="1" fill="#231f20"/>
    <rect x="272" y="196" width="8" height="1" fill="#231f20"/>
    <rect x="329" y="196" width="5" height="1" fill="#231f20"/>
    <rect x="0" y="197" width="5" height="1" fill="#231f20"/>
    <rect x="272" y="197" width="7" height="1" fill="#231f20"/>
    <rect x="329" y="197" width="5" height="1" fill="#231f20"/>
    <rect x="0" y="198" width="5" height="1" fill="#231f20"/>
    <rect x="273" y="198" width="5" height="1" fill="#231f20"/>
    <rect x="329" y="198" width="5" height="1" fill="#231f20"/>
    <rect x="0" y="199" width="5" height="1" fill="#231f20"/>
    <rect x="273" y="199" width="5" height="1" fill="#231f20"/>
    <rect x="329" y="199" width="5" height="1" fill="#231f20"/>
    <rect x="0" y="200" width="5" height="1" fill="#231f20"/>
    <rect x="274" y="200" width="3" height="1" fill="#231f20"/>
    <rect x="329" y="200" width="5" height="1" fill="#231f20"/>
    <rect x="0" y="201" width="5" height="1" fill="#231f20"/>
    <rect x="274" y="201" width="3" height="1" fill="#231f20"/>
    <rect x="329" y="201" width="5" height="1" fill="#231f20"/>
    <rect x="0" y="202" width="5" height="1" fill="#231f20"/>
    <rect x="275" y="202" width="1" height="1" fill="#231f20"/>
    <rect x="329" y="202" width="5" height="1" fill="#231f20"/>
    <rect x="0" y="203" width="5" height="1" fill="#231f20"/>
    <rect x="329" y="203" width="5" height="1" fill="#231f20"/>
    <rect x="0" y="204" width="5" height="1" fill="#231f20"/>
    <rect x="329" y="204" width="5" height="1" fill="#231f20"/>
    <rect x="0" y="205" width="5" height="1" fill="#231f20"/>
    <rect x="329" y="205" width="5" height="1" fill="#231f20"/>
    <rect x="0" y="206" width="5" height="1" fill="#231f20"/>
    <rect x="329" y="206" width="5" height="1" fill="#231f20"/>
    <rect x="0" y="207" width="5" height="1" fill="#231f20"/>
    <rect x="329" y="207" width="5" height="1" fill="#231f20"/>
    <rect x="0" y="208" width="5" height="1" fill="#231f20"/>
    <rect x="329" y="208" width="5" height="1" fill="#231f20"/>
    <rect x="0" y="209" width="5" height="1" fill="#231f20"/>
    <rect x="329" y="209" width="5" height="1" fill="#231f20"/>
    <rect x="0" y="210" width="5" height="1" fill="#231f20"/>
    <rect x="329" y="210" width="5" height="1" fill="#231f20"/>
    <rect x="0" y="211" width="5" height="1" fill="#231f20"/>
    <rect x="329" y="211" width="5" height="1" fill="#231f20"/>
    <rect x="0" y="212" width="5" height="1" fill="#231f20"/>
    <rect x="329" y="212" width="5" height="1" fill="#231f20"/>
    <rect x="0" y="213" width="5" height="1" fill="#231f20"/>
    <rect x="329" y="213" width="5" height="1" fill="#231f20"/>
    <rect x="0" y="214" width="5" height="1" fill="#231f20"/>
    <rect x="329" y="214" width="5" height="1" fill="#231f20"/>
    <rect x="0" y="215" width="5" height="1" fill="#231f20"/>
    <rect x="329" y="215" width="5" height="1" fill="#231f20"/>
    <rect x="0" y="216" width="5" height="1" fill="#231f20"/>
    <rect x="329" y="216" width="5" height="1" fill="#231f20"/>
    <rect x="0" y="217" width="5" height="1" fill="#231f20"/>
    <rect x="329" y="217" width="5" height="1" fill="#231f20"/>
    <rect x="0" y="218" width="5" height="1" fill="#231f20"/>
    <rect x="329" y="218" width="5" height="1" fill="#231f20"/>
    <rect x="0" y="219" width="5" height="1" fill="#231f20"/>
    <rect x="329" y="219" width="5" height="1" fill="#231f20"/>
    <rect x="0" y="220" width="334" height="1" fill="#231f20"/>
    <rect x="0" y="221" width="334" height="1" fill="#231f20"/>
    <rect x="0" y="222" width="334" height="1" fill="#231f20"/>
    <rect x="0" y="223" width="334" height="1" fill="#231f20"/>
    <rect x="0" y="224" width="334" height="1" fill="#231f20"/>
    <rect x="0" y="225" width="5" height="1" fill="#231f20"/>
    <rect x="329" y="225" width="5" height="1" fill="#231f20"/>
    <rect x="0" y="226" width="5" height="1" fill="#231f20"/>
    <rect x="329" y="226" width="5" height="1" fill="#231f20"/>
    <rect x="0" y="227" width="5" height="1" fill="#231f20"/>
    <rect x="329" y="227" width="5" height="1" fill="#231f20"/>
    <rect x="0" y="228" width="5" height="1" fill="#231f20"/>
    <rect x="329" y="228" width="5" height="1" fill="#231f20"/>
    <rect x="0" y="229" width="5" height="1" fill="#231f20"/>
    <rect x="329" y="229" width="5" height="1" fill="#231f20"/>
    <rect x="0" y="230" width="5" height="1" fill="#231f20"/>
    <rect x="329" y="230" width="5" height="1" fill="#231f20"/>
    <rect x="0" y="231" width="5" height="1" fill="#231f20"/>
    <rect x="329" y="231" width="5" height="1" fill="#231f20"/>
    <rect x="0" y="232" width="5" height="1" fill="#231f20"/>
    <rect x="329" y="232" width="5" height="1" fill="#231f20"/>
    <rect x="0" y="233" width="5" height="1" fill="#231f20"/>
    <rect x="329" y="233" width="5" height="1" fill="#231f20"/>
    <rect x="0" y="234" width="5" height="1" fill="#231f20"/>
    <rect x="329" y="234" width="5" height="1" fill="#231f20"/>
    <rect x="0" y="235" width="5" height="1" fill="#231f20"/>
    <rect x="329" y="235" width="5" height="1" fill="#231f20"/>
    <rect x="0" y="236" width="5" height="1" fill="#231f20"/>
    <rect x="329" y="236" width="5" height="1" fill="#231f20"/>
    <rect x="0" y="237" width="5" height="1" fill="#231f20"/>
    <rect x="329" y="237" width="5" height="1" fill="#231f20"/>
    <rect x="0" y="238" width="5" height="1" fill="#231f20"/>
    <rect x="329" y="238" width="5" height="1" fill="#231f20"/>
    <rect x="0" y="239" width="5" height="1" fill="#231f20"/>
    <rect x="329" y="239" width="5" height="1" fill="#231f20"/>
    <rect x="0" y="240" width="5" height="1" fill="#231f20"/>
    <rect x="329" y="240" width="5" height="1" fill="#231f20"/>
    <rect x="0" y="241" width="5" height="1" fill="#231f20"/>
    <rect x="329" y="241" width="5" height="1" fill="#231f20"/>
    <rect x="0" y="242" width="5" height="1" fill="#231f20"/>
    <rect x="329" y="242" width="5" height="1" fill="#231f20"/>
    <rect x="0" y="243" width="5" height="1" fill="#231f20"/>
    <rect x="329" y="243" width="5" height="1" fill="#231f20"/>
    <rect x="0" y="244" width="5" height="1" fill="#231f20"/>
    <rect x="329" y="244" width="5" height="1" fill="#231f20"/>
    <rect x="0" y="245" width="5" height="1" fill="#231f20"/>
    <rect x="329" y="245" width="5" height="1" fill="#231f20"/>
    <rect x="0" y="246" width="5" height="1" fill="#231f20"/>
    <rect x="329" y="246" width="5" height="1" fill="#231f20"/>
    <rect x="0" y="247" width="5" height="1" fill="#231f20"/>
    <rect x="329" y="247" width="5" height="1" fill="#231f20"/>
    <rect x="0" y="248" width="5" height="1" fill="#231f20"/>
    <rect x="329" y="248" width="5" height="1" fill="#231f20"/>
    <rect x="0" y="249" width="5" height="1" fill="#231f20"/>
    <rect x="329" y="249" width="5" height="1" fill="#231f20"/>
    <rect x="0" y="250" width="5" height="1" fill="#231f20"/>
    <rect x="329" y="250" width="5" height="1" fill="#231f20"/>
    <rect x="0" y="251" width="5" height="1" fill="#231f20"/>
    <rect x="329" y="251" width="5" height="1" fill="#231f20"/>
    <rect x="0" y="252" width="5" height="1" fill="#231f20"/>
    <rect x="329" y="252" width="5" height="1" fill="#231f20"/>
    <rect x="0" y="253" width="5" height="1" fill="#231f20"/>
    <rect x="329" y="253" width="5" height="1" fill="#231f20"/>
    <rect x="0" y="254" width="5" height="1" fill="#231f20"/>
    <rect x="329" y="254" width="5" height="1" fill="#231f20"/>
    <rect x="0" y="255" width="5" height="1" fill="#231f20"/>
    <rect x="329" y="255" width="5" height="1" fill="#231f20"/>
    <rect x="0" y="256" width="5" height="1" fill="#231f20"/>
    <rect x="329" y="256" width="5" height="1" fill="#231f20"/>
    <rect x="0" y="257" width="5" height="1" fill="#231f20"/>
    <rect x="329" y="257" width="5" height="1" fill="#231f20"/>
    <rect x="0" y="258" width="5" height="1" fill="#231f20"/>
    <rect x="329" y="258" width="5" height="1" fill="#231f20"/>
    <rect x="0" y="259" width="5" height="1" fill="#231f20"/>
    <rect x="329" y="259" width="5" height="1" fill="#231f20"/>
    <rect x="0" y="260" width="5" height="1" fill="#231f20"/>
    <rect x="329" y="260" width="5" height="1" fill="#231f20"/>
    <rect x="0" y="261" width="5" height="1" fill="#231f20"/>
    <rect x="329" y="261" width="5" height="1" fill="#231f20"/>
    <rect x="0" y="262" width="5" height="1" fill="#231f20"/>
    <rect x="329" y="262" width="5" height="1" fill="#231f20"/>
    <rect x="0" y="263" width="5" height="1" fill="#231f20"/>
    <rect x="329" y="263" width="5" height="1" fill="#231f20"/>
    <rect x="0" y="264" width="5" height="1" fill="#231f20"/>
    <rect x="329" y="264" width="5" height="1" fill="#231f20"/>
    <rect x="0" y="265" width="5" height="1" fill="#231f20"/>
    <rect x="329" y="265" width="5" height="1" fill="#231f20"/>
    <rect x="0" y="266" width="5" height="1" fill="#231f20"/>
    <rect x="329" y="266" width="5" height="1" fill="#231f20"/>
    <rect x="0" y="267" width="5" height="1" fill="#231f20"/>
    <rect x="329" y="267" width="5" height="1" fill="#231f20"/>
    <rect x="0" y="268" width="5" height="1" fill="#231f20"/>
    <rect x="329" y="268" width="5" height="1" fill="#231f20"/>
    <rect x="0" y="269" width="5" height="1" fill="#231f20"/>
    <rect x="329" y="269" width="5" height="1" fill="#231f20"/>
    <rect x="0" y="270" width="5" height="1" fill="#231f20"/>
    <rect x="329" y="270" width="5" height="1" fill="#231f20"/>
    <rect x="0" y="271" width="5" height="1" fill="#231f20"/>
    <rect x="329" y="271" width="5" height="1" fill="#231f20"/>
    <rect x="0" y="272" width="5" height="1" fill="#231f20"/>
    <rect x="329" y="272" width="5" height="1" fill="#231f20"/>
    <rect x="0" y="273" width="5" height="1" fill="#231f20"/>
    <rect x="329" y="273" width="5" height="1" fill="#231f20"/>
    <rect x="0" y="274" width="5" height="1" fill="#231f20"/>
    <rect x="329" y="274" width="5" height="1" fill="#231f20"/>
    <rect x="0" y="275" width="5" height="1" fill="#231f20"/>
    <rect x="329" y="275" width="5" height="1" fill="#231f20"/>
    <rect x="0" y="276" width="5" height="1" fill="#231f20"/>
    <rect x="329" y="276" width="5" height="1" fill="#231f20"/>
    <rect x="0" y="277" width="5" height="1" fill="#231f20"/>
    <rect x="329" y="277" width="5" height="1" fill="#231f20"/>
    <rect x="0" y="278" width="5" height="1" fill="#231f20"/>
    <rect x="329" y="278" width="5" height="1" fill="#231f20"/>
    <rect x="0" y="279" width="5" height="1" fill="#231f20"/>
    <rect x="329" y="279" width="5" height="1" fill="#231f20"/>
    <rect x="0" y="280" width="5" height="1" fill="#231f20"/>
    <rect x="329" y="280" width="5" height="1" fill="#231f20"/>
    <rect x="0" y="281" width="5" height="1" fill="#231f20"/>
    <rect x="329" y="281" width="5" height="1" fill="#231f20"/>
    <rect x="0" y="282" width="5" height="1" fill="#231f20"/>
    <rect x="329" y="282" width="5" height="1" fill="#231f20"/>
    <rect x="0" y="283" width="5" height="1" fill="#231f20"/>
    <rect x="329" y="283" width="5" height="1" fill="#231f20"/>
    <rect x="0" y="284" width="5" height="1" fill="#231f20"/>
    <rect x="329" y="284" width="5" height="1" fill="#231f20"/>
    <rect x="0" y="285" width="5" height="1" fill="#231f20"/>
    <rect x="329" y="285" width="5" height="1" fill="#231f20"/>
    <rect x="0" y="286" width="5" height="1" fill="#231f20"/>
    <rect x="329" y="286" width="5" height="1" fill="#231f20"/>
    <rect x="0" y="287" width="5" height="1" fill="#231f20"/>
    <rect x="329" y="287" width="5" height="1" fill="#231f20"/>
    <rect x="0" y="288" width="5" height="1" fill="#231f20"/>
    <rect x="329" y="288" width="5" height="1" fill="#231f20"/>
    <rect x="0" y="289" width="5" height="1" fill="#231f20"/>
    <rect x="329" y="289" width="5" height="1" fill="#231f20"/>
    <rect x="0" y="290" width="5" height="1" fill="#231f20"/>
    <rect x="329" y="290" width="5" height="1" fill="#231f20"/>
    <rect x="0" y="291" width="5" height="1" fill="#231f20"/>
    <rect x="329" y="291" width="5" height="1" fill="#231f20"/>
    <rect x="0" y="292" width="5" height="1" fill="#231f20"/>
    <rect x="329" y="292" width="5" height="1" fill="#231f20"/>
    <rect x="0" y="293" width="5" height="1" fill="#231f20"/>
    <rect x="329" y="293" width="5" height="1" fill="#231f20"/>
    <rect x="0" y="294" width="5" height="1" fill="#231f20"/>
    <rect x="329" y="294" width="5" height="1" fill="#231f20"/>
    <rect x="0" y="295" width="5" height="1" fill="#231f20"/>
    <rect x="329" y="295" width="5" height="1" fill="#231f20"/>
    <rect x="0" y="296" width="5" height="1" fill="#231f20"/>
    <rect x="329" y="296" width="5" height="1" fill="#231f20"/>
    <rect x="0" y="297" width="5" height="1" fill="#231f20"/>
    <rect x="329" y="297" width="5" height="1" fill="#231f20"/>
    <rect x="0" y="298" width="5" height="1" fill="#231f20"/>
    <rect x="329" y="298" width="5" height="1" fill="#231f20"/>
    <rect x="0" y="299" width="5" height="1" fill="#231f20"/>
    <rect x="329" y="299" width="5" height="1" fill="#231f20"/>
    <rect x="0" y="300" width="5" height="1" fill="#231f20"/>
    <rect x="329" y="300" width="5" height="1" fill="#231f20"/>
    <rect x="0" y="301" width="5" height="1" fill="#231f20"/>
    <rect x="329" y="301" width="5" height="1" fill="#231f20"/>
    <rect x="0" y="302" width="5" height="1" fill="#231f20"/>
    <rect x="329" y="302" width="5" height="1" fill="#231f20"/>
    <rect x="0" y="303" width="5" height="1" fill="#231f20"/>
    <rect x="329" y="303" width="5" height="1" fill="#231f20"/>
    <rect x="0" y="304" width="5" height="1" fill="#231f20"/>
    <rect x="329" y="304" width="5" height="1" fill="#231f20"/>
    <rect x="0" y="305" width="5" height="1" fill="#231f20"/>
    <rect x="329" y="305" width="5" height="1" fill="#231f20"/>
    <rect x="0" y="306" width="5" height="1" fill="#231f20"/>
    <rect x="329" y="306" width="5" height="1" fill="#231f20"/>
    <rect x="0" y="307" width="5" height="1" fill="#231f20"/>
    <rect x="329" y="307" width="5" height="1" fill="#231f20"/>
    <rect x="0" y="308" width="5" height="1" fill="#231f20"/>
    <rect x="329" y="308" width="5" height="1" fill="#231f20"/>
    <rect x="0" y="309" width="5" height="1" fill="#231f20"/>
    <rect x="329" y="309" width="5" height="1" fill="#231f20"/>
    <rect x="0" y="310" width="5" height="1" fill="#231f20"/>
    <rect x="329" y="310" width="5" height="1" fill="#231f20"/>
    <rect x="0" y="311" width="5" height="1" fill="#231f20"/>
    <rect x="329" y="311" width="5" height="1" fill="#231f20"/>
    <rect x="0" y="312" width="5" height="1" fill="#231f20"/>
    <rect x="329" y="312" width="5" height="1" fill="#231f20"/>
    <rect x="0" y="313" width="5" height="1" fill="#231f20"/>
    <rect x="329" y="313" width="5" height="1" fill="#231f20"/>
    <rect x="0" y="314" width="5" height="1" fill="#231f20"/>
    <rect x="329" y="314" width="5" height="1" fill="#231f20"/>
    <rect x="0" y="315" width="5" height="1" fill="#231f20"/>
    <rect x="329" y="315" width="5" height="1" fill="#231f20"/>
    <rect x="0" y="316" width="5" height="1" fill="#231f20"/>
    <rect x="329" y="316" width="5" height="1" fill="#231f20"/>
    <rect x="0" y="317" width="5" height="1" fill="#231f20"/>
    <rect x="329" y="317" width="5" height="1" fill="#231f20"/>
    <rect x="0" y="318" width="5" height="1" fill="#231f20"/>
    <rect x="329" y="318" width="5" height="1" fill="#231f20"/>
    <rect x="0" y="319" width="5" height="1" fill="#231f20"/>
    <rect x="329" y="319" width="5" height="1" fill="#231f20"/>
    <rect x="0" y="320" width="5" height="1" fill="#231f20"/>
    <rect x="329" y="320" width="5" height="1" fill="#231f20"/>
    <rect x="0" y="321" width="5" height="1" fill="#231f20"/>
    <rect x="329" y="321" width="5" height="1" fill="#231f20"/>
    <rect x="0" y="322" width="5" height="1" fill="#231f20"/>
    <rect x="329" y="322" width="5" height="1" fill="#231f20"/>
    <rect x="0" y="323" width="5" height="1" fill="#231f20"/>
    <rect x="329" y="323" width="5" height="1" fill="#231f20"/>
    <rect x="0" y="324" width="5" height="1" fill="#231f20"/>
    <rect x="329" y="324" width="5" height="1" fill="#231f20"/>
    <rect x="0" y="325" width="5" height="1" fill="#231f20"/>
    <rect x="329" y="325" width="5" height="1" fill="#231f20"/>
    <rect x="0" y="326" width="5" height="1" fill="#231f20"/>
    <rect x="329" y="326" width="5" height="1" fill="#231f20"/>
    <rect x="0" y="327" width="5" height="1" fill="#231f20"/>
    <rect x="329" y="327" width="5" height="1" fill="#231f20"/>
    <rect x="0" y="328" width="5" height="1" fill="#231f20"/>
    <rect x="329" y="328" width="5" height="1" fill="#231f20"/>
    <rect x="0" y="329" width="5" height="1" fill="#231f20"/>
    <rect x="329" y="329" width="5" height="1" fill="#231f20"/>
    <rect x="0" y="330" width="334" height="1" fill="#231f20"/>
    <rect x="0" y="331" width="334" height="1" fill="#231f20"/>
    <rect x="0" y="332" width="334" height="1" fill="#231f20"/>
    <rect x="0" y="333" width="334" height="1" fill="#231f20"/>
    <rect x="1" y="334" width="332" height="1" fill="#231f20"/>
  </g>
</svg>