<?xml version="1.0" encoding="UTF-8"?>
<svg xmlns="http://www.w3.org/2000/svg" viewBox="0 0 225 225" width="225" height="225">
  <!-- Auto-converted from legend-2041.png -->
  <rect x="0" y="0" width="225" height="225" fill="none"/>
  <g fill="#231f20" stroke="none">
    <rect x="4" y="2" width="216" height="1" fill="#231f20"/>
    <rect x="3" y="3" width="218" height="1" fill="#231f20"/>
    <rect x="3" y="4" width="2" height="1" fill="#231f20"/>
    <rect x="219" y="4" width="2" height="1" fill="#231f20"/>
    <rect x="3" y="5" width="2" height="1" fill="#231f20"/>
    <rect x="219" y="5" width="2" height="1" fill="#231f20"/>
    <rect x="3" y="6" width="2" height="1" fill="#231f20"/>
    <rect x="219" y="6" width="2" height="1" fill="#231f20"/>
    <rect x="3" y="7" width="2" height="1" fill="#231f20"/>
    <rect x="219" y="7" width="2" height="1" fill="#231f20"/>
    <rect x="3" y="8" width="2" height="1" fill="#231f20"/>
    <rect x="219" y="8" width="2" height="1" fill="#231f20"/>
    <rect x="3" y="9" width="2" height="1" fill="#231f20"/>
    <rect x="219" y="9" width="2" height="1" fill="#231f20"/>
    <rect x="3" y="10" width="2" height="1" fill="#231f20"/>
    <rect x="219" y="10" width="2" height="1" fill="#231f20"/>
    <rect x="3" y="11" width="2" height="1" fill="#231f20"/>
    <rect x="219" y="11" width="2" height="1" fill="#231f20"/>
    <rect x="3" y="12" width="2" height="1" fill="#231f20"/>
    <rect x="219" y="12" width="2" height="1" fill="#231f20"/>
    <rect x="3" y="13" width="2" height="1" fill="#231f20"/>
    <rect x="219" y="13" width="2" height="1" fill="#231f20"/>
    <rect x="3" y="14" width="2" height="1" fill="#231f20"/>
    <rect x="219" y="14" width="2" height="1" fill="#231f20"/>
    <rect x="3" y="15" width="2" height="1" fill="#231f20"/>
    <rect x="219" y="15" width="2" height="1" fill="#231f20"/>
    <rect x="3" y="16" width="2" height="1" fill="#231f20"/>
    <rect x="219" y="16" width="2" height="1" fill="#231f20"/>
    <rect x="3" y="17" width="2" height="1" fill="#231f20"/>
    <rect x="219" y="17" width="2" height="1" fill="#231f20"/>
    <rect x="3" y="18" width="2" height="1" fill="#231f20"/>
    <rect x="219" y="18" width="2" height="1" fill="#231f20"/>
    <rect x="3" y="19" width="2" height="1" fill="#231f20"/>
    <rect x="219" y="19" width="2" height="1" fill="#231f20"/>
    <rect x="3" y="20" width="2" height="1" fill="#231f20"/>
    <rect x="219" y="20" width="2" height="1" fill="#231f20"/>
    <rect x="3" y="21" width="2" height="1" fill="#231f20"/>
    <rect x="219" y="21" width="2" height="1" fill="#231f20"/>
    <rect x="3" y="22" width="2" height="1" fill="#231f20"/>
    <rect x="219" y="22" width="2" height="1" fill="#231f20"/>
    <rect x="3" y="23" width="2" height="1" fill="#231f20"/>
    <rect x="219" y="23" width="2" height="1" fill="#231f20"/>
    <rect x="3" y="24" width="2" height="1" fill="#231f20"/>
    <rect x="219" y="24" width="2" height="1" fill="#231f20"/>
    <rect x="3" y="25" width="2" height="1" fill="#231f20"/>
    <rect x="219" y="25" width="2" height="1" fill="#231f20"/>
    <rect x="3" y="26" width="2" height="1" fill="#231f20"/>
    <rect x="219" y="26" width="2" height="1" fill="#231f20"/>
    <rect x="3" y="27" width="2" height="1" fill="#231f20"/>
    <rect x="219" y="27" width="2" height="1" fill="#231f20"/>
    <rect x="3" y="28" width="2" height="1" fill="#231f20"/>
    <rect x="219" y="28" width="2" height="1" fill="#231f20"/>
    <rect x="3" y="29" width="2" height="1" fill="#231f20"/>
    <rect x="219" y="29" width="2" height="1" fill="#231f20"/>
    <rect x="3" y="30" width="2" height="1" fill="#231f20"/>
    <rect x="219" y="30" width="2" height="1" fill="#231f20"/>
    <rect x="3" y="31" width="2" height="1" fill="#231f20"/>
    <rect x="219" y="31" width="2" height="1" fill="#231f20"/>
    <rect x="3" y="32" width="2" height="1" fill="#231f20"/>
    <rect x="219" y="32" width="2" height="1" fill="#231f20"/>
    <rect x="3" y="33" width="2" height="1" fill="#231f20"/>
    <rect x="219" y="33" width="2" height="1" fill="#231f20"/>
    <rect x="3" y="34" width="2" height="1" fill="#231f20"/>
    <rect x="219" y="34" width="2" height="1" fill="#231f20"/>
    <rect x="3" y="35" width="2" height="1" fill="#231f20"/>
    <rect x="219" y="35" width="2" height="1" fill="#231f20"/>
    <rect x="3" y="36" width="2" height="1" fill="#231f20"/>
    <rect x="219" y="36" width="2" height="1" fill="#231f20"/>
    <rect x="3" y="37" width="2" height="1" fill="#231f20"/>
    <rect x="219" y="37" width="2" height="1" fill="#231f20"/>
    <rect x="3" y="38" width="2" height="1" fill="#231f20"/>
    <rect x="219" y="38" width="2" height="1" fill="#231f20"/>
    <rect x="3" y="39" width="2" height="1" fill="#231f20"/>
    <rect x="219" y="39" width="2" height="1" fill="#231f20"/>
    <rect x="3" y="40" width="2" height="1" fill="#231f20"/>
    <rect x="219" y="40" width="2" height="1" fill="#231f20"/>
    <rect x="3" y="41" width="2" height="1" fill="#231f20"/>
    <rect x="219" y="41" width="2" height="1" fill="#231f20"/>
    <rect x="3" y="42" width="2" height="1" fill="#231f20"/>
    <rect x="219" y="42" width="2" height="1" fill="#231f20"/>
    <rect x="3" y="43" width="2" height="1" fill="#231f20"/>
    <rect x="219" y="43" width="2" height="1" fill="#231f20"/>
    <rect x="3" y="44" width="2" height="1" fill="#231f20"/>
    <rect x="219" y="44" width="2" height="1" fill="#231f20"/>
    <rect x="3" y="45" width="2" height="1" fill="#231f20"/>
    <rect x="219" y="45" width="2" height="1" fill="#231f20"/>
    <rect x="3" y="46" width="2" height="1" fill="#231f20"/>
    <rect x="219" y="46" width="2" height="1" fill="#231f20"/>
    <rect x="3" y="47" width="2" height="1" fill="#231f20"/>
    <rect x="219" y="47" width="2" height="1" fill="#231f20"/>
    <rect x="3" y="48" width="2" height="1" fill="#231f20"/>
    <rect x="37" y="48" width="2" height="1" fill="#231f20"/>
    <rect x="219" y="48" width="2" height="1" fill="#231f20"/>
    <rect x="3" y="49" width="2" height="1" fill="#231f20"/>
    <rect x="37" y="49" width="3" height="1" fill="#231f20"/>
    <rect x="219" y="49" width="2" height="1" fill="#231f20"/>
    <rect x="3" y="50" width="2" height="1" fill="#231f20"/>
    <rect x="38" y="50" width="3" height="1" fill="#231f20"/>
    <rect x="219" y="50" width="2" height="1" fill="#231f20"/>
    <rect x="3" y="51" width="2" height="1" fill="#231f20"/>
    <rect x="39" y="51" width="3" height="1" fill="#231f20"/>
    <rect x="219" y="51" width="2" height="1" fill="#231f20"/>
    <rect x="3" y="52" width="2" height="1" fill="#231f20"/>
    <rect x="40" y="52" width="3" height="1" fill="#231f20"/>
    <rect x="219" y="52" width="2" height="1" fill="#231f20"/>
    <rect x="3" y="53" width="2" height="1" fill="#231f20"/>
    <rect x="41" y="53" width="3" height="1" fill="#231f20"/>
    <rect x="219" y="53" width="2" height="1" fill="#231f20"/>
    <rect x="3" y="54" width="2" height="1" fill="#231f20"/>
    <rect x="42" y="54" width="3" height="1" fill="#231f20"/>
    <rect x="219" y="54" width="2" height="1" fill="#231f20"/>
    <rect x="3" y="55" width="2" height="1" fill="#231f20"/>
    <rect x="43" y="55" width="3" height="1" fill="#231f20"/>
    <rect x="219" y="55" width="2" height="1" fill="#231f20"/>
    <rect x="3" y="56" width="2" height="1" fill="#231f20"/>
    <rect x="44" y="56" width="3" height="1" fill="#231f20"/>
    <rect x="219" y="56" width="2" height="1" fill="#231f20"/>
    <rect x="3" y="57" width="2" height="1" fill="#231f20"/>
    <rect x="45" y="57" width="3" height="1" fill="#231f20"/>
    <rect x="219" y="57" width="2" height="1" fill="#231f20"/>
    <rect x="3" y="58" width="2" height="1" fill="#231f20"/>
    <rect x="46" y="58" width="4" height="1" fill="#231f20"/>
    <rect x="219" y="58" width="2" height="1" fill="#231f20"/>
    <rect x="3" y="59" width="2" height="1" fill="#231f20"/>
    <rect x="47" y="59" width="4" height="1" fill="#231f20"/>
    <rect x="219" y="59" width="2" height="1" fill="#231f20"/>
    <rect x="3" y="60" width="2" height="1" fill="#231f20"/>
    <rect x="49" y="60" width="3" height="1" fill="#231f20"/>
    <rect x="219" y="60" width="2" height="1" fill="#231f20"/>
    <rect x="3" y="61" width="2" height="1" fill="#231f20"/>
    <rect x="50" y="61" width="3" height="1" fill="#231f20"/>
    <rect x="219" y="61" width="2" height="1" fill="#231f20"/>
    <rect x="3" y="62" width="2" height="1" fill="#231f20"/>
    <rect x="51" y="62" width="3" height="1" fill="#231f20"/>
    <rect x="219" y="62" width="2" height="1" fill="#231f20"/>
    <rect x="3" y="63" width="2" height="1" fill="#231f20"/>
    <rect x="52" y="63" width="3" height="1" fill="#231f20"/>
    <rect x="219" y="63" width="2" height="1" fill="#231f20"/>
    <rect x="3" y="64" width="2" height="1" fill="#231f20"/>
    <rect x="53" y="64" width="3" height="1" fill="#231f20"/>
    <rect x="219" y="64" width="2" height="1" fill="#231f20"/>
    <rect x="3" y="65" width="2" height="1" fill="#231f20"/>
    <rect x="54" y="65" width="3" height="1" fill="#231f20"/>
    <rect x="219" y="65" width="2" height="1" fill="#231f20"/>
    <rect x="3" y="66" width="2" height="1" fill="#231f20"/>
    <rect x="55" y="66" width="3" height="1" fill="#231f20"/>
    <rect x="219" y="66" width="2" height="1" fill="#231f20"/>
    <rect x="3" y="67" width="2" height="1" fill="#231f20"/>
    <rect x="56" y="67" width="3" height="1" fill="#231f20"/>
    <rect x="219" y="67" width="2" height="1" fill="#231f20"/>
    <rect x="3" y="68" width="2" height="1" fill="#231f20"/>
    <rect x="57" y="68" width="3" height="1" fill="#231f20"/>
    <rect x="219" y="68" width="2" height="1" fill="#231f20"/>
    <rect x="3" y="69" width="2" height="1" fill="#231f20"/>
    <rect x="58" y="69" width="3" height="1" fill="#231f20"/>
    <rect x="219" y="69" width="2" height="1" fill="#231f20"/>
    <rect x="3" y="70" width="2" height="1" fill="#231f20"/>
    <rect x="59" y="70" width="3" height="1" fill="#231f20"/>
    <rect x="219" y="70" width="2" height="1" fill="#231f20"/>
    <rect x="3" y="71" width="2" height="1" fill="#231f20"/>
    <rect x="60" y="71" width="7" height="1" fill="#231f20"/>
    <rect x="219" y="71" width="2" height="1" fill="#231f20"/>
    <rect x="3" y="72" width="2" height="1" fill="#231f20"/>
    <rect x="61" y="72" width="12" height="1" fill="#231f20"/>
    <rect x="219" y="72" width="2" height="1" fill="#231f20"/>
    <rect x="3" y="73" width="2" height="1" fill="#231f20"/>
    <rect x="62" y="73" width="3" height="1" fill="#231f20"/>
    <rect x="66" y="73" width="12" height="1" fill="#231f20"/>
    <rect x="219" y="73" width="2" height="1" fill="#231f20"/>
    <rect x="3" y="74" width="2" height="1" fill="#231f20"/>
    <rect x="63" y="74" width="3" height="1" fill="#231f20"/>
    <rect x="72" y="74" width="12" height="1" fill="#231f20"/>
    <rect x="219" y="74" width="2" height="1" fill="#231f20"/>
    <rect x="3" y="75" width="2" height="1" fill="#231f20"/>
    <rect x="64" y="75" width="3" height="1" fill="#231f20"/>
    <rect x="77" y="75" width="12" height="1" fill="#231f20"/>
    <rect x="219" y="75" width="2" height="1" fill="#231f20"/>
    <rect x="3" y="76" width="2" height="1" fill="#231f20"/>
    <rect x="65" y="76" width="3" height="1" fill="#231f20"/>
    <rect x="83" y="76" width="12" height="1" fill="#231f20"/>
    <rect x="219" y="76" width="2" height="1" fill="#231f20"/>
    <rect x="3" y="77" width="2" height="1" fill="#231f20"/>
    <rect x="66" y="77" width="3" height="1" fill="#231f20"/>
    <rect x="88" y="77" width="12" height="1" fill="#231f20"/>
    <rect x="219" y="77" width="2" height="1" fill="#231f20"/>
    <rect x="3" y="78" width="2" height="1" fill="#231f20"/>
    <rect x="67" y="78" width="3" height="1" fill="#231f20"/>
    <rect x="94" y="78" width="12" height="1" fill="#231f20"/>
    <rect x="219" y="78" width="2" height="1" fill="#231f20"/>
    <rect x="3" y="79" width="2" height="1" fill="#231f20"/>
    <rect x="68" y="79" width="4" height="1" fill="#231f20"/>
    <rect x="99" y="79" width="12" height="1" fill="#231f20"/>
    <rect x="219" y="79" width="2" height="1" fill="#231f20"/>
    <rect x="3" y="80" width="2" height="1" fill="#231f20"/>
    <rect x="69" y="80" width="4" height="1" fill="#231f20"/>
    <rect x="105" y="80" width="12" height="1" fill="#231f20"/>
    <rect x="219" y="80" width="2" height="1" fill="#231f20"/>
    <rect x="3" y="81" width="2" height="1" fill="#231f20"/>
    <rect x="71" y="81" width="3" height="1" fill="#231f20"/>
    <rect x="110" y="81" width="12" height="1" fill="#231f20"/>
    <rect x="219" y="81" width="2" height="1" fill="#231f20"/>
    <rect x="3" y="82" width="2" height="1" fill="#231f20"/>
    <rect x="72" y="82" width="3" height="1" fill="#231f20"/>
    <rect x="116" y="82" width="6" height="1" fill="#231f20"/>
    <rect x="219" y="82" width="2" height="1" fill="#231f20"/>
    <rect x="3" y="83" width="2" height="1" fill="#231f20"/>
    <rect x="73" y="83" width="3" height="1" fill="#231f20"/>
    <rect x="219" y="83" width="2" height="1" fill="#231f20"/>
    <rect x="3" y="84" width="2" height="1" fill="#231f20"/>
    <rect x="74" y="84" width="3" height="1" fill="#231f20"/>
    <rect x="219" y="84" width="2" height="1" fill="#231f20"/>
    <rect x="3" y="85" width="2" height="1" fill="#231f20"/>
    <rect x="75" y="85" width="3" height="1" fill="#231f20"/>
    <rect x="219" y="85" width="2" height="1" fill="#231f20"/>
    <rect x="3" y="86" width="2" height="1" fill="#231f20"/>
    <rect x="76" y="86" width="3" height="1" fill="#231f20"/>
    <rect x="219" y="86" width="2" height="1" fill="#231f20"/>
    <rect x="3" y="87" width="2" height="1" fill="#231f20"/>
    <rect x="77" y="87" width="3" height="1" fill="#231f20"/>
    <rect x="219" y="87" width="2" height="1" fill="#231f20"/>
    <rect x="3" y="88" width="2" height="1" fill="#231f20"/>
    <rect x="78" y="88" width="3" height="1" fill="#231f20"/>
    <rect x="219" y="88" width="2" height="1" fill="#231f20"/>
    <rect x="3" y="89" width="2" height="1" fill="#231f20"/>
    <rect x="79" y="89" width="3" height="1" fill="#231f20"/>
    <rect x="219" y="89" width="2" height="1" fill="#231f20"/>
    <rect x="3" y="90" width="2" height="1" fill="#231f20"/>
    <rect x="80" y="90" width="3" height="1" fill="#231f20"/>
    <rect x="219" y="90" width="2" height="1" fill="#231f20"/>
    <rect x="3" y="91" width="2" height="1" fill="#231f20"/>
    <rect x="81" y="91" width="3" height="1" fill="#231f20"/>
    <rect x="219" y="91" width="2" height="1" fill="#231f20"/>
    <rect x="3" y="92" width="2" height="1" fill="#231f20"/>
    <rect x="82" y="92" width="3" height="1" fill="#231f20"/>
    <rect x="219" y="92" width="2" height="1" fill="#231f20"/>
    <rect x="3" y="93" width="2" height="1" fill="#231f20"/>
    <rect x="81" y="93" width="5" height="1" fill="#231f20"/>
    <rect x="219" y="93" width="2" height="1" fill="#231f20"/>
    <rect x="3" y="94" width="2" height="1" fill="#231f20"/>
    <rect x="82" y="94" width="5" height="1" fill="#231f20"/>
    <rect x="219" y="94" width="2" height="1" fill="#231f20"/>
    <rect x="3" y="95" width="2" height="1" fill="#231f20"/>
    <rect x="82" y="95" width="2" height="1" fill="#231f20"/>
    <rect x="85" y="95" width="3" height="1" fill="#231f20"/>
    <rect x="219" y="95" width="2" height="1" fill="#231f20"/>
    <rect x="3" y="96" width="2" height="1" fill="#231f20"/>
    <rect x="82" y="96" width="2" height="1" fill="#231f20"/>
    <rect x="86" y="96" width="3" height="1" fill="#231f20"/>
    <rect x="219" y="96" width="2" height="1" fill="#231f20"/>
    <rect x="3" y="97" width="2" height="1" fill="#231f20"/>
    <rect x="83" y="97" width="2" height="1" fill="#231f20"/>
    <rect x="87" y="97" width="3" height="1" fill="#231f20"/>
    <rect x="219" y="97" width="2" height="1" fill="#231f20"/>
    <rect x="3" y="98" width="2" height="1" fill="#231f20"/>
    <rect x="83" y="98" width="2" height="1" fill="#231f20"/>
    <rect x="88" y="98" width="3" height="1" fill="#231f20"/>
    <rect x="219" y="98" width="2" height="1" fill="#231f20"/>
    <rect x="3" y="99" width="2" height="1" fill="#231f20"/>
    <rect x="83" y="99" width="2" height="1" fill="#231f20"/>
    <rect x="89" y="99" width="3" height="1" fill="#231f20"/>
    <rect x="219" y="99" width="2" height="1" fill="#231f20"/>
    <rect x="3" y="100" width="2" height="1" fill="#231f20"/>
    <rect x="83" y="100" width="2" height="1" fill="#231f20"/>
    <rect x="90" y="100" width="3" height="1" fill="#231f20"/>
    <rect x="219" y="100" width="2" height="1" fill="#231f20"/>
    <rect x="3" y="101" width="2" height="1" fill="#231f20"/>
    <rect x="84" y="101" width="2" height="1" fill="#231f20"/>
    <rect x="91" y="101" width="4" height="1" fill="#231f20"/>
    <rect x="219" y="101" width="2" height="1" fill="#231f20"/>
    <rect x="3" y="102" width="2" height="1" fill="#231f20"/>
    <rect x="84" y="102" width="2" height="1" fill="#231f20"/>
    <rect x="92" y="102" width="4" height="1" fill="#231f20"/>
    <rect x="219" y="102" width="2" height="1" fill="#231f20"/>
    <rect x="3" y="103" width="2" height="1" fill="#231f20"/>
    <rect x="84" y="103" width="2" height="1" fill="#231f20"/>
    <rect x="94" y="103" width="3" height="1" fill="#231f20"/>
    <rect x="219" y="103" width="2" height="1" fill="#231f20"/>
    <rect x="3" y="104" width="2" height="1" fill="#231f20"/>
    <rect x="84" y="104" width="2" height="1" fill="#231f20"/>
    <rect x="95" y="104" width="3" height="1" fill="#231f20"/>
    <rect x="219" y="104" width="2" height="1" fill="#231f20"/>
    <rect x="3" y="105" width="2" height="1" fill="#231f20"/>
    <rect x="85" y="105" width="2" height="1" fill="#231f20"/>
    <rect x="96" y="105" width="3" height="1" fill="#231f20"/>
    <rect x="219" y="105" width="2" height="1" fill="#231f20"/>
    <rect x="3" y="106" width="2" height="1" fill="#231f20"/>
    <rect x="85" y="106" width="2" height="1" fill="#231f20"/>
    <rect x="97" y="106" width="3" height="1" fill="#231f20"/>
    <rect x="219" y="106" width="2" height="1" fill="#231f20"/>
    <rect x="3" y="107" width="2" height="1" fill="#231f20"/>
    <rect x="85" y="107" width="2" height="1" fill="#231f20"/>
    <rect x="98" y="107" width="3" height="1" fill="#231f20"/>
    <rect x="219" y="107" width="2" height="1" fill="#231f20"/>
    <rect x="3" y="108" width="2" height="1" fill="#231f20"/>
    <rect x="86" y="108" width="2" height="1" fill="#231f20"/>
    <rect x="99" y="108" width="3" height="1" fill="#231f20"/>
    <rect x="219" y="108" width="2" height="1" fill="#231f20"/>
    <rect x="3" y="109" width="2" height="1" fill="#231f20"/>
    <rect x="86" y="109" width="2" height="1" fill="#231f20"/>
    <rect x="100" y="109" width="3" height="1" fill="#231f20"/>
    <rect x="219" y="109" width="2" height="1" fill="#231f20"/>
    <rect x="3" y="110" width="2" height="1" fill="#231f20"/>
    <rect x="86" y="110" width="2" height="1" fill="#231f20"/>
    <rect x="101" y="110" width="3" height="1" fill="#231f20"/>
    <rect x="219" y="110" width="2" height="1" fill="#231f20"/>
    <rect x="3" y="111" width="2" height="1" fill="#231f20"/>
    <rect x="86" y="111" width="2" height="1" fill="#231f20"/>
    <rect x="102" y="111" width="3" height="1" fill="#231f20"/>
    <rect x="219" y="111" width="2" height="1" fill="#231f20"/>
    <rect x="3" y="112" width="2" height="1" fill="#231f20"/>
    <rect x="87" y="112" width="2" height="1" fill="#231f20"/>
    <rect x="103" y="112" width="3" height="1" fill="#231f20"/>
    <rect x="219" y="112" width="2" height="1" fill="#231f20"/>
    <rect x="3" y="113" width="2" height="1" fill="#231f20"/>
    <rect x="87" y="113" width="2" height="1" fill="#231f20"/>
    <rect x="104" y="113" width="3" height="1" fill="#231f20"/>
    <rect x="219" y="113" width="2" height="1" fill="#231f20"/>
    <rect x="3" y="114" width="2" height="1" fill="#231f20"/>
    <rect x="87" y="114" width="2" height="1" fill="#231f20"/>
    <rect x="105" y="114" width="3" height="1" fill="#231f20"/>
    <rect x="219" y="114" width="2" height="1" fill="#231f20"/>
    <rect x="3" y="115" width="2" height="1" fill="#231f20"/>
    <rect x="87" y="115" width="2" height="1" fill="#231f20"/>
    <rect x="106" y="115" width="7" height="1" fill="#231f20"/>
    <rect x="219" y="115" width="2" height="1" fill="#231f20"/>
    <rect x="3" y="116" width="2" height="1" fill="#231f20"/>
    <rect x="88" y="116" width="2" height="1" fill="#231f20"/>
    <rect x="107" y="116" width="9" height="1" fill="#231f20"/>
    <rect x="219" y="116" width="2" height="1" fill="#231f20"/>
    <rect x="3" y="117" width="2" height="1" fill="#231f20"/>
    <rect x="88" y="117" width="2" height="1" fill="#231f20"/>
    <rect x="108" y="117" width="3" height="1" fill="#231f20"/>
    <rect x="112" y="117" width="8" height="1" fill="#231f20"/>
    <rect x="219" y="117" width="2" height="1" fill="#231f20"/>
    <rect x="3" y="118" width="2" height="1" fill="#231f20"/>
    <rect x="88" y="118" width="2" height="1" fill="#231f20"/>
    <rect x="109" y="118" width="3" height="1" fill="#231f20"/>
    <rect x="115" y="118" width="8" height="1" fill="#231f20"/>
    <rect x="219" y="118" width="2" height="1" fill="#231f20"/>
    <rect x="3" y="119" width="2" height="1" fill="#231f20"/>
    <rect x="89" y="119" width="2" height="1" fill="#231f20"/>
    <rect x="110" y="119" width="3" height="1" fill="#231f20"/>
    <rect x="119" y="119" width="8" height="1" fill="#231f20"/>
    <rect x="219" y="119" width="2" height="1" fill="#231f20"/>
    <rect x="3" y="120" width="2" height="1" fill="#231f20"/>
    <rect x="89" y="120" width="2" height="1" fill="#231f20"/>
    <rect x="111" y="120" width="3" height="1" fill="#231f20"/>
    <rect x="122" y="120" width="8" height="1" fill="#231f20"/>
    <rect x="219" y="120" width="2" height="1" fill="#231f20"/>
    <rect x="3" y="121" width="2" height="1" fill="#231f20"/>
    <rect x="89" y="121" width="2" height="1" fill="#231f20"/>
    <rect x="112" y="121" width="3" height="1" fill="#231f20"/>
    <rect x="126" y="121" width="8" height="1" fill="#231f20"/>
    <rect x="219" y="121" width="2" height="1" fill="#231f20"/>
    <rect x="3" y="122" width="2" height="1" fill="#231f20"/>
    <rect x="89" y="122" width="2" height="1" fill="#231f20"/>
    <rect x="113" y="122" width="4" height="1" fill="#231f20"/>
    <rect x="129" y="122" width="9" height="1" fill="#231f20"/>
    <rect x="219" y="122" width="2" height="1" fill="#231f20"/>
    <rect x="3" y="123" width="2" height="1" fill="#231f20"/>
    <rect x="90" y="123" width="2" height="1" fill="#231f20"/>
    <rect x="114" y="123" width="4" height="1" fill="#231f20"/>
    <rect x="133" y="123" width="8" height="1" fill="#231f20"/>
    <rect x="219" y="123" width="2" height="1" fill="#231f20"/>
    <rect x="3" y="124" width="2" height="1" fill="#231f20"/>
    <rect x="90" y="124" width="2" height="1" fill="#231f20"/>
    <rect x="115" y="124" width="4" height="1" fill="#231f20"/>
    <rect x="137" y="124" width="8" height="1" fill="#231f20"/>
    <rect x="219" y="124" width="2" height="1" fill="#231f20"/>
    <rect x="3" y="125" width="2" height="1" fill="#231f20"/>
    <rect x="90" y="125" width="2" height="1" fill="#231f20"/>
    <rect x="116" y="125" width="4" height="1" fill="#231f20"/>
    <rect x="140" y="125" width="8" height="1" fill="#231f20"/>
    <rect x="219" y="125" width="2" height="1" fill="#231f20"/>
    <rect x="3" y="126" width="2" height="1" fill="#231f20"/>
    <rect x="90" y="126" width="2" height="1" fill="#231f20"/>
    <rect x="116" y="126" width="5" height="1" fill="#231f20"/>
    <rect x="144" y="126" width="8" height="1" fill="#231f20"/>
    <rect x="219" y="126" width="2" height="1" fill="#231f20"/>
    <rect x="3" y="127" width="2" height="1" fill="#231f20"/>
    <rect x="91" y="127" width="2" height="1" fill="#231f20"/>
    <rect x="116" y="127" width="2" height="1" fill="#231f20"/>
    <rect x="119" y="127" width="3" height="1" fill="#231f20"/>
    <rect x="147" y="127" width="8" height="1" fill="#231f20"/>
    <rect x="219" y="127" width="2" height="1" fill="#231f20"/>
    <rect x="3" y="128" width="2" height="1" fill="#231f20"/>
    <rect x="91" y="128" width="2" height="1" fill="#231f20"/>
    <rect x="116" y="128" width="2" height="1" fill="#231f20"/>
    <rect x="120" y="128" width="3" height="1" fill="#231f20"/>
    <rect x="151" y="128" width="8" height="1" fill="#231f20"/>
    <rect x="219" y="128" width="2" height="1" fill="#231f20"/>
    <rect x="3" y="129" width="2" height="1" fill="#231f20"/>
    <rect x="91" y="129" width="2" height="1" fill="#231f20"/>
    <rect x="116" y="129" width="2" height="1" fill="#231f20"/>
    <rect x="121" y="129" width="3" height="1" fill="#231f20"/>
    <rect x="154" y="129" width="5" height="1" fill="#231f20"/>
    <rect x="219" y="129" width="2" height="1" fill="#231f20"/>
    <rect x="3" y="130" width="2" height="1" fill="#231f20"/>
    <rect x="91" y="130" width="2" height="1" fill="#231f20"/>
    <rect x="116" y="130" width="2" height="1" fill="#231f20"/>
    <rect x="122" y="130" width="3" height="1" fill="#231f20"/>
    <rect x="219" y="130" width="2" height="1" fill="#231f20"/>
    <rect x="3" y="131" width="2" height="1" fill="#231f20"/>
    <rect x="116" y="131" width="2" height="1" fill="#231f20"/>
    <rect x="123" y="131" width="3" height="1" fill="#231f20"/>
    <rect x="219" y="131" width="2" height="1" fill="#231f20"/>
    <rect x="3" y="132" width="2" height="1" fill="#231f20"/>
    <rect x="116" y="132" width="2" height="1" fill="#231f20"/>
    <rect x="124" y="132" width="3" height="1" fill="#231f20"/>
    <rect x="219" y="132" width="2" height="1" fill="#231f20"/>
    <rect x="3" y="133" width="2" height="1" fill="#231f20"/>
    <rect x="116" y="133" width="2" height="1" fill="#231f20"/>
    <rect x="125" y="133" width="3" height="1" fill="#231f20"/>
    <rect x="219" y="133" width="2" height="1" fill="#231f20"/>
    <rect x="3" y="134" width="2" height="1" fill="#231f20"/>
    <rect x="116" y="134" width="2" height="1" fill="#231f20"/>
    <rect x="126" y="134" width="3" height="1" fill="#231f20"/>
    <rect x="219" y="134" width="2" height="1" fill="#231f20"/>
    <rect x="3" y="135" width="2" height="1" fill="#231f20"/>
    <rect x="117" y="135" width="2" height="1" fill="#231f20"/>
    <rect x="127" y="135" width="3" height="1" fill="#231f20"/>
    <rect x="219" y="135" width="2" height="1" fill="#231f20"/>
    <rect x="3" y="136" width="2" height="1" fill="#231f20"/>
    <rect x="117" y="136" width="2" height="1" fill="#231f20"/>
    <rect x="128" y="136" width="3" height="1" fill="#231f20"/>
    <rect x="219" y="136" width="2" height="1" fill="#231f20"/>
    <rect x="3" y="137" width="2" height="1" fill="#231f20"/>
    <rect x="117" y="137" width="2" height="1" fill="#231f20"/>
    <rect x="129" y="137" width="3" height="1" fill="#231f20"/>
    <rect x="219" y="137" width="2" height="1" fill="#231f20"/>
    <rect x="3" y="138" width="2" height="1" fill="#231f20"/>
    <rect x="117" y="138" width="2" height="1" fill="#231f20"/>
    <rect x="130" y="138" width="3" height="1" fill="#231f20"/>
    <rect x="219" y="138" width="2" height="1" fill="#231f20"/>
    <rect x="3" y="139" width="2" height="1" fill="#231f20"/>
    <rect x="117" y="139" width="2" height="1" fill="#231f20"/>
    <rect x="131" y="139" width="7" height="1" fill="#231f20"/>
    <rect x="219" y="139" width="2" height="1" fill="#231f20"/>
    <rect x="3" y="140" width="2" height="1" fill="#231f20"/>
    <rect x="117" y="140" width="2" height="1" fill="#231f20"/>
    <rect x="132" y="140" width="10" height="1" fill="#231f20"/>
    <rect x="219" y="140" width="2" height="1" fill="#231f20"/>
    <rect x="3" y="141" width="2" height="1" fill="#231f20"/>
    <rect x="117" y="141" width="2" height="1" fill="#231f20"/>
    <rect x="133" y="141" width="3" height="1" fill="#231f20"/>
    <rect x="137" y="141" width="9" height="1" fill="#231f20"/>
    <rect x="219" y="141" width="2" height="1" fill="#231f20"/>
    <rect x="3" y="142" width="2" height="1" fill="#231f20"/>
    <rect x="117" y="142" width="2" height="1" fill="#231f20"/>
    <rect x="134" y="142" width="3" height="1" fill="#231f20"/>
    <rect x="141" y="142" width="9" height="1" fill="#231f20"/>
    <rect x="219" y="142" width="2" height="1" fill="#231f20"/>
    <rect x="3" y="143" width="2" height="1" fill="#231f20"/>
    <rect x="117" y="143" width="2" height="1" fill="#231f20"/>
    <rect x="135" y="143" width="4" height="1" fill="#231f20"/>
    <rect x="145" y="143" width="9" height="1" fill="#231f20"/>
    <rect x="219" y="143" width="2" height="1" fill="#231f20"/>
    <rect x="3" y="144" width="2" height="1" fill="#231f20"/>
    <rect x="117" y="144" width="2" height="1" fill="#231f20"/>
    <rect x="136" y="144" width="4" height="1" fill="#231f20"/>
    <rect x="149" y="144" width="5" height="1" fill="#231f20"/>
    <rect x="219" y="144" width="2" height="1" fill="#231f20"/>
    <rect x="3" y="145" width="2" height="1" fill="#231f20"/>
    <rect x="118" y="145" width="2" height="1" fill="#231f20"/>
    <rect x="138" y="145" width="3" height="1" fill="#231f20"/>
    <rect x="219" y="145" width="2" height="1" fill="#231f20"/>
    <rect x="3" y="146" width="2" height="1" fill="#231f20"/>
    <rect x="118" y="146" width="2" height="1" fill="#231f20"/>
    <rect x="139" y="146" width="3" height="1" fill="#231f20"/>
    <rect x="219" y="146" width="2" height="1" fill="#231f20"/>
    <rect x="3" y="147" width="2" height="1" fill="#231f20"/>
    <rect x="118" y="147" width="2" height="1" fill="#231f20"/>
    <rect x="140" y="147" width="3" height="1" fill="#231f20"/>
    <rect x="219" y="147" width="2" height="1" fill="#231f20"/>
    <rect x="3" y="148" width="2" height="1" fill="#231f20"/>
    <rect x="118" y="148" width="2" height="1" fill="#231f20"/>
    <rect x="141" y="148" width="3" height="1" fill="#231f20"/>
    <rect x="219" y="148" width="2" height="1" fill="#231f20"/>
    <rect x="3" y="149" width="2" height="1" fill="#231f20"/>
    <rect x="118" y="149" width="2" height="1" fill="#231f20"/>
    <rect x="142" y="149" width="3" height="1" fill="#231f20"/>
    <rect x="219" y="149" width="2" height="1" fill="#231f20"/>
    <rect x="3" y="150" width="2" height="1" fill="#231f20"/>
    <rect x="118" y="150" width="2" height="1" fill="#231f20"/>
    <rect x="143" y="150" width="3" height="1" fill="#231f20"/>
    <rect x="219" y="150" width="2" height="1" fill="#231f20"/>
    <rect x="3" y="151" width="2" height="1" fill="#231f20"/>
    <rect x="118" y="151" width="2" height="1" fill="#231f20"/>
    <rect x="144" y="151" width="3" height="1" fill="#231f20"/>
    <rect x="219" y="151" width="2" height="1" fill="#231f20"/>
    <rect x="3" y="152" width="2" height="1" fill="#231f20"/>
    <rect x="118" y="152" width="2" height="1" fill="#231f20"/>
    <rect x="145" y="152" width="3" height="1" fill="#231f20"/>
    <rect x="219" y="152" width="2" height="1" fill="#231f20"/>
    <rect x="3" y="153" width="2" height="1" fill="#231f20"/>
    <rect x="118" y="153" width="2" height="1" fill="#231f20"/>
    <rect x="146" y="153" width="3" height="1" fill="#231f20"/>
    <rect x="219" y="153" width="2" height="1" fill="#231f20"/>
    <rect x="3" y="154" width="2" height="1" fill="#231f20"/>
    <rect x="118" y="154" width="2" height="1" fill="#231f20"/>
    <rect x="147" y="154" width="2" height="1" fill="#231f20"/>
    <rect x="219" y="154" width="2" height="1" fill="#231f20"/>
    <rect x="3" y="155" width="2" height="1" fill="#231f20"/>
    <rect x="118" y="155" width="2" height="1" fill="#231f20"/>
    <rect x="219" y="155" width="2" height="1" fill="#231f20"/>
    <rect x="3" y="156" width="2" height="1" fill="#231f20"/>
    <rect x="119" y="156" width="2" height="1" fill="#231f20"/>
    <rect x="219" y="156" width="2" height="1" fill="#231f20"/>
    <rect x="3" y="157" width="2" height="1" fill="#231f20"/>
    <rect x="119" y="157" width="2" height="1" fill="#231f20"/>
    <rect x="219" y="157" width="2" height="1" fill="#231f20"/>
    <rect x="3" y="158" width="2" height="1" fill="#231f20"/>
    <rect x="119" y="158" width="2" height="1" fill="#231f20"/>
    <rect x="219" y="158" width="2" height="1" fill="#231f20"/>
    <rect x="3" y="159" width="2" height="1" fill="#231f20"/>
    <rect x="119" y="159" width="2" height="1" fill="#231f20"/>
    <rect x="219" y="159" width="2" height="1" fill="#231f20"/>
    <rect x="3" y="160" width="2" height="1" fill="#231f20"/>
    <rect x="119" y="160" width="2" height="1" fill="#231f20"/>
    <rect x="219" y="160" width="2" height="1" fill="#231f20"/>
    <rect x="3" y="161" width="2" height="1" fill="#231f20"/>
    <rect x="119" y="161" width="2" height="1" fill="#231f20"/>
    <rect x="219" y="161" width="2" height="1" fill="#231f20"/>
    <rect x="3" y="162" width="2" height="1" fill="#231f20"/>
    <rect x="119" y="162" width="2" height="1" fill="#231f20"/>
    <rect x="219" y="162" width="2" height="1" fill="#231f20"/>
    <rect x="3" y="163" width="2" height="1" fill="#231f20"/>
    <rect x="119" y="163" width="2" height="1" fill="#231f20"/>
    <rect x="219" y="163" width="2" height="1" fill="#231f20"/>
    <rect x="3" y="164" width="2" height="1" fill="#231f20"/>
    <rect x="119" y="164" width="2" height="1" fill="#231f20"/>
    <rect x="219" y="164" width="2" height="1" fill="#231f20"/>
    <rect x="3" y="165" width="2" height="1" fill="#231f20"/>
    <rect x="119" y="165" width="2" height="1" fill="#231f20"/>
    <rect x="219" y="165" width="2" height="1" fill="#231f20"/>
    <rect x="3" y="166" width="2" height="1" fill="#231f20"/>
    <rect x="120" y="166" width="2" height="1" fill="#231f20"/>
    <rect x="219" y="166" width="2" height="1" fill="#231f20"/>
    <rect x="3" y="167" width="2" height="1" fill="#231f20"/>
    <rect x="120" y="167" width="2" height="1" fill="#231f20"/>
    <rect x="219" y="167" width="2" height="1" fill="#231f20"/>
    <rect x="3" y="168" width="2" height="1" fill="#231f20"/>
    <rect x="120" y="168" width="2" height="1" fill="#231f20"/>
    <rect x="219" y="168" width="2" height="1" fill="#231f20"/>
    <rect x="3" y="169" width="2" height="1" fill="#231f20"/>
    <rect x="120" y="169" width="2" height="1" fill="#231f20"/>
    <rect x="219" y="169" width="2" height="1" fill="#231f20"/>
    <rect x="3" y="170" width="2" height="1" fill="#231f20"/>
    <rect x="120" y="170" width="2" height="1" fill="#231f20"/>
    <rect x="219" y="170" width="2" height="1" fill="#231f20"/>
    <rect x="3" y="171" width="2" height="1" fill="#231f20"/>
    <rect x="120" y="171" width="2" height="1" fill="#231f20"/>
    <rect x="219" y="171" width="2" height="1" fill="#231f20"/>
    <rect x="3" y="172" width="2" height="1" fill="#231f20"/>
    <rect x="120" y="172" width="2" height="1" fill="#231f20"/>
    <rect x="219" y="172" width="2" height="1" fill="#231f20"/>
    <rect x="3" y="173" width="2" height="1" fill="#231f20"/>
    <rect x="120" y="173" width="2" height="1" fill="#231f20"/>
    <rect x="219" y="173" width="2" height="1" fill="#231f20"/>
    <rect x="3" y="174" width="2" height="1" fill="#231f20"/>
    <rect x="120" y="174" width="2" height="1" fill="#231f20"/>
    <rect x="219" y="174" width="2" height="1" fill="#231f20"/>
    <rect x="3" y="175" width="2" height="1" fill="#231f20"/>
    <rect x="120" y="175" width="2" height="1" fill="#231f20"/>
    <rect x="219" y="175" width="2" height="1" fill="#231f20"/>
    <rect x="3" y="176" width="2" height="1" fill="#231f20"/>
    <rect x="120" y="176" width="2" height="1" fill="#231f20"/>
    <rect x="219" y="176" width="2" height="1" fill="#231f20"/>
    <rect x="3" y="177" width="2" height="1" fill="#231f20"/>
    <rect x="219" y="177" width="2" height="1" fill="#231f20"/>
    <rect x="3" y="178" width="2" height="1" fill="#231f20"/>
    <rect x="219" y="178" width="2" height="1" fill="#231f20"/>
    <rect x="3" y="179" width="2" height="1" fill="#231f20"/>
    <rect x="219" y="179" width="2" height="1" fill="#231f20"/>
    <rect x="3" y="180" width="2" height="1" fill="#231f20"/>
    <rect x="219" y="180" width="2" height="1" fill="#231f20"/>
    <rect x="3" y="181" width="2" height="1" fill="#231f20"/>
    <rect x="219" y="181" width="2" height="1" fill="#231f20"/>
    <rect x="3" y="182" width="2" height="1" fill="#231f20"/>
    <rect x="219" y="182" width="2" height="1" fill="#231f20"/>
    <rect x="3" y="183" width="2" height="1" fill="#231f20"/>
    <rect x="219" y="183" width="2" height="1" fill="#231f20"/>
    <rect x="3" y="184" width="2" height="1" fill="#231f20"/>
    <rect x="219" y="184" width="2" height="1" fill="#231f20"/>
    <rect x="3" y="185" width="2" height="1" fill="#231f20"/>
    <rect x="219" y="185" width="2" height="1" fill="#231f20"/>
    <rect x="3" y="186" width="2" height="1" fill="#231f20"/>
    <rect x="219" y="186" width="2" height="1" fill="#231f20"/>
    <rect x="3" y="187" width="2" height="1" fill="#231f20"/>
    <rect x="219" y="187" width="2" height="1" fill="#231f20"/>
    <rect x="3" y="188" width="2" height="1" fill="#231f20"/>
    <rect x="219" y="188" width="2" height="1" fill="#231f20"/>
    <rect x="3" y="189" width="2" height="1" fill="#231f20"/>
    <rect x="219" y="189" width="2" height="1" fill="#231f20"/>
    <rect x="3" y="190" width="2" height="1" fill="#231f20"/>
    <rect x="219" y="190" width="2" height="1" fill="#231f20"/>
    <rect x="3" y="191" width="2" height="1" fill="#231f20"/>
    <rect x="219" y="191" width="2" height="1" fill="#231f20"/>
    <rect x="3" y="192" width="2" height="1" fill="#231f20"/>
    <rect x="219" y="192" width="2" height="1" fill="#231f20"/>
    <rect x="3" y="193" width="2" height="1" fill="#231f20"/>
    <rect x="219" y="193" width="2" height="1" fill="#231f20"/>
    <rect x="3" y="194" width="2" height="1" fill="#231f20"/>
    <rect x="219" y="194" width="2" height="1" fill="#231f20"/>
    <rect x="3" y="195" width="2" height="1" fill="#231f20"/>
    <rect x="219" y="195" width="2" height="1" fill="#231f20"/>
    <rect x="3" y="196" width="2" height="1" fill="#231f20"/>
    <rect x="219" y="196" width="2" height="1" fill="#231f20"/>
    <rect x="3" y="197" width="2" height="1" fill="#231f20"/>
    <rect x="219" y="197" width="2" height="1" fill="#231f20"/>
    <rect x="3" y="198" width="2" height="1" fill="#231f20"/>
    <rect x="219" y="198" width="2" height="1" fill="#231f20"/>
    <rect x="3" y="199" width="2" height="1" fill="#231f20"/>
    <rect x="219" y="199" width="2" height="1" fill="#231f20"/>
    <rect x="3" y="200" width="2" height="1" fill="#231f20"/>
    <rect x="219" y="200" width="2" height="1" fill="#231f20"/>
    <rect x="3" y="201" width="2" height="1" fill="#231f20"/>
    <rect x="219" y="201" width="2" height="1" fill="#231f20"/>
    <rect x="3" y="202" width="2" height="1" fill="#231f20"/>
    <rect x="219" y="202" width="2" height="1" fill="#231f20"/>
    <rect x="3" y="203" width="2" height="1" fill="#231f20"/>
    <rect x="219" y="203" width="2" height="1" fill="#231f20"/>
    <rect x="3" y="204" width="2" height="1" fill="#231f20"/>
    <rect x="219" y="204" width="2" height="1" fill="#231f20"/>
    <rect x="3" y="205" width="2" height="1" fill="#231f20"/>
    <rect x="219" y="205" width="2" height="1" fill="#231f20"/>
    <rect x="3" y="206" width="2" height="1" fill="#231f20"/>
    <rect x="219" y="206" width="2" height="1" fill="#231f20"/>
    <rect x="3" y="207" width="2" height="1" fill="#231f20"/>
    <rect x="219" y="207" width="2" height="1" fill="#231f20"/>
    <rect x="3" y="208" width="2" height="1" fill="#231f20"/>
    <rect x="219" y="208" width="2" height="1" fill="#231f20"/>
    <rect x="3" y="209" width="2" height="1" fill="#231f20"/>
    <rect x="219" y="209" width="2" height="1" fill="#231f20"/>
    <rect x="3" y="210" width="2" height="1" fill="#231f20"/>
    <rect x="219" y="210" width="2" height="1" fill="#231f20"/>
    <rect x="3" y="211" width="2" height="1" fill="#231f20"/>
    <rect x="219" y="211" width="2" height="1" fill="#231f20"/>
    <rect x="3" y="212" width="2" height="1" fill="#231f20"/>
    <rect x="219" y="212" width="2" height="1" fill="#231f20"/>
    <rect x="3" y="213" width="2" height="1" fill="#231f20"/>
    <rect x="219" y="213" width="2" height="1" fill="#231f20"/>
    <rect x="3" y="214" width="2" height="1" fill="#231f20"/>
    <rect x="219" y="214" width="2" height="1" fill="#231f20"/>
    <rect x="3" y="215" width="2" height="1" fill="#231f20"/>
    <rect x="219" y="215" width="2" height="1" fill="#231f20"/>
    <rect x="3" y="216" width="2" height="1" fill="#231f20"/>
    <rect x="219" y="216" width="2" height="1" fill="#231f20"/>
    <rect x="3" y="217" width="2" height="1" fill="#231f20"/>
    <rect x="219" y="217" width="2" height="1" fill="#231f20"/>
    <rect x="3" y="218" width="218" height="1" fill="#231f20"/>
    <rect x="3" y="219" width="218" height="1" fill="#231f20"/>
  </g>
</svg>