<?xml version="1.0" encoding="UTF-8"?>
<svg xmlns="http://www.w3.org/2000/svg" viewBox="0 0 124 83" width="124" height="83">
  <!-- Auto-converted from legend-336.png -->
  <rect x="0" y="0" width="124" height="83" fill="none"/>
  <g fill="#32261f" stroke="none">
    <rect x="0" y="0" width="124" height="1" fill="#32261f"/>
    <rect x="0" y="1" width="1" height="1" fill="#32261f"/>
    <rect x="123" y="1" width="1" height="1" fill="#32261f"/>
    <rect x="0" y="2" width="1" height="1" fill="#32261f"/>
    <rect x="123" y="2" width="1" height="1" fill="#32261f"/>
    <rect x="0" y="3" width="1" height="1" fill="#32261f"/>
    <rect x="123" y="3" width="1" height="1" fill="#32261f"/>
    <rect x="0" y="4" width="1" height="1" fill="#32261f"/>
    <rect x="123" y="4" width="1" height="1" fill="#32261f"/>
    <rect x="0" y="5" width="1" height="1" fill="#32261f"/>
    <rect x="123" y="5" width="1" height="1" fill="#32261f"/>
    <rect x="0" y="6" width="1" height="1" fill="#32261f"/>
    <rect x="123" y="6" width="1" height="1" fill="#32261f"/>
    <rect x="0" y="7" width="1" height="1" fill="#32261f"/>
    <rect x="123" y="7" width="1" height="1" fill="#32261f"/>
    <rect x="0" y="8" width="1" height="1" fill="#32261f"/>
    <rect x="123" y="8" width="1" height="1" fill="#32261f"/>
    <rect x="0" y="9" width="1" height="1" fill="#32261f"/>
    <rect x="123" y="9" width="1" height="1" fill="#32261f"/>
    <rect x="0" y="10" width="1" height="1" fill="#32261f"/>
    <rect x="123" y="10" width="1" height="1" fill="#32261f"/>
    <rect x="0" y="11" width="1" height="1" fill="#32261f"/>
    <rect x="123" y="11" width="1" height="1" fill="#32261f"/>
    <rect x="0" y="12" width="1" height="1" fill="#32261f"/>
    <rect x="123" y="12" width="1" height="1" fill="#32261f"/>
    <rect x="0" y="13" width="1" height="1" fill="#32261f"/>
    <rect x="69" y="13" width="14" height="1" fill="#32261f"/>
    <rect x="123" y="13" width="1" height="1" fill="#32261f"/>
    <rect x="0" y="14" width="1" height="1" fill="#32261f"/>
    <rect x="65" y="14" width="4" height="1" fill="#32261f"/>
    <rect x="83" y="14" width="3" height="1" fill="#32261f"/>
    <rect x="123" y="14" width="1" height="1" fill="#32261f"/>
    <rect x="0" y="15" width="1" height="1" fill="#32261f"/>
    <rect x="61" y="15" width="4" height="1" fill="#32261f"/>
    <rect x="86" y="15" width="3" height="1" fill="#32261f"/>
    <rect x="123" y="15" width="1" height="1" fill="#32261f"/>
    <rect x="0" y="16" width="1" height="1" fill="#32261f"/>
    <rect x="58" y="16" width="3" height="1" fill="#32261f"/>
    <rect x="89" y="16" width="1" height="1" fill="#32261f"/>
    <rect x="123" y="16" width="1" height="1" fill="#32261f"/>
    <rect x="0" y="17" width="1" height="1" fill="#32261f"/>
    <rect x="56" y="17" width="2" height="1" fill="#32261f"/>
    <rect x="90" y="17" width="1" height="1" fill="#32261f"/>
    <rect x="123" y="17" width="1" height="1" fill="#32261f"/>
    <rect x="0" y="18" width="1" height="1" fill="#32261f"/>
    <rect x="55" y="18" width="1" height="1" fill="#32261f"/>
    <rect x="91" y="18" width="2" height="1" fill="#32261f"/>
    <rect x="123" y="18" width="1" height="1" fill="#32261f"/>
    <rect x="0" y="19" width="1" height="1" fill="#32261f"/>
    <rect x="53" y="19" width="2" height="1" fill="#32261f"/>
    <rect x="93" y="19" width="1" height="1" fill="#32261f"/>
    <rect x="123" y="19" width="1" height="1" fill="#32261f"/>
    <rect x="0" y="20" width="1" height="1" fill="#32261f"/>
    <rect x="51" y="20" width="2" height="1" fill="#32261f"/>
    <rect x="94" y="20" width="1" height="1" fill="#32261f"/>
    <rect x="123" y="20" width="1" height="1" fill="#32261f"/>
    <rect x="0" y="21" width="1" height="1" fill="#32261f"/>
    <rect x="49" y="21" width="2" height="1" fill="#32261f"/>
    <rect x="94" y="21" width="1" height="1" fill="#32261f"/>
    <rect x="123" y="21" width="1" height="1" fill="#32261f"/>
    <rect x="0" y="22" width="1" height="1" fill="#32261f"/>
    <rect x="47" y="22" width="2" height="1" fill="#32261f"/>
    <rect x="95" y="22" width="1" height="1" fill="#32261f"/>
    <rect x="123" y="22" width="1" height="1" fill="#32261f"/>
    <rect x="0" y="23" width="1" height="1" fill="#32261f"/>
    <rect x="45" y="23" width="2" height="1" fill="#32261f"/>
    <rect x="95" y="23" width="1" height="1" fill="#32261f"/>
    <rect x="123" y="23" width="1" height="1" fill="#32261f"/>
    <rect x="0" y="24" width="1" height="1" fill="#32261f"/>
    <rect x="44" y="24" width="1" height="1" fill="#32261f"/>
    <rect x="95" y="24" width="1" height="1" fill="#32261f"/>
    <rect x="123" y="24" width="1" height="1" fill="#32261f"/>
    <rect x="0" y="25" width="1" height="1" fill="#32261f"/>
    <rect x="43" y="25" width="1" height="1" fill="#32261f"/>
    <rect x="95" y="25" width="1" height="1" fill="#32261f"/>
    <rect x="123" y="25" width="1" height="1" fill="#32261f"/>
    <rect x="0" y="26" width="1" height="1" fill="#32261f"/>
    <rect x="42" y="26" width="1" height="1" fill="#32261f"/>
    <rect x="96" y="26" width="1" height="1" fill="#32261f"/>
    <rect x="123" y="26" width="1" height="1" fill="#32261f"/>
    <rect x="0" y="27" width="1" height="1" fill="#32261f"/>
    <rect x="41" y="27" width="1" height="1" fill="#32261f"/>
    <rect x="96" y="27" width="1" height="1" fill="#32261f"/>
    <rect x="123" y="27" width="1" height="1" fill="#32261f"/>
    <rect x="0" y="28" width="1" height="1" fill="#32261f"/>
    <rect x="39" y="28" width="2" height="1" fill="#32261f"/>
    <rect x="96" y="28" width="1" height="1" fill="#32261f"/>
    <rect x="123" y="28" width="1" height="1" fill="#32261f"/>
    <rect x="0" y="29" width="1" height="1" fill="#32261f"/>
    <rect x="38" y="29" width="1" height="1" fill="#32261f"/>
    <rect x="96" y="29" width="1" height="1" fill="#32261f"/>
    <rect x="123" y="29" width="1" height="1" fill="#32261f"/>
    <rect x="0" y="30" width="1" height="1" fill="#32261f"/>
    <rect x="37" y="30" width="1" height="1" fill="#32261f"/>
    <rect x="96" y="30" width="1" height="1" fill="#32261f"/>
    <rect x="123" y="30" width="1" height="1" fill="#32261f"/>
    <rect x="0" y="31" width="1" height="1" fill="#32261f"/>
    <rect x="36" y="31" width="1" height="1" fill="#32261f"/>
    <rect x="96" y="31" width="1" height="1" fill="#32261f"/>
    <rect x="123" y="31" width="1" height="1" fill="#32261f"/>
    <rect x="0" y="32" width="1" height="1" fill="#32261f"/>
    <rect x="35" y="32" width="1" height="1" fill="#32261f"/>
    <rect x="96" y="32" width="1" height="1" fill="#32261f"/>
    <rect x="123" y="32" width="1" height="1" fill="#32261f"/>
    <rect x="0" y="33" width="1" height="1" fill="#32261f"/>
    <rect x="34" y="33" width="1" height="1" fill="#32261f"/>
    <rect x="96" y="33" width="1" height="1" fill="#32261f"/>
    <rect x="123" y="33" width="1" height="1" fill="#32261f"/>
    <rect x="0" y="34" width="1" height="1" fill="#32261f"/>
    <rect x="34" y="34" width="1" height="1" fill="#32261f"/>
    <rect x="60" y="34" width="1" height="1" fill="#32261f"/>
    <rect x="95" y="34" width="1" height="1" fill="#32261f"/>
    <rect x="123" y="34" width="1" height="1" fill="#32261f"/>
    <rect x="0" y="35" width="1" height="1" fill="#32261f"/>
    <rect x="33" y="35" width="1" height="1" fill="#32261f"/>
    <rect x="60" y="35" width="1" height="1" fill="#32261f"/>
    <rect x="95" y="35" width="1" height="1" fill="#32261f"/>
    <rect x="123" y="35" width="1" height="1" fill="#32261f"/>
    <rect x="0" y="36" width="1" height="1" fill="#32261f"/>
    <rect x="33" y="36" width="1" height="1" fill="#32261f"/>
    <rect x="60" y="36" width="1" height="1" fill="#32261f"/>
    <rect x="95" y="36" width="1" height="1" fill="#32261f"/>
    <rect x="123" y="36" width="1" height="1" fill="#32261f"/>
    <rect x="0" y="37" width="1" height="1" fill="#32261f"/>
    <rect x="32" y="37" width="1" height="1" fill="#32261f"/>
    <rect x="60" y="37" width="1" height="1" fill="#32261f"/>
    <rect x="94" y="37" width="1" height="1" fill="#32261f"/>
    <rect x="123" y="37" width="1" height="1" fill="#32261f"/>
    <rect x="0" y="38" width="1" height="1" fill="#32261f"/>
    <rect x="32" y="38" width="1" height="1" fill="#32261f"/>
    <rect x="60" y="38" width="1" height="1" fill="#32261f"/>
    <rect x="94" y="38" width="1" height="1" fill="#32261f"/>
    <rect x="123" y="38" width="1" height="1" fill="#32261f"/>
    <rect x="0" y="39" width="1" height="1" fill="#32261f"/>
    <rect x="31" y="39" width="1" height="1" fill="#32261f"/>
    <rect x="54" y="39" width="13" height="1" fill="#32261f"/>
    <rect x="94" y="39" width="1" height="1" fill="#32261f"/>
    <rect x="123" y="39" width="1" height="1" fill="#32261f"/>
    <rect x="0" y="40" width="1" height="1" fill="#32261f"/>
    <rect x="30" y="40" width="1" height="1" fill="#32261f"/>
    <rect x="60" y="40" width="1" height="1" fill="#32261f"/>
    <rect x="93" y="40" width="1" height="1" fill="#32261f"/>
    <rect x="123" y="40" width="1" height="1" fill="#32261f"/>
    <rect x="0" y="41" width="1" height="1" fill="#32261f"/>
    <rect x="30" y="41" width="1" height="1" fill="#32261f"/>
    <rect x="60" y="41" width="1" height="1" fill="#32261f"/>
    <rect x="93" y="41" width="1" height="1" fill="#32261f"/>
    <rect x="123" y="41" width="1" height="1" fill="#32261f"/>
    <rect x="0" y="42" width="1" height="1" fill="#32261f"/>
    <rect x="29" y="42" width="1" height="1" fill="#32261f"/>
    <rect x="60" y="42" width="1" height="1" fill="#32261f"/>
    <rect x="92" y="42" width="1" height="1" fill="#32261f"/>
    <rect x="123" y="42" width="1" height="1" fill="#32261f"/>
    <rect x="0" y="43" width="1" height="1" fill="#32261f"/>
    <rect x="29" y="43" width="1" height="1" fill="#32261f"/>
    <rect x="60" y="43" width="1" height="1" fill="#32261f"/>
    <rect x="91" y="43" width="1" height="1" fill="#32261f"/>
    <rect x="123" y="43" width="1" height="1" fill="#32261f"/>
    <rect x="0" y="44" width="1" height="1" fill="#32261f"/>
    <rect x="28" y="44" width="1" height="1" fill="#32261f"/>
    <rect x="60" y="44" width="1" height="1" fill="#32261f"/>
    <rect x="91" y="44" width="1" height="1" fill="#32261f"/>
    <rect x="123" y="44" width="1" height="1" fill="#32261f"/>
    <rect x="0" y="45" width="1" height="1" fill="#32261f"/>
    <rect x="28" y="45" width="1" height="1" fill="#32261f"/>
    <rect x="90" y="45" width="1" height="1" fill="#32261f"/>
    <rect x="123" y="45" width="1" height="1" fill="#32261f"/>
    <rect x="0" y="46" width="1" height="1" fill="#32261f"/>
    <rect x="28" y="46" width="1" height="1" fill="#32261f"/>
    <rect x="89" y="46" width="1" height="1" fill="#32261f"/>
    <rect x="123" y="46" width="1" height="1" fill="#32261f"/>
    <rect x="0" y="47" width="1" height="1" fill="#32261f"/>
    <rect x="27" y="47" width="1" height="1" fill="#32261f"/>
    <rect x="89" y="47" width="1" height="1" fill="#32261f"/>
    <rect x="123" y="47" width="1" height="1" fill="#32261f"/>
    <rect x="0" y="48" width="1" height="1" fill="#32261f"/>
    <rect x="27" y="48" width="1" height="1" fill="#32261f"/>
    <rect x="88" y="48" width="1" height="1" fill="#32261f"/>
    <rect x="123" y="48" width="1" height="1" fill="#32261f"/>
    <rect x="0" y="49" width="1" height="1" fill="#32261f"/>
    <rect x="27" y="49" width="1" height="1" fill="#32261f"/>
    <rect x="87" y="49" width="1" height="1" fill="#32261f"/>
    <rect x="123" y="49" width="1" height="1" fill="#32261f"/>
    <rect x="0" y="50" width="1" height="1" fill="#32261f"/>
    <rect x="26" y="50" width="1" height="1" fill="#32261f"/>
    <rect x="86" y="50" width="1" height="1" fill="#32261f"/>
    <rect x="123" y="50" width="1" height="1" fill="#32261f"/>
    <rect x="0" y="51" width="1" height="1" fill="#32261f"/>
    <rect x="26" y="51" width="1" height="1" fill="#32261f"/>
    <rect x="85" y="51" width="1" height="1" fill="#32261f"/>
    <rect x="123" y="51" width="1" height="1" fill="#32261f"/>
    <rect x="0" y="52" width="1" height="1" fill="#32261f"/>
    <rect x="26" y="52" width="1" height="1" fill="#32261f"/>
    <rect x="84" y="52" width="1" height="1" fill="#32261f"/>
    <rect x="123" y="52" width="1" height="1" fill="#32261f"/>
    <rect x="0" y="53" width="1" height="1" fill="#32261f"/>
    <rect x="26" y="53" width="1" height="1" fill="#32261f"/>
    <rect x="83" y="53" width="1" height="1" fill="#32261f"/>
    <rect x="123" y="53" width="1" height="1" fill="#32261f"/>
    <rect x="0" y="54" width="1" height="1" fill="#32261f"/>
    <rect x="26" y="54" width="1" height="1" fill="#32261f"/>
    <rect x="82" y="54" width="1" height="1" fill="#32261f"/>
    <rect x="123" y="54" width="1" height="1" fill="#32261f"/>
    <rect x="0" y="55" width="1" height="1" fill="#32261f"/>
    <rect x="26" y="55" width="1" height="1" fill="#32261f"/>
    <rect x="80" y="55" width="2" height="1" fill="#32261f"/>
    <rect x="123" y="55" width="1" height="1" fill="#32261f"/>
    <rect x="0" y="56" width="1" height="1" fill="#32261f"/>
    <rect x="26" y="56" width="1" height="1" fill="#32261f"/>
    <rect x="79" y="56" width="1" height="1" fill="#32261f"/>
    <rect x="123" y="56" width="1" height="1" fill="#32261f"/>
    <rect x="0" y="57" width="1" height="1" fill="#32261f"/>
    <rect x="26" y="57" width="1" height="1" fill="#32261f"/>
    <rect x="78" y="57" width="1" height="1" fill="#32261f"/>
    <rect x="123" y="57" width="1" height="1" fill="#32261f"/>
    <rect x="0" y="58" width="1" height="1" fill="#32261f"/>
    <rect x="27" y="58" width="1" height="1" fill="#32261f"/>
    <rect x="77" y="58" width="1" height="1" fill="#32261f"/>
    <rect x="123" y="58" width="1" height="1" fill="#32261f"/>
    <rect x="0" y="59" width="1" height="1" fill="#32261f"/>
    <rect x="27" y="59" width="1" height="1" fill="#32261f"/>
    <rect x="75" y="59" width="2" height="1" fill="#32261f"/>
    <rect x="123" y="59" width="1" height="1" fill="#32261f"/>
    <rect x="0" y="60" width="1" height="1" fill="#32261f"/>
    <rect x="28" y="60" width="1" height="1" fill="#32261f"/>
    <rect x="73" y="60" width="2" height="1" fill="#32261f"/>
    <rect x="123" y="60" width="1" height="1" fill="#32261f"/>
    <rect x="0" y="61" width="1" height="1" fill="#32261f"/>
    <rect x="28" y="61" width="1" height="1" fill="#32261f"/>
    <rect x="72" y="61" width="1" height="1" fill="#32261f"/>
    <rect x="123" y="61" width="1" height="1" fill="#32261f"/>
    <rect x="0" y="62" width="1" height="1" fill="#32261f"/>
    <rect x="29" y="62" width="1" height="1" fill="#32261f"/>
    <rect x="70" y="62" width="2" height="1" fill="#32261f"/>
    <rect x="123" y="62" width="1" height="1" fill="#32261f"/>
    <rect x="0" y="63" width="1" height="1" fill="#32261f"/>
    <rect x="30" y="63" width="1" height="1" fill="#32261f"/>
    <rect x="68" y="63" width="2" height="1" fill="#32261f"/>
    <rect x="123" y="63" width="1" height="1" fill="#32261f"/>
    <rect x="0" y="64" width="1" height="1" fill="#32261f"/>
    <rect x="31" y="64" width="1" height="1" fill="#32261f"/>
    <rect x="66" y="64" width="2" height="1" fill="#32261f"/>
    <rect x="123" y="64" width="1" height="1" fill="#32261f"/>
    <rect x="0" y="65" width="1" height="1" fill="#32261f"/>
    <rect x="32" y="65" width="2" height="1" fill="#32261f"/>
    <rect x="63" y="65" width="3" height="1" fill="#32261f"/>
    <rect x="123" y="65" width="1" height="1" fill="#32261f"/>
    <rect x="0" y="66" width="1" height="1" fill="#32261f"/>
    <rect x="34" y="66" width="1" height="1" fill="#32261f"/>
    <rect x="60" y="66" width="3" height="1" fill="#32261f"/>
    <rect x="123" y="66" width="1" height="1" fill="#32261f"/>
    <rect x="0" y="67" width="1" height="1" fill="#32261f"/>
    <rect x="35" y="67" width="1" height="1" fill="#32261f"/>
    <rect x="58" y="67" width="2" height="1" fill="#32261f"/>
    <rect x="123" y="67" width="1" height="1" fill="#32261f"/>
    <rect x="0" y="68" width="1" height="1" fill="#32261f"/>
    <rect x="36" y="68" width="5" height="1" fill="#32261f"/>
    <rect x="51" y="68" width="7" height="1" fill="#32261f"/>
    <rect x="123" y="68" width="1" height="1" fill="#32261f"/>
    <rect x="0" y="69" width="1" height="1" fill="#32261f"/>
    <rect x="41" y="69" width="10" height="1" fill="#32261f"/>
    <rect x="123" y="69" width="1" height="1" fill="#32261f"/>
    <rect x="0" y="70" width="1" height="1" fill="#32261f"/>
    <rect x="123" y="70" width="1" height="1" fill="#32261f"/>
    <rect x="0" y="71" width="1" height="1" fill="#32261f"/>
    <rect x="123" y="71" width="1" height="1" fill="#32261f"/>
    <rect x="0" y="72" width="1" height="1" fill="#32261f"/>
    <rect x="123" y="72" width="1" height="1" fill="#32261f"/>
    <rect x="0" y="73" width="1" height="1" fill="#32261f"/>
    <rect x="123" y="73" width="1" height="1" fill="#32261f"/>
    <rect x="0" y="74" width="1" height="1" fill="#32261f"/>
    <rect x="123" y="74" width="1" height="1" fill="#32261f"/>
    <rect x="0" y="75" width="1" height="1" fill="#32261f"/>
    <rect x="123" y="75" width="1" height="1" fill="#32261f"/>
    <rect x="0" y="76" width="1" height="1" fill="#32261f"/>
    <rect x="123" y="76" width="1" height="1" fill="#32261f"/>
    <rect x="0" y="77" width="1" height="1" fill="#32261f"/>
    <rect x="123" y="77" width="1" height="1" fill="#32261f"/>
    <rect x="0" y="78" width="1" height="1" fill="#32261f"/>
    <rect x="123" y="78" width="1" height="1" fill="#32261f"/>
    <rect x="0" y="79" width="1" height="1" fill="#32261f"/>
    <rect x="123" y="79" width="1" height="1" fill="#32261f"/>
    <rect x="0" y="80" width="1" height="1" fill="#32261f"/>
    <rect x="123" y="80" width="1" height="1" fill="#32261f"/>
    <rect x="0" y="81" width="1" height="1" fill="#32261f"/>
    <rect x="123" y="81" width="1" height="1" fill="#32261f"/>
    <rect x="0" y="82" width="124" height="1" fill="#32261f"/>
  </g>
</svg>