<?xml version="1.0" encoding="UTF-8"?>
<svg xmlns="http://www.w3.org/2000/svg" viewBox="0 0 172 53" width="172" height="53">
  <!-- Auto-converted from legend-2708.png -->
  <rect x="0" y="0" width="172" height="53" fill="none"/>
  <g fill="#231f20" stroke="none">
    <rect x="0" y="0" width="172" height="1" fill="#231f20"/>
    <rect x="0" y="1" width="1" height="1" fill="#231f20"/>
    <rect x="171" y="1" width="1" height="1" fill="#231f20"/>
    <rect x="0" y="2" width="1" height="1" fill="#231f20"/>
    <rect x="171" y="2" width="1" height="1" fill="#231f20"/>
    <rect x="0" y="3" width="1" height="1" fill="#231f20"/>
    <rect x="171" y="3" width="1" height="1" fill="#231f20"/>
    <rect x="0" y="4" width="1" height="1" fill="#231f20"/>
    <rect x="171" y="4" width="1" height="1" fill="#231f20"/>
    <rect x="0" y="5" width="1" height="1" fill="#231f20"/>
    <rect x="171" y="5" width="1" height="1" fill="#231f20"/>
    <rect x="0" y="6" width="1" height="1" fill="#231f20"/>
    <rect x="171" y="6" width="1" height="1" fill="#231f20"/>
    <rect x="0" y="7" width="1" height="1" fill="#231f20"/>
    <rect x="171" y="7" width="1" height="1" fill="#231f20"/>
    <rect x="0" y="8" width="1" height="1" fill="#231f20"/>
    <rect x="171" y="8" width="1" height="1" fill="#231f20"/>
    <rect x="0" y="9" width="1" height="1" fill="#231f20"/>
    <rect x="171" y="9" width="1" height="1" fill="#231f20"/>
    <rect x="0" y="10" width="1" height="1" fill="#231f20"/>
    <rect x="171" y="10" width="1" height="1" fill="#231f20"/>
    <rect x="0" y="11" width="1" height="1" fill="#231f20"/>
    <rect x="171" y="11" width="1" height="1" fill="#231f20"/>
    <rect x="0" y="12" width="1" height="1" fill="#231f20"/>
    <rect x="171" y="12" width="1" height="1" fill="#231f20"/>
    <rect x="0" y="13" width="1" height="1" fill="#231f20"/>
    <rect x="171" y="13" width="1" height="1" fill="#231f20"/>
    <rect x="0" y="14" width="1" height="1" fill="#231f20"/>
    <rect x="171" y="14" width="1" height="1" fill="#231f20"/>
    <rect x="0" y="15" width="1" height="1" fill="#231f20"/>
    <rect x="13" y="15" width="2" height="1" fill="#231f20"/>
    <rect x="18" y="15" width="1" height="1" fill="#231f20"/>
    <rect x="171" y="15" width="1" height="1" fill="#231f20"/>
    <rect x="0" y="16" width="1" height="1" fill="#231f20"/>
    <rect x="13" y="16" width="3" height="1" fill="#231f20"/>
    <rect x="18" y="16" width="1" height="1" fill="#231f20"/>
    <rect x="171" y="16" width="1" height="1" fill="#231f20"/>
    <rect x="0" y="17" width="1" height="1" fill="#231f20"/>
    <rect x="14" y="17" width="1" height="1" fill="#231f20"/>
    <rect x="18" y="17" width="2" height="1" fill="#231f20"/>
    <rect x="52" y="17" width="1" height="1" fill="#231f20"/>
    <rect x="96" y="17" width="1" height="1" fill="#231f20"/>
    <rect x="103" y="17" width="2" height="1" fill="#231f20"/>
    <rect x="124" y="17" width="1" height="1" fill="#231f20"/>
    <rect x="128" y="17" width="1" height="1" fill="#231f20"/>
    <rect x="171" y="17" width="1" height="1" fill="#231f20"/>
    <rect x="0" y="18" width="1" height="1" fill="#231f20"/>
    <rect x="14" y="18" width="1" height="1" fill="#231f20"/>
    <rect x="18" y="18" width="2" height="1" fill="#231f20"/>
    <rect x="21" y="18" width="1" height="1" fill="#231f20"/>
    <rect x="52" y="18" width="2" height="1" fill="#231f20"/>
    <rect x="64" y="18" width="1" height="1" fill="#231f20"/>
    <rect x="96" y="18" width="2" height="1" fill="#231f20"/>
    <rect x="103" y="18" width="3" height="1" fill="#231f20"/>
    <rect x="124" y="18" width="2" height="1" fill="#231f20"/>
    <rect x="128" y="18" width="2" height="1" fill="#231f20"/>
    <rect x="171" y="18" width="1" height="1" fill="#231f20"/>
    <rect x="0" y="19" width="1" height="1" fill="#231f20"/>
    <rect x="11" y="19" width="12" height="1" fill="#231f20"/>
    <rect x="53" y="19" width="12" height="1" fill="#231f20"/>
    <rect x="96" y="19" width="2" height="1" fill="#231f20"/>
    <rect x="101" y="19" width="2" height="1" fill="#231f20"/>
    <rect x="104" y="19" width="1" height="1" fill="#231f20"/>
    <rect x="124" y="19" width="2" height="1" fill="#231f20"/>
    <rect x="128" y="19" width="2" height="1" fill="#231f20"/>
    <rect x="146" y="19" width="1" height="1" fill="#231f20"/>
    <rect x="171" y="19" width="1" height="1" fill="#231f20"/>
    <rect x="0" y="20" width="1" height="1" fill="#231f20"/>
    <rect x="11" y="20" width="1" height="1" fill="#231f20"/>
    <rect x="14" y="20" width="2" height="1" fill="#231f20"/>
    <rect x="18" y="20" width="2" height="1" fill="#231f20"/>
    <rect x="53" y="20" width="2" height="1" fill="#231f20"/>
    <rect x="56" y="20" width="10" height="1" fill="#231f20"/>
    <rect x="96" y="20" width="2" height="1" fill="#231f20"/>
    <rect x="101" y="20" width="4" height="1" fill="#231f20"/>
    <rect x="124" y="20" width="2" height="1" fill="#231f20"/>
    <rect x="128" y="20" width="2" height="1" fill="#231f20"/>
    <rect x="132" y="20" width="1" height="1" fill="#231f20"/>
    <rect x="146" y="20" width="2" height="1" fill="#231f20"/>
    <rect x="157" y="20" width="1" height="1" fill="#231f20"/>
    <rect x="171" y="20" width="1" height="1" fill="#231f20"/>
    <rect x="0" y="21" width="1" height="1" fill="#231f20"/>
    <rect x="14" y="21" width="2" height="1" fill="#231f20"/>
    <rect x="18" y="21" width="2" height="1" fill="#231f20"/>
    <rect x="23" y="21" width="1" height="1" fill="#231f20"/>
    <rect x="54" y="21" width="1" height="1" fill="#231f20"/>
    <rect x="56" y="21" width="1" height="1" fill="#231f20"/>
    <rect x="62" y="21" width="2" height="1" fill="#231f20"/>
    <rect x="97" y="21" width="1" height="1" fill="#231f20"/>
    <rect x="99" y="21" width="1" height="1" fill="#231f20"/>
    <rect x="101" y="21" width="2" height="1" fill="#231f20"/>
    <rect x="104" y="21" width="2" height="1" fill="#231f20"/>
    <rect x="120" y="21" width="14" height="1" fill="#231f20"/>
    <rect x="147" y="21" width="2" height="1" fill="#231f20"/>
    <rect x="157" y="21" width="1" height="1" fill="#231f20"/>
    <rect x="171" y="21" width="1" height="1" fill="#231f20"/>
    <rect x="0" y="22" width="1" height="1" fill="#231f20"/>
    <rect x="14" y="22" width="2" height="1" fill="#231f20"/>
    <rect x="18" y="22" width="2" height="1" fill="#231f20"/>
    <rect x="22" y="22" width="2" height="1" fill="#231f20"/>
    <rect x="52" y="22" width="1" height="1" fill="#231f20"/>
    <rect x="56" y="22" width="1" height="1" fill="#231f20"/>
    <rect x="62" y="22" width="2" height="1" fill="#231f20"/>
    <rect x="97" y="22" width="3" height="1" fill="#231f20"/>
    <rect x="101" y="22" width="2" height="1" fill="#231f20"/>
    <rect x="105" y="22" width="1" height="1" fill="#231f20"/>
    <rect x="120" y="22" width="15" height="1" fill="#231f20"/>
    <rect x="147" y="22" width="12" height="1" fill="#231f20"/>
    <rect x="171" y="22" width="1" height="1" fill="#231f20"/>
    <rect x="0" y="23" width="1" height="1" fill="#231f20"/>
    <rect x="10" y="23" width="15" height="1" fill="#231f20"/>
    <rect x="52" y="23" width="2" height="1" fill="#231f20"/>
    <rect x="55" y="23" width="3" height="1" fill="#231f20"/>
    <rect x="61" y="23" width="1" height="1" fill="#231f20"/>
    <rect x="63" y="23" width="2" height="1" fill="#231f20"/>
    <rect x="94" y="23" width="9" height="1" fill="#231f20"/>
    <rect x="105" y="23" width="2" height="1" fill="#231f20"/>
    <rect x="124" y="23" width="2" height="1" fill="#231f20"/>
    <rect x="128" y="23" width="2" height="1" fill="#231f20"/>
    <rect x="148" y="23" width="3" height="1" fill="#231f20"/>
    <rect x="153" y="23" width="2" height="1" fill="#231f20"/>
    <rect x="171" y="23" width="1" height="1" fill="#231f20"/>
    <rect x="0" y="24" width="1" height="1" fill="#231f20"/>
    <rect x="16" y="24" width="2" height="1" fill="#231f20"/>
    <rect x="53" y="24" width="1" height="1" fill="#231f20"/>
    <rect x="55" y="24" width="10" height="1" fill="#231f20"/>
    <rect x="95" y="24" width="1" height="1" fill="#231f20"/>
    <rect x="97" y="24" width="2" height="1" fill="#231f20"/>
    <rect x="101" y="24" width="2" height="1" fill="#231f20"/>
    <rect x="105" y="24" width="2" height="1" fill="#231f20"/>
    <rect x="125" y="24" width="2" height="1" fill="#231f20"/>
    <rect x="129" y="24" width="2" height="1" fill="#231f20"/>
    <rect x="145" y="24" width="1" height="1" fill="#231f20"/>
    <rect x="149" y="24" width="2" height="1" fill="#231f20"/>
    <rect x="153" y="24" width="2" height="1" fill="#231f20"/>
    <rect x="171" y="24" width="1" height="1" fill="#231f20"/>
    <rect x="0" y="25" width="1" height="1" fill="#231f20"/>
    <rect x="13" y="25" width="1" height="1" fill="#231f20"/>
    <rect x="17" y="25" width="1" height="1" fill="#231f20"/>
    <rect x="21" y="25" width="1" height="1" fill="#231f20"/>
    <rect x="53" y="25" width="6" height="1" fill="#231f20"/>
    <rect x="60" y="25" width="2" height="1" fill="#231f20"/>
    <rect x="63" y="25" width="2" height="1" fill="#231f20"/>
    <rect x="97" y="25" width="2" height="1" fill="#231f20"/>
    <rect x="101" y="25" width="2" height="1" fill="#231f20"/>
    <rect x="106" y="25" width="2" height="1" fill="#231f20"/>
    <rect x="125" y="25" width="1" height="1" fill="#231f20"/>
    <rect x="129" y="25" width="1" height="1" fill="#231f20"/>
    <rect x="145" y="25" width="2" height="1" fill="#231f20"/>
    <rect x="149" y="25" width="2" height="1" fill="#231f20"/>
    <rect x="154" y="25" width="2" height="1" fill="#231f20"/>
    <rect x="171" y="25" width="1" height="1" fill="#231f20"/>
    <rect x="0" y="26" width="1" height="1" fill="#231f20"/>
    <rect x="13" y="26" width="10" height="1" fill="#231f20"/>
    <rect x="54" y="26" width="5" height="1" fill="#231f20"/>
    <rect x="60" y="26" width="2" height="1" fill="#231f20"/>
    <rect x="63" y="26" width="2" height="1" fill="#231f20"/>
    <rect x="97" y="26" width="2" height="1" fill="#231f20"/>
    <rect x="101" y="26" width="2" height="1" fill="#231f20"/>
    <rect x="106" y="26" width="2" height="1" fill="#231f20"/>
    <rect x="124" y="26" width="3" height="1" fill="#231f20"/>
    <rect x="128" y="26" width="2" height="1" fill="#231f20"/>
    <rect x="133" y="26" width="1" height="1" fill="#231f20"/>
    <rect x="146" y="26" width="2" height="1" fill="#231f20"/>
    <rect x="149" y="26" width="2" height="1" fill="#231f20"/>
    <rect x="154" y="26" width="2" height="1" fill="#231f20"/>
    <rect x="171" y="26" width="1" height="1" fill="#231f20"/>
    <rect x="0" y="27" width="1" height="1" fill="#231f20"/>
    <rect x="13" y="27" width="2" height="1" fill="#231f20"/>
    <rect x="17" y="27" width="1" height="1" fill="#231f20"/>
    <rect x="21" y="27" width="2" height="1" fill="#231f20"/>
    <rect x="55" y="27" width="2" height="1" fill="#231f20"/>
    <rect x="58" y="27" width="1" height="1" fill="#231f20"/>
    <rect x="60" y="27" width="5" height="1" fill="#231f20"/>
    <rect x="97" y="27" width="3" height="1" fill="#231f20"/>
    <rect x="101" y="27" width="2" height="1" fill="#231f20"/>
    <rect x="104" y="27" width="1" height="1" fill="#231f20"/>
    <rect x="107" y="27" width="2" height="1" fill="#231f20"/>
    <rect x="124" y="27" width="2" height="1" fill="#231f20"/>
    <rect x="128" y="27" width="3" height="1" fill="#231f20"/>
    <rect x="132" y="27" width="2" height="1" fill="#231f20"/>
    <rect x="147" y="27" width="4" height="1" fill="#231f20"/>
    <rect x="154" y="27" width="2" height="1" fill="#231f20"/>
    <rect x="171" y="27" width="1" height="1" fill="#231f20"/>
    <rect x="0" y="28" width="1" height="1" fill="#231f20"/>
    <rect x="13" y="28" width="2" height="1" fill="#231f20"/>
    <rect x="17" y="28" width="2" height="1" fill="#231f20"/>
    <rect x="21" y="28" width="2" height="1" fill="#231f20"/>
    <rect x="55" y="28" width="2" height="1" fill="#231f20"/>
    <rect x="58" y="28" width="2" height="1" fill="#231f20"/>
    <rect x="61" y="28" width="4" height="1" fill="#231f20"/>
    <rect x="97" y="28" width="5" height="1" fill="#231f20"/>
    <rect x="104" y="28" width="2" height="1" fill="#231f20"/>
    <rect x="107" y="28" width="3" height="1" fill="#231f20"/>
    <rect x="124" y="28" width="2" height="1" fill="#231f20"/>
    <rect x="129" y="28" width="2" height="1" fill="#231f20"/>
    <rect x="132" y="28" width="3" height="1" fill="#231f20"/>
    <rect x="147" y="28" width="4" height="1" fill="#231f20"/>
    <rect x="154" y="28" width="2" height="1" fill="#231f20"/>
    <rect x="171" y="28" width="1" height="1" fill="#231f20"/>
    <rect x="0" y="29" width="1" height="1" fill="#231f20"/>
    <rect x="13" y="29" width="10" height="1" fill="#231f20"/>
    <rect x="55" y="29" width="2" height="1" fill="#231f20"/>
    <rect x="58" y="29" width="2" height="1" fill="#231f20"/>
    <rect x="61" y="29" width="2" height="1" fill="#231f20"/>
    <rect x="64" y="29" width="2" height="1" fill="#231f20"/>
    <rect x="97" y="29" width="5" height="1" fill="#231f20"/>
    <rect x="104" y="29" width="2" height="1" fill="#231f20"/>
    <rect x="108" y="29" width="1" height="1" fill="#231f20"/>
    <rect x="124" y="29" width="3" height="1" fill="#231f20"/>
    <rect x="129" y="29" width="5" height="1" fill="#231f20"/>
    <rect x="148" y="29" width="3" height="1" fill="#231f20"/>
    <rect x="154" y="29" width="2" height="1" fill="#231f20"/>
    <rect x="171" y="29" width="1" height="1" fill="#231f20"/>
    <rect x="0" y="30" width="1" height="1" fill="#231f20"/>
    <rect x="13" y="30" width="10" height="1" fill="#231f20"/>
    <rect x="55" y="30" width="2" height="1" fill="#231f20"/>
    <rect x="58" y="30" width="2" height="1" fill="#231f20"/>
    <rect x="61" y="30" width="2" height="1" fill="#231f20"/>
    <rect x="64" y="30" width="2" height="1" fill="#231f20"/>
    <rect x="97" y="30" width="5" height="1" fill="#231f20"/>
    <rect x="104" y="30" width="2" height="1" fill="#231f20"/>
    <rect x="123" y="30" width="3" height="1" fill="#231f20"/>
    <rect x="129" y="30" width="5" height="1" fill="#231f20"/>
    <rect x="149" y="30" width="2" height="1" fill="#231f20"/>
    <rect x="154" y="30" width="2" height="1" fill="#231f20"/>
    <rect x="171" y="30" width="1" height="1" fill="#231f20"/>
    <rect x="0" y="31" width="1" height="1" fill="#231f20"/>
    <rect x="13" y="31" width="2" height="1" fill="#231f20"/>
    <rect x="17" y="31" width="2" height="1" fill="#231f20"/>
    <rect x="21" y="31" width="2" height="1" fill="#231f20"/>
    <rect x="55" y="31" width="2" height="1" fill="#231f20"/>
    <rect x="58" y="31" width="5" height="1" fill="#231f20"/>
    <rect x="64" y="31" width="2" height="1" fill="#231f20"/>
    <rect x="97" y="31" width="3" height="1" fill="#231f20"/>
    <rect x="104" y="31" width="2" height="1" fill="#231f20"/>
    <rect x="123" y="31" width="3" height="1" fill="#231f20"/>
    <rect x="129" y="31" width="4" height="1" fill="#231f20"/>
    <rect x="149" y="31" width="2" height="1" fill="#231f20"/>
    <rect x="155" y="31" width="2" height="1" fill="#231f20"/>
    <rect x="171" y="31" width="1" height="1" fill="#231f20"/>
    <rect x="0" y="32" width="1" height="1" fill="#231f20"/>
    <rect x="13" y="32" width="2" height="1" fill="#231f20"/>
    <rect x="17" y="32" width="2" height="1" fill="#231f20"/>
    <rect x="21" y="32" width="2" height="1" fill="#231f20"/>
    <rect x="53" y="32" width="4" height="1" fill="#231f20"/>
    <rect x="58" y="32" width="2" height="1" fill="#231f20"/>
    <rect x="62" y="32" width="4" height="1" fill="#231f20"/>
    <rect x="97" y="32" width="3" height="1" fill="#231f20"/>
    <rect x="104" y="32" width="3" height="1" fill="#231f20"/>
    <rect x="123" y="32" width="4" height="1" fill="#231f20"/>
    <rect x="130" y="32" width="1" height="1" fill="#231f20"/>
    <rect x="149" y="32" width="2" height="1" fill="#231f20"/>
    <rect x="155" y="32" width="2" height="1" fill="#231f20"/>
    <rect x="171" y="32" width="1" height="1" fill="#231f20"/>
    <rect x="0" y="33" width="1" height="1" fill="#231f20"/>
    <rect x="13" y="33" width="10" height="1" fill="#231f20"/>
    <rect x="55" y="33" width="2" height="1" fill="#231f20"/>
    <rect x="59" y="33" width="1" height="1" fill="#231f20"/>
    <rect x="62" y="33" width="1" height="1" fill="#231f20"/>
    <rect x="64" y="33" width="2" height="1" fill="#231f20"/>
    <rect x="97" y="33" width="1" height="1" fill="#231f20"/>
    <rect x="99" y="33" width="2" height="1" fill="#231f20"/>
    <rect x="104" y="33" width="1" height="1" fill="#231f20"/>
    <rect x="106" y="33" width="1" height="1" fill="#231f20"/>
    <rect x="123" y="33" width="1" height="1" fill="#231f20"/>
    <rect x="125" y="33" width="2" height="1" fill="#231f20"/>
    <rect x="128" y="33" width="3" height="1" fill="#231f20"/>
    <rect x="147" y="33" width="4" height="1" fill="#231f20"/>
    <rect x="155" y="33" width="2" height="1" fill="#231f20"/>
    <rect x="171" y="33" width="1" height="1" fill="#231f20"/>
    <rect x="0" y="34" width="1" height="1" fill="#231f20"/>
    <rect x="14" y="34" width="3" height="1" fill="#231f20"/>
    <rect x="19" y="34" width="2" height="1" fill="#231f20"/>
    <rect x="22" y="34" width="1" height="1" fill="#231f20"/>
    <rect x="55" y="34" width="2" height="1" fill="#231f20"/>
    <rect x="59" y="34" width="1" height="1" fill="#231f20"/>
    <rect x="65" y="34" width="1" height="1" fill="#231f20"/>
    <rect x="96" y="34" width="2" height="1" fill="#231f20"/>
    <rect x="99" y="34" width="2" height="1" fill="#231f20"/>
    <rect x="104" y="34" width="1" height="1" fill="#231f20"/>
    <rect x="106" y="34" width="2" height="1" fill="#231f20"/>
    <rect x="122" y="34" width="1" height="1" fill="#231f20"/>
    <rect x="125" y="34" width="4" height="1" fill="#231f20"/>
    <rect x="130" y="34" width="1" height="1" fill="#231f20"/>
    <rect x="135" y="34" width="1" height="1" fill="#231f20"/>
    <rect x="147" y="34" width="4" height="1" fill="#231f20"/>
    <rect x="155" y="34" width="2" height="1" fill="#231f20"/>
    <rect x="171" y="34" width="1" height="1" fill="#231f20"/>
    <rect x="0" y="35" width="1" height="1" fill="#231f20"/>
    <rect x="15" y="35" width="3" height="1" fill="#231f20"/>
    <rect x="20" y="35" width="3" height="1" fill="#231f20"/>
    <rect x="55" y="35" width="2" height="1" fill="#231f20"/>
    <rect x="65" y="35" width="2" height="1" fill="#231f20"/>
    <rect x="97" y="35" width="1" height="1" fill="#231f20"/>
    <rect x="99" y="35" width="2" height="1" fill="#231f20"/>
    <rect x="103" y="35" width="2" height="1" fill="#231f20"/>
    <rect x="107" y="35" width="2" height="1" fill="#231f20"/>
    <rect x="122" y="35" width="1" height="1" fill="#231f20"/>
    <rect x="125" y="35" width="3" height="1" fill="#231f20"/>
    <rect x="130" y="35" width="2" height="1" fill="#231f20"/>
    <rect x="135" y="35" width="1" height="1" fill="#231f20"/>
    <rect x="148" y="35" width="3" height="1" fill="#231f20"/>
    <rect x="155" y="35" width="2" height="1" fill="#231f20"/>
    <rect x="171" y="35" width="1" height="1" fill="#231f20"/>
    <rect x="0" y="36" width="1" height="1" fill="#231f20"/>
    <rect x="14" y="36" width="3" height="1" fill="#231f20"/>
    <rect x="21" y="36" width="3" height="1" fill="#231f20"/>
    <rect x="55" y="36" width="2" height="1" fill="#231f20"/>
    <rect x="65" y="36" width="2" height="1" fill="#231f20"/>
    <rect x="99" y="36" width="2" height="1" fill="#231f20"/>
    <rect x="103" y="36" width="2" height="1" fill="#231f20"/>
    <rect x="107" y="36" width="3" height="1" fill="#231f20"/>
    <rect x="126" y="36" width="1" height="1" fill="#231f20"/>
    <rect x="131" y="36" width="1" height="1" fill="#231f20"/>
    <rect x="135" y="36" width="2" height="1" fill="#231f20"/>
    <rect x="148" y="36" width="3" height="1" fill="#231f20"/>
    <rect x="156" y="36" width="2" height="1" fill="#231f20"/>
    <rect x="171" y="36" width="1" height="1" fill="#231f20"/>
    <rect x="0" y="37" width="1" height="1" fill="#231f20"/>
    <rect x="13" y="37" width="2" height="1" fill="#231f20"/>
    <rect x="22" y="37" width="2" height="1" fill="#231f20"/>
    <rect x="55" y="37" width="2" height="1" fill="#231f20"/>
    <rect x="63" y="37" width="4" height="1" fill="#231f20"/>
    <rect x="99" y="37" width="2" height="1" fill="#231f20"/>
    <rect x="102" y="37" width="8" height="1" fill="#231f20"/>
    <rect x="126" y="37" width="1" height="1" fill="#231f20"/>
    <rect x="131" y="37" width="1" height="1" fill="#231f20"/>
    <rect x="135" y="37" width="2" height="1" fill="#231f20"/>
    <rect x="149" y="37" width="2" height="1" fill="#231f20"/>
    <rect x="156" y="37" width="2" height="1" fill="#231f20"/>
    <rect x="161" y="37" width="1" height="1" fill="#231f20"/>
    <rect x="171" y="37" width="1" height="1" fill="#231f20"/>
    <rect x="0" y="38" width="1" height="1" fill="#231f20"/>
    <rect x="13" y="38" width="1" height="1" fill="#231f20"/>
    <rect x="23" y="38" width="2" height="1" fill="#231f20"/>
    <rect x="56" y="38" width="2" height="1" fill="#231f20"/>
    <rect x="65" y="38" width="2" height="1" fill="#231f20"/>
    <rect x="99" y="38" width="2" height="1" fill="#231f20"/>
    <rect x="102" y="38" width="8" height="1" fill="#231f20"/>
    <rect x="126" y="38" width="2" height="1" fill="#231f20"/>
    <rect x="131" y="38" width="7" height="1" fill="#231f20"/>
    <rect x="149" y="38" width="13" height="1" fill="#231f20"/>
    <rect x="171" y="38" width="1" height="1" fill="#231f20"/>
    <rect x="0" y="39" width="1" height="1" fill="#231f20"/>
    <rect x="12" y="39" width="1" height="1" fill="#231f20"/>
    <rect x="24" y="39" width="1" height="1" fill="#231f20"/>
    <rect x="66" y="39" width="1" height="1" fill="#231f20"/>
    <rect x="99" y="39" width="2" height="1" fill="#231f20"/>
    <rect x="103" y="39" width="2" height="1" fill="#231f20"/>
    <rect x="109" y="39" width="2" height="1" fill="#231f20"/>
    <rect x="126" y="39" width="2" height="1" fill="#231f20"/>
    <rect x="132" y="39" width="5" height="1" fill="#231f20"/>
    <rect x="149" y="39" width="14" height="1" fill="#231f20"/>
    <rect x="171" y="39" width="1" height="1" fill="#231f20"/>
    <rect x="0" y="40" width="1" height="1" fill="#231f20"/>
    <rect x="100" y="40" width="2" height="1" fill="#231f20"/>
    <rect x="126" y="40" width="2" height="1" fill="#231f20"/>
    <rect x="132" y="40" width="4" height="1" fill="#231f20"/>
    <rect x="149" y="40" width="2" height="1" fill="#231f20"/>
    <rect x="171" y="40" width="1" height="1" fill="#231f20"/>
    <rect x="0" y="41" width="1" height="1" fill="#231f20"/>
    <rect x="171" y="41" width="1" height="1" fill="#231f20"/>
    <rect x="0" y="42" width="1" height="1" fill="#231f20"/>
    <rect x="171" y="42" width="1" height="1" fill="#231f20"/>
    <rect x="0" y="43" width="1" height="1" fill="#231f20"/>
    <rect x="171" y="43" width="1" height="1" fill="#231f20"/>
    <rect x="0" y="44" width="1" height="1" fill="#231f20"/>
    <rect x="171" y="44" width="1" height="1" fill="#231f20"/>
    <rect x="0" y="45" width="1" height="1" fill="#231f20"/>
    <rect x="171" y="45" width="1" height="1" fill="#231f20"/>
    <rect x="0" y="46" width="1" height="1" fill="#231f20"/>
    <rect x="171" y="46" width="1" height="1" fill="#231f20"/>
    <rect x="0" y="47" width="1" height="1" fill="#231f20"/>
    <rect x="171" y="47" width="1" height="1" fill="#231f20"/>
    <rect x="0" y="48" width="1" height="1" fill="#231f20"/>
    <rect x="171" y="48" width="1" height="1" fill="#231f20"/>
    <rect x="0" y="49" width="1" height="1" fill="#231f20"/>
    <rect x="171" y="49" width="1" height="1" fill="#231f20"/>
    <rect x="0" y="50" width="1" height="1" fill="#231f20"/>
    <rect x="171" y="50" width="1" height="1" fill="#231f20"/>
    <rect x="0" y="51" width="1" height="1" fill="#231f20"/>
    <rect x="171" y="51" width="1" height="1" fill="#231f20"/>
    <rect x="0" y="52" width="172" height="1" fill="#231f20"/>
  </g>
</svg>