<?xml version="1.0" encoding="UTF-8"?>
<svg xmlns="http://www.w3.org/2000/svg" viewBox="0 0 166 112" width="166" height="112">
  <!-- Auto-converted from legend-610.png -->
  <rect x="0" y="0" width="166" height="112" fill="none"/>
  <g fill="#478d33" stroke="none">
    <rect x="2" y="1" width="161" height="1" fill="#478d33"/>
    <rect x="2" y="2" width="1" height="1" fill="#478d33"/>
    <rect x="43" y="2" width="1" height="1" fill="#478d33"/>
    <rect x="125" y="2" width="1" height="1" fill="#478d33"/>
    <rect x="162" y="2" width="1" height="1" fill="#478d33"/>
    <rect x="2" y="3" width="1" height="1" fill="#478d33"/>
    <rect x="43" y="3" width="1" height="1" fill="#478d33"/>
    <rect x="125" y="3" width="1" height="1" fill="#478d33"/>
    <rect x="162" y="3" width="1" height="1" fill="#478d33"/>
    <rect x="2" y="4" width="1" height="1" fill="#478d33"/>
    <rect x="43" y="4" width="1" height="1" fill="#478d33"/>
    <rect x="125" y="4" width="1" height="1" fill="#478d33"/>
    <rect x="162" y="4" width="1" height="1" fill="#478d33"/>
    <rect x="2" y="5" width="1" height="1" fill="#478d33"/>
    <rect x="43" y="5" width="1" height="1" fill="#478d33"/>
    <rect x="125" y="5" width="1" height="1" fill="#478d33"/>
    <rect x="162" y="5" width="1" height="1" fill="#478d33"/>
    <rect x="2" y="6" width="1" height="1" fill="#478d33"/>
    <rect x="43" y="6" width="1" height="1" fill="#478d33"/>
    <rect x="125" y="6" width="1" height="1" fill="#478d33"/>
    <rect x="162" y="6" width="1" height="1" fill="#478d33"/>
    <rect x="2" y="7" width="1" height="1" fill="#478d33"/>
    <rect x="43" y="7" width="1" height="1" fill="#478d33"/>
    <rect x="125" y="7" width="1" height="1" fill="#478d33"/>
    <rect x="162" y="7" width="1" height="1" fill="#478d33"/>
    <rect x="2" y="8" width="1" height="1" fill="#478d33"/>
    <rect x="43" y="8" width="1" height="1" fill="#478d33"/>
    <rect x="125" y="8" width="1" height="1" fill="#478d33"/>
    <rect x="162" y="8" width="1" height="1" fill="#478d33"/>
    <rect x="2" y="9" width="1" height="1" fill="#478d33"/>
    <rect x="43" y="9" width="1" height="1" fill="#478d33"/>
    <rect x="125" y="9" width="1" height="1" fill="#478d33"/>
    <rect x="162" y="9" width="1" height="1" fill="#478d33"/>
    <rect x="2" y="10" width="1" height="1" fill="#478d33"/>
    <rect x="43" y="10" width="1" height="1" fill="#478d33"/>
    <rect x="125" y="10" width="1" height="1" fill="#478d33"/>
    <rect x="162" y="10" width="1" height="1" fill="#478d33"/>
    <rect x="2" y="11" width="1" height="1" fill="#478d33"/>
    <rect x="43" y="11" width="1" height="1" fill="#478d33"/>
    <rect x="125" y="11" width="1" height="1" fill="#478d33"/>
    <rect x="162" y="11" width="1" height="1" fill="#478d33"/>
    <rect x="2" y="12" width="1" height="1" fill="#478d33"/>
    <rect x="162" y="12" width="1" height="1" fill="#478d33"/>
    <rect x="2" y="13" width="1" height="1" fill="#478d33"/>
    <rect x="162" y="13" width="1" height="1" fill="#478d33"/>
    <rect x="2" y="14" width="1" height="1" fill="#478d33"/>
    <rect x="162" y="14" width="1" height="1" fill="#478d33"/>
    <rect x="2" y="15" width="1" height="1" fill="#478d33"/>
    <rect x="162" y="15" width="1" height="1" fill="#478d33"/>
    <rect x="2" y="16" width="1" height="1" fill="#478d33"/>
    <rect x="162" y="16" width="1" height="1" fill="#478d33"/>
    <rect x="2" y="17" width="1" height="1" fill="#478d33"/>
    <rect x="162" y="17" width="1" height="1" fill="#478d33"/>
    <rect x="2" y="18" width="1" height="1" fill="#478d33"/>
    <rect x="162" y="18" width="1" height="1" fill="#478d33"/>
    <rect x="2" y="19" width="1" height="1" fill="#478d33"/>
    <rect x="162" y="19" width="1" height="1" fill="#478d33"/>
    <rect x="2" y="20" width="1" height="1" fill="#478d33"/>
    <rect x="162" y="20" width="1" height="1" fill="#478d33"/>
    <rect x="2" y="21" width="1" height="1" fill="#478d33"/>
    <rect x="162" y="21" width="1" height="1" fill="#478d33"/>
    <rect x="2" y="22" width="1" height="1" fill="#478d33"/>
    <rect x="44" y="22" width="1" height="1" fill="#478d33"/>
    <rect x="125" y="22" width="1" height="1" fill="#478d33"/>
    <rect x="162" y="22" width="1" height="1" fill="#478d33"/>
    <rect x="2" y="23" width="1" height="1" fill="#478d33"/>
    <rect x="44" y="23" width="1" height="1" fill="#478d33"/>
    <rect x="125" y="23" width="1" height="1" fill="#478d33"/>
    <rect x="162" y="23" width="1" height="1" fill="#478d33"/>
    <rect x="2" y="24" width="1" height="1" fill="#478d33"/>
    <rect x="44" y="24" width="1" height="1" fill="#478d33"/>
    <rect x="125" y="24" width="1" height="1" fill="#478d33"/>
    <rect x="162" y="24" width="1" height="1" fill="#478d33"/>
    <rect x="2" y="25" width="1" height="1" fill="#478d33"/>
    <rect x="44" y="25" width="1" height="1" fill="#478d33"/>
    <rect x="125" y="25" width="1" height="1" fill="#478d33"/>
    <rect x="162" y="25" width="1" height="1" fill="#478d33"/>
    <rect x="2" y="26" width="1" height="1" fill="#478d33"/>
    <rect x="44" y="26" width="1" height="1" fill="#478d33"/>
    <rect x="125" y="26" width="1" height="1" fill="#478d33"/>
    <rect x="162" y="26" width="1" height="1" fill="#478d33"/>
    <rect x="2" y="27" width="1" height="1" fill="#478d33"/>
    <rect x="44" y="27" width="1" height="1" fill="#478d33"/>
    <rect x="125" y="27" width="1" height="1" fill="#478d33"/>
    <rect x="162" y="27" width="1" height="1" fill="#478d33"/>
    <rect x="2" y="28" width="1" height="1" fill="#478d33"/>
    <rect x="44" y="28" width="1" height="1" fill="#478d33"/>
    <rect x="125" y="28" width="1" height="1" fill="#478d33"/>
    <rect x="162" y="28" width="1" height="1" fill="#478d33"/>
    <rect x="2" y="29" width="1" height="1" fill="#478d33"/>
    <rect x="44" y="29" width="1" height="1" fill="#478d33"/>
    <rect x="125" y="29" width="1" height="1" fill="#478d33"/>
    <rect x="162" y="29" width="1" height="1" fill="#478d33"/>
    <rect x="2" y="30" width="1" height="1" fill="#478d33"/>
    <rect x="44" y="30" width="1" height="1" fill="#478d33"/>
    <rect x="125" y="30" width="1" height="1" fill="#478d33"/>
    <rect x="162" y="30" width="1" height="1" fill="#478d33"/>
    <rect x="2" y="31" width="1" height="1" fill="#478d33"/>
    <rect x="44" y="31" width="1" height="1" fill="#478d33"/>
    <rect x="125" y="31" width="1" height="1" fill="#478d33"/>
    <rect x="162" y="31" width="1" height="1" fill="#478d33"/>
    <rect x="2" y="32" width="1" height="1" fill="#478d33"/>
    <rect x="44" y="32" width="1" height="1" fill="#478d33"/>
    <rect x="125" y="32" width="1" height="1" fill="#478d33"/>
    <rect x="162" y="32" width="1" height="1" fill="#478d33"/>
    <rect x="2" y="33" width="1" height="1" fill="#478d33"/>
    <rect x="44" y="33" width="1" height="1" fill="#478d33"/>
    <rect x="125" y="33" width="1" height="1" fill="#478d33"/>
    <rect x="162" y="33" width="1" height="1" fill="#478d33"/>
    <rect x="2" y="34" width="1" height="1" fill="#478d33"/>
    <rect x="44" y="34" width="1" height="1" fill="#478d33"/>
    <rect x="125" y="34" width="1" height="1" fill="#478d33"/>
    <rect x="162" y="34" width="1" height="1" fill="#478d33"/>
    <rect x="2" y="35" width="1" height="1" fill="#478d33"/>
    <rect x="44" y="35" width="1" height="1" fill="#478d33"/>
    <rect x="125" y="35" width="1" height="1" fill="#478d33"/>
    <rect x="162" y="35" width="1" height="1" fill="#478d33"/>
    <rect x="2" y="36" width="1" height="1" fill="#478d33"/>
    <rect x="44" y="36" width="1" height="1" fill="#478d33"/>
    <rect x="125" y="36" width="1" height="1" fill="#478d33"/>
    <rect x="162" y="36" width="1" height="1" fill="#478d33"/>
    <rect x="2" y="37" width="161" height="1" fill="#478d33"/>
    <rect x="2" y="38" width="1" height="1" fill="#478d33"/>
    <rect x="44" y="38" width="1" height="1" fill="#478d33"/>
    <rect x="55" y="38" width="1" height="1" fill="#478d33"/>
    <rect x="65" y="38" width="1" height="1" fill="#478d33"/>
    <rect x="79" y="38" width="1" height="1" fill="#478d33"/>
    <rect x="93" y="38" width="1" height="1" fill="#478d33"/>
    <rect x="110" y="38" width="1" height="1" fill="#478d33"/>
    <rect x="123" y="38" width="3" height="1" fill="#478d33"/>
    <rect x="162" y="38" width="1" height="1" fill="#478d33"/>
    <rect x="2" y="39" width="1" height="1" fill="#478d33"/>
    <rect x="44" y="39" width="1" height="1" fill="#478d33"/>
    <rect x="54" y="39" width="1" height="1" fill="#478d33"/>
    <rect x="64" y="39" width="1" height="1" fill="#478d33"/>
    <rect x="78" y="39" width="1" height="1" fill="#478d33"/>
    <rect x="92" y="39" width="1" height="1" fill="#478d33"/>
    <rect x="109" y="39" width="1" height="1" fill="#478d33"/>
    <rect x="122" y="39" width="1" height="1" fill="#478d33"/>
    <rect x="124" y="39" width="2" height="1" fill="#478d33"/>
    <rect x="162" y="39" width="1" height="1" fill="#478d33"/>
    <rect x="2" y="40" width="1" height="1" fill="#478d33"/>
    <rect x="44" y="40" width="1" height="1" fill="#478d33"/>
    <rect x="54" y="40" width="1" height="1" fill="#478d33"/>
    <rect x="64" y="40" width="1" height="1" fill="#478d33"/>
    <rect x="77" y="40" width="1" height="1" fill="#478d33"/>
    <rect x="91" y="40" width="1" height="1" fill="#478d33"/>
    <rect x="108" y="40" width="1" height="1" fill="#478d33"/>
    <rect x="122" y="40" width="1" height="1" fill="#478d33"/>
    <rect x="124" y="40" width="2" height="1" fill="#478d33"/>
    <rect x="162" y="40" width="1" height="1" fill="#478d33"/>
    <rect x="2" y="41" width="1" height="1" fill="#478d33"/>
    <rect x="44" y="41" width="1" height="1" fill="#478d33"/>
    <rect x="53" y="41" width="1" height="1" fill="#478d33"/>
    <rect x="63" y="41" width="1" height="1" fill="#478d33"/>
    <rect x="77" y="41" width="1" height="1" fill="#478d33"/>
    <rect x="91" y="41" width="1" height="1" fill="#478d33"/>
    <rect x="108" y="41" width="1" height="1" fill="#478d33"/>
    <rect x="121" y="41" width="1" height="1" fill="#478d33"/>
    <rect x="124" y="41" width="2" height="1" fill="#478d33"/>
    <rect x="162" y="41" width="1" height="1" fill="#478d33"/>
    <rect x="2" y="42" width="1" height="1" fill="#478d33"/>
    <rect x="44" y="42" width="1" height="1" fill="#478d33"/>
    <rect x="52" y="42" width="1" height="1" fill="#478d33"/>
    <rect x="62" y="42" width="1" height="1" fill="#478d33"/>
    <rect x="76" y="42" width="1" height="1" fill="#478d33"/>
    <rect x="90" y="42" width="1" height="1" fill="#478d33"/>
    <rect x="107" y="42" width="1" height="1" fill="#478d33"/>
    <rect x="120" y="42" width="1" height="1" fill="#478d33"/>
    <rect x="124" y="42" width="2" height="1" fill="#478d33"/>
    <rect x="162" y="42" width="1" height="1" fill="#478d33"/>
    <rect x="2" y="43" width="1" height="1" fill="#478d33"/>
    <rect x="44" y="43" width="1" height="1" fill="#478d33"/>
    <rect x="51" y="43" width="1" height="1" fill="#478d33"/>
    <rect x="61" y="43" width="1" height="1" fill="#478d33"/>
    <rect x="75" y="43" width="1" height="1" fill="#478d33"/>
    <rect x="89" y="43" width="1" height="1" fill="#478d33"/>
    <rect x="106" y="43" width="1" height="1" fill="#478d33"/>
    <rect x="119" y="43" width="1" height="1" fill="#478d33"/>
    <rect x="124" y="43" width="2" height="1" fill="#478d33"/>
    <rect x="162" y="43" width="1" height="1" fill="#478d33"/>
    <rect x="2" y="44" width="1" height="1" fill="#478d33"/>
    <rect x="44" y="44" width="1" height="1" fill="#478d33"/>
    <rect x="50" y="44" width="1" height="1" fill="#478d33"/>
    <rect x="60" y="44" width="1" height="1" fill="#478d33"/>
    <rect x="74" y="44" width="1" height="1" fill="#478d33"/>
    <rect x="88" y="44" width="1" height="1" fill="#478d33"/>
    <rect x="105" y="44" width="1" height="1" fill="#478d33"/>
    <rect x="119" y="44" width="1" height="1" fill="#478d33"/>
    <rect x="124" y="44" width="2" height="1" fill="#478d33"/>
    <rect x="162" y="44" width="1" height="1" fill="#478d33"/>
    <rect x="2" y="45" width="1" height="1" fill="#478d33"/>
    <rect x="44" y="45" width="1" height="1" fill="#478d33"/>
    <rect x="50" y="45" width="1" height="1" fill="#478d33"/>
    <rect x="59" y="45" width="1" height="1" fill="#478d33"/>
    <rect x="73" y="45" width="1" height="1" fill="#478d33"/>
    <rect x="87" y="45" width="1" height="1" fill="#478d33"/>
    <rect x="104" y="45" width="1" height="1" fill="#478d33"/>
    <rect x="118" y="45" width="1" height="1" fill="#478d33"/>
    <rect x="124" y="45" width="2" height="1" fill="#478d33"/>
    <rect x="162" y="45" width="1" height="1" fill="#478d33"/>
    <rect x="2" y="46" width="1" height="1" fill="#478d33"/>
    <rect x="44" y="46" width="1" height="1" fill="#478d33"/>
    <rect x="49" y="46" width="1" height="1" fill="#478d33"/>
    <rect x="59" y="46" width="1" height="1" fill="#478d33"/>
    <rect x="72" y="46" width="1" height="1" fill="#478d33"/>
    <rect x="86" y="46" width="1" height="1" fill="#478d33"/>
    <rect x="103" y="46" width="1" height="1" fill="#478d33"/>
    <rect x="117" y="46" width="1" height="1" fill="#478d33"/>
    <rect x="124" y="46" width="2" height="1" fill="#478d33"/>
    <rect x="162" y="46" width="1" height="1" fill="#478d33"/>
    <rect x="2" y="47" width="1" height="1" fill="#478d33"/>
    <rect x="44" y="47" width="1" height="1" fill="#478d33"/>
    <rect x="48" y="47" width="1" height="1" fill="#478d33"/>
    <rect x="58" y="47" width="1" height="1" fill="#478d33"/>
    <rect x="72" y="47" width="1" height="1" fill="#478d33"/>
    <rect x="86" y="47" width="1" height="1" fill="#478d33"/>
    <rect x="103" y="47" width="1" height="1" fill="#478d33"/>
    <rect x="116" y="47" width="1" height="1" fill="#478d33"/>
    <rect x="124" y="47" width="2" height="1" fill="#478d33"/>
    <rect x="162" y="47" width="1" height="1" fill="#478d33"/>
    <rect x="2" y="48" width="1" height="1" fill="#478d33"/>
    <rect x="44" y="48" width="1" height="1" fill="#478d33"/>
    <rect x="47" y="48" width="1" height="1" fill="#478d33"/>
    <rect x="57" y="48" width="1" height="1" fill="#478d33"/>
    <rect x="71" y="48" width="1" height="1" fill="#478d33"/>
    <rect x="85" y="48" width="1" height="1" fill="#478d33"/>
    <rect x="102" y="48" width="1" height="1" fill="#478d33"/>
    <rect x="115" y="48" width="1" height="1" fill="#478d33"/>
    <rect x="124" y="48" width="2" height="1" fill="#478d33"/>
    <rect x="162" y="48" width="1" height="1" fill="#478d33"/>
    <rect x="2" y="49" width="1" height="1" fill="#478d33"/>
    <rect x="44" y="49" width="1" height="1" fill="#478d33"/>
    <rect x="46" y="49" width="1" height="1" fill="#478d33"/>
    <rect x="56" y="49" width="1" height="1" fill="#478d33"/>
    <rect x="70" y="49" width="1" height="1" fill="#478d33"/>
    <rect x="84" y="49" width="1" height="1" fill="#478d33"/>
    <rect x="101" y="49" width="1" height="1" fill="#478d33"/>
    <rect x="115" y="49" width="1" height="1" fill="#478d33"/>
    <rect x="124" y="49" width="2" height="1" fill="#478d33"/>
    <rect x="162" y="49" width="1" height="1" fill="#478d33"/>
    <rect x="2" y="50" width="1" height="1" fill="#478d33"/>
    <rect x="44" y="50" width="1" height="1" fill="#478d33"/>
    <rect x="46" y="50" width="1" height="1" fill="#478d33"/>
    <rect x="55" y="50" width="1" height="1" fill="#478d33"/>
    <rect x="69" y="50" width="1" height="1" fill="#478d33"/>
    <rect x="83" y="50" width="1" height="1" fill="#478d33"/>
    <rect x="100" y="50" width="1" height="1" fill="#478d33"/>
    <rect x="114" y="50" width="1" height="1" fill="#478d33"/>
    <rect x="124" y="50" width="2" height="1" fill="#478d33"/>
    <rect x="162" y="50" width="1" height="1" fill="#478d33"/>
    <rect x="2" y="51" width="1" height="1" fill="#478d33"/>
    <rect x="44" y="51" width="2" height="1" fill="#478d33"/>
    <rect x="55" y="51" width="1" height="1" fill="#478d33"/>
    <rect x="68" y="51" width="1" height="1" fill="#478d33"/>
    <rect x="82" y="51" width="1" height="1" fill="#478d33"/>
    <rect x="99" y="51" width="1" height="1" fill="#478d33"/>
    <rect x="113" y="51" width="1" height="1" fill="#478d33"/>
    <rect x="124" y="51" width="2" height="1" fill="#478d33"/>
    <rect x="162" y="51" width="1" height="1" fill="#478d33"/>
    <rect x="2" y="52" width="1" height="1" fill="#478d33"/>
    <rect x="44" y="52" width="1" height="1" fill="#478d33"/>
    <rect x="54" y="52" width="1" height="1" fill="#478d33"/>
    <rect x="67" y="52" width="1" height="1" fill="#478d33"/>
    <rect x="81" y="52" width="1" height="1" fill="#478d33"/>
    <rect x="98" y="52" width="1" height="1" fill="#478d33"/>
    <rect x="112" y="52" width="1" height="1" fill="#478d33"/>
    <rect x="124" y="52" width="2" height="1" fill="#478d33"/>
    <rect x="162" y="52" width="1" height="1" fill="#478d33"/>
    <rect x="2" y="53" width="1" height="1" fill="#478d33"/>
    <rect x="44" y="53" width="1" height="1" fill="#478d33"/>
    <rect x="53" y="53" width="1" height="1" fill="#478d33"/>
    <rect x="67" y="53" width="1" height="1" fill="#478d33"/>
    <rect x="81" y="53" width="1" height="1" fill="#478d33"/>
    <rect x="98" y="53" width="1" height="1" fill="#478d33"/>
    <rect x="112" y="53" width="1" height="1" fill="#478d33"/>
    <rect x="124" y="53" width="2" height="1" fill="#478d33"/>
    <rect x="162" y="53" width="1" height="1" fill="#478d33"/>
    <rect x="2" y="54" width="1" height="1" fill="#478d33"/>
    <rect x="44" y="54" width="1" height="1" fill="#478d33"/>
    <rect x="52" y="54" width="1" height="1" fill="#478d33"/>
    <rect x="66" y="54" width="1" height="1" fill="#478d33"/>
    <rect x="80" y="54" width="1" height="1" fill="#478d33"/>
    <rect x="97" y="54" width="1" height="1" fill="#478d33"/>
    <rect x="111" y="54" width="1" height="1" fill="#478d33"/>
    <rect x="124" y="54" width="2" height="1" fill="#478d33"/>
    <rect x="162" y="54" width="1" height="1" fill="#478d33"/>
    <rect x="2" y="55" width="1" height="1" fill="#478d33"/>
    <rect x="44" y="55" width="1" height="1" fill="#478d33"/>
    <rect x="51" y="55" width="1" height="1" fill="#478d33"/>
    <rect x="65" y="55" width="1" height="1" fill="#478d33"/>
    <rect x="79" y="55" width="1" height="1" fill="#478d33"/>
    <rect x="96" y="55" width="1" height="1" fill="#478d33"/>
    <rect x="110" y="55" width="1" height="1" fill="#478d33"/>
    <rect x="124" y="55" width="2" height="1" fill="#478d33"/>
    <rect x="162" y="55" width="1" height="1" fill="#478d33"/>
    <rect x="2" y="56" width="1" height="1" fill="#478d33"/>
    <rect x="44" y="56" width="1" height="1" fill="#478d33"/>
    <rect x="51" y="56" width="1" height="1" fill="#478d33"/>
    <rect x="64" y="56" width="1" height="1" fill="#478d33"/>
    <rect x="78" y="56" width="1" height="1" fill="#478d33"/>
    <rect x="95" y="56" width="1" height="1" fill="#478d33"/>
    <rect x="109" y="56" width="1" height="1" fill="#478d33"/>
    <rect x="124" y="56" width="2" height="1" fill="#478d33"/>
    <rect x="162" y="56" width="1" height="1" fill="#478d33"/>
    <rect x="2" y="57" width="1" height="1" fill="#478d33"/>
    <rect x="44" y="57" width="1" height="1" fill="#478d33"/>
    <rect x="50" y="57" width="1" height="1" fill="#478d33"/>
    <rect x="63" y="57" width="1" height="1" fill="#478d33"/>
    <rect x="77" y="57" width="1" height="1" fill="#478d33"/>
    <rect x="94" y="57" width="1" height="1" fill="#478d33"/>
    <rect x="108" y="57" width="1" height="1" fill="#478d33"/>
    <rect x="124" y="57" width="2" height="1" fill="#478d33"/>
    <rect x="162" y="57" width="1" height="1" fill="#478d33"/>
    <rect x="2" y="58" width="1" height="1" fill="#478d33"/>
    <rect x="44" y="58" width="1" height="1" fill="#478d33"/>
    <rect x="49" y="58" width="1" height="1" fill="#478d33"/>
    <rect x="62" y="58" width="1" height="1" fill="#478d33"/>
    <rect x="76" y="58" width="1" height="1" fill="#478d33"/>
    <rect x="93" y="58" width="1" height="1" fill="#478d33"/>
    <rect x="108" y="58" width="1" height="1" fill="#478d33"/>
    <rect x="123" y="58" width="3" height="1" fill="#478d33"/>
    <rect x="162" y="58" width="1" height="1" fill="#478d33"/>
    <rect x="2" y="59" width="1" height="1" fill="#478d33"/>
    <rect x="44" y="59" width="1" height="1" fill="#478d33"/>
    <rect x="48" y="59" width="1" height="1" fill="#478d33"/>
    <rect x="62" y="59" width="1" height="1" fill="#478d33"/>
    <rect x="76" y="59" width="1" height="1" fill="#478d33"/>
    <rect x="93" y="59" width="1" height="1" fill="#478d33"/>
    <rect x="107" y="59" width="1" height="1" fill="#478d33"/>
    <rect x="122" y="59" width="1" height="1" fill="#478d33"/>
    <rect x="124" y="59" width="2" height="1" fill="#478d33"/>
    <rect x="162" y="59" width="1" height="1" fill="#478d33"/>
    <rect x="2" y="60" width="1" height="1" fill="#478d33"/>
    <rect x="44" y="60" width="1" height="1" fill="#478d33"/>
    <rect x="47" y="60" width="1" height="1" fill="#478d33"/>
    <rect x="61" y="60" width="1" height="1" fill="#478d33"/>
    <rect x="75" y="60" width="1" height="1" fill="#478d33"/>
    <rect x="92" y="60" width="1" height="1" fill="#478d33"/>
    <rect x="106" y="60" width="1" height="1" fill="#478d33"/>
    <rect x="122" y="60" width="1" height="1" fill="#478d33"/>
    <rect x="124" y="60" width="2" height="1" fill="#478d33"/>
    <rect x="162" y="60" width="1" height="1" fill="#478d33"/>
    <rect x="2" y="61" width="1" height="1" fill="#478d33"/>
    <rect x="44" y="61" width="1" height="1" fill="#478d33"/>
    <rect x="46" y="61" width="1" height="1" fill="#478d33"/>
    <rect x="60" y="61" width="1" height="1" fill="#478d33"/>
    <rect x="74" y="61" width="1" height="1" fill="#478d33"/>
    <rect x="91" y="61" width="1" height="1" fill="#478d33"/>
    <rect x="105" y="61" width="1" height="1" fill="#478d33"/>
    <rect x="121" y="61" width="1" height="1" fill="#478d33"/>
    <rect x="124" y="61" width="2" height="1" fill="#478d33"/>
    <rect x="162" y="61" width="1" height="1" fill="#478d33"/>
    <rect x="2" y="62" width="1" height="1" fill="#478d33"/>
    <rect x="44" y="62" width="1" height="1" fill="#478d33"/>
    <rect x="46" y="62" width="1" height="1" fill="#478d33"/>
    <rect x="59" y="62" width="1" height="1" fill="#478d33"/>
    <rect x="73" y="62" width="1" height="1" fill="#478d33"/>
    <rect x="90" y="62" width="1" height="1" fill="#478d33"/>
    <rect x="105" y="62" width="1" height="1" fill="#478d33"/>
    <rect x="120" y="62" width="1" height="1" fill="#478d33"/>
    <rect x="124" y="62" width="2" height="1" fill="#478d33"/>
    <rect x="162" y="62" width="1" height="1" fill="#478d33"/>
    <rect x="2" y="63" width="1" height="1" fill="#478d33"/>
    <rect x="44" y="63" width="2" height="1" fill="#478d33"/>
    <rect x="58" y="63" width="1" height="1" fill="#478d33"/>
    <rect x="72" y="63" width="1" height="1" fill="#478d33"/>
    <rect x="89" y="63" width="1" height="1" fill="#478d33"/>
    <rect x="104" y="63" width="1" height="1" fill="#478d33"/>
    <rect x="119" y="63" width="1" height="1" fill="#478d33"/>
    <rect x="124" y="63" width="2" height="1" fill="#478d33"/>
    <rect x="162" y="63" width="1" height="1" fill="#478d33"/>
    <rect x="2" y="64" width="1" height="1" fill="#478d33"/>
    <rect x="44" y="64" width="1" height="1" fill="#478d33"/>
    <rect x="57" y="64" width="1" height="1" fill="#478d33"/>
    <rect x="71" y="64" width="1" height="1" fill="#478d33"/>
    <rect x="88" y="64" width="1" height="1" fill="#478d33"/>
    <rect x="103" y="64" width="1" height="1" fill="#478d33"/>
    <rect x="118" y="64" width="1" height="1" fill="#478d33"/>
    <rect x="124" y="64" width="2" height="1" fill="#478d33"/>
    <rect x="162" y="64" width="1" height="1" fill="#478d33"/>
    <rect x="2" y="65" width="1" height="1" fill="#478d33"/>
    <rect x="44" y="65" width="1" height="1" fill="#478d33"/>
    <rect x="57" y="65" width="1" height="1" fill="#478d33"/>
    <rect x="71" y="65" width="1" height="1" fill="#478d33"/>
    <rect x="88" y="65" width="1" height="1" fill="#478d33"/>
    <rect x="102" y="65" width="1" height="1" fill="#478d33"/>
    <rect x="117" y="65" width="1" height="1" fill="#478d33"/>
    <rect x="124" y="65" width="2" height="1" fill="#478d33"/>
    <rect x="162" y="65" width="1" height="1" fill="#478d33"/>
    <rect x="2" y="66" width="1" height="1" fill="#478d33"/>
    <rect x="44" y="66" width="1" height="1" fill="#478d33"/>
    <rect x="56" y="66" width="1" height="1" fill="#478d33"/>
    <rect x="70" y="66" width="1" height="1" fill="#478d33"/>
    <rect x="87" y="66" width="1" height="1" fill="#478d33"/>
    <rect x="101" y="66" width="1" height="1" fill="#478d33"/>
    <rect x="117" y="66" width="1" height="1" fill="#478d33"/>
    <rect x="124" y="66" width="2" height="1" fill="#478d33"/>
    <rect x="162" y="66" width="1" height="1" fill="#478d33"/>
    <rect x="2" y="67" width="1" height="1" fill="#478d33"/>
    <rect x="44" y="67" width="1" height="1" fill="#478d33"/>
    <rect x="55" y="67" width="1" height="1" fill="#478d33"/>
    <rect x="69" y="67" width="1" height="1" fill="#478d33"/>
    <rect x="86" y="67" width="1" height="1" fill="#478d33"/>
    <rect x="101" y="67" width="1" height="1" fill="#478d33"/>
    <rect x="116" y="67" width="1" height="1" fill="#478d33"/>
    <rect x="124" y="67" width="2" height="1" fill="#478d33"/>
    <rect x="162" y="67" width="1" height="1" fill="#478d33"/>
    <rect x="2" y="68" width="1" height="1" fill="#478d33"/>
    <rect x="44" y="68" width="1" height="1" fill="#478d33"/>
    <rect x="54" y="68" width="1" height="1" fill="#478d33"/>
    <rect x="68" y="68" width="1" height="1" fill="#478d33"/>
    <rect x="85" y="68" width="1" height="1" fill="#478d33"/>
    <rect x="100" y="68" width="1" height="1" fill="#478d33"/>
    <rect x="115" y="68" width="1" height="1" fill="#478d33"/>
    <rect x="124" y="68" width="2" height="1" fill="#478d33"/>
    <rect x="162" y="68" width="1" height="1" fill="#478d33"/>
    <rect x="2" y="69" width="1" height="1" fill="#478d33"/>
    <rect x="44" y="69" width="1" height="1" fill="#478d33"/>
    <rect x="53" y="69" width="1" height="1" fill="#478d33"/>
    <rect x="67" y="69" width="1" height="1" fill="#478d33"/>
    <rect x="84" y="69" width="1" height="1" fill="#478d33"/>
    <rect x="99" y="69" width="1" height="1" fill="#478d33"/>
    <rect x="114" y="69" width="1" height="1" fill="#478d33"/>
    <rect x="124" y="69" width="2" height="1" fill="#478d33"/>
    <rect x="162" y="69" width="1" height="1" fill="#478d33"/>
    <rect x="2" y="70" width="1" height="1" fill="#478d33"/>
    <rect x="44" y="70" width="1" height="1" fill="#478d33"/>
    <rect x="52" y="70" width="1" height="1" fill="#478d33"/>
    <rect x="66" y="70" width="1" height="1" fill="#478d33"/>
    <rect x="83" y="70" width="1" height="1" fill="#478d33"/>
    <rect x="98" y="70" width="1" height="1" fill="#478d33"/>
    <rect x="113" y="70" width="1" height="1" fill="#478d33"/>
    <rect x="124" y="70" width="2" height="1" fill="#478d33"/>
    <rect x="162" y="70" width="1" height="1" fill="#478d33"/>
    <rect x="2" y="71" width="1" height="1" fill="#478d33"/>
    <rect x="44" y="71" width="1" height="1" fill="#478d33"/>
    <rect x="52" y="71" width="1" height="1" fill="#478d33"/>
    <rect x="66" y="71" width="1" height="1" fill="#478d33"/>
    <rect x="83" y="71" width="1" height="1" fill="#478d33"/>
    <rect x="98" y="71" width="1" height="1" fill="#478d33"/>
    <rect x="113" y="71" width="1" height="1" fill="#478d33"/>
    <rect x="124" y="71" width="2" height="1" fill="#478d33"/>
    <rect x="162" y="71" width="1" height="1" fill="#478d33"/>
    <rect x="2" y="72" width="1" height="1" fill="#478d33"/>
    <rect x="44" y="72" width="1" height="1" fill="#478d33"/>
    <rect x="51" y="72" width="1" height="1" fill="#478d33"/>
    <rect x="65" y="72" width="1" height="1" fill="#478d33"/>
    <rect x="82" y="72" width="1" height="1" fill="#478d33"/>
    <rect x="97" y="72" width="1" height="1" fill="#478d33"/>
    <rect x="112" y="72" width="1" height="1" fill="#478d33"/>
    <rect x="124" y="72" width="2" height="1" fill="#478d33"/>
    <rect x="162" y="72" width="1" height="1" fill="#478d33"/>
    <rect x="2" y="73" width="1" height="1" fill="#478d33"/>
    <rect x="44" y="73" width="81" height="1" fill="#478d33"/>
    <rect x="162" y="73" width="1" height="1" fill="#478d33"/>
    <rect x="2" y="74" width="161" height="1" fill="#478d33"/>
    <rect x="2" y="75" width="1" height="1" fill="#478d33"/>
    <rect x="162" y="75" width="1" height="1" fill="#478d33"/>
    <rect x="2" y="76" width="1" height="1" fill="#478d33"/>
    <rect x="162" y="76" width="1" height="1" fill="#478d33"/>
    <rect x="2" y="77" width="1" height="1" fill="#478d33"/>
    <rect x="162" y="77" width="1" height="1" fill="#478d33"/>
    <rect x="2" y="78" width="1" height="1" fill="#478d33"/>
    <rect x="162" y="78" width="1" height="1" fill="#478d33"/>
    <rect x="2" y="79" width="1" height="1" fill="#478d33"/>
    <rect x="162" y="79" width="1" height="1" fill="#478d33"/>
    <rect x="2" y="80" width="1" height="1" fill="#478d33"/>
    <rect x="162" y="80" width="1" height="1" fill="#478d33"/>
    <rect x="2" y="81" width="1" height="1" fill="#478d33"/>
    <rect x="162" y="81" width="1" height="1" fill="#478d33"/>
    <rect x="2" y="82" width="1" height="1" fill="#478d33"/>
    <rect x="162" y="82" width="1" height="1" fill="#478d33"/>
    <rect x="2" y="83" width="1" height="1" fill="#478d33"/>
    <rect x="162" y="83" width="1" height="1" fill="#478d33"/>
    <rect x="2" y="84" width="1" height="1" fill="#478d33"/>
    <rect x="162" y="84" width="1" height="1" fill="#478d33"/>
    <rect x="2" y="85" width="1" height="1" fill="#478d33"/>
    <rect x="162" y="85" width="1" height="1" fill="#478d33"/>
    <rect x="2" y="86" width="1" height="1" fill="#478d33"/>
    <rect x="162" y="86" width="1" height="1" fill="#478d33"/>
    <rect x="2" y="87" width="1" height="1" fill="#478d33"/>
    <rect x="162" y="87" width="1" height="1" fill="#478d33"/>
    <rect x="2" y="88" width="1" height="1" fill="#478d33"/>
    <rect x="162" y="88" width="1" height="1" fill="#478d33"/>
    <rect x="2" y="89" width="1" height="1" fill="#478d33"/>
    <rect x="162" y="89" width="1" height="1" fill="#478d33"/>
    <rect x="2" y="90" width="1" height="1" fill="#478d33"/>
    <rect x="162" y="90" width="1" height="1" fill="#478d33"/>
    <rect x="2" y="91" width="1" height="1" fill="#478d33"/>
    <rect x="162" y="91" width="1" height="1" fill="#478d33"/>
    <rect x="2" y="92" width="1" height="1" fill="#478d33"/>
    <rect x="162" y="92" width="1" height="1" fill="#478d33"/>
    <rect x="2" y="93" width="1" height="1" fill="#478d33"/>
    <rect x="162" y="93" width="1" height="1" fill="#478d33"/>
    <rect x="2" y="94" width="1" height="1" fill="#478d33"/>
    <rect x="162" y="94" width="1" height="1" fill="#478d33"/>
    <rect x="2" y="95" width="1" height="1" fill="#478d33"/>
    <rect x="162" y="95" width="1" height="1" fill="#478d33"/>
    <rect x="2" y="96" width="1" height="1" fill="#478d33"/>
    <rect x="162" y="96" width="1" height="1" fill="#478d33"/>
    <rect x="2" y="97" width="1" height="1" fill="#478d33"/>
    <rect x="162" y="97" width="1" height="1" fill="#478d33"/>
    <rect x="2" y="98" width="1" height="1" fill="#478d33"/>
    <rect x="162" y="98" width="1" height="1" fill="#478d33"/>
    <rect x="2" y="99" width="1" height="1" fill="#478d33"/>
    <rect x="162" y="99" width="1" height="1" fill="#478d33"/>
    <rect x="2" y="100" width="1" height="1" fill="#478d33"/>
    <rect x="162" y="100" width="1" height="1" fill="#478d33"/>
    <rect x="2" y="101" width="1" height="1" fill="#478d33"/>
    <rect x="162" y="101" width="1" height="1" fill="#478d33"/>
    <rect x="2" y="102" width="1" height="1" fill="#478d33"/>
    <rect x="162" y="102" width="1" height="1" fill="#478d33"/>
    <rect x="2" y="103" width="1" height="1" fill="#478d33"/>
    <rect x="162" y="103" width="1" height="1" fill="#478d33"/>
    <rect x="2" y="104" width="1" height="1" fill="#478d33"/>
    <rect x="162" y="104" width="1" height="1" fill="#478d33"/>
    <rect x="2" y="105" width="1" height="1" fill="#478d33"/>
    <rect x="162" y="105" width="1" height="1" fill="#478d33"/>
    <rect x="2" y="106" width="1" height="1" fill="#478d33"/>
    <rect x="162" y="106" width="1" height="1" fill="#478d33"/>
    <rect x="2" y="107" width="161" height="1" fill="#478d33"/>
  </g>
</svg>