<?xml version="1.0" encoding="UTF-8"?>
<svg xmlns="http://www.w3.org/2000/svg" viewBox="0 0 173 69" width="173" height="69">
  <!-- Auto-converted from legend-1526.png -->
  <rect x="0" y="0" width="173" height="69" fill="none"/>
  <g fill="#231f20" stroke="none">
    <rect x="0" y="0" width="173" height="1" fill="#231f20"/>
    <rect x="0" y="1" width="1" height="1" fill="#231f20"/>
    <rect x="54" y="1" width="1" height="1" fill="#231f20"/>
    <rect x="111" y="1" width="1" height="1" fill="#231f20"/>
    <rect x="172" y="1" width="1" height="1" fill="#231f20"/>
    <rect x="0" y="2" width="1" height="1" fill="#231f20"/>
    <rect x="54" y="2" width="1" height="1" fill="#231f20"/>
    <rect x="111" y="2" width="1" height="1" fill="#231f20"/>
    <rect x="172" y="2" width="1" height="1" fill="#231f20"/>
    <rect x="0" y="3" width="1" height="1" fill="#231f20"/>
    <rect x="54" y="3" width="1" height="1" fill="#231f20"/>
    <rect x="111" y="3" width="1" height="1" fill="#231f20"/>
    <rect x="172" y="3" width="1" height="1" fill="#231f20"/>
    <rect x="0" y="4" width="1" height="1" fill="#231f20"/>
    <rect x="54" y="4" width="1" height="1" fill="#231f20"/>
    <rect x="111" y="4" width="1" height="1" fill="#231f20"/>
    <rect x="172" y="4" width="1" height="1" fill="#231f20"/>
    <rect x="0" y="5" width="1" height="1" fill="#231f20"/>
    <rect x="54" y="5" width="1" height="1" fill="#231f20"/>
    <rect x="111" y="5" width="1" height="1" fill="#231f20"/>
    <rect x="172" y="5" width="1" height="1" fill="#231f20"/>
    <rect x="0" y="6" width="1" height="1" fill="#231f20"/>
    <rect x="54" y="6" width="1" height="1" fill="#231f20"/>
    <rect x="111" y="6" width="1" height="1" fill="#231f20"/>
    <rect x="172" y="6" width="1" height="1" fill="#231f20"/>
    <rect x="0" y="7" width="1" height="1" fill="#231f20"/>
    <rect x="26" y="7" width="1" height="1" fill="#231f20"/>
    <rect x="28" y="7" width="1" height="1" fill="#231f20"/>
    <rect x="54" y="7" width="1" height="1" fill="#231f20"/>
    <rect x="83" y="7" width="1" height="1" fill="#231f20"/>
    <rect x="86" y="7" width="1" height="1" fill="#231f20"/>
    <rect x="111" y="7" width="1" height="1" fill="#231f20"/>
    <rect x="140" y="7" width="1" height="1" fill="#231f20"/>
    <rect x="143" y="7" width="1" height="1" fill="#231f20"/>
    <rect x="172" y="7" width="1" height="1" fill="#231f20"/>
    <rect x="0" y="8" width="1" height="1" fill="#231f20"/>
    <rect x="20" y="8" width="1" height="1" fill="#231f20"/>
    <rect x="25" y="8" width="2" height="1" fill="#231f20"/>
    <rect x="29" y="8" width="1" height="1" fill="#231f20"/>
    <rect x="54" y="8" width="1" height="1" fill="#231f20"/>
    <rect x="77" y="8" width="1" height="1" fill="#231f20"/>
    <rect x="82" y="8" width="2" height="1" fill="#231f20"/>
    <rect x="87" y="8" width="1" height="1" fill="#231f20"/>
    <rect x="111" y="8" width="1" height="1" fill="#231f20"/>
    <rect x="135" y="8" width="1" height="1" fill="#231f20"/>
    <rect x="139" y="8" width="2" height="1" fill="#231f20"/>
    <rect x="144" y="8" width="1" height="1" fill="#231f20"/>
    <rect x="172" y="8" width="1" height="1" fill="#231f20"/>
    <rect x="0" y="9" width="1" height="1" fill="#231f20"/>
    <rect x="19" y="9" width="1" height="1" fill="#231f20"/>
    <rect x="25" y="9" width="1" height="1" fill="#231f20"/>
    <rect x="30" y="9" width="1" height="1" fill="#231f20"/>
    <rect x="54" y="9" width="1" height="1" fill="#231f20"/>
    <rect x="76" y="9" width="1" height="1" fill="#231f20"/>
    <rect x="82" y="9" width="1" height="1" fill="#231f20"/>
    <rect x="88" y="9" width="1" height="1" fill="#231f20"/>
    <rect x="111" y="9" width="1" height="1" fill="#231f20"/>
    <rect x="134" y="9" width="1" height="1" fill="#231f20"/>
    <rect x="139" y="9" width="1" height="1" fill="#231f20"/>
    <rect x="145" y="9" width="1" height="1" fill="#231f20"/>
    <rect x="172" y="9" width="1" height="1" fill="#231f20"/>
    <rect x="0" y="10" width="1" height="1" fill="#231f20"/>
    <rect x="19" y="10" width="1" height="1" fill="#231f20"/>
    <rect x="25" y="10" width="1" height="1" fill="#231f20"/>
    <rect x="30" y="10" width="1" height="1" fill="#231f20"/>
    <rect x="54" y="10" width="1" height="1" fill="#231f20"/>
    <rect x="76" y="10" width="1" height="1" fill="#231f20"/>
    <rect x="82" y="10" width="1" height="1" fill="#231f20"/>
    <rect x="88" y="10" width="1" height="1" fill="#231f20"/>
    <rect x="111" y="10" width="1" height="1" fill="#231f20"/>
    <rect x="134" y="10" width="1" height="1" fill="#231f20"/>
    <rect x="139" y="10" width="1" height="1" fill="#231f20"/>
    <rect x="145" y="10" width="1" height="1" fill="#231f20"/>
    <rect x="172" y="10" width="1" height="1" fill="#231f20"/>
    <rect x="0" y="11" width="1" height="1" fill="#231f20"/>
    <rect x="19" y="11" width="1" height="1" fill="#231f20"/>
    <rect x="24" y="11" width="2" height="1" fill="#231f20"/>
    <rect x="30" y="11" width="1" height="1" fill="#231f20"/>
    <rect x="54" y="11" width="1" height="1" fill="#231f20"/>
    <rect x="76" y="11" width="1" height="1" fill="#231f20"/>
    <rect x="81" y="11" width="2" height="1" fill="#231f20"/>
    <rect x="88" y="11" width="1" height="1" fill="#231f20"/>
    <rect x="111" y="11" width="1" height="1" fill="#231f20"/>
    <rect x="134" y="11" width="1" height="1" fill="#231f20"/>
    <rect x="138" y="11" width="2" height="1" fill="#231f20"/>
    <rect x="145" y="11" width="1" height="1" fill="#231f20"/>
    <rect x="172" y="11" width="1" height="1" fill="#231f20"/>
    <rect x="0" y="12" width="1" height="1" fill="#231f20"/>
    <rect x="19" y="12" width="1" height="1" fill="#231f20"/>
    <rect x="24" y="12" width="1" height="1" fill="#231f20"/>
    <rect x="30" y="12" width="1" height="1" fill="#231f20"/>
    <rect x="54" y="12" width="1" height="1" fill="#231f20"/>
    <rect x="76" y="12" width="1" height="1" fill="#231f20"/>
    <rect x="81" y="12" width="1" height="1" fill="#231f20"/>
    <rect x="88" y="12" width="1" height="1" fill="#231f20"/>
    <rect x="111" y="12" width="1" height="1" fill="#231f20"/>
    <rect x="134" y="12" width="1" height="1" fill="#231f20"/>
    <rect x="138" y="12" width="1" height="1" fill="#231f20"/>
    <rect x="145" y="12" width="1" height="1" fill="#231f20"/>
    <rect x="172" y="12" width="1" height="1" fill="#231f20"/>
    <rect x="0" y="13" width="1" height="1" fill="#231f20"/>
    <rect x="19" y="13" width="1" height="1" fill="#231f20"/>
    <rect x="24" y="13" width="1" height="1" fill="#231f20"/>
    <rect x="30" y="13" width="1" height="1" fill="#231f20"/>
    <rect x="54" y="13" width="1" height="1" fill="#231f20"/>
    <rect x="76" y="13" width="1" height="1" fill="#231f20"/>
    <rect x="81" y="13" width="1" height="1" fill="#231f20"/>
    <rect x="88" y="13" width="1" height="1" fill="#231f20"/>
    <rect x="111" y="13" width="1" height="1" fill="#231f20"/>
    <rect x="134" y="13" width="1" height="1" fill="#231f20"/>
    <rect x="138" y="13" width="1" height="1" fill="#231f20"/>
    <rect x="145" y="13" width="1" height="1" fill="#231f20"/>
    <rect x="172" y="13" width="1" height="1" fill="#231f20"/>
    <rect x="0" y="14" width="1" height="1" fill="#231f20"/>
    <rect x="20" y="14" width="1" height="1" fill="#231f20"/>
    <rect x="23" y="14" width="2" height="1" fill="#231f20"/>
    <rect x="29" y="14" width="1" height="1" fill="#231f20"/>
    <rect x="54" y="14" width="1" height="1" fill="#231f20"/>
    <rect x="77" y="14" width="1" height="1" fill="#231f20"/>
    <rect x="80" y="14" width="2" height="1" fill="#231f20"/>
    <rect x="87" y="14" width="1" height="1" fill="#231f20"/>
    <rect x="111" y="14" width="1" height="1" fill="#231f20"/>
    <rect x="135" y="14" width="1" height="1" fill="#231f20"/>
    <rect x="137" y="14" width="2" height="1" fill="#231f20"/>
    <rect x="144" y="14" width="1" height="1" fill="#231f20"/>
    <rect x="172" y="14" width="1" height="1" fill="#231f20"/>
    <rect x="0" y="15" width="1" height="1" fill="#231f20"/>
    <rect x="23" y="15" width="1" height="1" fill="#231f20"/>
    <rect x="54" y="15" width="1" height="1" fill="#231f20"/>
    <rect x="80" y="15" width="1" height="1" fill="#231f20"/>
    <rect x="111" y="15" width="1" height="1" fill="#231f20"/>
    <rect x="137" y="15" width="1" height="1" fill="#231f20"/>
    <rect x="172" y="15" width="1" height="1" fill="#231f20"/>
    <rect x="0" y="16" width="1" height="1" fill="#231f20"/>
    <rect x="54" y="16" width="1" height="1" fill="#231f20"/>
    <rect x="111" y="16" width="1" height="1" fill="#231f20"/>
    <rect x="172" y="16" width="1" height="1" fill="#231f20"/>
    <rect x="0" y="17" width="1" height="1" fill="#231f20"/>
    <rect x="54" y="17" width="1" height="1" fill="#231f20"/>
    <rect x="111" y="17" width="1" height="1" fill="#231f20"/>
    <rect x="172" y="17" width="1" height="1" fill="#231f20"/>
    <rect x="0" y="18" width="1" height="1" fill="#231f20"/>
    <rect x="54" y="18" width="1" height="1" fill="#231f20"/>
    <rect x="111" y="18" width="1" height="1" fill="#231f20"/>
    <rect x="172" y="18" width="1" height="1" fill="#231f20"/>
    <rect x="0" y="19" width="1" height="1" fill="#231f20"/>
    <rect x="54" y="19" width="1" height="1" fill="#231f20"/>
    <rect x="111" y="19" width="1" height="1" fill="#231f20"/>
    <rect x="172" y="19" width="1" height="1" fill="#231f20"/>
    <rect x="0" y="20" width="1" height="1" fill="#231f20"/>
    <rect x="54" y="20" width="1" height="1" fill="#231f20"/>
    <rect x="111" y="20" width="1" height="1" fill="#231f20"/>
    <rect x="172" y="20" width="1" height="1" fill="#231f20"/>
    <rect x="0" y="21" width="1" height="1" fill="#231f20"/>
    <rect x="54" y="21" width="1" height="1" fill="#231f20"/>
    <rect x="111" y="21" width="1" height="1" fill="#231f20"/>
    <rect x="172" y="21" width="1" height="1" fill="#231f20"/>
    <rect x="0" y="22" width="1" height="1" fill="#231f20"/>
    <rect x="54" y="22" width="1" height="1" fill="#231f20"/>
    <rect x="60" y="22" width="1" height="1" fill="#231f20"/>
    <rect x="111" y="22" width="1" height="1" fill="#231f20"/>
    <rect x="117" y="22" width="1" height="1" fill="#231f20"/>
    <rect x="172" y="22" width="1" height="1" fill="#231f20"/>
    <rect x="0" y="23" width="173" height="1" fill="#231f20"/>
    <rect x="0" y="24" width="1" height="1" fill="#231f20"/>
    <rect x="60" y="24" width="1" height="1" fill="#231f20"/>
    <rect x="117" y="24" width="1" height="1" fill="#231f20"/>
    <rect x="172" y="24" width="1" height="1" fill="#231f20"/>
    <rect x="0" y="25" width="1" height="1" fill="#231f20"/>
    <rect x="60" y="25" width="1" height="1" fill="#231f20"/>
    <rect x="117" y="25" width="1" height="1" fill="#231f20"/>
    <rect x="172" y="25" width="1" height="1" fill="#231f20"/>
    <rect x="0" y="26" width="1" height="1" fill="#231f20"/>
    <rect x="60" y="26" width="1" height="1" fill="#231f20"/>
    <rect x="117" y="26" width="1" height="1" fill="#231f20"/>
    <rect x="172" y="26" width="1" height="1" fill="#231f20"/>
    <rect x="0" y="27" width="1" height="1" fill="#231f20"/>
    <rect x="60" y="27" width="1" height="1" fill="#231f20"/>
    <rect x="117" y="27" width="1" height="1" fill="#231f20"/>
    <rect x="172" y="27" width="1" height="1" fill="#231f20"/>
    <rect x="0" y="28" width="1" height="1" fill="#231f20"/>
    <rect x="60" y="28" width="1" height="1" fill="#231f20"/>
    <rect x="117" y="28" width="1" height="1" fill="#231f20"/>
    <rect x="172" y="28" width="1" height="1" fill="#231f20"/>
    <rect x="0" y="29" width="1" height="1" fill="#231f20"/>
    <rect x="60" y="29" width="1" height="1" fill="#231f20"/>
    <rect x="117" y="29" width="1" height="1" fill="#231f20"/>
    <rect x="172" y="29" width="1" height="1" fill="#231f20"/>
    <rect x="0" y="30" width="1" height="1" fill="#231f20"/>
    <rect x="32" y="30" width="1" height="1" fill="#231f20"/>
    <rect x="34" y="30" width="1" height="1" fill="#231f20"/>
    <rect x="60" y="30" width="1" height="1" fill="#231f20"/>
    <rect x="89" y="30" width="1" height="1" fill="#231f20"/>
    <rect x="92" y="30" width="1" height="1" fill="#231f20"/>
    <rect x="117" y="30" width="1" height="1" fill="#231f20"/>
    <rect x="146" y="30" width="1" height="1" fill="#231f20"/>
    <rect x="149" y="30" width="1" height="1" fill="#231f20"/>
    <rect x="172" y="30" width="1" height="1" fill="#231f20"/>
    <rect x="0" y="31" width="1" height="1" fill="#231f20"/>
    <rect x="26" y="31" width="1" height="1" fill="#231f20"/>
    <rect x="31" y="31" width="2" height="1" fill="#231f20"/>
    <rect x="35" y="31" width="1" height="1" fill="#231f20"/>
    <rect x="60" y="31" width="1" height="1" fill="#231f20"/>
    <rect x="83" y="31" width="1" height="1" fill="#231f20"/>
    <rect x="88" y="31" width="2" height="1" fill="#231f20"/>
    <rect x="93" y="31" width="1" height="1" fill="#231f20"/>
    <rect x="117" y="31" width="1" height="1" fill="#231f20"/>
    <rect x="141" y="31" width="1" height="1" fill="#231f20"/>
    <rect x="145" y="31" width="2" height="1" fill="#231f20"/>
    <rect x="150" y="31" width="1" height="1" fill="#231f20"/>
    <rect x="172" y="31" width="1" height="1" fill="#231f20"/>
    <rect x="0" y="32" width="1" height="1" fill="#231f20"/>
    <rect x="25" y="32" width="1" height="1" fill="#231f20"/>
    <rect x="31" y="32" width="1" height="1" fill="#231f20"/>
    <rect x="36" y="32" width="1" height="1" fill="#231f20"/>
    <rect x="60" y="32" width="1" height="1" fill="#231f20"/>
    <rect x="82" y="32" width="1" height="1" fill="#231f20"/>
    <rect x="88" y="32" width="1" height="1" fill="#231f20"/>
    <rect x="94" y="32" width="1" height="1" fill="#231f20"/>
    <rect x="117" y="32" width="1" height="1" fill="#231f20"/>
    <rect x="140" y="32" width="1" height="1" fill="#231f20"/>
    <rect x="145" y="32" width="1" height="1" fill="#231f20"/>
    <rect x="151" y="32" width="1" height="1" fill="#231f20"/>
    <rect x="172" y="32" width="1" height="1" fill="#231f20"/>
    <rect x="0" y="33" width="1" height="1" fill="#231f20"/>
    <rect x="25" y="33" width="1" height="1" fill="#231f20"/>
    <rect x="31" y="33" width="1" height="1" fill="#231f20"/>
    <rect x="36" y="33" width="1" height="1" fill="#231f20"/>
    <rect x="60" y="33" width="1" height="1" fill="#231f20"/>
    <rect x="82" y="33" width="1" height="1" fill="#231f20"/>
    <rect x="88" y="33" width="1" height="1" fill="#231f20"/>
    <rect x="94" y="33" width="1" height="1" fill="#231f20"/>
    <rect x="117" y="33" width="1" height="1" fill="#231f20"/>
    <rect x="140" y="33" width="1" height="1" fill="#231f20"/>
    <rect x="145" y="33" width="1" height="1" fill="#231f20"/>
    <rect x="151" y="33" width="1" height="1" fill="#231f20"/>
    <rect x="172" y="33" width="1" height="1" fill="#231f20"/>
    <rect x="0" y="34" width="1" height="1" fill="#231f20"/>
    <rect x="25" y="34" width="1" height="1" fill="#231f20"/>
    <rect x="30" y="34" width="2" height="1" fill="#231f20"/>
    <rect x="36" y="34" width="1" height="1" fill="#231f20"/>
    <rect x="60" y="34" width="1" height="1" fill="#231f20"/>
    <rect x="82" y="34" width="1" height="1" fill="#231f20"/>
    <rect x="87" y="34" width="2" height="1" fill="#231f20"/>
    <rect x="94" y="34" width="1" height="1" fill="#231f20"/>
    <rect x="117" y="34" width="1" height="1" fill="#231f20"/>
    <rect x="140" y="34" width="1" height="1" fill="#231f20"/>
    <rect x="144" y="34" width="2" height="1" fill="#231f20"/>
    <rect x="151" y="34" width="1" height="1" fill="#231f20"/>
    <rect x="172" y="34" width="1" height="1" fill="#231f20"/>
    <rect x="0" y="35" width="1" height="1" fill="#231f20"/>
    <rect x="25" y="35" width="1" height="1" fill="#231f20"/>
    <rect x="30" y="35" width="1" height="1" fill="#231f20"/>
    <rect x="36" y="35" width="1" height="1" fill="#231f20"/>
    <rect x="60" y="35" width="1" height="1" fill="#231f20"/>
    <rect x="82" y="35" width="1" height="1" fill="#231f20"/>
    <rect x="87" y="35" width="1" height="1" fill="#231f20"/>
    <rect x="94" y="35" width="1" height="1" fill="#231f20"/>
    <rect x="117" y="35" width="1" height="1" fill="#231f20"/>
    <rect x="140" y="35" width="1" height="1" fill="#231f20"/>
    <rect x="144" y="35" width="1" height="1" fill="#231f20"/>
    <rect x="151" y="35" width="1" height="1" fill="#231f20"/>
    <rect x="172" y="35" width="1" height="1" fill="#231f20"/>
    <rect x="0" y="36" width="1" height="1" fill="#231f20"/>
    <rect x="25" y="36" width="1" height="1" fill="#231f20"/>
    <rect x="30" y="36" width="1" height="1" fill="#231f20"/>
    <rect x="36" y="36" width="1" height="1" fill="#231f20"/>
    <rect x="60" y="36" width="1" height="1" fill="#231f20"/>
    <rect x="82" y="36" width="1" height="1" fill="#231f20"/>
    <rect x="87" y="36" width="1" height="1" fill="#231f20"/>
    <rect x="94" y="36" width="1" height="1" fill="#231f20"/>
    <rect x="117" y="36" width="1" height="1" fill="#231f20"/>
    <rect x="140" y="36" width="1" height="1" fill="#231f20"/>
    <rect x="144" y="36" width="1" height="1" fill="#231f20"/>
    <rect x="151" y="36" width="1" height="1" fill="#231f20"/>
    <rect x="172" y="36" width="1" height="1" fill="#231f20"/>
    <rect x="0" y="37" width="1" height="1" fill="#231f20"/>
    <rect x="26" y="37" width="1" height="1" fill="#231f20"/>
    <rect x="29" y="37" width="2" height="1" fill="#231f20"/>
    <rect x="35" y="37" width="1" height="1" fill="#231f20"/>
    <rect x="60" y="37" width="1" height="1" fill="#231f20"/>
    <rect x="83" y="37" width="1" height="1" fill="#231f20"/>
    <rect x="86" y="37" width="2" height="1" fill="#231f20"/>
    <rect x="93" y="37" width="1" height="1" fill="#231f20"/>
    <rect x="117" y="37" width="1" height="1" fill="#231f20"/>
    <rect x="141" y="37" width="1" height="1" fill="#231f20"/>
    <rect x="143" y="37" width="2" height="1" fill="#231f20"/>
    <rect x="150" y="37" width="1" height="1" fill="#231f20"/>
    <rect x="172" y="37" width="1" height="1" fill="#231f20"/>
    <rect x="0" y="38" width="1" height="1" fill="#231f20"/>
    <rect x="29" y="38" width="1" height="1" fill="#231f20"/>
    <rect x="60" y="38" width="1" height="1" fill="#231f20"/>
    <rect x="86" y="38" width="1" height="1" fill="#231f20"/>
    <rect x="117" y="38" width="1" height="1" fill="#231f20"/>
    <rect x="143" y="38" width="1" height="1" fill="#231f20"/>
    <rect x="172" y="38" width="1" height="1" fill="#231f20"/>
    <rect x="0" y="39" width="1" height="1" fill="#231f20"/>
    <rect x="60" y="39" width="1" height="1" fill="#231f20"/>
    <rect x="117" y="39" width="1" height="1" fill="#231f20"/>
    <rect x="172" y="39" width="1" height="1" fill="#231f20"/>
    <rect x="0" y="40" width="1" height="1" fill="#231f20"/>
    <rect x="60" y="40" width="1" height="1" fill="#231f20"/>
    <rect x="117" y="40" width="1" height="1" fill="#231f20"/>
    <rect x="172" y="40" width="1" height="1" fill="#231f20"/>
    <rect x="0" y="41" width="1" height="1" fill="#231f20"/>
    <rect x="60" y="41" width="1" height="1" fill="#231f20"/>
    <rect x="117" y="41" width="1" height="1" fill="#231f20"/>
    <rect x="172" y="41" width="1" height="1" fill="#231f20"/>
    <rect x="0" y="42" width="1" height="1" fill="#231f20"/>
    <rect x="60" y="42" width="1" height="1" fill="#231f20"/>
    <rect x="117" y="42" width="1" height="1" fill="#231f20"/>
    <rect x="172" y="42" width="1" height="1" fill="#231f20"/>
    <rect x="0" y="43" width="1" height="1" fill="#231f20"/>
    <rect x="60" y="43" width="1" height="1" fill="#231f20"/>
    <rect x="117" y="43" width="1" height="1" fill="#231f20"/>
    <rect x="172" y="43" width="1" height="1" fill="#231f20"/>
    <rect x="0" y="44" width="1" height="1" fill="#231f20"/>
    <rect x="60" y="44" width="1" height="1" fill="#231f20"/>
    <rect x="117" y="44" width="1" height="1" fill="#231f20"/>
    <rect x="172" y="44" width="1" height="1" fill="#231f20"/>
    <rect x="0" y="45" width="1" height="1" fill="#231f20"/>
    <rect x="54" y="45" width="1" height="1" fill="#231f20"/>
    <rect x="60" y="45" width="1" height="1" fill="#231f20"/>
    <rect x="111" y="45" width="1" height="1" fill="#231f20"/>
    <rect x="117" y="45" width="1" height="1" fill="#231f20"/>
    <rect x="172" y="45" width="1" height="1" fill="#231f20"/>
    <rect x="0" y="46" width="173" height="1" fill="#231f20"/>
    <rect x="0" y="47" width="1" height="1" fill="#231f20"/>
    <rect x="54" y="47" width="1" height="1" fill="#231f20"/>
    <rect x="111" y="47" width="1" height="1" fill="#231f20"/>
    <rect x="172" y="47" width="1" height="1" fill="#231f20"/>
    <rect x="0" y="48" width="1" height="1" fill="#231f20"/>
    <rect x="54" y="48" width="1" height="1" fill="#231f20"/>
    <rect x="111" y="48" width="1" height="1" fill="#231f20"/>
    <rect x="172" y="48" width="1" height="1" fill="#231f20"/>
    <rect x="0" y="49" width="1" height="1" fill="#231f20"/>
    <rect x="54" y="49" width="1" height="1" fill="#231f20"/>
    <rect x="111" y="49" width="1" height="1" fill="#231f20"/>
    <rect x="172" y="49" width="1" height="1" fill="#231f20"/>
    <rect x="0" y="50" width="1" height="1" fill="#231f20"/>
    <rect x="54" y="50" width="1" height="1" fill="#231f20"/>
    <rect x="111" y="50" width="1" height="1" fill="#231f20"/>
    <rect x="172" y="50" width="1" height="1" fill="#231f20"/>
    <rect x="0" y="51" width="1" height="1" fill="#231f20"/>
    <rect x="54" y="51" width="1" height="1" fill="#231f20"/>
    <rect x="111" y="51" width="1" height="1" fill="#231f20"/>
    <rect x="172" y="51" width="1" height="1" fill="#231f20"/>
    <rect x="0" y="52" width="1" height="1" fill="#231f20"/>
    <rect x="54" y="52" width="1" height="1" fill="#231f20"/>
    <rect x="111" y="52" width="1" height="1" fill="#231f20"/>
    <rect x="172" y="52" width="1" height="1" fill="#231f20"/>
    <rect x="0" y="53" width="1" height="1" fill="#231f20"/>
    <rect x="26" y="53" width="1" height="1" fill="#231f20"/>
    <rect x="28" y="53" width="1" height="1" fill="#231f20"/>
    <rect x="54" y="53" width="1" height="1" fill="#231f20"/>
    <rect x="83" y="53" width="1" height="1" fill="#231f20"/>
    <rect x="86" y="53" width="1" height="1" fill="#231f20"/>
    <rect x="111" y="53" width="1" height="1" fill="#231f20"/>
    <rect x="140" y="53" width="1" height="1" fill="#231f20"/>
    <rect x="143" y="53" width="1" height="1" fill="#231f20"/>
    <rect x="172" y="53" width="1" height="1" fill="#231f20"/>
    <rect x="0" y="54" width="1" height="1" fill="#231f20"/>
    <rect x="20" y="54" width="1" height="1" fill="#231f20"/>
    <rect x="25" y="54" width="2" height="1" fill="#231f20"/>
    <rect x="29" y="54" width="1" height="1" fill="#231f20"/>
    <rect x="54" y="54" width="1" height="1" fill="#231f20"/>
    <rect x="77" y="54" width="1" height="1" fill="#231f20"/>
    <rect x="82" y="54" width="2" height="1" fill="#231f20"/>
    <rect x="87" y="54" width="1" height="1" fill="#231f20"/>
    <rect x="111" y="54" width="1" height="1" fill="#231f20"/>
    <rect x="135" y="54" width="1" height="1" fill="#231f20"/>
    <rect x="139" y="54" width="2" height="1" fill="#231f20"/>
    <rect x="144" y="54" width="1" height="1" fill="#231f20"/>
    <rect x="172" y="54" width="1" height="1" fill="#231f20"/>
    <rect x="0" y="55" width="1" height="1" fill="#231f20"/>
    <rect x="19" y="55" width="1" height="1" fill="#231f20"/>
    <rect x="25" y="55" width="1" height="1" fill="#231f20"/>
    <rect x="30" y="55" width="1" height="1" fill="#231f20"/>
    <rect x="54" y="55" width="1" height="1" fill="#231f20"/>
    <rect x="76" y="55" width="1" height="1" fill="#231f20"/>
    <rect x="82" y="55" width="1" height="1" fill="#231f20"/>
    <rect x="88" y="55" width="1" height="1" fill="#231f20"/>
    <rect x="111" y="55" width="1" height="1" fill="#231f20"/>
    <rect x="134" y="55" width="1" height="1" fill="#231f20"/>
    <rect x="139" y="55" width="1" height="1" fill="#231f20"/>
    <rect x="145" y="55" width="1" height="1" fill="#231f20"/>
    <rect x="172" y="55" width="1" height="1" fill="#231f20"/>
    <rect x="0" y="56" width="1" height="1" fill="#231f20"/>
    <rect x="19" y="56" width="1" height="1" fill="#231f20"/>
    <rect x="25" y="56" width="1" height="1" fill="#231f20"/>
    <rect x="30" y="56" width="1" height="1" fill="#231f20"/>
    <rect x="54" y="56" width="1" height="1" fill="#231f20"/>
    <rect x="76" y="56" width="1" height="1" fill="#231f20"/>
    <rect x="82" y="56" width="1" height="1" fill="#231f20"/>
    <rect x="88" y="56" width="1" height="1" fill="#231f20"/>
    <rect x="111" y="56" width="1" height="1" fill="#231f20"/>
    <rect x="134" y="56" width="1" height="1" fill="#231f20"/>
    <rect x="139" y="56" width="1" height="1" fill="#231f20"/>
    <rect x="145" y="56" width="1" height="1" fill="#231f20"/>
    <rect x="172" y="56" width="1" height="1" fill="#231f20"/>
    <rect x="0" y="57" width="1" height="1" fill="#231f20"/>
    <rect x="19" y="57" width="1" height="1" fill="#231f20"/>
    <rect x="24" y="57" width="2" height="1" fill="#231f20"/>
    <rect x="30" y="57" width="1" height="1" fill="#231f20"/>
    <rect x="54" y="57" width="1" height="1" fill="#231f20"/>
    <rect x="76" y="57" width="1" height="1" fill="#231f20"/>
    <rect x="81" y="57" width="2" height="1" fill="#231f20"/>
    <rect x="88" y="57" width="1" height="1" fill="#231f20"/>
    <rect x="111" y="57" width="1" height="1" fill="#231f20"/>
    <rect x="134" y="57" width="1" height="1" fill="#231f20"/>
    <rect x="138" y="57" width="2" height="1" fill="#231f20"/>
    <rect x="145" y="57" width="1" height="1" fill="#231f20"/>
    <rect x="172" y="57" width="1" height="1" fill="#231f20"/>
    <rect x="0" y="58" width="1" height="1" fill="#231f20"/>
    <rect x="19" y="58" width="1" height="1" fill="#231f20"/>
    <rect x="24" y="58" width="1" height="1" fill="#231f20"/>
    <rect x="30" y="58" width="1" height="1" fill="#231f20"/>
    <rect x="54" y="58" width="1" height="1" fill="#231f20"/>
    <rect x="76" y="58" width="1" height="1" fill="#231f20"/>
    <rect x="81" y="58" width="1" height="1" fill="#231f20"/>
    <rect x="88" y="58" width="1" height="1" fill="#231f20"/>
    <rect x="111" y="58" width="1" height="1" fill="#231f20"/>
    <rect x="134" y="58" width="1" height="1" fill="#231f20"/>
    <rect x="138" y="58" width="1" height="1" fill="#231f20"/>
    <rect x="145" y="58" width="1" height="1" fill="#231f20"/>
    <rect x="172" y="58" width="1" height="1" fill="#231f20"/>
    <rect x="0" y="59" width="1" height="1" fill="#231f20"/>
    <rect x="19" y="59" width="1" height="1" fill="#231f20"/>
    <rect x="24" y="59" width="1" height="1" fill="#231f20"/>
    <rect x="30" y="59" width="1" height="1" fill="#231f20"/>
    <rect x="54" y="59" width="1" height="1" fill="#231f20"/>
    <rect x="76" y="59" width="1" height="1" fill="#231f20"/>
    <rect x="81" y="59" width="1" height="1" fill="#231f20"/>
    <rect x="88" y="59" width="1" height="1" fill="#231f20"/>
    <rect x="111" y="59" width="1" height="1" fill="#231f20"/>
    <rect x="134" y="59" width="1" height="1" fill="#231f20"/>
    <rect x="138" y="59" width="1" height="1" fill="#231f20"/>
    <rect x="145" y="59" width="1" height="1" fill="#231f20"/>
    <rect x="172" y="59" width="1" height="1" fill="#231f20"/>
    <rect x="0" y="60" width="1" height="1" fill="#231f20"/>
    <rect x="20" y="60" width="1" height="1" fill="#231f20"/>
    <rect x="23" y="60" width="2" height="1" fill="#231f20"/>
    <rect x="29" y="60" width="1" height="1" fill="#231f20"/>
    <rect x="54" y="60" width="1" height="1" fill="#231f20"/>
    <rect x="77" y="60" width="1" height="1" fill="#231f20"/>
    <rect x="80" y="60" width="2" height="1" fill="#231f20"/>
    <rect x="87" y="60" width="1" height="1" fill="#231f20"/>
    <rect x="111" y="60" width="1" height="1" fill="#231f20"/>
    <rect x="135" y="60" width="1" height="1" fill="#231f20"/>
    <rect x="137" y="60" width="2" height="1" fill="#231f20"/>
    <rect x="144" y="60" width="1" height="1" fill="#231f20"/>
    <rect x="172" y="60" width="1" height="1" fill="#231f20"/>
    <rect x="0" y="61" width="1" height="1" fill="#231f20"/>
    <rect x="23" y="61" width="1" height="1" fill="#231f20"/>
    <rect x="54" y="61" width="1" height="1" fill="#231f20"/>
    <rect x="80" y="61" width="1" height="1" fill="#231f20"/>
    <rect x="111" y="61" width="1" height="1" fill="#231f20"/>
    <rect x="137" y="61" width="1" height="1" fill="#231f20"/>
    <rect x="172" y="61" width="1" height="1" fill="#231f20"/>
    <rect x="0" y="62" width="1" height="1" fill="#231f20"/>
    <rect x="54" y="62" width="1" height="1" fill="#231f20"/>
    <rect x="111" y="62" width="1" height="1" fill="#231f20"/>
    <rect x="172" y="62" width="1" height="1" fill="#231f20"/>
    <rect x="0" y="63" width="1" height="1" fill="#231f20"/>
    <rect x="54" y="63" width="1" height="1" fill="#231f20"/>
    <rect x="111" y="63" width="1" height="1" fill="#231f20"/>
    <rect x="172" y="63" width="1" height="1" fill="#231f20"/>
    <rect x="0" y="64" width="1" height="1" fill="#231f20"/>
    <rect x="54" y="64" width="1" height="1" fill="#231f20"/>
    <rect x="111" y="64" width="1" height="1" fill="#231f20"/>
    <rect x="172" y="64" width="1" height="1" fill="#231f20"/>
    <rect x="0" y="65" width="1" height="1" fill="#231f20"/>
    <rect x="54" y="65" width="1" height="1" fill="#231f20"/>
    <rect x="111" y="65" width="1" height="1" fill="#231f20"/>
    <rect x="172" y="65" width="1" height="1" fill="#231f20"/>
    <rect x="0" y="66" width="1" height="1" fill="#231f20"/>
    <rect x="54" y="66" width="1" height="1" fill="#231f20"/>
    <rect x="111" y="66" width="1" height="1" fill="#231f20"/>
    <rect x="172" y="66" width="1" height="1" fill="#231f20"/>
    <rect x="0" y="67" width="1" height="1" fill="#231f20"/>
    <rect x="54" y="67" width="1" height="1" fill="#231f20"/>
    <rect x="111" y="67" width="1" height="1" fill="#231f20"/>
    <rect x="172" y="67" width="1" height="1" fill="#231f20"/>
    <rect x="0" y="68" width="173" height="1" fill="#231f20"/>
  </g>
</svg>