<?xml version="1.0" encoding="UTF-8"?>
<svg xmlns="http://www.w3.org/2000/svg" viewBox="0 0 150 61" width="150" height="61">
  <!-- Auto-converted from legend-2084.png -->
  <rect x="0" y="0" width="150" height="61" fill="none"/>
  <g fill="#231f20" stroke="none">
    <rect x="0" y="0" width="150" height="1" fill="#231f20"/>
    <rect x="0" y="1" width="1" height="1" fill="#231f20"/>
    <rect x="149" y="1" width="1" height="1" fill="#231f20"/>
    <rect x="0" y="2" width="1" height="1" fill="#231f20"/>
    <rect x="149" y="2" width="1" height="1" fill="#231f20"/>
    <rect x="0" y="3" width="1" height="1" fill="#231f20"/>
    <rect x="149" y="3" width="1" height="1" fill="#231f20"/>
    <rect x="0" y="4" width="1" height="1" fill="#231f20"/>
    <rect x="149" y="4" width="1" height="1" fill="#231f20"/>
    <rect x="0" y="5" width="1" height="1" fill="#231f20"/>
    <rect x="149" y="5" width="1" height="1" fill="#231f20"/>
    <rect x="0" y="6" width="1" height="1" fill="#231f20"/>
    <rect x="80" y="6" width="2" height="1" fill="#231f20"/>
    <rect x="149" y="6" width="1" height="1" fill="#231f20"/>
    <rect x="0" y="7" width="1" height="1" fill="#231f20"/>
    <rect x="76" y="7" width="7" height="1" fill="#231f20"/>
    <rect x="149" y="7" width="1" height="1" fill="#231f20"/>
    <rect x="0" y="8" width="1" height="1" fill="#231f20"/>
    <rect x="75" y="8" width="7" height="1" fill="#231f20"/>
    <rect x="149" y="8" width="1" height="1" fill="#231f20"/>
    <rect x="0" y="9" width="1" height="1" fill="#231f20"/>
    <rect x="74" y="9" width="6" height="1" fill="#231f20"/>
    <rect x="149" y="9" width="1" height="1" fill="#231f20"/>
    <rect x="0" y="10" width="1" height="1" fill="#231f20"/>
    <rect x="74" y="10" width="5" height="1" fill="#231f20"/>
    <rect x="149" y="10" width="1" height="1" fill="#231f20"/>
    <rect x="0" y="11" width="1" height="1" fill="#231f20"/>
    <rect x="74" y="11" width="3" height="1" fill="#231f20"/>
    <rect x="149" y="11" width="1" height="1" fill="#231f20"/>
    <rect x="0" y="12" width="1" height="1" fill="#231f20"/>
    <rect x="74" y="12" width="3" height="1" fill="#231f20"/>
    <rect x="149" y="12" width="1" height="1" fill="#231f20"/>
    <rect x="0" y="13" width="1" height="1" fill="#231f20"/>
    <rect x="74" y="13" width="3" height="1" fill="#231f20"/>
    <rect x="149" y="13" width="1" height="1" fill="#231f20"/>
    <rect x="0" y="14" width="1" height="1" fill="#231f20"/>
    <rect x="74" y="14" width="3" height="1" fill="#231f20"/>
    <rect x="149" y="14" width="1" height="1" fill="#231f20"/>
    <rect x="0" y="15" width="1" height="1" fill="#231f20"/>
    <rect x="74" y="15" width="3" height="1" fill="#231f20"/>
    <rect x="149" y="15" width="1" height="1" fill="#231f20"/>
    <rect x="0" y="16" width="1" height="1" fill="#231f20"/>
    <rect x="74" y="16" width="3" height="1" fill="#231f20"/>
    <rect x="149" y="16" width="1" height="1" fill="#231f20"/>
    <rect x="0" y="17" width="1" height="1" fill="#231f20"/>
    <rect x="74" y="17" width="3" height="1" fill="#231f20"/>
    <rect x="149" y="17" width="1" height="1" fill="#231f20"/>
    <rect x="0" y="18" width="1" height="1" fill="#231f20"/>
    <rect x="74" y="18" width="3" height="1" fill="#231f20"/>
    <rect x="149" y="18" width="1" height="1" fill="#231f20"/>
    <rect x="0" y="19" width="1" height="1" fill="#231f20"/>
    <rect x="74" y="19" width="3" height="1" fill="#231f20"/>
    <rect x="149" y="19" width="1" height="1" fill="#231f20"/>
    <rect x="0" y="20" width="1" height="1" fill="#231f20"/>
    <rect x="74" y="20" width="3" height="1" fill="#231f20"/>
    <rect x="149" y="20" width="1" height="1" fill="#231f20"/>
    <rect x="0" y="21" width="1" height="1" fill="#231f20"/>
    <rect x="74" y="21" width="3" height="1" fill="#231f20"/>
    <rect x="149" y="21" width="1" height="1" fill="#231f20"/>
    <rect x="0" y="22" width="1" height="1" fill="#231f20"/>
    <rect x="60" y="22" width="31" height="1" fill="#231f20"/>
    <rect x="149" y="22" width="1" height="1" fill="#231f20"/>
    <rect x="0" y="23" width="1" height="1" fill="#231f20"/>
    <rect x="59" y="23" width="33" height="1" fill="#231f20"/>
    <rect x="149" y="23" width="1" height="1" fill="#231f20"/>
    <rect x="0" y="24" width="1" height="1" fill="#231f20"/>
    <rect x="60" y="24" width="31" height="1" fill="#231f20"/>
    <rect x="149" y="24" width="1" height="1" fill="#231f20"/>
    <rect x="0" y="25" width="1" height="1" fill="#231f20"/>
    <rect x="74" y="25" width="3" height="1" fill="#231f20"/>
    <rect x="149" y="25" width="1" height="1" fill="#231f20"/>
    <rect x="0" y="26" width="1" height="1" fill="#231f20"/>
    <rect x="74" y="26" width="3" height="1" fill="#231f20"/>
    <rect x="149" y="26" width="1" height="1" fill="#231f20"/>
    <rect x="0" y="27" width="1" height="1" fill="#231f20"/>
    <rect x="74" y="27" width="3" height="1" fill="#231f20"/>
    <rect x="149" y="27" width="1" height="1" fill="#231f20"/>
    <rect x="0" y="28" width="1" height="1" fill="#231f20"/>
    <rect x="74" y="28" width="3" height="1" fill="#231f20"/>
    <rect x="149" y="28" width="1" height="1" fill="#231f20"/>
    <rect x="0" y="29" width="1" height="1" fill="#231f20"/>
    <rect x="74" y="29" width="3" height="1" fill="#231f20"/>
    <rect x="149" y="29" width="1" height="1" fill="#231f20"/>
    <rect x="0" y="30" width="1" height="1" fill="#231f20"/>
    <rect x="74" y="30" width="3" height="1" fill="#231f20"/>
    <rect x="149" y="30" width="1" height="1" fill="#231f20"/>
    <rect x="0" y="31" width="1" height="1" fill="#231f20"/>
    <rect x="74" y="31" width="3" height="1" fill="#231f20"/>
    <rect x="149" y="31" width="1" height="1" fill="#231f20"/>
    <rect x="0" y="32" width="1" height="1" fill="#231f20"/>
    <rect x="74" y="32" width="3" height="1" fill="#231f20"/>
    <rect x="149" y="32" width="1" height="1" fill="#231f20"/>
    <rect x="0" y="33" width="1" height="1" fill="#231f20"/>
    <rect x="74" y="33" width="3" height="1" fill="#231f20"/>
    <rect x="149" y="33" width="1" height="1" fill="#231f20"/>
    <rect x="0" y="34" width="1" height="1" fill="#231f20"/>
    <rect x="74" y="34" width="3" height="1" fill="#231f20"/>
    <rect x="149" y="34" width="1" height="1" fill="#231f20"/>
    <rect x="0" y="35" width="1" height="1" fill="#231f20"/>
    <rect x="74" y="35" width="3" height="1" fill="#231f20"/>
    <rect x="149" y="35" width="1" height="1" fill="#231f20"/>
    <rect x="0" y="36" width="1" height="1" fill="#231f20"/>
    <rect x="74" y="36" width="3" height="1" fill="#231f20"/>
    <rect x="149" y="36" width="1" height="1" fill="#231f20"/>
    <rect x="0" y="37" width="1" height="1" fill="#231f20"/>
    <rect x="74" y="37" width="3" height="1" fill="#231f20"/>
    <rect x="149" y="37" width="1" height="1" fill="#231f20"/>
    <rect x="0" y="38" width="1" height="1" fill="#231f20"/>
    <rect x="74" y="38" width="3" height="1" fill="#231f20"/>
    <rect x="149" y="38" width="1" height="1" fill="#231f20"/>
    <rect x="0" y="39" width="1" height="1" fill="#231f20"/>
    <rect x="74" y="39" width="3" height="1" fill="#231f20"/>
    <rect x="149" y="39" width="1" height="1" fill="#231f20"/>
    <rect x="0" y="40" width="1" height="1" fill="#231f20"/>
    <rect x="74" y="40" width="3" height="1" fill="#231f20"/>
    <rect x="149" y="40" width="1" height="1" fill="#231f20"/>
    <rect x="0" y="41" width="1" height="1" fill="#231f20"/>
    <rect x="74" y="41" width="3" height="1" fill="#231f20"/>
    <rect x="149" y="41" width="1" height="1" fill="#231f20"/>
    <rect x="0" y="42" width="1" height="1" fill="#231f20"/>
    <rect x="71" y="42" width="8" height="1" fill="#231f20"/>
    <rect x="149" y="42" width="1" height="1" fill="#231f20"/>
    <rect x="0" y="43" width="1" height="1" fill="#231f20"/>
    <rect x="70" y="43" width="10" height="1" fill="#231f20"/>
    <rect x="149" y="43" width="1" height="1" fill="#231f20"/>
    <rect x="0" y="44" width="1" height="1" fill="#231f20"/>
    <rect x="70" y="44" width="10" height="1" fill="#231f20"/>
    <rect x="149" y="44" width="1" height="1" fill="#231f20"/>
    <rect x="0" y="45" width="1" height="1" fill="#231f20"/>
    <rect x="69" y="45" width="4" height="1" fill="#231f20"/>
    <rect x="77" y="45" width="4" height="1" fill="#231f20"/>
    <rect x="149" y="45" width="1" height="1" fill="#231f20"/>
    <rect x="0" y="46" width="1" height="1" fill="#231f20"/>
    <rect x="69" y="46" width="4" height="1" fill="#231f20"/>
    <rect x="77" y="46" width="4" height="1" fill="#231f20"/>
    <rect x="149" y="46" width="1" height="1" fill="#231f20"/>
    <rect x="0" y="47" width="1" height="1" fill="#231f20"/>
    <rect x="69" y="47" width="3" height="1" fill="#231f20"/>
    <rect x="78" y="47" width="3" height="1" fill="#231f20"/>
    <rect x="149" y="47" width="1" height="1" fill="#231f20"/>
    <rect x="0" y="48" width="1" height="1" fill="#231f20"/>
    <rect x="69" y="48" width="4" height="1" fill="#231f20"/>
    <rect x="77" y="48" width="4" height="1" fill="#231f20"/>
    <rect x="149" y="48" width="1" height="1" fill="#231f20"/>
    <rect x="0" y="49" width="1" height="1" fill="#231f20"/>
    <rect x="69" y="49" width="4" height="1" fill="#231f20"/>
    <rect x="77" y="49" width="4" height="1" fill="#231f20"/>
    <rect x="149" y="49" width="1" height="1" fill="#231f20"/>
    <rect x="0" y="50" width="1" height="1" fill="#231f20"/>
    <rect x="70" y="50" width="4" height="1" fill="#231f20"/>
    <rect x="76" y="50" width="4" height="1" fill="#231f20"/>
    <rect x="149" y="50" width="1" height="1" fill="#231f20"/>
    <rect x="0" y="51" width="1" height="1" fill="#231f20"/>
    <rect x="70" y="51" width="10" height="1" fill="#231f20"/>
    <rect x="149" y="51" width="1" height="1" fill="#231f20"/>
    <rect x="0" y="52" width="1" height="1" fill="#231f20"/>
    <rect x="71" y="52" width="8" height="1" fill="#231f20"/>
    <rect x="149" y="52" width="1" height="1" fill="#231f20"/>
    <rect x="0" y="53" width="1" height="1" fill="#231f20"/>
    <rect x="72" y="53" width="6" height="1" fill="#231f20"/>
    <rect x="149" y="53" width="1" height="1" fill="#231f20"/>
    <rect x="0" y="54" width="1" height="1" fill="#231f20"/>
    <rect x="149" y="54" width="1" height="1" fill="#231f20"/>
    <rect x="0" y="55" width="1" height="1" fill="#231f20"/>
    <rect x="149" y="55" width="1" height="1" fill="#231f20"/>
    <rect x="0" y="56" width="1" height="1" fill="#231f20"/>
    <rect x="149" y="56" width="1" height="1" fill="#231f20"/>
    <rect x="0" y="57" width="1" height="1" fill="#231f20"/>
    <rect x="149" y="57" width="1" height="1" fill="#231f20"/>
    <rect x="0" y="58" width="1" height="1" fill="#231f20"/>
    <rect x="149" y="58" width="1" height="1" fill="#231f20"/>
    <rect x="0" y="59" width="1" height="1" fill="#231f20"/>
    <rect x="149" y="59" width="1" height="1" fill="#231f20"/>
    <rect x="0" y="60" width="150" height="1" fill="#231f20"/>
  </g>
</svg>