<?xml version="1.0" encoding="UTF-8"?>
<svg xmlns="http://www.w3.org/2000/svg" viewBox="0 0 133 56" width="133" height="56">
  <!-- Auto-converted from legend-2577.png -->
  <rect x="0" y="0" width="133" height="56" fill="none"/>
  <g fill="#d14720" stroke="none">
    <rect x="3" y="2" width="127" height="1" fill="#d14720"/>
    <rect x="3" y="3" width="127" height="1" fill="#d14720"/>
    <rect x="3" y="4" width="127" height="1" fill="#d14720"/>
    <rect x="3" y="5" width="127" height="1" fill="#d14720"/>
    <rect x="3" y="6" width="127" height="1" fill="#d14720"/>
    <rect x="3" y="7" width="127" height="1" fill="#d14720"/>
    <rect x="3" y="8" width="127" height="1" fill="#d14720"/>
    <rect x="3" y="9" width="127" height="1" fill="#d14720"/>
    <rect x="3" y="10" width="127" height="1" fill="#d14720"/>
    <rect x="3" y="11" width="127" height="1" fill="#d14720"/>
    <rect x="3" y="12" width="127" height="1" fill="#d14720"/>
    <rect x="3" y="13" width="127" height="1" fill="#d14720"/>
    <rect x="3" y="14" width="127" height="1" fill="#d14720"/>
    <rect x="3" y="15" width="127" height="1" fill="#d14720"/>
    <rect x="3" y="16" width="127" height="1" fill="#d14720"/>
    <rect x="3" y="17" width="127" height="1" fill="#d14720"/>
    <rect x="3" y="18" width="127" height="1" fill="#d14720"/>
    <rect x="3" y="19" width="127" height="1" fill="#d14720"/>
    <rect x="3" y="20" width="127" height="1" fill="#d14720"/>
    <rect x="3" y="21" width="127" height="1" fill="#d14720"/>
    <rect x="3" y="22" width="127" height="1" fill="#d14720"/>
    <rect x="3" y="23" width="127" height="1" fill="#d14720"/>
    <rect x="3" y="24" width="127" height="1" fill="#d14720"/>
    <rect x="3" y="25" width="127" height="1" fill="#d14720"/>
    <rect x="3" y="26" width="127" height="1" fill="#d14720"/>
    <rect x="3" y="27" width="127" height="1" fill="#d14720"/>
    <rect x="3" y="28" width="127" height="1" fill="#d14720"/>
    <rect x="3" y="29" width="127" height="1" fill="#d14720"/>
    <rect x="3" y="30" width="127" height="1" fill="#d14720"/>
    <rect x="3" y="31" width="127" height="1" fill="#d14720"/>
    <rect x="3" y="32" width="127" height="1" fill="#d14720"/>
    <rect x="3" y="33" width="127" height="1" fill="#d14720"/>
    <rect x="3" y="34" width="127" height="1" fill="#d14720"/>
    <rect x="3" y="35" width="127" height="1" fill="#d14720"/>
    <rect x="3" y="36" width="127" height="1" fill="#d14720"/>
    <rect x="3" y="37" width="127" height="1" fill="#d14720"/>
    <rect x="3" y="38" width="127" height="1" fill="#d14720"/>
    <rect x="3" y="39" width="127" height="1" fill="#d14720"/>
    <rect x="3" y="40" width="127" height="1" fill="#d14720"/>
    <rect x="3" y="41" width="127" height="1" fill="#d14720"/>
    <rect x="3" y="42" width="127" height="1" fill="#d14720"/>
    <rect x="3" y="43" width="127" height="1" fill="#d14720"/>
    <rect x="3" y="44" width="127" height="1" fill="#d14720"/>
    <rect x="3" y="45" width="127" height="1" fill="#d14720"/>
    <rect x="3" y="46" width="127" height="1" fill="#d14720"/>
    <rect x="3" y="47" width="127" height="1" fill="#d14720"/>
    <rect x="3" y="48" width="127" height="1" fill="#d14720"/>
    <rect x="3" y="49" width="127" height="1" fill="#d14720"/>
    <rect x="3" y="50" width="127" height="1" fill="#d14720"/>
    <rect x="3" y="51" width="127" height="1" fill="#d14720"/>
    <rect x="3" y="52" width="127" height="1" fill="#d14720"/>
  </g>
</svg>