<?xml version="1.0" encoding="UTF-8"?>
<svg xmlns="http://www.w3.org/2000/svg" viewBox="0 0 150 83" width="150" height="83">
  <!-- Auto-converted from legend-2738.png -->
  <rect x="0" y="0" width="150" height="83" fill="none"/>
  <g fill="#7c7a7a" stroke="none">
    <rect x="0" y="0" width="150" height="1" fill="#7c7a7a"/>
    <rect x="0" y="1" width="1" height="1" fill="#7c7a7a"/>
    <rect x="149" y="1" width="1" height="1" fill="#7c7a7a"/>
    <rect x="0" y="2" width="1" height="1" fill="#7c7a7a"/>
    <rect x="149" y="2" width="1" height="1" fill="#7c7a7a"/>
    <rect x="0" y="3" width="1" height="1" fill="#7c7a7a"/>
    <rect x="149" y="3" width="1" height="1" fill="#7c7a7a"/>
    <rect x="0" y="4" width="1" height="1" fill="#7c7a7a"/>
    <rect x="108" y="4" width="1" height="1" fill="#7c7a7a"/>
    <rect x="149" y="4" width="1" height="1" fill="#7c7a7a"/>
    <rect x="0" y="5" width="1" height="1" fill="#7c7a7a"/>
    <rect x="106" y="5" width="2" height="1" fill="#7c7a7a"/>
    <rect x="149" y="5" width="1" height="1" fill="#7c7a7a"/>
    <rect x="0" y="6" width="1" height="1" fill="#7c7a7a"/>
    <rect x="104" y="6" width="2" height="1" fill="#7c7a7a"/>
    <rect x="149" y="6" width="1" height="1" fill="#7c7a7a"/>
    <rect x="0" y="7" width="1" height="1" fill="#7c7a7a"/>
    <rect x="82" y="7" width="5" height="1" fill="#7c7a7a"/>
    <rect x="97" y="7" width="7" height="1" fill="#7c7a7a"/>
    <rect x="149" y="7" width="1" height="1" fill="#7c7a7a"/>
    <rect x="0" y="8" width="1" height="1" fill="#7c7a7a"/>
    <rect x="78" y="8" width="12" height="1" fill="#7c7a7a"/>
    <rect x="95" y="8" width="10" height="1" fill="#7c7a7a"/>
    <rect x="149" y="8" width="1" height="1" fill="#7c7a7a"/>
    <rect x="0" y="9" width="1" height="1" fill="#7c7a7a"/>
    <rect x="76" y="9" width="30" height="1" fill="#7c7a7a"/>
    <rect x="149" y="9" width="1" height="1" fill="#7c7a7a"/>
    <rect x="0" y="10" width="1" height="1" fill="#7c7a7a"/>
    <rect x="75" y="10" width="32" height="1" fill="#7c7a7a"/>
    <rect x="149" y="10" width="1" height="1" fill="#7c7a7a"/>
    <rect x="0" y="11" width="1" height="1" fill="#7c7a7a"/>
    <rect x="73" y="11" width="37" height="1" fill="#7c7a7a"/>
    <rect x="114" y="11" width="4" height="1" fill="#7c7a7a"/>
    <rect x="149" y="11" width="1" height="1" fill="#7c7a7a"/>
    <rect x="0" y="12" width="1" height="1" fill="#7c7a7a"/>
    <rect x="73" y="12" width="47" height="1" fill="#7c7a7a"/>
    <rect x="149" y="12" width="1" height="1" fill="#7c7a7a"/>
    <rect x="0" y="13" width="1" height="1" fill="#7c7a7a"/>
    <rect x="72" y="13" width="48" height="1" fill="#7c7a7a"/>
    <rect x="149" y="13" width="1" height="1" fill="#7c7a7a"/>
    <rect x="0" y="14" width="1" height="1" fill="#7c7a7a"/>
    <rect x="72" y="14" width="48" height="1" fill="#7c7a7a"/>
    <rect x="149" y="14" width="1" height="1" fill="#7c7a7a"/>
    <rect x="0" y="15" width="1" height="1" fill="#7c7a7a"/>
    <rect x="72" y="15" width="47" height="1" fill="#7c7a7a"/>
    <rect x="149" y="15" width="1" height="1" fill="#7c7a7a"/>
    <rect x="0" y="16" width="1" height="1" fill="#7c7a7a"/>
    <rect x="71" y="16" width="48" height="1" fill="#7c7a7a"/>
    <rect x="149" y="16" width="1" height="1" fill="#7c7a7a"/>
    <rect x="0" y="17" width="1" height="1" fill="#7c7a7a"/>
    <rect x="71" y="17" width="47" height="1" fill="#7c7a7a"/>
    <rect x="149" y="17" width="1" height="1" fill="#7c7a7a"/>
    <rect x="0" y="18" width="1" height="1" fill="#7c7a7a"/>
    <rect x="71" y="18" width="46" height="1" fill="#7c7a7a"/>
    <rect x="149" y="18" width="1" height="1" fill="#7c7a7a"/>
    <rect x="0" y="19" width="1" height="1" fill="#7c7a7a"/>
    <rect x="71" y="19" width="45" height="1" fill="#7c7a7a"/>
    <rect x="149" y="19" width="1" height="1" fill="#7c7a7a"/>
    <rect x="0" y="20" width="1" height="1" fill="#7c7a7a"/>
    <rect x="70" y="20" width="45" height="1" fill="#7c7a7a"/>
    <rect x="149" y="20" width="1" height="1" fill="#7c7a7a"/>
    <rect x="0" y="21" width="1" height="1" fill="#7c7a7a"/>
    <rect x="69" y="21" width="45" height="1" fill="#7c7a7a"/>
    <rect x="149" y="21" width="1" height="1" fill="#7c7a7a"/>
    <rect x="0" y="22" width="1" height="1" fill="#7c7a7a"/>
    <rect x="69" y="22" width="45" height="1" fill="#7c7a7a"/>
    <rect x="149" y="22" width="1" height="1" fill="#7c7a7a"/>
    <rect x="0" y="23" width="1" height="1" fill="#7c7a7a"/>
    <rect x="68" y="23" width="48" height="1" fill="#7c7a7a"/>
    <rect x="149" y="23" width="1" height="1" fill="#7c7a7a"/>
    <rect x="0" y="24" width="1" height="1" fill="#7c7a7a"/>
    <rect x="66" y="24" width="51" height="1" fill="#7c7a7a"/>
    <rect x="149" y="24" width="1" height="1" fill="#7c7a7a"/>
    <rect x="0" y="25" width="1" height="1" fill="#7c7a7a"/>
    <rect x="63" y="25" width="1" height="1" fill="#7c7a7a"/>
    <rect x="65" y="25" width="52" height="1" fill="#7c7a7a"/>
    <rect x="149" y="25" width="1" height="1" fill="#7c7a7a"/>
    <rect x="0" y="26" width="1" height="1" fill="#7c7a7a"/>
    <rect x="61" y="26" width="57" height="1" fill="#7c7a7a"/>
    <rect x="149" y="26" width="1" height="1" fill="#7c7a7a"/>
    <rect x="0" y="27" width="1" height="1" fill="#7c7a7a"/>
    <rect x="59" y="27" width="2" height="1" fill="#7c7a7a"/>
    <rect x="63" y="27" width="55" height="1" fill="#7c7a7a"/>
    <rect x="149" y="27" width="1" height="1" fill="#7c7a7a"/>
    <rect x="0" y="28" width="1" height="1" fill="#7c7a7a"/>
    <rect x="57" y="28" width="2" height="1" fill="#7c7a7a"/>
    <rect x="61" y="28" width="57" height="1" fill="#7c7a7a"/>
    <rect x="149" y="28" width="1" height="1" fill="#7c7a7a"/>
    <rect x="0" y="29" width="1" height="1" fill="#7c7a7a"/>
    <rect x="55" y="29" width="2" height="1" fill="#7c7a7a"/>
    <rect x="59" y="29" width="59" height="1" fill="#7c7a7a"/>
    <rect x="149" y="29" width="1" height="1" fill="#7c7a7a"/>
    <rect x="0" y="30" width="1" height="1" fill="#7c7a7a"/>
    <rect x="51" y="30" width="2" height="1" fill="#7c7a7a"/>
    <rect x="54" y="30" width="1" height="1" fill="#7c7a7a"/>
    <rect x="58" y="30" width="60" height="1" fill="#7c7a7a"/>
    <rect x="149" y="30" width="1" height="1" fill="#7c7a7a"/>
    <rect x="0" y="31" width="1" height="1" fill="#7c7a7a"/>
    <rect x="49" y="31" width="2" height="1" fill="#7c7a7a"/>
    <rect x="55" y="31" width="63" height="1" fill="#7c7a7a"/>
    <rect x="149" y="31" width="1" height="1" fill="#7c7a7a"/>
    <rect x="0" y="32" width="1" height="1" fill="#7c7a7a"/>
    <rect x="47" y="32" width="2" height="1" fill="#7c7a7a"/>
    <rect x="54" y="32" width="64" height="1" fill="#7c7a7a"/>
    <rect x="149" y="32" width="1" height="1" fill="#7c7a7a"/>
    <rect x="0" y="33" width="1" height="1" fill="#7c7a7a"/>
    <rect x="45" y="33" width="2" height="1" fill="#7c7a7a"/>
    <rect x="52" y="33" width="66" height="1" fill="#7c7a7a"/>
    <rect x="149" y="33" width="1" height="1" fill="#7c7a7a"/>
    <rect x="0" y="34" width="1" height="1" fill="#7c7a7a"/>
    <rect x="44" y="34" width="1" height="1" fill="#7c7a7a"/>
    <rect x="51" y="34" width="67" height="1" fill="#7c7a7a"/>
    <rect x="149" y="34" width="1" height="1" fill="#7c7a7a"/>
    <rect x="0" y="35" width="1" height="1" fill="#7c7a7a"/>
    <rect x="40" y="35" width="2" height="1" fill="#7c7a7a"/>
    <rect x="49" y="35" width="68" height="1" fill="#7c7a7a"/>
    <rect x="149" y="35" width="1" height="1" fill="#7c7a7a"/>
    <rect x="0" y="36" width="1" height="1" fill="#7c7a7a"/>
    <rect x="37" y="36" width="3" height="1" fill="#7c7a7a"/>
    <rect x="48" y="36" width="69" height="1" fill="#7c7a7a"/>
    <rect x="149" y="36" width="1" height="1" fill="#7c7a7a"/>
    <rect x="0" y="37" width="1" height="1" fill="#7c7a7a"/>
    <rect x="34" y="37" width="3" height="1" fill="#7c7a7a"/>
    <rect x="48" y="37" width="69" height="1" fill="#7c7a7a"/>
    <rect x="149" y="37" width="1" height="1" fill="#7c7a7a"/>
    <rect x="0" y="38" width="1" height="1" fill="#7c7a7a"/>
    <rect x="32" y="38" width="2" height="1" fill="#7c7a7a"/>
    <rect x="47" y="38" width="69" height="1" fill="#7c7a7a"/>
    <rect x="149" y="38" width="1" height="1" fill="#7c7a7a"/>
    <rect x="0" y="39" width="1" height="1" fill="#7c7a7a"/>
    <rect x="45" y="39" width="71" height="1" fill="#7c7a7a"/>
    <rect x="149" y="39" width="1" height="1" fill="#7c7a7a"/>
    <rect x="0" y="40" width="1" height="1" fill="#7c7a7a"/>
    <rect x="43" y="40" width="72" height="1" fill="#7c7a7a"/>
    <rect x="149" y="40" width="1" height="1" fill="#7c7a7a"/>
    <rect x="0" y="41" width="1" height="1" fill="#7c7a7a"/>
    <rect x="43" y="41" width="72" height="1" fill="#7c7a7a"/>
    <rect x="149" y="41" width="1" height="1" fill="#7c7a7a"/>
    <rect x="0" y="42" width="1" height="1" fill="#7c7a7a"/>
    <rect x="41" y="42" width="73" height="1" fill="#7c7a7a"/>
    <rect x="149" y="42" width="1" height="1" fill="#7c7a7a"/>
    <rect x="0" y="43" width="1" height="1" fill="#7c7a7a"/>
    <rect x="34" y="43" width="79" height="1" fill="#7c7a7a"/>
    <rect x="149" y="43" width="1" height="1" fill="#7c7a7a"/>
    <rect x="0" y="44" width="1" height="1" fill="#7c7a7a"/>
    <rect x="33" y="44" width="79" height="1" fill="#7c7a7a"/>
    <rect x="149" y="44" width="1" height="1" fill="#7c7a7a"/>
    <rect x="0" y="45" width="1" height="1" fill="#7c7a7a"/>
    <rect x="32" y="45" width="79" height="1" fill="#7c7a7a"/>
    <rect x="149" y="45" width="1" height="1" fill="#7c7a7a"/>
    <rect x="0" y="46" width="1" height="1" fill="#7c7a7a"/>
    <rect x="32" y="46" width="76" height="1" fill="#7c7a7a"/>
    <rect x="110" y="46" width="1" height="1" fill="#7c7a7a"/>
    <rect x="149" y="46" width="1" height="1" fill="#7c7a7a"/>
    <rect x="0" y="47" width="1" height="1" fill="#7c7a7a"/>
    <rect x="32" y="47" width="75" height="1" fill="#7c7a7a"/>
    <rect x="109" y="47" width="1" height="1" fill="#7c7a7a"/>
    <rect x="149" y="47" width="1" height="1" fill="#7c7a7a"/>
    <rect x="0" y="48" width="1" height="1" fill="#7c7a7a"/>
    <rect x="32" y="48" width="74" height="1" fill="#7c7a7a"/>
    <rect x="109" y="48" width="1" height="1" fill="#7c7a7a"/>
    <rect x="149" y="48" width="1" height="1" fill="#7c7a7a"/>
    <rect x="0" y="49" width="1" height="1" fill="#7c7a7a"/>
    <rect x="32" y="49" width="73" height="1" fill="#7c7a7a"/>
    <rect x="109" y="49" width="1" height="1" fill="#7c7a7a"/>
    <rect x="149" y="49" width="1" height="1" fill="#7c7a7a"/>
    <rect x="0" y="50" width="1" height="1" fill="#7c7a7a"/>
    <rect x="31" y="50" width="73" height="1" fill="#7c7a7a"/>
    <rect x="108" y="50" width="1" height="1" fill="#7c7a7a"/>
    <rect x="149" y="50" width="1" height="1" fill="#7c7a7a"/>
    <rect x="0" y="51" width="1" height="1" fill="#7c7a7a"/>
    <rect x="31" y="51" width="73" height="1" fill="#7c7a7a"/>
    <rect x="149" y="51" width="1" height="1" fill="#7c7a7a"/>
    <rect x="0" y="52" width="1" height="1" fill="#7c7a7a"/>
    <rect x="31" y="52" width="72" height="1" fill="#7c7a7a"/>
    <rect x="149" y="52" width="1" height="1" fill="#7c7a7a"/>
    <rect x="0" y="53" width="1" height="1" fill="#7c7a7a"/>
    <rect x="30" y="53" width="72" height="1" fill="#7c7a7a"/>
    <rect x="106" y="53" width="1" height="1" fill="#7c7a7a"/>
    <rect x="149" y="53" width="1" height="1" fill="#7c7a7a"/>
    <rect x="0" y="54" width="1" height="1" fill="#7c7a7a"/>
    <rect x="30" y="54" width="71" height="1" fill="#7c7a7a"/>
    <rect x="105" y="54" width="1" height="1" fill="#7c7a7a"/>
    <rect x="149" y="54" width="1" height="1" fill="#7c7a7a"/>
    <rect x="0" y="55" width="1" height="1" fill="#7c7a7a"/>
    <rect x="29" y="55" width="70" height="1" fill="#7c7a7a"/>
    <rect x="101" y="55" width="4" height="1" fill="#7c7a7a"/>
    <rect x="149" y="55" width="1" height="1" fill="#7c7a7a"/>
    <rect x="0" y="56" width="1" height="1" fill="#7c7a7a"/>
    <rect x="29" y="56" width="70" height="1" fill="#7c7a7a"/>
    <rect x="100" y="56" width="2" height="1" fill="#7c7a7a"/>
    <rect x="149" y="56" width="1" height="1" fill="#7c7a7a"/>
    <rect x="0" y="57" width="1" height="1" fill="#7c7a7a"/>
    <rect x="29" y="57" width="68" height="1" fill="#7c7a7a"/>
    <rect x="99" y="57" width="1" height="1" fill="#7c7a7a"/>
    <rect x="149" y="57" width="1" height="1" fill="#7c7a7a"/>
    <rect x="0" y="58" width="1" height="1" fill="#7c7a7a"/>
    <rect x="29" y="58" width="67" height="1" fill="#7c7a7a"/>
    <rect x="149" y="58" width="1" height="1" fill="#7c7a7a"/>
    <rect x="0" y="59" width="1" height="1" fill="#7c7a7a"/>
    <rect x="29" y="59" width="66" height="1" fill="#7c7a7a"/>
    <rect x="97" y="59" width="1" height="1" fill="#7c7a7a"/>
    <rect x="149" y="59" width="1" height="1" fill="#7c7a7a"/>
    <rect x="0" y="60" width="1" height="1" fill="#7c7a7a"/>
    <rect x="29" y="60" width="65" height="1" fill="#7c7a7a"/>
    <rect x="96" y="60" width="1" height="1" fill="#7c7a7a"/>
    <rect x="149" y="60" width="1" height="1" fill="#7c7a7a"/>
    <rect x="0" y="61" width="1" height="1" fill="#7c7a7a"/>
    <rect x="29" y="61" width="65" height="1" fill="#7c7a7a"/>
    <rect x="96" y="61" width="1" height="1" fill="#7c7a7a"/>
    <rect x="149" y="61" width="1" height="1" fill="#7c7a7a"/>
    <rect x="0" y="62" width="1" height="1" fill="#7c7a7a"/>
    <rect x="30" y="62" width="63" height="1" fill="#7c7a7a"/>
    <rect x="95" y="62" width="1" height="1" fill="#7c7a7a"/>
    <rect x="149" y="62" width="1" height="1" fill="#7c7a7a"/>
    <rect x="0" y="63" width="1" height="1" fill="#7c7a7a"/>
    <rect x="30" y="63" width="62" height="1" fill="#7c7a7a"/>
    <rect x="94" y="63" width="1" height="1" fill="#7c7a7a"/>
    <rect x="149" y="63" width="1" height="1" fill="#7c7a7a"/>
    <rect x="0" y="64" width="1" height="1" fill="#7c7a7a"/>
    <rect x="31" y="64" width="44" height="1" fill="#7c7a7a"/>
    <rect x="79" y="64" width="12" height="1" fill="#7c7a7a"/>
    <rect x="93" y="64" width="1" height="1" fill="#7c7a7a"/>
    <rect x="149" y="64" width="1" height="1" fill="#7c7a7a"/>
    <rect x="0" y="65" width="1" height="1" fill="#7c7a7a"/>
    <rect x="31" y="65" width="42" height="1" fill="#7c7a7a"/>
    <rect x="80" y="65" width="10" height="1" fill="#7c7a7a"/>
    <rect x="93" y="65" width="1" height="1" fill="#7c7a7a"/>
    <rect x="149" y="65" width="1" height="1" fill="#7c7a7a"/>
    <rect x="0" y="66" width="1" height="1" fill="#7c7a7a"/>
    <rect x="32" y="66" width="14" height="1" fill="#7c7a7a"/>
    <rect x="48" y="66" width="23" height="1" fill="#7c7a7a"/>
    <rect x="83" y="66" width="7" height="1" fill="#7c7a7a"/>
    <rect x="92" y="66" width="1" height="1" fill="#7c7a7a"/>
    <rect x="149" y="66" width="1" height="1" fill="#7c7a7a"/>
    <rect x="0" y="67" width="1" height="1" fill="#7c7a7a"/>
    <rect x="33" y="67" width="11" height="1" fill="#7c7a7a"/>
    <rect x="48" y="67" width="20" height="1" fill="#7c7a7a"/>
    <rect x="83" y="67" width="6" height="1" fill="#7c7a7a"/>
    <rect x="91" y="67" width="1" height="1" fill="#7c7a7a"/>
    <rect x="149" y="67" width="1" height="1" fill="#7c7a7a"/>
    <rect x="0" y="68" width="1" height="1" fill="#7c7a7a"/>
    <rect x="34" y="68" width="7" height="1" fill="#7c7a7a"/>
    <rect x="48" y="68" width="19" height="1" fill="#7c7a7a"/>
    <rect x="84" y="68" width="4" height="1" fill="#7c7a7a"/>
    <rect x="149" y="68" width="1" height="1" fill="#7c7a7a"/>
    <rect x="0" y="69" width="1" height="1" fill="#7c7a7a"/>
    <rect x="36" y="69" width="3" height="1" fill="#7c7a7a"/>
    <rect x="48" y="69" width="6" height="1" fill="#7c7a7a"/>
    <rect x="55" y="69" width="10" height="1" fill="#7c7a7a"/>
    <rect x="88" y="69" width="1" height="1" fill="#7c7a7a"/>
    <rect x="149" y="69" width="1" height="1" fill="#7c7a7a"/>
    <rect x="0" y="70" width="1" height="1" fill="#7c7a7a"/>
    <rect x="48" y="70" width="4" height="1" fill="#7c7a7a"/>
    <rect x="54" y="70" width="10" height="1" fill="#7c7a7a"/>
    <rect x="84" y="70" width="5" height="1" fill="#7c7a7a"/>
    <rect x="149" y="70" width="1" height="1" fill="#7c7a7a"/>
    <rect x="0" y="71" width="1" height="1" fill="#7c7a7a"/>
    <rect x="53" y="71" width="11" height="1" fill="#7c7a7a"/>
    <rect x="82" y="71" width="2" height="1" fill="#7c7a7a"/>
    <rect x="149" y="71" width="1" height="1" fill="#7c7a7a"/>
    <rect x="0" y="72" width="1" height="1" fill="#7c7a7a"/>
    <rect x="53" y="72" width="10" height="1" fill="#7c7a7a"/>
    <rect x="81" y="72" width="1" height="1" fill="#7c7a7a"/>
    <rect x="149" y="72" width="1" height="1" fill="#7c7a7a"/>
    <rect x="0" y="73" width="1" height="1" fill="#7c7a7a"/>
    <rect x="52" y="73" width="11" height="1" fill="#7c7a7a"/>
    <rect x="80" y="73" width="1" height="1" fill="#7c7a7a"/>
    <rect x="149" y="73" width="1" height="1" fill="#7c7a7a"/>
    <rect x="0" y="74" width="1" height="1" fill="#7c7a7a"/>
    <rect x="51" y="74" width="10" height="1" fill="#7c7a7a"/>
    <rect x="149" y="74" width="1" height="1" fill="#7c7a7a"/>
    <rect x="0" y="75" width="1" height="1" fill="#7c7a7a"/>
    <rect x="50" y="75" width="8" height="1" fill="#7c7a7a"/>
    <rect x="149" y="75" width="1" height="1" fill="#7c7a7a"/>
    <rect x="0" y="76" width="1" height="1" fill="#7c7a7a"/>
    <rect x="50" y="76" width="7" height="1" fill="#7c7a7a"/>
    <rect x="149" y="76" width="1" height="1" fill="#7c7a7a"/>
    <rect x="0" y="77" width="1" height="1" fill="#7c7a7a"/>
    <rect x="50" y="77" width="6" height="1" fill="#7c7a7a"/>
    <rect x="149" y="77" width="1" height="1" fill="#7c7a7a"/>
    <rect x="0" y="78" width="1" height="1" fill="#7c7a7a"/>
    <rect x="149" y="78" width="1" height="1" fill="#7c7a7a"/>
    <rect x="0" y="79" width="1" height="1" fill="#7c7a7a"/>
    <rect x="149" y="79" width="1" height="1" fill="#7c7a7a"/>
    <rect x="0" y="80" width="1" height="1" fill="#7c7a7a"/>
    <rect x="149" y="80" width="1" height="1" fill="#7c7a7a"/>
    <rect x="0" y="81" width="1" height="1" fill="#7c7a7a"/>
    <rect x="149" y="81" width="1" height="1" fill="#7c7a7a"/>
    <rect x="0" y="82" width="150" height="1" fill="#7c7a7a"/>
  </g>
</svg>