<?xml version="1.0" encoding="UTF-8"?>
<svg xmlns="http://www.w3.org/2000/svg" viewBox="0 0 131 55" width="131" height="55">
  <!-- Auto-converted from legend-2593.png -->
  <rect x="0" y="0" width="131" height="55" fill="none"/>
  <g fill="#ed1f83" stroke="none">
    <rect x="2" y="2" width="127" height="1" fill="#ed1f83"/>
    <rect x="2" y="3" width="127" height="1" fill="#ed1f83"/>
    <rect x="2" y="4" width="127" height="1" fill="#ed1f83"/>
    <rect x="2" y="5" width="127" height="1" fill="#ed1f83"/>
    <rect x="2" y="6" width="127" height="1" fill="#ed1f83"/>
    <rect x="2" y="7" width="127" height="1" fill="#ed1f83"/>
    <rect x="2" y="8" width="127" height="1" fill="#ed1f83"/>
    <rect x="2" y="9" width="127" height="1" fill="#ed1f83"/>
    <rect x="2" y="10" width="127" height="1" fill="#ed1f83"/>
    <rect x="2" y="11" width="127" height="1" fill="#ed1f83"/>
    <rect x="2" y="12" width="127" height="1" fill="#ed1f83"/>
    <rect x="2" y="13" width="127" height="1" fill="#ed1f83"/>
    <rect x="2" y="14" width="127" height="1" fill="#ed1f83"/>
    <rect x="2" y="15" width="127" height="1" fill="#ed1f83"/>
    <rect x="2" y="16" width="127" height="1" fill="#ed1f83"/>
    <rect x="2" y="17" width="127" height="1" fill="#ed1f83"/>
    <rect x="2" y="18" width="127" height="1" fill="#ed1f83"/>
    <rect x="2" y="19" width="127" height="1" fill="#ed1f83"/>
    <rect x="2" y="20" width="127" height="1" fill="#ed1f83"/>
    <rect x="2" y="21" width="127" height="1" fill="#ed1f83"/>
    <rect x="2" y="22" width="127" height="1" fill="#ed1f83"/>
    <rect x="2" y="23" width="127" height="1" fill="#ed1f83"/>
    <rect x="2" y="24" width="127" height="1" fill="#ed1f83"/>
    <rect x="2" y="25" width="127" height="1" fill="#ed1f83"/>
    <rect x="2" y="26" width="127" height="1" fill="#ed1f83"/>
    <rect x="2" y="27" width="127" height="1" fill="#ed1f83"/>
    <rect x="2" y="28" width="127" height="1" fill="#ed1f83"/>
    <rect x="2" y="29" width="127" height="1" fill="#ed1f83"/>
    <rect x="2" y="30" width="127" height="1" fill="#ed1f83"/>
    <rect x="2" y="31" width="127" height="1" fill="#ed1f83"/>
    <rect x="2" y="32" width="127" height="1" fill="#ed1f83"/>
    <rect x="2" y="33" width="127" height="1" fill="#ed1f83"/>
    <rect x="2" y="34" width="127" height="1" fill="#ed1f83"/>
    <rect x="2" y="35" width="127" height="1" fill="#ed1f83"/>
    <rect x="2" y="36" width="127" height="1" fill="#ed1f83"/>
    <rect x="2" y="37" width="127" height="1" fill="#ed1f83"/>
    <rect x="2" y="38" width="127" height="1" fill="#ed1f83"/>
    <rect x="2" y="39" width="127" height="1" fill="#ed1f83"/>
    <rect x="2" y="40" width="127" height="1" fill="#ed1f83"/>
    <rect x="2" y="41" width="127" height="1" fill="#ed1f83"/>
    <rect x="2" y="42" width="127" height="1" fill="#ed1f83"/>
    <rect x="2" y="43" width="127" height="1" fill="#ed1f83"/>
    <rect x="2" y="44" width="127" height="1" fill="#ed1f83"/>
    <rect x="2" y="45" width="127" height="1" fill="#ed1f83"/>
    <rect x="2" y="46" width="127" height="1" fill="#ed1f83"/>
    <rect x="2" y="47" width="127" height="1" fill="#ed1f83"/>
    <rect x="2" y="48" width="127" height="1" fill="#ed1f83"/>
    <rect x="2" y="49" width="127" height="1" fill="#ed1f83"/>
    <rect x="2" y="50" width="127" height="1" fill="#ed1f83"/>
    <rect x="2" y="51" width="127" height="1" fill="#ed1f83"/>
    <rect x="2" y="52" width="127" height="1" fill="#ed1f83"/>
  </g>
</svg>