<?xml version="1.0" encoding="UTF-8"?>
<svg xmlns="http://www.w3.org/2000/svg" viewBox="0 0 141 69" width="141" height="69">
  <!-- Auto-converted from legend-1143.png -->
  <rect x="0" y="0" width="141" height="69" fill="none"/>
  <g fill="#231f20" stroke="none">
    <rect x="0" y="0" width="141" height="1" fill="#231f20"/>
    <rect x="0" y="1" width="1" height="1" fill="#231f20"/>
    <rect x="20" y="1" width="1" height="1" fill="#231f20"/>
    <rect x="140" y="1" width="1" height="1" fill="#231f20"/>
    <rect x="0" y="2" width="1" height="1" fill="#231f20"/>
    <rect x="20" y="2" width="1" height="1" fill="#231f20"/>
    <rect x="140" y="2" width="1" height="1" fill="#231f20"/>
    <rect x="0" y="3" width="1" height="1" fill="#231f20"/>
    <rect x="20" y="3" width="1" height="1" fill="#231f20"/>
    <rect x="140" y="3" width="1" height="1" fill="#231f20"/>
    <rect x="0" y="4" width="1" height="1" fill="#231f20"/>
    <rect x="20" y="4" width="1" height="1" fill="#231f20"/>
    <rect x="140" y="4" width="1" height="1" fill="#231f20"/>
    <rect x="0" y="5" width="1" height="1" fill="#231f20"/>
    <rect x="20" y="5" width="1" height="1" fill="#231f20"/>
    <rect x="140" y="5" width="1" height="1" fill="#231f20"/>
    <rect x="0" y="6" width="1" height="1" fill="#231f20"/>
    <rect x="20" y="6" width="1" height="1" fill="#231f20"/>
    <rect x="140" y="6" width="1" height="1" fill="#231f20"/>
    <rect x="0" y="7" width="1" height="1" fill="#231f20"/>
    <rect x="20" y="7" width="1" height="1" fill="#231f20"/>
    <rect x="140" y="7" width="1" height="1" fill="#231f20"/>
    <rect x="0" y="8" width="1" height="1" fill="#231f20"/>
    <rect x="20" y="8" width="1" height="1" fill="#231f20"/>
    <rect x="140" y="8" width="1" height="1" fill="#231f20"/>
    <rect x="0" y="9" width="1" height="1" fill="#231f20"/>
    <rect x="20" y="9" width="1" height="1" fill="#231f20"/>
    <rect x="140" y="9" width="1" height="1" fill="#231f20"/>
    <rect x="0" y="10" width="1" height="1" fill="#231f20"/>
    <rect x="20" y="10" width="1" height="1" fill="#231f20"/>
    <rect x="61" y="10" width="3" height="1" fill="#231f20"/>
    <rect x="83" y="10" width="3" height="1" fill="#231f20"/>
    <rect x="106" y="10" width="2" height="1" fill="#231f20"/>
    <rect x="140" y="10" width="1" height="1" fill="#231f20"/>
    <rect x="0" y="11" width="1" height="1" fill="#231f20"/>
    <rect x="20" y="11" width="1" height="1" fill="#231f20"/>
    <rect x="60" y="11" width="4" height="1" fill="#231f20"/>
    <rect x="83" y="11" width="4" height="1" fill="#231f20"/>
    <rect x="105" y="11" width="4" height="1" fill="#231f20"/>
    <rect x="140" y="11" width="1" height="1" fill="#231f20"/>
    <rect x="0" y="12" width="1" height="1" fill="#231f20"/>
    <rect x="20" y="12" width="1" height="1" fill="#231f20"/>
    <rect x="60" y="12" width="4" height="1" fill="#231f20"/>
    <rect x="83" y="12" width="4" height="1" fill="#231f20"/>
    <rect x="105" y="12" width="4" height="1" fill="#231f20"/>
    <rect x="140" y="12" width="1" height="1" fill="#231f20"/>
    <rect x="0" y="13" width="1" height="1" fill="#231f20"/>
    <rect x="20" y="13" width="1" height="1" fill="#231f20"/>
    <rect x="60" y="13" width="4" height="1" fill="#231f20"/>
    <rect x="83" y="13" width="4" height="1" fill="#231f20"/>
    <rect x="105" y="13" width="4" height="1" fill="#231f20"/>
    <rect x="140" y="13" width="1" height="1" fill="#231f20"/>
    <rect x="0" y="14" width="1" height="1" fill="#231f20"/>
    <rect x="20" y="14" width="1" height="1" fill="#231f20"/>
    <rect x="140" y="14" width="1" height="1" fill="#231f20"/>
    <rect x="0" y="15" width="1" height="1" fill="#231f20"/>
    <rect x="20" y="15" width="1" height="1" fill="#231f20"/>
    <rect x="140" y="15" width="1" height="1" fill="#231f20"/>
    <rect x="0" y="16" width="1" height="1" fill="#231f20"/>
    <rect x="20" y="16" width="1" height="1" fill="#231f20"/>
    <rect x="140" y="16" width="1" height="1" fill="#231f20"/>
    <rect x="0" y="17" width="1" height="1" fill="#231f20"/>
    <rect x="20" y="17" width="1" height="1" fill="#231f20"/>
    <rect x="140" y="17" width="1" height="1" fill="#231f20"/>
    <rect x="0" y="18" width="1" height="1" fill="#231f20"/>
    <rect x="20" y="18" width="1" height="1" fill="#231f20"/>
    <rect x="140" y="18" width="1" height="1" fill="#231f20"/>
    <rect x="0" y="19" width="1" height="1" fill="#231f20"/>
    <rect x="20" y="19" width="1" height="1" fill="#231f20"/>
    <rect x="140" y="19" width="1" height="1" fill="#231f20"/>
    <rect x="0" y="20" width="1" height="1" fill="#231f20"/>
    <rect x="20" y="20" width="1" height="1" fill="#231f20"/>
    <rect x="140" y="20" width="1" height="1" fill="#231f20"/>
    <rect x="0" y="21" width="1" height="1" fill="#231f20"/>
    <rect x="20" y="21" width="1" height="1" fill="#231f20"/>
    <rect x="140" y="21" width="1" height="1" fill="#231f20"/>
    <rect x="0" y="22" width="1" height="1" fill="#231f20"/>
    <rect x="20" y="22" width="1" height="1" fill="#231f20"/>
    <rect x="140" y="22" width="1" height="1" fill="#231f20"/>
    <rect x="0" y="23" width="141" height="1" fill="#231f20"/>
    <rect x="0" y="24" width="1" height="1" fill="#231f20"/>
    <rect x="121" y="24" width="1" height="1" fill="#231f20"/>
    <rect x="140" y="24" width="1" height="1" fill="#231f20"/>
    <rect x="0" y="25" width="1" height="1" fill="#231f20"/>
    <rect x="121" y="25" width="1" height="1" fill="#231f20"/>
    <rect x="140" y="25" width="1" height="1" fill="#231f20"/>
    <rect x="0" y="26" width="1" height="1" fill="#231f20"/>
    <rect x="121" y="26" width="1" height="1" fill="#231f20"/>
    <rect x="140" y="26" width="1" height="1" fill="#231f20"/>
    <rect x="0" y="27" width="1" height="1" fill="#231f20"/>
    <rect x="121" y="27" width="1" height="1" fill="#231f20"/>
    <rect x="140" y="27" width="1" height="1" fill="#231f20"/>
    <rect x="0" y="28" width="1" height="1" fill="#231f20"/>
    <rect x="121" y="28" width="1" height="1" fill="#231f20"/>
    <rect x="140" y="28" width="1" height="1" fill="#231f20"/>
    <rect x="0" y="29" width="1" height="1" fill="#231f20"/>
    <rect x="121" y="29" width="1" height="1" fill="#231f20"/>
    <rect x="140" y="29" width="1" height="1" fill="#231f20"/>
    <rect x="0" y="30" width="1" height="1" fill="#231f20"/>
    <rect x="121" y="30" width="1" height="1" fill="#231f20"/>
    <rect x="140" y="30" width="1" height="1" fill="#231f20"/>
    <rect x="0" y="31" width="1" height="1" fill="#231f20"/>
    <rect x="121" y="31" width="1" height="1" fill="#231f20"/>
    <rect x="140" y="31" width="1" height="1" fill="#231f20"/>
    <rect x="0" y="32" width="1" height="1" fill="#231f20"/>
    <rect x="34" y="32" width="1" height="1" fill="#231f20"/>
    <rect x="56" y="32" width="1" height="1" fill="#231f20"/>
    <rect x="79" y="32" width="1" height="1" fill="#231f20"/>
    <rect x="121" y="32" width="1" height="1" fill="#231f20"/>
    <rect x="140" y="32" width="1" height="1" fill="#231f20"/>
    <rect x="0" y="33" width="1" height="1" fill="#231f20"/>
    <rect x="32" y="33" width="4" height="1" fill="#231f20"/>
    <rect x="55" y="33" width="4" height="1" fill="#231f20"/>
    <rect x="77" y="33" width="4" height="1" fill="#231f20"/>
    <rect x="121" y="33" width="1" height="1" fill="#231f20"/>
    <rect x="140" y="33" width="1" height="1" fill="#231f20"/>
    <rect x="0" y="34" width="1" height="1" fill="#231f20"/>
    <rect x="32" y="34" width="4" height="1" fill="#231f20"/>
    <rect x="54" y="34" width="5" height="1" fill="#231f20"/>
    <rect x="77" y="34" width="4" height="1" fill="#231f20"/>
    <rect x="121" y="34" width="1" height="1" fill="#231f20"/>
    <rect x="140" y="34" width="1" height="1" fill="#231f20"/>
    <rect x="0" y="35" width="1" height="1" fill="#231f20"/>
    <rect x="32" y="35" width="4" height="1" fill="#231f20"/>
    <rect x="55" y="35" width="4" height="1" fill="#231f20"/>
    <rect x="77" y="35" width="4" height="1" fill="#231f20"/>
    <rect x="121" y="35" width="1" height="1" fill="#231f20"/>
    <rect x="140" y="35" width="1" height="1" fill="#231f20"/>
    <rect x="0" y="36" width="1" height="1" fill="#231f20"/>
    <rect x="33" y="36" width="3" height="1" fill="#231f20"/>
    <rect x="55" y="36" width="3" height="1" fill="#231f20"/>
    <rect x="78" y="36" width="2" height="1" fill="#231f20"/>
    <rect x="121" y="36" width="1" height="1" fill="#231f20"/>
    <rect x="140" y="36" width="1" height="1" fill="#231f20"/>
    <rect x="0" y="37" width="1" height="1" fill="#231f20"/>
    <rect x="121" y="37" width="1" height="1" fill="#231f20"/>
    <rect x="140" y="37" width="1" height="1" fill="#231f20"/>
    <rect x="0" y="38" width="1" height="1" fill="#231f20"/>
    <rect x="121" y="38" width="1" height="1" fill="#231f20"/>
    <rect x="140" y="38" width="1" height="1" fill="#231f20"/>
    <rect x="0" y="39" width="1" height="1" fill="#231f20"/>
    <rect x="121" y="39" width="1" height="1" fill="#231f20"/>
    <rect x="140" y="39" width="1" height="1" fill="#231f20"/>
    <rect x="0" y="40" width="1" height="1" fill="#231f20"/>
    <rect x="121" y="40" width="1" height="1" fill="#231f20"/>
    <rect x="140" y="40" width="1" height="1" fill="#231f20"/>
    <rect x="0" y="41" width="1" height="1" fill="#231f20"/>
    <rect x="121" y="41" width="1" height="1" fill="#231f20"/>
    <rect x="140" y="41" width="1" height="1" fill="#231f20"/>
    <rect x="0" y="42" width="1" height="1" fill="#231f20"/>
    <rect x="121" y="42" width="1" height="1" fill="#231f20"/>
    <rect x="140" y="42" width="1" height="1" fill="#231f20"/>
    <rect x="0" y="43" width="1" height="1" fill="#231f20"/>
    <rect x="121" y="43" width="1" height="1" fill="#231f20"/>
    <rect x="140" y="43" width="1" height="1" fill="#231f20"/>
    <rect x="0" y="44" width="1" height="1" fill="#231f20"/>
    <rect x="121" y="44" width="1" height="1" fill="#231f20"/>
    <rect x="140" y="44" width="1" height="1" fill="#231f20"/>
    <rect x="0" y="45" width="141" height="1" fill="#231f20"/>
    <rect x="0" y="46" width="1" height="1" fill="#231f20"/>
    <rect x="20" y="46" width="1" height="1" fill="#231f20"/>
    <rect x="140" y="46" width="1" height="1" fill="#231f20"/>
    <rect x="0" y="47" width="1" height="1" fill="#231f20"/>
    <rect x="20" y="47" width="1" height="1" fill="#231f20"/>
    <rect x="140" y="47" width="1" height="1" fill="#231f20"/>
    <rect x="0" y="48" width="1" height="1" fill="#231f20"/>
    <rect x="20" y="48" width="1" height="1" fill="#231f20"/>
    <rect x="140" y="48" width="1" height="1" fill="#231f20"/>
    <rect x="0" y="49" width="1" height="1" fill="#231f20"/>
    <rect x="20" y="49" width="1" height="1" fill="#231f20"/>
    <rect x="140" y="49" width="1" height="1" fill="#231f20"/>
    <rect x="0" y="50" width="1" height="1" fill="#231f20"/>
    <rect x="20" y="50" width="1" height="1" fill="#231f20"/>
    <rect x="140" y="50" width="1" height="1" fill="#231f20"/>
    <rect x="0" y="51" width="1" height="1" fill="#231f20"/>
    <rect x="20" y="51" width="1" height="1" fill="#231f20"/>
    <rect x="140" y="51" width="1" height="1" fill="#231f20"/>
    <rect x="0" y="52" width="1" height="1" fill="#231f20"/>
    <rect x="20" y="52" width="1" height="1" fill="#231f20"/>
    <rect x="140" y="52" width="1" height="1" fill="#231f20"/>
    <rect x="0" y="53" width="1" height="1" fill="#231f20"/>
    <rect x="20" y="53" width="1" height="1" fill="#231f20"/>
    <rect x="140" y="53" width="1" height="1" fill="#231f20"/>
    <rect x="0" y="54" width="1" height="1" fill="#231f20"/>
    <rect x="20" y="54" width="1" height="1" fill="#231f20"/>
    <rect x="140" y="54" width="1" height="1" fill="#231f20"/>
    <rect x="0" y="55" width="1" height="1" fill="#231f20"/>
    <rect x="20" y="55" width="1" height="1" fill="#231f20"/>
    <rect x="61" y="55" width="3" height="1" fill="#231f20"/>
    <rect x="83" y="55" width="3" height="1" fill="#231f20"/>
    <rect x="106" y="55" width="2" height="1" fill="#231f20"/>
    <rect x="140" y="55" width="1" height="1" fill="#231f20"/>
    <rect x="0" y="56" width="1" height="1" fill="#231f20"/>
    <rect x="20" y="56" width="1" height="1" fill="#231f20"/>
    <rect x="60" y="56" width="4" height="1" fill="#231f20"/>
    <rect x="83" y="56" width="4" height="1" fill="#231f20"/>
    <rect x="105" y="56" width="4" height="1" fill="#231f20"/>
    <rect x="140" y="56" width="1" height="1" fill="#231f20"/>
    <rect x="0" y="57" width="1" height="1" fill="#231f20"/>
    <rect x="20" y="57" width="1" height="1" fill="#231f20"/>
    <rect x="60" y="57" width="4" height="1" fill="#231f20"/>
    <rect x="83" y="57" width="4" height="1" fill="#231f20"/>
    <rect x="105" y="57" width="4" height="1" fill="#231f20"/>
    <rect x="140" y="57" width="1" height="1" fill="#231f20"/>
    <rect x="0" y="58" width="1" height="1" fill="#231f20"/>
    <rect x="20" y="58" width="1" height="1" fill="#231f20"/>
    <rect x="61" y="58" width="3" height="1" fill="#231f20"/>
    <rect x="83" y="58" width="3" height="1" fill="#231f20"/>
    <rect x="106" y="58" width="2" height="1" fill="#231f20"/>
    <rect x="140" y="58" width="1" height="1" fill="#231f20"/>
    <rect x="0" y="59" width="1" height="1" fill="#231f20"/>
    <rect x="20" y="59" width="1" height="1" fill="#231f20"/>
    <rect x="140" y="59" width="1" height="1" fill="#231f20"/>
    <rect x="0" y="60" width="1" height="1" fill="#231f20"/>
    <rect x="20" y="60" width="1" height="1" fill="#231f20"/>
    <rect x="140" y="60" width="1" height="1" fill="#231f20"/>
    <rect x="0" y="61" width="1" height="1" fill="#231f20"/>
    <rect x="20" y="61" width="1" height="1" fill="#231f20"/>
    <rect x="140" y="61" width="1" height="1" fill="#231f20"/>
    <rect x="0" y="62" width="1" height="1" fill="#231f20"/>
    <rect x="20" y="62" width="1" height="1" fill="#231f20"/>
    <rect x="140" y="62" width="1" height="1" fill="#231f20"/>
    <rect x="0" y="63" width="1" height="1" fill="#231f20"/>
    <rect x="20" y="63" width="1" height="1" fill="#231f20"/>
    <rect x="140" y="63" width="1" height="1" fill="#231f20"/>
    <rect x="0" y="64" width="1" height="1" fill="#231f20"/>
    <rect x="20" y="64" width="1" height="1" fill="#231f20"/>
    <rect x="140" y="64" width="1" height="1" fill="#231f20"/>
    <rect x="0" y="65" width="1" height="1" fill="#231f20"/>
    <rect x="20" y="65" width="1" height="1" fill="#231f20"/>
    <rect x="140" y="65" width="1" height="1" fill="#231f20"/>
    <rect x="0" y="66" width="1" height="1" fill="#231f20"/>
    <rect x="20" y="66" width="1" height="1" fill="#231f20"/>
    <rect x="140" y="66" width="1" height="1" fill="#231f20"/>
    <rect x="0" y="67" width="1" height="1" fill="#231f20"/>
    <rect x="20" y="67" width="1" height="1" fill="#231f20"/>
    <rect x="140" y="67" width="1" height="1" fill="#231f20"/>
    <rect x="0" y="68" width="141" height="1" fill="#231f20"/>
  </g>
</svg>