<?xml version="1.0" encoding="UTF-8"?>
<svg xmlns="http://www.w3.org/2000/svg" viewBox="0 0 153 62" width="153" height="62">
  <!-- Auto-converted from legend-1889.png -->
  <rect x="0" y="0" width="153" height="62" fill="none"/>
  <g fill="#231f20" stroke="none">
    <rect x="0" y="0" width="153" height="1" fill="#231f20"/>
    <rect x="0" y="1" width="1" height="1" fill="#231f20"/>
    <rect x="152" y="1" width="1" height="1" fill="#231f20"/>
    <rect x="0" y="2" width="1" height="1" fill="#231f20"/>
    <rect x="152" y="2" width="1" height="1" fill="#231f20"/>
    <rect x="0" y="3" width="1" height="1" fill="#231f20"/>
    <rect x="152" y="3" width="1" height="1" fill="#231f20"/>
    <rect x="0" y="4" width="1" height="1" fill="#231f20"/>
    <rect x="152" y="4" width="1" height="1" fill="#231f20"/>
    <rect x="0" y="5" width="1" height="1" fill="#231f20"/>
    <rect x="21" y="5" width="1" height="1" fill="#231f20"/>
    <rect x="120" y="5" width="1" height="1" fill="#231f20"/>
    <rect x="152" y="5" width="1" height="1" fill="#231f20"/>
    <rect x="0" y="6" width="1" height="1" fill="#231f20"/>
    <rect x="21" y="6" width="3" height="1" fill="#231f20"/>
    <rect x="86" y="6" width="1" height="1" fill="#231f20"/>
    <rect x="118" y="6" width="3" height="1" fill="#231f20"/>
    <rect x="152" y="6" width="1" height="1" fill="#231f20"/>
    <rect x="0" y="7" width="1" height="1" fill="#231f20"/>
    <rect x="21" y="7" width="1" height="1" fill="#231f20"/>
    <rect x="24" y="7" width="2" height="1" fill="#231f20"/>
    <rect x="52" y="7" width="3" height="1" fill="#231f20"/>
    <rect x="56" y="7" width="3" height="1" fill="#231f20"/>
    <rect x="85" y="7" width="1" height="1" fill="#231f20"/>
    <rect x="87" y="7" width="1" height="1" fill="#231f20"/>
    <rect x="116" y="7" width="2" height="1" fill="#231f20"/>
    <rect x="120" y="7" width="1" height="1" fill="#231f20"/>
    <rect x="152" y="7" width="1" height="1" fill="#231f20"/>
    <rect x="0" y="8" width="1" height="1" fill="#231f20"/>
    <rect x="21" y="8" width="1" height="1" fill="#231f20"/>
    <rect x="26" y="8" width="1" height="1" fill="#231f20"/>
    <rect x="53" y="8" width="2" height="1" fill="#231f20"/>
    <rect x="56" y="8" width="2" height="1" fill="#231f20"/>
    <rect x="85" y="8" width="1" height="1" fill="#231f20"/>
    <rect x="87" y="8" width="1" height="1" fill="#231f20"/>
    <rect x="114" y="8" width="2" height="1" fill="#231f20"/>
    <rect x="120" y="8" width="1" height="1" fill="#231f20"/>
    <rect x="152" y="8" width="1" height="1" fill="#231f20"/>
    <rect x="0" y="9" width="1" height="1" fill="#231f20"/>
    <rect x="21" y="9" width="1" height="1" fill="#231f20"/>
    <rect x="27" y="9" width="2" height="1" fill="#231f20"/>
    <rect x="53" y="9" width="2" height="1" fill="#231f20"/>
    <rect x="56" y="9" width="2" height="1" fill="#231f20"/>
    <rect x="84" y="9" width="1" height="1" fill="#231f20"/>
    <rect x="88" y="9" width="1" height="1" fill="#231f20"/>
    <rect x="112" y="9" width="2" height="1" fill="#231f20"/>
    <rect x="120" y="9" width="1" height="1" fill="#231f20"/>
    <rect x="152" y="9" width="1" height="1" fill="#231f20"/>
    <rect x="0" y="10" width="1" height="1" fill="#231f20"/>
    <rect x="21" y="10" width="1" height="1" fill="#231f20"/>
    <rect x="29" y="10" width="1" height="1" fill="#231f20"/>
    <rect x="53" y="10" width="2" height="1" fill="#231f20"/>
    <rect x="56" y="10" width="2" height="1" fill="#231f20"/>
    <rect x="84" y="10" width="1" height="1" fill="#231f20"/>
    <rect x="89" y="10" width="1" height="1" fill="#231f20"/>
    <rect x="111" y="10" width="1" height="1" fill="#231f20"/>
    <rect x="120" y="10" width="1" height="1" fill="#231f20"/>
    <rect x="152" y="10" width="1" height="1" fill="#231f20"/>
    <rect x="0" y="11" width="1" height="1" fill="#231f20"/>
    <rect x="21" y="11" width="1" height="1" fill="#231f20"/>
    <rect x="27" y="11" width="2" height="1" fill="#231f20"/>
    <rect x="53" y="11" width="1" height="1" fill="#231f20"/>
    <rect x="55" y="11" width="1" height="1" fill="#231f20"/>
    <rect x="57" y="11" width="1" height="1" fill="#231f20"/>
    <rect x="83" y="11" width="1" height="1" fill="#231f20"/>
    <rect x="89" y="11" width="1" height="1" fill="#231f20"/>
    <rect x="112" y="11" width="2" height="1" fill="#231f20"/>
    <rect x="120" y="11" width="1" height="1" fill="#231f20"/>
    <rect x="152" y="11" width="1" height="1" fill="#231f20"/>
    <rect x="0" y="12" width="1" height="1" fill="#231f20"/>
    <rect x="21" y="12" width="1" height="1" fill="#231f20"/>
    <rect x="25" y="12" width="2" height="1" fill="#231f20"/>
    <rect x="53" y="12" width="1" height="1" fill="#231f20"/>
    <rect x="55" y="12" width="1" height="1" fill="#231f20"/>
    <rect x="57" y="12" width="1" height="1" fill="#231f20"/>
    <rect x="82" y="12" width="1" height="1" fill="#231f20"/>
    <rect x="90" y="12" width="1" height="1" fill="#231f20"/>
    <rect x="114" y="12" width="2" height="1" fill="#231f20"/>
    <rect x="120" y="12" width="1" height="1" fill="#231f20"/>
    <rect x="152" y="12" width="1" height="1" fill="#231f20"/>
    <rect x="0" y="13" width="1" height="1" fill="#231f20"/>
    <rect x="21" y="13" width="1" height="1" fill="#231f20"/>
    <rect x="24" y="13" width="1" height="1" fill="#231f20"/>
    <rect x="53" y="13" width="1" height="1" fill="#231f20"/>
    <rect x="55" y="13" width="1" height="1" fill="#231f20"/>
    <rect x="57" y="13" width="1" height="1" fill="#231f20"/>
    <rect x="82" y="13" width="1" height="1" fill="#231f20"/>
    <rect x="90" y="13" width="1" height="1" fill="#231f20"/>
    <rect x="116" y="13" width="2" height="1" fill="#231f20"/>
    <rect x="120" y="13" width="1" height="1" fill="#231f20"/>
    <rect x="152" y="13" width="1" height="1" fill="#231f20"/>
    <rect x="0" y="14" width="1" height="1" fill="#231f20"/>
    <rect x="21" y="14" width="3" height="1" fill="#231f20"/>
    <rect x="53" y="14" width="1" height="1" fill="#231f20"/>
    <rect x="55" y="14" width="1" height="1" fill="#231f20"/>
    <rect x="57" y="14" width="1" height="1" fill="#231f20"/>
    <rect x="81" y="14" width="11" height="1" fill="#231f20"/>
    <rect x="118" y="14" width="3" height="1" fill="#231f20"/>
    <rect x="152" y="14" width="1" height="1" fill="#231f20"/>
    <rect x="0" y="15" width="1" height="1" fill="#231f20"/>
    <rect x="21" y="15" width="1" height="1" fill="#231f20"/>
    <rect x="52" y="15" width="2" height="1" fill="#231f20"/>
    <rect x="55" y="15" width="1" height="1" fill="#231f20"/>
    <rect x="57" y="15" width="2" height="1" fill="#231f20"/>
    <rect x="120" y="15" width="1" height="1" fill="#231f20"/>
    <rect x="152" y="15" width="1" height="1" fill="#231f20"/>
    <rect x="0" y="16" width="1" height="1" fill="#231f20"/>
    <rect x="152" y="16" width="1" height="1" fill="#231f20"/>
    <rect x="0" y="17" width="1" height="1" fill="#231f20"/>
    <rect x="152" y="17" width="1" height="1" fill="#231f20"/>
    <rect x="0" y="18" width="1" height="1" fill="#231f20"/>
    <rect x="152" y="18" width="1" height="1" fill="#231f20"/>
    <rect x="0" y="19" width="1" height="1" fill="#231f20"/>
    <rect x="152" y="19" width="1" height="1" fill="#231f20"/>
    <rect x="0" y="20" width="153" height="1" fill="#231f20"/>
    <rect x="0" y="21" width="1" height="1" fill="#231f20"/>
    <rect x="152" y="21" width="1" height="1" fill="#231f20"/>
    <rect x="0" y="22" width="1" height="1" fill="#231f20"/>
    <rect x="152" y="22" width="1" height="1" fill="#231f20"/>
    <rect x="0" y="23" width="1" height="1" fill="#231f20"/>
    <rect x="152" y="23" width="1" height="1" fill="#231f20"/>
    <rect x="0" y="24" width="1" height="1" fill="#231f20"/>
    <rect x="152" y="24" width="1" height="1" fill="#231f20"/>
    <rect x="0" y="25" width="1" height="1" fill="#231f20"/>
    <rect x="31" y="25" width="1" height="1" fill="#231f20"/>
    <rect x="131" y="25" width="1" height="1" fill="#231f20"/>
    <rect x="152" y="25" width="1" height="1" fill="#231f20"/>
    <rect x="0" y="26" width="1" height="1" fill="#231f20"/>
    <rect x="31" y="26" width="3" height="1" fill="#231f20"/>
    <rect x="65" y="26" width="1" height="1" fill="#231f20"/>
    <rect x="129" y="26" width="3" height="1" fill="#231f20"/>
    <rect x="152" y="26" width="1" height="1" fill="#231f20"/>
    <rect x="0" y="27" width="1" height="1" fill="#231f20"/>
    <rect x="31" y="27" width="1" height="1" fill="#231f20"/>
    <rect x="34" y="27" width="2" height="1" fill="#231f20"/>
    <rect x="64" y="27" width="1" height="1" fill="#231f20"/>
    <rect x="66" y="27" width="1" height="1" fill="#231f20"/>
    <rect x="93" y="27" width="3" height="1" fill="#231f20"/>
    <rect x="97" y="27" width="3" height="1" fill="#231f20"/>
    <rect x="127" y="27" width="2" height="1" fill="#231f20"/>
    <rect x="131" y="27" width="1" height="1" fill="#231f20"/>
    <rect x="152" y="27" width="1" height="1" fill="#231f20"/>
    <rect x="0" y="28" width="1" height="1" fill="#231f20"/>
    <rect x="31" y="28" width="1" height="1" fill="#231f20"/>
    <rect x="36" y="28" width="2" height="1" fill="#231f20"/>
    <rect x="64" y="28" width="1" height="1" fill="#231f20"/>
    <rect x="66" y="28" width="1" height="1" fill="#231f20"/>
    <rect x="94" y="28" width="2" height="1" fill="#231f20"/>
    <rect x="97" y="28" width="2" height="1" fill="#231f20"/>
    <rect x="125" y="28" width="2" height="1" fill="#231f20"/>
    <rect x="131" y="28" width="1" height="1" fill="#231f20"/>
    <rect x="152" y="28" width="1" height="1" fill="#231f20"/>
    <rect x="0" y="29" width="1" height="1" fill="#231f20"/>
    <rect x="31" y="29" width="1" height="1" fill="#231f20"/>
    <rect x="38" y="29" width="2" height="1" fill="#231f20"/>
    <rect x="63" y="29" width="1" height="1" fill="#231f20"/>
    <rect x="67" y="29" width="1" height="1" fill="#231f20"/>
    <rect x="94" y="29" width="2" height="1" fill="#231f20"/>
    <rect x="97" y="29" width="2" height="1" fill="#231f20"/>
    <rect x="123" y="29" width="2" height="1" fill="#231f20"/>
    <rect x="131" y="29" width="1" height="1" fill="#231f20"/>
    <rect x="152" y="29" width="1" height="1" fill="#231f20"/>
    <rect x="0" y="30" width="1" height="1" fill="#231f20"/>
    <rect x="31" y="30" width="1" height="1" fill="#231f20"/>
    <rect x="40" y="30" width="1" height="1" fill="#231f20"/>
    <rect x="63" y="30" width="1" height="1" fill="#231f20"/>
    <rect x="68" y="30" width="1" height="1" fill="#231f20"/>
    <rect x="94" y="30" width="2" height="1" fill="#231f20"/>
    <rect x="97" y="30" width="2" height="1" fill="#231f20"/>
    <rect x="122" y="30" width="1" height="1" fill="#231f20"/>
    <rect x="131" y="30" width="1" height="1" fill="#231f20"/>
    <rect x="152" y="30" width="1" height="1" fill="#231f20"/>
    <rect x="0" y="31" width="1" height="1" fill="#231f20"/>
    <rect x="31" y="31" width="1" height="1" fill="#231f20"/>
    <rect x="38" y="31" width="2" height="1" fill="#231f20"/>
    <rect x="62" y="31" width="1" height="1" fill="#231f20"/>
    <rect x="68" y="31" width="1" height="1" fill="#231f20"/>
    <rect x="94" y="31" width="1" height="1" fill="#231f20"/>
    <rect x="96" y="31" width="1" height="1" fill="#231f20"/>
    <rect x="98" y="31" width="1" height="1" fill="#231f20"/>
    <rect x="123" y="31" width="2" height="1" fill="#231f20"/>
    <rect x="131" y="31" width="1" height="1" fill="#231f20"/>
    <rect x="152" y="31" width="1" height="1" fill="#231f20"/>
    <rect x="0" y="32" width="1" height="1" fill="#231f20"/>
    <rect x="31" y="32" width="1" height="1" fill="#231f20"/>
    <rect x="36" y="32" width="2" height="1" fill="#231f20"/>
    <rect x="62" y="32" width="1" height="1" fill="#231f20"/>
    <rect x="69" y="32" width="1" height="1" fill="#231f20"/>
    <rect x="94" y="32" width="1" height="1" fill="#231f20"/>
    <rect x="96" y="32" width="1" height="1" fill="#231f20"/>
    <rect x="98" y="32" width="1" height="1" fill="#231f20"/>
    <rect x="125" y="32" width="2" height="1" fill="#231f20"/>
    <rect x="131" y="32" width="1" height="1" fill="#231f20"/>
    <rect x="152" y="32" width="1" height="1" fill="#231f20"/>
    <rect x="0" y="33" width="1" height="1" fill="#231f20"/>
    <rect x="31" y="33" width="1" height="1" fill="#231f20"/>
    <rect x="34" y="33" width="2" height="1" fill="#231f20"/>
    <rect x="61" y="33" width="1" height="1" fill="#231f20"/>
    <rect x="70" y="33" width="1" height="1" fill="#231f20"/>
    <rect x="94" y="33" width="1" height="1" fill="#231f20"/>
    <rect x="96" y="33" width="1" height="1" fill="#231f20"/>
    <rect x="98" y="33" width="1" height="1" fill="#231f20"/>
    <rect x="127" y="33" width="2" height="1" fill="#231f20"/>
    <rect x="131" y="33" width="1" height="1" fill="#231f20"/>
    <rect x="152" y="33" width="1" height="1" fill="#231f20"/>
    <rect x="0" y="34" width="1" height="1" fill="#231f20"/>
    <rect x="31" y="34" width="3" height="1" fill="#231f20"/>
    <rect x="61" y="34" width="1" height="1" fill="#231f20"/>
    <rect x="70" y="34" width="1" height="1" fill="#231f20"/>
    <rect x="94" y="34" width="1" height="1" fill="#231f20"/>
    <rect x="96" y="34" width="1" height="1" fill="#231f20"/>
    <rect x="98" y="34" width="1" height="1" fill="#231f20"/>
    <rect x="129" y="34" width="3" height="1" fill="#231f20"/>
    <rect x="152" y="34" width="1" height="1" fill="#231f20"/>
    <rect x="0" y="35" width="1" height="1" fill="#231f20"/>
    <rect x="31" y="35" width="1" height="1" fill="#231f20"/>
    <rect x="60" y="35" width="12" height="1" fill="#231f20"/>
    <rect x="93" y="35" width="2" height="1" fill="#231f20"/>
    <rect x="96" y="35" width="1" height="1" fill="#231f20"/>
    <rect x="98" y="35" width="2" height="1" fill="#231f20"/>
    <rect x="131" y="35" width="1" height="1" fill="#231f20"/>
    <rect x="152" y="35" width="1" height="1" fill="#231f20"/>
    <rect x="0" y="36" width="1" height="1" fill="#231f20"/>
    <rect x="152" y="36" width="1" height="1" fill="#231f20"/>
    <rect x="0" y="37" width="1" height="1" fill="#231f20"/>
    <rect x="152" y="37" width="1" height="1" fill="#231f20"/>
    <rect x="0" y="38" width="1" height="1" fill="#231f20"/>
    <rect x="152" y="38" width="1" height="1" fill="#231f20"/>
    <rect x="0" y="39" width="1" height="1" fill="#231f20"/>
    <rect x="152" y="39" width="1" height="1" fill="#231f20"/>
    <rect x="0" y="40" width="153" height="1" fill="#231f20"/>
    <rect x="0" y="41" width="1" height="1" fill="#231f20"/>
    <rect x="152" y="41" width="1" height="1" fill="#231f20"/>
    <rect x="0" y="42" width="1" height="1" fill="#231f20"/>
    <rect x="152" y="42" width="1" height="1" fill="#231f20"/>
    <rect x="0" y="43" width="1" height="1" fill="#231f20"/>
    <rect x="152" y="43" width="1" height="1" fill="#231f20"/>
    <rect x="0" y="44" width="1" height="1" fill="#231f20"/>
    <rect x="152" y="44" width="1" height="1" fill="#231f20"/>
    <rect x="0" y="45" width="1" height="1" fill="#231f20"/>
    <rect x="21" y="45" width="1" height="1" fill="#231f20"/>
    <rect x="120" y="45" width="1" height="1" fill="#231f20"/>
    <rect x="152" y="45" width="1" height="1" fill="#231f20"/>
    <rect x="0" y="46" width="1" height="1" fill="#231f20"/>
    <rect x="21" y="46" width="3" height="1" fill="#231f20"/>
    <rect x="86" y="46" width="1" height="1" fill="#231f20"/>
    <rect x="118" y="46" width="3" height="1" fill="#231f20"/>
    <rect x="152" y="46" width="1" height="1" fill="#231f20"/>
    <rect x="0" y="47" width="1" height="1" fill="#231f20"/>
    <rect x="21" y="47" width="1" height="1" fill="#231f20"/>
    <rect x="24" y="47" width="1" height="1" fill="#231f20"/>
    <rect x="85" y="47" width="1" height="1" fill="#231f20"/>
    <rect x="87" y="47" width="1" height="1" fill="#231f20"/>
    <rect x="117" y="47" width="1" height="1" fill="#231f20"/>
    <rect x="120" y="47" width="1" height="1" fill="#231f20"/>
    <rect x="152" y="47" width="1" height="1" fill="#231f20"/>
    <rect x="0" y="48" width="1" height="1" fill="#231f20"/>
    <rect x="21" y="48" width="1" height="1" fill="#231f20"/>
    <rect x="25" y="48" width="1" height="1" fill="#231f20"/>
    <rect x="52" y="48" width="3" height="1" fill="#231f20"/>
    <rect x="56" y="48" width="3" height="1" fill="#231f20"/>
    <rect x="85" y="48" width="1" height="1" fill="#231f20"/>
    <rect x="87" y="48" width="1" height="1" fill="#231f20"/>
    <rect x="115" y="48" width="2" height="1" fill="#231f20"/>
    <rect x="120" y="48" width="1" height="1" fill="#231f20"/>
    <rect x="152" y="48" width="1" height="1" fill="#231f20"/>
    <rect x="0" y="49" width="1" height="1" fill="#231f20"/>
    <rect x="21" y="49" width="1" height="1" fill="#231f20"/>
    <rect x="26" y="49" width="2" height="1" fill="#231f20"/>
    <rect x="53" y="49" width="2" height="1" fill="#231f20"/>
    <rect x="56" y="49" width="2" height="1" fill="#231f20"/>
    <rect x="84" y="49" width="1" height="1" fill="#231f20"/>
    <rect x="88" y="49" width="1" height="1" fill="#231f20"/>
    <rect x="114" y="49" width="1" height="1" fill="#231f20"/>
    <rect x="120" y="49" width="1" height="1" fill="#231f20"/>
    <rect x="152" y="49" width="1" height="1" fill="#231f20"/>
    <rect x="0" y="50" width="1" height="1" fill="#231f20"/>
    <rect x="21" y="50" width="1" height="1" fill="#231f20"/>
    <rect x="28" y="50" width="1" height="1" fill="#231f20"/>
    <rect x="53" y="50" width="2" height="1" fill="#231f20"/>
    <rect x="56" y="50" width="2" height="1" fill="#231f20"/>
    <rect x="84" y="50" width="1" height="1" fill="#231f20"/>
    <rect x="88" y="50" width="1" height="1" fill="#231f20"/>
    <rect x="112" y="50" width="2" height="1" fill="#231f20"/>
    <rect x="120" y="50" width="1" height="1" fill="#231f20"/>
    <rect x="152" y="50" width="1" height="1" fill="#231f20"/>
    <rect x="0" y="51" width="1" height="1" fill="#231f20"/>
    <rect x="21" y="51" width="1" height="1" fill="#231f20"/>
    <rect x="29" y="51" width="1" height="1" fill="#231f20"/>
    <rect x="53" y="51" width="2" height="1" fill="#231f20"/>
    <rect x="56" y="51" width="2" height="1" fill="#231f20"/>
    <rect x="83" y="51" width="1" height="1" fill="#231f20"/>
    <rect x="89" y="51" width="1" height="1" fill="#231f20"/>
    <rect x="111" y="51" width="1" height="1" fill="#231f20"/>
    <rect x="120" y="51" width="1" height="1" fill="#231f20"/>
    <rect x="152" y="51" width="1" height="1" fill="#231f20"/>
    <rect x="0" y="52" width="1" height="1" fill="#231f20"/>
    <rect x="21" y="52" width="1" height="1" fill="#231f20"/>
    <rect x="27" y="52" width="2" height="1" fill="#231f20"/>
    <rect x="53" y="52" width="1" height="1" fill="#231f20"/>
    <rect x="55" y="52" width="1" height="1" fill="#231f20"/>
    <rect x="57" y="52" width="1" height="1" fill="#231f20"/>
    <rect x="83" y="52" width="1" height="1" fill="#231f20"/>
    <rect x="89" y="52" width="1" height="1" fill="#231f20"/>
    <rect x="112" y="52" width="2" height="1" fill="#231f20"/>
    <rect x="120" y="52" width="1" height="1" fill="#231f20"/>
    <rect x="152" y="52" width="1" height="1" fill="#231f20"/>
    <rect x="0" y="53" width="1" height="1" fill="#231f20"/>
    <rect x="21" y="53" width="1" height="1" fill="#231f20"/>
    <rect x="25" y="53" width="2" height="1" fill="#231f20"/>
    <rect x="53" y="53" width="1" height="1" fill="#231f20"/>
    <rect x="55" y="53" width="1" height="1" fill="#231f20"/>
    <rect x="57" y="53" width="1" height="1" fill="#231f20"/>
    <rect x="82" y="53" width="1" height="1" fill="#231f20"/>
    <rect x="90" y="53" width="1" height="1" fill="#231f20"/>
    <rect x="114" y="53" width="2" height="1" fill="#231f20"/>
    <rect x="120" y="53" width="1" height="1" fill="#231f20"/>
    <rect x="152" y="53" width="1" height="1" fill="#231f20"/>
    <rect x="0" y="54" width="1" height="1" fill="#231f20"/>
    <rect x="21" y="54" width="1" height="1" fill="#231f20"/>
    <rect x="24" y="54" width="1" height="1" fill="#231f20"/>
    <rect x="53" y="54" width="1" height="1" fill="#231f20"/>
    <rect x="55" y="54" width="1" height="1" fill="#231f20"/>
    <rect x="57" y="54" width="1" height="1" fill="#231f20"/>
    <rect x="82" y="54" width="1" height="1" fill="#231f20"/>
    <rect x="90" y="54" width="1" height="1" fill="#231f20"/>
    <rect x="116" y="54" width="2" height="1" fill="#231f20"/>
    <rect x="120" y="54" width="1" height="1" fill="#231f20"/>
    <rect x="152" y="54" width="1" height="1" fill="#231f20"/>
    <rect x="0" y="55" width="1" height="1" fill="#231f20"/>
    <rect x="21" y="55" width="3" height="1" fill="#231f20"/>
    <rect x="53" y="55" width="1" height="1" fill="#231f20"/>
    <rect x="55" y="55" width="1" height="1" fill="#231f20"/>
    <rect x="57" y="55" width="1" height="1" fill="#231f20"/>
    <rect x="81" y="55" width="11" height="1" fill="#231f20"/>
    <rect x="118" y="55" width="3" height="1" fill="#231f20"/>
    <rect x="152" y="55" width="1" height="1" fill="#231f20"/>
    <rect x="0" y="56" width="1" height="1" fill="#231f20"/>
    <rect x="21" y="56" width="1" height="1" fill="#231f20"/>
    <rect x="52" y="56" width="2" height="1" fill="#231f20"/>
    <rect x="55" y="56" width="1" height="1" fill="#231f20"/>
    <rect x="57" y="56" width="2" height="1" fill="#231f20"/>
    <rect x="120" y="56" width="1" height="1" fill="#231f20"/>
    <rect x="152" y="56" width="1" height="1" fill="#231f20"/>
    <rect x="0" y="57" width="1" height="1" fill="#231f20"/>
    <rect x="152" y="57" width="1" height="1" fill="#231f20"/>
    <rect x="0" y="58" width="1" height="1" fill="#231f20"/>
    <rect x="152" y="58" width="1" height="1" fill="#231f20"/>
    <rect x="0" y="59" width="1" height="1" fill="#231f20"/>
    <rect x="152" y="59" width="1" height="1" fill="#231f20"/>
    <rect x="0" y="60" width="1" height="1" fill="#231f20"/>
    <rect x="152" y="60" width="1" height="1" fill="#231f20"/>
    <rect x="0" y="61" width="153" height="1" fill="#231f20"/>
  </g>
</svg>