<?xml version="1.0" encoding="UTF-8"?>
<svg xmlns="http://www.w3.org/2000/svg" viewBox="0 0 118 79" width="118" height="79">
  <!-- Auto-converted from legend-2640.png -->
  <rect x="0" y="0" width="118" height="79" fill="none"/>
  <g fill="#231f20" stroke="none">
    <rect x="0" y="0" width="118" height="1" fill="#231f20"/>
    <rect x="0" y="1" width="1" height="1" fill="#231f20"/>
    <rect x="117" y="1" width="1" height="1" fill="#231f20"/>
    <rect x="0" y="2" width="1" height="1" fill="#231f20"/>
    <rect x="117" y="2" width="1" height="1" fill="#231f20"/>
    <rect x="0" y="3" width="1" height="1" fill="#231f20"/>
    <rect x="117" y="3" width="1" height="1" fill="#231f20"/>
    <rect x="0" y="4" width="1" height="1" fill="#231f20"/>
    <rect x="117" y="4" width="1" height="1" fill="#231f20"/>
    <rect x="0" y="5" width="1" height="1" fill="#231f20"/>
    <rect x="68" y="5" width="6" height="1" fill="#231f20"/>
    <rect x="117" y="5" width="1" height="1" fill="#231f20"/>
    <rect x="0" y="6" width="1" height="1" fill="#231f20"/>
    <rect x="62" y="6" width="6" height="1" fill="#231f20"/>
    <rect x="72" y="6" width="1" height="1" fill="#231f20"/>
    <rect x="74" y="6" width="5" height="1" fill="#231f20"/>
    <rect x="117" y="6" width="1" height="1" fill="#231f20"/>
    <rect x="0" y="7" width="1" height="1" fill="#231f20"/>
    <rect x="58" y="7" width="4" height="1" fill="#231f20"/>
    <rect x="65" y="7" width="1" height="1" fill="#231f20"/>
    <rect x="72" y="7" width="1" height="1" fill="#231f20"/>
    <rect x="79" y="7" width="4" height="1" fill="#231f20"/>
    <rect x="117" y="7" width="1" height="1" fill="#231f20"/>
    <rect x="0" y="8" width="1" height="1" fill="#231f20"/>
    <rect x="54" y="8" width="4" height="1" fill="#231f20"/>
    <rect x="65" y="8" width="1" height="1" fill="#231f20"/>
    <rect x="72" y="8" width="1" height="1" fill="#231f20"/>
    <rect x="80" y="8" width="1" height="1" fill="#231f20"/>
    <rect x="83" y="8" width="2" height="1" fill="#231f20"/>
    <rect x="117" y="8" width="1" height="1" fill="#231f20"/>
    <rect x="0" y="9" width="1" height="1" fill="#231f20"/>
    <rect x="51" y="9" width="3" height="1" fill="#231f20"/>
    <rect x="57" y="9" width="1" height="1" fill="#231f20"/>
    <rect x="65" y="9" width="1" height="1" fill="#231f20"/>
    <rect x="72" y="9" width="1" height="1" fill="#231f20"/>
    <rect x="80" y="9" width="1" height="1" fill="#231f20"/>
    <rect x="85" y="9" width="2" height="1" fill="#231f20"/>
    <rect x="117" y="9" width="1" height="1" fill="#231f20"/>
    <rect x="0" y="10" width="1" height="1" fill="#231f20"/>
    <rect x="50" y="10" width="1" height="1" fill="#231f20"/>
    <rect x="57" y="10" width="1" height="1" fill="#231f20"/>
    <rect x="65" y="10" width="1" height="1" fill="#231f20"/>
    <rect x="72" y="10" width="1" height="1" fill="#231f20"/>
    <rect x="80" y="10" width="1" height="1" fill="#231f20"/>
    <rect x="86" y="10" width="2" height="1" fill="#231f20"/>
    <rect x="117" y="10" width="1" height="1" fill="#231f20"/>
    <rect x="0" y="11" width="1" height="1" fill="#231f20"/>
    <rect x="47" y="11" width="3" height="1" fill="#231f20"/>
    <rect x="57" y="11" width="1" height="1" fill="#231f20"/>
    <rect x="65" y="11" width="1" height="1" fill="#231f20"/>
    <rect x="72" y="11" width="1" height="1" fill="#231f20"/>
    <rect x="80" y="11" width="1" height="1" fill="#231f20"/>
    <rect x="88" y="11" width="2" height="1" fill="#231f20"/>
    <rect x="117" y="11" width="1" height="1" fill="#231f20"/>
    <rect x="0" y="12" width="1" height="1" fill="#231f20"/>
    <rect x="46" y="12" width="1" height="1" fill="#231f20"/>
    <rect x="49" y="12" width="1" height="1" fill="#231f20"/>
    <rect x="57" y="12" width="1" height="1" fill="#231f20"/>
    <rect x="65" y="12" width="1" height="1" fill="#231f20"/>
    <rect x="72" y="12" width="1" height="1" fill="#231f20"/>
    <rect x="80" y="12" width="1" height="1" fill="#231f20"/>
    <rect x="88" y="12" width="1" height="1" fill="#231f20"/>
    <rect x="90" y="12" width="1" height="1" fill="#231f20"/>
    <rect x="117" y="12" width="1" height="1" fill="#231f20"/>
    <rect x="0" y="13" width="1" height="1" fill="#231f20"/>
    <rect x="44" y="13" width="2" height="1" fill="#231f20"/>
    <rect x="49" y="13" width="1" height="1" fill="#231f20"/>
    <rect x="57" y="13" width="1" height="1" fill="#231f20"/>
    <rect x="65" y="13" width="1" height="1" fill="#231f20"/>
    <rect x="72" y="13" width="1" height="1" fill="#231f20"/>
    <rect x="80" y="13" width="1" height="1" fill="#231f20"/>
    <rect x="88" y="13" width="1" height="1" fill="#231f20"/>
    <rect x="91" y="13" width="1" height="1" fill="#231f20"/>
    <rect x="117" y="13" width="1" height="1" fill="#231f20"/>
    <rect x="0" y="14" width="1" height="1" fill="#231f20"/>
    <rect x="43" y="14" width="1" height="1" fill="#231f20"/>
    <rect x="49" y="14" width="1" height="1" fill="#231f20"/>
    <rect x="57" y="14" width="1" height="1" fill="#231f20"/>
    <rect x="65" y="14" width="1" height="1" fill="#231f20"/>
    <rect x="72" y="14" width="1" height="1" fill="#231f20"/>
    <rect x="80" y="14" width="1" height="1" fill="#231f20"/>
    <rect x="88" y="14" width="1" height="1" fill="#231f20"/>
    <rect x="91" y="14" width="2" height="1" fill="#231f20"/>
    <rect x="117" y="14" width="1" height="1" fill="#231f20"/>
    <rect x="0" y="15" width="1" height="1" fill="#231f20"/>
    <rect x="41" y="15" width="2" height="1" fill="#231f20"/>
    <rect x="49" y="15" width="1" height="1" fill="#231f20"/>
    <rect x="57" y="15" width="1" height="1" fill="#231f20"/>
    <rect x="65" y="15" width="1" height="1" fill="#231f20"/>
    <rect x="72" y="15" width="1" height="1" fill="#231f20"/>
    <rect x="80" y="15" width="1" height="1" fill="#231f20"/>
    <rect x="88" y="15" width="1" height="1" fill="#231f20"/>
    <rect x="93" y="15" width="1" height="1" fill="#231f20"/>
    <rect x="117" y="15" width="1" height="1" fill="#231f20"/>
    <rect x="0" y="16" width="1" height="1" fill="#231f20"/>
    <rect x="40" y="16" width="2" height="1" fill="#231f20"/>
    <rect x="49" y="16" width="1" height="1" fill="#231f20"/>
    <rect x="57" y="16" width="1" height="1" fill="#231f20"/>
    <rect x="65" y="16" width="1" height="1" fill="#231f20"/>
    <rect x="72" y="16" width="1" height="1" fill="#231f20"/>
    <rect x="80" y="16" width="1" height="1" fill="#231f20"/>
    <rect x="88" y="16" width="1" height="1" fill="#231f20"/>
    <rect x="93" y="16" width="1" height="1" fill="#231f20"/>
    <rect x="117" y="16" width="1" height="1" fill="#231f20"/>
    <rect x="0" y="17" width="1" height="1" fill="#231f20"/>
    <rect x="39" y="17" width="1" height="1" fill="#231f20"/>
    <rect x="41" y="17" width="1" height="1" fill="#231f20"/>
    <rect x="49" y="17" width="1" height="1" fill="#231f20"/>
    <rect x="57" y="17" width="1" height="1" fill="#231f20"/>
    <rect x="65" y="17" width="1" height="1" fill="#231f20"/>
    <rect x="72" y="17" width="1" height="1" fill="#231f20"/>
    <rect x="80" y="17" width="1" height="1" fill="#231f20"/>
    <rect x="88" y="17" width="1" height="1" fill="#231f20"/>
    <rect x="94" y="17" width="1" height="1" fill="#231f20"/>
    <rect x="117" y="17" width="1" height="1" fill="#231f20"/>
    <rect x="0" y="18" width="1" height="1" fill="#231f20"/>
    <rect x="37" y="18" width="2" height="1" fill="#231f20"/>
    <rect x="41" y="18" width="1" height="1" fill="#231f20"/>
    <rect x="49" y="18" width="1" height="1" fill="#231f20"/>
    <rect x="57" y="18" width="1" height="1" fill="#231f20"/>
    <rect x="65" y="18" width="1" height="1" fill="#231f20"/>
    <rect x="72" y="18" width="1" height="1" fill="#231f20"/>
    <rect x="80" y="18" width="1" height="1" fill="#231f20"/>
    <rect x="88" y="18" width="1" height="1" fill="#231f20"/>
    <rect x="94" y="18" width="1" height="1" fill="#231f20"/>
    <rect x="117" y="18" width="1" height="1" fill="#231f20"/>
    <rect x="0" y="19" width="1" height="1" fill="#231f20"/>
    <rect x="36" y="19" width="1" height="1" fill="#231f20"/>
    <rect x="41" y="19" width="1" height="1" fill="#231f20"/>
    <rect x="49" y="19" width="1" height="1" fill="#231f20"/>
    <rect x="57" y="19" width="1" height="1" fill="#231f20"/>
    <rect x="65" y="19" width="1" height="1" fill="#231f20"/>
    <rect x="72" y="19" width="1" height="1" fill="#231f20"/>
    <rect x="80" y="19" width="1" height="1" fill="#231f20"/>
    <rect x="88" y="19" width="1" height="1" fill="#231f20"/>
    <rect x="95" y="19" width="1" height="1" fill="#231f20"/>
    <rect x="117" y="19" width="1" height="1" fill="#231f20"/>
    <rect x="0" y="20" width="1" height="1" fill="#231f20"/>
    <rect x="35" y="20" width="1" height="1" fill="#231f20"/>
    <rect x="41" y="20" width="1" height="1" fill="#231f20"/>
    <rect x="49" y="20" width="1" height="1" fill="#231f20"/>
    <rect x="57" y="20" width="1" height="1" fill="#231f20"/>
    <rect x="65" y="20" width="1" height="1" fill="#231f20"/>
    <rect x="72" y="20" width="1" height="1" fill="#231f20"/>
    <rect x="80" y="20" width="1" height="1" fill="#231f20"/>
    <rect x="88" y="20" width="1" height="1" fill="#231f20"/>
    <rect x="95" y="20" width="1" height="1" fill="#231f20"/>
    <rect x="117" y="20" width="1" height="1" fill="#231f20"/>
    <rect x="0" y="21" width="1" height="1" fill="#231f20"/>
    <rect x="34" y="21" width="1" height="1" fill="#231f20"/>
    <rect x="41" y="21" width="1" height="1" fill="#231f20"/>
    <rect x="49" y="21" width="1" height="1" fill="#231f20"/>
    <rect x="57" y="21" width="1" height="1" fill="#231f20"/>
    <rect x="65" y="21" width="1" height="1" fill="#231f20"/>
    <rect x="72" y="21" width="1" height="1" fill="#231f20"/>
    <rect x="80" y="21" width="1" height="1" fill="#231f20"/>
    <rect x="88" y="21" width="1" height="1" fill="#231f20"/>
    <rect x="95" y="21" width="1" height="1" fill="#231f20"/>
    <rect x="117" y="21" width="1" height="1" fill="#231f20"/>
    <rect x="0" y="22" width="1" height="1" fill="#231f20"/>
    <rect x="33" y="22" width="1" height="1" fill="#231f20"/>
    <rect x="41" y="22" width="1" height="1" fill="#231f20"/>
    <rect x="49" y="22" width="1" height="1" fill="#231f20"/>
    <rect x="57" y="22" width="1" height="1" fill="#231f20"/>
    <rect x="65" y="22" width="1" height="1" fill="#231f20"/>
    <rect x="72" y="22" width="1" height="1" fill="#231f20"/>
    <rect x="80" y="22" width="1" height="1" fill="#231f20"/>
    <rect x="88" y="22" width="1" height="1" fill="#231f20"/>
    <rect x="96" y="22" width="1" height="1" fill="#231f20"/>
    <rect x="117" y="22" width="1" height="1" fill="#231f20"/>
    <rect x="0" y="23" width="1" height="1" fill="#231f20"/>
    <rect x="32" y="23" width="2" height="1" fill="#231f20"/>
    <rect x="41" y="23" width="1" height="1" fill="#231f20"/>
    <rect x="49" y="23" width="1" height="1" fill="#231f20"/>
    <rect x="57" y="23" width="1" height="1" fill="#231f20"/>
    <rect x="65" y="23" width="1" height="1" fill="#231f20"/>
    <rect x="72" y="23" width="1" height="1" fill="#231f20"/>
    <rect x="80" y="23" width="1" height="1" fill="#231f20"/>
    <rect x="88" y="23" width="1" height="1" fill="#231f20"/>
    <rect x="96" y="23" width="1" height="1" fill="#231f20"/>
    <rect x="117" y="23" width="1" height="1" fill="#231f20"/>
    <rect x="0" y="24" width="1" height="1" fill="#231f20"/>
    <rect x="31" y="24" width="1" height="1" fill="#231f20"/>
    <rect x="33" y="24" width="1" height="1" fill="#231f20"/>
    <rect x="41" y="24" width="1" height="1" fill="#231f20"/>
    <rect x="49" y="24" width="1" height="1" fill="#231f20"/>
    <rect x="57" y="24" width="1" height="1" fill="#231f20"/>
    <rect x="65" y="24" width="1" height="1" fill="#231f20"/>
    <rect x="72" y="24" width="1" height="1" fill="#231f20"/>
    <rect x="80" y="24" width="1" height="1" fill="#231f20"/>
    <rect x="88" y="24" width="1" height="1" fill="#231f20"/>
    <rect x="96" y="24" width="1" height="1" fill="#231f20"/>
    <rect x="117" y="24" width="1" height="1" fill="#231f20"/>
    <rect x="0" y="25" width="1" height="1" fill="#231f20"/>
    <rect x="30" y="25" width="1" height="1" fill="#231f20"/>
    <rect x="33" y="25" width="1" height="1" fill="#231f20"/>
    <rect x="41" y="25" width="1" height="1" fill="#231f20"/>
    <rect x="49" y="25" width="1" height="1" fill="#231f20"/>
    <rect x="57" y="25" width="1" height="1" fill="#231f20"/>
    <rect x="65" y="25" width="1" height="1" fill="#231f20"/>
    <rect x="72" y="25" width="1" height="1" fill="#231f20"/>
    <rect x="80" y="25" width="1" height="1" fill="#231f20"/>
    <rect x="88" y="25" width="1" height="1" fill="#231f20"/>
    <rect x="96" y="25" width="2" height="1" fill="#231f20"/>
    <rect x="117" y="25" width="1" height="1" fill="#231f20"/>
    <rect x="0" y="26" width="1" height="1" fill="#231f20"/>
    <rect x="30" y="26" width="1" height="1" fill="#231f20"/>
    <rect x="33" y="26" width="1" height="1" fill="#231f20"/>
    <rect x="41" y="26" width="1" height="1" fill="#231f20"/>
    <rect x="49" y="26" width="1" height="1" fill="#231f20"/>
    <rect x="57" y="26" width="1" height="1" fill="#231f20"/>
    <rect x="65" y="26" width="1" height="1" fill="#231f20"/>
    <rect x="72" y="26" width="1" height="1" fill="#231f20"/>
    <rect x="80" y="26" width="1" height="1" fill="#231f20"/>
    <rect x="88" y="26" width="1" height="1" fill="#231f20"/>
    <rect x="96" y="26" width="2" height="1" fill="#231f20"/>
    <rect x="117" y="26" width="1" height="1" fill="#231f20"/>
    <rect x="0" y="27" width="1" height="1" fill="#231f20"/>
    <rect x="29" y="27" width="1" height="1" fill="#231f20"/>
    <rect x="33" y="27" width="1" height="1" fill="#231f20"/>
    <rect x="41" y="27" width="1" height="1" fill="#231f20"/>
    <rect x="49" y="27" width="1" height="1" fill="#231f20"/>
    <rect x="57" y="27" width="1" height="1" fill="#231f20"/>
    <rect x="65" y="27" width="1" height="1" fill="#231f20"/>
    <rect x="72" y="27" width="1" height="1" fill="#231f20"/>
    <rect x="80" y="27" width="1" height="1" fill="#231f20"/>
    <rect x="88" y="27" width="1" height="1" fill="#231f20"/>
    <rect x="96" y="27" width="2" height="1" fill="#231f20"/>
    <rect x="117" y="27" width="1" height="1" fill="#231f20"/>
    <rect x="0" y="28" width="1" height="1" fill="#231f20"/>
    <rect x="28" y="28" width="1" height="1" fill="#231f20"/>
    <rect x="33" y="28" width="1" height="1" fill="#231f20"/>
    <rect x="41" y="28" width="1" height="1" fill="#231f20"/>
    <rect x="49" y="28" width="1" height="1" fill="#231f20"/>
    <rect x="57" y="28" width="1" height="1" fill="#231f20"/>
    <rect x="65" y="28" width="1" height="1" fill="#231f20"/>
    <rect x="72" y="28" width="1" height="1" fill="#231f20"/>
    <rect x="80" y="28" width="1" height="1" fill="#231f20"/>
    <rect x="88" y="28" width="1" height="1" fill="#231f20"/>
    <rect x="96" y="28" width="2" height="1" fill="#231f20"/>
    <rect x="117" y="28" width="1" height="1" fill="#231f20"/>
    <rect x="0" y="29" width="1" height="1" fill="#231f20"/>
    <rect x="28" y="29" width="1" height="1" fill="#231f20"/>
    <rect x="33" y="29" width="1" height="1" fill="#231f20"/>
    <rect x="41" y="29" width="1" height="1" fill="#231f20"/>
    <rect x="49" y="29" width="1" height="1" fill="#231f20"/>
    <rect x="57" y="29" width="1" height="1" fill="#231f20"/>
    <rect x="65" y="29" width="1" height="1" fill="#231f20"/>
    <rect x="72" y="29" width="1" height="1" fill="#231f20"/>
    <rect x="80" y="29" width="1" height="1" fill="#231f20"/>
    <rect x="88" y="29" width="1" height="1" fill="#231f20"/>
    <rect x="96" y="29" width="2" height="1" fill="#231f20"/>
    <rect x="117" y="29" width="1" height="1" fill="#231f20"/>
    <rect x="0" y="30" width="1" height="1" fill="#231f20"/>
    <rect x="27" y="30" width="1" height="1" fill="#231f20"/>
    <rect x="33" y="30" width="1" height="1" fill="#231f20"/>
    <rect x="41" y="30" width="1" height="1" fill="#231f20"/>
    <rect x="49" y="30" width="1" height="1" fill="#231f20"/>
    <rect x="57" y="30" width="1" height="1" fill="#231f20"/>
    <rect x="65" y="30" width="1" height="1" fill="#231f20"/>
    <rect x="72" y="30" width="1" height="1" fill="#231f20"/>
    <rect x="80" y="30" width="1" height="1" fill="#231f20"/>
    <rect x="88" y="30" width="1" height="1" fill="#231f20"/>
    <rect x="96" y="30" width="2" height="1" fill="#231f20"/>
    <rect x="117" y="30" width="1" height="1" fill="#231f20"/>
    <rect x="0" y="31" width="1" height="1" fill="#231f20"/>
    <rect x="26" y="31" width="1" height="1" fill="#231f20"/>
    <rect x="33" y="31" width="1" height="1" fill="#231f20"/>
    <rect x="41" y="31" width="1" height="1" fill="#231f20"/>
    <rect x="49" y="31" width="1" height="1" fill="#231f20"/>
    <rect x="57" y="31" width="1" height="1" fill="#231f20"/>
    <rect x="65" y="31" width="1" height="1" fill="#231f20"/>
    <rect x="72" y="31" width="1" height="1" fill="#231f20"/>
    <rect x="80" y="31" width="1" height="1" fill="#231f20"/>
    <rect x="88" y="31" width="1" height="1" fill="#231f20"/>
    <rect x="96" y="31" width="2" height="1" fill="#231f20"/>
    <rect x="117" y="31" width="1" height="1" fill="#231f20"/>
    <rect x="0" y="32" width="1" height="1" fill="#231f20"/>
    <rect x="25" y="32" width="1" height="1" fill="#231f20"/>
    <rect x="33" y="32" width="1" height="1" fill="#231f20"/>
    <rect x="41" y="32" width="1" height="1" fill="#231f20"/>
    <rect x="49" y="32" width="1" height="1" fill="#231f20"/>
    <rect x="57" y="32" width="1" height="1" fill="#231f20"/>
    <rect x="65" y="32" width="1" height="1" fill="#231f20"/>
    <rect x="72" y="32" width="1" height="1" fill="#231f20"/>
    <rect x="80" y="32" width="1" height="1" fill="#231f20"/>
    <rect x="88" y="32" width="1" height="1" fill="#231f20"/>
    <rect x="96" y="32" width="2" height="1" fill="#231f20"/>
    <rect x="117" y="32" width="1" height="1" fill="#231f20"/>
    <rect x="0" y="33" width="1" height="1" fill="#231f20"/>
    <rect x="25" y="33" width="1" height="1" fill="#231f20"/>
    <rect x="33" y="33" width="1" height="1" fill="#231f20"/>
    <rect x="41" y="33" width="1" height="1" fill="#231f20"/>
    <rect x="49" y="33" width="1" height="1" fill="#231f20"/>
    <rect x="57" y="33" width="1" height="1" fill="#231f20"/>
    <rect x="65" y="33" width="1" height="1" fill="#231f20"/>
    <rect x="72" y="33" width="1" height="1" fill="#231f20"/>
    <rect x="80" y="33" width="1" height="1" fill="#231f20"/>
    <rect x="88" y="33" width="1" height="1" fill="#231f20"/>
    <rect x="96" y="33" width="1" height="1" fill="#231f20"/>
    <rect x="117" y="33" width="1" height="1" fill="#231f20"/>
    <rect x="0" y="34" width="1" height="1" fill="#231f20"/>
    <rect x="24" y="34" width="2" height="1" fill="#231f20"/>
    <rect x="33" y="34" width="1" height="1" fill="#231f20"/>
    <rect x="41" y="34" width="1" height="1" fill="#231f20"/>
    <rect x="49" y="34" width="1" height="1" fill="#231f20"/>
    <rect x="57" y="34" width="1" height="1" fill="#231f20"/>
    <rect x="65" y="34" width="1" height="1" fill="#231f20"/>
    <rect x="72" y="34" width="1" height="1" fill="#231f20"/>
    <rect x="80" y="34" width="1" height="1" fill="#231f20"/>
    <rect x="88" y="34" width="1" height="1" fill="#231f20"/>
    <rect x="96" y="34" width="1" height="1" fill="#231f20"/>
    <rect x="117" y="34" width="1" height="1" fill="#231f20"/>
    <rect x="0" y="35" width="1" height="1" fill="#231f20"/>
    <rect x="24" y="35" width="2" height="1" fill="#231f20"/>
    <rect x="33" y="35" width="1" height="1" fill="#231f20"/>
    <rect x="41" y="35" width="1" height="1" fill="#231f20"/>
    <rect x="49" y="35" width="1" height="1" fill="#231f20"/>
    <rect x="57" y="35" width="1" height="1" fill="#231f20"/>
    <rect x="65" y="35" width="1" height="1" fill="#231f20"/>
    <rect x="72" y="35" width="1" height="1" fill="#231f20"/>
    <rect x="80" y="35" width="1" height="1" fill="#231f20"/>
    <rect x="88" y="35" width="1" height="1" fill="#231f20"/>
    <rect x="96" y="35" width="1" height="1" fill="#231f20"/>
    <rect x="117" y="35" width="1" height="1" fill="#231f20"/>
    <rect x="0" y="36" width="1" height="1" fill="#231f20"/>
    <rect x="24" y="36" width="2" height="1" fill="#231f20"/>
    <rect x="33" y="36" width="1" height="1" fill="#231f20"/>
    <rect x="41" y="36" width="1" height="1" fill="#231f20"/>
    <rect x="49" y="36" width="1" height="1" fill="#231f20"/>
    <rect x="57" y="36" width="1" height="1" fill="#231f20"/>
    <rect x="65" y="36" width="1" height="1" fill="#231f20"/>
    <rect x="72" y="36" width="1" height="1" fill="#231f20"/>
    <rect x="80" y="36" width="1" height="1" fill="#231f20"/>
    <rect x="88" y="36" width="1" height="1" fill="#231f20"/>
    <rect x="96" y="36" width="1" height="1" fill="#231f20"/>
    <rect x="117" y="36" width="1" height="1" fill="#231f20"/>
    <rect x="0" y="37" width="1" height="1" fill="#231f20"/>
    <rect x="23" y="37" width="1" height="1" fill="#231f20"/>
    <rect x="25" y="37" width="1" height="1" fill="#231f20"/>
    <rect x="33" y="37" width="1" height="1" fill="#231f20"/>
    <rect x="41" y="37" width="1" height="1" fill="#231f20"/>
    <rect x="49" y="37" width="1" height="1" fill="#231f20"/>
    <rect x="57" y="37" width="1" height="1" fill="#231f20"/>
    <rect x="65" y="37" width="1" height="1" fill="#231f20"/>
    <rect x="72" y="37" width="1" height="1" fill="#231f20"/>
    <rect x="80" y="37" width="1" height="1" fill="#231f20"/>
    <rect x="88" y="37" width="1" height="1" fill="#231f20"/>
    <rect x="96" y="37" width="1" height="1" fill="#231f20"/>
    <rect x="117" y="37" width="1" height="1" fill="#231f20"/>
    <rect x="0" y="38" width="1" height="1" fill="#231f20"/>
    <rect x="23" y="38" width="1" height="1" fill="#231f20"/>
    <rect x="25" y="38" width="1" height="1" fill="#231f20"/>
    <rect x="33" y="38" width="1" height="1" fill="#231f20"/>
    <rect x="41" y="38" width="1" height="1" fill="#231f20"/>
    <rect x="49" y="38" width="1" height="1" fill="#231f20"/>
    <rect x="57" y="38" width="1" height="1" fill="#231f20"/>
    <rect x="65" y="38" width="1" height="1" fill="#231f20"/>
    <rect x="72" y="38" width="1" height="1" fill="#231f20"/>
    <rect x="80" y="38" width="1" height="1" fill="#231f20"/>
    <rect x="88" y="38" width="1" height="1" fill="#231f20"/>
    <rect x="95" y="38" width="1" height="1" fill="#231f20"/>
    <rect x="117" y="38" width="1" height="1" fill="#231f20"/>
    <rect x="0" y="39" width="1" height="1" fill="#231f20"/>
    <rect x="22" y="39" width="1" height="1" fill="#231f20"/>
    <rect x="25" y="39" width="1" height="1" fill="#231f20"/>
    <rect x="33" y="39" width="1" height="1" fill="#231f20"/>
    <rect x="41" y="39" width="1" height="1" fill="#231f20"/>
    <rect x="49" y="39" width="1" height="1" fill="#231f20"/>
    <rect x="57" y="39" width="1" height="1" fill="#231f20"/>
    <rect x="65" y="39" width="1" height="1" fill="#231f20"/>
    <rect x="72" y="39" width="1" height="1" fill="#231f20"/>
    <rect x="80" y="39" width="1" height="1" fill="#231f20"/>
    <rect x="88" y="39" width="1" height="1" fill="#231f20"/>
    <rect x="95" y="39" width="1" height="1" fill="#231f20"/>
    <rect x="117" y="39" width="1" height="1" fill="#231f20"/>
    <rect x="0" y="40" width="1" height="1" fill="#231f20"/>
    <rect x="22" y="40" width="1" height="1" fill="#231f20"/>
    <rect x="25" y="40" width="1" height="1" fill="#231f20"/>
    <rect x="33" y="40" width="1" height="1" fill="#231f20"/>
    <rect x="41" y="40" width="1" height="1" fill="#231f20"/>
    <rect x="49" y="40" width="1" height="1" fill="#231f20"/>
    <rect x="57" y="40" width="1" height="1" fill="#231f20"/>
    <rect x="65" y="40" width="1" height="1" fill="#231f20"/>
    <rect x="72" y="40" width="1" height="1" fill="#231f20"/>
    <rect x="80" y="40" width="1" height="1" fill="#231f20"/>
    <rect x="88" y="40" width="1" height="1" fill="#231f20"/>
    <rect x="95" y="40" width="1" height="1" fill="#231f20"/>
    <rect x="117" y="40" width="1" height="1" fill="#231f20"/>
    <rect x="0" y="41" width="1" height="1" fill="#231f20"/>
    <rect x="22" y="41" width="1" height="1" fill="#231f20"/>
    <rect x="25" y="41" width="1" height="1" fill="#231f20"/>
    <rect x="33" y="41" width="1" height="1" fill="#231f20"/>
    <rect x="41" y="41" width="1" height="1" fill="#231f20"/>
    <rect x="49" y="41" width="1" height="1" fill="#231f20"/>
    <rect x="57" y="41" width="1" height="1" fill="#231f20"/>
    <rect x="65" y="41" width="1" height="1" fill="#231f20"/>
    <rect x="72" y="41" width="1" height="1" fill="#231f20"/>
    <rect x="80" y="41" width="1" height="1" fill="#231f20"/>
    <rect x="88" y="41" width="1" height="1" fill="#231f20"/>
    <rect x="95" y="41" width="1" height="1" fill="#231f20"/>
    <rect x="117" y="41" width="1" height="1" fill="#231f20"/>
    <rect x="0" y="42" width="1" height="1" fill="#231f20"/>
    <rect x="21" y="42" width="1" height="1" fill="#231f20"/>
    <rect x="25" y="42" width="1" height="1" fill="#231f20"/>
    <rect x="33" y="42" width="1" height="1" fill="#231f20"/>
    <rect x="41" y="42" width="1" height="1" fill="#231f20"/>
    <rect x="49" y="42" width="1" height="1" fill="#231f20"/>
    <rect x="57" y="42" width="1" height="1" fill="#231f20"/>
    <rect x="65" y="42" width="1" height="1" fill="#231f20"/>
    <rect x="72" y="42" width="1" height="1" fill="#231f20"/>
    <rect x="80" y="42" width="1" height="1" fill="#231f20"/>
    <rect x="88" y="42" width="1" height="1" fill="#231f20"/>
    <rect x="94" y="42" width="1" height="1" fill="#231f20"/>
    <rect x="117" y="42" width="1" height="1" fill="#231f20"/>
    <rect x="0" y="43" width="1" height="1" fill="#231f20"/>
    <rect x="21" y="43" width="1" height="1" fill="#231f20"/>
    <rect x="25" y="43" width="1" height="1" fill="#231f20"/>
    <rect x="33" y="43" width="1" height="1" fill="#231f20"/>
    <rect x="41" y="43" width="1" height="1" fill="#231f20"/>
    <rect x="49" y="43" width="1" height="1" fill="#231f20"/>
    <rect x="57" y="43" width="1" height="1" fill="#231f20"/>
    <rect x="65" y="43" width="1" height="1" fill="#231f20"/>
    <rect x="72" y="43" width="1" height="1" fill="#231f20"/>
    <rect x="80" y="43" width="1" height="1" fill="#231f20"/>
    <rect x="88" y="43" width="1" height="1" fill="#231f20"/>
    <rect x="94" y="43" width="1" height="1" fill="#231f20"/>
    <rect x="117" y="43" width="1" height="1" fill="#231f20"/>
    <rect x="0" y="44" width="1" height="1" fill="#231f20"/>
    <rect x="21" y="44" width="1" height="1" fill="#231f20"/>
    <rect x="25" y="44" width="1" height="1" fill="#231f20"/>
    <rect x="33" y="44" width="1" height="1" fill="#231f20"/>
    <rect x="41" y="44" width="1" height="1" fill="#231f20"/>
    <rect x="49" y="44" width="1" height="1" fill="#231f20"/>
    <rect x="57" y="44" width="1" height="1" fill="#231f20"/>
    <rect x="65" y="44" width="1" height="1" fill="#231f20"/>
    <rect x="72" y="44" width="1" height="1" fill="#231f20"/>
    <rect x="80" y="44" width="1" height="1" fill="#231f20"/>
    <rect x="88" y="44" width="1" height="1" fill="#231f20"/>
    <rect x="93" y="44" width="1" height="1" fill="#231f20"/>
    <rect x="117" y="44" width="1" height="1" fill="#231f20"/>
    <rect x="0" y="45" width="1" height="1" fill="#231f20"/>
    <rect x="21" y="45" width="1" height="1" fill="#231f20"/>
    <rect x="25" y="45" width="1" height="1" fill="#231f20"/>
    <rect x="33" y="45" width="1" height="1" fill="#231f20"/>
    <rect x="41" y="45" width="1" height="1" fill="#231f20"/>
    <rect x="49" y="45" width="1" height="1" fill="#231f20"/>
    <rect x="57" y="45" width="1" height="1" fill="#231f20"/>
    <rect x="65" y="45" width="1" height="1" fill="#231f20"/>
    <rect x="72" y="45" width="1" height="1" fill="#231f20"/>
    <rect x="80" y="45" width="1" height="1" fill="#231f20"/>
    <rect x="88" y="45" width="1" height="1" fill="#231f20"/>
    <rect x="92" y="45" width="1" height="1" fill="#231f20"/>
    <rect x="117" y="45" width="1" height="1" fill="#231f20"/>
    <rect x="0" y="46" width="1" height="1" fill="#231f20"/>
    <rect x="21" y="46" width="1" height="1" fill="#231f20"/>
    <rect x="25" y="46" width="1" height="1" fill="#231f20"/>
    <rect x="33" y="46" width="1" height="1" fill="#231f20"/>
    <rect x="41" y="46" width="1" height="1" fill="#231f20"/>
    <rect x="49" y="46" width="1" height="1" fill="#231f20"/>
    <rect x="57" y="46" width="1" height="1" fill="#231f20"/>
    <rect x="65" y="46" width="1" height="1" fill="#231f20"/>
    <rect x="72" y="46" width="1" height="1" fill="#231f20"/>
    <rect x="80" y="46" width="1" height="1" fill="#231f20"/>
    <rect x="88" y="46" width="1" height="1" fill="#231f20"/>
    <rect x="92" y="46" width="1" height="1" fill="#231f20"/>
    <rect x="117" y="46" width="1" height="1" fill="#231f20"/>
    <rect x="0" y="47" width="1" height="1" fill="#231f20"/>
    <rect x="20" y="47" width="1" height="1" fill="#231f20"/>
    <rect x="25" y="47" width="1" height="1" fill="#231f20"/>
    <rect x="33" y="47" width="1" height="1" fill="#231f20"/>
    <rect x="41" y="47" width="1" height="1" fill="#231f20"/>
    <rect x="49" y="47" width="1" height="1" fill="#231f20"/>
    <rect x="57" y="47" width="1" height="1" fill="#231f20"/>
    <rect x="65" y="47" width="1" height="1" fill="#231f20"/>
    <rect x="72" y="47" width="1" height="1" fill="#231f20"/>
    <rect x="80" y="47" width="1" height="1" fill="#231f20"/>
    <rect x="88" y="47" width="1" height="1" fill="#231f20"/>
    <rect x="91" y="47" width="1" height="1" fill="#231f20"/>
    <rect x="117" y="47" width="1" height="1" fill="#231f20"/>
    <rect x="0" y="48" width="1" height="1" fill="#231f20"/>
    <rect x="20" y="48" width="1" height="1" fill="#231f20"/>
    <rect x="25" y="48" width="1" height="1" fill="#231f20"/>
    <rect x="33" y="48" width="1" height="1" fill="#231f20"/>
    <rect x="41" y="48" width="1" height="1" fill="#231f20"/>
    <rect x="49" y="48" width="1" height="1" fill="#231f20"/>
    <rect x="57" y="48" width="1" height="1" fill="#231f20"/>
    <rect x="65" y="48" width="1" height="1" fill="#231f20"/>
    <rect x="72" y="48" width="1" height="1" fill="#231f20"/>
    <rect x="80" y="48" width="1" height="1" fill="#231f20"/>
    <rect x="88" y="48" width="1" height="1" fill="#231f20"/>
    <rect x="90" y="48" width="1" height="1" fill="#231f20"/>
    <rect x="117" y="48" width="1" height="1" fill="#231f20"/>
    <rect x="0" y="49" width="1" height="1" fill="#231f20"/>
    <rect x="20" y="49" width="1" height="1" fill="#231f20"/>
    <rect x="25" y="49" width="1" height="1" fill="#231f20"/>
    <rect x="33" y="49" width="1" height="1" fill="#231f20"/>
    <rect x="41" y="49" width="1" height="1" fill="#231f20"/>
    <rect x="49" y="49" width="1" height="1" fill="#231f20"/>
    <rect x="57" y="49" width="1" height="1" fill="#231f20"/>
    <rect x="65" y="49" width="1" height="1" fill="#231f20"/>
    <rect x="72" y="49" width="1" height="1" fill="#231f20"/>
    <rect x="80" y="49" width="1" height="1" fill="#231f20"/>
    <rect x="88" y="49" width="1" height="1" fill="#231f20"/>
    <rect x="90" y="49" width="1" height="1" fill="#231f20"/>
    <rect x="117" y="49" width="1" height="1" fill="#231f20"/>
    <rect x="0" y="50" width="1" height="1" fill="#231f20"/>
    <rect x="20" y="50" width="1" height="1" fill="#231f20"/>
    <rect x="25" y="50" width="1" height="1" fill="#231f20"/>
    <rect x="33" y="50" width="1" height="1" fill="#231f20"/>
    <rect x="41" y="50" width="1" height="1" fill="#231f20"/>
    <rect x="49" y="50" width="1" height="1" fill="#231f20"/>
    <rect x="57" y="50" width="1" height="1" fill="#231f20"/>
    <rect x="65" y="50" width="1" height="1" fill="#231f20"/>
    <rect x="72" y="50" width="1" height="1" fill="#231f20"/>
    <rect x="80" y="50" width="1" height="1" fill="#231f20"/>
    <rect x="88" y="50" width="1" height="1" fill="#231f20"/>
    <rect x="90" y="50" width="1" height="1" fill="#231f20"/>
    <rect x="117" y="50" width="1" height="1" fill="#231f20"/>
    <rect x="0" y="51" width="1" height="1" fill="#231f20"/>
    <rect x="20" y="51" width="1" height="1" fill="#231f20"/>
    <rect x="25" y="51" width="1" height="1" fill="#231f20"/>
    <rect x="33" y="51" width="1" height="1" fill="#231f20"/>
    <rect x="41" y="51" width="1" height="1" fill="#231f20"/>
    <rect x="49" y="51" width="1" height="1" fill="#231f20"/>
    <rect x="57" y="51" width="1" height="1" fill="#231f20"/>
    <rect x="65" y="51" width="1" height="1" fill="#231f20"/>
    <rect x="72" y="51" width="1" height="1" fill="#231f20"/>
    <rect x="80" y="51" width="1" height="1" fill="#231f20"/>
    <rect x="88" y="51" width="2" height="1" fill="#231f20"/>
    <rect x="117" y="51" width="1" height="1" fill="#231f20"/>
    <rect x="0" y="52" width="1" height="1" fill="#231f20"/>
    <rect x="20" y="52" width="1" height="1" fill="#231f20"/>
    <rect x="25" y="52" width="1" height="1" fill="#231f20"/>
    <rect x="33" y="52" width="1" height="1" fill="#231f20"/>
    <rect x="41" y="52" width="1" height="1" fill="#231f20"/>
    <rect x="49" y="52" width="1" height="1" fill="#231f20"/>
    <rect x="57" y="52" width="1" height="1" fill="#231f20"/>
    <rect x="65" y="52" width="1" height="1" fill="#231f20"/>
    <rect x="72" y="52" width="1" height="1" fill="#231f20"/>
    <rect x="80" y="52" width="1" height="1" fill="#231f20"/>
    <rect x="88" y="52" width="1" height="1" fill="#231f20"/>
    <rect x="117" y="52" width="1" height="1" fill="#231f20"/>
    <rect x="0" y="53" width="1" height="1" fill="#231f20"/>
    <rect x="21" y="53" width="1" height="1" fill="#231f20"/>
    <rect x="25" y="53" width="1" height="1" fill="#231f20"/>
    <rect x="33" y="53" width="1" height="1" fill="#231f20"/>
    <rect x="41" y="53" width="1" height="1" fill="#231f20"/>
    <rect x="49" y="53" width="1" height="1" fill="#231f20"/>
    <rect x="57" y="53" width="1" height="1" fill="#231f20"/>
    <rect x="65" y="53" width="1" height="1" fill="#231f20"/>
    <rect x="72" y="53" width="1" height="1" fill="#231f20"/>
    <rect x="80" y="53" width="1" height="1" fill="#231f20"/>
    <rect x="87" y="53" width="1" height="1" fill="#231f20"/>
    <rect x="117" y="53" width="1" height="1" fill="#231f20"/>
    <rect x="0" y="54" width="1" height="1" fill="#231f20"/>
    <rect x="21" y="54" width="1" height="1" fill="#231f20"/>
    <rect x="25" y="54" width="1" height="1" fill="#231f20"/>
    <rect x="33" y="54" width="1" height="1" fill="#231f20"/>
    <rect x="41" y="54" width="1" height="1" fill="#231f20"/>
    <rect x="49" y="54" width="1" height="1" fill="#231f20"/>
    <rect x="57" y="54" width="1" height="1" fill="#231f20"/>
    <rect x="65" y="54" width="1" height="1" fill="#231f20"/>
    <rect x="72" y="54" width="1" height="1" fill="#231f20"/>
    <rect x="80" y="54" width="1" height="1" fill="#231f20"/>
    <rect x="86" y="54" width="1" height="1" fill="#231f20"/>
    <rect x="117" y="54" width="1" height="1" fill="#231f20"/>
    <rect x="0" y="55" width="1" height="1" fill="#231f20"/>
    <rect x="21" y="55" width="1" height="1" fill="#231f20"/>
    <rect x="25" y="55" width="1" height="1" fill="#231f20"/>
    <rect x="33" y="55" width="1" height="1" fill="#231f20"/>
    <rect x="41" y="55" width="1" height="1" fill="#231f20"/>
    <rect x="49" y="55" width="1" height="1" fill="#231f20"/>
    <rect x="57" y="55" width="1" height="1" fill="#231f20"/>
    <rect x="65" y="55" width="1" height="1" fill="#231f20"/>
    <rect x="72" y="55" width="1" height="1" fill="#231f20"/>
    <rect x="80" y="55" width="1" height="1" fill="#231f20"/>
    <rect x="85" y="55" width="1" height="1" fill="#231f20"/>
    <rect x="117" y="55" width="1" height="1" fill="#231f20"/>
    <rect x="0" y="56" width="1" height="1" fill="#231f20"/>
    <rect x="21" y="56" width="1" height="1" fill="#231f20"/>
    <rect x="25" y="56" width="1" height="1" fill="#231f20"/>
    <rect x="33" y="56" width="1" height="1" fill="#231f20"/>
    <rect x="41" y="56" width="1" height="1" fill="#231f20"/>
    <rect x="49" y="56" width="1" height="1" fill="#231f20"/>
    <rect x="57" y="56" width="1" height="1" fill="#231f20"/>
    <rect x="65" y="56" width="1" height="1" fill="#231f20"/>
    <rect x="72" y="56" width="1" height="1" fill="#231f20"/>
    <rect x="80" y="56" width="1" height="1" fill="#231f20"/>
    <rect x="84" y="56" width="1" height="1" fill="#231f20"/>
    <rect x="117" y="56" width="1" height="1" fill="#231f20"/>
    <rect x="0" y="57" width="1" height="1" fill="#231f20"/>
    <rect x="21" y="57" width="1" height="1" fill="#231f20"/>
    <rect x="25" y="57" width="1" height="1" fill="#231f20"/>
    <rect x="33" y="57" width="1" height="1" fill="#231f20"/>
    <rect x="41" y="57" width="1" height="1" fill="#231f20"/>
    <rect x="49" y="57" width="1" height="1" fill="#231f20"/>
    <rect x="57" y="57" width="1" height="1" fill="#231f20"/>
    <rect x="65" y="57" width="1" height="1" fill="#231f20"/>
    <rect x="72" y="57" width="1" height="1" fill="#231f20"/>
    <rect x="80" y="57" width="1" height="1" fill="#231f20"/>
    <rect x="83" y="57" width="1" height="1" fill="#231f20"/>
    <rect x="117" y="57" width="1" height="1" fill="#231f20"/>
    <rect x="0" y="58" width="1" height="1" fill="#231f20"/>
    <rect x="22" y="58" width="1" height="1" fill="#231f20"/>
    <rect x="25" y="58" width="1" height="1" fill="#231f20"/>
    <rect x="33" y="58" width="1" height="1" fill="#231f20"/>
    <rect x="41" y="58" width="1" height="1" fill="#231f20"/>
    <rect x="49" y="58" width="1" height="1" fill="#231f20"/>
    <rect x="57" y="58" width="1" height="1" fill="#231f20"/>
    <rect x="65" y="58" width="1" height="1" fill="#231f20"/>
    <rect x="72" y="58" width="1" height="1" fill="#231f20"/>
    <rect x="80" y="58" width="1" height="1" fill="#231f20"/>
    <rect x="82" y="58" width="1" height="1" fill="#231f20"/>
    <rect x="117" y="58" width="1" height="1" fill="#231f20"/>
    <rect x="0" y="59" width="1" height="1" fill="#231f20"/>
    <rect x="22" y="59" width="1" height="1" fill="#231f20"/>
    <rect x="25" y="59" width="1" height="1" fill="#231f20"/>
    <rect x="33" y="59" width="1" height="1" fill="#231f20"/>
    <rect x="41" y="59" width="1" height="1" fill="#231f20"/>
    <rect x="49" y="59" width="1" height="1" fill="#231f20"/>
    <rect x="57" y="59" width="1" height="1" fill="#231f20"/>
    <rect x="65" y="59" width="1" height="1" fill="#231f20"/>
    <rect x="72" y="59" width="1" height="1" fill="#231f20"/>
    <rect x="80" y="59" width="2" height="1" fill="#231f20"/>
    <rect x="117" y="59" width="1" height="1" fill="#231f20"/>
    <rect x="0" y="60" width="1" height="1" fill="#231f20"/>
    <rect x="23" y="60" width="1" height="1" fill="#231f20"/>
    <rect x="25" y="60" width="1" height="1" fill="#231f20"/>
    <rect x="33" y="60" width="1" height="1" fill="#231f20"/>
    <rect x="41" y="60" width="1" height="1" fill="#231f20"/>
    <rect x="49" y="60" width="1" height="1" fill="#231f20"/>
    <rect x="57" y="60" width="1" height="1" fill="#231f20"/>
    <rect x="65" y="60" width="1" height="1" fill="#231f20"/>
    <rect x="72" y="60" width="1" height="1" fill="#231f20"/>
    <rect x="80" y="60" width="1" height="1" fill="#231f20"/>
    <rect x="117" y="60" width="1" height="1" fill="#231f20"/>
    <rect x="0" y="61" width="1" height="1" fill="#231f20"/>
    <rect x="23" y="61" width="3" height="1" fill="#231f20"/>
    <rect x="33" y="61" width="1" height="1" fill="#231f20"/>
    <rect x="41" y="61" width="1" height="1" fill="#231f20"/>
    <rect x="49" y="61" width="1" height="1" fill="#231f20"/>
    <rect x="57" y="61" width="1" height="1" fill="#231f20"/>
    <rect x="65" y="61" width="1" height="1" fill="#231f20"/>
    <rect x="72" y="61" width="1" height="1" fill="#231f20"/>
    <rect x="79" y="61" width="1" height="1" fill="#231f20"/>
    <rect x="117" y="61" width="1" height="1" fill="#231f20"/>
    <rect x="0" y="62" width="1" height="1" fill="#231f20"/>
    <rect x="24" y="62" width="2" height="1" fill="#231f20"/>
    <rect x="33" y="62" width="1" height="1" fill="#231f20"/>
    <rect x="41" y="62" width="1" height="1" fill="#231f20"/>
    <rect x="49" y="62" width="1" height="1" fill="#231f20"/>
    <rect x="57" y="62" width="1" height="1" fill="#231f20"/>
    <rect x="65" y="62" width="1" height="1" fill="#231f20"/>
    <rect x="72" y="62" width="1" height="1" fill="#231f20"/>
    <rect x="77" y="62" width="2" height="1" fill="#231f20"/>
    <rect x="117" y="62" width="1" height="1" fill="#231f20"/>
    <rect x="0" y="63" width="1" height="1" fill="#231f20"/>
    <rect x="25" y="63" width="1" height="1" fill="#231f20"/>
    <rect x="33" y="63" width="1" height="1" fill="#231f20"/>
    <rect x="41" y="63" width="1" height="1" fill="#231f20"/>
    <rect x="49" y="63" width="1" height="1" fill="#231f20"/>
    <rect x="57" y="63" width="1" height="1" fill="#231f20"/>
    <rect x="65" y="63" width="1" height="1" fill="#231f20"/>
    <rect x="72" y="63" width="1" height="1" fill="#231f20"/>
    <rect x="75" y="63" width="2" height="1" fill="#231f20"/>
    <rect x="117" y="63" width="1" height="1" fill="#231f20"/>
    <rect x="0" y="64" width="1" height="1" fill="#231f20"/>
    <rect x="25" y="64" width="1" height="1" fill="#231f20"/>
    <rect x="33" y="64" width="1" height="1" fill="#231f20"/>
    <rect x="41" y="64" width="1" height="1" fill="#231f20"/>
    <rect x="49" y="64" width="1" height="1" fill="#231f20"/>
    <rect x="57" y="64" width="1" height="1" fill="#231f20"/>
    <rect x="65" y="64" width="1" height="1" fill="#231f20"/>
    <rect x="72" y="64" width="1" height="1" fill="#231f20"/>
    <rect x="74" y="64" width="1" height="1" fill="#231f20"/>
    <rect x="117" y="64" width="1" height="1" fill="#231f20"/>
    <rect x="0" y="65" width="1" height="1" fill="#231f20"/>
    <rect x="26" y="65" width="2" height="1" fill="#231f20"/>
    <rect x="33" y="65" width="1" height="1" fill="#231f20"/>
    <rect x="41" y="65" width="1" height="1" fill="#231f20"/>
    <rect x="49" y="65" width="1" height="1" fill="#231f20"/>
    <rect x="57" y="65" width="1" height="1" fill="#231f20"/>
    <rect x="65" y="65" width="1" height="1" fill="#231f20"/>
    <rect x="72" y="65" width="2" height="1" fill="#231f20"/>
    <rect x="117" y="65" width="1" height="1" fill="#231f20"/>
    <rect x="0" y="66" width="1" height="1" fill="#231f20"/>
    <rect x="27" y="66" width="1" height="1" fill="#231f20"/>
    <rect x="33" y="66" width="1" height="1" fill="#231f20"/>
    <rect x="41" y="66" width="1" height="1" fill="#231f20"/>
    <rect x="49" y="66" width="1" height="1" fill="#231f20"/>
    <rect x="57" y="66" width="1" height="1" fill="#231f20"/>
    <rect x="65" y="66" width="1" height="1" fill="#231f20"/>
    <rect x="70" y="66" width="3" height="1" fill="#231f20"/>
    <rect x="117" y="66" width="1" height="1" fill="#231f20"/>
    <rect x="0" y="67" width="1" height="1" fill="#231f20"/>
    <rect x="28" y="67" width="2" height="1" fill="#231f20"/>
    <rect x="33" y="67" width="1" height="1" fill="#231f20"/>
    <rect x="41" y="67" width="1" height="1" fill="#231f20"/>
    <rect x="49" y="67" width="1" height="1" fill="#231f20"/>
    <rect x="57" y="67" width="1" height="1" fill="#231f20"/>
    <rect x="65" y="67" width="1" height="1" fill="#231f20"/>
    <rect x="69" y="67" width="1" height="1" fill="#231f20"/>
    <rect x="117" y="67" width="1" height="1" fill="#231f20"/>
    <rect x="0" y="68" width="1" height="1" fill="#231f20"/>
    <rect x="30" y="68" width="1" height="1" fill="#231f20"/>
    <rect x="33" y="68" width="1" height="1" fill="#231f20"/>
    <rect x="41" y="68" width="1" height="1" fill="#231f20"/>
    <rect x="49" y="68" width="1" height="1" fill="#231f20"/>
    <rect x="57" y="68" width="1" height="1" fill="#231f20"/>
    <rect x="65" y="68" width="1" height="1" fill="#231f20"/>
    <rect x="67" y="68" width="2" height="1" fill="#231f20"/>
    <rect x="117" y="68" width="1" height="1" fill="#231f20"/>
    <rect x="0" y="69" width="1" height="1" fill="#231f20"/>
    <rect x="31" y="69" width="3" height="1" fill="#231f20"/>
    <rect x="41" y="69" width="1" height="1" fill="#231f20"/>
    <rect x="49" y="69" width="1" height="1" fill="#231f20"/>
    <rect x="57" y="69" width="1" height="1" fill="#231f20"/>
    <rect x="64" y="69" width="3" height="1" fill="#231f20"/>
    <rect x="117" y="69" width="1" height="1" fill="#231f20"/>
    <rect x="0" y="70" width="1" height="1" fill="#231f20"/>
    <rect x="33" y="70" width="2" height="1" fill="#231f20"/>
    <rect x="41" y="70" width="1" height="1" fill="#231f20"/>
    <rect x="49" y="70" width="1" height="1" fill="#231f20"/>
    <rect x="57" y="70" width="1" height="1" fill="#231f20"/>
    <rect x="61" y="70" width="3" height="1" fill="#231f20"/>
    <rect x="117" y="70" width="1" height="1" fill="#231f20"/>
    <rect x="0" y="71" width="1" height="1" fill="#231f20"/>
    <rect x="35" y="71" width="3" height="1" fill="#231f20"/>
    <rect x="41" y="71" width="1" height="1" fill="#231f20"/>
    <rect x="49" y="71" width="1" height="1" fill="#231f20"/>
    <rect x="57" y="71" width="4" height="1" fill="#231f20"/>
    <rect x="117" y="71" width="1" height="1" fill="#231f20"/>
    <rect x="0" y="72" width="1" height="1" fill="#231f20"/>
    <rect x="38" y="72" width="4" height="1" fill="#231f20"/>
    <rect x="49" y="72" width="1" height="1" fill="#231f20"/>
    <rect x="52" y="72" width="6" height="1" fill="#231f20"/>
    <rect x="117" y="72" width="1" height="1" fill="#231f20"/>
    <rect x="0" y="73" width="1" height="1" fill="#231f20"/>
    <rect x="42" y="73" width="10" height="1" fill="#231f20"/>
    <rect x="117" y="73" width="1" height="1" fill="#231f20"/>
    <rect x="0" y="74" width="1" height="1" fill="#231f20"/>
    <rect x="117" y="74" width="1" height="1" fill="#231f20"/>
    <rect x="0" y="75" width="1" height="1" fill="#231f20"/>
    <rect x="117" y="75" width="1" height="1" fill="#231f20"/>
    <rect x="0" y="76" width="1" height="1" fill="#231f20"/>
    <rect x="117" y="76" width="1" height="1" fill="#231f20"/>
    <rect x="0" y="77" width="1" height="1" fill="#231f20"/>
    <rect x="117" y="77" width="1" height="1" fill="#231f20"/>
    <rect x="0" y="78" width="118" height="1" fill="#231f20"/>
  </g>
</svg>