<?xml version="1.0" encoding="UTF-8"?>
<svg xmlns="http://www.w3.org/2000/svg" viewBox="0 0 157 65" width="157" height="65">
  <!-- Auto-converted from legend-2555.png -->
  <rect x="0" y="0" width="157" height="65" fill="none"/>
  <g fill="#bdbcbb" stroke="none">
    <rect x="3" y="2" width="152" height="1" fill="#bdbcbb"/>
    <rect x="3" y="3" width="152" height="1" fill="#bdbcbb"/>
    <rect x="3" y="4" width="152" height="1" fill="#bdbcbb"/>
    <rect x="3" y="5" width="152" height="1" fill="#bdbcbb"/>
    <rect x="3" y="6" width="152" height="1" fill="#bdbcbb"/>
    <rect x="3" y="7" width="152" height="1" fill="#bdbcbb"/>
    <rect x="3" y="8" width="152" height="1" fill="#bdbcbb"/>
    <rect x="3" y="9" width="152" height="1" fill="#bdbcbb"/>
    <rect x="3" y="10" width="152" height="1" fill="#bdbcbb"/>
    <rect x="3" y="11" width="152" height="1" fill="#bdbcbb"/>
    <rect x="3" y="12" width="152" height="1" fill="#bdbcbb"/>
    <rect x="3" y="13" width="152" height="1" fill="#bdbcbb"/>
    <rect x="3" y="14" width="152" height="1" fill="#bdbcbb"/>
    <rect x="3" y="15" width="152" height="1" fill="#bdbcbb"/>
    <rect x="3" y="16" width="152" height="1" fill="#bdbcbb"/>
    <rect x="3" y="17" width="152" height="1" fill="#bdbcbb"/>
    <rect x="3" y="18" width="152" height="1" fill="#bdbcbb"/>
    <rect x="3" y="19" width="152" height="1" fill="#bdbcbb"/>
    <rect x="3" y="20" width="152" height="1" fill="#bdbcbb"/>
    <rect x="3" y="21" width="152" height="1" fill="#bdbcbb"/>
    <rect x="3" y="22" width="152" height="1" fill="#bdbcbb"/>
    <rect x="3" y="23" width="152" height="1" fill="#bdbcbb"/>
    <rect x="3" y="24" width="152" height="1" fill="#bdbcbb"/>
    <rect x="3" y="25" width="152" height="1" fill="#bdbcbb"/>
    <rect x="3" y="26" width="152" height="1" fill="#bdbcbb"/>
    <rect x="3" y="27" width="152" height="1" fill="#bdbcbb"/>
    <rect x="3" y="28" width="152" height="1" fill="#bdbcbb"/>
    <rect x="3" y="29" width="152" height="1" fill="#bdbcbb"/>
    <rect x="3" y="30" width="152" height="1" fill="#bdbcbb"/>
    <rect x="3" y="31" width="152" height="1" fill="#bdbcbb"/>
    <rect x="3" y="32" width="152" height="1" fill="#bdbcbb"/>
    <rect x="3" y="33" width="152" height="1" fill="#bdbcbb"/>
    <rect x="3" y="34" width="152" height="1" fill="#bdbcbb"/>
    <rect x="3" y="35" width="152" height="1" fill="#bdbcbb"/>
    <rect x="3" y="36" width="152" height="1" fill="#bdbcbb"/>
    <rect x="3" y="37" width="152" height="1" fill="#bdbcbb"/>
    <rect x="3" y="38" width="152" height="1" fill="#bdbcbb"/>
    <rect x="3" y="39" width="152" height="1" fill="#bdbcbb"/>
    <rect x="3" y="40" width="152" height="1" fill="#bdbcbb"/>
    <rect x="3" y="41" width="152" height="1" fill="#bdbcbb"/>
    <rect x="3" y="42" width="152" height="1" fill="#bdbcbb"/>
    <rect x="3" y="43" width="152" height="1" fill="#bdbcbb"/>
    <rect x="3" y="44" width="152" height="1" fill="#bdbcbb"/>
    <rect x="3" y="45" width="152" height="1" fill="#bdbcbb"/>
    <rect x="3" y="46" width="152" height="1" fill="#bdbcbb"/>
    <rect x="3" y="47" width="152" height="1" fill="#bdbcbb"/>
    <rect x="3" y="48" width="152" height="1" fill="#bdbcbb"/>
    <rect x="3" y="49" width="152" height="1" fill="#bdbcbb"/>
    <rect x="3" y="50" width="152" height="1" fill="#bdbcbb"/>
    <rect x="3" y="51" width="152" height="1" fill="#bdbcbb"/>
    <rect x="3" y="52" width="152" height="1" fill="#bdbcbb"/>
    <rect x="3" y="53" width="152" height="1" fill="#bdbcbb"/>
    <rect x="3" y="54" width="152" height="1" fill="#bdbcbb"/>
    <rect x="3" y="55" width="152" height="1" fill="#bdbcbb"/>
    <rect x="3" y="56" width="152" height="1" fill="#bdbcbb"/>
    <rect x="3" y="57" width="152" height="1" fill="#bdbcbb"/>
    <rect x="3" y="58" width="152" height="1" fill="#bdbcbb"/>
    <rect x="3" y="59" width="152" height="1" fill="#bdbcbb"/>
    <rect x="3" y="60" width="152" height="1" fill="#bdbcbb"/>
    <rect x="3" y="61" width="152" height="1" fill="#bdbcbb"/>
    <rect x="3" y="62" width="152" height="1" fill="#bdbcbb"/>
  </g>
</svg>