<?xml version="1.0" encoding="UTF-8"?>
<svg xmlns="http://www.w3.org/2000/svg" viewBox="0 0 82 83" width="82" height="83">
  <!-- Auto-converted from legend-458.png -->
  <rect x="0" y="0" width="82" height="83" fill="none"/>
  <g fill="#231f20" stroke="none">
    <rect x="0" y="0" width="82" height="1" fill="#231f20"/>
    <rect x="0" y="1" width="1" height="1" fill="#231f20"/>
    <rect x="81" y="1" width="1" height="1" fill="#231f20"/>
    <rect x="0" y="2" width="1" height="1" fill="#231f20"/>
    <rect x="81" y="2" width="1" height="1" fill="#231f20"/>
    <rect x="0" y="3" width="1" height="1" fill="#231f20"/>
    <rect x="81" y="3" width="1" height="1" fill="#231f20"/>
    <rect x="0" y="4" width="1" height="1" fill="#231f20"/>
    <rect x="81" y="4" width="1" height="1" fill="#231f20"/>
    <rect x="0" y="5" width="1" height="1" fill="#231f20"/>
    <rect x="81" y="5" width="1" height="1" fill="#231f20"/>
    <rect x="0" y="6" width="1" height="1" fill="#231f20"/>
    <rect x="81" y="6" width="1" height="1" fill="#231f20"/>
    <rect x="0" y="7" width="1" height="1" fill="#231f20"/>
    <rect x="32" y="7" width="18" height="1" fill="#231f20"/>
    <rect x="81" y="7" width="1" height="1" fill="#231f20"/>
    <rect x="0" y="8" width="1" height="1" fill="#231f20"/>
    <rect x="29" y="8" width="24" height="1" fill="#231f20"/>
    <rect x="81" y="8" width="1" height="1" fill="#231f20"/>
    <rect x="0" y="9" width="1" height="1" fill="#231f20"/>
    <rect x="27" y="9" width="28" height="1" fill="#231f20"/>
    <rect x="81" y="9" width="1" height="1" fill="#231f20"/>
    <rect x="0" y="10" width="1" height="1" fill="#231f20"/>
    <rect x="26" y="10" width="6" height="1" fill="#231f20"/>
    <rect x="50" y="10" width="6" height="1" fill="#231f20"/>
    <rect x="81" y="10" width="1" height="1" fill="#231f20"/>
    <rect x="0" y="11" width="1" height="1" fill="#231f20"/>
    <rect x="23" y="11" width="8" height="1" fill="#231f20"/>
    <rect x="51" y="11" width="8" height="1" fill="#231f20"/>
    <rect x="81" y="11" width="1" height="1" fill="#231f20"/>
    <rect x="0" y="12" width="1" height="1" fill="#231f20"/>
    <rect x="21" y="12" width="8" height="1" fill="#231f20"/>
    <rect x="53" y="12" width="8" height="1" fill="#231f20"/>
    <rect x="81" y="12" width="1" height="1" fill="#231f20"/>
    <rect x="0" y="13" width="1" height="1" fill="#231f20"/>
    <rect x="20" y="13" width="6" height="1" fill="#231f20"/>
    <rect x="56" y="13" width="6" height="1" fill="#231f20"/>
    <rect x="81" y="13" width="1" height="1" fill="#231f20"/>
    <rect x="0" y="14" width="1" height="1" fill="#231f20"/>
    <rect x="18" y="14" width="7" height="1" fill="#231f20"/>
    <rect x="39" y="14" width="4" height="1" fill="#231f20"/>
    <rect x="57" y="14" width="7" height="1" fill="#231f20"/>
    <rect x="81" y="14" width="1" height="1" fill="#231f20"/>
    <rect x="0" y="15" width="1" height="1" fill="#231f20"/>
    <rect x="17" y="15" width="6" height="1" fill="#231f20"/>
    <rect x="33" y="15" width="16" height="1" fill="#231f20"/>
    <rect x="59" y="15" width="6" height="1" fill="#231f20"/>
    <rect x="81" y="15" width="1" height="1" fill="#231f20"/>
    <rect x="0" y="16" width="1" height="1" fill="#231f20"/>
    <rect x="16" y="16" width="6" height="1" fill="#231f20"/>
    <rect x="30" y="16" width="22" height="1" fill="#231f20"/>
    <rect x="60" y="16" width="6" height="1" fill="#231f20"/>
    <rect x="81" y="16" width="1" height="1" fill="#231f20"/>
    <rect x="0" y="17" width="1" height="1" fill="#231f20"/>
    <rect x="16" y="17" width="4" height="1" fill="#231f20"/>
    <rect x="27" y="17" width="12" height="1" fill="#231f20"/>
    <rect x="43" y="17" width="11" height="1" fill="#231f20"/>
    <rect x="62" y="17" width="4" height="1" fill="#231f20"/>
    <rect x="81" y="17" width="1" height="1" fill="#231f20"/>
    <rect x="0" y="18" width="1" height="1" fill="#231f20"/>
    <rect x="15" y="18" width="4" height="1" fill="#231f20"/>
    <rect x="26" y="18" width="7" height="1" fill="#231f20"/>
    <rect x="49" y="18" width="7" height="1" fill="#231f20"/>
    <rect x="63" y="18" width="4" height="1" fill="#231f20"/>
    <rect x="81" y="18" width="1" height="1" fill="#231f20"/>
    <rect x="0" y="19" width="1" height="1" fill="#231f20"/>
    <rect x="14" y="19" width="5" height="1" fill="#231f20"/>
    <rect x="25" y="19" width="5" height="1" fill="#231f20"/>
    <rect x="51" y="19" width="6" height="1" fill="#231f20"/>
    <rect x="63" y="19" width="5" height="1" fill="#231f20"/>
    <rect x="81" y="19" width="1" height="1" fill="#231f20"/>
    <rect x="0" y="20" width="1" height="1" fill="#231f20"/>
    <rect x="13" y="20" width="5" height="1" fill="#231f20"/>
    <rect x="23" y="20" width="6" height="1" fill="#231f20"/>
    <rect x="52" y="20" width="7" height="1" fill="#231f20"/>
    <rect x="64" y="20" width="5" height="1" fill="#231f20"/>
    <rect x="81" y="20" width="1" height="1" fill="#231f20"/>
    <rect x="0" y="21" width="1" height="1" fill="#231f20"/>
    <rect x="12" y="21" width="5" height="1" fill="#231f20"/>
    <rect x="22" y="21" width="6" height="1" fill="#231f20"/>
    <rect x="54" y="21" width="6" height="1" fill="#231f20"/>
    <rect x="65" y="21" width="5" height="1" fill="#231f20"/>
    <rect x="81" y="21" width="1" height="1" fill="#231f20"/>
    <rect x="0" y="22" width="1" height="1" fill="#231f20"/>
    <rect x="11" y="22" width="5" height="1" fill="#231f20"/>
    <rect x="21" y="22" width="6" height="1" fill="#231f20"/>
    <rect x="55" y="22" width="6" height="1" fill="#231f20"/>
    <rect x="66" y="22" width="4" height="1" fill="#231f20"/>
    <rect x="81" y="22" width="1" height="1" fill="#231f20"/>
    <rect x="0" y="23" width="1" height="1" fill="#231f20"/>
    <rect x="10" y="23" width="5" height="1" fill="#231f20"/>
    <rect x="20" y="23" width="5" height="1" fill="#231f20"/>
    <rect x="57" y="23" width="5" height="1" fill="#231f20"/>
    <rect x="67" y="23" width="4" height="1" fill="#231f20"/>
    <rect x="81" y="23" width="1" height="1" fill="#231f20"/>
    <rect x="0" y="24" width="1" height="1" fill="#231f20"/>
    <rect x="10" y="24" width="4" height="1" fill="#231f20"/>
    <rect x="19" y="24" width="5" height="1" fill="#231f20"/>
    <rect x="58" y="24" width="5" height="1" fill="#231f20"/>
    <rect x="68" y="24" width="3" height="1" fill="#231f20"/>
    <rect x="81" y="24" width="1" height="1" fill="#231f20"/>
    <rect x="0" y="25" width="1" height="1" fill="#231f20"/>
    <rect x="10" y="25" width="3" height="1" fill="#231f20"/>
    <rect x="19" y="25" width="4" height="1" fill="#231f20"/>
    <rect x="59" y="25" width="4" height="1" fill="#231f20"/>
    <rect x="69" y="25" width="3" height="1" fill="#231f20"/>
    <rect x="81" y="25" width="1" height="1" fill="#231f20"/>
    <rect x="0" y="26" width="1" height="1" fill="#231f20"/>
    <rect x="10" y="26" width="3" height="1" fill="#231f20"/>
    <rect x="18" y="26" width="4" height="1" fill="#231f20"/>
    <rect x="60" y="26" width="4" height="1" fill="#231f20"/>
    <rect x="69" y="26" width="3" height="1" fill="#231f20"/>
    <rect x="81" y="26" width="1" height="1" fill="#231f20"/>
    <rect x="0" y="27" width="1" height="1" fill="#231f20"/>
    <rect x="9" y="27" width="3" height="1" fill="#231f20"/>
    <rect x="18" y="27" width="4" height="1" fill="#231f20"/>
    <rect x="60" y="27" width="4" height="1" fill="#231f20"/>
    <rect x="70" y="27" width="3" height="1" fill="#231f20"/>
    <rect x="81" y="27" width="1" height="1" fill="#231f20"/>
    <rect x="0" y="28" width="1" height="1" fill="#231f20"/>
    <rect x="9" y="28" width="3" height="1" fill="#231f20"/>
    <rect x="17" y="28" width="4" height="1" fill="#231f20"/>
    <rect x="61" y="28" width="4" height="1" fill="#231f20"/>
    <rect x="70" y="28" width="3" height="1" fill="#231f20"/>
    <rect x="81" y="28" width="1" height="1" fill="#231f20"/>
    <rect x="0" y="29" width="1" height="1" fill="#231f20"/>
    <rect x="9" y="29" width="3" height="1" fill="#231f20"/>
    <rect x="16" y="29" width="4" height="1" fill="#231f20"/>
    <rect x="62" y="29" width="4" height="1" fill="#231f20"/>
    <rect x="70" y="29" width="3" height="1" fill="#231f20"/>
    <rect x="81" y="29" width="1" height="1" fill="#231f20"/>
    <rect x="0" y="30" width="1" height="1" fill="#231f20"/>
    <rect x="8" y="30" width="3" height="1" fill="#231f20"/>
    <rect x="16" y="30" width="4" height="1" fill="#231f20"/>
    <rect x="62" y="30" width="4" height="1" fill="#231f20"/>
    <rect x="71" y="30" width="3" height="1" fill="#231f20"/>
    <rect x="81" y="30" width="1" height="1" fill="#231f20"/>
    <rect x="0" y="31" width="1" height="1" fill="#231f20"/>
    <rect x="8" y="31" width="3" height="1" fill="#231f20"/>
    <rect x="15" y="31" width="4" height="1" fill="#231f20"/>
    <rect x="63" y="31" width="4" height="1" fill="#231f20"/>
    <rect x="71" y="31" width="3" height="1" fill="#231f20"/>
    <rect x="81" y="31" width="1" height="1" fill="#231f20"/>
    <rect x="0" y="32" width="1" height="1" fill="#231f20"/>
    <rect x="8" y="32" width="3" height="1" fill="#231f20"/>
    <rect x="15" y="32" width="4" height="1" fill="#231f20"/>
    <rect x="63" y="32" width="4" height="1" fill="#231f20"/>
    <rect x="71" y="32" width="3" height="1" fill="#231f20"/>
    <rect x="81" y="32" width="1" height="1" fill="#231f20"/>
    <rect x="0" y="33" width="1" height="1" fill="#231f20"/>
    <rect x="7" y="33" width="3" height="1" fill="#231f20"/>
    <rect x="15" y="33" width="3" height="1" fill="#231f20"/>
    <rect x="64" y="33" width="3" height="1" fill="#231f20"/>
    <rect x="72" y="33" width="3" height="1" fill="#231f20"/>
    <rect x="81" y="33" width="1" height="1" fill="#231f20"/>
    <rect x="0" y="34" width="1" height="1" fill="#231f20"/>
    <rect x="7" y="34" width="3" height="1" fill="#231f20"/>
    <rect x="14" y="34" width="3" height="1" fill="#231f20"/>
    <rect x="65" y="34" width="3" height="1" fill="#231f20"/>
    <rect x="72" y="34" width="3" height="1" fill="#231f20"/>
    <rect x="81" y="34" width="1" height="1" fill="#231f20"/>
    <rect x="0" y="35" width="1" height="1" fill="#231f20"/>
    <rect x="7" y="35" width="3" height="1" fill="#231f20"/>
    <rect x="14" y="35" width="3" height="1" fill="#231f20"/>
    <rect x="65" y="35" width="3" height="1" fill="#231f20"/>
    <rect x="72" y="35" width="3" height="1" fill="#231f20"/>
    <rect x="81" y="35" width="1" height="1" fill="#231f20"/>
    <rect x="0" y="36" width="1" height="1" fill="#231f20"/>
    <rect x="7" y="36" width="3" height="1" fill="#231f20"/>
    <rect x="14" y="36" width="3" height="1" fill="#231f20"/>
    <rect x="65" y="36" width="3" height="1" fill="#231f20"/>
    <rect x="73" y="36" width="3" height="1" fill="#231f20"/>
    <rect x="81" y="36" width="1" height="1" fill="#231f20"/>
    <rect x="0" y="37" width="1" height="1" fill="#231f20"/>
    <rect x="6" y="37" width="3" height="1" fill="#231f20"/>
    <rect x="14" y="37" width="3" height="1" fill="#231f20"/>
    <rect x="65" y="37" width="3" height="1" fill="#231f20"/>
    <rect x="73" y="37" width="3" height="1" fill="#231f20"/>
    <rect x="81" y="37" width="1" height="1" fill="#231f20"/>
    <rect x="0" y="38" width="1" height="1" fill="#231f20"/>
    <rect x="6" y="38" width="3" height="1" fill="#231f20"/>
    <rect x="14" y="38" width="3" height="1" fill="#231f20"/>
    <rect x="65" y="38" width="3" height="1" fill="#231f20"/>
    <rect x="73" y="38" width="3" height="1" fill="#231f20"/>
    <rect x="81" y="38" width="1" height="1" fill="#231f20"/>
    <rect x="0" y="39" width="1" height="1" fill="#231f20"/>
    <rect x="6" y="39" width="3" height="1" fill="#231f20"/>
    <rect x="14" y="39" width="3" height="1" fill="#231f20"/>
    <rect x="65" y="39" width="3" height="1" fill="#231f20"/>
    <rect x="73" y="39" width="3" height="1" fill="#231f20"/>
    <rect x="81" y="39" width="1" height="1" fill="#231f20"/>
    <rect x="0" y="40" width="1" height="1" fill="#231f20"/>
    <rect x="6" y="40" width="3" height="1" fill="#231f20"/>
    <rect x="14" y="40" width="3" height="1" fill="#231f20"/>
    <rect x="65" y="40" width="3" height="1" fill="#231f20"/>
    <rect x="73" y="40" width="3" height="1" fill="#231f20"/>
    <rect x="81" y="40" width="1" height="1" fill="#231f20"/>
    <rect x="0" y="41" width="1" height="1" fill="#231f20"/>
    <rect x="6" y="41" width="3" height="1" fill="#231f20"/>
    <rect x="14" y="41" width="3" height="1" fill="#231f20"/>
    <rect x="65" y="41" width="3" height="1" fill="#231f20"/>
    <rect x="73" y="41" width="3" height="1" fill="#231f20"/>
    <rect x="81" y="41" width="1" height="1" fill="#231f20"/>
    <rect x="0" y="42" width="1" height="1" fill="#231f20"/>
    <rect x="6" y="42" width="3" height="1" fill="#231f20"/>
    <rect x="14" y="42" width="3" height="1" fill="#231f20"/>
    <rect x="65" y="42" width="3" height="1" fill="#231f20"/>
    <rect x="73" y="42" width="3" height="1" fill="#231f20"/>
    <rect x="81" y="42" width="1" height="1" fill="#231f20"/>
    <rect x="0" y="43" width="1" height="1" fill="#231f20"/>
    <rect x="6" y="43" width="3" height="1" fill="#231f20"/>
    <rect x="14" y="43" width="3" height="1" fill="#231f20"/>
    <rect x="65" y="43" width="3" height="1" fill="#231f20"/>
    <rect x="73" y="43" width="3" height="1" fill="#231f20"/>
    <rect x="81" y="43" width="1" height="1" fill="#231f20"/>
    <rect x="0" y="44" width="1" height="1" fill="#231f20"/>
    <rect x="6" y="44" width="3" height="1" fill="#231f20"/>
    <rect x="14" y="44" width="3" height="1" fill="#231f20"/>
    <rect x="65" y="44" width="3" height="1" fill="#231f20"/>
    <rect x="73" y="44" width="3" height="1" fill="#231f20"/>
    <rect x="81" y="44" width="1" height="1" fill="#231f20"/>
    <rect x="0" y="45" width="1" height="1" fill="#231f20"/>
    <rect x="6" y="45" width="3" height="1" fill="#231f20"/>
    <rect x="14" y="45" width="3" height="1" fill="#231f20"/>
    <rect x="65" y="45" width="3" height="1" fill="#231f20"/>
    <rect x="73" y="45" width="3" height="1" fill="#231f20"/>
    <rect x="81" y="45" width="1" height="1" fill="#231f20"/>
    <rect x="0" y="46" width="1" height="1" fill="#231f20"/>
    <rect x="6" y="46" width="3" height="1" fill="#231f20"/>
    <rect x="14" y="46" width="3" height="1" fill="#231f20"/>
    <rect x="65" y="46" width="3" height="1" fill="#231f20"/>
    <rect x="73" y="46" width="3" height="1" fill="#231f20"/>
    <rect x="81" y="46" width="1" height="1" fill="#231f20"/>
    <rect x="0" y="47" width="1" height="1" fill="#231f20"/>
    <rect x="7" y="47" width="3" height="1" fill="#231f20"/>
    <rect x="14" y="47" width="3" height="1" fill="#231f20"/>
    <rect x="65" y="47" width="3" height="1" fill="#231f20"/>
    <rect x="72" y="47" width="3" height="1" fill="#231f20"/>
    <rect x="81" y="47" width="1" height="1" fill="#231f20"/>
    <rect x="0" y="48" width="1" height="1" fill="#231f20"/>
    <rect x="7" y="48" width="3" height="1" fill="#231f20"/>
    <rect x="14" y="48" width="3" height="1" fill="#231f20"/>
    <rect x="65" y="48" width="3" height="1" fill="#231f20"/>
    <rect x="72" y="48" width="3" height="1" fill="#231f20"/>
    <rect x="81" y="48" width="1" height="1" fill="#231f20"/>
    <rect x="0" y="49" width="1" height="1" fill="#231f20"/>
    <rect x="7" y="49" width="3" height="1" fill="#231f20"/>
    <rect x="15" y="49" width="3" height="1" fill="#231f20"/>
    <rect x="64" y="49" width="3" height="1" fill="#231f20"/>
    <rect x="72" y="49" width="3" height="1" fill="#231f20"/>
    <rect x="81" y="49" width="1" height="1" fill="#231f20"/>
    <rect x="0" y="50" width="1" height="1" fill="#231f20"/>
    <rect x="8" y="50" width="3" height="1" fill="#231f20"/>
    <rect x="15" y="50" width="4" height="1" fill="#231f20"/>
    <rect x="63" y="50" width="4" height="1" fill="#231f20"/>
    <rect x="72" y="50" width="3" height="1" fill="#231f20"/>
    <rect x="81" y="50" width="1" height="1" fill="#231f20"/>
    <rect x="0" y="51" width="1" height="1" fill="#231f20"/>
    <rect x="8" y="51" width="3" height="1" fill="#231f20"/>
    <rect x="15" y="51" width="4" height="1" fill="#231f20"/>
    <rect x="63" y="51" width="4" height="1" fill="#231f20"/>
    <rect x="71" y="51" width="3" height="1" fill="#231f20"/>
    <rect x="81" y="51" width="1" height="1" fill="#231f20"/>
    <rect x="0" y="52" width="1" height="1" fill="#231f20"/>
    <rect x="8" y="52" width="3" height="1" fill="#231f20"/>
    <rect x="16" y="52" width="4" height="1" fill="#231f20"/>
    <rect x="62" y="52" width="4" height="1" fill="#231f20"/>
    <rect x="71" y="52" width="3" height="1" fill="#231f20"/>
    <rect x="81" y="52" width="1" height="1" fill="#231f20"/>
    <rect x="0" y="53" width="1" height="1" fill="#231f20"/>
    <rect x="8" y="53" width="3" height="1" fill="#231f20"/>
    <rect x="16" y="53" width="4" height="1" fill="#231f20"/>
    <rect x="62" y="53" width="4" height="1" fill="#231f20"/>
    <rect x="71" y="53" width="3" height="1" fill="#231f20"/>
    <rect x="81" y="53" width="1" height="1" fill="#231f20"/>
    <rect x="0" y="54" width="1" height="1" fill="#231f20"/>
    <rect x="9" y="54" width="3" height="1" fill="#231f20"/>
    <rect x="17" y="54" width="3" height="1" fill="#231f20"/>
    <rect x="62" y="54" width="3" height="1" fill="#231f20"/>
    <rect x="70" y="54" width="3" height="1" fill="#231f20"/>
    <rect x="81" y="54" width="1" height="1" fill="#231f20"/>
    <rect x="0" y="55" width="1" height="1" fill="#231f20"/>
    <rect x="9" y="55" width="3" height="1" fill="#231f20"/>
    <rect x="18" y="55" width="3" height="1" fill="#231f20"/>
    <rect x="61" y="55" width="3" height="1" fill="#231f20"/>
    <rect x="69" y="55" width="4" height="1" fill="#231f20"/>
    <rect x="81" y="55" width="1" height="1" fill="#231f20"/>
    <rect x="0" y="56" width="1" height="1" fill="#231f20"/>
    <rect x="9" y="56" width="3" height="1" fill="#231f20"/>
    <rect x="18" y="56" width="4" height="1" fill="#231f20"/>
    <rect x="60" y="56" width="4" height="1" fill="#231f20"/>
    <rect x="69" y="56" width="4" height="1" fill="#231f20"/>
    <rect x="81" y="56" width="1" height="1" fill="#231f20"/>
    <rect x="0" y="57" width="1" height="1" fill="#231f20"/>
    <rect x="10" y="57" width="3" height="1" fill="#231f20"/>
    <rect x="18" y="57" width="5" height="1" fill="#231f20"/>
    <rect x="59" y="57" width="5" height="1" fill="#231f20"/>
    <rect x="68" y="57" width="4" height="1" fill="#231f20"/>
    <rect x="81" y="57" width="1" height="1" fill="#231f20"/>
    <rect x="0" y="58" width="1" height="1" fill="#231f20"/>
    <rect x="10" y="58" width="4" height="1" fill="#231f20"/>
    <rect x="19" y="58" width="5" height="1" fill="#231f20"/>
    <rect x="58" y="58" width="5" height="1" fill="#231f20"/>
    <rect x="68" y="58" width="4" height="1" fill="#231f20"/>
    <rect x="81" y="58" width="1" height="1" fill="#231f20"/>
    <rect x="0" y="59" width="1" height="1" fill="#231f20"/>
    <rect x="10" y="59" width="4" height="1" fill="#231f20"/>
    <rect x="20" y="59" width="4" height="1" fill="#231f20"/>
    <rect x="58" y="59" width="4" height="1" fill="#231f20"/>
    <rect x="68" y="59" width="3" height="1" fill="#231f20"/>
    <rect x="81" y="59" width="1" height="1" fill="#231f20"/>
    <rect x="0" y="60" width="1" height="1" fill="#231f20"/>
    <rect x="11" y="60" width="4" height="1" fill="#231f20"/>
    <rect x="21" y="60" width="4" height="1" fill="#231f20"/>
    <rect x="57" y="60" width="4" height="1" fill="#231f20"/>
    <rect x="67" y="60" width="3" height="1" fill="#231f20"/>
    <rect x="81" y="60" width="1" height="1" fill="#231f20"/>
    <rect x="0" y="61" width="1" height="1" fill="#231f20"/>
    <rect x="11" y="61" width="5" height="1" fill="#231f20"/>
    <rect x="21" y="61" width="6" height="1" fill="#231f20"/>
    <rect x="55" y="61" width="6" height="1" fill="#231f20"/>
    <rect x="66" y="61" width="4" height="1" fill="#231f20"/>
    <rect x="81" y="61" width="1" height="1" fill="#231f20"/>
    <rect x="0" y="62" width="1" height="1" fill="#231f20"/>
    <rect x="12" y="62" width="5" height="1" fill="#231f20"/>
    <rect x="22" y="62" width="6" height="1" fill="#231f20"/>
    <rect x="54" y="62" width="6" height="1" fill="#231f20"/>
    <rect x="65" y="62" width="5" height="1" fill="#231f20"/>
    <rect x="81" y="62" width="1" height="1" fill="#231f20"/>
    <rect x="0" y="63" width="1" height="1" fill="#231f20"/>
    <rect x="13" y="63" width="5" height="1" fill="#231f20"/>
    <rect x="23" y="63" width="7" height="1" fill="#231f20"/>
    <rect x="51" y="63" width="8" height="1" fill="#231f20"/>
    <rect x="64" y="63" width="5" height="1" fill="#231f20"/>
    <rect x="81" y="63" width="1" height="1" fill="#231f20"/>
    <rect x="0" y="64" width="1" height="1" fill="#231f20"/>
    <rect x="14" y="64" width="5" height="1" fill="#231f20"/>
    <rect x="25" y="64" width="8" height="1" fill="#231f20"/>
    <rect x="49" y="64" width="8" height="1" fill="#231f20"/>
    <rect x="63" y="64" width="5" height="1" fill="#231f20"/>
    <rect x="81" y="64" width="1" height="1" fill="#231f20"/>
    <rect x="0" y="65" width="1" height="1" fill="#231f20"/>
    <rect x="15" y="65" width="5" height="1" fill="#231f20"/>
    <rect x="28" y="65" width="8" height="1" fill="#231f20"/>
    <rect x="46" y="65" width="8" height="1" fill="#231f20"/>
    <rect x="62" y="65" width="5" height="1" fill="#231f20"/>
    <rect x="81" y="65" width="1" height="1" fill="#231f20"/>
    <rect x="0" y="66" width="1" height="1" fill="#231f20"/>
    <rect x="16" y="66" width="6" height="1" fill="#231f20"/>
    <rect x="30" y="66" width="21" height="1" fill="#231f20"/>
    <rect x="60" y="66" width="6" height="1" fill="#231f20"/>
    <rect x="81" y="66" width="1" height="1" fill="#231f20"/>
    <rect x="0" y="67" width="1" height="1" fill="#231f20"/>
    <rect x="17" y="67" width="6" height="1" fill="#231f20"/>
    <rect x="33" y="67" width="16" height="1" fill="#231f20"/>
    <rect x="59" y="67" width="6" height="1" fill="#231f20"/>
    <rect x="81" y="67" width="1" height="1" fill="#231f20"/>
    <rect x="0" y="68" width="1" height="1" fill="#231f20"/>
    <rect x="18" y="68" width="7" height="1" fill="#231f20"/>
    <rect x="36" y="68" width="10" height="1" fill="#231f20"/>
    <rect x="57" y="68" width="7" height="1" fill="#231f20"/>
    <rect x="81" y="68" width="1" height="1" fill="#231f20"/>
    <rect x="0" y="69" width="1" height="1" fill="#231f20"/>
    <rect x="20" y="69" width="6" height="1" fill="#231f20"/>
    <rect x="56" y="69" width="6" height="1" fill="#231f20"/>
    <rect x="81" y="69" width="1" height="1" fill="#231f20"/>
    <rect x="0" y="70" width="1" height="1" fill="#231f20"/>
    <rect x="21" y="70" width="7" height="1" fill="#231f20"/>
    <rect x="54" y="70" width="7" height="1" fill="#231f20"/>
    <rect x="81" y="70" width="1" height="1" fill="#231f20"/>
    <rect x="0" y="71" width="1" height="1" fill="#231f20"/>
    <rect x="23" y="71" width="6" height="1" fill="#231f20"/>
    <rect x="53" y="71" width="6" height="1" fill="#231f20"/>
    <rect x="81" y="71" width="1" height="1" fill="#231f20"/>
    <rect x="0" y="72" width="1" height="1" fill="#231f20"/>
    <rect x="24" y="72" width="8" height="1" fill="#231f20"/>
    <rect x="49" y="72" width="9" height="1" fill="#231f20"/>
    <rect x="81" y="72" width="1" height="1" fill="#231f20"/>
    <rect x="0" y="73" width="1" height="1" fill="#231f20"/>
    <rect x="26" y="73" width="10" height="1" fill="#231f20"/>
    <rect x="46" y="73" width="10" height="1" fill="#231f20"/>
    <rect x="81" y="73" width="1" height="1" fill="#231f20"/>
    <rect x="0" y="74" width="1" height="1" fill="#231f20"/>
    <rect x="29" y="74" width="24" height="1" fill="#231f20"/>
    <rect x="81" y="74" width="1" height="1" fill="#231f20"/>
    <rect x="0" y="75" width="1" height="1" fill="#231f20"/>
    <rect x="32" y="75" width="17" height="1" fill="#231f20"/>
    <rect x="81" y="75" width="1" height="1" fill="#231f20"/>
    <rect x="0" y="76" width="1" height="1" fill="#231f20"/>
    <rect x="36" y="76" width="10" height="1" fill="#231f20"/>
    <rect x="81" y="76" width="1" height="1" fill="#231f20"/>
    <rect x="0" y="77" width="1" height="1" fill="#231f20"/>
    <rect x="81" y="77" width="1" height="1" fill="#231f20"/>
    <rect x="0" y="78" width="1" height="1" fill="#231f20"/>
    <rect x="81" y="78" width="1" height="1" fill="#231f20"/>
    <rect x="0" y="79" width="1" height="1" fill="#231f20"/>
    <rect x="81" y="79" width="1" height="1" fill="#231f20"/>
    <rect x="0" y="80" width="1" height="1" fill="#231f20"/>
    <rect x="81" y="80" width="1" height="1" fill="#231f20"/>
    <rect x="0" y="81" width="1" height="1" fill="#231f20"/>
    <rect x="81" y="81" width="1" height="1" fill="#231f20"/>
    <rect x="0" y="82" width="82" height="1" fill="#231f20"/>
  </g>
</svg>