<?xml version="1.0" encoding="UTF-8"?>
<svg xmlns="http://www.w3.org/2000/svg" viewBox="0 0 136 79" width="136" height="79">
  <!-- Auto-converted from legend-2649.png -->
  <rect x="0" y="0" width="136" height="79" fill="none"/>
  <g fill="#231f20" stroke="none">
    <rect x="0" y="0" width="136" height="1" fill="#231f20"/>
    <rect x="0" y="1" width="1" height="1" fill="#231f20"/>
    <rect x="135" y="1" width="1" height="1" fill="#231f20"/>
    <rect x="0" y="2" width="1" height="1" fill="#231f20"/>
    <rect x="135" y="2" width="1" height="1" fill="#231f20"/>
    <rect x="0" y="3" width="1" height="1" fill="#231f20"/>
    <rect x="135" y="3" width="1" height="1" fill="#231f20"/>
    <rect x="0" y="4" width="1" height="1" fill="#231f20"/>
    <rect x="135" y="4" width="1" height="1" fill="#231f20"/>
    <rect x="0" y="5" width="1" height="1" fill="#231f20"/>
    <rect x="34" y="5" width="1" height="1" fill="#231f20"/>
    <rect x="68" y="5" width="1" height="1" fill="#231f20"/>
    <rect x="101" y="5" width="1" height="1" fill="#231f20"/>
    <rect x="135" y="5" width="1" height="1" fill="#231f20"/>
    <rect x="0" y="6" width="1" height="1" fill="#231f20"/>
    <rect x="34" y="6" width="1" height="1" fill="#231f20"/>
    <rect x="68" y="6" width="1" height="1" fill="#231f20"/>
    <rect x="101" y="6" width="1" height="1" fill="#231f20"/>
    <rect x="135" y="6" width="1" height="1" fill="#231f20"/>
    <rect x="0" y="7" width="1" height="1" fill="#231f20"/>
    <rect x="34" y="7" width="1" height="1" fill="#231f20"/>
    <rect x="68" y="7" width="1" height="1" fill="#231f20"/>
    <rect x="101" y="7" width="1" height="1" fill="#231f20"/>
    <rect x="135" y="7" width="1" height="1" fill="#231f20"/>
    <rect x="0" y="8" width="1" height="1" fill="#231f20"/>
    <rect x="34" y="8" width="1" height="1" fill="#231f20"/>
    <rect x="68" y="8" width="1" height="1" fill="#231f20"/>
    <rect x="101" y="8" width="1" height="1" fill="#231f20"/>
    <rect x="135" y="8" width="1" height="1" fill="#231f20"/>
    <rect x="0" y="9" width="1" height="1" fill="#231f20"/>
    <rect x="34" y="9" width="1" height="1" fill="#231f20"/>
    <rect x="68" y="9" width="1" height="1" fill="#231f20"/>
    <rect x="101" y="9" width="1" height="1" fill="#231f20"/>
    <rect x="135" y="9" width="1" height="1" fill="#231f20"/>
    <rect x="0" y="10" width="1" height="1" fill="#231f20"/>
    <rect x="34" y="10" width="1" height="1" fill="#231f20"/>
    <rect x="68" y="10" width="1" height="1" fill="#231f20"/>
    <rect x="101" y="10" width="1" height="1" fill="#231f20"/>
    <rect x="135" y="10" width="1" height="1" fill="#231f20"/>
    <rect x="0" y="11" width="1" height="1" fill="#231f20"/>
    <rect x="34" y="11" width="1" height="1" fill="#231f20"/>
    <rect x="68" y="11" width="1" height="1" fill="#231f20"/>
    <rect x="101" y="11" width="1" height="1" fill="#231f20"/>
    <rect x="135" y="11" width="1" height="1" fill="#231f20"/>
    <rect x="0" y="12" width="1" height="1" fill="#231f20"/>
    <rect x="34" y="12" width="1" height="1" fill="#231f20"/>
    <rect x="68" y="12" width="1" height="1" fill="#231f20"/>
    <rect x="101" y="12" width="1" height="1" fill="#231f20"/>
    <rect x="135" y="12" width="1" height="1" fill="#231f20"/>
    <rect x="0" y="13" width="1" height="1" fill="#231f20"/>
    <rect x="34" y="13" width="1" height="1" fill="#231f20"/>
    <rect x="68" y="13" width="1" height="1" fill="#231f20"/>
    <rect x="101" y="13" width="1" height="1" fill="#231f20"/>
    <rect x="135" y="13" width="1" height="1" fill="#231f20"/>
    <rect x="0" y="14" width="1" height="1" fill="#231f20"/>
    <rect x="34" y="14" width="1" height="1" fill="#231f20"/>
    <rect x="68" y="14" width="1" height="1" fill="#231f20"/>
    <rect x="101" y="14" width="1" height="1" fill="#231f20"/>
    <rect x="135" y="14" width="1" height="1" fill="#231f20"/>
    <rect x="0" y="15" width="1" height="1" fill="#231f20"/>
    <rect x="34" y="15" width="1" height="1" fill="#231f20"/>
    <rect x="68" y="15" width="1" height="1" fill="#231f20"/>
    <rect x="101" y="15" width="1" height="1" fill="#231f20"/>
    <rect x="135" y="15" width="1" height="1" fill="#231f20"/>
    <rect x="0" y="16" width="1" height="1" fill="#231f20"/>
    <rect x="34" y="16" width="1" height="1" fill="#231f20"/>
    <rect x="68" y="16" width="1" height="1" fill="#231f20"/>
    <rect x="101" y="16" width="1" height="1" fill="#231f20"/>
    <rect x="135" y="16" width="1" height="1" fill="#231f20"/>
    <rect x="0" y="17" width="1" height="1" fill="#231f20"/>
    <rect x="34" y="17" width="1" height="1" fill="#231f20"/>
    <rect x="68" y="17" width="1" height="1" fill="#231f20"/>
    <rect x="101" y="17" width="1" height="1" fill="#231f20"/>
    <rect x="135" y="17" width="1" height="1" fill="#231f20"/>
    <rect x="0" y="18" width="1" height="1" fill="#231f20"/>
    <rect x="34" y="18" width="1" height="1" fill="#231f20"/>
    <rect x="68" y="18" width="1" height="1" fill="#231f20"/>
    <rect x="101" y="18" width="1" height="1" fill="#231f20"/>
    <rect x="135" y="18" width="1" height="1" fill="#231f20"/>
    <rect x="0" y="19" width="1" height="1" fill="#231f20"/>
    <rect x="34" y="19" width="1" height="1" fill="#231f20"/>
    <rect x="68" y="19" width="1" height="1" fill="#231f20"/>
    <rect x="101" y="19" width="1" height="1" fill="#231f20"/>
    <rect x="135" y="19" width="1" height="1" fill="#231f20"/>
    <rect x="0" y="20" width="1" height="1" fill="#231f20"/>
    <rect x="34" y="20" width="1" height="1" fill="#231f20"/>
    <rect x="68" y="20" width="1" height="1" fill="#231f20"/>
    <rect x="101" y="20" width="1" height="1" fill="#231f20"/>
    <rect x="135" y="20" width="1" height="1" fill="#231f20"/>
    <rect x="0" y="21" width="1" height="1" fill="#231f20"/>
    <rect x="34" y="21" width="1" height="1" fill="#231f20"/>
    <rect x="68" y="21" width="1" height="1" fill="#231f20"/>
    <rect x="101" y="21" width="1" height="1" fill="#231f20"/>
    <rect x="135" y="21" width="1" height="1" fill="#231f20"/>
    <rect x="0" y="22" width="1" height="1" fill="#231f20"/>
    <rect x="34" y="22" width="1" height="1" fill="#231f20"/>
    <rect x="68" y="22" width="1" height="1" fill="#231f20"/>
    <rect x="101" y="22" width="1" height="1" fill="#231f20"/>
    <rect x="135" y="22" width="1" height="1" fill="#231f20"/>
    <rect x="0" y="23" width="1" height="1" fill="#231f20"/>
    <rect x="34" y="23" width="1" height="1" fill="#231f20"/>
    <rect x="68" y="23" width="1" height="1" fill="#231f20"/>
    <rect x="101" y="23" width="1" height="1" fill="#231f20"/>
    <rect x="135" y="23" width="1" height="1" fill="#231f20"/>
    <rect x="0" y="24" width="1" height="1" fill="#231f20"/>
    <rect x="34" y="24" width="1" height="1" fill="#231f20"/>
    <rect x="68" y="24" width="1" height="1" fill="#231f20"/>
    <rect x="101" y="24" width="1" height="1" fill="#231f20"/>
    <rect x="135" y="24" width="1" height="1" fill="#231f20"/>
    <rect x="0" y="25" width="1" height="1" fill="#231f20"/>
    <rect x="17" y="25" width="1" height="1" fill="#231f20"/>
    <rect x="34" y="25" width="1" height="1" fill="#231f20"/>
    <rect x="51" y="25" width="1" height="1" fill="#231f20"/>
    <rect x="68" y="25" width="1" height="1" fill="#231f20"/>
    <rect x="84" y="25" width="1" height="1" fill="#231f20"/>
    <rect x="101" y="25" width="1" height="1" fill="#231f20"/>
    <rect x="118" y="25" width="1" height="1" fill="#231f20"/>
    <rect x="135" y="25" width="1" height="1" fill="#231f20"/>
    <rect x="0" y="26" width="1" height="1" fill="#231f20"/>
    <rect x="17" y="26" width="1" height="1" fill="#231f20"/>
    <rect x="34" y="26" width="1" height="1" fill="#231f20"/>
    <rect x="51" y="26" width="1" height="1" fill="#231f20"/>
    <rect x="68" y="26" width="1" height="1" fill="#231f20"/>
    <rect x="84" y="26" width="1" height="1" fill="#231f20"/>
    <rect x="101" y="26" width="1" height="1" fill="#231f20"/>
    <rect x="118" y="26" width="1" height="1" fill="#231f20"/>
    <rect x="135" y="26" width="1" height="1" fill="#231f20"/>
    <rect x="0" y="27" width="1" height="1" fill="#231f20"/>
    <rect x="17" y="27" width="1" height="1" fill="#231f20"/>
    <rect x="34" y="27" width="1" height="1" fill="#231f20"/>
    <rect x="51" y="27" width="1" height="1" fill="#231f20"/>
    <rect x="68" y="27" width="1" height="1" fill="#231f20"/>
    <rect x="84" y="27" width="1" height="1" fill="#231f20"/>
    <rect x="101" y="27" width="1" height="1" fill="#231f20"/>
    <rect x="118" y="27" width="1" height="1" fill="#231f20"/>
    <rect x="135" y="27" width="1" height="1" fill="#231f20"/>
    <rect x="0" y="28" width="1" height="1" fill="#231f20"/>
    <rect x="17" y="28" width="1" height="1" fill="#231f20"/>
    <rect x="34" y="28" width="1" height="1" fill="#231f20"/>
    <rect x="51" y="28" width="1" height="1" fill="#231f20"/>
    <rect x="68" y="28" width="1" height="1" fill="#231f20"/>
    <rect x="84" y="28" width="1" height="1" fill="#231f20"/>
    <rect x="101" y="28" width="1" height="1" fill="#231f20"/>
    <rect x="118" y="28" width="1" height="1" fill="#231f20"/>
    <rect x="135" y="28" width="1" height="1" fill="#231f20"/>
    <rect x="0" y="29" width="1" height="1" fill="#231f20"/>
    <rect x="17" y="29" width="1" height="1" fill="#231f20"/>
    <rect x="34" y="29" width="1" height="1" fill="#231f20"/>
    <rect x="51" y="29" width="1" height="1" fill="#231f20"/>
    <rect x="68" y="29" width="1" height="1" fill="#231f20"/>
    <rect x="84" y="29" width="1" height="1" fill="#231f20"/>
    <rect x="101" y="29" width="1" height="1" fill="#231f20"/>
    <rect x="118" y="29" width="1" height="1" fill="#231f20"/>
    <rect x="135" y="29" width="1" height="1" fill="#231f20"/>
    <rect x="0" y="30" width="1" height="1" fill="#231f20"/>
    <rect x="17" y="30" width="1" height="1" fill="#231f20"/>
    <rect x="34" y="30" width="1" height="1" fill="#231f20"/>
    <rect x="51" y="30" width="1" height="1" fill="#231f20"/>
    <rect x="68" y="30" width="1" height="1" fill="#231f20"/>
    <rect x="84" y="30" width="1" height="1" fill="#231f20"/>
    <rect x="101" y="30" width="1" height="1" fill="#231f20"/>
    <rect x="118" y="30" width="1" height="1" fill="#231f20"/>
    <rect x="135" y="30" width="1" height="1" fill="#231f20"/>
    <rect x="0" y="31" width="1" height="1" fill="#231f20"/>
    <rect x="17" y="31" width="1" height="1" fill="#231f20"/>
    <rect x="34" y="31" width="1" height="1" fill="#231f20"/>
    <rect x="51" y="31" width="1" height="1" fill="#231f20"/>
    <rect x="68" y="31" width="1" height="1" fill="#231f20"/>
    <rect x="84" y="31" width="1" height="1" fill="#231f20"/>
    <rect x="101" y="31" width="1" height="1" fill="#231f20"/>
    <rect x="118" y="31" width="1" height="1" fill="#231f20"/>
    <rect x="135" y="31" width="1" height="1" fill="#231f20"/>
    <rect x="0" y="32" width="1" height="1" fill="#231f20"/>
    <rect x="17" y="32" width="1" height="1" fill="#231f20"/>
    <rect x="34" y="32" width="1" height="1" fill="#231f20"/>
    <rect x="51" y="32" width="1" height="1" fill="#231f20"/>
    <rect x="68" y="32" width="1" height="1" fill="#231f20"/>
    <rect x="84" y="32" width="1" height="1" fill="#231f20"/>
    <rect x="101" y="32" width="1" height="1" fill="#231f20"/>
    <rect x="118" y="32" width="1" height="1" fill="#231f20"/>
    <rect x="135" y="32" width="1" height="1" fill="#231f20"/>
    <rect x="0" y="33" width="1" height="1" fill="#231f20"/>
    <rect x="17" y="33" width="1" height="1" fill="#231f20"/>
    <rect x="34" y="33" width="1" height="1" fill="#231f20"/>
    <rect x="51" y="33" width="1" height="1" fill="#231f20"/>
    <rect x="68" y="33" width="1" height="1" fill="#231f20"/>
    <rect x="84" y="33" width="1" height="1" fill="#231f20"/>
    <rect x="101" y="33" width="1" height="1" fill="#231f20"/>
    <rect x="118" y="33" width="1" height="1" fill="#231f20"/>
    <rect x="135" y="33" width="1" height="1" fill="#231f20"/>
    <rect x="0" y="34" width="1" height="1" fill="#231f20"/>
    <rect x="17" y="34" width="1" height="1" fill="#231f20"/>
    <rect x="34" y="34" width="1" height="1" fill="#231f20"/>
    <rect x="51" y="34" width="1" height="1" fill="#231f20"/>
    <rect x="68" y="34" width="1" height="1" fill="#231f20"/>
    <rect x="84" y="34" width="1" height="1" fill="#231f20"/>
    <rect x="101" y="34" width="1" height="1" fill="#231f20"/>
    <rect x="118" y="34" width="1" height="1" fill="#231f20"/>
    <rect x="135" y="34" width="1" height="1" fill="#231f20"/>
    <rect x="0" y="35" width="1" height="1" fill="#231f20"/>
    <rect x="17" y="35" width="1" height="1" fill="#231f20"/>
    <rect x="51" y="35" width="1" height="1" fill="#231f20"/>
    <rect x="84" y="35" width="1" height="1" fill="#231f20"/>
    <rect x="118" y="35" width="1" height="1" fill="#231f20"/>
    <rect x="135" y="35" width="1" height="1" fill="#231f20"/>
    <rect x="0" y="36" width="1" height="1" fill="#231f20"/>
    <rect x="17" y="36" width="1" height="1" fill="#231f20"/>
    <rect x="51" y="36" width="1" height="1" fill="#231f20"/>
    <rect x="84" y="36" width="1" height="1" fill="#231f20"/>
    <rect x="118" y="36" width="1" height="1" fill="#231f20"/>
    <rect x="135" y="36" width="1" height="1" fill="#231f20"/>
    <rect x="0" y="37" width="1" height="1" fill="#231f20"/>
    <rect x="17" y="37" width="1" height="1" fill="#231f20"/>
    <rect x="51" y="37" width="1" height="1" fill="#231f20"/>
    <rect x="84" y="37" width="1" height="1" fill="#231f20"/>
    <rect x="118" y="37" width="1" height="1" fill="#231f20"/>
    <rect x="135" y="37" width="1" height="1" fill="#231f20"/>
    <rect x="0" y="38" width="1" height="1" fill="#231f20"/>
    <rect x="17" y="38" width="1" height="1" fill="#231f20"/>
    <rect x="51" y="38" width="1" height="1" fill="#231f20"/>
    <rect x="84" y="38" width="1" height="1" fill="#231f20"/>
    <rect x="118" y="38" width="1" height="1" fill="#231f20"/>
    <rect x="135" y="38" width="1" height="1" fill="#231f20"/>
    <rect x="0" y="39" width="1" height="1" fill="#231f20"/>
    <rect x="17" y="39" width="1" height="1" fill="#231f20"/>
    <rect x="51" y="39" width="1" height="1" fill="#231f20"/>
    <rect x="84" y="39" width="1" height="1" fill="#231f20"/>
    <rect x="118" y="39" width="1" height="1" fill="#231f20"/>
    <rect x="135" y="39" width="1" height="1" fill="#231f20"/>
    <rect x="0" y="40" width="1" height="1" fill="#231f20"/>
    <rect x="17" y="40" width="1" height="1" fill="#231f20"/>
    <rect x="51" y="40" width="1" height="1" fill="#231f20"/>
    <rect x="84" y="40" width="1" height="1" fill="#231f20"/>
    <rect x="118" y="40" width="1" height="1" fill="#231f20"/>
    <rect x="135" y="40" width="1" height="1" fill="#231f20"/>
    <rect x="0" y="41" width="1" height="1" fill="#231f20"/>
    <rect x="17" y="41" width="1" height="1" fill="#231f20"/>
    <rect x="51" y="41" width="1" height="1" fill="#231f20"/>
    <rect x="84" y="41" width="1" height="1" fill="#231f20"/>
    <rect x="118" y="41" width="1" height="1" fill="#231f20"/>
    <rect x="135" y="41" width="1" height="1" fill="#231f20"/>
    <rect x="0" y="42" width="1" height="1" fill="#231f20"/>
    <rect x="17" y="42" width="1" height="1" fill="#231f20"/>
    <rect x="51" y="42" width="1" height="1" fill="#231f20"/>
    <rect x="84" y="42" width="1" height="1" fill="#231f20"/>
    <rect x="118" y="42" width="1" height="1" fill="#231f20"/>
    <rect x="135" y="42" width="1" height="1" fill="#231f20"/>
    <rect x="0" y="43" width="1" height="1" fill="#231f20"/>
    <rect x="17" y="43" width="1" height="1" fill="#231f20"/>
    <rect x="51" y="43" width="1" height="1" fill="#231f20"/>
    <rect x="84" y="43" width="1" height="1" fill="#231f20"/>
    <rect x="118" y="43" width="1" height="1" fill="#231f20"/>
    <rect x="135" y="43" width="1" height="1" fill="#231f20"/>
    <rect x="0" y="44" width="1" height="1" fill="#231f20"/>
    <rect x="17" y="44" width="1" height="1" fill="#231f20"/>
    <rect x="51" y="44" width="1" height="1" fill="#231f20"/>
    <rect x="84" y="44" width="1" height="1" fill="#231f20"/>
    <rect x="118" y="44" width="1" height="1" fill="#231f20"/>
    <rect x="135" y="44" width="1" height="1" fill="#231f20"/>
    <rect x="0" y="45" width="1" height="1" fill="#231f20"/>
    <rect x="17" y="45" width="1" height="1" fill="#231f20"/>
    <rect x="34" y="45" width="1" height="1" fill="#231f20"/>
    <rect x="51" y="45" width="1" height="1" fill="#231f20"/>
    <rect x="68" y="45" width="1" height="1" fill="#231f20"/>
    <rect x="84" y="45" width="1" height="1" fill="#231f20"/>
    <rect x="101" y="45" width="1" height="1" fill="#231f20"/>
    <rect x="118" y="45" width="1" height="1" fill="#231f20"/>
    <rect x="135" y="45" width="1" height="1" fill="#231f20"/>
    <rect x="0" y="46" width="1" height="1" fill="#231f20"/>
    <rect x="17" y="46" width="1" height="1" fill="#231f20"/>
    <rect x="34" y="46" width="1" height="1" fill="#231f20"/>
    <rect x="51" y="46" width="1" height="1" fill="#231f20"/>
    <rect x="68" y="46" width="1" height="1" fill="#231f20"/>
    <rect x="84" y="46" width="1" height="1" fill="#231f20"/>
    <rect x="101" y="46" width="1" height="1" fill="#231f20"/>
    <rect x="118" y="46" width="1" height="1" fill="#231f20"/>
    <rect x="135" y="46" width="1" height="1" fill="#231f20"/>
    <rect x="0" y="47" width="1" height="1" fill="#231f20"/>
    <rect x="17" y="47" width="1" height="1" fill="#231f20"/>
    <rect x="34" y="47" width="1" height="1" fill="#231f20"/>
    <rect x="51" y="47" width="1" height="1" fill="#231f20"/>
    <rect x="68" y="47" width="1" height="1" fill="#231f20"/>
    <rect x="84" y="47" width="1" height="1" fill="#231f20"/>
    <rect x="101" y="47" width="1" height="1" fill="#231f20"/>
    <rect x="118" y="47" width="1" height="1" fill="#231f20"/>
    <rect x="135" y="47" width="1" height="1" fill="#231f20"/>
    <rect x="0" y="48" width="1" height="1" fill="#231f20"/>
    <rect x="17" y="48" width="1" height="1" fill="#231f20"/>
    <rect x="34" y="48" width="1" height="1" fill="#231f20"/>
    <rect x="51" y="48" width="1" height="1" fill="#231f20"/>
    <rect x="68" y="48" width="1" height="1" fill="#231f20"/>
    <rect x="84" y="48" width="1" height="1" fill="#231f20"/>
    <rect x="101" y="48" width="1" height="1" fill="#231f20"/>
    <rect x="118" y="48" width="1" height="1" fill="#231f20"/>
    <rect x="135" y="48" width="1" height="1" fill="#231f20"/>
    <rect x="0" y="49" width="1" height="1" fill="#231f20"/>
    <rect x="17" y="49" width="1" height="1" fill="#231f20"/>
    <rect x="34" y="49" width="1" height="1" fill="#231f20"/>
    <rect x="51" y="49" width="1" height="1" fill="#231f20"/>
    <rect x="68" y="49" width="1" height="1" fill="#231f20"/>
    <rect x="84" y="49" width="1" height="1" fill="#231f20"/>
    <rect x="101" y="49" width="1" height="1" fill="#231f20"/>
    <rect x="118" y="49" width="1" height="1" fill="#231f20"/>
    <rect x="135" y="49" width="1" height="1" fill="#231f20"/>
    <rect x="0" y="50" width="1" height="1" fill="#231f20"/>
    <rect x="17" y="50" width="1" height="1" fill="#231f20"/>
    <rect x="34" y="50" width="1" height="1" fill="#231f20"/>
    <rect x="51" y="50" width="1" height="1" fill="#231f20"/>
    <rect x="68" y="50" width="1" height="1" fill="#231f20"/>
    <rect x="84" y="50" width="1" height="1" fill="#231f20"/>
    <rect x="101" y="50" width="1" height="1" fill="#231f20"/>
    <rect x="118" y="50" width="1" height="1" fill="#231f20"/>
    <rect x="135" y="50" width="1" height="1" fill="#231f20"/>
    <rect x="0" y="51" width="1" height="1" fill="#231f20"/>
    <rect x="17" y="51" width="1" height="1" fill="#231f20"/>
    <rect x="34" y="51" width="1" height="1" fill="#231f20"/>
    <rect x="51" y="51" width="1" height="1" fill="#231f20"/>
    <rect x="68" y="51" width="1" height="1" fill="#231f20"/>
    <rect x="84" y="51" width="1" height="1" fill="#231f20"/>
    <rect x="101" y="51" width="1" height="1" fill="#231f20"/>
    <rect x="118" y="51" width="1" height="1" fill="#231f20"/>
    <rect x="135" y="51" width="1" height="1" fill="#231f20"/>
    <rect x="0" y="52" width="1" height="1" fill="#231f20"/>
    <rect x="17" y="52" width="1" height="1" fill="#231f20"/>
    <rect x="34" y="52" width="1" height="1" fill="#231f20"/>
    <rect x="51" y="52" width="1" height="1" fill="#231f20"/>
    <rect x="68" y="52" width="1" height="1" fill="#231f20"/>
    <rect x="84" y="52" width="1" height="1" fill="#231f20"/>
    <rect x="101" y="52" width="1" height="1" fill="#231f20"/>
    <rect x="118" y="52" width="1" height="1" fill="#231f20"/>
    <rect x="135" y="52" width="1" height="1" fill="#231f20"/>
    <rect x="0" y="53" width="1" height="1" fill="#231f20"/>
    <rect x="17" y="53" width="1" height="1" fill="#231f20"/>
    <rect x="34" y="53" width="1" height="1" fill="#231f20"/>
    <rect x="51" y="53" width="1" height="1" fill="#231f20"/>
    <rect x="68" y="53" width="1" height="1" fill="#231f20"/>
    <rect x="84" y="53" width="1" height="1" fill="#231f20"/>
    <rect x="101" y="53" width="1" height="1" fill="#231f20"/>
    <rect x="118" y="53" width="1" height="1" fill="#231f20"/>
    <rect x="135" y="53" width="1" height="1" fill="#231f20"/>
    <rect x="0" y="54" width="1" height="1" fill="#231f20"/>
    <rect x="34" y="54" width="1" height="1" fill="#231f20"/>
    <rect x="68" y="54" width="1" height="1" fill="#231f20"/>
    <rect x="101" y="54" width="1" height="1" fill="#231f20"/>
    <rect x="135" y="54" width="1" height="1" fill="#231f20"/>
    <rect x="0" y="55" width="1" height="1" fill="#231f20"/>
    <rect x="34" y="55" width="1" height="1" fill="#231f20"/>
    <rect x="68" y="55" width="1" height="1" fill="#231f20"/>
    <rect x="101" y="55" width="1" height="1" fill="#231f20"/>
    <rect x="135" y="55" width="1" height="1" fill="#231f20"/>
    <rect x="0" y="56" width="1" height="1" fill="#231f20"/>
    <rect x="34" y="56" width="1" height="1" fill="#231f20"/>
    <rect x="68" y="56" width="1" height="1" fill="#231f20"/>
    <rect x="101" y="56" width="1" height="1" fill="#231f20"/>
    <rect x="135" y="56" width="1" height="1" fill="#231f20"/>
    <rect x="0" y="57" width="1" height="1" fill="#231f20"/>
    <rect x="34" y="57" width="1" height="1" fill="#231f20"/>
    <rect x="68" y="57" width="1" height="1" fill="#231f20"/>
    <rect x="101" y="57" width="1" height="1" fill="#231f20"/>
    <rect x="135" y="57" width="1" height="1" fill="#231f20"/>
    <rect x="0" y="58" width="1" height="1" fill="#231f20"/>
    <rect x="34" y="58" width="1" height="1" fill="#231f20"/>
    <rect x="68" y="58" width="1" height="1" fill="#231f20"/>
    <rect x="101" y="58" width="1" height="1" fill="#231f20"/>
    <rect x="135" y="58" width="1" height="1" fill="#231f20"/>
    <rect x="0" y="59" width="1" height="1" fill="#231f20"/>
    <rect x="34" y="59" width="1" height="1" fill="#231f20"/>
    <rect x="68" y="59" width="1" height="1" fill="#231f20"/>
    <rect x="101" y="59" width="1" height="1" fill="#231f20"/>
    <rect x="135" y="59" width="1" height="1" fill="#231f20"/>
    <rect x="0" y="60" width="1" height="1" fill="#231f20"/>
    <rect x="34" y="60" width="1" height="1" fill="#231f20"/>
    <rect x="68" y="60" width="1" height="1" fill="#231f20"/>
    <rect x="101" y="60" width="1" height="1" fill="#231f20"/>
    <rect x="135" y="60" width="1" height="1" fill="#231f20"/>
    <rect x="0" y="61" width="1" height="1" fill="#231f20"/>
    <rect x="34" y="61" width="1" height="1" fill="#231f20"/>
    <rect x="68" y="61" width="1" height="1" fill="#231f20"/>
    <rect x="101" y="61" width="1" height="1" fill="#231f20"/>
    <rect x="135" y="61" width="1" height="1" fill="#231f20"/>
    <rect x="0" y="62" width="1" height="1" fill="#231f20"/>
    <rect x="34" y="62" width="1" height="1" fill="#231f20"/>
    <rect x="68" y="62" width="1" height="1" fill="#231f20"/>
    <rect x="101" y="62" width="1" height="1" fill="#231f20"/>
    <rect x="135" y="62" width="1" height="1" fill="#231f20"/>
    <rect x="0" y="63" width="1" height="1" fill="#231f20"/>
    <rect x="34" y="63" width="1" height="1" fill="#231f20"/>
    <rect x="68" y="63" width="1" height="1" fill="#231f20"/>
    <rect x="101" y="63" width="1" height="1" fill="#231f20"/>
    <rect x="135" y="63" width="1" height="1" fill="#231f20"/>
    <rect x="0" y="64" width="1" height="1" fill="#231f20"/>
    <rect x="34" y="64" width="1" height="1" fill="#231f20"/>
    <rect x="68" y="64" width="1" height="1" fill="#231f20"/>
    <rect x="101" y="64" width="1" height="1" fill="#231f20"/>
    <rect x="135" y="64" width="1" height="1" fill="#231f20"/>
    <rect x="0" y="65" width="1" height="1" fill="#231f20"/>
    <rect x="34" y="65" width="1" height="1" fill="#231f20"/>
    <rect x="68" y="65" width="1" height="1" fill="#231f20"/>
    <rect x="101" y="65" width="1" height="1" fill="#231f20"/>
    <rect x="135" y="65" width="1" height="1" fill="#231f20"/>
    <rect x="0" y="66" width="1" height="1" fill="#231f20"/>
    <rect x="34" y="66" width="1" height="1" fill="#231f20"/>
    <rect x="68" y="66" width="1" height="1" fill="#231f20"/>
    <rect x="101" y="66" width="1" height="1" fill="#231f20"/>
    <rect x="135" y="66" width="1" height="1" fill="#231f20"/>
    <rect x="0" y="67" width="1" height="1" fill="#231f20"/>
    <rect x="34" y="67" width="1" height="1" fill="#231f20"/>
    <rect x="68" y="67" width="1" height="1" fill="#231f20"/>
    <rect x="101" y="67" width="1" height="1" fill="#231f20"/>
    <rect x="135" y="67" width="1" height="1" fill="#231f20"/>
    <rect x="0" y="68" width="1" height="1" fill="#231f20"/>
    <rect x="34" y="68" width="1" height="1" fill="#231f20"/>
    <rect x="68" y="68" width="1" height="1" fill="#231f20"/>
    <rect x="101" y="68" width="1" height="1" fill="#231f20"/>
    <rect x="135" y="68" width="1" height="1" fill="#231f20"/>
    <rect x="0" y="69" width="1" height="1" fill="#231f20"/>
    <rect x="34" y="69" width="1" height="1" fill="#231f20"/>
    <rect x="68" y="69" width="1" height="1" fill="#231f20"/>
    <rect x="101" y="69" width="1" height="1" fill="#231f20"/>
    <rect x="135" y="69" width="1" height="1" fill="#231f20"/>
    <rect x="0" y="70" width="1" height="1" fill="#231f20"/>
    <rect x="34" y="70" width="1" height="1" fill="#231f20"/>
    <rect x="68" y="70" width="1" height="1" fill="#231f20"/>
    <rect x="101" y="70" width="1" height="1" fill="#231f20"/>
    <rect x="135" y="70" width="1" height="1" fill="#231f20"/>
    <rect x="0" y="71" width="1" height="1" fill="#231f20"/>
    <rect x="34" y="71" width="1" height="1" fill="#231f20"/>
    <rect x="68" y="71" width="1" height="1" fill="#231f20"/>
    <rect x="101" y="71" width="1" height="1" fill="#231f20"/>
    <rect x="135" y="71" width="1" height="1" fill="#231f20"/>
    <rect x="0" y="72" width="1" height="1" fill="#231f20"/>
    <rect x="34" y="72" width="1" height="1" fill="#231f20"/>
    <rect x="68" y="72" width="1" height="1" fill="#231f20"/>
    <rect x="101" y="72" width="1" height="1" fill="#231f20"/>
    <rect x="135" y="72" width="1" height="1" fill="#231f20"/>
    <rect x="0" y="73" width="1" height="1" fill="#231f20"/>
    <rect x="34" y="73" width="1" height="1" fill="#231f20"/>
    <rect x="68" y="73" width="1" height="1" fill="#231f20"/>
    <rect x="101" y="73" width="1" height="1" fill="#231f20"/>
    <rect x="135" y="73" width="1" height="1" fill="#231f20"/>
    <rect x="0" y="74" width="1" height="1" fill="#231f20"/>
    <rect x="135" y="74" width="1" height="1" fill="#231f20"/>
    <rect x="0" y="75" width="1" height="1" fill="#231f20"/>
    <rect x="135" y="75" width="1" height="1" fill="#231f20"/>
    <rect x="0" y="76" width="1" height="1" fill="#231f20"/>
    <rect x="135" y="76" width="1" height="1" fill="#231f20"/>
    <rect x="0" y="77" width="1" height="1" fill="#231f20"/>
    <rect x="135" y="77" width="1" height="1" fill="#231f20"/>
    <rect x="0" y="78" width="136" height="1" fill="#231f20"/>
  </g>
</svg>