<?xml version="1.0" encoding="UTF-8"?>
<svg xmlns="http://www.w3.org/2000/svg" viewBox="0 0 172 79" width="172" height="79">
  <!-- Auto-converted from legend-2728.png -->
  <rect x="0" y="0" width="172" height="79" fill="none"/>
  <g fill="#393536" stroke="none">
    <rect x="0" y="0" width="172" height="1" fill="#393536"/>
    <rect x="0" y="1" width="1" height="1" fill="#393536"/>
    <rect x="171" y="1" width="1" height="1" fill="#393536"/>
    <rect x="0" y="2" width="1" height="1" fill="#393536"/>
    <rect x="171" y="2" width="1" height="1" fill="#393536"/>
    <rect x="0" y="3" width="1" height="1" fill="#393536"/>
    <rect x="171" y="3" width="1" height="1" fill="#393536"/>
    <rect x="0" y="4" width="1" height="1" fill="#393536"/>
    <rect x="171" y="4" width="1" height="1" fill="#393536"/>
    <rect x="0" y="5" width="1" height="1" fill="#393536"/>
    <rect x="171" y="5" width="1" height="1" fill="#393536"/>
    <rect x="0" y="6" width="1" height="1" fill="#393536"/>
    <rect x="171" y="6" width="1" height="1" fill="#393536"/>
    <rect x="0" y="7" width="1" height="1" fill="#393536"/>
    <rect x="171" y="7" width="1" height="1" fill="#393536"/>
    <rect x="0" y="8" width="1" height="1" fill="#393536"/>
    <rect x="171" y="8" width="1" height="1" fill="#393536"/>
    <rect x="0" y="9" width="1" height="1" fill="#393536"/>
    <rect x="171" y="9" width="1" height="1" fill="#393536"/>
    <rect x="0" y="10" width="1" height="1" fill="#393536"/>
    <rect x="171" y="10" width="1" height="1" fill="#393536"/>
    <rect x="0" y="11" width="1" height="1" fill="#393536"/>
    <rect x="171" y="11" width="1" height="1" fill="#393536"/>
    <rect x="0" y="12" width="1" height="1" fill="#393536"/>
    <rect x="33" y="12" width="1" height="1" fill="#393536"/>
    <rect x="171" y="12" width="1" height="1" fill="#393536"/>
    <rect x="0" y="13" width="1" height="1" fill="#393536"/>
    <rect x="33" y="13" width="2" height="1" fill="#393536"/>
    <rect x="171" y="13" width="1" height="1" fill="#393536"/>
    <rect x="0" y="14" width="1" height="1" fill="#393536"/>
    <rect x="33" y="14" width="1" height="1" fill="#393536"/>
    <rect x="35" y="14" width="3" height="1" fill="#393536"/>
    <rect x="171" y="14" width="1" height="1" fill="#393536"/>
    <rect x="0" y="15" width="1" height="1" fill="#393536"/>
    <rect x="33" y="15" width="1" height="1" fill="#393536"/>
    <rect x="38" y="15" width="3" height="1" fill="#393536"/>
    <rect x="171" y="15" width="1" height="1" fill="#393536"/>
    <rect x="0" y="16" width="1" height="1" fill="#393536"/>
    <rect x="33" y="16" width="1" height="1" fill="#393536"/>
    <rect x="41" y="16" width="3" height="1" fill="#393536"/>
    <rect x="171" y="16" width="1" height="1" fill="#393536"/>
    <rect x="0" y="17" width="1" height="1" fill="#393536"/>
    <rect x="33" y="17" width="1" height="1" fill="#393536"/>
    <rect x="39" y="17" width="7" height="1" fill="#393536"/>
    <rect x="171" y="17" width="1" height="1" fill="#393536"/>
    <rect x="0" y="18" width="1" height="1" fill="#393536"/>
    <rect x="33" y="18" width="6" height="1" fill="#393536"/>
    <rect x="171" y="18" width="1" height="1" fill="#393536"/>
    <rect x="0" y="19" width="1" height="1" fill="#393536"/>
    <rect x="33" y="19" width="1" height="1" fill="#393536"/>
    <rect x="171" y="19" width="1" height="1" fill="#393536"/>
    <rect x="0" y="20" width="1" height="1" fill="#393536"/>
    <rect x="33" y="20" width="1" height="1" fill="#393536"/>
    <rect x="171" y="20" width="1" height="1" fill="#393536"/>
    <rect x="0" y="21" width="1" height="1" fill="#393536"/>
    <rect x="33" y="21" width="1" height="1" fill="#393536"/>
    <rect x="171" y="21" width="1" height="1" fill="#393536"/>
    <rect x="0" y="22" width="1" height="1" fill="#393536"/>
    <rect x="33" y="22" width="1" height="1" fill="#393536"/>
    <rect x="171" y="22" width="1" height="1" fill="#393536"/>
    <rect x="0" y="23" width="1" height="1" fill="#393536"/>
    <rect x="28" y="23" width="7" height="1" fill="#393536"/>
    <rect x="171" y="23" width="1" height="1" fill="#393536"/>
    <rect x="0" y="24" width="1" height="1" fill="#393536"/>
    <rect x="28" y="24" width="1" height="1" fill="#393536"/>
    <rect x="34" y="24" width="1" height="1" fill="#393536"/>
    <rect x="171" y="24" width="1" height="1" fill="#393536"/>
    <rect x="0" y="25" width="1" height="1" fill="#393536"/>
    <rect x="28" y="25" width="1" height="1" fill="#393536"/>
    <rect x="34" y="25" width="1" height="1" fill="#393536"/>
    <rect x="171" y="25" width="1" height="1" fill="#393536"/>
    <rect x="0" y="26" width="1" height="1" fill="#393536"/>
    <rect x="25" y="26" width="4" height="1" fill="#393536"/>
    <rect x="34" y="26" width="4" height="1" fill="#393536"/>
    <rect x="171" y="26" width="1" height="1" fill="#393536"/>
    <rect x="0" y="27" width="1" height="1" fill="#393536"/>
    <rect x="25" y="27" width="1" height="1" fill="#393536"/>
    <rect x="28" y="27" width="7" height="1" fill="#393536"/>
    <rect x="37" y="27" width="1" height="1" fill="#393536"/>
    <rect x="171" y="27" width="1" height="1" fill="#393536"/>
    <rect x="0" y="28" width="1" height="1" fill="#393536"/>
    <rect x="25" y="28" width="1" height="1" fill="#393536"/>
    <rect x="37" y="28" width="1" height="1" fill="#393536"/>
    <rect x="171" y="28" width="1" height="1" fill="#393536"/>
    <rect x="0" y="29" width="1" height="1" fill="#393536"/>
    <rect x="25" y="29" width="1" height="1" fill="#393536"/>
    <rect x="37" y="29" width="1" height="1" fill="#393536"/>
    <rect x="171" y="29" width="1" height="1" fill="#393536"/>
    <rect x="0" y="30" width="1" height="1" fill="#393536"/>
    <rect x="25" y="30" width="13" height="1" fill="#393536"/>
    <rect x="171" y="30" width="1" height="1" fill="#393536"/>
    <rect x="0" y="31" width="1" height="1" fill="#393536"/>
    <rect x="28" y="31" width="2" height="1" fill="#393536"/>
    <rect x="33" y="31" width="2" height="1" fill="#393536"/>
    <rect x="171" y="31" width="1" height="1" fill="#393536"/>
    <rect x="0" y="32" width="1" height="1" fill="#393536"/>
    <rect x="28" y="32" width="2" height="1" fill="#393536"/>
    <rect x="33" y="32" width="2" height="1" fill="#393536"/>
    <rect x="171" y="32" width="1" height="1" fill="#393536"/>
    <rect x="0" y="33" width="1" height="1" fill="#393536"/>
    <rect x="28" y="33" width="1" height="1" fill="#393536"/>
    <rect x="30" y="33" width="1" height="1" fill="#393536"/>
    <rect x="32" y="33" width="1" height="1" fill="#393536"/>
    <rect x="35" y="33" width="1" height="1" fill="#393536"/>
    <rect x="70" y="33" width="1" height="1" fill="#393536"/>
    <rect x="82" y="33" width="1" height="1" fill="#393536"/>
    <rect x="134" y="33" width="1" height="1" fill="#393536"/>
    <rect x="145" y="33" width="2" height="1" fill="#393536"/>
    <rect x="171" y="33" width="1" height="1" fill="#393536"/>
    <rect x="0" y="34" width="1" height="1" fill="#393536"/>
    <rect x="27" y="34" width="1" height="1" fill="#393536"/>
    <rect x="31" y="34" width="1" height="1" fill="#393536"/>
    <rect x="35" y="34" width="1" height="1" fill="#393536"/>
    <rect x="70" y="34" width="3" height="1" fill="#393536"/>
    <rect x="75" y="34" width="3" height="1" fill="#393536"/>
    <rect x="82" y="34" width="2" height="1" fill="#393536"/>
    <rect x="96" y="34" width="2" height="1" fill="#393536"/>
    <rect x="134" y="34" width="14" height="1" fill="#393536"/>
    <rect x="171" y="34" width="1" height="1" fill="#393536"/>
    <rect x="0" y="35" width="1" height="1" fill="#393536"/>
    <rect x="27" y="35" width="1" height="1" fill="#393536"/>
    <rect x="30" y="35" width="1" height="1" fill="#393536"/>
    <rect x="32" y="35" width="1" height="1" fill="#393536"/>
    <rect x="35" y="35" width="1" height="1" fill="#393536"/>
    <rect x="70" y="35" width="2" height="1" fill="#393536"/>
    <rect x="75" y="35" width="2" height="1" fill="#393536"/>
    <rect x="82" y="35" width="2" height="1" fill="#393536"/>
    <rect x="96" y="35" width="2" height="1" fill="#393536"/>
    <rect x="101" y="35" width="13" height="1" fill="#393536"/>
    <rect x="134" y="35" width="2" height="1" fill="#393536"/>
    <rect x="145" y="35" width="2" height="1" fill="#393536"/>
    <rect x="171" y="35" width="1" height="1" fill="#393536"/>
    <rect x="0" y="36" width="1" height="1" fill="#393536"/>
    <rect x="27" y="36" width="1" height="1" fill="#393536"/>
    <rect x="30" y="36" width="1" height="1" fill="#393536"/>
    <rect x="32" y="36" width="1" height="1" fill="#393536"/>
    <rect x="35" y="36" width="1" height="1" fill="#393536"/>
    <rect x="70" y="36" width="2" height="1" fill="#393536"/>
    <rect x="75" y="36" width="2" height="1" fill="#393536"/>
    <rect x="82" y="36" width="2" height="1" fill="#393536"/>
    <rect x="96" y="36" width="2" height="1" fill="#393536"/>
    <rect x="101" y="36" width="14" height="1" fill="#393536"/>
    <rect x="122" y="36" width="1" height="1" fill="#393536"/>
    <rect x="134" y="36" width="2" height="1" fill="#393536"/>
    <rect x="145" y="36" width="2" height="1" fill="#393536"/>
    <rect x="171" y="36" width="1" height="1" fill="#393536"/>
    <rect x="0" y="37" width="1" height="1" fill="#393536"/>
    <rect x="27" y="37" width="1" height="1" fill="#393536"/>
    <rect x="29" y="37" width="1" height="1" fill="#393536"/>
    <rect x="33" y="37" width="1" height="1" fill="#393536"/>
    <rect x="35" y="37" width="1" height="1" fill="#393536"/>
    <rect x="67" y="37" width="13" height="1" fill="#393536"/>
    <rect x="82" y="37" width="2" height="1" fill="#393536"/>
    <rect x="96" y="37" width="2" height="1" fill="#393536"/>
    <rect x="101" y="37" width="2" height="1" fill="#393536"/>
    <rect x="111" y="37" width="3" height="1" fill="#393536"/>
    <rect x="120" y="37" width="3" height="1" fill="#393536"/>
    <rect x="134" y="37" width="2" height="1" fill="#393536"/>
    <rect x="145" y="37" width="2" height="1" fill="#393536"/>
    <rect x="171" y="37" width="1" height="1" fill="#393536"/>
    <rect x="0" y="38" width="1" height="1" fill="#393536"/>
    <rect x="27" y="38" width="2" height="1" fill="#393536"/>
    <rect x="34" y="38" width="2" height="1" fill="#393536"/>
    <rect x="67" y="38" width="13" height="1" fill="#393536"/>
    <rect x="82" y="38" width="2" height="1" fill="#393536"/>
    <rect x="96" y="38" width="2" height="1" fill="#393536"/>
    <rect x="100" y="38" width="3" height="1" fill="#393536"/>
    <rect x="104" y="38" width="2" height="1" fill="#393536"/>
    <rect x="108" y="38" width="1" height="1" fill="#393536"/>
    <rect x="111" y="38" width="1" height="1" fill="#393536"/>
    <rect x="118" y="38" width="5" height="1" fill="#393536"/>
    <rect x="134" y="38" width="2" height="1" fill="#393536"/>
    <rect x="145" y="38" width="2" height="1" fill="#393536"/>
    <rect x="171" y="38" width="1" height="1" fill="#393536"/>
    <rect x="0" y="39" width="1" height="1" fill="#393536"/>
    <rect x="27" y="39" width="1" height="1" fill="#393536"/>
    <rect x="35" y="39" width="2" height="1" fill="#393536"/>
    <rect x="70" y="39" width="2" height="1" fill="#393536"/>
    <rect x="75" y="39" width="2" height="1" fill="#393536"/>
    <rect x="82" y="39" width="2" height="1" fill="#393536"/>
    <rect x="92" y="39" width="10" height="1" fill="#393536"/>
    <rect x="103" y="39" width="3" height="1" fill="#393536"/>
    <rect x="109" y="39" width="2" height="1" fill="#393536"/>
    <rect x="121" y="39" width="2" height="1" fill="#393536"/>
    <rect x="134" y="39" width="13" height="1" fill="#393536"/>
    <rect x="171" y="39" width="1" height="1" fill="#393536"/>
    <rect x="0" y="40" width="1" height="1" fill="#393536"/>
    <rect x="27" y="40" width="1" height="1" fill="#393536"/>
    <rect x="35" y="40" width="2" height="1" fill="#393536"/>
    <rect x="70" y="40" width="7" height="1" fill="#393536"/>
    <rect x="78" y="40" width="12" height="1" fill="#393536"/>
    <rect x="92" y="40" width="2" height="1" fill="#393536"/>
    <rect x="96" y="40" width="2" height="1" fill="#393536"/>
    <rect x="102" y="40" width="3" height="1" fill="#393536"/>
    <rect x="110" y="40" width="3" height="1" fill="#393536"/>
    <rect x="121" y="40" width="2" height="1" fill="#393536"/>
    <rect x="134" y="40" width="2" height="1" fill="#393536"/>
    <rect x="145" y="40" width="2" height="1" fill="#393536"/>
    <rect x="171" y="40" width="1" height="1" fill="#393536"/>
    <rect x="0" y="41" width="1" height="1" fill="#393536"/>
    <rect x="26" y="41" width="11" height="1" fill="#393536"/>
    <rect x="70" y="41" width="7" height="1" fill="#393536"/>
    <rect x="79" y="41" width="1" height="1" fill="#393536"/>
    <rect x="82" y="41" width="2" height="1" fill="#393536"/>
    <rect x="87" y="41" width="2" height="1" fill="#393536"/>
    <rect x="96" y="41" width="2" height="1" fill="#393536"/>
    <rect x="102" y="41" width="2" height="1" fill="#393536"/>
    <rect x="111" y="41" width="3" height="1" fill="#393536"/>
    <rect x="121" y="41" width="2" height="1" fill="#393536"/>
    <rect x="134" y="41" width="1" height="1" fill="#393536"/>
    <rect x="149" y="41" width="1" height="1" fill="#393536"/>
    <rect x="171" y="41" width="1" height="1" fill="#393536"/>
    <rect x="0" y="42" width="1" height="1" fill="#393536"/>
    <rect x="26" y="42" width="2" height="1" fill="#393536"/>
    <rect x="35" y="42" width="2" height="1" fill="#393536"/>
    <rect x="70" y="42" width="2" height="1" fill="#393536"/>
    <rect x="75" y="42" width="2" height="1" fill="#393536"/>
    <rect x="82" y="42" width="2" height="1" fill="#393536"/>
    <rect x="87" y="42" width="2" height="1" fill="#393536"/>
    <rect x="96" y="42" width="2" height="1" fill="#393536"/>
    <rect x="100" y="42" width="3" height="1" fill="#393536"/>
    <rect x="106" y="42" width="2" height="1" fill="#393536"/>
    <rect x="111" y="42" width="3" height="1" fill="#393536"/>
    <rect x="121" y="42" width="2" height="1" fill="#393536"/>
    <rect x="130" y="42" width="21" height="1" fill="#393536"/>
    <rect x="171" y="42" width="1" height="1" fill="#393536"/>
    <rect x="0" y="43" width="1" height="1" fill="#393536"/>
    <rect x="26" y="43" width="1" height="1" fill="#393536"/>
    <rect x="28" y="43" width="1" height="1" fill="#393536"/>
    <rect x="34" y="43" width="1" height="1" fill="#393536"/>
    <rect x="36" y="43" width="1" height="1" fill="#393536"/>
    <rect x="70" y="43" width="2" height="1" fill="#393536"/>
    <rect x="75" y="43" width="2" height="1" fill="#393536"/>
    <rect x="82" y="43" width="2" height="1" fill="#393536"/>
    <rect x="87" y="43" width="2" height="1" fill="#393536"/>
    <rect x="96" y="43" width="6" height="1" fill="#393536"/>
    <rect x="106" y="43" width="2" height="1" fill="#393536"/>
    <rect x="121" y="43" width="2" height="1" fill="#393536"/>
    <rect x="130" y="43" width="1" height="1" fill="#393536"/>
    <rect x="136" y="43" width="3" height="1" fill="#393536"/>
    <rect x="171" y="43" width="1" height="1" fill="#393536"/>
    <rect x="0" y="44" width="1" height="1" fill="#393536"/>
    <rect x="26" y="44" width="1" height="1" fill="#393536"/>
    <rect x="29" y="44" width="1" height="1" fill="#393536"/>
    <rect x="33" y="44" width="1" height="1" fill="#393536"/>
    <rect x="37" y="44" width="1" height="1" fill="#393536"/>
    <rect x="70" y="44" width="7" height="1" fill="#393536"/>
    <rect x="82" y="44" width="2" height="1" fill="#393536"/>
    <rect x="87" y="44" width="2" height="1" fill="#393536"/>
    <rect x="96" y="44" width="3" height="1" fill="#393536"/>
    <rect x="100" y="44" width="1" height="1" fill="#393536"/>
    <rect x="106" y="44" width="2" height="1" fill="#393536"/>
    <rect x="113" y="44" width="1" height="1" fill="#393536"/>
    <rect x="121" y="44" width="2" height="1" fill="#393536"/>
    <rect x="136" y="44" width="2" height="1" fill="#393536"/>
    <rect x="171" y="44" width="1" height="1" fill="#393536"/>
    <rect x="0" y="45" width="1" height="1" fill="#393536"/>
    <rect x="26" y="45" width="1" height="1" fill="#393536"/>
    <rect x="30" y="45" width="1" height="1" fill="#393536"/>
    <rect x="32" y="45" width="1" height="1" fill="#393536"/>
    <rect x="37" y="45" width="1" height="1" fill="#393536"/>
    <rect x="70" y="45" width="2" height="1" fill="#393536"/>
    <rect x="75" y="45" width="2" height="1" fill="#393536"/>
    <rect x="82" y="45" width="2" height="1" fill="#393536"/>
    <rect x="87" y="45" width="2" height="1" fill="#393536"/>
    <rect x="94" y="45" width="4" height="1" fill="#393536"/>
    <rect x="99" y="45" width="16" height="1" fill="#393536"/>
    <rect x="121" y="45" width="2" height="1" fill="#393536"/>
    <rect x="136" y="45" width="2" height="1" fill="#393536"/>
    <rect x="146" y="45" width="1" height="1" fill="#393536"/>
    <rect x="171" y="45" width="1" height="1" fill="#393536"/>
    <rect x="0" y="46" width="1" height="1" fill="#393536"/>
    <rect x="26" y="46" width="1" height="1" fill="#393536"/>
    <rect x="31" y="46" width="1" height="1" fill="#393536"/>
    <rect x="37" y="46" width="1" height="1" fill="#393536"/>
    <rect x="70" y="46" width="2" height="1" fill="#393536"/>
    <rect x="75" y="46" width="2" height="1" fill="#393536"/>
    <rect x="78" y="46" width="3" height="1" fill="#393536"/>
    <rect x="82" y="46" width="2" height="1" fill="#393536"/>
    <rect x="87" y="46" width="2" height="1" fill="#393536"/>
    <rect x="92" y="46" width="6" height="1" fill="#393536"/>
    <rect x="100" y="46" width="1" height="1" fill="#393536"/>
    <rect x="104" y="46" width="5" height="1" fill="#393536"/>
    <rect x="121" y="46" width="2" height="1" fill="#393536"/>
    <rect x="135" y="46" width="13" height="1" fill="#393536"/>
    <rect x="171" y="46" width="1" height="1" fill="#393536"/>
    <rect x="0" y="47" width="1" height="1" fill="#393536"/>
    <rect x="26" y="47" width="1" height="1" fill="#393536"/>
    <rect x="30" y="47" width="1" height="1" fill="#393536"/>
    <rect x="32" y="47" width="2" height="1" fill="#393536"/>
    <rect x="37" y="47" width="1" height="1" fill="#393536"/>
    <rect x="67" y="47" width="14" height="1" fill="#393536"/>
    <rect x="82" y="47" width="2" height="1" fill="#393536"/>
    <rect x="87" y="47" width="2" height="1" fill="#393536"/>
    <rect x="92" y="47" width="3" height="1" fill="#393536"/>
    <rect x="96" y="47" width="2" height="1" fill="#393536"/>
    <rect x="104" y="47" width="5" height="1" fill="#393536"/>
    <rect x="121" y="47" width="2" height="1" fill="#393536"/>
    <rect x="135" y="47" width="13" height="1" fill="#393536"/>
    <rect x="171" y="47" width="1" height="1" fill="#393536"/>
    <rect x="0" y="48" width="1" height="1" fill="#393536"/>
    <rect x="26" y="48" width="1" height="1" fill="#393536"/>
    <rect x="29" y="48" width="1" height="1" fill="#393536"/>
    <rect x="34" y="48" width="1" height="1" fill="#393536"/>
    <rect x="37" y="48" width="1" height="1" fill="#393536"/>
    <rect x="69" y="48" width="2" height="1" fill="#393536"/>
    <rect x="81" y="48" width="2" height="1" fill="#393536"/>
    <rect x="87" y="48" width="2" height="1" fill="#393536"/>
    <rect x="96" y="48" width="2" height="1" fill="#393536"/>
    <rect x="103" y="48" width="7" height="1" fill="#393536"/>
    <rect x="121" y="48" width="2" height="1" fill="#393536"/>
    <rect x="145" y="48" width="3" height="1" fill="#393536"/>
    <rect x="171" y="48" width="1" height="1" fill="#393536"/>
    <rect x="0" y="49" width="1" height="1" fill="#393536"/>
    <rect x="25" y="49" width="1" height="1" fill="#393536"/>
    <rect x="28" y="49" width="1" height="1" fill="#393536"/>
    <rect x="35" y="49" width="1" height="1" fill="#393536"/>
    <rect x="37" y="49" width="1" height="1" fill="#393536"/>
    <rect x="69" y="49" width="2" height="1" fill="#393536"/>
    <rect x="72" y="49" width="2" height="1" fill="#393536"/>
    <rect x="76" y="49" width="2" height="1" fill="#393536"/>
    <rect x="81" y="49" width="2" height="1" fill="#393536"/>
    <rect x="87" y="49" width="2" height="1" fill="#393536"/>
    <rect x="96" y="49" width="2" height="1" fill="#393536"/>
    <rect x="103" y="49" width="2" height="1" fill="#393536"/>
    <rect x="106" y="49" width="2" height="1" fill="#393536"/>
    <rect x="109" y="49" width="2" height="1" fill="#393536"/>
    <rect x="121" y="49" width="2" height="1" fill="#393536"/>
    <rect x="145" y="49" width="2" height="1" fill="#393536"/>
    <rect x="171" y="49" width="1" height="1" fill="#393536"/>
    <rect x="0" y="50" width="1" height="1" fill="#393536"/>
    <rect x="25" y="50" width="1" height="1" fill="#393536"/>
    <rect x="27" y="50" width="1" height="1" fill="#393536"/>
    <rect x="36" y="50" width="1" height="1" fill="#393536"/>
    <rect x="38" y="50" width="1" height="1" fill="#393536"/>
    <rect x="69" y="50" width="2" height="1" fill="#393536"/>
    <rect x="72" y="50" width="2" height="1" fill="#393536"/>
    <rect x="77" y="50" width="2" height="1" fill="#393536"/>
    <rect x="81" y="50" width="2" height="1" fill="#393536"/>
    <rect x="87" y="50" width="2" height="1" fill="#393536"/>
    <rect x="96" y="50" width="2" height="1" fill="#393536"/>
    <rect x="102" y="50" width="2" height="1" fill="#393536"/>
    <rect x="106" y="50" width="2" height="1" fill="#393536"/>
    <rect x="109" y="50" width="2" height="1" fill="#393536"/>
    <rect x="121" y="50" width="2" height="1" fill="#393536"/>
    <rect x="145" y="50" width="2" height="1" fill="#393536"/>
    <rect x="171" y="50" width="1" height="1" fill="#393536"/>
    <rect x="0" y="51" width="1" height="1" fill="#393536"/>
    <rect x="25" y="51" width="2" height="1" fill="#393536"/>
    <rect x="37" y="51" width="2" height="1" fill="#393536"/>
    <rect x="69" y="51" width="4" height="1" fill="#393536"/>
    <rect x="77" y="51" width="2" height="1" fill="#393536"/>
    <rect x="81" y="51" width="1" height="1" fill="#393536"/>
    <rect x="87" y="51" width="2" height="1" fill="#393536"/>
    <rect x="96" y="51" width="2" height="1" fill="#393536"/>
    <rect x="101" y="51" width="2" height="1" fill="#393536"/>
    <rect x="106" y="51" width="2" height="1" fill="#393536"/>
    <rect x="110" y="51" width="2" height="1" fill="#393536"/>
    <rect x="120" y="51" width="4" height="1" fill="#393536"/>
    <rect x="145" y="51" width="2" height="1" fill="#393536"/>
    <rect x="171" y="51" width="1" height="1" fill="#393536"/>
    <rect x="0" y="52" width="1" height="1" fill="#393536"/>
    <rect x="9" y="52" width="46" height="1" fill="#393536"/>
    <rect x="69" y="52" width="3" height="1" fill="#393536"/>
    <rect x="80" y="52" width="2" height="1" fill="#393536"/>
    <rect x="86" y="52" width="3" height="1" fill="#393536"/>
    <rect x="96" y="52" width="2" height="1" fill="#393536"/>
    <rect x="100" y="52" width="2" height="1" fill="#393536"/>
    <rect x="106" y="52" width="2" height="1" fill="#393536"/>
    <rect x="110" y="52" width="5" height="1" fill="#393536"/>
    <rect x="118" y="52" width="8" height="1" fill="#393536"/>
    <rect x="139" y="52" width="2" height="1" fill="#393536"/>
    <rect x="144" y="52" width="3" height="1" fill="#393536"/>
    <rect x="171" y="52" width="1" height="1" fill="#393536"/>
    <rect x="0" y="53" width="1" height="1" fill="#393536"/>
    <rect x="9" y="53" width="1" height="1" fill="#393536"/>
    <rect x="54" y="53" width="1" height="1" fill="#393536"/>
    <rect x="68" y="53" width="13" height="1" fill="#393536"/>
    <rect x="83" y="53" width="5" height="1" fill="#393536"/>
    <rect x="96" y="53" width="2" height="1" fill="#393536"/>
    <rect x="99" y="53" width="2" height="1" fill="#393536"/>
    <rect x="106" y="53" width="2" height="1" fill="#393536"/>
    <rect x="111" y="53" width="4" height="1" fill="#393536"/>
    <rect x="140" y="53" width="6" height="1" fill="#393536"/>
    <rect x="171" y="53" width="1" height="1" fill="#393536"/>
    <rect x="0" y="54" width="1" height="1" fill="#393536"/>
    <rect x="9" y="54" width="1" height="1" fill="#393536"/>
    <rect x="54" y="54" width="1" height="1" fill="#393536"/>
    <rect x="69" y="54" width="11" height="1" fill="#393536"/>
    <rect x="83" y="54" width="5" height="1" fill="#393536"/>
    <rect x="93" y="54" width="4" height="1" fill="#393536"/>
    <rect x="98" y="54" width="2" height="1" fill="#393536"/>
    <rect x="106" y="54" width="2" height="1" fill="#393536"/>
    <rect x="112" y="54" width="1" height="1" fill="#393536"/>
    <rect x="141" y="54" width="4" height="1" fill="#393536"/>
    <rect x="171" y="54" width="1" height="1" fill="#393536"/>
    <rect x="0" y="55" width="1" height="1" fill="#393536"/>
    <rect x="9" y="55" width="1" height="1" fill="#393536"/>
    <rect x="54" y="55" width="1" height="1" fill="#393536"/>
    <rect x="77" y="55" width="2" height="1" fill="#393536"/>
    <rect x="85" y="55" width="2" height="1" fill="#393536"/>
    <rect x="95" y="55" width="2" height="1" fill="#393536"/>
    <rect x="106" y="55" width="2" height="1" fill="#393536"/>
    <rect x="142" y="55" width="1" height="1" fill="#393536"/>
    <rect x="171" y="55" width="1" height="1" fill="#393536"/>
    <rect x="0" y="56" width="1" height="1" fill="#393536"/>
    <rect x="9" y="56" width="1" height="1" fill="#393536"/>
    <rect x="54" y="56" width="1" height="1" fill="#393536"/>
    <rect x="76" y="56" width="1" height="1" fill="#393536"/>
    <rect x="171" y="56" width="1" height="1" fill="#393536"/>
    <rect x="0" y="57" width="1" height="1" fill="#393536"/>
    <rect x="9" y="57" width="46" height="1" fill="#393536"/>
    <rect x="171" y="57" width="1" height="1" fill="#393536"/>
    <rect x="0" y="58" width="1" height="1" fill="#393536"/>
    <rect x="17" y="58" width="1" height="1" fill="#393536"/>
    <rect x="31" y="58" width="1" height="1" fill="#393536"/>
    <rect x="42" y="58" width="1" height="1" fill="#393536"/>
    <rect x="171" y="58" width="1" height="1" fill="#393536"/>
    <rect x="0" y="59" width="1" height="1" fill="#393536"/>
    <rect x="17" y="59" width="1" height="1" fill="#393536"/>
    <rect x="31" y="59" width="1" height="1" fill="#393536"/>
    <rect x="42" y="59" width="1" height="1" fill="#393536"/>
    <rect x="171" y="59" width="1" height="1" fill="#393536"/>
    <rect x="0" y="60" width="1" height="1" fill="#393536"/>
    <rect x="17" y="60" width="1" height="1" fill="#393536"/>
    <rect x="31" y="60" width="1" height="1" fill="#393536"/>
    <rect x="42" y="60" width="1" height="1" fill="#393536"/>
    <rect x="171" y="60" width="1" height="1" fill="#393536"/>
    <rect x="0" y="61" width="1" height="1" fill="#393536"/>
    <rect x="17" y="61" width="1" height="1" fill="#393536"/>
    <rect x="31" y="61" width="1" height="1" fill="#393536"/>
    <rect x="42" y="61" width="1" height="1" fill="#393536"/>
    <rect x="171" y="61" width="1" height="1" fill="#393536"/>
    <rect x="0" y="62" width="1" height="1" fill="#393536"/>
    <rect x="17" y="62" width="1" height="1" fill="#393536"/>
    <rect x="31" y="62" width="1" height="1" fill="#393536"/>
    <rect x="42" y="62" width="1" height="1" fill="#393536"/>
    <rect x="171" y="62" width="1" height="1" fill="#393536"/>
    <rect x="0" y="63" width="1" height="1" fill="#393536"/>
    <rect x="17" y="63" width="1" height="1" fill="#393536"/>
    <rect x="31" y="63" width="1" height="1" fill="#393536"/>
    <rect x="42" y="63" width="1" height="1" fill="#393536"/>
    <rect x="171" y="63" width="1" height="1" fill="#393536"/>
    <rect x="0" y="64" width="1" height="1" fill="#393536"/>
    <rect x="31" y="64" width="1" height="1" fill="#393536"/>
    <rect x="42" y="64" width="1" height="1" fill="#393536"/>
    <rect x="171" y="64" width="1" height="1" fill="#393536"/>
    <rect x="0" y="65" width="1" height="1" fill="#393536"/>
    <rect x="31" y="65" width="1" height="1" fill="#393536"/>
    <rect x="171" y="65" width="1" height="1" fill="#393536"/>
    <rect x="0" y="66" width="1" height="1" fill="#393536"/>
    <rect x="171" y="66" width="1" height="1" fill="#393536"/>
    <rect x="0" y="67" width="1" height="1" fill="#393536"/>
    <rect x="171" y="67" width="1" height="1" fill="#393536"/>
    <rect x="0" y="68" width="1" height="1" fill="#393536"/>
    <rect x="171" y="68" width="1" height="1" fill="#393536"/>
    <rect x="0" y="69" width="1" height="1" fill="#393536"/>
    <rect x="171" y="69" width="1" height="1" fill="#393536"/>
    <rect x="0" y="70" width="1" height="1" fill="#393536"/>
    <rect x="171" y="70" width="1" height="1" fill="#393536"/>
    <rect x="0" y="71" width="1" height="1" fill="#393536"/>
    <rect x="171" y="71" width="1" height="1" fill="#393536"/>
    <rect x="0" y="72" width="1" height="1" fill="#393536"/>
    <rect x="171" y="72" width="1" height="1" fill="#393536"/>
    <rect x="0" y="73" width="1" height="1" fill="#393536"/>
    <rect x="171" y="73" width="1" height="1" fill="#393536"/>
    <rect x="0" y="74" width="1" height="1" fill="#393536"/>
    <rect x="171" y="74" width="1" height="1" fill="#393536"/>
    <rect x="0" y="75" width="1" height="1" fill="#393536"/>
    <rect x="171" y="75" width="1" height="1" fill="#393536"/>
    <rect x="0" y="76" width="1" height="1" fill="#393536"/>
    <rect x="171" y="76" width="1" height="1" fill="#393536"/>
    <rect x="0" y="77" width="1" height="1" fill="#393536"/>
    <rect x="171" y="77" width="1" height="1" fill="#393536"/>
    <rect x="0" y="78" width="172" height="1" fill="#393536"/>
  </g>
</svg>