<?xml version="1.0" encoding="UTF-8"?>
<svg xmlns="http://www.w3.org/2000/svg" viewBox="0 0 124 84" width="124" height="84">
  <!-- Auto-converted from legend-320.png -->
  <rect x="0" y="0" width="124" height="84" fill="none"/>
  <g fill="#38291f" stroke="none">
    <rect x="0" y="0" width="124" height="1" fill="#38291f"/>
    <rect x="0" y="1" width="1" height="1" fill="#38291f"/>
    <rect x="123" y="1" width="1" height="1" fill="#38291f"/>
    <rect x="0" y="2" width="1" height="1" fill="#38291f"/>
    <rect x="123" y="2" width="1" height="1" fill="#38291f"/>
    <rect x="0" y="3" width="1" height="1" fill="#38291f"/>
    <rect x="123" y="3" width="1" height="1" fill="#38291f"/>
    <rect x="0" y="4" width="1" height="1" fill="#38291f"/>
    <rect x="118" y="4" width="2" height="1" fill="#38291f"/>
    <rect x="123" y="4" width="1" height="1" fill="#38291f"/>
    <rect x="0" y="5" width="1" height="1" fill="#38291f"/>
    <rect x="114" y="5" width="7" height="1" fill="#38291f"/>
    <rect x="123" y="5" width="1" height="1" fill="#38291f"/>
    <rect x="0" y="6" width="1" height="1" fill="#38291f"/>
    <rect x="111" y="6" width="9" height="1" fill="#38291f"/>
    <rect x="123" y="6" width="1" height="1" fill="#38291f"/>
    <rect x="0" y="7" width="1" height="1" fill="#38291f"/>
    <rect x="107" y="7" width="11" height="1" fill="#38291f"/>
    <rect x="123" y="7" width="1" height="1" fill="#38291f"/>
    <rect x="0" y="8" width="1" height="1" fill="#38291f"/>
    <rect x="104" y="8" width="10" height="1" fill="#38291f"/>
    <rect x="123" y="8" width="1" height="1" fill="#38291f"/>
    <rect x="0" y="9" width="1" height="1" fill="#38291f"/>
    <rect x="102" y="9" width="9" height="1" fill="#38291f"/>
    <rect x="123" y="9" width="1" height="1" fill="#38291f"/>
    <rect x="0" y="10" width="1" height="1" fill="#38291f"/>
    <rect x="100" y="10" width="7" height="1" fill="#38291f"/>
    <rect x="123" y="10" width="1" height="1" fill="#38291f"/>
    <rect x="0" y="11" width="1" height="1" fill="#38291f"/>
    <rect x="97" y="11" width="7" height="1" fill="#38291f"/>
    <rect x="123" y="11" width="1" height="1" fill="#38291f"/>
    <rect x="0" y="12" width="1" height="1" fill="#38291f"/>
    <rect x="95" y="12" width="7" height="1" fill="#38291f"/>
    <rect x="123" y="12" width="1" height="1" fill="#38291f"/>
    <rect x="0" y="13" width="1" height="1" fill="#38291f"/>
    <rect x="93" y="13" width="7" height="1" fill="#38291f"/>
    <rect x="123" y="13" width="1" height="1" fill="#38291f"/>
    <rect x="0" y="14" width="1" height="1" fill="#38291f"/>
    <rect x="92" y="14" width="5" height="1" fill="#38291f"/>
    <rect x="123" y="14" width="1" height="1" fill="#38291f"/>
    <rect x="0" y="15" width="1" height="1" fill="#38291f"/>
    <rect x="91" y="15" width="4" height="1" fill="#38291f"/>
    <rect x="123" y="15" width="1" height="1" fill="#38291f"/>
    <rect x="0" y="16" width="1" height="1" fill="#38291f"/>
    <rect x="80" y="16" width="1" height="1" fill="#38291f"/>
    <rect x="92" y="16" width="1" height="1" fill="#38291f"/>
    <rect x="123" y="16" width="1" height="1" fill="#38291f"/>
    <rect x="0" y="17" width="1" height="1" fill="#38291f"/>
    <rect x="78" y="17" width="5" height="1" fill="#38291f"/>
    <rect x="123" y="17" width="1" height="1" fill="#38291f"/>
    <rect x="0" y="18" width="1" height="1" fill="#38291f"/>
    <rect x="78" y="18" width="5" height="1" fill="#38291f"/>
    <rect x="123" y="18" width="1" height="1" fill="#38291f"/>
    <rect x="0" y="19" width="1" height="1" fill="#38291f"/>
    <rect x="78" y="19" width="5" height="1" fill="#38291f"/>
    <rect x="123" y="19" width="1" height="1" fill="#38291f"/>
    <rect x="0" y="20" width="1" height="1" fill="#38291f"/>
    <rect x="78" y="20" width="5" height="1" fill="#38291f"/>
    <rect x="123" y="20" width="1" height="1" fill="#38291f"/>
    <rect x="0" y="21" width="1" height="1" fill="#38291f"/>
    <rect x="78" y="21" width="5" height="1" fill="#38291f"/>
    <rect x="123" y="21" width="1" height="1" fill="#38291f"/>
    <rect x="0" y="22" width="1" height="1" fill="#38291f"/>
    <rect x="123" y="22" width="1" height="1" fill="#38291f"/>
    <rect x="0" y="23" width="1" height="1" fill="#38291f"/>
    <rect x="123" y="23" width="1" height="1" fill="#38291f"/>
    <rect x="0" y="24" width="1" height="1" fill="#38291f"/>
    <rect x="68" y="24" width="2" height="1" fill="#38291f"/>
    <rect x="123" y="24" width="1" height="1" fill="#38291f"/>
    <rect x="0" y="25" width="1" height="1" fill="#38291f"/>
    <rect x="66" y="25" width="5" height="1" fill="#38291f"/>
    <rect x="123" y="25" width="1" height="1" fill="#38291f"/>
    <rect x="0" y="26" width="1" height="1" fill="#38291f"/>
    <rect x="64" y="26" width="6" height="1" fill="#38291f"/>
    <rect x="123" y="26" width="1" height="1" fill="#38291f"/>
    <rect x="0" y="27" width="1" height="1" fill="#38291f"/>
    <rect x="62" y="27" width="6" height="1" fill="#38291f"/>
    <rect x="123" y="27" width="1" height="1" fill="#38291f"/>
    <rect x="0" y="28" width="1" height="1" fill="#38291f"/>
    <rect x="61" y="28" width="6" height="1" fill="#38291f"/>
    <rect x="123" y="28" width="1" height="1" fill="#38291f"/>
    <rect x="0" y="29" width="1" height="1" fill="#38291f"/>
    <rect x="59" y="29" width="7" height="1" fill="#38291f"/>
    <rect x="123" y="29" width="1" height="1" fill="#38291f"/>
    <rect x="0" y="30" width="1" height="1" fill="#38291f"/>
    <rect x="57" y="30" width="7" height="1" fill="#38291f"/>
    <rect x="123" y="30" width="1" height="1" fill="#38291f"/>
    <rect x="0" y="31" width="1" height="1" fill="#38291f"/>
    <rect x="55" y="31" width="6" height="1" fill="#38291f"/>
    <rect x="123" y="31" width="1" height="1" fill="#38291f"/>
    <rect x="0" y="32" width="1" height="1" fill="#38291f"/>
    <rect x="54" y="32" width="6" height="1" fill="#38291f"/>
    <rect x="123" y="32" width="1" height="1" fill="#38291f"/>
    <rect x="0" y="33" width="1" height="1" fill="#38291f"/>
    <rect x="52" y="33" width="7" height="1" fill="#38291f"/>
    <rect x="123" y="33" width="1" height="1" fill="#38291f"/>
    <rect x="0" y="34" width="1" height="1" fill="#38291f"/>
    <rect x="50" y="34" width="7" height="1" fill="#38291f"/>
    <rect x="123" y="34" width="1" height="1" fill="#38291f"/>
    <rect x="0" y="35" width="1" height="1" fill="#38291f"/>
    <rect x="48" y="35" width="6" height="1" fill="#38291f"/>
    <rect x="123" y="35" width="1" height="1" fill="#38291f"/>
    <rect x="0" y="36" width="1" height="1" fill="#38291f"/>
    <rect x="47" y="36" width="6" height="1" fill="#38291f"/>
    <rect x="123" y="36" width="1" height="1" fill="#38291f"/>
    <rect x="0" y="37" width="1" height="1" fill="#38291f"/>
    <rect x="46" y="37" width="6" height="1" fill="#38291f"/>
    <rect x="123" y="37" width="1" height="1" fill="#38291f"/>
    <rect x="0" y="38" width="1" height="1" fill="#38291f"/>
    <rect x="45" y="38" width="5" height="1" fill="#38291f"/>
    <rect x="123" y="38" width="1" height="1" fill="#38291f"/>
    <rect x="0" y="39" width="1" height="1" fill="#38291f"/>
    <rect x="44" y="39" width="5" height="1" fill="#38291f"/>
    <rect x="123" y="39" width="1" height="1" fill="#38291f"/>
    <rect x="0" y="40" width="1" height="1" fill="#38291f"/>
    <rect x="43" y="40" width="5" height="1" fill="#38291f"/>
    <rect x="123" y="40" width="1" height="1" fill="#38291f"/>
    <rect x="0" y="41" width="1" height="1" fill="#38291f"/>
    <rect x="41" y="41" width="6" height="1" fill="#38291f"/>
    <rect x="123" y="41" width="1" height="1" fill="#38291f"/>
    <rect x="0" y="42" width="1" height="1" fill="#38291f"/>
    <rect x="40" y="42" width="6" height="1" fill="#38291f"/>
    <rect x="123" y="42" width="1" height="1" fill="#38291f"/>
    <rect x="0" y="43" width="1" height="1" fill="#38291f"/>
    <rect x="40" y="43" width="4" height="1" fill="#38291f"/>
    <rect x="123" y="43" width="1" height="1" fill="#38291f"/>
    <rect x="0" y="44" width="1" height="1" fill="#38291f"/>
    <rect x="40" y="44" width="3" height="1" fill="#38291f"/>
    <rect x="123" y="44" width="1" height="1" fill="#38291f"/>
    <rect x="0" y="45" width="1" height="1" fill="#38291f"/>
    <rect x="123" y="45" width="1" height="1" fill="#38291f"/>
    <rect x="0" y="46" width="1" height="1" fill="#38291f"/>
    <rect x="123" y="46" width="1" height="1" fill="#38291f"/>
    <rect x="0" y="47" width="1" height="1" fill="#38291f"/>
    <rect x="123" y="47" width="1" height="1" fill="#38291f"/>
    <rect x="0" y="48" width="1" height="1" fill="#38291f"/>
    <rect x="123" y="48" width="1" height="1" fill="#38291f"/>
    <rect x="0" y="49" width="1" height="1" fill="#38291f"/>
    <rect x="123" y="49" width="1" height="1" fill="#38291f"/>
    <rect x="0" y="50" width="1" height="1" fill="#38291f"/>
    <rect x="123" y="50" width="1" height="1" fill="#38291f"/>
    <rect x="0" y="51" width="1" height="1" fill="#38291f"/>
    <rect x="123" y="51" width="1" height="1" fill="#38291f"/>
    <rect x="0" y="52" width="1" height="1" fill="#38291f"/>
    <rect x="123" y="52" width="1" height="1" fill="#38291f"/>
    <rect x="0" y="53" width="1" height="1" fill="#38291f"/>
    <rect x="123" y="53" width="1" height="1" fill="#38291f"/>
    <rect x="0" y="54" width="1" height="1" fill="#38291f"/>
    <rect x="123" y="54" width="1" height="1" fill="#38291f"/>
    <rect x="0" y="55" width="1" height="1" fill="#38291f"/>
    <rect x="123" y="55" width="1" height="1" fill="#38291f"/>
    <rect x="0" y="56" width="1" height="1" fill="#38291f"/>
    <rect x="123" y="56" width="1" height="1" fill="#38291f"/>
    <rect x="0" y="57" width="1" height="1" fill="#38291f"/>
    <rect x="123" y="57" width="1" height="1" fill="#38291f"/>
    <rect x="0" y="58" width="1" height="1" fill="#38291f"/>
    <rect x="123" y="58" width="1" height="1" fill="#38291f"/>
    <rect x="0" y="59" width="1" height="1" fill="#38291f"/>
    <rect x="22" y="59" width="3" height="1" fill="#38291f"/>
    <rect x="123" y="59" width="1" height="1" fill="#38291f"/>
    <rect x="0" y="60" width="1" height="1" fill="#38291f"/>
    <rect x="21" y="60" width="4" height="1" fill="#38291f"/>
    <rect x="123" y="60" width="1" height="1" fill="#38291f"/>
    <rect x="0" y="61" width="1" height="1" fill="#38291f"/>
    <rect x="20" y="61" width="5" height="1" fill="#38291f"/>
    <rect x="123" y="61" width="1" height="1" fill="#38291f"/>
    <rect x="0" y="62" width="1" height="1" fill="#38291f"/>
    <rect x="19" y="62" width="5" height="1" fill="#38291f"/>
    <rect x="123" y="62" width="1" height="1" fill="#38291f"/>
    <rect x="0" y="63" width="1" height="1" fill="#38291f"/>
    <rect x="18" y="63" width="5" height="1" fill="#38291f"/>
    <rect x="123" y="63" width="1" height="1" fill="#38291f"/>
    <rect x="0" y="64" width="1" height="1" fill="#38291f"/>
    <rect x="17" y="64" width="5" height="1" fill="#38291f"/>
    <rect x="123" y="64" width="1" height="1" fill="#38291f"/>
    <rect x="0" y="65" width="1" height="1" fill="#38291f"/>
    <rect x="16" y="65" width="5" height="1" fill="#38291f"/>
    <rect x="123" y="65" width="1" height="1" fill="#38291f"/>
    <rect x="0" y="66" width="1" height="1" fill="#38291f"/>
    <rect x="15" y="66" width="5" height="1" fill="#38291f"/>
    <rect x="123" y="66" width="1" height="1" fill="#38291f"/>
    <rect x="0" y="67" width="1" height="1" fill="#38291f"/>
    <rect x="14" y="67" width="5" height="1" fill="#38291f"/>
    <rect x="123" y="67" width="1" height="1" fill="#38291f"/>
    <rect x="0" y="68" width="1" height="1" fill="#38291f"/>
    <rect x="13" y="68" width="5" height="1" fill="#38291f"/>
    <rect x="123" y="68" width="1" height="1" fill="#38291f"/>
    <rect x="0" y="69" width="1" height="1" fill="#38291f"/>
    <rect x="12" y="69" width="5" height="1" fill="#38291f"/>
    <rect x="123" y="69" width="1" height="1" fill="#38291f"/>
    <rect x="0" y="70" width="1" height="1" fill="#38291f"/>
    <rect x="11" y="70" width="5" height="1" fill="#38291f"/>
    <rect x="123" y="70" width="1" height="1" fill="#38291f"/>
    <rect x="0" y="71" width="1" height="1" fill="#38291f"/>
    <rect x="10" y="71" width="5" height="1" fill="#38291f"/>
    <rect x="123" y="71" width="1" height="1" fill="#38291f"/>
    <rect x="0" y="72" width="1" height="1" fill="#38291f"/>
    <rect x="9" y="72" width="5" height="1" fill="#38291f"/>
    <rect x="123" y="72" width="1" height="1" fill="#38291f"/>
    <rect x="0" y="73" width="1" height="1" fill="#38291f"/>
    <rect x="9" y="73" width="4" height="1" fill="#38291f"/>
    <rect x="123" y="73" width="1" height="1" fill="#38291f"/>
    <rect x="0" y="74" width="1" height="1" fill="#38291f"/>
    <rect x="8" y="74" width="4" height="1" fill="#38291f"/>
    <rect x="123" y="74" width="1" height="1" fill="#38291f"/>
    <rect x="0" y="75" width="1" height="1" fill="#38291f"/>
    <rect x="7" y="75" width="5" height="1" fill="#38291f"/>
    <rect x="123" y="75" width="1" height="1" fill="#38291f"/>
    <rect x="0" y="76" width="1" height="1" fill="#38291f"/>
    <rect x="6" y="76" width="5" height="1" fill="#38291f"/>
    <rect x="123" y="76" width="1" height="1" fill="#38291f"/>
    <rect x="0" y="77" width="1" height="1" fill="#38291f"/>
    <rect x="5" y="77" width="5" height="1" fill="#38291f"/>
    <rect x="123" y="77" width="1" height="1" fill="#38291f"/>
    <rect x="0" y="78" width="1" height="1" fill="#38291f"/>
    <rect x="5" y="78" width="4" height="1" fill="#38291f"/>
    <rect x="123" y="78" width="1" height="1" fill="#38291f"/>
    <rect x="0" y="79" width="1" height="1" fill="#38291f"/>
    <rect x="5" y="79" width="3" height="1" fill="#38291f"/>
    <rect x="123" y="79" width="1" height="1" fill="#38291f"/>
    <rect x="0" y="80" width="1" height="1" fill="#38291f"/>
    <rect x="123" y="80" width="1" height="1" fill="#38291f"/>
    <rect x="0" y="81" width="1" height="1" fill="#38291f"/>
    <rect x="123" y="81" width="1" height="1" fill="#38291f"/>
    <rect x="0" y="82" width="124" height="1" fill="#38291f"/>
  </g>
</svg>