<?xml version="1.0" encoding="UTF-8"?>
<svg xmlns="http://www.w3.org/2000/svg" viewBox="0 0 46 73" width="46" height="73">
  <!-- Auto-converted from legend-1312.png -->
  <rect x="0" y="0" width="46" height="73" fill="none"/>
  <g fill="#231f20" stroke="none">
    <rect x="0" y="0" width="46" height="1" fill="#231f20"/>
    <rect x="0" y="1" width="1" height="1" fill="#231f20"/>
    <rect x="45" y="1" width="1" height="1" fill="#231f20"/>
    <rect x="0" y="2" width="1" height="1" fill="#231f20"/>
    <rect x="45" y="2" width="1" height="1" fill="#231f20"/>
    <rect x="0" y="3" width="1" height="1" fill="#231f20"/>
    <rect x="45" y="3" width="1" height="1" fill="#231f20"/>
    <rect x="0" y="4" width="1" height="1" fill="#231f20"/>
    <rect x="45" y="4" width="1" height="1" fill="#231f20"/>
    <rect x="0" y="5" width="1" height="1" fill="#231f20"/>
    <rect x="45" y="5" width="1" height="1" fill="#231f20"/>
    <rect x="0" y="6" width="1" height="1" fill="#231f20"/>
    <rect x="45" y="6" width="1" height="1" fill="#231f20"/>
    <rect x="0" y="7" width="1" height="1" fill="#231f20"/>
    <rect x="45" y="7" width="1" height="1" fill="#231f20"/>
    <rect x="0" y="8" width="46" height="1" fill="#231f20"/>
    <rect x="0" y="9" width="1" height="1" fill="#231f20"/>
    <rect x="45" y="9" width="1" height="1" fill="#231f20"/>
    <rect x="0" y="10" width="1" height="1" fill="#231f20"/>
    <rect x="45" y="10" width="1" height="1" fill="#231f20"/>
    <rect x="0" y="11" width="1" height="1" fill="#231f20"/>
    <rect x="10" y="11" width="1" height="1" fill="#231f20"/>
    <rect x="14" y="11" width="1" height="1" fill="#231f20"/>
    <rect x="19" y="11" width="1" height="1" fill="#231f20"/>
    <rect x="33" y="11" width="1" height="1" fill="#231f20"/>
    <rect x="38" y="11" width="1" height="1" fill="#231f20"/>
    <rect x="42" y="11" width="1" height="1" fill="#231f20"/>
    <rect x="45" y="11" width="1" height="1" fill="#231f20"/>
    <rect x="0" y="12" width="1" height="1" fill="#231f20"/>
    <rect x="10" y="12" width="1" height="1" fill="#231f20"/>
    <rect x="14" y="12" width="1" height="1" fill="#231f20"/>
    <rect x="19" y="12" width="1" height="1" fill="#231f20"/>
    <rect x="33" y="12" width="1" height="1" fill="#231f20"/>
    <rect x="38" y="12" width="1" height="1" fill="#231f20"/>
    <rect x="42" y="12" width="1" height="1" fill="#231f20"/>
    <rect x="45" y="12" width="1" height="1" fill="#231f20"/>
    <rect x="0" y="13" width="1" height="1" fill="#231f20"/>
    <rect x="9" y="13" width="1" height="1" fill="#231f20"/>
    <rect x="13" y="13" width="1" height="1" fill="#231f20"/>
    <rect x="18" y="13" width="1" height="1" fill="#231f20"/>
    <rect x="32" y="13" width="1" height="1" fill="#231f20"/>
    <rect x="37" y="13" width="1" height="1" fill="#231f20"/>
    <rect x="41" y="13" width="1" height="1" fill="#231f20"/>
    <rect x="45" y="13" width="1" height="1" fill="#231f20"/>
    <rect x="0" y="14" width="1" height="1" fill="#231f20"/>
    <rect x="9" y="14" width="1" height="1" fill="#231f20"/>
    <rect x="13" y="14" width="1" height="1" fill="#231f20"/>
    <rect x="18" y="14" width="1" height="1" fill="#231f20"/>
    <rect x="32" y="14" width="1" height="1" fill="#231f20"/>
    <rect x="37" y="14" width="1" height="1" fill="#231f20"/>
    <rect x="41" y="14" width="1" height="1" fill="#231f20"/>
    <rect x="45" y="14" width="1" height="1" fill="#231f20"/>
    <rect x="0" y="15" width="46" height="1" fill="#231f20"/>
    <rect x="0" y="16" width="1" height="1" fill="#231f20"/>
    <rect x="8" y="16" width="1" height="1" fill="#231f20"/>
    <rect x="12" y="16" width="1" height="1" fill="#231f20"/>
    <rect x="17" y="16" width="1" height="1" fill="#231f20"/>
    <rect x="31" y="16" width="1" height="1" fill="#231f20"/>
    <rect x="36" y="16" width="1" height="1" fill="#231f20"/>
    <rect x="40" y="16" width="1" height="1" fill="#231f20"/>
    <rect x="45" y="16" width="1" height="1" fill="#231f20"/>
    <rect x="0" y="17" width="1" height="1" fill="#231f20"/>
    <rect x="8" y="17" width="1" height="1" fill="#231f20"/>
    <rect x="12" y="17" width="1" height="1" fill="#231f20"/>
    <rect x="17" y="17" width="1" height="1" fill="#231f20"/>
    <rect x="31" y="17" width="1" height="1" fill="#231f20"/>
    <rect x="36" y="17" width="1" height="1" fill="#231f20"/>
    <rect x="40" y="17" width="1" height="1" fill="#231f20"/>
    <rect x="45" y="17" width="1" height="1" fill="#231f20"/>
    <rect x="0" y="18" width="1" height="1" fill="#231f20"/>
    <rect x="7" y="18" width="1" height="1" fill="#231f20"/>
    <rect x="11" y="18" width="1" height="1" fill="#231f20"/>
    <rect x="16" y="18" width="1" height="1" fill="#231f20"/>
    <rect x="31" y="18" width="1" height="1" fill="#231f20"/>
    <rect x="35" y="18" width="1" height="1" fill="#231f20"/>
    <rect x="39" y="18" width="1" height="1" fill="#231f20"/>
    <rect x="45" y="18" width="1" height="1" fill="#231f20"/>
    <rect x="0" y="19" width="1" height="1" fill="#231f20"/>
    <rect x="7" y="19" width="1" height="1" fill="#231f20"/>
    <rect x="11" y="19" width="1" height="1" fill="#231f20"/>
    <rect x="16" y="19" width="1" height="1" fill="#231f20"/>
    <rect x="30" y="19" width="1" height="1" fill="#231f20"/>
    <rect x="35" y="19" width="1" height="1" fill="#231f20"/>
    <rect x="39" y="19" width="1" height="1" fill="#231f20"/>
    <rect x="45" y="19" width="1" height="1" fill="#231f20"/>
    <rect x="0" y="20" width="1" height="1" fill="#231f20"/>
    <rect x="7" y="20" width="1" height="1" fill="#231f20"/>
    <rect x="11" y="20" width="1" height="1" fill="#231f20"/>
    <rect x="16" y="20" width="1" height="1" fill="#231f20"/>
    <rect x="30" y="20" width="1" height="1" fill="#231f20"/>
    <rect x="35" y="20" width="1" height="1" fill="#231f20"/>
    <rect x="39" y="20" width="1" height="1" fill="#231f20"/>
    <rect x="45" y="20" width="1" height="1" fill="#231f20"/>
    <rect x="0" y="21" width="1" height="1" fill="#231f20"/>
    <rect x="6" y="21" width="1" height="1" fill="#231f20"/>
    <rect x="10" y="21" width="1" height="1" fill="#231f20"/>
    <rect x="15" y="21" width="1" height="1" fill="#231f20"/>
    <rect x="30" y="21" width="1" height="1" fill="#231f20"/>
    <rect x="34" y="21" width="1" height="1" fill="#231f20"/>
    <rect x="38" y="21" width="1" height="1" fill="#231f20"/>
    <rect x="45" y="21" width="1" height="1" fill="#231f20"/>
    <rect x="0" y="22" width="46" height="1" fill="#231f20"/>
    <rect x="0" y="23" width="1" height="1" fill="#231f20"/>
    <rect x="5" y="23" width="1" height="1" fill="#231f20"/>
    <rect x="9" y="23" width="1" height="1" fill="#231f20"/>
    <rect x="14" y="23" width="1" height="1" fill="#231f20"/>
    <rect x="29" y="23" width="1" height="1" fill="#231f20"/>
    <rect x="33" y="23" width="1" height="1" fill="#231f20"/>
    <rect x="37" y="23" width="1" height="1" fill="#231f20"/>
    <rect x="45" y="23" width="1" height="1" fill="#231f20"/>
    <rect x="0" y="24" width="1" height="1" fill="#231f20"/>
    <rect x="5" y="24" width="1" height="1" fill="#231f20"/>
    <rect x="9" y="24" width="1" height="1" fill="#231f20"/>
    <rect x="14" y="24" width="1" height="1" fill="#231f20"/>
    <rect x="29" y="24" width="1" height="1" fill="#231f20"/>
    <rect x="33" y="24" width="1" height="1" fill="#231f20"/>
    <rect x="37" y="24" width="1" height="1" fill="#231f20"/>
    <rect x="45" y="24" width="1" height="1" fill="#231f20"/>
    <rect x="0" y="25" width="1" height="1" fill="#231f20"/>
    <rect x="5" y="25" width="1" height="1" fill="#231f20"/>
    <rect x="9" y="25" width="1" height="1" fill="#231f20"/>
    <rect x="14" y="25" width="1" height="1" fill="#231f20"/>
    <rect x="28" y="25" width="1" height="1" fill="#231f20"/>
    <rect x="33" y="25" width="1" height="1" fill="#231f20"/>
    <rect x="37" y="25" width="1" height="1" fill="#231f20"/>
    <rect x="45" y="25" width="1" height="1" fill="#231f20"/>
    <rect x="0" y="26" width="1" height="1" fill="#231f20"/>
    <rect x="4" y="26" width="1" height="1" fill="#231f20"/>
    <rect x="8" y="26" width="1" height="1" fill="#231f20"/>
    <rect x="13" y="26" width="1" height="1" fill="#231f20"/>
    <rect x="28" y="26" width="1" height="1" fill="#231f20"/>
    <rect x="32" y="26" width="1" height="1" fill="#231f20"/>
    <rect x="36" y="26" width="1" height="1" fill="#231f20"/>
    <rect x="45" y="26" width="1" height="1" fill="#231f20"/>
    <rect x="0" y="27" width="1" height="1" fill="#231f20"/>
    <rect x="4" y="27" width="1" height="1" fill="#231f20"/>
    <rect x="8" y="27" width="1" height="1" fill="#231f20"/>
    <rect x="13" y="27" width="1" height="1" fill="#231f20"/>
    <rect x="28" y="27" width="1" height="1" fill="#231f20"/>
    <rect x="32" y="27" width="1" height="1" fill="#231f20"/>
    <rect x="36" y="27" width="1" height="1" fill="#231f20"/>
    <rect x="45" y="27" width="1" height="1" fill="#231f20"/>
    <rect x="0" y="28" width="1" height="1" fill="#231f20"/>
    <rect x="4" y="28" width="1" height="1" fill="#231f20"/>
    <rect x="8" y="28" width="1" height="1" fill="#231f20"/>
    <rect x="13" y="28" width="1" height="1" fill="#231f20"/>
    <rect x="27" y="28" width="1" height="1" fill="#231f20"/>
    <rect x="32" y="28" width="1" height="1" fill="#231f20"/>
    <rect x="36" y="28" width="1" height="1" fill="#231f20"/>
    <rect x="45" y="28" width="1" height="1" fill="#231f20"/>
    <rect x="0" y="29" width="46" height="1" fill="#231f20"/>
    <rect x="0" y="30" width="1" height="1" fill="#231f20"/>
    <rect x="3" y="30" width="1" height="1" fill="#231f20"/>
    <rect x="7" y="30" width="1" height="1" fill="#231f20"/>
    <rect x="12" y="30" width="1" height="1" fill="#231f20"/>
    <rect x="27" y="30" width="1" height="1" fill="#231f20"/>
    <rect x="31" y="30" width="1" height="1" fill="#231f20"/>
    <rect x="35" y="30" width="1" height="1" fill="#231f20"/>
    <rect x="45" y="30" width="1" height="1" fill="#231f20"/>
    <rect x="0" y="31" width="1" height="1" fill="#231f20"/>
    <rect x="2" y="31" width="1" height="1" fill="#231f20"/>
    <rect x="6" y="31" width="1" height="1" fill="#231f20"/>
    <rect x="11" y="31" width="1" height="1" fill="#231f20"/>
    <rect x="26" y="31" width="1" height="1" fill="#231f20"/>
    <rect x="30" y="31" width="1" height="1" fill="#231f20"/>
    <rect x="34" y="31" width="1" height="1" fill="#231f20"/>
    <rect x="45" y="31" width="1" height="1" fill="#231f20"/>
    <rect x="0" y="32" width="1" height="1" fill="#231f20"/>
    <rect x="2" y="32" width="1" height="1" fill="#231f20"/>
    <rect x="6" y="32" width="1" height="1" fill="#231f20"/>
    <rect x="11" y="32" width="1" height="1" fill="#231f20"/>
    <rect x="26" y="32" width="1" height="1" fill="#231f20"/>
    <rect x="30" y="32" width="1" height="1" fill="#231f20"/>
    <rect x="34" y="32" width="1" height="1" fill="#231f20"/>
    <rect x="45" y="32" width="1" height="1" fill="#231f20"/>
    <rect x="0" y="33" width="1" height="1" fill="#231f20"/>
    <rect x="45" y="33" width="1" height="1" fill="#231f20"/>
    <rect x="0" y="34" width="1" height="1" fill="#231f20"/>
    <rect x="45" y="34" width="1" height="1" fill="#231f20"/>
    <rect x="0" y="35" width="1" height="1" fill="#231f20"/>
    <rect x="45" y="35" width="1" height="1" fill="#231f20"/>
    <rect x="0" y="36" width="46" height="1" fill="#231f20"/>
    <rect x="0" y="37" width="1" height="1" fill="#231f20"/>
    <rect x="45" y="37" width="1" height="1" fill="#231f20"/>
    <rect x="0" y="38" width="1" height="1" fill="#231f20"/>
    <rect x="45" y="38" width="1" height="1" fill="#231f20"/>
    <rect x="0" y="39" width="1" height="1" fill="#231f20"/>
    <rect x="45" y="39" width="1" height="1" fill="#231f20"/>
    <rect x="0" y="40" width="1" height="1" fill="#231f20"/>
    <rect x="22" y="40" width="1" height="1" fill="#231f20"/>
    <rect x="26" y="40" width="1" height="1" fill="#231f20"/>
    <rect x="31" y="40" width="1" height="1" fill="#231f20"/>
    <rect x="45" y="40" width="1" height="1" fill="#231f20"/>
    <rect x="0" y="41" width="1" height="1" fill="#231f20"/>
    <rect x="22" y="41" width="1" height="1" fill="#231f20"/>
    <rect x="26" y="41" width="1" height="1" fill="#231f20"/>
    <rect x="31" y="41" width="1" height="1" fill="#231f20"/>
    <rect x="45" y="41" width="1" height="1" fill="#231f20"/>
    <rect x="0" y="42" width="1" height="1" fill="#231f20"/>
    <rect x="21" y="42" width="1" height="1" fill="#231f20"/>
    <rect x="25" y="42" width="1" height="1" fill="#231f20"/>
    <rect x="30" y="42" width="1" height="1" fill="#231f20"/>
    <rect x="45" y="42" width="1" height="1" fill="#231f20"/>
    <rect x="0" y="43" width="46" height="1" fill="#231f20"/>
    <rect x="0" y="44" width="1" height="1" fill="#231f20"/>
    <rect x="20" y="44" width="1" height="1" fill="#231f20"/>
    <rect x="24" y="44" width="1" height="1" fill="#231f20"/>
    <rect x="29" y="44" width="1" height="1" fill="#231f20"/>
    <rect x="45" y="44" width="1" height="1" fill="#231f20"/>
    <rect x="0" y="45" width="1" height="1" fill="#231f20"/>
    <rect x="20" y="45" width="1" height="1" fill="#231f20"/>
    <rect x="24" y="45" width="1" height="1" fill="#231f20"/>
    <rect x="29" y="45" width="1" height="1" fill="#231f20"/>
    <rect x="45" y="45" width="1" height="1" fill="#231f20"/>
    <rect x="0" y="46" width="1" height="1" fill="#231f20"/>
    <rect x="20" y="46" width="1" height="1" fill="#231f20"/>
    <rect x="24" y="46" width="1" height="1" fill="#231f20"/>
    <rect x="29" y="46" width="1" height="1" fill="#231f20"/>
    <rect x="45" y="46" width="1" height="1" fill="#231f20"/>
    <rect x="0" y="47" width="1" height="1" fill="#231f20"/>
    <rect x="19" y="47" width="1" height="1" fill="#231f20"/>
    <rect x="23" y="47" width="1" height="1" fill="#231f20"/>
    <rect x="28" y="47" width="1" height="1" fill="#231f20"/>
    <rect x="45" y="47" width="1" height="1" fill="#231f20"/>
    <rect x="0" y="48" width="1" height="1" fill="#231f20"/>
    <rect x="19" y="48" width="1" height="1" fill="#231f20"/>
    <rect x="23" y="48" width="1" height="1" fill="#231f20"/>
    <rect x="28" y="48" width="1" height="1" fill="#231f20"/>
    <rect x="45" y="48" width="1" height="1" fill="#231f20"/>
    <rect x="0" y="49" width="1" height="1" fill="#231f20"/>
    <rect x="19" y="49" width="1" height="1" fill="#231f20"/>
    <rect x="23" y="49" width="1" height="1" fill="#231f20"/>
    <rect x="28" y="49" width="1" height="1" fill="#231f20"/>
    <rect x="45" y="49" width="1" height="1" fill="#231f20"/>
    <rect x="0" y="50" width="1" height="1" fill="#231f20"/>
    <rect x="18" y="50" width="1" height="1" fill="#231f20"/>
    <rect x="22" y="50" width="1" height="1" fill="#231f20"/>
    <rect x="27" y="50" width="1" height="1" fill="#231f20"/>
    <rect x="45" y="50" width="1" height="1" fill="#231f20"/>
    <rect x="0" y="51" width="46" height="1" fill="#231f20"/>
    <rect x="0" y="52" width="1" height="1" fill="#231f20"/>
    <rect x="17" y="52" width="1" height="1" fill="#231f20"/>
    <rect x="21" y="52" width="1" height="1" fill="#231f20"/>
    <rect x="26" y="52" width="1" height="1" fill="#231f20"/>
    <rect x="45" y="52" width="1" height="1" fill="#231f20"/>
    <rect x="0" y="53" width="1" height="1" fill="#231f20"/>
    <rect x="17" y="53" width="1" height="1" fill="#231f20"/>
    <rect x="21" y="53" width="1" height="1" fill="#231f20"/>
    <rect x="26" y="53" width="1" height="1" fill="#231f20"/>
    <rect x="45" y="53" width="1" height="1" fill="#231f20"/>
    <rect x="0" y="54" width="1" height="1" fill="#231f20"/>
    <rect x="17" y="54" width="1" height="1" fill="#231f20"/>
    <rect x="21" y="54" width="1" height="1" fill="#231f20"/>
    <rect x="26" y="54" width="1" height="1" fill="#231f20"/>
    <rect x="45" y="54" width="1" height="1" fill="#231f20"/>
    <rect x="0" y="55" width="1" height="1" fill="#231f20"/>
    <rect x="16" y="55" width="1" height="1" fill="#231f20"/>
    <rect x="20" y="55" width="1" height="1" fill="#231f20"/>
    <rect x="25" y="55" width="1" height="1" fill="#231f20"/>
    <rect x="45" y="55" width="1" height="1" fill="#231f20"/>
    <rect x="0" y="56" width="1" height="1" fill="#231f20"/>
    <rect x="16" y="56" width="1" height="1" fill="#231f20"/>
    <rect x="20" y="56" width="1" height="1" fill="#231f20"/>
    <rect x="25" y="56" width="1" height="1" fill="#231f20"/>
    <rect x="45" y="56" width="1" height="1" fill="#231f20"/>
    <rect x="0" y="57" width="1" height="1" fill="#231f20"/>
    <rect x="16" y="57" width="1" height="1" fill="#231f20"/>
    <rect x="20" y="57" width="1" height="1" fill="#231f20"/>
    <rect x="25" y="57" width="1" height="1" fill="#231f20"/>
    <rect x="45" y="57" width="1" height="1" fill="#231f20"/>
    <rect x="0" y="58" width="46" height="1" fill="#231f20"/>
    <rect x="0" y="59" width="1" height="1" fill="#231f20"/>
    <rect x="15" y="59" width="1" height="1" fill="#231f20"/>
    <rect x="19" y="59" width="1" height="1" fill="#231f20"/>
    <rect x="24" y="59" width="1" height="1" fill="#231f20"/>
    <rect x="45" y="59" width="1" height="1" fill="#231f20"/>
    <rect x="0" y="60" width="1" height="1" fill="#231f20"/>
    <rect x="14" y="60" width="1" height="1" fill="#231f20"/>
    <rect x="18" y="60" width="1" height="1" fill="#231f20"/>
    <rect x="23" y="60" width="1" height="1" fill="#231f20"/>
    <rect x="45" y="60" width="1" height="1" fill="#231f20"/>
    <rect x="0" y="61" width="1" height="1" fill="#231f20"/>
    <rect x="14" y="61" width="1" height="1" fill="#231f20"/>
    <rect x="18" y="61" width="1" height="1" fill="#231f20"/>
    <rect x="23" y="61" width="1" height="1" fill="#231f20"/>
    <rect x="45" y="61" width="1" height="1" fill="#231f20"/>
    <rect x="0" y="62" width="1" height="1" fill="#231f20"/>
    <rect x="45" y="62" width="1" height="1" fill="#231f20"/>
    <rect x="0" y="63" width="1" height="1" fill="#231f20"/>
    <rect x="45" y="63" width="1" height="1" fill="#231f20"/>
    <rect x="0" y="64" width="1" height="1" fill="#231f20"/>
    <rect x="45" y="64" width="1" height="1" fill="#231f20"/>
    <rect x="0" y="65" width="46" height="1" fill="#231f20"/>
    <rect x="0" y="66" width="1" height="1" fill="#231f20"/>
    <rect x="45" y="66" width="1" height="1" fill="#231f20"/>
    <rect x="0" y="67" width="1" height="1" fill="#231f20"/>
    <rect x="45" y="67" width="1" height="1" fill="#231f20"/>
    <rect x="0" y="68" width="1" height="1" fill="#231f20"/>
    <rect x="45" y="68" width="1" height="1" fill="#231f20"/>
    <rect x="0" y="69" width="1" height="1" fill="#231f20"/>
    <rect x="45" y="69" width="1" height="1" fill="#231f20"/>
    <rect x="0" y="70" width="1" height="1" fill="#231f20"/>
    <rect x="45" y="70" width="1" height="1" fill="#231f20"/>
    <rect x="0" y="71" width="1" height="1" fill="#231f20"/>
    <rect x="45" y="71" width="1" height="1" fill="#231f20"/>
    <rect x="0" y="72" width="46" height="1" fill="#231f20"/>
  </g>
</svg>