<?xml version="1.0" encoding="UTF-8"?>
<svg xmlns="http://www.w3.org/2000/svg" viewBox="0 0 179 74" width="179" height="74">
  <!-- Auto-converted from legend-865.png -->
  <rect x="0" y="0" width="179" height="74" fill="none"/>
  <g fill="#231f20" stroke="none">
    <rect x="2" y="3" width="174" height="1" fill="#231f20"/>
    <rect x="2" y="4" width="1" height="1" fill="#231f20"/>
    <rect x="175" y="4" width="1" height="1" fill="#231f20"/>
    <rect x="2" y="5" width="1" height="1" fill="#231f20"/>
    <rect x="175" y="5" width="1" height="1" fill="#231f20"/>
    <rect x="2" y="6" width="1" height="1" fill="#231f20"/>
    <rect x="175" y="6" width="1" height="1" fill="#231f20"/>
    <rect x="2" y="7" width="1" height="1" fill="#231f20"/>
    <rect x="175" y="7" width="1" height="1" fill="#231f20"/>
    <rect x="2" y="8" width="1" height="1" fill="#231f20"/>
    <rect x="175" y="8" width="1" height="1" fill="#231f20"/>
    <rect x="2" y="9" width="1" height="1" fill="#231f20"/>
    <rect x="175" y="9" width="1" height="1" fill="#231f20"/>
    <rect x="2" y="10" width="1" height="1" fill="#231f20"/>
    <rect x="175" y="10" width="1" height="1" fill="#231f20"/>
    <rect x="2" y="11" width="1" height="1" fill="#231f20"/>
    <rect x="175" y="11" width="1" height="1" fill="#231f20"/>
    <rect x="2" y="12" width="1" height="1" fill="#231f20"/>
    <rect x="175" y="12" width="1" height="1" fill="#231f20"/>
    <rect x="2" y="13" width="1" height="1" fill="#231f20"/>
    <rect x="175" y="13" width="1" height="1" fill="#231f20"/>
    <rect x="2" y="14" width="1" height="1" fill="#231f20"/>
    <rect x="93" y="14" width="2" height="1" fill="#231f20"/>
    <rect x="175" y="14" width="1" height="1" fill="#231f20"/>
    <rect x="2" y="15" width="1" height="1" fill="#231f20"/>
    <rect x="92" y="15" width="4" height="1" fill="#231f20"/>
    <rect x="175" y="15" width="1" height="1" fill="#231f20"/>
    <rect x="2" y="16" width="1" height="1" fill="#231f20"/>
    <rect x="91" y="16" width="5" height="1" fill="#231f20"/>
    <rect x="175" y="16" width="1" height="1" fill="#231f20"/>
    <rect x="2" y="17" width="1" height="1" fill="#231f20"/>
    <rect x="91" y="17" width="6" height="1" fill="#231f20"/>
    <rect x="175" y="17" width="1" height="1" fill="#231f20"/>
    <rect x="2" y="18" width="1" height="1" fill="#231f20"/>
    <rect x="90" y="18" width="7" height="1" fill="#231f20"/>
    <rect x="175" y="18" width="1" height="1" fill="#231f20"/>
    <rect x="2" y="19" width="1" height="1" fill="#231f20"/>
    <rect x="90" y="19" width="3" height="1" fill="#231f20"/>
    <rect x="94" y="19" width="4" height="1" fill="#231f20"/>
    <rect x="175" y="19" width="1" height="1" fill="#231f20"/>
    <rect x="2" y="20" width="1" height="1" fill="#231f20"/>
    <rect x="89" y="20" width="3" height="1" fill="#231f20"/>
    <rect x="94" y="20" width="5" height="1" fill="#231f20"/>
    <rect x="175" y="20" width="1" height="1" fill="#231f20"/>
    <rect x="2" y="21" width="1" height="1" fill="#231f20"/>
    <rect x="89" y="21" width="3" height="1" fill="#231f20"/>
    <rect x="95" y="21" width="4" height="1" fill="#231f20"/>
    <rect x="175" y="21" width="1" height="1" fill="#231f20"/>
    <rect x="2" y="22" width="1" height="1" fill="#231f20"/>
    <rect x="88" y="22" width="3" height="1" fill="#231f20"/>
    <rect x="96" y="22" width="4" height="1" fill="#231f20"/>
    <rect x="175" y="22" width="1" height="1" fill="#231f20"/>
    <rect x="2" y="23" width="1" height="1" fill="#231f20"/>
    <rect x="87" y="23" width="3" height="1" fill="#231f20"/>
    <rect x="96" y="23" width="4" height="1" fill="#231f20"/>
    <rect x="175" y="23" width="1" height="1" fill="#231f20"/>
    <rect x="2" y="24" width="1" height="1" fill="#231f20"/>
    <rect x="87" y="24" width="3" height="1" fill="#231f20"/>
    <rect x="97" y="24" width="4" height="1" fill="#231f20"/>
    <rect x="175" y="24" width="1" height="1" fill="#231f20"/>
    <rect x="2" y="25" width="1" height="1" fill="#231f20"/>
    <rect x="86" y="25" width="3" height="1" fill="#231f20"/>
    <rect x="97" y="25" width="4" height="1" fill="#231f20"/>
    <rect x="175" y="25" width="1" height="1" fill="#231f20"/>
    <rect x="2" y="26" width="1" height="1" fill="#231f20"/>
    <rect x="86" y="26" width="3" height="1" fill="#231f20"/>
    <rect x="98" y="26" width="4" height="1" fill="#231f20"/>
    <rect x="175" y="26" width="1" height="1" fill="#231f20"/>
    <rect x="2" y="27" width="1" height="1" fill="#231f20"/>
    <rect x="85" y="27" width="3" height="1" fill="#231f20"/>
    <rect x="98" y="27" width="5" height="1" fill="#231f20"/>
    <rect x="175" y="27" width="1" height="1" fill="#231f20"/>
    <rect x="2" y="28" width="1" height="1" fill="#231f20"/>
    <rect x="85" y="28" width="3" height="1" fill="#231f20"/>
    <rect x="99" y="28" width="4" height="1" fill="#231f20"/>
    <rect x="175" y="28" width="1" height="1" fill="#231f20"/>
    <rect x="2" y="29" width="1" height="1" fill="#231f20"/>
    <rect x="84" y="29" width="3" height="1" fill="#231f20"/>
    <rect x="100" y="29" width="4" height="1" fill="#231f20"/>
    <rect x="175" y="29" width="1" height="1" fill="#231f20"/>
    <rect x="2" y="30" width="1" height="1" fill="#231f20"/>
    <rect x="84" y="30" width="3" height="1" fill="#231f20"/>
    <rect x="100" y="30" width="4" height="1" fill="#231f20"/>
    <rect x="175" y="30" width="1" height="1" fill="#231f20"/>
    <rect x="2" y="31" width="1" height="1" fill="#231f20"/>
    <rect x="83" y="31" width="3" height="1" fill="#231f20"/>
    <rect x="101" y="31" width="4" height="1" fill="#231f20"/>
    <rect x="175" y="31" width="1" height="1" fill="#231f20"/>
    <rect x="2" y="32" width="1" height="1" fill="#231f20"/>
    <rect x="82" y="32" width="3" height="1" fill="#231f20"/>
    <rect x="101" y="32" width="5" height="1" fill="#231f20"/>
    <rect x="175" y="32" width="1" height="1" fill="#231f20"/>
    <rect x="2" y="33" width="1" height="1" fill="#231f20"/>
    <rect x="82" y="33" width="3" height="1" fill="#231f20"/>
    <rect x="102" y="33" width="4" height="1" fill="#231f20"/>
    <rect x="175" y="33" width="1" height="1" fill="#231f20"/>
    <rect x="2" y="34" width="1" height="1" fill="#231f20"/>
    <rect x="81" y="34" width="3" height="1" fill="#231f20"/>
    <rect x="103" y="34" width="4" height="1" fill="#231f20"/>
    <rect x="175" y="34" width="1" height="1" fill="#231f20"/>
    <rect x="2" y="35" width="1" height="1" fill="#231f20"/>
    <rect x="81" y="35" width="3" height="1" fill="#231f20"/>
    <rect x="103" y="35" width="4" height="1" fill="#231f20"/>
    <rect x="175" y="35" width="1" height="1" fill="#231f20"/>
    <rect x="2" y="36" width="1" height="1" fill="#231f20"/>
    <rect x="80" y="36" width="3" height="1" fill="#231f20"/>
    <rect x="104" y="36" width="4" height="1" fill="#231f20"/>
    <rect x="175" y="36" width="1" height="1" fill="#231f20"/>
    <rect x="2" y="37" width="1" height="1" fill="#231f20"/>
    <rect x="80" y="37" width="3" height="1" fill="#231f20"/>
    <rect x="104" y="37" width="5" height="1" fill="#231f20"/>
    <rect x="175" y="37" width="1" height="1" fill="#231f20"/>
    <rect x="2" y="38" width="1" height="1" fill="#231f20"/>
    <rect x="79" y="38" width="3" height="1" fill="#231f20"/>
    <rect x="105" y="38" width="4" height="1" fill="#231f20"/>
    <rect x="175" y="38" width="1" height="1" fill="#231f20"/>
    <rect x="2" y="39" width="1" height="1" fill="#231f20"/>
    <rect x="78" y="39" width="3" height="1" fill="#231f20"/>
    <rect x="106" y="39" width="4" height="1" fill="#231f20"/>
    <rect x="175" y="39" width="1" height="1" fill="#231f20"/>
    <rect x="2" y="40" width="1" height="1" fill="#231f20"/>
    <rect x="78" y="40" width="3" height="1" fill="#231f20"/>
    <rect x="106" y="40" width="4" height="1" fill="#231f20"/>
    <rect x="175" y="40" width="1" height="1" fill="#231f20"/>
    <rect x="2" y="41" width="1" height="1" fill="#231f20"/>
    <rect x="77" y="41" width="3" height="1" fill="#231f20"/>
    <rect x="107" y="41" width="4" height="1" fill="#231f20"/>
    <rect x="175" y="41" width="1" height="1" fill="#231f20"/>
    <rect x="2" y="42" width="1" height="1" fill="#231f20"/>
    <rect x="77" y="42" width="3" height="1" fill="#231f20"/>
    <rect x="107" y="42" width="5" height="1" fill="#231f20"/>
    <rect x="175" y="42" width="1" height="1" fill="#231f20"/>
    <rect x="2" y="43" width="1" height="1" fill="#231f20"/>
    <rect x="76" y="43" width="3" height="1" fill="#231f20"/>
    <rect x="108" y="43" width="4" height="1" fill="#231f20"/>
    <rect x="175" y="43" width="1" height="1" fill="#231f20"/>
    <rect x="2" y="44" width="1" height="1" fill="#231f20"/>
    <rect x="76" y="44" width="3" height="1" fill="#231f20"/>
    <rect x="109" y="44" width="4" height="1" fill="#231f20"/>
    <rect x="175" y="44" width="1" height="1" fill="#231f20"/>
    <rect x="2" y="45" width="1" height="1" fill="#231f20"/>
    <rect x="75" y="45" width="3" height="1" fill="#231f20"/>
    <rect x="109" y="45" width="4" height="1" fill="#231f20"/>
    <rect x="175" y="45" width="1" height="1" fill="#231f20"/>
    <rect x="2" y="46" width="1" height="1" fill="#231f20"/>
    <rect x="75" y="46" width="3" height="1" fill="#231f20"/>
    <rect x="110" y="46" width="4" height="1" fill="#231f20"/>
    <rect x="175" y="46" width="1" height="1" fill="#231f20"/>
    <rect x="2" y="47" width="1" height="1" fill="#231f20"/>
    <rect x="74" y="47" width="3" height="1" fill="#231f20"/>
    <rect x="110" y="47" width="4" height="1" fill="#231f20"/>
    <rect x="175" y="47" width="1" height="1" fill="#231f20"/>
    <rect x="2" y="48" width="1" height="1" fill="#231f20"/>
    <rect x="73" y="48" width="3" height="1" fill="#231f20"/>
    <rect x="111" y="48" width="4" height="1" fill="#231f20"/>
    <rect x="175" y="48" width="1" height="1" fill="#231f20"/>
    <rect x="2" y="49" width="1" height="1" fill="#231f20"/>
    <rect x="73" y="49" width="3" height="1" fill="#231f20"/>
    <rect x="111" y="49" width="5" height="1" fill="#231f20"/>
    <rect x="175" y="49" width="1" height="1" fill="#231f20"/>
    <rect x="2" y="50" width="1" height="1" fill="#231f20"/>
    <rect x="72" y="50" width="3" height="1" fill="#231f20"/>
    <rect x="112" y="50" width="4" height="1" fill="#231f20"/>
    <rect x="175" y="50" width="1" height="1" fill="#231f20"/>
    <rect x="2" y="51" width="1" height="1" fill="#231f20"/>
    <rect x="72" y="51" width="3" height="1" fill="#231f20"/>
    <rect x="113" y="51" width="4" height="1" fill="#231f20"/>
    <rect x="175" y="51" width="1" height="1" fill="#231f20"/>
    <rect x="2" y="52" width="1" height="1" fill="#231f20"/>
    <rect x="71" y="52" width="3" height="1" fill="#231f20"/>
    <rect x="113" y="52" width="4" height="1" fill="#231f20"/>
    <rect x="175" y="52" width="1" height="1" fill="#231f20"/>
    <rect x="2" y="53" width="1" height="1" fill="#231f20"/>
    <rect x="71" y="53" width="47" height="1" fill="#231f20"/>
    <rect x="175" y="53" width="1" height="1" fill="#231f20"/>
    <rect x="2" y="54" width="1" height="1" fill="#231f20"/>
    <rect x="70" y="54" width="48" height="1" fill="#231f20"/>
    <rect x="175" y="54" width="1" height="1" fill="#231f20"/>
    <rect x="2" y="55" width="1" height="1" fill="#231f20"/>
    <rect x="71" y="55" width="47" height="1" fill="#231f20"/>
    <rect x="175" y="55" width="1" height="1" fill="#231f20"/>
    <rect x="2" y="56" width="1" height="1" fill="#231f20"/>
    <rect x="175" y="56" width="1" height="1" fill="#231f20"/>
    <rect x="2" y="57" width="1" height="1" fill="#231f20"/>
    <rect x="175" y="57" width="1" height="1" fill="#231f20"/>
    <rect x="2" y="58" width="1" height="1" fill="#231f20"/>
    <rect x="175" y="58" width="1" height="1" fill="#231f20"/>
    <rect x="2" y="59" width="1" height="1" fill="#231f20"/>
    <rect x="175" y="59" width="1" height="1" fill="#231f20"/>
    <rect x="2" y="60" width="1" height="1" fill="#231f20"/>
    <rect x="175" y="60" width="1" height="1" fill="#231f20"/>
    <rect x="2" y="61" width="1" height="1" fill="#231f20"/>
    <rect x="175" y="61" width="1" height="1" fill="#231f20"/>
    <rect x="2" y="62" width="1" height="1" fill="#231f20"/>
    <rect x="175" y="62" width="1" height="1" fill="#231f20"/>
    <rect x="2" y="63" width="1" height="1" fill="#231f20"/>
    <rect x="175" y="63" width="1" height="1" fill="#231f20"/>
    <rect x="2" y="64" width="1" height="1" fill="#231f20"/>
    <rect x="175" y="64" width="1" height="1" fill="#231f20"/>
    <rect x="2" y="65" width="1" height="1" fill="#231f20"/>
    <rect x="175" y="65" width="1" height="1" fill="#231f20"/>
    <rect x="2" y="66" width="1" height="1" fill="#231f20"/>
    <rect x="175" y="66" width="1" height="1" fill="#231f20"/>
    <rect x="2" y="67" width="1" height="1" fill="#231f20"/>
    <rect x="175" y="67" width="1" height="1" fill="#231f20"/>
    <rect x="2" y="68" width="1" height="1" fill="#231f20"/>
    <rect x="175" y="68" width="1" height="1" fill="#231f20"/>
    <rect x="2" y="69" width="1" height="1" fill="#231f20"/>
    <rect x="175" y="69" width="1" height="1" fill="#231f20"/>
    <rect x="2" y="70" width="1" height="1" fill="#231f20"/>
    <rect x="175" y="70" width="1" height="1" fill="#231f20"/>
    <rect x="2" y="71" width="174" height="1" fill="#231f20"/>
  </g>
</svg>