<?xml version="1.0" encoding="UTF-8"?>
<svg xmlns="http://www.w3.org/2000/svg" viewBox="0 0 165 83" width="165" height="83">
  <!-- Auto-converted from legend-2747.png -->
  <rect x="0" y="0" width="165" height="83" fill="none"/>
  <g fill="#231f20" stroke="none">
    <rect x="0" y="0" width="165" height="1" fill="#231f20"/>
    <rect x="0" y="1" width="1" height="1" fill="#231f20"/>
    <rect x="164" y="1" width="1" height="1" fill="#231f20"/>
    <rect x="0" y="2" width="1" height="1" fill="#231f20"/>
    <rect x="164" y="2" width="1" height="1" fill="#231f20"/>
    <rect x="0" y="3" width="1" height="1" fill="#231f20"/>
    <rect x="164" y="3" width="1" height="1" fill="#231f20"/>
    <rect x="0" y="4" width="1" height="1" fill="#231f20"/>
    <rect x="164" y="4" width="1" height="1" fill="#231f20"/>
    <rect x="0" y="5" width="1" height="1" fill="#231f20"/>
    <rect x="164" y="5" width="1" height="1" fill="#231f20"/>
    <rect x="0" y="6" width="1" height="1" fill="#231f20"/>
    <rect x="70" y="6" width="26" height="1" fill="#231f20"/>
    <rect x="164" y="6" width="1" height="1" fill="#231f20"/>
    <rect x="0" y="7" width="1" height="1" fill="#231f20"/>
    <rect x="70" y="7" width="1" height="1" fill="#231f20"/>
    <rect x="95" y="7" width="1" height="1" fill="#231f20"/>
    <rect x="164" y="7" width="1" height="1" fill="#231f20"/>
    <rect x="0" y="8" width="1" height="1" fill="#231f20"/>
    <rect x="70" y="8" width="1" height="1" fill="#231f20"/>
    <rect x="78" y="8" width="6" height="1" fill="#231f20"/>
    <rect x="95" y="8" width="1" height="1" fill="#231f20"/>
    <rect x="164" y="8" width="1" height="1" fill="#231f20"/>
    <rect x="0" y="9" width="1" height="1" fill="#231f20"/>
    <rect x="70" y="9" width="1" height="1" fill="#231f20"/>
    <rect x="77" y="9" width="1" height="1" fill="#231f20"/>
    <rect x="84" y="9" width="1" height="1" fill="#231f20"/>
    <rect x="95" y="9" width="1" height="1" fill="#231f20"/>
    <rect x="164" y="9" width="1" height="1" fill="#231f20"/>
    <rect x="0" y="10" width="1" height="1" fill="#231f20"/>
    <rect x="70" y="10" width="1" height="1" fill="#231f20"/>
    <rect x="77" y="10" width="1" height="1" fill="#231f20"/>
    <rect x="85" y="10" width="1" height="1" fill="#231f20"/>
    <rect x="95" y="10" width="1" height="1" fill="#231f20"/>
    <rect x="164" y="10" width="1" height="1" fill="#231f20"/>
    <rect x="0" y="11" width="1" height="1" fill="#231f20"/>
    <rect x="70" y="11" width="1" height="1" fill="#231f20"/>
    <rect x="77" y="11" width="1" height="1" fill="#231f20"/>
    <rect x="85" y="11" width="1" height="1" fill="#231f20"/>
    <rect x="95" y="11" width="1" height="1" fill="#231f20"/>
    <rect x="164" y="11" width="1" height="1" fill="#231f20"/>
    <rect x="0" y="12" width="1" height="1" fill="#231f20"/>
    <rect x="70" y="12" width="1" height="1" fill="#231f20"/>
    <rect x="77" y="12" width="1" height="1" fill="#231f20"/>
    <rect x="85" y="12" width="1" height="1" fill="#231f20"/>
    <rect x="95" y="12" width="1" height="1" fill="#231f20"/>
    <rect x="164" y="12" width="1" height="1" fill="#231f20"/>
    <rect x="0" y="13" width="1" height="1" fill="#231f20"/>
    <rect x="70" y="13" width="1" height="1" fill="#231f20"/>
    <rect x="85" y="13" width="1" height="1" fill="#231f20"/>
    <rect x="95" y="13" width="1" height="1" fill="#231f20"/>
    <rect x="164" y="13" width="1" height="1" fill="#231f20"/>
    <rect x="0" y="14" width="1" height="1" fill="#231f20"/>
    <rect x="70" y="14" width="1" height="1" fill="#231f20"/>
    <rect x="84" y="14" width="1" height="1" fill="#231f20"/>
    <rect x="95" y="14" width="1" height="1" fill="#231f20"/>
    <rect x="164" y="14" width="1" height="1" fill="#231f20"/>
    <rect x="0" y="15" width="1" height="1" fill="#231f20"/>
    <rect x="70" y="15" width="1" height="1" fill="#231f20"/>
    <rect x="83" y="15" width="1" height="1" fill="#231f20"/>
    <rect x="95" y="15" width="1" height="1" fill="#231f20"/>
    <rect x="164" y="15" width="1" height="1" fill="#231f20"/>
    <rect x="0" y="16" width="1" height="1" fill="#231f20"/>
    <rect x="70" y="16" width="1" height="1" fill="#231f20"/>
    <rect x="82" y="16" width="1" height="1" fill="#231f20"/>
    <rect x="95" y="16" width="1" height="1" fill="#231f20"/>
    <rect x="164" y="16" width="1" height="1" fill="#231f20"/>
    <rect x="0" y="17" width="1" height="1" fill="#231f20"/>
    <rect x="70" y="17" width="1" height="1" fill="#231f20"/>
    <rect x="81" y="17" width="1" height="1" fill="#231f20"/>
    <rect x="95" y="17" width="1" height="1" fill="#231f20"/>
    <rect x="164" y="17" width="1" height="1" fill="#231f20"/>
    <rect x="0" y="18" width="1" height="1" fill="#231f20"/>
    <rect x="70" y="18" width="1" height="1" fill="#231f20"/>
    <rect x="80" y="18" width="1" height="1" fill="#231f20"/>
    <rect x="95" y="18" width="1" height="1" fill="#231f20"/>
    <rect x="164" y="18" width="1" height="1" fill="#231f20"/>
    <rect x="0" y="19" width="1" height="1" fill="#231f20"/>
    <rect x="70" y="19" width="1" height="1" fill="#231f20"/>
    <rect x="79" y="19" width="1" height="1" fill="#231f20"/>
    <rect x="85" y="19" width="1" height="1" fill="#231f20"/>
    <rect x="95" y="19" width="1" height="1" fill="#231f20"/>
    <rect x="164" y="19" width="1" height="1" fill="#231f20"/>
    <rect x="0" y="20" width="1" height="1" fill="#231f20"/>
    <rect x="70" y="20" width="1" height="1" fill="#231f20"/>
    <rect x="78" y="20" width="1" height="1" fill="#231f20"/>
    <rect x="85" y="20" width="1" height="1" fill="#231f20"/>
    <rect x="95" y="20" width="1" height="1" fill="#231f20"/>
    <rect x="164" y="20" width="1" height="1" fill="#231f20"/>
    <rect x="0" y="21" width="1" height="1" fill="#231f20"/>
    <rect x="70" y="21" width="1" height="1" fill="#231f20"/>
    <rect x="77" y="21" width="1" height="1" fill="#231f20"/>
    <rect x="85" y="21" width="1" height="1" fill="#231f20"/>
    <rect x="95" y="21" width="1" height="1" fill="#231f20"/>
    <rect x="164" y="21" width="1" height="1" fill="#231f20"/>
    <rect x="0" y="22" width="1" height="1" fill="#231f20"/>
    <rect x="70" y="22" width="1" height="1" fill="#231f20"/>
    <rect x="77" y="22" width="9" height="1" fill="#231f20"/>
    <rect x="95" y="22" width="1" height="1" fill="#231f20"/>
    <rect x="164" y="22" width="1" height="1" fill="#231f20"/>
    <rect x="0" y="23" width="1" height="1" fill="#231f20"/>
    <rect x="70" y="23" width="1" height="1" fill="#231f20"/>
    <rect x="95" y="23" width="1" height="1" fill="#231f20"/>
    <rect x="164" y="23" width="1" height="1" fill="#231f20"/>
    <rect x="0" y="24" width="1" height="1" fill="#231f20"/>
    <rect x="70" y="24" width="1" height="1" fill="#231f20"/>
    <rect x="95" y="24" width="1" height="1" fill="#231f20"/>
    <rect x="164" y="24" width="1" height="1" fill="#231f20"/>
    <rect x="0" y="25" width="1" height="1" fill="#231f20"/>
    <rect x="70" y="25" width="26" height="1" fill="#231f20"/>
    <rect x="164" y="25" width="1" height="1" fill="#231f20"/>
    <rect x="0" y="26" width="1" height="1" fill="#231f20"/>
    <rect x="164" y="26" width="1" height="1" fill="#231f20"/>
    <rect x="0" y="27" width="1" height="1" fill="#231f20"/>
    <rect x="164" y="27" width="1" height="1" fill="#231f20"/>
    <rect x="0" y="28" width="1" height="1" fill="#231f20"/>
    <rect x="164" y="28" width="1" height="1" fill="#231f20"/>
    <rect x="0" y="29" width="1" height="1" fill="#231f20"/>
    <rect x="164" y="29" width="1" height="1" fill="#231f20"/>
    <rect x="0" y="30" width="1" height="1" fill="#231f20"/>
    <rect x="68" y="30" width="31" height="1" fill="#231f20"/>
    <rect x="164" y="30" width="1" height="1" fill="#231f20"/>
    <rect x="0" y="31" width="1" height="1" fill="#231f20"/>
    <rect x="68" y="31" width="31" height="1" fill="#231f20"/>
    <rect x="164" y="31" width="1" height="1" fill="#231f20"/>
    <rect x="0" y="32" width="1" height="1" fill="#231f20"/>
    <rect x="68" y="32" width="31" height="1" fill="#231f20"/>
    <rect x="101" y="32" width="26" height="1" fill="#231f20"/>
    <rect x="164" y="32" width="1" height="1" fill="#231f20"/>
    <rect x="0" y="33" width="1" height="1" fill="#231f20"/>
    <rect x="38" y="33" width="26" height="1" fill="#231f20"/>
    <rect x="68" y="33" width="3" height="1" fill="#231f20"/>
    <rect x="72" y="33" width="5" height="1" fill="#231f20"/>
    <rect x="83" y="33" width="5" height="1" fill="#231f20"/>
    <rect x="93" y="33" width="6" height="1" fill="#231f20"/>
    <rect x="101" y="33" width="1" height="1" fill="#231f20"/>
    <rect x="126" y="33" width="1" height="1" fill="#231f20"/>
    <rect x="164" y="33" width="1" height="1" fill="#231f20"/>
    <rect x="0" y="34" width="1" height="1" fill="#231f20"/>
    <rect x="38" y="34" width="1" height="1" fill="#231f20"/>
    <rect x="63" y="34" width="1" height="1" fill="#231f20"/>
    <rect x="68" y="34" width="8" height="1" fill="#231f20"/>
    <rect x="82" y="34" width="5" height="1" fill="#231f20"/>
    <rect x="93" y="34" width="6" height="1" fill="#231f20"/>
    <rect x="101" y="34" width="1" height="1" fill="#231f20"/>
    <rect x="112" y="34" width="1" height="1" fill="#231f20"/>
    <rect x="126" y="34" width="1" height="1" fill="#231f20"/>
    <rect x="164" y="34" width="1" height="1" fill="#231f20"/>
    <rect x="0" y="35" width="1" height="1" fill="#231f20"/>
    <rect x="38" y="35" width="1" height="1" fill="#231f20"/>
    <rect x="63" y="35" width="1" height="1" fill="#231f20"/>
    <rect x="68" y="35" width="7" height="1" fill="#231f20"/>
    <rect x="81" y="35" width="5" height="1" fill="#231f20"/>
    <rect x="92" y="35" width="7" height="1" fill="#231f20"/>
    <rect x="101" y="35" width="1" height="1" fill="#231f20"/>
    <rect x="109" y="35" width="4" height="1" fill="#231f20"/>
    <rect x="126" y="35" width="1" height="1" fill="#231f20"/>
    <rect x="164" y="35" width="1" height="1" fill="#231f20"/>
    <rect x="0" y="36" width="1" height="1" fill="#231f20"/>
    <rect x="38" y="36" width="1" height="1" fill="#231f20"/>
    <rect x="63" y="36" width="1" height="1" fill="#231f20"/>
    <rect x="68" y="36" width="6" height="1" fill="#231f20"/>
    <rect x="80" y="36" width="5" height="1" fill="#231f20"/>
    <rect x="91" y="36" width="8" height="1" fill="#231f20"/>
    <rect x="101" y="36" width="1" height="1" fill="#231f20"/>
    <rect x="112" y="36" width="1" height="1" fill="#231f20"/>
    <rect x="126" y="36" width="1" height="1" fill="#231f20"/>
    <rect x="164" y="36" width="1" height="1" fill="#231f20"/>
    <rect x="0" y="37" width="1" height="1" fill="#231f20"/>
    <rect x="38" y="37" width="1" height="1" fill="#231f20"/>
    <rect x="47" y="37" width="5" height="1" fill="#231f20"/>
    <rect x="63" y="37" width="1" height="1" fill="#231f20"/>
    <rect x="68" y="37" width="5" height="1" fill="#231f20"/>
    <rect x="79" y="37" width="5" height="1" fill="#231f20"/>
    <rect x="90" y="37" width="5" height="1" fill="#231f20"/>
    <rect x="96" y="37" width="3" height="1" fill="#231f20"/>
    <rect x="101" y="37" width="1" height="1" fill="#231f20"/>
    <rect x="112" y="37" width="1" height="1" fill="#231f20"/>
    <rect x="126" y="37" width="1" height="1" fill="#231f20"/>
    <rect x="164" y="37" width="1" height="1" fill="#231f20"/>
    <rect x="0" y="38" width="1" height="1" fill="#231f20"/>
    <rect x="38" y="38" width="1" height="1" fill="#231f20"/>
    <rect x="46" y="38" width="1" height="1" fill="#231f20"/>
    <rect x="52" y="38" width="1" height="1" fill="#231f20"/>
    <rect x="63" y="38" width="1" height="1" fill="#231f20"/>
    <rect x="68" y="38" width="4" height="1" fill="#231f20"/>
    <rect x="78" y="38" width="5" height="1" fill="#231f20"/>
    <rect x="89" y="38" width="5" height="1" fill="#231f20"/>
    <rect x="96" y="38" width="3" height="1" fill="#231f20"/>
    <rect x="101" y="38" width="1" height="1" fill="#231f20"/>
    <rect x="112" y="38" width="1" height="1" fill="#231f20"/>
    <rect x="126" y="38" width="1" height="1" fill="#231f20"/>
    <rect x="164" y="38" width="1" height="1" fill="#231f20"/>
    <rect x="0" y="39" width="1" height="1" fill="#231f20"/>
    <rect x="38" y="39" width="1" height="1" fill="#231f20"/>
    <rect x="46" y="39" width="1" height="1" fill="#231f20"/>
    <rect x="53" y="39" width="1" height="1" fill="#231f20"/>
    <rect x="63" y="39" width="1" height="1" fill="#231f20"/>
    <rect x="68" y="39" width="3" height="1" fill="#231f20"/>
    <rect x="77" y="39" width="5" height="1" fill="#231f20"/>
    <rect x="88" y="39" width="5" height="1" fill="#231f20"/>
    <rect x="96" y="39" width="3" height="1" fill="#231f20"/>
    <rect x="101" y="39" width="1" height="1" fill="#231f20"/>
    <rect x="112" y="39" width="1" height="1" fill="#231f20"/>
    <rect x="126" y="39" width="1" height="1" fill="#231f20"/>
    <rect x="164" y="39" width="1" height="1" fill="#231f20"/>
    <rect x="0" y="40" width="1" height="1" fill="#231f20"/>
    <rect x="38" y="40" width="1" height="1" fill="#231f20"/>
    <rect x="46" y="40" width="1" height="1" fill="#231f20"/>
    <rect x="53" y="40" width="1" height="1" fill="#231f20"/>
    <rect x="63" y="40" width="1" height="1" fill="#231f20"/>
    <rect x="68" y="40" width="3" height="1" fill="#231f20"/>
    <rect x="77" y="40" width="4" height="1" fill="#231f20"/>
    <rect x="87" y="40" width="5" height="1" fill="#231f20"/>
    <rect x="96" y="40" width="3" height="1" fill="#231f20"/>
    <rect x="101" y="40" width="1" height="1" fill="#231f20"/>
    <rect x="112" y="40" width="1" height="1" fill="#231f20"/>
    <rect x="126" y="40" width="1" height="1" fill="#231f20"/>
    <rect x="164" y="40" width="1" height="1" fill="#231f20"/>
    <rect x="0" y="41" width="1" height="1" fill="#231f20"/>
    <rect x="38" y="41" width="1" height="1" fill="#231f20"/>
    <rect x="53" y="41" width="1" height="1" fill="#231f20"/>
    <rect x="63" y="41" width="1" height="1" fill="#231f20"/>
    <rect x="68" y="41" width="3" height="1" fill="#231f20"/>
    <rect x="76" y="41" width="4" height="1" fill="#231f20"/>
    <rect x="87" y="41" width="4" height="1" fill="#231f20"/>
    <rect x="96" y="41" width="3" height="1" fill="#231f20"/>
    <rect x="101" y="41" width="1" height="1" fill="#231f20"/>
    <rect x="112" y="41" width="1" height="1" fill="#231f20"/>
    <rect x="126" y="41" width="1" height="1" fill="#231f20"/>
    <rect x="164" y="41" width="1" height="1" fill="#231f20"/>
    <rect x="0" y="42" width="1" height="1" fill="#231f20"/>
    <rect x="38" y="42" width="1" height="1" fill="#231f20"/>
    <rect x="52" y="42" width="1" height="1" fill="#231f20"/>
    <rect x="63" y="42" width="1" height="1" fill="#231f20"/>
    <rect x="68" y="42" width="3" height="1" fill="#231f20"/>
    <rect x="75" y="42" width="5" height="1" fill="#231f20"/>
    <rect x="86" y="42" width="4" height="1" fill="#231f20"/>
    <rect x="96" y="42" width="3" height="1" fill="#231f20"/>
    <rect x="101" y="42" width="1" height="1" fill="#231f20"/>
    <rect x="112" y="42" width="1" height="1" fill="#231f20"/>
    <rect x="126" y="42" width="1" height="1" fill="#231f20"/>
    <rect x="164" y="42" width="1" height="1" fill="#231f20"/>
    <rect x="0" y="43" width="1" height="1" fill="#231f20"/>
    <rect x="38" y="43" width="1" height="1" fill="#231f20"/>
    <rect x="49" y="43" width="3" height="1" fill="#231f20"/>
    <rect x="63" y="43" width="1" height="1" fill="#231f20"/>
    <rect x="68" y="43" width="3" height="1" fill="#231f20"/>
    <rect x="74" y="43" width="5" height="1" fill="#231f20"/>
    <rect x="85" y="43" width="5" height="1" fill="#231f20"/>
    <rect x="96" y="43" width="3" height="1" fill="#231f20"/>
    <rect x="101" y="43" width="1" height="1" fill="#231f20"/>
    <rect x="112" y="43" width="1" height="1" fill="#231f20"/>
    <rect x="126" y="43" width="1" height="1" fill="#231f20"/>
    <rect x="164" y="43" width="1" height="1" fill="#231f20"/>
    <rect x="0" y="44" width="1" height="1" fill="#231f20"/>
    <rect x="38" y="44" width="1" height="1" fill="#231f20"/>
    <rect x="52" y="44" width="2" height="1" fill="#231f20"/>
    <rect x="63" y="44" width="1" height="1" fill="#231f20"/>
    <rect x="68" y="44" width="3" height="1" fill="#231f20"/>
    <rect x="73" y="44" width="5" height="1" fill="#231f20"/>
    <rect x="84" y="44" width="5" height="1" fill="#231f20"/>
    <rect x="96" y="44" width="3" height="1" fill="#231f20"/>
    <rect x="101" y="44" width="1" height="1" fill="#231f20"/>
    <rect x="112" y="44" width="1" height="1" fill="#231f20"/>
    <rect x="126" y="44" width="1" height="1" fill="#231f20"/>
    <rect x="164" y="44" width="1" height="1" fill="#231f20"/>
    <rect x="0" y="45" width="1" height="1" fill="#231f20"/>
    <rect x="38" y="45" width="1" height="1" fill="#231f20"/>
    <rect x="53" y="45" width="1" height="1" fill="#231f20"/>
    <rect x="63" y="45" width="1" height="1" fill="#231f20"/>
    <rect x="68" y="45" width="3" height="1" fill="#231f20"/>
    <rect x="72" y="45" width="5" height="1" fill="#231f20"/>
    <rect x="83" y="45" width="5" height="1" fill="#231f20"/>
    <rect x="95" y="45" width="4" height="1" fill="#231f20"/>
    <rect x="101" y="45" width="1" height="1" fill="#231f20"/>
    <rect x="112" y="45" width="1" height="1" fill="#231f20"/>
    <rect x="126" y="45" width="1" height="1" fill="#231f20"/>
    <rect x="164" y="45" width="1" height="1" fill="#231f20"/>
    <rect x="0" y="46" width="1" height="1" fill="#231f20"/>
    <rect x="38" y="46" width="1" height="1" fill="#231f20"/>
    <rect x="54" y="46" width="1" height="1" fill="#231f20"/>
    <rect x="63" y="46" width="1" height="1" fill="#231f20"/>
    <rect x="68" y="46" width="8" height="1" fill="#231f20"/>
    <rect x="82" y="46" width="5" height="1" fill="#231f20"/>
    <rect x="94" y="46" width="5" height="1" fill="#231f20"/>
    <rect x="101" y="46" width="1" height="1" fill="#231f20"/>
    <rect x="112" y="46" width="1" height="1" fill="#231f20"/>
    <rect x="126" y="46" width="1" height="1" fill="#231f20"/>
    <rect x="164" y="46" width="1" height="1" fill="#231f20"/>
    <rect x="0" y="47" width="1" height="1" fill="#231f20"/>
    <rect x="38" y="47" width="1" height="1" fill="#231f20"/>
    <rect x="54" y="47" width="1" height="1" fill="#231f20"/>
    <rect x="63" y="47" width="1" height="1" fill="#231f20"/>
    <rect x="68" y="47" width="7" height="1" fill="#231f20"/>
    <rect x="81" y="47" width="5" height="1" fill="#231f20"/>
    <rect x="93" y="47" width="6" height="1" fill="#231f20"/>
    <rect x="101" y="47" width="1" height="1" fill="#231f20"/>
    <rect x="112" y="47" width="1" height="1" fill="#231f20"/>
    <rect x="126" y="47" width="1" height="1" fill="#231f20"/>
    <rect x="164" y="47" width="1" height="1" fill="#231f20"/>
    <rect x="0" y="48" width="1" height="1" fill="#231f20"/>
    <rect x="38" y="48" width="1" height="1" fill="#231f20"/>
    <rect x="46" y="48" width="1" height="1" fill="#231f20"/>
    <rect x="54" y="48" width="1" height="1" fill="#231f20"/>
    <rect x="63" y="48" width="1" height="1" fill="#231f20"/>
    <rect x="68" y="48" width="6" height="1" fill="#231f20"/>
    <rect x="81" y="48" width="4" height="1" fill="#231f20"/>
    <rect x="92" y="48" width="7" height="1" fill="#231f20"/>
    <rect x="101" y="48" width="1" height="1" fill="#231f20"/>
    <rect x="109" y="48" width="7" height="1" fill="#231f20"/>
    <rect x="126" y="48" width="1" height="1" fill="#231f20"/>
    <rect x="164" y="48" width="1" height="1" fill="#231f20"/>
    <rect x="0" y="49" width="1" height="1" fill="#231f20"/>
    <rect x="38" y="49" width="1" height="1" fill="#231f20"/>
    <rect x="46" y="49" width="1" height="1" fill="#231f20"/>
    <rect x="54" y="49" width="1" height="1" fill="#231f20"/>
    <rect x="63" y="49" width="1" height="1" fill="#231f20"/>
    <rect x="68" y="49" width="5" height="1" fill="#231f20"/>
    <rect x="80" y="49" width="4" height="1" fill="#231f20"/>
    <rect x="91" y="49" width="8" height="1" fill="#231f20"/>
    <rect x="101" y="49" width="1" height="1" fill="#231f20"/>
    <rect x="126" y="49" width="1" height="1" fill="#231f20"/>
    <rect x="164" y="49" width="1" height="1" fill="#231f20"/>
    <rect x="0" y="50" width="1" height="1" fill="#231f20"/>
    <rect x="38" y="50" width="1" height="1" fill="#231f20"/>
    <rect x="46" y="50" width="1" height="1" fill="#231f20"/>
    <rect x="53" y="50" width="1" height="1" fill="#231f20"/>
    <rect x="63" y="50" width="1" height="1" fill="#231f20"/>
    <rect x="68" y="50" width="4" height="1" fill="#231f20"/>
    <rect x="79" y="50" width="5" height="1" fill="#231f20"/>
    <rect x="90" y="50" width="5" height="1" fill="#231f20"/>
    <rect x="96" y="50" width="3" height="1" fill="#231f20"/>
    <rect x="101" y="50" width="1" height="1" fill="#231f20"/>
    <rect x="126" y="50" width="1" height="1" fill="#231f20"/>
    <rect x="164" y="50" width="1" height="1" fill="#231f20"/>
    <rect x="0" y="51" width="1" height="1" fill="#231f20"/>
    <rect x="38" y="51" width="1" height="1" fill="#231f20"/>
    <rect x="47" y="51" width="6" height="1" fill="#231f20"/>
    <rect x="63" y="51" width="1" height="1" fill="#231f20"/>
    <rect x="68" y="51" width="31" height="1" fill="#231f20"/>
    <rect x="101" y="51" width="26" height="1" fill="#231f20"/>
    <rect x="164" y="51" width="1" height="1" fill="#231f20"/>
    <rect x="0" y="52" width="1" height="1" fill="#231f20"/>
    <rect x="38" y="52" width="26" height="1" fill="#231f20"/>
    <rect x="68" y="52" width="31" height="1" fill="#231f20"/>
    <rect x="164" y="52" width="1" height="1" fill="#231f20"/>
    <rect x="0" y="53" width="1" height="1" fill="#231f20"/>
    <rect x="68" y="53" width="31" height="1" fill="#231f20"/>
    <rect x="164" y="53" width="1" height="1" fill="#231f20"/>
    <rect x="0" y="54" width="1" height="1" fill="#231f20"/>
    <rect x="164" y="54" width="1" height="1" fill="#231f20"/>
    <rect x="0" y="55" width="1" height="1" fill="#231f20"/>
    <rect x="164" y="55" width="1" height="1" fill="#231f20"/>
    <rect x="0" y="56" width="1" height="1" fill="#231f20"/>
    <rect x="70" y="56" width="26" height="1" fill="#231f20"/>
    <rect x="164" y="56" width="1" height="1" fill="#231f20"/>
    <rect x="0" y="57" width="1" height="1" fill="#231f20"/>
    <rect x="70" y="57" width="1" height="1" fill="#231f20"/>
    <rect x="95" y="57" width="1" height="1" fill="#231f20"/>
    <rect x="164" y="57" width="1" height="1" fill="#231f20"/>
    <rect x="0" y="58" width="1" height="1" fill="#231f20"/>
    <rect x="70" y="58" width="1" height="1" fill="#231f20"/>
    <rect x="83" y="58" width="1" height="1" fill="#231f20"/>
    <rect x="95" y="58" width="1" height="1" fill="#231f20"/>
    <rect x="164" y="58" width="1" height="1" fill="#231f20"/>
    <rect x="0" y="59" width="1" height="1" fill="#231f20"/>
    <rect x="70" y="59" width="1" height="1" fill="#231f20"/>
    <rect x="82" y="59" width="2" height="1" fill="#231f20"/>
    <rect x="95" y="59" width="1" height="1" fill="#231f20"/>
    <rect x="164" y="59" width="1" height="1" fill="#231f20"/>
    <rect x="0" y="60" width="1" height="1" fill="#231f20"/>
    <rect x="70" y="60" width="1" height="1" fill="#231f20"/>
    <rect x="82" y="60" width="2" height="1" fill="#231f20"/>
    <rect x="95" y="60" width="1" height="1" fill="#231f20"/>
    <rect x="164" y="60" width="1" height="1" fill="#231f20"/>
    <rect x="0" y="61" width="1" height="1" fill="#231f20"/>
    <rect x="70" y="61" width="1" height="1" fill="#231f20"/>
    <rect x="81" y="61" width="1" height="1" fill="#231f20"/>
    <rect x="83" y="61" width="1" height="1" fill="#231f20"/>
    <rect x="95" y="61" width="1" height="1" fill="#231f20"/>
    <rect x="164" y="61" width="1" height="1" fill="#231f20"/>
    <rect x="0" y="62" width="1" height="1" fill="#231f20"/>
    <rect x="70" y="62" width="1" height="1" fill="#231f20"/>
    <rect x="80" y="62" width="1" height="1" fill="#231f20"/>
    <rect x="83" y="62" width="1" height="1" fill="#231f20"/>
    <rect x="95" y="62" width="1" height="1" fill="#231f20"/>
    <rect x="164" y="62" width="1" height="1" fill="#231f20"/>
    <rect x="0" y="63" width="1" height="1" fill="#231f20"/>
    <rect x="70" y="63" width="1" height="1" fill="#231f20"/>
    <rect x="80" y="63" width="1" height="1" fill="#231f20"/>
    <rect x="83" y="63" width="1" height="1" fill="#231f20"/>
    <rect x="95" y="63" width="1" height="1" fill="#231f20"/>
    <rect x="164" y="63" width="1" height="1" fill="#231f20"/>
    <rect x="0" y="64" width="1" height="1" fill="#231f20"/>
    <rect x="70" y="64" width="1" height="1" fill="#231f20"/>
    <rect x="79" y="64" width="1" height="1" fill="#231f20"/>
    <rect x="83" y="64" width="1" height="1" fill="#231f20"/>
    <rect x="95" y="64" width="1" height="1" fill="#231f20"/>
    <rect x="164" y="64" width="1" height="1" fill="#231f20"/>
    <rect x="0" y="65" width="1" height="1" fill="#231f20"/>
    <rect x="70" y="65" width="1" height="1" fill="#231f20"/>
    <rect x="78" y="65" width="1" height="1" fill="#231f20"/>
    <rect x="83" y="65" width="1" height="1" fill="#231f20"/>
    <rect x="95" y="65" width="1" height="1" fill="#231f20"/>
    <rect x="164" y="65" width="1" height="1" fill="#231f20"/>
    <rect x="0" y="66" width="1" height="1" fill="#231f20"/>
    <rect x="70" y="66" width="1" height="1" fill="#231f20"/>
    <rect x="78" y="66" width="1" height="1" fill="#231f20"/>
    <rect x="83" y="66" width="1" height="1" fill="#231f20"/>
    <rect x="95" y="66" width="1" height="1" fill="#231f20"/>
    <rect x="164" y="66" width="1" height="1" fill="#231f20"/>
    <rect x="0" y="67" width="1" height="1" fill="#231f20"/>
    <rect x="70" y="67" width="1" height="1" fill="#231f20"/>
    <rect x="77" y="67" width="1" height="1" fill="#231f20"/>
    <rect x="83" y="67" width="1" height="1" fill="#231f20"/>
    <rect x="95" y="67" width="1" height="1" fill="#231f20"/>
    <rect x="164" y="67" width="1" height="1" fill="#231f20"/>
    <rect x="0" y="68" width="1" height="1" fill="#231f20"/>
    <rect x="70" y="68" width="1" height="1" fill="#231f20"/>
    <rect x="77" y="68" width="10" height="1" fill="#231f20"/>
    <rect x="95" y="68" width="1" height="1" fill="#231f20"/>
    <rect x="164" y="68" width="1" height="1" fill="#231f20"/>
    <rect x="0" y="69" width="1" height="1" fill="#231f20"/>
    <rect x="70" y="69" width="1" height="1" fill="#231f20"/>
    <rect x="83" y="69" width="1" height="1" fill="#231f20"/>
    <rect x="95" y="69" width="1" height="1" fill="#231f20"/>
    <rect x="164" y="69" width="1" height="1" fill="#231f20"/>
    <rect x="0" y="70" width="1" height="1" fill="#231f20"/>
    <rect x="70" y="70" width="1" height="1" fill="#231f20"/>
    <rect x="83" y="70" width="1" height="1" fill="#231f20"/>
    <rect x="95" y="70" width="1" height="1" fill="#231f20"/>
    <rect x="164" y="70" width="1" height="1" fill="#231f20"/>
    <rect x="0" y="71" width="1" height="1" fill="#231f20"/>
    <rect x="70" y="71" width="1" height="1" fill="#231f20"/>
    <rect x="83" y="71" width="1" height="1" fill="#231f20"/>
    <rect x="95" y="71" width="1" height="1" fill="#231f20"/>
    <rect x="164" y="71" width="1" height="1" fill="#231f20"/>
    <rect x="0" y="72" width="1" height="1" fill="#231f20"/>
    <rect x="70" y="72" width="1" height="1" fill="#231f20"/>
    <rect x="83" y="72" width="1" height="1" fill="#231f20"/>
    <rect x="95" y="72" width="1" height="1" fill="#231f20"/>
    <rect x="164" y="72" width="1" height="1" fill="#231f20"/>
    <rect x="0" y="73" width="1" height="1" fill="#231f20"/>
    <rect x="70" y="73" width="1" height="1" fill="#231f20"/>
    <rect x="80" y="73" width="6" height="1" fill="#231f20"/>
    <rect x="95" y="73" width="1" height="1" fill="#231f20"/>
    <rect x="164" y="73" width="1" height="1" fill="#231f20"/>
    <rect x="0" y="74" width="1" height="1" fill="#231f20"/>
    <rect x="70" y="74" width="1" height="1" fill="#231f20"/>
    <rect x="95" y="74" width="1" height="1" fill="#231f20"/>
    <rect x="164" y="74" width="1" height="1" fill="#231f20"/>
    <rect x="0" y="75" width="1" height="1" fill="#231f20"/>
    <rect x="70" y="75" width="26" height="1" fill="#231f20"/>
    <rect x="164" y="75" width="1" height="1" fill="#231f20"/>
    <rect x="0" y="76" width="1" height="1" fill="#231f20"/>
    <rect x="164" y="76" width="1" height="1" fill="#231f20"/>
    <rect x="0" y="77" width="1" height="1" fill="#231f20"/>
    <rect x="164" y="77" width="1" height="1" fill="#231f20"/>
    <rect x="0" y="78" width="1" height="1" fill="#231f20"/>
    <rect x="164" y="78" width="1" height="1" fill="#231f20"/>
    <rect x="0" y="79" width="1" height="1" fill="#231f20"/>
    <rect x="164" y="79" width="1" height="1" fill="#231f20"/>
    <rect x="0" y="80" width="1" height="1" fill="#231f20"/>
    <rect x="164" y="80" width="1" height="1" fill="#231f20"/>
    <rect x="0" y="81" width="1" height="1" fill="#231f20"/>
    <rect x="164" y="81" width="1" height="1" fill="#231f20"/>
    <rect x="0" y="82" width="165" height="1" fill="#231f20"/>
  </g>
</svg>