<?xml version="1.0" encoding="UTF-8"?>
<svg xmlns="http://www.w3.org/2000/svg" viewBox="0 0 172 83" width="172" height="83">
  <!-- Auto-converted from legend-1295.png -->
  <rect x="0" y="0" width="172" height="83" fill="none"/>
  <g fill="#231f20" stroke="none">
    <rect x="0" y="0" width="172" height="1" fill="#231f20"/>
    <rect x="0" y="1" width="1" height="1" fill="#231f20"/>
    <rect x="171" y="1" width="1" height="1" fill="#231f20"/>
    <rect x="0" y="2" width="1" height="1" fill="#231f20"/>
    <rect x="171" y="2" width="1" height="1" fill="#231f20"/>
    <rect x="0" y="3" width="1" height="1" fill="#231f20"/>
    <rect x="171" y="3" width="1" height="1" fill="#231f20"/>
    <rect x="0" y="4" width="1" height="1" fill="#231f20"/>
    <rect x="171" y="4" width="1" height="1" fill="#231f20"/>
    <rect x="0" y="5" width="1" height="1" fill="#231f20"/>
    <rect x="171" y="5" width="1" height="1" fill="#231f20"/>
    <rect x="0" y="6" width="1" height="1" fill="#231f20"/>
    <rect x="171" y="6" width="1" height="1" fill="#231f20"/>
    <rect x="0" y="7" width="1" height="1" fill="#231f20"/>
    <rect x="12" y="7" width="1" height="1" fill="#231f20"/>
    <rect x="16" y="7" width="1" height="1" fill="#231f20"/>
    <rect x="171" y="7" width="1" height="1" fill="#231f20"/>
    <rect x="0" y="8" width="1" height="1" fill="#231f20"/>
    <rect x="12" y="8" width="1" height="1" fill="#231f20"/>
    <rect x="16" y="8" width="1" height="1" fill="#231f20"/>
    <rect x="171" y="8" width="1" height="1" fill="#231f20"/>
    <rect x="0" y="9" width="1" height="1" fill="#231f20"/>
    <rect x="11" y="9" width="1" height="1" fill="#231f20"/>
    <rect x="17" y="9" width="1" height="1" fill="#231f20"/>
    <rect x="171" y="9" width="1" height="1" fill="#231f20"/>
    <rect x="0" y="10" width="1" height="1" fill="#231f20"/>
    <rect x="11" y="10" width="1" height="1" fill="#231f20"/>
    <rect x="17" y="10" width="1" height="1" fill="#231f20"/>
    <rect x="150" y="10" width="3" height="1" fill="#231f20"/>
    <rect x="171" y="10" width="1" height="1" fill="#231f20"/>
    <rect x="0" y="11" width="1" height="1" fill="#231f20"/>
    <rect x="10" y="11" width="1" height="1" fill="#231f20"/>
    <rect x="18" y="11" width="1" height="1" fill="#231f20"/>
    <rect x="149" y="11" width="1" height="1" fill="#231f20"/>
    <rect x="153" y="11" width="1" height="1" fill="#231f20"/>
    <rect x="171" y="11" width="1" height="1" fill="#231f20"/>
    <rect x="0" y="12" width="1" height="1" fill="#231f20"/>
    <rect x="10" y="12" width="1" height="1" fill="#231f20"/>
    <rect x="18" y="12" width="1" height="1" fill="#231f20"/>
    <rect x="149" y="12" width="1" height="1" fill="#231f20"/>
    <rect x="154" y="12" width="1" height="1" fill="#231f20"/>
    <rect x="171" y="12" width="1" height="1" fill="#231f20"/>
    <rect x="0" y="13" width="1" height="1" fill="#231f20"/>
    <rect x="10" y="13" width="1" height="1" fill="#231f20"/>
    <rect x="18" y="13" width="1" height="1" fill="#231f20"/>
    <rect x="41" y="13" width="2" height="1" fill="#231f20"/>
    <rect x="68" y="13" width="3" height="1" fill="#231f20"/>
    <rect x="96" y="13" width="2" height="1" fill="#231f20"/>
    <rect x="123" y="13" width="3" height="1" fill="#231f20"/>
    <rect x="148" y="13" width="1" height="1" fill="#231f20"/>
    <rect x="155" y="13" width="1" height="1" fill="#231f20"/>
    <rect x="171" y="13" width="1" height="1" fill="#231f20"/>
    <rect x="0" y="14" width="1" height="1" fill="#231f20"/>
    <rect x="9" y="14" width="1" height="1" fill="#231f20"/>
    <rect x="19" y="14" width="1" height="1" fill="#231f20"/>
    <rect x="41" y="14" width="3" height="1" fill="#231f20"/>
    <rect x="68" y="14" width="3" height="1" fill="#231f20"/>
    <rect x="95" y="14" width="3" height="1" fill="#231f20"/>
    <rect x="123" y="14" width="3" height="1" fill="#231f20"/>
    <rect x="148" y="14" width="1" height="1" fill="#231f20"/>
    <rect x="155" y="14" width="1" height="1" fill="#231f20"/>
    <rect x="171" y="14" width="1" height="1" fill="#231f20"/>
    <rect x="0" y="15" width="1" height="1" fill="#231f20"/>
    <rect x="9" y="15" width="1" height="1" fill="#231f20"/>
    <rect x="19" y="15" width="1" height="1" fill="#231f20"/>
    <rect x="42" y="15" width="1" height="1" fill="#231f20"/>
    <rect x="69" y="15" width="1" height="1" fill="#231f20"/>
    <rect x="96" y="15" width="1" height="1" fill="#231f20"/>
    <rect x="124" y="15" width="1" height="1" fill="#231f20"/>
    <rect x="148" y="15" width="1" height="1" fill="#231f20"/>
    <rect x="155" y="15" width="1" height="1" fill="#231f20"/>
    <rect x="171" y="15" width="1" height="1" fill="#231f20"/>
    <rect x="0" y="16" width="1" height="1" fill="#231f20"/>
    <rect x="9" y="16" width="1" height="1" fill="#231f20"/>
    <rect x="19" y="16" width="1" height="1" fill="#231f20"/>
    <rect x="149" y="16" width="1" height="1" fill="#231f20"/>
    <rect x="153" y="16" width="2" height="1" fill="#231f20"/>
    <rect x="171" y="16" width="1" height="1" fill="#231f20"/>
    <rect x="0" y="17" width="1" height="1" fill="#231f20"/>
    <rect x="8" y="17" width="1" height="1" fill="#231f20"/>
    <rect x="20" y="17" width="1" height="1" fill="#231f20"/>
    <rect x="150" y="17" width="3" height="1" fill="#231f20"/>
    <rect x="171" y="17" width="1" height="1" fill="#231f20"/>
    <rect x="0" y="18" width="1" height="1" fill="#231f20"/>
    <rect x="8" y="18" width="1" height="1" fill="#231f20"/>
    <rect x="20" y="18" width="1" height="1" fill="#231f20"/>
    <rect x="171" y="18" width="1" height="1" fill="#231f20"/>
    <rect x="0" y="19" width="1" height="1" fill="#231f20"/>
    <rect x="7" y="19" width="1" height="1" fill="#231f20"/>
    <rect x="21" y="19" width="1" height="1" fill="#231f20"/>
    <rect x="171" y="19" width="1" height="1" fill="#231f20"/>
    <rect x="0" y="20" width="1" height="1" fill="#231f20"/>
    <rect x="7" y="20" width="1" height="1" fill="#231f20"/>
    <rect x="21" y="20" width="1" height="1" fill="#231f20"/>
    <rect x="171" y="20" width="1" height="1" fill="#231f20"/>
    <rect x="0" y="21" width="1" height="1" fill="#231f20"/>
    <rect x="171" y="21" width="1" height="1" fill="#231f20"/>
    <rect x="0" y="22" width="1" height="1" fill="#231f20"/>
    <rect x="171" y="22" width="1" height="1" fill="#231f20"/>
    <rect x="0" y="23" width="1" height="1" fill="#231f20"/>
    <rect x="171" y="23" width="1" height="1" fill="#231f20"/>
    <rect x="0" y="24" width="1" height="1" fill="#231f20"/>
    <rect x="171" y="24" width="1" height="1" fill="#231f20"/>
    <rect x="0" y="25" width="1" height="1" fill="#231f20"/>
    <rect x="171" y="25" width="1" height="1" fill="#231f20"/>
    <rect x="0" y="26" width="1" height="1" fill="#231f20"/>
    <rect x="171" y="26" width="1" height="1" fill="#231f20"/>
    <rect x="0" y="27" width="172" height="1" fill="#231f20"/>
    <rect x="0" y="28" width="1" height="1" fill="#231f20"/>
    <rect x="171" y="28" width="1" height="1" fill="#231f20"/>
    <rect x="0" y="29" width="1" height="1" fill="#231f20"/>
    <rect x="171" y="29" width="1" height="1" fill="#231f20"/>
    <rect x="0" y="30" width="1" height="1" fill="#231f20"/>
    <rect x="171" y="30" width="1" height="1" fill="#231f20"/>
    <rect x="0" y="31" width="1" height="1" fill="#231f20"/>
    <rect x="171" y="31" width="1" height="1" fill="#231f20"/>
    <rect x="0" y="32" width="1" height="1" fill="#231f20"/>
    <rect x="171" y="32" width="1" height="1" fill="#231f20"/>
    <rect x="0" y="33" width="1" height="1" fill="#231f20"/>
    <rect x="171" y="33" width="1" height="1" fill="#231f20"/>
    <rect x="0" y="34" width="1" height="1" fill="#231f20"/>
    <rect x="155" y="34" width="1" height="1" fill="#231f20"/>
    <rect x="159" y="34" width="1" height="1" fill="#231f20"/>
    <rect x="171" y="34" width="1" height="1" fill="#231f20"/>
    <rect x="0" y="35" width="1" height="1" fill="#231f20"/>
    <rect x="155" y="35" width="1" height="1" fill="#231f20"/>
    <rect x="159" y="35" width="1" height="1" fill="#231f20"/>
    <rect x="171" y="35" width="1" height="1" fill="#231f20"/>
    <rect x="0" y="36" width="1" height="1" fill="#231f20"/>
    <rect x="154" y="36" width="1" height="1" fill="#231f20"/>
    <rect x="160" y="36" width="1" height="1" fill="#231f20"/>
    <rect x="171" y="36" width="1" height="1" fill="#231f20"/>
    <rect x="0" y="37" width="1" height="1" fill="#231f20"/>
    <rect x="154" y="37" width="1" height="1" fill="#231f20"/>
    <rect x="160" y="37" width="1" height="1" fill="#231f20"/>
    <rect x="171" y="37" width="1" height="1" fill="#231f20"/>
    <rect x="0" y="38" width="1" height="1" fill="#231f20"/>
    <rect x="18" y="38" width="5" height="1" fill="#231f20"/>
    <rect x="154" y="38" width="1" height="1" fill="#231f20"/>
    <rect x="160" y="38" width="1" height="1" fill="#231f20"/>
    <rect x="171" y="38" width="1" height="1" fill="#231f20"/>
    <rect x="0" y="39" width="1" height="1" fill="#231f20"/>
    <rect x="17" y="39" width="1" height="1" fill="#231f20"/>
    <rect x="22" y="39" width="1" height="1" fill="#231f20"/>
    <rect x="153" y="39" width="1" height="1" fill="#231f20"/>
    <rect x="161" y="39" width="1" height="1" fill="#231f20"/>
    <rect x="171" y="39" width="1" height="1" fill="#231f20"/>
    <rect x="0" y="40" width="1" height="1" fill="#231f20"/>
    <rect x="16" y="40" width="1" height="1" fill="#231f20"/>
    <rect x="23" y="40" width="1" height="1" fill="#231f20"/>
    <rect x="46" y="40" width="3" height="1" fill="#231f20"/>
    <rect x="74" y="40" width="2" height="1" fill="#231f20"/>
    <rect x="101" y="40" width="3" height="1" fill="#231f20"/>
    <rect x="129" y="40" width="2" height="1" fill="#231f20"/>
    <rect x="153" y="40" width="1" height="1" fill="#231f20"/>
    <rect x="161" y="40" width="1" height="1" fill="#231f20"/>
    <rect x="171" y="40" width="1" height="1" fill="#231f20"/>
    <rect x="0" y="41" width="1" height="1" fill="#231f20"/>
    <rect x="16" y="41" width="1" height="1" fill="#231f20"/>
    <rect x="23" y="41" width="1" height="1" fill="#231f20"/>
    <rect x="46" y="41" width="3" height="1" fill="#231f20"/>
    <rect x="74" y="41" width="3" height="1" fill="#231f20"/>
    <rect x="101" y="41" width="3" height="1" fill="#231f20"/>
    <rect x="128" y="41" width="3" height="1" fill="#231f20"/>
    <rect x="152" y="41" width="1" height="1" fill="#231f20"/>
    <rect x="161" y="41" width="1" height="1" fill="#231f20"/>
    <rect x="171" y="41" width="1" height="1" fill="#231f20"/>
    <rect x="0" y="42" width="1" height="1" fill="#231f20"/>
    <rect x="16" y="42" width="1" height="1" fill="#231f20"/>
    <rect x="23" y="42" width="1" height="1" fill="#231f20"/>
    <rect x="46" y="42" width="3" height="1" fill="#231f20"/>
    <rect x="74" y="42" width="2" height="1" fill="#231f20"/>
    <rect x="101" y="42" width="3" height="1" fill="#231f20"/>
    <rect x="129" y="42" width="2" height="1" fill="#231f20"/>
    <rect x="152" y="42" width="1" height="1" fill="#231f20"/>
    <rect x="162" y="42" width="1" height="1" fill="#231f20"/>
    <rect x="171" y="42" width="1" height="1" fill="#231f20"/>
    <rect x="0" y="43" width="1" height="1" fill="#231f20"/>
    <rect x="17" y="43" width="1" height="1" fill="#231f20"/>
    <rect x="22" y="43" width="1" height="1" fill="#231f20"/>
    <rect x="152" y="43" width="1" height="1" fill="#231f20"/>
    <rect x="162" y="43" width="1" height="1" fill="#231f20"/>
    <rect x="171" y="43" width="1" height="1" fill="#231f20"/>
    <rect x="0" y="44" width="1" height="1" fill="#231f20"/>
    <rect x="18" y="44" width="5" height="1" fill="#231f20"/>
    <rect x="151" y="44" width="1" height="1" fill="#231f20"/>
    <rect x="163" y="44" width="1" height="1" fill="#231f20"/>
    <rect x="171" y="44" width="1" height="1" fill="#231f20"/>
    <rect x="0" y="45" width="1" height="1" fill="#231f20"/>
    <rect x="151" y="45" width="1" height="1" fill="#231f20"/>
    <rect x="163" y="45" width="1" height="1" fill="#231f20"/>
    <rect x="171" y="45" width="1" height="1" fill="#231f20"/>
    <rect x="0" y="46" width="1" height="1" fill="#231f20"/>
    <rect x="151" y="46" width="1" height="1" fill="#231f20"/>
    <rect x="163" y="46" width="1" height="1" fill="#231f20"/>
    <rect x="171" y="46" width="1" height="1" fill="#231f20"/>
    <rect x="0" y="47" width="1" height="1" fill="#231f20"/>
    <rect x="150" y="47" width="1" height="1" fill="#231f20"/>
    <rect x="164" y="47" width="1" height="1" fill="#231f20"/>
    <rect x="171" y="47" width="1" height="1" fill="#231f20"/>
    <rect x="0" y="48" width="1" height="1" fill="#231f20"/>
    <rect x="150" y="48" width="1" height="1" fill="#231f20"/>
    <rect x="164" y="48" width="1" height="1" fill="#231f20"/>
    <rect x="171" y="48" width="1" height="1" fill="#231f20"/>
    <rect x="0" y="49" width="1" height="1" fill="#231f20"/>
    <rect x="171" y="49" width="1" height="1" fill="#231f20"/>
    <rect x="0" y="50" width="1" height="1" fill="#231f20"/>
    <rect x="171" y="50" width="1" height="1" fill="#231f20"/>
    <rect x="0" y="51" width="1" height="1" fill="#231f20"/>
    <rect x="171" y="51" width="1" height="1" fill="#231f20"/>
    <rect x="0" y="52" width="1" height="1" fill="#231f20"/>
    <rect x="171" y="52" width="1" height="1" fill="#231f20"/>
    <rect x="0" y="53" width="1" height="1" fill="#231f20"/>
    <rect x="171" y="53" width="1" height="1" fill="#231f20"/>
    <rect x="0" y="54" width="1" height="1" fill="#231f20"/>
    <rect x="171" y="54" width="1" height="1" fill="#231f20"/>
    <rect x="0" y="55" width="172" height="1" fill="#231f20"/>
    <rect x="0" y="56" width="1" height="1" fill="#231f20"/>
    <rect x="171" y="56" width="1" height="1" fill="#231f20"/>
    <rect x="0" y="57" width="1" height="1" fill="#231f20"/>
    <rect x="171" y="57" width="1" height="1" fill="#231f20"/>
    <rect x="0" y="58" width="1" height="1" fill="#231f20"/>
    <rect x="171" y="58" width="1" height="1" fill="#231f20"/>
    <rect x="0" y="59" width="1" height="1" fill="#231f20"/>
    <rect x="171" y="59" width="1" height="1" fill="#231f20"/>
    <rect x="0" y="60" width="1" height="1" fill="#231f20"/>
    <rect x="171" y="60" width="1" height="1" fill="#231f20"/>
    <rect x="0" y="61" width="1" height="1" fill="#231f20"/>
    <rect x="171" y="61" width="1" height="1" fill="#231f20"/>
    <rect x="0" y="62" width="1" height="1" fill="#231f20"/>
    <rect x="12" y="62" width="1" height="1" fill="#231f20"/>
    <rect x="16" y="62" width="1" height="1" fill="#231f20"/>
    <rect x="171" y="62" width="1" height="1" fill="#231f20"/>
    <rect x="0" y="63" width="1" height="1" fill="#231f20"/>
    <rect x="12" y="63" width="1" height="1" fill="#231f20"/>
    <rect x="16" y="63" width="1" height="1" fill="#231f20"/>
    <rect x="171" y="63" width="1" height="1" fill="#231f20"/>
    <rect x="0" y="64" width="1" height="1" fill="#231f20"/>
    <rect x="11" y="64" width="1" height="1" fill="#231f20"/>
    <rect x="17" y="64" width="1" height="1" fill="#231f20"/>
    <rect x="171" y="64" width="1" height="1" fill="#231f20"/>
    <rect x="0" y="65" width="1" height="1" fill="#231f20"/>
    <rect x="11" y="65" width="1" height="1" fill="#231f20"/>
    <rect x="17" y="65" width="1" height="1" fill="#231f20"/>
    <rect x="150" y="65" width="3" height="1" fill="#231f20"/>
    <rect x="171" y="65" width="1" height="1" fill="#231f20"/>
    <rect x="0" y="66" width="1" height="1" fill="#231f20"/>
    <rect x="10" y="66" width="1" height="1" fill="#231f20"/>
    <rect x="18" y="66" width="1" height="1" fill="#231f20"/>
    <rect x="149" y="66" width="1" height="1" fill="#231f20"/>
    <rect x="153" y="66" width="1" height="1" fill="#231f20"/>
    <rect x="171" y="66" width="1" height="1" fill="#231f20"/>
    <rect x="0" y="67" width="1" height="1" fill="#231f20"/>
    <rect x="10" y="67" width="1" height="1" fill="#231f20"/>
    <rect x="18" y="67" width="1" height="1" fill="#231f20"/>
    <rect x="149" y="67" width="1" height="1" fill="#231f20"/>
    <rect x="154" y="67" width="1" height="1" fill="#231f20"/>
    <rect x="171" y="67" width="1" height="1" fill="#231f20"/>
    <rect x="0" y="68" width="1" height="1" fill="#231f20"/>
    <rect x="10" y="68" width="1" height="1" fill="#231f20"/>
    <rect x="18" y="68" width="1" height="1" fill="#231f20"/>
    <rect x="41" y="68" width="2" height="1" fill="#231f20"/>
    <rect x="68" y="68" width="3" height="1" fill="#231f20"/>
    <rect x="96" y="68" width="2" height="1" fill="#231f20"/>
    <rect x="123" y="68" width="3" height="1" fill="#231f20"/>
    <rect x="148" y="68" width="1" height="1" fill="#231f20"/>
    <rect x="155" y="68" width="1" height="1" fill="#231f20"/>
    <rect x="171" y="68" width="1" height="1" fill="#231f20"/>
    <rect x="0" y="69" width="1" height="1" fill="#231f20"/>
    <rect x="9" y="69" width="1" height="1" fill="#231f20"/>
    <rect x="19" y="69" width="1" height="1" fill="#231f20"/>
    <rect x="41" y="69" width="3" height="1" fill="#231f20"/>
    <rect x="68" y="69" width="3" height="1" fill="#231f20"/>
    <rect x="95" y="69" width="3" height="1" fill="#231f20"/>
    <rect x="123" y="69" width="3" height="1" fill="#231f20"/>
    <rect x="148" y="69" width="1" height="1" fill="#231f20"/>
    <rect x="155" y="69" width="1" height="1" fill="#231f20"/>
    <rect x="171" y="69" width="1" height="1" fill="#231f20"/>
    <rect x="0" y="70" width="1" height="1" fill="#231f20"/>
    <rect x="9" y="70" width="1" height="1" fill="#231f20"/>
    <rect x="19" y="70" width="1" height="1" fill="#231f20"/>
    <rect x="42" y="70" width="1" height="1" fill="#231f20"/>
    <rect x="69" y="70" width="1" height="1" fill="#231f20"/>
    <rect x="96" y="70" width="1" height="1" fill="#231f20"/>
    <rect x="124" y="70" width="1" height="1" fill="#231f20"/>
    <rect x="148" y="70" width="1" height="1" fill="#231f20"/>
    <rect x="155" y="70" width="1" height="1" fill="#231f20"/>
    <rect x="171" y="70" width="1" height="1" fill="#231f20"/>
    <rect x="0" y="71" width="1" height="1" fill="#231f20"/>
    <rect x="9" y="71" width="1" height="1" fill="#231f20"/>
    <rect x="19" y="71" width="1" height="1" fill="#231f20"/>
    <rect x="149" y="71" width="1" height="1" fill="#231f20"/>
    <rect x="153" y="71" width="2" height="1" fill="#231f20"/>
    <rect x="171" y="71" width="1" height="1" fill="#231f20"/>
    <rect x="0" y="72" width="1" height="1" fill="#231f20"/>
    <rect x="8" y="72" width="1" height="1" fill="#231f20"/>
    <rect x="20" y="72" width="1" height="1" fill="#231f20"/>
    <rect x="150" y="72" width="3" height="1" fill="#231f20"/>
    <rect x="171" y="72" width="1" height="1" fill="#231f20"/>
    <rect x="0" y="73" width="1" height="1" fill="#231f20"/>
    <rect x="8" y="73" width="1" height="1" fill="#231f20"/>
    <rect x="20" y="73" width="1" height="1" fill="#231f20"/>
    <rect x="171" y="73" width="1" height="1" fill="#231f20"/>
    <rect x="0" y="74" width="1" height="1" fill="#231f20"/>
    <rect x="7" y="74" width="1" height="1" fill="#231f20"/>
    <rect x="21" y="74" width="1" height="1" fill="#231f20"/>
    <rect x="171" y="74" width="1" height="1" fill="#231f20"/>
    <rect x="0" y="75" width="1" height="1" fill="#231f20"/>
    <rect x="7" y="75" width="1" height="1" fill="#231f20"/>
    <rect x="21" y="75" width="1" height="1" fill="#231f20"/>
    <rect x="171" y="75" width="1" height="1" fill="#231f20"/>
    <rect x="0" y="76" width="1" height="1" fill="#231f20"/>
    <rect x="171" y="76" width="1" height="1" fill="#231f20"/>
    <rect x="0" y="77" width="1" height="1" fill="#231f20"/>
    <rect x="171" y="77" width="1" height="1" fill="#231f20"/>
    <rect x="0" y="78" width="1" height="1" fill="#231f20"/>
    <rect x="171" y="78" width="1" height="1" fill="#231f20"/>
    <rect x="0" y="79" width="1" height="1" fill="#231f20"/>
    <rect x="171" y="79" width="1" height="1" fill="#231f20"/>
    <rect x="0" y="80" width="1" height="1" fill="#231f20"/>
    <rect x="171" y="80" width="1" height="1" fill="#231f20"/>
    <rect x="0" y="81" width="1" height="1" fill="#231f20"/>
    <rect x="171" y="81" width="1" height="1" fill="#231f20"/>
    <rect x="0" y="82" width="172" height="1" fill="#231f20"/>
  </g>
</svg>