<?xml version="1.0" encoding="UTF-8"?>
<svg xmlns="http://www.w3.org/2000/svg" viewBox="0 0 165 66" width="165" height="66">
  <!-- Auto-converted from legend-2198.png -->
  <rect x="0" y="0" width="165" height="66" fill="none"/>
  <g fill="#000000" stroke="none">
    <rect x="0" y="0" width="165" height="1" fill="#000000"/>
    <rect x="0" y="1" width="1" height="1" fill="#000000"/>
    <rect x="164" y="1" width="1" height="1" fill="#000000"/>
    <rect x="0" y="2" width="1" height="1" fill="#000000"/>
    <rect x="164" y="2" width="1" height="1" fill="#000000"/>
    <rect x="0" y="3" width="1" height="1" fill="#000000"/>
    <rect x="164" y="3" width="1" height="1" fill="#000000"/>
    <rect x="0" y="4" width="1" height="1" fill="#000000"/>
    <rect x="164" y="4" width="1" height="1" fill="#000000"/>
    <rect x="0" y="5" width="1" height="1" fill="#000000"/>
    <rect x="164" y="5" width="1" height="1" fill="#000000"/>
    <rect x="0" y="6" width="1" height="1" fill="#000000"/>
    <rect x="164" y="6" width="1" height="1" fill="#000000"/>
    <rect x="0" y="7" width="1" height="1" fill="#000000"/>
    <rect x="164" y="7" width="1" height="1" fill="#000000"/>
    <rect x="0" y="8" width="1" height="1" fill="#000000"/>
    <rect x="164" y="8" width="1" height="1" fill="#000000"/>
    <rect x="0" y="9" width="1" height="1" fill="#000000"/>
    <rect x="164" y="9" width="1" height="1" fill="#000000"/>
    <rect x="0" y="10" width="1" height="1" fill="#000000"/>
    <rect x="164" y="10" width="1" height="1" fill="#000000"/>
    <rect x="0" y="11" width="1" height="1" fill="#000000"/>
    <rect x="33" y="11" width="1" height="1" fill="#000000"/>
    <rect x="66" y="11" width="1" height="1" fill="#000000"/>
    <rect x="101" y="11" width="1" height="1" fill="#000000"/>
    <rect x="134" y="11" width="1" height="1" fill="#000000"/>
    <rect x="164" y="11" width="1" height="1" fill="#000000"/>
    <rect x="0" y="12" width="1" height="1" fill="#000000"/>
    <rect x="32" y="12" width="1" height="1" fill="#000000"/>
    <rect x="67" y="12" width="1" height="1" fill="#000000"/>
    <rect x="100" y="12" width="1" height="1" fill="#000000"/>
    <rect x="135" y="12" width="1" height="1" fill="#000000"/>
    <rect x="164" y="12" width="1" height="1" fill="#000000"/>
    <rect x="0" y="13" width="1" height="1" fill="#000000"/>
    <rect x="25" y="13" width="1" height="1" fill="#000000"/>
    <rect x="31" y="13" width="1" height="1" fill="#000000"/>
    <rect x="68" y="13" width="1" height="1" fill="#000000"/>
    <rect x="74" y="13" width="1" height="1" fill="#000000"/>
    <rect x="93" y="13" width="1" height="1" fill="#000000"/>
    <rect x="99" y="13" width="1" height="1" fill="#000000"/>
    <rect x="136" y="13" width="1" height="1" fill="#000000"/>
    <rect x="142" y="13" width="1" height="1" fill="#000000"/>
    <rect x="164" y="13" width="1" height="1" fill="#000000"/>
    <rect x="0" y="14" width="1" height="1" fill="#000000"/>
    <rect x="26" y="14" width="2" height="1" fill="#000000"/>
    <rect x="31" y="14" width="1" height="1" fill="#000000"/>
    <rect x="68" y="14" width="1" height="1" fill="#000000"/>
    <rect x="73" y="14" width="1" height="1" fill="#000000"/>
    <rect x="94" y="14" width="2" height="1" fill="#000000"/>
    <rect x="99" y="14" width="1" height="1" fill="#000000"/>
    <rect x="136" y="14" width="1" height="1" fill="#000000"/>
    <rect x="141" y="14" width="1" height="1" fill="#000000"/>
    <rect x="164" y="14" width="1" height="1" fill="#000000"/>
    <rect x="0" y="15" width="1" height="1" fill="#000000"/>
    <rect x="28" y="15" width="1" height="1" fill="#000000"/>
    <rect x="30" y="15" width="1" height="1" fill="#000000"/>
    <rect x="69" y="15" width="1" height="1" fill="#000000"/>
    <rect x="71" y="15" width="2" height="1" fill="#000000"/>
    <rect x="96" y="15" width="1" height="1" fill="#000000"/>
    <rect x="98" y="15" width="1" height="1" fill="#000000"/>
    <rect x="137" y="15" width="1" height="1" fill="#000000"/>
    <rect x="139" y="15" width="2" height="1" fill="#000000"/>
    <rect x="164" y="15" width="1" height="1" fill="#000000"/>
    <rect x="0" y="16" width="1" height="1" fill="#000000"/>
    <rect x="29" y="16" width="1" height="1" fill="#000000"/>
    <rect x="70" y="16" width="1" height="1" fill="#000000"/>
    <rect x="97" y="16" width="1" height="1" fill="#000000"/>
    <rect x="138" y="16" width="1" height="1" fill="#000000"/>
    <rect x="164" y="16" width="1" height="1" fill="#000000"/>
    <rect x="0" y="17" width="1" height="1" fill="#000000"/>
    <rect x="28" y="17" width="1" height="1" fill="#000000"/>
    <rect x="71" y="17" width="1" height="1" fill="#000000"/>
    <rect x="96" y="17" width="1" height="1" fill="#000000"/>
    <rect x="139" y="17" width="1" height="1" fill="#000000"/>
    <rect x="164" y="17" width="1" height="1" fill="#000000"/>
    <rect x="0" y="18" width="1" height="1" fill="#000000"/>
    <rect x="27" y="18" width="1" height="1" fill="#000000"/>
    <rect x="72" y="18" width="1" height="1" fill="#000000"/>
    <rect x="95" y="18" width="1" height="1" fill="#000000"/>
    <rect x="140" y="18" width="1" height="1" fill="#000000"/>
    <rect x="164" y="18" width="1" height="1" fill="#000000"/>
    <rect x="0" y="19" width="1" height="1" fill="#000000"/>
    <rect x="27" y="19" width="1" height="1" fill="#000000"/>
    <rect x="72" y="19" width="1" height="1" fill="#000000"/>
    <rect x="95" y="19" width="1" height="1" fill="#000000"/>
    <rect x="140" y="19" width="1" height="1" fill="#000000"/>
    <rect x="164" y="19" width="1" height="1" fill="#000000"/>
    <rect x="0" y="20" width="1" height="1" fill="#000000"/>
    <rect x="26" y="20" width="1" height="1" fill="#000000"/>
    <rect x="73" y="20" width="1" height="1" fill="#000000"/>
    <rect x="94" y="20" width="1" height="1" fill="#000000"/>
    <rect x="141" y="20" width="1" height="1" fill="#000000"/>
    <rect x="164" y="20" width="1" height="1" fill="#000000"/>
    <rect x="0" y="21" width="1" height="1" fill="#000000"/>
    <rect x="25" y="21" width="1" height="1" fill="#000000"/>
    <rect x="74" y="21" width="1" height="1" fill="#000000"/>
    <rect x="93" y="21" width="1" height="1" fill="#000000"/>
    <rect x="142" y="21" width="1" height="1" fill="#000000"/>
    <rect x="164" y="21" width="1" height="1" fill="#000000"/>
    <rect x="0" y="22" width="1" height="1" fill="#000000"/>
    <rect x="164" y="22" width="1" height="1" fill="#000000"/>
    <rect x="0" y="23" width="1" height="1" fill="#000000"/>
    <rect x="164" y="23" width="1" height="1" fill="#000000"/>
    <rect x="0" y="24" width="1" height="1" fill="#000000"/>
    <rect x="164" y="24" width="1" height="1" fill="#000000"/>
    <rect x="0" y="25" width="1" height="1" fill="#000000"/>
    <rect x="164" y="25" width="1" height="1" fill="#000000"/>
    <rect x="0" y="26" width="1" height="1" fill="#000000"/>
    <rect x="164" y="26" width="1" height="1" fill="#000000"/>
    <rect x="0" y="27" width="1" height="1" fill="#000000"/>
    <rect x="164" y="27" width="1" height="1" fill="#000000"/>
    <rect x="0" y="28" width="1" height="1" fill="#000000"/>
    <rect x="164" y="28" width="1" height="1" fill="#000000"/>
    <rect x="0" y="29" width="1" height="1" fill="#000000"/>
    <rect x="164" y="29" width="1" height="1" fill="#000000"/>
    <rect x="0" y="30" width="1" height="1" fill="#000000"/>
    <rect x="164" y="30" width="1" height="1" fill="#000000"/>
    <rect x="0" y="31" width="1" height="1" fill="#000000"/>
    <rect x="164" y="31" width="1" height="1" fill="#000000"/>
    <rect x="0" y="32" width="1" height="1" fill="#000000"/>
    <rect x="164" y="32" width="1" height="1" fill="#000000"/>
    <rect x="0" y="33" width="1" height="1" fill="#000000"/>
    <rect x="164" y="33" width="1" height="1" fill="#000000"/>
    <rect x="0" y="34" width="1" height="1" fill="#000000"/>
    <rect x="164" y="34" width="1" height="1" fill="#000000"/>
    <rect x="0" y="35" width="1" height="1" fill="#000000"/>
    <rect x="164" y="35" width="1" height="1" fill="#000000"/>
    <rect x="0" y="36" width="1" height="1" fill="#000000"/>
    <rect x="164" y="36" width="1" height="1" fill="#000000"/>
    <rect x="0" y="37" width="1" height="1" fill="#000000"/>
    <rect x="164" y="37" width="1" height="1" fill="#000000"/>
    <rect x="0" y="38" width="1" height="1" fill="#000000"/>
    <rect x="164" y="38" width="1" height="1" fill="#000000"/>
    <rect x="0" y="39" width="1" height="1" fill="#000000"/>
    <rect x="164" y="39" width="1" height="1" fill="#000000"/>
    <rect x="0" y="40" width="1" height="1" fill="#000000"/>
    <rect x="164" y="40" width="1" height="1" fill="#000000"/>
    <rect x="0" y="41" width="1" height="1" fill="#000000"/>
    <rect x="164" y="41" width="1" height="1" fill="#000000"/>
    <rect x="0" y="42" width="1" height="1" fill="#000000"/>
    <rect x="164" y="42" width="1" height="1" fill="#000000"/>
    <rect x="0" y="43" width="1" height="1" fill="#000000"/>
    <rect x="25" y="43" width="1" height="1" fill="#000000"/>
    <rect x="74" y="43" width="1" height="1" fill="#000000"/>
    <rect x="93" y="43" width="1" height="1" fill="#000000"/>
    <rect x="142" y="43" width="1" height="1" fill="#000000"/>
    <rect x="164" y="43" width="1" height="1" fill="#000000"/>
    <rect x="0" y="44" width="1" height="1" fill="#000000"/>
    <rect x="26" y="44" width="1" height="1" fill="#000000"/>
    <rect x="73" y="44" width="1" height="1" fill="#000000"/>
    <rect x="94" y="44" width="1" height="1" fill="#000000"/>
    <rect x="141" y="44" width="1" height="1" fill="#000000"/>
    <rect x="164" y="44" width="1" height="1" fill="#000000"/>
    <rect x="0" y="45" width="1" height="1" fill="#000000"/>
    <rect x="26" y="45" width="1" height="1" fill="#000000"/>
    <rect x="73" y="45" width="1" height="1" fill="#000000"/>
    <rect x="94" y="45" width="1" height="1" fill="#000000"/>
    <rect x="141" y="45" width="1" height="1" fill="#000000"/>
    <rect x="164" y="45" width="1" height="1" fill="#000000"/>
    <rect x="0" y="46" width="1" height="1" fill="#000000"/>
    <rect x="27" y="46" width="1" height="1" fill="#000000"/>
    <rect x="72" y="46" width="1" height="1" fill="#000000"/>
    <rect x="95" y="46" width="1" height="1" fill="#000000"/>
    <rect x="140" y="46" width="1" height="1" fill="#000000"/>
    <rect x="164" y="46" width="1" height="1" fill="#000000"/>
    <rect x="0" y="47" width="1" height="1" fill="#000000"/>
    <rect x="28" y="47" width="1" height="1" fill="#000000"/>
    <rect x="71" y="47" width="1" height="1" fill="#000000"/>
    <rect x="96" y="47" width="1" height="1" fill="#000000"/>
    <rect x="139" y="47" width="1" height="1" fill="#000000"/>
    <rect x="164" y="47" width="1" height="1" fill="#000000"/>
    <rect x="0" y="48" width="1" height="1" fill="#000000"/>
    <rect x="29" y="48" width="1" height="1" fill="#000000"/>
    <rect x="70" y="48" width="1" height="1" fill="#000000"/>
    <rect x="97" y="48" width="1" height="1" fill="#000000"/>
    <rect x="138" y="48" width="1" height="1" fill="#000000"/>
    <rect x="164" y="48" width="1" height="1" fill="#000000"/>
    <rect x="0" y="49" width="1" height="1" fill="#000000"/>
    <rect x="29" y="49" width="1" height="1" fill="#000000"/>
    <rect x="70" y="49" width="1" height="1" fill="#000000"/>
    <rect x="97" y="49" width="1" height="1" fill="#000000"/>
    <rect x="138" y="49" width="1" height="1" fill="#000000"/>
    <rect x="164" y="49" width="1" height="1" fill="#000000"/>
    <rect x="0" y="50" width="1" height="1" fill="#000000"/>
    <rect x="28" y="50" width="1" height="1" fill="#000000"/>
    <rect x="30" y="50" width="1" height="1" fill="#000000"/>
    <rect x="69" y="50" width="1" height="1" fill="#000000"/>
    <rect x="71" y="50" width="1" height="1" fill="#000000"/>
    <rect x="96" y="50" width="1" height="1" fill="#000000"/>
    <rect x="98" y="50" width="1" height="1" fill="#000000"/>
    <rect x="137" y="50" width="1" height="1" fill="#000000"/>
    <rect x="139" y="50" width="1" height="1" fill="#000000"/>
    <rect x="164" y="50" width="1" height="1" fill="#000000"/>
    <rect x="0" y="51" width="1" height="1" fill="#000000"/>
    <rect x="26" y="51" width="2" height="1" fill="#000000"/>
    <rect x="31" y="51" width="1" height="1" fill="#000000"/>
    <rect x="68" y="51" width="1" height="1" fill="#000000"/>
    <rect x="72" y="51" width="2" height="1" fill="#000000"/>
    <rect x="94" y="51" width="2" height="1" fill="#000000"/>
    <rect x="99" y="51" width="1" height="1" fill="#000000"/>
    <rect x="136" y="51" width="1" height="1" fill="#000000"/>
    <rect x="140" y="51" width="2" height="1" fill="#000000"/>
    <rect x="164" y="51" width="1" height="1" fill="#000000"/>
    <rect x="0" y="52" width="1" height="1" fill="#000000"/>
    <rect x="25" y="52" width="1" height="1" fill="#000000"/>
    <rect x="32" y="52" width="1" height="1" fill="#000000"/>
    <rect x="67" y="52" width="1" height="1" fill="#000000"/>
    <rect x="74" y="52" width="1" height="1" fill="#000000"/>
    <rect x="93" y="52" width="1" height="1" fill="#000000"/>
    <rect x="100" y="52" width="1" height="1" fill="#000000"/>
    <rect x="135" y="52" width="1" height="1" fill="#000000"/>
    <rect x="142" y="52" width="1" height="1" fill="#000000"/>
    <rect x="164" y="52" width="1" height="1" fill="#000000"/>
    <rect x="0" y="53" width="1" height="1" fill="#000000"/>
    <rect x="32" y="53" width="1" height="1" fill="#000000"/>
    <rect x="67" y="53" width="1" height="1" fill="#000000"/>
    <rect x="100" y="53" width="1" height="1" fill="#000000"/>
    <rect x="135" y="53" width="1" height="1" fill="#000000"/>
    <rect x="164" y="53" width="1" height="1" fill="#000000"/>
    <rect x="0" y="54" width="1" height="1" fill="#000000"/>
    <rect x="33" y="54" width="1" height="1" fill="#000000"/>
    <rect x="66" y="54" width="1" height="1" fill="#000000"/>
    <rect x="101" y="54" width="1" height="1" fill="#000000"/>
    <rect x="134" y="54" width="1" height="1" fill="#000000"/>
    <rect x="164" y="54" width="1" height="1" fill="#000000"/>
    <rect x="0" y="55" width="1" height="1" fill="#000000"/>
    <rect x="164" y="55" width="1" height="1" fill="#000000"/>
    <rect x="0" y="56" width="1" height="1" fill="#000000"/>
    <rect x="164" y="56" width="1" height="1" fill="#000000"/>
    <rect x="0" y="57" width="1" height="1" fill="#000000"/>
    <rect x="164" y="57" width="1" height="1" fill="#000000"/>
    <rect x="0" y="58" width="1" height="1" fill="#000000"/>
    <rect x="164" y="58" width="1" height="1" fill="#000000"/>
    <rect x="0" y="59" width="1" height="1" fill="#000000"/>
    <rect x="164" y="59" width="1" height="1" fill="#000000"/>
    <rect x="0" y="60" width="1" height="1" fill="#000000"/>
    <rect x="164" y="60" width="1" height="1" fill="#000000"/>
    <rect x="0" y="61" width="1" height="1" fill="#000000"/>
    <rect x="164" y="61" width="1" height="1" fill="#000000"/>
    <rect x="0" y="62" width="1" height="1" fill="#000000"/>
    <rect x="164" y="62" width="1" height="1" fill="#000000"/>
    <rect x="0" y="63" width="1" height="1" fill="#000000"/>
    <rect x="164" y="63" width="1" height="1" fill="#000000"/>
    <rect x="0" y="64" width="1" height="1" fill="#000000"/>
    <rect x="164" y="64" width="1" height="1" fill="#000000"/>
    <rect x="0" y="65" width="165" height="1" fill="#000000"/>
  </g>
</svg>