<?xml version="1.0" encoding="UTF-8"?>
<svg xmlns="http://www.w3.org/2000/svg" viewBox="0 0 52 83" width="52" height="83">
  <!-- Auto-converted from legend-1314.png -->
  <rect x="0" y="0" width="52" height="83" fill="none"/>
  <g fill="#231f20" stroke="none">
    <rect x="0" y="0" width="52" height="1" fill="#231f20"/>
    <rect x="0" y="1" width="1" height="1" fill="#231f20"/>
    <rect x="51" y="1" width="1" height="1" fill="#231f20"/>
    <rect x="0" y="2" width="1" height="1" fill="#231f20"/>
    <rect x="51" y="2" width="1" height="1" fill="#231f20"/>
    <rect x="0" y="3" width="1" height="1" fill="#231f20"/>
    <rect x="51" y="3" width="1" height="1" fill="#231f20"/>
    <rect x="0" y="4" width="1" height="1" fill="#231f20"/>
    <rect x="51" y="4" width="1" height="1" fill="#231f20"/>
    <rect x="0" y="5" width="1" height="1" fill="#231f20"/>
    <rect x="51" y="5" width="1" height="1" fill="#231f20"/>
    <rect x="0" y="6" width="1" height="1" fill="#231f20"/>
    <rect x="51" y="6" width="1" height="1" fill="#231f20"/>
    <rect x="0" y="7" width="1" height="1" fill="#231f20"/>
    <rect x="51" y="7" width="1" height="1" fill="#231f20"/>
    <rect x="0" y="8" width="1" height="1" fill="#231f20"/>
    <rect x="51" y="8" width="1" height="1" fill="#231f20"/>
    <rect x="0" y="9" width="1" height="1" fill="#231f20"/>
    <rect x="51" y="9" width="1" height="1" fill="#231f20"/>
    <rect x="0" y="10" width="52" height="1" fill="#231f20"/>
    <rect x="0" y="11" width="1" height="1" fill="#231f20"/>
    <rect x="15" y="11" width="1" height="1" fill="#231f20"/>
    <rect x="46" y="11" width="1" height="1" fill="#231f20"/>
    <rect x="51" y="11" width="1" height="1" fill="#231f20"/>
    <rect x="0" y="12" width="1" height="1" fill="#231f20"/>
    <rect x="14" y="12" width="1" height="1" fill="#231f20"/>
    <rect x="45" y="12" width="1" height="1" fill="#231f20"/>
    <rect x="51" y="12" width="1" height="1" fill="#231f20"/>
    <rect x="0" y="13" width="1" height="1" fill="#231f20"/>
    <rect x="14" y="13" width="1" height="1" fill="#231f20"/>
    <rect x="45" y="13" width="1" height="1" fill="#231f20"/>
    <rect x="51" y="13" width="1" height="1" fill="#231f20"/>
    <rect x="0" y="14" width="1" height="1" fill="#231f20"/>
    <rect x="13" y="14" width="1" height="1" fill="#231f20"/>
    <rect x="44" y="14" width="1" height="1" fill="#231f20"/>
    <rect x="51" y="14" width="1" height="1" fill="#231f20"/>
    <rect x="0" y="15" width="1" height="1" fill="#231f20"/>
    <rect x="13" y="15" width="1" height="1" fill="#231f20"/>
    <rect x="44" y="15" width="1" height="1" fill="#231f20"/>
    <rect x="51" y="15" width="1" height="1" fill="#231f20"/>
    <rect x="0" y="16" width="1" height="1" fill="#231f20"/>
    <rect x="12" y="16" width="1" height="1" fill="#231f20"/>
    <rect x="43" y="16" width="1" height="1" fill="#231f20"/>
    <rect x="51" y="16" width="1" height="1" fill="#231f20"/>
    <rect x="0" y="17" width="1" height="1" fill="#231f20"/>
    <rect x="12" y="17" width="1" height="1" fill="#231f20"/>
    <rect x="43" y="17" width="1" height="1" fill="#231f20"/>
    <rect x="51" y="17" width="1" height="1" fill="#231f20"/>
    <rect x="0" y="18" width="1" height="1" fill="#231f20"/>
    <rect x="11" y="18" width="1" height="1" fill="#231f20"/>
    <rect x="42" y="18" width="1" height="1" fill="#231f20"/>
    <rect x="51" y="18" width="1" height="1" fill="#231f20"/>
    <rect x="0" y="19" width="1" height="1" fill="#231f20"/>
    <rect x="11" y="19" width="1" height="1" fill="#231f20"/>
    <rect x="42" y="19" width="1" height="1" fill="#231f20"/>
    <rect x="51" y="19" width="1" height="1" fill="#231f20"/>
    <rect x="0" y="20" width="1" height="1" fill="#231f20"/>
    <rect x="10" y="20" width="1" height="1" fill="#231f20"/>
    <rect x="41" y="20" width="1" height="1" fill="#231f20"/>
    <rect x="51" y="20" width="1" height="1" fill="#231f20"/>
    <rect x="0" y="21" width="52" height="1" fill="#231f20"/>
    <rect x="0" y="22" width="1" height="1" fill="#231f20"/>
    <rect x="9" y="22" width="1" height="1" fill="#231f20"/>
    <rect x="40" y="22" width="1" height="1" fill="#231f20"/>
    <rect x="51" y="22" width="1" height="1" fill="#231f20"/>
    <rect x="0" y="23" width="1" height="1" fill="#231f20"/>
    <rect x="9" y="23" width="1" height="1" fill="#231f20"/>
    <rect x="40" y="23" width="1" height="1" fill="#231f20"/>
    <rect x="51" y="23" width="1" height="1" fill="#231f20"/>
    <rect x="0" y="24" width="1" height="1" fill="#231f20"/>
    <rect x="8" y="24" width="1" height="1" fill="#231f20"/>
    <rect x="39" y="24" width="1" height="1" fill="#231f20"/>
    <rect x="51" y="24" width="1" height="1" fill="#231f20"/>
    <rect x="0" y="25" width="1" height="1" fill="#231f20"/>
    <rect x="8" y="25" width="1" height="1" fill="#231f20"/>
    <rect x="39" y="25" width="1" height="1" fill="#231f20"/>
    <rect x="51" y="25" width="1" height="1" fill="#231f20"/>
    <rect x="0" y="26" width="1" height="1" fill="#231f20"/>
    <rect x="7" y="26" width="1" height="1" fill="#231f20"/>
    <rect x="38" y="26" width="1" height="1" fill="#231f20"/>
    <rect x="51" y="26" width="1" height="1" fill="#231f20"/>
    <rect x="0" y="27" width="1" height="1" fill="#231f20"/>
    <rect x="7" y="27" width="1" height="1" fill="#231f20"/>
    <rect x="38" y="27" width="1" height="1" fill="#231f20"/>
    <rect x="51" y="27" width="1" height="1" fill="#231f20"/>
    <rect x="0" y="28" width="1" height="1" fill="#231f20"/>
    <rect x="6" y="28" width="1" height="1" fill="#231f20"/>
    <rect x="37" y="28" width="1" height="1" fill="#231f20"/>
    <rect x="51" y="28" width="1" height="1" fill="#231f20"/>
    <rect x="0" y="29" width="1" height="1" fill="#231f20"/>
    <rect x="6" y="29" width="1" height="1" fill="#231f20"/>
    <rect x="37" y="29" width="1" height="1" fill="#231f20"/>
    <rect x="51" y="29" width="1" height="1" fill="#231f20"/>
    <rect x="0" y="30" width="1" height="1" fill="#231f20"/>
    <rect x="5" y="30" width="1" height="1" fill="#231f20"/>
    <rect x="36" y="30" width="1" height="1" fill="#231f20"/>
    <rect x="51" y="30" width="1" height="1" fill="#231f20"/>
    <rect x="0" y="31" width="52" height="1" fill="#231f20"/>
    <rect x="0" y="32" width="1" height="1" fill="#231f20"/>
    <rect x="51" y="32" width="1" height="1" fill="#231f20"/>
    <rect x="0" y="33" width="1" height="1" fill="#231f20"/>
    <rect x="51" y="33" width="1" height="1" fill="#231f20"/>
    <rect x="0" y="34" width="1" height="1" fill="#231f20"/>
    <rect x="51" y="34" width="1" height="1" fill="#231f20"/>
    <rect x="0" y="35" width="1" height="1" fill="#231f20"/>
    <rect x="51" y="35" width="1" height="1" fill="#231f20"/>
    <rect x="0" y="36" width="1" height="1" fill="#231f20"/>
    <rect x="51" y="36" width="1" height="1" fill="#231f20"/>
    <rect x="0" y="37" width="1" height="1" fill="#231f20"/>
    <rect x="51" y="37" width="1" height="1" fill="#231f20"/>
    <rect x="0" y="38" width="1" height="1" fill="#231f20"/>
    <rect x="51" y="38" width="1" height="1" fill="#231f20"/>
    <rect x="0" y="39" width="1" height="1" fill="#231f20"/>
    <rect x="51" y="39" width="1" height="1" fill="#231f20"/>
    <rect x="0" y="40" width="1" height="1" fill="#231f20"/>
    <rect x="51" y="40" width="1" height="1" fill="#231f20"/>
    <rect x="0" y="41" width="52" height="1" fill="#231f20"/>
    <rect x="0" y="42" width="1" height="1" fill="#231f20"/>
    <rect x="51" y="42" width="1" height="1" fill="#231f20"/>
    <rect x="0" y="43" width="1" height="1" fill="#231f20"/>
    <rect x="51" y="43" width="1" height="1" fill="#231f20"/>
    <rect x="0" y="44" width="1" height="1" fill="#231f20"/>
    <rect x="51" y="44" width="1" height="1" fill="#231f20"/>
    <rect x="0" y="45" width="1" height="1" fill="#231f20"/>
    <rect x="51" y="45" width="1" height="1" fill="#231f20"/>
    <rect x="0" y="46" width="1" height="1" fill="#231f20"/>
    <rect x="51" y="46" width="1" height="1" fill="#231f20"/>
    <rect x="0" y="47" width="1" height="1" fill="#231f20"/>
    <rect x="51" y="47" width="1" height="1" fill="#231f20"/>
    <rect x="0" y="48" width="1" height="1" fill="#231f20"/>
    <rect x="51" y="48" width="1" height="1" fill="#231f20"/>
    <rect x="0" y="49" width="1" height="1" fill="#231f20"/>
    <rect x="51" y="49" width="1" height="1" fill="#231f20"/>
    <rect x="0" y="50" width="1" height="1" fill="#231f20"/>
    <rect x="51" y="50" width="1" height="1" fill="#231f20"/>
    <rect x="0" y="51" width="52" height="1" fill="#231f20"/>
    <rect x="0" y="52" width="1" height="1" fill="#231f20"/>
    <rect x="30" y="52" width="1" height="1" fill="#231f20"/>
    <rect x="51" y="52" width="1" height="1" fill="#231f20"/>
    <rect x="0" y="53" width="1" height="1" fill="#231f20"/>
    <rect x="29" y="53" width="1" height="1" fill="#231f20"/>
    <rect x="51" y="53" width="1" height="1" fill="#231f20"/>
    <rect x="0" y="54" width="1" height="1" fill="#231f20"/>
    <rect x="29" y="54" width="1" height="1" fill="#231f20"/>
    <rect x="51" y="54" width="1" height="1" fill="#231f20"/>
    <rect x="0" y="55" width="1" height="1" fill="#231f20"/>
    <rect x="28" y="55" width="1" height="1" fill="#231f20"/>
    <rect x="51" y="55" width="1" height="1" fill="#231f20"/>
    <rect x="0" y="56" width="1" height="1" fill="#231f20"/>
    <rect x="28" y="56" width="1" height="1" fill="#231f20"/>
    <rect x="51" y="56" width="1" height="1" fill="#231f20"/>
    <rect x="0" y="57" width="1" height="1" fill="#231f20"/>
    <rect x="27" y="57" width="1" height="1" fill="#231f20"/>
    <rect x="51" y="57" width="1" height="1" fill="#231f20"/>
    <rect x="0" y="58" width="1" height="1" fill="#231f20"/>
    <rect x="27" y="58" width="1" height="1" fill="#231f20"/>
    <rect x="51" y="58" width="1" height="1" fill="#231f20"/>
    <rect x="0" y="59" width="1" height="1" fill="#231f20"/>
    <rect x="26" y="59" width="1" height="1" fill="#231f20"/>
    <rect x="51" y="59" width="1" height="1" fill="#231f20"/>
    <rect x="0" y="60" width="1" height="1" fill="#231f20"/>
    <rect x="26" y="60" width="1" height="1" fill="#231f20"/>
    <rect x="51" y="60" width="1" height="1" fill="#231f20"/>
    <rect x="0" y="61" width="1" height="1" fill="#231f20"/>
    <rect x="25" y="61" width="1" height="1" fill="#231f20"/>
    <rect x="51" y="61" width="1" height="1" fill="#231f20"/>
    <rect x="0" y="62" width="52" height="1" fill="#231f20"/>
    <rect x="0" y="63" width="1" height="1" fill="#231f20"/>
    <rect x="24" y="63" width="1" height="1" fill="#231f20"/>
    <rect x="51" y="63" width="1" height="1" fill="#231f20"/>
    <rect x="0" y="64" width="1" height="1" fill="#231f20"/>
    <rect x="24" y="64" width="1" height="1" fill="#231f20"/>
    <rect x="51" y="64" width="1" height="1" fill="#231f20"/>
    <rect x="0" y="65" width="1" height="1" fill="#231f20"/>
    <rect x="23" y="65" width="1" height="1" fill="#231f20"/>
    <rect x="51" y="65" width="1" height="1" fill="#231f20"/>
    <rect x="0" y="66" width="1" height="1" fill="#231f20"/>
    <rect x="23" y="66" width="1" height="1" fill="#231f20"/>
    <rect x="51" y="66" width="1" height="1" fill="#231f20"/>
    <rect x="0" y="67" width="1" height="1" fill="#231f20"/>
    <rect x="22" y="67" width="1" height="1" fill="#231f20"/>
    <rect x="51" y="67" width="1" height="1" fill="#231f20"/>
    <rect x="0" y="68" width="1" height="1" fill="#231f20"/>
    <rect x="22" y="68" width="1" height="1" fill="#231f20"/>
    <rect x="51" y="68" width="1" height="1" fill="#231f20"/>
    <rect x="0" y="69" width="1" height="1" fill="#231f20"/>
    <rect x="21" y="69" width="1" height="1" fill="#231f20"/>
    <rect x="51" y="69" width="1" height="1" fill="#231f20"/>
    <rect x="0" y="70" width="1" height="1" fill="#231f20"/>
    <rect x="21" y="70" width="1" height="1" fill="#231f20"/>
    <rect x="51" y="70" width="1" height="1" fill="#231f20"/>
    <rect x="0" y="71" width="1" height="1" fill="#231f20"/>
    <rect x="20" y="71" width="1" height="1" fill="#231f20"/>
    <rect x="51" y="71" width="1" height="1" fill="#231f20"/>
    <rect x="0" y="72" width="52" height="1" fill="#231f20"/>
    <rect x="0" y="73" width="1" height="1" fill="#231f20"/>
    <rect x="51" y="73" width="1" height="1" fill="#231f20"/>
    <rect x="0" y="74" width="1" height="1" fill="#231f20"/>
    <rect x="51" y="74" width="1" height="1" fill="#231f20"/>
    <rect x="0" y="75" width="1" height="1" fill="#231f20"/>
    <rect x="51" y="75" width="1" height="1" fill="#231f20"/>
    <rect x="0" y="76" width="1" height="1" fill="#231f20"/>
    <rect x="51" y="76" width="1" height="1" fill="#231f20"/>
    <rect x="0" y="77" width="1" height="1" fill="#231f20"/>
    <rect x="51" y="77" width="1" height="1" fill="#231f20"/>
    <rect x="0" y="78" width="1" height="1" fill="#231f20"/>
    <rect x="51" y="78" width="1" height="1" fill="#231f20"/>
    <rect x="0" y="79" width="1" height="1" fill="#231f20"/>
    <rect x="51" y="79" width="1" height="1" fill="#231f20"/>
    <rect x="0" y="80" width="1" height="1" fill="#231f20"/>
    <rect x="51" y="80" width="1" height="1" fill="#231f20"/>
    <rect x="0" y="81" width="1" height="1" fill="#231f20"/>
    <rect x="51" y="81" width="1" height="1" fill="#231f20"/>
    <rect x="0" y="82" width="52" height="1" fill="#231f20"/>
  </g>
</svg>