<?xml version="1.0" encoding="UTF-8"?>
<svg xmlns="http://www.w3.org/2000/svg" viewBox="0 0 283 136" width="283" height="136">
  <!-- Auto-converted from legend-1059.png -->
  <rect x="0" y="0" width="283" height="136" fill="none"/>
  <g fill="#231f20" stroke="none">
    <rect x="0" y="0" width="283" height="1" fill="#231f20"/>
    <rect x="0" y="1" width="1" height="1" fill="#231f20"/>
    <rect x="282" y="1" width="1" height="1" fill="#231f20"/>
    <rect x="0" y="2" width="1" height="1" fill="#231f20"/>
    <rect x="282" y="2" width="1" height="1" fill="#231f20"/>
    <rect x="0" y="3" width="1" height="1" fill="#231f20"/>
    <rect x="282" y="3" width="1" height="1" fill="#231f20"/>
    <rect x="0" y="4" width="1" height="1" fill="#231f20"/>
    <rect x="282" y="4" width="1" height="1" fill="#231f20"/>
    <rect x="0" y="5" width="1" height="1" fill="#231f20"/>
    <rect x="282" y="5" width="1" height="1" fill="#231f20"/>
    <rect x="0" y="6" width="1" height="1" fill="#231f20"/>
    <rect x="282" y="6" width="1" height="1" fill="#231f20"/>
    <rect x="0" y="7" width="1" height="1" fill="#231f20"/>
    <rect x="282" y="7" width="1" height="1" fill="#231f20"/>
    <rect x="0" y="8" width="1" height="1" fill="#231f20"/>
    <rect x="282" y="8" width="1" height="1" fill="#231f20"/>
    <rect x="0" y="9" width="1" height="1" fill="#231f20"/>
    <rect x="282" y="9" width="1" height="1" fill="#231f20"/>
    <rect x="0" y="10" width="1" height="1" fill="#231f20"/>
    <rect x="282" y="10" width="1" height="1" fill="#231f20"/>
    <rect x="0" y="11" width="1" height="1" fill="#231f20"/>
    <rect x="282" y="11" width="1" height="1" fill="#231f20"/>
    <rect x="0" y="12" width="1" height="1" fill="#231f20"/>
    <rect x="282" y="12" width="1" height="1" fill="#231f20"/>
    <rect x="0" y="13" width="1" height="1" fill="#231f20"/>
    <rect x="282" y="13" width="1" height="1" fill="#231f20"/>
    <rect x="0" y="14" width="1" height="1" fill="#231f20"/>
    <rect x="282" y="14" width="1" height="1" fill="#231f20"/>
    <rect x="0" y="15" width="1" height="1" fill="#231f20"/>
    <rect x="282" y="15" width="1" height="1" fill="#231f20"/>
    <rect x="0" y="16" width="1" height="1" fill="#231f20"/>
    <rect x="282" y="16" width="1" height="1" fill="#231f20"/>
    <rect x="0" y="17" width="1" height="1" fill="#231f20"/>
    <rect x="43" y="17" width="6" height="1" fill="#231f20"/>
    <rect x="201" y="17" width="6" height="1" fill="#231f20"/>
    <rect x="282" y="17" width="1" height="1" fill="#231f20"/>
    <rect x="0" y="18" width="1" height="1" fill="#231f20"/>
    <rect x="42" y="18" width="1" height="1" fill="#231f20"/>
    <rect x="49" y="18" width="1" height="1" fill="#231f20"/>
    <rect x="200" y="18" width="1" height="1" fill="#231f20"/>
    <rect x="207" y="18" width="1" height="1" fill="#231f20"/>
    <rect x="282" y="18" width="1" height="1" fill="#231f20"/>
    <rect x="0" y="19" width="1" height="1" fill="#231f20"/>
    <rect x="41" y="19" width="1" height="1" fill="#231f20"/>
    <rect x="49" y="19" width="2" height="1" fill="#231f20"/>
    <rect x="199" y="19" width="1" height="1" fill="#231f20"/>
    <rect x="207" y="19" width="2" height="1" fill="#231f20"/>
    <rect x="282" y="19" width="1" height="1" fill="#231f20"/>
    <rect x="0" y="20" width="1" height="1" fill="#231f20"/>
    <rect x="40" y="20" width="1" height="1" fill="#231f20"/>
    <rect x="44" y="20" width="4" height="1" fill="#231f20"/>
    <rect x="51" y="20" width="1" height="1" fill="#231f20"/>
    <rect x="123" y="20" width="4" height="1" fill="#231f20"/>
    <rect x="198" y="20" width="1" height="1" fill="#231f20"/>
    <rect x="202" y="20" width="4" height="1" fill="#231f20"/>
    <rect x="209" y="20" width="1" height="1" fill="#231f20"/>
    <rect x="282" y="20" width="1" height="1" fill="#231f20"/>
    <rect x="0" y="21" width="1" height="1" fill="#231f20"/>
    <rect x="40" y="21" width="1" height="1" fill="#231f20"/>
    <rect x="43" y="21" width="6" height="1" fill="#231f20"/>
    <rect x="51" y="21" width="1" height="1" fill="#231f20"/>
    <rect x="122" y="21" width="6" height="1" fill="#231f20"/>
    <rect x="198" y="21" width="1" height="1" fill="#231f20"/>
    <rect x="201" y="21" width="6" height="1" fill="#231f20"/>
    <rect x="209" y="21" width="1" height="1" fill="#231f20"/>
    <rect x="282" y="21" width="1" height="1" fill="#231f20"/>
    <rect x="0" y="22" width="1" height="1" fill="#231f20"/>
    <rect x="40" y="22" width="1" height="1" fill="#231f20"/>
    <rect x="43" y="22" width="6" height="1" fill="#231f20"/>
    <rect x="51" y="22" width="1" height="1" fill="#231f20"/>
    <rect x="122" y="22" width="6" height="1" fill="#231f20"/>
    <rect x="198" y="22" width="1" height="1" fill="#231f20"/>
    <rect x="201" y="22" width="6" height="1" fill="#231f20"/>
    <rect x="209" y="22" width="1" height="1" fill="#231f20"/>
    <rect x="282" y="22" width="1" height="1" fill="#231f20"/>
    <rect x="0" y="23" width="1" height="1" fill="#231f20"/>
    <rect x="40" y="23" width="1" height="1" fill="#231f20"/>
    <rect x="43" y="23" width="6" height="1" fill="#231f20"/>
    <rect x="51" y="23" width="1" height="1" fill="#231f20"/>
    <rect x="122" y="23" width="6" height="1" fill="#231f20"/>
    <rect x="198" y="23" width="1" height="1" fill="#231f20"/>
    <rect x="201" y="23" width="6" height="1" fill="#231f20"/>
    <rect x="209" y="23" width="1" height="1" fill="#231f20"/>
    <rect x="282" y="23" width="1" height="1" fill="#231f20"/>
    <rect x="0" y="24" width="1" height="1" fill="#231f20"/>
    <rect x="40" y="24" width="1" height="1" fill="#231f20"/>
    <rect x="43" y="24" width="6" height="1" fill="#231f20"/>
    <rect x="51" y="24" width="1" height="1" fill="#231f20"/>
    <rect x="122" y="24" width="6" height="1" fill="#231f20"/>
    <rect x="198" y="24" width="1" height="1" fill="#231f20"/>
    <rect x="201" y="24" width="6" height="1" fill="#231f20"/>
    <rect x="209" y="24" width="1" height="1" fill="#231f20"/>
    <rect x="282" y="24" width="1" height="1" fill="#231f20"/>
    <rect x="0" y="25" width="1" height="1" fill="#231f20"/>
    <rect x="40" y="25" width="1" height="1" fill="#231f20"/>
    <rect x="44" y="25" width="4" height="1" fill="#231f20"/>
    <rect x="51" y="25" width="1" height="1" fill="#231f20"/>
    <rect x="123" y="25" width="4" height="1" fill="#231f20"/>
    <rect x="198" y="25" width="1" height="1" fill="#231f20"/>
    <rect x="202" y="25" width="4" height="1" fill="#231f20"/>
    <rect x="209" y="25" width="1" height="1" fill="#231f20"/>
    <rect x="282" y="25" width="1" height="1" fill="#231f20"/>
    <rect x="0" y="26" width="1" height="1" fill="#231f20"/>
    <rect x="41" y="26" width="1" height="1" fill="#231f20"/>
    <rect x="50" y="26" width="1" height="1" fill="#231f20"/>
    <rect x="199" y="26" width="1" height="1" fill="#231f20"/>
    <rect x="208" y="26" width="1" height="1" fill="#231f20"/>
    <rect x="282" y="26" width="1" height="1" fill="#231f20"/>
    <rect x="0" y="27" width="1" height="1" fill="#231f20"/>
    <rect x="41" y="27" width="2" height="1" fill="#231f20"/>
    <rect x="49" y="27" width="1" height="1" fill="#231f20"/>
    <rect x="199" y="27" width="2" height="1" fill="#231f20"/>
    <rect x="207" y="27" width="1" height="1" fill="#231f20"/>
    <rect x="282" y="27" width="1" height="1" fill="#231f20"/>
    <rect x="0" y="28" width="1" height="1" fill="#231f20"/>
    <rect x="43" y="28" width="6" height="1" fill="#231f20"/>
    <rect x="201" y="28" width="6" height="1" fill="#231f20"/>
    <rect x="282" y="28" width="1" height="1" fill="#231f20"/>
    <rect x="0" y="29" width="1" height="1" fill="#231f20"/>
    <rect x="282" y="29" width="1" height="1" fill="#231f20"/>
    <rect x="0" y="30" width="1" height="1" fill="#231f20"/>
    <rect x="282" y="30" width="1" height="1" fill="#231f20"/>
    <rect x="0" y="31" width="1" height="1" fill="#231f20"/>
    <rect x="282" y="31" width="1" height="1" fill="#231f20"/>
    <rect x="0" y="32" width="1" height="1" fill="#231f20"/>
    <rect x="282" y="32" width="1" height="1" fill="#231f20"/>
    <rect x="0" y="33" width="1" height="1" fill="#231f20"/>
    <rect x="282" y="33" width="1" height="1" fill="#231f20"/>
    <rect x="0" y="34" width="1" height="1" fill="#231f20"/>
    <rect x="282" y="34" width="1" height="1" fill="#231f20"/>
    <rect x="0" y="35" width="1" height="1" fill="#231f20"/>
    <rect x="282" y="35" width="1" height="1" fill="#231f20"/>
    <rect x="0" y="36" width="1" height="1" fill="#231f20"/>
    <rect x="282" y="36" width="1" height="1" fill="#231f20"/>
    <rect x="0" y="37" width="1" height="1" fill="#231f20"/>
    <rect x="282" y="37" width="1" height="1" fill="#231f20"/>
    <rect x="0" y="38" width="1" height="1" fill="#231f20"/>
    <rect x="282" y="38" width="1" height="1" fill="#231f20"/>
    <rect x="0" y="39" width="1" height="1" fill="#231f20"/>
    <rect x="282" y="39" width="1" height="1" fill="#231f20"/>
    <rect x="0" y="40" width="1" height="1" fill="#231f20"/>
    <rect x="282" y="40" width="1" height="1" fill="#231f20"/>
    <rect x="0" y="41" width="1" height="1" fill="#231f20"/>
    <rect x="282" y="41" width="1" height="1" fill="#231f20"/>
    <rect x="0" y="42" width="1" height="1" fill="#231f20"/>
    <rect x="282" y="42" width="1" height="1" fill="#231f20"/>
    <rect x="0" y="43" width="1" height="1" fill="#231f20"/>
    <rect x="282" y="43" width="1" height="1" fill="#231f20"/>
    <rect x="0" y="44" width="1" height="1" fill="#231f20"/>
    <rect x="282" y="44" width="1" height="1" fill="#231f20"/>
    <rect x="0" y="45" width="283" height="1" fill="#231f20"/>
    <rect x="0" y="46" width="1" height="1" fill="#231f20"/>
    <rect x="282" y="46" width="1" height="1" fill="#231f20"/>
    <rect x="0" y="47" width="1" height="1" fill="#231f20"/>
    <rect x="282" y="47" width="1" height="1" fill="#231f20"/>
    <rect x="0" y="48" width="1" height="1" fill="#231f20"/>
    <rect x="282" y="48" width="1" height="1" fill="#231f20"/>
    <rect x="0" y="49" width="1" height="1" fill="#231f20"/>
    <rect x="282" y="49" width="1" height="1" fill="#231f20"/>
    <rect x="0" y="50" width="1" height="1" fill="#231f20"/>
    <rect x="282" y="50" width="1" height="1" fill="#231f20"/>
    <rect x="0" y="51" width="1" height="1" fill="#231f20"/>
    <rect x="282" y="51" width="1" height="1" fill="#231f20"/>
    <rect x="0" y="52" width="1" height="1" fill="#231f20"/>
    <rect x="282" y="52" width="1" height="1" fill="#231f20"/>
    <rect x="0" y="53" width="1" height="1" fill="#231f20"/>
    <rect x="282" y="53" width="1" height="1" fill="#231f20"/>
    <rect x="0" y="54" width="1" height="1" fill="#231f20"/>
    <rect x="282" y="54" width="1" height="1" fill="#231f20"/>
    <rect x="0" y="55" width="1" height="1" fill="#231f20"/>
    <rect x="282" y="55" width="1" height="1" fill="#231f20"/>
    <rect x="0" y="56" width="1" height="1" fill="#231f20"/>
    <rect x="282" y="56" width="1" height="1" fill="#231f20"/>
    <rect x="0" y="57" width="1" height="1" fill="#231f20"/>
    <rect x="282" y="57" width="1" height="1" fill="#231f20"/>
    <rect x="0" y="58" width="1" height="1" fill="#231f20"/>
    <rect x="282" y="58" width="1" height="1" fill="#231f20"/>
    <rect x="0" y="59" width="1" height="1" fill="#231f20"/>
    <rect x="282" y="59" width="1" height="1" fill="#231f20"/>
    <rect x="0" y="60" width="1" height="1" fill="#231f20"/>
    <rect x="282" y="60" width="1" height="1" fill="#231f20"/>
    <rect x="0" y="61" width="1" height="1" fill="#231f20"/>
    <rect x="282" y="61" width="1" height="1" fill="#231f20"/>
    <rect x="0" y="62" width="1" height="1" fill="#231f20"/>
    <rect x="157" y="62" width="3" height="1" fill="#231f20"/>
    <rect x="282" y="62" width="1" height="1" fill="#231f20"/>
    <rect x="0" y="63" width="1" height="1" fill="#231f20"/>
    <rect x="155" y="63" width="2" height="1" fill="#231f20"/>
    <rect x="160" y="63" width="2" height="1" fill="#231f20"/>
    <rect x="282" y="63" width="1" height="1" fill="#231f20"/>
    <rect x="0" y="64" width="1" height="1" fill="#231f20"/>
    <rect x="154" y="64" width="1" height="1" fill="#231f20"/>
    <rect x="162" y="64" width="1" height="1" fill="#231f20"/>
    <rect x="282" y="64" width="1" height="1" fill="#231f20"/>
    <rect x="0" y="65" width="1" height="1" fill="#231f20"/>
    <rect x="78" y="65" width="4" height="1" fill="#231f20"/>
    <rect x="154" y="65" width="1" height="1" fill="#231f20"/>
    <rect x="157" y="65" width="4" height="1" fill="#231f20"/>
    <rect x="163" y="65" width="1" height="1" fill="#231f20"/>
    <rect x="236" y="65" width="4" height="1" fill="#231f20"/>
    <rect x="282" y="65" width="1" height="1" fill="#231f20"/>
    <rect x="0" y="66" width="1" height="1" fill="#231f20"/>
    <rect x="77" y="66" width="6" height="1" fill="#231f20"/>
    <rect x="153" y="66" width="1" height="1" fill="#231f20"/>
    <rect x="156" y="66" width="6" height="1" fill="#231f20"/>
    <rect x="163" y="66" width="1" height="1" fill="#231f20"/>
    <rect x="235" y="66" width="6" height="1" fill="#231f20"/>
    <rect x="282" y="66" width="1" height="1" fill="#231f20"/>
    <rect x="0" y="67" width="1" height="1" fill="#231f20"/>
    <rect x="77" y="67" width="6" height="1" fill="#231f20"/>
    <rect x="153" y="67" width="1" height="1" fill="#231f20"/>
    <rect x="156" y="67" width="6" height="1" fill="#231f20"/>
    <rect x="164" y="67" width="1" height="1" fill="#231f20"/>
    <rect x="235" y="67" width="6" height="1" fill="#231f20"/>
    <rect x="282" y="67" width="1" height="1" fill="#231f20"/>
    <rect x="0" y="68" width="1" height="1" fill="#231f20"/>
    <rect x="76" y="68" width="7" height="1" fill="#231f20"/>
    <rect x="153" y="68" width="1" height="1" fill="#231f20"/>
    <rect x="155" y="68" width="7" height="1" fill="#231f20"/>
    <rect x="164" y="68" width="1" height="1" fill="#231f20"/>
    <rect x="234" y="68" width="7" height="1" fill="#231f20"/>
    <rect x="282" y="68" width="1" height="1" fill="#231f20"/>
    <rect x="0" y="69" width="1" height="1" fill="#231f20"/>
    <rect x="77" y="69" width="6" height="1" fill="#231f20"/>
    <rect x="153" y="69" width="1" height="1" fill="#231f20"/>
    <rect x="156" y="69" width="6" height="1" fill="#231f20"/>
    <rect x="164" y="69" width="1" height="1" fill="#231f20"/>
    <rect x="235" y="69" width="6" height="1" fill="#231f20"/>
    <rect x="282" y="69" width="1" height="1" fill="#231f20"/>
    <rect x="0" y="70" width="1" height="1" fill="#231f20"/>
    <rect x="78" y="70" width="4" height="1" fill="#231f20"/>
    <rect x="153" y="70" width="1" height="1" fill="#231f20"/>
    <rect x="157" y="70" width="4" height="1" fill="#231f20"/>
    <rect x="163" y="70" width="1" height="1" fill="#231f20"/>
    <rect x="236" y="70" width="4" height="1" fill="#231f20"/>
    <rect x="282" y="70" width="1" height="1" fill="#231f20"/>
    <rect x="0" y="71" width="1" height="1" fill="#231f20"/>
    <rect x="79" y="71" width="1" height="1" fill="#231f20"/>
    <rect x="154" y="71" width="1" height="1" fill="#231f20"/>
    <rect x="158" y="71" width="1" height="1" fill="#231f20"/>
    <rect x="163" y="71" width="1" height="1" fill="#231f20"/>
    <rect x="237" y="71" width="1" height="1" fill="#231f20"/>
    <rect x="282" y="71" width="1" height="1" fill="#231f20"/>
    <rect x="0" y="72" width="1" height="1" fill="#231f20"/>
    <rect x="154" y="72" width="2" height="1" fill="#231f20"/>
    <rect x="161" y="72" width="2" height="1" fill="#231f20"/>
    <rect x="282" y="72" width="1" height="1" fill="#231f20"/>
    <rect x="0" y="73" width="1" height="1" fill="#231f20"/>
    <rect x="156" y="73" width="5" height="1" fill="#231f20"/>
    <rect x="282" y="73" width="1" height="1" fill="#231f20"/>
    <rect x="0" y="74" width="1" height="1" fill="#231f20"/>
    <rect x="282" y="74" width="1" height="1" fill="#231f20"/>
    <rect x="0" y="75" width="1" height="1" fill="#231f20"/>
    <rect x="282" y="75" width="1" height="1" fill="#231f20"/>
    <rect x="0" y="76" width="1" height="1" fill="#231f20"/>
    <rect x="282" y="76" width="1" height="1" fill="#231f20"/>
    <rect x="0" y="77" width="1" height="1" fill="#231f20"/>
    <rect x="282" y="77" width="1" height="1" fill="#231f20"/>
    <rect x="0" y="78" width="1" height="1" fill="#231f20"/>
    <rect x="282" y="78" width="1" height="1" fill="#231f20"/>
    <rect x="0" y="79" width="1" height="1" fill="#231f20"/>
    <rect x="282" y="79" width="1" height="1" fill="#231f20"/>
    <rect x="0" y="80" width="1" height="1" fill="#231f20"/>
    <rect x="282" y="80" width="1" height="1" fill="#231f20"/>
    <rect x="0" y="81" width="1" height="1" fill="#231f20"/>
    <rect x="282" y="81" width="1" height="1" fill="#231f20"/>
    <rect x="0" y="82" width="1" height="1" fill="#231f20"/>
    <rect x="282" y="82" width="1" height="1" fill="#231f20"/>
    <rect x="0" y="83" width="1" height="1" fill="#231f20"/>
    <rect x="282" y="83" width="1" height="1" fill="#231f20"/>
    <rect x="0" y="84" width="1" height="1" fill="#231f20"/>
    <rect x="282" y="84" width="1" height="1" fill="#231f20"/>
    <rect x="0" y="85" width="1" height="1" fill="#231f20"/>
    <rect x="282" y="85" width="1" height="1" fill="#231f20"/>
    <rect x="0" y="86" width="1" height="1" fill="#231f20"/>
    <rect x="282" y="86" width="1" height="1" fill="#231f20"/>
    <rect x="0" y="87" width="1" height="1" fill="#231f20"/>
    <rect x="282" y="87" width="1" height="1" fill="#231f20"/>
    <rect x="0" y="88" width="1" height="1" fill="#231f20"/>
    <rect x="282" y="88" width="1" height="1" fill="#231f20"/>
    <rect x="0" y="89" width="1" height="1" fill="#231f20"/>
    <rect x="282" y="89" width="1" height="1" fill="#231f20"/>
    <rect x="0" y="90" width="283" height="1" fill="#231f20"/>
    <rect x="0" y="91" width="1" height="1" fill="#231f20"/>
    <rect x="282" y="91" width="1" height="1" fill="#231f20"/>
    <rect x="0" y="92" width="1" height="1" fill="#231f20"/>
    <rect x="282" y="92" width="1" height="1" fill="#231f20"/>
    <rect x="0" y="93" width="1" height="1" fill="#231f20"/>
    <rect x="282" y="93" width="1" height="1" fill="#231f20"/>
    <rect x="0" y="94" width="1" height="1" fill="#231f20"/>
    <rect x="282" y="94" width="1" height="1" fill="#231f20"/>
    <rect x="0" y="95" width="1" height="1" fill="#231f20"/>
    <rect x="282" y="95" width="1" height="1" fill="#231f20"/>
    <rect x="0" y="96" width="1" height="1" fill="#231f20"/>
    <rect x="282" y="96" width="1" height="1" fill="#231f20"/>
    <rect x="0" y="97" width="1" height="1" fill="#231f20"/>
    <rect x="282" y="97" width="1" height="1" fill="#231f20"/>
    <rect x="0" y="98" width="1" height="1" fill="#231f20"/>
    <rect x="282" y="98" width="1" height="1" fill="#231f20"/>
    <rect x="0" y="99" width="1" height="1" fill="#231f20"/>
    <rect x="282" y="99" width="1" height="1" fill="#231f20"/>
    <rect x="0" y="100" width="1" height="1" fill="#231f20"/>
    <rect x="282" y="100" width="1" height="1" fill="#231f20"/>
    <rect x="0" y="101" width="1" height="1" fill="#231f20"/>
    <rect x="282" y="101" width="1" height="1" fill="#231f20"/>
    <rect x="0" y="102" width="1" height="1" fill="#231f20"/>
    <rect x="282" y="102" width="1" height="1" fill="#231f20"/>
    <rect x="0" y="103" width="1" height="1" fill="#231f20"/>
    <rect x="282" y="103" width="1" height="1" fill="#231f20"/>
    <rect x="0" y="104" width="1" height="1" fill="#231f20"/>
    <rect x="282" y="104" width="1" height="1" fill="#231f20"/>
    <rect x="0" y="105" width="1" height="1" fill="#231f20"/>
    <rect x="282" y="105" width="1" height="1" fill="#231f20"/>
    <rect x="0" y="106" width="1" height="1" fill="#231f20"/>
    <rect x="282" y="106" width="1" height="1" fill="#231f20"/>
    <rect x="0" y="107" width="1" height="1" fill="#231f20"/>
    <rect x="44" y="107" width="3" height="1" fill="#231f20"/>
    <rect x="202" y="107" width="3" height="1" fill="#231f20"/>
    <rect x="282" y="107" width="1" height="1" fill="#231f20"/>
    <rect x="0" y="108" width="1" height="1" fill="#231f20"/>
    <rect x="42" y="108" width="2" height="1" fill="#231f20"/>
    <rect x="47" y="108" width="2" height="1" fill="#231f20"/>
    <rect x="200" y="108" width="2" height="1" fill="#231f20"/>
    <rect x="205" y="108" width="2" height="1" fill="#231f20"/>
    <rect x="282" y="108" width="1" height="1" fill="#231f20"/>
    <rect x="0" y="109" width="1" height="1" fill="#231f20"/>
    <rect x="41" y="109" width="1" height="1" fill="#231f20"/>
    <rect x="49" y="109" width="1" height="1" fill="#231f20"/>
    <rect x="199" y="109" width="1" height="1" fill="#231f20"/>
    <rect x="207" y="109" width="1" height="1" fill="#231f20"/>
    <rect x="282" y="109" width="1" height="1" fill="#231f20"/>
    <rect x="0" y="110" width="1" height="1" fill="#231f20"/>
    <rect x="41" y="110" width="1" height="1" fill="#231f20"/>
    <rect x="44" y="110" width="4" height="1" fill="#231f20"/>
    <rect x="50" y="110" width="1" height="1" fill="#231f20"/>
    <rect x="123" y="110" width="4" height="1" fill="#231f20"/>
    <rect x="199" y="110" width="1" height="1" fill="#231f20"/>
    <rect x="202" y="110" width="4" height="1" fill="#231f20"/>
    <rect x="208" y="110" width="1" height="1" fill="#231f20"/>
    <rect x="282" y="110" width="1" height="1" fill="#231f20"/>
    <rect x="0" y="111" width="1" height="1" fill="#231f20"/>
    <rect x="40" y="111" width="1" height="1" fill="#231f20"/>
    <rect x="43" y="111" width="6" height="1" fill="#231f20"/>
    <rect x="51" y="111" width="1" height="1" fill="#231f20"/>
    <rect x="122" y="111" width="6" height="1" fill="#231f20"/>
    <rect x="198" y="111" width="1" height="1" fill="#231f20"/>
    <rect x="201" y="111" width="6" height="1" fill="#231f20"/>
    <rect x="209" y="111" width="1" height="1" fill="#231f20"/>
    <rect x="282" y="111" width="1" height="1" fill="#231f20"/>
    <rect x="0" y="112" width="1" height="1" fill="#231f20"/>
    <rect x="40" y="112" width="1" height="1" fill="#231f20"/>
    <rect x="43" y="112" width="6" height="1" fill="#231f20"/>
    <rect x="51" y="112" width="1" height="1" fill="#231f20"/>
    <rect x="122" y="112" width="6" height="1" fill="#231f20"/>
    <rect x="198" y="112" width="1" height="1" fill="#231f20"/>
    <rect x="201" y="112" width="6" height="1" fill="#231f20"/>
    <rect x="209" y="112" width="1" height="1" fill="#231f20"/>
    <rect x="282" y="112" width="1" height="1" fill="#231f20"/>
    <rect x="0" y="113" width="1" height="1" fill="#231f20"/>
    <rect x="40" y="113" width="1" height="1" fill="#231f20"/>
    <rect x="43" y="113" width="6" height="1" fill="#231f20"/>
    <rect x="51" y="113" width="1" height="1" fill="#231f20"/>
    <rect x="122" y="113" width="6" height="1" fill="#231f20"/>
    <rect x="198" y="113" width="1" height="1" fill="#231f20"/>
    <rect x="201" y="113" width="6" height="1" fill="#231f20"/>
    <rect x="209" y="113" width="1" height="1" fill="#231f20"/>
    <rect x="282" y="113" width="1" height="1" fill="#231f20"/>
    <rect x="0" y="114" width="1" height="1" fill="#231f20"/>
    <rect x="40" y="114" width="1" height="1" fill="#231f20"/>
    <rect x="43" y="114" width="6" height="1" fill="#231f20"/>
    <rect x="51" y="114" width="1" height="1" fill="#231f20"/>
    <rect x="122" y="114" width="6" height="1" fill="#231f20"/>
    <rect x="198" y="114" width="1" height="1" fill="#231f20"/>
    <rect x="201" y="114" width="6" height="1" fill="#231f20"/>
    <rect x="209" y="114" width="1" height="1" fill="#231f20"/>
    <rect x="282" y="114" width="1" height="1" fill="#231f20"/>
    <rect x="0" y="115" width="1" height="1" fill="#231f20"/>
    <rect x="40" y="115" width="1" height="1" fill="#231f20"/>
    <rect x="44" y="115" width="4" height="1" fill="#231f20"/>
    <rect x="51" y="115" width="1" height="1" fill="#231f20"/>
    <rect x="123" y="115" width="4" height="1" fill="#231f20"/>
    <rect x="198" y="115" width="1" height="1" fill="#231f20"/>
    <rect x="202" y="115" width="4" height="1" fill="#231f20"/>
    <rect x="209" y="115" width="1" height="1" fill="#231f20"/>
    <rect x="282" y="115" width="1" height="1" fill="#231f20"/>
    <rect x="0" y="116" width="1" height="1" fill="#231f20"/>
    <rect x="41" y="116" width="1" height="1" fill="#231f20"/>
    <rect x="45" y="116" width="1" height="1" fill="#231f20"/>
    <rect x="50" y="116" width="1" height="1" fill="#231f20"/>
    <rect x="124" y="116" width="1" height="1" fill="#231f20"/>
    <rect x="199" y="116" width="1" height="1" fill="#231f20"/>
    <rect x="203" y="116" width="1" height="1" fill="#231f20"/>
    <rect x="208" y="116" width="1" height="1" fill="#231f20"/>
    <rect x="282" y="116" width="1" height="1" fill="#231f20"/>
    <rect x="0" y="117" width="1" height="1" fill="#231f20"/>
    <rect x="41" y="117" width="2" height="1" fill="#231f20"/>
    <rect x="49" y="117" width="1" height="1" fill="#231f20"/>
    <rect x="199" y="117" width="2" height="1" fill="#231f20"/>
    <rect x="207" y="117" width="1" height="1" fill="#231f20"/>
    <rect x="282" y="117" width="1" height="1" fill="#231f20"/>
    <rect x="0" y="118" width="1" height="1" fill="#231f20"/>
    <rect x="43" y="118" width="2" height="1" fill="#231f20"/>
    <rect x="47" y="118" width="2" height="1" fill="#231f20"/>
    <rect x="201" y="118" width="2" height="1" fill="#231f20"/>
    <rect x="205" y="118" width="2" height="1" fill="#231f20"/>
    <rect x="282" y="118" width="1" height="1" fill="#231f20"/>
    <rect x="0" y="119" width="1" height="1" fill="#231f20"/>
    <rect x="45" y="119" width="2" height="1" fill="#231f20"/>
    <rect x="203" y="119" width="2" height="1" fill="#231f20"/>
    <rect x="282" y="119" width="1" height="1" fill="#231f20"/>
    <rect x="0" y="120" width="1" height="1" fill="#231f20"/>
    <rect x="282" y="120" width="1" height="1" fill="#231f20"/>
    <rect x="0" y="121" width="1" height="1" fill="#231f20"/>
    <rect x="282" y="121" width="1" height="1" fill="#231f20"/>
    <rect x="0" y="122" width="1" height="1" fill="#231f20"/>
    <rect x="282" y="122" width="1" height="1" fill="#231f20"/>
    <rect x="0" y="123" width="1" height="1" fill="#231f20"/>
    <rect x="282" y="123" width="1" height="1" fill="#231f20"/>
    <rect x="0" y="124" width="1" height="1" fill="#231f20"/>
    <rect x="282" y="124" width="1" height="1" fill="#231f20"/>
    <rect x="0" y="125" width="1" height="1" fill="#231f20"/>
    <rect x="282" y="125" width="1" height="1" fill="#231f20"/>
    <rect x="0" y="126" width="1" height="1" fill="#231f20"/>
    <rect x="282" y="126" width="1" height="1" fill="#231f20"/>
    <rect x="0" y="127" width="1" height="1" fill="#231f20"/>
    <rect x="282" y="127" width="1" height="1" fill="#231f20"/>
    <rect x="0" y="128" width="1" height="1" fill="#231f20"/>
    <rect x="282" y="128" width="1" height="1" fill="#231f20"/>
    <rect x="0" y="129" width="1" height="1" fill="#231f20"/>
    <rect x="282" y="129" width="1" height="1" fill="#231f20"/>
    <rect x="0" y="130" width="1" height="1" fill="#231f20"/>
    <rect x="282" y="130" width="1" height="1" fill="#231f20"/>
    <rect x="0" y="131" width="1" height="1" fill="#231f20"/>
    <rect x="282" y="131" width="1" height="1" fill="#231f20"/>
    <rect x="0" y="132" width="1" height="1" fill="#231f20"/>
    <rect x="282" y="132" width="1" height="1" fill="#231f20"/>
    <rect x="0" y="133" width="1" height="1" fill="#231f20"/>
    <rect x="282" y="133" width="1" height="1" fill="#231f20"/>
    <rect x="0" y="134" width="1" height="1" fill="#231f20"/>
    <rect x="282" y="134" width="1" height="1" fill="#231f20"/>
    <rect x="0" y="135" width="283" height="1" fill="#231f20"/>
  </g>
</svg>