<?xml version="1.0" encoding="UTF-8"?>
<svg xmlns="http://www.w3.org/2000/svg" viewBox="0 0 167 67" width="167" height="67">
  <!-- Auto-converted from legend-2353.png -->
  <rect x="0" y="0" width="167" height="67" fill="none"/>
  <g fill="#231f20" stroke="none">
    <rect x="0" y="0" width="167" height="1" fill="#231f20"/>
    <rect x="0" y="1" width="1" height="1" fill="#231f20"/>
    <rect x="166" y="1" width="1" height="1" fill="#231f20"/>
    <rect x="0" y="2" width="1" height="1" fill="#231f20"/>
    <rect x="166" y="2" width="1" height="1" fill="#231f20"/>
    <rect x="0" y="3" width="1" height="1" fill="#231f20"/>
    <rect x="166" y="3" width="1" height="1" fill="#231f20"/>
    <rect x="0" y="4" width="1" height="1" fill="#231f20"/>
    <rect x="166" y="4" width="1" height="1" fill="#231f20"/>
    <rect x="0" y="5" width="1" height="1" fill="#231f20"/>
    <rect x="24" y="5" width="9" height="1" fill="#231f20"/>
    <rect x="166" y="5" width="1" height="1" fill="#231f20"/>
    <rect x="0" y="6" width="1" height="1" fill="#231f20"/>
    <rect x="24" y="6" width="1" height="1" fill="#231f20"/>
    <rect x="32" y="6" width="1" height="1" fill="#231f20"/>
    <rect x="95" y="6" width="1" height="1" fill="#231f20"/>
    <rect x="128" y="6" width="1" height="1" fill="#231f20"/>
    <rect x="166" y="6" width="1" height="1" fill="#231f20"/>
    <rect x="0" y="7" width="1" height="1" fill="#231f20"/>
    <rect x="24" y="7" width="1" height="1" fill="#231f20"/>
    <rect x="32" y="7" width="1" height="1" fill="#231f20"/>
    <rect x="58" y="7" width="7" height="1" fill="#231f20"/>
    <rect x="95" y="7" width="1" height="1" fill="#231f20"/>
    <rect x="128" y="7" width="1" height="1" fill="#231f20"/>
    <rect x="166" y="7" width="1" height="1" fill="#231f20"/>
    <rect x="0" y="8" width="1" height="1" fill="#231f20"/>
    <rect x="24" y="8" width="1" height="1" fill="#231f20"/>
    <rect x="32" y="8" width="1" height="1" fill="#231f20"/>
    <rect x="57" y="8" width="1" height="1" fill="#231f20"/>
    <rect x="65" y="8" width="1" height="1" fill="#231f20"/>
    <rect x="95" y="8" width="1" height="1" fill="#231f20"/>
    <rect x="128" y="8" width="1" height="1" fill="#231f20"/>
    <rect x="166" y="8" width="1" height="1" fill="#231f20"/>
    <rect x="0" y="9" width="1" height="1" fill="#231f20"/>
    <rect x="24" y="9" width="1" height="1" fill="#231f20"/>
    <rect x="32" y="9" width="1" height="1" fill="#231f20"/>
    <rect x="56" y="9" width="1" height="1" fill="#231f20"/>
    <rect x="66" y="9" width="2" height="1" fill="#231f20"/>
    <rect x="95" y="9" width="1" height="1" fill="#231f20"/>
    <rect x="128" y="9" width="1" height="1" fill="#231f20"/>
    <rect x="166" y="9" width="1" height="1" fill="#231f20"/>
    <rect x="0" y="10" width="1" height="1" fill="#231f20"/>
    <rect x="24" y="10" width="1" height="1" fill="#231f20"/>
    <rect x="32" y="10" width="1" height="1" fill="#231f20"/>
    <rect x="55" y="10" width="1" height="1" fill="#231f20"/>
    <rect x="68" y="10" width="1" height="1" fill="#231f20"/>
    <rect x="95" y="10" width="1" height="1" fill="#231f20"/>
    <rect x="128" y="10" width="1" height="1" fill="#231f20"/>
    <rect x="166" y="10" width="1" height="1" fill="#231f20"/>
    <rect x="0" y="11" width="1" height="1" fill="#231f20"/>
    <rect x="24" y="11" width="1" height="1" fill="#231f20"/>
    <rect x="32" y="11" width="1" height="1" fill="#231f20"/>
    <rect x="56" y="11" width="1" height="1" fill="#231f20"/>
    <rect x="66" y="11" width="2" height="1" fill="#231f20"/>
    <rect x="90" y="11" width="10" height="1" fill="#231f20"/>
    <rect x="124" y="11" width="9" height="1" fill="#231f20"/>
    <rect x="166" y="11" width="1" height="1" fill="#231f20"/>
    <rect x="0" y="12" width="1" height="1" fill="#231f20"/>
    <rect x="24" y="12" width="1" height="1" fill="#231f20"/>
    <rect x="32" y="12" width="1" height="1" fill="#231f20"/>
    <rect x="57" y="12" width="2" height="1" fill="#231f20"/>
    <rect x="65" y="12" width="1" height="1" fill="#231f20"/>
    <rect x="95" y="12" width="1" height="1" fill="#231f20"/>
    <rect x="128" y="12" width="1" height="1" fill="#231f20"/>
    <rect x="166" y="12" width="1" height="1" fill="#231f20"/>
    <rect x="0" y="13" width="1" height="1" fill="#231f20"/>
    <rect x="24" y="13" width="1" height="1" fill="#231f20"/>
    <rect x="32" y="13" width="1" height="1" fill="#231f20"/>
    <rect x="59" y="13" width="1" height="1" fill="#231f20"/>
    <rect x="64" y="13" width="1" height="1" fill="#231f20"/>
    <rect x="95" y="13" width="1" height="1" fill="#231f20"/>
    <rect x="128" y="13" width="1" height="1" fill="#231f20"/>
    <rect x="166" y="13" width="1" height="1" fill="#231f20"/>
    <rect x="0" y="14" width="1" height="1" fill="#231f20"/>
    <rect x="24" y="14" width="1" height="1" fill="#231f20"/>
    <rect x="32" y="14" width="1" height="1" fill="#231f20"/>
    <rect x="60" y="14" width="1" height="1" fill="#231f20"/>
    <rect x="62" y="14" width="2" height="1" fill="#231f20"/>
    <rect x="95" y="14" width="1" height="1" fill="#231f20"/>
    <rect x="128" y="14" width="1" height="1" fill="#231f20"/>
    <rect x="166" y="14" width="1" height="1" fill="#231f20"/>
    <rect x="0" y="15" width="1" height="1" fill="#231f20"/>
    <rect x="24" y="15" width="1" height="1" fill="#231f20"/>
    <rect x="32" y="15" width="1" height="1" fill="#231f20"/>
    <rect x="61" y="15" width="1" height="1" fill="#231f20"/>
    <rect x="95" y="15" width="1" height="1" fill="#231f20"/>
    <rect x="128" y="15" width="1" height="1" fill="#231f20"/>
    <rect x="166" y="15" width="1" height="1" fill="#231f20"/>
    <rect x="0" y="16" width="1" height="1" fill="#231f20"/>
    <rect x="24" y="16" width="9" height="1" fill="#231f20"/>
    <rect x="166" y="16" width="1" height="1" fill="#231f20"/>
    <rect x="0" y="17" width="1" height="1" fill="#231f20"/>
    <rect x="166" y="17" width="1" height="1" fill="#231f20"/>
    <rect x="0" y="18" width="1" height="1" fill="#231f20"/>
    <rect x="166" y="18" width="1" height="1" fill="#231f20"/>
    <rect x="0" y="19" width="1" height="1" fill="#231f20"/>
    <rect x="166" y="19" width="1" height="1" fill="#231f20"/>
    <rect x="0" y="20" width="1" height="1" fill="#231f20"/>
    <rect x="166" y="20" width="1" height="1" fill="#231f20"/>
    <rect x="0" y="21" width="1" height="1" fill="#231f20"/>
    <rect x="166" y="21" width="1" height="1" fill="#231f20"/>
    <rect x="0" y="22" width="167" height="1" fill="#231f20"/>
    <rect x="0" y="23" width="1" height="1" fill="#231f20"/>
    <rect x="166" y="23" width="1" height="1" fill="#231f20"/>
    <rect x="0" y="24" width="1" height="1" fill="#231f20"/>
    <rect x="166" y="24" width="1" height="1" fill="#231f20"/>
    <rect x="0" y="25" width="1" height="1" fill="#231f20"/>
    <rect x="166" y="25" width="1" height="1" fill="#231f20"/>
    <rect x="0" y="26" width="1" height="1" fill="#231f20"/>
    <rect x="166" y="26" width="1" height="1" fill="#231f20"/>
    <rect x="0" y="27" width="1" height="1" fill="#231f20"/>
    <rect x="135" y="27" width="9" height="1" fill="#231f20"/>
    <rect x="166" y="27" width="1" height="1" fill="#231f20"/>
    <rect x="0" y="28" width="1" height="1" fill="#231f20"/>
    <rect x="135" y="28" width="1" height="1" fill="#231f20"/>
    <rect x="143" y="28" width="1" height="1" fill="#231f20"/>
    <rect x="166" y="28" width="1" height="1" fill="#231f20"/>
    <rect x="0" y="29" width="1" height="1" fill="#231f20"/>
    <rect x="39" y="29" width="1" height="1" fill="#231f20"/>
    <rect x="72" y="29" width="1" height="1" fill="#231f20"/>
    <rect x="135" y="29" width="1" height="1" fill="#231f20"/>
    <rect x="143" y="29" width="1" height="1" fill="#231f20"/>
    <rect x="166" y="29" width="1" height="1" fill="#231f20"/>
    <rect x="0" y="30" width="1" height="1" fill="#231f20"/>
    <rect x="39" y="30" width="1" height="1" fill="#231f20"/>
    <rect x="72" y="30" width="1" height="1" fill="#231f20"/>
    <rect x="102" y="30" width="8" height="1" fill="#231f20"/>
    <rect x="135" y="30" width="1" height="1" fill="#231f20"/>
    <rect x="143" y="30" width="1" height="1" fill="#231f20"/>
    <rect x="166" y="30" width="1" height="1" fill="#231f20"/>
    <rect x="0" y="31" width="1" height="1" fill="#231f20"/>
    <rect x="39" y="31" width="1" height="1" fill="#231f20"/>
    <rect x="72" y="31" width="1" height="1" fill="#231f20"/>
    <rect x="100" y="31" width="2" height="1" fill="#231f20"/>
    <rect x="110" y="31" width="2" height="1" fill="#231f20"/>
    <rect x="135" y="31" width="1" height="1" fill="#231f20"/>
    <rect x="143" y="31" width="1" height="1" fill="#231f20"/>
    <rect x="166" y="31" width="1" height="1" fill="#231f20"/>
    <rect x="0" y="32" width="1" height="1" fill="#231f20"/>
    <rect x="39" y="32" width="1" height="1" fill="#231f20"/>
    <rect x="72" y="32" width="1" height="1" fill="#231f20"/>
    <rect x="99" y="32" width="1" height="1" fill="#231f20"/>
    <rect x="112" y="32" width="1" height="1" fill="#231f20"/>
    <rect x="135" y="32" width="1" height="1" fill="#231f20"/>
    <rect x="143" y="32" width="1" height="1" fill="#231f20"/>
    <rect x="166" y="32" width="1" height="1" fill="#231f20"/>
    <rect x="0" y="33" width="1" height="1" fill="#231f20"/>
    <rect x="35" y="33" width="9" height="1" fill="#231f20"/>
    <rect x="68" y="33" width="10" height="1" fill="#231f20"/>
    <rect x="100" y="33" width="2" height="1" fill="#231f20"/>
    <rect x="111" y="33" width="1" height="1" fill="#231f20"/>
    <rect x="135" y="33" width="1" height="1" fill="#231f20"/>
    <rect x="143" y="33" width="1" height="1" fill="#231f20"/>
    <rect x="166" y="33" width="1" height="1" fill="#231f20"/>
    <rect x="0" y="34" width="1" height="1" fill="#231f20"/>
    <rect x="39" y="34" width="1" height="1" fill="#231f20"/>
    <rect x="72" y="34" width="1" height="1" fill="#231f20"/>
    <rect x="102" y="34" width="1" height="1" fill="#231f20"/>
    <rect x="109" y="34" width="2" height="1" fill="#231f20"/>
    <rect x="135" y="34" width="1" height="1" fill="#231f20"/>
    <rect x="143" y="34" width="1" height="1" fill="#231f20"/>
    <rect x="166" y="34" width="1" height="1" fill="#231f20"/>
    <rect x="0" y="35" width="1" height="1" fill="#231f20"/>
    <rect x="39" y="35" width="1" height="1" fill="#231f20"/>
    <rect x="72" y="35" width="1" height="1" fill="#231f20"/>
    <rect x="103" y="35" width="1" height="1" fill="#231f20"/>
    <rect x="108" y="35" width="1" height="1" fill="#231f20"/>
    <rect x="135" y="35" width="1" height="1" fill="#231f20"/>
    <rect x="143" y="35" width="1" height="1" fill="#231f20"/>
    <rect x="166" y="35" width="1" height="1" fill="#231f20"/>
    <rect x="0" y="36" width="1" height="1" fill="#231f20"/>
    <rect x="39" y="36" width="1" height="1" fill="#231f20"/>
    <rect x="72" y="36" width="1" height="1" fill="#231f20"/>
    <rect x="104" y="36" width="2" height="1" fill="#231f20"/>
    <rect x="107" y="36" width="1" height="1" fill="#231f20"/>
    <rect x="135" y="36" width="1" height="1" fill="#231f20"/>
    <rect x="143" y="36" width="1" height="1" fill="#231f20"/>
    <rect x="166" y="36" width="1" height="1" fill="#231f20"/>
    <rect x="0" y="37" width="1" height="1" fill="#231f20"/>
    <rect x="39" y="37" width="1" height="1" fill="#231f20"/>
    <rect x="72" y="37" width="1" height="1" fill="#231f20"/>
    <rect x="106" y="37" width="1" height="1" fill="#231f20"/>
    <rect x="135" y="37" width="1" height="1" fill="#231f20"/>
    <rect x="143" y="37" width="1" height="1" fill="#231f20"/>
    <rect x="166" y="37" width="1" height="1" fill="#231f20"/>
    <rect x="0" y="38" width="1" height="1" fill="#231f20"/>
    <rect x="135" y="38" width="9" height="1" fill="#231f20"/>
    <rect x="166" y="38" width="1" height="1" fill="#231f20"/>
    <rect x="0" y="39" width="1" height="1" fill="#231f20"/>
    <rect x="166" y="39" width="1" height="1" fill="#231f20"/>
    <rect x="0" y="40" width="1" height="1" fill="#231f20"/>
    <rect x="166" y="40" width="1" height="1" fill="#231f20"/>
    <rect x="0" y="41" width="1" height="1" fill="#231f20"/>
    <rect x="166" y="41" width="1" height="1" fill="#231f20"/>
    <rect x="0" y="42" width="1" height="1" fill="#231f20"/>
    <rect x="166" y="42" width="1" height="1" fill="#231f20"/>
    <rect x="0" y="43" width="1" height="1" fill="#231f20"/>
    <rect x="166" y="43" width="1" height="1" fill="#231f20"/>
    <rect x="0" y="44" width="167" height="1" fill="#231f20"/>
    <rect x="0" y="45" width="1" height="1" fill="#231f20"/>
    <rect x="166" y="45" width="1" height="1" fill="#231f20"/>
    <rect x="0" y="46" width="1" height="1" fill="#231f20"/>
    <rect x="166" y="46" width="1" height="1" fill="#231f20"/>
    <rect x="0" y="47" width="1" height="1" fill="#231f20"/>
    <rect x="166" y="47" width="1" height="1" fill="#231f20"/>
    <rect x="0" y="48" width="1" height="1" fill="#231f20"/>
    <rect x="166" y="48" width="1" height="1" fill="#231f20"/>
    <rect x="0" y="49" width="1" height="1" fill="#231f20"/>
    <rect x="24" y="49" width="9" height="1" fill="#231f20"/>
    <rect x="166" y="49" width="1" height="1" fill="#231f20"/>
    <rect x="0" y="50" width="1" height="1" fill="#231f20"/>
    <rect x="24" y="50" width="1" height="1" fill="#231f20"/>
    <rect x="32" y="50" width="1" height="1" fill="#231f20"/>
    <rect x="166" y="50" width="1" height="1" fill="#231f20"/>
    <rect x="0" y="51" width="1" height="1" fill="#231f20"/>
    <rect x="24" y="51" width="1" height="1" fill="#231f20"/>
    <rect x="32" y="51" width="1" height="1" fill="#231f20"/>
    <rect x="95" y="51" width="1" height="1" fill="#231f20"/>
    <rect x="128" y="51" width="1" height="1" fill="#231f20"/>
    <rect x="166" y="51" width="1" height="1" fill="#231f20"/>
    <rect x="0" y="52" width="1" height="1" fill="#231f20"/>
    <rect x="24" y="52" width="1" height="1" fill="#231f20"/>
    <rect x="32" y="52" width="1" height="1" fill="#231f20"/>
    <rect x="58" y="52" width="8" height="1" fill="#231f20"/>
    <rect x="95" y="52" width="1" height="1" fill="#231f20"/>
    <rect x="128" y="52" width="1" height="1" fill="#231f20"/>
    <rect x="166" y="52" width="1" height="1" fill="#231f20"/>
    <rect x="0" y="53" width="1" height="1" fill="#231f20"/>
    <rect x="24" y="53" width="1" height="1" fill="#231f20"/>
    <rect x="32" y="53" width="1" height="1" fill="#231f20"/>
    <rect x="56" y="53" width="2" height="1" fill="#231f20"/>
    <rect x="66" y="53" width="2" height="1" fill="#231f20"/>
    <rect x="95" y="53" width="1" height="1" fill="#231f20"/>
    <rect x="128" y="53" width="1" height="1" fill="#231f20"/>
    <rect x="166" y="53" width="1" height="1" fill="#231f20"/>
    <rect x="0" y="54" width="1" height="1" fill="#231f20"/>
    <rect x="24" y="54" width="1" height="1" fill="#231f20"/>
    <rect x="32" y="54" width="1" height="1" fill="#231f20"/>
    <rect x="55" y="54" width="1" height="1" fill="#231f20"/>
    <rect x="68" y="54" width="1" height="1" fill="#231f20"/>
    <rect x="95" y="54" width="1" height="1" fill="#231f20"/>
    <rect x="128" y="54" width="1" height="1" fill="#231f20"/>
    <rect x="166" y="54" width="1" height="1" fill="#231f20"/>
    <rect x="0" y="55" width="1" height="1" fill="#231f20"/>
    <rect x="24" y="55" width="1" height="1" fill="#231f20"/>
    <rect x="32" y="55" width="1" height="1" fill="#231f20"/>
    <rect x="56" y="55" width="1" height="1" fill="#231f20"/>
    <rect x="66" y="55" width="2" height="1" fill="#231f20"/>
    <rect x="90" y="55" width="10" height="1" fill="#231f20"/>
    <rect x="124" y="55" width="9" height="1" fill="#231f20"/>
    <rect x="166" y="55" width="1" height="1" fill="#231f20"/>
    <rect x="0" y="56" width="1" height="1" fill="#231f20"/>
    <rect x="24" y="56" width="1" height="1" fill="#231f20"/>
    <rect x="32" y="56" width="1" height="1" fill="#231f20"/>
    <rect x="57" y="56" width="2" height="1" fill="#231f20"/>
    <rect x="65" y="56" width="1" height="1" fill="#231f20"/>
    <rect x="95" y="56" width="1" height="1" fill="#231f20"/>
    <rect x="128" y="56" width="1" height="1" fill="#231f20"/>
    <rect x="166" y="56" width="1" height="1" fill="#231f20"/>
    <rect x="0" y="57" width="1" height="1" fill="#231f20"/>
    <rect x="24" y="57" width="1" height="1" fill="#231f20"/>
    <rect x="32" y="57" width="1" height="1" fill="#231f20"/>
    <rect x="59" y="57" width="1" height="1" fill="#231f20"/>
    <rect x="64" y="57" width="1" height="1" fill="#231f20"/>
    <rect x="95" y="57" width="1" height="1" fill="#231f20"/>
    <rect x="128" y="57" width="1" height="1" fill="#231f20"/>
    <rect x="166" y="57" width="1" height="1" fill="#231f20"/>
    <rect x="0" y="58" width="1" height="1" fill="#231f20"/>
    <rect x="24" y="58" width="1" height="1" fill="#231f20"/>
    <rect x="32" y="58" width="1" height="1" fill="#231f20"/>
    <rect x="60" y="58" width="1" height="1" fill="#231f20"/>
    <rect x="62" y="58" width="2" height="1" fill="#231f20"/>
    <rect x="95" y="58" width="1" height="1" fill="#231f20"/>
    <rect x="128" y="58" width="1" height="1" fill="#231f20"/>
    <rect x="166" y="58" width="1" height="1" fill="#231f20"/>
    <rect x="0" y="59" width="1" height="1" fill="#231f20"/>
    <rect x="24" y="59" width="1" height="1" fill="#231f20"/>
    <rect x="32" y="59" width="1" height="1" fill="#231f20"/>
    <rect x="61" y="59" width="1" height="1" fill="#231f20"/>
    <rect x="95" y="59" width="1" height="1" fill="#231f20"/>
    <rect x="128" y="59" width="1" height="1" fill="#231f20"/>
    <rect x="166" y="59" width="1" height="1" fill="#231f20"/>
    <rect x="0" y="60" width="1" height="1" fill="#231f20"/>
    <rect x="24" y="60" width="9" height="1" fill="#231f20"/>
    <rect x="166" y="60" width="1" height="1" fill="#231f20"/>
    <rect x="0" y="61" width="1" height="1" fill="#231f20"/>
    <rect x="166" y="61" width="1" height="1" fill="#231f20"/>
    <rect x="0" y="62" width="1" height="1" fill="#231f20"/>
    <rect x="166" y="62" width="1" height="1" fill="#231f20"/>
    <rect x="0" y="63" width="1" height="1" fill="#231f20"/>
    <rect x="166" y="63" width="1" height="1" fill="#231f20"/>
    <rect x="0" y="64" width="1" height="1" fill="#231f20"/>
    <rect x="166" y="64" width="1" height="1" fill="#231f20"/>
    <rect x="0" y="65" width="1" height="1" fill="#231f20"/>
    <rect x="166" y="65" width="1" height="1" fill="#231f20"/>
    <rect x="0" y="66" width="167" height="1" fill="#231f20"/>
  </g>
</svg>