<?xml version="1.0" encoding="UTF-8"?>
<svg xmlns="http://www.w3.org/2000/svg" viewBox="0 0 313 212" width="313" height="212">
  <!-- Auto-converted from legend-2795.png -->
  <rect x="0" y="0" width="313" height="212" fill="none"/>
  <g fill="#888686" stroke="none">
    <rect x="2" y="2" width="311" height="1" fill="#888686"/>
    <rect x="1" y="3" width="312" height="1" fill="#888686"/>
    <rect x="1" y="4" width="312" height="1" fill="#888686"/>
    <rect x="1" y="5" width="312" height="1" fill="#888686"/>
    <rect x="1" y="6" width="5" height="1" fill="#888686"/>
    <rect x="307" y="6" width="6" height="1" fill="#888686"/>
    <rect x="1" y="7" width="5" height="1" fill="#888686"/>
    <rect x="307" y="7" width="6" height="1" fill="#888686"/>
    <rect x="1" y="8" width="5" height="1" fill="#888686"/>
    <rect x="307" y="8" width="6" height="1" fill="#888686"/>
    <rect x="1" y="9" width="5" height="1" fill="#888686"/>
    <rect x="307" y="9" width="6" height="1" fill="#888686"/>
    <rect x="1" y="10" width="5" height="1" fill="#888686"/>
    <rect x="307" y="10" width="6" height="1" fill="#888686"/>
    <rect x="1" y="11" width="5" height="1" fill="#888686"/>
    <rect x="307" y="11" width="6" height="1" fill="#888686"/>
    <rect x="1" y="12" width="5" height="1" fill="#888686"/>
    <rect x="307" y="12" width="6" height="1" fill="#888686"/>
    <rect x="1" y="13" width="5" height="1" fill="#888686"/>
    <rect x="307" y="13" width="6" height="1" fill="#888686"/>
    <rect x="1" y="14" width="5" height="1" fill="#888686"/>
    <rect x="307" y="14" width="6" height="1" fill="#888686"/>
    <rect x="1" y="15" width="5" height="1" fill="#888686"/>
    <rect x="307" y="15" width="6" height="1" fill="#888686"/>
    <rect x="1" y="16" width="5" height="1" fill="#888686"/>
    <rect x="307" y="16" width="6" height="1" fill="#888686"/>
    <rect x="1" y="17" width="5" height="1" fill="#888686"/>
    <rect x="307" y="17" width="6" height="1" fill="#888686"/>
    <rect x="1" y="18" width="5" height="1" fill="#888686"/>
    <rect x="307" y="18" width="6" height="1" fill="#888686"/>
    <rect x="1" y="19" width="5" height="1" fill="#888686"/>
    <rect x="307" y="19" width="6" height="1" fill="#888686"/>
    <rect x="1" y="20" width="5" height="1" fill="#888686"/>
    <rect x="307" y="20" width="6" height="1" fill="#888686"/>
    <rect x="1" y="21" width="5" height="1" fill="#888686"/>
    <rect x="307" y="21" width="6" height="1" fill="#888686"/>
    <rect x="1" y="22" width="5" height="1" fill="#888686"/>
    <rect x="307" y="22" width="6" height="1" fill="#888686"/>
    <rect x="1" y="23" width="5" height="1" fill="#888686"/>
    <rect x="307" y="23" width="6" height="1" fill="#888686"/>
    <rect x="1" y="24" width="5" height="1" fill="#888686"/>
    <rect x="307" y="24" width="6" height="1" fill="#888686"/>
    <rect x="1" y="25" width="5" height="1" fill="#888686"/>
    <rect x="307" y="25" width="6" height="1" fill="#888686"/>
    <rect x="1" y="26" width="5" height="1" fill="#888686"/>
    <rect x="307" y="26" width="6" height="1" fill="#888686"/>
    <rect x="1" y="27" width="5" height="1" fill="#888686"/>
    <rect x="307" y="27" width="6" height="1" fill="#888686"/>
    <rect x="1" y="28" width="5" height="1" fill="#888686"/>
    <rect x="307" y="28" width="6" height="1" fill="#888686"/>
    <rect x="1" y="29" width="5" height="1" fill="#888686"/>
    <rect x="307" y="29" width="6" height="1" fill="#888686"/>
    <rect x="1" y="30" width="5" height="1" fill="#888686"/>
    <rect x="38" y="30" width="234" height="1" fill="#888686"/>
    <rect x="307" y="30" width="6" height="1" fill="#888686"/>
    <rect x="1" y="31" width="5" height="1" fill="#888686"/>
    <rect x="36" y="31" width="238" height="1" fill="#888686"/>
    <rect x="307" y="31" width="6" height="1" fill="#888686"/>
    <rect x="1" y="32" width="5" height="1" fill="#888686"/>
    <rect x="36" y="32" width="238" height="1" fill="#888686"/>
    <rect x="307" y="32" width="6" height="1" fill="#888686"/>
    <rect x="1" y="33" width="5" height="1" fill="#888686"/>
    <rect x="35" y="33" width="239" height="1" fill="#888686"/>
    <rect x="307" y="33" width="6" height="1" fill="#888686"/>
    <rect x="1" y="34" width="5" height="1" fill="#888686"/>
    <rect x="35" y="34" width="4" height="1" fill="#888686"/>
    <rect x="270" y="34" width="4" height="1" fill="#888686"/>
    <rect x="307" y="34" width="6" height="1" fill="#888686"/>
    <rect x="1" y="35" width="5" height="1" fill="#888686"/>
    <rect x="35" y="35" width="4" height="1" fill="#888686"/>
    <rect x="270" y="35" width="4" height="1" fill="#888686"/>
    <rect x="307" y="35" width="6" height="1" fill="#888686"/>
    <rect x="1" y="36" width="5" height="1" fill="#888686"/>
    <rect x="35" y="36" width="4" height="1" fill="#888686"/>
    <rect x="270" y="36" width="4" height="1" fill="#888686"/>
    <rect x="307" y="36" width="6" height="1" fill="#888686"/>
    <rect x="1" y="37" width="5" height="1" fill="#888686"/>
    <rect x="35" y="37" width="4" height="1" fill="#888686"/>
    <rect x="270" y="37" width="4" height="1" fill="#888686"/>
    <rect x="307" y="37" width="6" height="1" fill="#888686"/>
    <rect x="1" y="38" width="5" height="1" fill="#888686"/>
    <rect x="35" y="38" width="4" height="1" fill="#888686"/>
    <rect x="270" y="38" width="4" height="1" fill="#888686"/>
    <rect x="307" y="38" width="6" height="1" fill="#888686"/>
    <rect x="1" y="39" width="5" height="1" fill="#888686"/>
    <rect x="35" y="39" width="4" height="1" fill="#888686"/>
    <rect x="270" y="39" width="4" height="1" fill="#888686"/>
    <rect x="307" y="39" width="6" height="1" fill="#888686"/>
    <rect x="1" y="40" width="5" height="1" fill="#888686"/>
    <rect x="35" y="40" width="4" height="1" fill="#888686"/>
    <rect x="270" y="40" width="4" height="1" fill="#888686"/>
    <rect x="307" y="40" width="6" height="1" fill="#888686"/>
    <rect x="1" y="41" width="5" height="1" fill="#888686"/>
    <rect x="35" y="41" width="4" height="1" fill="#888686"/>
    <rect x="270" y="41" width="4" height="1" fill="#888686"/>
    <rect x="307" y="41" width="6" height="1" fill="#888686"/>
    <rect x="1" y="42" width="5" height="1" fill="#888686"/>
    <rect x="35" y="42" width="4" height="1" fill="#888686"/>
    <rect x="270" y="42" width="4" height="1" fill="#888686"/>
    <rect x="307" y="42" width="6" height="1" fill="#888686"/>
    <rect x="1" y="43" width="5" height="1" fill="#888686"/>
    <rect x="35" y="43" width="4" height="1" fill="#888686"/>
    <rect x="270" y="43" width="4" height="1" fill="#888686"/>
    <rect x="307" y="43" width="6" height="1" fill="#888686"/>
    <rect x="1" y="44" width="5" height="1" fill="#888686"/>
    <rect x="35" y="44" width="4" height="1" fill="#888686"/>
    <rect x="270" y="44" width="4" height="1" fill="#888686"/>
    <rect x="307" y="44" width="6" height="1" fill="#888686"/>
    <rect x="1" y="45" width="5" height="1" fill="#888686"/>
    <rect x="35" y="45" width="4" height="1" fill="#888686"/>
    <rect x="270" y="45" width="4" height="1" fill="#888686"/>
    <rect x="307" y="45" width="6" height="1" fill="#888686"/>
    <rect x="1" y="46" width="5" height="1" fill="#888686"/>
    <rect x="35" y="46" width="4" height="1" fill="#888686"/>
    <rect x="270" y="46" width="4" height="1" fill="#888686"/>
    <rect x="307" y="46" width="6" height="1" fill="#888686"/>
    <rect x="1" y="47" width="5" height="1" fill="#888686"/>
    <rect x="35" y="47" width="4" height="1" fill="#888686"/>
    <rect x="270" y="47" width="4" height="1" fill="#888686"/>
    <rect x="307" y="47" width="6" height="1" fill="#888686"/>
    <rect x="1" y="48" width="5" height="1" fill="#888686"/>
    <rect x="35" y="48" width="4" height="1" fill="#888686"/>
    <rect x="270" y="48" width="4" height="1" fill="#888686"/>
    <rect x="307" y="48" width="6" height="1" fill="#888686"/>
    <rect x="1" y="49" width="5" height="1" fill="#888686"/>
    <rect x="35" y="49" width="4" height="1" fill="#888686"/>
    <rect x="270" y="49" width="4" height="1" fill="#888686"/>
    <rect x="307" y="49" width="6" height="1" fill="#888686"/>
    <rect x="1" y="50" width="5" height="1" fill="#888686"/>
    <rect x="35" y="50" width="4" height="1" fill="#888686"/>
    <rect x="270" y="50" width="4" height="1" fill="#888686"/>
    <rect x="307" y="50" width="6" height="1" fill="#888686"/>
    <rect x="1" y="51" width="5" height="1" fill="#888686"/>
    <rect x="35" y="51" width="4" height="1" fill="#888686"/>
    <rect x="270" y="51" width="4" height="1" fill="#888686"/>
    <rect x="307" y="51" width="6" height="1" fill="#888686"/>
    <rect x="1" y="52" width="5" height="1" fill="#888686"/>
    <rect x="35" y="52" width="4" height="1" fill="#888686"/>
    <rect x="270" y="52" width="4" height="1" fill="#888686"/>
    <rect x="307" y="52" width="6" height="1" fill="#888686"/>
    <rect x="1" y="53" width="5" height="1" fill="#888686"/>
    <rect x="35" y="53" width="4" height="1" fill="#888686"/>
    <rect x="270" y="53" width="4" height="1" fill="#888686"/>
    <rect x="307" y="53" width="6" height="1" fill="#888686"/>
    <rect x="1" y="54" width="5" height="1" fill="#888686"/>
    <rect x="35" y="54" width="4" height="1" fill="#888686"/>
    <rect x="270" y="54" width="4" height="1" fill="#888686"/>
    <rect x="307" y="54" width="6" height="1" fill="#888686"/>
    <rect x="1" y="55" width="5" height="1" fill="#888686"/>
    <rect x="35" y="55" width="4" height="1" fill="#888686"/>
    <rect x="270" y="55" width="4" height="1" fill="#888686"/>
    <rect x="307" y="55" width="6" height="1" fill="#888686"/>
    <rect x="1" y="56" width="5" height="1" fill="#888686"/>
    <rect x="35" y="56" width="4" height="1" fill="#888686"/>
    <rect x="270" y="56" width="4" height="1" fill="#888686"/>
    <rect x="307" y="56" width="6" height="1" fill="#888686"/>
    <rect x="1" y="57" width="5" height="1" fill="#888686"/>
    <rect x="35" y="57" width="4" height="1" fill="#888686"/>
    <rect x="270" y="57" width="4" height="1" fill="#888686"/>
    <rect x="307" y="57" width="6" height="1" fill="#888686"/>
    <rect x="1" y="58" width="5" height="1" fill="#888686"/>
    <rect x="35" y="58" width="4" height="1" fill="#888686"/>
    <rect x="270" y="58" width="4" height="1" fill="#888686"/>
    <rect x="307" y="58" width="6" height="1" fill="#888686"/>
    <rect x="1" y="59" width="5" height="1" fill="#888686"/>
    <rect x="35" y="59" width="4" height="1" fill="#888686"/>
    <rect x="270" y="59" width="4" height="1" fill="#888686"/>
    <rect x="307" y="59" width="6" height="1" fill="#888686"/>
    <rect x="1" y="60" width="5" height="1" fill="#888686"/>
    <rect x="35" y="60" width="4" height="1" fill="#888686"/>
    <rect x="270" y="60" width="4" height="1" fill="#888686"/>
    <rect x="307" y="60" width="6" height="1" fill="#888686"/>
    <rect x="1" y="61" width="5" height="1" fill="#888686"/>
    <rect x="35" y="61" width="4" height="1" fill="#888686"/>
    <rect x="270" y="61" width="4" height="1" fill="#888686"/>
    <rect x="307" y="61" width="6" height="1" fill="#888686"/>
    <rect x="1" y="62" width="5" height="1" fill="#888686"/>
    <rect x="35" y="62" width="4" height="1" fill="#888686"/>
    <rect x="270" y="62" width="4" height="1" fill="#888686"/>
    <rect x="307" y="62" width="6" height="1" fill="#888686"/>
    <rect x="1" y="63" width="5" height="1" fill="#888686"/>
    <rect x="35" y="63" width="4" height="1" fill="#888686"/>
    <rect x="270" y="63" width="4" height="1" fill="#888686"/>
    <rect x="307" y="63" width="6" height="1" fill="#888686"/>
    <rect x="1" y="64" width="5" height="1" fill="#888686"/>
    <rect x="35" y="64" width="4" height="1" fill="#888686"/>
    <rect x="270" y="64" width="4" height="1" fill="#888686"/>
    <rect x="307" y="64" width="6" height="1" fill="#888686"/>
    <rect x="1" y="65" width="5" height="1" fill="#888686"/>
    <rect x="35" y="65" width="4" height="1" fill="#888686"/>
    <rect x="270" y="65" width="4" height="1" fill="#888686"/>
    <rect x="307" y="65" width="6" height="1" fill="#888686"/>
    <rect x="1" y="66" width="5" height="1" fill="#888686"/>
    <rect x="35" y="66" width="4" height="1" fill="#888686"/>
    <rect x="270" y="66" width="4" height="1" fill="#888686"/>
    <rect x="307" y="66" width="6" height="1" fill="#888686"/>
    <rect x="1" y="67" width="5" height="1" fill="#888686"/>
    <rect x="35" y="67" width="4" height="1" fill="#888686"/>
    <rect x="270" y="67" width="4" height="1" fill="#888686"/>
    <rect x="307" y="67" width="6" height="1" fill="#888686"/>
    <rect x="1" y="68" width="5" height="1" fill="#888686"/>
    <rect x="35" y="68" width="4" height="1" fill="#888686"/>
    <rect x="270" y="68" width="4" height="1" fill="#888686"/>
    <rect x="307" y="68" width="6" height="1" fill="#888686"/>
    <rect x="1" y="69" width="5" height="1" fill="#888686"/>
    <rect x="35" y="69" width="4" height="1" fill="#888686"/>
    <rect x="270" y="69" width="4" height="1" fill="#888686"/>
    <rect x="307" y="69" width="6" height="1" fill="#888686"/>
    <rect x="1" y="70" width="5" height="1" fill="#888686"/>
    <rect x="35" y="70" width="4" height="1" fill="#888686"/>
    <rect x="270" y="70" width="4" height="1" fill="#888686"/>
    <rect x="307" y="70" width="6" height="1" fill="#888686"/>
    <rect x="1" y="71" width="5" height="1" fill="#888686"/>
    <rect x="35" y="71" width="4" height="1" fill="#888686"/>
    <rect x="270" y="71" width="4" height="1" fill="#888686"/>
    <rect x="307" y="71" width="6" height="1" fill="#888686"/>
    <rect x="1" y="72" width="5" height="1" fill="#888686"/>
    <rect x="35" y="72" width="4" height="1" fill="#888686"/>
    <rect x="270" y="72" width="4" height="1" fill="#888686"/>
    <rect x="307" y="72" width="6" height="1" fill="#888686"/>
    <rect x="1" y="73" width="5" height="1" fill="#888686"/>
    <rect x="35" y="73" width="4" height="1" fill="#888686"/>
    <rect x="270" y="73" width="4" height="1" fill="#888686"/>
    <rect x="307" y="73" width="6" height="1" fill="#888686"/>
    <rect x="1" y="74" width="5" height="1" fill="#888686"/>
    <rect x="35" y="74" width="4" height="1" fill="#888686"/>
    <rect x="270" y="74" width="4" height="1" fill="#888686"/>
    <rect x="307" y="74" width="6" height="1" fill="#888686"/>
    <rect x="1" y="75" width="5" height="1" fill="#888686"/>
    <rect x="35" y="75" width="4" height="1" fill="#888686"/>
    <rect x="270" y="75" width="4" height="1" fill="#888686"/>
    <rect x="307" y="75" width="6" height="1" fill="#888686"/>
    <rect x="1" y="76" width="5" height="1" fill="#888686"/>
    <rect x="35" y="76" width="4" height="1" fill="#888686"/>
    <rect x="270" y="76" width="4" height="1" fill="#888686"/>
    <rect x="307" y="76" width="6" height="1" fill="#888686"/>
    <rect x="1" y="77" width="5" height="1" fill="#888686"/>
    <rect x="35" y="77" width="4" height="1" fill="#888686"/>
    <rect x="270" y="77" width="4" height="1" fill="#888686"/>
    <rect x="307" y="77" width="6" height="1" fill="#888686"/>
    <rect x="1" y="78" width="5" height="1" fill="#888686"/>
    <rect x="35" y="78" width="4" height="1" fill="#888686"/>
    <rect x="270" y="78" width="4" height="1" fill="#888686"/>
    <rect x="307" y="78" width="6" height="1" fill="#888686"/>
    <rect x="1" y="79" width="5" height="1" fill="#888686"/>
    <rect x="35" y="79" width="4" height="1" fill="#888686"/>
    <rect x="270" y="79" width="4" height="1" fill="#888686"/>
    <rect x="307" y="79" width="6" height="1" fill="#888686"/>
    <rect x="1" y="80" width="5" height="1" fill="#888686"/>
    <rect x="35" y="80" width="4" height="1" fill="#888686"/>
    <rect x="270" y="80" width="4" height="1" fill="#888686"/>
    <rect x="307" y="80" width="6" height="1" fill="#888686"/>
    <rect x="1" y="81" width="5" height="1" fill="#888686"/>
    <rect x="35" y="81" width="4" height="1" fill="#888686"/>
    <rect x="270" y="81" width="4" height="1" fill="#888686"/>
    <rect x="307" y="81" width="6" height="1" fill="#888686"/>
    <rect x="1" y="82" width="5" height="1" fill="#888686"/>
    <rect x="35" y="82" width="4" height="1" fill="#888686"/>
    <rect x="270" y="82" width="4" height="1" fill="#888686"/>
    <rect x="307" y="82" width="6" height="1" fill="#888686"/>
    <rect x="1" y="83" width="5" height="1" fill="#888686"/>
    <rect x="35" y="83" width="4" height="1" fill="#888686"/>
    <rect x="270" y="83" width="4" height="1" fill="#888686"/>
    <rect x="307" y="83" width="6" height="1" fill="#888686"/>
    <rect x="1" y="84" width="5" height="1" fill="#888686"/>
    <rect x="35" y="84" width="4" height="1" fill="#888686"/>
    <rect x="270" y="84" width="4" height="1" fill="#888686"/>
    <rect x="307" y="84" width="6" height="1" fill="#888686"/>
    <rect x="1" y="85" width="5" height="1" fill="#888686"/>
    <rect x="35" y="85" width="4" height="1" fill="#888686"/>
    <rect x="270" y="85" width="4" height="1" fill="#888686"/>
    <rect x="307" y="85" width="6" height="1" fill="#888686"/>
    <rect x="1" y="86" width="5" height="1" fill="#888686"/>
    <rect x="35" y="86" width="4" height="1" fill="#888686"/>
    <rect x="270" y="86" width="4" height="1" fill="#888686"/>
    <rect x="307" y="86" width="6" height="1" fill="#888686"/>
    <rect x="1" y="87" width="5" height="1" fill="#888686"/>
    <rect x="35" y="87" width="4" height="1" fill="#888686"/>
    <rect x="270" y="87" width="4" height="1" fill="#888686"/>
    <rect x="307" y="87" width="6" height="1" fill="#888686"/>
    <rect x="1" y="88" width="5" height="1" fill="#888686"/>
    <rect x="35" y="88" width="4" height="1" fill="#888686"/>
    <rect x="270" y="88" width="4" height="1" fill="#888686"/>
    <rect x="307" y="88" width="6" height="1" fill="#888686"/>
    <rect x="1" y="89" width="5" height="1" fill="#888686"/>
    <rect x="35" y="89" width="4" height="1" fill="#888686"/>
    <rect x="270" y="89" width="4" height="1" fill="#888686"/>
    <rect x="307" y="89" width="6" height="1" fill="#888686"/>
    <rect x="1" y="90" width="5" height="1" fill="#888686"/>
    <rect x="35" y="90" width="4" height="1" fill="#888686"/>
    <rect x="270" y="90" width="4" height="1" fill="#888686"/>
    <rect x="307" y="90" width="6" height="1" fill="#888686"/>
    <rect x="1" y="91" width="5" height="1" fill="#888686"/>
    <rect x="35" y="91" width="4" height="1" fill="#888686"/>
    <rect x="270" y="91" width="4" height="1" fill="#888686"/>
    <rect x="307" y="91" width="6" height="1" fill="#888686"/>
    <rect x="1" y="92" width="5" height="1" fill="#888686"/>
    <rect x="35" y="92" width="4" height="1" fill="#888686"/>
    <rect x="270" y="92" width="4" height="1" fill="#888686"/>
    <rect x="307" y="92" width="6" height="1" fill="#888686"/>
    <rect x="1" y="93" width="5" height="1" fill="#888686"/>
    <rect x="35" y="93" width="4" height="1" fill="#888686"/>
    <rect x="270" y="93" width="4" height="1" fill="#888686"/>
    <rect x="307" y="93" width="6" height="1" fill="#888686"/>
    <rect x="1" y="94" width="5" height="1" fill="#888686"/>
    <rect x="35" y="94" width="4" height="1" fill="#888686"/>
    <rect x="270" y="94" width="4" height="1" fill="#888686"/>
    <rect x="307" y="94" width="6" height="1" fill="#888686"/>
    <rect x="1" y="95" width="5" height="1" fill="#888686"/>
    <rect x="35" y="95" width="4" height="1" fill="#888686"/>
    <rect x="270" y="95" width="4" height="1" fill="#888686"/>
    <rect x="307" y="95" width="6" height="1" fill="#888686"/>
    <rect x="1" y="96" width="5" height="1" fill="#888686"/>
    <rect x="35" y="96" width="4" height="1" fill="#888686"/>
    <rect x="270" y="96" width="4" height="1" fill="#888686"/>
    <rect x="307" y="96" width="6" height="1" fill="#888686"/>
    <rect x="1" y="97" width="5" height="1" fill="#888686"/>
    <rect x="35" y="97" width="4" height="1" fill="#888686"/>
    <rect x="270" y="97" width="4" height="1" fill="#888686"/>
    <rect x="307" y="97" width="6" height="1" fill="#888686"/>
    <rect x="1" y="98" width="5" height="1" fill="#888686"/>
    <rect x="35" y="98" width="4" height="1" fill="#888686"/>
    <rect x="270" y="98" width="4" height="1" fill="#888686"/>
    <rect x="307" y="98" width="6" height="1" fill="#888686"/>
    <rect x="1" y="99" width="5" height="1" fill="#888686"/>
    <rect x="35" y="99" width="4" height="1" fill="#888686"/>
    <rect x="270" y="99" width="4" height="1" fill="#888686"/>
    <rect x="307" y="99" width="6" height="1" fill="#888686"/>
    <rect x="1" y="100" width="5" height="1" fill="#888686"/>
    <rect x="35" y="100" width="4" height="1" fill="#888686"/>
    <rect x="270" y="100" width="4" height="1" fill="#888686"/>
    <rect x="307" y="100" width="6" height="1" fill="#888686"/>
    <rect x="1" y="101" width="5" height="1" fill="#888686"/>
    <rect x="35" y="101" width="4" height="1" fill="#888686"/>
    <rect x="270" y="101" width="4" height="1" fill="#888686"/>
    <rect x="307" y="101" width="6" height="1" fill="#888686"/>
    <rect x="1" y="102" width="5" height="1" fill="#888686"/>
    <rect x="35" y="102" width="4" height="1" fill="#888686"/>
    <rect x="270" y="102" width="4" height="1" fill="#888686"/>
    <rect x="307" y="102" width="6" height="1" fill="#888686"/>
    <rect x="1" y="103" width="5" height="1" fill="#888686"/>
    <rect x="35" y="103" width="4" height="1" fill="#888686"/>
    <rect x="270" y="103" width="4" height="1" fill="#888686"/>
    <rect x="307" y="103" width="6" height="1" fill="#888686"/>
    <rect x="1" y="104" width="5" height="1" fill="#888686"/>
    <rect x="35" y="104" width="4" height="1" fill="#888686"/>
    <rect x="270" y="104" width="4" height="1" fill="#888686"/>
    <rect x="307" y="104" width="6" height="1" fill="#888686"/>
    <rect x="1" y="105" width="5" height="1" fill="#888686"/>
    <rect x="35" y="105" width="4" height="1" fill="#888686"/>
    <rect x="270" y="105" width="4" height="1" fill="#888686"/>
    <rect x="307" y="105" width="6" height="1" fill="#888686"/>
    <rect x="1" y="106" width="5" height="1" fill="#888686"/>
    <rect x="35" y="106" width="4" height="1" fill="#888686"/>
    <rect x="270" y="106" width="4" height="1" fill="#888686"/>
    <rect x="307" y="106" width="6" height="1" fill="#888686"/>
    <rect x="1" y="107" width="5" height="1" fill="#888686"/>
    <rect x="35" y="107" width="4" height="1" fill="#888686"/>
    <rect x="270" y="107" width="4" height="1" fill="#888686"/>
    <rect x="307" y="107" width="6" height="1" fill="#888686"/>
    <rect x="1" y="108" width="5" height="1" fill="#888686"/>
    <rect x="35" y="108" width="4" height="1" fill="#888686"/>
    <rect x="270" y="108" width="4" height="1" fill="#888686"/>
    <rect x="307" y="108" width="6" height="1" fill="#888686"/>
    <rect x="1" y="109" width="5" height="1" fill="#888686"/>
    <rect x="35" y="109" width="4" height="1" fill="#888686"/>
    <rect x="270" y="109" width="4" height="1" fill="#888686"/>
    <rect x="307" y="109" width="6" height="1" fill="#888686"/>
    <rect x="1" y="110" width="5" height="1" fill="#888686"/>
    <rect x="35" y="110" width="4" height="1" fill="#888686"/>
    <rect x="270" y="110" width="4" height="1" fill="#888686"/>
    <rect x="307" y="110" width="6" height="1" fill="#888686"/>
    <rect x="1" y="111" width="5" height="1" fill="#888686"/>
    <rect x="35" y="111" width="4" height="1" fill="#888686"/>
    <rect x="270" y="111" width="4" height="1" fill="#888686"/>
    <rect x="307" y="111" width="6" height="1" fill="#888686"/>
    <rect x="1" y="112" width="5" height="1" fill="#888686"/>
    <rect x="35" y="112" width="4" height="1" fill="#888686"/>
    <rect x="270" y="112" width="4" height="1" fill="#888686"/>
    <rect x="307" y="112" width="6" height="1" fill="#888686"/>
    <rect x="1" y="113" width="5" height="1" fill="#888686"/>
    <rect x="35" y="113" width="4" height="1" fill="#888686"/>
    <rect x="270" y="113" width="4" height="1" fill="#888686"/>
    <rect x="307" y="113" width="6" height="1" fill="#888686"/>
    <rect x="1" y="114" width="5" height="1" fill="#888686"/>
    <rect x="35" y="114" width="4" height="1" fill="#888686"/>
    <rect x="270" y="114" width="4" height="1" fill="#888686"/>
    <rect x="307" y="114" width="6" height="1" fill="#888686"/>
    <rect x="1" y="115" width="5" height="1" fill="#888686"/>
    <rect x="35" y="115" width="4" height="1" fill="#888686"/>
    <rect x="270" y="115" width="4" height="1" fill="#888686"/>
    <rect x="307" y="115" width="6" height="1" fill="#888686"/>
    <rect x="1" y="116" width="5" height="1" fill="#888686"/>
    <rect x="35" y="116" width="4" height="1" fill="#888686"/>
    <rect x="270" y="116" width="4" height="1" fill="#888686"/>
    <rect x="307" y="116" width="6" height="1" fill="#888686"/>
    <rect x="1" y="117" width="5" height="1" fill="#888686"/>
    <rect x="35" y="117" width="4" height="1" fill="#888686"/>
    <rect x="270" y="117" width="4" height="1" fill="#888686"/>
    <rect x="307" y="117" width="6" height="1" fill="#888686"/>
    <rect x="1" y="118" width="5" height="1" fill="#888686"/>
    <rect x="35" y="118" width="4" height="1" fill="#888686"/>
    <rect x="270" y="118" width="4" height="1" fill="#888686"/>
    <rect x="307" y="118" width="6" height="1" fill="#888686"/>
    <rect x="1" y="119" width="5" height="1" fill="#888686"/>
    <rect x="35" y="119" width="4" height="1" fill="#888686"/>
    <rect x="270" y="119" width="4" height="1" fill="#888686"/>
    <rect x="307" y="119" width="6" height="1" fill="#888686"/>
    <rect x="1" y="120" width="5" height="1" fill="#888686"/>
    <rect x="35" y="120" width="4" height="1" fill="#888686"/>
    <rect x="270" y="120" width="4" height="1" fill="#888686"/>
    <rect x="307" y="120" width="6" height="1" fill="#888686"/>
    <rect x="1" y="121" width="5" height="1" fill="#888686"/>
    <rect x="35" y="121" width="4" height="1" fill="#888686"/>
    <rect x="270" y="121" width="4" height="1" fill="#888686"/>
    <rect x="307" y="121" width="6" height="1" fill="#888686"/>
    <rect x="1" y="122" width="5" height="1" fill="#888686"/>
    <rect x="35" y="122" width="4" height="1" fill="#888686"/>
    <rect x="270" y="122" width="4" height="1" fill="#888686"/>
    <rect x="307" y="122" width="6" height="1" fill="#888686"/>
    <rect x="1" y="123" width="5" height="1" fill="#888686"/>
    <rect x="35" y="123" width="4" height="1" fill="#888686"/>
    <rect x="270" y="123" width="4" height="1" fill="#888686"/>
    <rect x="307" y="123" width="6" height="1" fill="#888686"/>
    <rect x="1" y="124" width="5" height="1" fill="#888686"/>
    <rect x="35" y="124" width="4" height="1" fill="#888686"/>
    <rect x="270" y="124" width="4" height="1" fill="#888686"/>
    <rect x="307" y="124" width="6" height="1" fill="#888686"/>
    <rect x="1" y="125" width="5" height="1" fill="#888686"/>
    <rect x="35" y="125" width="4" height="1" fill="#888686"/>
    <rect x="270" y="125" width="4" height="1" fill="#888686"/>
    <rect x="307" y="125" width="6" height="1" fill="#888686"/>
    <rect x="1" y="126" width="5" height="1" fill="#888686"/>
    <rect x="35" y="126" width="4" height="1" fill="#888686"/>
    <rect x="270" y="126" width="4" height="1" fill="#888686"/>
    <rect x="307" y="126" width="6" height="1" fill="#888686"/>
    <rect x="1" y="127" width="5" height="1" fill="#888686"/>
    <rect x="35" y="127" width="4" height="1" fill="#888686"/>
    <rect x="270" y="127" width="4" height="1" fill="#888686"/>
    <rect x="307" y="127" width="6" height="1" fill="#888686"/>
    <rect x="1" y="128" width="5" height="1" fill="#888686"/>
    <rect x="35" y="128" width="4" height="1" fill="#888686"/>
    <rect x="270" y="128" width="4" height="1" fill="#888686"/>
    <rect x="307" y="128" width="6" height="1" fill="#888686"/>
    <rect x="1" y="129" width="5" height="1" fill="#888686"/>
    <rect x="35" y="129" width="4" height="1" fill="#888686"/>
    <rect x="270" y="129" width="4" height="1" fill="#888686"/>
    <rect x="307" y="129" width="6" height="1" fill="#888686"/>
    <rect x="1" y="130" width="5" height="1" fill="#888686"/>
    <rect x="35" y="130" width="4" height="1" fill="#888686"/>
    <rect x="270" y="130" width="4" height="1" fill="#888686"/>
    <rect x="307" y="130" width="6" height="1" fill="#888686"/>
    <rect x="1" y="131" width="5" height="1" fill="#888686"/>
    <rect x="35" y="131" width="4" height="1" fill="#888686"/>
    <rect x="270" y="131" width="4" height="1" fill="#888686"/>
    <rect x="307" y="131" width="6" height="1" fill="#888686"/>
    <rect x="1" y="132" width="5" height="1" fill="#888686"/>
    <rect x="35" y="132" width="4" height="1" fill="#888686"/>
    <rect x="270" y="132" width="4" height="1" fill="#888686"/>
    <rect x="307" y="132" width="6" height="1" fill="#888686"/>
    <rect x="1" y="133" width="5" height="1" fill="#888686"/>
    <rect x="35" y="133" width="4" height="1" fill="#888686"/>
    <rect x="270" y="133" width="4" height="1" fill="#888686"/>
    <rect x="307" y="133" width="6" height="1" fill="#888686"/>
    <rect x="1" y="134" width="5" height="1" fill="#888686"/>
    <rect x="35" y="134" width="4" height="1" fill="#888686"/>
    <rect x="270" y="134" width="4" height="1" fill="#888686"/>
    <rect x="307" y="134" width="6" height="1" fill="#888686"/>
    <rect x="1" y="135" width="5" height="1" fill="#888686"/>
    <rect x="35" y="135" width="4" height="1" fill="#888686"/>
    <rect x="270" y="135" width="4" height="1" fill="#888686"/>
    <rect x="307" y="135" width="6" height="1" fill="#888686"/>
    <rect x="1" y="136" width="5" height="1" fill="#888686"/>
    <rect x="35" y="136" width="4" height="1" fill="#888686"/>
    <rect x="270" y="136" width="4" height="1" fill="#888686"/>
    <rect x="307" y="136" width="6" height="1" fill="#888686"/>
    <rect x="1" y="137" width="5" height="1" fill="#888686"/>
    <rect x="35" y="137" width="4" height="1" fill="#888686"/>
    <rect x="270" y="137" width="4" height="1" fill="#888686"/>
    <rect x="307" y="137" width="6" height="1" fill="#888686"/>
    <rect x="1" y="138" width="5" height="1" fill="#888686"/>
    <rect x="35" y="138" width="4" height="1" fill="#888686"/>
    <rect x="270" y="138" width="4" height="1" fill="#888686"/>
    <rect x="307" y="138" width="6" height="1" fill="#888686"/>
    <rect x="1" y="139" width="5" height="1" fill="#888686"/>
    <rect x="35" y="139" width="4" height="1" fill="#888686"/>
    <rect x="270" y="139" width="4" height="1" fill="#888686"/>
    <rect x="307" y="139" width="6" height="1" fill="#888686"/>
    <rect x="1" y="140" width="5" height="1" fill="#888686"/>
    <rect x="35" y="140" width="4" height="1" fill="#888686"/>
    <rect x="270" y="140" width="4" height="1" fill="#888686"/>
    <rect x="307" y="140" width="6" height="1" fill="#888686"/>
    <rect x="1" y="141" width="5" height="1" fill="#888686"/>
    <rect x="35" y="141" width="4" height="1" fill="#888686"/>
    <rect x="270" y="141" width="4" height="1" fill="#888686"/>
    <rect x="307" y="141" width="6" height="1" fill="#888686"/>
    <rect x="1" y="142" width="5" height="1" fill="#888686"/>
    <rect x="35" y="142" width="4" height="1" fill="#888686"/>
    <rect x="270" y="142" width="4" height="1" fill="#888686"/>
    <rect x="307" y="142" width="6" height="1" fill="#888686"/>
    <rect x="1" y="143" width="5" height="1" fill="#888686"/>
    <rect x="35" y="143" width="4" height="1" fill="#888686"/>
    <rect x="270" y="143" width="4" height="1" fill="#888686"/>
    <rect x="307" y="143" width="6" height="1" fill="#888686"/>
    <rect x="1" y="144" width="5" height="1" fill="#888686"/>
    <rect x="35" y="144" width="4" height="1" fill="#888686"/>
    <rect x="270" y="144" width="4" height="1" fill="#888686"/>
    <rect x="307" y="144" width="6" height="1" fill="#888686"/>
    <rect x="1" y="145" width="5" height="1" fill="#888686"/>
    <rect x="35" y="145" width="4" height="1" fill="#888686"/>
    <rect x="270" y="145" width="4" height="1" fill="#888686"/>
    <rect x="307" y="145" width="6" height="1" fill="#888686"/>
    <rect x="1" y="146" width="5" height="1" fill="#888686"/>
    <rect x="35" y="146" width="4" height="1" fill="#888686"/>
    <rect x="270" y="146" width="4" height="1" fill="#888686"/>
    <rect x="307" y="146" width="6" height="1" fill="#888686"/>
    <rect x="1" y="147" width="5" height="1" fill="#888686"/>
    <rect x="35" y="147" width="4" height="1" fill="#888686"/>
    <rect x="270" y="147" width="4" height="1" fill="#888686"/>
    <rect x="307" y="147" width="6" height="1" fill="#888686"/>
    <rect x="1" y="148" width="5" height="1" fill="#888686"/>
    <rect x="35" y="148" width="4" height="1" fill="#888686"/>
    <rect x="270" y="148" width="4" height="1" fill="#888686"/>
    <rect x="307" y="148" width="6" height="1" fill="#888686"/>
    <rect x="1" y="149" width="5" height="1" fill="#888686"/>
    <rect x="35" y="149" width="4" height="1" fill="#888686"/>
    <rect x="270" y="149" width="4" height="1" fill="#888686"/>
    <rect x="307" y="149" width="6" height="1" fill="#888686"/>
    <rect x="1" y="150" width="5" height="1" fill="#888686"/>
    <rect x="35" y="150" width="4" height="1" fill="#888686"/>
    <rect x="270" y="150" width="4" height="1" fill="#888686"/>
    <rect x="307" y="150" width="6" height="1" fill="#888686"/>
    <rect x="1" y="151" width="5" height="1" fill="#888686"/>
    <rect x="35" y="151" width="4" height="1" fill="#888686"/>
    <rect x="270" y="151" width="4" height="1" fill="#888686"/>
    <rect x="307" y="151" width="6" height="1" fill="#888686"/>
    <rect x="1" y="152" width="5" height="1" fill="#888686"/>
    <rect x="35" y="152" width="4" height="1" fill="#888686"/>
    <rect x="270" y="152" width="4" height="1" fill="#888686"/>
    <rect x="307" y="152" width="6" height="1" fill="#888686"/>
    <rect x="1" y="153" width="5" height="1" fill="#888686"/>
    <rect x="35" y="153" width="4" height="1" fill="#888686"/>
    <rect x="270" y="153" width="4" height="1" fill="#888686"/>
    <rect x="307" y="153" width="6" height="1" fill="#888686"/>
    <rect x="1" y="154" width="5" height="1" fill="#888686"/>
    <rect x="35" y="154" width="4" height="1" fill="#888686"/>
    <rect x="270" y="154" width="4" height="1" fill="#888686"/>
    <rect x="307" y="154" width="6" height="1" fill="#888686"/>
    <rect x="1" y="155" width="5" height="1" fill="#888686"/>
    <rect x="35" y="155" width="4" height="1" fill="#888686"/>
    <rect x="270" y="155" width="4" height="1" fill="#888686"/>
    <rect x="307" y="155" width="6" height="1" fill="#888686"/>
    <rect x="1" y="156" width="5" height="1" fill="#888686"/>
    <rect x="35" y="156" width="4" height="1" fill="#888686"/>
    <rect x="270" y="156" width="4" height="1" fill="#888686"/>
    <rect x="307" y="156" width="6" height="1" fill="#888686"/>
    <rect x="1" y="157" width="5" height="1" fill="#888686"/>
    <rect x="35" y="157" width="4" height="1" fill="#888686"/>
    <rect x="270" y="157" width="4" height="1" fill="#888686"/>
    <rect x="307" y="157" width="6" height="1" fill="#888686"/>
    <rect x="1" y="158" width="5" height="1" fill="#888686"/>
    <rect x="35" y="158" width="4" height="1" fill="#888686"/>
    <rect x="270" y="158" width="4" height="1" fill="#888686"/>
    <rect x="307" y="158" width="6" height="1" fill="#888686"/>
    <rect x="1" y="159" width="5" height="1" fill="#888686"/>
    <rect x="35" y="159" width="4" height="1" fill="#888686"/>
    <rect x="270" y="159" width="4" height="1" fill="#888686"/>
    <rect x="307" y="159" width="6" height="1" fill="#888686"/>
    <rect x="1" y="160" width="5" height="1" fill="#888686"/>
    <rect x="35" y="160" width="4" height="1" fill="#888686"/>
    <rect x="270" y="160" width="4" height="1" fill="#888686"/>
    <rect x="307" y="160" width="6" height="1" fill="#888686"/>
    <rect x="1" y="161" width="5" height="1" fill="#888686"/>
    <rect x="35" y="161" width="4" height="1" fill="#888686"/>
    <rect x="270" y="161" width="4" height="1" fill="#888686"/>
    <rect x="307" y="161" width="6" height="1" fill="#888686"/>
    <rect x="1" y="162" width="5" height="1" fill="#888686"/>
    <rect x="35" y="162" width="4" height="1" fill="#888686"/>
    <rect x="270" y="162" width="4" height="1" fill="#888686"/>
    <rect x="307" y="162" width="6" height="1" fill="#888686"/>
    <rect x="1" y="163" width="5" height="1" fill="#888686"/>
    <rect x="35" y="163" width="4" height="1" fill="#888686"/>
    <rect x="270" y="163" width="4" height="1" fill="#888686"/>
    <rect x="307" y="163" width="6" height="1" fill="#888686"/>
    <rect x="1" y="164" width="5" height="1" fill="#888686"/>
    <rect x="35" y="164" width="4" height="1" fill="#888686"/>
    <rect x="270" y="164" width="4" height="1" fill="#888686"/>
    <rect x="307" y="164" width="6" height="1" fill="#888686"/>
    <rect x="1" y="165" width="5" height="1" fill="#888686"/>
    <rect x="35" y="165" width="4" height="1" fill="#888686"/>
    <rect x="270" y="165" width="4" height="1" fill="#888686"/>
    <rect x="307" y="165" width="6" height="1" fill="#888686"/>
    <rect x="1" y="166" width="5" height="1" fill="#888686"/>
    <rect x="35" y="166" width="4" height="1" fill="#888686"/>
    <rect x="270" y="166" width="4" height="1" fill="#888686"/>
    <rect x="307" y="166" width="6" height="1" fill="#888686"/>
    <rect x="1" y="167" width="5" height="1" fill="#888686"/>
    <rect x="35" y="167" width="4" height="1" fill="#888686"/>
    <rect x="270" y="167" width="4" height="1" fill="#888686"/>
    <rect x="307" y="167" width="6" height="1" fill="#888686"/>
    <rect x="1" y="168" width="5" height="1" fill="#888686"/>
    <rect x="35" y="168" width="4" height="1" fill="#888686"/>
    <rect x="270" y="168" width="4" height="1" fill="#888686"/>
    <rect x="307" y="168" width="6" height="1" fill="#888686"/>
    <rect x="1" y="169" width="5" height="1" fill="#888686"/>
    <rect x="35" y="169" width="4" height="1" fill="#888686"/>
    <rect x="270" y="169" width="4" height="1" fill="#888686"/>
    <rect x="307" y="169" width="6" height="1" fill="#888686"/>
    <rect x="1" y="170" width="5" height="1" fill="#888686"/>
    <rect x="35" y="170" width="4" height="1" fill="#888686"/>
    <rect x="270" y="170" width="4" height="1" fill="#888686"/>
    <rect x="307" y="170" width="6" height="1" fill="#888686"/>
    <rect x="1" y="171" width="5" height="1" fill="#888686"/>
    <rect x="35" y="171" width="4" height="1" fill="#888686"/>
    <rect x="270" y="171" width="4" height="1" fill="#888686"/>
    <rect x="307" y="171" width="6" height="1" fill="#888686"/>
    <rect x="1" y="172" width="5" height="1" fill="#888686"/>
    <rect x="35" y="172" width="4" height="1" fill="#888686"/>
    <rect x="270" y="172" width="4" height="1" fill="#888686"/>
    <rect x="307" y="172" width="6" height="1" fill="#888686"/>
    <rect x="1" y="173" width="5" height="1" fill="#888686"/>
    <rect x="35" y="173" width="4" height="1" fill="#888686"/>
    <rect x="270" y="173" width="4" height="1" fill="#888686"/>
    <rect x="307" y="173" width="6" height="1" fill="#888686"/>
    <rect x="1" y="174" width="5" height="1" fill="#888686"/>
    <rect x="35" y="174" width="4" height="1" fill="#888686"/>
    <rect x="270" y="174" width="4" height="1" fill="#888686"/>
    <rect x="307" y="174" width="6" height="1" fill="#888686"/>
    <rect x="1" y="175" width="5" height="1" fill="#888686"/>
    <rect x="35" y="175" width="4" height="1" fill="#888686"/>
    <rect x="270" y="175" width="4" height="1" fill="#888686"/>
    <rect x="307" y="175" width="6" height="1" fill="#888686"/>
    <rect x="1" y="176" width="5" height="1" fill="#888686"/>
    <rect x="35" y="176" width="4" height="1" fill="#888686"/>
    <rect x="270" y="176" width="4" height="1" fill="#888686"/>
    <rect x="307" y="176" width="6" height="1" fill="#888686"/>
    <rect x="1" y="177" width="5" height="1" fill="#888686"/>
    <rect x="35" y="177" width="4" height="1" fill="#888686"/>
    <rect x="270" y="177" width="4" height="1" fill="#888686"/>
    <rect x="307" y="177" width="6" height="1" fill="#888686"/>
    <rect x="1" y="178" width="5" height="1" fill="#888686"/>
    <rect x="35" y="178" width="4" height="1" fill="#888686"/>
    <rect x="270" y="178" width="4" height="1" fill="#888686"/>
    <rect x="307" y="178" width="6" height="1" fill="#888686"/>
    <rect x="1" y="179" width="5" height="1" fill="#888686"/>
    <rect x="35" y="179" width="239" height="1" fill="#888686"/>
    <rect x="307" y="179" width="6" height="1" fill="#888686"/>
    <rect x="1" y="180" width="5" height="1" fill="#888686"/>
    <rect x="35" y="180" width="239" height="1" fill="#888686"/>
    <rect x="307" y="180" width="6" height="1" fill="#888686"/>
    <rect x="1" y="181" width="5" height="1" fill="#888686"/>
    <rect x="35" y="181" width="239" height="1" fill="#888686"/>
    <rect x="307" y="181" width="6" height="1" fill="#888686"/>
    <rect x="1" y="182" width="5" height="1" fill="#888686"/>
    <rect x="36" y="182" width="238" height="1" fill="#888686"/>
    <rect x="307" y="182" width="6" height="1" fill="#888686"/>
    <rect x="1" y="183" width="5" height="1" fill="#888686"/>
    <rect x="307" y="183" width="6" height="1" fill="#888686"/>
    <rect x="1" y="184" width="5" height="1" fill="#888686"/>
    <rect x="307" y="184" width="6" height="1" fill="#888686"/>
    <rect x="1" y="185" width="5" height="1" fill="#888686"/>
    <rect x="307" y="185" width="6" height="1" fill="#888686"/>
    <rect x="1" y="186" width="5" height="1" fill="#888686"/>
    <rect x="307" y="186" width="6" height="1" fill="#888686"/>
    <rect x="1" y="187" width="5" height="1" fill="#888686"/>
    <rect x="307" y="187" width="6" height="1" fill="#888686"/>
    <rect x="1" y="188" width="5" height="1" fill="#888686"/>
    <rect x="307" y="188" width="6" height="1" fill="#888686"/>
    <rect x="1" y="189" width="5" height="1" fill="#888686"/>
    <rect x="307" y="189" width="6" height="1" fill="#888686"/>
    <rect x="1" y="190" width="5" height="1" fill="#888686"/>
    <rect x="307" y="190" width="6" height="1" fill="#888686"/>
    <rect x="1" y="191" width="5" height="1" fill="#888686"/>
    <rect x="307" y="191" width="6" height="1" fill="#888686"/>
    <rect x="1" y="192" width="5" height="1" fill="#888686"/>
    <rect x="307" y="192" width="6" height="1" fill="#888686"/>
    <rect x="1" y="193" width="5" height="1" fill="#888686"/>
    <rect x="307" y="193" width="6" height="1" fill="#888686"/>
    <rect x="1" y="194" width="5" height="1" fill="#888686"/>
    <rect x="307" y="194" width="6" height="1" fill="#888686"/>
    <rect x="1" y="195" width="5" height="1" fill="#888686"/>
    <rect x="307" y="195" width="6" height="1" fill="#888686"/>
    <rect x="1" y="196" width="5" height="1" fill="#888686"/>
    <rect x="307" y="196" width="6" height="1" fill="#888686"/>
    <rect x="1" y="197" width="5" height="1" fill="#888686"/>
    <rect x="307" y="197" width="6" height="1" fill="#888686"/>
    <rect x="1" y="198" width="5" height="1" fill="#888686"/>
    <rect x="307" y="198" width="6" height="1" fill="#888686"/>
    <rect x="1" y="199" width="5" height="1" fill="#888686"/>
    <rect x="307" y="199" width="6" height="1" fill="#888686"/>
    <rect x="1" y="200" width="5" height="1" fill="#888686"/>
    <rect x="307" y="200" width="6" height="1" fill="#888686"/>
    <rect x="1" y="201" width="5" height="1" fill="#888686"/>
    <rect x="307" y="201" width="6" height="1" fill="#888686"/>
    <rect x="1" y="202" width="5" height="1" fill="#888686"/>
    <rect x="307" y="202" width="6" height="1" fill="#888686"/>
    <rect x="1" y="203" width="5" height="1" fill="#888686"/>
    <rect x="307" y="203" width="6" height="1" fill="#888686"/>
    <rect x="1" y="204" width="5" height="1" fill="#888686"/>
    <rect x="307" y="204" width="6" height="1" fill="#888686"/>
    <rect x="1" y="205" width="5" height="1" fill="#888686"/>
    <rect x="307" y="205" width="6" height="1" fill="#888686"/>
    <rect x="1" y="206" width="312" height="1" fill="#888686"/>
    <rect x="1" y="207" width="312" height="1" fill="#888686"/>
    <rect x="1" y="208" width="312" height="1" fill="#888686"/>
    <rect x="1" y="209" width="312" height="1" fill="#888686"/>
    <rect x="3" y="210" width="307" height="1" fill="#888686"/>
  </g>
</svg>