<?xml version="1.0" encoding="UTF-8"?>
<svg xmlns="http://www.w3.org/2000/svg" viewBox="0 0 154 61" width="154" height="61">
  <!-- Auto-converted from legend-2222.png -->
  <rect x="0" y="0" width="154" height="61" fill="none"/>
  <g fill="#231f20" stroke="none">
    <rect x="0" y="0" width="154" height="1" fill="#231f20"/>
    <rect x="0" y="1" width="1" height="1" fill="#231f20"/>
    <rect x="153" y="1" width="1" height="1" fill="#231f20"/>
    <rect x="0" y="2" width="1" height="1" fill="#231f20"/>
    <rect x="153" y="2" width="1" height="1" fill="#231f20"/>
    <rect x="0" y="3" width="1" height="1" fill="#231f20"/>
    <rect x="153" y="3" width="1" height="1" fill="#231f20"/>
    <rect x="0" y="4" width="1" height="1" fill="#231f20"/>
    <rect x="153" y="4" width="1" height="1" fill="#231f20"/>
    <rect x="0" y="5" width="1" height="1" fill="#231f20"/>
    <rect x="26" y="5" width="1" height="1" fill="#231f20"/>
    <rect x="36" y="5" width="1" height="1" fill="#231f20"/>
    <rect x="66" y="5" width="1" height="1" fill="#231f20"/>
    <rect x="77" y="5" width="1" height="1" fill="#231f20"/>
    <rect x="114" y="5" width="1" height="1" fill="#231f20"/>
    <rect x="153" y="5" width="1" height="1" fill="#231f20"/>
    <rect x="0" y="6" width="1" height="1" fill="#231f20"/>
    <rect x="25" y="6" width="1" height="1" fill="#231f20"/>
    <rect x="37" y="6" width="1" height="1" fill="#231f20"/>
    <rect x="65" y="6" width="1" height="1" fill="#231f20"/>
    <rect x="78" y="6" width="1" height="1" fill="#231f20"/>
    <rect x="112" y="6" width="2" height="1" fill="#231f20"/>
    <rect x="153" y="6" width="1" height="1" fill="#231f20"/>
    <rect x="0" y="7" width="1" height="1" fill="#231f20"/>
    <rect x="24" y="7" width="1" height="1" fill="#231f20"/>
    <rect x="38" y="7" width="1" height="1" fill="#231f20"/>
    <rect x="65" y="7" width="1" height="1" fill="#231f20"/>
    <rect x="78" y="7" width="1" height="1" fill="#231f20"/>
    <rect x="112" y="7" width="1" height="1" fill="#231f20"/>
    <rect x="153" y="7" width="1" height="1" fill="#231f20"/>
    <rect x="0" y="8" width="1" height="1" fill="#231f20"/>
    <rect x="24" y="8" width="1" height="1" fill="#231f20"/>
    <rect x="38" y="8" width="1" height="1" fill="#231f20"/>
    <rect x="64" y="8" width="1" height="1" fill="#231f20"/>
    <rect x="79" y="8" width="1" height="1" fill="#231f20"/>
    <rect x="112" y="8" width="1" height="1" fill="#231f20"/>
    <rect x="153" y="8" width="1" height="1" fill="#231f20"/>
    <rect x="0" y="9" width="1" height="1" fill="#231f20"/>
    <rect x="23" y="9" width="1" height="1" fill="#231f20"/>
    <rect x="39" y="9" width="1" height="1" fill="#231f20"/>
    <rect x="63" y="9" width="2" height="1" fill="#231f20"/>
    <rect x="79" y="9" width="2" height="1" fill="#231f20"/>
    <rect x="112" y="9" width="1" height="1" fill="#231f20"/>
    <rect x="153" y="9" width="1" height="1" fill="#231f20"/>
    <rect x="0" y="10" width="1" height="1" fill="#231f20"/>
    <rect x="22" y="10" width="1" height="1" fill="#231f20"/>
    <rect x="24" y="10" width="1" height="1" fill="#231f20"/>
    <rect x="38" y="10" width="1" height="1" fill="#231f20"/>
    <rect x="40" y="10" width="1" height="1" fill="#231f20"/>
    <rect x="62" y="10" width="1" height="1" fill="#231f20"/>
    <rect x="65" y="10" width="1" height="1" fill="#231f20"/>
    <rect x="78" y="10" width="1" height="1" fill="#231f20"/>
    <rect x="80" y="10" width="1" height="1" fill="#231f20"/>
    <rect x="112" y="10" width="1" height="1" fill="#231f20"/>
    <rect x="153" y="10" width="1" height="1" fill="#231f20"/>
    <rect x="0" y="11" width="1" height="1" fill="#231f20"/>
    <rect x="21" y="11" width="1" height="1" fill="#231f20"/>
    <rect x="25" y="11" width="1" height="1" fill="#231f20"/>
    <rect x="37" y="11" width="1" height="1" fill="#231f20"/>
    <rect x="41" y="11" width="1" height="1" fill="#231f20"/>
    <rect x="62" y="11" width="1" height="1" fill="#231f20"/>
    <rect x="65" y="11" width="1" height="1" fill="#231f20"/>
    <rect x="78" y="11" width="1" height="1" fill="#231f20"/>
    <rect x="81" y="11" width="1" height="1" fill="#231f20"/>
    <rect x="112" y="11" width="1" height="1" fill="#231f20"/>
    <rect x="153" y="11" width="1" height="1" fill="#231f20"/>
    <rect x="0" y="12" width="1" height="1" fill="#231f20"/>
    <rect x="20" y="12" width="1" height="1" fill="#231f20"/>
    <rect x="26" y="12" width="1" height="1" fill="#231f20"/>
    <rect x="36" y="12" width="1" height="1" fill="#231f20"/>
    <rect x="42" y="12" width="1" height="1" fill="#231f20"/>
    <rect x="61" y="12" width="1" height="1" fill="#231f20"/>
    <rect x="66" y="12" width="1" height="1" fill="#231f20"/>
    <rect x="77" y="12" width="1" height="1" fill="#231f20"/>
    <rect x="82" y="12" width="1" height="1" fill="#231f20"/>
    <rect x="112" y="12" width="1" height="1" fill="#231f20"/>
    <rect x="153" y="12" width="1" height="1" fill="#231f20"/>
    <rect x="0" y="13" width="1" height="1" fill="#231f20"/>
    <rect x="20" y="13" width="1" height="1" fill="#231f20"/>
    <rect x="42" y="13" width="1" height="1" fill="#231f20"/>
    <rect x="60" y="13" width="1" height="1" fill="#231f20"/>
    <rect x="83" y="13" width="1" height="1" fill="#231f20"/>
    <rect x="112" y="13" width="1" height="1" fill="#231f20"/>
    <rect x="153" y="13" width="1" height="1" fill="#231f20"/>
    <rect x="0" y="14" width="1" height="1" fill="#231f20"/>
    <rect x="19" y="14" width="1" height="1" fill="#231f20"/>
    <rect x="43" y="14" width="1" height="1" fill="#231f20"/>
    <rect x="60" y="14" width="1" height="1" fill="#231f20"/>
    <rect x="83" y="14" width="1" height="1" fill="#231f20"/>
    <rect x="111" y="14" width="2" height="1" fill="#231f20"/>
    <rect x="153" y="14" width="1" height="1" fill="#231f20"/>
    <rect x="0" y="15" width="1" height="1" fill="#231f20"/>
    <rect x="18" y="15" width="1" height="1" fill="#231f20"/>
    <rect x="44" y="15" width="1" height="1" fill="#231f20"/>
    <rect x="59" y="15" width="1" height="1" fill="#231f20"/>
    <rect x="84" y="15" width="1" height="1" fill="#231f20"/>
    <rect x="111" y="15" width="1" height="1" fill="#231f20"/>
    <rect x="153" y="15" width="1" height="1" fill="#231f20"/>
    <rect x="0" y="16" width="1" height="1" fill="#231f20"/>
    <rect x="153" y="16" width="1" height="1" fill="#231f20"/>
    <rect x="0" y="17" width="1" height="1" fill="#231f20"/>
    <rect x="153" y="17" width="1" height="1" fill="#231f20"/>
    <rect x="0" y="18" width="1" height="1" fill="#231f20"/>
    <rect x="153" y="18" width="1" height="1" fill="#231f20"/>
    <rect x="0" y="19" width="1" height="1" fill="#231f20"/>
    <rect x="153" y="19" width="1" height="1" fill="#231f20"/>
    <rect x="0" y="20" width="154" height="1" fill="#231f20"/>
    <rect x="0" y="21" width="1" height="1" fill="#231f20"/>
    <rect x="153" y="21" width="1" height="1" fill="#231f20"/>
    <rect x="0" y="22" width="1" height="1" fill="#231f20"/>
    <rect x="153" y="22" width="1" height="1" fill="#231f20"/>
    <rect x="0" y="23" width="1" height="1" fill="#231f20"/>
    <rect x="153" y="23" width="1" height="1" fill="#231f20"/>
    <rect x="0" y="24" width="1" height="1" fill="#231f20"/>
    <rect x="153" y="24" width="1" height="1" fill="#231f20"/>
    <rect x="0" y="25" width="1" height="1" fill="#231f20"/>
    <rect x="43" y="25" width="1" height="1" fill="#231f20"/>
    <rect x="76" y="25" width="1" height="1" fill="#231f20"/>
    <rect x="87" y="25" width="1" height="1" fill="#231f20"/>
    <rect x="117" y="25" width="1" height="1" fill="#231f20"/>
    <rect x="127" y="25" width="1" height="1" fill="#231f20"/>
    <rect x="153" y="25" width="1" height="1" fill="#231f20"/>
    <rect x="0" y="26" width="1" height="1" fill="#231f20"/>
    <rect x="42" y="26" width="1" height="1" fill="#231f20"/>
    <rect x="75" y="26" width="1" height="1" fill="#231f20"/>
    <rect x="88" y="26" width="1" height="1" fill="#231f20"/>
    <rect x="116" y="26" width="1" height="1" fill="#231f20"/>
    <rect x="128" y="26" width="1" height="1" fill="#231f20"/>
    <rect x="153" y="26" width="1" height="1" fill="#231f20"/>
    <rect x="0" y="27" width="1" height="1" fill="#231f20"/>
    <rect x="41" y="27" width="1" height="1" fill="#231f20"/>
    <rect x="75" y="27" width="1" height="1" fill="#231f20"/>
    <rect x="88" y="27" width="1" height="1" fill="#231f20"/>
    <rect x="115" y="27" width="1" height="1" fill="#231f20"/>
    <rect x="129" y="27" width="1" height="1" fill="#231f20"/>
    <rect x="153" y="27" width="1" height="1" fill="#231f20"/>
    <rect x="0" y="28" width="1" height="1" fill="#231f20"/>
    <rect x="41" y="28" width="1" height="1" fill="#231f20"/>
    <rect x="74" y="28" width="1" height="1" fill="#231f20"/>
    <rect x="89" y="28" width="1" height="1" fill="#231f20"/>
    <rect x="115" y="28" width="1" height="1" fill="#231f20"/>
    <rect x="129" y="28" width="1" height="1" fill="#231f20"/>
    <rect x="153" y="28" width="1" height="1" fill="#231f20"/>
    <rect x="0" y="29" width="1" height="1" fill="#231f20"/>
    <rect x="41" y="29" width="1" height="1" fill="#231f20"/>
    <rect x="73" y="29" width="2" height="1" fill="#231f20"/>
    <rect x="89" y="29" width="2" height="1" fill="#231f20"/>
    <rect x="114" y="29" width="1" height="1" fill="#231f20"/>
    <rect x="130" y="29" width="1" height="1" fill="#231f20"/>
    <rect x="153" y="29" width="1" height="1" fill="#231f20"/>
    <rect x="0" y="30" width="1" height="1" fill="#231f20"/>
    <rect x="41" y="30" width="1" height="1" fill="#231f20"/>
    <rect x="72" y="30" width="1" height="1" fill="#231f20"/>
    <rect x="75" y="30" width="1" height="1" fill="#231f20"/>
    <rect x="89" y="30" width="2" height="1" fill="#231f20"/>
    <rect x="113" y="30" width="1" height="1" fill="#231f20"/>
    <rect x="115" y="30" width="1" height="1" fill="#231f20"/>
    <rect x="129" y="30" width="1" height="1" fill="#231f20"/>
    <rect x="131" y="30" width="1" height="1" fill="#231f20"/>
    <rect x="153" y="30" width="1" height="1" fill="#231f20"/>
    <rect x="0" y="31" width="1" height="1" fill="#231f20"/>
    <rect x="41" y="31" width="1" height="1" fill="#231f20"/>
    <rect x="72" y="31" width="1" height="1" fill="#231f20"/>
    <rect x="75" y="31" width="1" height="1" fill="#231f20"/>
    <rect x="88" y="31" width="1" height="1" fill="#231f20"/>
    <rect x="91" y="31" width="1" height="1" fill="#231f20"/>
    <rect x="112" y="31" width="1" height="1" fill="#231f20"/>
    <rect x="116" y="31" width="1" height="1" fill="#231f20"/>
    <rect x="129" y="31" width="1" height="1" fill="#231f20"/>
    <rect x="132" y="31" width="1" height="1" fill="#231f20"/>
    <rect x="153" y="31" width="1" height="1" fill="#231f20"/>
    <rect x="0" y="32" width="1" height="1" fill="#231f20"/>
    <rect x="41" y="32" width="1" height="1" fill="#231f20"/>
    <rect x="71" y="32" width="1" height="1" fill="#231f20"/>
    <rect x="76" y="32" width="1" height="1" fill="#231f20"/>
    <rect x="88" y="32" width="1" height="1" fill="#231f20"/>
    <rect x="92" y="32" width="1" height="1" fill="#231f20"/>
    <rect x="111" y="32" width="1" height="1" fill="#231f20"/>
    <rect x="116" y="32" width="1" height="1" fill="#231f20"/>
    <rect x="128" y="32" width="1" height="1" fill="#231f20"/>
    <rect x="133" y="32" width="1" height="1" fill="#231f20"/>
    <rect x="153" y="32" width="1" height="1" fill="#231f20"/>
    <rect x="0" y="33" width="1" height="1" fill="#231f20"/>
    <rect x="41" y="33" width="1" height="1" fill="#231f20"/>
    <rect x="70" y="33" width="1" height="1" fill="#231f20"/>
    <rect x="76" y="33" width="1" height="1" fill="#231f20"/>
    <rect x="87" y="33" width="1" height="1" fill="#231f20"/>
    <rect x="93" y="33" width="1" height="1" fill="#231f20"/>
    <rect x="111" y="33" width="1" height="1" fill="#231f20"/>
    <rect x="117" y="33" width="1" height="1" fill="#231f20"/>
    <rect x="127" y="33" width="1" height="1" fill="#231f20"/>
    <rect x="133" y="33" width="1" height="1" fill="#231f20"/>
    <rect x="153" y="33" width="1" height="1" fill="#231f20"/>
    <rect x="0" y="34" width="1" height="1" fill="#231f20"/>
    <rect x="41" y="34" width="1" height="1" fill="#231f20"/>
    <rect x="70" y="34" width="1" height="1" fill="#231f20"/>
    <rect x="93" y="34" width="1" height="1" fill="#231f20"/>
    <rect x="110" y="34" width="1" height="1" fill="#231f20"/>
    <rect x="134" y="34" width="1" height="1" fill="#231f20"/>
    <rect x="153" y="34" width="1" height="1" fill="#231f20"/>
    <rect x="0" y="35" width="1" height="1" fill="#231f20"/>
    <rect x="40" y="35" width="1" height="1" fill="#231f20"/>
    <rect x="69" y="35" width="1" height="1" fill="#231f20"/>
    <rect x="94" y="35" width="1" height="1" fill="#231f20"/>
    <rect x="109" y="35" width="1" height="1" fill="#231f20"/>
    <rect x="135" y="35" width="1" height="1" fill="#231f20"/>
    <rect x="153" y="35" width="1" height="1" fill="#231f20"/>
    <rect x="0" y="36" width="1" height="1" fill="#231f20"/>
    <rect x="153" y="36" width="1" height="1" fill="#231f20"/>
    <rect x="0" y="37" width="1" height="1" fill="#231f20"/>
    <rect x="153" y="37" width="1" height="1" fill="#231f20"/>
    <rect x="0" y="38" width="1" height="1" fill="#231f20"/>
    <rect x="153" y="38" width="1" height="1" fill="#231f20"/>
    <rect x="0" y="39" width="1" height="1" fill="#231f20"/>
    <rect x="153" y="39" width="1" height="1" fill="#231f20"/>
    <rect x="0" y="40" width="154" height="1" fill="#231f20"/>
    <rect x="0" y="41" width="1" height="1" fill="#231f20"/>
    <rect x="153" y="41" width="1" height="1" fill="#231f20"/>
    <rect x="0" y="42" width="1" height="1" fill="#231f20"/>
    <rect x="153" y="42" width="1" height="1" fill="#231f20"/>
    <rect x="0" y="43" width="1" height="1" fill="#231f20"/>
    <rect x="153" y="43" width="1" height="1" fill="#231f20"/>
    <rect x="0" y="44" width="1" height="1" fill="#231f20"/>
    <rect x="153" y="44" width="1" height="1" fill="#231f20"/>
    <rect x="0" y="45" width="1" height="1" fill="#231f20"/>
    <rect x="26" y="45" width="1" height="1" fill="#231f20"/>
    <rect x="36" y="45" width="1" height="1" fill="#231f20"/>
    <rect x="66" y="45" width="1" height="1" fill="#231f20"/>
    <rect x="77" y="45" width="1" height="1" fill="#231f20"/>
    <rect x="114" y="45" width="1" height="1" fill="#231f20"/>
    <rect x="153" y="45" width="1" height="1" fill="#231f20"/>
    <rect x="0" y="46" width="1" height="1" fill="#231f20"/>
    <rect x="25" y="46" width="1" height="1" fill="#231f20"/>
    <rect x="37" y="46" width="1" height="1" fill="#231f20"/>
    <rect x="65" y="46" width="1" height="1" fill="#231f20"/>
    <rect x="78" y="46" width="1" height="1" fill="#231f20"/>
    <rect x="113" y="46" width="2" height="1" fill="#231f20"/>
    <rect x="153" y="46" width="1" height="1" fill="#231f20"/>
    <rect x="0" y="47" width="1" height="1" fill="#231f20"/>
    <rect x="24" y="47" width="1" height="1" fill="#231f20"/>
    <rect x="38" y="47" width="1" height="1" fill="#231f20"/>
    <rect x="65" y="47" width="1" height="1" fill="#231f20"/>
    <rect x="78" y="47" width="1" height="1" fill="#231f20"/>
    <rect x="112" y="47" width="2" height="1" fill="#231f20"/>
    <rect x="153" y="47" width="1" height="1" fill="#231f20"/>
    <rect x="0" y="48" width="1" height="1" fill="#231f20"/>
    <rect x="24" y="48" width="1" height="1" fill="#231f20"/>
    <rect x="38" y="48" width="1" height="1" fill="#231f20"/>
    <rect x="64" y="48" width="1" height="1" fill="#231f20"/>
    <rect x="79" y="48" width="1" height="1" fill="#231f20"/>
    <rect x="112" y="48" width="1" height="1" fill="#231f20"/>
    <rect x="153" y="48" width="1" height="1" fill="#231f20"/>
    <rect x="0" y="49" width="1" height="1" fill="#231f20"/>
    <rect x="23" y="49" width="1" height="1" fill="#231f20"/>
    <rect x="39" y="49" width="1" height="1" fill="#231f20"/>
    <rect x="63" y="49" width="2" height="1" fill="#231f20"/>
    <rect x="79" y="49" width="2" height="1" fill="#231f20"/>
    <rect x="112" y="49" width="1" height="1" fill="#231f20"/>
    <rect x="153" y="49" width="1" height="1" fill="#231f20"/>
    <rect x="0" y="50" width="1" height="1" fill="#231f20"/>
    <rect x="22" y="50" width="1" height="1" fill="#231f20"/>
    <rect x="24" y="50" width="1" height="1" fill="#231f20"/>
    <rect x="38" y="50" width="1" height="1" fill="#231f20"/>
    <rect x="40" y="50" width="1" height="1" fill="#231f20"/>
    <rect x="62" y="50" width="1" height="1" fill="#231f20"/>
    <rect x="65" y="50" width="1" height="1" fill="#231f20"/>
    <rect x="79" y="50" width="2" height="1" fill="#231f20"/>
    <rect x="112" y="50" width="1" height="1" fill="#231f20"/>
    <rect x="153" y="50" width="1" height="1" fill="#231f20"/>
    <rect x="0" y="51" width="1" height="1" fill="#231f20"/>
    <rect x="21" y="51" width="1" height="1" fill="#231f20"/>
    <rect x="25" y="51" width="1" height="1" fill="#231f20"/>
    <rect x="38" y="51" width="1" height="1" fill="#231f20"/>
    <rect x="41" y="51" width="1" height="1" fill="#231f20"/>
    <rect x="62" y="51" width="1" height="1" fill="#231f20"/>
    <rect x="65" y="51" width="1" height="1" fill="#231f20"/>
    <rect x="78" y="51" width="1" height="1" fill="#231f20"/>
    <rect x="81" y="51" width="1" height="1" fill="#231f20"/>
    <rect x="112" y="51" width="1" height="1" fill="#231f20"/>
    <rect x="153" y="51" width="1" height="1" fill="#231f20"/>
    <rect x="0" y="52" width="1" height="1" fill="#231f20"/>
    <rect x="20" y="52" width="1" height="1" fill="#231f20"/>
    <rect x="25" y="52" width="1" height="1" fill="#231f20"/>
    <rect x="37" y="52" width="1" height="1" fill="#231f20"/>
    <rect x="42" y="52" width="1" height="1" fill="#231f20"/>
    <rect x="61" y="52" width="1" height="1" fill="#231f20"/>
    <rect x="66" y="52" width="1" height="1" fill="#231f20"/>
    <rect x="78" y="52" width="1" height="1" fill="#231f20"/>
    <rect x="82" y="52" width="1" height="1" fill="#231f20"/>
    <rect x="112" y="52" width="1" height="1" fill="#231f20"/>
    <rect x="153" y="52" width="1" height="1" fill="#231f20"/>
    <rect x="0" y="53" width="1" height="1" fill="#231f20"/>
    <rect x="20" y="53" width="1" height="1" fill="#231f20"/>
    <rect x="26" y="53" width="1" height="1" fill="#231f20"/>
    <rect x="36" y="53" width="1" height="1" fill="#231f20"/>
    <rect x="42" y="53" width="1" height="1" fill="#231f20"/>
    <rect x="60" y="53" width="1" height="1" fill="#231f20"/>
    <rect x="66" y="53" width="1" height="1" fill="#231f20"/>
    <rect x="77" y="53" width="1" height="1" fill="#231f20"/>
    <rect x="83" y="53" width="1" height="1" fill="#231f20"/>
    <rect x="112" y="53" width="1" height="1" fill="#231f20"/>
    <rect x="153" y="53" width="1" height="1" fill="#231f20"/>
    <rect x="0" y="54" width="1" height="1" fill="#231f20"/>
    <rect x="19" y="54" width="1" height="1" fill="#231f20"/>
    <rect x="43" y="54" width="1" height="1" fill="#231f20"/>
    <rect x="60" y="54" width="1" height="1" fill="#231f20"/>
    <rect x="83" y="54" width="1" height="1" fill="#231f20"/>
    <rect x="112" y="54" width="1" height="1" fill="#231f20"/>
    <rect x="153" y="54" width="1" height="1" fill="#231f20"/>
    <rect x="0" y="55" width="1" height="1" fill="#231f20"/>
    <rect x="18" y="55" width="1" height="1" fill="#231f20"/>
    <rect x="44" y="55" width="1" height="1" fill="#231f20"/>
    <rect x="59" y="55" width="1" height="1" fill="#231f20"/>
    <rect x="84" y="55" width="1" height="1" fill="#231f20"/>
    <rect x="111" y="55" width="1" height="1" fill="#231f20"/>
    <rect x="153" y="55" width="1" height="1" fill="#231f20"/>
    <rect x="0" y="56" width="1" height="1" fill="#231f20"/>
    <rect x="153" y="56" width="1" height="1" fill="#231f20"/>
    <rect x="0" y="57" width="1" height="1" fill="#231f20"/>
    <rect x="153" y="57" width="1" height="1" fill="#231f20"/>
    <rect x="0" y="58" width="1" height="1" fill="#231f20"/>
    <rect x="153" y="58" width="1" height="1" fill="#231f20"/>
    <rect x="0" y="59" width="1" height="1" fill="#231f20"/>
    <rect x="153" y="59" width="1" height="1" fill="#231f20"/>
    <rect x="0" y="60" width="154" height="1" fill="#231f20"/>
  </g>
</svg>