<?xml version="1.0" encoding="UTF-8"?>
<svg xmlns="http://www.w3.org/2000/svg" viewBox="0 0 125 83" width="125" height="83">
  <!-- Auto-converted from legend-319.png -->
  <rect x="0" y="0" width="125" height="83" fill="none"/>
  <g fill="#231f20" stroke="none">
    <rect x="1" y="0" width="124" height="1" fill="#231f20"/>
    <rect x="1" y="1" width="1" height="1" fill="#231f20"/>
    <rect x="124" y="1" width="1" height="1" fill="#231f20"/>
    <rect x="1" y="2" width="1" height="1" fill="#231f20"/>
    <rect x="124" y="2" width="1" height="1" fill="#231f20"/>
    <rect x="1" y="3" width="1" height="1" fill="#231f20"/>
    <rect x="124" y="3" width="1" height="1" fill="#231f20"/>
    <rect x="1" y="4" width="1" height="1" fill="#231f20"/>
    <rect x="119" y="4" width="2" height="1" fill="#231f20"/>
    <rect x="124" y="4" width="1" height="1" fill="#231f20"/>
    <rect x="1" y="5" width="1" height="1" fill="#231f20"/>
    <rect x="115" y="5" width="7" height="1" fill="#231f20"/>
    <rect x="124" y="5" width="1" height="1" fill="#231f20"/>
    <rect x="1" y="6" width="1" height="1" fill="#231f20"/>
    <rect x="112" y="6" width="9" height="1" fill="#231f20"/>
    <rect x="124" y="6" width="1" height="1" fill="#231f20"/>
    <rect x="1" y="7" width="1" height="1" fill="#231f20"/>
    <rect x="108" y="7" width="11" height="1" fill="#231f20"/>
    <rect x="124" y="7" width="1" height="1" fill="#231f20"/>
    <rect x="1" y="8" width="1" height="1" fill="#231f20"/>
    <rect x="105" y="8" width="10" height="1" fill="#231f20"/>
    <rect x="124" y="8" width="1" height="1" fill="#231f20"/>
    <rect x="1" y="9" width="1" height="1" fill="#231f20"/>
    <rect x="103" y="9" width="9" height="1" fill="#231f20"/>
    <rect x="124" y="9" width="1" height="1" fill="#231f20"/>
    <rect x="1" y="10" width="1" height="1" fill="#231f20"/>
    <rect x="101" y="10" width="7" height="1" fill="#231f20"/>
    <rect x="124" y="10" width="1" height="1" fill="#231f20"/>
    <rect x="1" y="11" width="1" height="1" fill="#231f20"/>
    <rect x="98" y="11" width="7" height="1" fill="#231f20"/>
    <rect x="124" y="11" width="1" height="1" fill="#231f20"/>
    <rect x="1" y="12" width="1" height="1" fill="#231f20"/>
    <rect x="96" y="12" width="7" height="1" fill="#231f20"/>
    <rect x="124" y="12" width="1" height="1" fill="#231f20"/>
    <rect x="1" y="13" width="1" height="1" fill="#231f20"/>
    <rect x="94" y="13" width="7" height="1" fill="#231f20"/>
    <rect x="124" y="13" width="1" height="1" fill="#231f20"/>
    <rect x="1" y="14" width="1" height="1" fill="#231f20"/>
    <rect x="93" y="14" width="5" height="1" fill="#231f20"/>
    <rect x="124" y="14" width="1" height="1" fill="#231f20"/>
    <rect x="1" y="15" width="1" height="1" fill="#231f20"/>
    <rect x="92" y="15" width="4" height="1" fill="#231f20"/>
    <rect x="124" y="15" width="1" height="1" fill="#231f20"/>
    <rect x="1" y="16" width="1" height="1" fill="#231f20"/>
    <rect x="81" y="16" width="1" height="1" fill="#231f20"/>
    <rect x="93" y="16" width="1" height="1" fill="#231f20"/>
    <rect x="124" y="16" width="1" height="1" fill="#231f20"/>
    <rect x="1" y="17" width="1" height="1" fill="#231f20"/>
    <rect x="79" y="17" width="5" height="1" fill="#231f20"/>
    <rect x="124" y="17" width="1" height="1" fill="#231f20"/>
    <rect x="1" y="18" width="1" height="1" fill="#231f20"/>
    <rect x="79" y="18" width="5" height="1" fill="#231f20"/>
    <rect x="124" y="18" width="1" height="1" fill="#231f20"/>
    <rect x="1" y="19" width="1" height="1" fill="#231f20"/>
    <rect x="79" y="19" width="5" height="1" fill="#231f20"/>
    <rect x="124" y="19" width="1" height="1" fill="#231f20"/>
    <rect x="1" y="20" width="1" height="1" fill="#231f20"/>
    <rect x="79" y="20" width="5" height="1" fill="#231f20"/>
    <rect x="124" y="20" width="1" height="1" fill="#231f20"/>
    <rect x="1" y="21" width="1" height="1" fill="#231f20"/>
    <rect x="79" y="21" width="5" height="1" fill="#231f20"/>
    <rect x="124" y="21" width="1" height="1" fill="#231f20"/>
    <rect x="1" y="22" width="1" height="1" fill="#231f20"/>
    <rect x="124" y="22" width="1" height="1" fill="#231f20"/>
    <rect x="1" y="23" width="1" height="1" fill="#231f20"/>
    <rect x="124" y="23" width="1" height="1" fill="#231f20"/>
    <rect x="1" y="24" width="1" height="1" fill="#231f20"/>
    <rect x="69" y="24" width="2" height="1" fill="#231f20"/>
    <rect x="124" y="24" width="1" height="1" fill="#231f20"/>
    <rect x="1" y="25" width="1" height="1" fill="#231f20"/>
    <rect x="67" y="25" width="5" height="1" fill="#231f20"/>
    <rect x="124" y="25" width="1" height="1" fill="#231f20"/>
    <rect x="1" y="26" width="1" height="1" fill="#231f20"/>
    <rect x="65" y="26" width="6" height="1" fill="#231f20"/>
    <rect x="124" y="26" width="1" height="1" fill="#231f20"/>
    <rect x="1" y="27" width="1" height="1" fill="#231f20"/>
    <rect x="63" y="27" width="6" height="1" fill="#231f20"/>
    <rect x="124" y="27" width="1" height="1" fill="#231f20"/>
    <rect x="1" y="28" width="1" height="1" fill="#231f20"/>
    <rect x="62" y="28" width="6" height="1" fill="#231f20"/>
    <rect x="124" y="28" width="1" height="1" fill="#231f20"/>
    <rect x="1" y="29" width="1" height="1" fill="#231f20"/>
    <rect x="60" y="29" width="7" height="1" fill="#231f20"/>
    <rect x="124" y="29" width="1" height="1" fill="#231f20"/>
    <rect x="1" y="30" width="1" height="1" fill="#231f20"/>
    <rect x="58" y="30" width="7" height="1" fill="#231f20"/>
    <rect x="124" y="30" width="1" height="1" fill="#231f20"/>
    <rect x="1" y="31" width="1" height="1" fill="#231f20"/>
    <rect x="56" y="31" width="6" height="1" fill="#231f20"/>
    <rect x="124" y="31" width="1" height="1" fill="#231f20"/>
    <rect x="1" y="32" width="1" height="1" fill="#231f20"/>
    <rect x="55" y="32" width="6" height="1" fill="#231f20"/>
    <rect x="124" y="32" width="1" height="1" fill="#231f20"/>
    <rect x="1" y="33" width="1" height="1" fill="#231f20"/>
    <rect x="53" y="33" width="7" height="1" fill="#231f20"/>
    <rect x="124" y="33" width="1" height="1" fill="#231f20"/>
    <rect x="1" y="34" width="1" height="1" fill="#231f20"/>
    <rect x="51" y="34" width="7" height="1" fill="#231f20"/>
    <rect x="124" y="34" width="1" height="1" fill="#231f20"/>
    <rect x="1" y="35" width="1" height="1" fill="#231f20"/>
    <rect x="49" y="35" width="6" height="1" fill="#231f20"/>
    <rect x="124" y="35" width="1" height="1" fill="#231f20"/>
    <rect x="1" y="36" width="1" height="1" fill="#231f20"/>
    <rect x="48" y="36" width="6" height="1" fill="#231f20"/>
    <rect x="124" y="36" width="1" height="1" fill="#231f20"/>
    <rect x="1" y="37" width="1" height="1" fill="#231f20"/>
    <rect x="47" y="37" width="6" height="1" fill="#231f20"/>
    <rect x="124" y="37" width="1" height="1" fill="#231f20"/>
    <rect x="1" y="38" width="1" height="1" fill="#231f20"/>
    <rect x="46" y="38" width="5" height="1" fill="#231f20"/>
    <rect x="124" y="38" width="1" height="1" fill="#231f20"/>
    <rect x="1" y="39" width="1" height="1" fill="#231f20"/>
    <rect x="45" y="39" width="5" height="1" fill="#231f20"/>
    <rect x="124" y="39" width="1" height="1" fill="#231f20"/>
    <rect x="1" y="40" width="1" height="1" fill="#231f20"/>
    <rect x="44" y="40" width="5" height="1" fill="#231f20"/>
    <rect x="124" y="40" width="1" height="1" fill="#231f20"/>
    <rect x="1" y="41" width="1" height="1" fill="#231f20"/>
    <rect x="42" y="41" width="6" height="1" fill="#231f20"/>
    <rect x="124" y="41" width="1" height="1" fill="#231f20"/>
    <rect x="1" y="42" width="1" height="1" fill="#231f20"/>
    <rect x="41" y="42" width="6" height="1" fill="#231f20"/>
    <rect x="124" y="42" width="1" height="1" fill="#231f20"/>
    <rect x="1" y="43" width="1" height="1" fill="#231f20"/>
    <rect x="41" y="43" width="4" height="1" fill="#231f20"/>
    <rect x="124" y="43" width="1" height="1" fill="#231f20"/>
    <rect x="1" y="44" width="1" height="1" fill="#231f20"/>
    <rect x="41" y="44" width="3" height="1" fill="#231f20"/>
    <rect x="124" y="44" width="1" height="1" fill="#231f20"/>
    <rect x="1" y="45" width="1" height="1" fill="#231f20"/>
    <rect x="124" y="45" width="1" height="1" fill="#231f20"/>
    <rect x="1" y="46" width="1" height="1" fill="#231f20"/>
    <rect x="124" y="46" width="1" height="1" fill="#231f20"/>
    <rect x="1" y="47" width="1" height="1" fill="#231f20"/>
    <rect x="124" y="47" width="1" height="1" fill="#231f20"/>
    <rect x="1" y="48" width="1" height="1" fill="#231f20"/>
    <rect x="124" y="48" width="1" height="1" fill="#231f20"/>
    <rect x="1" y="49" width="1" height="1" fill="#231f20"/>
    <rect x="124" y="49" width="1" height="1" fill="#231f20"/>
    <rect x="1" y="50" width="1" height="1" fill="#231f20"/>
    <rect x="124" y="50" width="1" height="1" fill="#231f20"/>
    <rect x="1" y="51" width="1" height="1" fill="#231f20"/>
    <rect x="124" y="51" width="1" height="1" fill="#231f20"/>
    <rect x="1" y="52" width="1" height="1" fill="#231f20"/>
    <rect x="124" y="52" width="1" height="1" fill="#231f20"/>
    <rect x="1" y="53" width="1" height="1" fill="#231f20"/>
    <rect x="124" y="53" width="1" height="1" fill="#231f20"/>
    <rect x="1" y="54" width="1" height="1" fill="#231f20"/>
    <rect x="124" y="54" width="1" height="1" fill="#231f20"/>
    <rect x="1" y="55" width="1" height="1" fill="#231f20"/>
    <rect x="124" y="55" width="1" height="1" fill="#231f20"/>
    <rect x="1" y="56" width="1" height="1" fill="#231f20"/>
    <rect x="124" y="56" width="1" height="1" fill="#231f20"/>
    <rect x="1" y="57" width="1" height="1" fill="#231f20"/>
    <rect x="124" y="57" width="1" height="1" fill="#231f20"/>
    <rect x="1" y="58" width="1" height="1" fill="#231f20"/>
    <rect x="124" y="58" width="1" height="1" fill="#231f20"/>
    <rect x="1" y="59" width="1" height="1" fill="#231f20"/>
    <rect x="23" y="59" width="3" height="1" fill="#231f20"/>
    <rect x="124" y="59" width="1" height="1" fill="#231f20"/>
    <rect x="1" y="60" width="1" height="1" fill="#231f20"/>
    <rect x="22" y="60" width="4" height="1" fill="#231f20"/>
    <rect x="124" y="60" width="1" height="1" fill="#231f20"/>
    <rect x="1" y="61" width="1" height="1" fill="#231f20"/>
    <rect x="21" y="61" width="5" height="1" fill="#231f20"/>
    <rect x="124" y="61" width="1" height="1" fill="#231f20"/>
    <rect x="1" y="62" width="1" height="1" fill="#231f20"/>
    <rect x="20" y="62" width="5" height="1" fill="#231f20"/>
    <rect x="124" y="62" width="1" height="1" fill="#231f20"/>
    <rect x="1" y="63" width="1" height="1" fill="#231f20"/>
    <rect x="19" y="63" width="5" height="1" fill="#231f20"/>
    <rect x="124" y="63" width="1" height="1" fill="#231f20"/>
    <rect x="1" y="64" width="1" height="1" fill="#231f20"/>
    <rect x="18" y="64" width="5" height="1" fill="#231f20"/>
    <rect x="124" y="64" width="1" height="1" fill="#231f20"/>
    <rect x="1" y="65" width="1" height="1" fill="#231f20"/>
    <rect x="17" y="65" width="5" height="1" fill="#231f20"/>
    <rect x="124" y="65" width="1" height="1" fill="#231f20"/>
    <rect x="1" y="66" width="1" height="1" fill="#231f20"/>
    <rect x="16" y="66" width="5" height="1" fill="#231f20"/>
    <rect x="124" y="66" width="1" height="1" fill="#231f20"/>
    <rect x="1" y="67" width="1" height="1" fill="#231f20"/>
    <rect x="15" y="67" width="5" height="1" fill="#231f20"/>
    <rect x="124" y="67" width="1" height="1" fill="#231f20"/>
    <rect x="1" y="68" width="1" height="1" fill="#231f20"/>
    <rect x="14" y="68" width="5" height="1" fill="#231f20"/>
    <rect x="124" y="68" width="1" height="1" fill="#231f20"/>
    <rect x="1" y="69" width="1" height="1" fill="#231f20"/>
    <rect x="13" y="69" width="5" height="1" fill="#231f20"/>
    <rect x="124" y="69" width="1" height="1" fill="#231f20"/>
    <rect x="1" y="70" width="1" height="1" fill="#231f20"/>
    <rect x="12" y="70" width="5" height="1" fill="#231f20"/>
    <rect x="124" y="70" width="1" height="1" fill="#231f20"/>
    <rect x="1" y="71" width="1" height="1" fill="#231f20"/>
    <rect x="11" y="71" width="5" height="1" fill="#231f20"/>
    <rect x="124" y="71" width="1" height="1" fill="#231f20"/>
    <rect x="1" y="72" width="1" height="1" fill="#231f20"/>
    <rect x="10" y="72" width="5" height="1" fill="#231f20"/>
    <rect x="124" y="72" width="1" height="1" fill="#231f20"/>
    <rect x="1" y="73" width="1" height="1" fill="#231f20"/>
    <rect x="10" y="73" width="4" height="1" fill="#231f20"/>
    <rect x="124" y="73" width="1" height="1" fill="#231f20"/>
    <rect x="1" y="74" width="1" height="1" fill="#231f20"/>
    <rect x="9" y="74" width="4" height="1" fill="#231f20"/>
    <rect x="124" y="74" width="1" height="1" fill="#231f20"/>
    <rect x="1" y="75" width="1" height="1" fill="#231f20"/>
    <rect x="8" y="75" width="5" height="1" fill="#231f20"/>
    <rect x="124" y="75" width="1" height="1" fill="#231f20"/>
    <rect x="1" y="76" width="1" height="1" fill="#231f20"/>
    <rect x="7" y="76" width="5" height="1" fill="#231f20"/>
    <rect x="124" y="76" width="1" height="1" fill="#231f20"/>
    <rect x="1" y="77" width="1" height="1" fill="#231f20"/>
    <rect x="6" y="77" width="5" height="1" fill="#231f20"/>
    <rect x="124" y="77" width="1" height="1" fill="#231f20"/>
    <rect x="1" y="78" width="1" height="1" fill="#231f20"/>
    <rect x="6" y="78" width="4" height="1" fill="#231f20"/>
    <rect x="124" y="78" width="1" height="1" fill="#231f20"/>
    <rect x="1" y="79" width="1" height="1" fill="#231f20"/>
    <rect x="6" y="79" width="3" height="1" fill="#231f20"/>
    <rect x="124" y="79" width="1" height="1" fill="#231f20"/>
    <rect x="1" y="80" width="1" height="1" fill="#231f20"/>
    <rect x="124" y="80" width="1" height="1" fill="#231f20"/>
    <rect x="1" y="81" width="1" height="1" fill="#231f20"/>
    <rect x="124" y="81" width="1" height="1" fill="#231f20"/>
    <rect x="1" y="82" width="124" height="1" fill="#231f20"/>
  </g>
</svg>