<?xml version="1.0" encoding="UTF-8"?>
<svg xmlns="http://www.w3.org/2000/svg" viewBox="0 0 174 69" width="174" height="69">
  <!-- Auto-converted from legend-1861.png -->
  <rect x="0" y="0" width="174" height="69" fill="none"/>
  <g fill="#231f20" stroke="none">
    <rect x="0" y="0" width="174" height="1" fill="#231f20"/>
    <rect x="0" y="1" width="1" height="1" fill="#231f20"/>
    <rect x="65" y="1" width="1" height="1" fill="#231f20"/>
    <rect x="173" y="1" width="1" height="1" fill="#231f20"/>
    <rect x="0" y="2" width="1" height="1" fill="#231f20"/>
    <rect x="64" y="2" width="1" height="1" fill="#231f20"/>
    <rect x="173" y="2" width="1" height="1" fill="#231f20"/>
    <rect x="0" y="3" width="1" height="1" fill="#231f20"/>
    <rect x="63" y="3" width="1" height="1" fill="#231f20"/>
    <rect x="173" y="3" width="1" height="1" fill="#231f20"/>
    <rect x="0" y="4" width="1" height="1" fill="#231f20"/>
    <rect x="62" y="4" width="1" height="1" fill="#231f20"/>
    <rect x="173" y="4" width="1" height="1" fill="#231f20"/>
    <rect x="0" y="5" width="1" height="1" fill="#231f20"/>
    <rect x="20" y="5" width="1" height="1" fill="#231f20"/>
    <rect x="32" y="5" width="1" height="1" fill="#231f20"/>
    <rect x="61" y="5" width="1" height="1" fill="#231f20"/>
    <rect x="173" y="5" width="1" height="1" fill="#231f20"/>
    <rect x="0" y="6" width="1" height="1" fill="#231f20"/>
    <rect x="21" y="6" width="1" height="1" fill="#231f20"/>
    <rect x="31" y="6" width="1" height="1" fill="#231f20"/>
    <rect x="60" y="6" width="1" height="1" fill="#231f20"/>
    <rect x="78" y="6" width="12" height="1" fill="#231f20"/>
    <rect x="173" y="6" width="1" height="1" fill="#231f20"/>
    <rect x="0" y="7" width="1" height="1" fill="#231f20"/>
    <rect x="21" y="7" width="1" height="1" fill="#231f20"/>
    <rect x="31" y="7" width="1" height="1" fill="#231f20"/>
    <rect x="59" y="7" width="1" height="1" fill="#231f20"/>
    <rect x="79" y="7" width="1" height="1" fill="#231f20"/>
    <rect x="89" y="7" width="1" height="1" fill="#231f20"/>
    <rect x="108" y="7" width="3" height="1" fill="#231f20"/>
    <rect x="112" y="7" width="3" height="1" fill="#231f20"/>
    <rect x="137" y="7" width="3" height="1" fill="#231f20"/>
    <rect x="141" y="7" width="3" height="1" fill="#231f20"/>
    <rect x="173" y="7" width="1" height="1" fill="#231f20"/>
    <rect x="0" y="8" width="1" height="1" fill="#231f20"/>
    <rect x="22" y="8" width="1" height="1" fill="#231f20"/>
    <rect x="30" y="8" width="1" height="1" fill="#231f20"/>
    <rect x="58" y="8" width="1" height="1" fill="#231f20"/>
    <rect x="79" y="8" width="1" height="1" fill="#231f20"/>
    <rect x="88" y="8" width="1" height="1" fill="#231f20"/>
    <rect x="109" y="8" width="2" height="1" fill="#231f20"/>
    <rect x="112" y="8" width="2" height="1" fill="#231f20"/>
    <rect x="138" y="8" width="2" height="1" fill="#231f20"/>
    <rect x="141" y="8" width="2" height="1" fill="#231f20"/>
    <rect x="173" y="8" width="1" height="1" fill="#231f20"/>
    <rect x="0" y="9" width="1" height="1" fill="#231f20"/>
    <rect x="22" y="9" width="1" height="1" fill="#231f20"/>
    <rect x="30" y="9" width="1" height="1" fill="#231f20"/>
    <rect x="57" y="9" width="1" height="1" fill="#231f20"/>
    <rect x="80" y="9" width="1" height="1" fill="#231f20"/>
    <rect x="88" y="9" width="1" height="1" fill="#231f20"/>
    <rect x="109" y="9" width="2" height="1" fill="#231f20"/>
    <rect x="112" y="9" width="2" height="1" fill="#231f20"/>
    <rect x="138" y="9" width="2" height="1" fill="#231f20"/>
    <rect x="141" y="9" width="2" height="1" fill="#231f20"/>
    <rect x="173" y="9" width="1" height="1" fill="#231f20"/>
    <rect x="0" y="10" width="1" height="1" fill="#231f20"/>
    <rect x="23" y="10" width="1" height="1" fill="#231f20"/>
    <rect x="29" y="10" width="1" height="1" fill="#231f20"/>
    <rect x="56" y="10" width="1" height="1" fill="#231f20"/>
    <rect x="80" y="10" width="1" height="1" fill="#231f20"/>
    <rect x="87" y="10" width="1" height="1" fill="#231f20"/>
    <rect x="109" y="10" width="2" height="1" fill="#231f20"/>
    <rect x="112" y="10" width="2" height="1" fill="#231f20"/>
    <rect x="138" y="10" width="2" height="1" fill="#231f20"/>
    <rect x="141" y="10" width="2" height="1" fill="#231f20"/>
    <rect x="173" y="10" width="1" height="1" fill="#231f20"/>
    <rect x="0" y="11" width="1" height="1" fill="#231f20"/>
    <rect x="23" y="11" width="1" height="1" fill="#231f20"/>
    <rect x="29" y="11" width="1" height="1" fill="#231f20"/>
    <rect x="55" y="11" width="1" height="1" fill="#231f20"/>
    <rect x="81" y="11" width="1" height="1" fill="#231f20"/>
    <rect x="87" y="11" width="1" height="1" fill="#231f20"/>
    <rect x="109" y="11" width="2" height="1" fill="#231f20"/>
    <rect x="112" y="11" width="2" height="1" fill="#231f20"/>
    <rect x="138" y="11" width="2" height="1" fill="#231f20"/>
    <rect x="141" y="11" width="2" height="1" fill="#231f20"/>
    <rect x="173" y="11" width="1" height="1" fill="#231f20"/>
    <rect x="0" y="12" width="1" height="1" fill="#231f20"/>
    <rect x="24" y="12" width="1" height="1" fill="#231f20"/>
    <rect x="28" y="12" width="1" height="1" fill="#231f20"/>
    <rect x="54" y="12" width="1" height="1" fill="#231f20"/>
    <rect x="82" y="12" width="1" height="1" fill="#231f20"/>
    <rect x="86" y="12" width="1" height="1" fill="#231f20"/>
    <rect x="109" y="12" width="1" height="1" fill="#231f20"/>
    <rect x="111" y="12" width="1" height="1" fill="#231f20"/>
    <rect x="113" y="12" width="1" height="1" fill="#231f20"/>
    <rect x="138" y="12" width="1" height="1" fill="#231f20"/>
    <rect x="140" y="12" width="1" height="1" fill="#231f20"/>
    <rect x="142" y="12" width="1" height="1" fill="#231f20"/>
    <rect x="173" y="12" width="1" height="1" fill="#231f20"/>
    <rect x="0" y="13" width="1" height="1" fill="#231f20"/>
    <rect x="24" y="13" width="1" height="1" fill="#231f20"/>
    <rect x="28" y="13" width="1" height="1" fill="#231f20"/>
    <rect x="53" y="13" width="1" height="1" fill="#231f20"/>
    <rect x="82" y="13" width="1" height="1" fill="#231f20"/>
    <rect x="86" y="13" width="1" height="1" fill="#231f20"/>
    <rect x="109" y="13" width="1" height="1" fill="#231f20"/>
    <rect x="111" y="13" width="1" height="1" fill="#231f20"/>
    <rect x="113" y="13" width="1" height="1" fill="#231f20"/>
    <rect x="138" y="13" width="1" height="1" fill="#231f20"/>
    <rect x="140" y="13" width="1" height="1" fill="#231f20"/>
    <rect x="142" y="13" width="1" height="1" fill="#231f20"/>
    <rect x="173" y="13" width="1" height="1" fill="#231f20"/>
    <rect x="0" y="14" width="1" height="1" fill="#231f20"/>
    <rect x="25" y="14" width="1" height="1" fill="#231f20"/>
    <rect x="27" y="14" width="1" height="1" fill="#231f20"/>
    <rect x="52" y="14" width="1" height="1" fill="#231f20"/>
    <rect x="83" y="14" width="1" height="1" fill="#231f20"/>
    <rect x="85" y="14" width="1" height="1" fill="#231f20"/>
    <rect x="109" y="14" width="1" height="1" fill="#231f20"/>
    <rect x="111" y="14" width="1" height="1" fill="#231f20"/>
    <rect x="113" y="14" width="1" height="1" fill="#231f20"/>
    <rect x="138" y="14" width="1" height="1" fill="#231f20"/>
    <rect x="140" y="14" width="1" height="1" fill="#231f20"/>
    <rect x="142" y="14" width="1" height="1" fill="#231f20"/>
    <rect x="173" y="14" width="1" height="1" fill="#231f20"/>
    <rect x="0" y="15" width="1" height="1" fill="#231f20"/>
    <rect x="25" y="15" width="1" height="1" fill="#231f20"/>
    <rect x="27" y="15" width="1" height="1" fill="#231f20"/>
    <rect x="51" y="15" width="1" height="1" fill="#231f20"/>
    <rect x="83" y="15" width="1" height="1" fill="#231f20"/>
    <rect x="85" y="15" width="1" height="1" fill="#231f20"/>
    <rect x="109" y="15" width="1" height="1" fill="#231f20"/>
    <rect x="111" y="15" width="1" height="1" fill="#231f20"/>
    <rect x="113" y="15" width="1" height="1" fill="#231f20"/>
    <rect x="138" y="15" width="1" height="1" fill="#231f20"/>
    <rect x="140" y="15" width="1" height="1" fill="#231f20"/>
    <rect x="142" y="15" width="1" height="1" fill="#231f20"/>
    <rect x="173" y="15" width="1" height="1" fill="#231f20"/>
    <rect x="0" y="16" width="1" height="1" fill="#231f20"/>
    <rect x="26" y="16" width="1" height="1" fill="#231f20"/>
    <rect x="50" y="16" width="1" height="1" fill="#231f20"/>
    <rect x="84" y="16" width="1" height="1" fill="#231f20"/>
    <rect x="109" y="16" width="1" height="1" fill="#231f20"/>
    <rect x="111" y="16" width="1" height="1" fill="#231f20"/>
    <rect x="113" y="16" width="1" height="1" fill="#231f20"/>
    <rect x="138" y="16" width="1" height="1" fill="#231f20"/>
    <rect x="140" y="16" width="1" height="1" fill="#231f20"/>
    <rect x="142" y="16" width="1" height="1" fill="#231f20"/>
    <rect x="173" y="16" width="1" height="1" fill="#231f20"/>
    <rect x="0" y="17" width="1" height="1" fill="#231f20"/>
    <rect x="49" y="17" width="1" height="1" fill="#231f20"/>
    <rect x="108" y="17" width="2" height="1" fill="#231f20"/>
    <rect x="111" y="17" width="1" height="1" fill="#231f20"/>
    <rect x="113" y="17" width="2" height="1" fill="#231f20"/>
    <rect x="137" y="17" width="2" height="1" fill="#231f20"/>
    <rect x="140" y="17" width="1" height="1" fill="#231f20"/>
    <rect x="142" y="17" width="2" height="1" fill="#231f20"/>
    <rect x="173" y="17" width="1" height="1" fill="#231f20"/>
    <rect x="0" y="18" width="1" height="1" fill="#231f20"/>
    <rect x="48" y="18" width="1" height="1" fill="#231f20"/>
    <rect x="173" y="18" width="1" height="1" fill="#231f20"/>
    <rect x="0" y="19" width="1" height="1" fill="#231f20"/>
    <rect x="47" y="19" width="1" height="1" fill="#231f20"/>
    <rect x="173" y="19" width="1" height="1" fill="#231f20"/>
    <rect x="0" y="20" width="1" height="1" fill="#231f20"/>
    <rect x="46" y="20" width="1" height="1" fill="#231f20"/>
    <rect x="173" y="20" width="1" height="1" fill="#231f20"/>
    <rect x="0" y="21" width="1" height="1" fill="#231f20"/>
    <rect x="45" y="21" width="1" height="1" fill="#231f20"/>
    <rect x="173" y="21" width="1" height="1" fill="#231f20"/>
    <rect x="0" y="22" width="1" height="1" fill="#231f20"/>
    <rect x="44" y="22" width="1" height="1" fill="#231f20"/>
    <rect x="173" y="22" width="1" height="1" fill="#231f20"/>
    <rect x="0" y="23" width="174" height="1" fill="#231f20"/>
    <rect x="0" y="24" width="1" height="1" fill="#231f20"/>
    <rect x="129" y="24" width="1" height="1" fill="#231f20"/>
    <rect x="173" y="24" width="1" height="1" fill="#231f20"/>
    <rect x="0" y="25" width="1" height="1" fill="#231f20"/>
    <rect x="128" y="25" width="1" height="1" fill="#231f20"/>
    <rect x="173" y="25" width="1" height="1" fill="#231f20"/>
    <rect x="0" y="26" width="1" height="1" fill="#231f20"/>
    <rect x="127" y="26" width="1" height="1" fill="#231f20"/>
    <rect x="173" y="26" width="1" height="1" fill="#231f20"/>
    <rect x="0" y="27" width="1" height="1" fill="#231f20"/>
    <rect x="126" y="27" width="1" height="1" fill="#231f20"/>
    <rect x="173" y="27" width="1" height="1" fill="#231f20"/>
    <rect x="0" y="28" width="1" height="1" fill="#231f20"/>
    <rect x="125" y="28" width="1" height="1" fill="#231f20"/>
    <rect x="141" y="28" width="1" height="1" fill="#231f20"/>
    <rect x="153" y="28" width="1" height="1" fill="#231f20"/>
    <rect x="173" y="28" width="1" height="1" fill="#231f20"/>
    <rect x="0" y="29" width="1" height="1" fill="#231f20"/>
    <rect x="84" y="29" width="12" height="1" fill="#231f20"/>
    <rect x="124" y="29" width="1" height="1" fill="#231f20"/>
    <rect x="142" y="29" width="1" height="1" fill="#231f20"/>
    <rect x="152" y="29" width="1" height="1" fill="#231f20"/>
    <rect x="173" y="29" width="1" height="1" fill="#231f20"/>
    <rect x="0" y="30" width="1" height="1" fill="#231f20"/>
    <rect x="28" y="30" width="3" height="1" fill="#231f20"/>
    <rect x="32" y="30" width="3" height="1" fill="#231f20"/>
    <rect x="56" y="30" width="3" height="1" fill="#231f20"/>
    <rect x="60" y="30" width="3" height="1" fill="#231f20"/>
    <rect x="85" y="30" width="1" height="1" fill="#231f20"/>
    <rect x="94" y="30" width="1" height="1" fill="#231f20"/>
    <rect x="123" y="30" width="1" height="1" fill="#231f20"/>
    <rect x="142" y="30" width="1" height="1" fill="#231f20"/>
    <rect x="152" y="30" width="1" height="1" fill="#231f20"/>
    <rect x="173" y="30" width="1" height="1" fill="#231f20"/>
    <rect x="0" y="31" width="1" height="1" fill="#231f20"/>
    <rect x="29" y="31" width="2" height="1" fill="#231f20"/>
    <rect x="32" y="31" width="2" height="1" fill="#231f20"/>
    <rect x="57" y="31" width="2" height="1" fill="#231f20"/>
    <rect x="60" y="31" width="2" height="1" fill="#231f20"/>
    <rect x="85" y="31" width="1" height="1" fill="#231f20"/>
    <rect x="94" y="31" width="1" height="1" fill="#231f20"/>
    <rect x="122" y="31" width="1" height="1" fill="#231f20"/>
    <rect x="143" y="31" width="1" height="1" fill="#231f20"/>
    <rect x="151" y="31" width="1" height="1" fill="#231f20"/>
    <rect x="173" y="31" width="1" height="1" fill="#231f20"/>
    <rect x="0" y="32" width="1" height="1" fill="#231f20"/>
    <rect x="29" y="32" width="2" height="1" fill="#231f20"/>
    <rect x="32" y="32" width="2" height="1" fill="#231f20"/>
    <rect x="57" y="32" width="2" height="1" fill="#231f20"/>
    <rect x="60" y="32" width="2" height="1" fill="#231f20"/>
    <rect x="86" y="32" width="1" height="1" fill="#231f20"/>
    <rect x="93" y="32" width="1" height="1" fill="#231f20"/>
    <rect x="121" y="32" width="1" height="1" fill="#231f20"/>
    <rect x="143" y="32" width="1" height="1" fill="#231f20"/>
    <rect x="151" y="32" width="1" height="1" fill="#231f20"/>
    <rect x="173" y="32" width="1" height="1" fill="#231f20"/>
    <rect x="0" y="33" width="1" height="1" fill="#231f20"/>
    <rect x="29" y="33" width="2" height="1" fill="#231f20"/>
    <rect x="32" y="33" width="2" height="1" fill="#231f20"/>
    <rect x="57" y="33" width="2" height="1" fill="#231f20"/>
    <rect x="60" y="33" width="2" height="1" fill="#231f20"/>
    <rect x="86" y="33" width="1" height="1" fill="#231f20"/>
    <rect x="93" y="33" width="1" height="1" fill="#231f20"/>
    <rect x="120" y="33" width="1" height="1" fill="#231f20"/>
    <rect x="144" y="33" width="1" height="1" fill="#231f20"/>
    <rect x="150" y="33" width="1" height="1" fill="#231f20"/>
    <rect x="173" y="33" width="1" height="1" fill="#231f20"/>
    <rect x="0" y="34" width="1" height="1" fill="#231f20"/>
    <rect x="29" y="34" width="2" height="1" fill="#231f20"/>
    <rect x="32" y="34" width="2" height="1" fill="#231f20"/>
    <rect x="57" y="34" width="2" height="1" fill="#231f20"/>
    <rect x="60" y="34" width="2" height="1" fill="#231f20"/>
    <rect x="87" y="34" width="1" height="1" fill="#231f20"/>
    <rect x="92" y="34" width="1" height="1" fill="#231f20"/>
    <rect x="118" y="34" width="2" height="1" fill="#231f20"/>
    <rect x="144" y="34" width="1" height="1" fill="#231f20"/>
    <rect x="150" y="34" width="1" height="1" fill="#231f20"/>
    <rect x="173" y="34" width="1" height="1" fill="#231f20"/>
    <rect x="0" y="35" width="1" height="1" fill="#231f20"/>
    <rect x="29" y="35" width="1" height="1" fill="#231f20"/>
    <rect x="31" y="35" width="1" height="1" fill="#231f20"/>
    <rect x="33" y="35" width="1" height="1" fill="#231f20"/>
    <rect x="57" y="35" width="1" height="1" fill="#231f20"/>
    <rect x="59" y="35" width="1" height="1" fill="#231f20"/>
    <rect x="61" y="35" width="1" height="1" fill="#231f20"/>
    <rect x="87" y="35" width="1" height="1" fill="#231f20"/>
    <rect x="91" y="35" width="1" height="1" fill="#231f20"/>
    <rect x="117" y="35" width="1" height="1" fill="#231f20"/>
    <rect x="145" y="35" width="1" height="1" fill="#231f20"/>
    <rect x="149" y="35" width="1" height="1" fill="#231f20"/>
    <rect x="173" y="35" width="1" height="1" fill="#231f20"/>
    <rect x="0" y="36" width="1" height="1" fill="#231f20"/>
    <rect x="29" y="36" width="1" height="1" fill="#231f20"/>
    <rect x="31" y="36" width="1" height="1" fill="#231f20"/>
    <rect x="33" y="36" width="1" height="1" fill="#231f20"/>
    <rect x="57" y="36" width="1" height="1" fill="#231f20"/>
    <rect x="59" y="36" width="1" height="1" fill="#231f20"/>
    <rect x="61" y="36" width="1" height="1" fill="#231f20"/>
    <rect x="88" y="36" width="1" height="1" fill="#231f20"/>
    <rect x="91" y="36" width="1" height="1" fill="#231f20"/>
    <rect x="116" y="36" width="1" height="1" fill="#231f20"/>
    <rect x="145" y="36" width="1" height="1" fill="#231f20"/>
    <rect x="149" y="36" width="1" height="1" fill="#231f20"/>
    <rect x="173" y="36" width="1" height="1" fill="#231f20"/>
    <rect x="0" y="37" width="1" height="1" fill="#231f20"/>
    <rect x="29" y="37" width="1" height="1" fill="#231f20"/>
    <rect x="31" y="37" width="1" height="1" fill="#231f20"/>
    <rect x="33" y="37" width="1" height="1" fill="#231f20"/>
    <rect x="57" y="37" width="1" height="1" fill="#231f20"/>
    <rect x="59" y="37" width="1" height="1" fill="#231f20"/>
    <rect x="61" y="37" width="1" height="1" fill="#231f20"/>
    <rect x="88" y="37" width="1" height="1" fill="#231f20"/>
    <rect x="90" y="37" width="1" height="1" fill="#231f20"/>
    <rect x="115" y="37" width="1" height="1" fill="#231f20"/>
    <rect x="146" y="37" width="1" height="1" fill="#231f20"/>
    <rect x="148" y="37" width="1" height="1" fill="#231f20"/>
    <rect x="173" y="37" width="1" height="1" fill="#231f20"/>
    <rect x="0" y="38" width="1" height="1" fill="#231f20"/>
    <rect x="29" y="38" width="1" height="1" fill="#231f20"/>
    <rect x="31" y="38" width="1" height="1" fill="#231f20"/>
    <rect x="33" y="38" width="1" height="1" fill="#231f20"/>
    <rect x="57" y="38" width="1" height="1" fill="#231f20"/>
    <rect x="59" y="38" width="1" height="1" fill="#231f20"/>
    <rect x="61" y="38" width="1" height="1" fill="#231f20"/>
    <rect x="89" y="38" width="2" height="1" fill="#231f20"/>
    <rect x="114" y="38" width="1" height="1" fill="#231f20"/>
    <rect x="146" y="38" width="1" height="1" fill="#231f20"/>
    <rect x="148" y="38" width="1" height="1" fill="#231f20"/>
    <rect x="173" y="38" width="1" height="1" fill="#231f20"/>
    <rect x="0" y="39" width="1" height="1" fill="#231f20"/>
    <rect x="29" y="39" width="1" height="1" fill="#231f20"/>
    <rect x="31" y="39" width="1" height="1" fill="#231f20"/>
    <rect x="33" y="39" width="1" height="1" fill="#231f20"/>
    <rect x="57" y="39" width="1" height="1" fill="#231f20"/>
    <rect x="59" y="39" width="1" height="1" fill="#231f20"/>
    <rect x="61" y="39" width="1" height="1" fill="#231f20"/>
    <rect x="89" y="39" width="1" height="1" fill="#231f20"/>
    <rect x="113" y="39" width="1" height="1" fill="#231f20"/>
    <rect x="147" y="39" width="1" height="1" fill="#231f20"/>
    <rect x="173" y="39" width="1" height="1" fill="#231f20"/>
    <rect x="0" y="40" width="1" height="1" fill="#231f20"/>
    <rect x="28" y="40" width="2" height="1" fill="#231f20"/>
    <rect x="31" y="40" width="1" height="1" fill="#231f20"/>
    <rect x="33" y="40" width="2" height="1" fill="#231f20"/>
    <rect x="56" y="40" width="2" height="1" fill="#231f20"/>
    <rect x="59" y="40" width="1" height="1" fill="#231f20"/>
    <rect x="61" y="40" width="2" height="1" fill="#231f20"/>
    <rect x="112" y="40" width="1" height="1" fill="#231f20"/>
    <rect x="173" y="40" width="1" height="1" fill="#231f20"/>
    <rect x="0" y="41" width="1" height="1" fill="#231f20"/>
    <rect x="111" y="41" width="1" height="1" fill="#231f20"/>
    <rect x="173" y="41" width="1" height="1" fill="#231f20"/>
    <rect x="0" y="42" width="1" height="1" fill="#231f20"/>
    <rect x="110" y="42" width="1" height="1" fill="#231f20"/>
    <rect x="173" y="42" width="1" height="1" fill="#231f20"/>
    <rect x="0" y="43" width="1" height="1" fill="#231f20"/>
    <rect x="109" y="43" width="1" height="1" fill="#231f20"/>
    <rect x="173" y="43" width="1" height="1" fill="#231f20"/>
    <rect x="0" y="44" width="1" height="1" fill="#231f20"/>
    <rect x="108" y="44" width="1" height="1" fill="#231f20"/>
    <rect x="173" y="44" width="1" height="1" fill="#231f20"/>
    <rect x="0" y="45" width="174" height="1" fill="#231f20"/>
    <rect x="0" y="46" width="1" height="1" fill="#231f20"/>
    <rect x="65" y="46" width="1" height="1" fill="#231f20"/>
    <rect x="173" y="46" width="1" height="1" fill="#231f20"/>
    <rect x="0" y="47" width="1" height="1" fill="#231f20"/>
    <rect x="64" y="47" width="1" height="1" fill="#231f20"/>
    <rect x="173" y="47" width="1" height="1" fill="#231f20"/>
    <rect x="0" y="48" width="1" height="1" fill="#231f20"/>
    <rect x="63" y="48" width="1" height="1" fill="#231f20"/>
    <rect x="173" y="48" width="1" height="1" fill="#231f20"/>
    <rect x="0" y="49" width="1" height="1" fill="#231f20"/>
    <rect x="62" y="49" width="1" height="1" fill="#231f20"/>
    <rect x="173" y="49" width="1" height="1" fill="#231f20"/>
    <rect x="0" y="50" width="1" height="1" fill="#231f20"/>
    <rect x="61" y="50" width="1" height="1" fill="#231f20"/>
    <rect x="173" y="50" width="1" height="1" fill="#231f20"/>
    <rect x="0" y="51" width="1" height="1" fill="#231f20"/>
    <rect x="20" y="51" width="1" height="1" fill="#231f20"/>
    <rect x="32" y="51" width="1" height="1" fill="#231f20"/>
    <rect x="60" y="51" width="1" height="1" fill="#231f20"/>
    <rect x="173" y="51" width="1" height="1" fill="#231f20"/>
    <rect x="0" y="52" width="1" height="1" fill="#231f20"/>
    <rect x="21" y="52" width="1" height="1" fill="#231f20"/>
    <rect x="31" y="52" width="1" height="1" fill="#231f20"/>
    <rect x="59" y="52" width="1" height="1" fill="#231f20"/>
    <rect x="78" y="52" width="12" height="1" fill="#231f20"/>
    <rect x="173" y="52" width="1" height="1" fill="#231f20"/>
    <rect x="0" y="53" width="1" height="1" fill="#231f20"/>
    <rect x="21" y="53" width="1" height="1" fill="#231f20"/>
    <rect x="31" y="53" width="1" height="1" fill="#231f20"/>
    <rect x="58" y="53" width="1" height="1" fill="#231f20"/>
    <rect x="79" y="53" width="1" height="1" fill="#231f20"/>
    <rect x="89" y="53" width="1" height="1" fill="#231f20"/>
    <rect x="108" y="53" width="3" height="1" fill="#231f20"/>
    <rect x="112" y="53" width="3" height="1" fill="#231f20"/>
    <rect x="137" y="53" width="3" height="1" fill="#231f20"/>
    <rect x="141" y="53" width="3" height="1" fill="#231f20"/>
    <rect x="173" y="53" width="1" height="1" fill="#231f20"/>
    <rect x="0" y="54" width="1" height="1" fill="#231f20"/>
    <rect x="22" y="54" width="1" height="1" fill="#231f20"/>
    <rect x="30" y="54" width="1" height="1" fill="#231f20"/>
    <rect x="57" y="54" width="1" height="1" fill="#231f20"/>
    <rect x="79" y="54" width="1" height="1" fill="#231f20"/>
    <rect x="88" y="54" width="1" height="1" fill="#231f20"/>
    <rect x="109" y="54" width="2" height="1" fill="#231f20"/>
    <rect x="112" y="54" width="2" height="1" fill="#231f20"/>
    <rect x="138" y="54" width="2" height="1" fill="#231f20"/>
    <rect x="141" y="54" width="2" height="1" fill="#231f20"/>
    <rect x="173" y="54" width="1" height="1" fill="#231f20"/>
    <rect x="0" y="55" width="1" height="1" fill="#231f20"/>
    <rect x="22" y="55" width="1" height="1" fill="#231f20"/>
    <rect x="30" y="55" width="1" height="1" fill="#231f20"/>
    <rect x="56" y="55" width="1" height="1" fill="#231f20"/>
    <rect x="80" y="55" width="1" height="1" fill="#231f20"/>
    <rect x="88" y="55" width="1" height="1" fill="#231f20"/>
    <rect x="109" y="55" width="2" height="1" fill="#231f20"/>
    <rect x="112" y="55" width="2" height="1" fill="#231f20"/>
    <rect x="138" y="55" width="2" height="1" fill="#231f20"/>
    <rect x="141" y="55" width="2" height="1" fill="#231f20"/>
    <rect x="173" y="55" width="1" height="1" fill="#231f20"/>
    <rect x="0" y="56" width="1" height="1" fill="#231f20"/>
    <rect x="23" y="56" width="1" height="1" fill="#231f20"/>
    <rect x="29" y="56" width="1" height="1" fill="#231f20"/>
    <rect x="55" y="56" width="1" height="1" fill="#231f20"/>
    <rect x="80" y="56" width="1" height="1" fill="#231f20"/>
    <rect x="87" y="56" width="1" height="1" fill="#231f20"/>
    <rect x="109" y="56" width="2" height="1" fill="#231f20"/>
    <rect x="112" y="56" width="2" height="1" fill="#231f20"/>
    <rect x="138" y="56" width="2" height="1" fill="#231f20"/>
    <rect x="141" y="56" width="2" height="1" fill="#231f20"/>
    <rect x="173" y="56" width="1" height="1" fill="#231f20"/>
    <rect x="0" y="57" width="1" height="1" fill="#231f20"/>
    <rect x="23" y="57" width="1" height="1" fill="#231f20"/>
    <rect x="29" y="57" width="1" height="1" fill="#231f20"/>
    <rect x="54" y="57" width="1" height="1" fill="#231f20"/>
    <rect x="81" y="57" width="1" height="1" fill="#231f20"/>
    <rect x="87" y="57" width="1" height="1" fill="#231f20"/>
    <rect x="109" y="57" width="2" height="1" fill="#231f20"/>
    <rect x="112" y="57" width="2" height="1" fill="#231f20"/>
    <rect x="138" y="57" width="2" height="1" fill="#231f20"/>
    <rect x="141" y="57" width="2" height="1" fill="#231f20"/>
    <rect x="173" y="57" width="1" height="1" fill="#231f20"/>
    <rect x="0" y="58" width="1" height="1" fill="#231f20"/>
    <rect x="24" y="58" width="1" height="1" fill="#231f20"/>
    <rect x="28" y="58" width="1" height="1" fill="#231f20"/>
    <rect x="53" y="58" width="1" height="1" fill="#231f20"/>
    <rect x="82" y="58" width="1" height="1" fill="#231f20"/>
    <rect x="86" y="58" width="1" height="1" fill="#231f20"/>
    <rect x="109" y="58" width="1" height="1" fill="#231f20"/>
    <rect x="111" y="58" width="1" height="1" fill="#231f20"/>
    <rect x="113" y="58" width="1" height="1" fill="#231f20"/>
    <rect x="138" y="58" width="1" height="1" fill="#231f20"/>
    <rect x="140" y="58" width="1" height="1" fill="#231f20"/>
    <rect x="142" y="58" width="1" height="1" fill="#231f20"/>
    <rect x="173" y="58" width="1" height="1" fill="#231f20"/>
    <rect x="0" y="59" width="1" height="1" fill="#231f20"/>
    <rect x="24" y="59" width="1" height="1" fill="#231f20"/>
    <rect x="28" y="59" width="1" height="1" fill="#231f20"/>
    <rect x="52" y="59" width="1" height="1" fill="#231f20"/>
    <rect x="82" y="59" width="1" height="1" fill="#231f20"/>
    <rect x="86" y="59" width="1" height="1" fill="#231f20"/>
    <rect x="109" y="59" width="1" height="1" fill="#231f20"/>
    <rect x="111" y="59" width="1" height="1" fill="#231f20"/>
    <rect x="113" y="59" width="1" height="1" fill="#231f20"/>
    <rect x="138" y="59" width="1" height="1" fill="#231f20"/>
    <rect x="140" y="59" width="1" height="1" fill="#231f20"/>
    <rect x="142" y="59" width="1" height="1" fill="#231f20"/>
    <rect x="173" y="59" width="1" height="1" fill="#231f20"/>
    <rect x="0" y="60" width="1" height="1" fill="#231f20"/>
    <rect x="25" y="60" width="1" height="1" fill="#231f20"/>
    <rect x="27" y="60" width="1" height="1" fill="#231f20"/>
    <rect x="51" y="60" width="1" height="1" fill="#231f20"/>
    <rect x="83" y="60" width="1" height="1" fill="#231f20"/>
    <rect x="85" y="60" width="1" height="1" fill="#231f20"/>
    <rect x="109" y="60" width="1" height="1" fill="#231f20"/>
    <rect x="111" y="60" width="1" height="1" fill="#231f20"/>
    <rect x="113" y="60" width="1" height="1" fill="#231f20"/>
    <rect x="138" y="60" width="1" height="1" fill="#231f20"/>
    <rect x="140" y="60" width="1" height="1" fill="#231f20"/>
    <rect x="142" y="60" width="1" height="1" fill="#231f20"/>
    <rect x="173" y="60" width="1" height="1" fill="#231f20"/>
    <rect x="0" y="61" width="1" height="1" fill="#231f20"/>
    <rect x="25" y="61" width="1" height="1" fill="#231f20"/>
    <rect x="27" y="61" width="1" height="1" fill="#231f20"/>
    <rect x="50" y="61" width="1" height="1" fill="#231f20"/>
    <rect x="83" y="61" width="1" height="1" fill="#231f20"/>
    <rect x="85" y="61" width="1" height="1" fill="#231f20"/>
    <rect x="109" y="61" width="1" height="1" fill="#231f20"/>
    <rect x="111" y="61" width="1" height="1" fill="#231f20"/>
    <rect x="113" y="61" width="1" height="1" fill="#231f20"/>
    <rect x="138" y="61" width="1" height="1" fill="#231f20"/>
    <rect x="140" y="61" width="1" height="1" fill="#231f20"/>
    <rect x="142" y="61" width="1" height="1" fill="#231f20"/>
    <rect x="173" y="61" width="1" height="1" fill="#231f20"/>
    <rect x="0" y="62" width="1" height="1" fill="#231f20"/>
    <rect x="26" y="62" width="1" height="1" fill="#231f20"/>
    <rect x="49" y="62" width="1" height="1" fill="#231f20"/>
    <rect x="84" y="62" width="1" height="1" fill="#231f20"/>
    <rect x="109" y="62" width="1" height="1" fill="#231f20"/>
    <rect x="111" y="62" width="1" height="1" fill="#231f20"/>
    <rect x="113" y="62" width="1" height="1" fill="#231f20"/>
    <rect x="138" y="62" width="1" height="1" fill="#231f20"/>
    <rect x="140" y="62" width="1" height="1" fill="#231f20"/>
    <rect x="142" y="62" width="1" height="1" fill="#231f20"/>
    <rect x="173" y="62" width="1" height="1" fill="#231f20"/>
    <rect x="0" y="63" width="1" height="1" fill="#231f20"/>
    <rect x="48" y="63" width="1" height="1" fill="#231f20"/>
    <rect x="108" y="63" width="2" height="1" fill="#231f20"/>
    <rect x="111" y="63" width="1" height="1" fill="#231f20"/>
    <rect x="113" y="63" width="2" height="1" fill="#231f20"/>
    <rect x="137" y="63" width="2" height="1" fill="#231f20"/>
    <rect x="140" y="63" width="1" height="1" fill="#231f20"/>
    <rect x="142" y="63" width="2" height="1" fill="#231f20"/>
    <rect x="173" y="63" width="1" height="1" fill="#231f20"/>
    <rect x="0" y="64" width="1" height="1" fill="#231f20"/>
    <rect x="47" y="64" width="1" height="1" fill="#231f20"/>
    <rect x="173" y="64" width="1" height="1" fill="#231f20"/>
    <rect x="0" y="65" width="1" height="1" fill="#231f20"/>
    <rect x="46" y="65" width="1" height="1" fill="#231f20"/>
    <rect x="173" y="65" width="1" height="1" fill="#231f20"/>
    <rect x="0" y="66" width="1" height="1" fill="#231f20"/>
    <rect x="45" y="66" width="1" height="1" fill="#231f20"/>
    <rect x="173" y="66" width="1" height="1" fill="#231f20"/>
    <rect x="0" y="67" width="1" height="1" fill="#231f20"/>
    <rect x="44" y="67" width="1" height="1" fill="#231f20"/>
    <rect x="173" y="67" width="1" height="1" fill="#231f20"/>
    <rect x="0" y="68" width="174" height="1" fill="#231f20"/>
  </g>
</svg>