<?xml version="1.0" encoding="UTF-8"?>
<svg xmlns="http://www.w3.org/2000/svg" viewBox="0 0 174 70" width="174" height="70">
  <!-- Auto-converted from legend-2212.png -->
  <rect x="0" y="0" width="174" height="70" fill="none"/>
  <g fill="#000000" stroke="none">
    <rect x="0" y="0" width="174" height="1" fill="#000000"/>
    <rect x="0" y="1" width="1" height="1" fill="#000000"/>
    <rect x="173" y="1" width="1" height="1" fill="#000000"/>
    <rect x="0" y="2" width="1" height="1" fill="#000000"/>
    <rect x="173" y="2" width="1" height="1" fill="#000000"/>
    <rect x="0" y="3" width="1" height="1" fill="#000000"/>
    <rect x="173" y="3" width="1" height="1" fill="#000000"/>
    <rect x="0" y="4" width="1" height="1" fill="#000000"/>
    <rect x="173" y="4" width="1" height="1" fill="#000000"/>
    <rect x="0" y="5" width="1" height="1" fill="#000000"/>
    <rect x="173" y="5" width="1" height="1" fill="#000000"/>
    <rect x="0" y="6" width="1" height="1" fill="#000000"/>
    <rect x="66" y="6" width="1" height="1" fill="#000000"/>
    <rect x="78" y="6" width="1" height="1" fill="#000000"/>
    <rect x="173" y="6" width="1" height="1" fill="#000000"/>
    <rect x="0" y="7" width="1" height="1" fill="#000000"/>
    <rect x="67" y="7" width="1" height="1" fill="#000000"/>
    <rect x="77" y="7" width="1" height="1" fill="#000000"/>
    <rect x="173" y="7" width="1" height="1" fill="#000000"/>
    <rect x="0" y="8" width="1" height="1" fill="#000000"/>
    <rect x="67" y="8" width="1" height="1" fill="#000000"/>
    <rect x="77" y="8" width="1" height="1" fill="#000000"/>
    <rect x="173" y="8" width="1" height="1" fill="#000000"/>
    <rect x="0" y="9" width="1" height="1" fill="#000000"/>
    <rect x="68" y="9" width="1" height="1" fill="#000000"/>
    <rect x="76" y="9" width="1" height="1" fill="#000000"/>
    <rect x="173" y="9" width="1" height="1" fill="#000000"/>
    <rect x="0" y="10" width="1" height="1" fill="#000000"/>
    <rect x="35" y="10" width="7" height="1" fill="#000000"/>
    <rect x="68" y="10" width="1" height="1" fill="#000000"/>
    <rect x="76" y="10" width="1" height="1" fill="#000000"/>
    <rect x="104" y="10" width="6" height="1" fill="#000000"/>
    <rect x="173" y="10" width="1" height="1" fill="#000000"/>
    <rect x="0" y="11" width="1" height="1" fill="#000000"/>
    <rect x="35" y="11" width="1" height="1" fill="#000000"/>
    <rect x="69" y="11" width="1" height="1" fill="#000000"/>
    <rect x="75" y="11" width="1" height="1" fill="#000000"/>
    <rect x="104" y="11" width="1" height="1" fill="#000000"/>
    <rect x="173" y="11" width="1" height="1" fill="#000000"/>
    <rect x="0" y="12" width="1" height="1" fill="#000000"/>
    <rect x="35" y="12" width="1" height="1" fill="#000000"/>
    <rect x="69" y="12" width="1" height="1" fill="#000000"/>
    <rect x="75" y="12" width="1" height="1" fill="#000000"/>
    <rect x="104" y="12" width="1" height="1" fill="#000000"/>
    <rect x="173" y="12" width="1" height="1" fill="#000000"/>
    <rect x="0" y="13" width="1" height="1" fill="#000000"/>
    <rect x="35" y="13" width="1" height="1" fill="#000000"/>
    <rect x="70" y="13" width="1" height="1" fill="#000000"/>
    <rect x="74" y="13" width="1" height="1" fill="#000000"/>
    <rect x="104" y="13" width="1" height="1" fill="#000000"/>
    <rect x="173" y="13" width="1" height="1" fill="#000000"/>
    <rect x="0" y="14" width="1" height="1" fill="#000000"/>
    <rect x="70" y="14" width="1" height="1" fill="#000000"/>
    <rect x="74" y="14" width="1" height="1" fill="#000000"/>
    <rect x="173" y="14" width="1" height="1" fill="#000000"/>
    <rect x="0" y="15" width="1" height="1" fill="#000000"/>
    <rect x="71" y="15" width="1" height="1" fill="#000000"/>
    <rect x="73" y="15" width="1" height="1" fill="#000000"/>
    <rect x="173" y="15" width="1" height="1" fill="#000000"/>
    <rect x="0" y="16" width="1" height="1" fill="#000000"/>
    <rect x="71" y="16" width="1" height="1" fill="#000000"/>
    <rect x="73" y="16" width="1" height="1" fill="#000000"/>
    <rect x="173" y="16" width="1" height="1" fill="#000000"/>
    <rect x="0" y="17" width="1" height="1" fill="#000000"/>
    <rect x="72" y="17" width="1" height="1" fill="#000000"/>
    <rect x="173" y="17" width="1" height="1" fill="#000000"/>
    <rect x="0" y="18" width="1" height="1" fill="#000000"/>
    <rect x="173" y="18" width="1" height="1" fill="#000000"/>
    <rect x="0" y="19" width="1" height="1" fill="#000000"/>
    <rect x="173" y="19" width="1" height="1" fill="#000000"/>
    <rect x="0" y="20" width="1" height="1" fill="#000000"/>
    <rect x="173" y="20" width="1" height="1" fill="#000000"/>
    <rect x="0" y="21" width="1" height="1" fill="#000000"/>
    <rect x="173" y="21" width="1" height="1" fill="#000000"/>
    <rect x="0" y="22" width="1" height="1" fill="#000000"/>
    <rect x="173" y="22" width="1" height="1" fill="#000000"/>
    <rect x="0" y="23" width="1" height="1" fill="#000000"/>
    <rect x="173" y="23" width="1" height="1" fill="#000000"/>
    <rect x="0" y="24" width="1" height="1" fill="#000000"/>
    <rect x="173" y="24" width="1" height="1" fill="#000000"/>
    <rect x="0" y="25" width="1" height="1" fill="#000000"/>
    <rect x="173" y="25" width="1" height="1" fill="#000000"/>
    <rect x="0" y="26" width="1" height="1" fill="#000000"/>
    <rect x="173" y="26" width="1" height="1" fill="#000000"/>
    <rect x="0" y="27" width="1" height="1" fill="#000000"/>
    <rect x="173" y="27" width="1" height="1" fill="#000000"/>
    <rect x="0" y="28" width="1" height="1" fill="#000000"/>
    <rect x="173" y="28" width="1" height="1" fill="#000000"/>
    <rect x="0" y="29" width="1" height="1" fill="#000000"/>
    <rect x="61" y="29" width="1" height="1" fill="#000000"/>
    <rect x="72" y="29" width="1" height="1" fill="#000000"/>
    <rect x="130" y="29" width="1" height="1" fill="#000000"/>
    <rect x="141" y="29" width="1" height="1" fill="#000000"/>
    <rect x="173" y="29" width="1" height="1" fill="#000000"/>
    <rect x="0" y="30" width="1" height="1" fill="#000000"/>
    <rect x="61" y="30" width="1" height="1" fill="#000000"/>
    <rect x="71" y="30" width="1" height="1" fill="#000000"/>
    <rect x="130" y="30" width="1" height="1" fill="#000000"/>
    <rect x="140" y="30" width="1" height="1" fill="#000000"/>
    <rect x="173" y="30" width="1" height="1" fill="#000000"/>
    <rect x="0" y="31" width="1" height="1" fill="#000000"/>
    <rect x="62" y="31" width="1" height="1" fill="#000000"/>
    <rect x="71" y="31" width="1" height="1" fill="#000000"/>
    <rect x="131" y="31" width="1" height="1" fill="#000000"/>
    <rect x="140" y="31" width="1" height="1" fill="#000000"/>
    <rect x="173" y="31" width="1" height="1" fill="#000000"/>
    <rect x="0" y="32" width="1" height="1" fill="#000000"/>
    <rect x="62" y="32" width="1" height="1" fill="#000000"/>
    <rect x="70" y="32" width="1" height="1" fill="#000000"/>
    <rect x="131" y="32" width="1" height="1" fill="#000000"/>
    <rect x="139" y="32" width="1" height="1" fill="#000000"/>
    <rect x="173" y="32" width="1" height="1" fill="#000000"/>
    <rect x="0" y="33" width="1" height="1" fill="#000000"/>
    <rect x="63" y="33" width="1" height="1" fill="#000000"/>
    <rect x="70" y="33" width="1" height="1" fill="#000000"/>
    <rect x="98" y="33" width="7" height="1" fill="#000000"/>
    <rect x="132" y="33" width="1" height="1" fill="#000000"/>
    <rect x="139" y="33" width="1" height="1" fill="#000000"/>
    <rect x="173" y="33" width="1" height="1" fill="#000000"/>
    <rect x="0" y="34" width="1" height="1" fill="#000000"/>
    <rect x="63" y="34" width="1" height="1" fill="#000000"/>
    <rect x="69" y="34" width="1" height="1" fill="#000000"/>
    <rect x="98" y="34" width="1" height="1" fill="#000000"/>
    <rect x="132" y="34" width="1" height="1" fill="#000000"/>
    <rect x="138" y="34" width="1" height="1" fill="#000000"/>
    <rect x="173" y="34" width="1" height="1" fill="#000000"/>
    <rect x="0" y="35" width="1" height="1" fill="#000000"/>
    <rect x="64" y="35" width="1" height="1" fill="#000000"/>
    <rect x="69" y="35" width="1" height="1" fill="#000000"/>
    <rect x="98" y="35" width="1" height="1" fill="#000000"/>
    <rect x="133" y="35" width="1" height="1" fill="#000000"/>
    <rect x="138" y="35" width="1" height="1" fill="#000000"/>
    <rect x="173" y="35" width="1" height="1" fill="#000000"/>
    <rect x="0" y="36" width="1" height="1" fill="#000000"/>
    <rect x="64" y="36" width="1" height="1" fill="#000000"/>
    <rect x="68" y="36" width="1" height="1" fill="#000000"/>
    <rect x="98" y="36" width="1" height="1" fill="#000000"/>
    <rect x="133" y="36" width="1" height="1" fill="#000000"/>
    <rect x="137" y="36" width="1" height="1" fill="#000000"/>
    <rect x="173" y="36" width="1" height="1" fill="#000000"/>
    <rect x="0" y="37" width="1" height="1" fill="#000000"/>
    <rect x="65" y="37" width="1" height="1" fill="#000000"/>
    <rect x="68" y="37" width="1" height="1" fill="#000000"/>
    <rect x="134" y="37" width="1" height="1" fill="#000000"/>
    <rect x="137" y="37" width="1" height="1" fill="#000000"/>
    <rect x="173" y="37" width="1" height="1" fill="#000000"/>
    <rect x="0" y="38" width="1" height="1" fill="#000000"/>
    <rect x="65" y="38" width="1" height="1" fill="#000000"/>
    <rect x="67" y="38" width="1" height="1" fill="#000000"/>
    <rect x="134" y="38" width="1" height="1" fill="#000000"/>
    <rect x="136" y="38" width="1" height="1" fill="#000000"/>
    <rect x="173" y="38" width="1" height="1" fill="#000000"/>
    <rect x="0" y="39" width="1" height="1" fill="#000000"/>
    <rect x="66" y="39" width="2" height="1" fill="#000000"/>
    <rect x="135" y="39" width="2" height="1" fill="#000000"/>
    <rect x="173" y="39" width="1" height="1" fill="#000000"/>
    <rect x="0" y="40" width="1" height="1" fill="#000000"/>
    <rect x="66" y="40" width="1" height="1" fill="#000000"/>
    <rect x="135" y="40" width="1" height="1" fill="#000000"/>
    <rect x="173" y="40" width="1" height="1" fill="#000000"/>
    <rect x="0" y="41" width="1" height="1" fill="#000000"/>
    <rect x="173" y="41" width="1" height="1" fill="#000000"/>
    <rect x="0" y="42" width="1" height="1" fill="#000000"/>
    <rect x="173" y="42" width="1" height="1" fill="#000000"/>
    <rect x="0" y="43" width="1" height="1" fill="#000000"/>
    <rect x="173" y="43" width="1" height="1" fill="#000000"/>
    <rect x="0" y="44" width="1" height="1" fill="#000000"/>
    <rect x="173" y="44" width="1" height="1" fill="#000000"/>
    <rect x="0" y="45" width="1" height="1" fill="#000000"/>
    <rect x="173" y="45" width="1" height="1" fill="#000000"/>
    <rect x="0" y="46" width="1" height="1" fill="#000000"/>
    <rect x="173" y="46" width="1" height="1" fill="#000000"/>
    <rect x="0" y="47" width="1" height="1" fill="#000000"/>
    <rect x="173" y="47" width="1" height="1" fill="#000000"/>
    <rect x="0" y="48" width="1" height="1" fill="#000000"/>
    <rect x="173" y="48" width="1" height="1" fill="#000000"/>
    <rect x="0" y="49" width="1" height="1" fill="#000000"/>
    <rect x="173" y="49" width="1" height="1" fill="#000000"/>
    <rect x="0" y="50" width="1" height="1" fill="#000000"/>
    <rect x="173" y="50" width="1" height="1" fill="#000000"/>
    <rect x="0" y="51" width="1" height="1" fill="#000000"/>
    <rect x="173" y="51" width="1" height="1" fill="#000000"/>
    <rect x="0" y="52" width="1" height="1" fill="#000000"/>
    <rect x="66" y="52" width="1" height="1" fill="#000000"/>
    <rect x="78" y="52" width="1" height="1" fill="#000000"/>
    <rect x="173" y="52" width="1" height="1" fill="#000000"/>
    <rect x="0" y="53" width="1" height="1" fill="#000000"/>
    <rect x="67" y="53" width="1" height="1" fill="#000000"/>
    <rect x="77" y="53" width="1" height="1" fill="#000000"/>
    <rect x="173" y="53" width="1" height="1" fill="#000000"/>
    <rect x="0" y="54" width="1" height="1" fill="#000000"/>
    <rect x="67" y="54" width="1" height="1" fill="#000000"/>
    <rect x="77" y="54" width="1" height="1" fill="#000000"/>
    <rect x="173" y="54" width="1" height="1" fill="#000000"/>
    <rect x="0" y="55" width="1" height="1" fill="#000000"/>
    <rect x="68" y="55" width="1" height="1" fill="#000000"/>
    <rect x="76" y="55" width="1" height="1" fill="#000000"/>
    <rect x="173" y="55" width="1" height="1" fill="#000000"/>
    <rect x="0" y="56" width="1" height="1" fill="#000000"/>
    <rect x="35" y="56" width="7" height="1" fill="#000000"/>
    <rect x="68" y="56" width="1" height="1" fill="#000000"/>
    <rect x="76" y="56" width="1" height="1" fill="#000000"/>
    <rect x="104" y="56" width="6" height="1" fill="#000000"/>
    <rect x="173" y="56" width="1" height="1" fill="#000000"/>
    <rect x="0" y="57" width="1" height="1" fill="#000000"/>
    <rect x="35" y="57" width="1" height="1" fill="#000000"/>
    <rect x="69" y="57" width="1" height="1" fill="#000000"/>
    <rect x="75" y="57" width="1" height="1" fill="#000000"/>
    <rect x="104" y="57" width="1" height="1" fill="#000000"/>
    <rect x="173" y="57" width="1" height="1" fill="#000000"/>
    <rect x="0" y="58" width="1" height="1" fill="#000000"/>
    <rect x="35" y="58" width="1" height="1" fill="#000000"/>
    <rect x="69" y="58" width="1" height="1" fill="#000000"/>
    <rect x="75" y="58" width="1" height="1" fill="#000000"/>
    <rect x="104" y="58" width="1" height="1" fill="#000000"/>
    <rect x="173" y="58" width="1" height="1" fill="#000000"/>
    <rect x="0" y="59" width="1" height="1" fill="#000000"/>
    <rect x="35" y="59" width="1" height="1" fill="#000000"/>
    <rect x="70" y="59" width="1" height="1" fill="#000000"/>
    <rect x="74" y="59" width="1" height="1" fill="#000000"/>
    <rect x="104" y="59" width="1" height="1" fill="#000000"/>
    <rect x="173" y="59" width="1" height="1" fill="#000000"/>
    <rect x="0" y="60" width="1" height="1" fill="#000000"/>
    <rect x="70" y="60" width="1" height="1" fill="#000000"/>
    <rect x="74" y="60" width="1" height="1" fill="#000000"/>
    <rect x="173" y="60" width="1" height="1" fill="#000000"/>
    <rect x="0" y="61" width="1" height="1" fill="#000000"/>
    <rect x="71" y="61" width="1" height="1" fill="#000000"/>
    <rect x="73" y="61" width="1" height="1" fill="#000000"/>
    <rect x="173" y="61" width="1" height="1" fill="#000000"/>
    <rect x="0" y="62" width="1" height="1" fill="#000000"/>
    <rect x="71" y="62" width="1" height="1" fill="#000000"/>
    <rect x="73" y="62" width="1" height="1" fill="#000000"/>
    <rect x="173" y="62" width="1" height="1" fill="#000000"/>
    <rect x="0" y="63" width="1" height="1" fill="#000000"/>
    <rect x="72" y="63" width="1" height="1" fill="#000000"/>
    <rect x="173" y="63" width="1" height="1" fill="#000000"/>
    <rect x="0" y="64" width="1" height="1" fill="#000000"/>
    <rect x="173" y="64" width="1" height="1" fill="#000000"/>
    <rect x="0" y="65" width="1" height="1" fill="#000000"/>
    <rect x="173" y="65" width="1" height="1" fill="#000000"/>
    <rect x="0" y="66" width="1" height="1" fill="#000000"/>
    <rect x="173" y="66" width="1" height="1" fill="#000000"/>
    <rect x="0" y="67" width="1" height="1" fill="#000000"/>
    <rect x="173" y="67" width="1" height="1" fill="#000000"/>
    <rect x="0" y="68" width="1" height="1" fill="#000000"/>
    <rect x="173" y="68" width="1" height="1" fill="#000000"/>
    <rect x="0" y="69" width="174" height="1" fill="#000000"/>
  </g>
</svg>