<?xml version="1.0" encoding="UTF-8"?>
<svg xmlns="http://www.w3.org/2000/svg" viewBox="0 0 154 62" width="154" height="62">
  <!-- Auto-converted from legend-2080.png -->
  <rect x="0" y="0" width="154" height="62" fill="none"/>
  <g fill="#231f20" stroke="none">
    <rect x="0" y="0" width="154" height="1" fill="#231f20"/>
    <rect x="0" y="1" width="1" height="1" fill="#231f20"/>
    <rect x="153" y="1" width="1" height="1" fill="#231f20"/>
    <rect x="0" y="2" width="1" height="1" fill="#231f20"/>
    <rect x="153" y="2" width="1" height="1" fill="#231f20"/>
    <rect x="0" y="3" width="1" height="1" fill="#231f20"/>
    <rect x="153" y="3" width="1" height="1" fill="#231f20"/>
    <rect x="0" y="4" width="1" height="1" fill="#231f20"/>
    <rect x="153" y="4" width="1" height="1" fill="#231f20"/>
    <rect x="0" y="5" width="1" height="1" fill="#231f20"/>
    <rect x="153" y="5" width="1" height="1" fill="#231f20"/>
    <rect x="0" y="6" width="1" height="1" fill="#231f20"/>
    <rect x="153" y="6" width="1" height="1" fill="#231f20"/>
    <rect x="0" y="7" width="1" height="1" fill="#231f20"/>
    <rect x="153" y="7" width="1" height="1" fill="#231f20"/>
    <rect x="0" y="8" width="1" height="1" fill="#231f20"/>
    <rect x="153" y="8" width="1" height="1" fill="#231f20"/>
    <rect x="0" y="9" width="1" height="1" fill="#231f20"/>
    <rect x="153" y="9" width="1" height="1" fill="#231f20"/>
    <rect x="0" y="10" width="1" height="1" fill="#231f20"/>
    <rect x="153" y="10" width="1" height="1" fill="#231f20"/>
    <rect x="0" y="11" width="1" height="1" fill="#231f20"/>
    <rect x="153" y="11" width="1" height="1" fill="#231f20"/>
    <rect x="0" y="12" width="1" height="1" fill="#231f20"/>
    <rect x="153" y="12" width="1" height="1" fill="#231f20"/>
    <rect x="0" y="13" width="1" height="1" fill="#231f20"/>
    <rect x="153" y="13" width="1" height="1" fill="#231f20"/>
    <rect x="0" y="14" width="1" height="1" fill="#231f20"/>
    <rect x="153" y="14" width="1" height="1" fill="#231f20"/>
    <rect x="0" y="15" width="1" height="1" fill="#231f20"/>
    <rect x="153" y="15" width="1" height="1" fill="#231f20"/>
    <rect x="0" y="16" width="1" height="1" fill="#231f20"/>
    <rect x="153" y="16" width="1" height="1" fill="#231f20"/>
    <rect x="0" y="17" width="1" height="1" fill="#231f20"/>
    <rect x="153" y="17" width="1" height="1" fill="#231f20"/>
    <rect x="0" y="18" width="1" height="1" fill="#231f20"/>
    <rect x="153" y="18" width="1" height="1" fill="#231f20"/>
    <rect x="0" y="19" width="1" height="1" fill="#231f20"/>
    <rect x="153" y="19" width="1" height="1" fill="#231f20"/>
    <rect x="0" y="20" width="1" height="1" fill="#231f20"/>
    <rect x="153" y="20" width="1" height="1" fill="#231f20"/>
    <rect x="0" y="21" width="1" height="1" fill="#231f20"/>
    <rect x="19" y="21" width="10" height="1" fill="#231f20"/>
    <rect x="153" y="21" width="1" height="1" fill="#231f20"/>
    <rect x="0" y="22" width="1" height="1" fill="#231f20"/>
    <rect x="16" y="22" width="16" height="1" fill="#231f20"/>
    <rect x="76" y="22" width="3" height="1" fill="#231f20"/>
    <rect x="130" y="22" width="9" height="1" fill="#231f20"/>
    <rect x="153" y="22" width="1" height="1" fill="#231f20"/>
    <rect x="0" y="23" width="1" height="1" fill="#231f20"/>
    <rect x="15" y="23" width="19" height="1" fill="#231f20"/>
    <rect x="70" y="23" width="2" height="1" fill="#231f20"/>
    <rect x="74" y="23" width="8" height="1" fill="#231f20"/>
    <rect x="88" y="23" width="2" height="1" fill="#231f20"/>
    <rect x="128" y="23" width="12" height="1" fill="#231f20"/>
    <rect x="153" y="23" width="1" height="1" fill="#231f20"/>
    <rect x="0" y="24" width="1" height="1" fill="#231f20"/>
    <rect x="16" y="24" width="5" height="1" fill="#231f20"/>
    <rect x="27" y="24" width="8" height="1" fill="#231f20"/>
    <rect x="42" y="24" width="2" height="1" fill="#231f20"/>
    <rect x="45" y="24" width="2" height="1" fill="#231f20"/>
    <rect x="48" y="24" width="2" height="1" fill="#231f20"/>
    <rect x="51" y="24" width="2" height="1" fill="#231f20"/>
    <rect x="55" y="24" width="2" height="1" fill="#231f20"/>
    <rect x="59" y="24" width="2" height="1" fill="#231f20"/>
    <rect x="62" y="24" width="2" height="1" fill="#231f20"/>
    <rect x="66" y="24" width="3" height="1" fill="#231f20"/>
    <rect x="70" y="24" width="13" height="1" fill="#231f20"/>
    <rect x="84" y="24" width="2" height="1" fill="#231f20"/>
    <rect x="87" y="24" width="3" height="1" fill="#231f20"/>
    <rect x="91" y="24" width="2" height="1" fill="#231f20"/>
    <rect x="96" y="24" width="2" height="1" fill="#231f20"/>
    <rect x="100" y="24" width="2" height="1" fill="#231f20"/>
    <rect x="104" y="24" width="2" height="1" fill="#231f20"/>
    <rect x="108" y="24" width="3" height="1" fill="#231f20"/>
    <rect x="112" y="24" width="2" height="1" fill="#231f20"/>
    <rect x="115" y="24" width="3" height="1" fill="#231f20"/>
    <rect x="126" y="24" width="13" height="1" fill="#231f20"/>
    <rect x="153" y="24" width="1" height="1" fill="#231f20"/>
    <rect x="0" y="25" width="1" height="1" fill="#231f20"/>
    <rect x="30" y="25" width="6" height="1" fill="#231f20"/>
    <rect x="42" y="25" width="2" height="1" fill="#231f20"/>
    <rect x="45" y="25" width="2" height="1" fill="#231f20"/>
    <rect x="48" y="25" width="2" height="1" fill="#231f20"/>
    <rect x="51" y="25" width="2" height="1" fill="#231f20"/>
    <rect x="55" y="25" width="2" height="1" fill="#231f20"/>
    <rect x="59" y="25" width="5" height="1" fill="#231f20"/>
    <rect x="66" y="25" width="2" height="1" fill="#231f20"/>
    <rect x="70" y="25" width="16" height="1" fill="#231f20"/>
    <rect x="88" y="25" width="1" height="1" fill="#231f20"/>
    <rect x="91" y="25" width="2" height="1" fill="#231f20"/>
    <rect x="96" y="25" width="2" height="1" fill="#231f20"/>
    <rect x="100" y="25" width="2" height="1" fill="#231f20"/>
    <rect x="104" y="25" width="2" height="1" fill="#231f20"/>
    <rect x="109" y="25" width="2" height="1" fill="#231f20"/>
    <rect x="112" y="25" width="2" height="1" fill="#231f20"/>
    <rect x="115" y="25" width="2" height="1" fill="#231f20"/>
    <rect x="124" y="25" width="9" height="1" fill="#231f20"/>
    <rect x="153" y="25" width="1" height="1" fill="#231f20"/>
    <rect x="0" y="26" width="1" height="1" fill="#231f20"/>
    <rect x="32" y="26" width="6" height="1" fill="#231f20"/>
    <rect x="42" y="26" width="1" height="1" fill="#231f20"/>
    <rect x="46" y="26" width="2" height="1" fill="#231f20"/>
    <rect x="50" y="26" width="2" height="1" fill="#231f20"/>
    <rect x="53" y="26" width="2" height="1" fill="#231f20"/>
    <rect x="56" y="26" width="2" height="1" fill="#231f20"/>
    <rect x="60" y="26" width="2" height="1" fill="#231f20"/>
    <rect x="63" y="26" width="2" height="1" fill="#231f20"/>
    <rect x="66" y="26" width="2" height="1" fill="#231f20"/>
    <rect x="71" y="26" width="5" height="1" fill="#231f20"/>
    <rect x="79" y="26" width="6" height="1" fill="#231f20"/>
    <rect x="97" y="26" width="1" height="1" fill="#231f20"/>
    <rect x="100" y="26" width="2" height="1" fill="#231f20"/>
    <rect x="104" y="26" width="2" height="1" fill="#231f20"/>
    <rect x="108" y="26" width="1" height="1" fill="#231f20"/>
    <rect x="123" y="26" width="7" height="1" fill="#231f20"/>
    <rect x="153" y="26" width="1" height="1" fill="#231f20"/>
    <rect x="0" y="27" width="1" height="1" fill="#231f20"/>
    <rect x="33" y="27" width="5" height="1" fill="#231f20"/>
    <rect x="42" y="27" width="2" height="1" fill="#231f20"/>
    <rect x="46" y="27" width="2" height="1" fill="#231f20"/>
    <rect x="50" y="27" width="2" height="1" fill="#231f20"/>
    <rect x="53" y="27" width="2" height="1" fill="#231f20"/>
    <rect x="56" y="27" width="4" height="1" fill="#231f20"/>
    <rect x="61" y="27" width="4" height="1" fill="#231f20"/>
    <rect x="70" y="27" width="5" height="1" fill="#231f20"/>
    <rect x="80" y="27" width="5" height="1" fill="#231f20"/>
    <rect x="93" y="27" width="2" height="1" fill="#231f20"/>
    <rect x="96" y="27" width="2" height="1" fill="#231f20"/>
    <rect x="100" y="27" width="2" height="1" fill="#231f20"/>
    <rect x="104" y="27" width="2" height="1" fill="#231f20"/>
    <rect x="107" y="27" width="3" height="1" fill="#231f20"/>
    <rect x="111" y="27" width="1" height="1" fill="#231f20"/>
    <rect x="117" y="27" width="1" height="1" fill="#231f20"/>
    <rect x="122" y="27" width="6" height="1" fill="#231f20"/>
    <rect x="153" y="27" width="1" height="1" fill="#231f20"/>
    <rect x="0" y="28" width="1" height="1" fill="#231f20"/>
    <rect x="34" y="28" width="5" height="1" fill="#231f20"/>
    <rect x="40" y="28" width="3" height="1" fill="#231f20"/>
    <rect x="46" y="28" width="1" height="1" fill="#231f20"/>
    <rect x="50" y="28" width="1" height="1" fill="#231f20"/>
    <rect x="54" y="28" width="2" height="1" fill="#231f20"/>
    <rect x="58" y="28" width="2" height="1" fill="#231f20"/>
    <rect x="61" y="28" width="2" height="1" fill="#231f20"/>
    <rect x="66" y="28" width="2" height="1" fill="#231f20"/>
    <rect x="69" y="28" width="5" height="1" fill="#231f20"/>
    <rect x="81" y="28" width="5" height="1" fill="#231f20"/>
    <rect x="89" y="28" width="1" height="1" fill="#231f20"/>
    <rect x="93" y="28" width="2" height="1" fill="#231f20"/>
    <rect x="97" y="28" width="1" height="1" fill="#231f20"/>
    <rect x="100" y="28" width="1" height="1" fill="#231f20"/>
    <rect x="104" y="28" width="1" height="1" fill="#231f20"/>
    <rect x="110" y="28" width="3" height="1" fill="#231f20"/>
    <rect x="117" y="28" width="2" height="1" fill="#231f20"/>
    <rect x="121" y="28" width="5" height="1" fill="#231f20"/>
    <rect x="153" y="28" width="1" height="1" fill="#231f20"/>
    <rect x="0" y="29" width="1" height="1" fill="#231f20"/>
    <rect x="35" y="29" width="7" height="1" fill="#231f20"/>
    <rect x="46" y="29" width="2" height="1" fill="#231f20"/>
    <rect x="49" y="29" width="2" height="1" fill="#231f20"/>
    <rect x="54" y="29" width="2" height="1" fill="#231f20"/>
    <rect x="58" y="29" width="7" height="1" fill="#231f20"/>
    <rect x="66" y="29" width="7" height="1" fill="#231f20"/>
    <rect x="82" y="29" width="4" height="1" fill="#231f20"/>
    <rect x="88" y="29" width="2" height="1" fill="#231f20"/>
    <rect x="99" y="29" width="2" height="1" fill="#231f20"/>
    <rect x="103" y="29" width="2" height="1" fill="#231f20"/>
    <rect x="117" y="29" width="2" height="1" fill="#231f20"/>
    <rect x="120" y="29" width="5" height="1" fill="#231f20"/>
    <rect x="153" y="29" width="1" height="1" fill="#231f20"/>
    <rect x="0" y="30" width="1" height="1" fill="#231f20"/>
    <rect x="36" y="30" width="5" height="1" fill="#231f20"/>
    <rect x="46" y="30" width="1" height="1" fill="#231f20"/>
    <rect x="50" y="30" width="1" height="1" fill="#231f20"/>
    <rect x="53" y="30" width="1" height="1" fill="#231f20"/>
    <rect x="58" y="30" width="7" height="1" fill="#231f20"/>
    <rect x="68" y="30" width="4" height="1" fill="#231f20"/>
    <rect x="82" y="30" width="5" height="1" fill="#231f20"/>
    <rect x="89" y="30" width="1" height="1" fill="#231f20"/>
    <rect x="94" y="30" width="1" height="1" fill="#231f20"/>
    <rect x="100" y="30" width="1" height="1" fill="#231f20"/>
    <rect x="104" y="30" width="1" height="1" fill="#231f20"/>
    <rect x="119" y="30" width="5" height="1" fill="#231f20"/>
    <rect x="153" y="30" width="1" height="1" fill="#231f20"/>
    <rect x="0" y="31" width="1" height="1" fill="#231f20"/>
    <rect x="37" y="31" width="4" height="1" fill="#231f20"/>
    <rect x="43" y="31" width="2" height="1" fill="#231f20"/>
    <rect x="52" y="31" width="2" height="1" fill="#231f20"/>
    <rect x="58" y="31" width="2" height="1" fill="#231f20"/>
    <rect x="64" y="31" width="1" height="1" fill="#231f20"/>
    <rect x="67" y="31" width="5" height="1" fill="#231f20"/>
    <rect x="83" y="31" width="5" height="1" fill="#231f20"/>
    <rect x="94" y="31" width="2" height="1" fill="#231f20"/>
    <rect x="103" y="31" width="2" height="1" fill="#231f20"/>
    <rect x="108" y="31" width="1" height="1" fill="#231f20"/>
    <rect x="113" y="31" width="2" height="1" fill="#231f20"/>
    <rect x="116" y="31" width="1" height="1" fill="#231f20"/>
    <rect x="118" y="31" width="5" height="1" fill="#231f20"/>
    <rect x="153" y="31" width="1" height="1" fill="#231f20"/>
    <rect x="0" y="32" width="1" height="1" fill="#231f20"/>
    <rect x="37" y="32" width="4" height="1" fill="#231f20"/>
    <rect x="43" y="32" width="2" height="1" fill="#231f20"/>
    <rect x="53" y="32" width="1" height="1" fill="#231f20"/>
    <rect x="67" y="32" width="4" height="1" fill="#231f20"/>
    <rect x="84" y="32" width="4" height="1" fill="#231f20"/>
    <rect x="90" y="32" width="2" height="1" fill="#231f20"/>
    <rect x="94" y="32" width="1" height="1" fill="#231f20"/>
    <rect x="103" y="32" width="2" height="1" fill="#231f20"/>
    <rect x="108" y="32" width="2" height="1" fill="#231f20"/>
    <rect x="113" y="32" width="2" height="1" fill="#231f20"/>
    <rect x="116" y="32" width="6" height="1" fill="#231f20"/>
    <rect x="153" y="32" width="1" height="1" fill="#231f20"/>
    <rect x="0" y="33" width="1" height="1" fill="#231f20"/>
    <rect x="38" y="33" width="4" height="1" fill="#231f20"/>
    <rect x="43" y="33" width="2" height="1" fill="#231f20"/>
    <rect x="49" y="33" width="1" height="1" fill="#231f20"/>
    <rect x="66" y="33" width="4" height="1" fill="#231f20"/>
    <rect x="85" y="33" width="3" height="1" fill="#231f20"/>
    <rect x="90" y="33" width="2" height="1" fill="#231f20"/>
    <rect x="100" y="33" width="2" height="1" fill="#231f20"/>
    <rect x="108" y="33" width="2" height="1" fill="#231f20"/>
    <rect x="116" y="33" width="6" height="1" fill="#231f20"/>
    <rect x="153" y="33" width="1" height="1" fill="#231f20"/>
    <rect x="0" y="34" width="1" height="1" fill="#231f20"/>
    <rect x="38" y="34" width="4" height="1" fill="#231f20"/>
    <rect x="43" y="34" width="3" height="1" fill="#231f20"/>
    <rect x="49" y="34" width="2" height="1" fill="#231f20"/>
    <rect x="54" y="34" width="2" height="1" fill="#231f20"/>
    <rect x="59" y="34" width="2" height="1" fill="#231f20"/>
    <rect x="63" y="34" width="2" height="1" fill="#231f20"/>
    <rect x="66" y="34" width="4" height="1" fill="#231f20"/>
    <rect x="86" y="34" width="3" height="1" fill="#231f20"/>
    <rect x="95" y="34" width="2" height="1" fill="#231f20"/>
    <rect x="100" y="34" width="3" height="1" fill="#231f20"/>
    <rect x="113" y="34" width="2" height="1" fill="#231f20"/>
    <rect x="117" y="34" width="4" height="1" fill="#231f20"/>
    <rect x="153" y="34" width="1" height="1" fill="#231f20"/>
    <rect x="0" y="35" width="1" height="1" fill="#231f20"/>
    <rect x="39" y="35" width="4" height="1" fill="#231f20"/>
    <rect x="49" y="35" width="2" height="1" fill="#231f20"/>
    <rect x="54" y="35" width="2" height="1" fill="#231f20"/>
    <rect x="59" y="35" width="2" height="1" fill="#231f20"/>
    <rect x="63" y="35" width="6" height="1" fill="#231f20"/>
    <rect x="86" y="35" width="3" height="1" fill="#231f20"/>
    <rect x="95" y="35" width="2" height="1" fill="#231f20"/>
    <rect x="106" y="35" width="1" height="1" fill="#231f20"/>
    <rect x="110" y="35" width="2" height="1" fill="#231f20"/>
    <rect x="113" y="35" width="2" height="1" fill="#231f20"/>
    <rect x="116" y="35" width="4" height="1" fill="#231f20"/>
    <rect x="153" y="35" width="1" height="1" fill="#231f20"/>
    <rect x="0" y="36" width="1" height="1" fill="#231f20"/>
    <rect x="40" y="36" width="4" height="1" fill="#231f20"/>
    <rect x="64" y="36" width="4" height="1" fill="#231f20"/>
    <rect x="87" y="36" width="3" height="1" fill="#231f20"/>
    <rect x="101" y="36" width="2" height="1" fill="#231f20"/>
    <rect x="105" y="36" width="3" height="1" fill="#231f20"/>
    <rect x="110" y="36" width="2" height="1" fill="#231f20"/>
    <rect x="115" y="36" width="4" height="1" fill="#231f20"/>
    <rect x="153" y="36" width="1" height="1" fill="#231f20"/>
    <rect x="0" y="37" width="1" height="1" fill="#231f20"/>
    <rect x="40" y="37" width="4" height="1" fill="#231f20"/>
    <rect x="64" y="37" width="4" height="1" fill="#231f20"/>
    <rect x="87" y="37" width="6" height="1" fill="#231f20"/>
    <rect x="96" y="37" width="2" height="1" fill="#231f20"/>
    <rect x="100" y="37" width="3" height="1" fill="#231f20"/>
    <rect x="106" y="37" width="1" height="1" fill="#231f20"/>
    <rect x="115" y="37" width="4" height="1" fill="#231f20"/>
    <rect x="153" y="37" width="1" height="1" fill="#231f20"/>
    <rect x="0" y="38" width="1" height="1" fill="#231f20"/>
    <rect x="41" y="38" width="5" height="1" fill="#231f20"/>
    <rect x="48" y="38" width="2" height="1" fill="#231f20"/>
    <rect x="52" y="38" width="2" height="1" fill="#231f20"/>
    <rect x="57" y="38" width="2" height="1" fill="#231f20"/>
    <rect x="61" y="38" width="2" height="1" fill="#231f20"/>
    <rect x="64" y="38" width="3" height="1" fill="#231f20"/>
    <rect x="87" y="38" width="6" height="1" fill="#231f20"/>
    <rect x="96" y="38" width="2" height="1" fill="#231f20"/>
    <rect x="104" y="38" width="2" height="1" fill="#231f20"/>
    <rect x="111" y="38" width="2" height="1" fill="#231f20"/>
    <rect x="114" y="38" width="4" height="1" fill="#231f20"/>
    <rect x="153" y="38" width="1" height="1" fill="#231f20"/>
    <rect x="0" y="39" width="1" height="1" fill="#231f20"/>
    <rect x="42" y="39" width="4" height="1" fill="#231f20"/>
    <rect x="48" y="39" width="2" height="1" fill="#231f20"/>
    <rect x="52" y="39" width="2" height="1" fill="#231f20"/>
    <rect x="57" y="39" width="2" height="1" fill="#231f20"/>
    <rect x="61" y="39" width="5" height="1" fill="#231f20"/>
    <rect x="88" y="39" width="4" height="1" fill="#231f20"/>
    <rect x="104" y="39" width="2" height="1" fill="#231f20"/>
    <rect x="111" y="39" width="6" height="1" fill="#231f20"/>
    <rect x="153" y="39" width="1" height="1" fill="#231f20"/>
    <rect x="0" y="40" width="1" height="1" fill="#231f20"/>
    <rect x="43" y="40" width="3" height="1" fill="#231f20"/>
    <rect x="63" y="40" width="3" height="1" fill="#231f20"/>
    <rect x="88" y="40" width="5" height="1" fill="#231f20"/>
    <rect x="111" y="40" width="1" height="1" fill="#231f20"/>
    <rect x="113" y="40" width="4" height="1" fill="#231f20"/>
    <rect x="153" y="40" width="1" height="1" fill="#231f20"/>
    <rect x="0" y="41" width="1" height="1" fill="#231f20"/>
    <rect x="43" y="41" width="3" height="1" fill="#231f20"/>
    <rect x="63" y="41" width="3" height="1" fill="#231f20"/>
    <rect x="89" y="41" width="6" height="1" fill="#231f20"/>
    <rect x="98" y="41" width="1" height="1" fill="#231f20"/>
    <rect x="103" y="41" width="2" height="1" fill="#231f20"/>
    <rect x="108" y="41" width="1" height="1" fill="#231f20"/>
    <rect x="112" y="41" width="4" height="1" fill="#231f20"/>
    <rect x="153" y="41" width="1" height="1" fill="#231f20"/>
    <rect x="0" y="42" width="1" height="1" fill="#231f20"/>
    <rect x="43" y="42" width="3" height="1" fill="#231f20"/>
    <rect x="47" y="42" width="2" height="1" fill="#231f20"/>
    <rect x="51" y="42" width="2" height="1" fill="#231f20"/>
    <rect x="56" y="42" width="2" height="1" fill="#231f20"/>
    <rect x="60" y="42" width="1" height="1" fill="#231f20"/>
    <rect x="62" y="42" width="3" height="1" fill="#231f20"/>
    <rect x="90" y="42" width="5" height="1" fill="#231f20"/>
    <rect x="97" y="42" width="3" height="1" fill="#231f20"/>
    <rect x="102" y="42" width="3" height="1" fill="#231f20"/>
    <rect x="107" y="42" width="3" height="1" fill="#231f20"/>
    <rect x="111" y="42" width="4" height="1" fill="#231f20"/>
    <rect x="153" y="42" width="1" height="1" fill="#231f20"/>
    <rect x="0" y="43" width="1" height="1" fill="#231f20"/>
    <rect x="44" y="43" width="5" height="1" fill="#231f20"/>
    <rect x="51" y="43" width="3" height="1" fill="#231f20"/>
    <rect x="55" y="43" width="3" height="1" fill="#231f20"/>
    <rect x="60" y="43" width="5" height="1" fill="#231f20"/>
    <rect x="91" y="43" width="3" height="1" fill="#231f20"/>
    <rect x="111" y="43" width="4" height="1" fill="#231f20"/>
    <rect x="153" y="43" width="1" height="1" fill="#231f20"/>
    <rect x="0" y="44" width="1" height="1" fill="#231f20"/>
    <rect x="44" y="44" width="4" height="1" fill="#231f20"/>
    <rect x="52" y="44" width="1" height="1" fill="#231f20"/>
    <rect x="60" y="44" width="4" height="1" fill="#231f20"/>
    <rect x="91" y="44" width="4" height="1" fill="#231f20"/>
    <rect x="109" y="44" width="5" height="1" fill="#231f20"/>
    <rect x="153" y="44" width="1" height="1" fill="#231f20"/>
    <rect x="0" y="45" width="1" height="1" fill="#231f20"/>
    <rect x="45" y="45" width="5" height="1" fill="#231f20"/>
    <rect x="59" y="45" width="4" height="1" fill="#231f20"/>
    <rect x="91" y="45" width="4" height="1" fill="#231f20"/>
    <rect x="98" y="45" width="1" height="1" fill="#231f20"/>
    <rect x="107" y="45" width="1" height="1" fill="#231f20"/>
    <rect x="109" y="45" width="4" height="1" fill="#231f20"/>
    <rect x="153" y="45" width="1" height="1" fill="#231f20"/>
    <rect x="0" y="46" width="1" height="1" fill="#231f20"/>
    <rect x="45" y="46" width="6" height="1" fill="#231f20"/>
    <rect x="59" y="46" width="4" height="1" fill="#231f20"/>
    <rect x="92" y="46" width="4" height="1" fill="#231f20"/>
    <rect x="98" y="46" width="2" height="1" fill="#231f20"/>
    <rect x="103" y="46" width="2" height="1" fill="#231f20"/>
    <rect x="106" y="46" width="6" height="1" fill="#231f20"/>
    <rect x="153" y="46" width="1" height="1" fill="#231f20"/>
    <rect x="0" y="47" width="1" height="1" fill="#231f20"/>
    <rect x="45" y="47" width="5" height="1" fill="#231f20"/>
    <rect x="51" y="47" width="2" height="1" fill="#231f20"/>
    <rect x="56" y="47" width="1" height="1" fill="#231f20"/>
    <rect x="58" y="47" width="5" height="1" fill="#231f20"/>
    <rect x="92" y="47" width="4" height="1" fill="#231f20"/>
    <rect x="98" y="47" width="1" height="1" fill="#231f20"/>
    <rect x="103" y="47" width="2" height="1" fill="#231f20"/>
    <rect x="107" y="47" width="5" height="1" fill="#231f20"/>
    <rect x="153" y="47" width="1" height="1" fill="#231f20"/>
    <rect x="0" y="48" width="1" height="1" fill="#231f20"/>
    <rect x="46" y="48" width="4" height="1" fill="#231f20"/>
    <rect x="51" y="48" width="2" height="1" fill="#231f20"/>
    <rect x="56" y="48" width="6" height="1" fill="#231f20"/>
    <rect x="93" y="48" width="4" height="1" fill="#231f20"/>
    <rect x="107" y="48" width="5" height="1" fill="#231f20"/>
    <rect x="153" y="48" width="1" height="1" fill="#231f20"/>
    <rect x="0" y="49" width="1" height="1" fill="#231f20"/>
    <rect x="46" y="49" width="5" height="1" fill="#231f20"/>
    <rect x="56" y="49" width="5" height="1" fill="#231f20"/>
    <rect x="93" y="49" width="5" height="1" fill="#231f20"/>
    <rect x="106" y="49" width="5" height="1" fill="#231f20"/>
    <rect x="153" y="49" width="1" height="1" fill="#231f20"/>
    <rect x="0" y="50" width="1" height="1" fill="#231f20"/>
    <rect x="47" y="50" width="5" height="1" fill="#231f20"/>
    <rect x="53" y="50" width="2" height="1" fill="#231f20"/>
    <rect x="56" y="50" width="5" height="1" fill="#231f20"/>
    <rect x="94" y="50" width="5" height="1" fill="#231f20"/>
    <rect x="104" y="50" width="6" height="1" fill="#231f20"/>
    <rect x="153" y="50" width="1" height="1" fill="#231f20"/>
    <rect x="0" y="51" width="1" height="1" fill="#231f20"/>
    <rect x="47" y="51" width="13" height="1" fill="#231f20"/>
    <rect x="95" y="51" width="7" height="1" fill="#231f20"/>
    <rect x="104" y="51" width="5" height="1" fill="#231f20"/>
    <rect x="153" y="51" width="1" height="1" fill="#231f20"/>
    <rect x="0" y="52" width="1" height="1" fill="#231f20"/>
    <rect x="48" y="52" width="11" height="1" fill="#231f20"/>
    <rect x="96" y="52" width="12" height="1" fill="#231f20"/>
    <rect x="153" y="52" width="1" height="1" fill="#231f20"/>
    <rect x="0" y="53" width="1" height="1" fill="#231f20"/>
    <rect x="49" y="53" width="9" height="1" fill="#231f20"/>
    <rect x="96" y="53" width="11" height="1" fill="#231f20"/>
    <rect x="153" y="53" width="1" height="1" fill="#231f20"/>
    <rect x="0" y="54" width="1" height="1" fill="#231f20"/>
    <rect x="50" y="54" width="7" height="1" fill="#231f20"/>
    <rect x="97" y="54" width="9" height="1" fill="#231f20"/>
    <rect x="153" y="54" width="1" height="1" fill="#231f20"/>
    <rect x="0" y="55" width="1" height="1" fill="#231f20"/>
    <rect x="52" y="55" width="3" height="1" fill="#231f20"/>
    <rect x="99" y="55" width="6" height="1" fill="#231f20"/>
    <rect x="153" y="55" width="1" height="1" fill="#231f20"/>
    <rect x="0" y="56" width="1" height="1" fill="#231f20"/>
    <rect x="153" y="56" width="1" height="1" fill="#231f20"/>
    <rect x="0" y="57" width="1" height="1" fill="#231f20"/>
    <rect x="153" y="57" width="1" height="1" fill="#231f20"/>
    <rect x="0" y="58" width="1" height="1" fill="#231f20"/>
    <rect x="153" y="58" width="1" height="1" fill="#231f20"/>
    <rect x="0" y="59" width="1" height="1" fill="#231f20"/>
    <rect x="153" y="59" width="1" height="1" fill="#231f20"/>
    <rect x="0" y="60" width="1" height="1" fill="#231f20"/>
    <rect x="153" y="60" width="1" height="1" fill="#231f20"/>
    <rect x="0" y="61" width="154" height="1" fill="#231f20"/>
  </g>
</svg>