<?xml version="1.0" encoding="UTF-8"?>
<svg xmlns="http://www.w3.org/2000/svg" viewBox="0 0 147 59" width="147" height="59">
  <!-- Auto-converted from legend-1579.png -->
  <rect x="0" y="0" width="147" height="59" fill="none"/>
  <g fill="#231f20" stroke="none">
    <rect x="0" y="0" width="147" height="1" fill="#231f20"/>
    <rect x="0" y="1" width="1" height="1" fill="#231f20"/>
    <rect x="146" y="1" width="1" height="1" fill="#231f20"/>
    <rect x="0" y="2" width="1" height="1" fill="#231f20"/>
    <rect x="146" y="2" width="1" height="1" fill="#231f20"/>
    <rect x="0" y="3" width="1" height="1" fill="#231f20"/>
    <rect x="146" y="3" width="1" height="1" fill="#231f20"/>
    <rect x="0" y="4" width="1" height="1" fill="#231f20"/>
    <rect x="146" y="4" width="1" height="1" fill="#231f20"/>
    <rect x="0" y="5" width="1" height="1" fill="#231f20"/>
    <rect x="146" y="5" width="1" height="1" fill="#231f20"/>
    <rect x="0" y="6" width="1" height="1" fill="#231f20"/>
    <rect x="146" y="6" width="1" height="1" fill="#231f20"/>
    <rect x="0" y="7" width="1" height="1" fill="#231f20"/>
    <rect x="146" y="7" width="1" height="1" fill="#231f20"/>
    <rect x="0" y="8" width="1" height="1" fill="#231f20"/>
    <rect x="146" y="8" width="1" height="1" fill="#231f20"/>
    <rect x="0" y="9" width="1" height="1" fill="#231f20"/>
    <rect x="146" y="9" width="1" height="1" fill="#231f20"/>
    <rect x="0" y="10" width="1" height="1" fill="#231f20"/>
    <rect x="146" y="10" width="1" height="1" fill="#231f20"/>
    <rect x="0" y="11" width="1" height="1" fill="#231f20"/>
    <rect x="146" y="11" width="1" height="1" fill="#231f20"/>
    <rect x="0" y="12" width="1" height="1" fill="#231f20"/>
    <rect x="146" y="12" width="1" height="1" fill="#231f20"/>
    <rect x="0" y="13" width="1" height="1" fill="#231f20"/>
    <rect x="146" y="13" width="1" height="1" fill="#231f20"/>
    <rect x="0" y="14" width="1" height="1" fill="#231f20"/>
    <rect x="146" y="14" width="1" height="1" fill="#231f20"/>
    <rect x="0" y="15" width="1" height="1" fill="#231f20"/>
    <rect x="146" y="15" width="1" height="1" fill="#231f20"/>
    <rect x="0" y="16" width="1" height="1" fill="#231f20"/>
    <rect x="146" y="16" width="1" height="1" fill="#231f20"/>
    <rect x="0" y="17" width="1" height="1" fill="#231f20"/>
    <rect x="146" y="17" width="1" height="1" fill="#231f20"/>
    <rect x="0" y="18" width="1" height="1" fill="#231f20"/>
    <rect x="146" y="18" width="1" height="1" fill="#231f20"/>
    <rect x="0" y="19" width="147" height="1" fill="#231f20"/>
    <rect x="0" y="20" width="1" height="1" fill="#231f20"/>
    <rect x="69" y="20" width="1" height="1" fill="#231f20"/>
    <rect x="71" y="20" width="1" height="1" fill="#231f20"/>
    <rect x="74" y="20" width="1" height="1" fill="#231f20"/>
    <rect x="76" y="20" width="1" height="1" fill="#231f20"/>
    <rect x="146" y="20" width="1" height="1" fill="#231f20"/>
    <rect x="0" y="21" width="1" height="1" fill="#231f20"/>
    <rect x="69" y="21" width="1" height="1" fill="#231f20"/>
    <rect x="71" y="21" width="1" height="1" fill="#231f20"/>
    <rect x="74" y="21" width="1" height="1" fill="#231f20"/>
    <rect x="76" y="21" width="1" height="1" fill="#231f20"/>
    <rect x="146" y="21" width="1" height="1" fill="#231f20"/>
    <rect x="0" y="22" width="1" height="1" fill="#231f20"/>
    <rect x="69" y="22" width="1" height="1" fill="#231f20"/>
    <rect x="71" y="22" width="1" height="1" fill="#231f20"/>
    <rect x="74" y="22" width="1" height="1" fill="#231f20"/>
    <rect x="76" y="22" width="1" height="1" fill="#231f20"/>
    <rect x="146" y="22" width="1" height="1" fill="#231f20"/>
    <rect x="0" y="23" width="1" height="1" fill="#231f20"/>
    <rect x="69" y="23" width="1" height="1" fill="#231f20"/>
    <rect x="71" y="23" width="1" height="1" fill="#231f20"/>
    <rect x="74" y="23" width="1" height="1" fill="#231f20"/>
    <rect x="76" y="23" width="1" height="1" fill="#231f20"/>
    <rect x="146" y="23" width="1" height="1" fill="#231f20"/>
    <rect x="0" y="24" width="1" height="1" fill="#231f20"/>
    <rect x="69" y="24" width="1" height="1" fill="#231f20"/>
    <rect x="71" y="24" width="1" height="1" fill="#231f20"/>
    <rect x="74" y="24" width="1" height="1" fill="#231f20"/>
    <rect x="76" y="24" width="1" height="1" fill="#231f20"/>
    <rect x="146" y="24" width="1" height="1" fill="#231f20"/>
    <rect x="0" y="25" width="1" height="1" fill="#231f20"/>
    <rect x="69" y="25" width="1" height="1" fill="#231f20"/>
    <rect x="71" y="25" width="1" height="1" fill="#231f20"/>
    <rect x="74" y="25" width="1" height="1" fill="#231f20"/>
    <rect x="76" y="25" width="1" height="1" fill="#231f20"/>
    <rect x="146" y="25" width="1" height="1" fill="#231f20"/>
    <rect x="0" y="26" width="1" height="1" fill="#231f20"/>
    <rect x="31" y="26" width="4" height="1" fill="#231f20"/>
    <rect x="39" y="26" width="2" height="1" fill="#231f20"/>
    <rect x="69" y="26" width="1" height="1" fill="#231f20"/>
    <rect x="71" y="26" width="1" height="1" fill="#231f20"/>
    <rect x="74" y="26" width="1" height="1" fill="#231f20"/>
    <rect x="76" y="26" width="1" height="1" fill="#231f20"/>
    <rect x="108" y="26" width="4" height="1" fill="#231f20"/>
    <rect x="116" y="26" width="2" height="1" fill="#231f20"/>
    <rect x="146" y="26" width="1" height="1" fill="#231f20"/>
    <rect x="0" y="27" width="1" height="1" fill="#231f20"/>
    <rect x="30" y="27" width="2" height="1" fill="#231f20"/>
    <rect x="34" y="27" width="2" height="1" fill="#231f20"/>
    <rect x="69" y="27" width="1" height="1" fill="#231f20"/>
    <rect x="71" y="27" width="1" height="1" fill="#231f20"/>
    <rect x="74" y="27" width="1" height="1" fill="#231f20"/>
    <rect x="76" y="27" width="1" height="1" fill="#231f20"/>
    <rect x="107" y="27" width="2" height="1" fill="#231f20"/>
    <rect x="111" y="27" width="2" height="1" fill="#231f20"/>
    <rect x="146" y="27" width="1" height="1" fill="#231f20"/>
    <rect x="0" y="28" width="1" height="1" fill="#231f20"/>
    <rect x="30" y="28" width="2" height="1" fill="#231f20"/>
    <rect x="34" y="28" width="2" height="1" fill="#231f20"/>
    <rect x="69" y="28" width="1" height="1" fill="#231f20"/>
    <rect x="71" y="28" width="1" height="1" fill="#231f20"/>
    <rect x="74" y="28" width="1" height="1" fill="#231f20"/>
    <rect x="76" y="28" width="1" height="1" fill="#231f20"/>
    <rect x="107" y="28" width="2" height="1" fill="#231f20"/>
    <rect x="111" y="28" width="2" height="1" fill="#231f20"/>
    <rect x="146" y="28" width="1" height="1" fill="#231f20"/>
    <rect x="0" y="29" width="1" height="1" fill="#231f20"/>
    <rect x="30" y="29" width="3" height="1" fill="#231f20"/>
    <rect x="39" y="29" width="2" height="1" fill="#231f20"/>
    <rect x="69" y="29" width="1" height="1" fill="#231f20"/>
    <rect x="71" y="29" width="1" height="1" fill="#231f20"/>
    <rect x="74" y="29" width="1" height="1" fill="#231f20"/>
    <rect x="76" y="29" width="1" height="1" fill="#231f20"/>
    <rect x="107" y="29" width="3" height="1" fill="#231f20"/>
    <rect x="116" y="29" width="2" height="1" fill="#231f20"/>
    <rect x="146" y="29" width="1" height="1" fill="#231f20"/>
    <rect x="0" y="30" width="1" height="1" fill="#231f20"/>
    <rect x="32" y="30" width="3" height="1" fill="#231f20"/>
    <rect x="39" y="30" width="2" height="1" fill="#231f20"/>
    <rect x="69" y="30" width="1" height="1" fill="#231f20"/>
    <rect x="71" y="30" width="1" height="1" fill="#231f20"/>
    <rect x="74" y="30" width="1" height="1" fill="#231f20"/>
    <rect x="76" y="30" width="1" height="1" fill="#231f20"/>
    <rect x="109" y="30" width="3" height="1" fill="#231f20"/>
    <rect x="116" y="30" width="2" height="1" fill="#231f20"/>
    <rect x="146" y="30" width="1" height="1" fill="#231f20"/>
    <rect x="0" y="31" width="1" height="1" fill="#231f20"/>
    <rect x="34" y="31" width="2" height="1" fill="#231f20"/>
    <rect x="39" y="31" width="2" height="1" fill="#231f20"/>
    <rect x="69" y="31" width="1" height="1" fill="#231f20"/>
    <rect x="71" y="31" width="1" height="1" fill="#231f20"/>
    <rect x="74" y="31" width="1" height="1" fill="#231f20"/>
    <rect x="76" y="31" width="1" height="1" fill="#231f20"/>
    <rect x="111" y="31" width="2" height="1" fill="#231f20"/>
    <rect x="116" y="31" width="2" height="1" fill="#231f20"/>
    <rect x="146" y="31" width="1" height="1" fill="#231f20"/>
    <rect x="0" y="32" width="1" height="1" fill="#231f20"/>
    <rect x="29" y="32" width="3" height="1" fill="#231f20"/>
    <rect x="34" y="32" width="2" height="1" fill="#231f20"/>
    <rect x="39" y="32" width="2" height="1" fill="#231f20"/>
    <rect x="69" y="32" width="1" height="1" fill="#231f20"/>
    <rect x="71" y="32" width="1" height="1" fill="#231f20"/>
    <rect x="74" y="32" width="1" height="1" fill="#231f20"/>
    <rect x="76" y="32" width="1" height="1" fill="#231f20"/>
    <rect x="106" y="32" width="3" height="1" fill="#231f20"/>
    <rect x="111" y="32" width="2" height="1" fill="#231f20"/>
    <rect x="116" y="32" width="2" height="1" fill="#231f20"/>
    <rect x="146" y="32" width="1" height="1" fill="#231f20"/>
    <rect x="0" y="33" width="1" height="1" fill="#231f20"/>
    <rect x="30" y="33" width="2" height="1" fill="#231f20"/>
    <rect x="34" y="33" width="2" height="1" fill="#231f20"/>
    <rect x="39" y="33" width="2" height="1" fill="#231f20"/>
    <rect x="69" y="33" width="1" height="1" fill="#231f20"/>
    <rect x="71" y="33" width="1" height="1" fill="#231f20"/>
    <rect x="74" y="33" width="1" height="1" fill="#231f20"/>
    <rect x="76" y="33" width="1" height="1" fill="#231f20"/>
    <rect x="107" y="33" width="2" height="1" fill="#231f20"/>
    <rect x="111" y="33" width="2" height="1" fill="#231f20"/>
    <rect x="116" y="33" width="2" height="1" fill="#231f20"/>
    <rect x="146" y="33" width="1" height="1" fill="#231f20"/>
    <rect x="0" y="34" width="1" height="1" fill="#231f20"/>
    <rect x="31" y="34" width="4" height="1" fill="#231f20"/>
    <rect x="39" y="34" width="2" height="1" fill="#231f20"/>
    <rect x="69" y="34" width="1" height="1" fill="#231f20"/>
    <rect x="71" y="34" width="1" height="1" fill="#231f20"/>
    <rect x="74" y="34" width="1" height="1" fill="#231f20"/>
    <rect x="76" y="34" width="1" height="1" fill="#231f20"/>
    <rect x="108" y="34" width="4" height="1" fill="#231f20"/>
    <rect x="116" y="34" width="2" height="1" fill="#231f20"/>
    <rect x="146" y="34" width="1" height="1" fill="#231f20"/>
    <rect x="0" y="35" width="1" height="1" fill="#231f20"/>
    <rect x="69" y="35" width="1" height="1" fill="#231f20"/>
    <rect x="71" y="35" width="1" height="1" fill="#231f20"/>
    <rect x="74" y="35" width="1" height="1" fill="#231f20"/>
    <rect x="76" y="35" width="1" height="1" fill="#231f20"/>
    <rect x="146" y="35" width="1" height="1" fill="#231f20"/>
    <rect x="0" y="36" width="1" height="1" fill="#231f20"/>
    <rect x="69" y="36" width="1" height="1" fill="#231f20"/>
    <rect x="71" y="36" width="1" height="1" fill="#231f20"/>
    <rect x="74" y="36" width="1" height="1" fill="#231f20"/>
    <rect x="76" y="36" width="1" height="1" fill="#231f20"/>
    <rect x="146" y="36" width="1" height="1" fill="#231f20"/>
    <rect x="0" y="37" width="1" height="1" fill="#231f20"/>
    <rect x="69" y="37" width="1" height="1" fill="#231f20"/>
    <rect x="71" y="37" width="1" height="1" fill="#231f20"/>
    <rect x="74" y="37" width="1" height="1" fill="#231f20"/>
    <rect x="76" y="37" width="1" height="1" fill="#231f20"/>
    <rect x="146" y="37" width="1" height="1" fill="#231f20"/>
    <rect x="0" y="38" width="1" height="1" fill="#231f20"/>
    <rect x="69" y="38" width="1" height="1" fill="#231f20"/>
    <rect x="71" y="38" width="1" height="1" fill="#231f20"/>
    <rect x="74" y="38" width="1" height="1" fill="#231f20"/>
    <rect x="76" y="38" width="1" height="1" fill="#231f20"/>
    <rect x="146" y="38" width="1" height="1" fill="#231f20"/>
    <rect x="0" y="39" width="147" height="1" fill="#231f20"/>
    <rect x="0" y="40" width="1" height="1" fill="#231f20"/>
    <rect x="146" y="40" width="1" height="1" fill="#231f20"/>
    <rect x="0" y="41" width="1" height="1" fill="#231f20"/>
    <rect x="146" y="41" width="1" height="1" fill="#231f20"/>
    <rect x="0" y="42" width="1" height="1" fill="#231f20"/>
    <rect x="146" y="42" width="1" height="1" fill="#231f20"/>
    <rect x="0" y="43" width="1" height="1" fill="#231f20"/>
    <rect x="146" y="43" width="1" height="1" fill="#231f20"/>
    <rect x="0" y="44" width="1" height="1" fill="#231f20"/>
    <rect x="146" y="44" width="1" height="1" fill="#231f20"/>
    <rect x="0" y="45" width="1" height="1" fill="#231f20"/>
    <rect x="146" y="45" width="1" height="1" fill="#231f20"/>
    <rect x="0" y="46" width="1" height="1" fill="#231f20"/>
    <rect x="146" y="46" width="1" height="1" fill="#231f20"/>
    <rect x="0" y="47" width="1" height="1" fill="#231f20"/>
    <rect x="146" y="47" width="1" height="1" fill="#231f20"/>
    <rect x="0" y="48" width="1" height="1" fill="#231f20"/>
    <rect x="146" y="48" width="1" height="1" fill="#231f20"/>
    <rect x="0" y="49" width="1" height="1" fill="#231f20"/>
    <rect x="146" y="49" width="1" height="1" fill="#231f20"/>
    <rect x="0" y="50" width="1" height="1" fill="#231f20"/>
    <rect x="146" y="50" width="1" height="1" fill="#231f20"/>
    <rect x="0" y="51" width="1" height="1" fill="#231f20"/>
    <rect x="146" y="51" width="1" height="1" fill="#231f20"/>
    <rect x="0" y="52" width="1" height="1" fill="#231f20"/>
    <rect x="146" y="52" width="1" height="1" fill="#231f20"/>
    <rect x="0" y="53" width="1" height="1" fill="#231f20"/>
    <rect x="146" y="53" width="1" height="1" fill="#231f20"/>
    <rect x="0" y="54" width="1" height="1" fill="#231f20"/>
    <rect x="146" y="54" width="1" height="1" fill="#231f20"/>
    <rect x="0" y="55" width="1" height="1" fill="#231f20"/>
    <rect x="146" y="55" width="1" height="1" fill="#231f20"/>
    <rect x="0" y="56" width="1" height="1" fill="#231f20"/>
    <rect x="146" y="56" width="1" height="1" fill="#231f20"/>
    <rect x="0" y="57" width="1" height="1" fill="#231f20"/>
    <rect x="146" y="57" width="1" height="1" fill="#231f20"/>
    <rect x="0" y="58" width="147" height="1" fill="#231f20"/>
  </g>
</svg>