<?xml version="1.0" encoding="UTF-8"?>
<svg xmlns="http://www.w3.org/2000/svg" viewBox="0 0 161 65" width="161" height="65">
  <!-- Auto-converted from legend-2159.png -->
  <rect x="0" y="0" width="161" height="65" fill="none"/>
  <g fill="#231f20" stroke="none">
    <rect x="0" y="0" width="161" height="1" fill="#231f20"/>
    <rect x="0" y="1" width="1" height="1" fill="#231f20"/>
    <rect x="160" y="1" width="1" height="1" fill="#231f20"/>
    <rect x="0" y="2" width="1" height="1" fill="#231f20"/>
    <rect x="160" y="2" width="1" height="1" fill="#231f20"/>
    <rect x="0" y="3" width="1" height="1" fill="#231f20"/>
    <rect x="160" y="3" width="1" height="1" fill="#231f20"/>
    <rect x="0" y="4" width="1" height="1" fill="#231f20"/>
    <rect x="160" y="4" width="1" height="1" fill="#231f20"/>
    <rect x="0" y="5" width="1" height="1" fill="#231f20"/>
    <rect x="160" y="5" width="1" height="1" fill="#231f20"/>
    <rect x="0" y="6" width="1" height="1" fill="#231f20"/>
    <rect x="40" y="6" width="1" height="1" fill="#231f20"/>
    <rect x="72" y="6" width="1" height="1" fill="#231f20"/>
    <rect x="104" y="6" width="1" height="1" fill="#231f20"/>
    <rect x="160" y="6" width="1" height="1" fill="#231f20"/>
    <rect x="0" y="7" width="1" height="1" fill="#231f20"/>
    <rect x="40" y="7" width="1" height="1" fill="#231f20"/>
    <rect x="72" y="7" width="1" height="1" fill="#231f20"/>
    <rect x="104" y="7" width="1" height="1" fill="#231f20"/>
    <rect x="160" y="7" width="1" height="1" fill="#231f20"/>
    <rect x="0" y="8" width="1" height="1" fill="#231f20"/>
    <rect x="40" y="8" width="1" height="1" fill="#231f20"/>
    <rect x="72" y="8" width="1" height="1" fill="#231f20"/>
    <rect x="104" y="8" width="1" height="1" fill="#231f20"/>
    <rect x="160" y="8" width="1" height="1" fill="#231f20"/>
    <rect x="0" y="9" width="1" height="1" fill="#231f20"/>
    <rect x="40" y="9" width="1" height="1" fill="#231f20"/>
    <rect x="72" y="9" width="1" height="1" fill="#231f20"/>
    <rect x="104" y="9" width="1" height="1" fill="#231f20"/>
    <rect x="160" y="9" width="1" height="1" fill="#231f20"/>
    <rect x="0" y="10" width="1" height="1" fill="#231f20"/>
    <rect x="40" y="10" width="1" height="1" fill="#231f20"/>
    <rect x="72" y="10" width="1" height="1" fill="#231f20"/>
    <rect x="104" y="10" width="1" height="1" fill="#231f20"/>
    <rect x="160" y="10" width="1" height="1" fill="#231f20"/>
    <rect x="0" y="11" width="1" height="1" fill="#231f20"/>
    <rect x="29" y="11" width="12" height="1" fill="#231f20"/>
    <rect x="61" y="11" width="12" height="1" fill="#231f20"/>
    <rect x="93" y="11" width="12" height="1" fill="#231f20"/>
    <rect x="160" y="11" width="1" height="1" fill="#231f20"/>
    <rect x="0" y="12" width="1" height="1" fill="#231f20"/>
    <rect x="40" y="12" width="1" height="1" fill="#231f20"/>
    <rect x="72" y="12" width="1" height="1" fill="#231f20"/>
    <rect x="104" y="12" width="1" height="1" fill="#231f20"/>
    <rect x="160" y="12" width="1" height="1" fill="#231f20"/>
    <rect x="0" y="13" width="1" height="1" fill="#231f20"/>
    <rect x="40" y="13" width="1" height="1" fill="#231f20"/>
    <rect x="72" y="13" width="1" height="1" fill="#231f20"/>
    <rect x="104" y="13" width="1" height="1" fill="#231f20"/>
    <rect x="160" y="13" width="1" height="1" fill="#231f20"/>
    <rect x="0" y="14" width="1" height="1" fill="#231f20"/>
    <rect x="40" y="14" width="1" height="1" fill="#231f20"/>
    <rect x="72" y="14" width="1" height="1" fill="#231f20"/>
    <rect x="104" y="14" width="1" height="1" fill="#231f20"/>
    <rect x="160" y="14" width="1" height="1" fill="#231f20"/>
    <rect x="0" y="15" width="1" height="1" fill="#231f20"/>
    <rect x="40" y="15" width="1" height="1" fill="#231f20"/>
    <rect x="72" y="15" width="1" height="1" fill="#231f20"/>
    <rect x="104" y="15" width="1" height="1" fill="#231f20"/>
    <rect x="160" y="15" width="1" height="1" fill="#231f20"/>
    <rect x="0" y="16" width="1" height="1" fill="#231f20"/>
    <rect x="40" y="16" width="1" height="1" fill="#231f20"/>
    <rect x="72" y="16" width="1" height="1" fill="#231f20"/>
    <rect x="104" y="16" width="1" height="1" fill="#231f20"/>
    <rect x="160" y="16" width="1" height="1" fill="#231f20"/>
    <rect x="0" y="17" width="1" height="1" fill="#231f20"/>
    <rect x="160" y="17" width="1" height="1" fill="#231f20"/>
    <rect x="0" y="18" width="1" height="1" fill="#231f20"/>
    <rect x="160" y="18" width="1" height="1" fill="#231f20"/>
    <rect x="0" y="19" width="1" height="1" fill="#231f20"/>
    <rect x="160" y="19" width="1" height="1" fill="#231f20"/>
    <rect x="0" y="20" width="1" height="1" fill="#231f20"/>
    <rect x="160" y="20" width="1" height="1" fill="#231f20"/>
    <rect x="0" y="21" width="1" height="1" fill="#231f20"/>
    <rect x="160" y="21" width="1" height="1" fill="#231f20"/>
    <rect x="0" y="22" width="1" height="1" fill="#231f20"/>
    <rect x="160" y="22" width="1" height="1" fill="#231f20"/>
    <rect x="0" y="23" width="1" height="1" fill="#231f20"/>
    <rect x="160" y="23" width="1" height="1" fill="#231f20"/>
    <rect x="0" y="24" width="1" height="1" fill="#231f20"/>
    <rect x="160" y="24" width="1" height="1" fill="#231f20"/>
    <rect x="0" y="25" width="1" height="1" fill="#231f20"/>
    <rect x="160" y="25" width="1" height="1" fill="#231f20"/>
    <rect x="0" y="26" width="1" height="1" fill="#231f20"/>
    <rect x="160" y="26" width="1" height="1" fill="#231f20"/>
    <rect x="0" y="27" width="1" height="1" fill="#231f20"/>
    <rect x="67" y="27" width="1" height="1" fill="#231f20"/>
    <rect x="98" y="27" width="1" height="1" fill="#231f20"/>
    <rect x="130" y="27" width="1" height="1" fill="#231f20"/>
    <rect x="160" y="27" width="1" height="1" fill="#231f20"/>
    <rect x="0" y="28" width="1" height="1" fill="#231f20"/>
    <rect x="67" y="28" width="1" height="1" fill="#231f20"/>
    <rect x="98" y="28" width="1" height="1" fill="#231f20"/>
    <rect x="130" y="28" width="1" height="1" fill="#231f20"/>
    <rect x="160" y="28" width="1" height="1" fill="#231f20"/>
    <rect x="0" y="29" width="1" height="1" fill="#231f20"/>
    <rect x="67" y="29" width="1" height="1" fill="#231f20"/>
    <rect x="98" y="29" width="1" height="1" fill="#231f20"/>
    <rect x="130" y="29" width="1" height="1" fill="#231f20"/>
    <rect x="160" y="29" width="1" height="1" fill="#231f20"/>
    <rect x="0" y="30" width="1" height="1" fill="#231f20"/>
    <rect x="67" y="30" width="1" height="1" fill="#231f20"/>
    <rect x="98" y="30" width="1" height="1" fill="#231f20"/>
    <rect x="130" y="30" width="1" height="1" fill="#231f20"/>
    <rect x="160" y="30" width="1" height="1" fill="#231f20"/>
    <rect x="0" y="31" width="1" height="1" fill="#231f20"/>
    <rect x="67" y="31" width="1" height="1" fill="#231f20"/>
    <rect x="98" y="31" width="1" height="1" fill="#231f20"/>
    <rect x="130" y="31" width="1" height="1" fill="#231f20"/>
    <rect x="160" y="31" width="1" height="1" fill="#231f20"/>
    <rect x="0" y="32" width="1" height="1" fill="#231f20"/>
    <rect x="56" y="32" width="12" height="1" fill="#231f20"/>
    <rect x="88" y="32" width="11" height="1" fill="#231f20"/>
    <rect x="120" y="32" width="11" height="1" fill="#231f20"/>
    <rect x="160" y="32" width="1" height="1" fill="#231f20"/>
    <rect x="0" y="33" width="1" height="1" fill="#231f20"/>
    <rect x="67" y="33" width="1" height="1" fill="#231f20"/>
    <rect x="98" y="33" width="1" height="1" fill="#231f20"/>
    <rect x="130" y="33" width="1" height="1" fill="#231f20"/>
    <rect x="160" y="33" width="1" height="1" fill="#231f20"/>
    <rect x="0" y="34" width="1" height="1" fill="#231f20"/>
    <rect x="67" y="34" width="1" height="1" fill="#231f20"/>
    <rect x="98" y="34" width="1" height="1" fill="#231f20"/>
    <rect x="130" y="34" width="1" height="1" fill="#231f20"/>
    <rect x="160" y="34" width="1" height="1" fill="#231f20"/>
    <rect x="0" y="35" width="1" height="1" fill="#231f20"/>
    <rect x="67" y="35" width="1" height="1" fill="#231f20"/>
    <rect x="98" y="35" width="1" height="1" fill="#231f20"/>
    <rect x="130" y="35" width="1" height="1" fill="#231f20"/>
    <rect x="160" y="35" width="1" height="1" fill="#231f20"/>
    <rect x="0" y="36" width="1" height="1" fill="#231f20"/>
    <rect x="67" y="36" width="1" height="1" fill="#231f20"/>
    <rect x="98" y="36" width="1" height="1" fill="#231f20"/>
    <rect x="130" y="36" width="1" height="1" fill="#231f20"/>
    <rect x="160" y="36" width="1" height="1" fill="#231f20"/>
    <rect x="0" y="37" width="1" height="1" fill="#231f20"/>
    <rect x="67" y="37" width="1" height="1" fill="#231f20"/>
    <rect x="98" y="37" width="1" height="1" fill="#231f20"/>
    <rect x="130" y="37" width="1" height="1" fill="#231f20"/>
    <rect x="160" y="37" width="1" height="1" fill="#231f20"/>
    <rect x="0" y="38" width="1" height="1" fill="#231f20"/>
    <rect x="160" y="38" width="1" height="1" fill="#231f20"/>
    <rect x="0" y="39" width="1" height="1" fill="#231f20"/>
    <rect x="160" y="39" width="1" height="1" fill="#231f20"/>
    <rect x="0" y="40" width="1" height="1" fill="#231f20"/>
    <rect x="160" y="40" width="1" height="1" fill="#231f20"/>
    <rect x="0" y="41" width="1" height="1" fill="#231f20"/>
    <rect x="160" y="41" width="1" height="1" fill="#231f20"/>
    <rect x="0" y="42" width="1" height="1" fill="#231f20"/>
    <rect x="160" y="42" width="1" height="1" fill="#231f20"/>
    <rect x="0" y="43" width="1" height="1" fill="#231f20"/>
    <rect x="160" y="43" width="1" height="1" fill="#231f20"/>
    <rect x="0" y="44" width="1" height="1" fill="#231f20"/>
    <rect x="160" y="44" width="1" height="1" fill="#231f20"/>
    <rect x="0" y="45" width="1" height="1" fill="#231f20"/>
    <rect x="160" y="45" width="1" height="1" fill="#231f20"/>
    <rect x="0" y="46" width="1" height="1" fill="#231f20"/>
    <rect x="160" y="46" width="1" height="1" fill="#231f20"/>
    <rect x="0" y="47" width="1" height="1" fill="#231f20"/>
    <rect x="160" y="47" width="1" height="1" fill="#231f20"/>
    <rect x="0" y="48" width="1" height="1" fill="#231f20"/>
    <rect x="40" y="48" width="1" height="1" fill="#231f20"/>
    <rect x="72" y="48" width="1" height="1" fill="#231f20"/>
    <rect x="104" y="48" width="1" height="1" fill="#231f20"/>
    <rect x="160" y="48" width="1" height="1" fill="#231f20"/>
    <rect x="0" y="49" width="1" height="1" fill="#231f20"/>
    <rect x="40" y="49" width="1" height="1" fill="#231f20"/>
    <rect x="72" y="49" width="1" height="1" fill="#231f20"/>
    <rect x="104" y="49" width="1" height="1" fill="#231f20"/>
    <rect x="160" y="49" width="1" height="1" fill="#231f20"/>
    <rect x="0" y="50" width="1" height="1" fill="#231f20"/>
    <rect x="40" y="50" width="1" height="1" fill="#231f20"/>
    <rect x="72" y="50" width="1" height="1" fill="#231f20"/>
    <rect x="104" y="50" width="1" height="1" fill="#231f20"/>
    <rect x="160" y="50" width="1" height="1" fill="#231f20"/>
    <rect x="0" y="51" width="1" height="1" fill="#231f20"/>
    <rect x="40" y="51" width="1" height="1" fill="#231f20"/>
    <rect x="72" y="51" width="1" height="1" fill="#231f20"/>
    <rect x="104" y="51" width="1" height="1" fill="#231f20"/>
    <rect x="160" y="51" width="1" height="1" fill="#231f20"/>
    <rect x="0" y="52" width="1" height="1" fill="#231f20"/>
    <rect x="40" y="52" width="1" height="1" fill="#231f20"/>
    <rect x="72" y="52" width="1" height="1" fill="#231f20"/>
    <rect x="104" y="52" width="1" height="1" fill="#231f20"/>
    <rect x="160" y="52" width="1" height="1" fill="#231f20"/>
    <rect x="0" y="53" width="1" height="1" fill="#231f20"/>
    <rect x="29" y="53" width="12" height="1" fill="#231f20"/>
    <rect x="61" y="53" width="12" height="1" fill="#231f20"/>
    <rect x="93" y="53" width="12" height="1" fill="#231f20"/>
    <rect x="160" y="53" width="1" height="1" fill="#231f20"/>
    <rect x="0" y="54" width="1" height="1" fill="#231f20"/>
    <rect x="40" y="54" width="1" height="1" fill="#231f20"/>
    <rect x="72" y="54" width="1" height="1" fill="#231f20"/>
    <rect x="104" y="54" width="1" height="1" fill="#231f20"/>
    <rect x="160" y="54" width="1" height="1" fill="#231f20"/>
    <rect x="0" y="55" width="1" height="1" fill="#231f20"/>
    <rect x="40" y="55" width="1" height="1" fill="#231f20"/>
    <rect x="72" y="55" width="1" height="1" fill="#231f20"/>
    <rect x="104" y="55" width="1" height="1" fill="#231f20"/>
    <rect x="160" y="55" width="1" height="1" fill="#231f20"/>
    <rect x="0" y="56" width="1" height="1" fill="#231f20"/>
    <rect x="40" y="56" width="1" height="1" fill="#231f20"/>
    <rect x="72" y="56" width="1" height="1" fill="#231f20"/>
    <rect x="104" y="56" width="1" height="1" fill="#231f20"/>
    <rect x="160" y="56" width="1" height="1" fill="#231f20"/>
    <rect x="0" y="57" width="1" height="1" fill="#231f20"/>
    <rect x="40" y="57" width="1" height="1" fill="#231f20"/>
    <rect x="72" y="57" width="1" height="1" fill="#231f20"/>
    <rect x="104" y="57" width="1" height="1" fill="#231f20"/>
    <rect x="160" y="57" width="1" height="1" fill="#231f20"/>
    <rect x="0" y="58" width="1" height="1" fill="#231f20"/>
    <rect x="40" y="58" width="1" height="1" fill="#231f20"/>
    <rect x="72" y="58" width="1" height="1" fill="#231f20"/>
    <rect x="104" y="58" width="1" height="1" fill="#231f20"/>
    <rect x="160" y="58" width="1" height="1" fill="#231f20"/>
    <rect x="0" y="59" width="1" height="1" fill="#231f20"/>
    <rect x="40" y="59" width="1" height="1" fill="#231f20"/>
    <rect x="72" y="59" width="1" height="1" fill="#231f20"/>
    <rect x="104" y="59" width="1" height="1" fill="#231f20"/>
    <rect x="160" y="59" width="1" height="1" fill="#231f20"/>
    <rect x="0" y="60" width="1" height="1" fill="#231f20"/>
    <rect x="160" y="60" width="1" height="1" fill="#231f20"/>
    <rect x="0" y="61" width="1" height="1" fill="#231f20"/>
    <rect x="160" y="61" width="1" height="1" fill="#231f20"/>
    <rect x="0" y="62" width="1" height="1" fill="#231f20"/>
    <rect x="160" y="62" width="1" height="1" fill="#231f20"/>
    <rect x="0" y="63" width="1" height="1" fill="#231f20"/>
    <rect x="160" y="63" width="1" height="1" fill="#231f20"/>
    <rect x="0" y="64" width="161" height="1" fill="#231f20"/>
  </g>
</svg>