<?xml version="1.0" encoding="UTF-8"?>
<svg xmlns="http://www.w3.org/2000/svg" viewBox="0 0 236 160" width="236" height="160">
  <!-- Auto-converted from legend-650.png -->
  <rect x="0" y="0" width="236" height="160" fill="none"/>
  <g fill="#e83720" stroke="none">
    <rect x="3" y="1" width="232" height="1" fill="#e83720"/>
    <rect x="3" y="2" width="1" height="1" fill="#e83720"/>
    <rect x="63" y="2" width="1" height="1" fill="#e83720"/>
    <rect x="180" y="2" width="1" height="1" fill="#e83720"/>
    <rect x="234" y="2" width="1" height="1" fill="#e83720"/>
    <rect x="3" y="3" width="1" height="1" fill="#e83720"/>
    <rect x="63" y="3" width="1" height="1" fill="#e83720"/>
    <rect x="180" y="3" width="1" height="1" fill="#e83720"/>
    <rect x="234" y="3" width="1" height="1" fill="#e83720"/>
    <rect x="3" y="4" width="1" height="1" fill="#e83720"/>
    <rect x="63" y="4" width="1" height="1" fill="#e83720"/>
    <rect x="180" y="4" width="1" height="1" fill="#e83720"/>
    <rect x="234" y="4" width="1" height="1" fill="#e83720"/>
    <rect x="3" y="5" width="1" height="1" fill="#e83720"/>
    <rect x="63" y="5" width="1" height="1" fill="#e83720"/>
    <rect x="180" y="5" width="1" height="1" fill="#e83720"/>
    <rect x="234" y="5" width="1" height="1" fill="#e83720"/>
    <rect x="3" y="6" width="1" height="1" fill="#e83720"/>
    <rect x="63" y="6" width="1" height="1" fill="#e83720"/>
    <rect x="180" y="6" width="1" height="1" fill="#e83720"/>
    <rect x="234" y="6" width="1" height="1" fill="#e83720"/>
    <rect x="3" y="7" width="1" height="1" fill="#e83720"/>
    <rect x="63" y="7" width="1" height="1" fill="#e83720"/>
    <rect x="180" y="7" width="1" height="1" fill="#e83720"/>
    <rect x="234" y="7" width="1" height="1" fill="#e83720"/>
    <rect x="3" y="8" width="1" height="1" fill="#e83720"/>
    <rect x="63" y="8" width="1" height="1" fill="#e83720"/>
    <rect x="180" y="8" width="1" height="1" fill="#e83720"/>
    <rect x="234" y="8" width="1" height="1" fill="#e83720"/>
    <rect x="3" y="9" width="1" height="1" fill="#e83720"/>
    <rect x="63" y="9" width="1" height="1" fill="#e83720"/>
    <rect x="180" y="9" width="1" height="1" fill="#e83720"/>
    <rect x="234" y="9" width="1" height="1" fill="#e83720"/>
    <rect x="3" y="10" width="1" height="1" fill="#e83720"/>
    <rect x="63" y="10" width="1" height="1" fill="#e83720"/>
    <rect x="180" y="10" width="1" height="1" fill="#e83720"/>
    <rect x="234" y="10" width="1" height="1" fill="#e83720"/>
    <rect x="3" y="11" width="1" height="1" fill="#e83720"/>
    <rect x="63" y="11" width="1" height="1" fill="#e83720"/>
    <rect x="180" y="11" width="1" height="1" fill="#e83720"/>
    <rect x="234" y="11" width="1" height="1" fill="#e83720"/>
    <rect x="3" y="12" width="1" height="1" fill="#e83720"/>
    <rect x="63" y="12" width="1" height="1" fill="#e83720"/>
    <rect x="180" y="12" width="1" height="1" fill="#e83720"/>
    <rect x="234" y="12" width="1" height="1" fill="#e83720"/>
    <rect x="3" y="13" width="1" height="1" fill="#e83720"/>
    <rect x="63" y="13" width="1" height="1" fill="#e83720"/>
    <rect x="180" y="13" width="1" height="1" fill="#e83720"/>
    <rect x="234" y="13" width="1" height="1" fill="#e83720"/>
    <rect x="3" y="14" width="1" height="1" fill="#e83720"/>
    <rect x="63" y="14" width="1" height="1" fill="#e83720"/>
    <rect x="180" y="14" width="1" height="1" fill="#e83720"/>
    <rect x="234" y="14" width="1" height="1" fill="#e83720"/>
    <rect x="3" y="15" width="1" height="1" fill="#e83720"/>
    <rect x="63" y="15" width="1" height="1" fill="#e83720"/>
    <rect x="180" y="15" width="1" height="1" fill="#e83720"/>
    <rect x="234" y="15" width="1" height="1" fill="#e83720"/>
    <rect x="3" y="16" width="1" height="1" fill="#e83720"/>
    <rect x="63" y="16" width="1" height="1" fill="#e83720"/>
    <rect x="180" y="16" width="1" height="1" fill="#e83720"/>
    <rect x="234" y="16" width="1" height="1" fill="#e83720"/>
    <rect x="3" y="17" width="1" height="1" fill="#e83720"/>
    <rect x="234" y="17" width="1" height="1" fill="#e83720"/>
    <rect x="3" y="18" width="1" height="1" fill="#e83720"/>
    <rect x="234" y="18" width="1" height="1" fill="#e83720"/>
    <rect x="3" y="19" width="1" height="1" fill="#e83720"/>
    <rect x="234" y="19" width="1" height="1" fill="#e83720"/>
    <rect x="3" y="20" width="1" height="1" fill="#e83720"/>
    <rect x="234" y="20" width="1" height="1" fill="#e83720"/>
    <rect x="3" y="21" width="1" height="1" fill="#e83720"/>
    <rect x="234" y="21" width="1" height="1" fill="#e83720"/>
    <rect x="3" y="22" width="1" height="1" fill="#e83720"/>
    <rect x="234" y="22" width="1" height="1" fill="#e83720"/>
    <rect x="3" y="23" width="1" height="1" fill="#e83720"/>
    <rect x="234" y="23" width="1" height="1" fill="#e83720"/>
    <rect x="3" y="24" width="1" height="1" fill="#e83720"/>
    <rect x="234" y="24" width="1" height="1" fill="#e83720"/>
    <rect x="3" y="25" width="1" height="1" fill="#e83720"/>
    <rect x="234" y="25" width="1" height="1" fill="#e83720"/>
    <rect x="3" y="26" width="1" height="1" fill="#e83720"/>
    <rect x="234" y="26" width="1" height="1" fill="#e83720"/>
    <rect x="3" y="27" width="1" height="1" fill="#e83720"/>
    <rect x="234" y="27" width="1" height="1" fill="#e83720"/>
    <rect x="3" y="28" width="1" height="1" fill="#e83720"/>
    <rect x="234" y="28" width="1" height="1" fill="#e83720"/>
    <rect x="3" y="29" width="1" height="1" fill="#e83720"/>
    <rect x="234" y="29" width="1" height="1" fill="#e83720"/>
    <rect x="3" y="30" width="1" height="1" fill="#e83720"/>
    <rect x="234" y="30" width="1" height="1" fill="#e83720"/>
    <rect x="3" y="31" width="1" height="1" fill="#e83720"/>
    <rect x="63" y="31" width="1" height="1" fill="#e83720"/>
    <rect x="181" y="31" width="1" height="1" fill="#e83720"/>
    <rect x="234" y="31" width="1" height="1" fill="#e83720"/>
    <rect x="3" y="32" width="1" height="1" fill="#e83720"/>
    <rect x="63" y="32" width="1" height="1" fill="#e83720"/>
    <rect x="181" y="32" width="1" height="1" fill="#e83720"/>
    <rect x="234" y="32" width="1" height="1" fill="#e83720"/>
    <rect x="3" y="33" width="1" height="1" fill="#e83720"/>
    <rect x="63" y="33" width="1" height="1" fill="#e83720"/>
    <rect x="181" y="33" width="1" height="1" fill="#e83720"/>
    <rect x="234" y="33" width="1" height="1" fill="#e83720"/>
    <rect x="3" y="34" width="1" height="1" fill="#e83720"/>
    <rect x="63" y="34" width="1" height="1" fill="#e83720"/>
    <rect x="181" y="34" width="1" height="1" fill="#e83720"/>
    <rect x="234" y="34" width="1" height="1" fill="#e83720"/>
    <rect x="3" y="35" width="1" height="1" fill="#e83720"/>
    <rect x="63" y="35" width="1" height="1" fill="#e83720"/>
    <rect x="181" y="35" width="1" height="1" fill="#e83720"/>
    <rect x="234" y="35" width="1" height="1" fill="#e83720"/>
    <rect x="3" y="36" width="1" height="1" fill="#e83720"/>
    <rect x="63" y="36" width="1" height="1" fill="#e83720"/>
    <rect x="181" y="36" width="1" height="1" fill="#e83720"/>
    <rect x="234" y="36" width="1" height="1" fill="#e83720"/>
    <rect x="3" y="37" width="1" height="1" fill="#e83720"/>
    <rect x="63" y="37" width="1" height="1" fill="#e83720"/>
    <rect x="181" y="37" width="1" height="1" fill="#e83720"/>
    <rect x="234" y="37" width="1" height="1" fill="#e83720"/>
    <rect x="3" y="38" width="1" height="1" fill="#e83720"/>
    <rect x="63" y="38" width="1" height="1" fill="#e83720"/>
    <rect x="181" y="38" width="1" height="1" fill="#e83720"/>
    <rect x="234" y="38" width="1" height="1" fill="#e83720"/>
    <rect x="3" y="39" width="1" height="1" fill="#e83720"/>
    <rect x="63" y="39" width="1" height="1" fill="#e83720"/>
    <rect x="181" y="39" width="1" height="1" fill="#e83720"/>
    <rect x="234" y="39" width="1" height="1" fill="#e83720"/>
    <rect x="3" y="40" width="1" height="1" fill="#e83720"/>
    <rect x="63" y="40" width="1" height="1" fill="#e83720"/>
    <rect x="181" y="40" width="1" height="1" fill="#e83720"/>
    <rect x="234" y="40" width="1" height="1" fill="#e83720"/>
    <rect x="3" y="41" width="1" height="1" fill="#e83720"/>
    <rect x="63" y="41" width="1" height="1" fill="#e83720"/>
    <rect x="181" y="41" width="1" height="1" fill="#e83720"/>
    <rect x="234" y="41" width="1" height="1" fill="#e83720"/>
    <rect x="3" y="42" width="1" height="1" fill="#e83720"/>
    <rect x="63" y="42" width="1" height="1" fill="#e83720"/>
    <rect x="181" y="42" width="1" height="1" fill="#e83720"/>
    <rect x="234" y="42" width="1" height="1" fill="#e83720"/>
    <rect x="3" y="43" width="1" height="1" fill="#e83720"/>
    <rect x="63" y="43" width="1" height="1" fill="#e83720"/>
    <rect x="181" y="43" width="1" height="1" fill="#e83720"/>
    <rect x="234" y="43" width="1" height="1" fill="#e83720"/>
    <rect x="3" y="44" width="1" height="1" fill="#e83720"/>
    <rect x="63" y="44" width="1" height="1" fill="#e83720"/>
    <rect x="181" y="44" width="1" height="1" fill="#e83720"/>
    <rect x="234" y="44" width="1" height="1" fill="#e83720"/>
    <rect x="3" y="45" width="1" height="1" fill="#e83720"/>
    <rect x="63" y="45" width="1" height="1" fill="#e83720"/>
    <rect x="181" y="45" width="1" height="1" fill="#e83720"/>
    <rect x="234" y="45" width="1" height="1" fill="#e83720"/>
    <rect x="3" y="46" width="1" height="1" fill="#e83720"/>
    <rect x="63" y="46" width="1" height="1" fill="#e83720"/>
    <rect x="181" y="46" width="1" height="1" fill="#e83720"/>
    <rect x="234" y="46" width="1" height="1" fill="#e83720"/>
    <rect x="3" y="47" width="1" height="1" fill="#e83720"/>
    <rect x="63" y="47" width="1" height="1" fill="#e83720"/>
    <rect x="181" y="47" width="1" height="1" fill="#e83720"/>
    <rect x="234" y="47" width="1" height="1" fill="#e83720"/>
    <rect x="3" y="48" width="1" height="1" fill="#e83720"/>
    <rect x="63" y="48" width="1" height="1" fill="#e83720"/>
    <rect x="181" y="48" width="1" height="1" fill="#e83720"/>
    <rect x="234" y="48" width="1" height="1" fill="#e83720"/>
    <rect x="3" y="49" width="1" height="1" fill="#e83720"/>
    <rect x="63" y="49" width="1" height="1" fill="#e83720"/>
    <rect x="181" y="49" width="1" height="1" fill="#e83720"/>
    <rect x="234" y="49" width="1" height="1" fill="#e83720"/>
    <rect x="3" y="50" width="1" height="1" fill="#e83720"/>
    <rect x="63" y="50" width="1" height="1" fill="#e83720"/>
    <rect x="181" y="50" width="1" height="1" fill="#e83720"/>
    <rect x="234" y="50" width="1" height="1" fill="#e83720"/>
    <rect x="3" y="51" width="1" height="1" fill="#e83720"/>
    <rect x="63" y="51" width="1" height="1" fill="#e83720"/>
    <rect x="181" y="51" width="1" height="1" fill="#e83720"/>
    <rect x="234" y="51" width="1" height="1" fill="#e83720"/>
    <rect x="3" y="52" width="232" height="1" fill="#e83720"/>
    <rect x="3" y="53" width="1" height="1" fill="#e83720"/>
    <rect x="64" y="53" width="118" height="1" fill="#e83720"/>
    <rect x="234" y="53" width="1" height="1" fill="#e83720"/>
    <rect x="3" y="54" width="1" height="1" fill="#e83720"/>
    <rect x="64" y="54" width="118" height="1" fill="#e83720"/>
    <rect x="234" y="54" width="1" height="1" fill="#e83720"/>
    <rect x="3" y="55" width="1" height="1" fill="#e83720"/>
    <rect x="64" y="55" width="118" height="1" fill="#e83720"/>
    <rect x="234" y="55" width="1" height="1" fill="#e83720"/>
    <rect x="3" y="56" width="1" height="1" fill="#e83720"/>
    <rect x="64" y="56" width="118" height="1" fill="#e83720"/>
    <rect x="234" y="56" width="1" height="1" fill="#e83720"/>
    <rect x="3" y="57" width="1" height="1" fill="#e83720"/>
    <rect x="64" y="57" width="118" height="1" fill="#e83720"/>
    <rect x="234" y="57" width="1" height="1" fill="#e83720"/>
    <rect x="3" y="58" width="1" height="1" fill="#e83720"/>
    <rect x="64" y="58" width="118" height="1" fill="#e83720"/>
    <rect x="234" y="58" width="1" height="1" fill="#e83720"/>
    <rect x="3" y="59" width="1" height="1" fill="#e83720"/>
    <rect x="64" y="59" width="118" height="1" fill="#e83720"/>
    <rect x="234" y="59" width="1" height="1" fill="#e83720"/>
    <rect x="3" y="60" width="1" height="1" fill="#e83720"/>
    <rect x="64" y="60" width="118" height="1" fill="#e83720"/>
    <rect x="234" y="60" width="1" height="1" fill="#e83720"/>
    <rect x="3" y="61" width="1" height="1" fill="#e83720"/>
    <rect x="64" y="61" width="118" height="1" fill="#e83720"/>
    <rect x="234" y="61" width="1" height="1" fill="#e83720"/>
    <rect x="3" y="62" width="1" height="1" fill="#e83720"/>
    <rect x="64" y="62" width="118" height="1" fill="#e83720"/>
    <rect x="234" y="62" width="1" height="1" fill="#e83720"/>
    <rect x="3" y="63" width="1" height="1" fill="#e83720"/>
    <rect x="64" y="63" width="118" height="1" fill="#e83720"/>
    <rect x="234" y="63" width="1" height="1" fill="#e83720"/>
    <rect x="3" y="64" width="1" height="1" fill="#e83720"/>
    <rect x="64" y="64" width="118" height="1" fill="#e83720"/>
    <rect x="234" y="64" width="1" height="1" fill="#e83720"/>
    <rect x="3" y="65" width="1" height="1" fill="#e83720"/>
    <rect x="64" y="65" width="118" height="1" fill="#e83720"/>
    <rect x="234" y="65" width="1" height="1" fill="#e83720"/>
    <rect x="3" y="66" width="1" height="1" fill="#e83720"/>
    <rect x="64" y="66" width="118" height="1" fill="#e83720"/>
    <rect x="234" y="66" width="1" height="1" fill="#e83720"/>
    <rect x="3" y="67" width="1" height="1" fill="#e83720"/>
    <rect x="64" y="67" width="118" height="1" fill="#e83720"/>
    <rect x="234" y="67" width="1" height="1" fill="#e83720"/>
    <rect x="3" y="68" width="1" height="1" fill="#e83720"/>
    <rect x="64" y="68" width="118" height="1" fill="#e83720"/>
    <rect x="234" y="68" width="1" height="1" fill="#e83720"/>
    <rect x="3" y="69" width="1" height="1" fill="#e83720"/>
    <rect x="64" y="69" width="118" height="1" fill="#e83720"/>
    <rect x="234" y="69" width="1" height="1" fill="#e83720"/>
    <rect x="3" y="70" width="1" height="1" fill="#e83720"/>
    <rect x="64" y="70" width="118" height="1" fill="#e83720"/>
    <rect x="234" y="70" width="1" height="1" fill="#e83720"/>
    <rect x="3" y="71" width="1" height="1" fill="#e83720"/>
    <rect x="64" y="71" width="118" height="1" fill="#e83720"/>
    <rect x="234" y="71" width="1" height="1" fill="#e83720"/>
    <rect x="3" y="72" width="1" height="1" fill="#e83720"/>
    <rect x="64" y="72" width="118" height="1" fill="#e83720"/>
    <rect x="234" y="72" width="1" height="1" fill="#e83720"/>
    <rect x="3" y="73" width="1" height="1" fill="#e83720"/>
    <rect x="64" y="73" width="118" height="1" fill="#e83720"/>
    <rect x="234" y="73" width="1" height="1" fill="#e83720"/>
    <rect x="3" y="74" width="1" height="1" fill="#e83720"/>
    <rect x="64" y="74" width="118" height="1" fill="#e83720"/>
    <rect x="234" y="74" width="1" height="1" fill="#e83720"/>
    <rect x="3" y="75" width="1" height="1" fill="#e83720"/>
    <rect x="64" y="75" width="118" height="1" fill="#e83720"/>
    <rect x="234" y="75" width="1" height="1" fill="#e83720"/>
    <rect x="3" y="76" width="1" height="1" fill="#e83720"/>
    <rect x="64" y="76" width="118" height="1" fill="#e83720"/>
    <rect x="234" y="76" width="1" height="1" fill="#e83720"/>
    <rect x="3" y="77" width="1" height="1" fill="#e83720"/>
    <rect x="64" y="77" width="118" height="1" fill="#e83720"/>
    <rect x="234" y="77" width="1" height="1" fill="#e83720"/>
    <rect x="3" y="78" width="1" height="1" fill="#e83720"/>
    <rect x="64" y="78" width="118" height="1" fill="#e83720"/>
    <rect x="234" y="78" width="1" height="1" fill="#e83720"/>
    <rect x="3" y="79" width="1" height="1" fill="#e83720"/>
    <rect x="64" y="79" width="118" height="1" fill="#e83720"/>
    <rect x="234" y="79" width="1" height="1" fill="#e83720"/>
    <rect x="3" y="80" width="1" height="1" fill="#e83720"/>
    <rect x="64" y="80" width="118" height="1" fill="#e83720"/>
    <rect x="234" y="80" width="1" height="1" fill="#e83720"/>
    <rect x="3" y="81" width="1" height="1" fill="#e83720"/>
    <rect x="64" y="81" width="118" height="1" fill="#e83720"/>
    <rect x="234" y="81" width="1" height="1" fill="#e83720"/>
    <rect x="3" y="82" width="1" height="1" fill="#e83720"/>
    <rect x="64" y="82" width="118" height="1" fill="#e83720"/>
    <rect x="234" y="82" width="1" height="1" fill="#e83720"/>
    <rect x="3" y="83" width="1" height="1" fill="#e83720"/>
    <rect x="64" y="83" width="118" height="1" fill="#e83720"/>
    <rect x="234" y="83" width="1" height="1" fill="#e83720"/>
    <rect x="3" y="84" width="1" height="1" fill="#e83720"/>
    <rect x="64" y="84" width="118" height="1" fill="#e83720"/>
    <rect x="234" y="84" width="1" height="1" fill="#e83720"/>
    <rect x="3" y="85" width="1" height="1" fill="#e83720"/>
    <rect x="64" y="85" width="118" height="1" fill="#e83720"/>
    <rect x="234" y="85" width="1" height="1" fill="#e83720"/>
    <rect x="3" y="86" width="1" height="1" fill="#e83720"/>
    <rect x="64" y="86" width="118" height="1" fill="#e83720"/>
    <rect x="234" y="86" width="1" height="1" fill="#e83720"/>
    <rect x="3" y="87" width="1" height="1" fill="#e83720"/>
    <rect x="64" y="87" width="118" height="1" fill="#e83720"/>
    <rect x="234" y="87" width="1" height="1" fill="#e83720"/>
    <rect x="3" y="88" width="1" height="1" fill="#e83720"/>
    <rect x="64" y="88" width="118" height="1" fill="#e83720"/>
    <rect x="234" y="88" width="1" height="1" fill="#e83720"/>
    <rect x="3" y="89" width="1" height="1" fill="#e83720"/>
    <rect x="64" y="89" width="118" height="1" fill="#e83720"/>
    <rect x="234" y="89" width="1" height="1" fill="#e83720"/>
    <rect x="3" y="90" width="1" height="1" fill="#e83720"/>
    <rect x="64" y="90" width="118" height="1" fill="#e83720"/>
    <rect x="234" y="90" width="1" height="1" fill="#e83720"/>
    <rect x="3" y="91" width="1" height="1" fill="#e83720"/>
    <rect x="64" y="91" width="118" height="1" fill="#e83720"/>
    <rect x="234" y="91" width="1" height="1" fill="#e83720"/>
    <rect x="3" y="92" width="1" height="1" fill="#e83720"/>
    <rect x="64" y="92" width="118" height="1" fill="#e83720"/>
    <rect x="234" y="92" width="1" height="1" fill="#e83720"/>
    <rect x="3" y="93" width="1" height="1" fill="#e83720"/>
    <rect x="64" y="93" width="118" height="1" fill="#e83720"/>
    <rect x="234" y="93" width="1" height="1" fill="#e83720"/>
    <rect x="3" y="94" width="1" height="1" fill="#e83720"/>
    <rect x="64" y="94" width="118" height="1" fill="#e83720"/>
    <rect x="234" y="94" width="1" height="1" fill="#e83720"/>
    <rect x="3" y="95" width="1" height="1" fill="#e83720"/>
    <rect x="64" y="95" width="118" height="1" fill="#e83720"/>
    <rect x="234" y="95" width="1" height="1" fill="#e83720"/>
    <rect x="3" y="96" width="1" height="1" fill="#e83720"/>
    <rect x="64" y="96" width="118" height="1" fill="#e83720"/>
    <rect x="234" y="96" width="1" height="1" fill="#e83720"/>
    <rect x="3" y="97" width="1" height="1" fill="#e83720"/>
    <rect x="64" y="97" width="118" height="1" fill="#e83720"/>
    <rect x="234" y="97" width="1" height="1" fill="#e83720"/>
    <rect x="3" y="98" width="1" height="1" fill="#e83720"/>
    <rect x="64" y="98" width="118" height="1" fill="#e83720"/>
    <rect x="234" y="98" width="1" height="1" fill="#e83720"/>
    <rect x="3" y="99" width="1" height="1" fill="#e83720"/>
    <rect x="64" y="99" width="118" height="1" fill="#e83720"/>
    <rect x="234" y="99" width="1" height="1" fill="#e83720"/>
    <rect x="3" y="100" width="1" height="1" fill="#e83720"/>
    <rect x="64" y="100" width="118" height="1" fill="#e83720"/>
    <rect x="234" y="100" width="1" height="1" fill="#e83720"/>
    <rect x="3" y="101" width="1" height="1" fill="#e83720"/>
    <rect x="64" y="101" width="118" height="1" fill="#e83720"/>
    <rect x="234" y="101" width="1" height="1" fill="#e83720"/>
    <rect x="3" y="102" width="1" height="1" fill="#e83720"/>
    <rect x="64" y="102" width="118" height="1" fill="#e83720"/>
    <rect x="234" y="102" width="1" height="1" fill="#e83720"/>
    <rect x="3" y="103" width="1" height="1" fill="#e83720"/>
    <rect x="64" y="103" width="118" height="1" fill="#e83720"/>
    <rect x="234" y="103" width="1" height="1" fill="#e83720"/>
    <rect x="3" y="104" width="1" height="1" fill="#e83720"/>
    <rect x="64" y="104" width="118" height="1" fill="#e83720"/>
    <rect x="234" y="104" width="1" height="1" fill="#e83720"/>
    <rect x="3" y="105" width="1" height="1" fill="#e83720"/>
    <rect x="64" y="105" width="117" height="1" fill="#e83720"/>
    <rect x="234" y="105" width="1" height="1" fill="#e83720"/>
    <rect x="3" y="106" width="232" height="1" fill="#e83720"/>
    <rect x="3" y="107" width="1" height="1" fill="#e83720"/>
    <rect x="234" y="107" width="1" height="1" fill="#e83720"/>
    <rect x="3" y="108" width="1" height="1" fill="#e83720"/>
    <rect x="234" y="108" width="1" height="1" fill="#e83720"/>
    <rect x="3" y="109" width="1" height="1" fill="#e83720"/>
    <rect x="234" y="109" width="1" height="1" fill="#e83720"/>
    <rect x="3" y="110" width="1" height="1" fill="#e83720"/>
    <rect x="234" y="110" width="1" height="1" fill="#e83720"/>
    <rect x="3" y="111" width="1" height="1" fill="#e83720"/>
    <rect x="234" y="111" width="1" height="1" fill="#e83720"/>
    <rect x="3" y="112" width="1" height="1" fill="#e83720"/>
    <rect x="234" y="112" width="1" height="1" fill="#e83720"/>
    <rect x="3" y="113" width="1" height="1" fill="#e83720"/>
    <rect x="234" y="113" width="1" height="1" fill="#e83720"/>
    <rect x="3" y="114" width="1" height="1" fill="#e83720"/>
    <rect x="234" y="114" width="1" height="1" fill="#e83720"/>
    <rect x="3" y="115" width="1" height="1" fill="#e83720"/>
    <rect x="234" y="115" width="1" height="1" fill="#e83720"/>
    <rect x="3" y="116" width="1" height="1" fill="#e83720"/>
    <rect x="234" y="116" width="1" height="1" fill="#e83720"/>
    <rect x="3" y="117" width="1" height="1" fill="#e83720"/>
    <rect x="234" y="117" width="1" height="1" fill="#e83720"/>
    <rect x="3" y="118" width="1" height="1" fill="#e83720"/>
    <rect x="234" y="118" width="1" height="1" fill="#e83720"/>
    <rect x="3" y="119" width="1" height="1" fill="#e83720"/>
    <rect x="234" y="119" width="1" height="1" fill="#e83720"/>
    <rect x="3" y="120" width="1" height="1" fill="#e83720"/>
    <rect x="234" y="120" width="1" height="1" fill="#e83720"/>
    <rect x="3" y="121" width="1" height="1" fill="#e83720"/>
    <rect x="234" y="121" width="1" height="1" fill="#e83720"/>
    <rect x="3" y="122" width="1" height="1" fill="#e83720"/>
    <rect x="234" y="122" width="1" height="1" fill="#e83720"/>
    <rect x="3" y="123" width="1" height="1" fill="#e83720"/>
    <rect x="234" y="123" width="1" height="1" fill="#e83720"/>
    <rect x="3" y="124" width="1" height="1" fill="#e83720"/>
    <rect x="234" y="124" width="1" height="1" fill="#e83720"/>
    <rect x="3" y="125" width="1" height="1" fill="#e83720"/>
    <rect x="234" y="125" width="1" height="1" fill="#e83720"/>
    <rect x="3" y="126" width="1" height="1" fill="#e83720"/>
    <rect x="234" y="126" width="1" height="1" fill="#e83720"/>
    <rect x="3" y="127" width="1" height="1" fill="#e83720"/>
    <rect x="234" y="127" width="1" height="1" fill="#e83720"/>
    <rect x="3" y="128" width="1" height="1" fill="#e83720"/>
    <rect x="234" y="128" width="1" height="1" fill="#e83720"/>
    <rect x="3" y="129" width="1" height="1" fill="#e83720"/>
    <rect x="234" y="129" width="1" height="1" fill="#e83720"/>
    <rect x="3" y="130" width="1" height="1" fill="#e83720"/>
    <rect x="234" y="130" width="1" height="1" fill="#e83720"/>
    <rect x="3" y="131" width="1" height="1" fill="#e83720"/>
    <rect x="234" y="131" width="1" height="1" fill="#e83720"/>
    <rect x="3" y="132" width="1" height="1" fill="#e83720"/>
    <rect x="234" y="132" width="1" height="1" fill="#e83720"/>
    <rect x="3" y="133" width="1" height="1" fill="#e83720"/>
    <rect x="234" y="133" width="1" height="1" fill="#e83720"/>
    <rect x="3" y="134" width="1" height="1" fill="#e83720"/>
    <rect x="234" y="134" width="1" height="1" fill="#e83720"/>
    <rect x="3" y="135" width="1" height="1" fill="#e83720"/>
    <rect x="234" y="135" width="1" height="1" fill="#e83720"/>
    <rect x="3" y="136" width="1" height="1" fill="#e83720"/>
    <rect x="234" y="136" width="1" height="1" fill="#e83720"/>
    <rect x="3" y="137" width="1" height="1" fill="#e83720"/>
    <rect x="234" y="137" width="1" height="1" fill="#e83720"/>
    <rect x="3" y="138" width="1" height="1" fill="#e83720"/>
    <rect x="234" y="138" width="1" height="1" fill="#e83720"/>
    <rect x="3" y="139" width="1" height="1" fill="#e83720"/>
    <rect x="234" y="139" width="1" height="1" fill="#e83720"/>
    <rect x="3" y="140" width="1" height="1" fill="#e83720"/>
    <rect x="234" y="140" width="1" height="1" fill="#e83720"/>
    <rect x="3" y="141" width="1" height="1" fill="#e83720"/>
    <rect x="234" y="141" width="1" height="1" fill="#e83720"/>
    <rect x="3" y="142" width="1" height="1" fill="#e83720"/>
    <rect x="234" y="142" width="1" height="1" fill="#e83720"/>
    <rect x="3" y="143" width="1" height="1" fill="#e83720"/>
    <rect x="234" y="143" width="1" height="1" fill="#e83720"/>
    <rect x="3" y="144" width="1" height="1" fill="#e83720"/>
    <rect x="234" y="144" width="1" height="1" fill="#e83720"/>
    <rect x="3" y="145" width="1" height="1" fill="#e83720"/>
    <rect x="234" y="145" width="1" height="1" fill="#e83720"/>
    <rect x="3" y="146" width="1" height="1" fill="#e83720"/>
    <rect x="234" y="146" width="1" height="1" fill="#e83720"/>
    <rect x="3" y="147" width="1" height="1" fill="#e83720"/>
    <rect x="234" y="147" width="1" height="1" fill="#e83720"/>
    <rect x="3" y="148" width="1" height="1" fill="#e83720"/>
    <rect x="234" y="148" width="1" height="1" fill="#e83720"/>
    <rect x="3" y="149" width="1" height="1" fill="#e83720"/>
    <rect x="234" y="149" width="1" height="1" fill="#e83720"/>
    <rect x="3" y="150" width="1" height="1" fill="#e83720"/>
    <rect x="234" y="150" width="1" height="1" fill="#e83720"/>
    <rect x="3" y="151" width="1" height="1" fill="#e83720"/>
    <rect x="234" y="151" width="1" height="1" fill="#e83720"/>
    <rect x="3" y="152" width="1" height="1" fill="#e83720"/>
    <rect x="234" y="152" width="1" height="1" fill="#e83720"/>
    <rect x="3" y="153" width="1" height="1" fill="#e83720"/>
    <rect x="234" y="153" width="1" height="1" fill="#e83720"/>
    <rect x="3" y="154" width="1" height="1" fill="#e83720"/>
    <rect x="234" y="154" width="1" height="1" fill="#e83720"/>
    <rect x="3" y="155" width="232" height="1" fill="#e83720"/>
  </g>
</svg>