<?xml version="1.0" encoding="UTF-8"?>
<svg xmlns="http://www.w3.org/2000/svg" viewBox="0 0 132 53" width="132" height="53">
  <!-- Auto-converted from legend-933.png -->
  <rect x="0" y="0" width="132" height="53" fill="none"/>
  <g fill="#231f20" stroke="none">
    <rect x="0" y="0" width="132" height="1" fill="#231f20"/>
    <rect x="0" y="1" width="1" height="1" fill="#231f20"/>
    <rect x="131" y="1" width="1" height="1" fill="#231f20"/>
    <rect x="0" y="2" width="1" height="1" fill="#231f20"/>
    <rect x="131" y="2" width="1" height="1" fill="#231f20"/>
    <rect x="0" y="3" width="1" height="1" fill="#231f20"/>
    <rect x="131" y="3" width="1" height="1" fill="#231f20"/>
    <rect x="0" y="4" width="1" height="1" fill="#231f20"/>
    <rect x="131" y="4" width="1" height="1" fill="#231f20"/>
    <rect x="0" y="5" width="1" height="1" fill="#231f20"/>
    <rect x="131" y="5" width="1" height="1" fill="#231f20"/>
    <rect x="0" y="6" width="1" height="1" fill="#231f20"/>
    <rect x="131" y="6" width="1" height="1" fill="#231f20"/>
    <rect x="0" y="7" width="1" height="1" fill="#231f20"/>
    <rect x="58" y="7" width="3" height="1" fill="#231f20"/>
    <rect x="95" y="7" width="4" height="1" fill="#231f20"/>
    <rect x="131" y="7" width="1" height="1" fill="#231f20"/>
    <rect x="0" y="8" width="1" height="1" fill="#231f20"/>
    <rect x="58" y="8" width="1" height="1" fill="#231f20"/>
    <rect x="61" y="8" width="1" height="1" fill="#231f20"/>
    <rect x="95" y="8" width="1" height="1" fill="#231f20"/>
    <rect x="98" y="8" width="1" height="1" fill="#231f20"/>
    <rect x="131" y="8" width="1" height="1" fill="#231f20"/>
    <rect x="0" y="9" width="1" height="1" fill="#231f20"/>
    <rect x="20" y="9" width="5" height="1" fill="#231f20"/>
    <rect x="57" y="9" width="2" height="1" fill="#231f20"/>
    <rect x="61" y="9" width="1" height="1" fill="#231f20"/>
    <rect x="95" y="9" width="1" height="1" fill="#231f20"/>
    <rect x="98" y="9" width="1" height="1" fill="#231f20"/>
    <rect x="131" y="9" width="1" height="1" fill="#231f20"/>
    <rect x="0" y="10" width="1" height="1" fill="#231f20"/>
    <rect x="58" y="10" width="3" height="1" fill="#231f20"/>
    <rect x="95" y="10" width="4" height="1" fill="#231f20"/>
    <rect x="131" y="10" width="1" height="1" fill="#231f20"/>
    <rect x="0" y="11" width="1" height="1" fill="#231f20"/>
    <rect x="131" y="11" width="1" height="1" fill="#231f20"/>
    <rect x="0" y="12" width="1" height="1" fill="#231f20"/>
    <rect x="131" y="12" width="1" height="1" fill="#231f20"/>
    <rect x="0" y="13" width="1" height="1" fill="#231f20"/>
    <rect x="131" y="13" width="1" height="1" fill="#231f20"/>
    <rect x="0" y="14" width="1" height="1" fill="#231f20"/>
    <rect x="131" y="14" width="1" height="1" fill="#231f20"/>
    <rect x="0" y="15" width="1" height="1" fill="#231f20"/>
    <rect x="131" y="15" width="1" height="1" fill="#231f20"/>
    <rect x="0" y="16" width="1" height="1" fill="#231f20"/>
    <rect x="131" y="16" width="1" height="1" fill="#231f20"/>
    <rect x="0" y="17" width="1" height="1" fill="#231f20"/>
    <rect x="131" y="17" width="1" height="1" fill="#231f20"/>
    <rect x="0" y="18" width="132" height="1" fill="#231f20"/>
    <rect x="0" y="19" width="1" height="1" fill="#231f20"/>
    <rect x="131" y="19" width="1" height="1" fill="#231f20"/>
    <rect x="0" y="20" width="1" height="1" fill="#231f20"/>
    <rect x="131" y="20" width="1" height="1" fill="#231f20"/>
    <rect x="0" y="21" width="1" height="1" fill="#231f20"/>
    <rect x="131" y="21" width="1" height="1" fill="#231f20"/>
    <rect x="0" y="22" width="1" height="1" fill="#231f20"/>
    <rect x="131" y="22" width="1" height="1" fill="#231f20"/>
    <rect x="0" y="23" width="1" height="1" fill="#231f20"/>
    <rect x="131" y="23" width="1" height="1" fill="#231f20"/>
    <rect x="0" y="24" width="1" height="1" fill="#231f20"/>
    <rect x="131" y="24" width="1" height="1" fill="#231f20"/>
    <rect x="0" y="25" width="1" height="1" fill="#231f20"/>
    <rect x="34" y="25" width="3" height="1" fill="#231f20"/>
    <rect x="71" y="25" width="4" height="1" fill="#231f20"/>
    <rect x="131" y="25" width="1" height="1" fill="#231f20"/>
    <rect x="0" y="26" width="1" height="1" fill="#231f20"/>
    <rect x="33" y="26" width="2" height="1" fill="#231f20"/>
    <rect x="37" y="26" width="1" height="1" fill="#231f20"/>
    <rect x="71" y="26" width="1" height="1" fill="#231f20"/>
    <rect x="74" y="26" width="1" height="1" fill="#231f20"/>
    <rect x="94" y="26" width="5" height="1" fill="#231f20"/>
    <rect x="131" y="26" width="1" height="1" fill="#231f20"/>
    <rect x="0" y="27" width="1" height="1" fill="#231f20"/>
    <rect x="34" y="27" width="1" height="1" fill="#231f20"/>
    <rect x="36" y="27" width="2" height="1" fill="#231f20"/>
    <rect x="71" y="27" width="1" height="1" fill="#231f20"/>
    <rect x="74" y="27" width="1" height="1" fill="#231f20"/>
    <rect x="131" y="27" width="1" height="1" fill="#231f20"/>
    <rect x="0" y="28" width="1" height="1" fill="#231f20"/>
    <rect x="35" y="28" width="2" height="1" fill="#231f20"/>
    <rect x="72" y="28" width="2" height="1" fill="#231f20"/>
    <rect x="131" y="28" width="1" height="1" fill="#231f20"/>
    <rect x="0" y="29" width="1" height="1" fill="#231f20"/>
    <rect x="131" y="29" width="1" height="1" fill="#231f20"/>
    <rect x="0" y="30" width="1" height="1" fill="#231f20"/>
    <rect x="131" y="30" width="1" height="1" fill="#231f20"/>
    <rect x="0" y="31" width="1" height="1" fill="#231f20"/>
    <rect x="131" y="31" width="1" height="1" fill="#231f20"/>
    <rect x="0" y="32" width="1" height="1" fill="#231f20"/>
    <rect x="131" y="32" width="1" height="1" fill="#231f20"/>
    <rect x="0" y="33" width="1" height="1" fill="#231f20"/>
    <rect x="131" y="33" width="1" height="1" fill="#231f20"/>
    <rect x="0" y="34" width="1" height="1" fill="#231f20"/>
    <rect x="131" y="34" width="1" height="1" fill="#231f20"/>
    <rect x="0" y="35" width="132" height="1" fill="#231f20"/>
    <rect x="0" y="36" width="1" height="1" fill="#231f20"/>
    <rect x="131" y="36" width="1" height="1" fill="#231f20"/>
    <rect x="0" y="37" width="1" height="1" fill="#231f20"/>
    <rect x="131" y="37" width="1" height="1" fill="#231f20"/>
    <rect x="0" y="38" width="1" height="1" fill="#231f20"/>
    <rect x="131" y="38" width="1" height="1" fill="#231f20"/>
    <rect x="0" y="39" width="1" height="1" fill="#231f20"/>
    <rect x="131" y="39" width="1" height="1" fill="#231f20"/>
    <rect x="0" y="40" width="1" height="1" fill="#231f20"/>
    <rect x="131" y="40" width="1" height="1" fill="#231f20"/>
    <rect x="0" y="41" width="1" height="1" fill="#231f20"/>
    <rect x="131" y="41" width="1" height="1" fill="#231f20"/>
    <rect x="0" y="42" width="1" height="1" fill="#231f20"/>
    <rect x="58" y="42" width="3" height="1" fill="#231f20"/>
    <rect x="95" y="42" width="4" height="1" fill="#231f20"/>
    <rect x="131" y="42" width="1" height="1" fill="#231f20"/>
    <rect x="0" y="43" width="1" height="1" fill="#231f20"/>
    <rect x="58" y="43" width="1" height="1" fill="#231f20"/>
    <rect x="61" y="43" width="1" height="1" fill="#231f20"/>
    <rect x="95" y="43" width="1" height="1" fill="#231f20"/>
    <rect x="98" y="43" width="1" height="1" fill="#231f20"/>
    <rect x="131" y="43" width="1" height="1" fill="#231f20"/>
    <rect x="0" y="44" width="1" height="1" fill="#231f20"/>
    <rect x="20" y="44" width="5" height="1" fill="#231f20"/>
    <rect x="57" y="44" width="2" height="1" fill="#231f20"/>
    <rect x="61" y="44" width="1" height="1" fill="#231f20"/>
    <rect x="95" y="44" width="1" height="1" fill="#231f20"/>
    <rect x="98" y="44" width="1" height="1" fill="#231f20"/>
    <rect x="131" y="44" width="1" height="1" fill="#231f20"/>
    <rect x="0" y="45" width="1" height="1" fill="#231f20"/>
    <rect x="58" y="45" width="3" height="1" fill="#231f20"/>
    <rect x="95" y="45" width="4" height="1" fill="#231f20"/>
    <rect x="131" y="45" width="1" height="1" fill="#231f20"/>
    <rect x="0" y="46" width="1" height="1" fill="#231f20"/>
    <rect x="131" y="46" width="1" height="1" fill="#231f20"/>
    <rect x="0" y="47" width="1" height="1" fill="#231f20"/>
    <rect x="131" y="47" width="1" height="1" fill="#231f20"/>
    <rect x="0" y="48" width="1" height="1" fill="#231f20"/>
    <rect x="131" y="48" width="1" height="1" fill="#231f20"/>
    <rect x="0" y="49" width="1" height="1" fill="#231f20"/>
    <rect x="131" y="49" width="1" height="1" fill="#231f20"/>
    <rect x="0" y="50" width="1" height="1" fill="#231f20"/>
    <rect x="131" y="50" width="1" height="1" fill="#231f20"/>
    <rect x="0" y="51" width="1" height="1" fill="#231f20"/>
    <rect x="131" y="51" width="1" height="1" fill="#231f20"/>
    <rect x="0" y="52" width="132" height="1" fill="#231f20"/>
  </g>
</svg>