<?xml version="1.0" encoding="UTF-8"?>
<svg xmlns="http://www.w3.org/2000/svg" viewBox="0 0 119 79" width="119" height="79">
  <!-- Auto-converted from legend-2645.png -->
  <rect x="0" y="0" width="119" height="79" fill="none"/>
  <g fill="#231f20" stroke="none">
    <rect x="0" y="0" width="119" height="1" fill="#231f20"/>
    <rect x="0" y="1" width="1" height="1" fill="#231f20"/>
    <rect x="118" y="1" width="1" height="1" fill="#231f20"/>
    <rect x="0" y="2" width="1" height="1" fill="#231f20"/>
    <rect x="118" y="2" width="1" height="1" fill="#231f20"/>
    <rect x="0" y="3" width="1" height="1" fill="#231f20"/>
    <rect x="118" y="3" width="1" height="1" fill="#231f20"/>
    <rect x="0" y="4" width="1" height="1" fill="#231f20"/>
    <rect x="118" y="4" width="1" height="1" fill="#231f20"/>
    <rect x="0" y="5" width="1" height="1" fill="#231f20"/>
    <rect x="118" y="5" width="1" height="1" fill="#231f20"/>
    <rect x="0" y="6" width="1" height="1" fill="#231f20"/>
    <rect x="118" y="6" width="1" height="1" fill="#231f20"/>
    <rect x="0" y="7" width="1" height="1" fill="#231f20"/>
    <rect x="118" y="7" width="1" height="1" fill="#231f20"/>
    <rect x="0" y="8" width="1" height="1" fill="#231f20"/>
    <rect x="118" y="8" width="1" height="1" fill="#231f20"/>
    <rect x="0" y="9" width="1" height="1" fill="#231f20"/>
    <rect x="118" y="9" width="1" height="1" fill="#231f20"/>
    <rect x="0" y="10" width="1" height="1" fill="#231f20"/>
    <rect x="118" y="10" width="1" height="1" fill="#231f20"/>
    <rect x="0" y="11" width="1" height="1" fill="#231f20"/>
    <rect x="118" y="11" width="1" height="1" fill="#231f20"/>
    <rect x="0" y="12" width="1" height="1" fill="#231f20"/>
    <rect x="118" y="12" width="1" height="1" fill="#231f20"/>
    <rect x="0" y="13" width="1" height="1" fill="#231f20"/>
    <rect x="118" y="13" width="1" height="1" fill="#231f20"/>
    <rect x="0" y="14" width="1" height="1" fill="#231f20"/>
    <rect x="118" y="14" width="1" height="1" fill="#231f20"/>
    <rect x="0" y="15" width="1" height="1" fill="#231f20"/>
    <rect x="118" y="15" width="1" height="1" fill="#231f20"/>
    <rect x="0" y="16" width="1" height="1" fill="#231f20"/>
    <rect x="118" y="16" width="1" height="1" fill="#231f20"/>
    <rect x="0" y="17" width="1" height="1" fill="#231f20"/>
    <rect x="118" y="17" width="1" height="1" fill="#231f20"/>
    <rect x="0" y="18" width="1" height="1" fill="#231f20"/>
    <rect x="118" y="18" width="1" height="1" fill="#231f20"/>
    <rect x="0" y="19" width="1" height="1" fill="#231f20"/>
    <rect x="89" y="19" width="1" height="1" fill="#231f20"/>
    <rect x="118" y="19" width="1" height="1" fill="#231f20"/>
    <rect x="0" y="20" width="1" height="1" fill="#231f20"/>
    <rect x="87" y="20" width="2" height="1" fill="#231f20"/>
    <rect x="118" y="20" width="1" height="1" fill="#231f20"/>
    <rect x="0" y="21" width="1" height="1" fill="#231f20"/>
    <rect x="86" y="21" width="1" height="1" fill="#231f20"/>
    <rect x="118" y="21" width="1" height="1" fill="#231f20"/>
    <rect x="0" y="22" width="1" height="1" fill="#231f20"/>
    <rect x="84" y="22" width="2" height="1" fill="#231f20"/>
    <rect x="118" y="22" width="1" height="1" fill="#231f20"/>
    <rect x="0" y="23" width="1" height="1" fill="#231f20"/>
    <rect x="83" y="23" width="1" height="1" fill="#231f20"/>
    <rect x="118" y="23" width="1" height="1" fill="#231f20"/>
    <rect x="0" y="24" width="1" height="1" fill="#231f20"/>
    <rect x="81" y="24" width="2" height="1" fill="#231f20"/>
    <rect x="118" y="24" width="1" height="1" fill="#231f20"/>
    <rect x="0" y="25" width="1" height="1" fill="#231f20"/>
    <rect x="80" y="25" width="3" height="1" fill="#231f20"/>
    <rect x="118" y="25" width="1" height="1" fill="#231f20"/>
    <rect x="0" y="26" width="1" height="1" fill="#231f20"/>
    <rect x="78" y="26" width="5" height="1" fill="#231f20"/>
    <rect x="118" y="26" width="1" height="1" fill="#231f20"/>
    <rect x="0" y="27" width="1" height="1" fill="#231f20"/>
    <rect x="77" y="27" width="6" height="1" fill="#231f20"/>
    <rect x="118" y="27" width="1" height="1" fill="#231f20"/>
    <rect x="0" y="28" width="1" height="1" fill="#231f20"/>
    <rect x="75" y="28" width="8" height="1" fill="#231f20"/>
    <rect x="118" y="28" width="1" height="1" fill="#231f20"/>
    <rect x="0" y="29" width="1" height="1" fill="#231f20"/>
    <rect x="74" y="29" width="9" height="1" fill="#231f20"/>
    <rect x="118" y="29" width="1" height="1" fill="#231f20"/>
    <rect x="0" y="30" width="1" height="1" fill="#231f20"/>
    <rect x="72" y="30" width="12" height="1" fill="#231f20"/>
    <rect x="118" y="30" width="1" height="1" fill="#231f20"/>
    <rect x="0" y="31" width="1" height="1" fill="#231f20"/>
    <rect x="71" y="31" width="4" height="1" fill="#231f20"/>
    <rect x="77" y="31" width="7" height="1" fill="#231f20"/>
    <rect x="118" y="31" width="1" height="1" fill="#231f20"/>
    <rect x="0" y="32" width="1" height="1" fill="#231f20"/>
    <rect x="70" y="32" width="6" height="1" fill="#231f20"/>
    <rect x="78" y="32" width="6" height="1" fill="#231f20"/>
    <rect x="118" y="32" width="1" height="1" fill="#231f20"/>
    <rect x="0" y="33" width="1" height="1" fill="#231f20"/>
    <rect x="68" y="33" width="8" height="1" fill="#231f20"/>
    <rect x="80" y="33" width="4" height="1" fill="#231f20"/>
    <rect x="118" y="33" width="1" height="1" fill="#231f20"/>
    <rect x="0" y="34" width="1" height="1" fill="#231f20"/>
    <rect x="67" y="34" width="9" height="1" fill="#231f20"/>
    <rect x="81" y="34" width="3" height="1" fill="#231f20"/>
    <rect x="118" y="34" width="1" height="1" fill="#231f20"/>
    <rect x="0" y="35" width="1" height="1" fill="#231f20"/>
    <rect x="65" y="35" width="2" height="1" fill="#231f20"/>
    <rect x="68" y="35" width="8" height="1" fill="#231f20"/>
    <rect x="83" y="35" width="1" height="1" fill="#231f20"/>
    <rect x="118" y="35" width="1" height="1" fill="#231f20"/>
    <rect x="0" y="36" width="1" height="1" fill="#231f20"/>
    <rect x="64" y="36" width="1" height="1" fill="#231f20"/>
    <rect x="70" y="36" width="6" height="1" fill="#231f20"/>
    <rect x="118" y="36" width="1" height="1" fill="#231f20"/>
    <rect x="0" y="37" width="1" height="1" fill="#231f20"/>
    <rect x="62" y="37" width="2" height="1" fill="#231f20"/>
    <rect x="71" y="37" width="5" height="1" fill="#231f20"/>
    <rect x="118" y="37" width="1" height="1" fill="#231f20"/>
    <rect x="0" y="38" width="1" height="1" fill="#231f20"/>
    <rect x="61" y="38" width="1" height="1" fill="#231f20"/>
    <rect x="73" y="38" width="4" height="1" fill="#231f20"/>
    <rect x="118" y="38" width="1" height="1" fill="#231f20"/>
    <rect x="0" y="39" width="1" height="1" fill="#231f20"/>
    <rect x="59" y="39" width="2" height="1" fill="#231f20"/>
    <rect x="74" y="39" width="3" height="1" fill="#231f20"/>
    <rect x="118" y="39" width="1" height="1" fill="#231f20"/>
    <rect x="0" y="40" width="1" height="1" fill="#231f20"/>
    <rect x="58" y="40" width="1" height="1" fill="#231f20"/>
    <rect x="76" y="40" width="1" height="1" fill="#231f20"/>
    <rect x="118" y="40" width="1" height="1" fill="#231f20"/>
    <rect x="0" y="41" width="1" height="1" fill="#231f20"/>
    <rect x="56" y="41" width="2" height="1" fill="#231f20"/>
    <rect x="118" y="41" width="1" height="1" fill="#231f20"/>
    <rect x="0" y="42" width="1" height="1" fill="#231f20"/>
    <rect x="55" y="42" width="1" height="1" fill="#231f20"/>
    <rect x="118" y="42" width="1" height="1" fill="#231f20"/>
    <rect x="0" y="43" width="1" height="1" fill="#231f20"/>
    <rect x="53" y="43" width="2" height="1" fill="#231f20"/>
    <rect x="118" y="43" width="1" height="1" fill="#231f20"/>
    <rect x="0" y="44" width="1" height="1" fill="#231f20"/>
    <rect x="52" y="44" width="1" height="1" fill="#231f20"/>
    <rect x="118" y="44" width="1" height="1" fill="#231f20"/>
    <rect x="0" y="45" width="1" height="1" fill="#231f20"/>
    <rect x="50" y="45" width="3" height="1" fill="#231f20"/>
    <rect x="118" y="45" width="1" height="1" fill="#231f20"/>
    <rect x="0" y="46" width="1" height="1" fill="#231f20"/>
    <rect x="49" y="46" width="4" height="1" fill="#231f20"/>
    <rect x="118" y="46" width="1" height="1" fill="#231f20"/>
    <rect x="0" y="47" width="1" height="1" fill="#231f20"/>
    <rect x="47" y="47" width="7" height="1" fill="#231f20"/>
    <rect x="118" y="47" width="1" height="1" fill="#231f20"/>
    <rect x="0" y="48" width="1" height="1" fill="#231f20"/>
    <rect x="46" y="48" width="8" height="1" fill="#231f20"/>
    <rect x="118" y="48" width="1" height="1" fill="#231f20"/>
    <rect x="0" y="49" width="1" height="1" fill="#231f20"/>
    <rect x="45" y="49" width="9" height="1" fill="#231f20"/>
    <rect x="118" y="49" width="1" height="1" fill="#231f20"/>
    <rect x="0" y="50" width="1" height="1" fill="#231f20"/>
    <rect x="43" y="50" width="11" height="1" fill="#231f20"/>
    <rect x="118" y="50" width="1" height="1" fill="#231f20"/>
    <rect x="0" y="51" width="1" height="1" fill="#231f20"/>
    <rect x="42" y="51" width="4" height="1" fill="#231f20"/>
    <rect x="48" y="51" width="6" height="1" fill="#231f20"/>
    <rect x="118" y="51" width="1" height="1" fill="#231f20"/>
    <rect x="0" y="52" width="1" height="1" fill="#231f20"/>
    <rect x="40" y="52" width="7" height="1" fill="#231f20"/>
    <rect x="50" y="52" width="5" height="1" fill="#231f20"/>
    <rect x="118" y="52" width="1" height="1" fill="#231f20"/>
    <rect x="0" y="53" width="1" height="1" fill="#231f20"/>
    <rect x="38" y="53" width="9" height="1" fill="#231f20"/>
    <rect x="52" y="53" width="3" height="1" fill="#231f20"/>
    <rect x="118" y="53" width="1" height="1" fill="#231f20"/>
    <rect x="0" y="54" width="1" height="1" fill="#231f20"/>
    <rect x="37" y="54" width="10" height="1" fill="#231f20"/>
    <rect x="54" y="54" width="1" height="1" fill="#231f20"/>
    <rect x="118" y="54" width="1" height="1" fill="#231f20"/>
    <rect x="0" y="55" width="1" height="1" fill="#231f20"/>
    <rect x="36" y="55" width="1" height="1" fill="#231f20"/>
    <rect x="38" y="55" width="9" height="1" fill="#231f20"/>
    <rect x="118" y="55" width="1" height="1" fill="#231f20"/>
    <rect x="0" y="56" width="1" height="1" fill="#231f20"/>
    <rect x="34" y="56" width="2" height="1" fill="#231f20"/>
    <rect x="40" y="56" width="7" height="1" fill="#231f20"/>
    <rect x="118" y="56" width="1" height="1" fill="#231f20"/>
    <rect x="0" y="57" width="1" height="1" fill="#231f20"/>
    <rect x="33" y="57" width="1" height="1" fill="#231f20"/>
    <rect x="42" y="57" width="5" height="1" fill="#231f20"/>
    <rect x="118" y="57" width="1" height="1" fill="#231f20"/>
    <rect x="0" y="58" width="1" height="1" fill="#231f20"/>
    <rect x="31" y="58" width="2" height="1" fill="#231f20"/>
    <rect x="44" y="58" width="3" height="1" fill="#231f20"/>
    <rect x="118" y="58" width="1" height="1" fill="#231f20"/>
    <rect x="0" y="59" width="1" height="1" fill="#231f20"/>
    <rect x="30" y="59" width="1" height="1" fill="#231f20"/>
    <rect x="46" y="59" width="1" height="1" fill="#231f20"/>
    <rect x="118" y="59" width="1" height="1" fill="#231f20"/>
    <rect x="0" y="60" width="1" height="1" fill="#231f20"/>
    <rect x="118" y="60" width="1" height="1" fill="#231f20"/>
    <rect x="0" y="61" width="1" height="1" fill="#231f20"/>
    <rect x="118" y="61" width="1" height="1" fill="#231f20"/>
    <rect x="0" y="62" width="1" height="1" fill="#231f20"/>
    <rect x="118" y="62" width="1" height="1" fill="#231f20"/>
    <rect x="0" y="63" width="1" height="1" fill="#231f20"/>
    <rect x="118" y="63" width="1" height="1" fill="#231f20"/>
    <rect x="0" y="64" width="1" height="1" fill="#231f20"/>
    <rect x="118" y="64" width="1" height="1" fill="#231f20"/>
    <rect x="0" y="65" width="1" height="1" fill="#231f20"/>
    <rect x="118" y="65" width="1" height="1" fill="#231f20"/>
    <rect x="0" y="66" width="1" height="1" fill="#231f20"/>
    <rect x="118" y="66" width="1" height="1" fill="#231f20"/>
    <rect x="0" y="67" width="1" height="1" fill="#231f20"/>
    <rect x="118" y="67" width="1" height="1" fill="#231f20"/>
    <rect x="0" y="68" width="1" height="1" fill="#231f20"/>
    <rect x="118" y="68" width="1" height="1" fill="#231f20"/>
    <rect x="0" y="69" width="1" height="1" fill="#231f20"/>
    <rect x="118" y="69" width="1" height="1" fill="#231f20"/>
    <rect x="0" y="70" width="1" height="1" fill="#231f20"/>
    <rect x="118" y="70" width="1" height="1" fill="#231f20"/>
    <rect x="0" y="71" width="1" height="1" fill="#231f20"/>
    <rect x="118" y="71" width="1" height="1" fill="#231f20"/>
    <rect x="0" y="72" width="1" height="1" fill="#231f20"/>
    <rect x="118" y="72" width="1" height="1" fill="#231f20"/>
    <rect x="0" y="73" width="1" height="1" fill="#231f20"/>
    <rect x="118" y="73" width="1" height="1" fill="#231f20"/>
    <rect x="0" y="74" width="1" height="1" fill="#231f20"/>
    <rect x="118" y="74" width="1" height="1" fill="#231f20"/>
    <rect x="0" y="75" width="1" height="1" fill="#231f20"/>
    <rect x="118" y="75" width="1" height="1" fill="#231f20"/>
    <rect x="0" y="76" width="1" height="1" fill="#231f20"/>
    <rect x="118" y="76" width="1" height="1" fill="#231f20"/>
    <rect x="0" y="77" width="1" height="1" fill="#231f20"/>
    <rect x="118" y="77" width="1" height="1" fill="#231f20"/>
    <rect x="0" y="78" width="119" height="1" fill="#231f20"/>
  </g>
</svg>