<?xml version="1.0" encoding="UTF-8"?>
<svg xmlns="http://www.w3.org/2000/svg" viewBox="0 0 154 61" width="154" height="61">
  <!-- Auto-converted from legend-2097.png -->
  <rect x="0" y="0" width="154" height="61" fill="none"/>
  <g fill="#231f20" stroke="none">
    <rect x="0" y="0" width="154" height="1" fill="#231f20"/>
    <rect x="0" y="1" width="1" height="1" fill="#231f20"/>
    <rect x="153" y="1" width="1" height="1" fill="#231f20"/>
    <rect x="0" y="2" width="1" height="1" fill="#231f20"/>
    <rect x="153" y="2" width="1" height="1" fill="#231f20"/>
    <rect x="0" y="3" width="1" height="1" fill="#231f20"/>
    <rect x="153" y="3" width="1" height="1" fill="#231f20"/>
    <rect x="0" y="4" width="1" height="1" fill="#231f20"/>
    <rect x="153" y="4" width="1" height="1" fill="#231f20"/>
    <rect x="0" y="5" width="1" height="1" fill="#231f20"/>
    <rect x="153" y="5" width="1" height="1" fill="#231f20"/>
    <rect x="0" y="6" width="1" height="1" fill="#231f20"/>
    <rect x="153" y="6" width="1" height="1" fill="#231f20"/>
    <rect x="0" y="7" width="1" height="1" fill="#231f20"/>
    <rect x="153" y="7" width="1" height="1" fill="#231f20"/>
    <rect x="0" y="8" width="1" height="1" fill="#231f20"/>
    <rect x="153" y="8" width="1" height="1" fill="#231f20"/>
    <rect x="0" y="9" width="1" height="1" fill="#231f20"/>
    <rect x="153" y="9" width="1" height="1" fill="#231f20"/>
    <rect x="0" y="10" width="1" height="1" fill="#231f20"/>
    <rect x="153" y="10" width="1" height="1" fill="#231f20"/>
    <rect x="0" y="11" width="1" height="1" fill="#231f20"/>
    <rect x="153" y="11" width="1" height="1" fill="#231f20"/>
    <rect x="0" y="12" width="1" height="1" fill="#231f20"/>
    <rect x="153" y="12" width="1" height="1" fill="#231f20"/>
    <rect x="0" y="13" width="1" height="1" fill="#231f20"/>
    <rect x="153" y="13" width="1" height="1" fill="#231f20"/>
    <rect x="0" y="14" width="1" height="1" fill="#231f20"/>
    <rect x="153" y="14" width="1" height="1" fill="#231f20"/>
    <rect x="0" y="15" width="1" height="1" fill="#231f20"/>
    <rect x="153" y="15" width="1" height="1" fill="#231f20"/>
    <rect x="0" y="16" width="1" height="1" fill="#231f20"/>
    <rect x="153" y="16" width="1" height="1" fill="#231f20"/>
    <rect x="0" y="17" width="1" height="1" fill="#231f20"/>
    <rect x="153" y="17" width="1" height="1" fill="#231f20"/>
    <rect x="0" y="18" width="1" height="1" fill="#231f20"/>
    <rect x="153" y="18" width="1" height="1" fill="#231f20"/>
    <rect x="0" y="19" width="1" height="1" fill="#231f20"/>
    <rect x="153" y="19" width="1" height="1" fill="#231f20"/>
    <rect x="0" y="20" width="1" height="1" fill="#231f20"/>
    <rect x="153" y="20" width="1" height="1" fill="#231f20"/>
    <rect x="0" y="21" width="1" height="1" fill="#231f20"/>
    <rect x="16" y="21" width="1" height="1" fill="#231f20"/>
    <rect x="54" y="21" width="4" height="1" fill="#231f20"/>
    <rect x="97" y="21" width="7" height="1" fill="#231f20"/>
    <rect x="137" y="21" width="1" height="1" fill="#231f20"/>
    <rect x="153" y="21" width="1" height="1" fill="#231f20"/>
    <rect x="0" y="22" width="1" height="1" fill="#231f20"/>
    <rect x="15" y="22" width="3" height="1" fill="#231f20"/>
    <rect x="50" y="22" width="13" height="1" fill="#231f20"/>
    <rect x="95" y="22" width="13" height="1" fill="#231f20"/>
    <rect x="136" y="22" width="3" height="1" fill="#231f20"/>
    <rect x="153" y="22" width="1" height="1" fill="#231f20"/>
    <rect x="0" y="23" width="1" height="1" fill="#231f20"/>
    <rect x="14" y="23" width="5" height="1" fill="#231f20"/>
    <rect x="48" y="23" width="18" height="1" fill="#231f20"/>
    <rect x="93" y="23" width="16" height="1" fill="#231f20"/>
    <rect x="135" y="23" width="4" height="1" fill="#231f20"/>
    <rect x="153" y="23" width="1" height="1" fill="#231f20"/>
    <rect x="0" y="24" width="1" height="1" fill="#231f20"/>
    <rect x="15" y="24" width="7" height="1" fill="#231f20"/>
    <rect x="46" y="24" width="22" height="1" fill="#231f20"/>
    <rect x="92" y="24" width="8" height="1" fill="#231f20"/>
    <rect x="102" y="24" width="9" height="1" fill="#231f20"/>
    <rect x="133" y="24" width="6" height="1" fill="#231f20"/>
    <rect x="153" y="24" width="1" height="1" fill="#231f20"/>
    <rect x="0" y="25" width="1" height="1" fill="#231f20"/>
    <rect x="15" y="25" width="9" height="1" fill="#231f20"/>
    <rect x="45" y="25" width="7" height="1" fill="#231f20"/>
    <rect x="61" y="25" width="9" height="1" fill="#231f20"/>
    <rect x="91" y="25" width="6" height="1" fill="#231f20"/>
    <rect x="106" y="25" width="7" height="1" fill="#231f20"/>
    <rect x="132" y="25" width="7" height="1" fill="#231f20"/>
    <rect x="153" y="25" width="1" height="1" fill="#231f20"/>
    <rect x="0" y="26" width="1" height="1" fill="#231f20"/>
    <rect x="15" y="26" width="3" height="1" fill="#231f20"/>
    <rect x="19" y="26" width="7" height="1" fill="#231f20"/>
    <rect x="42" y="26" width="8" height="1" fill="#231f20"/>
    <rect x="64" y="26" width="8" height="1" fill="#231f20"/>
    <rect x="89" y="26" width="7" height="1" fill="#231f20"/>
    <rect x="107" y="26" width="8" height="1" fill="#231f20"/>
    <rect x="130" y="26" width="9" height="1" fill="#231f20"/>
    <rect x="153" y="26" width="1" height="1" fill="#231f20"/>
    <rect x="0" y="27" width="1" height="1" fill="#231f20"/>
    <rect x="15" y="27" width="3" height="1" fill="#231f20"/>
    <rect x="20" y="27" width="8" height="1" fill="#231f20"/>
    <rect x="40" y="27" width="8" height="1" fill="#231f20"/>
    <rect x="68" y="27" width="7" height="1" fill="#231f20"/>
    <rect x="87" y="27" width="7" height="1" fill="#231f20"/>
    <rect x="111" y="27" width="6" height="1" fill="#231f20"/>
    <rect x="129" y="27" width="6" height="1" fill="#231f20"/>
    <rect x="136" y="27" width="3" height="1" fill="#231f20"/>
    <rect x="153" y="27" width="1" height="1" fill="#231f20"/>
    <rect x="0" y="28" width="1" height="1" fill="#231f20"/>
    <rect x="15" y="28" width="3" height="1" fill="#231f20"/>
    <rect x="22" y="28" width="10" height="1" fill="#231f20"/>
    <rect x="37" y="28" width="8" height="1" fill="#231f20"/>
    <rect x="70" y="28" width="8" height="1" fill="#231f20"/>
    <rect x="85" y="28" width="8" height="1" fill="#231f20"/>
    <rect x="112" y="28" width="7" height="1" fill="#231f20"/>
    <rect x="127" y="28" width="7" height="1" fill="#231f20"/>
    <rect x="136" y="28" width="3" height="1" fill="#231f20"/>
    <rect x="153" y="28" width="1" height="1" fill="#231f20"/>
    <rect x="0" y="29" width="1" height="1" fill="#231f20"/>
    <rect x="15" y="29" width="3" height="1" fill="#231f20"/>
    <rect x="24" y="29" width="20" height="1" fill="#231f20"/>
    <rect x="72" y="29" width="19" height="1" fill="#231f20"/>
    <rect x="113" y="29" width="19" height="1" fill="#231f20"/>
    <rect x="136" y="29" width="3" height="1" fill="#231f20"/>
    <rect x="153" y="29" width="1" height="1" fill="#231f20"/>
    <rect x="0" y="30" width="1" height="1" fill="#231f20"/>
    <rect x="15" y="30" width="3" height="1" fill="#231f20"/>
    <rect x="26" y="30" width="16" height="1" fill="#231f20"/>
    <rect x="73" y="30" width="16" height="1" fill="#231f20"/>
    <rect x="115" y="30" width="16" height="1" fill="#231f20"/>
    <rect x="136" y="30" width="3" height="1" fill="#231f20"/>
    <rect x="153" y="30" width="1" height="1" fill="#231f20"/>
    <rect x="0" y="31" width="1" height="1" fill="#231f20"/>
    <rect x="15" y="31" width="3" height="1" fill="#231f20"/>
    <rect x="30" y="31" width="9" height="1" fill="#231f20"/>
    <rect x="76" y="31" width="11" height="1" fill="#231f20"/>
    <rect x="117" y="31" width="12" height="1" fill="#231f20"/>
    <rect x="136" y="31" width="3" height="1" fill="#231f20"/>
    <rect x="153" y="31" width="1" height="1" fill="#231f20"/>
    <rect x="0" y="32" width="1" height="1" fill="#231f20"/>
    <rect x="15" y="32" width="3" height="1" fill="#231f20"/>
    <rect x="121" y="32" width="4" height="1" fill="#231f20"/>
    <rect x="136" y="32" width="3" height="1" fill="#231f20"/>
    <rect x="153" y="32" width="1" height="1" fill="#231f20"/>
    <rect x="0" y="33" width="1" height="1" fill="#231f20"/>
    <rect x="15" y="33" width="3" height="1" fill="#231f20"/>
    <rect x="136" y="33" width="3" height="1" fill="#231f20"/>
    <rect x="153" y="33" width="1" height="1" fill="#231f20"/>
    <rect x="0" y="34" width="1" height="1" fill="#231f20"/>
    <rect x="15" y="34" width="3" height="1" fill="#231f20"/>
    <rect x="136" y="34" width="3" height="1" fill="#231f20"/>
    <rect x="153" y="34" width="1" height="1" fill="#231f20"/>
    <rect x="0" y="35" width="1" height="1" fill="#231f20"/>
    <rect x="15" y="35" width="3" height="1" fill="#231f20"/>
    <rect x="136" y="35" width="3" height="1" fill="#231f20"/>
    <rect x="153" y="35" width="1" height="1" fill="#231f20"/>
    <rect x="0" y="36" width="1" height="1" fill="#231f20"/>
    <rect x="15" y="36" width="3" height="1" fill="#231f20"/>
    <rect x="136" y="36" width="3" height="1" fill="#231f20"/>
    <rect x="153" y="36" width="1" height="1" fill="#231f20"/>
    <rect x="0" y="37" width="1" height="1" fill="#231f20"/>
    <rect x="15" y="37" width="3" height="1" fill="#231f20"/>
    <rect x="136" y="37" width="3" height="1" fill="#231f20"/>
    <rect x="153" y="37" width="1" height="1" fill="#231f20"/>
    <rect x="0" y="38" width="1" height="1" fill="#231f20"/>
    <rect x="15" y="38" width="3" height="1" fill="#231f20"/>
    <rect x="136" y="38" width="3" height="1" fill="#231f20"/>
    <rect x="153" y="38" width="1" height="1" fill="#231f20"/>
    <rect x="0" y="39" width="1" height="1" fill="#231f20"/>
    <rect x="15" y="39" width="3" height="1" fill="#231f20"/>
    <rect x="136" y="39" width="3" height="1" fill="#231f20"/>
    <rect x="153" y="39" width="1" height="1" fill="#231f20"/>
    <rect x="0" y="40" width="1" height="1" fill="#231f20"/>
    <rect x="15" y="40" width="3" height="1" fill="#231f20"/>
    <rect x="136" y="40" width="3" height="1" fill="#231f20"/>
    <rect x="153" y="40" width="1" height="1" fill="#231f20"/>
    <rect x="0" y="41" width="1" height="1" fill="#231f20"/>
    <rect x="15" y="41" width="3" height="1" fill="#231f20"/>
    <rect x="136" y="41" width="3" height="1" fill="#231f20"/>
    <rect x="153" y="41" width="1" height="1" fill="#231f20"/>
    <rect x="0" y="42" width="1" height="1" fill="#231f20"/>
    <rect x="15" y="42" width="3" height="1" fill="#231f20"/>
    <rect x="136" y="42" width="3" height="1" fill="#231f20"/>
    <rect x="153" y="42" width="1" height="1" fill="#231f20"/>
    <rect x="0" y="43" width="1" height="1" fill="#231f20"/>
    <rect x="15" y="43" width="3" height="1" fill="#231f20"/>
    <rect x="136" y="43" width="3" height="1" fill="#231f20"/>
    <rect x="153" y="43" width="1" height="1" fill="#231f20"/>
    <rect x="0" y="44" width="1" height="1" fill="#231f20"/>
    <rect x="15" y="44" width="124" height="1" fill="#231f20"/>
    <rect x="153" y="44" width="1" height="1" fill="#231f20"/>
    <rect x="0" y="45" width="1" height="1" fill="#231f20"/>
    <rect x="15" y="45" width="124" height="1" fill="#231f20"/>
    <rect x="153" y="45" width="1" height="1" fill="#231f20"/>
    <rect x="0" y="46" width="1" height="1" fill="#231f20"/>
    <rect x="16" y="46" width="122" height="1" fill="#231f20"/>
    <rect x="153" y="46" width="1" height="1" fill="#231f20"/>
    <rect x="0" y="47" width="1" height="1" fill="#231f20"/>
    <rect x="153" y="47" width="1" height="1" fill="#231f20"/>
    <rect x="0" y="48" width="1" height="1" fill="#231f20"/>
    <rect x="153" y="48" width="1" height="1" fill="#231f20"/>
    <rect x="0" y="49" width="1" height="1" fill="#231f20"/>
    <rect x="153" y="49" width="1" height="1" fill="#231f20"/>
    <rect x="0" y="50" width="1" height="1" fill="#231f20"/>
    <rect x="153" y="50" width="1" height="1" fill="#231f20"/>
    <rect x="0" y="51" width="1" height="1" fill="#231f20"/>
    <rect x="153" y="51" width="1" height="1" fill="#231f20"/>
    <rect x="0" y="52" width="1" height="1" fill="#231f20"/>
    <rect x="153" y="52" width="1" height="1" fill="#231f20"/>
    <rect x="0" y="53" width="1" height="1" fill="#231f20"/>
    <rect x="153" y="53" width="1" height="1" fill="#231f20"/>
    <rect x="0" y="54" width="1" height="1" fill="#231f20"/>
    <rect x="153" y="54" width="1" height="1" fill="#231f20"/>
    <rect x="0" y="55" width="1" height="1" fill="#231f20"/>
    <rect x="153" y="55" width="1" height="1" fill="#231f20"/>
    <rect x="0" y="56" width="1" height="1" fill="#231f20"/>
    <rect x="153" y="56" width="1" height="1" fill="#231f20"/>
    <rect x="0" y="57" width="1" height="1" fill="#231f20"/>
    <rect x="153" y="57" width="1" height="1" fill="#231f20"/>
    <rect x="0" y="58" width="1" height="1" fill="#231f20"/>
    <rect x="153" y="58" width="1" height="1" fill="#231f20"/>
    <rect x="0" y="59" width="1" height="1" fill="#231f20"/>
    <rect x="153" y="59" width="1" height="1" fill="#231f20"/>
    <rect x="0" y="60" width="154" height="1" fill="#231f20"/>
  </g>
</svg>