<?xml version="1.0" encoding="UTF-8"?>
<svg xmlns="http://www.w3.org/2000/svg" viewBox="0 0 150 60" width="150" height="60">
  <!-- Auto-converted from legend-1644.png -->
  <rect x="0" y="0" width="150" height="60" fill="none"/>
  <g fill="#231f20" stroke="none">
    <rect x="0" y="0" width="150" height="1" fill="#231f20"/>
    <rect x="0" y="1" width="1" height="1" fill="#231f20"/>
    <rect x="149" y="1" width="1" height="1" fill="#231f20"/>
    <rect x="0" y="2" width="1" height="1" fill="#231f20"/>
    <rect x="149" y="2" width="1" height="1" fill="#231f20"/>
    <rect x="0" y="3" width="1" height="1" fill="#231f20"/>
    <rect x="149" y="3" width="1" height="1" fill="#231f20"/>
    <rect x="0" y="4" width="1" height="1" fill="#231f20"/>
    <rect x="149" y="4" width="1" height="1" fill="#231f20"/>
    <rect x="0" y="5" width="1" height="1" fill="#231f20"/>
    <rect x="149" y="5" width="1" height="1" fill="#231f20"/>
    <rect x="0" y="6" width="1" height="1" fill="#231f20"/>
    <rect x="149" y="6" width="1" height="1" fill="#231f20"/>
    <rect x="0" y="7" width="1" height="1" fill="#231f20"/>
    <rect x="149" y="7" width="1" height="1" fill="#231f20"/>
    <rect x="0" y="8" width="1" height="1" fill="#231f20"/>
    <rect x="149" y="8" width="1" height="1" fill="#231f20"/>
    <rect x="0" y="9" width="1" height="1" fill="#231f20"/>
    <rect x="149" y="9" width="1" height="1" fill="#231f20"/>
    <rect x="0" y="10" width="1" height="1" fill="#231f20"/>
    <rect x="149" y="10" width="1" height="1" fill="#231f20"/>
    <rect x="0" y="11" width="1" height="1" fill="#231f20"/>
    <rect x="149" y="11" width="1" height="1" fill="#231f20"/>
    <rect x="0" y="12" width="1" height="1" fill="#231f20"/>
    <rect x="149" y="12" width="1" height="1" fill="#231f20"/>
    <rect x="0" y="13" width="1" height="1" fill="#231f20"/>
    <rect x="149" y="13" width="1" height="1" fill="#231f20"/>
    <rect x="0" y="14" width="1" height="1" fill="#231f20"/>
    <rect x="149" y="14" width="1" height="1" fill="#231f20"/>
    <rect x="0" y="15" width="1" height="1" fill="#231f20"/>
    <rect x="149" y="15" width="1" height="1" fill="#231f20"/>
    <rect x="0" y="16" width="1" height="1" fill="#231f20"/>
    <rect x="149" y="16" width="1" height="1" fill="#231f20"/>
    <rect x="0" y="17" width="1" height="1" fill="#231f20"/>
    <rect x="149" y="17" width="1" height="1" fill="#231f20"/>
    <rect x="0" y="18" width="1" height="1" fill="#231f20"/>
    <rect x="149" y="18" width="1" height="1" fill="#231f20"/>
    <rect x="0" y="19" width="1" height="1" fill="#231f20"/>
    <rect x="149" y="19" width="1" height="1" fill="#231f20"/>
    <rect x="0" y="20" width="150" height="1" fill="#231f20"/>
    <rect x="0" y="21" width="1" height="1" fill="#231f20"/>
    <rect x="24" y="21" width="1" height="1" fill="#231f20"/>
    <rect x="34" y="21" width="1" height="1" fill="#231f20"/>
    <rect x="53" y="21" width="1" height="1" fill="#231f20"/>
    <rect x="64" y="21" width="1" height="1" fill="#231f20"/>
    <rect x="83" y="21" width="1" height="1" fill="#231f20"/>
    <rect x="94" y="21" width="1" height="1" fill="#231f20"/>
    <rect x="113" y="21" width="1" height="1" fill="#231f20"/>
    <rect x="123" y="21" width="1" height="1" fill="#231f20"/>
    <rect x="149" y="21" width="1" height="1" fill="#231f20"/>
    <rect x="0" y="22" width="1" height="1" fill="#231f20"/>
    <rect x="24" y="22" width="1" height="1" fill="#231f20"/>
    <rect x="34" y="22" width="1" height="1" fill="#231f20"/>
    <rect x="53" y="22" width="1" height="1" fill="#231f20"/>
    <rect x="64" y="22" width="1" height="1" fill="#231f20"/>
    <rect x="83" y="22" width="1" height="1" fill="#231f20"/>
    <rect x="94" y="22" width="1" height="1" fill="#231f20"/>
    <rect x="113" y="22" width="1" height="1" fill="#231f20"/>
    <rect x="123" y="22" width="1" height="1" fill="#231f20"/>
    <rect x="149" y="22" width="1" height="1" fill="#231f20"/>
    <rect x="0" y="23" width="1" height="1" fill="#231f20"/>
    <rect x="25" y="23" width="1" height="1" fill="#231f20"/>
    <rect x="33" y="23" width="1" height="1" fill="#231f20"/>
    <rect x="54" y="23" width="1" height="1" fill="#231f20"/>
    <rect x="63" y="23" width="1" height="1" fill="#231f20"/>
    <rect x="84" y="23" width="1" height="1" fill="#231f20"/>
    <rect x="93" y="23" width="1" height="1" fill="#231f20"/>
    <rect x="114" y="23" width="1" height="1" fill="#231f20"/>
    <rect x="122" y="23" width="1" height="1" fill="#231f20"/>
    <rect x="149" y="23" width="1" height="1" fill="#231f20"/>
    <rect x="0" y="24" width="1" height="1" fill="#231f20"/>
    <rect x="25" y="24" width="1" height="1" fill="#231f20"/>
    <rect x="33" y="24" width="1" height="1" fill="#231f20"/>
    <rect x="55" y="24" width="1" height="1" fill="#231f20"/>
    <rect x="62" y="24" width="1" height="1" fill="#231f20"/>
    <rect x="85" y="24" width="1" height="1" fill="#231f20"/>
    <rect x="92" y="24" width="1" height="1" fill="#231f20"/>
    <rect x="114" y="24" width="1" height="1" fill="#231f20"/>
    <rect x="122" y="24" width="1" height="1" fill="#231f20"/>
    <rect x="149" y="24" width="1" height="1" fill="#231f20"/>
    <rect x="0" y="25" width="1" height="1" fill="#231f20"/>
    <rect x="26" y="25" width="1" height="1" fill="#231f20"/>
    <rect x="32" y="25" width="1" height="1" fill="#231f20"/>
    <rect x="55" y="25" width="1" height="1" fill="#231f20"/>
    <rect x="62" y="25" width="1" height="1" fill="#231f20"/>
    <rect x="85" y="25" width="1" height="1" fill="#231f20"/>
    <rect x="92" y="25" width="1" height="1" fill="#231f20"/>
    <rect x="115" y="25" width="1" height="1" fill="#231f20"/>
    <rect x="121" y="25" width="1" height="1" fill="#231f20"/>
    <rect x="149" y="25" width="1" height="1" fill="#231f20"/>
    <rect x="0" y="26" width="1" height="1" fill="#231f20"/>
    <rect x="27" y="26" width="1" height="1" fill="#231f20"/>
    <rect x="31" y="26" width="1" height="1" fill="#231f20"/>
    <rect x="56" y="26" width="1" height="1" fill="#231f20"/>
    <rect x="61" y="26" width="1" height="1" fill="#231f20"/>
    <rect x="86" y="26" width="1" height="1" fill="#231f20"/>
    <rect x="91" y="26" width="1" height="1" fill="#231f20"/>
    <rect x="116" y="26" width="1" height="1" fill="#231f20"/>
    <rect x="120" y="26" width="1" height="1" fill="#231f20"/>
    <rect x="149" y="26" width="1" height="1" fill="#231f20"/>
    <rect x="0" y="27" width="1" height="1" fill="#231f20"/>
    <rect x="27" y="27" width="1" height="1" fill="#231f20"/>
    <rect x="31" y="27" width="1" height="1" fill="#231f20"/>
    <rect x="57" y="27" width="1" height="1" fill="#231f20"/>
    <rect x="60" y="27" width="1" height="1" fill="#231f20"/>
    <rect x="87" y="27" width="1" height="1" fill="#231f20"/>
    <rect x="90" y="27" width="1" height="1" fill="#231f20"/>
    <rect x="116" y="27" width="1" height="1" fill="#231f20"/>
    <rect x="120" y="27" width="1" height="1" fill="#231f20"/>
    <rect x="149" y="27" width="1" height="1" fill="#231f20"/>
    <rect x="0" y="28" width="1" height="1" fill="#231f20"/>
    <rect x="28" y="28" width="1" height="1" fill="#231f20"/>
    <rect x="30" y="28" width="1" height="1" fill="#231f20"/>
    <rect x="57" y="28" width="1" height="1" fill="#231f20"/>
    <rect x="60" y="28" width="1" height="1" fill="#231f20"/>
    <rect x="87" y="28" width="1" height="1" fill="#231f20"/>
    <rect x="90" y="28" width="1" height="1" fill="#231f20"/>
    <rect x="117" y="28" width="1" height="1" fill="#231f20"/>
    <rect x="119" y="28" width="1" height="1" fill="#231f20"/>
    <rect x="149" y="28" width="1" height="1" fill="#231f20"/>
    <rect x="0" y="29" width="1" height="1" fill="#231f20"/>
    <rect x="28" y="29" width="1" height="1" fill="#231f20"/>
    <rect x="30" y="29" width="1" height="1" fill="#231f20"/>
    <rect x="58" y="29" width="2" height="1" fill="#231f20"/>
    <rect x="88" y="29" width="2" height="1" fill="#231f20"/>
    <rect x="117" y="29" width="1" height="1" fill="#231f20"/>
    <rect x="119" y="29" width="1" height="1" fill="#231f20"/>
    <rect x="149" y="29" width="1" height="1" fill="#231f20"/>
    <rect x="0" y="30" width="1" height="1" fill="#231f20"/>
    <rect x="29" y="30" width="1" height="1" fill="#231f20"/>
    <rect x="58" y="30" width="1" height="1" fill="#231f20"/>
    <rect x="88" y="30" width="1" height="1" fill="#231f20"/>
    <rect x="118" y="30" width="1" height="1" fill="#231f20"/>
    <rect x="149" y="30" width="1" height="1" fill="#231f20"/>
    <rect x="0" y="31" width="1" height="1" fill="#231f20"/>
    <rect x="28" y="31" width="1" height="1" fill="#231f20"/>
    <rect x="30" y="31" width="1" height="1" fill="#231f20"/>
    <rect x="58" y="31" width="2" height="1" fill="#231f20"/>
    <rect x="88" y="31" width="2" height="1" fill="#231f20"/>
    <rect x="117" y="31" width="1" height="1" fill="#231f20"/>
    <rect x="119" y="31" width="1" height="1" fill="#231f20"/>
    <rect x="149" y="31" width="1" height="1" fill="#231f20"/>
    <rect x="0" y="32" width="1" height="1" fill="#231f20"/>
    <rect x="28" y="32" width="1" height="1" fill="#231f20"/>
    <rect x="30" y="32" width="1" height="1" fill="#231f20"/>
    <rect x="57" y="32" width="1" height="1" fill="#231f20"/>
    <rect x="60" y="32" width="1" height="1" fill="#231f20"/>
    <rect x="87" y="32" width="1" height="1" fill="#231f20"/>
    <rect x="90" y="32" width="1" height="1" fill="#231f20"/>
    <rect x="117" y="32" width="1" height="1" fill="#231f20"/>
    <rect x="119" y="32" width="1" height="1" fill="#231f20"/>
    <rect x="149" y="32" width="1" height="1" fill="#231f20"/>
    <rect x="0" y="33" width="1" height="1" fill="#231f20"/>
    <rect x="27" y="33" width="1" height="1" fill="#231f20"/>
    <rect x="31" y="33" width="1" height="1" fill="#231f20"/>
    <rect x="57" y="33" width="1" height="1" fill="#231f20"/>
    <rect x="60" y="33" width="1" height="1" fill="#231f20"/>
    <rect x="87" y="33" width="1" height="1" fill="#231f20"/>
    <rect x="90" y="33" width="1" height="1" fill="#231f20"/>
    <rect x="116" y="33" width="1" height="1" fill="#231f20"/>
    <rect x="120" y="33" width="1" height="1" fill="#231f20"/>
    <rect x="149" y="33" width="1" height="1" fill="#231f20"/>
    <rect x="0" y="34" width="1" height="1" fill="#231f20"/>
    <rect x="27" y="34" width="1" height="1" fill="#231f20"/>
    <rect x="31" y="34" width="1" height="1" fill="#231f20"/>
    <rect x="56" y="34" width="1" height="1" fill="#231f20"/>
    <rect x="61" y="34" width="1" height="1" fill="#231f20"/>
    <rect x="86" y="34" width="1" height="1" fill="#231f20"/>
    <rect x="91" y="34" width="1" height="1" fill="#231f20"/>
    <rect x="116" y="34" width="1" height="1" fill="#231f20"/>
    <rect x="120" y="34" width="1" height="1" fill="#231f20"/>
    <rect x="149" y="34" width="1" height="1" fill="#231f20"/>
    <rect x="0" y="35" width="1" height="1" fill="#231f20"/>
    <rect x="26" y="35" width="1" height="1" fill="#231f20"/>
    <rect x="32" y="35" width="1" height="1" fill="#231f20"/>
    <rect x="55" y="35" width="1" height="1" fill="#231f20"/>
    <rect x="62" y="35" width="1" height="1" fill="#231f20"/>
    <rect x="85" y="35" width="1" height="1" fill="#231f20"/>
    <rect x="92" y="35" width="1" height="1" fill="#231f20"/>
    <rect x="115" y="35" width="1" height="1" fill="#231f20"/>
    <rect x="121" y="35" width="1" height="1" fill="#231f20"/>
    <rect x="149" y="35" width="1" height="1" fill="#231f20"/>
    <rect x="0" y="36" width="1" height="1" fill="#231f20"/>
    <rect x="25" y="36" width="1" height="1" fill="#231f20"/>
    <rect x="33" y="36" width="1" height="1" fill="#231f20"/>
    <rect x="55" y="36" width="1" height="1" fill="#231f20"/>
    <rect x="62" y="36" width="1" height="1" fill="#231f20"/>
    <rect x="85" y="36" width="1" height="1" fill="#231f20"/>
    <rect x="92" y="36" width="1" height="1" fill="#231f20"/>
    <rect x="114" y="36" width="1" height="1" fill="#231f20"/>
    <rect x="122" y="36" width="1" height="1" fill="#231f20"/>
    <rect x="149" y="36" width="1" height="1" fill="#231f20"/>
    <rect x="0" y="37" width="1" height="1" fill="#231f20"/>
    <rect x="25" y="37" width="1" height="1" fill="#231f20"/>
    <rect x="33" y="37" width="1" height="1" fill="#231f20"/>
    <rect x="54" y="37" width="1" height="1" fill="#231f20"/>
    <rect x="63" y="37" width="1" height="1" fill="#231f20"/>
    <rect x="84" y="37" width="1" height="1" fill="#231f20"/>
    <rect x="93" y="37" width="1" height="1" fill="#231f20"/>
    <rect x="114" y="37" width="1" height="1" fill="#231f20"/>
    <rect x="122" y="37" width="1" height="1" fill="#231f20"/>
    <rect x="149" y="37" width="1" height="1" fill="#231f20"/>
    <rect x="0" y="38" width="1" height="1" fill="#231f20"/>
    <rect x="24" y="38" width="1" height="1" fill="#231f20"/>
    <rect x="34" y="38" width="1" height="1" fill="#231f20"/>
    <rect x="53" y="38" width="1" height="1" fill="#231f20"/>
    <rect x="64" y="38" width="1" height="1" fill="#231f20"/>
    <rect x="83" y="38" width="1" height="1" fill="#231f20"/>
    <rect x="94" y="38" width="1" height="1" fill="#231f20"/>
    <rect x="113" y="38" width="1" height="1" fill="#231f20"/>
    <rect x="123" y="38" width="1" height="1" fill="#231f20"/>
    <rect x="149" y="38" width="1" height="1" fill="#231f20"/>
    <rect x="0" y="39" width="1" height="1" fill="#231f20"/>
    <rect x="24" y="39" width="1" height="1" fill="#231f20"/>
    <rect x="34" y="39" width="1" height="1" fill="#231f20"/>
    <rect x="53" y="39" width="1" height="1" fill="#231f20"/>
    <rect x="64" y="39" width="1" height="1" fill="#231f20"/>
    <rect x="83" y="39" width="1" height="1" fill="#231f20"/>
    <rect x="94" y="39" width="1" height="1" fill="#231f20"/>
    <rect x="113" y="39" width="1" height="1" fill="#231f20"/>
    <rect x="123" y="39" width="1" height="1" fill="#231f20"/>
    <rect x="149" y="39" width="1" height="1" fill="#231f20"/>
    <rect x="0" y="40" width="150" height="1" fill="#231f20"/>
    <rect x="0" y="41" width="1" height="1" fill="#231f20"/>
    <rect x="149" y="41" width="1" height="1" fill="#231f20"/>
    <rect x="0" y="42" width="1" height="1" fill="#231f20"/>
    <rect x="149" y="42" width="1" height="1" fill="#231f20"/>
    <rect x="0" y="43" width="1" height="1" fill="#231f20"/>
    <rect x="149" y="43" width="1" height="1" fill="#231f20"/>
    <rect x="0" y="44" width="1" height="1" fill="#231f20"/>
    <rect x="149" y="44" width="1" height="1" fill="#231f20"/>
    <rect x="0" y="45" width="1" height="1" fill="#231f20"/>
    <rect x="149" y="45" width="1" height="1" fill="#231f20"/>
    <rect x="0" y="46" width="1" height="1" fill="#231f20"/>
    <rect x="149" y="46" width="1" height="1" fill="#231f20"/>
    <rect x="0" y="47" width="1" height="1" fill="#231f20"/>
    <rect x="149" y="47" width="1" height="1" fill="#231f20"/>
    <rect x="0" y="48" width="1" height="1" fill="#231f20"/>
    <rect x="149" y="48" width="1" height="1" fill="#231f20"/>
    <rect x="0" y="49" width="1" height="1" fill="#231f20"/>
    <rect x="149" y="49" width="1" height="1" fill="#231f20"/>
    <rect x="0" y="50" width="1" height="1" fill="#231f20"/>
    <rect x="149" y="50" width="1" height="1" fill="#231f20"/>
    <rect x="0" y="51" width="1" height="1" fill="#231f20"/>
    <rect x="149" y="51" width="1" height="1" fill="#231f20"/>
    <rect x="0" y="52" width="1" height="1" fill="#231f20"/>
    <rect x="149" y="52" width="1" height="1" fill="#231f20"/>
    <rect x="0" y="53" width="1" height="1" fill="#231f20"/>
    <rect x="149" y="53" width="1" height="1" fill="#231f20"/>
    <rect x="0" y="54" width="1" height="1" fill="#231f20"/>
    <rect x="149" y="54" width="1" height="1" fill="#231f20"/>
    <rect x="0" y="55" width="1" height="1" fill="#231f20"/>
    <rect x="149" y="55" width="1" height="1" fill="#231f20"/>
    <rect x="0" y="56" width="1" height="1" fill="#231f20"/>
    <rect x="149" y="56" width="1" height="1" fill="#231f20"/>
    <rect x="0" y="57" width="1" height="1" fill="#231f20"/>
    <rect x="149" y="57" width="1" height="1" fill="#231f20"/>
    <rect x="0" y="58" width="1" height="1" fill="#231f20"/>
    <rect x="149" y="58" width="1" height="1" fill="#231f20"/>
    <rect x="0" y="59" width="150" height="1" fill="#231f20"/>
  </g>
</svg>