<?xml version="1.0" encoding="UTF-8"?>
<svg xmlns="http://www.w3.org/2000/svg" viewBox="0 0 179 75" width="179" height="75">
  <!-- Auto-converted from legend-906.png -->
  <rect x="0" y="0" width="179" height="75" fill="none"/>
  <g fill="#231f20" stroke="none">
    <rect x="2" y="3" width="174" height="1" fill="#231f20"/>
    <rect x="2" y="4" width="1" height="1" fill="#231f20"/>
    <rect x="175" y="4" width="1" height="1" fill="#231f20"/>
    <rect x="2" y="5" width="1" height="1" fill="#231f20"/>
    <rect x="175" y="5" width="1" height="1" fill="#231f20"/>
    <rect x="2" y="6" width="1" height="1" fill="#231f20"/>
    <rect x="175" y="6" width="1" height="1" fill="#231f20"/>
    <rect x="2" y="7" width="1" height="1" fill="#231f20"/>
    <rect x="175" y="7" width="1" height="1" fill="#231f20"/>
    <rect x="2" y="8" width="1" height="1" fill="#231f20"/>
    <rect x="175" y="8" width="1" height="1" fill="#231f20"/>
    <rect x="2" y="9" width="1" height="1" fill="#231f20"/>
    <rect x="175" y="9" width="1" height="1" fill="#231f20"/>
    <rect x="2" y="10" width="1" height="1" fill="#231f20"/>
    <rect x="11" y="10" width="156" height="1" fill="#231f20"/>
    <rect x="175" y="10" width="1" height="1" fill="#231f20"/>
    <rect x="2" y="11" width="1" height="1" fill="#231f20"/>
    <rect x="10" y="11" width="158" height="1" fill="#231f20"/>
    <rect x="175" y="11" width="1" height="1" fill="#231f20"/>
    <rect x="2" y="12" width="1" height="1" fill="#231f20"/>
    <rect x="11" y="12" width="156" height="1" fill="#231f20"/>
    <rect x="175" y="12" width="1" height="1" fill="#231f20"/>
    <rect x="2" y="13" width="1" height="1" fill="#231f20"/>
    <rect x="62" y="13" width="3" height="1" fill="#231f20"/>
    <rect x="71" y="13" width="3" height="1" fill="#231f20"/>
    <rect x="76" y="13" width="2" height="1" fill="#231f20"/>
    <rect x="93" y="13" width="2" height="1" fill="#231f20"/>
    <rect x="115" y="13" width="3" height="1" fill="#231f20"/>
    <rect x="120" y="13" width="4" height="1" fill="#231f20"/>
    <rect x="175" y="13" width="1" height="1" fill="#231f20"/>
    <rect x="2" y="14" width="1" height="1" fill="#231f20"/>
    <rect x="62" y="14" width="3" height="1" fill="#231f20"/>
    <rect x="71" y="14" width="3" height="1" fill="#231f20"/>
    <rect x="76" y="14" width="2" height="1" fill="#231f20"/>
    <rect x="92" y="14" width="3" height="1" fill="#231f20"/>
    <rect x="115" y="14" width="3" height="1" fill="#231f20"/>
    <rect x="120" y="14" width="4" height="1" fill="#231f20"/>
    <rect x="175" y="14" width="1" height="1" fill="#231f20"/>
    <rect x="2" y="15" width="1" height="1" fill="#231f20"/>
    <rect x="61" y="15" width="3" height="1" fill="#231f20"/>
    <rect x="65" y="15" width="2" height="1" fill="#231f20"/>
    <rect x="78" y="15" width="2" height="1" fill="#231f20"/>
    <rect x="86" y="15" width="2" height="1" fill="#231f20"/>
    <rect x="92" y="15" width="3" height="1" fill="#231f20"/>
    <rect x="99" y="15" width="2" height="1" fill="#231f20"/>
    <rect x="120" y="15" width="3" height="1" fill="#231f20"/>
    <rect x="175" y="15" width="1" height="1" fill="#231f20"/>
    <rect x="2" y="16" width="1" height="1" fill="#231f20"/>
    <rect x="61" y="16" width="3" height="1" fill="#231f20"/>
    <rect x="65" y="16" width="2" height="1" fill="#231f20"/>
    <rect x="69" y="16" width="2" height="1" fill="#231f20"/>
    <rect x="78" y="16" width="2" height="1" fill="#231f20"/>
    <rect x="86" y="16" width="2" height="1" fill="#231f20"/>
    <rect x="99" y="16" width="2" height="1" fill="#231f20"/>
    <rect x="108" y="16" width="2" height="1" fill="#231f20"/>
    <rect x="113" y="16" width="3" height="1" fill="#231f20"/>
    <rect x="119" y="16" width="4" height="1" fill="#231f20"/>
    <rect x="175" y="16" width="1" height="1" fill="#231f20"/>
    <rect x="2" y="17" width="1" height="1" fill="#231f20"/>
    <rect x="61" y="17" width="3" height="1" fill="#231f20"/>
    <rect x="65" y="17" width="2" height="1" fill="#231f20"/>
    <rect x="69" y="17" width="3" height="1" fill="#231f20"/>
    <rect x="78" y="17" width="2" height="1" fill="#231f20"/>
    <rect x="108" y="17" width="2" height="1" fill="#231f20"/>
    <rect x="113" y="17" width="3" height="1" fill="#231f20"/>
    <rect x="119" y="17" width="4" height="1" fill="#231f20"/>
    <rect x="175" y="17" width="1" height="1" fill="#231f20"/>
    <rect x="2" y="18" width="1" height="1" fill="#231f20"/>
    <rect x="60" y="18" width="4" height="1" fill="#231f20"/>
    <rect x="69" y="18" width="3" height="1" fill="#231f20"/>
    <rect x="101" y="18" width="2" height="1" fill="#231f20"/>
    <rect x="119" y="18" width="3" height="1" fill="#231f20"/>
    <rect x="175" y="18" width="1" height="1" fill="#231f20"/>
    <rect x="2" y="19" width="1" height="1" fill="#231f20"/>
    <rect x="59" y="19" width="5" height="1" fill="#231f20"/>
    <rect x="88" y="19" width="2" height="1" fill="#231f20"/>
    <rect x="96" y="19" width="2" height="1" fill="#231f20"/>
    <rect x="101" y="19" width="2" height="1" fill="#231f20"/>
    <rect x="118" y="19" width="3" height="1" fill="#231f20"/>
    <rect x="175" y="19" width="1" height="1" fill="#231f20"/>
    <rect x="2" y="20" width="1" height="1" fill="#231f20"/>
    <rect x="59" y="20" width="4" height="1" fill="#231f20"/>
    <rect x="76" y="20" width="3" height="1" fill="#231f20"/>
    <rect x="84" y="20" width="3" height="1" fill="#231f20"/>
    <rect x="88" y="20" width="2" height="1" fill="#231f20"/>
    <rect x="96" y="20" width="2" height="1" fill="#231f20"/>
    <rect x="101" y="20" width="2" height="1" fill="#231f20"/>
    <rect x="117" y="20" width="4" height="1" fill="#231f20"/>
    <rect x="175" y="20" width="1" height="1" fill="#231f20"/>
    <rect x="2" y="21" width="1" height="1" fill="#231f20"/>
    <rect x="58" y="21" width="4" height="1" fill="#231f20"/>
    <rect x="63" y="21" width="3" height="1" fill="#231f20"/>
    <rect x="76" y="21" width="3" height="1" fill="#231f20"/>
    <rect x="84" y="21" width="3" height="1" fill="#231f20"/>
    <rect x="88" y="21" width="2" height="1" fill="#231f20"/>
    <rect x="96" y="21" width="2" height="1" fill="#231f20"/>
    <rect x="106" y="21" width="2" height="1" fill="#231f20"/>
    <rect x="117" y="21" width="4" height="1" fill="#231f20"/>
    <rect x="175" y="21" width="1" height="1" fill="#231f20"/>
    <rect x="2" y="22" width="1" height="1" fill="#231f20"/>
    <rect x="57" y="22" width="5" height="1" fill="#231f20"/>
    <rect x="63" y="22" width="3" height="1" fill="#231f20"/>
    <rect x="67" y="22" width="3" height="1" fill="#231f20"/>
    <rect x="73" y="22" width="2" height="1" fill="#231f20"/>
    <rect x="80" y="22" width="2" height="1" fill="#231f20"/>
    <rect x="85" y="22" width="1" height="1" fill="#231f20"/>
    <rect x="98" y="22" width="1" height="1" fill="#231f20"/>
    <rect x="106" y="22" width="2" height="1" fill="#231f20"/>
    <rect x="112" y="22" width="2" height="1" fill="#231f20"/>
    <rect x="117" y="22" width="3" height="1" fill="#231f20"/>
    <rect x="175" y="22" width="1" height="1" fill="#231f20"/>
    <rect x="2" y="23" width="1" height="1" fill="#231f20"/>
    <rect x="56" y="23" width="5" height="1" fill="#231f20"/>
    <rect x="64" y="23" width="1" height="1" fill="#231f20"/>
    <rect x="67" y="23" width="3" height="1" fill="#231f20"/>
    <rect x="73" y="23" width="2" height="1" fill="#231f20"/>
    <rect x="80" y="23" width="2" height="1" fill="#231f20"/>
    <rect x="90" y="23" width="3" height="1" fill="#231f20"/>
    <rect x="97" y="23" width="3" height="1" fill="#231f20"/>
    <rect x="112" y="23" width="2" height="1" fill="#231f20"/>
    <rect x="117" y="23" width="3" height="1" fill="#231f20"/>
    <rect x="175" y="23" width="1" height="1" fill="#231f20"/>
    <rect x="2" y="24" width="1" height="1" fill="#231f20"/>
    <rect x="55" y="24" width="5" height="1" fill="#231f20"/>
    <rect x="80" y="24" width="2" height="1" fill="#231f20"/>
    <rect x="90" y="24" width="3" height="1" fill="#231f20"/>
    <rect x="97" y="24" width="3" height="1" fill="#231f20"/>
    <rect x="112" y="24" width="2" height="1" fill="#231f20"/>
    <rect x="117" y="24" width="3" height="1" fill="#231f20"/>
    <rect x="175" y="24" width="1" height="1" fill="#231f20"/>
    <rect x="2" y="25" width="1" height="1" fill="#231f20"/>
    <rect x="55" y="25" width="7" height="1" fill="#231f20"/>
    <rect x="84" y="25" width="2" height="1" fill="#231f20"/>
    <rect x="104" y="25" width="3" height="1" fill="#231f20"/>
    <rect x="117" y="25" width="3" height="1" fill="#231f20"/>
    <rect x="175" y="25" width="1" height="1" fill="#231f20"/>
    <rect x="2" y="26" width="1" height="1" fill="#231f20"/>
    <rect x="55" y="26" width="7" height="1" fill="#231f20"/>
    <rect x="65" y="26" width="2" height="1" fill="#231f20"/>
    <rect x="84" y="26" width="2" height="1" fill="#231f20"/>
    <rect x="94" y="26" width="3" height="1" fill="#231f20"/>
    <rect x="100" y="26" width="2" height="1" fill="#231f20"/>
    <rect x="104" y="26" width="3" height="1" fill="#231f20"/>
    <rect x="109" y="26" width="2" height="1" fill="#231f20"/>
    <rect x="117" y="26" width="3" height="1" fill="#231f20"/>
    <rect x="175" y="26" width="1" height="1" fill="#231f20"/>
    <rect x="2" y="27" width="1" height="1" fill="#231f20"/>
    <rect x="55" y="27" width="3" height="1" fill="#231f20"/>
    <rect x="65" y="27" width="2" height="1" fill="#231f20"/>
    <rect x="84" y="27" width="2" height="1" fill="#231f20"/>
    <rect x="94" y="27" width="3" height="1" fill="#231f20"/>
    <rect x="100" y="27" width="2" height="1" fill="#231f20"/>
    <rect x="105" y="27" width="1" height="1" fill="#231f20"/>
    <rect x="108" y="27" width="3" height="1" fill="#231f20"/>
    <rect x="115" y="27" width="1" height="1" fill="#231f20"/>
    <rect x="117" y="27" width="3" height="1" fill="#231f20"/>
    <rect x="175" y="27" width="1" height="1" fill="#231f20"/>
    <rect x="2" y="28" width="1" height="1" fill="#231f20"/>
    <rect x="55" y="28" width="3" height="1" fill="#231f20"/>
    <rect x="95" y="28" width="1" height="1" fill="#231f20"/>
    <rect x="100" y="28" width="2" height="1" fill="#231f20"/>
    <rect x="109" y="28" width="2" height="1" fill="#231f20"/>
    <rect x="114" y="28" width="6" height="1" fill="#231f20"/>
    <rect x="175" y="28" width="1" height="1" fill="#231f20"/>
    <rect x="2" y="29" width="1" height="1" fill="#231f20"/>
    <rect x="55" y="29" width="3" height="1" fill="#231f20"/>
    <rect x="61" y="29" width="2" height="1" fill="#231f20"/>
    <rect x="68" y="29" width="2" height="1" fill="#231f20"/>
    <rect x="78" y="29" width="3" height="1" fill="#231f20"/>
    <rect x="85" y="29" width="3" height="1" fill="#231f20"/>
    <rect x="92" y="29" width="2" height="1" fill="#231f20"/>
    <rect x="114" y="29" width="6" height="1" fill="#231f20"/>
    <rect x="175" y="29" width="1" height="1" fill="#231f20"/>
    <rect x="2" y="30" width="1" height="1" fill="#231f20"/>
    <rect x="55" y="30" width="3" height="1" fill="#231f20"/>
    <rect x="60" y="30" width="3" height="1" fill="#231f20"/>
    <rect x="68" y="30" width="2" height="1" fill="#231f20"/>
    <rect x="74" y="30" width="2" height="1" fill="#231f20"/>
    <rect x="78" y="30" width="3" height="1" fill="#231f20"/>
    <rect x="85" y="30" width="3" height="1" fill="#231f20"/>
    <rect x="92" y="30" width="2" height="1" fill="#231f20"/>
    <rect x="109" y="30" width="2" height="1" fill="#231f20"/>
    <rect x="117" y="30" width="3" height="1" fill="#231f20"/>
    <rect x="175" y="30" width="1" height="1" fill="#231f20"/>
    <rect x="2" y="31" width="1" height="1" fill="#231f20"/>
    <rect x="55" y="31" width="3" height="1" fill="#231f20"/>
    <rect x="60" y="31" width="3" height="1" fill="#231f20"/>
    <rect x="68" y="31" width="2" height="1" fill="#231f20"/>
    <rect x="74" y="31" width="2" height="1" fill="#231f20"/>
    <rect x="79" y="31" width="1" height="1" fill="#231f20"/>
    <rect x="86" y="31" width="1" height="1" fill="#231f20"/>
    <rect x="92" y="31" width="2" height="1" fill="#231f20"/>
    <rect x="109" y="31" width="2" height="1" fill="#231f20"/>
    <rect x="118" y="31" width="3" height="1" fill="#231f20"/>
    <rect x="175" y="31" width="1" height="1" fill="#231f20"/>
    <rect x="2" y="32" width="1" height="1" fill="#231f20"/>
    <rect x="55" y="32" width="4" height="1" fill="#231f20"/>
    <rect x="74" y="32" width="2" height="1" fill="#231f20"/>
    <rect x="88" y="32" width="2" height="1" fill="#231f20"/>
    <rect x="100" y="32" width="3" height="1" fill="#231f20"/>
    <rect x="109" y="32" width="2" height="1" fill="#231f20"/>
    <rect x="118" y="32" width="3" height="1" fill="#231f20"/>
    <rect x="175" y="32" width="1" height="1" fill="#231f20"/>
    <rect x="2" y="33" width="1" height="1" fill="#231f20"/>
    <rect x="55" y="33" width="4" height="1" fill="#231f20"/>
    <rect x="65" y="33" width="2" height="1" fill="#231f20"/>
    <rect x="71" y="33" width="1" height="1" fill="#231f20"/>
    <rect x="88" y="33" width="2" height="1" fill="#231f20"/>
    <rect x="100" y="33" width="3" height="1" fill="#231f20"/>
    <rect x="115" y="33" width="6" height="1" fill="#231f20"/>
    <rect x="175" y="33" width="1" height="1" fill="#231f20"/>
    <rect x="2" y="34" width="1" height="1" fill="#231f20"/>
    <rect x="56" y="34" width="3" height="1" fill="#231f20"/>
    <rect x="65" y="34" width="3" height="1" fill="#231f20"/>
    <rect x="70" y="34" width="3" height="1" fill="#231f20"/>
    <rect x="77" y="34" width="1" height="1" fill="#231f20"/>
    <rect x="88" y="34" width="2" height="1" fill="#231f20"/>
    <rect x="115" y="34" width="6" height="1" fill="#231f20"/>
    <rect x="175" y="34" width="1" height="1" fill="#231f20"/>
    <rect x="2" y="35" width="1" height="1" fill="#231f20"/>
    <rect x="56" y="35" width="7" height="1" fill="#231f20"/>
    <rect x="70" y="35" width="3" height="1" fill="#231f20"/>
    <rect x="76" y="35" width="3" height="1" fill="#231f20"/>
    <rect x="83" y="35" width="3" height="1" fill="#231f20"/>
    <rect x="96" y="35" width="1" height="1" fill="#231f20"/>
    <rect x="101" y="35" width="2" height="1" fill="#231f20"/>
    <rect x="110" y="35" width="3" height="1" fill="#231f20"/>
    <rect x="118" y="35" width="3" height="1" fill="#231f20"/>
    <rect x="175" y="35" width="1" height="1" fill="#231f20"/>
    <rect x="2" y="36" width="1" height="1" fill="#231f20"/>
    <rect x="56" y="36" width="7" height="1" fill="#231f20"/>
    <rect x="76" y="36" width="3" height="1" fill="#231f20"/>
    <rect x="83" y="36" width="3" height="1" fill="#231f20"/>
    <rect x="95" y="36" width="3" height="1" fill="#231f20"/>
    <rect x="101" y="36" width="2" height="1" fill="#231f20"/>
    <rect x="110" y="36" width="3" height="1" fill="#231f20"/>
    <rect x="118" y="36" width="3" height="1" fill="#231f20"/>
    <rect x="175" y="36" width="1" height="1" fill="#231f20"/>
    <rect x="2" y="37" width="1" height="1" fill="#231f20"/>
    <rect x="57" y="37" width="6" height="1" fill="#231f20"/>
    <rect x="67" y="37" width="1" height="1" fill="#231f20"/>
    <rect x="83" y="37" width="3" height="1" fill="#231f20"/>
    <rect x="95" y="37" width="3" height="1" fill="#231f20"/>
    <rect x="101" y="37" width="2" height="1" fill="#231f20"/>
    <rect x="106" y="37" width="2" height="1" fill="#231f20"/>
    <rect x="111" y="37" width="1" height="1" fill="#231f20"/>
    <rect x="118" y="37" width="3" height="1" fill="#231f20"/>
    <rect x="175" y="37" width="1" height="1" fill="#231f20"/>
    <rect x="2" y="38" width="1" height="1" fill="#231f20"/>
    <rect x="58" y="38" width="3" height="1" fill="#231f20"/>
    <rect x="66" y="38" width="3" height="1" fill="#231f20"/>
    <rect x="74" y="38" width="3" height="1" fill="#231f20"/>
    <rect x="81" y="38" width="2" height="1" fill="#231f20"/>
    <rect x="91" y="38" width="3" height="1" fill="#231f20"/>
    <rect x="106" y="38" width="2" height="1" fill="#231f20"/>
    <rect x="117" y="38" width="5" height="1" fill="#231f20"/>
    <rect x="175" y="38" width="1" height="1" fill="#231f20"/>
    <rect x="2" y="39" width="1" height="1" fill="#231f20"/>
    <rect x="58" y="39" width="3" height="1" fill="#231f20"/>
    <rect x="66" y="39" width="3" height="1" fill="#231f20"/>
    <rect x="70" y="39" width="2" height="1" fill="#231f20"/>
    <rect x="74" y="39" width="3" height="1" fill="#231f20"/>
    <rect x="81" y="39" width="2" height="1" fill="#231f20"/>
    <rect x="91" y="39" width="3" height="1" fill="#231f20"/>
    <rect x="117" y="39" width="5" height="1" fill="#231f20"/>
    <rect x="175" y="39" width="1" height="1" fill="#231f20"/>
    <rect x="2" y="40" width="1" height="1" fill="#231f20"/>
    <rect x="58" y="40" width="4" height="1" fill="#231f20"/>
    <rect x="70" y="40" width="2" height="1" fill="#231f20"/>
    <rect x="74" y="40" width="3" height="1" fill="#231f20"/>
    <rect x="81" y="40" width="2" height="1" fill="#231f20"/>
    <rect x="87" y="40" width="3" height="1" fill="#231f20"/>
    <rect x="93" y="40" width="3" height="1" fill="#231f20"/>
    <rect x="114" y="40" width="2" height="1" fill="#231f20"/>
    <rect x="117" y="40" width="5" height="1" fill="#231f20"/>
    <rect x="175" y="40" width="1" height="1" fill="#231f20"/>
    <rect x="2" y="41" width="1" height="1" fill="#231f20"/>
    <rect x="58" y="41" width="4" height="1" fill="#231f20"/>
    <rect x="70" y="41" width="2" height="1" fill="#231f20"/>
    <rect x="87" y="41" width="3" height="1" fill="#231f20"/>
    <rect x="93" y="41" width="3" height="1" fill="#231f20"/>
    <rect x="102" y="41" width="3" height="1" fill="#231f20"/>
    <rect x="113" y="41" width="3" height="1" fill="#231f20"/>
    <rect x="119" y="41" width="3" height="1" fill="#231f20"/>
    <rect x="175" y="41" width="1" height="1" fill="#231f20"/>
    <rect x="2" y="42" width="1" height="1" fill="#231f20"/>
    <rect x="59" y="42" width="3" height="1" fill="#231f20"/>
    <rect x="63" y="42" width="2" height="1" fill="#231f20"/>
    <rect x="78" y="42" width="2" height="1" fill="#231f20"/>
    <rect x="87" y="42" width="2" height="1" fill="#231f20"/>
    <rect x="94" y="42" width="2" height="1" fill="#231f20"/>
    <rect x="102" y="42" width="3" height="1" fill="#231f20"/>
    <rect x="114" y="42" width="2" height="1" fill="#231f20"/>
    <rect x="120" y="42" width="3" height="1" fill="#231f20"/>
    <rect x="175" y="42" width="1" height="1" fill="#231f20"/>
    <rect x="2" y="43" width="1" height="1" fill="#231f20"/>
    <rect x="59" y="43" width="3" height="1" fill="#231f20"/>
    <rect x="63" y="43" width="3" height="1" fill="#231f20"/>
    <rect x="71" y="43" width="2" height="1" fill="#231f20"/>
    <rect x="78" y="43" width="2" height="1" fill="#231f20"/>
    <rect x="85" y="43" width="2" height="1" fill="#231f20"/>
    <rect x="103" y="43" width="1" height="1" fill="#231f20"/>
    <rect x="120" y="43" width="3" height="1" fill="#231f20"/>
    <rect x="175" y="43" width="1" height="1" fill="#231f20"/>
    <rect x="2" y="44" width="1" height="1" fill="#231f20"/>
    <rect x="59" y="44" width="3" height="1" fill="#231f20"/>
    <rect x="63" y="44" width="2" height="1" fill="#231f20"/>
    <rect x="71" y="44" width="2" height="1" fill="#231f20"/>
    <rect x="78" y="44" width="2" height="1" fill="#231f20"/>
    <rect x="85" y="44" width="2" height="1" fill="#231f20"/>
    <rect x="98" y="44" width="2" height="1" fill="#231f20"/>
    <rect x="120" y="44" width="3" height="1" fill="#231f20"/>
    <rect x="175" y="44" width="1" height="1" fill="#231f20"/>
    <rect x="2" y="45" width="1" height="1" fill="#231f20"/>
    <rect x="59" y="45" width="3" height="1" fill="#231f20"/>
    <rect x="71" y="45" width="2" height="1" fill="#231f20"/>
    <rect x="85" y="45" width="2" height="1" fill="#231f20"/>
    <rect x="98" y="45" width="2" height="1" fill="#231f20"/>
    <rect x="106" y="45" width="3" height="1" fill="#231f20"/>
    <rect x="120" y="45" width="3" height="1" fill="#231f20"/>
    <rect x="175" y="45" width="1" height="1" fill="#231f20"/>
    <rect x="2" y="46" width="1" height="1" fill="#231f20"/>
    <rect x="59" y="46" width="3" height="1" fill="#231f20"/>
    <rect x="98" y="46" width="2" height="1" fill="#231f20"/>
    <rect x="106" y="46" width="3" height="1" fill="#231f20"/>
    <rect x="117" y="46" width="2" height="1" fill="#231f20"/>
    <rect x="120" y="46" width="3" height="1" fill="#231f20"/>
    <rect x="175" y="46" width="1" height="1" fill="#231f20"/>
    <rect x="2" y="47" width="1" height="1" fill="#231f20"/>
    <rect x="59" y="47" width="3" height="1" fill="#231f20"/>
    <rect x="67" y="47" width="3" height="1" fill="#231f20"/>
    <rect x="93" y="47" width="2" height="1" fill="#231f20"/>
    <rect x="112" y="47" width="3" height="1" fill="#231f20"/>
    <rect x="116" y="47" width="3" height="1" fill="#231f20"/>
    <rect x="120" y="47" width="3" height="1" fill="#231f20"/>
    <rect x="175" y="47" width="1" height="1" fill="#231f20"/>
    <rect x="2" y="48" width="1" height="1" fill="#231f20"/>
    <rect x="58" y="48" width="3" height="1" fill="#231f20"/>
    <rect x="67" y="48" width="3" height="1" fill="#231f20"/>
    <rect x="73" y="48" width="3" height="1" fill="#231f20"/>
    <rect x="85" y="48" width="3" height="1" fill="#231f20"/>
    <rect x="93" y="48" width="2" height="1" fill="#231f20"/>
    <rect x="103" y="48" width="3" height="1" fill="#231f20"/>
    <rect x="108" y="48" width="2" height="1" fill="#231f20"/>
    <rect x="112" y="48" width="3" height="1" fill="#231f20"/>
    <rect x="117" y="48" width="2" height="1" fill="#231f20"/>
    <rect x="120" y="48" width="3" height="1" fill="#231f20"/>
    <rect x="175" y="48" width="1" height="1" fill="#231f20"/>
    <rect x="2" y="49" width="1" height="1" fill="#231f20"/>
    <rect x="58" y="49" width="3" height="1" fill="#231f20"/>
    <rect x="68" y="49" width="1" height="1" fill="#231f20"/>
    <rect x="73" y="49" width="3" height="1" fill="#231f20"/>
    <rect x="78" y="49" width="3" height="1" fill="#231f20"/>
    <rect x="85" y="49" width="3" height="1" fill="#231f20"/>
    <rect x="103" y="49" width="3" height="1" fill="#231f20"/>
    <rect x="108" y="49" width="2" height="1" fill="#231f20"/>
    <rect x="113" y="49" width="1" height="1" fill="#231f20"/>
    <rect x="120" y="49" width="3" height="1" fill="#231f20"/>
    <rect x="175" y="49" width="1" height="1" fill="#231f20"/>
    <rect x="2" y="50" width="1" height="1" fill="#231f20"/>
    <rect x="58" y="50" width="3" height="1" fill="#231f20"/>
    <rect x="74" y="50" width="1" height="1" fill="#231f20"/>
    <rect x="78" y="50" width="3" height="1" fill="#231f20"/>
    <rect x="104" y="50" width="1" height="1" fill="#231f20"/>
    <rect x="108" y="50" width="2" height="1" fill="#231f20"/>
    <rect x="119" y="50" width="4" height="1" fill="#231f20"/>
    <rect x="175" y="50" width="1" height="1" fill="#231f20"/>
    <rect x="2" y="51" width="1" height="1" fill="#231f20"/>
    <rect x="57" y="51" width="3" height="1" fill="#231f20"/>
    <rect x="76" y="51" width="1" height="1" fill="#231f20"/>
    <rect x="78" y="51" width="2" height="1" fill="#231f20"/>
    <rect x="87" y="51" width="2" height="1" fill="#231f20"/>
    <rect x="93" y="51" width="2" height="1" fill="#231f20"/>
    <rect x="100" y="51" width="3" height="1" fill="#231f20"/>
    <rect x="114" y="51" width="3" height="1" fill="#231f20"/>
    <rect x="119" y="51" width="4" height="1" fill="#231f20"/>
    <rect x="175" y="51" width="1" height="1" fill="#231f20"/>
    <rect x="2" y="52" width="1" height="1" fill="#231f20"/>
    <rect x="57" y="52" width="3" height="1" fill="#231f20"/>
    <rect x="61" y="52" width="2" height="1" fill="#231f20"/>
    <rect x="75" y="52" width="3" height="1" fill="#231f20"/>
    <rect x="87" y="52" width="2" height="1" fill="#231f20"/>
    <rect x="93" y="52" width="2" height="1" fill="#231f20"/>
    <rect x="100" y="52" width="3" height="1" fill="#231f20"/>
    <rect x="114" y="52" width="3" height="1" fill="#231f20"/>
    <rect x="120" y="52" width="3" height="1" fill="#231f20"/>
    <rect x="175" y="52" width="1" height="1" fill="#231f20"/>
    <rect x="2" y="53" width="1" height="1" fill="#231f20"/>
    <rect x="57" y="53" width="3" height="1" fill="#231f20"/>
    <rect x="61" y="53" width="4" height="1" fill="#231f20"/>
    <rect x="73" y="53" width="1" height="1" fill="#231f20"/>
    <rect x="75" y="53" width="3" height="1" fill="#231f20"/>
    <rect x="87" y="53" width="2" height="1" fill="#231f20"/>
    <rect x="93" y="53" width="2" height="1" fill="#231f20"/>
    <rect x="101" y="53" width="1" height="1" fill="#231f20"/>
    <rect x="107" y="53" width="1" height="1" fill="#231f20"/>
    <rect x="115" y="53" width="2" height="1" fill="#231f20"/>
    <rect x="120" y="53" width="3" height="1" fill="#231f20"/>
    <rect x="175" y="53" width="1" height="1" fill="#231f20"/>
    <rect x="2" y="54" width="1" height="1" fill="#231f20"/>
    <rect x="57" y="54" width="3" height="1" fill="#231f20"/>
    <rect x="63" y="54" width="3" height="1" fill="#231f20"/>
    <rect x="72" y="54" width="3" height="1" fill="#231f20"/>
    <rect x="80" y="54" width="2" height="1" fill="#231f20"/>
    <rect x="99" y="54" width="2" height="1" fill="#231f20"/>
    <rect x="106" y="54" width="3" height="1" fill="#231f20"/>
    <rect x="112" y="54" width="2" height="1" fill="#231f20"/>
    <rect x="120" y="54" width="3" height="1" fill="#231f20"/>
    <rect x="175" y="54" width="1" height="1" fill="#231f20"/>
    <rect x="2" y="55" width="1" height="1" fill="#231f20"/>
    <rect x="57" y="55" width="3" height="1" fill="#231f20"/>
    <rect x="63" y="55" width="2" height="1" fill="#231f20"/>
    <rect x="72" y="55" width="3" height="1" fill="#231f20"/>
    <rect x="80" y="55" width="2" height="1" fill="#231f20"/>
    <rect x="84" y="55" width="2" height="1" fill="#231f20"/>
    <rect x="99" y="55" width="2" height="1" fill="#231f20"/>
    <rect x="106" y="55" width="3" height="1" fill="#231f20"/>
    <rect x="111" y="55" width="3" height="1" fill="#231f20"/>
    <rect x="119" y="55" width="3" height="1" fill="#231f20"/>
    <rect x="175" y="55" width="1" height="1" fill="#231f20"/>
    <rect x="2" y="56" width="1" height="1" fill="#231f20"/>
    <rect x="57" y="56" width="3" height="1" fill="#231f20"/>
    <rect x="84" y="56" width="2" height="1" fill="#231f20"/>
    <rect x="88" y="56" width="1" height="1" fill="#231f20"/>
    <rect x="99" y="56" width="2" height="1" fill="#231f20"/>
    <rect x="112" y="56" width="2" height="1" fill="#231f20"/>
    <rect x="119" y="56" width="3" height="1" fill="#231f20"/>
    <rect x="175" y="56" width="1" height="1" fill="#231f20"/>
    <rect x="2" y="57" width="1" height="1" fill="#231f20"/>
    <rect x="57" y="57" width="3" height="1" fill="#231f20"/>
    <rect x="68" y="57" width="3" height="1" fill="#231f20"/>
    <rect x="84" y="57" width="2" height="1" fill="#231f20"/>
    <rect x="87" y="57" width="3" height="1" fill="#231f20"/>
    <rect x="93" y="57" width="3" height="1" fill="#231f20"/>
    <rect x="117" y="57" width="5" height="1" fill="#231f20"/>
    <rect x="175" y="57" width="1" height="1" fill="#231f20"/>
    <rect x="2" y="58" width="1" height="1" fill="#231f20"/>
    <rect x="57" y="58" width="5" height="1" fill="#231f20"/>
    <rect x="68" y="58" width="3" height="1" fill="#231f20"/>
    <rect x="75" y="58" width="3" height="1" fill="#231f20"/>
    <rect x="87" y="58" width="3" height="1" fill="#231f20"/>
    <rect x="93" y="58" width="3" height="1" fill="#231f20"/>
    <rect x="105" y="58" width="2" height="1" fill="#231f20"/>
    <rect x="117" y="58" width="5" height="1" fill="#231f20"/>
    <rect x="175" y="58" width="1" height="1" fill="#231f20"/>
    <rect x="2" y="59" width="1" height="1" fill="#231f20"/>
    <rect x="57" y="59" width="6" height="1" fill="#231f20"/>
    <rect x="69" y="59" width="2" height="1" fill="#231f20"/>
    <rect x="75" y="59" width="5" height="1" fill="#231f20"/>
    <rect x="90" y="59" width="2" height="1" fill="#231f20"/>
    <rect x="94" y="59" width="1" height="1" fill="#231f20"/>
    <rect x="105" y="59" width="2" height="1" fill="#231f20"/>
    <rect x="108" y="59" width="2" height="1" fill="#231f20"/>
    <rect x="114" y="59" width="3" height="1" fill="#231f20"/>
    <rect x="118" y="59" width="3" height="1" fill="#231f20"/>
    <rect x="175" y="59" width="1" height="1" fill="#231f20"/>
    <rect x="2" y="60" width="1" height="1" fill="#231f20"/>
    <rect x="57" y="60" width="5" height="1" fill="#231f20"/>
    <rect x="70" y="60" width="3" height="1" fill="#231f20"/>
    <rect x="75" y="60" width="2" height="1" fill="#231f20"/>
    <rect x="78" y="60" width="2" height="1" fill="#231f20"/>
    <rect x="85" y="60" width="2" height="1" fill="#231f20"/>
    <rect x="90" y="60" width="2" height="1" fill="#231f20"/>
    <rect x="95" y="60" width="3" height="1" fill="#231f20"/>
    <rect x="101" y="60" width="3" height="1" fill="#231f20"/>
    <rect x="105" y="60" width="2" height="1" fill="#231f20"/>
    <rect x="108" y="60" width="2" height="1" fill="#231f20"/>
    <rect x="115" y="60" width="2" height="1" fill="#231f20"/>
    <rect x="118" y="60" width="3" height="1" fill="#231f20"/>
    <rect x="175" y="60" width="1" height="1" fill="#231f20"/>
    <rect x="2" y="61" width="1" height="1" fill="#231f20"/>
    <rect x="56" y="61" width="3" height="1" fill="#231f20"/>
    <rect x="70" y="61" width="3" height="1" fill="#231f20"/>
    <rect x="78" y="61" width="2" height="1" fill="#231f20"/>
    <rect x="85" y="61" width="2" height="1" fill="#231f20"/>
    <rect x="90" y="61" width="2" height="1" fill="#231f20"/>
    <rect x="95" y="61" width="3" height="1" fill="#231f20"/>
    <rect x="101" y="61" width="3" height="1" fill="#231f20"/>
    <rect x="108" y="61" width="2" height="1" fill="#231f20"/>
    <rect x="118" y="61" width="3" height="1" fill="#231f20"/>
    <rect x="175" y="61" width="1" height="1" fill="#231f20"/>
    <rect x="2" y="62" width="1" height="1" fill="#231f20"/>
    <rect x="11" y="62" width="156" height="1" fill="#231f20"/>
    <rect x="175" y="62" width="1" height="1" fill="#231f20"/>
    <rect x="2" y="63" width="1" height="1" fill="#231f20"/>
    <rect x="10" y="63" width="158" height="1" fill="#231f20"/>
    <rect x="175" y="63" width="1" height="1" fill="#231f20"/>
    <rect x="2" y="64" width="1" height="1" fill="#231f20"/>
    <rect x="11" y="64" width="156" height="1" fill="#231f20"/>
    <rect x="175" y="64" width="1" height="1" fill="#231f20"/>
    <rect x="2" y="65" width="1" height="1" fill="#231f20"/>
    <rect x="175" y="65" width="1" height="1" fill="#231f20"/>
    <rect x="2" y="66" width="1" height="1" fill="#231f20"/>
    <rect x="175" y="66" width="1" height="1" fill="#231f20"/>
    <rect x="2" y="67" width="1" height="1" fill="#231f20"/>
    <rect x="175" y="67" width="1" height="1" fill="#231f20"/>
    <rect x="2" y="68" width="1" height="1" fill="#231f20"/>
    <rect x="175" y="68" width="1" height="1" fill="#231f20"/>
    <rect x="2" y="69" width="1" height="1" fill="#231f20"/>
    <rect x="175" y="69" width="1" height="1" fill="#231f20"/>
    <rect x="2" y="70" width="1" height="1" fill="#231f20"/>
    <rect x="175" y="70" width="1" height="1" fill="#231f20"/>
    <rect x="2" y="71" width="174" height="1" fill="#231f20"/>
  </g>
</svg>