<?xml version="1.0" encoding="UTF-8"?>
<svg xmlns="http://www.w3.org/2000/svg" viewBox="0 0 121 49" width="121" height="49">
  <!-- Auto-converted from legend-930.png -->
  <rect x="0" y="0" width="121" height="49" fill="none"/>
  <g fill="#231f20" stroke="none">
    <rect x="0" y="0" width="121" height="1" fill="#231f20"/>
    <rect x="0" y="1" width="1" height="1" fill="#231f20"/>
    <rect x="120" y="1" width="1" height="1" fill="#231f20"/>
    <rect x="0" y="2" width="1" height="1" fill="#231f20"/>
    <rect x="120" y="2" width="1" height="1" fill="#231f20"/>
    <rect x="0" y="3" width="1" height="1" fill="#231f20"/>
    <rect x="120" y="3" width="1" height="1" fill="#231f20"/>
    <rect x="0" y="4" width="1" height="1" fill="#231f20"/>
    <rect x="120" y="4" width="1" height="1" fill="#231f20"/>
    <rect x="0" y="5" width="1" height="1" fill="#231f20"/>
    <rect x="120" y="5" width="1" height="1" fill="#231f20"/>
    <rect x="0" y="6" width="1" height="1" fill="#231f20"/>
    <rect x="19" y="6" width="4" height="1" fill="#231f20"/>
    <rect x="53" y="6" width="3" height="1" fill="#231f20"/>
    <rect x="87" y="6" width="3" height="1" fill="#231f20"/>
    <rect x="120" y="6" width="1" height="1" fill="#231f20"/>
    <rect x="0" y="7" width="1" height="1" fill="#231f20"/>
    <rect x="18" y="7" width="1" height="1" fill="#231f20"/>
    <rect x="22" y="7" width="1" height="1" fill="#231f20"/>
    <rect x="52" y="7" width="1" height="1" fill="#231f20"/>
    <rect x="56" y="7" width="1" height="1" fill="#231f20"/>
    <rect x="86" y="7" width="1" height="1" fill="#231f20"/>
    <rect x="90" y="7" width="1" height="1" fill="#231f20"/>
    <rect x="120" y="7" width="1" height="1" fill="#231f20"/>
    <rect x="0" y="8" width="1" height="1" fill="#231f20"/>
    <rect x="16" y="8" width="9" height="1" fill="#231f20"/>
    <rect x="50" y="8" width="9" height="1" fill="#231f20"/>
    <rect x="84" y="8" width="9" height="1" fill="#231f20"/>
    <rect x="120" y="8" width="1" height="1" fill="#231f20"/>
    <rect x="0" y="9" width="1" height="1" fill="#231f20"/>
    <rect x="18" y="9" width="2" height="1" fill="#231f20"/>
    <rect x="22" y="9" width="1" height="1" fill="#231f20"/>
    <rect x="52" y="9" width="2" height="1" fill="#231f20"/>
    <rect x="55" y="9" width="2" height="1" fill="#231f20"/>
    <rect x="86" y="9" width="2" height="1" fill="#231f20"/>
    <rect x="89" y="9" width="2" height="1" fill="#231f20"/>
    <rect x="120" y="9" width="1" height="1" fill="#231f20"/>
    <rect x="0" y="10" width="1" height="1" fill="#231f20"/>
    <rect x="19" y="10" width="3" height="1" fill="#231f20"/>
    <rect x="53" y="10" width="3" height="1" fill="#231f20"/>
    <rect x="87" y="10" width="3" height="1" fill="#231f20"/>
    <rect x="120" y="10" width="1" height="1" fill="#231f20"/>
    <rect x="0" y="11" width="1" height="1" fill="#231f20"/>
    <rect x="120" y="11" width="1" height="1" fill="#231f20"/>
    <rect x="0" y="12" width="1" height="1" fill="#231f20"/>
    <rect x="120" y="12" width="1" height="1" fill="#231f20"/>
    <rect x="0" y="13" width="1" height="1" fill="#231f20"/>
    <rect x="120" y="13" width="1" height="1" fill="#231f20"/>
    <rect x="0" y="14" width="1" height="1" fill="#231f20"/>
    <rect x="120" y="14" width="1" height="1" fill="#231f20"/>
    <rect x="0" y="15" width="1" height="1" fill="#231f20"/>
    <rect x="120" y="15" width="1" height="1" fill="#231f20"/>
    <rect x="0" y="16" width="121" height="1" fill="#231f20"/>
    <rect x="0" y="17" width="1" height="1" fill="#231f20"/>
    <rect x="120" y="17" width="1" height="1" fill="#231f20"/>
    <rect x="0" y="18" width="1" height="1" fill="#231f20"/>
    <rect x="120" y="18" width="1" height="1" fill="#231f20"/>
    <rect x="0" y="19" width="1" height="1" fill="#231f20"/>
    <rect x="120" y="19" width="1" height="1" fill="#231f20"/>
    <rect x="0" y="20" width="1" height="1" fill="#231f20"/>
    <rect x="120" y="20" width="1" height="1" fill="#231f20"/>
    <rect x="0" y="21" width="1" height="1" fill="#231f20"/>
    <rect x="120" y="21" width="1" height="1" fill="#231f20"/>
    <rect x="0" y="22" width="1" height="1" fill="#231f20"/>
    <rect x="31" y="22" width="4" height="1" fill="#231f20"/>
    <rect x="65" y="22" width="3" height="1" fill="#231f20"/>
    <rect x="99" y="22" width="3" height="1" fill="#231f20"/>
    <rect x="120" y="22" width="1" height="1" fill="#231f20"/>
    <rect x="0" y="23" width="1" height="1" fill="#231f20"/>
    <rect x="30" y="23" width="1" height="1" fill="#231f20"/>
    <rect x="34" y="23" width="1" height="1" fill="#231f20"/>
    <rect x="64" y="23" width="1" height="1" fill="#231f20"/>
    <rect x="68" y="23" width="1" height="1" fill="#231f20"/>
    <rect x="98" y="23" width="1" height="1" fill="#231f20"/>
    <rect x="102" y="23" width="1" height="1" fill="#231f20"/>
    <rect x="120" y="23" width="1" height="1" fill="#231f20"/>
    <rect x="0" y="24" width="1" height="1" fill="#231f20"/>
    <rect x="28" y="24" width="9" height="1" fill="#231f20"/>
    <rect x="62" y="24" width="9" height="1" fill="#231f20"/>
    <rect x="96" y="24" width="9" height="1" fill="#231f20"/>
    <rect x="120" y="24" width="1" height="1" fill="#231f20"/>
    <rect x="0" y="25" width="1" height="1" fill="#231f20"/>
    <rect x="30" y="25" width="2" height="1" fill="#231f20"/>
    <rect x="34" y="25" width="1" height="1" fill="#231f20"/>
    <rect x="64" y="25" width="2" height="1" fill="#231f20"/>
    <rect x="67" y="25" width="2" height="1" fill="#231f20"/>
    <rect x="98" y="25" width="2" height="1" fill="#231f20"/>
    <rect x="101" y="25" width="2" height="1" fill="#231f20"/>
    <rect x="120" y="25" width="1" height="1" fill="#231f20"/>
    <rect x="0" y="26" width="1" height="1" fill="#231f20"/>
    <rect x="31" y="26" width="3" height="1" fill="#231f20"/>
    <rect x="65" y="26" width="3" height="1" fill="#231f20"/>
    <rect x="99" y="26" width="3" height="1" fill="#231f20"/>
    <rect x="120" y="26" width="1" height="1" fill="#231f20"/>
    <rect x="0" y="27" width="1" height="1" fill="#231f20"/>
    <rect x="120" y="27" width="1" height="1" fill="#231f20"/>
    <rect x="0" y="28" width="1" height="1" fill="#231f20"/>
    <rect x="120" y="28" width="1" height="1" fill="#231f20"/>
    <rect x="0" y="29" width="1" height="1" fill="#231f20"/>
    <rect x="120" y="29" width="1" height="1" fill="#231f20"/>
    <rect x="0" y="30" width="1" height="1" fill="#231f20"/>
    <rect x="120" y="30" width="1" height="1" fill="#231f20"/>
    <rect x="0" y="31" width="1" height="1" fill="#231f20"/>
    <rect x="120" y="31" width="1" height="1" fill="#231f20"/>
    <rect x="0" y="32" width="121" height="1" fill="#231f20"/>
    <rect x="0" y="33" width="1" height="1" fill="#231f20"/>
    <rect x="120" y="33" width="1" height="1" fill="#231f20"/>
    <rect x="0" y="34" width="1" height="1" fill="#231f20"/>
    <rect x="120" y="34" width="1" height="1" fill="#231f20"/>
    <rect x="0" y="35" width="1" height="1" fill="#231f20"/>
    <rect x="120" y="35" width="1" height="1" fill="#231f20"/>
    <rect x="0" y="36" width="1" height="1" fill="#231f20"/>
    <rect x="120" y="36" width="1" height="1" fill="#231f20"/>
    <rect x="0" y="37" width="1" height="1" fill="#231f20"/>
    <rect x="120" y="37" width="1" height="1" fill="#231f20"/>
    <rect x="0" y="38" width="1" height="1" fill="#231f20"/>
    <rect x="19" y="38" width="4" height="1" fill="#231f20"/>
    <rect x="53" y="38" width="3" height="1" fill="#231f20"/>
    <rect x="87" y="38" width="3" height="1" fill="#231f20"/>
    <rect x="120" y="38" width="1" height="1" fill="#231f20"/>
    <rect x="0" y="39" width="1" height="1" fill="#231f20"/>
    <rect x="18" y="39" width="1" height="1" fill="#231f20"/>
    <rect x="22" y="39" width="1" height="1" fill="#231f20"/>
    <rect x="52" y="39" width="1" height="1" fill="#231f20"/>
    <rect x="56" y="39" width="1" height="1" fill="#231f20"/>
    <rect x="86" y="39" width="1" height="1" fill="#231f20"/>
    <rect x="90" y="39" width="1" height="1" fill="#231f20"/>
    <rect x="120" y="39" width="1" height="1" fill="#231f20"/>
    <rect x="0" y="40" width="1" height="1" fill="#231f20"/>
    <rect x="16" y="40" width="9" height="1" fill="#231f20"/>
    <rect x="50" y="40" width="9" height="1" fill="#231f20"/>
    <rect x="84" y="40" width="9" height="1" fill="#231f20"/>
    <rect x="120" y="40" width="1" height="1" fill="#231f20"/>
    <rect x="0" y="41" width="1" height="1" fill="#231f20"/>
    <rect x="18" y="41" width="2" height="1" fill="#231f20"/>
    <rect x="22" y="41" width="1" height="1" fill="#231f20"/>
    <rect x="52" y="41" width="2" height="1" fill="#231f20"/>
    <rect x="55" y="41" width="2" height="1" fill="#231f20"/>
    <rect x="86" y="41" width="2" height="1" fill="#231f20"/>
    <rect x="89" y="41" width="2" height="1" fill="#231f20"/>
    <rect x="120" y="41" width="1" height="1" fill="#231f20"/>
    <rect x="0" y="42" width="1" height="1" fill="#231f20"/>
    <rect x="19" y="42" width="3" height="1" fill="#231f20"/>
    <rect x="53" y="42" width="3" height="1" fill="#231f20"/>
    <rect x="87" y="42" width="3" height="1" fill="#231f20"/>
    <rect x="120" y="42" width="1" height="1" fill="#231f20"/>
    <rect x="0" y="43" width="1" height="1" fill="#231f20"/>
    <rect x="120" y="43" width="1" height="1" fill="#231f20"/>
    <rect x="0" y="44" width="1" height="1" fill="#231f20"/>
    <rect x="120" y="44" width="1" height="1" fill="#231f20"/>
    <rect x="0" y="45" width="1" height="1" fill="#231f20"/>
    <rect x="120" y="45" width="1" height="1" fill="#231f20"/>
    <rect x="0" y="46" width="1" height="1" fill="#231f20"/>
    <rect x="120" y="46" width="1" height="1" fill="#231f20"/>
    <rect x="0" y="47" width="1" height="1" fill="#231f20"/>
    <rect x="120" y="47" width="1" height="1" fill="#231f20"/>
    <rect x="0" y="48" width="121" height="1" fill="#231f20"/>
  </g>
</svg>