<?xml version="1.0" encoding="UTF-8"?>
<svg xmlns="http://www.w3.org/2000/svg" viewBox="0 0 167 67" width="167" height="67">
  <!-- Auto-converted from legend-2497.png -->
  <rect x="0" y="0" width="167" height="67" fill="none"/>
  <g fill="#9f9d9e" stroke="none">
    <rect x="0" y="0" width="167" height="1" fill="#9f9d9e"/>
    <rect x="0" y="1" width="167" height="1" fill="#9f9d9e"/>
    <rect x="0" y="2" width="167" height="1" fill="#9f9d9e"/>
    <rect x="0" y="3" width="167" height="1" fill="#9f9d9e"/>
    <rect x="0" y="4" width="167" height="1" fill="#9f9d9e"/>
    <rect x="0" y="5" width="167" height="1" fill="#9f9d9e"/>
    <rect x="0" y="6" width="167" height="1" fill="#9f9d9e"/>
    <rect x="0" y="7" width="167" height="1" fill="#9f9d9e"/>
    <rect x="0" y="8" width="167" height="1" fill="#9f9d9e"/>
    <rect x="0" y="9" width="167" height="1" fill="#9f9d9e"/>
    <rect x="0" y="10" width="167" height="1" fill="#9f9d9e"/>
    <rect x="0" y="11" width="167" height="1" fill="#9f9d9e"/>
    <rect x="0" y="12" width="167" height="1" fill="#9f9d9e"/>
    <rect x="0" y="13" width="167" height="1" fill="#9f9d9e"/>
    <rect x="0" y="14" width="167" height="1" fill="#9f9d9e"/>
    <rect x="0" y="15" width="167" height="1" fill="#9f9d9e"/>
    <rect x="0" y="16" width="167" height="1" fill="#9f9d9e"/>
    <rect x="0" y="17" width="167" height="1" fill="#9f9d9e"/>
    <rect x="0" y="18" width="167" height="1" fill="#9f9d9e"/>
    <rect x="0" y="19" width="167" height="1" fill="#9f9d9e"/>
    <rect x="0" y="20" width="167" height="1" fill="#9f9d9e"/>
    <rect x="0" y="21" width="167" height="1" fill="#9f9d9e"/>
    <rect x="0" y="22" width="167" height="1" fill="#9f9d9e"/>
    <rect x="0" y="23" width="167" height="1" fill="#9f9d9e"/>
    <rect x="0" y="24" width="167" height="1" fill="#9f9d9e"/>
    <rect x="0" y="25" width="167" height="1" fill="#9f9d9e"/>
    <rect x="0" y="26" width="167" height="1" fill="#9f9d9e"/>
    <rect x="0" y="27" width="167" height="1" fill="#9f9d9e"/>
    <rect x="0" y="28" width="167" height="1" fill="#9f9d9e"/>
    <rect x="0" y="29" width="167" height="1" fill="#9f9d9e"/>
    <rect x="0" y="30" width="167" height="1" fill="#9f9d9e"/>
    <rect x="0" y="31" width="167" height="1" fill="#9f9d9e"/>
    <rect x="0" y="32" width="167" height="1" fill="#9f9d9e"/>
    <rect x="0" y="33" width="167" height="1" fill="#9f9d9e"/>
    <rect x="0" y="34" width="167" height="1" fill="#9f9d9e"/>
    <rect x="0" y="35" width="167" height="1" fill="#9f9d9e"/>
    <rect x="0" y="36" width="167" height="1" fill="#9f9d9e"/>
    <rect x="0" y="37" width="167" height="1" fill="#9f9d9e"/>
    <rect x="0" y="38" width="167" height="1" fill="#9f9d9e"/>
    <rect x="0" y="39" width="167" height="1" fill="#9f9d9e"/>
    <rect x="0" y="40" width="167" height="1" fill="#9f9d9e"/>
    <rect x="0" y="41" width="167" height="1" fill="#9f9d9e"/>
    <rect x="0" y="42" width="167" height="1" fill="#9f9d9e"/>
    <rect x="0" y="43" width="167" height="1" fill="#9f9d9e"/>
    <rect x="0" y="44" width="167" height="1" fill="#9f9d9e"/>
    <rect x="0" y="45" width="167" height="1" fill="#9f9d9e"/>
    <rect x="0" y="46" width="167" height="1" fill="#9f9d9e"/>
    <rect x="0" y="47" width="167" height="1" fill="#9f9d9e"/>
    <rect x="0" y="48" width="167" height="1" fill="#9f9d9e"/>
    <rect x="0" y="49" width="167" height="1" fill="#9f9d9e"/>
    <rect x="0" y="50" width="167" height="1" fill="#9f9d9e"/>
    <rect x="0" y="51" width="167" height="1" fill="#9f9d9e"/>
    <rect x="0" y="52" width="167" height="1" fill="#9f9d9e"/>
    <rect x="0" y="53" width="167" height="1" fill="#9f9d9e"/>
    <rect x="0" y="54" width="167" height="1" fill="#9f9d9e"/>
    <rect x="0" y="55" width="167" height="1" fill="#9f9d9e"/>
    <rect x="0" y="56" width="167" height="1" fill="#9f9d9e"/>
    <rect x="0" y="57" width="167" height="1" fill="#9f9d9e"/>
    <rect x="0" y="58" width="167" height="1" fill="#9f9d9e"/>
    <rect x="0" y="59" width="167" height="1" fill="#9f9d9e"/>
    <rect x="0" y="60" width="167" height="1" fill="#9f9d9e"/>
    <rect x="0" y="61" width="167" height="1" fill="#9f9d9e"/>
    <rect x="0" y="62" width="167" height="1" fill="#9f9d9e"/>
    <rect x="0" y="63" width="167" height="1" fill="#9f9d9e"/>
    <rect x="0" y="64" width="167" height="1" fill="#9f9d9e"/>
    <rect x="0" y="65" width="167" height="1" fill="#9f9d9e"/>
    <rect x="0" y="66" width="167" height="1" fill="#9f9d9e"/>
  </g>
</svg>