<?xml version="1.0" encoding="UTF-8"?>
<svg xmlns="http://www.w3.org/2000/svg" viewBox="0 0 140 68" width="140" height="68">
  <!-- Auto-converted from legend-1115.png -->
  <rect x="0" y="0" width="140" height="68" fill="none"/>
  <g fill="#231f20" stroke="none">
    <rect x="0" y="0" width="140" height="1" fill="#231f20"/>
    <rect x="0" y="1" width="1" height="1" fill="#231f20"/>
    <rect x="16" y="1" width="1" height="1" fill="#231f20"/>
    <rect x="19" y="1" width="1" height="1" fill="#231f20"/>
    <rect x="22" y="1" width="1" height="1" fill="#231f20"/>
    <rect x="25" y="1" width="1" height="1" fill="#231f20"/>
    <rect x="139" y="1" width="1" height="1" fill="#231f20"/>
    <rect x="0" y="2" width="1" height="1" fill="#231f20"/>
    <rect x="16" y="2" width="1" height="1" fill="#231f20"/>
    <rect x="19" y="2" width="1" height="1" fill="#231f20"/>
    <rect x="22" y="2" width="1" height="1" fill="#231f20"/>
    <rect x="25" y="2" width="1" height="1" fill="#231f20"/>
    <rect x="139" y="2" width="1" height="1" fill="#231f20"/>
    <rect x="0" y="3" width="1" height="1" fill="#231f20"/>
    <rect x="16" y="3" width="1" height="1" fill="#231f20"/>
    <rect x="19" y="3" width="1" height="1" fill="#231f20"/>
    <rect x="22" y="3" width="1" height="1" fill="#231f20"/>
    <rect x="25" y="3" width="1" height="1" fill="#231f20"/>
    <rect x="139" y="3" width="1" height="1" fill="#231f20"/>
    <rect x="0" y="4" width="1" height="1" fill="#231f20"/>
    <rect x="16" y="4" width="1" height="1" fill="#231f20"/>
    <rect x="19" y="4" width="1" height="1" fill="#231f20"/>
    <rect x="22" y="4" width="1" height="1" fill="#231f20"/>
    <rect x="25" y="4" width="1" height="1" fill="#231f20"/>
    <rect x="139" y="4" width="1" height="1" fill="#231f20"/>
    <rect x="0" y="5" width="1" height="1" fill="#231f20"/>
    <rect x="16" y="5" width="1" height="1" fill="#231f20"/>
    <rect x="19" y="5" width="1" height="1" fill="#231f20"/>
    <rect x="22" y="5" width="1" height="1" fill="#231f20"/>
    <rect x="25" y="5" width="1" height="1" fill="#231f20"/>
    <rect x="139" y="5" width="1" height="1" fill="#231f20"/>
    <rect x="0" y="6" width="1" height="1" fill="#231f20"/>
    <rect x="16" y="6" width="1" height="1" fill="#231f20"/>
    <rect x="19" y="6" width="1" height="1" fill="#231f20"/>
    <rect x="22" y="6" width="1" height="1" fill="#231f20"/>
    <rect x="25" y="6" width="1" height="1" fill="#231f20"/>
    <rect x="139" y="6" width="1" height="1" fill="#231f20"/>
    <rect x="0" y="7" width="1" height="1" fill="#231f20"/>
    <rect x="16" y="7" width="1" height="1" fill="#231f20"/>
    <rect x="19" y="7" width="1" height="1" fill="#231f20"/>
    <rect x="22" y="7" width="1" height="1" fill="#231f20"/>
    <rect x="25" y="7" width="1" height="1" fill="#231f20"/>
    <rect x="139" y="7" width="1" height="1" fill="#231f20"/>
    <rect x="0" y="8" width="1" height="1" fill="#231f20"/>
    <rect x="16" y="8" width="1" height="1" fill="#231f20"/>
    <rect x="19" y="8" width="1" height="1" fill="#231f20"/>
    <rect x="22" y="8" width="1" height="1" fill="#231f20"/>
    <rect x="25" y="8" width="1" height="1" fill="#231f20"/>
    <rect x="139" y="8" width="1" height="1" fill="#231f20"/>
    <rect x="0" y="9" width="1" height="1" fill="#231f20"/>
    <rect x="16" y="9" width="1" height="1" fill="#231f20"/>
    <rect x="19" y="9" width="1" height="1" fill="#231f20"/>
    <rect x="22" y="9" width="1" height="1" fill="#231f20"/>
    <rect x="25" y="9" width="1" height="1" fill="#231f20"/>
    <rect x="139" y="9" width="1" height="1" fill="#231f20"/>
    <rect x="0" y="10" width="1" height="1" fill="#231f20"/>
    <rect x="16" y="10" width="1" height="1" fill="#231f20"/>
    <rect x="19" y="10" width="1" height="1" fill="#231f20"/>
    <rect x="22" y="10" width="1" height="1" fill="#231f20"/>
    <rect x="25" y="10" width="1" height="1" fill="#231f20"/>
    <rect x="60" y="10" width="3" height="1" fill="#231f20"/>
    <rect x="82" y="10" width="3" height="1" fill="#231f20"/>
    <rect x="105" y="10" width="2" height="1" fill="#231f20"/>
    <rect x="139" y="10" width="1" height="1" fill="#231f20"/>
    <rect x="0" y="11" width="1" height="1" fill="#231f20"/>
    <rect x="16" y="11" width="1" height="1" fill="#231f20"/>
    <rect x="19" y="11" width="1" height="1" fill="#231f20"/>
    <rect x="22" y="11" width="1" height="1" fill="#231f20"/>
    <rect x="25" y="11" width="1" height="1" fill="#231f20"/>
    <rect x="60" y="11" width="3" height="1" fill="#231f20"/>
    <rect x="82" y="11" width="3" height="1" fill="#231f20"/>
    <rect x="104" y="11" width="4" height="1" fill="#231f20"/>
    <rect x="139" y="11" width="1" height="1" fill="#231f20"/>
    <rect x="0" y="12" width="1" height="1" fill="#231f20"/>
    <rect x="16" y="12" width="1" height="1" fill="#231f20"/>
    <rect x="19" y="12" width="1" height="1" fill="#231f20"/>
    <rect x="22" y="12" width="1" height="1" fill="#231f20"/>
    <rect x="25" y="12" width="1" height="1" fill="#231f20"/>
    <rect x="59" y="12" width="4" height="1" fill="#231f20"/>
    <rect x="82" y="12" width="4" height="1" fill="#231f20"/>
    <rect x="104" y="12" width="4" height="1" fill="#231f20"/>
    <rect x="139" y="12" width="1" height="1" fill="#231f20"/>
    <rect x="0" y="13" width="1" height="1" fill="#231f20"/>
    <rect x="16" y="13" width="1" height="1" fill="#231f20"/>
    <rect x="19" y="13" width="1" height="1" fill="#231f20"/>
    <rect x="22" y="13" width="1" height="1" fill="#231f20"/>
    <rect x="25" y="13" width="1" height="1" fill="#231f20"/>
    <rect x="60" y="13" width="3" height="1" fill="#231f20"/>
    <rect x="82" y="13" width="3" height="1" fill="#231f20"/>
    <rect x="105" y="13" width="2" height="1" fill="#231f20"/>
    <rect x="139" y="13" width="1" height="1" fill="#231f20"/>
    <rect x="0" y="14" width="1" height="1" fill="#231f20"/>
    <rect x="16" y="14" width="1" height="1" fill="#231f20"/>
    <rect x="19" y="14" width="1" height="1" fill="#231f20"/>
    <rect x="22" y="14" width="1" height="1" fill="#231f20"/>
    <rect x="25" y="14" width="1" height="1" fill="#231f20"/>
    <rect x="139" y="14" width="1" height="1" fill="#231f20"/>
    <rect x="0" y="15" width="1" height="1" fill="#231f20"/>
    <rect x="16" y="15" width="1" height="1" fill="#231f20"/>
    <rect x="19" y="15" width="1" height="1" fill="#231f20"/>
    <rect x="22" y="15" width="1" height="1" fill="#231f20"/>
    <rect x="25" y="15" width="1" height="1" fill="#231f20"/>
    <rect x="139" y="15" width="1" height="1" fill="#231f20"/>
    <rect x="0" y="16" width="1" height="1" fill="#231f20"/>
    <rect x="16" y="16" width="1" height="1" fill="#231f20"/>
    <rect x="19" y="16" width="1" height="1" fill="#231f20"/>
    <rect x="22" y="16" width="1" height="1" fill="#231f20"/>
    <rect x="25" y="16" width="1" height="1" fill="#231f20"/>
    <rect x="139" y="16" width="1" height="1" fill="#231f20"/>
    <rect x="0" y="17" width="1" height="1" fill="#231f20"/>
    <rect x="16" y="17" width="1" height="1" fill="#231f20"/>
    <rect x="19" y="17" width="1" height="1" fill="#231f20"/>
    <rect x="22" y="17" width="1" height="1" fill="#231f20"/>
    <rect x="25" y="17" width="1" height="1" fill="#231f20"/>
    <rect x="139" y="17" width="1" height="1" fill="#231f20"/>
    <rect x="0" y="18" width="1" height="1" fill="#231f20"/>
    <rect x="16" y="18" width="1" height="1" fill="#231f20"/>
    <rect x="19" y="18" width="1" height="1" fill="#231f20"/>
    <rect x="22" y="18" width="1" height="1" fill="#231f20"/>
    <rect x="25" y="18" width="1" height="1" fill="#231f20"/>
    <rect x="139" y="18" width="1" height="1" fill="#231f20"/>
    <rect x="0" y="19" width="1" height="1" fill="#231f20"/>
    <rect x="16" y="19" width="1" height="1" fill="#231f20"/>
    <rect x="19" y="19" width="1" height="1" fill="#231f20"/>
    <rect x="22" y="19" width="1" height="1" fill="#231f20"/>
    <rect x="25" y="19" width="1" height="1" fill="#231f20"/>
    <rect x="139" y="19" width="1" height="1" fill="#231f20"/>
    <rect x="0" y="20" width="1" height="1" fill="#231f20"/>
    <rect x="16" y="20" width="1" height="1" fill="#231f20"/>
    <rect x="19" y="20" width="1" height="1" fill="#231f20"/>
    <rect x="22" y="20" width="1" height="1" fill="#231f20"/>
    <rect x="25" y="20" width="1" height="1" fill="#231f20"/>
    <rect x="139" y="20" width="1" height="1" fill="#231f20"/>
    <rect x="0" y="21" width="1" height="1" fill="#231f20"/>
    <rect x="16" y="21" width="1" height="1" fill="#231f20"/>
    <rect x="19" y="21" width="1" height="1" fill="#231f20"/>
    <rect x="22" y="21" width="1" height="1" fill="#231f20"/>
    <rect x="25" y="21" width="1" height="1" fill="#231f20"/>
    <rect x="139" y="21" width="1" height="1" fill="#231f20"/>
    <rect x="0" y="22" width="1" height="1" fill="#231f20"/>
    <rect x="16" y="22" width="1" height="1" fill="#231f20"/>
    <rect x="19" y="22" width="1" height="1" fill="#231f20"/>
    <rect x="22" y="22" width="1" height="1" fill="#231f20"/>
    <rect x="25" y="22" width="1" height="1" fill="#231f20"/>
    <rect x="139" y="22" width="1" height="1" fill="#231f20"/>
    <rect x="0" y="23" width="140" height="1" fill="#231f20"/>
    <rect x="0" y="24" width="1" height="1" fill="#231f20"/>
    <rect x="114" y="24" width="1" height="1" fill="#231f20"/>
    <rect x="117" y="24" width="1" height="1" fill="#231f20"/>
    <rect x="119" y="24" width="1" height="1" fill="#231f20"/>
    <rect x="122" y="24" width="1" height="1" fill="#231f20"/>
    <rect x="139" y="24" width="1" height="1" fill="#231f20"/>
    <rect x="0" y="25" width="1" height="1" fill="#231f20"/>
    <rect x="114" y="25" width="1" height="1" fill="#231f20"/>
    <rect x="117" y="25" width="1" height="1" fill="#231f20"/>
    <rect x="119" y="25" width="1" height="1" fill="#231f20"/>
    <rect x="122" y="25" width="1" height="1" fill="#231f20"/>
    <rect x="139" y="25" width="1" height="1" fill="#231f20"/>
    <rect x="0" y="26" width="1" height="1" fill="#231f20"/>
    <rect x="114" y="26" width="1" height="1" fill="#231f20"/>
    <rect x="117" y="26" width="1" height="1" fill="#231f20"/>
    <rect x="119" y="26" width="1" height="1" fill="#231f20"/>
    <rect x="122" y="26" width="1" height="1" fill="#231f20"/>
    <rect x="139" y="26" width="1" height="1" fill="#231f20"/>
    <rect x="0" y="27" width="1" height="1" fill="#231f20"/>
    <rect x="114" y="27" width="1" height="1" fill="#231f20"/>
    <rect x="117" y="27" width="1" height="1" fill="#231f20"/>
    <rect x="119" y="27" width="1" height="1" fill="#231f20"/>
    <rect x="122" y="27" width="1" height="1" fill="#231f20"/>
    <rect x="139" y="27" width="1" height="1" fill="#231f20"/>
    <rect x="0" y="28" width="1" height="1" fill="#231f20"/>
    <rect x="114" y="28" width="1" height="1" fill="#231f20"/>
    <rect x="117" y="28" width="1" height="1" fill="#231f20"/>
    <rect x="119" y="28" width="1" height="1" fill="#231f20"/>
    <rect x="122" y="28" width="1" height="1" fill="#231f20"/>
    <rect x="139" y="28" width="1" height="1" fill="#231f20"/>
    <rect x="0" y="29" width="1" height="1" fill="#231f20"/>
    <rect x="114" y="29" width="1" height="1" fill="#231f20"/>
    <rect x="117" y="29" width="1" height="1" fill="#231f20"/>
    <rect x="119" y="29" width="1" height="1" fill="#231f20"/>
    <rect x="122" y="29" width="1" height="1" fill="#231f20"/>
    <rect x="139" y="29" width="1" height="1" fill="#231f20"/>
    <rect x="0" y="30" width="1" height="1" fill="#231f20"/>
    <rect x="114" y="30" width="1" height="1" fill="#231f20"/>
    <rect x="117" y="30" width="1" height="1" fill="#231f20"/>
    <rect x="119" y="30" width="1" height="1" fill="#231f20"/>
    <rect x="122" y="30" width="1" height="1" fill="#231f20"/>
    <rect x="139" y="30" width="1" height="1" fill="#231f20"/>
    <rect x="0" y="31" width="1" height="1" fill="#231f20"/>
    <rect x="114" y="31" width="1" height="1" fill="#231f20"/>
    <rect x="117" y="31" width="1" height="1" fill="#231f20"/>
    <rect x="119" y="31" width="1" height="1" fill="#231f20"/>
    <rect x="122" y="31" width="1" height="1" fill="#231f20"/>
    <rect x="139" y="31" width="1" height="1" fill="#231f20"/>
    <rect x="0" y="32" width="1" height="1" fill="#231f20"/>
    <rect x="33" y="32" width="1" height="1" fill="#231f20"/>
    <rect x="55" y="32" width="1" height="1" fill="#231f20"/>
    <rect x="78" y="32" width="1" height="1" fill="#231f20"/>
    <rect x="114" y="32" width="1" height="1" fill="#231f20"/>
    <rect x="117" y="32" width="1" height="1" fill="#231f20"/>
    <rect x="119" y="32" width="1" height="1" fill="#231f20"/>
    <rect x="122" y="32" width="1" height="1" fill="#231f20"/>
    <rect x="139" y="32" width="1" height="1" fill="#231f20"/>
    <rect x="0" y="33" width="1" height="1" fill="#231f20"/>
    <rect x="32" y="33" width="3" height="1" fill="#231f20"/>
    <rect x="54" y="33" width="3" height="1" fill="#231f20"/>
    <rect x="76" y="33" width="4" height="1" fill="#231f20"/>
    <rect x="114" y="33" width="1" height="1" fill="#231f20"/>
    <rect x="117" y="33" width="1" height="1" fill="#231f20"/>
    <rect x="119" y="33" width="1" height="1" fill="#231f20"/>
    <rect x="122" y="33" width="1" height="1" fill="#231f20"/>
    <rect x="139" y="33" width="1" height="1" fill="#231f20"/>
    <rect x="0" y="34" width="1" height="1" fill="#231f20"/>
    <rect x="32" y="34" width="3" height="1" fill="#231f20"/>
    <rect x="54" y="34" width="4" height="1" fill="#231f20"/>
    <rect x="76" y="34" width="4" height="1" fill="#231f20"/>
    <rect x="114" y="34" width="1" height="1" fill="#231f20"/>
    <rect x="117" y="34" width="1" height="1" fill="#231f20"/>
    <rect x="119" y="34" width="1" height="1" fill="#231f20"/>
    <rect x="122" y="34" width="1" height="1" fill="#231f20"/>
    <rect x="139" y="34" width="1" height="1" fill="#231f20"/>
    <rect x="0" y="35" width="1" height="1" fill="#231f20"/>
    <rect x="32" y="35" width="3" height="1" fill="#231f20"/>
    <rect x="54" y="35" width="3" height="1" fill="#231f20"/>
    <rect x="76" y="35" width="4" height="1" fill="#231f20"/>
    <rect x="114" y="35" width="1" height="1" fill="#231f20"/>
    <rect x="117" y="35" width="1" height="1" fill="#231f20"/>
    <rect x="119" y="35" width="1" height="1" fill="#231f20"/>
    <rect x="122" y="35" width="1" height="1" fill="#231f20"/>
    <rect x="139" y="35" width="1" height="1" fill="#231f20"/>
    <rect x="0" y="36" width="1" height="1" fill="#231f20"/>
    <rect x="114" y="36" width="1" height="1" fill="#231f20"/>
    <rect x="117" y="36" width="1" height="1" fill="#231f20"/>
    <rect x="119" y="36" width="1" height="1" fill="#231f20"/>
    <rect x="122" y="36" width="1" height="1" fill="#231f20"/>
    <rect x="139" y="36" width="1" height="1" fill="#231f20"/>
    <rect x="0" y="37" width="1" height="1" fill="#231f20"/>
    <rect x="114" y="37" width="1" height="1" fill="#231f20"/>
    <rect x="117" y="37" width="1" height="1" fill="#231f20"/>
    <rect x="119" y="37" width="1" height="1" fill="#231f20"/>
    <rect x="122" y="37" width="1" height="1" fill="#231f20"/>
    <rect x="139" y="37" width="1" height="1" fill="#231f20"/>
    <rect x="0" y="38" width="1" height="1" fill="#231f20"/>
    <rect x="114" y="38" width="1" height="1" fill="#231f20"/>
    <rect x="117" y="38" width="1" height="1" fill="#231f20"/>
    <rect x="119" y="38" width="1" height="1" fill="#231f20"/>
    <rect x="122" y="38" width="1" height="1" fill="#231f20"/>
    <rect x="139" y="38" width="1" height="1" fill="#231f20"/>
    <rect x="0" y="39" width="1" height="1" fill="#231f20"/>
    <rect x="114" y="39" width="1" height="1" fill="#231f20"/>
    <rect x="117" y="39" width="1" height="1" fill="#231f20"/>
    <rect x="119" y="39" width="1" height="1" fill="#231f20"/>
    <rect x="122" y="39" width="1" height="1" fill="#231f20"/>
    <rect x="139" y="39" width="1" height="1" fill="#231f20"/>
    <rect x="0" y="40" width="1" height="1" fill="#231f20"/>
    <rect x="114" y="40" width="1" height="1" fill="#231f20"/>
    <rect x="117" y="40" width="1" height="1" fill="#231f20"/>
    <rect x="119" y="40" width="1" height="1" fill="#231f20"/>
    <rect x="122" y="40" width="1" height="1" fill="#231f20"/>
    <rect x="139" y="40" width="1" height="1" fill="#231f20"/>
    <rect x="0" y="41" width="1" height="1" fill="#231f20"/>
    <rect x="114" y="41" width="1" height="1" fill="#231f20"/>
    <rect x="117" y="41" width="1" height="1" fill="#231f20"/>
    <rect x="119" y="41" width="1" height="1" fill="#231f20"/>
    <rect x="122" y="41" width="1" height="1" fill="#231f20"/>
    <rect x="139" y="41" width="1" height="1" fill="#231f20"/>
    <rect x="0" y="42" width="1" height="1" fill="#231f20"/>
    <rect x="114" y="42" width="1" height="1" fill="#231f20"/>
    <rect x="117" y="42" width="1" height="1" fill="#231f20"/>
    <rect x="119" y="42" width="1" height="1" fill="#231f20"/>
    <rect x="122" y="42" width="1" height="1" fill="#231f20"/>
    <rect x="139" y="42" width="1" height="1" fill="#231f20"/>
    <rect x="0" y="43" width="1" height="1" fill="#231f20"/>
    <rect x="114" y="43" width="1" height="1" fill="#231f20"/>
    <rect x="117" y="43" width="1" height="1" fill="#231f20"/>
    <rect x="119" y="43" width="1" height="1" fill="#231f20"/>
    <rect x="122" y="43" width="1" height="1" fill="#231f20"/>
    <rect x="139" y="43" width="1" height="1" fill="#231f20"/>
    <rect x="0" y="44" width="1" height="1" fill="#231f20"/>
    <rect x="114" y="44" width="1" height="1" fill="#231f20"/>
    <rect x="117" y="44" width="1" height="1" fill="#231f20"/>
    <rect x="119" y="44" width="1" height="1" fill="#231f20"/>
    <rect x="122" y="44" width="1" height="1" fill="#231f20"/>
    <rect x="139" y="44" width="1" height="1" fill="#231f20"/>
    <rect x="0" y="45" width="140" height="1" fill="#231f20"/>
    <rect x="0" y="46" width="1" height="1" fill="#231f20"/>
    <rect x="16" y="46" width="1" height="1" fill="#231f20"/>
    <rect x="19" y="46" width="1" height="1" fill="#231f20"/>
    <rect x="22" y="46" width="1" height="1" fill="#231f20"/>
    <rect x="25" y="46" width="1" height="1" fill="#231f20"/>
    <rect x="139" y="46" width="1" height="1" fill="#231f20"/>
    <rect x="0" y="47" width="1" height="1" fill="#231f20"/>
    <rect x="16" y="47" width="1" height="1" fill="#231f20"/>
    <rect x="19" y="47" width="1" height="1" fill="#231f20"/>
    <rect x="22" y="47" width="1" height="1" fill="#231f20"/>
    <rect x="25" y="47" width="1" height="1" fill="#231f20"/>
    <rect x="139" y="47" width="1" height="1" fill="#231f20"/>
    <rect x="0" y="48" width="1" height="1" fill="#231f20"/>
    <rect x="16" y="48" width="1" height="1" fill="#231f20"/>
    <rect x="19" y="48" width="1" height="1" fill="#231f20"/>
    <rect x="22" y="48" width="1" height="1" fill="#231f20"/>
    <rect x="25" y="48" width="1" height="1" fill="#231f20"/>
    <rect x="139" y="48" width="1" height="1" fill="#231f20"/>
    <rect x="0" y="49" width="1" height="1" fill="#231f20"/>
    <rect x="16" y="49" width="1" height="1" fill="#231f20"/>
    <rect x="19" y="49" width="1" height="1" fill="#231f20"/>
    <rect x="22" y="49" width="1" height="1" fill="#231f20"/>
    <rect x="25" y="49" width="1" height="1" fill="#231f20"/>
    <rect x="139" y="49" width="1" height="1" fill="#231f20"/>
    <rect x="0" y="50" width="1" height="1" fill="#231f20"/>
    <rect x="16" y="50" width="1" height="1" fill="#231f20"/>
    <rect x="19" y="50" width="1" height="1" fill="#231f20"/>
    <rect x="22" y="50" width="1" height="1" fill="#231f20"/>
    <rect x="25" y="50" width="1" height="1" fill="#231f20"/>
    <rect x="139" y="50" width="1" height="1" fill="#231f20"/>
    <rect x="0" y="51" width="1" height="1" fill="#231f20"/>
    <rect x="16" y="51" width="1" height="1" fill="#231f20"/>
    <rect x="19" y="51" width="1" height="1" fill="#231f20"/>
    <rect x="22" y="51" width="1" height="1" fill="#231f20"/>
    <rect x="25" y="51" width="1" height="1" fill="#231f20"/>
    <rect x="139" y="51" width="1" height="1" fill="#231f20"/>
    <rect x="0" y="52" width="1" height="1" fill="#231f20"/>
    <rect x="16" y="52" width="1" height="1" fill="#231f20"/>
    <rect x="19" y="52" width="1" height="1" fill="#231f20"/>
    <rect x="22" y="52" width="1" height="1" fill="#231f20"/>
    <rect x="25" y="52" width="1" height="1" fill="#231f20"/>
    <rect x="139" y="52" width="1" height="1" fill="#231f20"/>
    <rect x="0" y="53" width="1" height="1" fill="#231f20"/>
    <rect x="16" y="53" width="1" height="1" fill="#231f20"/>
    <rect x="19" y="53" width="1" height="1" fill="#231f20"/>
    <rect x="22" y="53" width="1" height="1" fill="#231f20"/>
    <rect x="25" y="53" width="1" height="1" fill="#231f20"/>
    <rect x="139" y="53" width="1" height="1" fill="#231f20"/>
    <rect x="0" y="54" width="1" height="1" fill="#231f20"/>
    <rect x="16" y="54" width="1" height="1" fill="#231f20"/>
    <rect x="19" y="54" width="1" height="1" fill="#231f20"/>
    <rect x="22" y="54" width="1" height="1" fill="#231f20"/>
    <rect x="25" y="54" width="1" height="1" fill="#231f20"/>
    <rect x="139" y="54" width="1" height="1" fill="#231f20"/>
    <rect x="0" y="55" width="1" height="1" fill="#231f20"/>
    <rect x="16" y="55" width="1" height="1" fill="#231f20"/>
    <rect x="19" y="55" width="1" height="1" fill="#231f20"/>
    <rect x="22" y="55" width="1" height="1" fill="#231f20"/>
    <rect x="25" y="55" width="1" height="1" fill="#231f20"/>
    <rect x="60" y="55" width="3" height="1" fill="#231f20"/>
    <rect x="82" y="55" width="3" height="1" fill="#231f20"/>
    <rect x="104" y="55" width="4" height="1" fill="#231f20"/>
    <rect x="139" y="55" width="1" height="1" fill="#231f20"/>
    <rect x="0" y="56" width="1" height="1" fill="#231f20"/>
    <rect x="16" y="56" width="1" height="1" fill="#231f20"/>
    <rect x="19" y="56" width="1" height="1" fill="#231f20"/>
    <rect x="22" y="56" width="1" height="1" fill="#231f20"/>
    <rect x="25" y="56" width="1" height="1" fill="#231f20"/>
    <rect x="59" y="56" width="4" height="1" fill="#231f20"/>
    <rect x="82" y="56" width="4" height="1" fill="#231f20"/>
    <rect x="104" y="56" width="4" height="1" fill="#231f20"/>
    <rect x="139" y="56" width="1" height="1" fill="#231f20"/>
    <rect x="0" y="57" width="1" height="1" fill="#231f20"/>
    <rect x="16" y="57" width="1" height="1" fill="#231f20"/>
    <rect x="19" y="57" width="1" height="1" fill="#231f20"/>
    <rect x="22" y="57" width="1" height="1" fill="#231f20"/>
    <rect x="25" y="57" width="1" height="1" fill="#231f20"/>
    <rect x="60" y="57" width="3" height="1" fill="#231f20"/>
    <rect x="82" y="57" width="3" height="1" fill="#231f20"/>
    <rect x="104" y="57" width="4" height="1" fill="#231f20"/>
    <rect x="139" y="57" width="1" height="1" fill="#231f20"/>
    <rect x="0" y="58" width="1" height="1" fill="#231f20"/>
    <rect x="16" y="58" width="1" height="1" fill="#231f20"/>
    <rect x="19" y="58" width="1" height="1" fill="#231f20"/>
    <rect x="22" y="58" width="1" height="1" fill="#231f20"/>
    <rect x="25" y="58" width="1" height="1" fill="#231f20"/>
    <rect x="139" y="58" width="1" height="1" fill="#231f20"/>
    <rect x="0" y="59" width="1" height="1" fill="#231f20"/>
    <rect x="16" y="59" width="1" height="1" fill="#231f20"/>
    <rect x="19" y="59" width="1" height="1" fill="#231f20"/>
    <rect x="22" y="59" width="1" height="1" fill="#231f20"/>
    <rect x="25" y="59" width="1" height="1" fill="#231f20"/>
    <rect x="139" y="59" width="1" height="1" fill="#231f20"/>
    <rect x="0" y="60" width="1" height="1" fill="#231f20"/>
    <rect x="16" y="60" width="1" height="1" fill="#231f20"/>
    <rect x="19" y="60" width="1" height="1" fill="#231f20"/>
    <rect x="22" y="60" width="1" height="1" fill="#231f20"/>
    <rect x="25" y="60" width="1" height="1" fill="#231f20"/>
    <rect x="139" y="60" width="1" height="1" fill="#231f20"/>
    <rect x="0" y="61" width="1" height="1" fill="#231f20"/>
    <rect x="16" y="61" width="1" height="1" fill="#231f20"/>
    <rect x="19" y="61" width="1" height="1" fill="#231f20"/>
    <rect x="22" y="61" width="1" height="1" fill="#231f20"/>
    <rect x="25" y="61" width="1" height="1" fill="#231f20"/>
    <rect x="139" y="61" width="1" height="1" fill="#231f20"/>
    <rect x="0" y="62" width="1" height="1" fill="#231f20"/>
    <rect x="16" y="62" width="1" height="1" fill="#231f20"/>
    <rect x="19" y="62" width="1" height="1" fill="#231f20"/>
    <rect x="22" y="62" width="1" height="1" fill="#231f20"/>
    <rect x="25" y="62" width="1" height="1" fill="#231f20"/>
    <rect x="139" y="62" width="1" height="1" fill="#231f20"/>
    <rect x="0" y="63" width="1" height="1" fill="#231f20"/>
    <rect x="16" y="63" width="1" height="1" fill="#231f20"/>
    <rect x="19" y="63" width="1" height="1" fill="#231f20"/>
    <rect x="22" y="63" width="1" height="1" fill="#231f20"/>
    <rect x="25" y="63" width="1" height="1" fill="#231f20"/>
    <rect x="139" y="63" width="1" height="1" fill="#231f20"/>
    <rect x="0" y="64" width="1" height="1" fill="#231f20"/>
    <rect x="16" y="64" width="1" height="1" fill="#231f20"/>
    <rect x="19" y="64" width="1" height="1" fill="#231f20"/>
    <rect x="22" y="64" width="1" height="1" fill="#231f20"/>
    <rect x="25" y="64" width="1" height="1" fill="#231f20"/>
    <rect x="139" y="64" width="1" height="1" fill="#231f20"/>
    <rect x="0" y="65" width="1" height="1" fill="#231f20"/>
    <rect x="16" y="65" width="1" height="1" fill="#231f20"/>
    <rect x="19" y="65" width="1" height="1" fill="#231f20"/>
    <rect x="22" y="65" width="1" height="1" fill="#231f20"/>
    <rect x="25" y="65" width="1" height="1" fill="#231f20"/>
    <rect x="139" y="65" width="1" height="1" fill="#231f20"/>
    <rect x="0" y="66" width="1" height="1" fill="#231f20"/>
    <rect x="16" y="66" width="1" height="1" fill="#231f20"/>
    <rect x="19" y="66" width="1" height="1" fill="#231f20"/>
    <rect x="22" y="66" width="1" height="1" fill="#231f20"/>
    <rect x="25" y="66" width="1" height="1" fill="#231f20"/>
    <rect x="139" y="66" width="1" height="1" fill="#231f20"/>
    <rect x="0" y="67" width="140" height="1" fill="#231f20"/>
  </g>
</svg>