<?xml version="1.0" encoding="UTF-8"?>
<svg xmlns="http://www.w3.org/2000/svg" viewBox="0 0 173 69" width="173" height="69">
  <!-- Auto-converted from legend-1722.png -->
  <rect x="0" y="0" width="173" height="69" fill="none"/>
  <g fill="#231f20" stroke="none">
    <rect x="0" y="0" width="173" height="1" fill="#231f20"/>
    <rect x="0" y="1" width="1" height="1" fill="#231f20"/>
    <rect x="172" y="1" width="1" height="1" fill="#231f20"/>
    <rect x="0" y="2" width="1" height="1" fill="#231f20"/>
    <rect x="172" y="2" width="1" height="1" fill="#231f20"/>
    <rect x="0" y="3" width="1" height="1" fill="#231f20"/>
    <rect x="172" y="3" width="1" height="1" fill="#231f20"/>
    <rect x="0" y="4" width="1" height="1" fill="#231f20"/>
    <rect x="172" y="4" width="1" height="1" fill="#231f20"/>
    <rect x="0" y="5" width="1" height="1" fill="#231f20"/>
    <rect x="24" y="5" width="9" height="1" fill="#231f20"/>
    <rect x="60" y="5" width="1" height="1" fill="#231f20"/>
    <rect x="96" y="5" width="1" height="1" fill="#231f20"/>
    <rect x="98" y="5" width="1" height="1" fill="#231f20"/>
    <rect x="130" y="5" width="1" height="1" fill="#231f20"/>
    <rect x="133" y="5" width="1" height="1" fill="#231f20"/>
    <rect x="172" y="5" width="1" height="1" fill="#231f20"/>
    <rect x="0" y="6" width="1" height="1" fill="#231f20"/>
    <rect x="24" y="6" width="1" height="1" fill="#231f20"/>
    <rect x="32" y="6" width="1" height="1" fill="#231f20"/>
    <rect x="61" y="6" width="2" height="1" fill="#231f20"/>
    <rect x="96" y="6" width="1" height="1" fill="#231f20"/>
    <rect x="98" y="6" width="1" height="1" fill="#231f20"/>
    <rect x="130" y="6" width="1" height="1" fill="#231f20"/>
    <rect x="133" y="6" width="1" height="1" fill="#231f20"/>
    <rect x="172" y="6" width="1" height="1" fill="#231f20"/>
    <rect x="0" y="7" width="1" height="1" fill="#231f20"/>
    <rect x="24" y="7" width="1" height="1" fill="#231f20"/>
    <rect x="32" y="7" width="1" height="1" fill="#231f20"/>
    <rect x="63" y="7" width="2" height="1" fill="#231f20"/>
    <rect x="95" y="7" width="1" height="1" fill="#231f20"/>
    <rect x="99" y="7" width="1" height="1" fill="#231f20"/>
    <rect x="129" y="7" width="1" height="1" fill="#231f20"/>
    <rect x="134" y="7" width="1" height="1" fill="#231f20"/>
    <rect x="172" y="7" width="1" height="1" fill="#231f20"/>
    <rect x="0" y="8" width="1" height="1" fill="#231f20"/>
    <rect x="24" y="8" width="1" height="1" fill="#231f20"/>
    <rect x="32" y="8" width="1" height="1" fill="#231f20"/>
    <rect x="64" y="8" width="2" height="1" fill="#231f20"/>
    <rect x="95" y="8" width="1" height="1" fill="#231f20"/>
    <rect x="99" y="8" width="1" height="1" fill="#231f20"/>
    <rect x="129" y="8" width="1" height="1" fill="#231f20"/>
    <rect x="134" y="8" width="1" height="1" fill="#231f20"/>
    <rect x="172" y="8" width="1" height="1" fill="#231f20"/>
    <rect x="0" y="9" width="1" height="1" fill="#231f20"/>
    <rect x="24" y="9" width="1" height="1" fill="#231f20"/>
    <rect x="32" y="9" width="1" height="1" fill="#231f20"/>
    <rect x="65" y="9" width="1" height="1" fill="#231f20"/>
    <rect x="94" y="9" width="1" height="1" fill="#231f20"/>
    <rect x="100" y="9" width="1" height="1" fill="#231f20"/>
    <rect x="129" y="9" width="1" height="1" fill="#231f20"/>
    <rect x="134" y="9" width="1" height="1" fill="#231f20"/>
    <rect x="172" y="9" width="1" height="1" fill="#231f20"/>
    <rect x="0" y="10" width="1" height="1" fill="#231f20"/>
    <rect x="24" y="10" width="1" height="1" fill="#231f20"/>
    <rect x="32" y="10" width="1" height="1" fill="#231f20"/>
    <rect x="65" y="10" width="1" height="1" fill="#231f20"/>
    <rect x="94" y="10" width="1" height="1" fill="#231f20"/>
    <rect x="100" y="10" width="1" height="1" fill="#231f20"/>
    <rect x="128" y="10" width="1" height="1" fill="#231f20"/>
    <rect x="135" y="10" width="1" height="1" fill="#231f20"/>
    <rect x="172" y="10" width="1" height="1" fill="#231f20"/>
    <rect x="0" y="11" width="1" height="1" fill="#231f20"/>
    <rect x="24" y="11" width="1" height="1" fill="#231f20"/>
    <rect x="32" y="11" width="1" height="1" fill="#231f20"/>
    <rect x="66" y="11" width="1" height="1" fill="#231f20"/>
    <rect x="93" y="11" width="1" height="1" fill="#231f20"/>
    <rect x="100" y="11" width="1" height="1" fill="#231f20"/>
    <rect x="128" y="11" width="1" height="1" fill="#231f20"/>
    <rect x="135" y="11" width="1" height="1" fill="#231f20"/>
    <rect x="172" y="11" width="1" height="1" fill="#231f20"/>
    <rect x="0" y="12" width="1" height="1" fill="#231f20"/>
    <rect x="24" y="12" width="1" height="1" fill="#231f20"/>
    <rect x="32" y="12" width="1" height="1" fill="#231f20"/>
    <rect x="65" y="12" width="2" height="1" fill="#231f20"/>
    <rect x="93" y="12" width="1" height="1" fill="#231f20"/>
    <rect x="101" y="12" width="1" height="1" fill="#231f20"/>
    <rect x="128" y="12" width="1" height="1" fill="#231f20"/>
    <rect x="135" y="12" width="1" height="1" fill="#231f20"/>
    <rect x="172" y="12" width="1" height="1" fill="#231f20"/>
    <rect x="0" y="13" width="1" height="1" fill="#231f20"/>
    <rect x="24" y="13" width="1" height="1" fill="#231f20"/>
    <rect x="32" y="13" width="1" height="1" fill="#231f20"/>
    <rect x="65" y="13" width="1" height="1" fill="#231f20"/>
    <rect x="93" y="13" width="1" height="1" fill="#231f20"/>
    <rect x="101" y="13" width="1" height="1" fill="#231f20"/>
    <rect x="127" y="13" width="1" height="1" fill="#231f20"/>
    <rect x="136" y="13" width="1" height="1" fill="#231f20"/>
    <rect x="172" y="13" width="1" height="1" fill="#231f20"/>
    <rect x="0" y="14" width="1" height="1" fill="#231f20"/>
    <rect x="24" y="14" width="1" height="1" fill="#231f20"/>
    <rect x="32" y="14" width="1" height="1" fill="#231f20"/>
    <rect x="64" y="14" width="2" height="1" fill="#231f20"/>
    <rect x="92" y="14" width="1" height="1" fill="#231f20"/>
    <rect x="102" y="14" width="1" height="1" fill="#231f20"/>
    <rect x="127" y="14" width="1" height="1" fill="#231f20"/>
    <rect x="136" y="14" width="1" height="1" fill="#231f20"/>
    <rect x="172" y="14" width="1" height="1" fill="#231f20"/>
    <rect x="0" y="15" width="1" height="1" fill="#231f20"/>
    <rect x="24" y="15" width="1" height="1" fill="#231f20"/>
    <rect x="32" y="15" width="1" height="1" fill="#231f20"/>
    <rect x="63" y="15" width="2" height="1" fill="#231f20"/>
    <rect x="92" y="15" width="1" height="1" fill="#231f20"/>
    <rect x="102" y="15" width="1" height="1" fill="#231f20"/>
    <rect x="127" y="15" width="1" height="1" fill="#231f20"/>
    <rect x="136" y="15" width="1" height="1" fill="#231f20"/>
    <rect x="172" y="15" width="1" height="1" fill="#231f20"/>
    <rect x="0" y="16" width="1" height="1" fill="#231f20"/>
    <rect x="24" y="16" width="1" height="1" fill="#231f20"/>
    <rect x="32" y="16" width="1" height="1" fill="#231f20"/>
    <rect x="61" y="16" width="3" height="1" fill="#231f20"/>
    <rect x="91" y="16" width="1" height="1" fill="#231f20"/>
    <rect x="103" y="16" width="1" height="1" fill="#231f20"/>
    <rect x="126" y="16" width="1" height="1" fill="#231f20"/>
    <rect x="137" y="16" width="1" height="1" fill="#231f20"/>
    <rect x="172" y="16" width="1" height="1" fill="#231f20"/>
    <rect x="0" y="17" width="1" height="1" fill="#231f20"/>
    <rect x="24" y="17" width="9" height="1" fill="#231f20"/>
    <rect x="60" y="17" width="1" height="1" fill="#231f20"/>
    <rect x="91" y="17" width="1" height="1" fill="#231f20"/>
    <rect x="103" y="17" width="1" height="1" fill="#231f20"/>
    <rect x="126" y="17" width="1" height="1" fill="#231f20"/>
    <rect x="137" y="17" width="1" height="1" fill="#231f20"/>
    <rect x="172" y="17" width="1" height="1" fill="#231f20"/>
    <rect x="0" y="18" width="1" height="1" fill="#231f20"/>
    <rect x="172" y="18" width="1" height="1" fill="#231f20"/>
    <rect x="0" y="19" width="1" height="1" fill="#231f20"/>
    <rect x="172" y="19" width="1" height="1" fill="#231f20"/>
    <rect x="0" y="20" width="1" height="1" fill="#231f20"/>
    <rect x="172" y="20" width="1" height="1" fill="#231f20"/>
    <rect x="0" y="21" width="1" height="1" fill="#231f20"/>
    <rect x="172" y="21" width="1" height="1" fill="#231f20"/>
    <rect x="0" y="22" width="1" height="1" fill="#231f20"/>
    <rect x="172" y="22" width="1" height="1" fill="#231f20"/>
    <rect x="0" y="23" width="173" height="1" fill="#231f20"/>
    <rect x="0" y="24" width="1" height="1" fill="#231f20"/>
    <rect x="172" y="24" width="1" height="1" fill="#231f20"/>
    <rect x="0" y="25" width="1" height="1" fill="#231f20"/>
    <rect x="172" y="25" width="1" height="1" fill="#231f20"/>
    <rect x="0" y="26" width="1" height="1" fill="#231f20"/>
    <rect x="172" y="26" width="1" height="1" fill="#231f20"/>
    <rect x="0" y="27" width="1" height="1" fill="#231f20"/>
    <rect x="172" y="27" width="1" height="1" fill="#231f20"/>
    <rect x="0" y="28" width="1" height="1" fill="#231f20"/>
    <rect x="38" y="28" width="1" height="1" fill="#231f20"/>
    <rect x="41" y="28" width="1" height="1" fill="#231f20"/>
    <rect x="73" y="28" width="1" height="1" fill="#231f20"/>
    <rect x="76" y="28" width="1" height="1" fill="#231f20"/>
    <rect x="106" y="28" width="1" height="1" fill="#231f20"/>
    <rect x="142" y="28" width="9" height="1" fill="#231f20"/>
    <rect x="172" y="28" width="1" height="1" fill="#231f20"/>
    <rect x="0" y="29" width="1" height="1" fill="#231f20"/>
    <rect x="38" y="29" width="1" height="1" fill="#231f20"/>
    <rect x="41" y="29" width="1" height="1" fill="#231f20"/>
    <rect x="73" y="29" width="1" height="1" fill="#231f20"/>
    <rect x="76" y="29" width="1" height="1" fill="#231f20"/>
    <rect x="107" y="29" width="3" height="1" fill="#231f20"/>
    <rect x="142" y="29" width="1" height="1" fill="#231f20"/>
    <rect x="150" y="29" width="1" height="1" fill="#231f20"/>
    <rect x="172" y="29" width="1" height="1" fill="#231f20"/>
    <rect x="0" y="30" width="1" height="1" fill="#231f20"/>
    <rect x="37" y="30" width="1" height="1" fill="#231f20"/>
    <rect x="42" y="30" width="1" height="1" fill="#231f20"/>
    <rect x="72" y="30" width="1" height="1" fill="#231f20"/>
    <rect x="77" y="30" width="1" height="1" fill="#231f20"/>
    <rect x="109" y="30" width="2" height="1" fill="#231f20"/>
    <rect x="142" y="30" width="1" height="1" fill="#231f20"/>
    <rect x="150" y="30" width="1" height="1" fill="#231f20"/>
    <rect x="172" y="30" width="1" height="1" fill="#231f20"/>
    <rect x="0" y="31" width="1" height="1" fill="#231f20"/>
    <rect x="37" y="31" width="1" height="1" fill="#231f20"/>
    <rect x="42" y="31" width="1" height="1" fill="#231f20"/>
    <rect x="72" y="31" width="1" height="1" fill="#231f20"/>
    <rect x="77" y="31" width="1" height="1" fill="#231f20"/>
    <rect x="111" y="31" width="1" height="1" fill="#231f20"/>
    <rect x="142" y="31" width="1" height="1" fill="#231f20"/>
    <rect x="150" y="31" width="1" height="1" fill="#231f20"/>
    <rect x="172" y="31" width="1" height="1" fill="#231f20"/>
    <rect x="0" y="32" width="1" height="1" fill="#231f20"/>
    <rect x="37" y="32" width="1" height="1" fill="#231f20"/>
    <rect x="42" y="32" width="1" height="1" fill="#231f20"/>
    <rect x="71" y="32" width="1" height="1" fill="#231f20"/>
    <rect x="77" y="32" width="1" height="1" fill="#231f20"/>
    <rect x="111" y="32" width="2" height="1" fill="#231f20"/>
    <rect x="142" y="32" width="1" height="1" fill="#231f20"/>
    <rect x="150" y="32" width="1" height="1" fill="#231f20"/>
    <rect x="172" y="32" width="1" height="1" fill="#231f20"/>
    <rect x="0" y="33" width="1" height="1" fill="#231f20"/>
    <rect x="36" y="33" width="1" height="1" fill="#231f20"/>
    <rect x="43" y="33" width="1" height="1" fill="#231f20"/>
    <rect x="71" y="33" width="1" height="1" fill="#231f20"/>
    <rect x="78" y="33" width="1" height="1" fill="#231f20"/>
    <rect x="112" y="33" width="1" height="1" fill="#231f20"/>
    <rect x="142" y="33" width="1" height="1" fill="#231f20"/>
    <rect x="150" y="33" width="1" height="1" fill="#231f20"/>
    <rect x="172" y="33" width="1" height="1" fill="#231f20"/>
    <rect x="0" y="34" width="1" height="1" fill="#231f20"/>
    <rect x="36" y="34" width="1" height="1" fill="#231f20"/>
    <rect x="43" y="34" width="1" height="1" fill="#231f20"/>
    <rect x="70" y="34" width="1" height="1" fill="#231f20"/>
    <rect x="78" y="34" width="1" height="1" fill="#231f20"/>
    <rect x="112" y="34" width="1" height="1" fill="#231f20"/>
    <rect x="142" y="34" width="1" height="1" fill="#231f20"/>
    <rect x="150" y="34" width="1" height="1" fill="#231f20"/>
    <rect x="172" y="34" width="1" height="1" fill="#231f20"/>
    <rect x="0" y="35" width="1" height="1" fill="#231f20"/>
    <rect x="36" y="35" width="1" height="1" fill="#231f20"/>
    <rect x="43" y="35" width="1" height="1" fill="#231f20"/>
    <rect x="70" y="35" width="1" height="1" fill="#231f20"/>
    <rect x="78" y="35" width="1" height="1" fill="#231f20"/>
    <rect x="112" y="35" width="1" height="1" fill="#231f20"/>
    <rect x="142" y="35" width="1" height="1" fill="#231f20"/>
    <rect x="150" y="35" width="1" height="1" fill="#231f20"/>
    <rect x="172" y="35" width="1" height="1" fill="#231f20"/>
    <rect x="0" y="36" width="1" height="1" fill="#231f20"/>
    <rect x="35" y="36" width="1" height="1" fill="#231f20"/>
    <rect x="44" y="36" width="1" height="1" fill="#231f20"/>
    <rect x="70" y="36" width="1" height="1" fill="#231f20"/>
    <rect x="79" y="36" width="1" height="1" fill="#231f20"/>
    <rect x="112" y="36" width="1" height="1" fill="#231f20"/>
    <rect x="142" y="36" width="1" height="1" fill="#231f20"/>
    <rect x="150" y="36" width="1" height="1" fill="#231f20"/>
    <rect x="172" y="36" width="1" height="1" fill="#231f20"/>
    <rect x="0" y="37" width="1" height="1" fill="#231f20"/>
    <rect x="35" y="37" width="1" height="1" fill="#231f20"/>
    <rect x="44" y="37" width="1" height="1" fill="#231f20"/>
    <rect x="69" y="37" width="1" height="1" fill="#231f20"/>
    <rect x="79" y="37" width="1" height="1" fill="#231f20"/>
    <rect x="111" y="37" width="1" height="1" fill="#231f20"/>
    <rect x="142" y="37" width="1" height="1" fill="#231f20"/>
    <rect x="150" y="37" width="1" height="1" fill="#231f20"/>
    <rect x="172" y="37" width="1" height="1" fill="#231f20"/>
    <rect x="0" y="38" width="1" height="1" fill="#231f20"/>
    <rect x="35" y="38" width="1" height="1" fill="#231f20"/>
    <rect x="44" y="38" width="1" height="1" fill="#231f20"/>
    <rect x="69" y="38" width="1" height="1" fill="#231f20"/>
    <rect x="79" y="38" width="1" height="1" fill="#231f20"/>
    <rect x="110" y="38" width="2" height="1" fill="#231f20"/>
    <rect x="142" y="38" width="1" height="1" fill="#231f20"/>
    <rect x="150" y="38" width="1" height="1" fill="#231f20"/>
    <rect x="172" y="38" width="1" height="1" fill="#231f20"/>
    <rect x="0" y="39" width="1" height="1" fill="#231f20"/>
    <rect x="34" y="39" width="1" height="1" fill="#231f20"/>
    <rect x="45" y="39" width="1" height="1" fill="#231f20"/>
    <rect x="68" y="39" width="1" height="1" fill="#231f20"/>
    <rect x="80" y="39" width="1" height="1" fill="#231f20"/>
    <rect x="107" y="39" width="3" height="1" fill="#231f20"/>
    <rect x="142" y="39" width="1" height="1" fill="#231f20"/>
    <rect x="150" y="39" width="1" height="1" fill="#231f20"/>
    <rect x="172" y="39" width="1" height="1" fill="#231f20"/>
    <rect x="0" y="40" width="1" height="1" fill="#231f20"/>
    <rect x="34" y="40" width="1" height="1" fill="#231f20"/>
    <rect x="45" y="40" width="1" height="1" fill="#231f20"/>
    <rect x="68" y="40" width="1" height="1" fill="#231f20"/>
    <rect x="80" y="40" width="1" height="1" fill="#231f20"/>
    <rect x="106" y="40" width="1" height="1" fill="#231f20"/>
    <rect x="142" y="40" width="9" height="1" fill="#231f20"/>
    <rect x="172" y="40" width="1" height="1" fill="#231f20"/>
    <rect x="0" y="41" width="1" height="1" fill="#231f20"/>
    <rect x="172" y="41" width="1" height="1" fill="#231f20"/>
    <rect x="0" y="42" width="1" height="1" fill="#231f20"/>
    <rect x="172" y="42" width="1" height="1" fill="#231f20"/>
    <rect x="0" y="43" width="1" height="1" fill="#231f20"/>
    <rect x="172" y="43" width="1" height="1" fill="#231f20"/>
    <rect x="0" y="44" width="1" height="1" fill="#231f20"/>
    <rect x="172" y="44" width="1" height="1" fill="#231f20"/>
    <rect x="0" y="45" width="173" height="1" fill="#231f20"/>
    <rect x="0" y="46" width="1" height="1" fill="#231f20"/>
    <rect x="172" y="46" width="1" height="1" fill="#231f20"/>
    <rect x="0" y="47" width="1" height="1" fill="#231f20"/>
    <rect x="172" y="47" width="1" height="1" fill="#231f20"/>
    <rect x="0" y="48" width="1" height="1" fill="#231f20"/>
    <rect x="172" y="48" width="1" height="1" fill="#231f20"/>
    <rect x="0" y="49" width="1" height="1" fill="#231f20"/>
    <rect x="172" y="49" width="1" height="1" fill="#231f20"/>
    <rect x="0" y="50" width="1" height="1" fill="#231f20"/>
    <rect x="172" y="50" width="1" height="1" fill="#231f20"/>
    <rect x="0" y="51" width="1" height="1" fill="#231f20"/>
    <rect x="24" y="51" width="9" height="1" fill="#231f20"/>
    <rect x="60" y="51" width="1" height="1" fill="#231f20"/>
    <rect x="96" y="51" width="1" height="1" fill="#231f20"/>
    <rect x="98" y="51" width="1" height="1" fill="#231f20"/>
    <rect x="130" y="51" width="1" height="1" fill="#231f20"/>
    <rect x="133" y="51" width="1" height="1" fill="#231f20"/>
    <rect x="172" y="51" width="1" height="1" fill="#231f20"/>
    <rect x="0" y="52" width="1" height="1" fill="#231f20"/>
    <rect x="24" y="52" width="1" height="1" fill="#231f20"/>
    <rect x="32" y="52" width="1" height="1" fill="#231f20"/>
    <rect x="61" y="52" width="3" height="1" fill="#231f20"/>
    <rect x="96" y="52" width="1" height="1" fill="#231f20"/>
    <rect x="98" y="52" width="1" height="1" fill="#231f20"/>
    <rect x="130" y="52" width="1" height="1" fill="#231f20"/>
    <rect x="133" y="52" width="1" height="1" fill="#231f20"/>
    <rect x="172" y="52" width="1" height="1" fill="#231f20"/>
    <rect x="0" y="53" width="1" height="1" fill="#231f20"/>
    <rect x="24" y="53" width="1" height="1" fill="#231f20"/>
    <rect x="32" y="53" width="1" height="1" fill="#231f20"/>
    <rect x="63" y="53" width="2" height="1" fill="#231f20"/>
    <rect x="95" y="53" width="1" height="1" fill="#231f20"/>
    <rect x="99" y="53" width="1" height="1" fill="#231f20"/>
    <rect x="129" y="53" width="1" height="1" fill="#231f20"/>
    <rect x="134" y="53" width="1" height="1" fill="#231f20"/>
    <rect x="172" y="53" width="1" height="1" fill="#231f20"/>
    <rect x="0" y="54" width="1" height="1" fill="#231f20"/>
    <rect x="24" y="54" width="1" height="1" fill="#231f20"/>
    <rect x="32" y="54" width="1" height="1" fill="#231f20"/>
    <rect x="64" y="54" width="2" height="1" fill="#231f20"/>
    <rect x="95" y="54" width="1" height="1" fill="#231f20"/>
    <rect x="99" y="54" width="1" height="1" fill="#231f20"/>
    <rect x="129" y="54" width="1" height="1" fill="#231f20"/>
    <rect x="134" y="54" width="1" height="1" fill="#231f20"/>
    <rect x="172" y="54" width="1" height="1" fill="#231f20"/>
    <rect x="0" y="55" width="1" height="1" fill="#231f20"/>
    <rect x="24" y="55" width="1" height="1" fill="#231f20"/>
    <rect x="32" y="55" width="1" height="1" fill="#231f20"/>
    <rect x="65" y="55" width="1" height="1" fill="#231f20"/>
    <rect x="94" y="55" width="1" height="1" fill="#231f20"/>
    <rect x="100" y="55" width="1" height="1" fill="#231f20"/>
    <rect x="129" y="55" width="1" height="1" fill="#231f20"/>
    <rect x="134" y="55" width="1" height="1" fill="#231f20"/>
    <rect x="172" y="55" width="1" height="1" fill="#231f20"/>
    <rect x="0" y="56" width="1" height="1" fill="#231f20"/>
    <rect x="24" y="56" width="1" height="1" fill="#231f20"/>
    <rect x="32" y="56" width="1" height="1" fill="#231f20"/>
    <rect x="65" y="56" width="2" height="1" fill="#231f20"/>
    <rect x="94" y="56" width="1" height="1" fill="#231f20"/>
    <rect x="100" y="56" width="1" height="1" fill="#231f20"/>
    <rect x="128" y="56" width="1" height="1" fill="#231f20"/>
    <rect x="135" y="56" width="1" height="1" fill="#231f20"/>
    <rect x="172" y="56" width="1" height="1" fill="#231f20"/>
    <rect x="0" y="57" width="1" height="1" fill="#231f20"/>
    <rect x="24" y="57" width="1" height="1" fill="#231f20"/>
    <rect x="32" y="57" width="1" height="1" fill="#231f20"/>
    <rect x="66" y="57" width="1" height="1" fill="#231f20"/>
    <rect x="93" y="57" width="1" height="1" fill="#231f20"/>
    <rect x="100" y="57" width="1" height="1" fill="#231f20"/>
    <rect x="128" y="57" width="1" height="1" fill="#231f20"/>
    <rect x="135" y="57" width="1" height="1" fill="#231f20"/>
    <rect x="172" y="57" width="1" height="1" fill="#231f20"/>
    <rect x="0" y="58" width="1" height="1" fill="#231f20"/>
    <rect x="24" y="58" width="1" height="1" fill="#231f20"/>
    <rect x="32" y="58" width="1" height="1" fill="#231f20"/>
    <rect x="65" y="58" width="2" height="1" fill="#231f20"/>
    <rect x="93" y="58" width="1" height="1" fill="#231f20"/>
    <rect x="101" y="58" width="1" height="1" fill="#231f20"/>
    <rect x="128" y="58" width="1" height="1" fill="#231f20"/>
    <rect x="135" y="58" width="1" height="1" fill="#231f20"/>
    <rect x="172" y="58" width="1" height="1" fill="#231f20"/>
    <rect x="0" y="59" width="1" height="1" fill="#231f20"/>
    <rect x="24" y="59" width="1" height="1" fill="#231f20"/>
    <rect x="32" y="59" width="1" height="1" fill="#231f20"/>
    <rect x="65" y="59" width="1" height="1" fill="#231f20"/>
    <rect x="93" y="59" width="1" height="1" fill="#231f20"/>
    <rect x="101" y="59" width="1" height="1" fill="#231f20"/>
    <rect x="127" y="59" width="1" height="1" fill="#231f20"/>
    <rect x="136" y="59" width="1" height="1" fill="#231f20"/>
    <rect x="172" y="59" width="1" height="1" fill="#231f20"/>
    <rect x="0" y="60" width="1" height="1" fill="#231f20"/>
    <rect x="24" y="60" width="1" height="1" fill="#231f20"/>
    <rect x="32" y="60" width="1" height="1" fill="#231f20"/>
    <rect x="64" y="60" width="2" height="1" fill="#231f20"/>
    <rect x="92" y="60" width="1" height="1" fill="#231f20"/>
    <rect x="102" y="60" width="1" height="1" fill="#231f20"/>
    <rect x="127" y="60" width="1" height="1" fill="#231f20"/>
    <rect x="136" y="60" width="1" height="1" fill="#231f20"/>
    <rect x="172" y="60" width="1" height="1" fill="#231f20"/>
    <rect x="0" y="61" width="1" height="1" fill="#231f20"/>
    <rect x="24" y="61" width="1" height="1" fill="#231f20"/>
    <rect x="32" y="61" width="1" height="1" fill="#231f20"/>
    <rect x="63" y="61" width="2" height="1" fill="#231f20"/>
    <rect x="92" y="61" width="1" height="1" fill="#231f20"/>
    <rect x="102" y="61" width="1" height="1" fill="#231f20"/>
    <rect x="127" y="61" width="1" height="1" fill="#231f20"/>
    <rect x="136" y="61" width="1" height="1" fill="#231f20"/>
    <rect x="172" y="61" width="1" height="1" fill="#231f20"/>
    <rect x="0" y="62" width="1" height="1" fill="#231f20"/>
    <rect x="24" y="62" width="1" height="1" fill="#231f20"/>
    <rect x="32" y="62" width="1" height="1" fill="#231f20"/>
    <rect x="61" y="62" width="2" height="1" fill="#231f20"/>
    <rect x="91" y="62" width="1" height="1" fill="#231f20"/>
    <rect x="103" y="62" width="1" height="1" fill="#231f20"/>
    <rect x="126" y="62" width="1" height="1" fill="#231f20"/>
    <rect x="137" y="62" width="1" height="1" fill="#231f20"/>
    <rect x="172" y="62" width="1" height="1" fill="#231f20"/>
    <rect x="0" y="63" width="1" height="1" fill="#231f20"/>
    <rect x="24" y="63" width="9" height="1" fill="#231f20"/>
    <rect x="60" y="63" width="1" height="1" fill="#231f20"/>
    <rect x="91" y="63" width="1" height="1" fill="#231f20"/>
    <rect x="103" y="63" width="1" height="1" fill="#231f20"/>
    <rect x="126" y="63" width="1" height="1" fill="#231f20"/>
    <rect x="137" y="63" width="1" height="1" fill="#231f20"/>
    <rect x="172" y="63" width="1" height="1" fill="#231f20"/>
    <rect x="0" y="64" width="1" height="1" fill="#231f20"/>
    <rect x="172" y="64" width="1" height="1" fill="#231f20"/>
    <rect x="0" y="65" width="1" height="1" fill="#231f20"/>
    <rect x="172" y="65" width="1" height="1" fill="#231f20"/>
    <rect x="0" y="66" width="1" height="1" fill="#231f20"/>
    <rect x="172" y="66" width="1" height="1" fill="#231f20"/>
    <rect x="0" y="67" width="1" height="1" fill="#231f20"/>
    <rect x="172" y="67" width="1" height="1" fill="#231f20"/>
    <rect x="0" y="68" width="173" height="1" fill="#231f20"/>
  </g>
</svg>