<?xml version="1.0" encoding="UTF-8"?>
<svg xmlns="http://www.w3.org/2000/svg" viewBox="0 0 124 83" width="124" height="83">
  <!-- Auto-converted from legend-432.png -->
  <rect x="0" y="0" width="124" height="83" fill="none"/>
  <g fill="#231f20" stroke="none">
    <rect x="0" y="0" width="124" height="1" fill="#231f20"/>
    <rect x="0" y="1" width="1" height="1" fill="#231f20"/>
    <rect x="123" y="1" width="1" height="1" fill="#231f20"/>
    <rect x="0" y="2" width="1" height="1" fill="#231f20"/>
    <rect x="123" y="2" width="1" height="1" fill="#231f20"/>
    <rect x="0" y="3" width="1" height="1" fill="#231f20"/>
    <rect x="123" y="3" width="1" height="1" fill="#231f20"/>
    <rect x="0" y="4" width="1" height="1" fill="#231f20"/>
    <rect x="123" y="4" width="1" height="1" fill="#231f20"/>
    <rect x="0" y="5" width="1" height="1" fill="#231f20"/>
    <rect x="70" y="5" width="11" height="1" fill="#231f20"/>
    <rect x="123" y="5" width="1" height="1" fill="#231f20"/>
    <rect x="0" y="6" width="1" height="1" fill="#231f20"/>
    <rect x="64" y="6" width="22" height="1" fill="#231f20"/>
    <rect x="123" y="6" width="1" height="1" fill="#231f20"/>
    <rect x="0" y="7" width="1" height="1" fill="#231f20"/>
    <rect x="58" y="7" width="32" height="1" fill="#231f20"/>
    <rect x="123" y="7" width="1" height="1" fill="#231f20"/>
    <rect x="0" y="8" width="1" height="1" fill="#231f20"/>
    <rect x="56" y="8" width="16" height="1" fill="#231f20"/>
    <rect x="77" y="8" width="3" height="1" fill="#231f20"/>
    <rect x="81" y="8" width="12" height="1" fill="#231f20"/>
    <rect x="123" y="8" width="1" height="1" fill="#231f20"/>
    <rect x="0" y="9" width="1" height="1" fill="#231f20"/>
    <rect x="52" y="9" width="12" height="1" fill="#231f20"/>
    <rect x="68" y="9" width="3" height="1" fill="#231f20"/>
    <rect x="77" y="9" width="3" height="1" fill="#231f20"/>
    <rect x="86" y="9" width="8" height="1" fill="#231f20"/>
    <rect x="123" y="9" width="1" height="1" fill="#231f20"/>
    <rect x="0" y="10" width="1" height="1" fill="#231f20"/>
    <rect x="51" y="10" width="10" height="1" fill="#231f20"/>
    <rect x="68" y="10" width="3" height="1" fill="#231f20"/>
    <rect x="76" y="10" width="3" height="1" fill="#231f20"/>
    <rect x="85" y="10" width="12" height="1" fill="#231f20"/>
    <rect x="123" y="10" width="1" height="1" fill="#231f20"/>
    <rect x="0" y="11" width="1" height="1" fill="#231f20"/>
    <rect x="49" y="11" width="7" height="1" fill="#231f20"/>
    <rect x="58" y="11" width="3" height="1" fill="#231f20"/>
    <rect x="68" y="11" width="3" height="1" fill="#231f20"/>
    <rect x="76" y="11" width="3" height="1" fill="#231f20"/>
    <rect x="85" y="11" width="3" height="1" fill="#231f20"/>
    <rect x="91" y="11" width="7" height="1" fill="#231f20"/>
    <rect x="123" y="11" width="1" height="1" fill="#231f20"/>
    <rect x="0" y="12" width="1" height="1" fill="#231f20"/>
    <rect x="47" y="12" width="7" height="1" fill="#231f20"/>
    <rect x="58" y="12" width="3" height="1" fill="#231f20"/>
    <rect x="67" y="12" width="3" height="1" fill="#231f20"/>
    <rect x="76" y="12" width="3" height="1" fill="#231f20"/>
    <rect x="85" y="12" width="3" height="1" fill="#231f20"/>
    <rect x="93" y="12" width="6" height="1" fill="#231f20"/>
    <rect x="123" y="12" width="1" height="1" fill="#231f20"/>
    <rect x="0" y="13" width="1" height="1" fill="#231f20"/>
    <rect x="45" y="13" width="7" height="1" fill="#231f20"/>
    <rect x="57" y="13" width="3" height="1" fill="#231f20"/>
    <rect x="67" y="13" width="3" height="1" fill="#231f20"/>
    <rect x="75" y="13" width="3" height="1" fill="#231f20"/>
    <rect x="84" y="13" width="3" height="1" fill="#231f20"/>
    <rect x="92" y="13" width="8" height="1" fill="#231f20"/>
    <rect x="123" y="13" width="1" height="1" fill="#231f20"/>
    <rect x="0" y="14" width="1" height="1" fill="#231f20"/>
    <rect x="43" y="14" width="8" height="1" fill="#231f20"/>
    <rect x="57" y="14" width="3" height="1" fill="#231f20"/>
    <rect x="66" y="14" width="3" height="1" fill="#231f20"/>
    <rect x="75" y="14" width="3" height="1" fill="#231f20"/>
    <rect x="84" y="14" width="3" height="1" fill="#231f20"/>
    <rect x="92" y="14" width="3" height="1" fill="#231f20"/>
    <rect x="96" y="14" width="5" height="1" fill="#231f20"/>
    <rect x="123" y="14" width="1" height="1" fill="#231f20"/>
    <rect x="0" y="15" width="1" height="1" fill="#231f20"/>
    <rect x="41" y="15" width="6" height="1" fill="#231f20"/>
    <rect x="48" y="15" width="3" height="1" fill="#231f20"/>
    <rect x="56" y="15" width="3" height="1" fill="#231f20"/>
    <rect x="66" y="15" width="3" height="1" fill="#231f20"/>
    <rect x="75" y="15" width="3" height="1" fill="#231f20"/>
    <rect x="83" y="15" width="3" height="1" fill="#231f20"/>
    <rect x="92" y="15" width="3" height="1" fill="#231f20"/>
    <rect x="97" y="15" width="5" height="1" fill="#231f20"/>
    <rect x="123" y="15" width="1" height="1" fill="#231f20"/>
    <rect x="0" y="16" width="1" height="1" fill="#231f20"/>
    <rect x="39" y="16" width="6" height="1" fill="#231f20"/>
    <rect x="48" y="16" width="3" height="1" fill="#231f20"/>
    <rect x="56" y="16" width="3" height="1" fill="#231f20"/>
    <rect x="66" y="16" width="3" height="1" fill="#231f20"/>
    <rect x="74" y="16" width="3" height="1" fill="#231f20"/>
    <rect x="83" y="16" width="3" height="1" fill="#231f20"/>
    <rect x="91" y="16" width="3" height="1" fill="#231f20"/>
    <rect x="99" y="16" width="3" height="1" fill="#231f20"/>
    <rect x="123" y="16" width="1" height="1" fill="#231f20"/>
    <rect x="0" y="17" width="1" height="1" fill="#231f20"/>
    <rect x="38" y="17" width="5" height="1" fill="#231f20"/>
    <rect x="47" y="17" width="3" height="1" fill="#231f20"/>
    <rect x="56" y="17" width="3" height="1" fill="#231f20"/>
    <rect x="65" y="17" width="3" height="1" fill="#231f20"/>
    <rect x="74" y="17" width="3" height="1" fill="#231f20"/>
    <rect x="83" y="17" width="3" height="1" fill="#231f20"/>
    <rect x="91" y="17" width="3" height="1" fill="#231f20"/>
    <rect x="100" y="17" width="3" height="1" fill="#231f20"/>
    <rect x="123" y="17" width="1" height="1" fill="#231f20"/>
    <rect x="0" y="18" width="1" height="1" fill="#231f20"/>
    <rect x="37" y="18" width="4" height="1" fill="#231f20"/>
    <rect x="47" y="18" width="3" height="1" fill="#231f20"/>
    <rect x="55" y="18" width="3" height="1" fill="#231f20"/>
    <rect x="65" y="18" width="3" height="1" fill="#231f20"/>
    <rect x="73" y="18" width="3" height="1" fill="#231f20"/>
    <rect x="82" y="18" width="3" height="1" fill="#231f20"/>
    <rect x="90" y="18" width="3" height="1" fill="#231f20"/>
    <rect x="100" y="18" width="4" height="1" fill="#231f20"/>
    <rect x="123" y="18" width="1" height="1" fill="#231f20"/>
    <rect x="0" y="19" width="1" height="1" fill="#231f20"/>
    <rect x="36" y="19" width="5" height="1" fill="#231f20"/>
    <rect x="46" y="19" width="3" height="1" fill="#231f20"/>
    <rect x="55" y="19" width="3" height="1" fill="#231f20"/>
    <rect x="65" y="19" width="3" height="1" fill="#231f20"/>
    <rect x="73" y="19" width="3" height="1" fill="#231f20"/>
    <rect x="82" y="19" width="3" height="1" fill="#231f20"/>
    <rect x="90" y="19" width="3" height="1" fill="#231f20"/>
    <rect x="99" y="19" width="6" height="1" fill="#231f20"/>
    <rect x="123" y="19" width="1" height="1" fill="#231f20"/>
    <rect x="0" y="20" width="1" height="1" fill="#231f20"/>
    <rect x="34" y="20" width="6" height="1" fill="#231f20"/>
    <rect x="46" y="20" width="3" height="1" fill="#231f20"/>
    <rect x="55" y="20" width="3" height="1" fill="#231f20"/>
    <rect x="64" y="20" width="3" height="1" fill="#231f20"/>
    <rect x="73" y="20" width="3" height="1" fill="#231f20"/>
    <rect x="82" y="20" width="3" height="1" fill="#231f20"/>
    <rect x="90" y="20" width="3" height="1" fill="#231f20"/>
    <rect x="99" y="20" width="6" height="1" fill="#231f20"/>
    <rect x="123" y="20" width="1" height="1" fill="#231f20"/>
    <rect x="0" y="21" width="1" height="1" fill="#231f20"/>
    <rect x="33" y="21" width="7" height="1" fill="#231f20"/>
    <rect x="46" y="21" width="3" height="1" fill="#231f20"/>
    <rect x="54" y="21" width="3" height="1" fill="#231f20"/>
    <rect x="64" y="21" width="3" height="1" fill="#231f20"/>
    <rect x="72" y="21" width="3" height="1" fill="#231f20"/>
    <rect x="81" y="21" width="3" height="1" fill="#231f20"/>
    <rect x="89" y="21" width="3" height="1" fill="#231f20"/>
    <rect x="99" y="21" width="6" height="1" fill="#231f20"/>
    <rect x="123" y="21" width="1" height="1" fill="#231f20"/>
    <rect x="0" y="22" width="1" height="1" fill="#231f20"/>
    <rect x="32" y="22" width="4" height="1" fill="#231f20"/>
    <rect x="37" y="22" width="3" height="1" fill="#231f20"/>
    <rect x="45" y="22" width="3" height="1" fill="#231f20"/>
    <rect x="54" y="22" width="3" height="1" fill="#231f20"/>
    <rect x="63" y="22" width="3" height="1" fill="#231f20"/>
    <rect x="72" y="22" width="3" height="1" fill="#231f20"/>
    <rect x="81" y="22" width="3" height="1" fill="#231f20"/>
    <rect x="89" y="22" width="3" height="1" fill="#231f20"/>
    <rect x="98" y="22" width="3" height="1" fill="#231f20"/>
    <rect x="103" y="22" width="3" height="1" fill="#231f20"/>
    <rect x="123" y="22" width="1" height="1" fill="#231f20"/>
    <rect x="0" y="23" width="1" height="1" fill="#231f20"/>
    <rect x="31" y="23" width="4" height="1" fill="#231f20"/>
    <rect x="36" y="23" width="3" height="1" fill="#231f20"/>
    <rect x="45" y="23" width="3" height="1" fill="#231f20"/>
    <rect x="53" y="23" width="3" height="1" fill="#231f20"/>
    <rect x="63" y="23" width="3" height="1" fill="#231f20"/>
    <rect x="72" y="23" width="3" height="1" fill="#231f20"/>
    <rect x="80" y="23" width="3" height="1" fill="#231f20"/>
    <rect x="89" y="23" width="3" height="1" fill="#231f20"/>
    <rect x="98" y="23" width="3" height="1" fill="#231f20"/>
    <rect x="103" y="23" width="3" height="1" fill="#231f20"/>
    <rect x="123" y="23" width="1" height="1" fill="#231f20"/>
    <rect x="0" y="24" width="1" height="1" fill="#231f20"/>
    <rect x="30" y="24" width="4" height="1" fill="#231f20"/>
    <rect x="36" y="24" width="3" height="1" fill="#231f20"/>
    <rect x="45" y="24" width="3" height="1" fill="#231f20"/>
    <rect x="53" y="24" width="3" height="1" fill="#231f20"/>
    <rect x="63" y="24" width="3" height="1" fill="#231f20"/>
    <rect x="71" y="24" width="3" height="1" fill="#231f20"/>
    <rect x="80" y="24" width="3" height="1" fill="#231f20"/>
    <rect x="88" y="24" width="3" height="1" fill="#231f20"/>
    <rect x="97" y="24" width="3" height="1" fill="#231f20"/>
    <rect x="103" y="24" width="4" height="1" fill="#231f20"/>
    <rect x="123" y="24" width="1" height="1" fill="#231f20"/>
    <rect x="0" y="25" width="1" height="1" fill="#231f20"/>
    <rect x="29" y="25" width="4" height="1" fill="#231f20"/>
    <rect x="35" y="25" width="3" height="1" fill="#231f20"/>
    <rect x="44" y="25" width="3" height="1" fill="#231f20"/>
    <rect x="53" y="25" width="3" height="1" fill="#231f20"/>
    <rect x="62" y="25" width="3" height="1" fill="#231f20"/>
    <rect x="71" y="25" width="3" height="1" fill="#231f20"/>
    <rect x="80" y="25" width="3" height="1" fill="#231f20"/>
    <rect x="88" y="25" width="3" height="1" fill="#231f20"/>
    <rect x="97" y="25" width="3" height="1" fill="#231f20"/>
    <rect x="103" y="25" width="4" height="1" fill="#231f20"/>
    <rect x="123" y="25" width="1" height="1" fill="#231f20"/>
    <rect x="0" y="26" width="1" height="1" fill="#231f20"/>
    <rect x="28" y="26" width="4" height="1" fill="#231f20"/>
    <rect x="35" y="26" width="3" height="1" fill="#231f20"/>
    <rect x="44" y="26" width="3" height="1" fill="#231f20"/>
    <rect x="52" y="26" width="3" height="1" fill="#231f20"/>
    <rect x="62" y="26" width="3" height="1" fill="#231f20"/>
    <rect x="70" y="26" width="3" height="1" fill="#231f20"/>
    <rect x="79" y="26" width="3" height="1" fill="#231f20"/>
    <rect x="88" y="26" width="3" height="1" fill="#231f20"/>
    <rect x="97" y="26" width="3" height="1" fill="#231f20"/>
    <rect x="104" y="26" width="3" height="1" fill="#231f20"/>
    <rect x="123" y="26" width="1" height="1" fill="#231f20"/>
    <rect x="0" y="27" width="1" height="1" fill="#231f20"/>
    <rect x="27" y="27" width="4" height="1" fill="#231f20"/>
    <rect x="35" y="27" width="3" height="1" fill="#231f20"/>
    <rect x="44" y="27" width="3" height="1" fill="#231f20"/>
    <rect x="52" y="27" width="3" height="1" fill="#231f20"/>
    <rect x="62" y="27" width="3" height="1" fill="#231f20"/>
    <rect x="70" y="27" width="3" height="1" fill="#231f20"/>
    <rect x="79" y="27" width="3" height="1" fill="#231f20"/>
    <rect x="87" y="27" width="3" height="1" fill="#231f20"/>
    <rect x="96" y="27" width="3" height="1" fill="#231f20"/>
    <rect x="104" y="27" width="3" height="1" fill="#231f20"/>
    <rect x="123" y="27" width="1" height="1" fill="#231f20"/>
    <rect x="0" y="28" width="1" height="1" fill="#231f20"/>
    <rect x="26" y="28" width="5" height="1" fill="#231f20"/>
    <rect x="34" y="28" width="3" height="1" fill="#231f20"/>
    <rect x="43" y="28" width="3" height="1" fill="#231f20"/>
    <rect x="52" y="28" width="3" height="1" fill="#231f20"/>
    <rect x="61" y="28" width="3" height="1" fill="#231f20"/>
    <rect x="70" y="28" width="3" height="1" fill="#231f20"/>
    <rect x="79" y="28" width="3" height="1" fill="#231f20"/>
    <rect x="87" y="28" width="3" height="1" fill="#231f20"/>
    <rect x="96" y="28" width="3" height="1" fill="#231f20"/>
    <rect x="104" y="28" width="3" height="1" fill="#231f20"/>
    <rect x="123" y="28" width="1" height="1" fill="#231f20"/>
    <rect x="0" y="29" width="1" height="1" fill="#231f20"/>
    <rect x="25" y="29" width="5" height="1" fill="#231f20"/>
    <rect x="34" y="29" width="3" height="1" fill="#231f20"/>
    <rect x="43" y="29" width="3" height="1" fill="#231f20"/>
    <rect x="51" y="29" width="3" height="1" fill="#231f20"/>
    <rect x="61" y="29" width="3" height="1" fill="#231f20"/>
    <rect x="69" y="29" width="3" height="1" fill="#231f20"/>
    <rect x="78" y="29" width="3" height="1" fill="#231f20"/>
    <rect x="87" y="29" width="3" height="1" fill="#231f20"/>
    <rect x="96" y="29" width="3" height="1" fill="#231f20"/>
    <rect x="104" y="29" width="3" height="1" fill="#231f20"/>
    <rect x="123" y="29" width="1" height="1" fill="#231f20"/>
    <rect x="0" y="30" width="1" height="1" fill="#231f20"/>
    <rect x="24" y="30" width="5" height="1" fill="#231f20"/>
    <rect x="34" y="30" width="3" height="1" fill="#231f20"/>
    <rect x="43" y="30" width="3" height="1" fill="#231f20"/>
    <rect x="51" y="30" width="3" height="1" fill="#231f20"/>
    <rect x="60" y="30" width="3" height="1" fill="#231f20"/>
    <rect x="69" y="30" width="3" height="1" fill="#231f20"/>
    <rect x="78" y="30" width="3" height="1" fill="#231f20"/>
    <rect x="86" y="30" width="3" height="1" fill="#231f20"/>
    <rect x="95" y="30" width="3" height="1" fill="#231f20"/>
    <rect x="104" y="30" width="3" height="1" fill="#231f20"/>
    <rect x="123" y="30" width="1" height="1" fill="#231f20"/>
    <rect x="0" y="31" width="1" height="1" fill="#231f20"/>
    <rect x="24" y="31" width="4" height="1" fill="#231f20"/>
    <rect x="33" y="31" width="3" height="1" fill="#231f20"/>
    <rect x="42" y="31" width="3" height="1" fill="#231f20"/>
    <rect x="51" y="31" width="3" height="1" fill="#231f20"/>
    <rect x="60" y="31" width="3" height="1" fill="#231f20"/>
    <rect x="68" y="31" width="3" height="1" fill="#231f20"/>
    <rect x="77" y="31" width="3" height="1" fill="#231f20"/>
    <rect x="86" y="31" width="3" height="1" fill="#231f20"/>
    <rect x="95" y="31" width="3" height="1" fill="#231f20"/>
    <rect x="103" y="31" width="4" height="1" fill="#231f20"/>
    <rect x="123" y="31" width="1" height="1" fill="#231f20"/>
    <rect x="0" y="32" width="1" height="1" fill="#231f20"/>
    <rect x="23" y="32" width="4" height="1" fill="#231f20"/>
    <rect x="33" y="32" width="3" height="1" fill="#231f20"/>
    <rect x="42" y="32" width="3" height="1" fill="#231f20"/>
    <rect x="50" y="32" width="3" height="1" fill="#231f20"/>
    <rect x="60" y="32" width="3" height="1" fill="#231f20"/>
    <rect x="68" y="32" width="3" height="1" fill="#231f20"/>
    <rect x="77" y="32" width="3" height="1" fill="#231f20"/>
    <rect x="85" y="32" width="3" height="1" fill="#231f20"/>
    <rect x="94" y="32" width="3" height="1" fill="#231f20"/>
    <rect x="103" y="32" width="4" height="1" fill="#231f20"/>
    <rect x="123" y="32" width="1" height="1" fill="#231f20"/>
    <rect x="0" y="33" width="1" height="1" fill="#231f20"/>
    <rect x="22" y="33" width="5" height="1" fill="#231f20"/>
    <rect x="32" y="33" width="3" height="1" fill="#231f20"/>
    <rect x="41" y="33" width="3" height="1" fill="#231f20"/>
    <rect x="50" y="33" width="3" height="1" fill="#231f20"/>
    <rect x="59" y="33" width="3" height="1" fill="#231f20"/>
    <rect x="68" y="33" width="3" height="1" fill="#231f20"/>
    <rect x="77" y="33" width="3" height="1" fill="#231f20"/>
    <rect x="85" y="33" width="3" height="1" fill="#231f20"/>
    <rect x="94" y="33" width="3" height="1" fill="#231f20"/>
    <rect x="103" y="33" width="4" height="1" fill="#231f20"/>
    <rect x="123" y="33" width="1" height="1" fill="#231f20"/>
    <rect x="0" y="34" width="1" height="1" fill="#231f20"/>
    <rect x="22" y="34" width="5" height="1" fill="#231f20"/>
    <rect x="32" y="34" width="3" height="1" fill="#231f20"/>
    <rect x="41" y="34" width="3" height="1" fill="#231f20"/>
    <rect x="49" y="34" width="3" height="1" fill="#231f20"/>
    <rect x="59" y="34" width="3" height="1" fill="#231f20"/>
    <rect x="67" y="34" width="3" height="1" fill="#231f20"/>
    <rect x="76" y="34" width="3" height="1" fill="#231f20"/>
    <rect x="85" y="34" width="3" height="1" fill="#231f20"/>
    <rect x="94" y="34" width="3" height="1" fill="#231f20"/>
    <rect x="102" y="34" width="5" height="1" fill="#231f20"/>
    <rect x="123" y="34" width="1" height="1" fill="#231f20"/>
    <rect x="0" y="35" width="1" height="1" fill="#231f20"/>
    <rect x="21" y="35" width="5" height="1" fill="#231f20"/>
    <rect x="32" y="35" width="3" height="1" fill="#231f20"/>
    <rect x="41" y="35" width="3" height="1" fill="#231f20"/>
    <rect x="49" y="35" width="3" height="1" fill="#231f20"/>
    <rect x="59" y="35" width="3" height="1" fill="#231f20"/>
    <rect x="67" y="35" width="3" height="1" fill="#231f20"/>
    <rect x="76" y="35" width="3" height="1" fill="#231f20"/>
    <rect x="84" y="35" width="3" height="1" fill="#231f20"/>
    <rect x="93" y="35" width="3" height="1" fill="#231f20"/>
    <rect x="102" y="35" width="5" height="1" fill="#231f20"/>
    <rect x="123" y="35" width="1" height="1" fill="#231f20"/>
    <rect x="0" y="36" width="1" height="1" fill="#231f20"/>
    <rect x="20" y="36" width="6" height="1" fill="#231f20"/>
    <rect x="31" y="36" width="3" height="1" fill="#231f20"/>
    <rect x="40" y="36" width="3" height="1" fill="#231f20"/>
    <rect x="49" y="36" width="3" height="1" fill="#231f20"/>
    <rect x="58" y="36" width="3" height="1" fill="#231f20"/>
    <rect x="67" y="36" width="3" height="1" fill="#231f20"/>
    <rect x="76" y="36" width="3" height="1" fill="#231f20"/>
    <rect x="84" y="36" width="3" height="1" fill="#231f20"/>
    <rect x="93" y="36" width="3" height="1" fill="#231f20"/>
    <rect x="101" y="36" width="6" height="1" fill="#231f20"/>
    <rect x="123" y="36" width="1" height="1" fill="#231f20"/>
    <rect x="0" y="37" width="1" height="1" fill="#231f20"/>
    <rect x="20" y="37" width="6" height="1" fill="#231f20"/>
    <rect x="31" y="37" width="3" height="1" fill="#231f20"/>
    <rect x="40" y="37" width="3" height="1" fill="#231f20"/>
    <rect x="48" y="37" width="3" height="1" fill="#231f20"/>
    <rect x="58" y="37" width="3" height="1" fill="#231f20"/>
    <rect x="66" y="37" width="3" height="1" fill="#231f20"/>
    <rect x="75" y="37" width="3" height="1" fill="#231f20"/>
    <rect x="84" y="37" width="3" height="1" fill="#231f20"/>
    <rect x="93" y="37" width="3" height="1" fill="#231f20"/>
    <rect x="101" y="37" width="6" height="1" fill="#231f20"/>
    <rect x="123" y="37" width="1" height="1" fill="#231f20"/>
    <rect x="0" y="38" width="1" height="1" fill="#231f20"/>
    <rect x="20" y="38" width="5" height="1" fill="#231f20"/>
    <rect x="31" y="38" width="3" height="1" fill="#231f20"/>
    <rect x="40" y="38" width="3" height="1" fill="#231f20"/>
    <rect x="48" y="38" width="3" height="1" fill="#231f20"/>
    <rect x="57" y="38" width="3" height="1" fill="#231f20"/>
    <rect x="66" y="38" width="3" height="1" fill="#231f20"/>
    <rect x="75" y="38" width="3" height="1" fill="#231f20"/>
    <rect x="83" y="38" width="3" height="1" fill="#231f20"/>
    <rect x="92" y="38" width="3" height="1" fill="#231f20"/>
    <rect x="101" y="38" width="5" height="1" fill="#231f20"/>
    <rect x="123" y="38" width="1" height="1" fill="#231f20"/>
    <rect x="0" y="39" width="1" height="1" fill="#231f20"/>
    <rect x="19" y="39" width="6" height="1" fill="#231f20"/>
    <rect x="30" y="39" width="3" height="1" fill="#231f20"/>
    <rect x="39" y="39" width="3" height="1" fill="#231f20"/>
    <rect x="48" y="39" width="3" height="1" fill="#231f20"/>
    <rect x="57" y="39" width="3" height="1" fill="#231f20"/>
    <rect x="65" y="39" width="3" height="1" fill="#231f20"/>
    <rect x="74" y="39" width="3" height="1" fill="#231f20"/>
    <rect x="83" y="39" width="3" height="1" fill="#231f20"/>
    <rect x="92" y="39" width="3" height="1" fill="#231f20"/>
    <rect x="100" y="39" width="6" height="1" fill="#231f20"/>
    <rect x="123" y="39" width="1" height="1" fill="#231f20"/>
    <rect x="0" y="40" width="1" height="1" fill="#231f20"/>
    <rect x="19" y="40" width="6" height="1" fill="#231f20"/>
    <rect x="30" y="40" width="3" height="1" fill="#231f20"/>
    <rect x="39" y="40" width="3" height="1" fill="#231f20"/>
    <rect x="47" y="40" width="3" height="1" fill="#231f20"/>
    <rect x="57" y="40" width="3" height="1" fill="#231f20"/>
    <rect x="65" y="40" width="3" height="1" fill="#231f20"/>
    <rect x="74" y="40" width="3" height="1" fill="#231f20"/>
    <rect x="83" y="40" width="3" height="1" fill="#231f20"/>
    <rect x="91" y="40" width="3" height="1" fill="#231f20"/>
    <rect x="100" y="40" width="6" height="1" fill="#231f20"/>
    <rect x="123" y="40" width="1" height="1" fill="#231f20"/>
    <rect x="0" y="41" width="1" height="1" fill="#231f20"/>
    <rect x="18" y="41" width="6" height="1" fill="#231f20"/>
    <rect x="30" y="41" width="3" height="1" fill="#231f20"/>
    <rect x="39" y="41" width="3" height="1" fill="#231f20"/>
    <rect x="47" y="41" width="3" height="1" fill="#231f20"/>
    <rect x="56" y="41" width="3" height="1" fill="#231f20"/>
    <rect x="65" y="41" width="3" height="1" fill="#231f20"/>
    <rect x="74" y="41" width="3" height="1" fill="#231f20"/>
    <rect x="82" y="41" width="3" height="1" fill="#231f20"/>
    <rect x="91" y="41" width="3" height="1" fill="#231f20"/>
    <rect x="100" y="41" width="5" height="1" fill="#231f20"/>
    <rect x="123" y="41" width="1" height="1" fill="#231f20"/>
    <rect x="0" y="42" width="1" height="1" fill="#231f20"/>
    <rect x="18" y="42" width="6" height="1" fill="#231f20"/>
    <rect x="29" y="42" width="3" height="1" fill="#231f20"/>
    <rect x="38" y="42" width="3" height="1" fill="#231f20"/>
    <rect x="46" y="42" width="3" height="1" fill="#231f20"/>
    <rect x="56" y="42" width="3" height="1" fill="#231f20"/>
    <rect x="64" y="42" width="3" height="1" fill="#231f20"/>
    <rect x="73" y="42" width="3" height="1" fill="#231f20"/>
    <rect x="82" y="42" width="3" height="1" fill="#231f20"/>
    <rect x="91" y="42" width="3" height="1" fill="#231f20"/>
    <rect x="99" y="42" width="6" height="1" fill="#231f20"/>
    <rect x="123" y="42" width="1" height="1" fill="#231f20"/>
    <rect x="0" y="43" width="1" height="1" fill="#231f20"/>
    <rect x="18" y="43" width="5" height="1" fill="#231f20"/>
    <rect x="29" y="43" width="3" height="1" fill="#231f20"/>
    <rect x="38" y="43" width="3" height="1" fill="#231f20"/>
    <rect x="46" y="43" width="3" height="1" fill="#231f20"/>
    <rect x="56" y="43" width="3" height="1" fill="#231f20"/>
    <rect x="64" y="43" width="3" height="1" fill="#231f20"/>
    <rect x="73" y="43" width="3" height="1" fill="#231f20"/>
    <rect x="81" y="43" width="3" height="1" fill="#231f20"/>
    <rect x="90" y="43" width="3" height="1" fill="#231f20"/>
    <rect x="99" y="43" width="6" height="1" fill="#231f20"/>
    <rect x="123" y="43" width="1" height="1" fill="#231f20"/>
    <rect x="0" y="44" width="1" height="1" fill="#231f20"/>
    <rect x="17" y="44" width="6" height="1" fill="#231f20"/>
    <rect x="28" y="44" width="3" height="1" fill="#231f20"/>
    <rect x="37" y="44" width="3" height="1" fill="#231f20"/>
    <rect x="46" y="44" width="3" height="1" fill="#231f20"/>
    <rect x="55" y="44" width="3" height="1" fill="#231f20"/>
    <rect x="64" y="44" width="3" height="1" fill="#231f20"/>
    <rect x="73" y="44" width="3" height="1" fill="#231f20"/>
    <rect x="81" y="44" width="3" height="1" fill="#231f20"/>
    <rect x="90" y="44" width="3" height="1" fill="#231f20"/>
    <rect x="98" y="44" width="6" height="1" fill="#231f20"/>
    <rect x="123" y="44" width="1" height="1" fill="#231f20"/>
    <rect x="0" y="45" width="1" height="1" fill="#231f20"/>
    <rect x="17" y="45" width="6" height="1" fill="#231f20"/>
    <rect x="28" y="45" width="3" height="1" fill="#231f20"/>
    <rect x="37" y="45" width="3" height="1" fill="#231f20"/>
    <rect x="45" y="45" width="3" height="1" fill="#231f20"/>
    <rect x="55" y="45" width="3" height="1" fill="#231f20"/>
    <rect x="63" y="45" width="3" height="1" fill="#231f20"/>
    <rect x="72" y="45" width="3" height="1" fill="#231f20"/>
    <rect x="81" y="45" width="3" height="1" fill="#231f20"/>
    <rect x="90" y="45" width="3" height="1" fill="#231f20"/>
    <rect x="98" y="45" width="6" height="1" fill="#231f20"/>
    <rect x="123" y="45" width="1" height="1" fill="#231f20"/>
    <rect x="0" y="46" width="1" height="1" fill="#231f20"/>
    <rect x="17" y="46" width="5" height="1" fill="#231f20"/>
    <rect x="28" y="46" width="3" height="1" fill="#231f20"/>
    <rect x="37" y="46" width="3" height="1" fill="#231f20"/>
    <rect x="45" y="46" width="3" height="1" fill="#231f20"/>
    <rect x="55" y="46" width="3" height="1" fill="#231f20"/>
    <rect x="63" y="46" width="3" height="1" fill="#231f20"/>
    <rect x="72" y="46" width="3" height="1" fill="#231f20"/>
    <rect x="80" y="46" width="3" height="1" fill="#231f20"/>
    <rect x="89" y="46" width="3" height="1" fill="#231f20"/>
    <rect x="98" y="46" width="5" height="1" fill="#231f20"/>
    <rect x="123" y="46" width="1" height="1" fill="#231f20"/>
    <rect x="0" y="47" width="1" height="1" fill="#231f20"/>
    <rect x="16" y="47" width="6" height="1" fill="#231f20"/>
    <rect x="27" y="47" width="3" height="1" fill="#231f20"/>
    <rect x="36" y="47" width="3" height="1" fill="#231f20"/>
    <rect x="45" y="47" width="3" height="1" fill="#231f20"/>
    <rect x="54" y="47" width="3" height="1" fill="#231f20"/>
    <rect x="62" y="47" width="3" height="1" fill="#231f20"/>
    <rect x="71" y="47" width="3" height="1" fill="#231f20"/>
    <rect x="80" y="47" width="3" height="1" fill="#231f20"/>
    <rect x="89" y="47" width="3" height="1" fill="#231f20"/>
    <rect x="97" y="47" width="6" height="1" fill="#231f20"/>
    <rect x="123" y="47" width="1" height="1" fill="#231f20"/>
    <rect x="0" y="48" width="1" height="1" fill="#231f20"/>
    <rect x="16" y="48" width="6" height="1" fill="#231f20"/>
    <rect x="27" y="48" width="3" height="1" fill="#231f20"/>
    <rect x="36" y="48" width="3" height="1" fill="#231f20"/>
    <rect x="44" y="48" width="3" height="1" fill="#231f20"/>
    <rect x="54" y="48" width="3" height="1" fill="#231f20"/>
    <rect x="62" y="48" width="3" height="1" fill="#231f20"/>
    <rect x="71" y="48" width="3" height="1" fill="#231f20"/>
    <rect x="80" y="48" width="3" height="1" fill="#231f20"/>
    <rect x="88" y="48" width="3" height="1" fill="#231f20"/>
    <rect x="97" y="48" width="5" height="1" fill="#231f20"/>
    <rect x="123" y="48" width="1" height="1" fill="#231f20"/>
    <rect x="0" y="49" width="1" height="1" fill="#231f20"/>
    <rect x="16" y="49" width="5" height="1" fill="#231f20"/>
    <rect x="27" y="49" width="3" height="1" fill="#231f20"/>
    <rect x="36" y="49" width="3" height="1" fill="#231f20"/>
    <rect x="44" y="49" width="3" height="1" fill="#231f20"/>
    <rect x="53" y="49" width="3" height="1" fill="#231f20"/>
    <rect x="62" y="49" width="3" height="1" fill="#231f20"/>
    <rect x="71" y="49" width="3" height="1" fill="#231f20"/>
    <rect x="79" y="49" width="3" height="1" fill="#231f20"/>
    <rect x="88" y="49" width="3" height="1" fill="#231f20"/>
    <rect x="97" y="49" width="4" height="1" fill="#231f20"/>
    <rect x="123" y="49" width="1" height="1" fill="#231f20"/>
    <rect x="0" y="50" width="1" height="1" fill="#231f20"/>
    <rect x="16" y="50" width="5" height="1" fill="#231f20"/>
    <rect x="26" y="50" width="3" height="1" fill="#231f20"/>
    <rect x="35" y="50" width="3" height="1" fill="#231f20"/>
    <rect x="44" y="50" width="3" height="1" fill="#231f20"/>
    <rect x="53" y="50" width="3" height="1" fill="#231f20"/>
    <rect x="61" y="50" width="3" height="1" fill="#231f20"/>
    <rect x="70" y="50" width="3" height="1" fill="#231f20"/>
    <rect x="79" y="50" width="3" height="1" fill="#231f20"/>
    <rect x="88" y="50" width="3" height="1" fill="#231f20"/>
    <rect x="96" y="50" width="5" height="1" fill="#231f20"/>
    <rect x="123" y="50" width="1" height="1" fill="#231f20"/>
    <rect x="0" y="51" width="1" height="1" fill="#231f20"/>
    <rect x="16" y="51" width="5" height="1" fill="#231f20"/>
    <rect x="26" y="51" width="3" height="1" fill="#231f20"/>
    <rect x="35" y="51" width="3" height="1" fill="#231f20"/>
    <rect x="43" y="51" width="3" height="1" fill="#231f20"/>
    <rect x="53" y="51" width="3" height="1" fill="#231f20"/>
    <rect x="61" y="51" width="3" height="1" fill="#231f20"/>
    <rect x="70" y="51" width="3" height="1" fill="#231f20"/>
    <rect x="79" y="51" width="3" height="1" fill="#231f20"/>
    <rect x="87" y="51" width="3" height="1" fill="#231f20"/>
    <rect x="96" y="51" width="4" height="1" fill="#231f20"/>
    <rect x="123" y="51" width="1" height="1" fill="#231f20"/>
    <rect x="0" y="52" width="1" height="1" fill="#231f20"/>
    <rect x="15" y="52" width="5" height="1" fill="#231f20"/>
    <rect x="26" y="52" width="3" height="1" fill="#231f20"/>
    <rect x="35" y="52" width="3" height="1" fill="#231f20"/>
    <rect x="43" y="52" width="3" height="1" fill="#231f20"/>
    <rect x="52" y="52" width="3" height="1" fill="#231f20"/>
    <rect x="61" y="52" width="3" height="1" fill="#231f20"/>
    <rect x="70" y="52" width="3" height="1" fill="#231f20"/>
    <rect x="78" y="52" width="3" height="1" fill="#231f20"/>
    <rect x="87" y="52" width="3" height="1" fill="#231f20"/>
    <rect x="95" y="52" width="4" height="1" fill="#231f20"/>
    <rect x="123" y="52" width="1" height="1" fill="#231f20"/>
    <rect x="0" y="53" width="1" height="1" fill="#231f20"/>
    <rect x="15" y="53" width="5" height="1" fill="#231f20"/>
    <rect x="25" y="53" width="3" height="1" fill="#231f20"/>
    <rect x="34" y="53" width="3" height="1" fill="#231f20"/>
    <rect x="42" y="53" width="3" height="1" fill="#231f20"/>
    <rect x="52" y="53" width="3" height="1" fill="#231f20"/>
    <rect x="60" y="53" width="3" height="1" fill="#231f20"/>
    <rect x="69" y="53" width="3" height="1" fill="#231f20"/>
    <rect x="78" y="53" width="3" height="1" fill="#231f20"/>
    <rect x="87" y="53" width="3" height="1" fill="#231f20"/>
    <rect x="95" y="53" width="4" height="1" fill="#231f20"/>
    <rect x="123" y="53" width="1" height="1" fill="#231f20"/>
    <rect x="0" y="54" width="1" height="1" fill="#231f20"/>
    <rect x="16" y="54" width="4" height="1" fill="#231f20"/>
    <rect x="25" y="54" width="3" height="1" fill="#231f20"/>
    <rect x="34" y="54" width="3" height="1" fill="#231f20"/>
    <rect x="42" y="54" width="3" height="1" fill="#231f20"/>
    <rect x="52" y="54" width="3" height="1" fill="#231f20"/>
    <rect x="60" y="54" width="3" height="1" fill="#231f20"/>
    <rect x="69" y="54" width="3" height="1" fill="#231f20"/>
    <rect x="77" y="54" width="3" height="1" fill="#231f20"/>
    <rect x="86" y="54" width="3" height="1" fill="#231f20"/>
    <rect x="94" y="54" width="4" height="1" fill="#231f20"/>
    <rect x="123" y="54" width="1" height="1" fill="#231f20"/>
    <rect x="0" y="55" width="1" height="1" fill="#231f20"/>
    <rect x="16" y="55" width="3" height="1" fill="#231f20"/>
    <rect x="24" y="55" width="3" height="1" fill="#231f20"/>
    <rect x="33" y="55" width="3" height="1" fill="#231f20"/>
    <rect x="42" y="55" width="3" height="1" fill="#231f20"/>
    <rect x="51" y="55" width="3" height="1" fill="#231f20"/>
    <rect x="59" y="55" width="3" height="1" fill="#231f20"/>
    <rect x="68" y="55" width="3" height="1" fill="#231f20"/>
    <rect x="77" y="55" width="3" height="1" fill="#231f20"/>
    <rect x="86" y="55" width="3" height="1" fill="#231f20"/>
    <rect x="93" y="55" width="4" height="1" fill="#231f20"/>
    <rect x="123" y="55" width="1" height="1" fill="#231f20"/>
    <rect x="0" y="56" width="1" height="1" fill="#231f20"/>
    <rect x="16" y="56" width="3" height="1" fill="#231f20"/>
    <rect x="24" y="56" width="3" height="1" fill="#231f20"/>
    <rect x="33" y="56" width="3" height="1" fill="#231f20"/>
    <rect x="41" y="56" width="3" height="1" fill="#231f20"/>
    <rect x="51" y="56" width="3" height="1" fill="#231f20"/>
    <rect x="59" y="56" width="3" height="1" fill="#231f20"/>
    <rect x="68" y="56" width="3" height="1" fill="#231f20"/>
    <rect x="77" y="56" width="3" height="1" fill="#231f20"/>
    <rect x="85" y="56" width="3" height="1" fill="#231f20"/>
    <rect x="92" y="56" width="4" height="1" fill="#231f20"/>
    <rect x="123" y="56" width="1" height="1" fill="#231f20"/>
    <rect x="0" y="57" width="1" height="1" fill="#231f20"/>
    <rect x="16" y="57" width="3" height="1" fill="#231f20"/>
    <rect x="24" y="57" width="3" height="1" fill="#231f20"/>
    <rect x="33" y="57" width="3" height="1" fill="#231f20"/>
    <rect x="41" y="57" width="3" height="1" fill="#231f20"/>
    <rect x="50" y="57" width="3" height="1" fill="#231f20"/>
    <rect x="59" y="57" width="3" height="1" fill="#231f20"/>
    <rect x="68" y="57" width="3" height="1" fill="#231f20"/>
    <rect x="76" y="57" width="3" height="1" fill="#231f20"/>
    <rect x="85" y="57" width="3" height="1" fill="#231f20"/>
    <rect x="91" y="57" width="4" height="1" fill="#231f20"/>
    <rect x="123" y="57" width="1" height="1" fill="#231f20"/>
    <rect x="0" y="58" width="1" height="1" fill="#231f20"/>
    <rect x="16" y="58" width="3" height="1" fill="#231f20"/>
    <rect x="23" y="58" width="3" height="1" fill="#231f20"/>
    <rect x="32" y="58" width="3" height="1" fill="#231f20"/>
    <rect x="41" y="58" width="3" height="1" fill="#231f20"/>
    <rect x="50" y="58" width="3" height="1" fill="#231f20"/>
    <rect x="58" y="58" width="3" height="1" fill="#231f20"/>
    <rect x="67" y="58" width="3" height="1" fill="#231f20"/>
    <rect x="76" y="58" width="3" height="1" fill="#231f20"/>
    <rect x="85" y="58" width="3" height="1" fill="#231f20"/>
    <rect x="90" y="58" width="4" height="1" fill="#231f20"/>
    <rect x="123" y="58" width="1" height="1" fill="#231f20"/>
    <rect x="0" y="59" width="1" height="1" fill="#231f20"/>
    <rect x="16" y="59" width="3" height="1" fill="#231f20"/>
    <rect x="23" y="59" width="3" height="1" fill="#231f20"/>
    <rect x="32" y="59" width="3" height="1" fill="#231f20"/>
    <rect x="40" y="59" width="3" height="1" fill="#231f20"/>
    <rect x="50" y="59" width="3" height="1" fill="#231f20"/>
    <rect x="58" y="59" width="3" height="1" fill="#231f20"/>
    <rect x="67" y="59" width="3" height="1" fill="#231f20"/>
    <rect x="76" y="59" width="3" height="1" fill="#231f20"/>
    <rect x="84" y="59" width="3" height="1" fill="#231f20"/>
    <rect x="89" y="59" width="5" height="1" fill="#231f20"/>
    <rect x="123" y="59" width="1" height="1" fill="#231f20"/>
    <rect x="0" y="60" width="1" height="1" fill="#231f20"/>
    <rect x="17" y="60" width="3" height="1" fill="#231f20"/>
    <rect x="23" y="60" width="3" height="1" fill="#231f20"/>
    <rect x="32" y="60" width="3" height="1" fill="#231f20"/>
    <rect x="40" y="60" width="3" height="1" fill="#231f20"/>
    <rect x="49" y="60" width="3" height="1" fill="#231f20"/>
    <rect x="57" y="60" width="3" height="1" fill="#231f20"/>
    <rect x="67" y="60" width="3" height="1" fill="#231f20"/>
    <rect x="75" y="60" width="3" height="1" fill="#231f20"/>
    <rect x="84" y="60" width="3" height="1" fill="#231f20"/>
    <rect x="88" y="60" width="5" height="1" fill="#231f20"/>
    <rect x="123" y="60" width="1" height="1" fill="#231f20"/>
    <rect x="0" y="61" width="1" height="1" fill="#231f20"/>
    <rect x="17" y="61" width="3" height="1" fill="#231f20"/>
    <rect x="22" y="61" width="3" height="1" fill="#231f20"/>
    <rect x="31" y="61" width="3" height="1" fill="#231f20"/>
    <rect x="40" y="61" width="3" height="1" fill="#231f20"/>
    <rect x="49" y="61" width="3" height="1" fill="#231f20"/>
    <rect x="57" y="61" width="3" height="1" fill="#231f20"/>
    <rect x="66" y="61" width="3" height="1" fill="#231f20"/>
    <rect x="75" y="61" width="3" height="1" fill="#231f20"/>
    <rect x="84" y="61" width="8" height="1" fill="#231f20"/>
    <rect x="123" y="61" width="1" height="1" fill="#231f20"/>
    <rect x="0" y="62" width="1" height="1" fill="#231f20"/>
    <rect x="17" y="62" width="4" height="1" fill="#231f20"/>
    <rect x="22" y="62" width="3" height="1" fill="#231f20"/>
    <rect x="31" y="62" width="3" height="1" fill="#231f20"/>
    <rect x="39" y="62" width="3" height="1" fill="#231f20"/>
    <rect x="49" y="62" width="3" height="1" fill="#231f20"/>
    <rect x="57" y="62" width="3" height="1" fill="#231f20"/>
    <rect x="66" y="62" width="3" height="1" fill="#231f20"/>
    <rect x="75" y="62" width="3" height="1" fill="#231f20"/>
    <rect x="83" y="62" width="8" height="1" fill="#231f20"/>
    <rect x="123" y="62" width="1" height="1" fill="#231f20"/>
    <rect x="0" y="63" width="1" height="1" fill="#231f20"/>
    <rect x="17" y="63" width="7" height="1" fill="#231f20"/>
    <rect x="31" y="63" width="3" height="1" fill="#231f20"/>
    <rect x="39" y="63" width="3" height="1" fill="#231f20"/>
    <rect x="48" y="63" width="3" height="1" fill="#231f20"/>
    <rect x="56" y="63" width="3" height="1" fill="#231f20"/>
    <rect x="65" y="63" width="3" height="1" fill="#231f20"/>
    <rect x="74" y="63" width="3" height="1" fill="#231f20"/>
    <rect x="83" y="63" width="7" height="1" fill="#231f20"/>
    <rect x="123" y="63" width="1" height="1" fill="#231f20"/>
    <rect x="0" y="64" width="1" height="1" fill="#231f20"/>
    <rect x="18" y="64" width="6" height="1" fill="#231f20"/>
    <rect x="30" y="64" width="3" height="1" fill="#231f20"/>
    <rect x="38" y="64" width="3" height="1" fill="#231f20"/>
    <rect x="48" y="64" width="3" height="1" fill="#231f20"/>
    <rect x="56" y="64" width="3" height="1" fill="#231f20"/>
    <rect x="65" y="64" width="3" height="1" fill="#231f20"/>
    <rect x="74" y="64" width="3" height="1" fill="#231f20"/>
    <rect x="82" y="64" width="6" height="1" fill="#231f20"/>
    <rect x="123" y="64" width="1" height="1" fill="#231f20"/>
    <rect x="0" y="65" width="1" height="1" fill="#231f20"/>
    <rect x="19" y="65" width="5" height="1" fill="#231f20"/>
    <rect x="30" y="65" width="3" height="1" fill="#231f20"/>
    <rect x="38" y="65" width="3" height="1" fill="#231f20"/>
    <rect x="47" y="65" width="3" height="1" fill="#231f20"/>
    <rect x="56" y="65" width="3" height="1" fill="#231f20"/>
    <rect x="65" y="65" width="3" height="1" fill="#231f20"/>
    <rect x="74" y="65" width="3" height="1" fill="#231f20"/>
    <rect x="81" y="65" width="6" height="1" fill="#231f20"/>
    <rect x="123" y="65" width="1" height="1" fill="#231f20"/>
    <rect x="0" y="66" width="1" height="1" fill="#231f20"/>
    <rect x="19" y="66" width="4" height="1" fill="#231f20"/>
    <rect x="30" y="66" width="3" height="1" fill="#231f20"/>
    <rect x="38" y="66" width="3" height="1" fill="#231f20"/>
    <rect x="47" y="66" width="3" height="1" fill="#231f20"/>
    <rect x="55" y="66" width="3" height="1" fill="#231f20"/>
    <rect x="64" y="66" width="3" height="1" fill="#231f20"/>
    <rect x="73" y="66" width="3" height="1" fill="#231f20"/>
    <rect x="80" y="66" width="6" height="1" fill="#231f20"/>
    <rect x="123" y="66" width="1" height="1" fill="#231f20"/>
    <rect x="0" y="67" width="1" height="1" fill="#231f20"/>
    <rect x="19" y="67" width="5" height="1" fill="#231f20"/>
    <rect x="29" y="67" width="3" height="1" fill="#231f20"/>
    <rect x="37" y="67" width="3" height="1" fill="#231f20"/>
    <rect x="47" y="67" width="3" height="1" fill="#231f20"/>
    <rect x="55" y="67" width="3" height="1" fill="#231f20"/>
    <rect x="64" y="67" width="3" height="1" fill="#231f20"/>
    <rect x="73" y="67" width="3" height="1" fill="#231f20"/>
    <rect x="78" y="67" width="6" height="1" fill="#231f20"/>
    <rect x="123" y="67" width="1" height="1" fill="#231f20"/>
    <rect x="0" y="68" width="1" height="1" fill="#231f20"/>
    <rect x="20" y="68" width="5" height="1" fill="#231f20"/>
    <rect x="29" y="68" width="3" height="1" fill="#231f20"/>
    <rect x="37" y="68" width="3" height="1" fill="#231f20"/>
    <rect x="46" y="68" width="3" height="1" fill="#231f20"/>
    <rect x="54" y="68" width="3" height="1" fill="#231f20"/>
    <rect x="64" y="68" width="3" height="1" fill="#231f20"/>
    <rect x="72" y="68" width="3" height="1" fill="#231f20"/>
    <rect x="76" y="68" width="7" height="1" fill="#231f20"/>
    <rect x="123" y="68" width="1" height="1" fill="#231f20"/>
    <rect x="0" y="69" width="1" height="1" fill="#231f20"/>
    <rect x="21" y="69" width="5" height="1" fill="#231f20"/>
    <rect x="28" y="69" width="3" height="1" fill="#231f20"/>
    <rect x="37" y="69" width="3" height="1" fill="#231f20"/>
    <rect x="46" y="69" width="3" height="1" fill="#231f20"/>
    <rect x="54" y="69" width="3" height="1" fill="#231f20"/>
    <rect x="63" y="69" width="3" height="1" fill="#231f20"/>
    <rect x="72" y="69" width="8" height="1" fill="#231f20"/>
    <rect x="123" y="69" width="1" height="1" fill="#231f20"/>
    <rect x="0" y="70" width="1" height="1" fill="#231f20"/>
    <rect x="22" y="70" width="5" height="1" fill="#231f20"/>
    <rect x="28" y="70" width="3" height="1" fill="#231f20"/>
    <rect x="36" y="70" width="3" height="1" fill="#231f20"/>
    <rect x="46" y="70" width="3" height="1" fill="#231f20"/>
    <rect x="54" y="70" width="3" height="1" fill="#231f20"/>
    <rect x="63" y="70" width="3" height="1" fill="#231f20"/>
    <rect x="72" y="70" width="6" height="1" fill="#231f20"/>
    <rect x="123" y="70" width="1" height="1" fill="#231f20"/>
    <rect x="0" y="71" width="1" height="1" fill="#231f20"/>
    <rect x="23" y="71" width="8" height="1" fill="#231f20"/>
    <rect x="36" y="71" width="3" height="1" fill="#231f20"/>
    <rect x="45" y="71" width="3" height="1" fill="#231f20"/>
    <rect x="53" y="71" width="3" height="1" fill="#231f20"/>
    <rect x="62" y="71" width="3" height="1" fill="#231f20"/>
    <rect x="70" y="71" width="6" height="1" fill="#231f20"/>
    <rect x="123" y="71" width="1" height="1" fill="#231f20"/>
    <rect x="0" y="72" width="1" height="1" fill="#231f20"/>
    <rect x="24" y="72" width="6" height="1" fill="#231f20"/>
    <rect x="35" y="72" width="3" height="1" fill="#231f20"/>
    <rect x="45" y="72" width="3" height="1" fill="#231f20"/>
    <rect x="53" y="72" width="3" height="1" fill="#231f20"/>
    <rect x="62" y="72" width="3" height="1" fill="#231f20"/>
    <rect x="68" y="72" width="6" height="1" fill="#231f20"/>
    <rect x="123" y="72" width="1" height="1" fill="#231f20"/>
    <rect x="0" y="73" width="1" height="1" fill="#231f20"/>
    <rect x="25" y="73" width="7" height="1" fill="#231f20"/>
    <rect x="35" y="73" width="3" height="1" fill="#231f20"/>
    <rect x="44" y="73" width="3" height="1" fill="#231f20"/>
    <rect x="53" y="73" width="3" height="1" fill="#231f20"/>
    <rect x="62" y="73" width="11" height="1" fill="#231f20"/>
    <rect x="123" y="73" width="1" height="1" fill="#231f20"/>
    <rect x="0" y="74" width="1" height="1" fill="#231f20"/>
    <rect x="27" y="74" width="11" height="1" fill="#231f20"/>
    <rect x="44" y="74" width="3" height="1" fill="#231f20"/>
    <rect x="52" y="74" width="3" height="1" fill="#231f20"/>
    <rect x="61" y="74" width="9" height="1" fill="#231f20"/>
    <rect x="123" y="74" width="1" height="1" fill="#231f20"/>
    <rect x="0" y="75" width="1" height="1" fill="#231f20"/>
    <rect x="28" y="75" width="11" height="1" fill="#231f20"/>
    <rect x="44" y="75" width="3" height="1" fill="#231f20"/>
    <rect x="52" y="75" width="3" height="1" fill="#231f20"/>
    <rect x="56" y="75" width="12" height="1" fill="#231f20"/>
    <rect x="123" y="75" width="1" height="1" fill="#231f20"/>
    <rect x="0" y="76" width="1" height="1" fill="#231f20"/>
    <rect x="32" y="76" width="14" height="1" fill="#231f20"/>
    <rect x="48" y="76" width="16" height="1" fill="#231f20"/>
    <rect x="123" y="76" width="1" height="1" fill="#231f20"/>
    <rect x="0" y="77" width="1" height="1" fill="#231f20"/>
    <rect x="35" y="77" width="27" height="1" fill="#231f20"/>
    <rect x="123" y="77" width="1" height="1" fill="#231f20"/>
    <rect x="0" y="78" width="1" height="1" fill="#231f20"/>
    <rect x="37" y="78" width="19" height="1" fill="#231f20"/>
    <rect x="123" y="78" width="1" height="1" fill="#231f20"/>
    <rect x="0" y="79" width="1" height="1" fill="#231f20"/>
    <rect x="46" y="79" width="2" height="1" fill="#231f20"/>
    <rect x="123" y="79" width="1" height="1" fill="#231f20"/>
    <rect x="0" y="80" width="1" height="1" fill="#231f20"/>
    <rect x="123" y="80" width="1" height="1" fill="#231f20"/>
    <rect x="0" y="81" width="1" height="1" fill="#231f20"/>
    <rect x="123" y="81" width="1" height="1" fill="#231f20"/>
    <rect x="0" y="82" width="124" height="1" fill="#231f20"/>
  </g>
</svg>