<?xml version="1.0" encoding="UTF-8"?>
<svg xmlns="http://www.w3.org/2000/svg" viewBox="0 0 70 56" width="70" height="56">
  <!-- Auto-converted from legend-946.png -->
  <rect x="0" y="0" width="70" height="56" fill="none"/>
  <g fill="#231f20" stroke="none">
    <rect x="0" y="0" width="70" height="1" fill="#231f20"/>
    <rect x="0" y="1" width="1" height="1" fill="#231f20"/>
    <rect x="69" y="1" width="1" height="1" fill="#231f20"/>
    <rect x="0" y="2" width="1" height="1" fill="#231f20"/>
    <rect x="69" y="2" width="1" height="1" fill="#231f20"/>
    <rect x="0" y="3" width="1" height="1" fill="#231f20"/>
    <rect x="69" y="3" width="1" height="1" fill="#231f20"/>
    <rect x="0" y="4" width="1" height="1" fill="#231f20"/>
    <rect x="69" y="4" width="1" height="1" fill="#231f20"/>
    <rect x="0" y="5" width="1" height="1" fill="#231f20"/>
    <rect x="69" y="5" width="1" height="1" fill="#231f20"/>
    <rect x="0" y="6" width="1" height="1" fill="#231f20"/>
    <rect x="69" y="6" width="1" height="1" fill="#231f20"/>
    <rect x="0" y="7" width="1" height="1" fill="#231f20"/>
    <rect x="69" y="7" width="1" height="1" fill="#231f20"/>
    <rect x="0" y="8" width="1" height="1" fill="#231f20"/>
    <rect x="30" y="8" width="1" height="1" fill="#231f20"/>
    <rect x="32" y="8" width="1" height="1" fill="#231f20"/>
    <rect x="51" y="8" width="1" height="1" fill="#231f20"/>
    <rect x="53" y="8" width="1" height="1" fill="#231f20"/>
    <rect x="69" y="8" width="1" height="1" fill="#231f20"/>
    <rect x="0" y="9" width="1" height="1" fill="#231f20"/>
    <rect x="9" y="9" width="5" height="1" fill="#231f20"/>
    <rect x="29" y="9" width="5" height="1" fill="#231f20"/>
    <rect x="50" y="9" width="5" height="1" fill="#231f20"/>
    <rect x="69" y="9" width="1" height="1" fill="#231f20"/>
    <rect x="0" y="10" width="1" height="1" fill="#231f20"/>
    <rect x="29" y="10" width="2" height="1" fill="#231f20"/>
    <rect x="32" y="10" width="2" height="1" fill="#231f20"/>
    <rect x="50" y="10" width="2" height="1" fill="#231f20"/>
    <rect x="53" y="10" width="2" height="1" fill="#231f20"/>
    <rect x="69" y="10" width="1" height="1" fill="#231f20"/>
    <rect x="0" y="11" width="1" height="1" fill="#231f20"/>
    <rect x="69" y="11" width="1" height="1" fill="#231f20"/>
    <rect x="0" y="12" width="1" height="1" fill="#231f20"/>
    <rect x="69" y="12" width="1" height="1" fill="#231f20"/>
    <rect x="0" y="13" width="1" height="1" fill="#231f20"/>
    <rect x="69" y="13" width="1" height="1" fill="#231f20"/>
    <rect x="0" y="14" width="1" height="1" fill="#231f20"/>
    <rect x="69" y="14" width="1" height="1" fill="#231f20"/>
    <rect x="0" y="15" width="1" height="1" fill="#231f20"/>
    <rect x="69" y="15" width="1" height="1" fill="#231f20"/>
    <rect x="0" y="16" width="1" height="1" fill="#231f20"/>
    <rect x="69" y="16" width="1" height="1" fill="#231f20"/>
    <rect x="0" y="17" width="1" height="1" fill="#231f20"/>
    <rect x="69" y="17" width="1" height="1" fill="#231f20"/>
    <rect x="0" y="18" width="70" height="1" fill="#231f20"/>
    <rect x="0" y="19" width="1" height="1" fill="#231f20"/>
    <rect x="69" y="19" width="1" height="1" fill="#231f20"/>
    <rect x="0" y="20" width="1" height="1" fill="#231f20"/>
    <rect x="69" y="20" width="1" height="1" fill="#231f20"/>
    <rect x="0" y="21" width="1" height="1" fill="#231f20"/>
    <rect x="69" y="21" width="1" height="1" fill="#231f20"/>
    <rect x="0" y="22" width="1" height="1" fill="#231f20"/>
    <rect x="69" y="22" width="1" height="1" fill="#231f20"/>
    <rect x="0" y="23" width="1" height="1" fill="#231f20"/>
    <rect x="69" y="23" width="1" height="1" fill="#231f20"/>
    <rect x="0" y="24" width="1" height="1" fill="#231f20"/>
    <rect x="69" y="24" width="1" height="1" fill="#231f20"/>
    <rect x="0" y="25" width="1" height="1" fill="#231f20"/>
    <rect x="69" y="25" width="1" height="1" fill="#231f20"/>
    <rect x="0" y="26" width="1" height="1" fill="#231f20"/>
    <rect x="69" y="26" width="1" height="1" fill="#231f20"/>
    <rect x="0" y="27" width="1" height="1" fill="#231f20"/>
    <rect x="16" y="27" width="4" height="1" fill="#231f20"/>
    <rect x="36" y="27" width="2" height="1" fill="#231f20"/>
    <rect x="39" y="27" width="2" height="1" fill="#231f20"/>
    <rect x="69" y="27" width="1" height="1" fill="#231f20"/>
    <rect x="0" y="28" width="1" height="1" fill="#231f20"/>
    <rect x="15" y="28" width="5" height="1" fill="#231f20"/>
    <rect x="36" y="28" width="5" height="1" fill="#231f20"/>
    <rect x="56" y="28" width="5" height="1" fill="#231f20"/>
    <rect x="69" y="28" width="1" height="1" fill="#231f20"/>
    <rect x="0" y="29" width="1" height="1" fill="#231f20"/>
    <rect x="69" y="29" width="1" height="1" fill="#231f20"/>
    <rect x="0" y="30" width="1" height="1" fill="#231f20"/>
    <rect x="69" y="30" width="1" height="1" fill="#231f20"/>
    <rect x="0" y="31" width="1" height="1" fill="#231f20"/>
    <rect x="69" y="31" width="1" height="1" fill="#231f20"/>
    <rect x="0" y="32" width="1" height="1" fill="#231f20"/>
    <rect x="69" y="32" width="1" height="1" fill="#231f20"/>
    <rect x="0" y="33" width="1" height="1" fill="#231f20"/>
    <rect x="69" y="33" width="1" height="1" fill="#231f20"/>
    <rect x="0" y="34" width="1" height="1" fill="#231f20"/>
    <rect x="69" y="34" width="1" height="1" fill="#231f20"/>
    <rect x="0" y="35" width="1" height="1" fill="#231f20"/>
    <rect x="69" y="35" width="1" height="1" fill="#231f20"/>
    <rect x="0" y="36" width="1" height="1" fill="#231f20"/>
    <rect x="69" y="36" width="1" height="1" fill="#231f20"/>
    <rect x="0" y="37" width="70" height="1" fill="#231f20"/>
    <rect x="0" y="38" width="1" height="1" fill="#231f20"/>
    <rect x="69" y="38" width="1" height="1" fill="#231f20"/>
    <rect x="0" y="39" width="1" height="1" fill="#231f20"/>
    <rect x="69" y="39" width="1" height="1" fill="#231f20"/>
    <rect x="0" y="40" width="1" height="1" fill="#231f20"/>
    <rect x="69" y="40" width="1" height="1" fill="#231f20"/>
    <rect x="0" y="41" width="1" height="1" fill="#231f20"/>
    <rect x="69" y="41" width="1" height="1" fill="#231f20"/>
    <rect x="0" y="42" width="1" height="1" fill="#231f20"/>
    <rect x="69" y="42" width="1" height="1" fill="#231f20"/>
    <rect x="0" y="43" width="1" height="1" fill="#231f20"/>
    <rect x="69" y="43" width="1" height="1" fill="#231f20"/>
    <rect x="0" y="44" width="1" height="1" fill="#231f20"/>
    <rect x="69" y="44" width="1" height="1" fill="#231f20"/>
    <rect x="0" y="45" width="1" height="1" fill="#231f20"/>
    <rect x="29" y="45" width="2" height="1" fill="#231f20"/>
    <rect x="32" y="45" width="2" height="1" fill="#231f20"/>
    <rect x="50" y="45" width="2" height="1" fill="#231f20"/>
    <rect x="53" y="45" width="2" height="1" fill="#231f20"/>
    <rect x="69" y="45" width="1" height="1" fill="#231f20"/>
    <rect x="0" y="46" width="1" height="1" fill="#231f20"/>
    <rect x="9" y="46" width="5" height="1" fill="#231f20"/>
    <rect x="29" y="46" width="5" height="1" fill="#231f20"/>
    <rect x="50" y="46" width="5" height="1" fill="#231f20"/>
    <rect x="69" y="46" width="1" height="1" fill="#231f20"/>
    <rect x="0" y="47" width="1" height="1" fill="#231f20"/>
    <rect x="30" y="47" width="1" height="1" fill="#231f20"/>
    <rect x="32" y="47" width="1" height="1" fill="#231f20"/>
    <rect x="51" y="47" width="1" height="1" fill="#231f20"/>
    <rect x="53" y="47" width="1" height="1" fill="#231f20"/>
    <rect x="69" y="47" width="1" height="1" fill="#231f20"/>
    <rect x="0" y="48" width="1" height="1" fill="#231f20"/>
    <rect x="69" y="48" width="1" height="1" fill="#231f20"/>
    <rect x="0" y="49" width="1" height="1" fill="#231f20"/>
    <rect x="69" y="49" width="1" height="1" fill="#231f20"/>
    <rect x="0" y="50" width="1" height="1" fill="#231f20"/>
    <rect x="69" y="50" width="1" height="1" fill="#231f20"/>
    <rect x="0" y="51" width="1" height="1" fill="#231f20"/>
    <rect x="69" y="51" width="1" height="1" fill="#231f20"/>
    <rect x="0" y="52" width="1" height="1" fill="#231f20"/>
    <rect x="69" y="52" width="1" height="1" fill="#231f20"/>
    <rect x="0" y="53" width="1" height="1" fill="#231f20"/>
    <rect x="69" y="53" width="1" height="1" fill="#231f20"/>
    <rect x="0" y="54" width="1" height="1" fill="#231f20"/>
    <rect x="69" y="54" width="1" height="1" fill="#231f20"/>
    <rect x="0" y="55" width="70" height="1" fill="#231f20"/>
  </g>
</svg>