<?xml version="1.0" encoding="UTF-8"?>
<svg xmlns="http://www.w3.org/2000/svg" viewBox="0 0 100 59" width="100" height="59">
  <!-- Auto-converted from legend-1180.png -->
  <rect x="0" y="0" width="100" height="59" fill="none"/>
  <g fill="#726f70" stroke="none">
    <rect x="1" y="1" width="98" height="1" fill="#726f70"/>
    <rect x="1" y="2" width="98" height="1" fill="#726f70"/>
    <rect x="1" y="3" width="2" height="1" fill="#726f70"/>
    <rect x="97" y="3" width="2" height="1" fill="#726f70"/>
    <rect x="1" y="4" width="2" height="1" fill="#726f70"/>
    <rect x="97" y="4" width="2" height="1" fill="#726f70"/>
    <rect x="1" y="5" width="2" height="1" fill="#726f70"/>
    <rect x="97" y="5" width="2" height="1" fill="#726f70"/>
    <rect x="1" y="6" width="2" height="1" fill="#726f70"/>
    <rect x="97" y="6" width="2" height="1" fill="#726f70"/>
    <rect x="1" y="7" width="2" height="1" fill="#726f70"/>
    <rect x="97" y="7" width="2" height="1" fill="#726f70"/>
    <rect x="1" y="8" width="2" height="1" fill="#726f70"/>
    <rect x="97" y="8" width="2" height="1" fill="#726f70"/>
    <rect x="1" y="9" width="2" height="1" fill="#726f70"/>
    <rect x="20" y="9" width="5" height="1" fill="#726f70"/>
    <rect x="30" y="9" width="5" height="1" fill="#726f70"/>
    <rect x="47" y="9" width="5" height="1" fill="#726f70"/>
    <rect x="57" y="9" width="5" height="1" fill="#726f70"/>
    <rect x="74" y="9" width="5" height="1" fill="#726f70"/>
    <rect x="83" y="9" width="5" height="1" fill="#726f70"/>
    <rect x="97" y="9" width="2" height="1" fill="#726f70"/>
    <rect x="1" y="10" width="14" height="1" fill="#726f70"/>
    <rect x="20" y="10" width="6" height="1" fill="#726f70"/>
    <rect x="29" y="10" width="7" height="1" fill="#726f70"/>
    <rect x="46" y="10" width="7" height="1" fill="#726f70"/>
    <rect x="56" y="10" width="6" height="1" fill="#726f70"/>
    <rect x="73" y="10" width="6" height="1" fill="#726f70"/>
    <rect x="82" y="10" width="7" height="1" fill="#726f70"/>
    <rect x="97" y="10" width="2" height="1" fill="#726f70"/>
    <rect x="1" y="11" width="14" height="1" fill="#726f70"/>
    <rect x="19" y="11" width="7" height="1" fill="#726f70"/>
    <rect x="29" y="11" width="7" height="1" fill="#726f70"/>
    <rect x="46" y="11" width="7" height="1" fill="#726f70"/>
    <rect x="56" y="11" width="7" height="1" fill="#726f70"/>
    <rect x="73" y="11" width="7" height="1" fill="#726f70"/>
    <rect x="82" y="11" width="7" height="1" fill="#726f70"/>
    <rect x="97" y="11" width="2" height="1" fill="#726f70"/>
    <rect x="1" y="12" width="14" height="1" fill="#726f70"/>
    <rect x="20" y="12" width="6" height="1" fill="#726f70"/>
    <rect x="29" y="12" width="7" height="1" fill="#726f70"/>
    <rect x="46" y="12" width="7" height="1" fill="#726f70"/>
    <rect x="56" y="12" width="6" height="1" fill="#726f70"/>
    <rect x="73" y="12" width="6" height="1" fill="#726f70"/>
    <rect x="82" y="12" width="7" height="1" fill="#726f70"/>
    <rect x="97" y="12" width="2" height="1" fill="#726f70"/>
    <rect x="1" y="13" width="2" height="1" fill="#726f70"/>
    <rect x="20" y="13" width="5" height="1" fill="#726f70"/>
    <rect x="30" y="13" width="5" height="1" fill="#726f70"/>
    <rect x="47" y="13" width="5" height="1" fill="#726f70"/>
    <rect x="57" y="13" width="5" height="1" fill="#726f70"/>
    <rect x="74" y="13" width="5" height="1" fill="#726f70"/>
    <rect x="83" y="13" width="5" height="1" fill="#726f70"/>
    <rect x="97" y="13" width="2" height="1" fill="#726f70"/>
    <rect x="1" y="14" width="2" height="1" fill="#726f70"/>
    <rect x="97" y="14" width="2" height="1" fill="#726f70"/>
    <rect x="1" y="15" width="2" height="1" fill="#726f70"/>
    <rect x="97" y="15" width="2" height="1" fill="#726f70"/>
    <rect x="1" y="16" width="2" height="1" fill="#726f70"/>
    <rect x="97" y="16" width="2" height="1" fill="#726f70"/>
    <rect x="1" y="17" width="2" height="1" fill="#726f70"/>
    <rect x="97" y="17" width="2" height="1" fill="#726f70"/>
    <rect x="1" y="18" width="2" height="1" fill="#726f70"/>
    <rect x="97" y="18" width="2" height="1" fill="#726f70"/>
    <rect x="1" y="19" width="2" height="1" fill="#726f70"/>
    <rect x="97" y="19" width="2" height="1" fill="#726f70"/>
    <rect x="1" y="20" width="98" height="1" fill="#726f70"/>
    <rect x="1" y="21" width="98" height="1" fill="#726f70"/>
    <rect x="1" y="22" width="2" height="1" fill="#726f70"/>
    <rect x="97" y="22" width="2" height="1" fill="#726f70"/>
    <rect x="1" y="23" width="2" height="1" fill="#726f70"/>
    <rect x="97" y="23" width="2" height="1" fill="#726f70"/>
    <rect x="1" y="24" width="2" height="1" fill="#726f70"/>
    <rect x="97" y="24" width="2" height="1" fill="#726f70"/>
    <rect x="1" y="25" width="2" height="1" fill="#726f70"/>
    <rect x="97" y="25" width="2" height="1" fill="#726f70"/>
    <rect x="1" y="26" width="2" height="1" fill="#726f70"/>
    <rect x="97" y="26" width="2" height="1" fill="#726f70"/>
    <rect x="1" y="27" width="2" height="1" fill="#726f70"/>
    <rect x="8" y="27" width="3" height="1" fill="#726f70"/>
    <rect x="17" y="27" width="4" height="1" fill="#726f70"/>
    <rect x="34" y="27" width="4" height="1" fill="#726f70"/>
    <rect x="44" y="27" width="4" height="1" fill="#726f70"/>
    <rect x="61" y="27" width="4" height="1" fill="#726f70"/>
    <rect x="70" y="27" width="4" height="1" fill="#726f70"/>
    <rect x="97" y="27" width="2" height="1" fill="#726f70"/>
    <rect x="1" y="28" width="2" height="1" fill="#726f70"/>
    <rect x="6" y="28" width="6" height="1" fill="#726f70"/>
    <rect x="16" y="28" width="6" height="1" fill="#726f70"/>
    <rect x="33" y="28" width="6" height="1" fill="#726f70"/>
    <rect x="43" y="28" width="6" height="1" fill="#726f70"/>
    <rect x="60" y="28" width="6" height="1" fill="#726f70"/>
    <rect x="69" y="28" width="6" height="1" fill="#726f70"/>
    <rect x="81" y="28" width="11" height="1" fill="#726f70"/>
    <rect x="97" y="28" width="2" height="1" fill="#726f70"/>
    <rect x="1" y="29" width="2" height="1" fill="#726f70"/>
    <rect x="6" y="29" width="7" height="1" fill="#726f70"/>
    <rect x="16" y="29" width="6" height="1" fill="#726f70"/>
    <rect x="33" y="29" width="6" height="1" fill="#726f70"/>
    <rect x="42" y="29" width="7" height="1" fill="#726f70"/>
    <rect x="59" y="29" width="7" height="1" fill="#726f70"/>
    <rect x="69" y="29" width="7" height="1" fill="#726f70"/>
    <rect x="80" y="29" width="12" height="1" fill="#726f70"/>
    <rect x="97" y="29" width="2" height="1" fill="#726f70"/>
    <rect x="1" y="30" width="2" height="1" fill="#726f70"/>
    <rect x="6" y="30" width="7" height="1" fill="#726f70"/>
    <rect x="16" y="30" width="6" height="1" fill="#726f70"/>
    <rect x="33" y="30" width="6" height="1" fill="#726f70"/>
    <rect x="42" y="30" width="7" height="1" fill="#726f70"/>
    <rect x="59" y="30" width="7" height="1" fill="#726f70"/>
    <rect x="69" y="30" width="7" height="1" fill="#726f70"/>
    <rect x="80" y="30" width="12" height="1" fill="#726f70"/>
    <rect x="97" y="30" width="2" height="1" fill="#726f70"/>
    <rect x="1" y="31" width="2" height="1" fill="#726f70"/>
    <rect x="7" y="31" width="5" height="1" fill="#726f70"/>
    <rect x="16" y="31" width="6" height="1" fill="#726f70"/>
    <rect x="33" y="31" width="6" height="1" fill="#726f70"/>
    <rect x="43" y="31" width="6" height="1" fill="#726f70"/>
    <rect x="60" y="31" width="6" height="1" fill="#726f70"/>
    <rect x="69" y="31" width="6" height="1" fill="#726f70"/>
    <rect x="97" y="31" width="2" height="1" fill="#726f70"/>
    <rect x="1" y="32" width="2" height="1" fill="#726f70"/>
    <rect x="8" y="32" width="3" height="1" fill="#726f70"/>
    <rect x="17" y="32" width="4" height="1" fill="#726f70"/>
    <rect x="34" y="32" width="4" height="1" fill="#726f70"/>
    <rect x="44" y="32" width="3" height="1" fill="#726f70"/>
    <rect x="61" y="32" width="3" height="1" fill="#726f70"/>
    <rect x="71" y="32" width="3" height="1" fill="#726f70"/>
    <rect x="97" y="32" width="2" height="1" fill="#726f70"/>
    <rect x="1" y="33" width="2" height="1" fill="#726f70"/>
    <rect x="97" y="33" width="2" height="1" fill="#726f70"/>
    <rect x="1" y="34" width="2" height="1" fill="#726f70"/>
    <rect x="97" y="34" width="2" height="1" fill="#726f70"/>
    <rect x="1" y="35" width="2" height="1" fill="#726f70"/>
    <rect x="97" y="35" width="2" height="1" fill="#726f70"/>
    <rect x="1" y="36" width="2" height="1" fill="#726f70"/>
    <rect x="97" y="36" width="2" height="1" fill="#726f70"/>
    <rect x="1" y="37" width="2" height="1" fill="#726f70"/>
    <rect x="97" y="37" width="2" height="1" fill="#726f70"/>
    <rect x="1" y="38" width="98" height="1" fill="#726f70"/>
    <rect x="1" y="39" width="98" height="1" fill="#726f70"/>
    <rect x="1" y="40" width="2" height="1" fill="#726f70"/>
    <rect x="97" y="40" width="2" height="1" fill="#726f70"/>
    <rect x="1" y="41" width="2" height="1" fill="#726f70"/>
    <rect x="97" y="41" width="2" height="1" fill="#726f70"/>
    <rect x="1" y="42" width="2" height="1" fill="#726f70"/>
    <rect x="97" y="42" width="2" height="1" fill="#726f70"/>
    <rect x="1" y="43" width="2" height="1" fill="#726f70"/>
    <rect x="97" y="43" width="2" height="1" fill="#726f70"/>
    <rect x="1" y="44" width="2" height="1" fill="#726f70"/>
    <rect x="97" y="44" width="2" height="1" fill="#726f70"/>
    <rect x="1" y="45" width="2" height="1" fill="#726f70"/>
    <rect x="21" y="45" width="5" height="1" fill="#726f70"/>
    <rect x="31" y="45" width="4" height="1" fill="#726f70"/>
    <rect x="48" y="45" width="4" height="1" fill="#726f70"/>
    <rect x="58" y="45" width="4" height="1" fill="#726f70"/>
    <rect x="75" y="45" width="4" height="1" fill="#726f70"/>
    <rect x="84" y="45" width="4" height="1" fill="#726f70"/>
    <rect x="97" y="45" width="2" height="1" fill="#726f70"/>
    <rect x="1" y="46" width="2" height="1" fill="#726f70"/>
    <rect x="20" y="46" width="7" height="1" fill="#726f70"/>
    <rect x="30" y="46" width="6" height="1" fill="#726f70"/>
    <rect x="47" y="46" width="6" height="1" fill="#726f70"/>
    <rect x="57" y="46" width="6" height="1" fill="#726f70"/>
    <rect x="74" y="46" width="6" height="1" fill="#726f70"/>
    <rect x="83" y="46" width="6" height="1" fill="#726f70"/>
    <rect x="97" y="46" width="2" height="1" fill="#726f70"/>
    <rect x="1" y="47" width="15" height="1" fill="#726f70"/>
    <rect x="20" y="47" width="7" height="1" fill="#726f70"/>
    <rect x="30" y="47" width="7" height="1" fill="#726f70"/>
    <rect x="46" y="47" width="8" height="1" fill="#726f70"/>
    <rect x="56" y="47" width="7" height="1" fill="#726f70"/>
    <rect x="73" y="47" width="7" height="1" fill="#726f70"/>
    <rect x="83" y="47" width="7" height="1" fill="#726f70"/>
    <rect x="97" y="47" width="2" height="1" fill="#726f70"/>
    <rect x="1" y="48" width="15" height="1" fill="#726f70"/>
    <rect x="20" y="48" width="7" height="1" fill="#726f70"/>
    <rect x="30" y="48" width="7" height="1" fill="#726f70"/>
    <rect x="47" y="48" width="7" height="1" fill="#726f70"/>
    <rect x="56" y="48" width="7" height="1" fill="#726f70"/>
    <rect x="73" y="48" width="7" height="1" fill="#726f70"/>
    <rect x="83" y="48" width="7" height="1" fill="#726f70"/>
    <rect x="97" y="48" width="2" height="1" fill="#726f70"/>
    <rect x="1" y="49" width="2" height="1" fill="#726f70"/>
    <rect x="21" y="49" width="5" height="1" fill="#726f70"/>
    <rect x="30" y="49" width="6" height="1" fill="#726f70"/>
    <rect x="47" y="49" width="6" height="1" fill="#726f70"/>
    <rect x="57" y="49" width="6" height="1" fill="#726f70"/>
    <rect x="74" y="49" width="6" height="1" fill="#726f70"/>
    <rect x="83" y="49" width="6" height="1" fill="#726f70"/>
    <rect x="97" y="49" width="2" height="1" fill="#726f70"/>
    <rect x="1" y="50" width="2" height="1" fill="#726f70"/>
    <rect x="22" y="50" width="3" height="1" fill="#726f70"/>
    <rect x="32" y="50" width="3" height="1" fill="#726f70"/>
    <rect x="48" y="50" width="4" height="1" fill="#726f70"/>
    <rect x="58" y="50" width="3" height="1" fill="#726f70"/>
    <rect x="75" y="50" width="3" height="1" fill="#726f70"/>
    <rect x="85" y="50" width="3" height="1" fill="#726f70"/>
    <rect x="97" y="50" width="2" height="1" fill="#726f70"/>
    <rect x="1" y="51" width="2" height="1" fill="#726f70"/>
    <rect x="97" y="51" width="2" height="1" fill="#726f70"/>
    <rect x="1" y="52" width="2" height="1" fill="#726f70"/>
    <rect x="97" y="52" width="2" height="1" fill="#726f70"/>
    <rect x="1" y="53" width="2" height="1" fill="#726f70"/>
    <rect x="97" y="53" width="2" height="1" fill="#726f70"/>
    <rect x="1" y="54" width="2" height="1" fill="#726f70"/>
    <rect x="97" y="54" width="2" height="1" fill="#726f70"/>
    <rect x="1" y="55" width="2" height="1" fill="#726f70"/>
    <rect x="97" y="55" width="2" height="1" fill="#726f70"/>
    <rect x="1" y="56" width="2" height="1" fill="#726f70"/>
    <rect x="97" y="56" width="2" height="1" fill="#726f70"/>
    <rect x="1" y="57" width="98" height="1" fill="#726f70"/>
    <rect x="2" y="58" width="96" height="1" fill="#726f70"/>
  </g>
</svg>