<?xml version="1.0" encoding="UTF-8"?>
<svg xmlns="http://www.w3.org/2000/svg" viewBox="0 0 151 83" width="151" height="83">
  <!-- Auto-converted from legend-2735.png -->
  <rect x="0" y="0" width="151" height="83" fill="none"/>
  <g fill="#716a40" stroke="none">
    <rect x="0" y="0" width="150" height="1" fill="#716a40"/>
    <rect x="0" y="1" width="1" height="1" fill="#716a40"/>
    <rect x="149" y="1" width="1" height="1" fill="#716a40"/>
    <rect x="0" y="2" width="1" height="1" fill="#716a40"/>
    <rect x="149" y="2" width="1" height="1" fill="#716a40"/>
    <rect x="0" y="3" width="1" height="1" fill="#716a40"/>
    <rect x="149" y="3" width="1" height="1" fill="#716a40"/>
    <rect x="0" y="4" width="1" height="1" fill="#716a40"/>
    <rect x="149" y="4" width="1" height="1" fill="#716a40"/>
    <rect x="0" y="5" width="1" height="1" fill="#716a40"/>
    <rect x="149" y="5" width="1" height="1" fill="#716a40"/>
    <rect x="0" y="6" width="1" height="1" fill="#716a40"/>
    <rect x="118" y="6" width="6" height="1" fill="#716a40"/>
    <rect x="149" y="6" width="1" height="1" fill="#716a40"/>
    <rect x="0" y="7" width="1" height="1" fill="#716a40"/>
    <rect x="117" y="7" width="8" height="1" fill="#716a40"/>
    <rect x="149" y="7" width="1" height="1" fill="#716a40"/>
    <rect x="0" y="8" width="1" height="1" fill="#716a40"/>
    <rect x="107" y="8" width="5" height="1" fill="#716a40"/>
    <rect x="116" y="8" width="9" height="1" fill="#716a40"/>
    <rect x="149" y="8" width="1" height="1" fill="#716a40"/>
    <rect x="0" y="9" width="1" height="1" fill="#716a40"/>
    <rect x="106" y="9" width="7" height="1" fill="#716a40"/>
    <rect x="114" y="9" width="11" height="1" fill="#716a40"/>
    <rect x="149" y="9" width="1" height="1" fill="#716a40"/>
    <rect x="0" y="10" width="1" height="1" fill="#716a40"/>
    <rect x="105" y="10" width="20" height="1" fill="#716a40"/>
    <rect x="149" y="10" width="1" height="1" fill="#716a40"/>
    <rect x="0" y="11" width="1" height="1" fill="#716a40"/>
    <rect x="105" y="11" width="20" height="1" fill="#716a40"/>
    <rect x="149" y="11" width="1" height="1" fill="#716a40"/>
    <rect x="0" y="12" width="1" height="1" fill="#716a40"/>
    <rect x="104" y="12" width="21" height="1" fill="#716a40"/>
    <rect x="149" y="12" width="1" height="1" fill="#716a40"/>
    <rect x="0" y="13" width="1" height="1" fill="#716a40"/>
    <rect x="103" y="13" width="21" height="1" fill="#716a40"/>
    <rect x="149" y="13" width="1" height="1" fill="#716a40"/>
    <rect x="0" y="14" width="1" height="1" fill="#716a40"/>
    <rect x="102" y="14" width="22" height="1" fill="#716a40"/>
    <rect x="149" y="14" width="1" height="1" fill="#716a40"/>
    <rect x="0" y="15" width="1" height="1" fill="#716a40"/>
    <rect x="101" y="15" width="22" height="1" fill="#716a40"/>
    <rect x="149" y="15" width="1" height="1" fill="#716a40"/>
    <rect x="0" y="16" width="1" height="1" fill="#716a40"/>
    <rect x="100" y="16" width="23" height="1" fill="#716a40"/>
    <rect x="149" y="16" width="1" height="1" fill="#716a40"/>
    <rect x="0" y="17" width="1" height="1" fill="#716a40"/>
    <rect x="100" y="17" width="22" height="1" fill="#716a40"/>
    <rect x="149" y="17" width="1" height="1" fill="#716a40"/>
    <rect x="0" y="18" width="1" height="1" fill="#716a40"/>
    <rect x="99" y="18" width="23" height="1" fill="#716a40"/>
    <rect x="149" y="18" width="1" height="1" fill="#716a40"/>
    <rect x="0" y="19" width="1" height="1" fill="#716a40"/>
    <rect x="98" y="19" width="23" height="1" fill="#716a40"/>
    <rect x="149" y="19" width="1" height="1" fill="#716a40"/>
    <rect x="0" y="20" width="1" height="1" fill="#716a40"/>
    <rect x="59" y="20" width="4" height="1" fill="#716a40"/>
    <rect x="97" y="20" width="23" height="1" fill="#716a40"/>
    <rect x="149" y="20" width="1" height="1" fill="#716a40"/>
    <rect x="0" y="21" width="1" height="1" fill="#716a40"/>
    <rect x="59" y="21" width="4" height="1" fill="#716a40"/>
    <rect x="96" y="21" width="24" height="1" fill="#716a40"/>
    <rect x="149" y="21" width="1" height="1" fill="#716a40"/>
    <rect x="0" y="22" width="1" height="1" fill="#716a40"/>
    <rect x="59" y="22" width="5" height="1" fill="#716a40"/>
    <rect x="95" y="22" width="21" height="1" fill="#716a40"/>
    <rect x="149" y="22" width="1" height="1" fill="#716a40"/>
    <rect x="0" y="23" width="1" height="1" fill="#716a40"/>
    <rect x="59" y="23" width="5" height="1" fill="#716a40"/>
    <rect x="95" y="23" width="20" height="1" fill="#716a40"/>
    <rect x="149" y="23" width="1" height="1" fill="#716a40"/>
    <rect x="0" y="24" width="1" height="1" fill="#716a40"/>
    <rect x="59" y="24" width="5" height="1" fill="#716a40"/>
    <rect x="95" y="24" width="19" height="1" fill="#716a40"/>
    <rect x="149" y="24" width="1" height="1" fill="#716a40"/>
    <rect x="0" y="25" width="1" height="1" fill="#716a40"/>
    <rect x="58" y="25" width="7" height="1" fill="#716a40"/>
    <rect x="94" y="25" width="20" height="1" fill="#716a40"/>
    <rect x="149" y="25" width="1" height="1" fill="#716a40"/>
    <rect x="0" y="26" width="1" height="1" fill="#716a40"/>
    <rect x="58" y="26" width="8" height="1" fill="#716a40"/>
    <rect x="93" y="26" width="20" height="1" fill="#716a40"/>
    <rect x="149" y="26" width="1" height="1" fill="#716a40"/>
    <rect x="0" y="27" width="1" height="1" fill="#716a40"/>
    <rect x="57" y="27" width="10" height="1" fill="#716a40"/>
    <rect x="91" y="27" width="22" height="1" fill="#716a40"/>
    <rect x="149" y="27" width="1" height="1" fill="#716a40"/>
    <rect x="0" y="28" width="1" height="1" fill="#716a40"/>
    <rect x="56" y="28" width="12" height="1" fill="#716a40"/>
    <rect x="90" y="28" width="22" height="1" fill="#716a40"/>
    <rect x="149" y="28" width="1" height="1" fill="#716a40"/>
    <rect x="0" y="29" width="1" height="1" fill="#716a40"/>
    <rect x="54" y="29" width="15" height="1" fill="#716a40"/>
    <rect x="89" y="29" width="22" height="1" fill="#716a40"/>
    <rect x="149" y="29" width="1" height="1" fill="#716a40"/>
    <rect x="0" y="30" width="1" height="1" fill="#716a40"/>
    <rect x="53" y="30" width="17" height="1" fill="#716a40"/>
    <rect x="88" y="30" width="23" height="1" fill="#716a40"/>
    <rect x="149" y="30" width="1" height="1" fill="#716a40"/>
    <rect x="0" y="31" width="1" height="1" fill="#716a40"/>
    <rect x="52" y="31" width="18" height="1" fill="#716a40"/>
    <rect x="88" y="31" width="22" height="1" fill="#716a40"/>
    <rect x="149" y="31" width="1" height="1" fill="#716a40"/>
    <rect x="0" y="32" width="1" height="1" fill="#716a40"/>
    <rect x="50" y="32" width="22" height="1" fill="#716a40"/>
    <rect x="88" y="32" width="21" height="1" fill="#716a40"/>
    <rect x="149" y="32" width="1" height="1" fill="#716a40"/>
    <rect x="0" y="33" width="1" height="1" fill="#716a40"/>
    <rect x="48" y="33" width="61" height="1" fill="#716a40"/>
    <rect x="149" y="33" width="1" height="1" fill="#716a40"/>
    <rect x="0" y="34" width="1" height="1" fill="#716a40"/>
    <rect x="44" y="34" width="64" height="1" fill="#716a40"/>
    <rect x="149" y="34" width="1" height="1" fill="#716a40"/>
    <rect x="0" y="35" width="1" height="1" fill="#716a40"/>
    <rect x="44" y="35" width="64" height="1" fill="#716a40"/>
    <rect x="149" y="35" width="1" height="1" fill="#716a40"/>
    <rect x="0" y="36" width="1" height="1" fill="#716a40"/>
    <rect x="44" y="36" width="63" height="1" fill="#716a40"/>
    <rect x="149" y="36" width="1" height="1" fill="#716a40"/>
    <rect x="0" y="37" width="1" height="1" fill="#716a40"/>
    <rect x="44" y="37" width="63" height="1" fill="#716a40"/>
    <rect x="149" y="37" width="1" height="1" fill="#716a40"/>
    <rect x="0" y="38" width="1" height="1" fill="#716a40"/>
    <rect x="44" y="38" width="62" height="1" fill="#716a40"/>
    <rect x="149" y="38" width="1" height="1" fill="#716a40"/>
    <rect x="0" y="39" width="1" height="1" fill="#716a40"/>
    <rect x="44" y="39" width="62" height="1" fill="#716a40"/>
    <rect x="149" y="39" width="1" height="1" fill="#716a40"/>
    <rect x="0" y="40" width="1" height="1" fill="#716a40"/>
    <rect x="44" y="40" width="62" height="1" fill="#716a40"/>
    <rect x="149" y="40" width="1" height="1" fill="#716a40"/>
    <rect x="0" y="41" width="1" height="1" fill="#716a40"/>
    <rect x="43" y="41" width="62" height="1" fill="#716a40"/>
    <rect x="149" y="41" width="1" height="1" fill="#716a40"/>
    <rect x="0" y="42" width="1" height="1" fill="#716a40"/>
    <rect x="43" y="42" width="63" height="1" fill="#716a40"/>
    <rect x="149" y="42" width="1" height="1" fill="#716a40"/>
    <rect x="0" y="43" width="1" height="1" fill="#716a40"/>
    <rect x="42" y="43" width="65" height="1" fill="#716a40"/>
    <rect x="149" y="43" width="1" height="1" fill="#716a40"/>
    <rect x="0" y="44" width="1" height="1" fill="#716a40"/>
    <rect x="40" y="44" width="68" height="1" fill="#716a40"/>
    <rect x="149" y="44" width="1" height="1" fill="#716a40"/>
    <rect x="0" y="45" width="1" height="1" fill="#716a40"/>
    <rect x="38" y="45" width="70" height="1" fill="#716a40"/>
    <rect x="149" y="45" width="1" height="1" fill="#716a40"/>
    <rect x="0" y="46" width="1" height="1" fill="#716a40"/>
    <rect x="36" y="46" width="72" height="1" fill="#716a40"/>
    <rect x="149" y="46" width="1" height="1" fill="#716a40"/>
    <rect x="0" y="47" width="1" height="1" fill="#716a40"/>
    <rect x="34" y="47" width="74" height="1" fill="#716a40"/>
    <rect x="149" y="47" width="1" height="1" fill="#716a40"/>
    <rect x="0" y="48" width="1" height="1" fill="#716a40"/>
    <rect x="30" y="48" width="77" height="1" fill="#716a40"/>
    <rect x="149" y="48" width="1" height="1" fill="#716a40"/>
    <rect x="0" y="49" width="1" height="1" fill="#716a40"/>
    <rect x="26" y="49" width="81" height="1" fill="#716a40"/>
    <rect x="149" y="49" width="1" height="1" fill="#716a40"/>
    <rect x="0" y="50" width="1" height="1" fill="#716a40"/>
    <rect x="25" y="50" width="82" height="1" fill="#716a40"/>
    <rect x="149" y="50" width="1" height="1" fill="#716a40"/>
    <rect x="0" y="51" width="1" height="1" fill="#716a40"/>
    <rect x="24" y="51" width="82" height="1" fill="#716a40"/>
    <rect x="149" y="51" width="1" height="1" fill="#716a40"/>
    <rect x="0" y="52" width="1" height="1" fill="#716a40"/>
    <rect x="24" y="52" width="82" height="1" fill="#716a40"/>
    <rect x="149" y="52" width="1" height="1" fill="#716a40"/>
    <rect x="0" y="53" width="1" height="1" fill="#716a40"/>
    <rect x="24" y="53" width="81" height="1" fill="#716a40"/>
    <rect x="149" y="53" width="1" height="1" fill="#716a40"/>
    <rect x="0" y="54" width="1" height="1" fill="#716a40"/>
    <rect x="24" y="54" width="81" height="1" fill="#716a40"/>
    <rect x="149" y="54" width="1" height="1" fill="#716a40"/>
    <rect x="0" y="55" width="1" height="1" fill="#716a40"/>
    <rect x="24" y="55" width="80" height="1" fill="#716a40"/>
    <rect x="149" y="55" width="1" height="1" fill="#716a40"/>
    <rect x="0" y="56" width="1" height="1" fill="#716a40"/>
    <rect x="24" y="56" width="79" height="1" fill="#716a40"/>
    <rect x="149" y="56" width="1" height="1" fill="#716a40"/>
    <rect x="0" y="57" width="1" height="1" fill="#716a40"/>
    <rect x="24" y="57" width="79" height="1" fill="#716a40"/>
    <rect x="149" y="57" width="1" height="1" fill="#716a40"/>
    <rect x="0" y="58" width="1" height="1" fill="#716a40"/>
    <rect x="25" y="58" width="78" height="1" fill="#716a40"/>
    <rect x="149" y="58" width="1" height="1" fill="#716a40"/>
    <rect x="0" y="59" width="1" height="1" fill="#716a40"/>
    <rect x="25" y="59" width="77" height="1" fill="#716a40"/>
    <rect x="149" y="59" width="1" height="1" fill="#716a40"/>
    <rect x="0" y="60" width="1" height="1" fill="#716a40"/>
    <rect x="26" y="60" width="76" height="1" fill="#716a40"/>
    <rect x="149" y="60" width="1" height="1" fill="#716a40"/>
    <rect x="0" y="61" width="1" height="1" fill="#716a40"/>
    <rect x="27" y="61" width="18" height="1" fill="#716a40"/>
    <rect x="52" y="61" width="49" height="1" fill="#716a40"/>
    <rect x="149" y="61" width="1" height="1" fill="#716a40"/>
    <rect x="0" y="62" width="1" height="1" fill="#716a40"/>
    <rect x="28" y="62" width="12" height="1" fill="#716a40"/>
    <rect x="53" y="62" width="48" height="1" fill="#716a40"/>
    <rect x="149" y="62" width="1" height="1" fill="#716a40"/>
    <rect x="0" y="63" width="1" height="1" fill="#716a40"/>
    <rect x="28" y="63" width="8" height="1" fill="#716a40"/>
    <rect x="53" y="63" width="15" height="1" fill="#716a40"/>
    <rect x="75" y="63" width="21" height="1" fill="#716a40"/>
    <rect x="97" y="63" width="4" height="1" fill="#716a40"/>
    <rect x="149" y="63" width="1" height="1" fill="#716a40"/>
    <rect x="0" y="64" width="1" height="1" fill="#716a40"/>
    <rect x="29" y="64" width="5" height="1" fill="#716a40"/>
    <rect x="54" y="64" width="10" height="1" fill="#716a40"/>
    <rect x="76" y="64" width="20" height="1" fill="#716a40"/>
    <rect x="149" y="64" width="1" height="1" fill="#716a40"/>
    <rect x="0" y="65" width="1" height="1" fill="#716a40"/>
    <rect x="29" y="65" width="2" height="1" fill="#716a40"/>
    <rect x="54" y="65" width="8" height="1" fill="#716a40"/>
    <rect x="77" y="65" width="18" height="1" fill="#716a40"/>
    <rect x="149" y="65" width="1" height="1" fill="#716a40"/>
    <rect x="0" y="66" width="1" height="1" fill="#716a40"/>
    <rect x="54" y="66" width="6" height="1" fill="#716a40"/>
    <rect x="77" y="66" width="18" height="1" fill="#716a40"/>
    <rect x="149" y="66" width="1" height="1" fill="#716a40"/>
    <rect x="0" y="67" width="1" height="1" fill="#716a40"/>
    <rect x="78" y="67" width="16" height="1" fill="#716a40"/>
    <rect x="149" y="67" width="1" height="1" fill="#716a40"/>
    <rect x="0" y="68" width="1" height="1" fill="#716a40"/>
    <rect x="78" y="68" width="15" height="1" fill="#716a40"/>
    <rect x="149" y="68" width="1" height="1" fill="#716a40"/>
    <rect x="0" y="69" width="1" height="1" fill="#716a40"/>
    <rect x="79" y="69" width="13" height="1" fill="#716a40"/>
    <rect x="149" y="69" width="1" height="1" fill="#716a40"/>
    <rect x="0" y="70" width="1" height="1" fill="#716a40"/>
    <rect x="80" y="70" width="10" height="1" fill="#716a40"/>
    <rect x="149" y="70" width="1" height="1" fill="#716a40"/>
    <rect x="0" y="71" width="1" height="1" fill="#716a40"/>
    <rect x="149" y="71" width="1" height="1" fill="#716a40"/>
    <rect x="0" y="72" width="1" height="1" fill="#716a40"/>
    <rect x="149" y="72" width="1" height="1" fill="#716a40"/>
    <rect x="0" y="73" width="1" height="1" fill="#716a40"/>
    <rect x="149" y="73" width="1" height="1" fill="#716a40"/>
    <rect x="0" y="74" width="1" height="1" fill="#716a40"/>
    <rect x="149" y="74" width="1" height="1" fill="#716a40"/>
    <rect x="0" y="75" width="1" height="1" fill="#716a40"/>
    <rect x="149" y="75" width="1" height="1" fill="#716a40"/>
    <rect x="0" y="76" width="1" height="1" fill="#716a40"/>
    <rect x="149" y="76" width="1" height="1" fill="#716a40"/>
    <rect x="0" y="77" width="1" height="1" fill="#716a40"/>
    <rect x="149" y="77" width="1" height="1" fill="#716a40"/>
    <rect x="0" y="78" width="1" height="1" fill="#716a40"/>
    <rect x="149" y="78" width="1" height="1" fill="#716a40"/>
    <rect x="0" y="79" width="1" height="1" fill="#716a40"/>
    <rect x="149" y="79" width="1" height="1" fill="#716a40"/>
    <rect x="0" y="80" width="1" height="1" fill="#716a40"/>
    <rect x="149" y="80" width="1" height="1" fill="#716a40"/>
    <rect x="0" y="81" width="1" height="1" fill="#716a40"/>
    <rect x="149" y="81" width="1" height="1" fill="#716a40"/>
    <rect x="0" y="82" width="150" height="1" fill="#716a40"/>
  </g>
</svg>