<?xml version="1.0" encoding="UTF-8"?>
<svg xmlns="http://www.w3.org/2000/svg" viewBox="0 0 144 59" width="144" height="59">
  <!-- Auto-converted from legend-2328.png -->
  <rect x="0" y="0" width="144" height="59" fill="none"/>
  <g fill="#231f20" stroke="none">
    <rect x="0" y="0" width="144" height="1" fill="#231f20"/>
    <rect x="0" y="1" width="1" height="1" fill="#231f20"/>
    <rect x="143" y="1" width="1" height="1" fill="#231f20"/>
    <rect x="0" y="2" width="1" height="1" fill="#231f20"/>
    <rect x="143" y="2" width="1" height="1" fill="#231f20"/>
    <rect x="0" y="3" width="1" height="1" fill="#231f20"/>
    <rect x="143" y="3" width="1" height="1" fill="#231f20"/>
    <rect x="0" y="4" width="1" height="1" fill="#231f20"/>
    <rect x="16" y="4" width="5" height="1" fill="#231f20"/>
    <rect x="53" y="4" width="1" height="1" fill="#231f20"/>
    <rect x="143" y="4" width="1" height="1" fill="#231f20"/>
    <rect x="0" y="5" width="1" height="1" fill="#231f20"/>
    <rect x="13" y="5" width="3" height="1" fill="#231f20"/>
    <rect x="20" y="5" width="4" height="1" fill="#231f20"/>
    <rect x="51" y="5" width="2" height="1" fill="#231f20"/>
    <rect x="143" y="5" width="1" height="1" fill="#231f20"/>
    <rect x="0" y="6" width="1" height="1" fill="#231f20"/>
    <rect x="10" y="6" width="3" height="1" fill="#231f20"/>
    <rect x="24" y="6" width="2" height="1" fill="#231f20"/>
    <rect x="50" y="6" width="1" height="1" fill="#231f20"/>
    <rect x="81" y="6" width="1" height="1" fill="#231f20"/>
    <rect x="114" y="6" width="1" height="1" fill="#231f20"/>
    <rect x="143" y="6" width="1" height="1" fill="#231f20"/>
    <rect x="0" y="7" width="1" height="1" fill="#231f20"/>
    <rect x="8" y="7" width="2" height="1" fill="#231f20"/>
    <rect x="14" y="7" width="3" height="1" fill="#231f20"/>
    <rect x="25" y="7" width="4" height="1" fill="#231f20"/>
    <rect x="48" y="7" width="2" height="1" fill="#231f20"/>
    <rect x="79" y="7" width="4" height="1" fill="#231f20"/>
    <rect x="112" y="7" width="5" height="1" fill="#231f20"/>
    <rect x="143" y="7" width="1" height="1" fill="#231f20"/>
    <rect x="0" y="8" width="1" height="1" fill="#231f20"/>
    <rect x="5" y="8" width="3" height="1" fill="#231f20"/>
    <rect x="13" y="8" width="5" height="1" fill="#231f20"/>
    <rect x="29" y="8" width="1" height="1" fill="#231f20"/>
    <rect x="47" y="8" width="1" height="1" fill="#231f20"/>
    <rect x="78" y="8" width="2" height="1" fill="#231f20"/>
    <rect x="82" y="8" width="2" height="1" fill="#231f20"/>
    <rect x="111" y="8" width="2" height="1" fill="#231f20"/>
    <rect x="116" y="8" width="1" height="1" fill="#231f20"/>
    <rect x="143" y="8" width="1" height="1" fill="#231f20"/>
    <rect x="0" y="9" width="1" height="1" fill="#231f20"/>
    <rect x="3" y="9" width="2" height="1" fill="#231f20"/>
    <rect x="12" y="9" width="11" height="1" fill="#231f20"/>
    <rect x="30" y="9" width="2" height="1" fill="#231f20"/>
    <rect x="45" y="9" width="2" height="1" fill="#231f20"/>
    <rect x="53" y="9" width="1" height="1" fill="#231f20"/>
    <rect x="77" y="9" width="2" height="1" fill="#231f20"/>
    <rect x="83" y="9" width="2" height="1" fill="#231f20"/>
    <rect x="111" y="9" width="1" height="1" fill="#231f20"/>
    <rect x="117" y="9" width="1" height="1" fill="#231f20"/>
    <rect x="143" y="9" width="1" height="1" fill="#231f20"/>
    <rect x="0" y="10" width="3" height="1" fill="#231f20"/>
    <rect x="12" y="10" width="6" height="1" fill="#231f20"/>
    <rect x="22" y="10" width="3" height="1" fill="#231f20"/>
    <rect x="32" y="10" width="3" height="1" fill="#231f20"/>
    <rect x="43" y="10" width="2" height="1" fill="#231f20"/>
    <rect x="47" y="10" width="3" height="1" fill="#231f20"/>
    <rect x="51" y="10" width="2" height="1" fill="#231f20"/>
    <rect x="77" y="10" width="1" height="1" fill="#231f20"/>
    <rect x="84" y="10" width="1" height="1" fill="#231f20"/>
    <rect x="91" y="10" width="1" height="1" fill="#231f20"/>
    <rect x="110" y="10" width="1" height="1" fill="#231f20"/>
    <rect x="118" y="10" width="1" height="1" fill="#231f20"/>
    <rect x="125" y="10" width="1" height="1" fill="#231f20"/>
    <rect x="143" y="10" width="1" height="1" fill="#231f20"/>
    <rect x="0" y="11" width="1" height="1" fill="#231f20"/>
    <rect x="10" y="11" width="8" height="1" fill="#231f20"/>
    <rect x="25" y="11" width="2" height="1" fill="#231f20"/>
    <rect x="34" y="11" width="9" height="1" fill="#231f20"/>
    <rect x="47" y="11" width="4" height="1" fill="#231f20"/>
    <rect x="85" y="11" width="1" height="1" fill="#231f20"/>
    <rect x="90" y="11" width="2" height="1" fill="#231f20"/>
    <rect x="118" y="11" width="1" height="1" fill="#231f20"/>
    <rect x="124" y="11" width="1" height="1" fill="#231f20"/>
    <rect x="143" y="11" width="1" height="1" fill="#231f20"/>
    <rect x="0" y="12" width="1" height="1" fill="#231f20"/>
    <rect x="7" y="12" width="3" height="1" fill="#231f20"/>
    <rect x="15" y="12" width="1" height="1" fill="#231f20"/>
    <rect x="27" y="12" width="2" height="1" fill="#231f20"/>
    <rect x="30" y="12" width="4" height="1" fill="#231f20"/>
    <rect x="46" y="12" width="5" height="1" fill="#231f20"/>
    <rect x="85" y="12" width="2" height="1" fill="#231f20"/>
    <rect x="90" y="12" width="1" height="1" fill="#231f20"/>
    <rect x="119" y="12" width="1" height="1" fill="#231f20"/>
    <rect x="123" y="12" width="2" height="1" fill="#231f20"/>
    <rect x="143" y="12" width="1" height="1" fill="#231f20"/>
    <rect x="0" y="13" width="1" height="1" fill="#231f20"/>
    <rect x="5" y="13" width="3" height="1" fill="#231f20"/>
    <rect x="29" y="13" width="6" height="1" fill="#231f20"/>
    <rect x="46" y="13" width="6" height="1" fill="#231f20"/>
    <rect x="86" y="13" width="5" height="1" fill="#231f20"/>
    <rect x="119" y="13" width="2" height="1" fill="#231f20"/>
    <rect x="122" y="13" width="2" height="1" fill="#231f20"/>
    <rect x="143" y="13" width="1" height="1" fill="#231f20"/>
    <rect x="0" y="14" width="1" height="1" fill="#231f20"/>
    <rect x="2" y="14" width="3" height="1" fill="#231f20"/>
    <rect x="29" y="14" width="6" height="1" fill="#231f20"/>
    <rect x="45" y="14" width="1" height="1" fill="#231f20"/>
    <rect x="47" y="14" width="4" height="1" fill="#231f20"/>
    <rect x="87" y="14" width="2" height="1" fill="#231f20"/>
    <rect x="121" y="14" width="2" height="1" fill="#231f20"/>
    <rect x="143" y="14" width="1" height="1" fill="#231f20"/>
    <rect x="0" y="15" width="2" height="1" fill="#231f20"/>
    <rect x="29" y="15" width="7" height="1" fill="#231f20"/>
    <rect x="41" y="15" width="4" height="1" fill="#231f20"/>
    <rect x="47" y="15" width="3" height="1" fill="#231f20"/>
    <rect x="143" y="15" width="1" height="1" fill="#231f20"/>
    <rect x="0" y="16" width="1" height="1" fill="#231f20"/>
    <rect x="30" y="16" width="4" height="1" fill="#231f20"/>
    <rect x="36" y="16" width="5" height="1" fill="#231f20"/>
    <rect x="143" y="16" width="1" height="1" fill="#231f20"/>
    <rect x="0" y="17" width="1" height="1" fill="#231f20"/>
    <rect x="143" y="17" width="1" height="1" fill="#231f20"/>
    <rect x="0" y="18" width="1" height="1" fill="#231f20"/>
    <rect x="70" y="18" width="5" height="1" fill="#231f20"/>
    <rect x="77" y="18" width="4" height="1" fill="#231f20"/>
    <rect x="83" y="18" width="5" height="1" fill="#231f20"/>
    <rect x="143" y="18" width="1" height="1" fill="#231f20"/>
    <rect x="0" y="19" width="1" height="1" fill="#231f20"/>
    <rect x="58" y="19" width="4" height="1" fill="#231f20"/>
    <rect x="64" y="19" width="4" height="1" fill="#231f20"/>
    <rect x="89" y="19" width="5" height="1" fill="#231f20"/>
    <rect x="96" y="19" width="4" height="1" fill="#231f20"/>
    <rect x="143" y="19" width="1" height="1" fill="#231f20"/>
    <rect x="0" y="20" width="1" height="1" fill="#231f20"/>
    <rect x="53" y="20" width="2" height="1" fill="#231f20"/>
    <rect x="57" y="20" width="1" height="1" fill="#231f20"/>
    <rect x="102" y="20" width="5" height="1" fill="#231f20"/>
    <rect x="143" y="20" width="1" height="1" fill="#231f20"/>
    <rect x="0" y="21" width="1" height="1" fill="#231f20"/>
    <rect x="47" y="21" width="2" height="1" fill="#231f20"/>
    <rect x="51" y="21" width="2" height="1" fill="#231f20"/>
    <rect x="109" y="21" width="4" height="1" fill="#231f20"/>
    <rect x="115" y="21" width="2" height="1" fill="#231f20"/>
    <rect x="143" y="21" width="1" height="1" fill="#231f20"/>
    <rect x="0" y="22" width="2" height="1" fill="#231f20"/>
    <rect x="41" y="22" width="2" height="1" fill="#231f20"/>
    <rect x="45" y="22" width="2" height="1" fill="#231f20"/>
    <rect x="117" y="22" width="2" height="1" fill="#231f20"/>
    <rect x="143" y="22" width="1" height="1" fill="#231f20"/>
    <rect x="0" y="23" width="1" height="1" fill="#231f20"/>
    <rect x="2" y="23" width="3" height="1" fill="#231f20"/>
    <rect x="38" y="23" width="3" height="1" fill="#231f20"/>
    <rect x="121" y="23" width="5" height="1" fill="#231f20"/>
    <rect x="143" y="23" width="1" height="1" fill="#231f20"/>
    <rect x="0" y="24" width="1" height="1" fill="#231f20"/>
    <rect x="6" y="24" width="5" height="1" fill="#231f20"/>
    <rect x="29" y="24" width="1" height="1" fill="#231f20"/>
    <rect x="32" y="24" width="4" height="1" fill="#231f20"/>
    <rect x="128" y="24" width="4" height="1" fill="#231f20"/>
    <rect x="143" y="24" width="1" height="1" fill="#231f20"/>
    <rect x="0" y="25" width="1" height="1" fill="#231f20"/>
    <rect x="13" y="25" width="4" height="1" fill="#231f20"/>
    <rect x="19" y="25" width="5" height="1" fill="#231f20"/>
    <rect x="26" y="25" width="3" height="1" fill="#231f20"/>
    <rect x="134" y="25" width="3" height="1" fill="#231f20"/>
    <rect x="143" y="25" width="1" height="1" fill="#231f20"/>
    <rect x="0" y="26" width="1" height="1" fill="#231f20"/>
    <rect x="137" y="26" width="1" height="1" fill="#231f20"/>
    <rect x="140" y="26" width="2" height="1" fill="#231f20"/>
    <rect x="143" y="26" width="1" height="1" fill="#231f20"/>
    <rect x="0" y="27" width="1" height="1" fill="#231f20"/>
    <rect x="142" y="27" width="2" height="1" fill="#231f20"/>
    <rect x="0" y="28" width="1" height="1" fill="#231f20"/>
    <rect x="91" y="28" width="2" height="1" fill="#231f20"/>
    <rect x="124" y="28" width="6" height="1" fill="#231f20"/>
    <rect x="143" y="28" width="1" height="1" fill="#231f20"/>
    <rect x="0" y="29" width="1" height="1" fill="#231f20"/>
    <rect x="93" y="29" width="1" height="1" fill="#231f20"/>
    <rect x="121" y="29" width="4" height="1" fill="#231f20"/>
    <rect x="129" y="29" width="4" height="1" fill="#231f20"/>
    <rect x="143" y="29" width="1" height="1" fill="#231f20"/>
    <rect x="0" y="30" width="1" height="1" fill="#231f20"/>
    <rect x="22" y="30" width="2" height="1" fill="#231f20"/>
    <rect x="56" y="30" width="2" height="1" fill="#231f20"/>
    <rect x="94" y="30" width="1" height="1" fill="#231f20"/>
    <rect x="118" y="30" width="3" height="1" fill="#231f20"/>
    <rect x="133" y="30" width="2" height="1" fill="#231f20"/>
    <rect x="143" y="30" width="1" height="1" fill="#231f20"/>
    <rect x="0" y="31" width="1" height="1" fill="#231f20"/>
    <rect x="21" y="31" width="2" height="1" fill="#231f20"/>
    <rect x="24" y="31" width="2" height="1" fill="#231f20"/>
    <rect x="55" y="31" width="4" height="1" fill="#231f20"/>
    <rect x="95" y="31" width="2" height="1" fill="#231f20"/>
    <rect x="116" y="31" width="2" height="1" fill="#231f20"/>
    <rect x="128" y="31" width="4" height="1" fill="#231f20"/>
    <rect x="135" y="31" width="2" height="1" fill="#231f20"/>
    <rect x="143" y="31" width="1" height="1" fill="#231f20"/>
    <rect x="0" y="32" width="1" height="1" fill="#231f20"/>
    <rect x="20" y="32" width="2" height="1" fill="#231f20"/>
    <rect x="25" y="32" width="1" height="1" fill="#231f20"/>
    <rect x="54" y="32" width="2" height="1" fill="#231f20"/>
    <rect x="58" y="32" width="2" height="1" fill="#231f20"/>
    <rect x="97" y="32" width="1" height="1" fill="#231f20"/>
    <rect x="115" y="32" width="1" height="1" fill="#231f20"/>
    <rect x="127" y="32" width="5" height="1" fill="#231f20"/>
    <rect x="137" y="32" width="3" height="1" fill="#231f20"/>
    <rect x="143" y="32" width="1" height="1" fill="#231f20"/>
    <rect x="0" y="33" width="1" height="1" fill="#231f20"/>
    <rect x="20" y="33" width="1" height="1" fill="#231f20"/>
    <rect x="26" y="33" width="1" height="1" fill="#231f20"/>
    <rect x="53" y="33" width="2" height="1" fill="#231f20"/>
    <rect x="59" y="33" width="1" height="1" fill="#231f20"/>
    <rect x="91" y="33" width="1" height="1" fill="#231f20"/>
    <rect x="98" y="33" width="2" height="1" fill="#231f20"/>
    <rect x="113" y="33" width="3" height="1" fill="#231f20"/>
    <rect x="122" y="33" width="11" height="1" fill="#231f20"/>
    <rect x="140" y="33" width="2" height="1" fill="#231f20"/>
    <rect x="143" y="33" width="1" height="1" fill="#231f20"/>
    <rect x="0" y="34" width="1" height="1" fill="#231f20"/>
    <rect x="19" y="34" width="1" height="1" fill="#231f20"/>
    <rect x="27" y="34" width="1" height="1" fill="#231f20"/>
    <rect x="34" y="34" width="1" height="1" fill="#231f20"/>
    <rect x="53" y="34" width="1" height="1" fill="#231f20"/>
    <rect x="60" y="34" width="1" height="1" fill="#231f20"/>
    <rect x="67" y="34" width="1" height="1" fill="#231f20"/>
    <rect x="92" y="34" width="2" height="1" fill="#231f20"/>
    <rect x="95" y="34" width="3" height="1" fill="#231f20"/>
    <rect x="100" y="34" width="3" height="1" fill="#231f20"/>
    <rect x="110" y="34" width="3" height="1" fill="#231f20"/>
    <rect x="120" y="34" width="3" height="1" fill="#231f20"/>
    <rect x="127" y="34" width="7" height="1" fill="#231f20"/>
    <rect x="142" y="34" width="2" height="1" fill="#231f20"/>
    <rect x="0" y="35" width="1" height="1" fill="#231f20"/>
    <rect x="27" y="35" width="1" height="1" fill="#231f20"/>
    <rect x="33" y="35" width="1" height="1" fill="#231f20"/>
    <rect x="60" y="35" width="2" height="1" fill="#231f20"/>
    <rect x="66" y="35" width="2" height="1" fill="#231f20"/>
    <rect x="94" y="35" width="5" height="1" fill="#231f20"/>
    <rect x="103" y="35" width="8" height="1" fill="#231f20"/>
    <rect x="113" y="35" width="1" height="1" fill="#231f20"/>
    <rect x="118" y="35" width="2" height="1" fill="#231f20"/>
    <rect x="128" y="35" width="4" height="1" fill="#231f20"/>
    <rect x="133" y="35" width="2" height="1" fill="#231f20"/>
    <rect x="143" y="35" width="1" height="1" fill="#231f20"/>
    <rect x="0" y="36" width="1" height="1" fill="#231f20"/>
    <rect x="28" y="36" width="1" height="1" fill="#231f20"/>
    <rect x="32" y="36" width="2" height="1" fill="#231f20"/>
    <rect x="61" y="36" width="2" height="1" fill="#231f20"/>
    <rect x="65" y="36" width="2" height="1" fill="#231f20"/>
    <rect x="93" y="36" width="6" height="1" fill="#231f20"/>
    <rect x="111" y="36" width="4" height="1" fill="#231f20"/>
    <rect x="116" y="36" width="2" height="1" fill="#231f20"/>
    <rect x="129" y="36" width="1" height="1" fill="#231f20"/>
    <rect x="135" y="36" width="3" height="1" fill="#231f20"/>
    <rect x="143" y="36" width="1" height="1" fill="#231f20"/>
    <rect x="0" y="37" width="1" height="1" fill="#231f20"/>
    <rect x="29" y="37" width="4" height="1" fill="#231f20"/>
    <rect x="62" y="37" width="4" height="1" fill="#231f20"/>
    <rect x="94" y="37" width="5" height="1" fill="#231f20"/>
    <rect x="110" y="37" width="6" height="1" fill="#231f20"/>
    <rect x="137" y="37" width="3" height="1" fill="#231f20"/>
    <rect x="143" y="37" width="1" height="1" fill="#231f20"/>
    <rect x="0" y="38" width="1" height="1" fill="#231f20"/>
    <rect x="30" y="38" width="1" height="1" fill="#231f20"/>
    <rect x="63" y="38" width="2" height="1" fill="#231f20"/>
    <rect x="94" y="38" width="7" height="1" fill="#231f20"/>
    <rect x="110" y="38" width="6" height="1" fill="#231f20"/>
    <rect x="140" y="38" width="4" height="1" fill="#231f20"/>
    <rect x="0" y="39" width="1" height="1" fill="#231f20"/>
    <rect x="95" y="39" width="3" height="1" fill="#231f20"/>
    <rect x="101" y="39" width="4" height="1" fill="#231f20"/>
    <rect x="108" y="39" width="8" height="1" fill="#231f20"/>
    <rect x="143" y="39" width="1" height="1" fill="#231f20"/>
    <rect x="0" y="40" width="1" height="1" fill="#231f20"/>
    <rect x="104" y="40" width="5" height="1" fill="#231f20"/>
    <rect x="111" y="40" width="4" height="1" fill="#231f20"/>
    <rect x="143" y="40" width="1" height="1" fill="#231f20"/>
    <rect x="0" y="41" width="1" height="1" fill="#231f20"/>
    <rect x="143" y="41" width="1" height="1" fill="#231f20"/>
    <rect x="0" y="42" width="1" height="1" fill="#231f20"/>
    <rect x="143" y="42" width="1" height="1" fill="#231f20"/>
    <rect x="0" y="43" width="1" height="1" fill="#231f20"/>
    <rect x="143" y="43" width="1" height="1" fill="#231f20"/>
    <rect x="0" y="44" width="1" height="1" fill="#231f20"/>
    <rect x="143" y="44" width="1" height="1" fill="#231f20"/>
    <rect x="0" y="45" width="1" height="1" fill="#231f20"/>
    <rect x="143" y="45" width="1" height="1" fill="#231f20"/>
    <rect x="0" y="46" width="1" height="1" fill="#231f20"/>
    <rect x="143" y="46" width="1" height="1" fill="#231f20"/>
    <rect x="0" y="47" width="1" height="1" fill="#231f20"/>
    <rect x="65" y="47" width="3" height="1" fill="#231f20"/>
    <rect x="70" y="47" width="5" height="1" fill="#231f20"/>
    <rect x="77" y="47" width="4" height="1" fill="#231f20"/>
    <rect x="83" y="47" width="5" height="1" fill="#231f20"/>
    <rect x="90" y="47" width="4" height="1" fill="#231f20"/>
    <rect x="143" y="47" width="1" height="1" fill="#231f20"/>
    <rect x="0" y="48" width="1" height="1" fill="#231f20"/>
    <rect x="57" y="48" width="5" height="1" fill="#231f20"/>
    <rect x="64" y="48" width="1" height="1" fill="#231f20"/>
    <rect x="96" y="48" width="4" height="1" fill="#231f20"/>
    <rect x="102" y="48" width="3" height="1" fill="#231f20"/>
    <rect x="143" y="48" width="1" height="1" fill="#231f20"/>
    <rect x="0" y="49" width="1" height="1" fill="#231f20"/>
    <rect x="51" y="49" width="5" height="1" fill="#231f20"/>
    <rect x="105" y="49" width="2" height="1" fill="#231f20"/>
    <rect x="109" y="49" width="3" height="1" fill="#231f20"/>
    <rect x="143" y="49" width="1" height="1" fill="#231f20"/>
    <rect x="0" y="50" width="1" height="1" fill="#231f20"/>
    <rect x="45" y="50" width="4" height="1" fill="#231f20"/>
    <rect x="112" y="50" width="1" height="1" fill="#231f20"/>
    <rect x="115" y="50" width="4" height="1" fill="#231f20"/>
    <rect x="143" y="50" width="1" height="1" fill="#231f20"/>
    <rect x="0" y="51" width="4" height="1" fill="#231f20"/>
    <rect x="39" y="51" width="4" height="1" fill="#231f20"/>
    <rect x="45" y="51" width="1" height="1" fill="#231f20"/>
    <rect x="119" y="51" width="1" height="1" fill="#231f20"/>
    <rect x="121" y="51" width="3" height="1" fill="#231f20"/>
    <rect x="143" y="51" width="1" height="1" fill="#231f20"/>
    <rect x="0" y="52" width="1" height="1" fill="#231f20"/>
    <rect x="4" y="52" width="1" height="1" fill="#231f20"/>
    <rect x="6" y="52" width="2" height="1" fill="#231f20"/>
    <rect x="35" y="52" width="2" height="1" fill="#231f20"/>
    <rect x="38" y="52" width="1" height="1" fill="#231f20"/>
    <rect x="124" y="52" width="2" height="1" fill="#231f20"/>
    <rect x="128" y="52" width="2" height="1" fill="#231f20"/>
    <rect x="143" y="52" width="1" height="1" fill="#231f20"/>
    <rect x="0" y="53" width="1" height="1" fill="#231f20"/>
    <rect x="8" y="53" width="3" height="1" fill="#231f20"/>
    <rect x="13" y="53" width="1" height="1" fill="#231f20"/>
    <rect x="27" y="53" width="3" height="1" fill="#231f20"/>
    <rect x="32" y="53" width="3" height="1" fill="#231f20"/>
    <rect x="130" y="53" width="2" height="1" fill="#231f20"/>
    <rect x="143" y="53" width="1" height="1" fill="#231f20"/>
    <rect x="0" y="54" width="1" height="1" fill="#231f20"/>
    <rect x="14" y="54" width="3" height="1" fill="#231f20"/>
    <rect x="19" y="54" width="5" height="1" fill="#231f20"/>
    <rect x="26" y="54" width="1" height="1" fill="#231f20"/>
    <rect x="134" y="54" width="5" height="1" fill="#231f20"/>
    <rect x="143" y="54" width="1" height="1" fill="#231f20"/>
    <rect x="0" y="55" width="1" height="1" fill="#231f20"/>
    <rect x="140" y="55" width="4" height="1" fill="#231f20"/>
    <rect x="0" y="56" width="1" height="1" fill="#231f20"/>
    <rect x="143" y="56" width="1" height="1" fill="#231f20"/>
    <rect x="0" y="57" width="1" height="1" fill="#231f20"/>
    <rect x="143" y="57" width="1" height="1" fill="#231f20"/>
    <rect x="0" y="58" width="144" height="1" fill="#231f20"/>
  </g>
</svg>