<?xml version="1.0" encoding="UTF-8"?>
<svg xmlns="http://www.w3.org/2000/svg" viewBox="0 0 173 70" width="173" height="70">
  <!-- Auto-converted from legend-2372.png -->
  <rect x="0" y="0" width="173" height="70" fill="none"/>
  <g fill="#231f20" stroke="none">
    <rect x="0" y="0" width="173" height="1" fill="#231f20"/>
    <rect x="0" y="1" width="1" height="1" fill="#231f20"/>
    <rect x="172" y="1" width="1" height="1" fill="#231f20"/>
    <rect x="0" y="2" width="1" height="1" fill="#231f20"/>
    <rect x="172" y="2" width="1" height="1" fill="#231f20"/>
    <rect x="0" y="3" width="1" height="1" fill="#231f20"/>
    <rect x="172" y="3" width="1" height="1" fill="#231f20"/>
    <rect x="0" y="4" width="1" height="1" fill="#231f20"/>
    <rect x="172" y="4" width="1" height="1" fill="#231f20"/>
    <rect x="0" y="5" width="1" height="1" fill="#231f20"/>
    <rect x="172" y="5" width="1" height="1" fill="#231f20"/>
    <rect x="0" y="6" width="1" height="1" fill="#231f20"/>
    <rect x="172" y="6" width="1" height="1" fill="#231f20"/>
    <rect x="0" y="7" width="1" height="1" fill="#231f20"/>
    <rect x="172" y="7" width="1" height="1" fill="#231f20"/>
    <rect x="0" y="8" width="1" height="1" fill="#231f20"/>
    <rect x="80" y="8" width="7" height="1" fill="#231f20"/>
    <rect x="139" y="8" width="3" height="1" fill="#231f20"/>
    <rect x="172" y="8" width="1" height="1" fill="#231f20"/>
    <rect x="0" y="9" width="1" height="1" fill="#231f20"/>
    <rect x="53" y="9" width="3" height="1" fill="#231f20"/>
    <rect x="78" y="9" width="2" height="1" fill="#231f20"/>
    <rect x="87" y="9" width="1" height="1" fill="#231f20"/>
    <rect x="138" y="9" width="1" height="1" fill="#231f20"/>
    <rect x="142" y="9" width="1" height="1" fill="#231f20"/>
    <rect x="172" y="9" width="1" height="1" fill="#231f20"/>
    <rect x="0" y="10" width="1" height="1" fill="#231f20"/>
    <rect x="22" y="10" width="8" height="1" fill="#231f20"/>
    <rect x="51" y="10" width="2" height="1" fill="#231f20"/>
    <rect x="56" y="10" width="2" height="1" fill="#231f20"/>
    <rect x="77" y="10" width="1" height="1" fill="#231f20"/>
    <rect x="88" y="10" width="2" height="1" fill="#231f20"/>
    <rect x="137" y="10" width="1" height="1" fill="#231f20"/>
    <rect x="143" y="10" width="1" height="1" fill="#231f20"/>
    <rect x="172" y="10" width="1" height="1" fill="#231f20"/>
    <rect x="0" y="11" width="1" height="1" fill="#231f20"/>
    <rect x="20" y="11" width="2" height="1" fill="#231f20"/>
    <rect x="30" y="11" width="2" height="1" fill="#231f20"/>
    <rect x="51" y="11" width="1" height="1" fill="#231f20"/>
    <rect x="57" y="11" width="1" height="1" fill="#231f20"/>
    <rect x="76" y="11" width="1" height="1" fill="#231f20"/>
    <rect x="90" y="11" width="1" height="1" fill="#231f20"/>
    <rect x="111" y="11" width="2" height="1" fill="#231f20"/>
    <rect x="137" y="11" width="1" height="1" fill="#231f20"/>
    <rect x="143" y="11" width="1" height="1" fill="#231f20"/>
    <rect x="172" y="11" width="1" height="1" fill="#231f20"/>
    <rect x="0" y="12" width="1" height="1" fill="#231f20"/>
    <rect x="18" y="12" width="2" height="1" fill="#231f20"/>
    <rect x="24" y="12" width="3" height="1" fill="#231f20"/>
    <rect x="32" y="12" width="2" height="1" fill="#231f20"/>
    <rect x="51" y="12" width="1" height="1" fill="#231f20"/>
    <rect x="57" y="12" width="1" height="1" fill="#231f20"/>
    <rect x="77" y="12" width="2" height="1" fill="#231f20"/>
    <rect x="88" y="12" width="2" height="1" fill="#231f20"/>
    <rect x="110" y="12" width="3" height="1" fill="#231f20"/>
    <rect x="137" y="12" width="1" height="1" fill="#231f20"/>
    <rect x="143" y="12" width="1" height="1" fill="#231f20"/>
    <rect x="172" y="12" width="1" height="1" fill="#231f20"/>
    <rect x="0" y="13" width="1" height="1" fill="#231f20"/>
    <rect x="17" y="13" width="1" height="1" fill="#231f20"/>
    <rect x="24" y="13" width="1" height="1" fill="#231f20"/>
    <rect x="26" y="13" width="2" height="1" fill="#231f20"/>
    <rect x="34" y="13" width="1" height="1" fill="#231f20"/>
    <rect x="51" y="13" width="1" height="1" fill="#231f20"/>
    <rect x="57" y="13" width="1" height="1" fill="#231f20"/>
    <rect x="79" y="13" width="2" height="1" fill="#231f20"/>
    <rect x="86" y="13" width="2" height="1" fill="#231f20"/>
    <rect x="137" y="13" width="1" height="1" fill="#231f20"/>
    <rect x="143" y="13" width="1" height="1" fill="#231f20"/>
    <rect x="172" y="13" width="1" height="1" fill="#231f20"/>
    <rect x="0" y="14" width="1" height="1" fill="#231f20"/>
    <rect x="25" y="14" width="2" height="1" fill="#231f20"/>
    <rect x="52" y="14" width="5" height="1" fill="#231f20"/>
    <rect x="81" y="14" width="2" height="1" fill="#231f20"/>
    <rect x="84" y="14" width="2" height="1" fill="#231f20"/>
    <rect x="137" y="14" width="2" height="1" fill="#231f20"/>
    <rect x="142" y="14" width="2" height="1" fill="#231f20"/>
    <rect x="172" y="14" width="1" height="1" fill="#231f20"/>
    <rect x="0" y="15" width="1" height="1" fill="#231f20"/>
    <rect x="83" y="15" width="1" height="1" fill="#231f20"/>
    <rect x="139" y="15" width="3" height="1" fill="#231f20"/>
    <rect x="172" y="15" width="1" height="1" fill="#231f20"/>
    <rect x="0" y="16" width="1" height="1" fill="#231f20"/>
    <rect x="172" y="16" width="1" height="1" fill="#231f20"/>
    <rect x="0" y="17" width="1" height="1" fill="#231f20"/>
    <rect x="172" y="17" width="1" height="1" fill="#231f20"/>
    <rect x="0" y="18" width="1" height="1" fill="#231f20"/>
    <rect x="172" y="18" width="1" height="1" fill="#231f20"/>
    <rect x="0" y="19" width="1" height="1" fill="#231f20"/>
    <rect x="172" y="19" width="1" height="1" fill="#231f20"/>
    <rect x="0" y="20" width="1" height="1" fill="#231f20"/>
    <rect x="172" y="20" width="1" height="1" fill="#231f20"/>
    <rect x="0" y="21" width="1" height="1" fill="#231f20"/>
    <rect x="172" y="21" width="1" height="1" fill="#231f20"/>
    <rect x="0" y="22" width="1" height="1" fill="#231f20"/>
    <rect x="172" y="22" width="1" height="1" fill="#231f20"/>
    <rect x="0" y="23" width="173" height="1" fill="#231f20"/>
    <rect x="0" y="24" width="1" height="1" fill="#231f20"/>
    <rect x="172" y="24" width="1" height="1" fill="#231f20"/>
    <rect x="0" y="25" width="1" height="1" fill="#231f20"/>
    <rect x="172" y="25" width="1" height="1" fill="#231f20"/>
    <rect x="0" y="26" width="1" height="1" fill="#231f20"/>
    <rect x="172" y="26" width="1" height="1" fill="#231f20"/>
    <rect x="0" y="27" width="1" height="1" fill="#231f20"/>
    <rect x="172" y="27" width="1" height="1" fill="#231f20"/>
    <rect x="0" y="28" width="1" height="1" fill="#231f20"/>
    <rect x="172" y="28" width="1" height="1" fill="#231f20"/>
    <rect x="0" y="29" width="1" height="1" fill="#231f20"/>
    <rect x="172" y="29" width="1" height="1" fill="#231f20"/>
    <rect x="0" y="30" width="1" height="1" fill="#231f20"/>
    <rect x="172" y="30" width="1" height="1" fill="#231f20"/>
    <rect x="0" y="31" width="1" height="1" fill="#231f20"/>
    <rect x="30" y="31" width="3" height="1" fill="#231f20"/>
    <rect x="85" y="31" width="8" height="1" fill="#231f20"/>
    <rect x="172" y="31" width="1" height="1" fill="#231f20"/>
    <rect x="0" y="32" width="1" height="1" fill="#231f20"/>
    <rect x="28" y="32" width="2" height="1" fill="#231f20"/>
    <rect x="33" y="32" width="2" height="1" fill="#231f20"/>
    <rect x="83" y="32" width="2" height="1" fill="#231f20"/>
    <rect x="93" y="32" width="2" height="1" fill="#231f20"/>
    <rect x="115" y="32" width="5" height="1" fill="#231f20"/>
    <rect x="172" y="32" width="1" height="1" fill="#231f20"/>
    <rect x="0" y="33" width="1" height="1" fill="#231f20"/>
    <rect x="28" y="33" width="1" height="1" fill="#231f20"/>
    <rect x="34" y="33" width="1" height="1" fill="#231f20"/>
    <rect x="82" y="33" width="1" height="1" fill="#231f20"/>
    <rect x="95" y="33" width="1" height="1" fill="#231f20"/>
    <rect x="114" y="33" width="1" height="1" fill="#231f20"/>
    <rect x="120" y="33" width="1" height="1" fill="#231f20"/>
    <rect x="142" y="33" width="9" height="1" fill="#231f20"/>
    <rect x="172" y="33" width="1" height="1" fill="#231f20"/>
    <rect x="0" y="34" width="1" height="1" fill="#231f20"/>
    <rect x="28" y="34" width="1" height="1" fill="#231f20"/>
    <rect x="35" y="34" width="1" height="1" fill="#231f20"/>
    <rect x="59" y="34" width="3" height="1" fill="#231f20"/>
    <rect x="83" y="34" width="1" height="1" fill="#231f20"/>
    <rect x="93" y="34" width="2" height="1" fill="#231f20"/>
    <rect x="114" y="34" width="1" height="1" fill="#231f20"/>
    <rect x="120" y="34" width="1" height="1" fill="#231f20"/>
    <rect x="139" y="34" width="3" height="1" fill="#231f20"/>
    <rect x="146" y="34" width="1" height="1" fill="#231f20"/>
    <rect x="150" y="34" width="3" height="1" fill="#231f20"/>
    <rect x="172" y="34" width="1" height="1" fill="#231f20"/>
    <rect x="0" y="35" width="1" height="1" fill="#231f20"/>
    <rect x="28" y="35" width="1" height="1" fill="#231f20"/>
    <rect x="35" y="35" width="1" height="1" fill="#231f20"/>
    <rect x="59" y="35" width="3" height="1" fill="#231f20"/>
    <rect x="84" y="35" width="1" height="1" fill="#231f20"/>
    <rect x="92" y="35" width="1" height="1" fill="#231f20"/>
    <rect x="114" y="35" width="1" height="1" fill="#231f20"/>
    <rect x="120" y="35" width="1" height="1" fill="#231f20"/>
    <rect x="137" y="35" width="2" height="1" fill="#231f20"/>
    <rect x="145" y="35" width="3" height="1" fill="#231f20"/>
    <rect x="153" y="35" width="2" height="1" fill="#231f20"/>
    <rect x="172" y="35" width="1" height="1" fill="#231f20"/>
    <rect x="0" y="36" width="1" height="1" fill="#231f20"/>
    <rect x="28" y="36" width="1" height="1" fill="#231f20"/>
    <rect x="34" y="36" width="1" height="1" fill="#231f20"/>
    <rect x="85" y="36" width="2" height="1" fill="#231f20"/>
    <rect x="91" y="36" width="1" height="1" fill="#231f20"/>
    <rect x="114" y="36" width="1" height="1" fill="#231f20"/>
    <rect x="120" y="36" width="1" height="1" fill="#231f20"/>
    <rect x="145" y="36" width="1" height="1" fill="#231f20"/>
    <rect x="147" y="36" width="1" height="1" fill="#231f20"/>
    <rect x="172" y="36" width="1" height="1" fill="#231f20"/>
    <rect x="0" y="37" width="1" height="1" fill="#231f20"/>
    <rect x="28" y="37" width="2" height="1" fill="#231f20"/>
    <rect x="33" y="37" width="2" height="1" fill="#231f20"/>
    <rect x="87" y="37" width="1" height="1" fill="#231f20"/>
    <rect x="89" y="37" width="2" height="1" fill="#231f20"/>
    <rect x="115" y="37" width="5" height="1" fill="#231f20"/>
    <rect x="145" y="37" width="2" height="1" fill="#231f20"/>
    <rect x="172" y="37" width="1" height="1" fill="#231f20"/>
    <rect x="0" y="38" width="1" height="1" fill="#231f20"/>
    <rect x="30" y="38" width="3" height="1" fill="#231f20"/>
    <rect x="88" y="38" width="1" height="1" fill="#231f20"/>
    <rect x="172" y="38" width="1" height="1" fill="#231f20"/>
    <rect x="0" y="39" width="1" height="1" fill="#231f20"/>
    <rect x="172" y="39" width="1" height="1" fill="#231f20"/>
    <rect x="0" y="40" width="1" height="1" fill="#231f20"/>
    <rect x="172" y="40" width="1" height="1" fill="#231f20"/>
    <rect x="0" y="41" width="1" height="1" fill="#231f20"/>
    <rect x="172" y="41" width="1" height="1" fill="#231f20"/>
    <rect x="0" y="42" width="1" height="1" fill="#231f20"/>
    <rect x="172" y="42" width="1" height="1" fill="#231f20"/>
    <rect x="0" y="43" width="1" height="1" fill="#231f20"/>
    <rect x="172" y="43" width="1" height="1" fill="#231f20"/>
    <rect x="0" y="44" width="1" height="1" fill="#231f20"/>
    <rect x="172" y="44" width="1" height="1" fill="#231f20"/>
    <rect x="0" y="45" width="1" height="1" fill="#231f20"/>
    <rect x="172" y="45" width="1" height="1" fill="#231f20"/>
    <rect x="0" y="46" width="173" height="1" fill="#231f20"/>
    <rect x="0" y="47" width="1" height="1" fill="#231f20"/>
    <rect x="172" y="47" width="1" height="1" fill="#231f20"/>
    <rect x="0" y="48" width="1" height="1" fill="#231f20"/>
    <rect x="172" y="48" width="1" height="1" fill="#231f20"/>
    <rect x="0" y="49" width="1" height="1" fill="#231f20"/>
    <rect x="172" y="49" width="1" height="1" fill="#231f20"/>
    <rect x="0" y="50" width="1" height="1" fill="#231f20"/>
    <rect x="172" y="50" width="1" height="1" fill="#231f20"/>
    <rect x="0" y="51" width="1" height="1" fill="#231f20"/>
    <rect x="172" y="51" width="1" height="1" fill="#231f20"/>
    <rect x="0" y="52" width="1" height="1" fill="#231f20"/>
    <rect x="172" y="52" width="1" height="1" fill="#231f20"/>
    <rect x="0" y="53" width="1" height="1" fill="#231f20"/>
    <rect x="172" y="53" width="1" height="1" fill="#231f20"/>
    <rect x="0" y="54" width="1" height="1" fill="#231f20"/>
    <rect x="53" y="54" width="3" height="1" fill="#231f20"/>
    <rect x="79" y="54" width="9" height="1" fill="#231f20"/>
    <rect x="139" y="54" width="3" height="1" fill="#231f20"/>
    <rect x="172" y="54" width="1" height="1" fill="#231f20"/>
    <rect x="0" y="55" width="1" height="1" fill="#231f20"/>
    <rect x="51" y="55" width="2" height="1" fill="#231f20"/>
    <rect x="56" y="55" width="2" height="1" fill="#231f20"/>
    <rect x="77" y="55" width="2" height="1" fill="#231f20"/>
    <rect x="88" y="55" width="2" height="1" fill="#231f20"/>
    <rect x="137" y="55" width="2" height="1" fill="#231f20"/>
    <rect x="142" y="55" width="2" height="1" fill="#231f20"/>
    <rect x="172" y="55" width="1" height="1" fill="#231f20"/>
    <rect x="0" y="56" width="1" height="1" fill="#231f20"/>
    <rect x="21" y="56" width="10" height="1" fill="#231f20"/>
    <rect x="51" y="56" width="1" height="1" fill="#231f20"/>
    <rect x="57" y="56" width="1" height="1" fill="#231f20"/>
    <rect x="76" y="56" width="1" height="1" fill="#231f20"/>
    <rect x="90" y="56" width="1" height="1" fill="#231f20"/>
    <rect x="137" y="56" width="1" height="1" fill="#231f20"/>
    <rect x="143" y="56" width="1" height="1" fill="#231f20"/>
    <rect x="172" y="56" width="1" height="1" fill="#231f20"/>
    <rect x="0" y="57" width="1" height="1" fill="#231f20"/>
    <rect x="19" y="57" width="3" height="1" fill="#231f20"/>
    <rect x="25" y="57" width="1" height="1" fill="#231f20"/>
    <rect x="30" y="57" width="3" height="1" fill="#231f20"/>
    <rect x="51" y="57" width="1" height="1" fill="#231f20"/>
    <rect x="57" y="57" width="1" height="1" fill="#231f20"/>
    <rect x="77" y="57" width="2" height="1" fill="#231f20"/>
    <rect x="88" y="57" width="2" height="1" fill="#231f20"/>
    <rect x="110" y="57" width="3" height="1" fill="#231f20"/>
    <rect x="137" y="57" width="1" height="1" fill="#231f20"/>
    <rect x="143" y="57" width="1" height="1" fill="#231f20"/>
    <rect x="172" y="57" width="1" height="1" fill="#231f20"/>
    <rect x="0" y="58" width="1" height="1" fill="#231f20"/>
    <rect x="17" y="58" width="2" height="1" fill="#231f20"/>
    <rect x="24" y="58" width="3" height="1" fill="#231f20"/>
    <rect x="33" y="58" width="2" height="1" fill="#231f20"/>
    <rect x="51" y="58" width="1" height="1" fill="#231f20"/>
    <rect x="57" y="58" width="1" height="1" fill="#231f20"/>
    <rect x="79" y="58" width="1" height="1" fill="#231f20"/>
    <rect x="87" y="58" width="1" height="1" fill="#231f20"/>
    <rect x="111" y="58" width="2" height="1" fill="#231f20"/>
    <rect x="137" y="58" width="1" height="1" fill="#231f20"/>
    <rect x="143" y="58" width="1" height="1" fill="#231f20"/>
    <rect x="172" y="58" width="1" height="1" fill="#231f20"/>
    <rect x="0" y="59" width="1" height="1" fill="#231f20"/>
    <rect x="24" y="59" width="1" height="1" fill="#231f20"/>
    <rect x="26" y="59" width="2" height="1" fill="#231f20"/>
    <rect x="51" y="59" width="1" height="1" fill="#231f20"/>
    <rect x="57" y="59" width="1" height="1" fill="#231f20"/>
    <rect x="80" y="59" width="1" height="1" fill="#231f20"/>
    <rect x="86" y="59" width="1" height="1" fill="#231f20"/>
    <rect x="137" y="59" width="1" height="1" fill="#231f20"/>
    <rect x="143" y="59" width="1" height="1" fill="#231f20"/>
    <rect x="172" y="59" width="1" height="1" fill="#231f20"/>
    <rect x="0" y="60" width="1" height="1" fill="#231f20"/>
    <rect x="25" y="60" width="2" height="1" fill="#231f20"/>
    <rect x="52" y="60" width="1" height="1" fill="#231f20"/>
    <rect x="56" y="60" width="1" height="1" fill="#231f20"/>
    <rect x="81" y="60" width="2" height="1" fill="#231f20"/>
    <rect x="84" y="60" width="2" height="1" fill="#231f20"/>
    <rect x="138" y="60" width="1" height="1" fill="#231f20"/>
    <rect x="142" y="60" width="1" height="1" fill="#231f20"/>
    <rect x="172" y="60" width="1" height="1" fill="#231f20"/>
    <rect x="0" y="61" width="1" height="1" fill="#231f20"/>
    <rect x="53" y="61" width="3" height="1" fill="#231f20"/>
    <rect x="83" y="61" width="1" height="1" fill="#231f20"/>
    <rect x="139" y="61" width="3" height="1" fill="#231f20"/>
    <rect x="172" y="61" width="1" height="1" fill="#231f20"/>
    <rect x="0" y="62" width="1" height="1" fill="#231f20"/>
    <rect x="172" y="62" width="1" height="1" fill="#231f20"/>
    <rect x="0" y="63" width="1" height="1" fill="#231f20"/>
    <rect x="172" y="63" width="1" height="1" fill="#231f20"/>
    <rect x="0" y="64" width="1" height="1" fill="#231f20"/>
    <rect x="172" y="64" width="1" height="1" fill="#231f20"/>
    <rect x="0" y="65" width="1" height="1" fill="#231f20"/>
    <rect x="172" y="65" width="1" height="1" fill="#231f20"/>
    <rect x="0" y="66" width="1" height="1" fill="#231f20"/>
    <rect x="172" y="66" width="1" height="1" fill="#231f20"/>
    <rect x="0" y="67" width="1" height="1" fill="#231f20"/>
    <rect x="172" y="67" width="1" height="1" fill="#231f20"/>
    <rect x="0" y="68" width="1" height="1" fill="#231f20"/>
    <rect x="172" y="68" width="1" height="1" fill="#231f20"/>
    <rect x="0" y="69" width="173" height="1" fill="#231f20"/>
  </g>
</svg>