<?xml version="1.0" encoding="UTF-8"?>
<svg xmlns="http://www.w3.org/2000/svg" viewBox="0 0 114 79" width="114" height="79">
  <!-- Auto-converted from legend-015.png -->
  <rect x="0" y="0" width="114" height="79" fill="none"/>
  <g fill="#231f20" stroke="none">
    <rect x="0" y="0" width="114" height="1" fill="#231f20"/>
    <rect x="0" y="1" width="1" height="1" fill="#231f20"/>
    <rect x="113" y="1" width="1" height="1" fill="#231f20"/>
    <rect x="0" y="2" width="1" height="1" fill="#231f20"/>
    <rect x="113" y="2" width="1" height="1" fill="#231f20"/>
    <rect x="0" y="3" width="1" height="1" fill="#231f20"/>
    <rect x="113" y="3" width="1" height="1" fill="#231f20"/>
    <rect x="0" y="4" width="1" height="1" fill="#231f20"/>
    <rect x="113" y="4" width="1" height="1" fill="#231f20"/>
    <rect x="0" y="5" width="1" height="1" fill="#231f20"/>
    <rect x="113" y="5" width="1" height="1" fill="#231f20"/>
    <rect x="0" y="6" width="1" height="1" fill="#231f20"/>
    <rect x="113" y="6" width="1" height="1" fill="#231f20"/>
    <rect x="0" y="7" width="1" height="1" fill="#231f20"/>
    <rect x="113" y="7" width="1" height="1" fill="#231f20"/>
    <rect x="0" y="8" width="1" height="1" fill="#231f20"/>
    <rect x="113" y="8" width="1" height="1" fill="#231f20"/>
    <rect x="0" y="9" width="1" height="1" fill="#231f20"/>
    <rect x="113" y="9" width="1" height="1" fill="#231f20"/>
    <rect x="0" y="10" width="1" height="1" fill="#231f20"/>
    <rect x="113" y="10" width="1" height="1" fill="#231f20"/>
    <rect x="0" y="11" width="1" height="1" fill="#231f20"/>
    <rect x="113" y="11" width="1" height="1" fill="#231f20"/>
    <rect x="0" y="12" width="1" height="1" fill="#231f20"/>
    <rect x="113" y="12" width="1" height="1" fill="#231f20"/>
    <rect x="0" y="13" width="1" height="1" fill="#231f20"/>
    <rect x="113" y="13" width="1" height="1" fill="#231f20"/>
    <rect x="0" y="14" width="1" height="1" fill="#231f20"/>
    <rect x="113" y="14" width="1" height="1" fill="#231f20"/>
    <rect x="0" y="15" width="1" height="1" fill="#231f20"/>
    <rect x="113" y="15" width="1" height="1" fill="#231f20"/>
    <rect x="0" y="16" width="1" height="1" fill="#231f20"/>
    <rect x="113" y="16" width="1" height="1" fill="#231f20"/>
    <rect x="0" y="17" width="1" height="1" fill="#231f20"/>
    <rect x="113" y="17" width="1" height="1" fill="#231f20"/>
    <rect x="0" y="18" width="1" height="1" fill="#231f20"/>
    <rect x="113" y="18" width="1" height="1" fill="#231f20"/>
    <rect x="0" y="19" width="1" height="1" fill="#231f20"/>
    <rect x="113" y="19" width="1" height="1" fill="#231f20"/>
    <rect x="0" y="20" width="1" height="1" fill="#231f20"/>
    <rect x="113" y="20" width="1" height="1" fill="#231f20"/>
    <rect x="0" y="21" width="1" height="1" fill="#231f20"/>
    <rect x="113" y="21" width="1" height="1" fill="#231f20"/>
    <rect x="0" y="22" width="1" height="1" fill="#231f20"/>
    <rect x="113" y="22" width="1" height="1" fill="#231f20"/>
    <rect x="0" y="23" width="1" height="1" fill="#231f20"/>
    <rect x="113" y="23" width="1" height="1" fill="#231f20"/>
    <rect x="0" y="24" width="1" height="1" fill="#231f20"/>
    <rect x="42" y="24" width="30" height="1" fill="#231f20"/>
    <rect x="113" y="24" width="1" height="1" fill="#231f20"/>
    <rect x="0" y="25" width="1" height="1" fill="#231f20"/>
    <rect x="41" y="25" width="32" height="1" fill="#231f20"/>
    <rect x="113" y="25" width="1" height="1" fill="#231f20"/>
    <rect x="0" y="26" width="1" height="1" fill="#231f20"/>
    <rect x="41" y="26" width="32" height="1" fill="#231f20"/>
    <rect x="113" y="26" width="1" height="1" fill="#231f20"/>
    <rect x="0" y="27" width="1" height="1" fill="#231f20"/>
    <rect x="41" y="27" width="3" height="1" fill="#231f20"/>
    <rect x="70" y="27" width="3" height="1" fill="#231f20"/>
    <rect x="113" y="27" width="1" height="1" fill="#231f20"/>
    <rect x="0" y="28" width="1" height="1" fill="#231f20"/>
    <rect x="41" y="28" width="3" height="1" fill="#231f20"/>
    <rect x="70" y="28" width="3" height="1" fill="#231f20"/>
    <rect x="113" y="28" width="1" height="1" fill="#231f20"/>
    <rect x="0" y="29" width="1" height="1" fill="#231f20"/>
    <rect x="41" y="29" width="3" height="1" fill="#231f20"/>
    <rect x="70" y="29" width="3" height="1" fill="#231f20"/>
    <rect x="113" y="29" width="1" height="1" fill="#231f20"/>
    <rect x="0" y="30" width="1" height="1" fill="#231f20"/>
    <rect x="41" y="30" width="3" height="1" fill="#231f20"/>
    <rect x="70" y="30" width="3" height="1" fill="#231f20"/>
    <rect x="113" y="30" width="1" height="1" fill="#231f20"/>
    <rect x="0" y="31" width="1" height="1" fill="#231f20"/>
    <rect x="41" y="31" width="3" height="1" fill="#231f20"/>
    <rect x="70" y="31" width="3" height="1" fill="#231f20"/>
    <rect x="113" y="31" width="1" height="1" fill="#231f20"/>
    <rect x="0" y="32" width="1" height="1" fill="#231f20"/>
    <rect x="41" y="32" width="3" height="1" fill="#231f20"/>
    <rect x="70" y="32" width="3" height="1" fill="#231f20"/>
    <rect x="113" y="32" width="1" height="1" fill="#231f20"/>
    <rect x="0" y="33" width="1" height="1" fill="#231f20"/>
    <rect x="41" y="33" width="3" height="1" fill="#231f20"/>
    <rect x="70" y="33" width="3" height="1" fill="#231f20"/>
    <rect x="113" y="33" width="1" height="1" fill="#231f20"/>
    <rect x="0" y="34" width="1" height="1" fill="#231f20"/>
    <rect x="41" y="34" width="3" height="1" fill="#231f20"/>
    <rect x="70" y="34" width="3" height="1" fill="#231f20"/>
    <rect x="113" y="34" width="1" height="1" fill="#231f20"/>
    <rect x="0" y="35" width="1" height="1" fill="#231f20"/>
    <rect x="41" y="35" width="3" height="1" fill="#231f20"/>
    <rect x="70" y="35" width="3" height="1" fill="#231f20"/>
    <rect x="113" y="35" width="1" height="1" fill="#231f20"/>
    <rect x="0" y="36" width="1" height="1" fill="#231f20"/>
    <rect x="41" y="36" width="3" height="1" fill="#231f20"/>
    <rect x="70" y="36" width="3" height="1" fill="#231f20"/>
    <rect x="113" y="36" width="1" height="1" fill="#231f20"/>
    <rect x="0" y="37" width="1" height="1" fill="#231f20"/>
    <rect x="41" y="37" width="3" height="1" fill="#231f20"/>
    <rect x="70" y="37" width="3" height="1" fill="#231f20"/>
    <rect x="113" y="37" width="1" height="1" fill="#231f20"/>
    <rect x="0" y="38" width="1" height="1" fill="#231f20"/>
    <rect x="41" y="38" width="3" height="1" fill="#231f20"/>
    <rect x="70" y="38" width="3" height="1" fill="#231f20"/>
    <rect x="113" y="38" width="1" height="1" fill="#231f20"/>
    <rect x="0" y="39" width="1" height="1" fill="#231f20"/>
    <rect x="41" y="39" width="3" height="1" fill="#231f20"/>
    <rect x="70" y="39" width="3" height="1" fill="#231f20"/>
    <rect x="113" y="39" width="1" height="1" fill="#231f20"/>
    <rect x="0" y="40" width="1" height="1" fill="#231f20"/>
    <rect x="41" y="40" width="3" height="1" fill="#231f20"/>
    <rect x="70" y="40" width="3" height="1" fill="#231f20"/>
    <rect x="113" y="40" width="1" height="1" fill="#231f20"/>
    <rect x="0" y="41" width="1" height="1" fill="#231f20"/>
    <rect x="41" y="41" width="3" height="1" fill="#231f20"/>
    <rect x="70" y="41" width="3" height="1" fill="#231f20"/>
    <rect x="113" y="41" width="1" height="1" fill="#231f20"/>
    <rect x="0" y="42" width="1" height="1" fill="#231f20"/>
    <rect x="41" y="42" width="3" height="1" fill="#231f20"/>
    <rect x="70" y="42" width="3" height="1" fill="#231f20"/>
    <rect x="113" y="42" width="1" height="1" fill="#231f20"/>
    <rect x="0" y="43" width="1" height="1" fill="#231f20"/>
    <rect x="41" y="43" width="3" height="1" fill="#231f20"/>
    <rect x="70" y="43" width="3" height="1" fill="#231f20"/>
    <rect x="113" y="43" width="1" height="1" fill="#231f20"/>
    <rect x="0" y="44" width="1" height="1" fill="#231f20"/>
    <rect x="41" y="44" width="3" height="1" fill="#231f20"/>
    <rect x="70" y="44" width="3" height="1" fill="#231f20"/>
    <rect x="113" y="44" width="1" height="1" fill="#231f20"/>
    <rect x="0" y="45" width="1" height="1" fill="#231f20"/>
    <rect x="41" y="45" width="3" height="1" fill="#231f20"/>
    <rect x="70" y="45" width="3" height="1" fill="#231f20"/>
    <rect x="113" y="45" width="1" height="1" fill="#231f20"/>
    <rect x="0" y="46" width="1" height="1" fill="#231f20"/>
    <rect x="41" y="46" width="3" height="1" fill="#231f20"/>
    <rect x="70" y="46" width="3" height="1" fill="#231f20"/>
    <rect x="113" y="46" width="1" height="1" fill="#231f20"/>
    <rect x="0" y="47" width="1" height="1" fill="#231f20"/>
    <rect x="41" y="47" width="3" height="1" fill="#231f20"/>
    <rect x="70" y="47" width="3" height="1" fill="#231f20"/>
    <rect x="113" y="47" width="1" height="1" fill="#231f20"/>
    <rect x="0" y="48" width="1" height="1" fill="#231f20"/>
    <rect x="41" y="48" width="3" height="1" fill="#231f20"/>
    <rect x="70" y="48" width="3" height="1" fill="#231f20"/>
    <rect x="113" y="48" width="1" height="1" fill="#231f20"/>
    <rect x="0" y="49" width="1" height="1" fill="#231f20"/>
    <rect x="41" y="49" width="3" height="1" fill="#231f20"/>
    <rect x="70" y="49" width="3" height="1" fill="#231f20"/>
    <rect x="113" y="49" width="1" height="1" fill="#231f20"/>
    <rect x="0" y="50" width="1" height="1" fill="#231f20"/>
    <rect x="41" y="50" width="3" height="1" fill="#231f20"/>
    <rect x="70" y="50" width="3" height="1" fill="#231f20"/>
    <rect x="113" y="50" width="1" height="1" fill="#231f20"/>
    <rect x="0" y="51" width="1" height="1" fill="#231f20"/>
    <rect x="41" y="51" width="3" height="1" fill="#231f20"/>
    <rect x="70" y="51" width="3" height="1" fill="#231f20"/>
    <rect x="113" y="51" width="1" height="1" fill="#231f20"/>
    <rect x="0" y="52" width="1" height="1" fill="#231f20"/>
    <rect x="41" y="52" width="32" height="1" fill="#231f20"/>
    <rect x="113" y="52" width="1" height="1" fill="#231f20"/>
    <rect x="0" y="53" width="1" height="1" fill="#231f20"/>
    <rect x="41" y="53" width="32" height="1" fill="#231f20"/>
    <rect x="113" y="53" width="1" height="1" fill="#231f20"/>
    <rect x="0" y="54" width="1" height="1" fill="#231f20"/>
    <rect x="42" y="54" width="30" height="1" fill="#231f20"/>
    <rect x="113" y="54" width="1" height="1" fill="#231f20"/>
    <rect x="0" y="55" width="1" height="1" fill="#231f20"/>
    <rect x="113" y="55" width="1" height="1" fill="#231f20"/>
    <rect x="0" y="56" width="1" height="1" fill="#231f20"/>
    <rect x="113" y="56" width="1" height="1" fill="#231f20"/>
    <rect x="0" y="57" width="1" height="1" fill="#231f20"/>
    <rect x="113" y="57" width="1" height="1" fill="#231f20"/>
    <rect x="0" y="58" width="1" height="1" fill="#231f20"/>
    <rect x="113" y="58" width="1" height="1" fill="#231f20"/>
    <rect x="0" y="59" width="1" height="1" fill="#231f20"/>
    <rect x="113" y="59" width="1" height="1" fill="#231f20"/>
    <rect x="0" y="60" width="1" height="1" fill="#231f20"/>
    <rect x="113" y="60" width="1" height="1" fill="#231f20"/>
    <rect x="0" y="61" width="1" height="1" fill="#231f20"/>
    <rect x="113" y="61" width="1" height="1" fill="#231f20"/>
    <rect x="0" y="62" width="1" height="1" fill="#231f20"/>
    <rect x="113" y="62" width="1" height="1" fill="#231f20"/>
    <rect x="0" y="63" width="1" height="1" fill="#231f20"/>
    <rect x="113" y="63" width="1" height="1" fill="#231f20"/>
    <rect x="0" y="64" width="1" height="1" fill="#231f20"/>
    <rect x="113" y="64" width="1" height="1" fill="#231f20"/>
    <rect x="0" y="65" width="1" height="1" fill="#231f20"/>
    <rect x="113" y="65" width="1" height="1" fill="#231f20"/>
    <rect x="0" y="66" width="1" height="1" fill="#231f20"/>
    <rect x="113" y="66" width="1" height="1" fill="#231f20"/>
    <rect x="0" y="67" width="1" height="1" fill="#231f20"/>
    <rect x="113" y="67" width="1" height="1" fill="#231f20"/>
    <rect x="0" y="68" width="1" height="1" fill="#231f20"/>
    <rect x="113" y="68" width="1" height="1" fill="#231f20"/>
    <rect x="0" y="69" width="1" height="1" fill="#231f20"/>
    <rect x="113" y="69" width="1" height="1" fill="#231f20"/>
    <rect x="0" y="70" width="1" height="1" fill="#231f20"/>
    <rect x="113" y="70" width="1" height="1" fill="#231f20"/>
    <rect x="0" y="71" width="1" height="1" fill="#231f20"/>
    <rect x="113" y="71" width="1" height="1" fill="#231f20"/>
    <rect x="0" y="72" width="1" height="1" fill="#231f20"/>
    <rect x="113" y="72" width="1" height="1" fill="#231f20"/>
    <rect x="0" y="73" width="1" height="1" fill="#231f20"/>
    <rect x="113" y="73" width="1" height="1" fill="#231f20"/>
    <rect x="0" y="74" width="1" height="1" fill="#231f20"/>
    <rect x="113" y="74" width="1" height="1" fill="#231f20"/>
    <rect x="0" y="75" width="1" height="1" fill="#231f20"/>
    <rect x="113" y="75" width="1" height="1" fill="#231f20"/>
    <rect x="0" y="76" width="1" height="1" fill="#231f20"/>
    <rect x="113" y="76" width="1" height="1" fill="#231f20"/>
    <rect x="0" y="77" width="1" height="1" fill="#231f20"/>
    <rect x="113" y="77" width="1" height="1" fill="#231f20"/>
    <rect x="0" y="78" width="114" height="1" fill="#231f20"/>
  </g>
</svg>