<?xml version="1.0" encoding="UTF-8"?>
<svg xmlns="http://www.w3.org/2000/svg" viewBox="0 0 298 165" width="298" height="165">
  <!-- Auto-converted from legend-2788.png -->
  <rect x="0" y="0" width="298" height="165" fill="none"/>
  <g fill="#231f20" stroke="none">
    <rect x="0" y="0" width="298" height="1" fill="#231f20"/>
    <rect x="0" y="1" width="1" height="1" fill="#231f20"/>
    <rect x="297" y="1" width="1" height="1" fill="#231f20"/>
    <rect x="0" y="2" width="1" height="1" fill="#231f20"/>
    <rect x="297" y="2" width="1" height="1" fill="#231f20"/>
    <rect x="0" y="3" width="1" height="1" fill="#231f20"/>
    <rect x="297" y="3" width="1" height="1" fill="#231f20"/>
    <rect x="0" y="4" width="1" height="1" fill="#231f20"/>
    <rect x="297" y="4" width="1" height="1" fill="#231f20"/>
    <rect x="0" y="5" width="1" height="1" fill="#231f20"/>
    <rect x="297" y="5" width="1" height="1" fill="#231f20"/>
    <rect x="0" y="6" width="1" height="1" fill="#231f20"/>
    <rect x="297" y="6" width="1" height="1" fill="#231f20"/>
    <rect x="0" y="7" width="1" height="1" fill="#231f20"/>
    <rect x="297" y="7" width="1" height="1" fill="#231f20"/>
    <rect x="0" y="8" width="1" height="1" fill="#231f20"/>
    <rect x="297" y="8" width="1" height="1" fill="#231f20"/>
    <rect x="0" y="9" width="1" height="1" fill="#231f20"/>
    <rect x="297" y="9" width="1" height="1" fill="#231f20"/>
    <rect x="0" y="10" width="1" height="1" fill="#231f20"/>
    <rect x="297" y="10" width="1" height="1" fill="#231f20"/>
    <rect x="0" y="11" width="1" height="1" fill="#231f20"/>
    <rect x="297" y="11" width="1" height="1" fill="#231f20"/>
    <rect x="0" y="12" width="1" height="1" fill="#231f20"/>
    <rect x="297" y="12" width="1" height="1" fill="#231f20"/>
    <rect x="0" y="13" width="1" height="1" fill="#231f20"/>
    <rect x="297" y="13" width="1" height="1" fill="#231f20"/>
    <rect x="0" y="14" width="1" height="1" fill="#231f20"/>
    <rect x="297" y="14" width="1" height="1" fill="#231f20"/>
    <rect x="0" y="15" width="1" height="1" fill="#231f20"/>
    <rect x="297" y="15" width="1" height="1" fill="#231f20"/>
    <rect x="0" y="16" width="1" height="1" fill="#231f20"/>
    <rect x="297" y="16" width="1" height="1" fill="#231f20"/>
    <rect x="0" y="17" width="1" height="1" fill="#231f20"/>
    <rect x="297" y="17" width="1" height="1" fill="#231f20"/>
    <rect x="0" y="18" width="1" height="1" fill="#231f20"/>
    <rect x="297" y="18" width="1" height="1" fill="#231f20"/>
    <rect x="0" y="19" width="1" height="1" fill="#231f20"/>
    <rect x="297" y="19" width="1" height="1" fill="#231f20"/>
    <rect x="0" y="20" width="1" height="1" fill="#231f20"/>
    <rect x="297" y="20" width="1" height="1" fill="#231f20"/>
    <rect x="0" y="21" width="1" height="1" fill="#231f20"/>
    <rect x="297" y="21" width="1" height="1" fill="#231f20"/>
    <rect x="0" y="22" width="1" height="1" fill="#231f20"/>
    <rect x="297" y="22" width="1" height="1" fill="#231f20"/>
    <rect x="0" y="23" width="1" height="1" fill="#231f20"/>
    <rect x="297" y="23" width="1" height="1" fill="#231f20"/>
    <rect x="0" y="24" width="1" height="1" fill="#231f20"/>
    <rect x="297" y="24" width="1" height="1" fill="#231f20"/>
    <rect x="0" y="25" width="1" height="1" fill="#231f20"/>
    <rect x="297" y="25" width="1" height="1" fill="#231f20"/>
    <rect x="0" y="26" width="1" height="1" fill="#231f20"/>
    <rect x="297" y="26" width="1" height="1" fill="#231f20"/>
    <rect x="0" y="27" width="1" height="1" fill="#231f20"/>
    <rect x="297" y="27" width="1" height="1" fill="#231f20"/>
    <rect x="0" y="28" width="1" height="1" fill="#231f20"/>
    <rect x="297" y="28" width="1" height="1" fill="#231f20"/>
    <rect x="0" y="29" width="1" height="1" fill="#231f20"/>
    <rect x="297" y="29" width="1" height="1" fill="#231f20"/>
    <rect x="0" y="30" width="1" height="1" fill="#231f20"/>
    <rect x="297" y="30" width="1" height="1" fill="#231f20"/>
    <rect x="0" y="31" width="1" height="1" fill="#231f20"/>
    <rect x="297" y="31" width="1" height="1" fill="#231f20"/>
    <rect x="0" y="32" width="1" height="1" fill="#231f20"/>
    <rect x="297" y="32" width="1" height="1" fill="#231f20"/>
    <rect x="0" y="33" width="1" height="1" fill="#231f20"/>
    <rect x="297" y="33" width="1" height="1" fill="#231f20"/>
    <rect x="0" y="34" width="1" height="1" fill="#231f20"/>
    <rect x="297" y="34" width="1" height="1" fill="#231f20"/>
    <rect x="0" y="35" width="1" height="1" fill="#231f20"/>
    <rect x="297" y="35" width="1" height="1" fill="#231f20"/>
    <rect x="0" y="36" width="1" height="1" fill="#231f20"/>
    <rect x="297" y="36" width="1" height="1" fill="#231f20"/>
    <rect x="0" y="37" width="1" height="1" fill="#231f20"/>
    <rect x="297" y="37" width="1" height="1" fill="#231f20"/>
    <rect x="0" y="38" width="1" height="1" fill="#231f20"/>
    <rect x="297" y="38" width="1" height="1" fill="#231f20"/>
    <rect x="0" y="39" width="1" height="1" fill="#231f20"/>
    <rect x="297" y="39" width="1" height="1" fill="#231f20"/>
    <rect x="0" y="40" width="1" height="1" fill="#231f20"/>
    <rect x="297" y="40" width="1" height="1" fill="#231f20"/>
    <rect x="0" y="41" width="1" height="1" fill="#231f20"/>
    <rect x="297" y="41" width="1" height="1" fill="#231f20"/>
    <rect x="0" y="42" width="1" height="1" fill="#231f20"/>
    <rect x="133" y="42" width="1" height="1" fill="#231f20"/>
    <rect x="297" y="42" width="1" height="1" fill="#231f20"/>
    <rect x="0" y="43" width="1" height="1" fill="#231f20"/>
    <rect x="297" y="43" width="1" height="1" fill="#231f20"/>
    <rect x="0" y="44" width="1" height="1" fill="#231f20"/>
    <rect x="297" y="44" width="1" height="1" fill="#231f20"/>
    <rect x="0" y="45" width="1" height="1" fill="#231f20"/>
    <rect x="297" y="45" width="1" height="1" fill="#231f20"/>
    <rect x="0" y="46" width="1" height="1" fill="#231f20"/>
    <rect x="297" y="46" width="1" height="1" fill="#231f20"/>
    <rect x="0" y="47" width="1" height="1" fill="#231f20"/>
    <rect x="297" y="47" width="1" height="1" fill="#231f20"/>
    <rect x="0" y="48" width="1" height="1" fill="#231f20"/>
    <rect x="297" y="48" width="1" height="1" fill="#231f20"/>
    <rect x="0" y="49" width="1" height="1" fill="#231f20"/>
    <rect x="297" y="49" width="1" height="1" fill="#231f20"/>
    <rect x="0" y="50" width="1" height="1" fill="#231f20"/>
    <rect x="297" y="50" width="1" height="1" fill="#231f20"/>
    <rect x="0" y="51" width="1" height="1" fill="#231f20"/>
    <rect x="297" y="51" width="1" height="1" fill="#231f20"/>
    <rect x="0" y="52" width="1" height="1" fill="#231f20"/>
    <rect x="297" y="52" width="1" height="1" fill="#231f20"/>
    <rect x="0" y="53" width="1" height="1" fill="#231f20"/>
    <rect x="297" y="53" width="1" height="1" fill="#231f20"/>
    <rect x="0" y="54" width="1" height="1" fill="#231f20"/>
    <rect x="297" y="54" width="1" height="1" fill="#231f20"/>
    <rect x="0" y="55" width="1" height="1" fill="#231f20"/>
    <rect x="297" y="55" width="1" height="1" fill="#231f20"/>
    <rect x="0" y="56" width="1" height="1" fill="#231f20"/>
    <rect x="297" y="56" width="1" height="1" fill="#231f20"/>
    <rect x="0" y="57" width="1" height="1" fill="#231f20"/>
    <rect x="297" y="57" width="1" height="1" fill="#231f20"/>
    <rect x="0" y="58" width="1" height="1" fill="#231f20"/>
    <rect x="297" y="58" width="1" height="1" fill="#231f20"/>
    <rect x="0" y="59" width="1" height="1" fill="#231f20"/>
    <rect x="297" y="59" width="1" height="1" fill="#231f20"/>
    <rect x="0" y="60" width="1" height="1" fill="#231f20"/>
    <rect x="297" y="60" width="1" height="1" fill="#231f20"/>
    <rect x="0" y="61" width="1" height="1" fill="#231f20"/>
    <rect x="297" y="61" width="1" height="1" fill="#231f20"/>
    <rect x="0" y="62" width="1" height="1" fill="#231f20"/>
    <rect x="297" y="62" width="1" height="1" fill="#231f20"/>
    <rect x="0" y="63" width="1" height="1" fill="#231f20"/>
    <rect x="297" y="63" width="1" height="1" fill="#231f20"/>
    <rect x="0" y="64" width="1" height="1" fill="#231f20"/>
    <rect x="297" y="64" width="1" height="1" fill="#231f20"/>
    <rect x="0" y="65" width="1" height="1" fill="#231f20"/>
    <rect x="297" y="65" width="1" height="1" fill="#231f20"/>
    <rect x="0" y="66" width="1" height="1" fill="#231f20"/>
    <rect x="297" y="66" width="1" height="1" fill="#231f20"/>
    <rect x="0" y="67" width="1" height="1" fill="#231f20"/>
    <rect x="297" y="67" width="1" height="1" fill="#231f20"/>
    <rect x="0" y="68" width="1" height="1" fill="#231f20"/>
    <rect x="297" y="68" width="1" height="1" fill="#231f20"/>
    <rect x="0" y="69" width="1" height="1" fill="#231f20"/>
    <rect x="297" y="69" width="1" height="1" fill="#231f20"/>
    <rect x="0" y="70" width="1" height="1" fill="#231f20"/>
    <rect x="297" y="70" width="1" height="1" fill="#231f20"/>
    <rect x="0" y="71" width="1" height="1" fill="#231f20"/>
    <rect x="297" y="71" width="1" height="1" fill="#231f20"/>
    <rect x="0" y="72" width="1" height="1" fill="#231f20"/>
    <rect x="297" y="72" width="1" height="1" fill="#231f20"/>
    <rect x="0" y="73" width="1" height="1" fill="#231f20"/>
    <rect x="297" y="73" width="1" height="1" fill="#231f20"/>
    <rect x="0" y="74" width="1" height="1" fill="#231f20"/>
    <rect x="297" y="74" width="1" height="1" fill="#231f20"/>
    <rect x="0" y="75" width="1" height="1" fill="#231f20"/>
    <rect x="297" y="75" width="1" height="1" fill="#231f20"/>
    <rect x="0" y="76" width="1" height="1" fill="#231f20"/>
    <rect x="297" y="76" width="1" height="1" fill="#231f20"/>
    <rect x="0" y="77" width="1" height="1" fill="#231f20"/>
    <rect x="297" y="77" width="1" height="1" fill="#231f20"/>
    <rect x="0" y="78" width="1" height="1" fill="#231f20"/>
    <rect x="297" y="78" width="1" height="1" fill="#231f20"/>
    <rect x="0" y="79" width="1" height="1" fill="#231f20"/>
    <rect x="297" y="79" width="1" height="1" fill="#231f20"/>
    <rect x="0" y="80" width="1" height="1" fill="#231f20"/>
    <rect x="297" y="80" width="1" height="1" fill="#231f20"/>
    <rect x="0" y="81" width="1" height="1" fill="#231f20"/>
    <rect x="297" y="81" width="1" height="1" fill="#231f20"/>
    <rect x="0" y="82" width="1" height="1" fill="#231f20"/>
    <rect x="297" y="82" width="1" height="1" fill="#231f20"/>
    <rect x="0" y="83" width="1" height="1" fill="#231f20"/>
    <rect x="297" y="83" width="1" height="1" fill="#231f20"/>
    <rect x="0" y="84" width="1" height="1" fill="#231f20"/>
    <rect x="297" y="84" width="1" height="1" fill="#231f20"/>
    <rect x="0" y="85" width="1" height="1" fill="#231f20"/>
    <rect x="297" y="85" width="1" height="1" fill="#231f20"/>
    <rect x="0" y="86" width="1" height="1" fill="#231f20"/>
    <rect x="297" y="86" width="1" height="1" fill="#231f20"/>
    <rect x="0" y="87" width="1" height="1" fill="#231f20"/>
    <rect x="297" y="87" width="1" height="1" fill="#231f20"/>
    <rect x="0" y="88" width="1" height="1" fill="#231f20"/>
    <rect x="297" y="88" width="1" height="1" fill="#231f20"/>
    <rect x="0" y="89" width="1" height="1" fill="#231f20"/>
    <rect x="297" y="89" width="1" height="1" fill="#231f20"/>
    <rect x="0" y="90" width="1" height="1" fill="#231f20"/>
    <rect x="297" y="90" width="1" height="1" fill="#231f20"/>
    <rect x="0" y="91" width="1" height="1" fill="#231f20"/>
    <rect x="297" y="91" width="1" height="1" fill="#231f20"/>
    <rect x="0" y="92" width="1" height="1" fill="#231f20"/>
    <rect x="297" y="92" width="1" height="1" fill="#231f20"/>
    <rect x="0" y="93" width="1" height="1" fill="#231f20"/>
    <rect x="297" y="93" width="1" height="1" fill="#231f20"/>
    <rect x="0" y="94" width="1" height="1" fill="#231f20"/>
    <rect x="297" y="94" width="1" height="1" fill="#231f20"/>
    <rect x="0" y="95" width="1" height="1" fill="#231f20"/>
    <rect x="297" y="95" width="1" height="1" fill="#231f20"/>
    <rect x="0" y="96" width="1" height="1" fill="#231f20"/>
    <rect x="297" y="96" width="1" height="1" fill="#231f20"/>
    <rect x="0" y="97" width="1" height="1" fill="#231f20"/>
    <rect x="297" y="97" width="1" height="1" fill="#231f20"/>
    <rect x="0" y="98" width="1" height="1" fill="#231f20"/>
    <rect x="297" y="98" width="1" height="1" fill="#231f20"/>
    <rect x="0" y="99" width="1" height="1" fill="#231f20"/>
    <rect x="297" y="99" width="1" height="1" fill="#231f20"/>
    <rect x="0" y="100" width="1" height="1" fill="#231f20"/>
    <rect x="297" y="100" width="1" height="1" fill="#231f20"/>
    <rect x="0" y="101" width="1" height="1" fill="#231f20"/>
    <rect x="297" y="101" width="1" height="1" fill="#231f20"/>
    <rect x="0" y="102" width="1" height="1" fill="#231f20"/>
    <rect x="297" y="102" width="1" height="1" fill="#231f20"/>
    <rect x="0" y="103" width="1" height="1" fill="#231f20"/>
    <rect x="297" y="103" width="1" height="1" fill="#231f20"/>
    <rect x="0" y="104" width="1" height="1" fill="#231f20"/>
    <rect x="297" y="104" width="1" height="1" fill="#231f20"/>
    <rect x="0" y="105" width="1" height="1" fill="#231f20"/>
    <rect x="297" y="105" width="1" height="1" fill="#231f20"/>
    <rect x="0" y="106" width="1" height="1" fill="#231f20"/>
    <rect x="297" y="106" width="1" height="1" fill="#231f20"/>
    <rect x="0" y="107" width="1" height="1" fill="#231f20"/>
    <rect x="297" y="107" width="1" height="1" fill="#231f20"/>
    <rect x="0" y="108" width="1" height="1" fill="#231f20"/>
    <rect x="297" y="108" width="1" height="1" fill="#231f20"/>
    <rect x="0" y="109" width="1" height="1" fill="#231f20"/>
    <rect x="98" y="109" width="1" height="1" fill="#231f20"/>
    <rect x="297" y="109" width="1" height="1" fill="#231f20"/>
    <rect x="0" y="110" width="1" height="1" fill="#231f20"/>
    <rect x="297" y="110" width="1" height="1" fill="#231f20"/>
    <rect x="0" y="111" width="1" height="1" fill="#231f20"/>
    <rect x="297" y="111" width="1" height="1" fill="#231f20"/>
    <rect x="0" y="112" width="1" height="1" fill="#231f20"/>
    <rect x="297" y="112" width="1" height="1" fill="#231f20"/>
    <rect x="0" y="113" width="1" height="1" fill="#231f20"/>
    <rect x="297" y="113" width="1" height="1" fill="#231f20"/>
    <rect x="0" y="114" width="1" height="1" fill="#231f20"/>
    <rect x="297" y="114" width="1" height="1" fill="#231f20"/>
    <rect x="0" y="115" width="1" height="1" fill="#231f20"/>
    <rect x="297" y="115" width="1" height="1" fill="#231f20"/>
    <rect x="0" y="116" width="1" height="1" fill="#231f20"/>
    <rect x="297" y="116" width="1" height="1" fill="#231f20"/>
    <rect x="0" y="117" width="1" height="1" fill="#231f20"/>
    <rect x="297" y="117" width="1" height="1" fill="#231f20"/>
    <rect x="0" y="118" width="1" height="1" fill="#231f20"/>
    <rect x="297" y="118" width="1" height="1" fill="#231f20"/>
    <rect x="0" y="119" width="1" height="1" fill="#231f20"/>
    <rect x="297" y="119" width="1" height="1" fill="#231f20"/>
    <rect x="0" y="120" width="1" height="1" fill="#231f20"/>
    <rect x="297" y="120" width="1" height="1" fill="#231f20"/>
    <rect x="0" y="121" width="1" height="1" fill="#231f20"/>
    <rect x="297" y="121" width="1" height="1" fill="#231f20"/>
    <rect x="0" y="122" width="1" height="1" fill="#231f20"/>
    <rect x="297" y="122" width="1" height="1" fill="#231f20"/>
    <rect x="0" y="123" width="1" height="1" fill="#231f20"/>
    <rect x="297" y="123" width="1" height="1" fill="#231f20"/>
    <rect x="0" y="124" width="1" height="1" fill="#231f20"/>
    <rect x="297" y="124" width="1" height="1" fill="#231f20"/>
    <rect x="0" y="125" width="1" height="1" fill="#231f20"/>
    <rect x="297" y="125" width="1" height="1" fill="#231f20"/>
    <rect x="0" y="126" width="1" height="1" fill="#231f20"/>
    <rect x="297" y="126" width="1" height="1" fill="#231f20"/>
    <rect x="0" y="127" width="1" height="1" fill="#231f20"/>
    <rect x="297" y="127" width="1" height="1" fill="#231f20"/>
    <rect x="0" y="128" width="1" height="1" fill="#231f20"/>
    <rect x="297" y="128" width="1" height="1" fill="#231f20"/>
    <rect x="0" y="129" width="1" height="1" fill="#231f20"/>
    <rect x="297" y="129" width="1" height="1" fill="#231f20"/>
    <rect x="0" y="130" width="1" height="1" fill="#231f20"/>
    <rect x="297" y="130" width="1" height="1" fill="#231f20"/>
    <rect x="0" y="131" width="1" height="1" fill="#231f20"/>
    <rect x="297" y="131" width="1" height="1" fill="#231f20"/>
    <rect x="0" y="132" width="1" height="1" fill="#231f20"/>
    <rect x="297" y="132" width="1" height="1" fill="#231f20"/>
    <rect x="0" y="133" width="1" height="1" fill="#231f20"/>
    <rect x="297" y="133" width="1" height="1" fill="#231f20"/>
    <rect x="0" y="134" width="1" height="1" fill="#231f20"/>
    <rect x="297" y="134" width="1" height="1" fill="#231f20"/>
    <rect x="0" y="135" width="1" height="1" fill="#231f20"/>
    <rect x="297" y="135" width="1" height="1" fill="#231f20"/>
    <rect x="0" y="136" width="1" height="1" fill="#231f20"/>
    <rect x="297" y="136" width="1" height="1" fill="#231f20"/>
    <rect x="0" y="137" width="1" height="1" fill="#231f20"/>
    <rect x="297" y="137" width="1" height="1" fill="#231f20"/>
    <rect x="0" y="138" width="1" height="1" fill="#231f20"/>
    <rect x="297" y="138" width="1" height="1" fill="#231f20"/>
    <rect x="0" y="139" width="1" height="1" fill="#231f20"/>
    <rect x="297" y="139" width="1" height="1" fill="#231f20"/>
    <rect x="0" y="140" width="1" height="1" fill="#231f20"/>
    <rect x="297" y="140" width="1" height="1" fill="#231f20"/>
    <rect x="0" y="141" width="1" height="1" fill="#231f20"/>
    <rect x="297" y="141" width="1" height="1" fill="#231f20"/>
    <rect x="0" y="142" width="1" height="1" fill="#231f20"/>
    <rect x="297" y="142" width="1" height="1" fill="#231f20"/>
    <rect x="0" y="143" width="1" height="1" fill="#231f20"/>
    <rect x="297" y="143" width="1" height="1" fill="#231f20"/>
    <rect x="0" y="144" width="1" height="1" fill="#231f20"/>
    <rect x="297" y="144" width="1" height="1" fill="#231f20"/>
    <rect x="0" y="145" width="1" height="1" fill="#231f20"/>
    <rect x="297" y="145" width="1" height="1" fill="#231f20"/>
    <rect x="0" y="146" width="1" height="1" fill="#231f20"/>
    <rect x="297" y="146" width="1" height="1" fill="#231f20"/>
    <rect x="0" y="147" width="1" height="1" fill="#231f20"/>
    <rect x="297" y="147" width="1" height="1" fill="#231f20"/>
    <rect x="0" y="148" width="1" height="1" fill="#231f20"/>
    <rect x="297" y="148" width="1" height="1" fill="#231f20"/>
    <rect x="0" y="149" width="1" height="1" fill="#231f20"/>
    <rect x="297" y="149" width="1" height="1" fill="#231f20"/>
    <rect x="0" y="150" width="1" height="1" fill="#231f20"/>
    <rect x="297" y="150" width="1" height="1" fill="#231f20"/>
    <rect x="0" y="151" width="1" height="1" fill="#231f20"/>
    <rect x="297" y="151" width="1" height="1" fill="#231f20"/>
    <rect x="0" y="152" width="1" height="1" fill="#231f20"/>
    <rect x="297" y="152" width="1" height="1" fill="#231f20"/>
    <rect x="0" y="153" width="1" height="1" fill="#231f20"/>
    <rect x="297" y="153" width="1" height="1" fill="#231f20"/>
    <rect x="0" y="154" width="1" height="1" fill="#231f20"/>
    <rect x="297" y="154" width="1" height="1" fill="#231f20"/>
    <rect x="0" y="155" width="1" height="1" fill="#231f20"/>
    <rect x="297" y="155" width="1" height="1" fill="#231f20"/>
    <rect x="0" y="156" width="1" height="1" fill="#231f20"/>
    <rect x="297" y="156" width="1" height="1" fill="#231f20"/>
    <rect x="0" y="157" width="1" height="1" fill="#231f20"/>
    <rect x="297" y="157" width="1" height="1" fill="#231f20"/>
    <rect x="0" y="158" width="1" height="1" fill="#231f20"/>
    <rect x="297" y="158" width="1" height="1" fill="#231f20"/>
    <rect x="0" y="159" width="1" height="1" fill="#231f20"/>
    <rect x="297" y="159" width="1" height="1" fill="#231f20"/>
    <rect x="0" y="160" width="1" height="1" fill="#231f20"/>
    <rect x="297" y="160" width="1" height="1" fill="#231f20"/>
    <rect x="0" y="161" width="1" height="1" fill="#231f20"/>
    <rect x="297" y="161" width="1" height="1" fill="#231f20"/>
    <rect x="0" y="162" width="1" height="1" fill="#231f20"/>
    <rect x="297" y="162" width="1" height="1" fill="#231f20"/>
    <rect x="0" y="163" width="1" height="1" fill="#231f20"/>
    <rect x="297" y="163" width="1" height="1" fill="#231f20"/>
    <rect x="0" y="164" width="298" height="1" fill="#231f20"/>
  </g>
</svg>