<?xml version="1.0" encoding="UTF-8"?>
<svg xmlns="http://www.w3.org/2000/svg" viewBox="0 0 166 67" width="166" height="67">
  <!-- Auto-converted from legend-1446.png -->
  <rect x="0" y="0" width="166" height="67" fill="none"/>
  <g fill="#231f20" stroke="none">
    <rect x="0" y="0" width="166" height="1" fill="#231f20"/>
    <rect x="0" y="1" width="1" height="1" fill="#231f20"/>
    <rect x="33" y="1" width="1" height="1" fill="#231f20"/>
    <rect x="99" y="1" width="1" height="1" fill="#231f20"/>
    <rect x="165" y="1" width="1" height="1" fill="#231f20"/>
    <rect x="0" y="2" width="1" height="1" fill="#231f20"/>
    <rect x="33" y="2" width="1" height="1" fill="#231f20"/>
    <rect x="99" y="2" width="1" height="1" fill="#231f20"/>
    <rect x="165" y="2" width="1" height="1" fill="#231f20"/>
    <rect x="0" y="3" width="1" height="1" fill="#231f20"/>
    <rect x="33" y="3" width="1" height="1" fill="#231f20"/>
    <rect x="99" y="3" width="1" height="1" fill="#231f20"/>
    <rect x="165" y="3" width="1" height="1" fill="#231f20"/>
    <rect x="0" y="4" width="1" height="1" fill="#231f20"/>
    <rect x="33" y="4" width="1" height="1" fill="#231f20"/>
    <rect x="99" y="4" width="1" height="1" fill="#231f20"/>
    <rect x="165" y="4" width="1" height="1" fill="#231f20"/>
    <rect x="0" y="5" width="1" height="1" fill="#231f20"/>
    <rect x="33" y="5" width="1" height="1" fill="#231f20"/>
    <rect x="99" y="5" width="1" height="1" fill="#231f20"/>
    <rect x="165" y="5" width="1" height="1" fill="#231f20"/>
    <rect x="0" y="6" width="1" height="1" fill="#231f20"/>
    <rect x="33" y="6" width="1" height="1" fill="#231f20"/>
    <rect x="99" y="6" width="1" height="1" fill="#231f20"/>
    <rect x="165" y="6" width="1" height="1" fill="#231f20"/>
    <rect x="0" y="7" width="1" height="1" fill="#231f20"/>
    <rect x="33" y="7" width="1" height="1" fill="#231f20"/>
    <rect x="99" y="7" width="1" height="1" fill="#231f20"/>
    <rect x="165" y="7" width="1" height="1" fill="#231f20"/>
    <rect x="0" y="8" width="1" height="1" fill="#231f20"/>
    <rect x="33" y="8" width="1" height="1" fill="#231f20"/>
    <rect x="99" y="8" width="1" height="1" fill="#231f20"/>
    <rect x="165" y="8" width="1" height="1" fill="#231f20"/>
    <rect x="0" y="9" width="1" height="1" fill="#231f20"/>
    <rect x="33" y="9" width="1" height="1" fill="#231f20"/>
    <rect x="99" y="9" width="1" height="1" fill="#231f20"/>
    <rect x="165" y="9" width="1" height="1" fill="#231f20"/>
    <rect x="0" y="10" width="1" height="1" fill="#231f20"/>
    <rect x="33" y="10" width="1" height="1" fill="#231f20"/>
    <rect x="99" y="10" width="1" height="1" fill="#231f20"/>
    <rect x="165" y="10" width="1" height="1" fill="#231f20"/>
    <rect x="0" y="11" width="1" height="1" fill="#231f20"/>
    <rect x="33" y="11" width="1" height="1" fill="#231f20"/>
    <rect x="99" y="11" width="6" height="1" fill="#231f20"/>
    <rect x="165" y="11" width="1" height="1" fill="#231f20"/>
    <rect x="0" y="12" width="1" height="1" fill="#231f20"/>
    <rect x="33" y="12" width="1" height="1" fill="#231f20"/>
    <rect x="99" y="12" width="1" height="1" fill="#231f20"/>
    <rect x="165" y="12" width="1" height="1" fill="#231f20"/>
    <rect x="0" y="13" width="1" height="1" fill="#231f20"/>
    <rect x="33" y="13" width="1" height="1" fill="#231f20"/>
    <rect x="99" y="13" width="1" height="1" fill="#231f20"/>
    <rect x="165" y="13" width="1" height="1" fill="#231f20"/>
    <rect x="0" y="14" width="1" height="1" fill="#231f20"/>
    <rect x="33" y="14" width="1" height="1" fill="#231f20"/>
    <rect x="99" y="14" width="1" height="1" fill="#231f20"/>
    <rect x="165" y="14" width="1" height="1" fill="#231f20"/>
    <rect x="0" y="15" width="1" height="1" fill="#231f20"/>
    <rect x="33" y="15" width="1" height="1" fill="#231f20"/>
    <rect x="99" y="15" width="1" height="1" fill="#231f20"/>
    <rect x="165" y="15" width="1" height="1" fill="#231f20"/>
    <rect x="0" y="16" width="1" height="1" fill="#231f20"/>
    <rect x="33" y="16" width="1" height="1" fill="#231f20"/>
    <rect x="99" y="16" width="1" height="1" fill="#231f20"/>
    <rect x="165" y="16" width="1" height="1" fill="#231f20"/>
    <rect x="0" y="17" width="1" height="1" fill="#231f20"/>
    <rect x="33" y="17" width="1" height="1" fill="#231f20"/>
    <rect x="99" y="17" width="1" height="1" fill="#231f20"/>
    <rect x="165" y="17" width="1" height="1" fill="#231f20"/>
    <rect x="0" y="18" width="1" height="1" fill="#231f20"/>
    <rect x="33" y="18" width="1" height="1" fill="#231f20"/>
    <rect x="99" y="18" width="1" height="1" fill="#231f20"/>
    <rect x="165" y="18" width="1" height="1" fill="#231f20"/>
    <rect x="0" y="19" width="1" height="1" fill="#231f20"/>
    <rect x="33" y="19" width="1" height="1" fill="#231f20"/>
    <rect x="99" y="19" width="1" height="1" fill="#231f20"/>
    <rect x="165" y="19" width="1" height="1" fill="#231f20"/>
    <rect x="0" y="20" width="1" height="1" fill="#231f20"/>
    <rect x="33" y="20" width="1" height="1" fill="#231f20"/>
    <rect x="99" y="20" width="1" height="1" fill="#231f20"/>
    <rect x="165" y="20" width="1" height="1" fill="#231f20"/>
    <rect x="0" y="21" width="1" height="1" fill="#231f20"/>
    <rect x="33" y="21" width="1" height="1" fill="#231f20"/>
    <rect x="99" y="21" width="1" height="1" fill="#231f20"/>
    <rect x="165" y="21" width="1" height="1" fill="#231f20"/>
    <rect x="0" y="22" width="166" height="1" fill="#231f20"/>
    <rect x="0" y="23" width="1" height="1" fill="#231f20"/>
    <rect x="66" y="23" width="1" height="1" fill="#231f20"/>
    <rect x="132" y="23" width="1" height="1" fill="#231f20"/>
    <rect x="165" y="23" width="1" height="1" fill="#231f20"/>
    <rect x="0" y="24" width="1" height="1" fill="#231f20"/>
    <rect x="66" y="24" width="1" height="1" fill="#231f20"/>
    <rect x="132" y="24" width="1" height="1" fill="#231f20"/>
    <rect x="165" y="24" width="1" height="1" fill="#231f20"/>
    <rect x="0" y="25" width="1" height="1" fill="#231f20"/>
    <rect x="66" y="25" width="1" height="1" fill="#231f20"/>
    <rect x="132" y="25" width="1" height="1" fill="#231f20"/>
    <rect x="165" y="25" width="1" height="1" fill="#231f20"/>
    <rect x="0" y="26" width="1" height="1" fill="#231f20"/>
    <rect x="66" y="26" width="1" height="1" fill="#231f20"/>
    <rect x="132" y="26" width="1" height="1" fill="#231f20"/>
    <rect x="165" y="26" width="1" height="1" fill="#231f20"/>
    <rect x="0" y="27" width="1" height="1" fill="#231f20"/>
    <rect x="66" y="27" width="1" height="1" fill="#231f20"/>
    <rect x="132" y="27" width="1" height="1" fill="#231f20"/>
    <rect x="165" y="27" width="1" height="1" fill="#231f20"/>
    <rect x="0" y="28" width="1" height="1" fill="#231f20"/>
    <rect x="66" y="28" width="1" height="1" fill="#231f20"/>
    <rect x="132" y="28" width="1" height="1" fill="#231f20"/>
    <rect x="165" y="28" width="1" height="1" fill="#231f20"/>
    <rect x="0" y="29" width="1" height="1" fill="#231f20"/>
    <rect x="66" y="29" width="1" height="1" fill="#231f20"/>
    <rect x="132" y="29" width="1" height="1" fill="#231f20"/>
    <rect x="165" y="29" width="1" height="1" fill="#231f20"/>
    <rect x="0" y="30" width="1" height="1" fill="#231f20"/>
    <rect x="66" y="30" width="1" height="1" fill="#231f20"/>
    <rect x="132" y="30" width="1" height="1" fill="#231f20"/>
    <rect x="165" y="30" width="1" height="1" fill="#231f20"/>
    <rect x="0" y="31" width="1" height="1" fill="#231f20"/>
    <rect x="66" y="31" width="1" height="1" fill="#231f20"/>
    <rect x="132" y="31" width="1" height="1" fill="#231f20"/>
    <rect x="165" y="31" width="1" height="1" fill="#231f20"/>
    <rect x="0" y="32" width="1" height="1" fill="#231f20"/>
    <rect x="66" y="32" width="1" height="1" fill="#231f20"/>
    <rect x="132" y="32" width="1" height="1" fill="#231f20"/>
    <rect x="165" y="32" width="1" height="1" fill="#231f20"/>
    <rect x="0" y="33" width="1" height="1" fill="#231f20"/>
    <rect x="66" y="33" width="6" height="1" fill="#231f20"/>
    <rect x="132" y="33" width="1" height="1" fill="#231f20"/>
    <rect x="165" y="33" width="1" height="1" fill="#231f20"/>
    <rect x="0" y="34" width="1" height="1" fill="#231f20"/>
    <rect x="66" y="34" width="1" height="1" fill="#231f20"/>
    <rect x="132" y="34" width="1" height="1" fill="#231f20"/>
    <rect x="165" y="34" width="1" height="1" fill="#231f20"/>
    <rect x="0" y="35" width="1" height="1" fill="#231f20"/>
    <rect x="66" y="35" width="1" height="1" fill="#231f20"/>
    <rect x="132" y="35" width="1" height="1" fill="#231f20"/>
    <rect x="165" y="35" width="1" height="1" fill="#231f20"/>
    <rect x="0" y="36" width="1" height="1" fill="#231f20"/>
    <rect x="66" y="36" width="1" height="1" fill="#231f20"/>
    <rect x="132" y="36" width="1" height="1" fill="#231f20"/>
    <rect x="165" y="36" width="1" height="1" fill="#231f20"/>
    <rect x="0" y="37" width="1" height="1" fill="#231f20"/>
    <rect x="66" y="37" width="1" height="1" fill="#231f20"/>
    <rect x="132" y="37" width="1" height="1" fill="#231f20"/>
    <rect x="165" y="37" width="1" height="1" fill="#231f20"/>
    <rect x="0" y="38" width="1" height="1" fill="#231f20"/>
    <rect x="66" y="38" width="1" height="1" fill="#231f20"/>
    <rect x="132" y="38" width="1" height="1" fill="#231f20"/>
    <rect x="165" y="38" width="1" height="1" fill="#231f20"/>
    <rect x="0" y="39" width="1" height="1" fill="#231f20"/>
    <rect x="66" y="39" width="1" height="1" fill="#231f20"/>
    <rect x="132" y="39" width="1" height="1" fill="#231f20"/>
    <rect x="165" y="39" width="1" height="1" fill="#231f20"/>
    <rect x="0" y="40" width="1" height="1" fill="#231f20"/>
    <rect x="66" y="40" width="1" height="1" fill="#231f20"/>
    <rect x="132" y="40" width="1" height="1" fill="#231f20"/>
    <rect x="165" y="40" width="1" height="1" fill="#231f20"/>
    <rect x="0" y="41" width="1" height="1" fill="#231f20"/>
    <rect x="66" y="41" width="1" height="1" fill="#231f20"/>
    <rect x="132" y="41" width="1" height="1" fill="#231f20"/>
    <rect x="165" y="41" width="1" height="1" fill="#231f20"/>
    <rect x="0" y="42" width="1" height="1" fill="#231f20"/>
    <rect x="66" y="42" width="1" height="1" fill="#231f20"/>
    <rect x="132" y="42" width="1" height="1" fill="#231f20"/>
    <rect x="165" y="42" width="1" height="1" fill="#231f20"/>
    <rect x="0" y="43" width="1" height="1" fill="#231f20"/>
    <rect x="66" y="43" width="1" height="1" fill="#231f20"/>
    <rect x="132" y="43" width="1" height="1" fill="#231f20"/>
    <rect x="165" y="43" width="1" height="1" fill="#231f20"/>
    <rect x="0" y="44" width="166" height="1" fill="#231f20"/>
    <rect x="0" y="45" width="1" height="1" fill="#231f20"/>
    <rect x="33" y="45" width="1" height="1" fill="#231f20"/>
    <rect x="99" y="45" width="1" height="1" fill="#231f20"/>
    <rect x="165" y="45" width="1" height="1" fill="#231f20"/>
    <rect x="0" y="46" width="1" height="1" fill="#231f20"/>
    <rect x="33" y="46" width="1" height="1" fill="#231f20"/>
    <rect x="99" y="46" width="1" height="1" fill="#231f20"/>
    <rect x="165" y="46" width="1" height="1" fill="#231f20"/>
    <rect x="0" y="47" width="1" height="1" fill="#231f20"/>
    <rect x="33" y="47" width="1" height="1" fill="#231f20"/>
    <rect x="99" y="47" width="1" height="1" fill="#231f20"/>
    <rect x="165" y="47" width="1" height="1" fill="#231f20"/>
    <rect x="0" y="48" width="1" height="1" fill="#231f20"/>
    <rect x="33" y="48" width="1" height="1" fill="#231f20"/>
    <rect x="99" y="48" width="1" height="1" fill="#231f20"/>
    <rect x="165" y="48" width="1" height="1" fill="#231f20"/>
    <rect x="0" y="49" width="1" height="1" fill="#231f20"/>
    <rect x="33" y="49" width="1" height="1" fill="#231f20"/>
    <rect x="99" y="49" width="1" height="1" fill="#231f20"/>
    <rect x="165" y="49" width="1" height="1" fill="#231f20"/>
    <rect x="0" y="50" width="1" height="1" fill="#231f20"/>
    <rect x="33" y="50" width="1" height="1" fill="#231f20"/>
    <rect x="99" y="50" width="1" height="1" fill="#231f20"/>
    <rect x="165" y="50" width="1" height="1" fill="#231f20"/>
    <rect x="0" y="51" width="1" height="1" fill="#231f20"/>
    <rect x="33" y="51" width="1" height="1" fill="#231f20"/>
    <rect x="99" y="51" width="1" height="1" fill="#231f20"/>
    <rect x="165" y="51" width="1" height="1" fill="#231f20"/>
    <rect x="0" y="52" width="1" height="1" fill="#231f20"/>
    <rect x="33" y="52" width="1" height="1" fill="#231f20"/>
    <rect x="99" y="52" width="1" height="1" fill="#231f20"/>
    <rect x="165" y="52" width="1" height="1" fill="#231f20"/>
    <rect x="0" y="53" width="1" height="1" fill="#231f20"/>
    <rect x="33" y="53" width="1" height="1" fill="#231f20"/>
    <rect x="99" y="53" width="1" height="1" fill="#231f20"/>
    <rect x="165" y="53" width="1" height="1" fill="#231f20"/>
    <rect x="0" y="54" width="1" height="1" fill="#231f20"/>
    <rect x="33" y="54" width="1" height="1" fill="#231f20"/>
    <rect x="99" y="54" width="1" height="1" fill="#231f20"/>
    <rect x="165" y="54" width="1" height="1" fill="#231f20"/>
    <rect x="0" y="55" width="1" height="1" fill="#231f20"/>
    <rect x="33" y="55" width="1" height="1" fill="#231f20"/>
    <rect x="99" y="55" width="6" height="1" fill="#231f20"/>
    <rect x="165" y="55" width="1" height="1" fill="#231f20"/>
    <rect x="0" y="56" width="1" height="1" fill="#231f20"/>
    <rect x="33" y="56" width="1" height="1" fill="#231f20"/>
    <rect x="99" y="56" width="1" height="1" fill="#231f20"/>
    <rect x="165" y="56" width="1" height="1" fill="#231f20"/>
    <rect x="0" y="57" width="1" height="1" fill="#231f20"/>
    <rect x="33" y="57" width="1" height="1" fill="#231f20"/>
    <rect x="99" y="57" width="1" height="1" fill="#231f20"/>
    <rect x="165" y="57" width="1" height="1" fill="#231f20"/>
    <rect x="0" y="58" width="1" height="1" fill="#231f20"/>
    <rect x="33" y="58" width="1" height="1" fill="#231f20"/>
    <rect x="99" y="58" width="1" height="1" fill="#231f20"/>
    <rect x="165" y="58" width="1" height="1" fill="#231f20"/>
    <rect x="0" y="59" width="1" height="1" fill="#231f20"/>
    <rect x="33" y="59" width="1" height="1" fill="#231f20"/>
    <rect x="99" y="59" width="1" height="1" fill="#231f20"/>
    <rect x="165" y="59" width="1" height="1" fill="#231f20"/>
    <rect x="0" y="60" width="1" height="1" fill="#231f20"/>
    <rect x="33" y="60" width="1" height="1" fill="#231f20"/>
    <rect x="99" y="60" width="1" height="1" fill="#231f20"/>
    <rect x="165" y="60" width="1" height="1" fill="#231f20"/>
    <rect x="0" y="61" width="1" height="1" fill="#231f20"/>
    <rect x="33" y="61" width="1" height="1" fill="#231f20"/>
    <rect x="99" y="61" width="1" height="1" fill="#231f20"/>
    <rect x="165" y="61" width="1" height="1" fill="#231f20"/>
    <rect x="0" y="62" width="1" height="1" fill="#231f20"/>
    <rect x="33" y="62" width="1" height="1" fill="#231f20"/>
    <rect x="99" y="62" width="1" height="1" fill="#231f20"/>
    <rect x="165" y="62" width="1" height="1" fill="#231f20"/>
    <rect x="0" y="63" width="1" height="1" fill="#231f20"/>
    <rect x="33" y="63" width="1" height="1" fill="#231f20"/>
    <rect x="99" y="63" width="1" height="1" fill="#231f20"/>
    <rect x="165" y="63" width="1" height="1" fill="#231f20"/>
    <rect x="0" y="64" width="1" height="1" fill="#231f20"/>
    <rect x="33" y="64" width="1" height="1" fill="#231f20"/>
    <rect x="99" y="64" width="1" height="1" fill="#231f20"/>
    <rect x="165" y="64" width="1" height="1" fill="#231f20"/>
    <rect x="0" y="65" width="1" height="1" fill="#231f20"/>
    <rect x="33" y="65" width="1" height="1" fill="#231f20"/>
    <rect x="99" y="65" width="1" height="1" fill="#231f20"/>
    <rect x="165" y="65" width="1" height="1" fill="#231f20"/>
    <rect x="0" y="66" width="166" height="1" fill="#231f20"/>
  </g>
</svg>