<?xml version="1.0" encoding="UTF-8"?>
<svg xmlns="http://www.w3.org/2000/svg" viewBox="0 0 281 189" width="281" height="189">
  <!-- Auto-converted from legend-624.png -->
  <rect x="0" y="0" width="281" height="189" fill="none"/>
  <g fill="#e13620" stroke="none">
    <rect x="2" y="1" width="278" height="1" fill="#e13620"/>
    <rect x="2" y="2" width="1" height="1" fill="#e13620"/>
    <rect x="70" y="2" width="1" height="1" fill="#e13620"/>
    <rect x="218" y="2" width="1" height="1" fill="#e13620"/>
    <rect x="279" y="2" width="1" height="1" fill="#e13620"/>
    <rect x="2" y="3" width="1" height="1" fill="#e13620"/>
    <rect x="70" y="3" width="1" height="1" fill="#e13620"/>
    <rect x="218" y="3" width="1" height="1" fill="#e13620"/>
    <rect x="279" y="3" width="1" height="1" fill="#e13620"/>
    <rect x="2" y="4" width="1" height="1" fill="#e13620"/>
    <rect x="70" y="4" width="1" height="1" fill="#e13620"/>
    <rect x="218" y="4" width="1" height="1" fill="#e13620"/>
    <rect x="279" y="4" width="1" height="1" fill="#e13620"/>
    <rect x="2" y="5" width="1" height="1" fill="#e13620"/>
    <rect x="70" y="5" width="1" height="1" fill="#e13620"/>
    <rect x="218" y="5" width="1" height="1" fill="#e13620"/>
    <rect x="279" y="5" width="1" height="1" fill="#e13620"/>
    <rect x="2" y="6" width="1" height="1" fill="#e13620"/>
    <rect x="70" y="6" width="1" height="1" fill="#e13620"/>
    <rect x="218" y="6" width="1" height="1" fill="#e13620"/>
    <rect x="279" y="6" width="1" height="1" fill="#e13620"/>
    <rect x="2" y="7" width="1" height="1" fill="#e13620"/>
    <rect x="70" y="7" width="1" height="1" fill="#e13620"/>
    <rect x="218" y="7" width="1" height="1" fill="#e13620"/>
    <rect x="279" y="7" width="1" height="1" fill="#e13620"/>
    <rect x="2" y="8" width="1" height="1" fill="#e13620"/>
    <rect x="70" y="8" width="1" height="1" fill="#e13620"/>
    <rect x="218" y="8" width="1" height="1" fill="#e13620"/>
    <rect x="279" y="8" width="1" height="1" fill="#e13620"/>
    <rect x="2" y="9" width="1" height="1" fill="#e13620"/>
    <rect x="70" y="9" width="1" height="1" fill="#e13620"/>
    <rect x="218" y="9" width="1" height="1" fill="#e13620"/>
    <rect x="279" y="9" width="1" height="1" fill="#e13620"/>
    <rect x="2" y="10" width="1" height="1" fill="#e13620"/>
    <rect x="70" y="10" width="1" height="1" fill="#e13620"/>
    <rect x="218" y="10" width="1" height="1" fill="#e13620"/>
    <rect x="279" y="10" width="1" height="1" fill="#e13620"/>
    <rect x="2" y="11" width="1" height="1" fill="#e13620"/>
    <rect x="70" y="11" width="1" height="1" fill="#e13620"/>
    <rect x="218" y="11" width="1" height="1" fill="#e13620"/>
    <rect x="279" y="11" width="1" height="1" fill="#e13620"/>
    <rect x="2" y="12" width="1" height="1" fill="#e13620"/>
    <rect x="70" y="12" width="1" height="1" fill="#e13620"/>
    <rect x="218" y="12" width="1" height="1" fill="#e13620"/>
    <rect x="279" y="12" width="1" height="1" fill="#e13620"/>
    <rect x="2" y="13" width="1" height="1" fill="#e13620"/>
    <rect x="70" y="13" width="1" height="1" fill="#e13620"/>
    <rect x="218" y="13" width="1" height="1" fill="#e13620"/>
    <rect x="279" y="13" width="1" height="1" fill="#e13620"/>
    <rect x="2" y="14" width="1" height="1" fill="#e13620"/>
    <rect x="70" y="14" width="1" height="1" fill="#e13620"/>
    <rect x="218" y="14" width="1" height="1" fill="#e13620"/>
    <rect x="279" y="14" width="1" height="1" fill="#e13620"/>
    <rect x="2" y="15" width="1" height="1" fill="#e13620"/>
    <rect x="70" y="15" width="1" height="1" fill="#e13620"/>
    <rect x="218" y="15" width="1" height="1" fill="#e13620"/>
    <rect x="279" y="15" width="1" height="1" fill="#e13620"/>
    <rect x="2" y="16" width="1" height="1" fill="#e13620"/>
    <rect x="70" y="16" width="1" height="1" fill="#e13620"/>
    <rect x="218" y="16" width="1" height="1" fill="#e13620"/>
    <rect x="279" y="16" width="1" height="1" fill="#e13620"/>
    <rect x="2" y="17" width="1" height="1" fill="#e13620"/>
    <rect x="70" y="17" width="1" height="1" fill="#e13620"/>
    <rect x="218" y="17" width="1" height="1" fill="#e13620"/>
    <rect x="279" y="17" width="1" height="1" fill="#e13620"/>
    <rect x="2" y="18" width="1" height="1" fill="#e13620"/>
    <rect x="70" y="18" width="1" height="1" fill="#e13620"/>
    <rect x="279" y="18" width="1" height="1" fill="#e13620"/>
    <rect x="2" y="19" width="1" height="1" fill="#e13620"/>
    <rect x="70" y="19" width="1" height="1" fill="#e13620"/>
    <rect x="279" y="19" width="1" height="1" fill="#e13620"/>
    <rect x="2" y="20" width="1" height="1" fill="#e13620"/>
    <rect x="70" y="20" width="1" height="1" fill="#e13620"/>
    <rect x="279" y="20" width="1" height="1" fill="#e13620"/>
    <rect x="2" y="21" width="1" height="1" fill="#e13620"/>
    <rect x="279" y="21" width="1" height="1" fill="#e13620"/>
    <rect x="2" y="22" width="1" height="1" fill="#e13620"/>
    <rect x="279" y="22" width="1" height="1" fill="#e13620"/>
    <rect x="2" y="23" width="1" height="1" fill="#e13620"/>
    <rect x="279" y="23" width="1" height="1" fill="#e13620"/>
    <rect x="2" y="24" width="1" height="1" fill="#e13620"/>
    <rect x="279" y="24" width="1" height="1" fill="#e13620"/>
    <rect x="2" y="25" width="1" height="1" fill="#e13620"/>
    <rect x="279" y="25" width="1" height="1" fill="#e13620"/>
    <rect x="2" y="26" width="1" height="1" fill="#e13620"/>
    <rect x="279" y="26" width="1" height="1" fill="#e13620"/>
    <rect x="2" y="27" width="1" height="1" fill="#e13620"/>
    <rect x="279" y="27" width="1" height="1" fill="#e13620"/>
    <rect x="2" y="28" width="1" height="1" fill="#e13620"/>
    <rect x="279" y="28" width="1" height="1" fill="#e13620"/>
    <rect x="2" y="29" width="1" height="1" fill="#e13620"/>
    <rect x="279" y="29" width="1" height="1" fill="#e13620"/>
    <rect x="2" y="30" width="1" height="1" fill="#e13620"/>
    <rect x="279" y="30" width="1" height="1" fill="#e13620"/>
    <rect x="2" y="31" width="1" height="1" fill="#e13620"/>
    <rect x="279" y="31" width="1" height="1" fill="#e13620"/>
    <rect x="2" y="32" width="1" height="1" fill="#e13620"/>
    <rect x="279" y="32" width="1" height="1" fill="#e13620"/>
    <rect x="2" y="33" width="1" height="1" fill="#e13620"/>
    <rect x="279" y="33" width="1" height="1" fill="#e13620"/>
    <rect x="2" y="34" width="1" height="1" fill="#e13620"/>
    <rect x="279" y="34" width="1" height="1" fill="#e13620"/>
    <rect x="2" y="35" width="1" height="1" fill="#e13620"/>
    <rect x="279" y="35" width="1" height="1" fill="#e13620"/>
    <rect x="2" y="36" width="1" height="1" fill="#e13620"/>
    <rect x="279" y="36" width="1" height="1" fill="#e13620"/>
    <rect x="2" y="37" width="1" height="1" fill="#e13620"/>
    <rect x="279" y="37" width="1" height="1" fill="#e13620"/>
    <rect x="2" y="38" width="1" height="1" fill="#e13620"/>
    <rect x="279" y="38" width="1" height="1" fill="#e13620"/>
    <rect x="2" y="39" width="1" height="1" fill="#e13620"/>
    <rect x="279" y="39" width="1" height="1" fill="#e13620"/>
    <rect x="2" y="40" width="1" height="1" fill="#e13620"/>
    <rect x="279" y="40" width="1" height="1" fill="#e13620"/>
    <rect x="2" y="41" width="1" height="1" fill="#e13620"/>
    <rect x="279" y="41" width="1" height="1" fill="#e13620"/>
    <rect x="2" y="42" width="1" height="1" fill="#e13620"/>
    <rect x="219" y="42" width="1" height="1" fill="#e13620"/>
    <rect x="279" y="42" width="1" height="1" fill="#e13620"/>
    <rect x="2" y="43" width="1" height="1" fill="#e13620"/>
    <rect x="219" y="43" width="1" height="1" fill="#e13620"/>
    <rect x="279" y="43" width="1" height="1" fill="#e13620"/>
    <rect x="2" y="44" width="1" height="1" fill="#e13620"/>
    <rect x="71" y="44" width="1" height="1" fill="#e13620"/>
    <rect x="219" y="44" width="1" height="1" fill="#e13620"/>
    <rect x="279" y="44" width="1" height="1" fill="#e13620"/>
    <rect x="2" y="45" width="1" height="1" fill="#e13620"/>
    <rect x="71" y="45" width="1" height="1" fill="#e13620"/>
    <rect x="219" y="45" width="1" height="1" fill="#e13620"/>
    <rect x="279" y="45" width="1" height="1" fill="#e13620"/>
    <rect x="2" y="46" width="1" height="1" fill="#e13620"/>
    <rect x="71" y="46" width="1" height="1" fill="#e13620"/>
    <rect x="219" y="46" width="1" height="1" fill="#e13620"/>
    <rect x="279" y="46" width="1" height="1" fill="#e13620"/>
    <rect x="2" y="47" width="1" height="1" fill="#e13620"/>
    <rect x="71" y="47" width="1" height="1" fill="#e13620"/>
    <rect x="219" y="47" width="1" height="1" fill="#e13620"/>
    <rect x="279" y="47" width="1" height="1" fill="#e13620"/>
    <rect x="2" y="48" width="1" height="1" fill="#e13620"/>
    <rect x="71" y="48" width="1" height="1" fill="#e13620"/>
    <rect x="219" y="48" width="1" height="1" fill="#e13620"/>
    <rect x="279" y="48" width="1" height="1" fill="#e13620"/>
    <rect x="2" y="49" width="1" height="1" fill="#e13620"/>
    <rect x="71" y="49" width="1" height="1" fill="#e13620"/>
    <rect x="219" y="49" width="1" height="1" fill="#e13620"/>
    <rect x="279" y="49" width="1" height="1" fill="#e13620"/>
    <rect x="2" y="50" width="1" height="1" fill="#e13620"/>
    <rect x="71" y="50" width="1" height="1" fill="#e13620"/>
    <rect x="219" y="50" width="1" height="1" fill="#e13620"/>
    <rect x="279" y="50" width="1" height="1" fill="#e13620"/>
    <rect x="2" y="51" width="1" height="1" fill="#e13620"/>
    <rect x="71" y="51" width="1" height="1" fill="#e13620"/>
    <rect x="219" y="51" width="1" height="1" fill="#e13620"/>
    <rect x="279" y="51" width="1" height="1" fill="#e13620"/>
    <rect x="2" y="52" width="1" height="1" fill="#e13620"/>
    <rect x="71" y="52" width="1" height="1" fill="#e13620"/>
    <rect x="219" y="52" width="1" height="1" fill="#e13620"/>
    <rect x="279" y="52" width="1" height="1" fill="#e13620"/>
    <rect x="2" y="53" width="1" height="1" fill="#e13620"/>
    <rect x="71" y="53" width="1" height="1" fill="#e13620"/>
    <rect x="219" y="53" width="1" height="1" fill="#e13620"/>
    <rect x="279" y="53" width="1" height="1" fill="#e13620"/>
    <rect x="2" y="54" width="1" height="1" fill="#e13620"/>
    <rect x="71" y="54" width="1" height="1" fill="#e13620"/>
    <rect x="219" y="54" width="1" height="1" fill="#e13620"/>
    <rect x="279" y="54" width="1" height="1" fill="#e13620"/>
    <rect x="2" y="55" width="1" height="1" fill="#e13620"/>
    <rect x="71" y="55" width="1" height="1" fill="#e13620"/>
    <rect x="219" y="55" width="1" height="1" fill="#e13620"/>
    <rect x="279" y="55" width="1" height="1" fill="#e13620"/>
    <rect x="2" y="56" width="1" height="1" fill="#e13620"/>
    <rect x="71" y="56" width="1" height="1" fill="#e13620"/>
    <rect x="219" y="56" width="1" height="1" fill="#e13620"/>
    <rect x="279" y="56" width="1" height="1" fill="#e13620"/>
    <rect x="2" y="57" width="1" height="1" fill="#e13620"/>
    <rect x="71" y="57" width="1" height="1" fill="#e13620"/>
    <rect x="219" y="57" width="1" height="1" fill="#e13620"/>
    <rect x="279" y="57" width="1" height="1" fill="#e13620"/>
    <rect x="2" y="58" width="1" height="1" fill="#e13620"/>
    <rect x="71" y="58" width="1" height="1" fill="#e13620"/>
    <rect x="219" y="58" width="1" height="1" fill="#e13620"/>
    <rect x="279" y="58" width="1" height="1" fill="#e13620"/>
    <rect x="2" y="59" width="1" height="1" fill="#e13620"/>
    <rect x="71" y="59" width="1" height="1" fill="#e13620"/>
    <rect x="219" y="59" width="1" height="1" fill="#e13620"/>
    <rect x="279" y="59" width="1" height="1" fill="#e13620"/>
    <rect x="2" y="60" width="1" height="1" fill="#e13620"/>
    <rect x="71" y="60" width="1" height="1" fill="#e13620"/>
    <rect x="219" y="60" width="1" height="1" fill="#e13620"/>
    <rect x="279" y="60" width="1" height="1" fill="#e13620"/>
    <rect x="2" y="61" width="1" height="1" fill="#e13620"/>
    <rect x="71" y="61" width="1" height="1" fill="#e13620"/>
    <rect x="219" y="61" width="1" height="1" fill="#e13620"/>
    <rect x="279" y="61" width="1" height="1" fill="#e13620"/>
    <rect x="2" y="62" width="1" height="1" fill="#e13620"/>
    <rect x="71" y="62" width="1" height="1" fill="#e13620"/>
    <rect x="219" y="62" width="1" height="1" fill="#e13620"/>
    <rect x="279" y="62" width="1" height="1" fill="#e13620"/>
    <rect x="2" y="63" width="278" height="1" fill="#e13620"/>
    <rect x="2" y="64" width="1" height="1" fill="#e13620"/>
    <rect x="71" y="64" width="146" height="1" fill="#e13620"/>
    <rect x="219" y="64" width="1" height="1" fill="#e13620"/>
    <rect x="279" y="64" width="1" height="1" fill="#e13620"/>
    <rect x="2" y="65" width="1" height="1" fill="#e13620"/>
    <rect x="71" y="65" width="146" height="1" fill="#e13620"/>
    <rect x="219" y="65" width="1" height="1" fill="#e13620"/>
    <rect x="279" y="65" width="1" height="1" fill="#e13620"/>
    <rect x="2" y="66" width="1" height="1" fill="#e13620"/>
    <rect x="71" y="66" width="144" height="1" fill="#e13620"/>
    <rect x="219" y="66" width="1" height="1" fill="#e13620"/>
    <rect x="279" y="66" width="1" height="1" fill="#e13620"/>
    <rect x="2" y="67" width="1" height="1" fill="#e13620"/>
    <rect x="71" y="67" width="142" height="1" fill="#e13620"/>
    <rect x="219" y="67" width="1" height="1" fill="#e13620"/>
    <rect x="279" y="67" width="1" height="1" fill="#e13620"/>
    <rect x="2" y="68" width="1" height="1" fill="#e13620"/>
    <rect x="71" y="68" width="139" height="1" fill="#e13620"/>
    <rect x="219" y="68" width="1" height="1" fill="#e13620"/>
    <rect x="279" y="68" width="1" height="1" fill="#e13620"/>
    <rect x="2" y="69" width="1" height="1" fill="#e13620"/>
    <rect x="71" y="69" width="137" height="1" fill="#e13620"/>
    <rect x="219" y="69" width="1" height="1" fill="#e13620"/>
    <rect x="279" y="69" width="1" height="1" fill="#e13620"/>
    <rect x="2" y="70" width="1" height="1" fill="#e13620"/>
    <rect x="71" y="70" width="135" height="1" fill="#e13620"/>
    <rect x="219" y="70" width="1" height="1" fill="#e13620"/>
    <rect x="279" y="70" width="1" height="1" fill="#e13620"/>
    <rect x="2" y="71" width="1" height="1" fill="#e13620"/>
    <rect x="71" y="71" width="132" height="1" fill="#e13620"/>
    <rect x="219" y="71" width="1" height="1" fill="#e13620"/>
    <rect x="279" y="71" width="1" height="1" fill="#e13620"/>
    <rect x="2" y="72" width="1" height="1" fill="#e13620"/>
    <rect x="71" y="72" width="130" height="1" fill="#e13620"/>
    <rect x="219" y="72" width="1" height="1" fill="#e13620"/>
    <rect x="279" y="72" width="1" height="1" fill="#e13620"/>
    <rect x="2" y="73" width="1" height="1" fill="#e13620"/>
    <rect x="71" y="73" width="128" height="1" fill="#e13620"/>
    <rect x="219" y="73" width="1" height="1" fill="#e13620"/>
    <rect x="279" y="73" width="1" height="1" fill="#e13620"/>
    <rect x="2" y="74" width="1" height="1" fill="#e13620"/>
    <rect x="71" y="74" width="126" height="1" fill="#e13620"/>
    <rect x="219" y="74" width="1" height="1" fill="#e13620"/>
    <rect x="279" y="74" width="1" height="1" fill="#e13620"/>
    <rect x="2" y="75" width="1" height="1" fill="#e13620"/>
    <rect x="71" y="75" width="123" height="1" fill="#e13620"/>
    <rect x="219" y="75" width="1" height="1" fill="#e13620"/>
    <rect x="279" y="75" width="1" height="1" fill="#e13620"/>
    <rect x="2" y="76" width="1" height="1" fill="#e13620"/>
    <rect x="71" y="76" width="121" height="1" fill="#e13620"/>
    <rect x="219" y="76" width="1" height="1" fill="#e13620"/>
    <rect x="279" y="76" width="1" height="1" fill="#e13620"/>
    <rect x="2" y="77" width="1" height="1" fill="#e13620"/>
    <rect x="71" y="77" width="119" height="1" fill="#e13620"/>
    <rect x="219" y="77" width="1" height="1" fill="#e13620"/>
    <rect x="279" y="77" width="1" height="1" fill="#e13620"/>
    <rect x="2" y="78" width="1" height="1" fill="#e13620"/>
    <rect x="71" y="78" width="116" height="1" fill="#e13620"/>
    <rect x="219" y="78" width="1" height="1" fill="#e13620"/>
    <rect x="279" y="78" width="1" height="1" fill="#e13620"/>
    <rect x="2" y="79" width="1" height="1" fill="#e13620"/>
    <rect x="71" y="79" width="114" height="1" fill="#e13620"/>
    <rect x="219" y="79" width="1" height="1" fill="#e13620"/>
    <rect x="279" y="79" width="1" height="1" fill="#e13620"/>
    <rect x="2" y="80" width="1" height="1" fill="#e13620"/>
    <rect x="71" y="80" width="112" height="1" fill="#e13620"/>
    <rect x="219" y="80" width="1" height="1" fill="#e13620"/>
    <rect x="279" y="80" width="1" height="1" fill="#e13620"/>
    <rect x="2" y="81" width="1" height="1" fill="#e13620"/>
    <rect x="71" y="81" width="109" height="1" fill="#e13620"/>
    <rect x="219" y="81" width="1" height="1" fill="#e13620"/>
    <rect x="279" y="81" width="1" height="1" fill="#e13620"/>
    <rect x="2" y="82" width="1" height="1" fill="#e13620"/>
    <rect x="71" y="82" width="107" height="1" fill="#e13620"/>
    <rect x="219" y="82" width="1" height="1" fill="#e13620"/>
    <rect x="279" y="82" width="1" height="1" fill="#e13620"/>
    <rect x="2" y="83" width="1" height="1" fill="#e13620"/>
    <rect x="71" y="83" width="105" height="1" fill="#e13620"/>
    <rect x="219" y="83" width="1" height="1" fill="#e13620"/>
    <rect x="279" y="83" width="1" height="1" fill="#e13620"/>
    <rect x="2" y="84" width="1" height="1" fill="#e13620"/>
    <rect x="71" y="84" width="103" height="1" fill="#e13620"/>
    <rect x="219" y="84" width="1" height="1" fill="#e13620"/>
    <rect x="279" y="84" width="1" height="1" fill="#e13620"/>
    <rect x="2" y="85" width="1" height="1" fill="#e13620"/>
    <rect x="71" y="85" width="100" height="1" fill="#e13620"/>
    <rect x="219" y="85" width="1" height="1" fill="#e13620"/>
    <rect x="279" y="85" width="1" height="1" fill="#e13620"/>
    <rect x="2" y="86" width="1" height="1" fill="#e13620"/>
    <rect x="71" y="86" width="98" height="1" fill="#e13620"/>
    <rect x="219" y="86" width="1" height="1" fill="#e13620"/>
    <rect x="279" y="86" width="1" height="1" fill="#e13620"/>
    <rect x="2" y="87" width="1" height="1" fill="#e13620"/>
    <rect x="71" y="87" width="96" height="1" fill="#e13620"/>
    <rect x="219" y="87" width="1" height="1" fill="#e13620"/>
    <rect x="279" y="87" width="1" height="1" fill="#e13620"/>
    <rect x="2" y="88" width="1" height="1" fill="#e13620"/>
    <rect x="71" y="88" width="93" height="1" fill="#e13620"/>
    <rect x="219" y="88" width="1" height="1" fill="#e13620"/>
    <rect x="279" y="88" width="1" height="1" fill="#e13620"/>
    <rect x="2" y="89" width="1" height="1" fill="#e13620"/>
    <rect x="71" y="89" width="91" height="1" fill="#e13620"/>
    <rect x="219" y="89" width="1" height="1" fill="#e13620"/>
    <rect x="279" y="89" width="1" height="1" fill="#e13620"/>
    <rect x="2" y="90" width="1" height="1" fill="#e13620"/>
    <rect x="71" y="90" width="89" height="1" fill="#e13620"/>
    <rect x="219" y="90" width="1" height="1" fill="#e13620"/>
    <rect x="279" y="90" width="1" height="1" fill="#e13620"/>
    <rect x="2" y="91" width="1" height="1" fill="#e13620"/>
    <rect x="71" y="91" width="86" height="1" fill="#e13620"/>
    <rect x="219" y="91" width="1" height="1" fill="#e13620"/>
    <rect x="279" y="91" width="1" height="1" fill="#e13620"/>
    <rect x="2" y="92" width="1" height="1" fill="#e13620"/>
    <rect x="71" y="92" width="84" height="1" fill="#e13620"/>
    <rect x="219" y="92" width="1" height="1" fill="#e13620"/>
    <rect x="279" y="92" width="1" height="1" fill="#e13620"/>
    <rect x="2" y="93" width="1" height="1" fill="#e13620"/>
    <rect x="71" y="93" width="82" height="1" fill="#e13620"/>
    <rect x="219" y="93" width="1" height="1" fill="#e13620"/>
    <rect x="279" y="93" width="1" height="1" fill="#e13620"/>
    <rect x="2" y="94" width="1" height="1" fill="#e13620"/>
    <rect x="71" y="94" width="80" height="1" fill="#e13620"/>
    <rect x="219" y="94" width="1" height="1" fill="#e13620"/>
    <rect x="279" y="94" width="1" height="1" fill="#e13620"/>
    <rect x="2" y="95" width="1" height="1" fill="#e13620"/>
    <rect x="71" y="95" width="77" height="1" fill="#e13620"/>
    <rect x="219" y="95" width="1" height="1" fill="#e13620"/>
    <rect x="279" y="95" width="1" height="1" fill="#e13620"/>
    <rect x="2" y="96" width="1" height="1" fill="#e13620"/>
    <rect x="71" y="96" width="75" height="1" fill="#e13620"/>
    <rect x="219" y="96" width="1" height="1" fill="#e13620"/>
    <rect x="279" y="96" width="1" height="1" fill="#e13620"/>
    <rect x="2" y="97" width="1" height="1" fill="#e13620"/>
    <rect x="71" y="97" width="73" height="1" fill="#e13620"/>
    <rect x="219" y="97" width="1" height="1" fill="#e13620"/>
    <rect x="279" y="97" width="1" height="1" fill="#e13620"/>
    <rect x="2" y="98" width="1" height="1" fill="#e13620"/>
    <rect x="71" y="98" width="70" height="1" fill="#e13620"/>
    <rect x="219" y="98" width="1" height="1" fill="#e13620"/>
    <rect x="279" y="98" width="1" height="1" fill="#e13620"/>
    <rect x="2" y="99" width="1" height="1" fill="#e13620"/>
    <rect x="71" y="99" width="68" height="1" fill="#e13620"/>
    <rect x="219" y="99" width="1" height="1" fill="#e13620"/>
    <rect x="279" y="99" width="1" height="1" fill="#e13620"/>
    <rect x="2" y="100" width="1" height="1" fill="#e13620"/>
    <rect x="71" y="100" width="66" height="1" fill="#e13620"/>
    <rect x="219" y="100" width="1" height="1" fill="#e13620"/>
    <rect x="279" y="100" width="1" height="1" fill="#e13620"/>
    <rect x="2" y="101" width="1" height="1" fill="#e13620"/>
    <rect x="71" y="101" width="64" height="1" fill="#e13620"/>
    <rect x="219" y="101" width="1" height="1" fill="#e13620"/>
    <rect x="279" y="101" width="1" height="1" fill="#e13620"/>
    <rect x="2" y="102" width="1" height="1" fill="#e13620"/>
    <rect x="71" y="102" width="61" height="1" fill="#e13620"/>
    <rect x="159" y="102" width="12" height="1" fill="#e13620"/>
    <rect x="219" y="102" width="1" height="1" fill="#e13620"/>
    <rect x="279" y="102" width="1" height="1" fill="#e13620"/>
    <rect x="2" y="103" width="1" height="1" fill="#e13620"/>
    <rect x="71" y="103" width="59" height="1" fill="#e13620"/>
    <rect x="156" y="103" width="1" height="1" fill="#e13620"/>
    <rect x="158" y="103" width="3" height="1" fill="#e13620"/>
    <rect x="170" y="103" width="3" height="1" fill="#e13620"/>
    <rect x="219" y="103" width="1" height="1" fill="#e13620"/>
    <rect x="279" y="103" width="1" height="1" fill="#e13620"/>
    <rect x="2" y="104" width="1" height="1" fill="#e13620"/>
    <rect x="71" y="104" width="57" height="1" fill="#e13620"/>
    <rect x="156" y="104" width="2" height="1" fill="#e13620"/>
    <rect x="173" y="104" width="2" height="1" fill="#e13620"/>
    <rect x="219" y="104" width="1" height="1" fill="#e13620"/>
    <rect x="279" y="104" width="1" height="1" fill="#e13620"/>
    <rect x="2" y="105" width="1" height="1" fill="#e13620"/>
    <rect x="71" y="105" width="54" height="1" fill="#e13620"/>
    <rect x="154" y="105" width="2" height="1" fill="#e13620"/>
    <rect x="175" y="105" width="1" height="1" fill="#e13620"/>
    <rect x="219" y="105" width="1" height="1" fill="#e13620"/>
    <rect x="279" y="105" width="1" height="1" fill="#e13620"/>
    <rect x="2" y="106" width="1" height="1" fill="#e13620"/>
    <rect x="71" y="106" width="52" height="1" fill="#e13620"/>
    <rect x="153" y="106" width="1" height="1" fill="#e13620"/>
    <rect x="176" y="106" width="2" height="1" fill="#e13620"/>
    <rect x="201" y="106" width="3" height="1" fill="#e13620"/>
    <rect x="219" y="106" width="1" height="1" fill="#e13620"/>
    <rect x="279" y="106" width="1" height="1" fill="#e13620"/>
    <rect x="2" y="107" width="1" height="1" fill="#e13620"/>
    <rect x="71" y="107" width="50" height="1" fill="#e13620"/>
    <rect x="178" y="107" width="3" height="1" fill="#e13620"/>
    <rect x="200" y="107" width="1" height="1" fill="#e13620"/>
    <rect x="219" y="107" width="1" height="1" fill="#e13620"/>
    <rect x="279" y="107" width="1" height="1" fill="#e13620"/>
    <rect x="2" y="108" width="1" height="1" fill="#e13620"/>
    <rect x="71" y="108" width="47" height="1" fill="#e13620"/>
    <rect x="181" y="108" width="1" height="1" fill="#e13620"/>
    <rect x="198" y="108" width="2" height="1" fill="#e13620"/>
    <rect x="219" y="108" width="1" height="1" fill="#e13620"/>
    <rect x="279" y="108" width="1" height="1" fill="#e13620"/>
    <rect x="2" y="109" width="1" height="1" fill="#e13620"/>
    <rect x="71" y="109" width="45" height="1" fill="#e13620"/>
    <rect x="182" y="109" width="3" height="1" fill="#e13620"/>
    <rect x="195" y="109" width="3" height="1" fill="#e13620"/>
    <rect x="219" y="109" width="1" height="1" fill="#e13620"/>
    <rect x="279" y="109" width="1" height="1" fill="#e13620"/>
    <rect x="2" y="110" width="1" height="1" fill="#e13620"/>
    <rect x="71" y="110" width="43" height="1" fill="#e13620"/>
    <rect x="185" y="110" width="10" height="1" fill="#e13620"/>
    <rect x="219" y="110" width="1" height="1" fill="#e13620"/>
    <rect x="279" y="110" width="1" height="1" fill="#e13620"/>
    <rect x="2" y="111" width="1" height="1" fill="#e13620"/>
    <rect x="71" y="111" width="41" height="1" fill="#e13620"/>
    <rect x="219" y="111" width="1" height="1" fill="#e13620"/>
    <rect x="279" y="111" width="1" height="1" fill="#e13620"/>
    <rect x="2" y="112" width="1" height="1" fill="#e13620"/>
    <rect x="71" y="112" width="38" height="1" fill="#e13620"/>
    <rect x="219" y="112" width="1" height="1" fill="#e13620"/>
    <rect x="279" y="112" width="1" height="1" fill="#e13620"/>
    <rect x="2" y="113" width="1" height="1" fill="#e13620"/>
    <rect x="71" y="113" width="36" height="1" fill="#e13620"/>
    <rect x="219" y="113" width="1" height="1" fill="#e13620"/>
    <rect x="279" y="113" width="1" height="1" fill="#e13620"/>
    <rect x="2" y="114" width="1" height="1" fill="#e13620"/>
    <rect x="71" y="114" width="34" height="1" fill="#e13620"/>
    <rect x="219" y="114" width="1" height="1" fill="#e13620"/>
    <rect x="279" y="114" width="1" height="1" fill="#e13620"/>
    <rect x="2" y="115" width="1" height="1" fill="#e13620"/>
    <rect x="71" y="115" width="31" height="1" fill="#e13620"/>
    <rect x="219" y="115" width="1" height="1" fill="#e13620"/>
    <rect x="279" y="115" width="1" height="1" fill="#e13620"/>
    <rect x="2" y="116" width="1" height="1" fill="#e13620"/>
    <rect x="71" y="116" width="29" height="1" fill="#e13620"/>
    <rect x="219" y="116" width="1" height="1" fill="#e13620"/>
    <rect x="279" y="116" width="1" height="1" fill="#e13620"/>
    <rect x="2" y="117" width="1" height="1" fill="#e13620"/>
    <rect x="71" y="117" width="27" height="1" fill="#e13620"/>
    <rect x="219" y="117" width="1" height="1" fill="#e13620"/>
    <rect x="279" y="117" width="1" height="1" fill="#e13620"/>
    <rect x="2" y="118" width="1" height="1" fill="#e13620"/>
    <rect x="71" y="118" width="24" height="1" fill="#e13620"/>
    <rect x="219" y="118" width="1" height="1" fill="#e13620"/>
    <rect x="279" y="118" width="1" height="1" fill="#e13620"/>
    <rect x="2" y="119" width="1" height="1" fill="#e13620"/>
    <rect x="71" y="119" width="22" height="1" fill="#e13620"/>
    <rect x="219" y="119" width="1" height="1" fill="#e13620"/>
    <rect x="279" y="119" width="1" height="1" fill="#e13620"/>
    <rect x="2" y="120" width="1" height="1" fill="#e13620"/>
    <rect x="71" y="120" width="20" height="1" fill="#e13620"/>
    <rect x="219" y="120" width="1" height="1" fill="#e13620"/>
    <rect x="279" y="120" width="1" height="1" fill="#e13620"/>
    <rect x="2" y="121" width="1" height="1" fill="#e13620"/>
    <rect x="71" y="121" width="18" height="1" fill="#e13620"/>
    <rect x="219" y="121" width="1" height="1" fill="#e13620"/>
    <rect x="279" y="121" width="1" height="1" fill="#e13620"/>
    <rect x="2" y="122" width="1" height="1" fill="#e13620"/>
    <rect x="71" y="122" width="15" height="1" fill="#e13620"/>
    <rect x="219" y="122" width="1" height="1" fill="#e13620"/>
    <rect x="279" y="122" width="1" height="1" fill="#e13620"/>
    <rect x="2" y="123" width="1" height="1" fill="#e13620"/>
    <rect x="71" y="123" width="13" height="1" fill="#e13620"/>
    <rect x="219" y="123" width="1" height="1" fill="#e13620"/>
    <rect x="279" y="123" width="1" height="1" fill="#e13620"/>
    <rect x="2" y="124" width="1" height="1" fill="#e13620"/>
    <rect x="71" y="124" width="11" height="1" fill="#e13620"/>
    <rect x="219" y="124" width="1" height="1" fill="#e13620"/>
    <rect x="279" y="124" width="1" height="1" fill="#e13620"/>
    <rect x="2" y="125" width="1" height="1" fill="#e13620"/>
    <rect x="71" y="125" width="3" height="1" fill="#e13620"/>
    <rect x="279" y="125" width="1" height="1" fill="#e13620"/>
    <rect x="2" y="126" width="1" height="1" fill="#e13620"/>
    <rect x="71" y="126" width="3" height="1" fill="#e13620"/>
    <rect x="279" y="126" width="1" height="1" fill="#e13620"/>
    <rect x="2" y="127" width="278" height="1" fill="#e13620"/>
    <rect x="2" y="128" width="1" height="1" fill="#e13620"/>
    <rect x="279" y="128" width="1" height="1" fill="#e13620"/>
    <rect x="2" y="129" width="1" height="1" fill="#e13620"/>
    <rect x="279" y="129" width="1" height="1" fill="#e13620"/>
    <rect x="2" y="130" width="1" height="1" fill="#e13620"/>
    <rect x="279" y="130" width="1" height="1" fill="#e13620"/>
    <rect x="2" y="131" width="1" height="1" fill="#e13620"/>
    <rect x="279" y="131" width="1" height="1" fill="#e13620"/>
    <rect x="2" y="132" width="1" height="1" fill="#e13620"/>
    <rect x="279" y="132" width="1" height="1" fill="#e13620"/>
    <rect x="2" y="133" width="1" height="1" fill="#e13620"/>
    <rect x="279" y="133" width="1" height="1" fill="#e13620"/>
    <rect x="2" y="134" width="1" height="1" fill="#e13620"/>
    <rect x="279" y="134" width="1" height="1" fill="#e13620"/>
    <rect x="2" y="135" width="1" height="1" fill="#e13620"/>
    <rect x="279" y="135" width="1" height="1" fill="#e13620"/>
    <rect x="2" y="136" width="1" height="1" fill="#e13620"/>
    <rect x="279" y="136" width="1" height="1" fill="#e13620"/>
    <rect x="2" y="137" width="1" height="1" fill="#e13620"/>
    <rect x="279" y="137" width="1" height="1" fill="#e13620"/>
    <rect x="2" y="138" width="1" height="1" fill="#e13620"/>
    <rect x="279" y="138" width="1" height="1" fill="#e13620"/>
    <rect x="2" y="139" width="1" height="1" fill="#e13620"/>
    <rect x="279" y="139" width="1" height="1" fill="#e13620"/>
    <rect x="2" y="140" width="1" height="1" fill="#e13620"/>
    <rect x="279" y="140" width="1" height="1" fill="#e13620"/>
    <rect x="2" y="141" width="1" height="1" fill="#e13620"/>
    <rect x="279" y="141" width="1" height="1" fill="#e13620"/>
    <rect x="2" y="142" width="1" height="1" fill="#e13620"/>
    <rect x="279" y="142" width="1" height="1" fill="#e13620"/>
    <rect x="2" y="143" width="1" height="1" fill="#e13620"/>
    <rect x="279" y="143" width="1" height="1" fill="#e13620"/>
    <rect x="2" y="144" width="1" height="1" fill="#e13620"/>
    <rect x="279" y="144" width="1" height="1" fill="#e13620"/>
    <rect x="2" y="145" width="1" height="1" fill="#e13620"/>
    <rect x="279" y="145" width="1" height="1" fill="#e13620"/>
    <rect x="2" y="146" width="1" height="1" fill="#e13620"/>
    <rect x="279" y="146" width="1" height="1" fill="#e13620"/>
    <rect x="2" y="147" width="1" height="1" fill="#e13620"/>
    <rect x="279" y="147" width="1" height="1" fill="#e13620"/>
    <rect x="2" y="148" width="1" height="1" fill="#e13620"/>
    <rect x="279" y="148" width="1" height="1" fill="#e13620"/>
    <rect x="2" y="149" width="1" height="1" fill="#e13620"/>
    <rect x="279" y="149" width="1" height="1" fill="#e13620"/>
    <rect x="2" y="150" width="1" height="1" fill="#e13620"/>
    <rect x="279" y="150" width="1" height="1" fill="#e13620"/>
    <rect x="2" y="151" width="1" height="1" fill="#e13620"/>
    <rect x="279" y="151" width="1" height="1" fill="#e13620"/>
    <rect x="2" y="152" width="1" height="1" fill="#e13620"/>
    <rect x="279" y="152" width="1" height="1" fill="#e13620"/>
    <rect x="2" y="153" width="1" height="1" fill="#e13620"/>
    <rect x="279" y="153" width="1" height="1" fill="#e13620"/>
    <rect x="2" y="154" width="1" height="1" fill="#e13620"/>
    <rect x="279" y="154" width="1" height="1" fill="#e13620"/>
    <rect x="2" y="155" width="1" height="1" fill="#e13620"/>
    <rect x="279" y="155" width="1" height="1" fill="#e13620"/>
    <rect x="2" y="156" width="1" height="1" fill="#e13620"/>
    <rect x="279" y="156" width="1" height="1" fill="#e13620"/>
    <rect x="2" y="157" width="1" height="1" fill="#e13620"/>
    <rect x="279" y="157" width="1" height="1" fill="#e13620"/>
    <rect x="2" y="158" width="1" height="1" fill="#e13620"/>
    <rect x="279" y="158" width="1" height="1" fill="#e13620"/>
    <rect x="2" y="159" width="1" height="1" fill="#e13620"/>
    <rect x="279" y="159" width="1" height="1" fill="#e13620"/>
    <rect x="2" y="160" width="1" height="1" fill="#e13620"/>
    <rect x="279" y="160" width="1" height="1" fill="#e13620"/>
    <rect x="2" y="161" width="1" height="1" fill="#e13620"/>
    <rect x="279" y="161" width="1" height="1" fill="#e13620"/>
    <rect x="2" y="162" width="1" height="1" fill="#e13620"/>
    <rect x="279" y="162" width="1" height="1" fill="#e13620"/>
    <rect x="2" y="163" width="1" height="1" fill="#e13620"/>
    <rect x="279" y="163" width="1" height="1" fill="#e13620"/>
    <rect x="2" y="164" width="1" height="1" fill="#e13620"/>
    <rect x="279" y="164" width="1" height="1" fill="#e13620"/>
    <rect x="2" y="165" width="1" height="1" fill="#e13620"/>
    <rect x="279" y="165" width="1" height="1" fill="#e13620"/>
    <rect x="2" y="166" width="1" height="1" fill="#e13620"/>
    <rect x="279" y="166" width="1" height="1" fill="#e13620"/>
    <rect x="2" y="167" width="1" height="1" fill="#e13620"/>
    <rect x="279" y="167" width="1" height="1" fill="#e13620"/>
    <rect x="2" y="168" width="1" height="1" fill="#e13620"/>
    <rect x="279" y="168" width="1" height="1" fill="#e13620"/>
    <rect x="2" y="169" width="1" height="1" fill="#e13620"/>
    <rect x="279" y="169" width="1" height="1" fill="#e13620"/>
    <rect x="2" y="170" width="1" height="1" fill="#e13620"/>
    <rect x="279" y="170" width="1" height="1" fill="#e13620"/>
    <rect x="2" y="171" width="1" height="1" fill="#e13620"/>
    <rect x="279" y="171" width="1" height="1" fill="#e13620"/>
    <rect x="2" y="172" width="1" height="1" fill="#e13620"/>
    <rect x="279" y="172" width="1" height="1" fill="#e13620"/>
    <rect x="2" y="173" width="1" height="1" fill="#e13620"/>
    <rect x="279" y="173" width="1" height="1" fill="#e13620"/>
    <rect x="2" y="174" width="1" height="1" fill="#e13620"/>
    <rect x="279" y="174" width="1" height="1" fill="#e13620"/>
    <rect x="2" y="175" width="1" height="1" fill="#e13620"/>
    <rect x="279" y="175" width="1" height="1" fill="#e13620"/>
    <rect x="2" y="176" width="1" height="1" fill="#e13620"/>
    <rect x="279" y="176" width="1" height="1" fill="#e13620"/>
    <rect x="2" y="177" width="1" height="1" fill="#e13620"/>
    <rect x="279" y="177" width="1" height="1" fill="#e13620"/>
    <rect x="2" y="178" width="1" height="1" fill="#e13620"/>
    <rect x="279" y="178" width="1" height="1" fill="#e13620"/>
    <rect x="2" y="179" width="1" height="1" fill="#e13620"/>
    <rect x="279" y="179" width="1" height="1" fill="#e13620"/>
    <rect x="2" y="180" width="1" height="1" fill="#e13620"/>
    <rect x="279" y="180" width="1" height="1" fill="#e13620"/>
    <rect x="2" y="181" width="1" height="1" fill="#e13620"/>
    <rect x="279" y="181" width="1" height="1" fill="#e13620"/>
    <rect x="2" y="182" width="1" height="1" fill="#e13620"/>
    <rect x="279" y="182" width="1" height="1" fill="#e13620"/>
    <rect x="2" y="183" width="1" height="1" fill="#e13620"/>
    <rect x="279" y="183" width="1" height="1" fill="#e13620"/>
    <rect x="2" y="184" width="1" height="1" fill="#e13620"/>
    <rect x="279" y="184" width="1" height="1" fill="#e13620"/>
    <rect x="2" y="185" width="1" height="1" fill="#e13620"/>
    <rect x="279" y="185" width="1" height="1" fill="#e13620"/>
    <rect x="2" y="186" width="278" height="1" fill="#e13620"/>
  </g>
</svg>