<?xml version="1.0" encoding="UTF-8"?>
<svg xmlns="http://www.w3.org/2000/svg" viewBox="0 0 64 77" width="64" height="77">
  <!-- Auto-converted from legend-1408.png -->
  <rect x="0" y="0" width="64" height="77" fill="none"/>
  <g fill="#231f20" stroke="none">
    <rect x="0" y="0" width="64" height="1" fill="#231f20"/>
    <rect x="0" y="1" width="1" height="1" fill="#231f20"/>
    <rect x="63" y="1" width="1" height="1" fill="#231f20"/>
    <rect x="0" y="2" width="1" height="1" fill="#231f20"/>
    <rect x="63" y="2" width="1" height="1" fill="#231f20"/>
    <rect x="0" y="3" width="1" height="1" fill="#231f20"/>
    <rect x="63" y="3" width="1" height="1" fill="#231f20"/>
    <rect x="0" y="4" width="1" height="1" fill="#231f20"/>
    <rect x="63" y="4" width="1" height="1" fill="#231f20"/>
    <rect x="0" y="5" width="1" height="1" fill="#231f20"/>
    <rect x="63" y="5" width="1" height="1" fill="#231f20"/>
    <rect x="0" y="6" width="1" height="1" fill="#231f20"/>
    <rect x="13" y="6" width="1" height="1" fill="#231f20"/>
    <rect x="63" y="6" width="1" height="1" fill="#231f20"/>
    <rect x="0" y="7" width="1" height="1" fill="#231f20"/>
    <rect x="12" y="7" width="3" height="1" fill="#231f20"/>
    <rect x="35" y="7" width="1" height="1" fill="#231f20"/>
    <rect x="63" y="7" width="1" height="1" fill="#231f20"/>
    <rect x="0" y="8" width="1" height="1" fill="#231f20"/>
    <rect x="12" y="8" width="3" height="1" fill="#231f20"/>
    <rect x="34" y="8" width="1" height="1" fill="#231f20"/>
    <rect x="63" y="8" width="1" height="1" fill="#231f20"/>
    <rect x="0" y="9" width="1" height="1" fill="#231f20"/>
    <rect x="33" y="9" width="1" height="1" fill="#231f20"/>
    <rect x="63" y="9" width="1" height="1" fill="#231f20"/>
    <rect x="0" y="10" width="1" height="1" fill="#231f20"/>
    <rect x="32" y="10" width="1" height="1" fill="#231f20"/>
    <rect x="63" y="10" width="1" height="1" fill="#231f20"/>
    <rect x="0" y="11" width="1" height="1" fill="#231f20"/>
    <rect x="32" y="11" width="1" height="1" fill="#231f20"/>
    <rect x="63" y="11" width="1" height="1" fill="#231f20"/>
    <rect x="0" y="12" width="1" height="1" fill="#231f20"/>
    <rect x="8" y="12" width="2" height="1" fill="#231f20"/>
    <rect x="17" y="12" width="3" height="1" fill="#231f20"/>
    <rect x="31" y="12" width="1" height="1" fill="#231f20"/>
    <rect x="63" y="12" width="1" height="1" fill="#231f20"/>
    <rect x="0" y="13" width="1" height="1" fill="#231f20"/>
    <rect x="8" y="13" width="3" height="1" fill="#231f20"/>
    <rect x="17" y="13" width="3" height="1" fill="#231f20"/>
    <rect x="30" y="13" width="1" height="1" fill="#231f20"/>
    <rect x="46" y="13" width="11" height="1" fill="#231f20"/>
    <rect x="63" y="13" width="1" height="1" fill="#231f20"/>
    <rect x="0" y="14" width="1" height="1" fill="#231f20"/>
    <rect x="8" y="14" width="2" height="1" fill="#231f20"/>
    <rect x="18" y="14" width="2" height="1" fill="#231f20"/>
    <rect x="31" y="14" width="1" height="1" fill="#231f20"/>
    <rect x="63" y="14" width="1" height="1" fill="#231f20"/>
    <rect x="0" y="15" width="1" height="1" fill="#231f20"/>
    <rect x="31" y="15" width="1" height="1" fill="#231f20"/>
    <rect x="63" y="15" width="1" height="1" fill="#231f20"/>
    <rect x="0" y="16" width="1" height="1" fill="#231f20"/>
    <rect x="32" y="16" width="1" height="1" fill="#231f20"/>
    <rect x="63" y="16" width="1" height="1" fill="#231f20"/>
    <rect x="0" y="17" width="1" height="1" fill="#231f20"/>
    <rect x="12" y="17" width="3" height="1" fill="#231f20"/>
    <rect x="33" y="17" width="1" height="1" fill="#231f20"/>
    <rect x="63" y="17" width="1" height="1" fill="#231f20"/>
    <rect x="0" y="18" width="1" height="1" fill="#231f20"/>
    <rect x="12" y="18" width="3" height="1" fill="#231f20"/>
    <rect x="34" y="18" width="1" height="1" fill="#231f20"/>
    <rect x="63" y="18" width="1" height="1" fill="#231f20"/>
    <rect x="0" y="19" width="1" height="1" fill="#231f20"/>
    <rect x="13" y="19" width="2" height="1" fill="#231f20"/>
    <rect x="34" y="19" width="1" height="1" fill="#231f20"/>
    <rect x="63" y="19" width="1" height="1" fill="#231f20"/>
    <rect x="0" y="20" width="1" height="1" fill="#231f20"/>
    <rect x="35" y="20" width="1" height="1" fill="#231f20"/>
    <rect x="63" y="20" width="1" height="1" fill="#231f20"/>
    <rect x="0" y="21" width="1" height="1" fill="#231f20"/>
    <rect x="63" y="21" width="1" height="1" fill="#231f20"/>
    <rect x="0" y="22" width="1" height="1" fill="#231f20"/>
    <rect x="63" y="22" width="1" height="1" fill="#231f20"/>
    <rect x="0" y="23" width="1" height="1" fill="#231f20"/>
    <rect x="63" y="23" width="1" height="1" fill="#231f20"/>
    <rect x="0" y="24" width="1" height="1" fill="#231f20"/>
    <rect x="63" y="24" width="1" height="1" fill="#231f20"/>
    <rect x="0" y="25" width="64" height="1" fill="#231f20"/>
    <rect x="0" y="26" width="1" height="1" fill="#231f20"/>
    <rect x="63" y="26" width="1" height="1" fill="#231f20"/>
    <rect x="0" y="27" width="1" height="1" fill="#231f20"/>
    <rect x="63" y="27" width="1" height="1" fill="#231f20"/>
    <rect x="0" y="28" width="1" height="1" fill="#231f20"/>
    <rect x="63" y="28" width="1" height="1" fill="#231f20"/>
    <rect x="0" y="29" width="1" height="1" fill="#231f20"/>
    <rect x="63" y="29" width="1" height="1" fill="#231f20"/>
    <rect x="0" y="30" width="1" height="1" fill="#231f20"/>
    <rect x="63" y="30" width="1" height="1" fill="#231f20"/>
    <rect x="0" y="31" width="1" height="1" fill="#231f20"/>
    <rect x="63" y="31" width="1" height="1" fill="#231f20"/>
    <rect x="0" y="32" width="1" height="1" fill="#231f20"/>
    <rect x="35" y="32" width="1" height="1" fill="#231f20"/>
    <rect x="50" y="32" width="3" height="1" fill="#231f20"/>
    <rect x="63" y="32" width="1" height="1" fill="#231f20"/>
    <rect x="0" y="33" width="1" height="1" fill="#231f20"/>
    <rect x="34" y="33" width="1" height="1" fill="#231f20"/>
    <rect x="50" y="33" width="3" height="1" fill="#231f20"/>
    <rect x="63" y="33" width="1" height="1" fill="#231f20"/>
    <rect x="0" y="34" width="1" height="1" fill="#231f20"/>
    <rect x="33" y="34" width="1" height="1" fill="#231f20"/>
    <rect x="51" y="34" width="1" height="1" fill="#231f20"/>
    <rect x="63" y="34" width="1" height="1" fill="#231f20"/>
    <rect x="0" y="35" width="1" height="1" fill="#231f20"/>
    <rect x="32" y="35" width="1" height="1" fill="#231f20"/>
    <rect x="63" y="35" width="1" height="1" fill="#231f20"/>
    <rect x="0" y="36" width="1" height="1" fill="#231f20"/>
    <rect x="32" y="36" width="1" height="1" fill="#231f20"/>
    <rect x="63" y="36" width="1" height="1" fill="#231f20"/>
    <rect x="0" y="37" width="1" height="1" fill="#231f20"/>
    <rect x="31" y="37" width="1" height="1" fill="#231f20"/>
    <rect x="46" y="37" width="2" height="1" fill="#231f20"/>
    <rect x="55" y="37" width="3" height="1" fill="#231f20"/>
    <rect x="63" y="37" width="1" height="1" fill="#231f20"/>
    <rect x="0" y="38" width="1" height="1" fill="#231f20"/>
    <rect x="9" y="38" width="10" height="1" fill="#231f20"/>
    <rect x="30" y="38" width="1" height="1" fill="#231f20"/>
    <rect x="45" y="38" width="3" height="1" fill="#231f20"/>
    <rect x="55" y="38" width="3" height="1" fill="#231f20"/>
    <rect x="63" y="38" width="1" height="1" fill="#231f20"/>
    <rect x="0" y="39" width="1" height="1" fill="#231f20"/>
    <rect x="31" y="39" width="1" height="1" fill="#231f20"/>
    <rect x="46" y="39" width="2" height="1" fill="#231f20"/>
    <rect x="55" y="39" width="2" height="1" fill="#231f20"/>
    <rect x="63" y="39" width="1" height="1" fill="#231f20"/>
    <rect x="0" y="40" width="1" height="1" fill="#231f20"/>
    <rect x="31" y="40" width="1" height="1" fill="#231f20"/>
    <rect x="63" y="40" width="1" height="1" fill="#231f20"/>
    <rect x="0" y="41" width="1" height="1" fill="#231f20"/>
    <rect x="32" y="41" width="1" height="1" fill="#231f20"/>
    <rect x="63" y="41" width="1" height="1" fill="#231f20"/>
    <rect x="0" y="42" width="1" height="1" fill="#231f20"/>
    <rect x="33" y="42" width="1" height="1" fill="#231f20"/>
    <rect x="51" y="42" width="2" height="1" fill="#231f20"/>
    <rect x="63" y="42" width="1" height="1" fill="#231f20"/>
    <rect x="0" y="43" width="1" height="1" fill="#231f20"/>
    <rect x="34" y="43" width="1" height="1" fill="#231f20"/>
    <rect x="50" y="43" width="3" height="1" fill="#231f20"/>
    <rect x="63" y="43" width="1" height="1" fill="#231f20"/>
    <rect x="0" y="44" width="1" height="1" fill="#231f20"/>
    <rect x="34" y="44" width="1" height="1" fill="#231f20"/>
    <rect x="50" y="44" width="3" height="1" fill="#231f20"/>
    <rect x="63" y="44" width="1" height="1" fill="#231f20"/>
    <rect x="0" y="45" width="1" height="1" fill="#231f20"/>
    <rect x="35" y="45" width="1" height="1" fill="#231f20"/>
    <rect x="63" y="45" width="1" height="1" fill="#231f20"/>
    <rect x="0" y="46" width="1" height="1" fill="#231f20"/>
    <rect x="63" y="46" width="1" height="1" fill="#231f20"/>
    <rect x="0" y="47" width="1" height="1" fill="#231f20"/>
    <rect x="63" y="47" width="1" height="1" fill="#231f20"/>
    <rect x="0" y="48" width="1" height="1" fill="#231f20"/>
    <rect x="63" y="48" width="1" height="1" fill="#231f20"/>
    <rect x="0" y="49" width="1" height="1" fill="#231f20"/>
    <rect x="63" y="49" width="1" height="1" fill="#231f20"/>
    <rect x="0" y="50" width="1" height="1" fill="#231f20"/>
    <rect x="63" y="50" width="1" height="1" fill="#231f20"/>
    <rect x="0" y="51" width="64" height="1" fill="#231f20"/>
    <rect x="0" y="52" width="1" height="1" fill="#231f20"/>
    <rect x="63" y="52" width="1" height="1" fill="#231f20"/>
    <rect x="0" y="53" width="1" height="1" fill="#231f20"/>
    <rect x="63" y="53" width="1" height="1" fill="#231f20"/>
    <rect x="0" y="54" width="1" height="1" fill="#231f20"/>
    <rect x="63" y="54" width="1" height="1" fill="#231f20"/>
    <rect x="0" y="55" width="1" height="1" fill="#231f20"/>
    <rect x="63" y="55" width="1" height="1" fill="#231f20"/>
    <rect x="0" y="56" width="1" height="1" fill="#231f20"/>
    <rect x="63" y="56" width="1" height="1" fill="#231f20"/>
    <rect x="0" y="57" width="1" height="1" fill="#231f20"/>
    <rect x="12" y="57" width="3" height="1" fill="#231f20"/>
    <rect x="35" y="57" width="1" height="1" fill="#231f20"/>
    <rect x="63" y="57" width="1" height="1" fill="#231f20"/>
    <rect x="0" y="58" width="1" height="1" fill="#231f20"/>
    <rect x="12" y="58" width="3" height="1" fill="#231f20"/>
    <rect x="34" y="58" width="1" height="1" fill="#231f20"/>
    <rect x="63" y="58" width="1" height="1" fill="#231f20"/>
    <rect x="0" y="59" width="1" height="1" fill="#231f20"/>
    <rect x="13" y="59" width="2" height="1" fill="#231f20"/>
    <rect x="34" y="59" width="1" height="1" fill="#231f20"/>
    <rect x="63" y="59" width="1" height="1" fill="#231f20"/>
    <rect x="0" y="60" width="1" height="1" fill="#231f20"/>
    <rect x="33" y="60" width="1" height="1" fill="#231f20"/>
    <rect x="63" y="60" width="1" height="1" fill="#231f20"/>
    <rect x="0" y="61" width="1" height="1" fill="#231f20"/>
    <rect x="32" y="61" width="1" height="1" fill="#231f20"/>
    <rect x="63" y="61" width="1" height="1" fill="#231f20"/>
    <rect x="0" y="62" width="1" height="1" fill="#231f20"/>
    <rect x="8" y="62" width="2" height="1" fill="#231f20"/>
    <rect x="18" y="62" width="2" height="1" fill="#231f20"/>
    <rect x="31" y="62" width="1" height="1" fill="#231f20"/>
    <rect x="63" y="62" width="1" height="1" fill="#231f20"/>
    <rect x="0" y="63" width="1" height="1" fill="#231f20"/>
    <rect x="8" y="63" width="3" height="1" fill="#231f20"/>
    <rect x="17" y="63" width="3" height="1" fill="#231f20"/>
    <rect x="31" y="63" width="1" height="1" fill="#231f20"/>
    <rect x="46" y="63" width="11" height="1" fill="#231f20"/>
    <rect x="63" y="63" width="1" height="1" fill="#231f20"/>
    <rect x="0" y="64" width="1" height="1" fill="#231f20"/>
    <rect x="8" y="64" width="2" height="1" fill="#231f20"/>
    <rect x="17" y="64" width="3" height="1" fill="#231f20"/>
    <rect x="30" y="64" width="1" height="1" fill="#231f20"/>
    <rect x="63" y="64" width="1" height="1" fill="#231f20"/>
    <rect x="0" y="65" width="1" height="1" fill="#231f20"/>
    <rect x="31" y="65" width="1" height="1" fill="#231f20"/>
    <rect x="63" y="65" width="1" height="1" fill="#231f20"/>
    <rect x="0" y="66" width="1" height="1" fill="#231f20"/>
    <rect x="32" y="66" width="1" height="1" fill="#231f20"/>
    <rect x="63" y="66" width="1" height="1" fill="#231f20"/>
    <rect x="0" y="67" width="1" height="1" fill="#231f20"/>
    <rect x="13" y="67" width="2" height="1" fill="#231f20"/>
    <rect x="32" y="67" width="1" height="1" fill="#231f20"/>
    <rect x="63" y="67" width="1" height="1" fill="#231f20"/>
    <rect x="0" y="68" width="1" height="1" fill="#231f20"/>
    <rect x="12" y="68" width="3" height="1" fill="#231f20"/>
    <rect x="33" y="68" width="1" height="1" fill="#231f20"/>
    <rect x="63" y="68" width="1" height="1" fill="#231f20"/>
    <rect x="0" y="69" width="1" height="1" fill="#231f20"/>
    <rect x="12" y="69" width="3" height="1" fill="#231f20"/>
    <rect x="34" y="69" width="1" height="1" fill="#231f20"/>
    <rect x="63" y="69" width="1" height="1" fill="#231f20"/>
    <rect x="0" y="70" width="1" height="1" fill="#231f20"/>
    <rect x="35" y="70" width="1" height="1" fill="#231f20"/>
    <rect x="63" y="70" width="1" height="1" fill="#231f20"/>
    <rect x="0" y="71" width="1" height="1" fill="#231f20"/>
    <rect x="63" y="71" width="1" height="1" fill="#231f20"/>
    <rect x="0" y="72" width="1" height="1" fill="#231f20"/>
    <rect x="63" y="72" width="1" height="1" fill="#231f20"/>
    <rect x="0" y="73" width="1" height="1" fill="#231f20"/>
    <rect x="63" y="73" width="1" height="1" fill="#231f20"/>
    <rect x="0" y="74" width="1" height="1" fill="#231f20"/>
    <rect x="63" y="74" width="1" height="1" fill="#231f20"/>
    <rect x="0" y="75" width="1" height="1" fill="#231f20"/>
    <rect x="63" y="75" width="1" height="1" fill="#231f20"/>
    <rect x="0" y="76" width="64" height="1" fill="#231f20"/>
  </g>
</svg>