<?xml version="1.0" encoding="UTF-8"?>
<svg xmlns="http://www.w3.org/2000/svg" viewBox="0 0 158 66" width="158" height="66">
  <!-- Auto-converted from legend-2478.png -->
  <rect x="0" y="0" width="158" height="66" fill="none"/>
  <g fill="#000000" stroke="none">
    <rect x="2" y="2" width="154" height="1" fill="#000000"/>
    <rect x="2" y="3" width="1" height="1" fill="#000000"/>
    <rect x="155" y="3" width="1" height="1" fill="#000000"/>
    <rect x="2" y="4" width="1" height="1" fill="#000000"/>
    <rect x="155" y="4" width="1" height="1" fill="#000000"/>
    <rect x="2" y="5" width="1" height="1" fill="#000000"/>
    <rect x="155" y="5" width="1" height="1" fill="#000000"/>
    <rect x="2" y="6" width="1" height="1" fill="#000000"/>
    <rect x="155" y="6" width="1" height="1" fill="#000000"/>
    <rect x="2" y="7" width="1" height="1" fill="#000000"/>
    <rect x="155" y="7" width="1" height="1" fill="#000000"/>
    <rect x="2" y="8" width="1" height="1" fill="#000000"/>
    <rect x="155" y="8" width="1" height="1" fill="#000000"/>
    <rect x="2" y="9" width="1" height="1" fill="#000000"/>
    <rect x="155" y="9" width="1" height="1" fill="#000000"/>
    <rect x="2" y="10" width="1" height="1" fill="#000000"/>
    <rect x="155" y="10" width="1" height="1" fill="#000000"/>
    <rect x="2" y="11" width="1" height="1" fill="#000000"/>
    <rect x="155" y="11" width="1" height="1" fill="#000000"/>
    <rect x="2" y="12" width="1" height="1" fill="#000000"/>
    <rect x="155" y="12" width="1" height="1" fill="#000000"/>
    <rect x="2" y="13" width="1" height="1" fill="#000000"/>
    <rect x="155" y="13" width="1" height="1" fill="#000000"/>
    <rect x="2" y="14" width="1" height="1" fill="#000000"/>
    <rect x="155" y="14" width="1" height="1" fill="#000000"/>
    <rect x="2" y="15" width="1" height="1" fill="#000000"/>
    <rect x="155" y="15" width="1" height="1" fill="#000000"/>
    <rect x="2" y="16" width="1" height="1" fill="#000000"/>
    <rect x="155" y="16" width="1" height="1" fill="#000000"/>
    <rect x="2" y="17" width="1" height="1" fill="#000000"/>
    <rect x="155" y="17" width="1" height="1" fill="#000000"/>
    <rect x="2" y="18" width="1" height="1" fill="#000000"/>
    <rect x="155" y="18" width="1" height="1" fill="#000000"/>
    <rect x="2" y="19" width="1" height="1" fill="#000000"/>
    <rect x="155" y="19" width="1" height="1" fill="#000000"/>
    <rect x="2" y="20" width="1" height="1" fill="#000000"/>
    <rect x="66" y="20" width="11" height="1" fill="#000000"/>
    <rect x="155" y="20" width="1" height="1" fill="#000000"/>
    <rect x="2" y="21" width="1" height="1" fill="#000000"/>
    <rect x="69" y="21" width="5" height="1" fill="#000000"/>
    <rect x="155" y="21" width="1" height="1" fill="#000000"/>
    <rect x="2" y="22" width="1" height="1" fill="#000000"/>
    <rect x="70" y="22" width="3" height="1" fill="#000000"/>
    <rect x="155" y="22" width="1" height="1" fill="#000000"/>
    <rect x="2" y="23" width="1" height="1" fill="#000000"/>
    <rect x="70" y="23" width="3" height="1" fill="#000000"/>
    <rect x="155" y="23" width="1" height="1" fill="#000000"/>
    <rect x="2" y="24" width="1" height="1" fill="#000000"/>
    <rect x="70" y="24" width="3" height="1" fill="#000000"/>
    <rect x="155" y="24" width="1" height="1" fill="#000000"/>
    <rect x="2" y="25" width="1" height="1" fill="#000000"/>
    <rect x="70" y="25" width="3" height="1" fill="#000000"/>
    <rect x="155" y="25" width="1" height="1" fill="#000000"/>
    <rect x="2" y="26" width="1" height="1" fill="#000000"/>
    <rect x="70" y="26" width="3" height="1" fill="#000000"/>
    <rect x="155" y="26" width="1" height="1" fill="#000000"/>
    <rect x="2" y="27" width="1" height="1" fill="#000000"/>
    <rect x="70" y="27" width="3" height="1" fill="#000000"/>
    <rect x="155" y="27" width="1" height="1" fill="#000000"/>
    <rect x="2" y="28" width="1" height="1" fill="#000000"/>
    <rect x="70" y="28" width="3" height="1" fill="#000000"/>
    <rect x="76" y="28" width="7" height="1" fill="#000000"/>
    <rect x="87" y="28" width="6" height="1" fill="#000000"/>
    <rect x="155" y="28" width="1" height="1" fill="#000000"/>
    <rect x="2" y="29" width="1" height="1" fill="#000000"/>
    <rect x="70" y="29" width="3" height="1" fill="#000000"/>
    <rect x="78" y="29" width="4" height="1" fill="#000000"/>
    <rect x="89" y="29" width="2" height="1" fill="#000000"/>
    <rect x="155" y="29" width="1" height="1" fill="#000000"/>
    <rect x="2" y="30" width="1" height="1" fill="#000000"/>
    <rect x="70" y="30" width="3" height="1" fill="#000000"/>
    <rect x="79" y="30" width="3" height="1" fill="#000000"/>
    <rect x="89" y="30" width="1" height="1" fill="#000000"/>
    <rect x="155" y="30" width="1" height="1" fill="#000000"/>
    <rect x="2" y="31" width="1" height="1" fill="#000000"/>
    <rect x="70" y="31" width="3" height="1" fill="#000000"/>
    <rect x="80" y="31" width="3" height="1" fill="#000000"/>
    <rect x="88" y="31" width="1" height="1" fill="#000000"/>
    <rect x="155" y="31" width="1" height="1" fill="#000000"/>
    <rect x="2" y="32" width="1" height="1" fill="#000000"/>
    <rect x="70" y="32" width="3" height="1" fill="#000000"/>
    <rect x="80" y="32" width="4" height="1" fill="#000000"/>
    <rect x="87" y="32" width="1" height="1" fill="#000000"/>
    <rect x="155" y="32" width="1" height="1" fill="#000000"/>
    <rect x="2" y="33" width="1" height="1" fill="#000000"/>
    <rect x="70" y="33" width="3" height="1" fill="#000000"/>
    <rect x="81" y="33" width="4" height="1" fill="#000000"/>
    <rect x="86" y="33" width="1" height="1" fill="#000000"/>
    <rect x="155" y="33" width="1" height="1" fill="#000000"/>
    <rect x="2" y="34" width="1" height="1" fill="#000000"/>
    <rect x="70" y="34" width="3" height="1" fill="#000000"/>
    <rect x="82" y="34" width="4" height="1" fill="#000000"/>
    <rect x="155" y="34" width="1" height="1" fill="#000000"/>
    <rect x="2" y="35" width="1" height="1" fill="#000000"/>
    <rect x="70" y="35" width="3" height="1" fill="#000000"/>
    <rect x="83" y="35" width="3" height="1" fill="#000000"/>
    <rect x="155" y="35" width="1" height="1" fill="#000000"/>
    <rect x="2" y="36" width="1" height="1" fill="#000000"/>
    <rect x="70" y="36" width="3" height="1" fill="#000000"/>
    <rect x="83" y="36" width="4" height="1" fill="#000000"/>
    <rect x="155" y="36" width="1" height="1" fill="#000000"/>
    <rect x="2" y="37" width="1" height="1" fill="#000000"/>
    <rect x="70" y="37" width="3" height="1" fill="#000000"/>
    <rect x="83" y="37" width="5" height="1" fill="#000000"/>
    <rect x="155" y="37" width="1" height="1" fill="#000000"/>
    <rect x="2" y="38" width="1" height="1" fill="#000000"/>
    <rect x="70" y="38" width="3" height="1" fill="#000000"/>
    <rect x="82" y="38" width="1" height="1" fill="#000000"/>
    <rect x="85" y="38" width="3" height="1" fill="#000000"/>
    <rect x="155" y="38" width="1" height="1" fill="#000000"/>
    <rect x="2" y="39" width="1" height="1" fill="#000000"/>
    <rect x="70" y="39" width="3" height="1" fill="#000000"/>
    <rect x="81" y="39" width="1" height="1" fill="#000000"/>
    <rect x="85" y="39" width="4" height="1" fill="#000000"/>
    <rect x="155" y="39" width="1" height="1" fill="#000000"/>
    <rect x="2" y="40" width="1" height="1" fill="#000000"/>
    <rect x="64" y="40" width="2" height="1" fill="#000000"/>
    <rect x="70" y="40" width="2" height="1" fill="#000000"/>
    <rect x="80" y="40" width="1" height="1" fill="#000000"/>
    <rect x="86" y="40" width="4" height="1" fill="#000000"/>
    <rect x="155" y="40" width="1" height="1" fill="#000000"/>
    <rect x="2" y="41" width="1" height="1" fill="#000000"/>
    <rect x="63" y="41" width="4" height="1" fill="#000000"/>
    <rect x="70" y="41" width="2" height="1" fill="#000000"/>
    <rect x="80" y="41" width="1" height="1" fill="#000000"/>
    <rect x="87" y="41" width="3" height="1" fill="#000000"/>
    <rect x="155" y="41" width="1" height="1" fill="#000000"/>
    <rect x="2" y="42" width="1" height="1" fill="#000000"/>
    <rect x="63" y="42" width="4" height="1" fill="#000000"/>
    <rect x="70" y="42" width="1" height="1" fill="#000000"/>
    <rect x="79" y="42" width="1" height="1" fill="#000000"/>
    <rect x="88" y="42" width="3" height="1" fill="#000000"/>
    <rect x="155" y="42" width="1" height="1" fill="#000000"/>
    <rect x="2" y="43" width="1" height="1" fill="#000000"/>
    <rect x="63" y="43" width="5" height="1" fill="#000000"/>
    <rect x="69" y="43" width="2" height="1" fill="#000000"/>
    <rect x="78" y="43" width="2" height="1" fill="#000000"/>
    <rect x="88" y="43" width="4" height="1" fill="#000000"/>
    <rect x="155" y="43" width="1" height="1" fill="#000000"/>
    <rect x="2" y="44" width="1" height="1" fill="#000000"/>
    <rect x="65" y="44" width="4" height="1" fill="#000000"/>
    <rect x="77" y="44" width="5" height="1" fill="#000000"/>
    <rect x="86" y="44" width="8" height="1" fill="#000000"/>
    <rect x="155" y="44" width="1" height="1" fill="#000000"/>
    <rect x="2" y="45" width="1" height="1" fill="#000000"/>
    <rect x="155" y="45" width="1" height="1" fill="#000000"/>
    <rect x="2" y="46" width="1" height="1" fill="#000000"/>
    <rect x="155" y="46" width="1" height="1" fill="#000000"/>
    <rect x="2" y="47" width="1" height="1" fill="#000000"/>
    <rect x="155" y="47" width="1" height="1" fill="#000000"/>
    <rect x="2" y="48" width="1" height="1" fill="#000000"/>
    <rect x="155" y="48" width="1" height="1" fill="#000000"/>
    <rect x="2" y="49" width="1" height="1" fill="#000000"/>
    <rect x="155" y="49" width="1" height="1" fill="#000000"/>
    <rect x="2" y="50" width="1" height="1" fill="#000000"/>
    <rect x="155" y="50" width="1" height="1" fill="#000000"/>
    <rect x="2" y="51" width="1" height="1" fill="#000000"/>
    <rect x="155" y="51" width="1" height="1" fill="#000000"/>
    <rect x="2" y="52" width="1" height="1" fill="#000000"/>
    <rect x="155" y="52" width="1" height="1" fill="#000000"/>
    <rect x="2" y="53" width="1" height="1" fill="#000000"/>
    <rect x="155" y="53" width="1" height="1" fill="#000000"/>
    <rect x="2" y="54" width="1" height="1" fill="#000000"/>
    <rect x="155" y="54" width="1" height="1" fill="#000000"/>
    <rect x="2" y="55" width="1" height="1" fill="#000000"/>
    <rect x="155" y="55" width="1" height="1" fill="#000000"/>
    <rect x="2" y="56" width="1" height="1" fill="#000000"/>
    <rect x="155" y="56" width="1" height="1" fill="#000000"/>
    <rect x="2" y="57" width="1" height="1" fill="#000000"/>
    <rect x="155" y="57" width="1" height="1" fill="#000000"/>
    <rect x="2" y="58" width="1" height="1" fill="#000000"/>
    <rect x="155" y="58" width="1" height="1" fill="#000000"/>
    <rect x="2" y="59" width="1" height="1" fill="#000000"/>
    <rect x="155" y="59" width="1" height="1" fill="#000000"/>
    <rect x="2" y="60" width="1" height="1" fill="#000000"/>
    <rect x="155" y="60" width="1" height="1" fill="#000000"/>
    <rect x="2" y="61" width="1" height="1" fill="#000000"/>
    <rect x="155" y="61" width="1" height="1" fill="#000000"/>
    <rect x="2" y="62" width="154" height="1" fill="#000000"/>
  </g>
</svg>