<?xml version="1.0" encoding="UTF-8"?>
<svg xmlns="http://www.w3.org/2000/svg" viewBox="0 0 240 96" width="240" height="96">
  <!-- Auto-converted from legend-1002.png -->
  <rect x="0" y="0" width="240" height="96" fill="none"/>
  <g fill="#231f20" stroke="none">
    <rect x="0" y="0" width="240" height="1" fill="#231f20"/>
    <rect x="0" y="1" width="1" height="1" fill="#231f20"/>
    <rect x="239" y="1" width="1" height="1" fill="#231f20"/>
    <rect x="0" y="2" width="1" height="1" fill="#231f20"/>
    <rect x="239" y="2" width="1" height="1" fill="#231f20"/>
    <rect x="0" y="3" width="1" height="1" fill="#231f20"/>
    <rect x="239" y="3" width="1" height="1" fill="#231f20"/>
    <rect x="0" y="4" width="1" height="1" fill="#231f20"/>
    <rect x="239" y="4" width="1" height="1" fill="#231f20"/>
    <rect x="0" y="5" width="1" height="1" fill="#231f20"/>
    <rect x="239" y="5" width="1" height="1" fill="#231f20"/>
    <rect x="0" y="6" width="1" height="1" fill="#231f20"/>
    <rect x="239" y="6" width="1" height="1" fill="#231f20"/>
    <rect x="0" y="7" width="1" height="1" fill="#231f20"/>
    <rect x="239" y="7" width="1" height="1" fill="#231f20"/>
    <rect x="0" y="8" width="1" height="1" fill="#231f20"/>
    <rect x="239" y="8" width="1" height="1" fill="#231f20"/>
    <rect x="0" y="9" width="1" height="1" fill="#231f20"/>
    <rect x="239" y="9" width="1" height="1" fill="#231f20"/>
    <rect x="0" y="10" width="1" height="1" fill="#231f20"/>
    <rect x="239" y="10" width="1" height="1" fill="#231f20"/>
    <rect x="0" y="11" width="1" height="1" fill="#231f20"/>
    <rect x="239" y="11" width="1" height="1" fill="#231f20"/>
    <rect x="0" y="12" width="1" height="1" fill="#231f20"/>
    <rect x="90" y="12" width="4" height="1" fill="#231f20"/>
    <rect x="99" y="12" width="3" height="1" fill="#231f20"/>
    <rect x="154" y="12" width="3" height="1" fill="#231f20"/>
    <rect x="162" y="12" width="3" height="1" fill="#231f20"/>
    <rect x="239" y="12" width="1" height="1" fill="#231f20"/>
    <rect x="0" y="13" width="1" height="1" fill="#231f20"/>
    <rect x="89" y="13" width="2" height="1" fill="#231f20"/>
    <rect x="93" y="13" width="2" height="1" fill="#231f20"/>
    <rect x="97" y="13" width="2" height="1" fill="#231f20"/>
    <rect x="101" y="13" width="2" height="1" fill="#231f20"/>
    <rect x="153" y="13" width="2" height="1" fill="#231f20"/>
    <rect x="157" y="13" width="2" height="1" fill="#231f20"/>
    <rect x="161" y="13" width="2" height="1" fill="#231f20"/>
    <rect x="165" y="13" width="2" height="1" fill="#231f20"/>
    <rect x="239" y="13" width="1" height="1" fill="#231f20"/>
    <rect x="0" y="14" width="1" height="1" fill="#231f20"/>
    <rect x="89" y="14" width="1" height="1" fill="#231f20"/>
    <rect x="94" y="14" width="1" height="1" fill="#231f20"/>
    <rect x="97" y="14" width="1" height="1" fill="#231f20"/>
    <rect x="102" y="14" width="2" height="1" fill="#231f20"/>
    <rect x="152" y="14" width="2" height="1" fill="#231f20"/>
    <rect x="158" y="14" width="1" height="1" fill="#231f20"/>
    <rect x="160" y="14" width="2" height="1" fill="#231f20"/>
    <rect x="166" y="14" width="1" height="1" fill="#231f20"/>
    <rect x="239" y="14" width="1" height="1" fill="#231f20"/>
    <rect x="0" y="15" width="1" height="1" fill="#231f20"/>
    <rect x="88" y="15" width="1" height="1" fill="#231f20"/>
    <rect x="95" y="15" width="3" height="1" fill="#231f20"/>
    <rect x="103" y="15" width="1" height="1" fill="#231f20"/>
    <rect x="152" y="15" width="1" height="1" fill="#231f20"/>
    <rect x="158" y="15" width="3" height="1" fill="#231f20"/>
    <rect x="166" y="15" width="1" height="1" fill="#231f20"/>
    <rect x="239" y="15" width="1" height="1" fill="#231f20"/>
    <rect x="0" y="16" width="1" height="1" fill="#231f20"/>
    <rect x="24" y="16" width="7" height="1" fill="#231f20"/>
    <rect x="88" y="16" width="1" height="1" fill="#231f20"/>
    <rect x="95" y="16" width="1" height="1" fill="#231f20"/>
    <rect x="97" y="16" width="1" height="1" fill="#231f20"/>
    <rect x="103" y="16" width="1" height="1" fill="#231f20"/>
    <rect x="152" y="16" width="1" height="1" fill="#231f20"/>
    <rect x="158" y="16" width="1" height="1" fill="#231f20"/>
    <rect x="160" y="16" width="1" height="1" fill="#231f20"/>
    <rect x="166" y="16" width="1" height="1" fill="#231f20"/>
    <rect x="239" y="16" width="1" height="1" fill="#231f20"/>
    <rect x="0" y="17" width="1" height="1" fill="#231f20"/>
    <rect x="89" y="17" width="1" height="1" fill="#231f20"/>
    <rect x="94" y="17" width="1" height="1" fill="#231f20"/>
    <rect x="97" y="17" width="1" height="1" fill="#231f20"/>
    <rect x="102" y="17" width="2" height="1" fill="#231f20"/>
    <rect x="152" y="17" width="2" height="1" fill="#231f20"/>
    <rect x="158" y="17" width="1" height="1" fill="#231f20"/>
    <rect x="160" y="17" width="2" height="1" fill="#231f20"/>
    <rect x="166" y="17" width="1" height="1" fill="#231f20"/>
    <rect x="239" y="17" width="1" height="1" fill="#231f20"/>
    <rect x="0" y="18" width="1" height="1" fill="#231f20"/>
    <rect x="89" y="18" width="2" height="1" fill="#231f20"/>
    <rect x="93" y="18" width="2" height="1" fill="#231f20"/>
    <rect x="97" y="18" width="3" height="1" fill="#231f20"/>
    <rect x="101" y="18" width="2" height="1" fill="#231f20"/>
    <rect x="153" y="18" width="2" height="1" fill="#231f20"/>
    <rect x="156" y="18" width="3" height="1" fill="#231f20"/>
    <rect x="161" y="18" width="2" height="1" fill="#231f20"/>
    <rect x="164" y="18" width="3" height="1" fill="#231f20"/>
    <rect x="239" y="18" width="1" height="1" fill="#231f20"/>
    <rect x="0" y="19" width="1" height="1" fill="#231f20"/>
    <rect x="91" y="19" width="2" height="1" fill="#231f20"/>
    <rect x="99" y="19" width="2" height="1" fill="#231f20"/>
    <rect x="155" y="19" width="2" height="1" fill="#231f20"/>
    <rect x="163" y="19" width="2" height="1" fill="#231f20"/>
    <rect x="239" y="19" width="1" height="1" fill="#231f20"/>
    <rect x="0" y="20" width="1" height="1" fill="#231f20"/>
    <rect x="239" y="20" width="1" height="1" fill="#231f20"/>
    <rect x="0" y="21" width="1" height="1" fill="#231f20"/>
    <rect x="239" y="21" width="1" height="1" fill="#231f20"/>
    <rect x="0" y="22" width="1" height="1" fill="#231f20"/>
    <rect x="239" y="22" width="1" height="1" fill="#231f20"/>
    <rect x="0" y="23" width="1" height="1" fill="#231f20"/>
    <rect x="239" y="23" width="1" height="1" fill="#231f20"/>
    <rect x="0" y="24" width="1" height="1" fill="#231f20"/>
    <rect x="239" y="24" width="1" height="1" fill="#231f20"/>
    <rect x="0" y="25" width="1" height="1" fill="#231f20"/>
    <rect x="239" y="25" width="1" height="1" fill="#231f20"/>
    <rect x="0" y="26" width="1" height="1" fill="#231f20"/>
    <rect x="239" y="26" width="1" height="1" fill="#231f20"/>
    <rect x="0" y="27" width="1" height="1" fill="#231f20"/>
    <rect x="239" y="27" width="1" height="1" fill="#231f20"/>
    <rect x="0" y="28" width="1" height="1" fill="#231f20"/>
    <rect x="239" y="28" width="1" height="1" fill="#231f20"/>
    <rect x="0" y="29" width="1" height="1" fill="#231f20"/>
    <rect x="239" y="29" width="1" height="1" fill="#231f20"/>
    <rect x="0" y="30" width="1" height="1" fill="#231f20"/>
    <rect x="239" y="30" width="1" height="1" fill="#231f20"/>
    <rect x="0" y="31" width="240" height="1" fill="#231f20"/>
    <rect x="0" y="32" width="1" height="1" fill="#231f20"/>
    <rect x="239" y="32" width="1" height="1" fill="#231f20"/>
    <rect x="0" y="33" width="1" height="1" fill="#231f20"/>
    <rect x="239" y="33" width="1" height="1" fill="#231f20"/>
    <rect x="0" y="34" width="1" height="1" fill="#231f20"/>
    <rect x="239" y="34" width="1" height="1" fill="#231f20"/>
    <rect x="0" y="35" width="1" height="1" fill="#231f20"/>
    <rect x="239" y="35" width="1" height="1" fill="#231f20"/>
    <rect x="0" y="36" width="1" height="1" fill="#231f20"/>
    <rect x="239" y="36" width="1" height="1" fill="#231f20"/>
    <rect x="0" y="37" width="1" height="1" fill="#231f20"/>
    <rect x="239" y="37" width="1" height="1" fill="#231f20"/>
    <rect x="0" y="38" width="1" height="1" fill="#231f20"/>
    <rect x="239" y="38" width="1" height="1" fill="#231f20"/>
    <rect x="0" y="39" width="1" height="1" fill="#231f20"/>
    <rect x="239" y="39" width="1" height="1" fill="#231f20"/>
    <rect x="0" y="40" width="1" height="1" fill="#231f20"/>
    <rect x="239" y="40" width="1" height="1" fill="#231f20"/>
    <rect x="0" y="41" width="1" height="1" fill="#231f20"/>
    <rect x="239" y="41" width="1" height="1" fill="#231f20"/>
    <rect x="0" y="42" width="1" height="1" fill="#231f20"/>
    <rect x="239" y="42" width="1" height="1" fill="#231f20"/>
    <rect x="0" y="43" width="1" height="1" fill="#231f20"/>
    <rect x="239" y="43" width="1" height="1" fill="#231f20"/>
    <rect x="0" y="44" width="1" height="1" fill="#231f20"/>
    <rect x="74" y="44" width="5" height="1" fill="#231f20"/>
    <rect x="82" y="44" width="5" height="1" fill="#231f20"/>
    <rect x="141" y="44" width="5" height="1" fill="#231f20"/>
    <rect x="149" y="44" width="5" height="1" fill="#231f20"/>
    <rect x="239" y="44" width="1" height="1" fill="#231f20"/>
    <rect x="0" y="45" width="1" height="1" fill="#231f20"/>
    <rect x="73" y="45" width="2" height="1" fill="#231f20"/>
    <rect x="79" y="45" width="1" height="1" fill="#231f20"/>
    <rect x="81" y="45" width="2" height="1" fill="#231f20"/>
    <rect x="86" y="45" width="2" height="1" fill="#231f20"/>
    <rect x="140" y="45" width="2" height="1" fill="#231f20"/>
    <rect x="146" y="45" width="1" height="1" fill="#231f20"/>
    <rect x="149" y="45" width="1" height="1" fill="#231f20"/>
    <rect x="154" y="45" width="1" height="1" fill="#231f20"/>
    <rect x="239" y="45" width="1" height="1" fill="#231f20"/>
    <rect x="0" y="46" width="1" height="1" fill="#231f20"/>
    <rect x="73" y="46" width="1" height="1" fill="#231f20"/>
    <rect x="79" y="46" width="1" height="1" fill="#231f20"/>
    <rect x="81" y="46" width="1" height="1" fill="#231f20"/>
    <rect x="87" y="46" width="1" height="1" fill="#231f20"/>
    <rect x="140" y="46" width="1" height="1" fill="#231f20"/>
    <rect x="146" y="46" width="1" height="1" fill="#231f20"/>
    <rect x="148" y="46" width="1" height="1" fill="#231f20"/>
    <rect x="154" y="46" width="1" height="1" fill="#231f20"/>
    <rect x="239" y="46" width="1" height="1" fill="#231f20"/>
    <rect x="0" y="47" width="1" height="1" fill="#231f20"/>
    <rect x="73" y="47" width="1" height="1" fill="#231f20"/>
    <rect x="79" y="47" width="1" height="1" fill="#231f20"/>
    <rect x="81" y="47" width="1" height="1" fill="#231f20"/>
    <rect x="87" y="47" width="1" height="1" fill="#231f20"/>
    <rect x="140" y="47" width="1" height="1" fill="#231f20"/>
    <rect x="146" y="47" width="1" height="1" fill="#231f20"/>
    <rect x="148" y="47" width="1" height="1" fill="#231f20"/>
    <rect x="154" y="47" width="1" height="1" fill="#231f20"/>
    <rect x="209" y="47" width="7" height="1" fill="#231f20"/>
    <rect x="239" y="47" width="1" height="1" fill="#231f20"/>
    <rect x="0" y="48" width="1" height="1" fill="#231f20"/>
    <rect x="73" y="48" width="1" height="1" fill="#231f20"/>
    <rect x="79" y="48" width="1" height="1" fill="#231f20"/>
    <rect x="81" y="48" width="1" height="1" fill="#231f20"/>
    <rect x="87" y="48" width="1" height="1" fill="#231f20"/>
    <rect x="140" y="48" width="1" height="1" fill="#231f20"/>
    <rect x="146" y="48" width="1" height="1" fill="#231f20"/>
    <rect x="148" y="48" width="1" height="1" fill="#231f20"/>
    <rect x="154" y="48" width="1" height="1" fill="#231f20"/>
    <rect x="239" y="48" width="1" height="1" fill="#231f20"/>
    <rect x="0" y="49" width="1" height="1" fill="#231f20"/>
    <rect x="73" y="49" width="2" height="1" fill="#231f20"/>
    <rect x="78" y="49" width="2" height="1" fill="#231f20"/>
    <rect x="81" y="49" width="2" height="1" fill="#231f20"/>
    <rect x="86" y="49" width="2" height="1" fill="#231f20"/>
    <rect x="140" y="49" width="2" height="1" fill="#231f20"/>
    <rect x="145" y="49" width="2" height="1" fill="#231f20"/>
    <rect x="149" y="49" width="1" height="1" fill="#231f20"/>
    <rect x="153" y="49" width="2" height="1" fill="#231f20"/>
    <rect x="239" y="49" width="1" height="1" fill="#231f20"/>
    <rect x="0" y="50" width="1" height="1" fill="#231f20"/>
    <rect x="75" y="50" width="4" height="1" fill="#231f20"/>
    <rect x="82" y="50" width="5" height="1" fill="#231f20"/>
    <rect x="142" y="50" width="4" height="1" fill="#231f20"/>
    <rect x="150" y="50" width="4" height="1" fill="#231f20"/>
    <rect x="239" y="50" width="1" height="1" fill="#231f20"/>
    <rect x="0" y="51" width="1" height="1" fill="#231f20"/>
    <rect x="239" y="51" width="1" height="1" fill="#231f20"/>
    <rect x="0" y="52" width="1" height="1" fill="#231f20"/>
    <rect x="239" y="52" width="1" height="1" fill="#231f20"/>
    <rect x="0" y="53" width="1" height="1" fill="#231f20"/>
    <rect x="239" y="53" width="1" height="1" fill="#231f20"/>
    <rect x="0" y="54" width="1" height="1" fill="#231f20"/>
    <rect x="239" y="54" width="1" height="1" fill="#231f20"/>
    <rect x="0" y="55" width="1" height="1" fill="#231f20"/>
    <rect x="239" y="55" width="1" height="1" fill="#231f20"/>
    <rect x="0" y="56" width="1" height="1" fill="#231f20"/>
    <rect x="239" y="56" width="1" height="1" fill="#231f20"/>
    <rect x="0" y="57" width="1" height="1" fill="#231f20"/>
    <rect x="239" y="57" width="1" height="1" fill="#231f20"/>
    <rect x="0" y="58" width="1" height="1" fill="#231f20"/>
    <rect x="239" y="58" width="1" height="1" fill="#231f20"/>
    <rect x="0" y="59" width="1" height="1" fill="#231f20"/>
    <rect x="239" y="59" width="1" height="1" fill="#231f20"/>
    <rect x="0" y="60" width="1" height="1" fill="#231f20"/>
    <rect x="239" y="60" width="1" height="1" fill="#231f20"/>
    <rect x="0" y="61" width="1" height="1" fill="#231f20"/>
    <rect x="239" y="61" width="1" height="1" fill="#231f20"/>
    <rect x="0" y="62" width="1" height="1" fill="#231f20"/>
    <rect x="239" y="62" width="1" height="1" fill="#231f20"/>
    <rect x="0" y="63" width="240" height="1" fill="#231f20"/>
    <rect x="0" y="64" width="1" height="1" fill="#231f20"/>
    <rect x="239" y="64" width="1" height="1" fill="#231f20"/>
    <rect x="0" y="65" width="1" height="1" fill="#231f20"/>
    <rect x="239" y="65" width="1" height="1" fill="#231f20"/>
    <rect x="0" y="66" width="1" height="1" fill="#231f20"/>
    <rect x="239" y="66" width="1" height="1" fill="#231f20"/>
    <rect x="0" y="67" width="1" height="1" fill="#231f20"/>
    <rect x="239" y="67" width="1" height="1" fill="#231f20"/>
    <rect x="0" y="68" width="1" height="1" fill="#231f20"/>
    <rect x="239" y="68" width="1" height="1" fill="#231f20"/>
    <rect x="0" y="69" width="1" height="1" fill="#231f20"/>
    <rect x="239" y="69" width="1" height="1" fill="#231f20"/>
    <rect x="0" y="70" width="1" height="1" fill="#231f20"/>
    <rect x="239" y="70" width="1" height="1" fill="#231f20"/>
    <rect x="0" y="71" width="1" height="1" fill="#231f20"/>
    <rect x="239" y="71" width="1" height="1" fill="#231f20"/>
    <rect x="0" y="72" width="1" height="1" fill="#231f20"/>
    <rect x="239" y="72" width="1" height="1" fill="#231f20"/>
    <rect x="0" y="73" width="1" height="1" fill="#231f20"/>
    <rect x="239" y="73" width="1" height="1" fill="#231f20"/>
    <rect x="0" y="74" width="1" height="1" fill="#231f20"/>
    <rect x="239" y="74" width="1" height="1" fill="#231f20"/>
    <rect x="0" y="75" width="1" height="1" fill="#231f20"/>
    <rect x="239" y="75" width="1" height="1" fill="#231f20"/>
    <rect x="0" y="76" width="1" height="1" fill="#231f20"/>
    <rect x="90" y="76" width="4" height="1" fill="#231f20"/>
    <rect x="99" y="76" width="3" height="1" fill="#231f20"/>
    <rect x="154" y="76" width="3" height="1" fill="#231f20"/>
    <rect x="162" y="76" width="3" height="1" fill="#231f20"/>
    <rect x="239" y="76" width="1" height="1" fill="#231f20"/>
    <rect x="0" y="77" width="1" height="1" fill="#231f20"/>
    <rect x="89" y="77" width="2" height="1" fill="#231f20"/>
    <rect x="93" y="77" width="2" height="1" fill="#231f20"/>
    <rect x="97" y="77" width="2" height="1" fill="#231f20"/>
    <rect x="101" y="77" width="2" height="1" fill="#231f20"/>
    <rect x="153" y="77" width="2" height="1" fill="#231f20"/>
    <rect x="157" y="77" width="2" height="1" fill="#231f20"/>
    <rect x="161" y="77" width="2" height="1" fill="#231f20"/>
    <rect x="165" y="77" width="2" height="1" fill="#231f20"/>
    <rect x="239" y="77" width="1" height="1" fill="#231f20"/>
    <rect x="0" y="78" width="1" height="1" fill="#231f20"/>
    <rect x="89" y="78" width="1" height="1" fill="#231f20"/>
    <rect x="94" y="78" width="1" height="1" fill="#231f20"/>
    <rect x="97" y="78" width="1" height="1" fill="#231f20"/>
    <rect x="102" y="78" width="2" height="1" fill="#231f20"/>
    <rect x="152" y="78" width="2" height="1" fill="#231f20"/>
    <rect x="158" y="78" width="1" height="1" fill="#231f20"/>
    <rect x="160" y="78" width="2" height="1" fill="#231f20"/>
    <rect x="166" y="78" width="1" height="1" fill="#231f20"/>
    <rect x="239" y="78" width="1" height="1" fill="#231f20"/>
    <rect x="0" y="79" width="1" height="1" fill="#231f20"/>
    <rect x="24" y="79" width="7" height="1" fill="#231f20"/>
    <rect x="88" y="79" width="1" height="1" fill="#231f20"/>
    <rect x="95" y="79" width="3" height="1" fill="#231f20"/>
    <rect x="103" y="79" width="1" height="1" fill="#231f20"/>
    <rect x="152" y="79" width="1" height="1" fill="#231f20"/>
    <rect x="158" y="79" width="3" height="1" fill="#231f20"/>
    <rect x="166" y="79" width="1" height="1" fill="#231f20"/>
    <rect x="239" y="79" width="1" height="1" fill="#231f20"/>
    <rect x="0" y="80" width="1" height="1" fill="#231f20"/>
    <rect x="88" y="80" width="2" height="1" fill="#231f20"/>
    <rect x="94" y="80" width="2" height="1" fill="#231f20"/>
    <rect x="97" y="80" width="1" height="1" fill="#231f20"/>
    <rect x="103" y="80" width="1" height="1" fill="#231f20"/>
    <rect x="152" y="80" width="1" height="1" fill="#231f20"/>
    <rect x="158" y="80" width="1" height="1" fill="#231f20"/>
    <rect x="160" y="80" width="1" height="1" fill="#231f20"/>
    <rect x="166" y="80" width="1" height="1" fill="#231f20"/>
    <rect x="239" y="80" width="1" height="1" fill="#231f20"/>
    <rect x="0" y="81" width="1" height="1" fill="#231f20"/>
    <rect x="89" y="81" width="1" height="1" fill="#231f20"/>
    <rect x="94" y="81" width="1" height="1" fill="#231f20"/>
    <rect x="97" y="81" width="1" height="1" fill="#231f20"/>
    <rect x="102" y="81" width="1" height="1" fill="#231f20"/>
    <rect x="153" y="81" width="1" height="1" fill="#231f20"/>
    <rect x="158" y="81" width="1" height="1" fill="#231f20"/>
    <rect x="161" y="81" width="1" height="1" fill="#231f20"/>
    <rect x="166" y="81" width="1" height="1" fill="#231f20"/>
    <rect x="239" y="81" width="1" height="1" fill="#231f20"/>
    <rect x="0" y="82" width="1" height="1" fill="#231f20"/>
    <rect x="89" y="82" width="6" height="1" fill="#231f20"/>
    <rect x="98" y="82" width="5" height="1" fill="#231f20"/>
    <rect x="153" y="82" width="5" height="1" fill="#231f20"/>
    <rect x="161" y="82" width="5" height="1" fill="#231f20"/>
    <rect x="239" y="82" width="1" height="1" fill="#231f20"/>
    <rect x="0" y="83" width="1" height="1" fill="#231f20"/>
    <rect x="92" y="83" width="1" height="1" fill="#231f20"/>
    <rect x="100" y="83" width="1" height="1" fill="#231f20"/>
    <rect x="155" y="83" width="1" height="1" fill="#231f20"/>
    <rect x="163" y="83" width="1" height="1" fill="#231f20"/>
    <rect x="239" y="83" width="1" height="1" fill="#231f20"/>
    <rect x="0" y="84" width="1" height="1" fill="#231f20"/>
    <rect x="239" y="84" width="1" height="1" fill="#231f20"/>
    <rect x="0" y="85" width="1" height="1" fill="#231f20"/>
    <rect x="239" y="85" width="1" height="1" fill="#231f20"/>
    <rect x="0" y="86" width="1" height="1" fill="#231f20"/>
    <rect x="239" y="86" width="1" height="1" fill="#231f20"/>
    <rect x="0" y="87" width="1" height="1" fill="#231f20"/>
    <rect x="239" y="87" width="1" height="1" fill="#231f20"/>
    <rect x="0" y="88" width="1" height="1" fill="#231f20"/>
    <rect x="239" y="88" width="1" height="1" fill="#231f20"/>
    <rect x="0" y="89" width="1" height="1" fill="#231f20"/>
    <rect x="239" y="89" width="1" height="1" fill="#231f20"/>
    <rect x="0" y="90" width="1" height="1" fill="#231f20"/>
    <rect x="239" y="90" width="1" height="1" fill="#231f20"/>
    <rect x="0" y="91" width="1" height="1" fill="#231f20"/>
    <rect x="239" y="91" width="1" height="1" fill="#231f20"/>
    <rect x="0" y="92" width="1" height="1" fill="#231f20"/>
    <rect x="239" y="92" width="1" height="1" fill="#231f20"/>
    <rect x="0" y="93" width="1" height="1" fill="#231f20"/>
    <rect x="239" y="93" width="1" height="1" fill="#231f20"/>
    <rect x="0" y="94" width="1" height="1" fill="#231f20"/>
    <rect x="239" y="94" width="1" height="1" fill="#231f20"/>
    <rect x="0" y="95" width="240" height="1" fill="#231f20"/>
  </g>
</svg>