<?xml version="1.0" encoding="UTF-8"?>
<svg xmlns="http://www.w3.org/2000/svg" viewBox="0 0 154 61" width="154" height="61">
  <!-- Auto-converted from legend-1732.png -->
  <rect x="0" y="0" width="154" height="61" fill="none"/>
  <g fill="#231f20" stroke="none">
    <rect x="0" y="0" width="154" height="1" fill="#231f20"/>
    <rect x="0" y="1" width="1" height="1" fill="#231f20"/>
    <rect x="153" y="1" width="1" height="1" fill="#231f20"/>
    <rect x="0" y="2" width="1" height="1" fill="#231f20"/>
    <rect x="153" y="2" width="1" height="1" fill="#231f20"/>
    <rect x="0" y="3" width="1" height="1" fill="#231f20"/>
    <rect x="153" y="3" width="1" height="1" fill="#231f20"/>
    <rect x="0" y="4" width="1" height="1" fill="#231f20"/>
    <rect x="153" y="4" width="1" height="1" fill="#231f20"/>
    <rect x="0" y="5" width="1" height="1" fill="#231f20"/>
    <rect x="47" y="5" width="1" height="1" fill="#231f20"/>
    <rect x="50" y="5" width="1" height="1" fill="#231f20"/>
    <rect x="71" y="5" width="2" height="1" fill="#231f20"/>
    <rect x="98" y="5" width="1" height="1" fill="#231f20"/>
    <rect x="100" y="5" width="1" height="1" fill="#231f20"/>
    <rect x="125" y="5" width="1" height="1" fill="#231f20"/>
    <rect x="153" y="5" width="1" height="1" fill="#231f20"/>
    <rect x="0" y="6" width="1" height="1" fill="#231f20"/>
    <rect x="18" y="6" width="4" height="1" fill="#231f20"/>
    <rect x="47" y="6" width="1" height="1" fill="#231f20"/>
    <rect x="50" y="6" width="1" height="1" fill="#231f20"/>
    <rect x="73" y="6" width="3" height="1" fill="#231f20"/>
    <rect x="98" y="6" width="1" height="1" fill="#231f20"/>
    <rect x="100" y="6" width="1" height="1" fill="#231f20"/>
    <rect x="124" y="6" width="1" height="1" fill="#231f20"/>
    <rect x="126" y="6" width="1" height="1" fill="#231f20"/>
    <rect x="153" y="6" width="1" height="1" fill="#231f20"/>
    <rect x="0" y="7" width="1" height="1" fill="#231f20"/>
    <rect x="18" y="7" width="1" height="1" fill="#231f20"/>
    <rect x="21" y="7" width="1" height="1" fill="#231f20"/>
    <rect x="46" y="7" width="1" height="1" fill="#231f20"/>
    <rect x="51" y="7" width="1" height="1" fill="#231f20"/>
    <rect x="75" y="7" width="2" height="1" fill="#231f20"/>
    <rect x="97" y="7" width="1" height="1" fill="#231f20"/>
    <rect x="101" y="7" width="1" height="1" fill="#231f20"/>
    <rect x="124" y="7" width="1" height="1" fill="#231f20"/>
    <rect x="126" y="7" width="1" height="1" fill="#231f20"/>
    <rect x="153" y="7" width="1" height="1" fill="#231f20"/>
    <rect x="0" y="8" width="1" height="1" fill="#231f20"/>
    <rect x="17" y="8" width="1" height="1" fill="#231f20"/>
    <rect x="22" y="8" width="1" height="1" fill="#231f20"/>
    <rect x="46" y="8" width="1" height="1" fill="#231f20"/>
    <rect x="51" y="8" width="1" height="1" fill="#231f20"/>
    <rect x="76" y="8" width="1" height="1" fill="#231f20"/>
    <rect x="97" y="8" width="1" height="1" fill="#231f20"/>
    <rect x="101" y="8" width="1" height="1" fill="#231f20"/>
    <rect x="123" y="8" width="1" height="1" fill="#231f20"/>
    <rect x="127" y="8" width="1" height="1" fill="#231f20"/>
    <rect x="153" y="8" width="1" height="1" fill="#231f20"/>
    <rect x="0" y="9" width="1" height="1" fill="#231f20"/>
    <rect x="17" y="9" width="1" height="1" fill="#231f20"/>
    <rect x="23" y="9" width="1" height="1" fill="#231f20"/>
    <rect x="45" y="9" width="1" height="1" fill="#231f20"/>
    <rect x="52" y="9" width="1" height="1" fill="#231f20"/>
    <rect x="76" y="9" width="1" height="1" fill="#231f20"/>
    <rect x="96" y="9" width="1" height="1" fill="#231f20"/>
    <rect x="102" y="9" width="1" height="1" fill="#231f20"/>
    <rect x="123" y="9" width="1" height="1" fill="#231f20"/>
    <rect x="127" y="9" width="1" height="1" fill="#231f20"/>
    <rect x="153" y="9" width="1" height="1" fill="#231f20"/>
    <rect x="0" y="10" width="1" height="1" fill="#231f20"/>
    <rect x="16" y="10" width="1" height="1" fill="#231f20"/>
    <rect x="23" y="10" width="1" height="1" fill="#231f20"/>
    <rect x="31" y="10" width="1" height="1" fill="#231f20"/>
    <rect x="45" y="10" width="1" height="1" fill="#231f20"/>
    <rect x="52" y="10" width="1" height="1" fill="#231f20"/>
    <rect x="76" y="10" width="1" height="1" fill="#231f20"/>
    <rect x="96" y="10" width="1" height="1" fill="#231f20"/>
    <rect x="102" y="10" width="1" height="1" fill="#231f20"/>
    <rect x="122" y="10" width="1" height="1" fill="#231f20"/>
    <rect x="128" y="10" width="1" height="1" fill="#231f20"/>
    <rect x="153" y="10" width="1" height="1" fill="#231f20"/>
    <rect x="0" y="11" width="1" height="1" fill="#231f20"/>
    <rect x="24" y="11" width="1" height="1" fill="#231f20"/>
    <rect x="30" y="11" width="1" height="1" fill="#231f20"/>
    <rect x="45" y="11" width="1" height="1" fill="#231f20"/>
    <rect x="52" y="11" width="1" height="1" fill="#231f20"/>
    <rect x="76" y="11" width="1" height="1" fill="#231f20"/>
    <rect x="96" y="11" width="1" height="1" fill="#231f20"/>
    <rect x="102" y="11" width="1" height="1" fill="#231f20"/>
    <rect x="122" y="11" width="1" height="1" fill="#231f20"/>
    <rect x="128" y="11" width="1" height="1" fill="#231f20"/>
    <rect x="153" y="11" width="1" height="1" fill="#231f20"/>
    <rect x="0" y="12" width="1" height="1" fill="#231f20"/>
    <rect x="25" y="12" width="1" height="1" fill="#231f20"/>
    <rect x="29" y="12" width="1" height="1" fill="#231f20"/>
    <rect x="44" y="12" width="1" height="1" fill="#231f20"/>
    <rect x="53" y="12" width="1" height="1" fill="#231f20"/>
    <rect x="76" y="12" width="1" height="1" fill="#231f20"/>
    <rect x="95" y="12" width="1" height="1" fill="#231f20"/>
    <rect x="103" y="12" width="1" height="1" fill="#231f20"/>
    <rect x="121" y="12" width="1" height="1" fill="#231f20"/>
    <rect x="129" y="12" width="1" height="1" fill="#231f20"/>
    <rect x="153" y="12" width="1" height="1" fill="#231f20"/>
    <rect x="0" y="13" width="1" height="1" fill="#231f20"/>
    <rect x="25" y="13" width="5" height="1" fill="#231f20"/>
    <rect x="44" y="13" width="1" height="1" fill="#231f20"/>
    <rect x="53" y="13" width="1" height="1" fill="#231f20"/>
    <rect x="75" y="13" width="2" height="1" fill="#231f20"/>
    <rect x="95" y="13" width="1" height="1" fill="#231f20"/>
    <rect x="103" y="13" width="1" height="1" fill="#231f20"/>
    <rect x="121" y="13" width="1" height="1" fill="#231f20"/>
    <rect x="129" y="13" width="1" height="1" fill="#231f20"/>
    <rect x="153" y="13" width="1" height="1" fill="#231f20"/>
    <rect x="0" y="14" width="1" height="1" fill="#231f20"/>
    <rect x="43" y="14" width="1" height="1" fill="#231f20"/>
    <rect x="54" y="14" width="1" height="1" fill="#231f20"/>
    <rect x="72" y="14" width="3" height="1" fill="#231f20"/>
    <rect x="94" y="14" width="1" height="1" fill="#231f20"/>
    <rect x="104" y="14" width="1" height="1" fill="#231f20"/>
    <rect x="120" y="14" width="11" height="1" fill="#231f20"/>
    <rect x="153" y="14" width="1" height="1" fill="#231f20"/>
    <rect x="0" y="15" width="1" height="1" fill="#231f20"/>
    <rect x="43" y="15" width="1" height="1" fill="#231f20"/>
    <rect x="54" y="15" width="1" height="1" fill="#231f20"/>
    <rect x="71" y="15" width="1" height="1" fill="#231f20"/>
    <rect x="94" y="15" width="1" height="1" fill="#231f20"/>
    <rect x="104" y="15" width="1" height="1" fill="#231f20"/>
    <rect x="153" y="15" width="1" height="1" fill="#231f20"/>
    <rect x="0" y="16" width="1" height="1" fill="#231f20"/>
    <rect x="153" y="16" width="1" height="1" fill="#231f20"/>
    <rect x="0" y="17" width="1" height="1" fill="#231f20"/>
    <rect x="153" y="17" width="1" height="1" fill="#231f20"/>
    <rect x="0" y="18" width="1" height="1" fill="#231f20"/>
    <rect x="153" y="18" width="1" height="1" fill="#231f20"/>
    <rect x="0" y="19" width="1" height="1" fill="#231f20"/>
    <rect x="153" y="19" width="1" height="1" fill="#231f20"/>
    <rect x="0" y="20" width="154" height="1" fill="#231f20"/>
    <rect x="0" y="21" width="1" height="1" fill="#231f20"/>
    <rect x="153" y="21" width="1" height="1" fill="#231f20"/>
    <rect x="0" y="22" width="1" height="1" fill="#231f20"/>
    <rect x="153" y="22" width="1" height="1" fill="#231f20"/>
    <rect x="0" y="23" width="1" height="1" fill="#231f20"/>
    <rect x="153" y="23" width="1" height="1" fill="#231f20"/>
    <rect x="0" y="24" width="1" height="1" fill="#231f20"/>
    <rect x="153" y="24" width="1" height="1" fill="#231f20"/>
    <rect x="0" y="25" width="1" height="1" fill="#231f20"/>
    <rect x="28" y="25" width="1" height="1" fill="#231f20"/>
    <rect x="53" y="25" width="1" height="1" fill="#231f20"/>
    <rect x="55" y="25" width="1" height="1" fill="#231f20"/>
    <rect x="75" y="25" width="2" height="1" fill="#231f20"/>
    <rect x="103" y="25" width="1" height="1" fill="#231f20"/>
    <rect x="106" y="25" width="1" height="1" fill="#231f20"/>
    <rect x="153" y="25" width="1" height="1" fill="#231f20"/>
    <rect x="0" y="26" width="1" height="1" fill="#231f20"/>
    <rect x="27" y="26" width="1" height="1" fill="#231f20"/>
    <rect x="29" y="26" width="1" height="1" fill="#231f20"/>
    <rect x="53" y="26" width="1" height="1" fill="#231f20"/>
    <rect x="55" y="26" width="1" height="1" fill="#231f20"/>
    <rect x="77" y="26" width="2" height="1" fill="#231f20"/>
    <rect x="103" y="26" width="1" height="1" fill="#231f20"/>
    <rect x="106" y="26" width="1" height="1" fill="#231f20"/>
    <rect x="125" y="26" width="3" height="1" fill="#231f20"/>
    <rect x="153" y="26" width="1" height="1" fill="#231f20"/>
    <rect x="0" y="27" width="1" height="1" fill="#231f20"/>
    <rect x="27" y="27" width="1" height="1" fill="#231f20"/>
    <rect x="29" y="27" width="1" height="1" fill="#231f20"/>
    <rect x="52" y="27" width="1" height="1" fill="#231f20"/>
    <rect x="56" y="27" width="1" height="1" fill="#231f20"/>
    <rect x="78" y="27" width="2" height="1" fill="#231f20"/>
    <rect x="102" y="27" width="1" height="1" fill="#231f20"/>
    <rect x="107" y="27" width="1" height="1" fill="#231f20"/>
    <rect x="124" y="27" width="2" height="1" fill="#231f20"/>
    <rect x="127" y="27" width="2" height="1" fill="#231f20"/>
    <rect x="153" y="27" width="1" height="1" fill="#231f20"/>
    <rect x="0" y="28" width="1" height="1" fill="#231f20"/>
    <rect x="26" y="28" width="1" height="1" fill="#231f20"/>
    <rect x="30" y="28" width="1" height="1" fill="#231f20"/>
    <rect x="52" y="28" width="1" height="1" fill="#231f20"/>
    <rect x="56" y="28" width="1" height="1" fill="#231f20"/>
    <rect x="79" y="28" width="2" height="1" fill="#231f20"/>
    <rect x="102" y="28" width="1" height="1" fill="#231f20"/>
    <rect x="107" y="28" width="1" height="1" fill="#231f20"/>
    <rect x="124" y="28" width="1" height="1" fill="#231f20"/>
    <rect x="128" y="28" width="1" height="1" fill="#231f20"/>
    <rect x="153" y="28" width="1" height="1" fill="#231f20"/>
    <rect x="0" y="29" width="1" height="1" fill="#231f20"/>
    <rect x="26" y="29" width="1" height="1" fill="#231f20"/>
    <rect x="30" y="29" width="1" height="1" fill="#231f20"/>
    <rect x="51" y="29" width="1" height="1" fill="#231f20"/>
    <rect x="57" y="29" width="1" height="1" fill="#231f20"/>
    <rect x="80" y="29" width="1" height="1" fill="#231f20"/>
    <rect x="101" y="29" width="1" height="1" fill="#231f20"/>
    <rect x="108" y="29" width="1" height="1" fill="#231f20"/>
    <rect x="123" y="29" width="1" height="1" fill="#231f20"/>
    <rect x="129" y="29" width="1" height="1" fill="#231f20"/>
    <rect x="153" y="29" width="1" height="1" fill="#231f20"/>
    <rect x="0" y="30" width="1" height="1" fill="#231f20"/>
    <rect x="25" y="30" width="1" height="1" fill="#231f20"/>
    <rect x="31" y="30" width="1" height="1" fill="#231f20"/>
    <rect x="51" y="30" width="1" height="1" fill="#231f20"/>
    <rect x="57" y="30" width="1" height="1" fill="#231f20"/>
    <rect x="80" y="30" width="1" height="1" fill="#231f20"/>
    <rect x="101" y="30" width="1" height="1" fill="#231f20"/>
    <rect x="108" y="30" width="1" height="1" fill="#231f20"/>
    <rect x="122" y="30" width="1" height="1" fill="#231f20"/>
    <rect x="130" y="30" width="1" height="1" fill="#231f20"/>
    <rect x="137" y="30" width="1" height="1" fill="#231f20"/>
    <rect x="153" y="30" width="1" height="1" fill="#231f20"/>
    <rect x="0" y="31" width="1" height="1" fill="#231f20"/>
    <rect x="25" y="31" width="1" height="1" fill="#231f20"/>
    <rect x="31" y="31" width="1" height="1" fill="#231f20"/>
    <rect x="51" y="31" width="1" height="1" fill="#231f20"/>
    <rect x="57" y="31" width="1" height="1" fill="#231f20"/>
    <rect x="80" y="31" width="1" height="1" fill="#231f20"/>
    <rect x="101" y="31" width="1" height="1" fill="#231f20"/>
    <rect x="108" y="31" width="1" height="1" fill="#231f20"/>
    <rect x="131" y="31" width="1" height="1" fill="#231f20"/>
    <rect x="136" y="31" width="1" height="1" fill="#231f20"/>
    <rect x="153" y="31" width="1" height="1" fill="#231f20"/>
    <rect x="0" y="32" width="1" height="1" fill="#231f20"/>
    <rect x="24" y="32" width="1" height="1" fill="#231f20"/>
    <rect x="32" y="32" width="1" height="1" fill="#231f20"/>
    <rect x="50" y="32" width="1" height="1" fill="#231f20"/>
    <rect x="58" y="32" width="1" height="1" fill="#231f20"/>
    <rect x="80" y="32" width="1" height="1" fill="#231f20"/>
    <rect x="100" y="32" width="1" height="1" fill="#231f20"/>
    <rect x="109" y="32" width="1" height="1" fill="#231f20"/>
    <rect x="131" y="32" width="1" height="1" fill="#231f20"/>
    <rect x="136" y="32" width="1" height="1" fill="#231f20"/>
    <rect x="153" y="32" width="1" height="1" fill="#231f20"/>
    <rect x="0" y="33" width="1" height="1" fill="#231f20"/>
    <rect x="24" y="33" width="1" height="1" fill="#231f20"/>
    <rect x="32" y="33" width="1" height="1" fill="#231f20"/>
    <rect x="50" y="33" width="1" height="1" fill="#231f20"/>
    <rect x="58" y="33" width="1" height="1" fill="#231f20"/>
    <rect x="79" y="33" width="1" height="1" fill="#231f20"/>
    <rect x="100" y="33" width="1" height="1" fill="#231f20"/>
    <rect x="109" y="33" width="1" height="1" fill="#231f20"/>
    <rect x="132" y="33" width="4" height="1" fill="#231f20"/>
    <rect x="153" y="33" width="1" height="1" fill="#231f20"/>
    <rect x="0" y="34" width="1" height="1" fill="#231f20"/>
    <rect x="23" y="34" width="11" height="1" fill="#231f20"/>
    <rect x="49" y="34" width="1" height="1" fill="#231f20"/>
    <rect x="59" y="34" width="1" height="1" fill="#231f20"/>
    <rect x="77" y="34" width="2" height="1" fill="#231f20"/>
    <rect x="99" y="34" width="1" height="1" fill="#231f20"/>
    <rect x="110" y="34" width="1" height="1" fill="#231f20"/>
    <rect x="133" y="34" width="2" height="1" fill="#231f20"/>
    <rect x="153" y="34" width="1" height="1" fill="#231f20"/>
    <rect x="0" y="35" width="1" height="1" fill="#231f20"/>
    <rect x="49" y="35" width="1" height="1" fill="#231f20"/>
    <rect x="59" y="35" width="1" height="1" fill="#231f20"/>
    <rect x="75" y="35" width="2" height="1" fill="#231f20"/>
    <rect x="99" y="35" width="1" height="1" fill="#231f20"/>
    <rect x="110" y="35" width="1" height="1" fill="#231f20"/>
    <rect x="153" y="35" width="1" height="1" fill="#231f20"/>
    <rect x="0" y="36" width="1" height="1" fill="#231f20"/>
    <rect x="153" y="36" width="1" height="1" fill="#231f20"/>
    <rect x="0" y="37" width="1" height="1" fill="#231f20"/>
    <rect x="153" y="37" width="1" height="1" fill="#231f20"/>
    <rect x="0" y="38" width="1" height="1" fill="#231f20"/>
    <rect x="153" y="38" width="1" height="1" fill="#231f20"/>
    <rect x="0" y="39" width="1" height="1" fill="#231f20"/>
    <rect x="153" y="39" width="1" height="1" fill="#231f20"/>
    <rect x="0" y="40" width="154" height="1" fill="#231f20"/>
    <rect x="0" y="41" width="1" height="1" fill="#231f20"/>
    <rect x="153" y="41" width="1" height="1" fill="#231f20"/>
    <rect x="0" y="42" width="1" height="1" fill="#231f20"/>
    <rect x="153" y="42" width="1" height="1" fill="#231f20"/>
    <rect x="0" y="43" width="1" height="1" fill="#231f20"/>
    <rect x="153" y="43" width="1" height="1" fill="#231f20"/>
    <rect x="0" y="44" width="1" height="1" fill="#231f20"/>
    <rect x="153" y="44" width="1" height="1" fill="#231f20"/>
    <rect x="0" y="45" width="1" height="1" fill="#231f20"/>
    <rect x="47" y="45" width="1" height="1" fill="#231f20"/>
    <rect x="50" y="45" width="1" height="1" fill="#231f20"/>
    <rect x="71" y="45" width="1" height="1" fill="#231f20"/>
    <rect x="98" y="45" width="1" height="1" fill="#231f20"/>
    <rect x="100" y="45" width="1" height="1" fill="#231f20"/>
    <rect x="153" y="45" width="1" height="1" fill="#231f20"/>
    <rect x="0" y="46" width="1" height="1" fill="#231f20"/>
    <rect x="19" y="46" width="2" height="1" fill="#231f20"/>
    <rect x="47" y="46" width="1" height="1" fill="#231f20"/>
    <rect x="50" y="46" width="1" height="1" fill="#231f20"/>
    <rect x="72" y="46" width="3" height="1" fill="#231f20"/>
    <rect x="98" y="46" width="1" height="1" fill="#231f20"/>
    <rect x="100" y="46" width="1" height="1" fill="#231f20"/>
    <rect x="125" y="46" width="1" height="1" fill="#231f20"/>
    <rect x="153" y="46" width="1" height="1" fill="#231f20"/>
    <rect x="0" y="47" width="1" height="1" fill="#231f20"/>
    <rect x="18" y="47" width="4" height="1" fill="#231f20"/>
    <rect x="46" y="47" width="1" height="1" fill="#231f20"/>
    <rect x="51" y="47" width="1" height="1" fill="#231f20"/>
    <rect x="74" y="47" width="2" height="1" fill="#231f20"/>
    <rect x="97" y="47" width="1" height="1" fill="#231f20"/>
    <rect x="101" y="47" width="1" height="1" fill="#231f20"/>
    <rect x="124" y="47" width="1" height="1" fill="#231f20"/>
    <rect x="126" y="47" width="1" height="1" fill="#231f20"/>
    <rect x="153" y="47" width="1" height="1" fill="#231f20"/>
    <rect x="0" y="48" width="1" height="1" fill="#231f20"/>
    <rect x="17" y="48" width="2" height="1" fill="#231f20"/>
    <rect x="21" y="48" width="2" height="1" fill="#231f20"/>
    <rect x="46" y="48" width="1" height="1" fill="#231f20"/>
    <rect x="51" y="48" width="1" height="1" fill="#231f20"/>
    <rect x="76" y="48" width="1" height="1" fill="#231f20"/>
    <rect x="97" y="48" width="1" height="1" fill="#231f20"/>
    <rect x="101" y="48" width="1" height="1" fill="#231f20"/>
    <rect x="124" y="48" width="1" height="1" fill="#231f20"/>
    <rect x="126" y="48" width="1" height="1" fill="#231f20"/>
    <rect x="153" y="48" width="1" height="1" fill="#231f20"/>
    <rect x="0" y="49" width="1" height="1" fill="#231f20"/>
    <rect x="17" y="49" width="1" height="1" fill="#231f20"/>
    <rect x="22" y="49" width="1" height="1" fill="#231f20"/>
    <rect x="45" y="49" width="1" height="1" fill="#231f20"/>
    <rect x="52" y="49" width="1" height="1" fill="#231f20"/>
    <rect x="76" y="49" width="1" height="1" fill="#231f20"/>
    <rect x="96" y="49" width="1" height="1" fill="#231f20"/>
    <rect x="102" y="49" width="1" height="1" fill="#231f20"/>
    <rect x="123" y="49" width="1" height="1" fill="#231f20"/>
    <rect x="127" y="49" width="1" height="1" fill="#231f20"/>
    <rect x="153" y="49" width="1" height="1" fill="#231f20"/>
    <rect x="0" y="50" width="1" height="1" fill="#231f20"/>
    <rect x="16" y="50" width="1" height="1" fill="#231f20"/>
    <rect x="23" y="50" width="1" height="1" fill="#231f20"/>
    <rect x="31" y="50" width="1" height="1" fill="#231f20"/>
    <rect x="45" y="50" width="1" height="1" fill="#231f20"/>
    <rect x="52" y="50" width="1" height="1" fill="#231f20"/>
    <rect x="76" y="50" width="1" height="1" fill="#231f20"/>
    <rect x="96" y="50" width="1" height="1" fill="#231f20"/>
    <rect x="102" y="50" width="1" height="1" fill="#231f20"/>
    <rect x="123" y="50" width="1" height="1" fill="#231f20"/>
    <rect x="127" y="50" width="1" height="1" fill="#231f20"/>
    <rect x="153" y="50" width="1" height="1" fill="#231f20"/>
    <rect x="0" y="51" width="1" height="1" fill="#231f20"/>
    <rect x="24" y="51" width="1" height="1" fill="#231f20"/>
    <rect x="31" y="51" width="1" height="1" fill="#231f20"/>
    <rect x="45" y="51" width="1" height="1" fill="#231f20"/>
    <rect x="52" y="51" width="1" height="1" fill="#231f20"/>
    <rect x="76" y="51" width="1" height="1" fill="#231f20"/>
    <rect x="96" y="51" width="1" height="1" fill="#231f20"/>
    <rect x="102" y="51" width="1" height="1" fill="#231f20"/>
    <rect x="122" y="51" width="1" height="1" fill="#231f20"/>
    <rect x="128" y="51" width="1" height="1" fill="#231f20"/>
    <rect x="153" y="51" width="1" height="1" fill="#231f20"/>
    <rect x="0" y="52" width="1" height="1" fill="#231f20"/>
    <rect x="24" y="52" width="2" height="1" fill="#231f20"/>
    <rect x="29" y="52" width="2" height="1" fill="#231f20"/>
    <rect x="44" y="52" width="1" height="1" fill="#231f20"/>
    <rect x="53" y="52" width="1" height="1" fill="#231f20"/>
    <rect x="76" y="52" width="1" height="1" fill="#231f20"/>
    <rect x="95" y="52" width="1" height="1" fill="#231f20"/>
    <rect x="103" y="52" width="1" height="1" fill="#231f20"/>
    <rect x="122" y="52" width="1" height="1" fill="#231f20"/>
    <rect x="128" y="52" width="1" height="1" fill="#231f20"/>
    <rect x="153" y="52" width="1" height="1" fill="#231f20"/>
    <rect x="0" y="53" width="1" height="1" fill="#231f20"/>
    <rect x="25" y="53" width="2" height="1" fill="#231f20"/>
    <rect x="29" y="53" width="1" height="1" fill="#231f20"/>
    <rect x="44" y="53" width="1" height="1" fill="#231f20"/>
    <rect x="53" y="53" width="1" height="1" fill="#231f20"/>
    <rect x="75" y="53" width="2" height="1" fill="#231f20"/>
    <rect x="95" y="53" width="1" height="1" fill="#231f20"/>
    <rect x="103" y="53" width="1" height="1" fill="#231f20"/>
    <rect x="121" y="53" width="1" height="1" fill="#231f20"/>
    <rect x="129" y="53" width="1" height="1" fill="#231f20"/>
    <rect x="153" y="53" width="1" height="1" fill="#231f20"/>
    <rect x="0" y="54" width="1" height="1" fill="#231f20"/>
    <rect x="26" y="54" width="3" height="1" fill="#231f20"/>
    <rect x="43" y="54" width="1" height="1" fill="#231f20"/>
    <rect x="54" y="54" width="1" height="1" fill="#231f20"/>
    <rect x="74" y="54" width="2" height="1" fill="#231f20"/>
    <rect x="94" y="54" width="1" height="1" fill="#231f20"/>
    <rect x="104" y="54" width="1" height="1" fill="#231f20"/>
    <rect x="121" y="54" width="1" height="1" fill="#231f20"/>
    <rect x="129" y="54" width="1" height="1" fill="#231f20"/>
    <rect x="153" y="54" width="1" height="1" fill="#231f20"/>
    <rect x="0" y="55" width="1" height="1" fill="#231f20"/>
    <rect x="43" y="55" width="1" height="1" fill="#231f20"/>
    <rect x="54" y="55" width="1" height="1" fill="#231f20"/>
    <rect x="71" y="55" width="3" height="1" fill="#231f20"/>
    <rect x="94" y="55" width="1" height="1" fill="#231f20"/>
    <rect x="104" y="55" width="1" height="1" fill="#231f20"/>
    <rect x="120" y="55" width="11" height="1" fill="#231f20"/>
    <rect x="153" y="55" width="1" height="1" fill="#231f20"/>
    <rect x="0" y="56" width="1" height="1" fill="#231f20"/>
    <rect x="153" y="56" width="1" height="1" fill="#231f20"/>
    <rect x="0" y="57" width="1" height="1" fill="#231f20"/>
    <rect x="153" y="57" width="1" height="1" fill="#231f20"/>
    <rect x="0" y="58" width="1" height="1" fill="#231f20"/>
    <rect x="153" y="58" width="1" height="1" fill="#231f20"/>
    <rect x="0" y="59" width="1" height="1" fill="#231f20"/>
    <rect x="153" y="59" width="1" height="1" fill="#231f20"/>
    <rect x="0" y="60" width="154" height="1" fill="#231f20"/>
  </g>
</svg>