<?xml version="1.0" encoding="UTF-8"?>
<svg xmlns="http://www.w3.org/2000/svg" viewBox="0 0 167 68" width="167" height="68">
  <!-- Auto-converted from legend-1752.png -->
  <rect x="0" y="0" width="167" height="68" fill="none"/>
  <g fill="#231f20" stroke="none">
    <rect x="0" y="0" width="167" height="1" fill="#231f20"/>
    <rect x="0" y="1" width="1" height="1" fill="#231f20"/>
    <rect x="166" y="1" width="1" height="1" fill="#231f20"/>
    <rect x="0" y="2" width="1" height="1" fill="#231f20"/>
    <rect x="166" y="2" width="1" height="1" fill="#231f20"/>
    <rect x="0" y="3" width="1" height="1" fill="#231f20"/>
    <rect x="166" y="3" width="1" height="1" fill="#231f20"/>
    <rect x="0" y="4" width="1" height="1" fill="#231f20"/>
    <rect x="166" y="4" width="1" height="1" fill="#231f20"/>
    <rect x="0" y="5" width="1" height="1" fill="#231f20"/>
    <rect x="166" y="5" width="1" height="1" fill="#231f20"/>
    <rect x="0" y="6" width="1" height="1" fill="#231f20"/>
    <rect x="23" y="6" width="10" height="1" fill="#231f20"/>
    <rect x="93" y="6" width="1" height="1" fill="#231f20"/>
    <rect x="95" y="6" width="1" height="1" fill="#231f20"/>
    <rect x="126" y="6" width="1" height="1" fill="#231f20"/>
    <rect x="129" y="6" width="1" height="1" fill="#231f20"/>
    <rect x="166" y="6" width="1" height="1" fill="#231f20"/>
    <rect x="0" y="7" width="1" height="1" fill="#231f20"/>
    <rect x="23" y="7" width="1" height="1" fill="#231f20"/>
    <rect x="32" y="7" width="1" height="1" fill="#231f20"/>
    <rect x="55" y="7" width="12" height="1" fill="#231f20"/>
    <rect x="93" y="7" width="1" height="1" fill="#231f20"/>
    <rect x="95" y="7" width="1" height="1" fill="#231f20"/>
    <rect x="126" y="7" width="1" height="1" fill="#231f20"/>
    <rect x="129" y="7" width="1" height="1" fill="#231f20"/>
    <rect x="166" y="7" width="1" height="1" fill="#231f20"/>
    <rect x="0" y="8" width="1" height="1" fill="#231f20"/>
    <rect x="23" y="8" width="1" height="1" fill="#231f20"/>
    <rect x="32" y="8" width="1" height="1" fill="#231f20"/>
    <rect x="56" y="8" width="1" height="1" fill="#231f20"/>
    <rect x="65" y="8" width="1" height="1" fill="#231f20"/>
    <rect x="92" y="8" width="1" height="1" fill="#231f20"/>
    <rect x="96" y="8" width="1" height="1" fill="#231f20"/>
    <rect x="125" y="8" width="1" height="1" fill="#231f20"/>
    <rect x="130" y="8" width="1" height="1" fill="#231f20"/>
    <rect x="166" y="8" width="1" height="1" fill="#231f20"/>
    <rect x="0" y="9" width="1" height="1" fill="#231f20"/>
    <rect x="23" y="9" width="1" height="1" fill="#231f20"/>
    <rect x="32" y="9" width="1" height="1" fill="#231f20"/>
    <rect x="56" y="9" width="1" height="1" fill="#231f20"/>
    <rect x="65" y="9" width="1" height="1" fill="#231f20"/>
    <rect x="92" y="9" width="1" height="1" fill="#231f20"/>
    <rect x="96" y="9" width="1" height="1" fill="#231f20"/>
    <rect x="125" y="9" width="1" height="1" fill="#231f20"/>
    <rect x="130" y="9" width="1" height="1" fill="#231f20"/>
    <rect x="166" y="9" width="1" height="1" fill="#231f20"/>
    <rect x="0" y="10" width="1" height="1" fill="#231f20"/>
    <rect x="23" y="10" width="1" height="1" fill="#231f20"/>
    <rect x="32" y="10" width="1" height="1" fill="#231f20"/>
    <rect x="57" y="10" width="1" height="1" fill="#231f20"/>
    <rect x="64" y="10" width="1" height="1" fill="#231f20"/>
    <rect x="91" y="10" width="1" height="1" fill="#231f20"/>
    <rect x="97" y="10" width="1" height="1" fill="#231f20"/>
    <rect x="125" y="10" width="1" height="1" fill="#231f20"/>
    <rect x="130" y="10" width="1" height="1" fill="#231f20"/>
    <rect x="166" y="10" width="1" height="1" fill="#231f20"/>
    <rect x="0" y="11" width="1" height="1" fill="#231f20"/>
    <rect x="23" y="11" width="1" height="1" fill="#231f20"/>
    <rect x="32" y="11" width="1" height="1" fill="#231f20"/>
    <rect x="58" y="11" width="1" height="1" fill="#231f20"/>
    <rect x="64" y="11" width="1" height="1" fill="#231f20"/>
    <rect x="91" y="11" width="1" height="1" fill="#231f20"/>
    <rect x="97" y="11" width="1" height="1" fill="#231f20"/>
    <rect x="124" y="11" width="1" height="1" fill="#231f20"/>
    <rect x="131" y="11" width="1" height="1" fill="#231f20"/>
    <rect x="166" y="11" width="1" height="1" fill="#231f20"/>
    <rect x="0" y="12" width="1" height="1" fill="#231f20"/>
    <rect x="23" y="12" width="1" height="1" fill="#231f20"/>
    <rect x="32" y="12" width="1" height="1" fill="#231f20"/>
    <rect x="58" y="12" width="1" height="1" fill="#231f20"/>
    <rect x="63" y="12" width="1" height="1" fill="#231f20"/>
    <rect x="90" y="12" width="1" height="1" fill="#231f20"/>
    <rect x="98" y="12" width="1" height="1" fill="#231f20"/>
    <rect x="124" y="12" width="1" height="1" fill="#231f20"/>
    <rect x="131" y="12" width="1" height="1" fill="#231f20"/>
    <rect x="166" y="12" width="1" height="1" fill="#231f20"/>
    <rect x="0" y="13" width="1" height="1" fill="#231f20"/>
    <rect x="23" y="13" width="1" height="1" fill="#231f20"/>
    <rect x="32" y="13" width="1" height="1" fill="#231f20"/>
    <rect x="59" y="13" width="1" height="1" fill="#231f20"/>
    <rect x="63" y="13" width="1" height="1" fill="#231f20"/>
    <rect x="90" y="13" width="1" height="1" fill="#231f20"/>
    <rect x="98" y="13" width="1" height="1" fill="#231f20"/>
    <rect x="123" y="13" width="1" height="1" fill="#231f20"/>
    <rect x="132" y="13" width="1" height="1" fill="#231f20"/>
    <rect x="166" y="13" width="1" height="1" fill="#231f20"/>
    <rect x="0" y="14" width="1" height="1" fill="#231f20"/>
    <rect x="23" y="14" width="1" height="1" fill="#231f20"/>
    <rect x="32" y="14" width="1" height="1" fill="#231f20"/>
    <rect x="60" y="14" width="1" height="1" fill="#231f20"/>
    <rect x="62" y="14" width="1" height="1" fill="#231f20"/>
    <rect x="89" y="14" width="1" height="1" fill="#231f20"/>
    <rect x="99" y="14" width="1" height="1" fill="#231f20"/>
    <rect x="123" y="14" width="1" height="1" fill="#231f20"/>
    <rect x="132" y="14" width="1" height="1" fill="#231f20"/>
    <rect x="166" y="14" width="1" height="1" fill="#231f20"/>
    <rect x="0" y="15" width="1" height="1" fill="#231f20"/>
    <rect x="23" y="15" width="1" height="1" fill="#231f20"/>
    <rect x="32" y="15" width="1" height="1" fill="#231f20"/>
    <rect x="60" y="15" width="1" height="1" fill="#231f20"/>
    <rect x="62" y="15" width="1" height="1" fill="#231f20"/>
    <rect x="89" y="15" width="1" height="1" fill="#231f20"/>
    <rect x="99" y="15" width="1" height="1" fill="#231f20"/>
    <rect x="123" y="15" width="1" height="1" fill="#231f20"/>
    <rect x="132" y="15" width="1" height="1" fill="#231f20"/>
    <rect x="166" y="15" width="1" height="1" fill="#231f20"/>
    <rect x="0" y="16" width="1" height="1" fill="#231f20"/>
    <rect x="23" y="16" width="1" height="1" fill="#231f20"/>
    <rect x="32" y="16" width="1" height="1" fill="#231f20"/>
    <rect x="61" y="16" width="1" height="1" fill="#231f20"/>
    <rect x="88" y="16" width="1" height="1" fill="#231f20"/>
    <rect x="100" y="16" width="1" height="1" fill="#231f20"/>
    <rect x="122" y="16" width="1" height="1" fill="#231f20"/>
    <rect x="133" y="16" width="1" height="1" fill="#231f20"/>
    <rect x="166" y="16" width="1" height="1" fill="#231f20"/>
    <rect x="0" y="17" width="1" height="1" fill="#231f20"/>
    <rect x="23" y="17" width="10" height="1" fill="#231f20"/>
    <rect x="88" y="17" width="1" height="1" fill="#231f20"/>
    <rect x="100" y="17" width="1" height="1" fill="#231f20"/>
    <rect x="122" y="17" width="1" height="1" fill="#231f20"/>
    <rect x="133" y="17" width="1" height="1" fill="#231f20"/>
    <rect x="166" y="17" width="1" height="1" fill="#231f20"/>
    <rect x="0" y="18" width="1" height="1" fill="#231f20"/>
    <rect x="166" y="18" width="1" height="1" fill="#231f20"/>
    <rect x="0" y="19" width="1" height="1" fill="#231f20"/>
    <rect x="166" y="19" width="1" height="1" fill="#231f20"/>
    <rect x="0" y="20" width="1" height="1" fill="#231f20"/>
    <rect x="166" y="20" width="1" height="1" fill="#231f20"/>
    <rect x="0" y="21" width="1" height="1" fill="#231f20"/>
    <rect x="166" y="21" width="1" height="1" fill="#231f20"/>
    <rect x="0" y="22" width="167" height="1" fill="#231f20"/>
    <rect x="0" y="23" width="1" height="1" fill="#231f20"/>
    <rect x="166" y="23" width="1" height="1" fill="#231f20"/>
    <rect x="0" y="24" width="1" height="1" fill="#231f20"/>
    <rect x="166" y="24" width="1" height="1" fill="#231f20"/>
    <rect x="0" y="25" width="1" height="1" fill="#231f20"/>
    <rect x="166" y="25" width="1" height="1" fill="#231f20"/>
    <rect x="0" y="26" width="1" height="1" fill="#231f20"/>
    <rect x="166" y="26" width="1" height="1" fill="#231f20"/>
    <rect x="0" y="27" width="1" height="1" fill="#231f20"/>
    <rect x="166" y="27" width="1" height="1" fill="#231f20"/>
    <rect x="0" y="28" width="1" height="1" fill="#231f20"/>
    <rect x="37" y="28" width="1" height="1" fill="#231f20"/>
    <rect x="40" y="28" width="1" height="1" fill="#231f20"/>
    <rect x="70" y="28" width="1" height="1" fill="#231f20"/>
    <rect x="73" y="28" width="1" height="1" fill="#231f20"/>
    <rect x="134" y="28" width="9" height="1" fill="#231f20"/>
    <rect x="166" y="28" width="1" height="1" fill="#231f20"/>
    <rect x="0" y="29" width="1" height="1" fill="#231f20"/>
    <rect x="37" y="29" width="1" height="1" fill="#231f20"/>
    <rect x="40" y="29" width="1" height="1" fill="#231f20"/>
    <rect x="70" y="29" width="1" height="1" fill="#231f20"/>
    <rect x="73" y="29" width="1" height="1" fill="#231f20"/>
    <rect x="99" y="29" width="13" height="1" fill="#231f20"/>
    <rect x="134" y="29" width="1" height="1" fill="#231f20"/>
    <rect x="142" y="29" width="1" height="1" fill="#231f20"/>
    <rect x="166" y="29" width="1" height="1" fill="#231f20"/>
    <rect x="0" y="30" width="1" height="1" fill="#231f20"/>
    <rect x="36" y="30" width="1" height="1" fill="#231f20"/>
    <rect x="41" y="30" width="1" height="1" fill="#231f20"/>
    <rect x="69" y="30" width="1" height="1" fill="#231f20"/>
    <rect x="74" y="30" width="1" height="1" fill="#231f20"/>
    <rect x="100" y="30" width="1" height="1" fill="#231f20"/>
    <rect x="110" y="30" width="1" height="1" fill="#231f20"/>
    <rect x="134" y="30" width="1" height="1" fill="#231f20"/>
    <rect x="142" y="30" width="1" height="1" fill="#231f20"/>
    <rect x="166" y="30" width="1" height="1" fill="#231f20"/>
    <rect x="0" y="31" width="1" height="1" fill="#231f20"/>
    <rect x="36" y="31" width="1" height="1" fill="#231f20"/>
    <rect x="41" y="31" width="1" height="1" fill="#231f20"/>
    <rect x="69" y="31" width="1" height="1" fill="#231f20"/>
    <rect x="74" y="31" width="1" height="1" fill="#231f20"/>
    <rect x="100" y="31" width="1" height="1" fill="#231f20"/>
    <rect x="110" y="31" width="1" height="1" fill="#231f20"/>
    <rect x="134" y="31" width="1" height="1" fill="#231f20"/>
    <rect x="142" y="31" width="1" height="1" fill="#231f20"/>
    <rect x="166" y="31" width="1" height="1" fill="#231f20"/>
    <rect x="0" y="32" width="1" height="1" fill="#231f20"/>
    <rect x="36" y="32" width="1" height="1" fill="#231f20"/>
    <rect x="41" y="32" width="1" height="1" fill="#231f20"/>
    <rect x="69" y="32" width="1" height="1" fill="#231f20"/>
    <rect x="74" y="32" width="1" height="1" fill="#231f20"/>
    <rect x="101" y="32" width="1" height="1" fill="#231f20"/>
    <rect x="109" y="32" width="1" height="1" fill="#231f20"/>
    <rect x="134" y="32" width="1" height="1" fill="#231f20"/>
    <rect x="142" y="32" width="1" height="1" fill="#231f20"/>
    <rect x="166" y="32" width="1" height="1" fill="#231f20"/>
    <rect x="0" y="33" width="1" height="1" fill="#231f20"/>
    <rect x="35" y="33" width="1" height="1" fill="#231f20"/>
    <rect x="42" y="33" width="1" height="1" fill="#231f20"/>
    <rect x="68" y="33" width="1" height="1" fill="#231f20"/>
    <rect x="75" y="33" width="1" height="1" fill="#231f20"/>
    <rect x="101" y="33" width="1" height="1" fill="#231f20"/>
    <rect x="109" y="33" width="1" height="1" fill="#231f20"/>
    <rect x="134" y="33" width="1" height="1" fill="#231f20"/>
    <rect x="142" y="33" width="1" height="1" fill="#231f20"/>
    <rect x="166" y="33" width="1" height="1" fill="#231f20"/>
    <rect x="0" y="34" width="1" height="1" fill="#231f20"/>
    <rect x="35" y="34" width="1" height="1" fill="#231f20"/>
    <rect x="42" y="34" width="1" height="1" fill="#231f20"/>
    <rect x="68" y="34" width="1" height="1" fill="#231f20"/>
    <rect x="75" y="34" width="1" height="1" fill="#231f20"/>
    <rect x="102" y="34" width="1" height="1" fill="#231f20"/>
    <rect x="108" y="34" width="1" height="1" fill="#231f20"/>
    <rect x="134" y="34" width="1" height="1" fill="#231f20"/>
    <rect x="142" y="34" width="1" height="1" fill="#231f20"/>
    <rect x="166" y="34" width="1" height="1" fill="#231f20"/>
    <rect x="0" y="35" width="1" height="1" fill="#231f20"/>
    <rect x="34" y="35" width="1" height="1" fill="#231f20"/>
    <rect x="43" y="35" width="1" height="1" fill="#231f20"/>
    <rect x="67" y="35" width="1" height="1" fill="#231f20"/>
    <rect x="76" y="35" width="1" height="1" fill="#231f20"/>
    <rect x="103" y="35" width="1" height="1" fill="#231f20"/>
    <rect x="107" y="35" width="1" height="1" fill="#231f20"/>
    <rect x="134" y="35" width="1" height="1" fill="#231f20"/>
    <rect x="142" y="35" width="1" height="1" fill="#231f20"/>
    <rect x="166" y="35" width="1" height="1" fill="#231f20"/>
    <rect x="0" y="36" width="1" height="1" fill="#231f20"/>
    <rect x="34" y="36" width="1" height="1" fill="#231f20"/>
    <rect x="43" y="36" width="1" height="1" fill="#231f20"/>
    <rect x="67" y="36" width="1" height="1" fill="#231f20"/>
    <rect x="76" y="36" width="1" height="1" fill="#231f20"/>
    <rect x="103" y="36" width="1" height="1" fill="#231f20"/>
    <rect x="107" y="36" width="1" height="1" fill="#231f20"/>
    <rect x="134" y="36" width="1" height="1" fill="#231f20"/>
    <rect x="142" y="36" width="1" height="1" fill="#231f20"/>
    <rect x="166" y="36" width="1" height="1" fill="#231f20"/>
    <rect x="0" y="37" width="1" height="1" fill="#231f20"/>
    <rect x="34" y="37" width="1" height="1" fill="#231f20"/>
    <rect x="43" y="37" width="1" height="1" fill="#231f20"/>
    <rect x="67" y="37" width="1" height="1" fill="#231f20"/>
    <rect x="76" y="37" width="1" height="1" fill="#231f20"/>
    <rect x="104" y="37" width="1" height="1" fill="#231f20"/>
    <rect x="106" y="37" width="1" height="1" fill="#231f20"/>
    <rect x="134" y="37" width="1" height="1" fill="#231f20"/>
    <rect x="142" y="37" width="1" height="1" fill="#231f20"/>
    <rect x="166" y="37" width="1" height="1" fill="#231f20"/>
    <rect x="0" y="38" width="1" height="1" fill="#231f20"/>
    <rect x="33" y="38" width="1" height="1" fill="#231f20"/>
    <rect x="44" y="38" width="1" height="1" fill="#231f20"/>
    <rect x="66" y="38" width="1" height="1" fill="#231f20"/>
    <rect x="77" y="38" width="1" height="1" fill="#231f20"/>
    <rect x="104" y="38" width="1" height="1" fill="#231f20"/>
    <rect x="106" y="38" width="1" height="1" fill="#231f20"/>
    <rect x="134" y="38" width="1" height="1" fill="#231f20"/>
    <rect x="142" y="38" width="1" height="1" fill="#231f20"/>
    <rect x="166" y="38" width="1" height="1" fill="#231f20"/>
    <rect x="0" y="39" width="1" height="1" fill="#231f20"/>
    <rect x="33" y="39" width="1" height="1" fill="#231f20"/>
    <rect x="44" y="39" width="1" height="1" fill="#231f20"/>
    <rect x="66" y="39" width="1" height="1" fill="#231f20"/>
    <rect x="77" y="39" width="1" height="1" fill="#231f20"/>
    <rect x="105" y="39" width="1" height="1" fill="#231f20"/>
    <rect x="134" y="39" width="9" height="1" fill="#231f20"/>
    <rect x="166" y="39" width="1" height="1" fill="#231f20"/>
    <rect x="0" y="40" width="1" height="1" fill="#231f20"/>
    <rect x="166" y="40" width="1" height="1" fill="#231f20"/>
    <rect x="0" y="41" width="1" height="1" fill="#231f20"/>
    <rect x="166" y="41" width="1" height="1" fill="#231f20"/>
    <rect x="0" y="42" width="1" height="1" fill="#231f20"/>
    <rect x="166" y="42" width="1" height="1" fill="#231f20"/>
    <rect x="0" y="43" width="1" height="1" fill="#231f20"/>
    <rect x="166" y="43" width="1" height="1" fill="#231f20"/>
    <rect x="0" y="44" width="1" height="1" fill="#231f20"/>
    <rect x="166" y="44" width="1" height="1" fill="#231f20"/>
    <rect x="0" y="45" width="167" height="1" fill="#231f20"/>
    <rect x="0" y="46" width="1" height="1" fill="#231f20"/>
    <rect x="166" y="46" width="1" height="1" fill="#231f20"/>
    <rect x="0" y="47" width="1" height="1" fill="#231f20"/>
    <rect x="166" y="47" width="1" height="1" fill="#231f20"/>
    <rect x="0" y="48" width="1" height="1" fill="#231f20"/>
    <rect x="166" y="48" width="1" height="1" fill="#231f20"/>
    <rect x="0" y="49" width="1" height="1" fill="#231f20"/>
    <rect x="166" y="49" width="1" height="1" fill="#231f20"/>
    <rect x="0" y="50" width="1" height="1" fill="#231f20"/>
    <rect x="23" y="50" width="10" height="1" fill="#231f20"/>
    <rect x="93" y="50" width="1" height="1" fill="#231f20"/>
    <rect x="95" y="50" width="1" height="1" fill="#231f20"/>
    <rect x="126" y="50" width="1" height="1" fill="#231f20"/>
    <rect x="129" y="50" width="1" height="1" fill="#231f20"/>
    <rect x="166" y="50" width="1" height="1" fill="#231f20"/>
    <rect x="0" y="51" width="1" height="1" fill="#231f20"/>
    <rect x="23" y="51" width="1" height="1" fill="#231f20"/>
    <rect x="32" y="51" width="1" height="1" fill="#231f20"/>
    <rect x="55" y="51" width="12" height="1" fill="#231f20"/>
    <rect x="93" y="51" width="1" height="1" fill="#231f20"/>
    <rect x="95" y="51" width="1" height="1" fill="#231f20"/>
    <rect x="126" y="51" width="1" height="1" fill="#231f20"/>
    <rect x="129" y="51" width="1" height="1" fill="#231f20"/>
    <rect x="166" y="51" width="1" height="1" fill="#231f20"/>
    <rect x="0" y="52" width="1" height="1" fill="#231f20"/>
    <rect x="23" y="52" width="1" height="1" fill="#231f20"/>
    <rect x="32" y="52" width="1" height="1" fill="#231f20"/>
    <rect x="56" y="52" width="1" height="1" fill="#231f20"/>
    <rect x="66" y="52" width="1" height="1" fill="#231f20"/>
    <rect x="92" y="52" width="1" height="1" fill="#231f20"/>
    <rect x="96" y="52" width="1" height="1" fill="#231f20"/>
    <rect x="125" y="52" width="1" height="1" fill="#231f20"/>
    <rect x="130" y="52" width="1" height="1" fill="#231f20"/>
    <rect x="166" y="52" width="1" height="1" fill="#231f20"/>
    <rect x="0" y="53" width="1" height="1" fill="#231f20"/>
    <rect x="23" y="53" width="1" height="1" fill="#231f20"/>
    <rect x="32" y="53" width="1" height="1" fill="#231f20"/>
    <rect x="56" y="53" width="1" height="1" fill="#231f20"/>
    <rect x="65" y="53" width="1" height="1" fill="#231f20"/>
    <rect x="92" y="53" width="1" height="1" fill="#231f20"/>
    <rect x="96" y="53" width="1" height="1" fill="#231f20"/>
    <rect x="125" y="53" width="1" height="1" fill="#231f20"/>
    <rect x="130" y="53" width="1" height="1" fill="#231f20"/>
    <rect x="166" y="53" width="1" height="1" fill="#231f20"/>
    <rect x="0" y="54" width="1" height="1" fill="#231f20"/>
    <rect x="23" y="54" width="1" height="1" fill="#231f20"/>
    <rect x="32" y="54" width="1" height="1" fill="#231f20"/>
    <rect x="57" y="54" width="1" height="1" fill="#231f20"/>
    <rect x="65" y="54" width="1" height="1" fill="#231f20"/>
    <rect x="91" y="54" width="1" height="1" fill="#231f20"/>
    <rect x="97" y="54" width="1" height="1" fill="#231f20"/>
    <rect x="125" y="54" width="1" height="1" fill="#231f20"/>
    <rect x="130" y="54" width="1" height="1" fill="#231f20"/>
    <rect x="166" y="54" width="1" height="1" fill="#231f20"/>
    <rect x="0" y="55" width="1" height="1" fill="#231f20"/>
    <rect x="23" y="55" width="1" height="1" fill="#231f20"/>
    <rect x="32" y="55" width="1" height="1" fill="#231f20"/>
    <rect x="57" y="55" width="1" height="1" fill="#231f20"/>
    <rect x="64" y="55" width="1" height="1" fill="#231f20"/>
    <rect x="91" y="55" width="1" height="1" fill="#231f20"/>
    <rect x="97" y="55" width="1" height="1" fill="#231f20"/>
    <rect x="124" y="55" width="1" height="1" fill="#231f20"/>
    <rect x="131" y="55" width="1" height="1" fill="#231f20"/>
    <rect x="166" y="55" width="1" height="1" fill="#231f20"/>
    <rect x="0" y="56" width="1" height="1" fill="#231f20"/>
    <rect x="23" y="56" width="1" height="1" fill="#231f20"/>
    <rect x="32" y="56" width="1" height="1" fill="#231f20"/>
    <rect x="58" y="56" width="1" height="1" fill="#231f20"/>
    <rect x="64" y="56" width="1" height="1" fill="#231f20"/>
    <rect x="90" y="56" width="1" height="1" fill="#231f20"/>
    <rect x="98" y="56" width="1" height="1" fill="#231f20"/>
    <rect x="124" y="56" width="1" height="1" fill="#231f20"/>
    <rect x="131" y="56" width="1" height="1" fill="#231f20"/>
    <rect x="166" y="56" width="1" height="1" fill="#231f20"/>
    <rect x="0" y="57" width="1" height="1" fill="#231f20"/>
    <rect x="23" y="57" width="1" height="1" fill="#231f20"/>
    <rect x="32" y="57" width="1" height="1" fill="#231f20"/>
    <rect x="59" y="57" width="1" height="1" fill="#231f20"/>
    <rect x="63" y="57" width="1" height="1" fill="#231f20"/>
    <rect x="90" y="57" width="1" height="1" fill="#231f20"/>
    <rect x="98" y="57" width="1" height="1" fill="#231f20"/>
    <rect x="123" y="57" width="1" height="1" fill="#231f20"/>
    <rect x="132" y="57" width="1" height="1" fill="#231f20"/>
    <rect x="166" y="57" width="1" height="1" fill="#231f20"/>
    <rect x="0" y="58" width="1" height="1" fill="#231f20"/>
    <rect x="23" y="58" width="1" height="1" fill="#231f20"/>
    <rect x="32" y="58" width="1" height="1" fill="#231f20"/>
    <rect x="59" y="58" width="1" height="1" fill="#231f20"/>
    <rect x="63" y="58" width="1" height="1" fill="#231f20"/>
    <rect x="89" y="58" width="1" height="1" fill="#231f20"/>
    <rect x="99" y="58" width="1" height="1" fill="#231f20"/>
    <rect x="123" y="58" width="1" height="1" fill="#231f20"/>
    <rect x="132" y="58" width="1" height="1" fill="#231f20"/>
    <rect x="166" y="58" width="1" height="1" fill="#231f20"/>
    <rect x="0" y="59" width="1" height="1" fill="#231f20"/>
    <rect x="23" y="59" width="1" height="1" fill="#231f20"/>
    <rect x="32" y="59" width="1" height="1" fill="#231f20"/>
    <rect x="60" y="59" width="1" height="1" fill="#231f20"/>
    <rect x="62" y="59" width="1" height="1" fill="#231f20"/>
    <rect x="89" y="59" width="1" height="1" fill="#231f20"/>
    <rect x="99" y="59" width="1" height="1" fill="#231f20"/>
    <rect x="123" y="59" width="1" height="1" fill="#231f20"/>
    <rect x="132" y="59" width="1" height="1" fill="#231f20"/>
    <rect x="166" y="59" width="1" height="1" fill="#231f20"/>
    <rect x="0" y="60" width="1" height="1" fill="#231f20"/>
    <rect x="23" y="60" width="1" height="1" fill="#231f20"/>
    <rect x="32" y="60" width="1" height="1" fill="#231f20"/>
    <rect x="60" y="60" width="1" height="1" fill="#231f20"/>
    <rect x="62" y="60" width="1" height="1" fill="#231f20"/>
    <rect x="88" y="60" width="1" height="1" fill="#231f20"/>
    <rect x="100" y="60" width="1" height="1" fill="#231f20"/>
    <rect x="122" y="60" width="1" height="1" fill="#231f20"/>
    <rect x="133" y="60" width="1" height="1" fill="#231f20"/>
    <rect x="166" y="60" width="1" height="1" fill="#231f20"/>
    <rect x="0" y="61" width="1" height="1" fill="#231f20"/>
    <rect x="23" y="61" width="10" height="1" fill="#231f20"/>
    <rect x="61" y="61" width="1" height="1" fill="#231f20"/>
    <rect x="88" y="61" width="1" height="1" fill="#231f20"/>
    <rect x="100" y="61" width="1" height="1" fill="#231f20"/>
    <rect x="122" y="61" width="1" height="1" fill="#231f20"/>
    <rect x="133" y="61" width="1" height="1" fill="#231f20"/>
    <rect x="166" y="61" width="1" height="1" fill="#231f20"/>
    <rect x="0" y="62" width="1" height="1" fill="#231f20"/>
    <rect x="166" y="62" width="1" height="1" fill="#231f20"/>
    <rect x="0" y="63" width="1" height="1" fill="#231f20"/>
    <rect x="166" y="63" width="1" height="1" fill="#231f20"/>
    <rect x="0" y="64" width="1" height="1" fill="#231f20"/>
    <rect x="166" y="64" width="1" height="1" fill="#231f20"/>
    <rect x="0" y="65" width="1" height="1" fill="#231f20"/>
    <rect x="166" y="65" width="1" height="1" fill="#231f20"/>
    <rect x="0" y="66" width="1" height="1" fill="#231f20"/>
    <rect x="166" y="66" width="1" height="1" fill="#231f20"/>
    <rect x="0" y="67" width="167" height="1" fill="#231f20"/>
  </g>
</svg>