<?xml version="1.0" encoding="UTF-8"?>
<svg xmlns="http://www.w3.org/2000/svg" viewBox="0 0 81 80" width="81" height="80">
  <!-- Auto-converted from legend-821.png -->
  <rect x="0" y="0" width="81" height="80" fill="none"/>
  <g fill="#231f20" stroke="none">
    <rect x="2" y="2" width="76" height="1" fill="#231f20"/>
    <rect x="2" y="3" width="1" height="1" fill="#231f20"/>
    <rect x="77" y="3" width="1" height="1" fill="#231f20"/>
    <rect x="2" y="4" width="1" height="1" fill="#231f20"/>
    <rect x="77" y="4" width="1" height="1" fill="#231f20"/>
    <rect x="2" y="5" width="1" height="1" fill="#231f20"/>
    <rect x="77" y="5" width="1" height="1" fill="#231f20"/>
    <rect x="2" y="6" width="1" height="1" fill="#231f20"/>
    <rect x="77" y="6" width="1" height="1" fill="#231f20"/>
    <rect x="2" y="7" width="1" height="1" fill="#231f20"/>
    <rect x="77" y="7" width="1" height="1" fill="#231f20"/>
    <rect x="2" y="8" width="1" height="1" fill="#231f20"/>
    <rect x="77" y="8" width="1" height="1" fill="#231f20"/>
    <rect x="2" y="9" width="1" height="1" fill="#231f20"/>
    <rect x="77" y="9" width="1" height="1" fill="#231f20"/>
    <rect x="2" y="10" width="1" height="1" fill="#231f20"/>
    <rect x="77" y="10" width="1" height="1" fill="#231f20"/>
    <rect x="2" y="11" width="1" height="1" fill="#231f20"/>
    <rect x="77" y="11" width="1" height="1" fill="#231f20"/>
    <rect x="2" y="12" width="1" height="1" fill="#231f20"/>
    <rect x="77" y="12" width="1" height="1" fill="#231f20"/>
    <rect x="2" y="13" width="1" height="1" fill="#231f20"/>
    <rect x="77" y="13" width="1" height="1" fill="#231f20"/>
    <rect x="2" y="14" width="1" height="1" fill="#231f20"/>
    <rect x="77" y="14" width="1" height="1" fill="#231f20"/>
    <rect x="2" y="15" width="1" height="1" fill="#231f20"/>
    <rect x="77" y="15" width="1" height="1" fill="#231f20"/>
    <rect x="2" y="16" width="1" height="1" fill="#231f20"/>
    <rect x="77" y="16" width="1" height="1" fill="#231f20"/>
    <rect x="2" y="17" width="1" height="1" fill="#231f20"/>
    <rect x="77" y="17" width="1" height="1" fill="#231f20"/>
    <rect x="2" y="18" width="1" height="1" fill="#231f20"/>
    <rect x="77" y="18" width="1" height="1" fill="#231f20"/>
    <rect x="2" y="19" width="1" height="1" fill="#231f20"/>
    <rect x="77" y="19" width="1" height="1" fill="#231f20"/>
    <rect x="2" y="20" width="1" height="1" fill="#231f20"/>
    <rect x="77" y="20" width="1" height="1" fill="#231f20"/>
    <rect x="2" y="21" width="1" height="1" fill="#231f20"/>
    <rect x="77" y="21" width="1" height="1" fill="#231f20"/>
    <rect x="2" y="22" width="1" height="1" fill="#231f20"/>
    <rect x="77" y="22" width="1" height="1" fill="#231f20"/>
    <rect x="2" y="23" width="1" height="1" fill="#231f20"/>
    <rect x="77" y="23" width="1" height="1" fill="#231f20"/>
    <rect x="2" y="24" width="1" height="1" fill="#231f20"/>
    <rect x="77" y="24" width="1" height="1" fill="#231f20"/>
    <rect x="2" y="25" width="1" height="1" fill="#231f20"/>
    <rect x="77" y="25" width="1" height="1" fill="#231f20"/>
    <rect x="2" y="26" width="1" height="1" fill="#231f20"/>
    <rect x="77" y="26" width="1" height="1" fill="#231f20"/>
    <rect x="2" y="27" width="1" height="1" fill="#231f20"/>
    <rect x="77" y="27" width="1" height="1" fill="#231f20"/>
    <rect x="2" y="28" width="1" height="1" fill="#231f20"/>
    <rect x="77" y="28" width="1" height="1" fill="#231f20"/>
    <rect x="2" y="29" width="1" height="1" fill="#231f20"/>
    <rect x="77" y="29" width="1" height="1" fill="#231f20"/>
    <rect x="2" y="30" width="1" height="1" fill="#231f20"/>
    <rect x="77" y="30" width="1" height="1" fill="#231f20"/>
    <rect x="2" y="31" width="1" height="1" fill="#231f20"/>
    <rect x="77" y="31" width="1" height="1" fill="#231f20"/>
    <rect x="2" y="32" width="1" height="1" fill="#231f20"/>
    <rect x="77" y="32" width="1" height="1" fill="#231f20"/>
    <rect x="2" y="33" width="1" height="1" fill="#231f20"/>
    <rect x="77" y="33" width="1" height="1" fill="#231f20"/>
    <rect x="2" y="34" width="1" height="1" fill="#231f20"/>
    <rect x="77" y="34" width="1" height="1" fill="#231f20"/>
    <rect x="2" y="35" width="1" height="1" fill="#231f20"/>
    <rect x="77" y="35" width="1" height="1" fill="#231f20"/>
    <rect x="2" y="36" width="1" height="1" fill="#231f20"/>
    <rect x="77" y="36" width="1" height="1" fill="#231f20"/>
    <rect x="2" y="37" width="1" height="1" fill="#231f20"/>
    <rect x="77" y="37" width="1" height="1" fill="#231f20"/>
    <rect x="2" y="38" width="1" height="1" fill="#231f20"/>
    <rect x="13" y="38" width="3" height="1" fill="#231f20"/>
    <rect x="64" y="38" width="3" height="1" fill="#231f20"/>
    <rect x="77" y="38" width="1" height="1" fill="#231f20"/>
    <rect x="2" y="39" width="1" height="1" fill="#231f20"/>
    <rect x="12" y="39" width="7" height="1" fill="#231f20"/>
    <rect x="61" y="39" width="7" height="1" fill="#231f20"/>
    <rect x="77" y="39" width="1" height="1" fill="#231f20"/>
    <rect x="2" y="40" width="1" height="1" fill="#231f20"/>
    <rect x="13" y="40" width="7" height="1" fill="#231f20"/>
    <rect x="38" y="40" width="4" height="1" fill="#231f20"/>
    <rect x="60" y="40" width="7" height="1" fill="#231f20"/>
    <rect x="77" y="40" width="1" height="1" fill="#231f20"/>
    <rect x="2" y="41" width="1" height="1" fill="#231f20"/>
    <rect x="16" y="41" width="8" height="1" fill="#231f20"/>
    <rect x="38" y="41" width="4" height="1" fill="#231f20"/>
    <rect x="56" y="41" width="8" height="1" fill="#231f20"/>
    <rect x="77" y="41" width="1" height="1" fill="#231f20"/>
    <rect x="2" y="42" width="1" height="1" fill="#231f20"/>
    <rect x="17" y="42" width="8" height="1" fill="#231f20"/>
    <rect x="38" y="42" width="4" height="1" fill="#231f20"/>
    <rect x="55" y="42" width="8" height="1" fill="#231f20"/>
    <rect x="77" y="42" width="1" height="1" fill="#231f20"/>
    <rect x="2" y="43" width="1" height="1" fill="#231f20"/>
    <rect x="20" y="43" width="8" height="1" fill="#231f20"/>
    <rect x="39" y="43" width="2" height="1" fill="#231f20"/>
    <rect x="52" y="43" width="8" height="1" fill="#231f20"/>
    <rect x="77" y="43" width="1" height="1" fill="#231f20"/>
    <rect x="2" y="44" width="1" height="1" fill="#231f20"/>
    <rect x="22" y="44" width="11" height="1" fill="#231f20"/>
    <rect x="47" y="44" width="11" height="1" fill="#231f20"/>
    <rect x="77" y="44" width="1" height="1" fill="#231f20"/>
    <rect x="2" y="45" width="1" height="1" fill="#231f20"/>
    <rect x="25" y="45" width="30" height="1" fill="#231f20"/>
    <rect x="77" y="45" width="1" height="1" fill="#231f20"/>
    <rect x="2" y="46" width="1" height="1" fill="#231f20"/>
    <rect x="28" y="46" width="24" height="1" fill="#231f20"/>
    <rect x="77" y="46" width="1" height="1" fill="#231f20"/>
    <rect x="2" y="47" width="1" height="1" fill="#231f20"/>
    <rect x="30" y="47" width="20" height="1" fill="#231f20"/>
    <rect x="77" y="47" width="1" height="1" fill="#231f20"/>
    <rect x="2" y="48" width="1" height="1" fill="#231f20"/>
    <rect x="77" y="48" width="1" height="1" fill="#231f20"/>
    <rect x="2" y="49" width="1" height="1" fill="#231f20"/>
    <rect x="77" y="49" width="1" height="1" fill="#231f20"/>
    <rect x="2" y="50" width="1" height="1" fill="#231f20"/>
    <rect x="77" y="50" width="1" height="1" fill="#231f20"/>
    <rect x="2" y="51" width="1" height="1" fill="#231f20"/>
    <rect x="77" y="51" width="1" height="1" fill="#231f20"/>
    <rect x="2" y="52" width="1" height="1" fill="#231f20"/>
    <rect x="77" y="52" width="1" height="1" fill="#231f20"/>
    <rect x="2" y="53" width="1" height="1" fill="#231f20"/>
    <rect x="77" y="53" width="1" height="1" fill="#231f20"/>
    <rect x="2" y="54" width="1" height="1" fill="#231f20"/>
    <rect x="77" y="54" width="1" height="1" fill="#231f20"/>
    <rect x="2" y="55" width="1" height="1" fill="#231f20"/>
    <rect x="77" y="55" width="1" height="1" fill="#231f20"/>
    <rect x="2" y="56" width="1" height="1" fill="#231f20"/>
    <rect x="77" y="56" width="1" height="1" fill="#231f20"/>
    <rect x="2" y="57" width="1" height="1" fill="#231f20"/>
    <rect x="77" y="57" width="1" height="1" fill="#231f20"/>
    <rect x="2" y="58" width="1" height="1" fill="#231f20"/>
    <rect x="77" y="58" width="1" height="1" fill="#231f20"/>
    <rect x="2" y="59" width="1" height="1" fill="#231f20"/>
    <rect x="77" y="59" width="1" height="1" fill="#231f20"/>
    <rect x="2" y="60" width="1" height="1" fill="#231f20"/>
    <rect x="77" y="60" width="1" height="1" fill="#231f20"/>
    <rect x="2" y="61" width="1" height="1" fill="#231f20"/>
    <rect x="77" y="61" width="1" height="1" fill="#231f20"/>
    <rect x="2" y="62" width="1" height="1" fill="#231f20"/>
    <rect x="77" y="62" width="1" height="1" fill="#231f20"/>
    <rect x="2" y="63" width="1" height="1" fill="#231f20"/>
    <rect x="77" y="63" width="1" height="1" fill="#231f20"/>
    <rect x="2" y="64" width="1" height="1" fill="#231f20"/>
    <rect x="77" y="64" width="1" height="1" fill="#231f20"/>
    <rect x="2" y="65" width="1" height="1" fill="#231f20"/>
    <rect x="77" y="65" width="1" height="1" fill="#231f20"/>
    <rect x="2" y="66" width="1" height="1" fill="#231f20"/>
    <rect x="77" y="66" width="1" height="1" fill="#231f20"/>
    <rect x="2" y="67" width="1" height="1" fill="#231f20"/>
    <rect x="77" y="67" width="1" height="1" fill="#231f20"/>
    <rect x="2" y="68" width="1" height="1" fill="#231f20"/>
    <rect x="77" y="68" width="1" height="1" fill="#231f20"/>
    <rect x="2" y="69" width="1" height="1" fill="#231f20"/>
    <rect x="77" y="69" width="1" height="1" fill="#231f20"/>
    <rect x="2" y="70" width="1" height="1" fill="#231f20"/>
    <rect x="77" y="70" width="1" height="1" fill="#231f20"/>
    <rect x="2" y="71" width="1" height="1" fill="#231f20"/>
    <rect x="77" y="71" width="1" height="1" fill="#231f20"/>
    <rect x="2" y="72" width="1" height="1" fill="#231f20"/>
    <rect x="77" y="72" width="1" height="1" fill="#231f20"/>
    <rect x="2" y="73" width="1" height="1" fill="#231f20"/>
    <rect x="77" y="73" width="1" height="1" fill="#231f20"/>
    <rect x="2" y="74" width="1" height="1" fill="#231f20"/>
    <rect x="77" y="74" width="1" height="1" fill="#231f20"/>
    <rect x="2" y="75" width="1" height="1" fill="#231f20"/>
    <rect x="77" y="75" width="1" height="1" fill="#231f20"/>
    <rect x="2" y="76" width="76" height="1" fill="#231f20"/>
  </g>
</svg>