<?xml version="1.0" encoding="UTF-8"?>
<svg xmlns="http://www.w3.org/2000/svg" viewBox="0 0 172 55" width="172" height="55">
  <!-- Auto-converted from legend-2714.png -->
  <rect x="0" y="0" width="172" height="55" fill="none"/>
  <g fill="#231f20" stroke="none">
    <rect x="0" y="0" width="172" height="1" fill="#231f20"/>
    <rect x="0" y="1" width="1" height="1" fill="#231f20"/>
    <rect x="171" y="1" width="1" height="1" fill="#231f20"/>
    <rect x="0" y="2" width="1" height="1" fill="#231f20"/>
    <rect x="171" y="2" width="1" height="1" fill="#231f20"/>
    <rect x="0" y="3" width="1" height="1" fill="#231f20"/>
    <rect x="171" y="3" width="1" height="1" fill="#231f20"/>
    <rect x="0" y="4" width="1" height="1" fill="#231f20"/>
    <rect x="171" y="4" width="1" height="1" fill="#231f20"/>
    <rect x="0" y="5" width="1" height="1" fill="#231f20"/>
    <rect x="171" y="5" width="1" height="1" fill="#231f20"/>
    <rect x="0" y="6" width="1" height="1" fill="#231f20"/>
    <rect x="171" y="6" width="1" height="1" fill="#231f20"/>
    <rect x="0" y="7" width="1" height="1" fill="#231f20"/>
    <rect x="171" y="7" width="1" height="1" fill="#231f20"/>
    <rect x="0" y="8" width="1" height="1" fill="#231f20"/>
    <rect x="171" y="8" width="1" height="1" fill="#231f20"/>
    <rect x="0" y="9" width="1" height="1" fill="#231f20"/>
    <rect x="171" y="9" width="1" height="1" fill="#231f20"/>
    <rect x="0" y="10" width="1" height="1" fill="#231f20"/>
    <rect x="171" y="10" width="1" height="1" fill="#231f20"/>
    <rect x="0" y="11" width="1" height="1" fill="#231f20"/>
    <rect x="171" y="11" width="1" height="1" fill="#231f20"/>
    <rect x="0" y="12" width="1" height="1" fill="#231f20"/>
    <rect x="171" y="12" width="1" height="1" fill="#231f20"/>
    <rect x="0" y="13" width="1" height="1" fill="#231f20"/>
    <rect x="171" y="13" width="1" height="1" fill="#231f20"/>
    <rect x="0" y="14" width="1" height="1" fill="#231f20"/>
    <rect x="12" y="14" width="2" height="1" fill="#231f20"/>
    <rect x="171" y="14" width="1" height="1" fill="#231f20"/>
    <rect x="0" y="15" width="1" height="1" fill="#231f20"/>
    <rect x="12" y="15" width="3" height="1" fill="#231f20"/>
    <rect x="45" y="15" width="1" height="1" fill="#231f20"/>
    <rect x="70" y="15" width="1" height="1" fill="#231f20"/>
    <rect x="171" y="15" width="1" height="1" fill="#231f20"/>
    <rect x="0" y="16" width="1" height="1" fill="#231f20"/>
    <rect x="13" y="16" width="2" height="1" fill="#231f20"/>
    <rect x="34" y="16" width="13" height="1" fill="#231f20"/>
    <rect x="64" y="16" width="2" height="1" fill="#231f20"/>
    <rect x="70" y="16" width="1" height="1" fill="#231f20"/>
    <rect x="116" y="16" width="2" height="1" fill="#231f20"/>
    <rect x="171" y="16" width="1" height="1" fill="#231f20"/>
    <rect x="0" y="17" width="1" height="1" fill="#231f20"/>
    <rect x="13" y="17" width="2" height="1" fill="#231f20"/>
    <rect x="34" y="17" width="14" height="1" fill="#231f20"/>
    <rect x="60" y="17" width="1" height="1" fill="#231f20"/>
    <rect x="65" y="17" width="2" height="1" fill="#231f20"/>
    <rect x="70" y="17" width="2" height="1" fill="#231f20"/>
    <rect x="111" y="17" width="1" height="1" fill="#231f20"/>
    <rect x="116" y="17" width="3" height="1" fill="#231f20"/>
    <rect x="121" y="17" width="3" height="1" fill="#231f20"/>
    <rect x="151" y="17" width="2" height="1" fill="#231f20"/>
    <rect x="171" y="17" width="1" height="1" fill="#231f20"/>
    <rect x="0" y="18" width="1" height="1" fill="#231f20"/>
    <rect x="13" y="18" width="2" height="1" fill="#231f20"/>
    <rect x="40" y="18" width="2" height="1" fill="#231f20"/>
    <rect x="44" y="18" width="1" height="1" fill="#231f20"/>
    <rect x="60" y="18" width="2" height="1" fill="#231f20"/>
    <rect x="66" y="18" width="2" height="1" fill="#231f20"/>
    <rect x="70" y="18" width="1" height="1" fill="#231f20"/>
    <rect x="111" y="18" width="2" height="1" fill="#231f20"/>
    <rect x="117" y="18" width="1" height="1" fill="#231f20"/>
    <rect x="121" y="18" width="2" height="1" fill="#231f20"/>
    <rect x="146" y="18" width="1" height="1" fill="#231f20"/>
    <rect x="151" y="18" width="3" height="1" fill="#231f20"/>
    <rect x="171" y="18" width="1" height="1" fill="#231f20"/>
    <rect x="0" y="19" width="1" height="1" fill="#231f20"/>
    <rect x="13" y="19" width="2" height="1" fill="#231f20"/>
    <rect x="35" y="19" width="1" height="1" fill="#231f20"/>
    <rect x="40" y="19" width="2" height="1" fill="#231f20"/>
    <rect x="44" y="19" width="2" height="1" fill="#231f20"/>
    <rect x="61" y="19" width="2" height="1" fill="#231f20"/>
    <rect x="66" y="19" width="2" height="1" fill="#231f20"/>
    <rect x="69" y="19" width="2" height="1" fill="#231f20"/>
    <rect x="112" y="19" width="2" height="1" fill="#231f20"/>
    <rect x="117" y="19" width="1" height="1" fill="#231f20"/>
    <rect x="121" y="19" width="2" height="1" fill="#231f20"/>
    <rect x="146" y="19" width="2" height="1" fill="#231f20"/>
    <rect x="151" y="19" width="2" height="1" fill="#231f20"/>
    <rect x="171" y="19" width="1" height="1" fill="#231f20"/>
    <rect x="0" y="20" width="1" height="1" fill="#231f20"/>
    <rect x="13" y="20" width="2" height="1" fill="#231f20"/>
    <rect x="20" y="20" width="1" height="1" fill="#231f20"/>
    <rect x="35" y="20" width="2" height="1" fill="#231f20"/>
    <rect x="40" y="20" width="2" height="1" fill="#231f20"/>
    <rect x="44" y="20" width="3" height="1" fill="#231f20"/>
    <rect x="61" y="20" width="2" height="1" fill="#231f20"/>
    <rect x="66" y="20" width="2" height="1" fill="#231f20"/>
    <rect x="69" y="20" width="2" height="1" fill="#231f20"/>
    <rect x="112" y="20" width="2" height="1" fill="#231f20"/>
    <rect x="117" y="20" width="2" height="1" fill="#231f20"/>
    <rect x="120" y="20" width="1" height="1" fill="#231f20"/>
    <rect x="122" y="20" width="1" height="1" fill="#231f20"/>
    <rect x="147" y="20" width="2" height="1" fill="#231f20"/>
    <rect x="151" y="20" width="2" height="1" fill="#231f20"/>
    <rect x="159" y="20" width="1" height="1" fill="#231f20"/>
    <rect x="171" y="20" width="1" height="1" fill="#231f20"/>
    <rect x="0" y="21" width="1" height="1" fill="#231f20"/>
    <rect x="13" y="21" width="2" height="1" fill="#231f20"/>
    <rect x="19" y="21" width="3" height="1" fill="#231f20"/>
    <rect x="36" y="21" width="2" height="1" fill="#231f20"/>
    <rect x="40" y="21" width="2" height="1" fill="#231f20"/>
    <rect x="44" y="21" width="2" height="1" fill="#231f20"/>
    <rect x="61" y="21" width="2" height="1" fill="#231f20"/>
    <rect x="69" y="21" width="1" height="1" fill="#231f20"/>
    <rect x="72" y="21" width="1" height="1" fill="#231f20"/>
    <rect x="113" y="21" width="10" height="1" fill="#231f20"/>
    <rect x="147" y="21" width="3" height="1" fill="#231f20"/>
    <rect x="151" y="21" width="9" height="1" fill="#231f20"/>
    <rect x="171" y="21" width="1" height="1" fill="#231f20"/>
    <rect x="0" y="22" width="1" height="1" fill="#231f20"/>
    <rect x="7" y="22" width="16" height="1" fill="#231f20"/>
    <rect x="36" y="22" width="2" height="1" fill="#231f20"/>
    <rect x="40" y="22" width="2" height="1" fill="#231f20"/>
    <rect x="44" y="22" width="2" height="1" fill="#231f20"/>
    <rect x="64" y="22" width="10" height="1" fill="#231f20"/>
    <rect x="115" y="22" width="1" height="1" fill="#231f20"/>
    <rect x="117" y="22" width="2" height="1" fill="#231f20"/>
    <rect x="122" y="22" width="2" height="1" fill="#231f20"/>
    <rect x="148" y="22" width="1" height="1" fill="#231f20"/>
    <rect x="151" y="22" width="10" height="1" fill="#231f20"/>
    <rect x="171" y="22" width="1" height="1" fill="#231f20"/>
    <rect x="0" y="23" width="1" height="1" fill="#231f20"/>
    <rect x="8" y="23" width="1" height="1" fill="#231f20"/>
    <rect x="13" y="23" width="3" height="1" fill="#231f20"/>
    <rect x="36" y="23" width="3" height="1" fill="#231f20"/>
    <rect x="41" y="23" width="2" height="1" fill="#231f20"/>
    <rect x="44" y="23" width="1" height="1" fill="#231f20"/>
    <rect x="59" y="23" width="1" height="1" fill="#231f20"/>
    <rect x="64" y="23" width="11" height="1" fill="#231f20"/>
    <rect x="111" y="23" width="1" height="1" fill="#231f20"/>
    <rect x="114" y="23" width="2" height="1" fill="#231f20"/>
    <rect x="117" y="23" width="2" height="1" fill="#231f20"/>
    <rect x="120" y="23" width="1" height="1" fill="#231f20"/>
    <rect x="122" y="23" width="2" height="1" fill="#231f20"/>
    <rect x="125" y="23" width="1" height="1" fill="#231f20"/>
    <rect x="149" y="23" width="3" height="1" fill="#231f20"/>
    <rect x="171" y="23" width="1" height="1" fill="#231f20"/>
    <rect x="0" y="24" width="1" height="1" fill="#231f20"/>
    <rect x="13" y="24" width="3" height="1" fill="#231f20"/>
    <rect x="37" y="24" width="2" height="1" fill="#231f20"/>
    <rect x="41" y="24" width="4" height="1" fill="#231f20"/>
    <rect x="59" y="24" width="2" height="1" fill="#231f20"/>
    <rect x="64" y="24" width="1" height="1" fill="#231f20"/>
    <rect x="68" y="24" width="2" height="1" fill="#231f20"/>
    <rect x="111" y="24" width="2" height="1" fill="#231f20"/>
    <rect x="114" y="24" width="13" height="1" fill="#231f20"/>
    <rect x="146" y="24" width="1" height="1" fill="#231f20"/>
    <rect x="149" y="24" width="3" height="1" fill="#231f20"/>
    <rect x="158" y="24" width="1" height="1" fill="#231f20"/>
    <rect x="171" y="24" width="1" height="1" fill="#231f20"/>
    <rect x="0" y="25" width="1" height="1" fill="#231f20"/>
    <rect x="13" y="25" width="3" height="1" fill="#231f20"/>
    <rect x="37" y="25" width="2" height="1" fill="#231f20"/>
    <rect x="41" y="25" width="3" height="1" fill="#231f20"/>
    <rect x="47" y="25" width="1" height="1" fill="#231f20"/>
    <rect x="59" y="25" width="3" height="1" fill="#231f20"/>
    <rect x="63" y="25" width="2" height="1" fill="#231f20"/>
    <rect x="68" y="25" width="2" height="1" fill="#231f20"/>
    <rect x="72" y="25" width="1" height="1" fill="#231f20"/>
    <rect x="112" y="25" width="14" height="1" fill="#231f20"/>
    <rect x="146" y="25" width="2" height="1" fill="#231f20"/>
    <rect x="149" y="25" width="11" height="1" fill="#231f20"/>
    <rect x="171" y="25" width="1" height="1" fill="#231f20"/>
    <rect x="0" y="26" width="1" height="1" fill="#231f20"/>
    <rect x="13" y="26" width="4" height="1" fill="#231f20"/>
    <rect x="38" y="26" width="1" height="1" fill="#231f20"/>
    <rect x="41" y="26" width="3" height="1" fill="#231f20"/>
    <rect x="47" y="26" width="2" height="1" fill="#231f20"/>
    <rect x="60" y="26" width="4" height="1" fill="#231f20"/>
    <rect x="68" y="26" width="2" height="1" fill="#231f20"/>
    <rect x="72" y="26" width="2" height="1" fill="#231f20"/>
    <rect x="112" y="26" width="4" height="1" fill="#231f20"/>
    <rect x="120" y="26" width="4" height="1" fill="#231f20"/>
    <rect x="125" y="26" width="1" height="1" fill="#231f20"/>
    <rect x="147" y="26" width="1" height="1" fill="#231f20"/>
    <rect x="149" y="26" width="4" height="1" fill="#231f20"/>
    <rect x="154" y="26" width="1" height="1" fill="#231f20"/>
    <rect x="158" y="26" width="2" height="1" fill="#231f20"/>
    <rect x="171" y="26" width="1" height="1" fill="#231f20"/>
    <rect x="0" y="27" width="1" height="1" fill="#231f20"/>
    <rect x="13" y="27" width="2" height="1" fill="#231f20"/>
    <rect x="16" y="27" width="1" height="1" fill="#231f20"/>
    <rect x="33" y="27" width="16" height="1" fill="#231f20"/>
    <rect x="61" y="27" width="1" height="1" fill="#231f20"/>
    <rect x="63" y="27" width="1" height="1" fill="#231f20"/>
    <rect x="65" y="27" width="10" height="1" fill="#231f20"/>
    <rect x="113" y="27" width="3" height="1" fill="#231f20"/>
    <rect x="120" y="27" width="1" height="1" fill="#231f20"/>
    <rect x="122" y="27" width="2" height="1" fill="#231f20"/>
    <rect x="125" y="27" width="2" height="1" fill="#231f20"/>
    <rect x="147" y="27" width="6" height="1" fill="#231f20"/>
    <rect x="154" y="27" width="2" height="1" fill="#231f20"/>
    <rect x="158" y="27" width="2" height="1" fill="#231f20"/>
    <rect x="171" y="27" width="1" height="1" fill="#231f20"/>
    <rect x="0" y="28" width="1" height="1" fill="#231f20"/>
    <rect x="13" y="28" width="2" height="1" fill="#231f20"/>
    <rect x="16" y="28" width="2" height="1" fill="#231f20"/>
    <rect x="34" y="28" width="16" height="1" fill="#231f20"/>
    <rect x="61" y="28" width="1" height="1" fill="#231f20"/>
    <rect x="63" y="28" width="1" height="1" fill="#231f20"/>
    <rect x="65" y="28" width="1" height="1" fill="#231f20"/>
    <rect x="68" y="28" width="2" height="1" fill="#231f20"/>
    <rect x="114" y="28" width="1" height="1" fill="#231f20"/>
    <rect x="116" y="28" width="5" height="1" fill="#231f20"/>
    <rect x="122" y="28" width="2" height="1" fill="#231f20"/>
    <rect x="125" y="28" width="2" height="1" fill="#231f20"/>
    <rect x="148" y="28" width="2" height="1" fill="#231f20"/>
    <rect x="152" y="28" width="1" height="1" fill="#231f20"/>
    <rect x="155" y="28" width="2" height="1" fill="#231f20"/>
    <rect x="158" y="28" width="2" height="1" fill="#231f20"/>
    <rect x="171" y="28" width="1" height="1" fill="#231f20"/>
    <rect x="0" y="29" width="1" height="1" fill="#231f20"/>
    <rect x="13" y="29" width="2" height="1" fill="#231f20"/>
    <rect x="16" y="29" width="2" height="1" fill="#231f20"/>
    <rect x="41" y="29" width="2" height="1" fill="#231f20"/>
    <rect x="62" y="29" width="2" height="1" fill="#231f20"/>
    <rect x="68" y="29" width="2" height="1" fill="#231f20"/>
    <rect x="113" y="29" width="2" height="1" fill="#231f20"/>
    <rect x="116" y="29" width="1" height="1" fill="#231f20"/>
    <rect x="119" y="29" width="5" height="1" fill="#231f20"/>
    <rect x="125" y="29" width="2" height="1" fill="#231f20"/>
    <rect x="149" y="29" width="1" height="1" fill="#231f20"/>
    <rect x="152" y="29" width="2" height="1" fill="#231f20"/>
    <rect x="155" y="29" width="2" height="1" fill="#231f20"/>
    <rect x="158" y="29" width="2" height="1" fill="#231f20"/>
    <rect x="161" y="29" width="1" height="1" fill="#231f20"/>
    <rect x="171" y="29" width="1" height="1" fill="#231f20"/>
    <rect x="0" y="30" width="1" height="1" fill="#231f20"/>
    <rect x="13" y="30" width="2" height="1" fill="#231f20"/>
    <rect x="17" y="30" width="1" height="1" fill="#231f20"/>
    <rect x="41" y="30" width="2" height="1" fill="#231f20"/>
    <rect x="62" y="30" width="2" height="1" fill="#231f20"/>
    <rect x="69" y="30" width="2" height="1" fill="#231f20"/>
    <rect x="113" y="30" width="2" height="1" fill="#231f20"/>
    <rect x="118" y="30" width="2" height="1" fill="#231f20"/>
    <rect x="122" y="30" width="2" height="1" fill="#231f20"/>
    <rect x="125" y="30" width="2" height="1" fill="#231f20"/>
    <rect x="149" y="30" width="1" height="1" fill="#231f20"/>
    <rect x="152" y="30" width="2" height="1" fill="#231f20"/>
    <rect x="156" y="30" width="1" height="1" fill="#231f20"/>
    <rect x="158" y="30" width="4" height="1" fill="#231f20"/>
    <rect x="171" y="30" width="1" height="1" fill="#231f20"/>
    <rect x="0" y="31" width="1" height="1" fill="#231f20"/>
    <rect x="13" y="31" width="2" height="1" fill="#231f20"/>
    <rect x="17" y="31" width="2" height="1" fill="#231f20"/>
    <rect x="41" y="31" width="2" height="1" fill="#231f20"/>
    <rect x="62" y="31" width="2" height="1" fill="#231f20"/>
    <rect x="69" y="31" width="2" height="1" fill="#231f20"/>
    <rect x="74" y="31" width="1" height="1" fill="#231f20"/>
    <rect x="113" y="31" width="2" height="1" fill="#231f20"/>
    <rect x="118" y="31" width="2" height="1" fill="#231f20"/>
    <rect x="122" y="31" width="2" height="1" fill="#231f20"/>
    <rect x="125" y="31" width="2" height="1" fill="#231f20"/>
    <rect x="149" y="31" width="14" height="1" fill="#231f20"/>
    <rect x="171" y="31" width="1" height="1" fill="#231f20"/>
    <rect x="0" y="32" width="1" height="1" fill="#231f20"/>
    <rect x="12" y="32" width="3" height="1" fill="#231f20"/>
    <rect x="18" y="32" width="1" height="1" fill="#231f20"/>
    <rect x="41" y="32" width="2" height="1" fill="#231f20"/>
    <rect x="62" y="32" width="13" height="1" fill="#231f20"/>
    <rect x="113" y="32" width="2" height="1" fill="#231f20"/>
    <rect x="118" y="32" width="6" height="1" fill="#231f20"/>
    <rect x="125" y="32" width="2" height="1" fill="#231f20"/>
    <rect x="149" y="32" width="2" height="1" fill="#231f20"/>
    <rect x="152" y="32" width="4" height="1" fill="#231f20"/>
    <rect x="158" y="32" width="2" height="1" fill="#231f20"/>
    <rect x="171" y="32" width="1" height="1" fill="#231f20"/>
    <rect x="0" y="33" width="1" height="1" fill="#231f20"/>
    <rect x="12" y="33" width="4" height="1" fill="#231f20"/>
    <rect x="18" y="33" width="2" height="1" fill="#231f20"/>
    <rect x="41" y="33" width="2" height="1" fill="#231f20"/>
    <rect x="60" y="33" width="16" height="1" fill="#231f20"/>
    <rect x="112" y="33" width="3" height="1" fill="#231f20"/>
    <rect x="118" y="33" width="6" height="1" fill="#231f20"/>
    <rect x="125" y="33" width="2" height="1" fill="#231f20"/>
    <rect x="149" y="33" width="1" height="1" fill="#231f20"/>
    <rect x="152" y="33" width="4" height="1" fill="#231f20"/>
    <rect x="158" y="33" width="2" height="1" fill="#231f20"/>
    <rect x="171" y="33" width="1" height="1" fill="#231f20"/>
    <rect x="0" y="34" width="1" height="1" fill="#231f20"/>
    <rect x="11" y="34" width="3" height="1" fill="#231f20"/>
    <rect x="15" y="34" width="2" height="1" fill="#231f20"/>
    <rect x="19" y="34" width="2" height="1" fill="#231f20"/>
    <rect x="41" y="34" width="2" height="1" fill="#231f20"/>
    <rect x="60" y="34" width="4" height="1" fill="#231f20"/>
    <rect x="69" y="34" width="2" height="1" fill="#231f20"/>
    <rect x="112" y="34" width="8" height="1" fill="#231f20"/>
    <rect x="122" y="34" width="2" height="1" fill="#231f20"/>
    <rect x="125" y="34" width="2" height="1" fill="#231f20"/>
    <rect x="148" y="34" width="2" height="1" fill="#231f20"/>
    <rect x="152" y="34" width="2" height="1" fill="#231f20"/>
    <rect x="155" y="34" width="2" height="1" fill="#231f20"/>
    <rect x="158" y="34" width="2" height="1" fill="#231f20"/>
    <rect x="171" y="34" width="1" height="1" fill="#231f20"/>
    <rect x="0" y="35" width="1" height="1" fill="#231f20"/>
    <rect x="11" y="35" width="2" height="1" fill="#231f20"/>
    <rect x="15" y="35" width="3" height="1" fill="#231f20"/>
    <rect x="19" y="35" width="3" height="1" fill="#231f20"/>
    <rect x="41" y="35" width="2" height="1" fill="#231f20"/>
    <rect x="61" y="35" width="3" height="1" fill="#231f20"/>
    <rect x="69" y="35" width="2" height="1" fill="#231f20"/>
    <rect x="113" y="35" width="7" height="1" fill="#231f20"/>
    <rect x="122" y="35" width="2" height="1" fill="#231f20"/>
    <rect x="125" y="35" width="2" height="1" fill="#231f20"/>
    <rect x="147" y="35" width="3" height="1" fill="#231f20"/>
    <rect x="152" y="35" width="2" height="1" fill="#231f20"/>
    <rect x="155" y="35" width="2" height="1" fill="#231f20"/>
    <rect x="159" y="35" width="1" height="1" fill="#231f20"/>
    <rect x="171" y="35" width="1" height="1" fill="#231f20"/>
    <rect x="0" y="36" width="1" height="1" fill="#231f20"/>
    <rect x="10" y="36" width="2" height="1" fill="#231f20"/>
    <rect x="15" y="36" width="3" height="1" fill="#231f20"/>
    <rect x="20" y="36" width="4" height="1" fill="#231f20"/>
    <rect x="42" y="36" width="1" height="1" fill="#231f20"/>
    <rect x="61" y="36" width="3" height="1" fill="#231f20"/>
    <rect x="69" y="36" width="2" height="1" fill="#231f20"/>
    <rect x="113" y="36" width="2" height="1" fill="#231f20"/>
    <rect x="116" y="36" width="1" height="1" fill="#231f20"/>
    <rect x="118" y="36" width="2" height="1" fill="#231f20"/>
    <rect x="122" y="36" width="2" height="1" fill="#231f20"/>
    <rect x="125" y="36" width="2" height="1" fill="#231f20"/>
    <rect x="148" y="36" width="2" height="1" fill="#231f20"/>
    <rect x="152" y="36" width="2" height="1" fill="#231f20"/>
    <rect x="156" y="36" width="1" height="1" fill="#231f20"/>
    <rect x="159" y="36" width="1" height="1" fill="#231f20"/>
    <rect x="161" y="36" width="1" height="1" fill="#231f20"/>
    <rect x="171" y="36" width="1" height="1" fill="#231f20"/>
    <rect x="0" y="37" width="1" height="1" fill="#231f20"/>
    <rect x="10" y="37" width="2" height="1" fill="#231f20"/>
    <rect x="16" y="37" width="2" height="1" fill="#231f20"/>
    <rect x="20" y="37" width="5" height="1" fill="#231f20"/>
    <rect x="42" y="37" width="2" height="1" fill="#231f20"/>
    <rect x="62" y="37" width="2" height="1" fill="#231f20"/>
    <rect x="69" y="37" width="2" height="1" fill="#231f20"/>
    <rect x="113" y="37" width="2" height="1" fill="#231f20"/>
    <rect x="119" y="37" width="1" height="1" fill="#231f20"/>
    <rect x="122" y="37" width="1" height="1" fill="#231f20"/>
    <rect x="125" y="37" width="2" height="1" fill="#231f20"/>
    <rect x="148" y="37" width="2" height="1" fill="#231f20"/>
    <rect x="151" y="37" width="11" height="1" fill="#231f20"/>
    <rect x="171" y="37" width="1" height="1" fill="#231f20"/>
    <rect x="0" y="38" width="1" height="1" fill="#231f20"/>
    <rect x="9" y="38" width="2" height="1" fill="#231f20"/>
    <rect x="21" y="38" width="4" height="1" fill="#231f20"/>
    <rect x="42" y="38" width="2" height="1" fill="#231f20"/>
    <rect x="62" y="38" width="2" height="1" fill="#231f20"/>
    <rect x="69" y="38" width="3" height="1" fill="#231f20"/>
    <rect x="113" y="38" width="2" height="1" fill="#231f20"/>
    <rect x="119" y="38" width="1" height="1" fill="#231f20"/>
    <rect x="122" y="38" width="1" height="1" fill="#231f20"/>
    <rect x="125" y="38" width="2" height="1" fill="#231f20"/>
    <rect x="148" y="38" width="2" height="1" fill="#231f20"/>
    <rect x="151" y="38" width="12" height="1" fill="#231f20"/>
    <rect x="171" y="38" width="1" height="1" fill="#231f20"/>
    <rect x="0" y="39" width="1" height="1" fill="#231f20"/>
    <rect x="8" y="39" width="3" height="1" fill="#231f20"/>
    <rect x="22" y="39" width="1" height="1" fill="#231f20"/>
    <rect x="42" y="39" width="2" height="1" fill="#231f20"/>
    <rect x="62" y="39" width="2" height="1" fill="#231f20"/>
    <rect x="70" y="39" width="2" height="1" fill="#231f20"/>
    <rect x="113" y="39" width="2" height="1" fill="#231f20"/>
    <rect x="117" y="39" width="3" height="1" fill="#231f20"/>
    <rect x="121" y="39" width="3" height="1" fill="#231f20"/>
    <rect x="125" y="39" width="2" height="1" fill="#231f20"/>
    <rect x="148" y="39" width="2" height="1" fill="#231f20"/>
    <rect x="152" y="39" width="1" height="1" fill="#231f20"/>
    <rect x="159" y="39" width="1" height="1" fill="#231f20"/>
    <rect x="171" y="39" width="1" height="1" fill="#231f20"/>
    <rect x="0" y="40" width="1" height="1" fill="#231f20"/>
    <rect x="8" y="40" width="1" height="1" fill="#231f20"/>
    <rect x="42" y="40" width="2" height="1" fill="#231f20"/>
    <rect x="62" y="40" width="2" height="1" fill="#231f20"/>
    <rect x="70" y="40" width="2" height="1" fill="#231f20"/>
    <rect x="113" y="40" width="2" height="1" fill="#231f20"/>
    <rect x="117" y="40" width="5" height="1" fill="#231f20"/>
    <rect x="123" y="40" width="4" height="1" fill="#231f20"/>
    <rect x="148" y="40" width="2" height="1" fill="#231f20"/>
    <rect x="156" y="40" width="5" height="1" fill="#231f20"/>
    <rect x="171" y="40" width="1" height="1" fill="#231f20"/>
    <rect x="0" y="41" width="1" height="1" fill="#231f20"/>
    <rect x="70" y="41" width="2" height="1" fill="#231f20"/>
    <rect x="114" y="41" width="1" height="1" fill="#231f20"/>
    <rect x="118" y="41" width="4" height="1" fill="#231f20"/>
    <rect x="124" y="41" width="3" height="1" fill="#231f20"/>
    <rect x="149" y="41" width="2" height="1" fill="#231f20"/>
    <rect x="156" y="41" width="5" height="1" fill="#231f20"/>
    <rect x="171" y="41" width="1" height="1" fill="#231f20"/>
    <rect x="0" y="42" width="1" height="1" fill="#231f20"/>
    <rect x="119" y="42" width="2" height="1" fill="#231f20"/>
    <rect x="125" y="42" width="1" height="1" fill="#231f20"/>
    <rect x="149" y="42" width="1" height="1" fill="#231f20"/>
    <rect x="157" y="42" width="3" height="1" fill="#231f20"/>
    <rect x="171" y="42" width="1" height="1" fill="#231f20"/>
    <rect x="0" y="43" width="1" height="1" fill="#231f20"/>
    <rect x="158" y="43" width="1" height="1" fill="#231f20"/>
    <rect x="171" y="43" width="1" height="1" fill="#231f20"/>
    <rect x="0" y="44" width="1" height="1" fill="#231f20"/>
    <rect x="171" y="44" width="1" height="1" fill="#231f20"/>
    <rect x="0" y="45" width="1" height="1" fill="#231f20"/>
    <rect x="171" y="45" width="1" height="1" fill="#231f20"/>
    <rect x="0" y="46" width="1" height="1" fill="#231f20"/>
    <rect x="171" y="46" width="1" height="1" fill="#231f20"/>
    <rect x="0" y="47" width="1" height="1" fill="#231f20"/>
    <rect x="171" y="47" width="1" height="1" fill="#231f20"/>
    <rect x="0" y="48" width="1" height="1" fill="#231f20"/>
    <rect x="171" y="48" width="1" height="1" fill="#231f20"/>
    <rect x="0" y="49" width="1" height="1" fill="#231f20"/>
    <rect x="171" y="49" width="1" height="1" fill="#231f20"/>
    <rect x="0" y="50" width="1" height="1" fill="#231f20"/>
    <rect x="171" y="50" width="1" height="1" fill="#231f20"/>
    <rect x="0" y="51" width="1" height="1" fill="#231f20"/>
    <rect x="171" y="51" width="1" height="1" fill="#231f20"/>
    <rect x="0" y="52" width="1" height="1" fill="#231f20"/>
    <rect x="171" y="52" width="1" height="1" fill="#231f20"/>
    <rect x="0" y="53" width="1" height="1" fill="#231f20"/>
    <rect x="171" y="53" width="1" height="1" fill="#231f20"/>
    <rect x="0" y="54" width="172" height="1" fill="#231f20"/>
  </g>
</svg>