<?xml version="1.0" encoding="UTF-8"?>
<svg xmlns="http://www.w3.org/2000/svg" viewBox="0 0 125 83" width="125" height="83">
  <!-- Auto-converted from legend-438.png -->
  <rect x="0" y="0" width="125" height="83" fill="none"/>
  <g fill="#231f20" stroke="none">
    <rect x="1" y="0" width="124" height="1" fill="#231f20"/>
    <rect x="1" y="1" width="1" height="1" fill="#231f20"/>
    <rect x="124" y="1" width="1" height="1" fill="#231f20"/>
    <rect x="1" y="2" width="1" height="1" fill="#231f20"/>
    <rect x="124" y="2" width="1" height="1" fill="#231f20"/>
    <rect x="1" y="3" width="1" height="1" fill="#231f20"/>
    <rect x="124" y="3" width="1" height="1" fill="#231f20"/>
    <rect x="1" y="4" width="1" height="1" fill="#231f20"/>
    <rect x="124" y="4" width="1" height="1" fill="#231f20"/>
    <rect x="1" y="5" width="1" height="1" fill="#231f20"/>
    <rect x="70" y="5" width="12" height="1" fill="#231f20"/>
    <rect x="124" y="5" width="1" height="1" fill="#231f20"/>
    <rect x="1" y="6" width="1" height="1" fill="#231f20"/>
    <rect x="66" y="6" width="20" height="1" fill="#231f20"/>
    <rect x="124" y="6" width="1" height="1" fill="#231f20"/>
    <rect x="1" y="7" width="1" height="1" fill="#231f20"/>
    <rect x="62" y="7" width="27" height="1" fill="#231f20"/>
    <rect x="124" y="7" width="1" height="1" fill="#231f20"/>
    <rect x="1" y="8" width="1" height="1" fill="#231f20"/>
    <rect x="58" y="8" width="12" height="1" fill="#231f20"/>
    <rect x="82" y="8" width="10" height="1" fill="#231f20"/>
    <rect x="124" y="8" width="1" height="1" fill="#231f20"/>
    <rect x="1" y="9" width="1" height="1" fill="#231f20"/>
    <rect x="54" y="9" width="12" height="1" fill="#231f20"/>
    <rect x="86" y="9" width="9" height="1" fill="#231f20"/>
    <rect x="124" y="9" width="1" height="1" fill="#231f20"/>
    <rect x="1" y="10" width="1" height="1" fill="#231f20"/>
    <rect x="51" y="10" width="11" height="1" fill="#231f20"/>
    <rect x="89" y="10" width="9" height="1" fill="#231f20"/>
    <rect x="124" y="10" width="1" height="1" fill="#231f20"/>
    <rect x="1" y="11" width="1" height="1" fill="#231f20"/>
    <rect x="49" y="11" width="9" height="1" fill="#231f20"/>
    <rect x="92" y="11" width="7" height="1" fill="#231f20"/>
    <rect x="124" y="11" width="1" height="1" fill="#231f20"/>
    <rect x="1" y="12" width="1" height="1" fill="#231f20"/>
    <rect x="47" y="12" width="7" height="1" fill="#231f20"/>
    <rect x="95" y="12" width="5" height="1" fill="#231f20"/>
    <rect x="124" y="12" width="1" height="1" fill="#231f20"/>
    <rect x="1" y="13" width="1" height="1" fill="#231f20"/>
    <rect x="45" y="13" width="6" height="1" fill="#231f20"/>
    <rect x="96" y="13" width="5" height="1" fill="#231f20"/>
    <rect x="124" y="13" width="1" height="1" fill="#231f20"/>
    <rect x="1" y="14" width="1" height="1" fill="#231f20"/>
    <rect x="43" y="14" width="6" height="1" fill="#231f20"/>
    <rect x="97" y="14" width="5" height="1" fill="#231f20"/>
    <rect x="124" y="14" width="1" height="1" fill="#231f20"/>
    <rect x="1" y="15" width="1" height="1" fill="#231f20"/>
    <rect x="42" y="15" width="5" height="1" fill="#231f20"/>
    <rect x="98" y="15" width="5" height="1" fill="#231f20"/>
    <rect x="124" y="15" width="1" height="1" fill="#231f20"/>
    <rect x="1" y="16" width="1" height="1" fill="#231f20"/>
    <rect x="41" y="16" width="5" height="1" fill="#231f20"/>
    <rect x="99" y="16" width="5" height="1" fill="#231f20"/>
    <rect x="124" y="16" width="1" height="1" fill="#231f20"/>
    <rect x="1" y="17" width="1" height="1" fill="#231f20"/>
    <rect x="40" y="17" width="23" height="1" fill="#231f20"/>
    <rect x="79" y="17" width="26" height="1" fill="#231f20"/>
    <rect x="124" y="17" width="1" height="1" fill="#231f20"/>
    <rect x="1" y="18" width="1" height="1" fill="#231f20"/>
    <rect x="38" y="18" width="26" height="1" fill="#231f20"/>
    <rect x="78" y="18" width="27" height="1" fill="#231f20"/>
    <rect x="124" y="18" width="1" height="1" fill="#231f20"/>
    <rect x="1" y="19" width="1" height="1" fill="#231f20"/>
    <rect x="36" y="19" width="27" height="1" fill="#231f20"/>
    <rect x="79" y="19" width="27" height="1" fill="#231f20"/>
    <rect x="124" y="19" width="1" height="1" fill="#231f20"/>
    <rect x="1" y="20" width="1" height="1" fill="#231f20"/>
    <rect x="35" y="20" width="5" height="1" fill="#231f20"/>
    <rect x="102" y="20" width="4" height="1" fill="#231f20"/>
    <rect x="124" y="20" width="1" height="1" fill="#231f20"/>
    <rect x="1" y="21" width="1" height="1" fill="#231f20"/>
    <rect x="34" y="21" width="5" height="1" fill="#231f20"/>
    <rect x="103" y="21" width="3" height="1" fill="#231f20"/>
    <rect x="124" y="21" width="1" height="1" fill="#231f20"/>
    <rect x="1" y="22" width="1" height="1" fill="#231f20"/>
    <rect x="33" y="22" width="5" height="1" fill="#231f20"/>
    <rect x="104" y="22" width="3" height="1" fill="#231f20"/>
    <rect x="124" y="22" width="1" height="1" fill="#231f20"/>
    <rect x="1" y="23" width="1" height="1" fill="#231f20"/>
    <rect x="32" y="23" width="5" height="1" fill="#231f20"/>
    <rect x="104" y="23" width="3" height="1" fill="#231f20"/>
    <rect x="124" y="23" width="1" height="1" fill="#231f20"/>
    <rect x="1" y="24" width="1" height="1" fill="#231f20"/>
    <rect x="31" y="24" width="5" height="1" fill="#231f20"/>
    <rect x="105" y="24" width="3" height="1" fill="#231f20"/>
    <rect x="124" y="24" width="1" height="1" fill="#231f20"/>
    <rect x="1" y="25" width="1" height="1" fill="#231f20"/>
    <rect x="30" y="25" width="5" height="1" fill="#231f20"/>
    <rect x="105" y="25" width="3" height="1" fill="#231f20"/>
    <rect x="124" y="25" width="1" height="1" fill="#231f20"/>
    <rect x="1" y="26" width="1" height="1" fill="#231f20"/>
    <rect x="29" y="26" width="5" height="1" fill="#231f20"/>
    <rect x="105" y="26" width="3" height="1" fill="#231f20"/>
    <rect x="124" y="26" width="1" height="1" fill="#231f20"/>
    <rect x="1" y="27" width="1" height="1" fill="#231f20"/>
    <rect x="28" y="27" width="5" height="1" fill="#231f20"/>
    <rect x="105" y="27" width="3" height="1" fill="#231f20"/>
    <rect x="124" y="27" width="1" height="1" fill="#231f20"/>
    <rect x="1" y="28" width="1" height="1" fill="#231f20"/>
    <rect x="27" y="28" width="5" height="1" fill="#231f20"/>
    <rect x="105" y="28" width="3" height="1" fill="#231f20"/>
    <rect x="124" y="28" width="1" height="1" fill="#231f20"/>
    <rect x="1" y="29" width="1" height="1" fill="#231f20"/>
    <rect x="26" y="29" width="5" height="1" fill="#231f20"/>
    <rect x="105" y="29" width="3" height="1" fill="#231f20"/>
    <rect x="124" y="29" width="1" height="1" fill="#231f20"/>
    <rect x="1" y="30" width="1" height="1" fill="#231f20"/>
    <rect x="26" y="30" width="4" height="1" fill="#231f20"/>
    <rect x="105" y="30" width="3" height="1" fill="#231f20"/>
    <rect x="124" y="30" width="1" height="1" fill="#231f20"/>
    <rect x="1" y="31" width="1" height="1" fill="#231f20"/>
    <rect x="25" y="31" width="4" height="1" fill="#231f20"/>
    <rect x="105" y="31" width="3" height="1" fill="#231f20"/>
    <rect x="124" y="31" width="1" height="1" fill="#231f20"/>
    <rect x="1" y="32" width="1" height="1" fill="#231f20"/>
    <rect x="24" y="32" width="5" height="1" fill="#231f20"/>
    <rect x="105" y="32" width="3" height="1" fill="#231f20"/>
    <rect x="124" y="32" width="1" height="1" fill="#231f20"/>
    <rect x="1" y="33" width="1" height="1" fill="#231f20"/>
    <rect x="24" y="33" width="15" height="1" fill="#231f20"/>
    <rect x="54" y="33" width="34" height="1" fill="#231f20"/>
    <rect x="104" y="33" width="4" height="1" fill="#231f20"/>
    <rect x="124" y="33" width="1" height="1" fill="#231f20"/>
    <rect x="1" y="34" width="1" height="1" fill="#231f20"/>
    <rect x="23" y="34" width="17" height="1" fill="#231f20"/>
    <rect x="53" y="34" width="36" height="1" fill="#231f20"/>
    <rect x="103" y="34" width="5" height="1" fill="#231f20"/>
    <rect x="124" y="34" width="1" height="1" fill="#231f20"/>
    <rect x="1" y="35" width="1" height="1" fill="#231f20"/>
    <rect x="22" y="35" width="17" height="1" fill="#231f20"/>
    <rect x="54" y="35" width="34" height="1" fill="#231f20"/>
    <rect x="104" y="35" width="4" height="1" fill="#231f20"/>
    <rect x="124" y="35" width="1" height="1" fill="#231f20"/>
    <rect x="1" y="36" width="1" height="1" fill="#231f20"/>
    <rect x="22" y="36" width="4" height="1" fill="#231f20"/>
    <rect x="105" y="36" width="3" height="1" fill="#231f20"/>
    <rect x="124" y="36" width="1" height="1" fill="#231f20"/>
    <rect x="1" y="37" width="1" height="1" fill="#231f20"/>
    <rect x="21" y="37" width="4" height="1" fill="#231f20"/>
    <rect x="104" y="37" width="3" height="1" fill="#231f20"/>
    <rect x="124" y="37" width="1" height="1" fill="#231f20"/>
    <rect x="1" y="38" width="1" height="1" fill="#231f20"/>
    <rect x="20" y="38" width="5" height="1" fill="#231f20"/>
    <rect x="104" y="38" width="3" height="1" fill="#231f20"/>
    <rect x="124" y="38" width="1" height="1" fill="#231f20"/>
    <rect x="1" y="39" width="1" height="1" fill="#231f20"/>
    <rect x="20" y="39" width="4" height="1" fill="#231f20"/>
    <rect x="104" y="39" width="3" height="1" fill="#231f20"/>
    <rect x="124" y="39" width="1" height="1" fill="#231f20"/>
    <rect x="1" y="40" width="1" height="1" fill="#231f20"/>
    <rect x="19" y="40" width="4" height="1" fill="#231f20"/>
    <rect x="103" y="40" width="3" height="1" fill="#231f20"/>
    <rect x="124" y="40" width="1" height="1" fill="#231f20"/>
    <rect x="1" y="41" width="1" height="1" fill="#231f20"/>
    <rect x="19" y="41" width="4" height="1" fill="#231f20"/>
    <rect x="103" y="41" width="3" height="1" fill="#231f20"/>
    <rect x="124" y="41" width="1" height="1" fill="#231f20"/>
    <rect x="1" y="42" width="1" height="1" fill="#231f20"/>
    <rect x="19" y="42" width="3" height="1" fill="#231f20"/>
    <rect x="103" y="42" width="3" height="1" fill="#231f20"/>
    <rect x="124" y="42" width="1" height="1" fill="#231f20"/>
    <rect x="1" y="43" width="1" height="1" fill="#231f20"/>
    <rect x="18" y="43" width="3" height="1" fill="#231f20"/>
    <rect x="102" y="43" width="3" height="1" fill="#231f20"/>
    <rect x="124" y="43" width="1" height="1" fill="#231f20"/>
    <rect x="1" y="44" width="1" height="1" fill="#231f20"/>
    <rect x="18" y="44" width="3" height="1" fill="#231f20"/>
    <rect x="101" y="44" width="4" height="1" fill="#231f20"/>
    <rect x="124" y="44" width="1" height="1" fill="#231f20"/>
    <rect x="1" y="45" width="1" height="1" fill="#231f20"/>
    <rect x="18" y="45" width="3" height="1" fill="#231f20"/>
    <rect x="101" y="45" width="4" height="1" fill="#231f20"/>
    <rect x="124" y="45" width="1" height="1" fill="#231f20"/>
    <rect x="1" y="46" width="1" height="1" fill="#231f20"/>
    <rect x="18" y="46" width="3" height="1" fill="#231f20"/>
    <rect x="100" y="46" width="4" height="1" fill="#231f20"/>
    <rect x="124" y="46" width="1" height="1" fill="#231f20"/>
    <rect x="1" y="47" width="1" height="1" fill="#231f20"/>
    <rect x="17" y="47" width="3" height="1" fill="#231f20"/>
    <rect x="100" y="47" width="4" height="1" fill="#231f20"/>
    <rect x="124" y="47" width="1" height="1" fill="#231f20"/>
    <rect x="1" y="48" width="1" height="1" fill="#231f20"/>
    <rect x="17" y="48" width="3" height="1" fill="#231f20"/>
    <rect x="100" y="48" width="3" height="1" fill="#231f20"/>
    <rect x="124" y="48" width="1" height="1" fill="#231f20"/>
    <rect x="1" y="49" width="1" height="1" fill="#231f20"/>
    <rect x="17" y="49" width="5" height="1" fill="#231f20"/>
    <rect x="99" y="49" width="3" height="1" fill="#231f20"/>
    <rect x="124" y="49" width="1" height="1" fill="#231f20"/>
    <rect x="1" y="50" width="1" height="1" fill="#231f20"/>
    <rect x="17" y="50" width="6" height="1" fill="#231f20"/>
    <rect x="38" y="50" width="25" height="1" fill="#231f20"/>
    <rect x="79" y="50" width="23" height="1" fill="#231f20"/>
    <rect x="124" y="50" width="1" height="1" fill="#231f20"/>
    <rect x="1" y="51" width="1" height="1" fill="#231f20"/>
    <rect x="17" y="51" width="5" height="1" fill="#231f20"/>
    <rect x="37" y="51" width="27" height="1" fill="#231f20"/>
    <rect x="78" y="51" width="23" height="1" fill="#231f20"/>
    <rect x="124" y="51" width="1" height="1" fill="#231f20"/>
    <rect x="1" y="52" width="1" height="1" fill="#231f20"/>
    <rect x="17" y="52" width="3" height="1" fill="#231f20"/>
    <rect x="38" y="52" width="25" height="1" fill="#231f20"/>
    <rect x="79" y="52" width="22" height="1" fill="#231f20"/>
    <rect x="124" y="52" width="1" height="1" fill="#231f20"/>
    <rect x="1" y="53" width="1" height="1" fill="#231f20"/>
    <rect x="16" y="53" width="3" height="1" fill="#231f20"/>
    <rect x="96" y="53" width="4" height="1" fill="#231f20"/>
    <rect x="124" y="53" width="1" height="1" fill="#231f20"/>
    <rect x="1" y="54" width="1" height="1" fill="#231f20"/>
    <rect x="16" y="54" width="3" height="1" fill="#231f20"/>
    <rect x="95" y="54" width="5" height="1" fill="#231f20"/>
    <rect x="124" y="54" width="1" height="1" fill="#231f20"/>
    <rect x="1" y="55" width="1" height="1" fill="#231f20"/>
    <rect x="16" y="55" width="3" height="1" fill="#231f20"/>
    <rect x="94" y="55" width="5" height="1" fill="#231f20"/>
    <rect x="124" y="55" width="1" height="1" fill="#231f20"/>
    <rect x="1" y="56" width="1" height="1" fill="#231f20"/>
    <rect x="17" y="56" width="3" height="1" fill="#231f20"/>
    <rect x="93" y="56" width="5" height="1" fill="#231f20"/>
    <rect x="124" y="56" width="1" height="1" fill="#231f20"/>
    <rect x="1" y="57" width="1" height="1" fill="#231f20"/>
    <rect x="17" y="57" width="3" height="1" fill="#231f20"/>
    <rect x="92" y="57" width="5" height="1" fill="#231f20"/>
    <rect x="124" y="57" width="1" height="1" fill="#231f20"/>
    <rect x="1" y="58" width="1" height="1" fill="#231f20"/>
    <rect x="17" y="58" width="3" height="1" fill="#231f20"/>
    <rect x="91" y="58" width="5" height="1" fill="#231f20"/>
    <rect x="124" y="58" width="1" height="1" fill="#231f20"/>
    <rect x="1" y="59" width="1" height="1" fill="#231f20"/>
    <rect x="17" y="59" width="3" height="1" fill="#231f20"/>
    <rect x="90" y="59" width="5" height="1" fill="#231f20"/>
    <rect x="124" y="59" width="1" height="1" fill="#231f20"/>
    <rect x="1" y="60" width="1" height="1" fill="#231f20"/>
    <rect x="17" y="60" width="3" height="1" fill="#231f20"/>
    <rect x="88" y="60" width="6" height="1" fill="#231f20"/>
    <rect x="124" y="60" width="1" height="1" fill="#231f20"/>
    <rect x="1" y="61" width="1" height="1" fill="#231f20"/>
    <rect x="17" y="61" width="3" height="1" fill="#231f20"/>
    <rect x="87" y="61" width="6" height="1" fill="#231f20"/>
    <rect x="124" y="61" width="1" height="1" fill="#231f20"/>
    <rect x="1" y="62" width="1" height="1" fill="#231f20"/>
    <rect x="18" y="62" width="3" height="1" fill="#231f20"/>
    <rect x="86" y="62" width="6" height="1" fill="#231f20"/>
    <rect x="124" y="62" width="1" height="1" fill="#231f20"/>
    <rect x="1" y="63" width="1" height="1" fill="#231f20"/>
    <rect x="18" y="63" width="4" height="1" fill="#231f20"/>
    <rect x="85" y="63" width="5" height="1" fill="#231f20"/>
    <rect x="124" y="63" width="1" height="1" fill="#231f20"/>
    <rect x="1" y="64" width="1" height="1" fill="#231f20"/>
    <rect x="18" y="64" width="5" height="1" fill="#231f20"/>
    <rect x="84" y="64" width="5" height="1" fill="#231f20"/>
    <rect x="124" y="64" width="1" height="1" fill="#231f20"/>
    <rect x="1" y="65" width="1" height="1" fill="#231f20"/>
    <rect x="19" y="65" width="4" height="1" fill="#231f20"/>
    <rect x="82" y="65" width="6" height="1" fill="#231f20"/>
    <rect x="124" y="65" width="1" height="1" fill="#231f20"/>
    <rect x="1" y="66" width="1" height="1" fill="#231f20"/>
    <rect x="20" y="66" width="27" height="1" fill="#231f20"/>
    <rect x="62" y="66" width="25" height="1" fill="#231f20"/>
    <rect x="124" y="66" width="1" height="1" fill="#231f20"/>
    <rect x="1" y="67" width="1" height="1" fill="#231f20"/>
    <rect x="21" y="67" width="27" height="1" fill="#231f20"/>
    <rect x="61" y="67" width="23" height="1" fill="#231f20"/>
    <rect x="124" y="67" width="1" height="1" fill="#231f20"/>
    <rect x="1" y="68" width="1" height="1" fill="#231f20"/>
    <rect x="21" y="68" width="26" height="1" fill="#231f20"/>
    <rect x="62" y="68" width="21" height="1" fill="#231f20"/>
    <rect x="124" y="68" width="1" height="1" fill="#231f20"/>
    <rect x="1" y="69" width="1" height="1" fill="#231f20"/>
    <rect x="22" y="69" width="4" height="1" fill="#231f20"/>
    <rect x="75" y="69" width="7" height="1" fill="#231f20"/>
    <rect x="124" y="69" width="1" height="1" fill="#231f20"/>
    <rect x="1" y="70" width="1" height="1" fill="#231f20"/>
    <rect x="22" y="70" width="6" height="1" fill="#231f20"/>
    <rect x="73" y="70" width="7" height="1" fill="#231f20"/>
    <rect x="124" y="70" width="1" height="1" fill="#231f20"/>
    <rect x="1" y="71" width="1" height="1" fill="#231f20"/>
    <rect x="23" y="71" width="6" height="1" fill="#231f20"/>
    <rect x="71" y="71" width="6" height="1" fill="#231f20"/>
    <rect x="124" y="71" width="1" height="1" fill="#231f20"/>
    <rect x="1" y="72" width="1" height="1" fill="#231f20"/>
    <rect x="24" y="72" width="7" height="1" fill="#231f20"/>
    <rect x="69" y="72" width="6" height="1" fill="#231f20"/>
    <rect x="124" y="72" width="1" height="1" fill="#231f20"/>
    <rect x="1" y="73" width="1" height="1" fill="#231f20"/>
    <rect x="26" y="73" width="7" height="1" fill="#231f20"/>
    <rect x="67" y="73" width="6" height="1" fill="#231f20"/>
    <rect x="124" y="73" width="1" height="1" fill="#231f20"/>
    <rect x="1" y="74" width="1" height="1" fill="#231f20"/>
    <rect x="28" y="74" width="6" height="1" fill="#231f20"/>
    <rect x="64" y="74" width="7" height="1" fill="#231f20"/>
    <rect x="124" y="74" width="1" height="1" fill="#231f20"/>
    <rect x="1" y="75" width="1" height="1" fill="#231f20"/>
    <rect x="29" y="75" width="9" height="1" fill="#231f20"/>
    <rect x="60" y="75" width="9" height="1" fill="#231f20"/>
    <rect x="124" y="75" width="1" height="1" fill="#231f20"/>
    <rect x="1" y="76" width="1" height="1" fill="#231f20"/>
    <rect x="31" y="76" width="14" height="1" fill="#231f20"/>
    <rect x="48" y="76" width="19" height="1" fill="#231f20"/>
    <rect x="124" y="76" width="1" height="1" fill="#231f20"/>
    <rect x="1" y="77" width="1" height="1" fill="#231f20"/>
    <rect x="34" y="77" width="30" height="1" fill="#231f20"/>
    <rect x="124" y="77" width="1" height="1" fill="#231f20"/>
    <rect x="1" y="78" width="1" height="1" fill="#231f20"/>
    <rect x="38" y="78" width="22" height="1" fill="#231f20"/>
    <rect x="124" y="78" width="1" height="1" fill="#231f20"/>
    <rect x="1" y="79" width="1" height="1" fill="#231f20"/>
    <rect x="45" y="79" width="3" height="1" fill="#231f20"/>
    <rect x="124" y="79" width="1" height="1" fill="#231f20"/>
    <rect x="1" y="80" width="1" height="1" fill="#231f20"/>
    <rect x="124" y="80" width="1" height="1" fill="#231f20"/>
    <rect x="1" y="81" width="1" height="1" fill="#231f20"/>
    <rect x="124" y="81" width="1" height="1" fill="#231f20"/>
    <rect x="1" y="82" width="124" height="1" fill="#231f20"/>
  </g>
</svg>