<?xml version="1.0" encoding="UTF-8"?>
<svg xmlns="http://www.w3.org/2000/svg" viewBox="0 0 173 69" width="173" height="69">
  <!-- Auto-converted from legend-2544.png -->
  <rect x="0" y="0" width="173" height="69" fill="none"/>
  <g fill="#b5bea9" stroke="none">
    <rect x="0" y="0" width="173" height="1" fill="#b5bea9"/>
    <rect x="0" y="1" width="173" height="1" fill="#b5bea9"/>
    <rect x="0" y="2" width="173" height="1" fill="#b5bea9"/>
    <rect x="0" y="3" width="173" height="1" fill="#b5bea9"/>
    <rect x="0" y="4" width="173" height="1" fill="#b5bea9"/>
    <rect x="0" y="5" width="173" height="1" fill="#b5bea9"/>
    <rect x="0" y="6" width="173" height="1" fill="#b5bea9"/>
    <rect x="0" y="7" width="173" height="1" fill="#b5bea9"/>
    <rect x="0" y="8" width="173" height="1" fill="#b5bea9"/>
    <rect x="0" y="9" width="173" height="1" fill="#b5bea9"/>
    <rect x="0" y="10" width="173" height="1" fill="#b5bea9"/>
    <rect x="0" y="11" width="173" height="1" fill="#b5bea9"/>
    <rect x="0" y="12" width="173" height="1" fill="#b5bea9"/>
    <rect x="0" y="13" width="173" height="1" fill="#b5bea9"/>
    <rect x="0" y="14" width="173" height="1" fill="#b5bea9"/>
    <rect x="0" y="15" width="173" height="1" fill="#b5bea9"/>
    <rect x="0" y="16" width="173" height="1" fill="#b5bea9"/>
    <rect x="0" y="17" width="173" height="1" fill="#b5bea9"/>
    <rect x="0" y="18" width="173" height="1" fill="#b5bea9"/>
    <rect x="0" y="19" width="173" height="1" fill="#b5bea9"/>
    <rect x="0" y="20" width="173" height="1" fill="#b5bea9"/>
    <rect x="0" y="21" width="173" height="1" fill="#b5bea9"/>
    <rect x="0" y="22" width="173" height="1" fill="#b5bea9"/>
    <rect x="0" y="23" width="173" height="1" fill="#b5bea9"/>
    <rect x="0" y="24" width="173" height="1" fill="#b5bea9"/>
    <rect x="0" y="25" width="173" height="1" fill="#b5bea9"/>
    <rect x="0" y="26" width="173" height="1" fill="#b5bea9"/>
    <rect x="0" y="27" width="173" height="1" fill="#b5bea9"/>
    <rect x="0" y="28" width="173" height="1" fill="#b5bea9"/>
    <rect x="0" y="29" width="173" height="1" fill="#b5bea9"/>
    <rect x="0" y="30" width="173" height="1" fill="#b5bea9"/>
    <rect x="0" y="31" width="173" height="1" fill="#b5bea9"/>
    <rect x="0" y="32" width="173" height="1" fill="#b5bea9"/>
    <rect x="0" y="33" width="173" height="1" fill="#b5bea9"/>
    <rect x="0" y="34" width="173" height="1" fill="#b5bea9"/>
    <rect x="0" y="35" width="173" height="1" fill="#b5bea9"/>
    <rect x="0" y="36" width="173" height="1" fill="#b5bea9"/>
    <rect x="0" y="37" width="173" height="1" fill="#b5bea9"/>
    <rect x="0" y="38" width="173" height="1" fill="#b5bea9"/>
    <rect x="0" y="39" width="173" height="1" fill="#b5bea9"/>
    <rect x="0" y="40" width="173" height="1" fill="#b5bea9"/>
    <rect x="0" y="41" width="173" height="1" fill="#b5bea9"/>
    <rect x="0" y="42" width="173" height="1" fill="#b5bea9"/>
    <rect x="0" y="43" width="173" height="1" fill="#b5bea9"/>
    <rect x="0" y="44" width="173" height="1" fill="#b5bea9"/>
    <rect x="0" y="45" width="173" height="1" fill="#b5bea9"/>
    <rect x="0" y="46" width="173" height="1" fill="#b5bea9"/>
    <rect x="0" y="47" width="173" height="1" fill="#b5bea9"/>
    <rect x="0" y="48" width="173" height="1" fill="#b5bea9"/>
    <rect x="0" y="49" width="173" height="1" fill="#b5bea9"/>
    <rect x="0" y="50" width="173" height="1" fill="#b5bea9"/>
    <rect x="0" y="51" width="173" height="1" fill="#b5bea9"/>
    <rect x="0" y="52" width="173" height="1" fill="#b5bea9"/>
    <rect x="0" y="53" width="173" height="1" fill="#b5bea9"/>
    <rect x="0" y="54" width="173" height="1" fill="#b5bea9"/>
    <rect x="0" y="55" width="173" height="1" fill="#b5bea9"/>
    <rect x="0" y="56" width="173" height="1" fill="#b5bea9"/>
    <rect x="0" y="57" width="173" height="1" fill="#b5bea9"/>
    <rect x="0" y="58" width="173" height="1" fill="#b5bea9"/>
    <rect x="0" y="59" width="173" height="1" fill="#b5bea9"/>
    <rect x="0" y="60" width="173" height="1" fill="#b5bea9"/>
    <rect x="0" y="61" width="173" height="1" fill="#b5bea9"/>
    <rect x="0" y="62" width="173" height="1" fill="#b5bea9"/>
    <rect x="0" y="63" width="173" height="1" fill="#b5bea9"/>
    <rect x="0" y="64" width="173" height="1" fill="#b5bea9"/>
    <rect x="0" y="65" width="173" height="1" fill="#b5bea9"/>
    <rect x="0" y="66" width="173" height="1" fill="#b5bea9"/>
    <rect x="0" y="67" width="173" height="1" fill="#b5bea9"/>
    <rect x="0" y="68" width="173" height="1" fill="#b5bea9"/>
  </g>
</svg>