<?xml version="1.0" encoding="UTF-8"?>
<svg xmlns="http://www.w3.org/2000/svg" viewBox="0 0 150 62" width="150" height="62">
  <!-- Auto-converted from legend-964.png -->
  <rect x="0" y="0" width="150" height="62" fill="none"/>
  <g fill="#231f20" stroke="none">
    <rect x="2" y="1" width="147" height="1" fill="#231f20"/>
    <rect x="2" y="2" width="147" height="1" fill="#231f20"/>
    <rect x="2" y="3" width="147" height="1" fill="#231f20"/>
    <rect x="2" y="4" width="147" height="1" fill="#231f20"/>
    <rect x="2" y="5" width="147" height="1" fill="#231f20"/>
    <rect x="2" y="6" width="147" height="1" fill="#231f20"/>
    <rect x="2" y="7" width="5" height="1" fill="#231f20"/>
    <rect x="9" y="7" width="1" height="1" fill="#231f20"/>
    <rect x="26" y="7" width="3" height="1" fill="#231f20"/>
    <rect x="45" y="7" width="1" height="1" fill="#231f20"/>
    <rect x="50" y="7" width="4" height="1" fill="#231f20"/>
    <rect x="57" y="7" width="1" height="1" fill="#231f20"/>
    <rect x="73" y="7" width="4" height="1" fill="#231f20"/>
    <rect x="92" y="7" width="1" height="1" fill="#231f20"/>
    <rect x="96" y="7" width="4" height="1" fill="#231f20"/>
    <rect x="104" y="7" width="1" height="1" fill="#231f20"/>
    <rect x="121" y="7" width="3" height="1" fill="#231f20"/>
    <rect x="140" y="7" width="1" height="1" fill="#231f20"/>
    <rect x="143" y="7" width="6" height="1" fill="#231f20"/>
    <rect x="2" y="8" width="5" height="1" fill="#231f20"/>
    <rect x="9" y="8" width="3" height="1" fill="#231f20"/>
    <rect x="26" y="8" width="3" height="1" fill="#231f20"/>
    <rect x="43" y="8" width="4" height="1" fill="#231f20"/>
    <rect x="50" y="8" width="4" height="1" fill="#231f20"/>
    <rect x="57" y="8" width="3" height="1" fill="#231f20"/>
    <rect x="73" y="8" width="4" height="1" fill="#231f20"/>
    <rect x="90" y="8" width="4" height="1" fill="#231f20"/>
    <rect x="96" y="8" width="4" height="1" fill="#231f20"/>
    <rect x="104" y="8" width="3" height="1" fill="#231f20"/>
    <rect x="121" y="8" width="3" height="1" fill="#231f20"/>
    <rect x="138" y="8" width="4" height="1" fill="#231f20"/>
    <rect x="143" y="8" width="6" height="1" fill="#231f20"/>
    <rect x="2" y="9" width="5" height="1" fill="#231f20"/>
    <rect x="9" y="9" width="5" height="1" fill="#231f20"/>
    <rect x="26" y="9" width="3" height="1" fill="#231f20"/>
    <rect x="41" y="9" width="6" height="1" fill="#231f20"/>
    <rect x="50" y="9" width="4" height="1" fill="#231f20"/>
    <rect x="56" y="9" width="6" height="1" fill="#231f20"/>
    <rect x="73" y="9" width="4" height="1" fill="#231f20"/>
    <rect x="88" y="9" width="6" height="1" fill="#231f20"/>
    <rect x="96" y="9" width="4" height="1" fill="#231f20"/>
    <rect x="103" y="9" width="6" height="1" fill="#231f20"/>
    <rect x="121" y="9" width="3" height="1" fill="#231f20"/>
    <rect x="136" y="9" width="6" height="1" fill="#231f20"/>
    <rect x="143" y="9" width="6" height="1" fill="#231f20"/>
    <rect x="2" y="10" width="5" height="1" fill="#231f20"/>
    <rect x="10" y="10" width="5" height="1" fill="#231f20"/>
    <rect x="26" y="10" width="3" height="1" fill="#231f20"/>
    <rect x="40" y="10" width="6" height="1" fill="#231f20"/>
    <rect x="50" y="10" width="4" height="1" fill="#231f20"/>
    <rect x="57" y="10" width="6" height="1" fill="#231f20"/>
    <rect x="73" y="10" width="4" height="1" fill="#231f20"/>
    <rect x="87" y="10" width="6" height="1" fill="#231f20"/>
    <rect x="96" y="10" width="4" height="1" fill="#231f20"/>
    <rect x="104" y="10" width="6" height="1" fill="#231f20"/>
    <rect x="121" y="10" width="3" height="1" fill="#231f20"/>
    <rect x="135" y="10" width="6" height="1" fill="#231f20"/>
    <rect x="143" y="10" width="6" height="1" fill="#231f20"/>
    <rect x="2" y="11" width="5" height="1" fill="#231f20"/>
    <rect x="12" y="11" width="5" height="1" fill="#231f20"/>
    <rect x="26" y="11" width="3" height="1" fill="#231f20"/>
    <rect x="38" y="11" width="6" height="1" fill="#231f20"/>
    <rect x="50" y="11" width="4" height="1" fill="#231f20"/>
    <rect x="59" y="11" width="6" height="1" fill="#231f20"/>
    <rect x="73" y="11" width="4" height="1" fill="#231f20"/>
    <rect x="85" y="11" width="6" height="1" fill="#231f20"/>
    <rect x="96" y="11" width="4" height="1" fill="#231f20"/>
    <rect x="106" y="11" width="6" height="1" fill="#231f20"/>
    <rect x="121" y="11" width="3" height="1" fill="#231f20"/>
    <rect x="133" y="11" width="6" height="1" fill="#231f20"/>
    <rect x="143" y="11" width="6" height="1" fill="#231f20"/>
    <rect x="2" y="12" width="5" height="1" fill="#231f20"/>
    <rect x="9" y="12" width="1" height="1" fill="#231f20"/>
    <rect x="14" y="12" width="5" height="1" fill="#231f20"/>
    <rect x="26" y="12" width="3" height="1" fill="#231f20"/>
    <rect x="36" y="12" width="6" height="1" fill="#231f20"/>
    <rect x="45" y="12" width="1" height="1" fill="#231f20"/>
    <rect x="50" y="12" width="4" height="1" fill="#231f20"/>
    <rect x="57" y="12" width="1" height="1" fill="#231f20"/>
    <rect x="61" y="12" width="5" height="1" fill="#231f20"/>
    <rect x="73" y="12" width="4" height="1" fill="#231f20"/>
    <rect x="84" y="12" width="5" height="1" fill="#231f20"/>
    <rect x="92" y="12" width="1" height="1" fill="#231f20"/>
    <rect x="96" y="12" width="4" height="1" fill="#231f20"/>
    <rect x="104" y="12" width="1" height="1" fill="#231f20"/>
    <rect x="108" y="12" width="6" height="1" fill="#231f20"/>
    <rect x="121" y="12" width="3" height="1" fill="#231f20"/>
    <rect x="131" y="12" width="6" height="1" fill="#231f20"/>
    <rect x="140" y="12" width="1" height="1" fill="#231f20"/>
    <rect x="143" y="12" width="6" height="1" fill="#231f20"/>
    <rect x="2" y="13" width="5" height="1" fill="#231f20"/>
    <rect x="9" y="13" width="3" height="1" fill="#231f20"/>
    <rect x="15" y="13" width="6" height="1" fill="#231f20"/>
    <rect x="26" y="13" width="3" height="1" fill="#231f20"/>
    <rect x="34" y="13" width="6" height="1" fill="#231f20"/>
    <rect x="43" y="13" width="4" height="1" fill="#231f20"/>
    <rect x="50" y="13" width="4" height="1" fill="#231f20"/>
    <rect x="57" y="13" width="3" height="1" fill="#231f20"/>
    <rect x="62" y="13" width="6" height="1" fill="#231f20"/>
    <rect x="73" y="13" width="4" height="1" fill="#231f20"/>
    <rect x="82" y="13" width="6" height="1" fill="#231f20"/>
    <rect x="90" y="13" width="4" height="1" fill="#231f20"/>
    <rect x="96" y="13" width="4" height="1" fill="#231f20"/>
    <rect x="104" y="13" width="3" height="1" fill="#231f20"/>
    <rect x="110" y="13" width="6" height="1" fill="#231f20"/>
    <rect x="121" y="13" width="3" height="1" fill="#231f20"/>
    <rect x="129" y="13" width="6" height="1" fill="#231f20"/>
    <rect x="138" y="13" width="4" height="1" fill="#231f20"/>
    <rect x="143" y="13" width="6" height="1" fill="#231f20"/>
    <rect x="2" y="14" width="5" height="1" fill="#231f20"/>
    <rect x="9" y="14" width="5" height="1" fill="#231f20"/>
    <rect x="17" y="14" width="5" height="1" fill="#231f20"/>
    <rect x="26" y="14" width="3" height="1" fill="#231f20"/>
    <rect x="33" y="14" width="6" height="1" fill="#231f20"/>
    <rect x="41" y="14" width="6" height="1" fill="#231f20"/>
    <rect x="50" y="14" width="4" height="1" fill="#231f20"/>
    <rect x="56" y="14" width="6" height="1" fill="#231f20"/>
    <rect x="64" y="14" width="6" height="1" fill="#231f20"/>
    <rect x="73" y="14" width="4" height="1" fill="#231f20"/>
    <rect x="80" y="14" width="6" height="1" fill="#231f20"/>
    <rect x="88" y="14" width="6" height="1" fill="#231f20"/>
    <rect x="96" y="14" width="4" height="1" fill="#231f20"/>
    <rect x="103" y="14" width="6" height="1" fill="#231f20"/>
    <rect x="111" y="14" width="6" height="1" fill="#231f20"/>
    <rect x="121" y="14" width="3" height="1" fill="#231f20"/>
    <rect x="128" y="14" width="6" height="1" fill="#231f20"/>
    <rect x="136" y="14" width="6" height="1" fill="#231f20"/>
    <rect x="143" y="14" width="6" height="1" fill="#231f20"/>
    <rect x="2" y="15" width="5" height="1" fill="#231f20"/>
    <rect x="10" y="15" width="5" height="1" fill="#231f20"/>
    <rect x="18" y="15" width="6" height="1" fill="#231f20"/>
    <rect x="26" y="15" width="3" height="1" fill="#231f20"/>
    <rect x="31" y="15" width="6" height="1" fill="#231f20"/>
    <rect x="40" y="15" width="6" height="1" fill="#231f20"/>
    <rect x="50" y="15" width="4" height="1" fill="#231f20"/>
    <rect x="57" y="15" width="6" height="1" fill="#231f20"/>
    <rect x="65" y="15" width="6" height="1" fill="#231f20"/>
    <rect x="73" y="15" width="4" height="1" fill="#231f20"/>
    <rect x="79" y="15" width="6" height="1" fill="#231f20"/>
    <rect x="87" y="15" width="6" height="1" fill="#231f20"/>
    <rect x="96" y="15" width="4" height="1" fill="#231f20"/>
    <rect x="104" y="15" width="6" height="1" fill="#231f20"/>
    <rect x="113" y="15" width="6" height="1" fill="#231f20"/>
    <rect x="121" y="15" width="3" height="1" fill="#231f20"/>
    <rect x="126" y="15" width="6" height="1" fill="#231f20"/>
    <rect x="135" y="15" width="6" height="1" fill="#231f20"/>
    <rect x="143" y="15" width="6" height="1" fill="#231f20"/>
    <rect x="2" y="16" width="5" height="1" fill="#231f20"/>
    <rect x="12" y="16" width="5" height="1" fill="#231f20"/>
    <rect x="20" y="16" width="15" height="1" fill="#231f20"/>
    <rect x="38" y="16" width="6" height="1" fill="#231f20"/>
    <rect x="50" y="16" width="4" height="1" fill="#231f20"/>
    <rect x="59" y="16" width="6" height="1" fill="#231f20"/>
    <rect x="67" y="16" width="16" height="1" fill="#231f20"/>
    <rect x="85" y="16" width="6" height="1" fill="#231f20"/>
    <rect x="96" y="16" width="4" height="1" fill="#231f20"/>
    <rect x="106" y="16" width="6" height="1" fill="#231f20"/>
    <rect x="115" y="16" width="15" height="1" fill="#231f20"/>
    <rect x="133" y="16" width="6" height="1" fill="#231f20"/>
    <rect x="143" y="16" width="6" height="1" fill="#231f20"/>
    <rect x="2" y="17" width="5" height="1" fill="#231f20"/>
    <rect x="9" y="17" width="1" height="1" fill="#231f20"/>
    <rect x="14" y="17" width="5" height="1" fill="#231f20"/>
    <rect x="22" y="17" width="11" height="1" fill="#231f20"/>
    <rect x="36" y="17" width="6" height="1" fill="#231f20"/>
    <rect x="45" y="17" width="1" height="1" fill="#231f20"/>
    <rect x="50" y="17" width="4" height="1" fill="#231f20"/>
    <rect x="57" y="17" width="1" height="1" fill="#231f20"/>
    <rect x="61" y="17" width="5" height="1" fill="#231f20"/>
    <rect x="69" y="17" width="12" height="1" fill="#231f20"/>
    <rect x="84" y="17" width="5" height="1" fill="#231f20"/>
    <rect x="92" y="17" width="1" height="1" fill="#231f20"/>
    <rect x="96" y="17" width="4" height="1" fill="#231f20"/>
    <rect x="104" y="17" width="1" height="1" fill="#231f20"/>
    <rect x="108" y="17" width="6" height="1" fill="#231f20"/>
    <rect x="117" y="17" width="11" height="1" fill="#231f20"/>
    <rect x="131" y="17" width="6" height="1" fill="#231f20"/>
    <rect x="140" y="17" width="1" height="1" fill="#231f20"/>
    <rect x="143" y="17" width="6" height="1" fill="#231f20"/>
    <rect x="2" y="18" width="5" height="1" fill="#231f20"/>
    <rect x="9" y="18" width="3" height="1" fill="#231f20"/>
    <rect x="15" y="18" width="6" height="1" fill="#231f20"/>
    <rect x="24" y="18" width="7" height="1" fill="#231f20"/>
    <rect x="34" y="18" width="6" height="1" fill="#231f20"/>
    <rect x="43" y="18" width="4" height="1" fill="#231f20"/>
    <rect x="50" y="18" width="4" height="1" fill="#231f20"/>
    <rect x="57" y="18" width="3" height="1" fill="#231f20"/>
    <rect x="62" y="18" width="6" height="1" fill="#231f20"/>
    <rect x="71" y="18" width="8" height="1" fill="#231f20"/>
    <rect x="82" y="18" width="6" height="1" fill="#231f20"/>
    <rect x="90" y="18" width="4" height="1" fill="#231f20"/>
    <rect x="96" y="18" width="4" height="1" fill="#231f20"/>
    <rect x="104" y="18" width="3" height="1" fill="#231f20"/>
    <rect x="110" y="18" width="6" height="1" fill="#231f20"/>
    <rect x="119" y="18" width="7" height="1" fill="#231f20"/>
    <rect x="129" y="18" width="6" height="1" fill="#231f20"/>
    <rect x="138" y="18" width="4" height="1" fill="#231f20"/>
    <rect x="143" y="18" width="6" height="1" fill="#231f20"/>
    <rect x="2" y="19" width="5" height="1" fill="#231f20"/>
    <rect x="9" y="19" width="5" height="1" fill="#231f20"/>
    <rect x="17" y="19" width="5" height="1" fill="#231f20"/>
    <rect x="26" y="19" width="3" height="1" fill="#231f20"/>
    <rect x="33" y="19" width="6" height="1" fill="#231f20"/>
    <rect x="41" y="19" width="6" height="1" fill="#231f20"/>
    <rect x="50" y="19" width="4" height="1" fill="#231f20"/>
    <rect x="56" y="19" width="6" height="1" fill="#231f20"/>
    <rect x="64" y="19" width="6" height="1" fill="#231f20"/>
    <rect x="73" y="19" width="4" height="1" fill="#231f20"/>
    <rect x="80" y="19" width="6" height="1" fill="#231f20"/>
    <rect x="88" y="19" width="6" height="1" fill="#231f20"/>
    <rect x="96" y="19" width="4" height="1" fill="#231f20"/>
    <rect x="103" y="19" width="6" height="1" fill="#231f20"/>
    <rect x="111" y="19" width="6" height="1" fill="#231f20"/>
    <rect x="121" y="19" width="3" height="1" fill="#231f20"/>
    <rect x="128" y="19" width="6" height="1" fill="#231f20"/>
    <rect x="136" y="19" width="6" height="1" fill="#231f20"/>
    <rect x="143" y="19" width="6" height="1" fill="#231f20"/>
    <rect x="2" y="20" width="5" height="1" fill="#231f20"/>
    <rect x="10" y="20" width="5" height="1" fill="#231f20"/>
    <rect x="18" y="20" width="6" height="1" fill="#231f20"/>
    <rect x="26" y="20" width="3" height="1" fill="#231f20"/>
    <rect x="31" y="20" width="6" height="1" fill="#231f20"/>
    <rect x="40" y="20" width="6" height="1" fill="#231f20"/>
    <rect x="50" y="20" width="4" height="1" fill="#231f20"/>
    <rect x="57" y="20" width="6" height="1" fill="#231f20"/>
    <rect x="65" y="20" width="6" height="1" fill="#231f20"/>
    <rect x="73" y="20" width="4" height="1" fill="#231f20"/>
    <rect x="79" y="20" width="6" height="1" fill="#231f20"/>
    <rect x="87" y="20" width="6" height="1" fill="#231f20"/>
    <rect x="96" y="20" width="4" height="1" fill="#231f20"/>
    <rect x="104" y="20" width="6" height="1" fill="#231f20"/>
    <rect x="113" y="20" width="6" height="1" fill="#231f20"/>
    <rect x="121" y="20" width="3" height="1" fill="#231f20"/>
    <rect x="126" y="20" width="6" height="1" fill="#231f20"/>
    <rect x="135" y="20" width="6" height="1" fill="#231f20"/>
    <rect x="143" y="20" width="6" height="1" fill="#231f20"/>
    <rect x="2" y="21" width="5" height="1" fill="#231f20"/>
    <rect x="12" y="21" width="5" height="1" fill="#231f20"/>
    <rect x="20" y="21" width="15" height="1" fill="#231f20"/>
    <rect x="38" y="21" width="6" height="1" fill="#231f20"/>
    <rect x="50" y="21" width="4" height="1" fill="#231f20"/>
    <rect x="59" y="21" width="6" height="1" fill="#231f20"/>
    <rect x="67" y="21" width="16" height="1" fill="#231f20"/>
    <rect x="85" y="21" width="6" height="1" fill="#231f20"/>
    <rect x="96" y="21" width="4" height="1" fill="#231f20"/>
    <rect x="106" y="21" width="6" height="1" fill="#231f20"/>
    <rect x="115" y="21" width="15" height="1" fill="#231f20"/>
    <rect x="133" y="21" width="6" height="1" fill="#231f20"/>
    <rect x="143" y="21" width="6" height="1" fill="#231f20"/>
    <rect x="2" y="22" width="5" height="1" fill="#231f20"/>
    <rect x="9" y="22" width="1" height="1" fill="#231f20"/>
    <rect x="14" y="22" width="5" height="1" fill="#231f20"/>
    <rect x="22" y="22" width="11" height="1" fill="#231f20"/>
    <rect x="36" y="22" width="6" height="1" fill="#231f20"/>
    <rect x="45" y="22" width="1" height="1" fill="#231f20"/>
    <rect x="50" y="22" width="4" height="1" fill="#231f20"/>
    <rect x="57" y="22" width="1" height="1" fill="#231f20"/>
    <rect x="61" y="22" width="5" height="1" fill="#231f20"/>
    <rect x="69" y="22" width="12" height="1" fill="#231f20"/>
    <rect x="84" y="22" width="5" height="1" fill="#231f20"/>
    <rect x="92" y="22" width="1" height="1" fill="#231f20"/>
    <rect x="96" y="22" width="4" height="1" fill="#231f20"/>
    <rect x="104" y="22" width="1" height="1" fill="#231f20"/>
    <rect x="108" y="22" width="6" height="1" fill="#231f20"/>
    <rect x="117" y="22" width="11" height="1" fill="#231f20"/>
    <rect x="131" y="22" width="6" height="1" fill="#231f20"/>
    <rect x="140" y="22" width="1" height="1" fill="#231f20"/>
    <rect x="143" y="22" width="6" height="1" fill="#231f20"/>
    <rect x="2" y="23" width="5" height="1" fill="#231f20"/>
    <rect x="9" y="23" width="3" height="1" fill="#231f20"/>
    <rect x="15" y="23" width="6" height="1" fill="#231f20"/>
    <rect x="24" y="23" width="7" height="1" fill="#231f20"/>
    <rect x="34" y="23" width="6" height="1" fill="#231f20"/>
    <rect x="43" y="23" width="4" height="1" fill="#231f20"/>
    <rect x="50" y="23" width="4" height="1" fill="#231f20"/>
    <rect x="57" y="23" width="3" height="1" fill="#231f20"/>
    <rect x="62" y="23" width="6" height="1" fill="#231f20"/>
    <rect x="71" y="23" width="8" height="1" fill="#231f20"/>
    <rect x="82" y="23" width="6" height="1" fill="#231f20"/>
    <rect x="90" y="23" width="4" height="1" fill="#231f20"/>
    <rect x="96" y="23" width="4" height="1" fill="#231f20"/>
    <rect x="104" y="23" width="3" height="1" fill="#231f20"/>
    <rect x="110" y="23" width="6" height="1" fill="#231f20"/>
    <rect x="119" y="23" width="7" height="1" fill="#231f20"/>
    <rect x="129" y="23" width="6" height="1" fill="#231f20"/>
    <rect x="138" y="23" width="4" height="1" fill="#231f20"/>
    <rect x="143" y="23" width="6" height="1" fill="#231f20"/>
    <rect x="2" y="24" width="5" height="1" fill="#231f20"/>
    <rect x="9" y="24" width="5" height="1" fill="#231f20"/>
    <rect x="17" y="24" width="5" height="1" fill="#231f20"/>
    <rect x="26" y="24" width="3" height="1" fill="#231f20"/>
    <rect x="33" y="24" width="6" height="1" fill="#231f20"/>
    <rect x="41" y="24" width="6" height="1" fill="#231f20"/>
    <rect x="50" y="24" width="4" height="1" fill="#231f20"/>
    <rect x="56" y="24" width="6" height="1" fill="#231f20"/>
    <rect x="64" y="24" width="6" height="1" fill="#231f20"/>
    <rect x="73" y="24" width="4" height="1" fill="#231f20"/>
    <rect x="80" y="24" width="6" height="1" fill="#231f20"/>
    <rect x="88" y="24" width="6" height="1" fill="#231f20"/>
    <rect x="96" y="24" width="4" height="1" fill="#231f20"/>
    <rect x="103" y="24" width="6" height="1" fill="#231f20"/>
    <rect x="111" y="24" width="6" height="1" fill="#231f20"/>
    <rect x="121" y="24" width="3" height="1" fill="#231f20"/>
    <rect x="128" y="24" width="6" height="1" fill="#231f20"/>
    <rect x="136" y="24" width="6" height="1" fill="#231f20"/>
    <rect x="143" y="24" width="6" height="1" fill="#231f20"/>
    <rect x="2" y="25" width="5" height="1" fill="#231f20"/>
    <rect x="10" y="25" width="5" height="1" fill="#231f20"/>
    <rect x="18" y="25" width="6" height="1" fill="#231f20"/>
    <rect x="26" y="25" width="3" height="1" fill="#231f20"/>
    <rect x="31" y="25" width="6" height="1" fill="#231f20"/>
    <rect x="40" y="25" width="6" height="1" fill="#231f20"/>
    <rect x="50" y="25" width="4" height="1" fill="#231f20"/>
    <rect x="57" y="25" width="6" height="1" fill="#231f20"/>
    <rect x="65" y="25" width="6" height="1" fill="#231f20"/>
    <rect x="73" y="25" width="4" height="1" fill="#231f20"/>
    <rect x="79" y="25" width="6" height="1" fill="#231f20"/>
    <rect x="87" y="25" width="6" height="1" fill="#231f20"/>
    <rect x="96" y="25" width="4" height="1" fill="#231f20"/>
    <rect x="104" y="25" width="6" height="1" fill="#231f20"/>
    <rect x="113" y="25" width="6" height="1" fill="#231f20"/>
    <rect x="121" y="25" width="3" height="1" fill="#231f20"/>
    <rect x="126" y="25" width="6" height="1" fill="#231f20"/>
    <rect x="135" y="25" width="6" height="1" fill="#231f20"/>
    <rect x="143" y="25" width="6" height="1" fill="#231f20"/>
    <rect x="2" y="26" width="5" height="1" fill="#231f20"/>
    <rect x="12" y="26" width="5" height="1" fill="#231f20"/>
    <rect x="20" y="26" width="15" height="1" fill="#231f20"/>
    <rect x="38" y="26" width="6" height="1" fill="#231f20"/>
    <rect x="50" y="26" width="4" height="1" fill="#231f20"/>
    <rect x="59" y="26" width="6" height="1" fill="#231f20"/>
    <rect x="67" y="26" width="16" height="1" fill="#231f20"/>
    <rect x="85" y="26" width="6" height="1" fill="#231f20"/>
    <rect x="96" y="26" width="4" height="1" fill="#231f20"/>
    <rect x="106" y="26" width="6" height="1" fill="#231f20"/>
    <rect x="115" y="26" width="15" height="1" fill="#231f20"/>
    <rect x="133" y="26" width="6" height="1" fill="#231f20"/>
    <rect x="143" y="26" width="6" height="1" fill="#231f20"/>
    <rect x="2" y="27" width="5" height="1" fill="#231f20"/>
    <rect x="14" y="27" width="5" height="1" fill="#231f20"/>
    <rect x="22" y="27" width="11" height="1" fill="#231f20"/>
    <rect x="36" y="27" width="6" height="1" fill="#231f20"/>
    <rect x="50" y="27" width="4" height="1" fill="#231f20"/>
    <rect x="61" y="27" width="5" height="1" fill="#231f20"/>
    <rect x="69" y="27" width="12" height="1" fill="#231f20"/>
    <rect x="84" y="27" width="5" height="1" fill="#231f20"/>
    <rect x="96" y="27" width="4" height="1" fill="#231f20"/>
    <rect x="108" y="27" width="6" height="1" fill="#231f20"/>
    <rect x="117" y="27" width="11" height="1" fill="#231f20"/>
    <rect x="131" y="27" width="6" height="1" fill="#231f20"/>
    <rect x="143" y="27" width="6" height="1" fill="#231f20"/>
    <rect x="2" y="28" width="5" height="1" fill="#231f20"/>
    <rect x="9" y="28" width="2" height="1" fill="#231f20"/>
    <rect x="15" y="28" width="6" height="1" fill="#231f20"/>
    <rect x="24" y="28" width="7" height="1" fill="#231f20"/>
    <rect x="34" y="28" width="6" height="1" fill="#231f20"/>
    <rect x="44" y="28" width="2" height="1" fill="#231f20"/>
    <rect x="50" y="28" width="4" height="1" fill="#231f20"/>
    <rect x="57" y="28" width="2" height="1" fill="#231f20"/>
    <rect x="62" y="28" width="6" height="1" fill="#231f20"/>
    <rect x="71" y="28" width="8" height="1" fill="#231f20"/>
    <rect x="82" y="28" width="6" height="1" fill="#231f20"/>
    <rect x="91" y="28" width="2" height="1" fill="#231f20"/>
    <rect x="96" y="28" width="4" height="1" fill="#231f20"/>
    <rect x="104" y="28" width="2" height="1" fill="#231f20"/>
    <rect x="110" y="28" width="6" height="1" fill="#231f20"/>
    <rect x="119" y="28" width="7" height="1" fill="#231f20"/>
    <rect x="129" y="28" width="6" height="1" fill="#231f20"/>
    <rect x="139" y="28" width="2" height="1" fill="#231f20"/>
    <rect x="143" y="28" width="6" height="1" fill="#231f20"/>
    <rect x="2" y="29" width="5" height="1" fill="#231f20"/>
    <rect x="9" y="29" width="4" height="1" fill="#231f20"/>
    <rect x="17" y="29" width="5" height="1" fill="#231f20"/>
    <rect x="26" y="29" width="3" height="1" fill="#231f20"/>
    <rect x="33" y="29" width="6" height="1" fill="#231f20"/>
    <rect x="42" y="29" width="5" height="1" fill="#231f20"/>
    <rect x="50" y="29" width="4" height="1" fill="#231f20"/>
    <rect x="56" y="29" width="5" height="1" fill="#231f20"/>
    <rect x="64" y="29" width="6" height="1" fill="#231f20"/>
    <rect x="73" y="29" width="4" height="1" fill="#231f20"/>
    <rect x="80" y="29" width="6" height="1" fill="#231f20"/>
    <rect x="89" y="29" width="5" height="1" fill="#231f20"/>
    <rect x="96" y="29" width="4" height="1" fill="#231f20"/>
    <rect x="103" y="29" width="5" height="1" fill="#231f20"/>
    <rect x="111" y="29" width="6" height="1" fill="#231f20"/>
    <rect x="121" y="29" width="3" height="1" fill="#231f20"/>
    <rect x="128" y="29" width="6" height="1" fill="#231f20"/>
    <rect x="137" y="29" width="5" height="1" fill="#231f20"/>
    <rect x="143" y="29" width="6" height="1" fill="#231f20"/>
    <rect x="2" y="30" width="5" height="1" fill="#231f20"/>
    <rect x="10" y="30" width="5" height="1" fill="#231f20"/>
    <rect x="18" y="30" width="6" height="1" fill="#231f20"/>
    <rect x="26" y="30" width="3" height="1" fill="#231f20"/>
    <rect x="31" y="30" width="6" height="1" fill="#231f20"/>
    <rect x="40" y="30" width="6" height="1" fill="#231f20"/>
    <rect x="50" y="30" width="4" height="1" fill="#231f20"/>
    <rect x="57" y="30" width="6" height="1" fill="#231f20"/>
    <rect x="65" y="30" width="6" height="1" fill="#231f20"/>
    <rect x="73" y="30" width="4" height="1" fill="#231f20"/>
    <rect x="79" y="30" width="6" height="1" fill="#231f20"/>
    <rect x="87" y="30" width="6" height="1" fill="#231f20"/>
    <rect x="96" y="30" width="4" height="1" fill="#231f20"/>
    <rect x="104" y="30" width="6" height="1" fill="#231f20"/>
    <rect x="113" y="30" width="6" height="1" fill="#231f20"/>
    <rect x="121" y="30" width="3" height="1" fill="#231f20"/>
    <rect x="126" y="30" width="6" height="1" fill="#231f20"/>
    <rect x="135" y="30" width="6" height="1" fill="#231f20"/>
    <rect x="143" y="30" width="6" height="1" fill="#231f20"/>
    <rect x="2" y="31" width="5" height="1" fill="#231f20"/>
    <rect x="12" y="31" width="5" height="1" fill="#231f20"/>
    <rect x="20" y="31" width="15" height="1" fill="#231f20"/>
    <rect x="38" y="31" width="6" height="1" fill="#231f20"/>
    <rect x="50" y="31" width="4" height="1" fill="#231f20"/>
    <rect x="59" y="31" width="6" height="1" fill="#231f20"/>
    <rect x="67" y="31" width="16" height="1" fill="#231f20"/>
    <rect x="85" y="31" width="6" height="1" fill="#231f20"/>
    <rect x="96" y="31" width="4" height="1" fill="#231f20"/>
    <rect x="106" y="31" width="6" height="1" fill="#231f20"/>
    <rect x="115" y="31" width="15" height="1" fill="#231f20"/>
    <rect x="133" y="31" width="6" height="1" fill="#231f20"/>
    <rect x="143" y="31" width="6" height="1" fill="#231f20"/>
    <rect x="2" y="32" width="5" height="1" fill="#231f20"/>
    <rect x="14" y="32" width="5" height="1" fill="#231f20"/>
    <rect x="22" y="32" width="11" height="1" fill="#231f20"/>
    <rect x="36" y="32" width="6" height="1" fill="#231f20"/>
    <rect x="50" y="32" width="4" height="1" fill="#231f20"/>
    <rect x="61" y="32" width="5" height="1" fill="#231f20"/>
    <rect x="69" y="32" width="12" height="1" fill="#231f20"/>
    <rect x="84" y="32" width="5" height="1" fill="#231f20"/>
    <rect x="96" y="32" width="4" height="1" fill="#231f20"/>
    <rect x="108" y="32" width="6" height="1" fill="#231f20"/>
    <rect x="117" y="32" width="11" height="1" fill="#231f20"/>
    <rect x="131" y="32" width="6" height="1" fill="#231f20"/>
    <rect x="143" y="32" width="6" height="1" fill="#231f20"/>
    <rect x="2" y="33" width="5" height="1" fill="#231f20"/>
    <rect x="9" y="33" width="2" height="1" fill="#231f20"/>
    <rect x="15" y="33" width="5" height="1" fill="#231f20"/>
    <rect x="24" y="33" width="7" height="1" fill="#231f20"/>
    <rect x="35" y="33" width="5" height="1" fill="#231f20"/>
    <rect x="44" y="33" width="2" height="1" fill="#231f20"/>
    <rect x="50" y="33" width="4" height="1" fill="#231f20"/>
    <rect x="57" y="33" width="2" height="1" fill="#231f20"/>
    <rect x="62" y="33" width="6" height="1" fill="#231f20"/>
    <rect x="71" y="33" width="8" height="1" fill="#231f20"/>
    <rect x="82" y="33" width="6" height="1" fill="#231f20"/>
    <rect x="91" y="33" width="2" height="1" fill="#231f20"/>
    <rect x="96" y="33" width="4" height="1" fill="#231f20"/>
    <rect x="104" y="33" width="2" height="1" fill="#231f20"/>
    <rect x="110" y="33" width="5" height="1" fill="#231f20"/>
    <rect x="119" y="33" width="7" height="1" fill="#231f20"/>
    <rect x="130" y="33" width="5" height="1" fill="#231f20"/>
    <rect x="139" y="33" width="2" height="1" fill="#231f20"/>
    <rect x="143" y="33" width="6" height="1" fill="#231f20"/>
    <rect x="2" y="34" width="5" height="1" fill="#231f20"/>
    <rect x="9" y="34" width="4" height="1" fill="#231f20"/>
    <rect x="17" y="34" width="5" height="1" fill="#231f20"/>
    <rect x="26" y="34" width="3" height="1" fill="#231f20"/>
    <rect x="33" y="34" width="6" height="1" fill="#231f20"/>
    <rect x="42" y="34" width="5" height="1" fill="#231f20"/>
    <rect x="50" y="34" width="4" height="1" fill="#231f20"/>
    <rect x="56" y="34" width="5" height="1" fill="#231f20"/>
    <rect x="64" y="34" width="5" height="1" fill="#231f20"/>
    <rect x="73" y="34" width="4" height="1" fill="#231f20"/>
    <rect x="81" y="34" width="5" height="1" fill="#231f20"/>
    <rect x="89" y="34" width="5" height="1" fill="#231f20"/>
    <rect x="96" y="34" width="4" height="1" fill="#231f20"/>
    <rect x="103" y="34" width="5" height="1" fill="#231f20"/>
    <rect x="111" y="34" width="6" height="1" fill="#231f20"/>
    <rect x="121" y="34" width="3" height="1" fill="#231f20"/>
    <rect x="128" y="34" width="6" height="1" fill="#231f20"/>
    <rect x="137" y="34" width="5" height="1" fill="#231f20"/>
    <rect x="143" y="34" width="6" height="1" fill="#231f20"/>
    <rect x="2" y="35" width="5" height="1" fill="#231f20"/>
    <rect x="10" y="35" width="5" height="1" fill="#231f20"/>
    <rect x="18" y="35" width="6" height="1" fill="#231f20"/>
    <rect x="26" y="35" width="3" height="1" fill="#231f20"/>
    <rect x="31" y="35" width="6" height="1" fill="#231f20"/>
    <rect x="40" y="35" width="6" height="1" fill="#231f20"/>
    <rect x="50" y="35" width="4" height="1" fill="#231f20"/>
    <rect x="57" y="35" width="6" height="1" fill="#231f20"/>
    <rect x="65" y="35" width="6" height="1" fill="#231f20"/>
    <rect x="73" y="35" width="4" height="1" fill="#231f20"/>
    <rect x="79" y="35" width="6" height="1" fill="#231f20"/>
    <rect x="87" y="35" width="6" height="1" fill="#231f20"/>
    <rect x="96" y="35" width="4" height="1" fill="#231f20"/>
    <rect x="104" y="35" width="6" height="1" fill="#231f20"/>
    <rect x="113" y="35" width="6" height="1" fill="#231f20"/>
    <rect x="121" y="35" width="3" height="1" fill="#231f20"/>
    <rect x="126" y="35" width="6" height="1" fill="#231f20"/>
    <rect x="135" y="35" width="6" height="1" fill="#231f20"/>
    <rect x="143" y="35" width="6" height="1" fill="#231f20"/>
    <rect x="2" y="36" width="5" height="1" fill="#231f20"/>
    <rect x="12" y="36" width="5" height="1" fill="#231f20"/>
    <rect x="20" y="36" width="15" height="1" fill="#231f20"/>
    <rect x="38" y="36" width="6" height="1" fill="#231f20"/>
    <rect x="50" y="36" width="4" height="1" fill="#231f20"/>
    <rect x="59" y="36" width="6" height="1" fill="#231f20"/>
    <rect x="67" y="36" width="16" height="1" fill="#231f20"/>
    <rect x="85" y="36" width="6" height="1" fill="#231f20"/>
    <rect x="96" y="36" width="4" height="1" fill="#231f20"/>
    <rect x="106" y="36" width="6" height="1" fill="#231f20"/>
    <rect x="115" y="36" width="15" height="1" fill="#231f20"/>
    <rect x="133" y="36" width="6" height="1" fill="#231f20"/>
    <rect x="143" y="36" width="6" height="1" fill="#231f20"/>
    <rect x="2" y="37" width="5" height="1" fill="#231f20"/>
    <rect x="14" y="37" width="5" height="1" fill="#231f20"/>
    <rect x="22" y="37" width="11" height="1" fill="#231f20"/>
    <rect x="36" y="37" width="6" height="1" fill="#231f20"/>
    <rect x="50" y="37" width="4" height="1" fill="#231f20"/>
    <rect x="61" y="37" width="5" height="1" fill="#231f20"/>
    <rect x="69" y="37" width="12" height="1" fill="#231f20"/>
    <rect x="84" y="37" width="5" height="1" fill="#231f20"/>
    <rect x="96" y="37" width="4" height="1" fill="#231f20"/>
    <rect x="108" y="37" width="6" height="1" fill="#231f20"/>
    <rect x="117" y="37" width="11" height="1" fill="#231f20"/>
    <rect x="131" y="37" width="6" height="1" fill="#231f20"/>
    <rect x="143" y="37" width="6" height="1" fill="#231f20"/>
    <rect x="2" y="38" width="5" height="1" fill="#231f20"/>
    <rect x="9" y="38" width="1" height="1" fill="#231f20"/>
    <rect x="15" y="38" width="5" height="1" fill="#231f20"/>
    <rect x="24" y="38" width="7" height="1" fill="#231f20"/>
    <rect x="35" y="38" width="5" height="1" fill="#231f20"/>
    <rect x="45" y="38" width="1" height="1" fill="#231f20"/>
    <rect x="50" y="38" width="4" height="1" fill="#231f20"/>
    <rect x="57" y="38" width="1" height="1" fill="#231f20"/>
    <rect x="62" y="38" width="6" height="1" fill="#231f20"/>
    <rect x="71" y="38" width="8" height="1" fill="#231f20"/>
    <rect x="82" y="38" width="6" height="1" fill="#231f20"/>
    <rect x="92" y="38" width="1" height="1" fill="#231f20"/>
    <rect x="96" y="38" width="4" height="1" fill="#231f20"/>
    <rect x="104" y="38" width="1" height="1" fill="#231f20"/>
    <rect x="110" y="38" width="5" height="1" fill="#231f20"/>
    <rect x="119" y="38" width="7" height="1" fill="#231f20"/>
    <rect x="130" y="38" width="5" height="1" fill="#231f20"/>
    <rect x="140" y="38" width="1" height="1" fill="#231f20"/>
    <rect x="143" y="38" width="6" height="1" fill="#231f20"/>
    <rect x="2" y="39" width="5" height="1" fill="#231f20"/>
    <rect x="9" y="39" width="3" height="1" fill="#231f20"/>
    <rect x="17" y="39" width="5" height="1" fill="#231f20"/>
    <rect x="26" y="39" width="3" height="1" fill="#231f20"/>
    <rect x="33" y="39" width="6" height="1" fill="#231f20"/>
    <rect x="43" y="39" width="4" height="1" fill="#231f20"/>
    <rect x="50" y="39" width="4" height="1" fill="#231f20"/>
    <rect x="57" y="39" width="3" height="1" fill="#231f20"/>
    <rect x="64" y="39" width="5" height="1" fill="#231f20"/>
    <rect x="73" y="39" width="4" height="1" fill="#231f20"/>
    <rect x="81" y="39" width="5" height="1" fill="#231f20"/>
    <rect x="90" y="39" width="4" height="1" fill="#231f20"/>
    <rect x="96" y="39" width="4" height="1" fill="#231f20"/>
    <rect x="104" y="39" width="3" height="1" fill="#231f20"/>
    <rect x="111" y="39" width="6" height="1" fill="#231f20"/>
    <rect x="121" y="39" width="3" height="1" fill="#231f20"/>
    <rect x="128" y="39" width="6" height="1" fill="#231f20"/>
    <rect x="138" y="39" width="4" height="1" fill="#231f20"/>
    <rect x="143" y="39" width="6" height="1" fill="#231f20"/>
    <rect x="2" y="40" width="5" height="1" fill="#231f20"/>
    <rect x="9" y="40" width="5" height="1" fill="#231f20"/>
    <rect x="18" y="40" width="6" height="1" fill="#231f20"/>
    <rect x="26" y="40" width="3" height="1" fill="#231f20"/>
    <rect x="31" y="40" width="6" height="1" fill="#231f20"/>
    <rect x="41" y="40" width="6" height="1" fill="#231f20"/>
    <rect x="50" y="40" width="4" height="1" fill="#231f20"/>
    <rect x="56" y="40" width="6" height="1" fill="#231f20"/>
    <rect x="65" y="40" width="6" height="1" fill="#231f20"/>
    <rect x="73" y="40" width="4" height="1" fill="#231f20"/>
    <rect x="79" y="40" width="6" height="1" fill="#231f20"/>
    <rect x="88" y="40" width="6" height="1" fill="#231f20"/>
    <rect x="96" y="40" width="4" height="1" fill="#231f20"/>
    <rect x="103" y="40" width="6" height="1" fill="#231f20"/>
    <rect x="113" y="40" width="6" height="1" fill="#231f20"/>
    <rect x="121" y="40" width="3" height="1" fill="#231f20"/>
    <rect x="126" y="40" width="6" height="1" fill="#231f20"/>
    <rect x="136" y="40" width="6" height="1" fill="#231f20"/>
    <rect x="143" y="40" width="6" height="1" fill="#231f20"/>
    <rect x="2" y="41" width="5" height="1" fill="#231f20"/>
    <rect x="10" y="41" width="6" height="1" fill="#231f20"/>
    <rect x="20" y="41" width="15" height="1" fill="#231f20"/>
    <rect x="39" y="41" width="7" height="1" fill="#231f20"/>
    <rect x="50" y="41" width="4" height="1" fill="#231f20"/>
    <rect x="57" y="41" width="7" height="1" fill="#231f20"/>
    <rect x="67" y="41" width="16" height="1" fill="#231f20"/>
    <rect x="86" y="41" width="7" height="1" fill="#231f20"/>
    <rect x="96" y="41" width="4" height="1" fill="#231f20"/>
    <rect x="104" y="41" width="7" height="1" fill="#231f20"/>
    <rect x="115" y="41" width="15" height="1" fill="#231f20"/>
    <rect x="134" y="41" width="7" height="1" fill="#231f20"/>
    <rect x="143" y="41" width="6" height="1" fill="#231f20"/>
    <rect x="2" y="42" width="5" height="1" fill="#231f20"/>
    <rect x="12" y="42" width="6" height="1" fill="#231f20"/>
    <rect x="22" y="42" width="11" height="1" fill="#231f20"/>
    <rect x="37" y="42" width="7" height="1" fill="#231f20"/>
    <rect x="50" y="42" width="4" height="1" fill="#231f20"/>
    <rect x="59" y="42" width="7" height="1" fill="#231f20"/>
    <rect x="69" y="42" width="12" height="1" fill="#231f20"/>
    <rect x="84" y="42" width="7" height="1" fill="#231f20"/>
    <rect x="96" y="42" width="4" height="1" fill="#231f20"/>
    <rect x="106" y="42" width="7" height="1" fill="#231f20"/>
    <rect x="117" y="42" width="11" height="1" fill="#231f20"/>
    <rect x="132" y="42" width="7" height="1" fill="#231f20"/>
    <rect x="143" y="42" width="6" height="1" fill="#231f20"/>
    <rect x="2" y="43" width="5" height="1" fill="#231f20"/>
    <rect x="9" y="43" width="1" height="1" fill="#231f20"/>
    <rect x="14" y="43" width="6" height="1" fill="#231f20"/>
    <rect x="24" y="43" width="7" height="1" fill="#231f20"/>
    <rect x="35" y="43" width="7" height="1" fill="#231f20"/>
    <rect x="45" y="43" width="1" height="1" fill="#231f20"/>
    <rect x="50" y="43" width="4" height="1" fill="#231f20"/>
    <rect x="57" y="43" width="1" height="1" fill="#231f20"/>
    <rect x="61" y="43" width="6" height="1" fill="#231f20"/>
    <rect x="71" y="43" width="8" height="1" fill="#231f20"/>
    <rect x="83" y="43" width="6" height="1" fill="#231f20"/>
    <rect x="92" y="43" width="1" height="1" fill="#231f20"/>
    <rect x="96" y="43" width="4" height="1" fill="#231f20"/>
    <rect x="104" y="43" width="1" height="1" fill="#231f20"/>
    <rect x="108" y="43" width="7" height="1" fill="#231f20"/>
    <rect x="119" y="43" width="7" height="1" fill="#231f20"/>
    <rect x="130" y="43" width="7" height="1" fill="#231f20"/>
    <rect x="140" y="43" width="1" height="1" fill="#231f20"/>
    <rect x="143" y="43" width="6" height="1" fill="#231f20"/>
    <rect x="2" y="44" width="5" height="1" fill="#231f20"/>
    <rect x="9" y="44" width="3" height="1" fill="#231f20"/>
    <rect x="15" y="44" width="7" height="1" fill="#231f20"/>
    <rect x="26" y="44" width="3" height="1" fill="#231f20"/>
    <rect x="33" y="44" width="7" height="1" fill="#231f20"/>
    <rect x="43" y="44" width="4" height="1" fill="#231f20"/>
    <rect x="50" y="44" width="4" height="1" fill="#231f20"/>
    <rect x="57" y="44" width="3" height="1" fill="#231f20"/>
    <rect x="62" y="44" width="7" height="1" fill="#231f20"/>
    <rect x="73" y="44" width="4" height="1" fill="#231f20"/>
    <rect x="81" y="44" width="7" height="1" fill="#231f20"/>
    <rect x="90" y="44" width="4" height="1" fill="#231f20"/>
    <rect x="96" y="44" width="4" height="1" fill="#231f20"/>
    <rect x="104" y="44" width="3" height="1" fill="#231f20"/>
    <rect x="110" y="44" width="7" height="1" fill="#231f20"/>
    <rect x="121" y="44" width="3" height="1" fill="#231f20"/>
    <rect x="128" y="44" width="7" height="1" fill="#231f20"/>
    <rect x="138" y="44" width="4" height="1" fill="#231f20"/>
    <rect x="143" y="44" width="6" height="1" fill="#231f20"/>
    <rect x="2" y="45" width="5" height="1" fill="#231f20"/>
    <rect x="9" y="45" width="5" height="1" fill="#231f20"/>
    <rect x="17" y="45" width="7" height="1" fill="#231f20"/>
    <rect x="26" y="45" width="3" height="1" fill="#231f20"/>
    <rect x="31" y="45" width="7" height="1" fill="#231f20"/>
    <rect x="41" y="45" width="6" height="1" fill="#231f20"/>
    <rect x="50" y="45" width="4" height="1" fill="#231f20"/>
    <rect x="56" y="45" width="6" height="1" fill="#231f20"/>
    <rect x="64" y="45" width="7" height="1" fill="#231f20"/>
    <rect x="73" y="45" width="4" height="1" fill="#231f20"/>
    <rect x="79" y="45" width="7" height="1" fill="#231f20"/>
    <rect x="88" y="45" width="6" height="1" fill="#231f20"/>
    <rect x="96" y="45" width="4" height="1" fill="#231f20"/>
    <rect x="103" y="45" width="6" height="1" fill="#231f20"/>
    <rect x="112" y="45" width="7" height="1" fill="#231f20"/>
    <rect x="121" y="45" width="3" height="1" fill="#231f20"/>
    <rect x="126" y="45" width="7" height="1" fill="#231f20"/>
    <rect x="136" y="45" width="6" height="1" fill="#231f20"/>
    <rect x="143" y="45" width="6" height="1" fill="#231f20"/>
    <rect x="2" y="46" width="5" height="1" fill="#231f20"/>
    <rect x="10" y="46" width="6" height="1" fill="#231f20"/>
    <rect x="19" y="46" width="18" height="1" fill="#231f20"/>
    <rect x="39" y="46" width="7" height="1" fill="#231f20"/>
    <rect x="50" y="46" width="4" height="1" fill="#231f20"/>
    <rect x="57" y="46" width="7" height="1" fill="#231f20"/>
    <rect x="66" y="46" width="18" height="1" fill="#231f20"/>
    <rect x="86" y="46" width="7" height="1" fill="#231f20"/>
    <rect x="96" y="46" width="4" height="1" fill="#231f20"/>
    <rect x="104" y="46" width="7" height="1" fill="#231f20"/>
    <rect x="113" y="46" width="19" height="1" fill="#231f20"/>
    <rect x="134" y="46" width="7" height="1" fill="#231f20"/>
    <rect x="143" y="46" width="6" height="1" fill="#231f20"/>
    <rect x="2" y="47" width="5" height="1" fill="#231f20"/>
    <rect x="12" y="47" width="6" height="1" fill="#231f20"/>
    <rect x="21" y="47" width="14" height="1" fill="#231f20"/>
    <rect x="37" y="47" width="7" height="1" fill="#231f20"/>
    <rect x="50" y="47" width="4" height="1" fill="#231f20"/>
    <rect x="59" y="47" width="7" height="1" fill="#231f20"/>
    <rect x="68" y="47" width="14" height="1" fill="#231f20"/>
    <rect x="84" y="47" width="7" height="1" fill="#231f20"/>
    <rect x="96" y="47" width="4" height="1" fill="#231f20"/>
    <rect x="106" y="47" width="7" height="1" fill="#231f20"/>
    <rect x="115" y="47" width="15" height="1" fill="#231f20"/>
    <rect x="132" y="47" width="7" height="1" fill="#231f20"/>
    <rect x="143" y="47" width="6" height="1" fill="#231f20"/>
    <rect x="2" y="48" width="5" height="1" fill="#231f20"/>
    <rect x="14" y="48" width="6" height="1" fill="#231f20"/>
    <rect x="22" y="48" width="11" height="1" fill="#231f20"/>
    <rect x="35" y="48" width="7" height="1" fill="#231f20"/>
    <rect x="50" y="48" width="4" height="1" fill="#231f20"/>
    <rect x="61" y="48" width="6" height="1" fill="#231f20"/>
    <rect x="69" y="48" width="12" height="1" fill="#231f20"/>
    <rect x="83" y="48" width="6" height="1" fill="#231f20"/>
    <rect x="96" y="48" width="4" height="1" fill="#231f20"/>
    <rect x="108" y="48" width="7" height="1" fill="#231f20"/>
    <rect x="117" y="48" width="11" height="1" fill="#231f20"/>
    <rect x="130" y="48" width="7" height="1" fill="#231f20"/>
    <rect x="143" y="48" width="6" height="1" fill="#231f20"/>
    <rect x="2" y="49" width="5" height="1" fill="#231f20"/>
    <rect x="15" y="49" width="7" height="1" fill="#231f20"/>
    <rect x="24" y="49" width="7" height="1" fill="#231f20"/>
    <rect x="33" y="49" width="7" height="1" fill="#231f20"/>
    <rect x="50" y="49" width="4" height="1" fill="#231f20"/>
    <rect x="62" y="49" width="7" height="1" fill="#231f20"/>
    <rect x="71" y="49" width="8" height="1" fill="#231f20"/>
    <rect x="81" y="49" width="7" height="1" fill="#231f20"/>
    <rect x="96" y="49" width="4" height="1" fill="#231f20"/>
    <rect x="110" y="49" width="7" height="1" fill="#231f20"/>
    <rect x="119" y="49" width="7" height="1" fill="#231f20"/>
    <rect x="128" y="49" width="7" height="1" fill="#231f20"/>
    <rect x="143" y="49" width="6" height="1" fill="#231f20"/>
    <rect x="2" y="50" width="5" height="1" fill="#231f20"/>
    <rect x="17" y="50" width="7" height="1" fill="#231f20"/>
    <rect x="26" y="50" width="3" height="1" fill="#231f20"/>
    <rect x="31" y="50" width="7" height="1" fill="#231f20"/>
    <rect x="50" y="50" width="4" height="1" fill="#231f20"/>
    <rect x="64" y="50" width="7" height="1" fill="#231f20"/>
    <rect x="73" y="50" width="4" height="1" fill="#231f20"/>
    <rect x="79" y="50" width="7" height="1" fill="#231f20"/>
    <rect x="96" y="50" width="4" height="1" fill="#231f20"/>
    <rect x="112" y="50" width="7" height="1" fill="#231f20"/>
    <rect x="121" y="50" width="3" height="1" fill="#231f20"/>
    <rect x="126" y="50" width="7" height="1" fill="#231f20"/>
    <rect x="143" y="50" width="6" height="1" fill="#231f20"/>
    <rect x="2" y="51" width="5" height="1" fill="#231f20"/>
    <rect x="19" y="51" width="18" height="1" fill="#231f20"/>
    <rect x="50" y="51" width="4" height="1" fill="#231f20"/>
    <rect x="66" y="51" width="18" height="1" fill="#231f20"/>
    <rect x="96" y="51" width="4" height="1" fill="#231f20"/>
    <rect x="113" y="51" width="19" height="1" fill="#231f20"/>
    <rect x="143" y="51" width="6" height="1" fill="#231f20"/>
    <rect x="2" y="52" width="5" height="1" fill="#231f20"/>
    <rect x="21" y="52" width="14" height="1" fill="#231f20"/>
    <rect x="50" y="52" width="4" height="1" fill="#231f20"/>
    <rect x="68" y="52" width="14" height="1" fill="#231f20"/>
    <rect x="96" y="52" width="4" height="1" fill="#231f20"/>
    <rect x="115" y="52" width="15" height="1" fill="#231f20"/>
    <rect x="143" y="52" width="6" height="1" fill="#231f20"/>
    <rect x="2" y="53" width="5" height="1" fill="#231f20"/>
    <rect x="22" y="53" width="11" height="1" fill="#231f20"/>
    <rect x="50" y="53" width="4" height="1" fill="#231f20"/>
    <rect x="69" y="53" width="12" height="1" fill="#231f20"/>
    <rect x="96" y="53" width="4" height="1" fill="#231f20"/>
    <rect x="117" y="53" width="11" height="1" fill="#231f20"/>
    <rect x="143" y="53" width="6" height="1" fill="#231f20"/>
    <rect x="2" y="54" width="5" height="1" fill="#231f20"/>
    <rect x="24" y="54" width="7" height="1" fill="#231f20"/>
    <rect x="50" y="54" width="4" height="1" fill="#231f20"/>
    <rect x="71" y="54" width="8" height="1" fill="#231f20"/>
    <rect x="96" y="54" width="4" height="1" fill="#231f20"/>
    <rect x="119" y="54" width="7" height="1" fill="#231f20"/>
    <rect x="143" y="54" width="6" height="1" fill="#231f20"/>
    <rect x="2" y="55" width="147" height="1" fill="#231f20"/>
    <rect x="2" y="56" width="147" height="1" fill="#231f20"/>
    <rect x="2" y="57" width="147" height="1" fill="#231f20"/>
    <rect x="2" y="58" width="147" height="1" fill="#231f20"/>
    <rect x="2" y="59" width="147" height="1" fill="#231f20"/>
    <rect x="2" y="60" width="147" height="1" fill="#231f20"/>
  </g>
</svg>