<?xml version="1.0" encoding="UTF-8"?>
<svg xmlns="http://www.w3.org/2000/svg" viewBox="0 0 172 79" width="172" height="79">
  <!-- Auto-converted from legend-2732.png -->
  <rect x="0" y="0" width="172" height="79" fill="none"/>
  <g fill="#393536" stroke="none">
    <rect x="0" y="0" width="172" height="1" fill="#393536"/>
    <rect x="0" y="1" width="1" height="1" fill="#393536"/>
    <rect x="171" y="1" width="1" height="1" fill="#393536"/>
    <rect x="0" y="2" width="1" height="1" fill="#393536"/>
    <rect x="171" y="2" width="1" height="1" fill="#393536"/>
    <rect x="0" y="3" width="1" height="1" fill="#393536"/>
    <rect x="171" y="3" width="1" height="1" fill="#393536"/>
    <rect x="0" y="4" width="1" height="1" fill="#393536"/>
    <rect x="171" y="4" width="1" height="1" fill="#393536"/>
    <rect x="0" y="5" width="1" height="1" fill="#393536"/>
    <rect x="171" y="5" width="1" height="1" fill="#393536"/>
    <rect x="0" y="6" width="1" height="1" fill="#393536"/>
    <rect x="171" y="6" width="1" height="1" fill="#393536"/>
    <rect x="0" y="7" width="1" height="1" fill="#393536"/>
    <rect x="171" y="7" width="1" height="1" fill="#393536"/>
    <rect x="0" y="8" width="1" height="1" fill="#393536"/>
    <rect x="171" y="8" width="1" height="1" fill="#393536"/>
    <rect x="0" y="9" width="1" height="1" fill="#393536"/>
    <rect x="171" y="9" width="1" height="1" fill="#393536"/>
    <rect x="0" y="10" width="1" height="1" fill="#393536"/>
    <rect x="171" y="10" width="1" height="1" fill="#393536"/>
    <rect x="0" y="11" width="1" height="1" fill="#393536"/>
    <rect x="171" y="11" width="1" height="1" fill="#393536"/>
    <rect x="0" y="12" width="1" height="1" fill="#393536"/>
    <rect x="171" y="12" width="1" height="1" fill="#393536"/>
    <rect x="0" y="13" width="1" height="1" fill="#393536"/>
    <rect x="171" y="13" width="1" height="1" fill="#393536"/>
    <rect x="0" y="14" width="1" height="1" fill="#393536"/>
    <rect x="171" y="14" width="1" height="1" fill="#393536"/>
    <rect x="0" y="15" width="1" height="1" fill="#393536"/>
    <rect x="171" y="15" width="1" height="1" fill="#393536"/>
    <rect x="0" y="16" width="1" height="1" fill="#393536"/>
    <rect x="171" y="16" width="1" height="1" fill="#393536"/>
    <rect x="0" y="17" width="1" height="1" fill="#393536"/>
    <rect x="171" y="17" width="1" height="1" fill="#393536"/>
    <rect x="0" y="18" width="1" height="1" fill="#393536"/>
    <rect x="171" y="18" width="1" height="1" fill="#393536"/>
    <rect x="0" y="19" width="1" height="1" fill="#393536"/>
    <rect x="171" y="19" width="1" height="1" fill="#393536"/>
    <rect x="0" y="20" width="1" height="1" fill="#393536"/>
    <rect x="171" y="20" width="1" height="1" fill="#393536"/>
    <rect x="0" y="21" width="1" height="1" fill="#393536"/>
    <rect x="171" y="21" width="1" height="1" fill="#393536"/>
    <rect x="0" y="22" width="1" height="1" fill="#393536"/>
    <rect x="171" y="22" width="1" height="1" fill="#393536"/>
    <rect x="0" y="23" width="1" height="1" fill="#393536"/>
    <rect x="171" y="23" width="1" height="1" fill="#393536"/>
    <rect x="0" y="24" width="1" height="1" fill="#393536"/>
    <rect x="171" y="24" width="1" height="1" fill="#393536"/>
    <rect x="0" y="25" width="1" height="1" fill="#393536"/>
    <rect x="69" y="25" width="2" height="1" fill="#393536"/>
    <rect x="75" y="25" width="3" height="1" fill="#393536"/>
    <rect x="150" y="25" width="1" height="1" fill="#393536"/>
    <rect x="171" y="25" width="1" height="1" fill="#393536"/>
    <rect x="0" y="26" width="1" height="1" fill="#393536"/>
    <rect x="22" y="26" width="12" height="1" fill="#393536"/>
    <rect x="69" y="26" width="2" height="1" fill="#393536"/>
    <rect x="75" y="26" width="3" height="1" fill="#393536"/>
    <rect x="149" y="26" width="2" height="1" fill="#393536"/>
    <rect x="171" y="26" width="1" height="1" fill="#393536"/>
    <rect x="0" y="27" width="1" height="1" fill="#393536"/>
    <rect x="21" y="27" width="14" height="1" fill="#393536"/>
    <rect x="69" y="27" width="2" height="1" fill="#393536"/>
    <rect x="75" y="27" width="3" height="1" fill="#393536"/>
    <rect x="82" y="27" width="2" height="1" fill="#393536"/>
    <rect x="131" y="27" width="21" height="1" fill="#393536"/>
    <rect x="171" y="27" width="1" height="1" fill="#393536"/>
    <rect x="0" y="28" width="1" height="1" fill="#393536"/>
    <rect x="20" y="28" width="16" height="1" fill="#393536"/>
    <rect x="62" y="28" width="23" height="1" fill="#393536"/>
    <rect x="140" y="28" width="3" height="1" fill="#393536"/>
    <rect x="171" y="28" width="1" height="1" fill="#393536"/>
    <rect x="0" y="29" width="1" height="1" fill="#393536"/>
    <rect x="19" y="29" width="18" height="1" fill="#393536"/>
    <rect x="63" y="29" width="1" height="1" fill="#393536"/>
    <rect x="69" y="29" width="2" height="1" fill="#393536"/>
    <rect x="75" y="29" width="3" height="1" fill="#393536"/>
    <rect x="90" y="29" width="6" height="1" fill="#393536"/>
    <rect x="105" y="29" width="5" height="1" fill="#393536"/>
    <rect x="133" y="29" width="1" height="1" fill="#393536"/>
    <rect x="140" y="29" width="3" height="1" fill="#393536"/>
    <rect x="148" y="29" width="2" height="1" fill="#393536"/>
    <rect x="159" y="29" width="5" height="1" fill="#393536"/>
    <rect x="171" y="29" width="1" height="1" fill="#393536"/>
    <rect x="0" y="30" width="1" height="1" fill="#393536"/>
    <rect x="18" y="30" width="20" height="1" fill="#393536"/>
    <rect x="69" y="30" width="2" height="1" fill="#393536"/>
    <rect x="75" y="30" width="3" height="1" fill="#393536"/>
    <rect x="89" y="30" width="3" height="1" fill="#393536"/>
    <rect x="95" y="30" width="2" height="1" fill="#393536"/>
    <rect x="103" y="30" width="3" height="1" fill="#393536"/>
    <rect x="108" y="30" width="3" height="1" fill="#393536"/>
    <rect x="133" y="30" width="2" height="1" fill="#393536"/>
    <rect x="140" y="30" width="3" height="1" fill="#393536"/>
    <rect x="147" y="30" width="3" height="1" fill="#393536"/>
    <rect x="157" y="30" width="3" height="1" fill="#393536"/>
    <rect x="162" y="30" width="3" height="1" fill="#393536"/>
    <rect x="171" y="30" width="1" height="1" fill="#393536"/>
    <rect x="0" y="31" width="1" height="1" fill="#393536"/>
    <rect x="17" y="31" width="22" height="1" fill="#393536"/>
    <rect x="69" y="31" width="2" height="1" fill="#393536"/>
    <rect x="75" y="31" width="3" height="1" fill="#393536"/>
    <rect x="88" y="31" width="3" height="1" fill="#393536"/>
    <rect x="96" y="31" width="2" height="1" fill="#393536"/>
    <rect x="103" y="31" width="2" height="1" fill="#393536"/>
    <rect x="109" y="31" width="3" height="1" fill="#393536"/>
    <rect x="134" y="31" width="2" height="1" fill="#393536"/>
    <rect x="140" y="31" width="3" height="1" fill="#393536"/>
    <rect x="147" y="31" width="3" height="1" fill="#393536"/>
    <rect x="157" y="31" width="2" height="1" fill="#393536"/>
    <rect x="163" y="31" width="3" height="1" fill="#393536"/>
    <rect x="171" y="31" width="1" height="1" fill="#393536"/>
    <rect x="0" y="32" width="1" height="1" fill="#393536"/>
    <rect x="16" y="32" width="24" height="1" fill="#393536"/>
    <rect x="63" y="32" width="21" height="1" fill="#393536"/>
    <rect x="88" y="32" width="3" height="1" fill="#393536"/>
    <rect x="96" y="32" width="3" height="1" fill="#393536"/>
    <rect x="103" y="32" width="2" height="1" fill="#393536"/>
    <rect x="110" y="32" width="2" height="1" fill="#393536"/>
    <rect x="134" y="32" width="3" height="1" fill="#393536"/>
    <rect x="140" y="32" width="3" height="1" fill="#393536"/>
    <rect x="146" y="32" width="3" height="1" fill="#393536"/>
    <rect x="157" y="32" width="2" height="1" fill="#393536"/>
    <rect x="164" y="32" width="2" height="1" fill="#393536"/>
    <rect x="171" y="32" width="1" height="1" fill="#393536"/>
    <rect x="0" y="33" width="1" height="1" fill="#393536"/>
    <rect x="16" y="33" width="25" height="1" fill="#393536"/>
    <rect x="63" y="33" width="22" height="1" fill="#393536"/>
    <rect x="88" y="33" width="2" height="1" fill="#393536"/>
    <rect x="97" y="33" width="2" height="1" fill="#393536"/>
    <rect x="103" y="33" width="2" height="1" fill="#393536"/>
    <rect x="110" y="33" width="2" height="1" fill="#393536"/>
    <rect x="135" y="33" width="3" height="1" fill="#393536"/>
    <rect x="140" y="33" width="3" height="1" fill="#393536"/>
    <rect x="146" y="33" width="2" height="1" fill="#393536"/>
    <rect x="157" y="33" width="2" height="1" fill="#393536"/>
    <rect x="164" y="33" width="2" height="1" fill="#393536"/>
    <rect x="171" y="33" width="1" height="1" fill="#393536"/>
    <rect x="0" y="34" width="1" height="1" fill="#393536"/>
    <rect x="15" y="34" width="26" height="1" fill="#393536"/>
    <rect x="63" y="34" width="2" height="1" fill="#393536"/>
    <rect x="81" y="34" width="3" height="1" fill="#393536"/>
    <rect x="88" y="34" width="2" height="1" fill="#393536"/>
    <rect x="97" y="34" width="2" height="1" fill="#393536"/>
    <rect x="110" y="34" width="2" height="1" fill="#393536"/>
    <rect x="135" y="34" width="3" height="1" fill="#393536"/>
    <rect x="140" y="34" width="3" height="1" fill="#393536"/>
    <rect x="145" y="34" width="2" height="1" fill="#393536"/>
    <rect x="164" y="34" width="2" height="1" fill="#393536"/>
    <rect x="171" y="34" width="1" height="1" fill="#393536"/>
    <rect x="0" y="35" width="1" height="1" fill="#393536"/>
    <rect x="15" y="35" width="26" height="1" fill="#393536"/>
    <rect x="62" y="35" width="3" height="1" fill="#393536"/>
    <rect x="67" y="35" width="13" height="1" fill="#393536"/>
    <rect x="81" y="35" width="1" height="1" fill="#393536"/>
    <rect x="88" y="35" width="2" height="1" fill="#393536"/>
    <rect x="97" y="35" width="2" height="1" fill="#393536"/>
    <rect x="109" y="35" width="3" height="1" fill="#393536"/>
    <rect x="136" y="35" width="1" height="1" fill="#393536"/>
    <rect x="140" y="35" width="3" height="1" fill="#393536"/>
    <rect x="144" y="35" width="2" height="1" fill="#393536"/>
    <rect x="163" y="35" width="3" height="1" fill="#393536"/>
    <rect x="171" y="35" width="1" height="1" fill="#393536"/>
    <rect x="0" y="36" width="1" height="1" fill="#393536"/>
    <rect x="15" y="36" width="26" height="1" fill="#393536"/>
    <rect x="61" y="36" width="3" height="1" fill="#393536"/>
    <rect x="67" y="36" width="14" height="1" fill="#393536"/>
    <rect x="88" y="36" width="3" height="1" fill="#393536"/>
    <rect x="96" y="36" width="3" height="1" fill="#393536"/>
    <rect x="108" y="36" width="3" height="1" fill="#393536"/>
    <rect x="140" y="36" width="3" height="1" fill="#393536"/>
    <rect x="144" y="36" width="1" height="1" fill="#393536"/>
    <rect x="150" y="36" width="3" height="1" fill="#393536"/>
    <rect x="162" y="36" width="3" height="1" fill="#393536"/>
    <rect x="171" y="36" width="1" height="1" fill="#393536"/>
    <rect x="0" y="37" width="1" height="1" fill="#393536"/>
    <rect x="15" y="37" width="26" height="1" fill="#393536"/>
    <rect x="67" y="37" width="2" height="1" fill="#393536"/>
    <rect x="78" y="37" width="2" height="1" fill="#393536"/>
    <rect x="88" y="37" width="3" height="1" fill="#393536"/>
    <rect x="96" y="37" width="3" height="1" fill="#393536"/>
    <rect x="107" y="37" width="4" height="1" fill="#393536"/>
    <rect x="115" y="37" width="12" height="1" fill="#393536"/>
    <rect x="129" y="37" width="25" height="1" fill="#393536"/>
    <rect x="161" y="37" width="4" height="1" fill="#393536"/>
    <rect x="171" y="37" width="1" height="1" fill="#393536"/>
    <rect x="0" y="38" width="1" height="1" fill="#393536"/>
    <rect x="14" y="38" width="27" height="1" fill="#393536"/>
    <rect x="67" y="38" width="2" height="1" fill="#393536"/>
    <rect x="78" y="38" width="2" height="1" fill="#393536"/>
    <rect x="89" y="38" width="3" height="1" fill="#393536"/>
    <rect x="94" y="38" width="5" height="1" fill="#393536"/>
    <rect x="109" y="38" width="3" height="1" fill="#393536"/>
    <rect x="140" y="38" width="3" height="1" fill="#393536"/>
    <rect x="163" y="38" width="3" height="1" fill="#393536"/>
    <rect x="171" y="38" width="1" height="1" fill="#393536"/>
    <rect x="0" y="39" width="1" height="1" fill="#393536"/>
    <rect x="5" y="39" width="46" height="1" fill="#393536"/>
    <rect x="67" y="39" width="13" height="1" fill="#393536"/>
    <rect x="90" y="39" width="9" height="1" fill="#393536"/>
    <rect x="110" y="39" width="3" height="1" fill="#393536"/>
    <rect x="140" y="39" width="3" height="1" fill="#393536"/>
    <rect x="164" y="39" width="3" height="1" fill="#393536"/>
    <rect x="171" y="39" width="1" height="1" fill="#393536"/>
    <rect x="0" y="40" width="1" height="1" fill="#393536"/>
    <rect x="15" y="40" width="26" height="1" fill="#393536"/>
    <rect x="67" y="40" width="13" height="1" fill="#393536"/>
    <rect x="96" y="40" width="3" height="1" fill="#393536"/>
    <rect x="111" y="40" width="2" height="1" fill="#393536"/>
    <rect x="140" y="40" width="3" height="1" fill="#393536"/>
    <rect x="165" y="40" width="2" height="1" fill="#393536"/>
    <rect x="171" y="40" width="1" height="1" fill="#393536"/>
    <rect x="0" y="41" width="1" height="1" fill="#393536"/>
    <rect x="15" y="41" width="26" height="1" fill="#393536"/>
    <rect x="80" y="41" width="1" height="1" fill="#393536"/>
    <rect x="96" y="41" width="3" height="1" fill="#393536"/>
    <rect x="111" y="41" width="2" height="1" fill="#393536"/>
    <rect x="140" y="41" width="3" height="1" fill="#393536"/>
    <rect x="165" y="41" width="2" height="1" fill="#393536"/>
    <rect x="171" y="41" width="1" height="1" fill="#393536"/>
    <rect x="0" y="42" width="1" height="1" fill="#393536"/>
    <rect x="15" y="42" width="26" height="1" fill="#393536"/>
    <rect x="65" y="42" width="17" height="1" fill="#393536"/>
    <rect x="96" y="42" width="2" height="1" fill="#393536"/>
    <rect x="103" y="42" width="2" height="1" fill="#393536"/>
    <rect x="111" y="42" width="2" height="1" fill="#393536"/>
    <rect x="140" y="42" width="3" height="1" fill="#393536"/>
    <rect x="157" y="42" width="2" height="1" fill="#393536"/>
    <rect x="165" y="42" width="2" height="1" fill="#393536"/>
    <rect x="171" y="42" width="1" height="1" fill="#393536"/>
    <rect x="0" y="43" width="1" height="1" fill="#393536"/>
    <rect x="15" y="43" width="26" height="1" fill="#393536"/>
    <rect x="65" y="43" width="17" height="1" fill="#393536"/>
    <rect x="89" y="43" width="2" height="1" fill="#393536"/>
    <rect x="95" y="43" width="3" height="1" fill="#393536"/>
    <rect x="103" y="43" width="2" height="1" fill="#393536"/>
    <rect x="110" y="43" width="3" height="1" fill="#393536"/>
    <rect x="140" y="43" width="3" height="1" fill="#393536"/>
    <rect x="157" y="43" width="2" height="1" fill="#393536"/>
    <rect x="164" y="43" width="3" height="1" fill="#393536"/>
    <rect x="171" y="43" width="1" height="1" fill="#393536"/>
    <rect x="0" y="44" width="1" height="1" fill="#393536"/>
    <rect x="16" y="44" width="25" height="1" fill="#393536"/>
    <rect x="65" y="44" width="2" height="1" fill="#393536"/>
    <rect x="79" y="44" width="2" height="1" fill="#393536"/>
    <rect x="89" y="44" width="2" height="1" fill="#393536"/>
    <rect x="95" y="44" width="2" height="1" fill="#393536"/>
    <rect x="103" y="44" width="2" height="1" fill="#393536"/>
    <rect x="110" y="44" width="3" height="1" fill="#393536"/>
    <rect x="140" y="44" width="3" height="1" fill="#393536"/>
    <rect x="157" y="44" width="2" height="1" fill="#393536"/>
    <rect x="164" y="44" width="3" height="1" fill="#393536"/>
    <rect x="171" y="44" width="1" height="1" fill="#393536"/>
    <rect x="0" y="45" width="1" height="1" fill="#393536"/>
    <rect x="16" y="45" width="24" height="1" fill="#393536"/>
    <rect x="65" y="45" width="2" height="1" fill="#393536"/>
    <rect x="79" y="45" width="2" height="1" fill="#393536"/>
    <rect x="89" y="45" width="3" height="1" fill="#393536"/>
    <rect x="93" y="45" width="4" height="1" fill="#393536"/>
    <rect x="103" y="45" width="3" height="1" fill="#393536"/>
    <rect x="109" y="45" width="3" height="1" fill="#393536"/>
    <rect x="140" y="45" width="3" height="1" fill="#393536"/>
    <rect x="157" y="45" width="3" height="1" fill="#393536"/>
    <rect x="163" y="45" width="3" height="1" fill="#393536"/>
    <rect x="171" y="45" width="1" height="1" fill="#393536"/>
    <rect x="0" y="46" width="1" height="1" fill="#393536"/>
    <rect x="17" y="46" width="22" height="1" fill="#393536"/>
    <rect x="65" y="46" width="2" height="1" fill="#393536"/>
    <rect x="79" y="46" width="2" height="1" fill="#393536"/>
    <rect x="90" y="46" width="5" height="1" fill="#393536"/>
    <rect x="105" y="46" width="6" height="1" fill="#393536"/>
    <rect x="140" y="46" width="3" height="1" fill="#393536"/>
    <rect x="159" y="46" width="6" height="1" fill="#393536"/>
    <rect x="171" y="46" width="1" height="1" fill="#393536"/>
    <rect x="0" y="47" width="1" height="1" fill="#393536"/>
    <rect x="18" y="47" width="20" height="1" fill="#393536"/>
    <rect x="65" y="47" width="16" height="1" fill="#393536"/>
    <rect x="140" y="47" width="3" height="1" fill="#393536"/>
    <rect x="171" y="47" width="1" height="1" fill="#393536"/>
    <rect x="0" y="48" width="1" height="1" fill="#393536"/>
    <rect x="19" y="48" width="19" height="1" fill="#393536"/>
    <rect x="65" y="48" width="2" height="1" fill="#393536"/>
    <rect x="79" y="48" width="2" height="1" fill="#393536"/>
    <rect x="140" y="48" width="3" height="1" fill="#393536"/>
    <rect x="171" y="48" width="1" height="1" fill="#393536"/>
    <rect x="0" y="49" width="1" height="1" fill="#393536"/>
    <rect x="19" y="49" width="18" height="1" fill="#393536"/>
    <rect x="65" y="49" width="2" height="1" fill="#393536"/>
    <rect x="79" y="49" width="1" height="1" fill="#393536"/>
    <rect x="140" y="49" width="2" height="1" fill="#393536"/>
    <rect x="171" y="49" width="1" height="1" fill="#393536"/>
    <rect x="0" y="50" width="1" height="1" fill="#393536"/>
    <rect x="21" y="50" width="14" height="1" fill="#393536"/>
    <rect x="171" y="50" width="1" height="1" fill="#393536"/>
    <rect x="0" y="51" width="1" height="1" fill="#393536"/>
    <rect x="23" y="51" width="10" height="1" fill="#393536"/>
    <rect x="171" y="51" width="1" height="1" fill="#393536"/>
    <rect x="0" y="52" width="1" height="1" fill="#393536"/>
    <rect x="27" y="52" width="2" height="1" fill="#393536"/>
    <rect x="171" y="52" width="1" height="1" fill="#393536"/>
    <rect x="0" y="53" width="1" height="1" fill="#393536"/>
    <rect x="171" y="53" width="1" height="1" fill="#393536"/>
    <rect x="0" y="54" width="1" height="1" fill="#393536"/>
    <rect x="171" y="54" width="1" height="1" fill="#393536"/>
    <rect x="0" y="55" width="1" height="1" fill="#393536"/>
    <rect x="171" y="55" width="1" height="1" fill="#393536"/>
    <rect x="0" y="56" width="1" height="1" fill="#393536"/>
    <rect x="171" y="56" width="1" height="1" fill="#393536"/>
    <rect x="0" y="57" width="1" height="1" fill="#393536"/>
    <rect x="171" y="57" width="1" height="1" fill="#393536"/>
    <rect x="0" y="58" width="1" height="1" fill="#393536"/>
    <rect x="171" y="58" width="1" height="1" fill="#393536"/>
    <rect x="0" y="59" width="1" height="1" fill="#393536"/>
    <rect x="171" y="59" width="1" height="1" fill="#393536"/>
    <rect x="0" y="60" width="1" height="1" fill="#393536"/>
    <rect x="171" y="60" width="1" height="1" fill="#393536"/>
    <rect x="0" y="61" width="1" height="1" fill="#393536"/>
    <rect x="171" y="61" width="1" height="1" fill="#393536"/>
    <rect x="0" y="62" width="1" height="1" fill="#393536"/>
    <rect x="171" y="62" width="1" height="1" fill="#393536"/>
    <rect x="0" y="63" width="1" height="1" fill="#393536"/>
    <rect x="171" y="63" width="1" height="1" fill="#393536"/>
    <rect x="0" y="64" width="1" height="1" fill="#393536"/>
    <rect x="171" y="64" width="1" height="1" fill="#393536"/>
    <rect x="0" y="65" width="1" height="1" fill="#393536"/>
    <rect x="171" y="65" width="1" height="1" fill="#393536"/>
    <rect x="0" y="66" width="1" height="1" fill="#393536"/>
    <rect x="171" y="66" width="1" height="1" fill="#393536"/>
    <rect x="0" y="67" width="1" height="1" fill="#393536"/>
    <rect x="171" y="67" width="1" height="1" fill="#393536"/>
    <rect x="0" y="68" width="1" height="1" fill="#393536"/>
    <rect x="171" y="68" width="1" height="1" fill="#393536"/>
    <rect x="0" y="69" width="1" height="1" fill="#393536"/>
    <rect x="171" y="69" width="1" height="1" fill="#393536"/>
    <rect x="0" y="70" width="1" height="1" fill="#393536"/>
    <rect x="171" y="70" width="1" height="1" fill="#393536"/>
    <rect x="0" y="71" width="1" height="1" fill="#393536"/>
    <rect x="171" y="71" width="1" height="1" fill="#393536"/>
    <rect x="0" y="72" width="1" height="1" fill="#393536"/>
    <rect x="171" y="72" width="1" height="1" fill="#393536"/>
    <rect x="0" y="73" width="1" height="1" fill="#393536"/>
    <rect x="171" y="73" width="1" height="1" fill="#393536"/>
    <rect x="0" y="74" width="1" height="1" fill="#393536"/>
    <rect x="171" y="74" width="1" height="1" fill="#393536"/>
    <rect x="0" y="75" width="1" height="1" fill="#393536"/>
    <rect x="171" y="75" width="1" height="1" fill="#393536"/>
    <rect x="0" y="76" width="1" height="1" fill="#393536"/>
    <rect x="171" y="76" width="1" height="1" fill="#393536"/>
    <rect x="0" y="77" width="1" height="1" fill="#393536"/>
    <rect x="171" y="77" width="1" height="1" fill="#393536"/>
    <rect x="0" y="78" width="172" height="1" fill="#393536"/>
  </g>
</svg>