<?xml version="1.0" encoding="UTF-8"?>
<svg xmlns="http://www.w3.org/2000/svg" viewBox="0 0 152 61" width="152" height="61">
  <!-- Auto-converted from legend-2283.png -->
  <rect x="0" y="0" width="152" height="61" fill="none"/>
  <g fill="#231f20" stroke="none">
    <rect x="0" y="0" width="152" height="1" fill="#231f20"/>
    <rect x="0" y="1" width="1" height="1" fill="#231f20"/>
    <rect x="151" y="1" width="1" height="1" fill="#231f20"/>
    <rect x="0" y="2" width="1" height="1" fill="#231f20"/>
    <rect x="151" y="2" width="1" height="1" fill="#231f20"/>
    <rect x="0" y="3" width="1" height="1" fill="#231f20"/>
    <rect x="151" y="3" width="1" height="1" fill="#231f20"/>
    <rect x="0" y="4" width="1" height="1" fill="#231f20"/>
    <rect x="151" y="4" width="1" height="1" fill="#231f20"/>
    <rect x="0" y="5" width="1" height="1" fill="#231f20"/>
    <rect x="31" y="5" width="4" height="1" fill="#231f20"/>
    <rect x="61" y="5" width="4" height="1" fill="#231f20"/>
    <rect x="91" y="5" width="4" height="1" fill="#231f20"/>
    <rect x="151" y="5" width="1" height="1" fill="#231f20"/>
    <rect x="0" y="6" width="1" height="1" fill="#231f20"/>
    <rect x="29" y="6" width="2" height="1" fill="#231f20"/>
    <rect x="34" y="6" width="2" height="1" fill="#231f20"/>
    <rect x="59" y="6" width="2" height="1" fill="#231f20"/>
    <rect x="64" y="6" width="2" height="1" fill="#231f20"/>
    <rect x="89" y="6" width="2" height="1" fill="#231f20"/>
    <rect x="94" y="6" width="2" height="1" fill="#231f20"/>
    <rect x="151" y="6" width="1" height="1" fill="#231f20"/>
    <rect x="0" y="7" width="1" height="1" fill="#231f20"/>
    <rect x="28" y="7" width="2" height="1" fill="#231f20"/>
    <rect x="35" y="7" width="1" height="1" fill="#231f20"/>
    <rect x="58" y="7" width="2" height="1" fill="#231f20"/>
    <rect x="65" y="7" width="1" height="1" fill="#231f20"/>
    <rect x="88" y="7" width="2" height="1" fill="#231f20"/>
    <rect x="95" y="7" width="2" height="1" fill="#231f20"/>
    <rect x="151" y="7" width="1" height="1" fill="#231f20"/>
    <rect x="0" y="8" width="1" height="1" fill="#231f20"/>
    <rect x="28" y="8" width="1" height="1" fill="#231f20"/>
    <rect x="58" y="8" width="1" height="1" fill="#231f20"/>
    <rect x="88" y="8" width="1" height="1" fill="#231f20"/>
    <rect x="151" y="8" width="1" height="1" fill="#231f20"/>
    <rect x="0" y="9" width="1" height="1" fill="#231f20"/>
    <rect x="28" y="9" width="3" height="1" fill="#231f20"/>
    <rect x="58" y="9" width="3" height="1" fill="#231f20"/>
    <rect x="88" y="9" width="3" height="1" fill="#231f20"/>
    <rect x="151" y="9" width="1" height="1" fill="#231f20"/>
    <rect x="0" y="10" width="1" height="1" fill="#231f20"/>
    <rect x="30" y="10" width="6" height="1" fill="#231f20"/>
    <rect x="60" y="10" width="6" height="1" fill="#231f20"/>
    <rect x="90" y="10" width="6" height="1" fill="#231f20"/>
    <rect x="151" y="10" width="1" height="1" fill="#231f20"/>
    <rect x="0" y="11" width="1" height="1" fill="#231f20"/>
    <rect x="36" y="11" width="2" height="1" fill="#231f20"/>
    <rect x="66" y="11" width="2" height="1" fill="#231f20"/>
    <rect x="96" y="11" width="2" height="1" fill="#231f20"/>
    <rect x="151" y="11" width="1" height="1" fill="#231f20"/>
    <rect x="0" y="12" width="1" height="1" fill="#231f20"/>
    <rect x="30" y="12" width="1" height="1" fill="#231f20"/>
    <rect x="37" y="12" width="2" height="1" fill="#231f20"/>
    <rect x="60" y="12" width="1" height="1" fill="#231f20"/>
    <rect x="67" y="12" width="2" height="1" fill="#231f20"/>
    <rect x="91" y="12" width="1" height="1" fill="#231f20"/>
    <rect x="98" y="12" width="1" height="1" fill="#231f20"/>
    <rect x="151" y="12" width="1" height="1" fill="#231f20"/>
    <rect x="0" y="13" width="1" height="1" fill="#231f20"/>
    <rect x="31" y="13" width="1" height="1" fill="#231f20"/>
    <rect x="37" y="13" width="2" height="1" fill="#231f20"/>
    <rect x="61" y="13" width="1" height="1" fill="#231f20"/>
    <rect x="67" y="13" width="2" height="1" fill="#231f20"/>
    <rect x="91" y="13" width="1" height="1" fill="#231f20"/>
    <rect x="97" y="13" width="2" height="1" fill="#231f20"/>
    <rect x="151" y="13" width="1" height="1" fill="#231f20"/>
    <rect x="0" y="14" width="1" height="1" fill="#231f20"/>
    <rect x="31" y="14" width="2" height="1" fill="#231f20"/>
    <rect x="36" y="14" width="2" height="1" fill="#231f20"/>
    <rect x="61" y="14" width="2" height="1" fill="#231f20"/>
    <rect x="66" y="14" width="2" height="1" fill="#231f20"/>
    <rect x="91" y="14" width="2" height="1" fill="#231f20"/>
    <rect x="96" y="14" width="2" height="1" fill="#231f20"/>
    <rect x="151" y="14" width="1" height="1" fill="#231f20"/>
    <rect x="0" y="15" width="1" height="1" fill="#231f20"/>
    <rect x="32" y="15" width="4" height="1" fill="#231f20"/>
    <rect x="62" y="15" width="4" height="1" fill="#231f20"/>
    <rect x="92" y="15" width="4" height="1" fill="#231f20"/>
    <rect x="151" y="15" width="1" height="1" fill="#231f20"/>
    <rect x="0" y="16" width="1" height="1" fill="#231f20"/>
    <rect x="151" y="16" width="1" height="1" fill="#231f20"/>
    <rect x="0" y="17" width="1" height="1" fill="#231f20"/>
    <rect x="151" y="17" width="1" height="1" fill="#231f20"/>
    <rect x="0" y="18" width="1" height="1" fill="#231f20"/>
    <rect x="151" y="18" width="1" height="1" fill="#231f20"/>
    <rect x="0" y="19" width="1" height="1" fill="#231f20"/>
    <rect x="151" y="19" width="1" height="1" fill="#231f20"/>
    <rect x="0" y="20" width="1" height="1" fill="#231f20"/>
    <rect x="151" y="20" width="1" height="1" fill="#231f20"/>
    <rect x="0" y="21" width="1" height="1" fill="#231f20"/>
    <rect x="151" y="21" width="1" height="1" fill="#231f20"/>
    <rect x="0" y="22" width="1" height="1" fill="#231f20"/>
    <rect x="151" y="22" width="1" height="1" fill="#231f20"/>
    <rect x="0" y="23" width="1" height="1" fill="#231f20"/>
    <rect x="151" y="23" width="1" height="1" fill="#231f20"/>
    <rect x="0" y="24" width="1" height="1" fill="#231f20"/>
    <rect x="151" y="24" width="1" height="1" fill="#231f20"/>
    <rect x="0" y="25" width="1" height="1" fill="#231f20"/>
    <rect x="56" y="25" width="4" height="1" fill="#231f20"/>
    <rect x="86" y="25" width="4" height="1" fill="#231f20"/>
    <rect x="116" y="25" width="4" height="1" fill="#231f20"/>
    <rect x="151" y="25" width="1" height="1" fill="#231f20"/>
    <rect x="0" y="26" width="1" height="1" fill="#231f20"/>
    <rect x="54" y="26" width="2" height="1" fill="#231f20"/>
    <rect x="59" y="26" width="2" height="1" fill="#231f20"/>
    <rect x="84" y="26" width="2" height="1" fill="#231f20"/>
    <rect x="89" y="26" width="2" height="1" fill="#231f20"/>
    <rect x="115" y="26" width="1" height="1" fill="#231f20"/>
    <rect x="119" y="26" width="2" height="1" fill="#231f20"/>
    <rect x="151" y="26" width="1" height="1" fill="#231f20"/>
    <rect x="0" y="27" width="1" height="1" fill="#231f20"/>
    <rect x="54" y="27" width="1" height="1" fill="#231f20"/>
    <rect x="60" y="27" width="1" height="1" fill="#231f20"/>
    <rect x="84" y="27" width="1" height="1" fill="#231f20"/>
    <rect x="90" y="27" width="2" height="1" fill="#231f20"/>
    <rect x="114" y="27" width="1" height="1" fill="#231f20"/>
    <rect x="120" y="27" width="2" height="1" fill="#231f20"/>
    <rect x="151" y="27" width="1" height="1" fill="#231f20"/>
    <rect x="0" y="28" width="1" height="1" fill="#231f20"/>
    <rect x="53" y="28" width="1" height="1" fill="#231f20"/>
    <rect x="83" y="28" width="1" height="1" fill="#231f20"/>
    <rect x="113" y="28" width="1" height="1" fill="#231f20"/>
    <rect x="151" y="28" width="1" height="1" fill="#231f20"/>
    <rect x="0" y="29" width="1" height="1" fill="#231f20"/>
    <rect x="53" y="29" width="2" height="1" fill="#231f20"/>
    <rect x="83" y="29" width="2" height="1" fill="#231f20"/>
    <rect x="113" y="29" width="2" height="1" fill="#231f20"/>
    <rect x="151" y="29" width="1" height="1" fill="#231f20"/>
    <rect x="0" y="30" width="1" height="1" fill="#231f20"/>
    <rect x="55" y="30" width="6" height="1" fill="#231f20"/>
    <rect x="85" y="30" width="6" height="1" fill="#231f20"/>
    <rect x="115" y="30" width="6" height="1" fill="#231f20"/>
    <rect x="151" y="30" width="1" height="1" fill="#231f20"/>
    <rect x="0" y="31" width="1" height="1" fill="#231f20"/>
    <rect x="61" y="31" width="2" height="1" fill="#231f20"/>
    <rect x="91" y="31" width="2" height="1" fill="#231f20"/>
    <rect x="121" y="31" width="2" height="1" fill="#231f20"/>
    <rect x="151" y="31" width="1" height="1" fill="#231f20"/>
    <rect x="0" y="32" width="1" height="1" fill="#231f20"/>
    <rect x="62" y="32" width="2" height="1" fill="#231f20"/>
    <rect x="93" y="32" width="1" height="1" fill="#231f20"/>
    <rect x="123" y="32" width="1" height="1" fill="#231f20"/>
    <rect x="151" y="32" width="1" height="1" fill="#231f20"/>
    <rect x="0" y="33" width="1" height="1" fill="#231f20"/>
    <rect x="55" y="33" width="2" height="1" fill="#231f20"/>
    <rect x="62" y="33" width="2" height="1" fill="#231f20"/>
    <rect x="85" y="33" width="2" height="1" fill="#231f20"/>
    <rect x="92" y="33" width="2" height="1" fill="#231f20"/>
    <rect x="116" y="33" width="1" height="1" fill="#231f20"/>
    <rect x="123" y="33" width="1" height="1" fill="#231f20"/>
    <rect x="151" y="33" width="1" height="1" fill="#231f20"/>
    <rect x="0" y="34" width="1" height="1" fill="#231f20"/>
    <rect x="56" y="34" width="2" height="1" fill="#231f20"/>
    <rect x="61" y="34" width="2" height="1" fill="#231f20"/>
    <rect x="86" y="34" width="2" height="1" fill="#231f20"/>
    <rect x="91" y="34" width="2" height="1" fill="#231f20"/>
    <rect x="116" y="34" width="2" height="1" fill="#231f20"/>
    <rect x="121" y="34" width="2" height="1" fill="#231f20"/>
    <rect x="151" y="34" width="1" height="1" fill="#231f20"/>
    <rect x="0" y="35" width="1" height="1" fill="#231f20"/>
    <rect x="57" y="35" width="4" height="1" fill="#231f20"/>
    <rect x="87" y="35" width="4" height="1" fill="#231f20"/>
    <rect x="117" y="35" width="4" height="1" fill="#231f20"/>
    <rect x="151" y="35" width="1" height="1" fill="#231f20"/>
    <rect x="0" y="36" width="1" height="1" fill="#231f20"/>
    <rect x="151" y="36" width="1" height="1" fill="#231f20"/>
    <rect x="0" y="37" width="1" height="1" fill="#231f20"/>
    <rect x="151" y="37" width="1" height="1" fill="#231f20"/>
    <rect x="0" y="38" width="1" height="1" fill="#231f20"/>
    <rect x="151" y="38" width="1" height="1" fill="#231f20"/>
    <rect x="0" y="39" width="1" height="1" fill="#231f20"/>
    <rect x="151" y="39" width="1" height="1" fill="#231f20"/>
    <rect x="0" y="40" width="1" height="1" fill="#231f20"/>
    <rect x="151" y="40" width="1" height="1" fill="#231f20"/>
    <rect x="0" y="41" width="1" height="1" fill="#231f20"/>
    <rect x="151" y="41" width="1" height="1" fill="#231f20"/>
    <rect x="0" y="42" width="1" height="1" fill="#231f20"/>
    <rect x="151" y="42" width="1" height="1" fill="#231f20"/>
    <rect x="0" y="43" width="1" height="1" fill="#231f20"/>
    <rect x="151" y="43" width="1" height="1" fill="#231f20"/>
    <rect x="0" y="44" width="1" height="1" fill="#231f20"/>
    <rect x="151" y="44" width="1" height="1" fill="#231f20"/>
    <rect x="0" y="45" width="1" height="1" fill="#231f20"/>
    <rect x="31" y="45" width="4" height="1" fill="#231f20"/>
    <rect x="61" y="45" width="4" height="1" fill="#231f20"/>
    <rect x="91" y="45" width="4" height="1" fill="#231f20"/>
    <rect x="151" y="45" width="1" height="1" fill="#231f20"/>
    <rect x="0" y="46" width="1" height="1" fill="#231f20"/>
    <rect x="29" y="46" width="2" height="1" fill="#231f20"/>
    <rect x="34" y="46" width="2" height="1" fill="#231f20"/>
    <rect x="59" y="46" width="2" height="1" fill="#231f20"/>
    <rect x="64" y="46" width="2" height="1" fill="#231f20"/>
    <rect x="89" y="46" width="2" height="1" fill="#231f20"/>
    <rect x="94" y="46" width="2" height="1" fill="#231f20"/>
    <rect x="151" y="46" width="1" height="1" fill="#231f20"/>
    <rect x="0" y="47" width="1" height="1" fill="#231f20"/>
    <rect x="28" y="47" width="2" height="1" fill="#231f20"/>
    <rect x="35" y="47" width="1" height="1" fill="#231f20"/>
    <rect x="59" y="47" width="1" height="1" fill="#231f20"/>
    <rect x="65" y="47" width="1" height="1" fill="#231f20"/>
    <rect x="89" y="47" width="1" height="1" fill="#231f20"/>
    <rect x="95" y="47" width="2" height="1" fill="#231f20"/>
    <rect x="151" y="47" width="1" height="1" fill="#231f20"/>
    <rect x="0" y="48" width="1" height="1" fill="#231f20"/>
    <rect x="28" y="48" width="1" height="1" fill="#231f20"/>
    <rect x="58" y="48" width="1" height="1" fill="#231f20"/>
    <rect x="88" y="48" width="1" height="1" fill="#231f20"/>
    <rect x="151" y="48" width="1" height="1" fill="#231f20"/>
    <rect x="0" y="49" width="1" height="1" fill="#231f20"/>
    <rect x="28" y="49" width="2" height="1" fill="#231f20"/>
    <rect x="58" y="49" width="2" height="1" fill="#231f20"/>
    <rect x="88" y="49" width="2" height="1" fill="#231f20"/>
    <rect x="151" y="49" width="1" height="1" fill="#231f20"/>
    <rect x="0" y="50" width="1" height="1" fill="#231f20"/>
    <rect x="30" y="50" width="6" height="1" fill="#231f20"/>
    <rect x="60" y="50" width="6" height="1" fill="#231f20"/>
    <rect x="90" y="50" width="6" height="1" fill="#231f20"/>
    <rect x="151" y="50" width="1" height="1" fill="#231f20"/>
    <rect x="0" y="51" width="1" height="1" fill="#231f20"/>
    <rect x="36" y="51" width="2" height="1" fill="#231f20"/>
    <rect x="66" y="51" width="2" height="1" fill="#231f20"/>
    <rect x="96" y="51" width="2" height="1" fill="#231f20"/>
    <rect x="151" y="51" width="1" height="1" fill="#231f20"/>
    <rect x="0" y="52" width="1" height="1" fill="#231f20"/>
    <rect x="37" y="52" width="2" height="1" fill="#231f20"/>
    <rect x="67" y="52" width="2" height="1" fill="#231f20"/>
    <rect x="98" y="52" width="1" height="1" fill="#231f20"/>
    <rect x="151" y="52" width="1" height="1" fill="#231f20"/>
    <rect x="0" y="53" width="1" height="1" fill="#231f20"/>
    <rect x="30" y="53" width="2" height="1" fill="#231f20"/>
    <rect x="38" y="53" width="1" height="1" fill="#231f20"/>
    <rect x="60" y="53" width="2" height="1" fill="#231f20"/>
    <rect x="68" y="53" width="1" height="1" fill="#231f20"/>
    <rect x="91" y="53" width="1" height="1" fill="#231f20"/>
    <rect x="98" y="53" width="1" height="1" fill="#231f20"/>
    <rect x="151" y="53" width="1" height="1" fill="#231f20"/>
    <rect x="0" y="54" width="1" height="1" fill="#231f20"/>
    <rect x="31" y="54" width="2" height="1" fill="#231f20"/>
    <rect x="36" y="54" width="2" height="1" fill="#231f20"/>
    <rect x="61" y="54" width="2" height="1" fill="#231f20"/>
    <rect x="66" y="54" width="2" height="1" fill="#231f20"/>
    <rect x="91" y="54" width="2" height="1" fill="#231f20"/>
    <rect x="96" y="54" width="2" height="1" fill="#231f20"/>
    <rect x="151" y="54" width="1" height="1" fill="#231f20"/>
    <rect x="0" y="55" width="1" height="1" fill="#231f20"/>
    <rect x="32" y="55" width="4" height="1" fill="#231f20"/>
    <rect x="62" y="55" width="4" height="1" fill="#231f20"/>
    <rect x="92" y="55" width="4" height="1" fill="#231f20"/>
    <rect x="151" y="55" width="1" height="1" fill="#231f20"/>
    <rect x="0" y="56" width="1" height="1" fill="#231f20"/>
    <rect x="151" y="56" width="1" height="1" fill="#231f20"/>
    <rect x="0" y="57" width="1" height="1" fill="#231f20"/>
    <rect x="151" y="57" width="1" height="1" fill="#231f20"/>
    <rect x="0" y="58" width="1" height="1" fill="#231f20"/>
    <rect x="151" y="58" width="1" height="1" fill="#231f20"/>
    <rect x="0" y="59" width="1" height="1" fill="#231f20"/>
    <rect x="151" y="59" width="1" height="1" fill="#231f20"/>
    <rect x="0" y="60" width="152" height="1" fill="#231f20"/>
  </g>
</svg>