<?xml version="1.0" encoding="UTF-8"?>
<svg xmlns="http://www.w3.org/2000/svg" viewBox="0 0 124 83" width="124" height="83">
  <!-- Auto-converted from legend-259.png -->
  <rect x="0" y="0" width="124" height="83" fill="none"/>
  <g fill="#412220" stroke="none">
    <rect x="0" y="0" width="124" height="1" fill="#412220"/>
    <rect x="0" y="1" width="1" height="1" fill="#412220"/>
    <rect x="123" y="1" width="1" height="1" fill="#412220"/>
    <rect x="0" y="2" width="1" height="1" fill="#412220"/>
    <rect x="123" y="2" width="1" height="1" fill="#412220"/>
    <rect x="0" y="3" width="1" height="1" fill="#412220"/>
    <rect x="123" y="3" width="1" height="1" fill="#412220"/>
    <rect x="0" y="4" width="1" height="1" fill="#412220"/>
    <rect x="123" y="4" width="1" height="1" fill="#412220"/>
    <rect x="0" y="5" width="1" height="1" fill="#412220"/>
    <rect x="123" y="5" width="1" height="1" fill="#412220"/>
    <rect x="0" y="6" width="1" height="1" fill="#412220"/>
    <rect x="112" y="6" width="2" height="1" fill="#412220"/>
    <rect x="123" y="6" width="1" height="1" fill="#412220"/>
    <rect x="0" y="7" width="1" height="1" fill="#412220"/>
    <rect x="110" y="7" width="5" height="1" fill="#412220"/>
    <rect x="123" y="7" width="1" height="1" fill="#412220"/>
    <rect x="0" y="8" width="1" height="1" fill="#412220"/>
    <rect x="107" y="8" width="7" height="1" fill="#412220"/>
    <rect x="123" y="8" width="1" height="1" fill="#412220"/>
    <rect x="0" y="9" width="1" height="1" fill="#412220"/>
    <rect x="105" y="9" width="7" height="1" fill="#412220"/>
    <rect x="123" y="9" width="1" height="1" fill="#412220"/>
    <rect x="0" y="10" width="1" height="1" fill="#412220"/>
    <rect x="102" y="10" width="8" height="1" fill="#412220"/>
    <rect x="123" y="10" width="1" height="1" fill="#412220"/>
    <rect x="0" y="11" width="1" height="1" fill="#412220"/>
    <rect x="100" y="11" width="7" height="1" fill="#412220"/>
    <rect x="123" y="11" width="1" height="1" fill="#412220"/>
    <rect x="0" y="12" width="1" height="1" fill="#412220"/>
    <rect x="97" y="12" width="8" height="1" fill="#412220"/>
    <rect x="123" y="12" width="1" height="1" fill="#412220"/>
    <rect x="0" y="13" width="1" height="1" fill="#412220"/>
    <rect x="95" y="13" width="7" height="1" fill="#412220"/>
    <rect x="123" y="13" width="1" height="1" fill="#412220"/>
    <rect x="0" y="14" width="1" height="1" fill="#412220"/>
    <rect x="93" y="14" width="7" height="1" fill="#412220"/>
    <rect x="123" y="14" width="1" height="1" fill="#412220"/>
    <rect x="0" y="15" width="1" height="1" fill="#412220"/>
    <rect x="90" y="15" width="7" height="1" fill="#412220"/>
    <rect x="115" y="15" width="2" height="1" fill="#412220"/>
    <rect x="123" y="15" width="1" height="1" fill="#412220"/>
    <rect x="0" y="16" width="1" height="1" fill="#412220"/>
    <rect x="88" y="16" width="7" height="1" fill="#412220"/>
    <rect x="111" y="16" width="4" height="1" fill="#412220"/>
    <rect x="123" y="16" width="1" height="1" fill="#412220"/>
    <rect x="0" y="17" width="1" height="1" fill="#412220"/>
    <rect x="86" y="17" width="7" height="1" fill="#412220"/>
    <rect x="108" y="17" width="3" height="1" fill="#412220"/>
    <rect x="123" y="17" width="1" height="1" fill="#412220"/>
    <rect x="0" y="18" width="1" height="1" fill="#412220"/>
    <rect x="84" y="18" width="6" height="1" fill="#412220"/>
    <rect x="105" y="18" width="3" height="1" fill="#412220"/>
    <rect x="123" y="18" width="1" height="1" fill="#412220"/>
    <rect x="0" y="19" width="1" height="1" fill="#412220"/>
    <rect x="82" y="19" width="6" height="1" fill="#412220"/>
    <rect x="103" y="19" width="2" height="1" fill="#412220"/>
    <rect x="123" y="19" width="1" height="1" fill="#412220"/>
    <rect x="0" y="20" width="1" height="1" fill="#412220"/>
    <rect x="80" y="20" width="6" height="1" fill="#412220"/>
    <rect x="101" y="20" width="2" height="1" fill="#412220"/>
    <rect x="123" y="20" width="1" height="1" fill="#412220"/>
    <rect x="0" y="21" width="1" height="1" fill="#412220"/>
    <rect x="78" y="21" width="6" height="1" fill="#412220"/>
    <rect x="99" y="21" width="2" height="1" fill="#412220"/>
    <rect x="123" y="21" width="1" height="1" fill="#412220"/>
    <rect x="0" y="22" width="1" height="1" fill="#412220"/>
    <rect x="76" y="22" width="6" height="1" fill="#412220"/>
    <rect x="96" y="22" width="3" height="1" fill="#412220"/>
    <rect x="123" y="22" width="1" height="1" fill="#412220"/>
    <rect x="0" y="23" width="1" height="1" fill="#412220"/>
    <rect x="74" y="23" width="6" height="1" fill="#412220"/>
    <rect x="94" y="23" width="5" height="1" fill="#412220"/>
    <rect x="123" y="23" width="1" height="1" fill="#412220"/>
    <rect x="0" y="24" width="1" height="1" fill="#412220"/>
    <rect x="72" y="24" width="6" height="1" fill="#412220"/>
    <rect x="92" y="24" width="7" height="1" fill="#412220"/>
    <rect x="123" y="24" width="1" height="1" fill="#412220"/>
    <rect x="0" y="25" width="1" height="1" fill="#412220"/>
    <rect x="70" y="25" width="6" height="1" fill="#412220"/>
    <rect x="90" y="25" width="7" height="1" fill="#412220"/>
    <rect x="123" y="25" width="1" height="1" fill="#412220"/>
    <rect x="0" y="26" width="1" height="1" fill="#412220"/>
    <rect x="68" y="26" width="6" height="1" fill="#412220"/>
    <rect x="88" y="26" width="6" height="1" fill="#412220"/>
    <rect x="123" y="26" width="1" height="1" fill="#412220"/>
    <rect x="0" y="27" width="1" height="1" fill="#412220"/>
    <rect x="66" y="27" width="6" height="1" fill="#412220"/>
    <rect x="86" y="27" width="6" height="1" fill="#412220"/>
    <rect x="123" y="27" width="1" height="1" fill="#412220"/>
    <rect x="0" y="28" width="1" height="1" fill="#412220"/>
    <rect x="64" y="28" width="6" height="1" fill="#412220"/>
    <rect x="84" y="28" width="5" height="1" fill="#412220"/>
    <rect x="123" y="28" width="1" height="1" fill="#412220"/>
    <rect x="0" y="29" width="1" height="1" fill="#412220"/>
    <rect x="62" y="29" width="6" height="1" fill="#412220"/>
    <rect x="82" y="29" width="4" height="1" fill="#412220"/>
    <rect x="123" y="29" width="1" height="1" fill="#412220"/>
    <rect x="0" y="30" width="1" height="1" fill="#412220"/>
    <rect x="60" y="30" width="6" height="1" fill="#412220"/>
    <rect x="80" y="30" width="4" height="1" fill="#412220"/>
    <rect x="123" y="30" width="1" height="1" fill="#412220"/>
    <rect x="0" y="31" width="1" height="1" fill="#412220"/>
    <rect x="59" y="31" width="6" height="1" fill="#412220"/>
    <rect x="79" y="31" width="2" height="1" fill="#412220"/>
    <rect x="123" y="31" width="1" height="1" fill="#412220"/>
    <rect x="0" y="32" width="1" height="1" fill="#412220"/>
    <rect x="57" y="32" width="7" height="1" fill="#412220"/>
    <rect x="123" y="32" width="1" height="1" fill="#412220"/>
    <rect x="0" y="33" width="1" height="1" fill="#412220"/>
    <rect x="56" y="33" width="6" height="1" fill="#412220"/>
    <rect x="123" y="33" width="1" height="1" fill="#412220"/>
    <rect x="0" y="34" width="1" height="1" fill="#412220"/>
    <rect x="54" y="34" width="7" height="1" fill="#412220"/>
    <rect x="123" y="34" width="1" height="1" fill="#412220"/>
    <rect x="0" y="35" width="1" height="1" fill="#412220"/>
    <rect x="53" y="35" width="6" height="1" fill="#412220"/>
    <rect x="123" y="35" width="1" height="1" fill="#412220"/>
    <rect x="0" y="36" width="1" height="1" fill="#412220"/>
    <rect x="51" y="36" width="7" height="1" fill="#412220"/>
    <rect x="123" y="36" width="1" height="1" fill="#412220"/>
    <rect x="0" y="37" width="1" height="1" fill="#412220"/>
    <rect x="50" y="37" width="6" height="1" fill="#412220"/>
    <rect x="123" y="37" width="1" height="1" fill="#412220"/>
    <rect x="0" y="38" width="1" height="1" fill="#412220"/>
    <rect x="48" y="38" width="7" height="1" fill="#412220"/>
    <rect x="123" y="38" width="1" height="1" fill="#412220"/>
    <rect x="0" y="39" width="1" height="1" fill="#412220"/>
    <rect x="47" y="39" width="6" height="1" fill="#412220"/>
    <rect x="123" y="39" width="1" height="1" fill="#412220"/>
    <rect x="0" y="40" width="1" height="1" fill="#412220"/>
    <rect x="36" y="40" width="1" height="1" fill="#412220"/>
    <rect x="46" y="40" width="6" height="1" fill="#412220"/>
    <rect x="123" y="40" width="1" height="1" fill="#412220"/>
    <rect x="0" y="41" width="1" height="1" fill="#412220"/>
    <rect x="34" y="41" width="2" height="1" fill="#412220"/>
    <rect x="44" y="41" width="6" height="1" fill="#412220"/>
    <rect x="123" y="41" width="1" height="1" fill="#412220"/>
    <rect x="0" y="42" width="1" height="1" fill="#412220"/>
    <rect x="33" y="42" width="2" height="1" fill="#412220"/>
    <rect x="43" y="42" width="6" height="1" fill="#412220"/>
    <rect x="123" y="42" width="1" height="1" fill="#412220"/>
    <rect x="0" y="43" width="1" height="1" fill="#412220"/>
    <rect x="31" y="43" width="3" height="1" fill="#412220"/>
    <rect x="42" y="43" width="6" height="1" fill="#412220"/>
    <rect x="123" y="43" width="1" height="1" fill="#412220"/>
    <rect x="0" y="44" width="1" height="1" fill="#412220"/>
    <rect x="30" y="44" width="2" height="1" fill="#412220"/>
    <rect x="41" y="44" width="5" height="1" fill="#412220"/>
    <rect x="123" y="44" width="1" height="1" fill="#412220"/>
    <rect x="0" y="45" width="1" height="1" fill="#412220"/>
    <rect x="28" y="45" width="3" height="1" fill="#412220"/>
    <rect x="40" y="45" width="5" height="1" fill="#412220"/>
    <rect x="123" y="45" width="1" height="1" fill="#412220"/>
    <rect x="0" y="46" width="1" height="1" fill="#412220"/>
    <rect x="27" y="46" width="3" height="1" fill="#412220"/>
    <rect x="39" y="46" width="5" height="1" fill="#412220"/>
    <rect x="123" y="46" width="1" height="1" fill="#412220"/>
    <rect x="0" y="47" width="1" height="1" fill="#412220"/>
    <rect x="25" y="47" width="4" height="1" fill="#412220"/>
    <rect x="38" y="47" width="5" height="1" fill="#412220"/>
    <rect x="123" y="47" width="1" height="1" fill="#412220"/>
    <rect x="0" y="48" width="1" height="1" fill="#412220"/>
    <rect x="24" y="48" width="4" height="1" fill="#412220"/>
    <rect x="37" y="48" width="5" height="1" fill="#412220"/>
    <rect x="123" y="48" width="1" height="1" fill="#412220"/>
    <rect x="0" y="49" width="1" height="1" fill="#412220"/>
    <rect x="22" y="49" width="5" height="1" fill="#412220"/>
    <rect x="36" y="49" width="5" height="1" fill="#412220"/>
    <rect x="123" y="49" width="1" height="1" fill="#412220"/>
    <rect x="0" y="50" width="1" height="1" fill="#412220"/>
    <rect x="21" y="50" width="5" height="1" fill="#412220"/>
    <rect x="34" y="50" width="6" height="1" fill="#412220"/>
    <rect x="123" y="50" width="1" height="1" fill="#412220"/>
    <rect x="0" y="51" width="1" height="1" fill="#412220"/>
    <rect x="19" y="51" width="5" height="1" fill="#412220"/>
    <rect x="33" y="51" width="6" height="1" fill="#412220"/>
    <rect x="123" y="51" width="1" height="1" fill="#412220"/>
    <rect x="0" y="52" width="1" height="1" fill="#412220"/>
    <rect x="18" y="52" width="5" height="1" fill="#412220"/>
    <rect x="32" y="52" width="5" height="1" fill="#412220"/>
    <rect x="123" y="52" width="1" height="1" fill="#412220"/>
    <rect x="0" y="53" width="1" height="1" fill="#412220"/>
    <rect x="19" y="53" width="3" height="1" fill="#412220"/>
    <rect x="31" y="53" width="5" height="1" fill="#412220"/>
    <rect x="123" y="53" width="1" height="1" fill="#412220"/>
    <rect x="0" y="54" width="1" height="1" fill="#412220"/>
    <rect x="20" y="54" width="1" height="1" fill="#412220"/>
    <rect x="30" y="54" width="5" height="1" fill="#412220"/>
    <rect x="123" y="54" width="1" height="1" fill="#412220"/>
    <rect x="0" y="55" width="1" height="1" fill="#412220"/>
    <rect x="19" y="55" width="1" height="1" fill="#412220"/>
    <rect x="29" y="55" width="5" height="1" fill="#412220"/>
    <rect x="123" y="55" width="1" height="1" fill="#412220"/>
    <rect x="0" y="56" width="1" height="1" fill="#412220"/>
    <rect x="18" y="56" width="1" height="1" fill="#412220"/>
    <rect x="28" y="56" width="5" height="1" fill="#412220"/>
    <rect x="123" y="56" width="1" height="1" fill="#412220"/>
    <rect x="0" y="57" width="1" height="1" fill="#412220"/>
    <rect x="17" y="57" width="1" height="1" fill="#412220"/>
    <rect x="27" y="57" width="5" height="1" fill="#412220"/>
    <rect x="123" y="57" width="1" height="1" fill="#412220"/>
    <rect x="0" y="58" width="1" height="1" fill="#412220"/>
    <rect x="16" y="58" width="1" height="1" fill="#412220"/>
    <rect x="26" y="58" width="5" height="1" fill="#412220"/>
    <rect x="123" y="58" width="1" height="1" fill="#412220"/>
    <rect x="0" y="59" width="1" height="1" fill="#412220"/>
    <rect x="15" y="59" width="1" height="1" fill="#412220"/>
    <rect x="25" y="59" width="5" height="1" fill="#412220"/>
    <rect x="123" y="59" width="1" height="1" fill="#412220"/>
    <rect x="0" y="60" width="1" height="1" fill="#412220"/>
    <rect x="14" y="60" width="1" height="1" fill="#412220"/>
    <rect x="24" y="60" width="5" height="1" fill="#412220"/>
    <rect x="123" y="60" width="1" height="1" fill="#412220"/>
    <rect x="0" y="61" width="1" height="1" fill="#412220"/>
    <rect x="13" y="61" width="1" height="1" fill="#412220"/>
    <rect x="22" y="61" width="6" height="1" fill="#412220"/>
    <rect x="123" y="61" width="1" height="1" fill="#412220"/>
    <rect x="0" y="62" width="1" height="1" fill="#412220"/>
    <rect x="12" y="62" width="1" height="1" fill="#412220"/>
    <rect x="21" y="62" width="6" height="1" fill="#412220"/>
    <rect x="123" y="62" width="1" height="1" fill="#412220"/>
    <rect x="0" y="63" width="1" height="1" fill="#412220"/>
    <rect x="11" y="63" width="1" height="1" fill="#412220"/>
    <rect x="20" y="63" width="5" height="1" fill="#412220"/>
    <rect x="123" y="63" width="1" height="1" fill="#412220"/>
    <rect x="0" y="64" width="1" height="1" fill="#412220"/>
    <rect x="10" y="64" width="1" height="1" fill="#412220"/>
    <rect x="19" y="64" width="5" height="1" fill="#412220"/>
    <rect x="123" y="64" width="1" height="1" fill="#412220"/>
    <rect x="0" y="65" width="1" height="1" fill="#412220"/>
    <rect x="8" y="65" width="2" height="1" fill="#412220"/>
    <rect x="18" y="65" width="5" height="1" fill="#412220"/>
    <rect x="123" y="65" width="1" height="1" fill="#412220"/>
    <rect x="0" y="66" width="1" height="1" fill="#412220"/>
    <rect x="7" y="66" width="1" height="1" fill="#412220"/>
    <rect x="17" y="66" width="5" height="1" fill="#412220"/>
    <rect x="123" y="66" width="1" height="1" fill="#412220"/>
    <rect x="0" y="67" width="1" height="1" fill="#412220"/>
    <rect x="6" y="67" width="1" height="1" fill="#412220"/>
    <rect x="16" y="67" width="5" height="1" fill="#412220"/>
    <rect x="123" y="67" width="1" height="1" fill="#412220"/>
    <rect x="0" y="68" width="1" height="1" fill="#412220"/>
    <rect x="5" y="68" width="1" height="1" fill="#412220"/>
    <rect x="15" y="68" width="5" height="1" fill="#412220"/>
    <rect x="123" y="68" width="1" height="1" fill="#412220"/>
    <rect x="0" y="69" width="1" height="1" fill="#412220"/>
    <rect x="4" y="69" width="1" height="1" fill="#412220"/>
    <rect x="14" y="69" width="5" height="1" fill="#412220"/>
    <rect x="123" y="69" width="1" height="1" fill="#412220"/>
    <rect x="0" y="70" width="1" height="1" fill="#412220"/>
    <rect x="13" y="70" width="5" height="1" fill="#412220"/>
    <rect x="123" y="70" width="1" height="1" fill="#412220"/>
    <rect x="0" y="71" width="1" height="1" fill="#412220"/>
    <rect x="12" y="71" width="5" height="1" fill="#412220"/>
    <rect x="123" y="71" width="1" height="1" fill="#412220"/>
    <rect x="0" y="72" width="1" height="1" fill="#412220"/>
    <rect x="11" y="72" width="5" height="1" fill="#412220"/>
    <rect x="123" y="72" width="1" height="1" fill="#412220"/>
    <rect x="0" y="73" width="1" height="1" fill="#412220"/>
    <rect x="10" y="73" width="5" height="1" fill="#412220"/>
    <rect x="123" y="73" width="1" height="1" fill="#412220"/>
    <rect x="0" y="74" width="1" height="1" fill="#412220"/>
    <rect x="9" y="74" width="5" height="1" fill="#412220"/>
    <rect x="123" y="74" width="1" height="1" fill="#412220"/>
    <rect x="0" y="75" width="1" height="1" fill="#412220"/>
    <rect x="9" y="75" width="4" height="1" fill="#412220"/>
    <rect x="123" y="75" width="1" height="1" fill="#412220"/>
    <rect x="0" y="76" width="1" height="1" fill="#412220"/>
    <rect x="9" y="76" width="3" height="1" fill="#412220"/>
    <rect x="123" y="76" width="1" height="1" fill="#412220"/>
    <rect x="0" y="77" width="1" height="1" fill="#412220"/>
    <rect x="123" y="77" width="1" height="1" fill="#412220"/>
    <rect x="0" y="78" width="1" height="1" fill="#412220"/>
    <rect x="123" y="78" width="1" height="1" fill="#412220"/>
    <rect x="0" y="79" width="1" height="1" fill="#412220"/>
    <rect x="123" y="79" width="1" height="1" fill="#412220"/>
    <rect x="0" y="80" width="1" height="1" fill="#412220"/>
    <rect x="123" y="80" width="1" height="1" fill="#412220"/>
    <rect x="0" y="81" width="1" height="1" fill="#412220"/>
    <rect x="123" y="81" width="1" height="1" fill="#412220"/>
    <rect x="0" y="82" width="124" height="1" fill="#412220"/>
  </g>
</svg>