<?xml version="1.0" encoding="UTF-8"?>
<svg xmlns="http://www.w3.org/2000/svg" viewBox="0 0 174 70" width="174" height="70">
  <!-- Auto-converted from legend-629.png -->
  <rect x="0" y="0" width="174" height="70" fill="none"/>
  <g fill="#231f20" stroke="none">
    <rect x="0" y="0" width="174" height="1" fill="#231f20"/>
    <rect x="0" y="1" width="1" height="1" fill="#231f20"/>
    <rect x="43" y="1" width="1" height="1" fill="#231f20"/>
    <rect x="130" y="1" width="1" height="1" fill="#231f20"/>
    <rect x="173" y="1" width="1" height="1" fill="#231f20"/>
    <rect x="0" y="2" width="1" height="1" fill="#231f20"/>
    <rect x="43" y="2" width="1" height="1" fill="#231f20"/>
    <rect x="89" y="2" width="1" height="1" fill="#231f20"/>
    <rect x="130" y="2" width="1" height="1" fill="#231f20"/>
    <rect x="173" y="2" width="1" height="1" fill="#231f20"/>
    <rect x="0" y="3" width="1" height="1" fill="#231f20"/>
    <rect x="43" y="3" width="1" height="1" fill="#231f20"/>
    <rect x="88" y="3" width="1" height="1" fill="#231f20"/>
    <rect x="130" y="3" width="1" height="1" fill="#231f20"/>
    <rect x="173" y="3" width="1" height="1" fill="#231f20"/>
    <rect x="0" y="4" width="1" height="1" fill="#231f20"/>
    <rect x="43" y="4" width="1" height="1" fill="#231f20"/>
    <rect x="88" y="4" width="1" height="1" fill="#231f20"/>
    <rect x="130" y="4" width="1" height="1" fill="#231f20"/>
    <rect x="173" y="4" width="1" height="1" fill="#231f20"/>
    <rect x="0" y="5" width="1" height="1" fill="#231f20"/>
    <rect x="43" y="5" width="1" height="1" fill="#231f20"/>
    <rect x="74" y="5" width="1" height="1" fill="#231f20"/>
    <rect x="87" y="5" width="1" height="1" fill="#231f20"/>
    <rect x="92" y="5" width="5" height="1" fill="#231f20"/>
    <rect x="130" y="5" width="1" height="1" fill="#231f20"/>
    <rect x="173" y="5" width="1" height="1" fill="#231f20"/>
    <rect x="0" y="6" width="1" height="1" fill="#231f20"/>
    <rect x="43" y="6" width="1" height="1" fill="#231f20"/>
    <rect x="72" y="6" width="3" height="1" fill="#231f20"/>
    <rect x="87" y="6" width="1" height="1" fill="#231f20"/>
    <rect x="91" y="6" width="1" height="1" fill="#231f20"/>
    <rect x="97" y="6" width="1" height="1" fill="#231f20"/>
    <rect x="130" y="6" width="1" height="1" fill="#231f20"/>
    <rect x="173" y="6" width="1" height="1" fill="#231f20"/>
    <rect x="0" y="7" width="1" height="1" fill="#231f20"/>
    <rect x="43" y="7" width="1" height="1" fill="#231f20"/>
    <rect x="74" y="7" width="1" height="1" fill="#231f20"/>
    <rect x="86" y="7" width="2" height="1" fill="#231f20"/>
    <rect x="91" y="7" width="1" height="1" fill="#231f20"/>
    <rect x="98" y="7" width="1" height="1" fill="#231f20"/>
    <rect x="130" y="7" width="1" height="1" fill="#231f20"/>
    <rect x="173" y="7" width="1" height="1" fill="#231f20"/>
    <rect x="0" y="8" width="1" height="1" fill="#231f20"/>
    <rect x="43" y="8" width="1" height="1" fill="#231f20"/>
    <rect x="74" y="8" width="1" height="1" fill="#231f20"/>
    <rect x="86" y="8" width="1" height="1" fill="#231f20"/>
    <rect x="91" y="8" width="1" height="1" fill="#231f20"/>
    <rect x="98" y="8" width="1" height="1" fill="#231f20"/>
    <rect x="130" y="8" width="1" height="1" fill="#231f20"/>
    <rect x="173" y="8" width="1" height="1" fill="#231f20"/>
    <rect x="0" y="9" width="1" height="1" fill="#231f20"/>
    <rect x="74" y="9" width="1" height="1" fill="#231f20"/>
    <rect x="85" y="9" width="2" height="1" fill="#231f20"/>
    <rect x="91" y="9" width="1" height="1" fill="#231f20"/>
    <rect x="98" y="9" width="1" height="1" fill="#231f20"/>
    <rect x="173" y="9" width="1" height="1" fill="#231f20"/>
    <rect x="0" y="10" width="1" height="1" fill="#231f20"/>
    <rect x="74" y="10" width="1" height="1" fill="#231f20"/>
    <rect x="85" y="10" width="1" height="1" fill="#231f20"/>
    <rect x="97" y="10" width="1" height="1" fill="#231f20"/>
    <rect x="173" y="10" width="1" height="1" fill="#231f20"/>
    <rect x="0" y="11" width="1" height="1" fill="#231f20"/>
    <rect x="74" y="11" width="1" height="1" fill="#231f20"/>
    <rect x="84" y="11" width="2" height="1" fill="#231f20"/>
    <rect x="96" y="11" width="1" height="1" fill="#231f20"/>
    <rect x="173" y="11" width="1" height="1" fill="#231f20"/>
    <rect x="0" y="12" width="1" height="1" fill="#231f20"/>
    <rect x="74" y="12" width="1" height="1" fill="#231f20"/>
    <rect x="84" y="12" width="1" height="1" fill="#231f20"/>
    <rect x="95" y="12" width="1" height="1" fill="#231f20"/>
    <rect x="173" y="12" width="1" height="1" fill="#231f20"/>
    <rect x="0" y="13" width="1" height="1" fill="#231f20"/>
    <rect x="74" y="13" width="1" height="1" fill="#231f20"/>
    <rect x="83" y="13" width="2" height="1" fill="#231f20"/>
    <rect x="94" y="13" width="1" height="1" fill="#231f20"/>
    <rect x="173" y="13" width="1" height="1" fill="#231f20"/>
    <rect x="0" y="14" width="1" height="1" fill="#231f20"/>
    <rect x="43" y="14" width="1" height="1" fill="#231f20"/>
    <rect x="74" y="14" width="1" height="1" fill="#231f20"/>
    <rect x="83" y="14" width="1" height="1" fill="#231f20"/>
    <rect x="93" y="14" width="1" height="1" fill="#231f20"/>
    <rect x="130" y="14" width="1" height="1" fill="#231f20"/>
    <rect x="173" y="14" width="1" height="1" fill="#231f20"/>
    <rect x="0" y="15" width="1" height="1" fill="#231f20"/>
    <rect x="43" y="15" width="1" height="1" fill="#231f20"/>
    <rect x="74" y="15" width="1" height="1" fill="#231f20"/>
    <rect x="83" y="15" width="1" height="1" fill="#231f20"/>
    <rect x="92" y="15" width="1" height="1" fill="#231f20"/>
    <rect x="98" y="15" width="1" height="1" fill="#231f20"/>
    <rect x="130" y="15" width="1" height="1" fill="#231f20"/>
    <rect x="173" y="15" width="1" height="1" fill="#231f20"/>
    <rect x="0" y="16" width="1" height="1" fill="#231f20"/>
    <rect x="43" y="16" width="1" height="1" fill="#231f20"/>
    <rect x="74" y="16" width="1" height="1" fill="#231f20"/>
    <rect x="82" y="16" width="1" height="1" fill="#231f20"/>
    <rect x="91" y="16" width="1" height="1" fill="#231f20"/>
    <rect x="98" y="16" width="1" height="1" fill="#231f20"/>
    <rect x="130" y="16" width="1" height="1" fill="#231f20"/>
    <rect x="173" y="16" width="1" height="1" fill="#231f20"/>
    <rect x="0" y="17" width="1" height="1" fill="#231f20"/>
    <rect x="43" y="17" width="1" height="1" fill="#231f20"/>
    <rect x="72" y="17" width="5" height="1" fill="#231f20"/>
    <rect x="82" y="17" width="1" height="1" fill="#231f20"/>
    <rect x="91" y="17" width="8" height="1" fill="#231f20"/>
    <rect x="130" y="17" width="1" height="1" fill="#231f20"/>
    <rect x="173" y="17" width="1" height="1" fill="#231f20"/>
    <rect x="0" y="18" width="1" height="1" fill="#231f20"/>
    <rect x="43" y="18" width="1" height="1" fill="#231f20"/>
    <rect x="81" y="18" width="1" height="1" fill="#231f20"/>
    <rect x="130" y="18" width="1" height="1" fill="#231f20"/>
    <rect x="173" y="18" width="1" height="1" fill="#231f20"/>
    <rect x="0" y="19" width="1" height="1" fill="#231f20"/>
    <rect x="43" y="19" width="1" height="1" fill="#231f20"/>
    <rect x="130" y="19" width="1" height="1" fill="#231f20"/>
    <rect x="173" y="19" width="1" height="1" fill="#231f20"/>
    <rect x="0" y="20" width="1" height="1" fill="#231f20"/>
    <rect x="43" y="20" width="1" height="1" fill="#231f20"/>
    <rect x="130" y="20" width="1" height="1" fill="#231f20"/>
    <rect x="173" y="20" width="1" height="1" fill="#231f20"/>
    <rect x="0" y="21" width="1" height="1" fill="#231f20"/>
    <rect x="43" y="21" width="1" height="1" fill="#231f20"/>
    <rect x="130" y="21" width="1" height="1" fill="#231f20"/>
    <rect x="173" y="21" width="1" height="1" fill="#231f20"/>
    <rect x="0" y="22" width="1" height="1" fill="#231f20"/>
    <rect x="43" y="22" width="1" height="1" fill="#231f20"/>
    <rect x="58" y="22" width="1" height="1" fill="#231f20"/>
    <rect x="72" y="22" width="1" height="1" fill="#231f20"/>
    <rect x="87" y="22" width="1" height="1" fill="#231f20"/>
    <rect x="101" y="22" width="1" height="1" fill="#231f20"/>
    <rect x="115" y="22" width="1" height="1" fill="#231f20"/>
    <rect x="130" y="22" width="1" height="1" fill="#231f20"/>
    <rect x="173" y="22" width="1" height="1" fill="#231f20"/>
    <rect x="0" y="23" width="174" height="1" fill="#231f20"/>
    <rect x="0" y="24" width="1" height="1" fill="#231f20"/>
    <rect x="43" y="24" width="1" height="1" fill="#231f20"/>
    <rect x="58" y="24" width="1" height="1" fill="#231f20"/>
    <rect x="72" y="24" width="1" height="1" fill="#231f20"/>
    <rect x="87" y="24" width="1" height="1" fill="#231f20"/>
    <rect x="101" y="24" width="1" height="1" fill="#231f20"/>
    <rect x="115" y="24" width="1" height="1" fill="#231f20"/>
    <rect x="130" y="24" width="1" height="1" fill="#231f20"/>
    <rect x="173" y="24" width="1" height="1" fill="#231f20"/>
    <rect x="0" y="25" width="1" height="1" fill="#231f20"/>
    <rect x="43" y="25" width="1" height="1" fill="#231f20"/>
    <rect x="58" y="25" width="1" height="1" fill="#231f20"/>
    <rect x="72" y="25" width="1" height="1" fill="#231f20"/>
    <rect x="87" y="25" width="1" height="1" fill="#231f20"/>
    <rect x="101" y="25" width="1" height="1" fill="#231f20"/>
    <rect x="115" y="25" width="1" height="1" fill="#231f20"/>
    <rect x="130" y="25" width="1" height="1" fill="#231f20"/>
    <rect x="173" y="25" width="1" height="1" fill="#231f20"/>
    <rect x="0" y="26" width="1" height="1" fill="#231f20"/>
    <rect x="43" y="26" width="1" height="1" fill="#231f20"/>
    <rect x="58" y="26" width="1" height="1" fill="#231f20"/>
    <rect x="72" y="26" width="1" height="1" fill="#231f20"/>
    <rect x="87" y="26" width="1" height="1" fill="#231f20"/>
    <rect x="101" y="26" width="1" height="1" fill="#231f20"/>
    <rect x="115" y="26" width="1" height="1" fill="#231f20"/>
    <rect x="130" y="26" width="1" height="1" fill="#231f20"/>
    <rect x="173" y="26" width="1" height="1" fill="#231f20"/>
    <rect x="0" y="27" width="1" height="1" fill="#231f20"/>
    <rect x="43" y="27" width="1" height="1" fill="#231f20"/>
    <rect x="58" y="27" width="1" height="1" fill="#231f20"/>
    <rect x="72" y="27" width="1" height="1" fill="#231f20"/>
    <rect x="87" y="27" width="1" height="1" fill="#231f20"/>
    <rect x="101" y="27" width="1" height="1" fill="#231f20"/>
    <rect x="115" y="27" width="1" height="1" fill="#231f20"/>
    <rect x="130" y="27" width="1" height="1" fill="#231f20"/>
    <rect x="173" y="27" width="1" height="1" fill="#231f20"/>
    <rect x="0" y="28" width="1" height="1" fill="#231f20"/>
    <rect x="43" y="28" width="1" height="1" fill="#231f20"/>
    <rect x="58" y="28" width="1" height="1" fill="#231f20"/>
    <rect x="72" y="28" width="1" height="1" fill="#231f20"/>
    <rect x="87" y="28" width="1" height="1" fill="#231f20"/>
    <rect x="101" y="28" width="1" height="1" fill="#231f20"/>
    <rect x="115" y="28" width="1" height="1" fill="#231f20"/>
    <rect x="130" y="28" width="1" height="1" fill="#231f20"/>
    <rect x="173" y="28" width="1" height="1" fill="#231f20"/>
    <rect x="0" y="29" width="1" height="1" fill="#231f20"/>
    <rect x="43" y="29" width="1" height="1" fill="#231f20"/>
    <rect x="58" y="29" width="1" height="1" fill="#231f20"/>
    <rect x="72" y="29" width="1" height="1" fill="#231f20"/>
    <rect x="87" y="29" width="1" height="1" fill="#231f20"/>
    <rect x="101" y="29" width="1" height="1" fill="#231f20"/>
    <rect x="115" y="29" width="1" height="1" fill="#231f20"/>
    <rect x="130" y="29" width="1" height="1" fill="#231f20"/>
    <rect x="173" y="29" width="1" height="1" fill="#231f20"/>
    <rect x="0" y="30" width="1" height="1" fill="#231f20"/>
    <rect x="43" y="30" width="1" height="1" fill="#231f20"/>
    <rect x="58" y="30" width="1" height="1" fill="#231f20"/>
    <rect x="72" y="30" width="1" height="1" fill="#231f20"/>
    <rect x="87" y="30" width="1" height="1" fill="#231f20"/>
    <rect x="101" y="30" width="1" height="1" fill="#231f20"/>
    <rect x="115" y="30" width="1" height="1" fill="#231f20"/>
    <rect x="130" y="30" width="1" height="1" fill="#231f20"/>
    <rect x="173" y="30" width="1" height="1" fill="#231f20"/>
    <rect x="0" y="31" width="1" height="1" fill="#231f20"/>
    <rect x="43" y="31" width="1" height="1" fill="#231f20"/>
    <rect x="58" y="31" width="1" height="1" fill="#231f20"/>
    <rect x="72" y="31" width="1" height="1" fill="#231f20"/>
    <rect x="87" y="31" width="1" height="1" fill="#231f20"/>
    <rect x="101" y="31" width="1" height="1" fill="#231f20"/>
    <rect x="115" y="31" width="1" height="1" fill="#231f20"/>
    <rect x="130" y="31" width="1" height="1" fill="#231f20"/>
    <rect x="173" y="31" width="1" height="1" fill="#231f20"/>
    <rect x="0" y="32" width="1" height="1" fill="#231f20"/>
    <rect x="43" y="32" width="1" height="1" fill="#231f20"/>
    <rect x="58" y="32" width="1" height="1" fill="#231f20"/>
    <rect x="72" y="32" width="1" height="1" fill="#231f20"/>
    <rect x="87" y="32" width="1" height="1" fill="#231f20"/>
    <rect x="101" y="32" width="1" height="1" fill="#231f20"/>
    <rect x="115" y="32" width="1" height="1" fill="#231f20"/>
    <rect x="130" y="32" width="1" height="1" fill="#231f20"/>
    <rect x="173" y="32" width="1" height="1" fill="#231f20"/>
    <rect x="0" y="33" width="1" height="1" fill="#231f20"/>
    <rect x="43" y="33" width="1" height="1" fill="#231f20"/>
    <rect x="58" y="33" width="1" height="1" fill="#231f20"/>
    <rect x="72" y="33" width="1" height="1" fill="#231f20"/>
    <rect x="87" y="33" width="1" height="1" fill="#231f20"/>
    <rect x="101" y="33" width="1" height="1" fill="#231f20"/>
    <rect x="115" y="33" width="1" height="1" fill="#231f20"/>
    <rect x="130" y="33" width="1" height="1" fill="#231f20"/>
    <rect x="173" y="33" width="1" height="1" fill="#231f20"/>
    <rect x="0" y="34" width="1" height="1" fill="#231f20"/>
    <rect x="43" y="34" width="1" height="1" fill="#231f20"/>
    <rect x="58" y="34" width="1" height="1" fill="#231f20"/>
    <rect x="72" y="34" width="1" height="1" fill="#231f20"/>
    <rect x="87" y="34" width="1" height="1" fill="#231f20"/>
    <rect x="101" y="34" width="1" height="1" fill="#231f20"/>
    <rect x="115" y="34" width="1" height="1" fill="#231f20"/>
    <rect x="130" y="34" width="1" height="1" fill="#231f20"/>
    <rect x="173" y="34" width="1" height="1" fill="#231f20"/>
    <rect x="0" y="35" width="1" height="1" fill="#231f20"/>
    <rect x="43" y="35" width="1" height="1" fill="#231f20"/>
    <rect x="58" y="35" width="1" height="1" fill="#231f20"/>
    <rect x="72" y="35" width="1" height="1" fill="#231f20"/>
    <rect x="87" y="35" width="1" height="1" fill="#231f20"/>
    <rect x="101" y="35" width="1" height="1" fill="#231f20"/>
    <rect x="115" y="35" width="1" height="1" fill="#231f20"/>
    <rect x="130" y="35" width="1" height="1" fill="#231f20"/>
    <rect x="173" y="35" width="1" height="1" fill="#231f20"/>
    <rect x="0" y="36" width="1" height="1" fill="#231f20"/>
    <rect x="43" y="36" width="1" height="1" fill="#231f20"/>
    <rect x="58" y="36" width="1" height="1" fill="#231f20"/>
    <rect x="72" y="36" width="1" height="1" fill="#231f20"/>
    <rect x="87" y="36" width="1" height="1" fill="#231f20"/>
    <rect x="101" y="36" width="1" height="1" fill="#231f20"/>
    <rect x="115" y="36" width="1" height="1" fill="#231f20"/>
    <rect x="130" y="36" width="1" height="1" fill="#231f20"/>
    <rect x="173" y="36" width="1" height="1" fill="#231f20"/>
    <rect x="0" y="37" width="1" height="1" fill="#231f20"/>
    <rect x="43" y="37" width="1" height="1" fill="#231f20"/>
    <rect x="58" y="37" width="1" height="1" fill="#231f20"/>
    <rect x="72" y="37" width="1" height="1" fill="#231f20"/>
    <rect x="87" y="37" width="1" height="1" fill="#231f20"/>
    <rect x="101" y="37" width="1" height="1" fill="#231f20"/>
    <rect x="115" y="37" width="1" height="1" fill="#231f20"/>
    <rect x="130" y="37" width="1" height="1" fill="#231f20"/>
    <rect x="173" y="37" width="1" height="1" fill="#231f20"/>
    <rect x="0" y="38" width="1" height="1" fill="#231f20"/>
    <rect x="43" y="38" width="1" height="1" fill="#231f20"/>
    <rect x="58" y="38" width="1" height="1" fill="#231f20"/>
    <rect x="72" y="38" width="1" height="1" fill="#231f20"/>
    <rect x="87" y="38" width="1" height="1" fill="#231f20"/>
    <rect x="101" y="38" width="1" height="1" fill="#231f20"/>
    <rect x="115" y="38" width="1" height="1" fill="#231f20"/>
    <rect x="130" y="38" width="1" height="1" fill="#231f20"/>
    <rect x="173" y="38" width="1" height="1" fill="#231f20"/>
    <rect x="0" y="39" width="1" height="1" fill="#231f20"/>
    <rect x="43" y="39" width="1" height="1" fill="#231f20"/>
    <rect x="58" y="39" width="1" height="1" fill="#231f20"/>
    <rect x="72" y="39" width="1" height="1" fill="#231f20"/>
    <rect x="87" y="39" width="1" height="1" fill="#231f20"/>
    <rect x="101" y="39" width="1" height="1" fill="#231f20"/>
    <rect x="115" y="39" width="1" height="1" fill="#231f20"/>
    <rect x="130" y="39" width="1" height="1" fill="#231f20"/>
    <rect x="173" y="39" width="1" height="1" fill="#231f20"/>
    <rect x="0" y="40" width="1" height="1" fill="#231f20"/>
    <rect x="43" y="40" width="1" height="1" fill="#231f20"/>
    <rect x="58" y="40" width="1" height="1" fill="#231f20"/>
    <rect x="72" y="40" width="1" height="1" fill="#231f20"/>
    <rect x="87" y="40" width="1" height="1" fill="#231f20"/>
    <rect x="101" y="40" width="1" height="1" fill="#231f20"/>
    <rect x="115" y="40" width="1" height="1" fill="#231f20"/>
    <rect x="130" y="40" width="1" height="1" fill="#231f20"/>
    <rect x="173" y="40" width="1" height="1" fill="#231f20"/>
    <rect x="0" y="41" width="1" height="1" fill="#231f20"/>
    <rect x="43" y="41" width="1" height="1" fill="#231f20"/>
    <rect x="58" y="41" width="1" height="1" fill="#231f20"/>
    <rect x="72" y="41" width="1" height="1" fill="#231f20"/>
    <rect x="87" y="41" width="1" height="1" fill="#231f20"/>
    <rect x="101" y="41" width="1" height="1" fill="#231f20"/>
    <rect x="115" y="41" width="1" height="1" fill="#231f20"/>
    <rect x="130" y="41" width="1" height="1" fill="#231f20"/>
    <rect x="173" y="41" width="1" height="1" fill="#231f20"/>
    <rect x="0" y="42" width="1" height="1" fill="#231f20"/>
    <rect x="43" y="42" width="1" height="1" fill="#231f20"/>
    <rect x="58" y="42" width="1" height="1" fill="#231f20"/>
    <rect x="72" y="42" width="1" height="1" fill="#231f20"/>
    <rect x="87" y="42" width="1" height="1" fill="#231f20"/>
    <rect x="101" y="42" width="1" height="1" fill="#231f20"/>
    <rect x="115" y="42" width="1" height="1" fill="#231f20"/>
    <rect x="130" y="42" width="1" height="1" fill="#231f20"/>
    <rect x="173" y="42" width="1" height="1" fill="#231f20"/>
    <rect x="0" y="43" width="1" height="1" fill="#231f20"/>
    <rect x="43" y="43" width="1" height="1" fill="#231f20"/>
    <rect x="58" y="43" width="1" height="1" fill="#231f20"/>
    <rect x="72" y="43" width="1" height="1" fill="#231f20"/>
    <rect x="87" y="43" width="1" height="1" fill="#231f20"/>
    <rect x="101" y="43" width="1" height="1" fill="#231f20"/>
    <rect x="115" y="43" width="1" height="1" fill="#231f20"/>
    <rect x="130" y="43" width="1" height="1" fill="#231f20"/>
    <rect x="173" y="43" width="1" height="1" fill="#231f20"/>
    <rect x="0" y="44" width="1" height="1" fill="#231f20"/>
    <rect x="43" y="44" width="1" height="1" fill="#231f20"/>
    <rect x="58" y="44" width="1" height="1" fill="#231f20"/>
    <rect x="72" y="44" width="1" height="1" fill="#231f20"/>
    <rect x="87" y="44" width="1" height="1" fill="#231f20"/>
    <rect x="101" y="44" width="1" height="1" fill="#231f20"/>
    <rect x="115" y="44" width="1" height="1" fill="#231f20"/>
    <rect x="130" y="44" width="1" height="1" fill="#231f20"/>
    <rect x="173" y="44" width="1" height="1" fill="#231f20"/>
    <rect x="0" y="45" width="174" height="1" fill="#231f20"/>
    <rect x="0" y="46" width="1" height="1" fill="#231f20"/>
    <rect x="173" y="46" width="1" height="1" fill="#231f20"/>
    <rect x="0" y="47" width="1" height="1" fill="#231f20"/>
    <rect x="173" y="47" width="1" height="1" fill="#231f20"/>
    <rect x="0" y="48" width="1" height="1" fill="#231f20"/>
    <rect x="173" y="48" width="1" height="1" fill="#231f20"/>
    <rect x="0" y="49" width="1" height="1" fill="#231f20"/>
    <rect x="173" y="49" width="1" height="1" fill="#231f20"/>
    <rect x="0" y="50" width="1" height="1" fill="#231f20"/>
    <rect x="173" y="50" width="1" height="1" fill="#231f20"/>
    <rect x="0" y="51" width="1" height="1" fill="#231f20"/>
    <rect x="173" y="51" width="1" height="1" fill="#231f20"/>
    <rect x="0" y="52" width="1" height="1" fill="#231f20"/>
    <rect x="173" y="52" width="1" height="1" fill="#231f20"/>
    <rect x="0" y="53" width="1" height="1" fill="#231f20"/>
    <rect x="173" y="53" width="1" height="1" fill="#231f20"/>
    <rect x="0" y="54" width="1" height="1" fill="#231f20"/>
    <rect x="173" y="54" width="1" height="1" fill="#231f20"/>
    <rect x="0" y="55" width="1" height="1" fill="#231f20"/>
    <rect x="173" y="55" width="1" height="1" fill="#231f20"/>
    <rect x="0" y="56" width="1" height="1" fill="#231f20"/>
    <rect x="173" y="56" width="1" height="1" fill="#231f20"/>
    <rect x="0" y="57" width="1" height="1" fill="#231f20"/>
    <rect x="173" y="57" width="1" height="1" fill="#231f20"/>
    <rect x="0" y="58" width="1" height="1" fill="#231f20"/>
    <rect x="173" y="58" width="1" height="1" fill="#231f20"/>
    <rect x="0" y="59" width="1" height="1" fill="#231f20"/>
    <rect x="173" y="59" width="1" height="1" fill="#231f20"/>
    <rect x="0" y="60" width="1" height="1" fill="#231f20"/>
    <rect x="173" y="60" width="1" height="1" fill="#231f20"/>
    <rect x="0" y="61" width="1" height="1" fill="#231f20"/>
    <rect x="173" y="61" width="1" height="1" fill="#231f20"/>
    <rect x="0" y="62" width="1" height="1" fill="#231f20"/>
    <rect x="173" y="62" width="1" height="1" fill="#231f20"/>
    <rect x="0" y="63" width="1" height="1" fill="#231f20"/>
    <rect x="173" y="63" width="1" height="1" fill="#231f20"/>
    <rect x="0" y="64" width="1" height="1" fill="#231f20"/>
    <rect x="173" y="64" width="1" height="1" fill="#231f20"/>
    <rect x="0" y="65" width="1" height="1" fill="#231f20"/>
    <rect x="173" y="65" width="1" height="1" fill="#231f20"/>
    <rect x="0" y="66" width="1" height="1" fill="#231f20"/>
    <rect x="173" y="66" width="1" height="1" fill="#231f20"/>
    <rect x="0" y="67" width="1" height="1" fill="#231f20"/>
    <rect x="173" y="67" width="1" height="1" fill="#231f20"/>
    <rect x="0" y="68" width="174" height="1" fill="#231f20"/>
  </g>
</svg>