<?xml version="1.0" encoding="UTF-8"?>
<svg xmlns="http://www.w3.org/2000/svg" viewBox="0 0 173 69" width="173" height="69">
  <!-- Auto-converted from legend-1731.png -->
  <rect x="0" y="0" width="173" height="69" fill="none"/>
  <g fill="#231f20" stroke="none">
    <rect x="0" y="0" width="173" height="1" fill="#231f20"/>
    <rect x="0" y="1" width="1" height="1" fill="#231f20"/>
    <rect x="172" y="1" width="1" height="1" fill="#231f20"/>
    <rect x="0" y="2" width="1" height="1" fill="#231f20"/>
    <rect x="172" y="2" width="1" height="1" fill="#231f20"/>
    <rect x="0" y="3" width="1" height="1" fill="#231f20"/>
    <rect x="172" y="3" width="1" height="1" fill="#231f20"/>
    <rect x="0" y="4" width="1" height="1" fill="#231f20"/>
    <rect x="172" y="4" width="1" height="1" fill="#231f20"/>
    <rect x="0" y="5" width="1" height="1" fill="#231f20"/>
    <rect x="45" y="5" width="1" height="1" fill="#231f20"/>
    <rect x="48" y="5" width="1" height="1" fill="#231f20"/>
    <rect x="68" y="5" width="1" height="1" fill="#231f20"/>
    <rect x="88" y="5" width="9" height="1" fill="#231f20"/>
    <rect x="114" y="5" width="1" height="1" fill="#231f20"/>
    <rect x="117" y="5" width="1" height="1" fill="#231f20"/>
    <rect x="172" y="5" width="1" height="1" fill="#231f20"/>
    <rect x="0" y="6" width="1" height="1" fill="#231f20"/>
    <rect x="45" y="6" width="1" height="1" fill="#231f20"/>
    <rect x="48" y="6" width="1" height="1" fill="#231f20"/>
    <rect x="69" y="6" width="1" height="1" fill="#231f20"/>
    <rect x="88" y="6" width="1" height="1" fill="#231f20"/>
    <rect x="96" y="6" width="1" height="1" fill="#231f20"/>
    <rect x="114" y="6" width="1" height="1" fill="#231f20"/>
    <rect x="117" y="6" width="1" height="1" fill="#231f20"/>
    <rect x="138" y="6" width="1" height="1" fill="#231f20"/>
    <rect x="172" y="6" width="1" height="1" fill="#231f20"/>
    <rect x="0" y="7" width="1" height="1" fill="#231f20"/>
    <rect x="18" y="7" width="3" height="1" fill="#231f20"/>
    <rect x="44" y="7" width="1" height="1" fill="#231f20"/>
    <rect x="49" y="7" width="1" height="1" fill="#231f20"/>
    <rect x="69" y="7" width="2" height="1" fill="#231f20"/>
    <rect x="88" y="7" width="1" height="1" fill="#231f20"/>
    <rect x="96" y="7" width="1" height="1" fill="#231f20"/>
    <rect x="113" y="7" width="1" height="1" fill="#231f20"/>
    <rect x="118" y="7" width="1" height="1" fill="#231f20"/>
    <rect x="137" y="7" width="1" height="1" fill="#231f20"/>
    <rect x="139" y="7" width="1" height="1" fill="#231f20"/>
    <rect x="172" y="7" width="1" height="1" fill="#231f20"/>
    <rect x="0" y="8" width="1" height="1" fill="#231f20"/>
    <rect x="17" y="8" width="2" height="1" fill="#231f20"/>
    <rect x="21" y="8" width="2" height="1" fill="#231f20"/>
    <rect x="44" y="8" width="1" height="1" fill="#231f20"/>
    <rect x="49" y="8" width="1" height="1" fill="#231f20"/>
    <rect x="70" y="8" width="1" height="1" fill="#231f20"/>
    <rect x="88" y="8" width="1" height="1" fill="#231f20"/>
    <rect x="96" y="8" width="1" height="1" fill="#231f20"/>
    <rect x="113" y="8" width="1" height="1" fill="#231f20"/>
    <rect x="118" y="8" width="1" height="1" fill="#231f20"/>
    <rect x="137" y="8" width="1" height="1" fill="#231f20"/>
    <rect x="139" y="8" width="1" height="1" fill="#231f20"/>
    <rect x="172" y="8" width="1" height="1" fill="#231f20"/>
    <rect x="0" y="9" width="1" height="1" fill="#231f20"/>
    <rect x="16" y="9" width="1" height="1" fill="#231f20"/>
    <rect x="22" y="9" width="1" height="1" fill="#231f20"/>
    <rect x="44" y="9" width="1" height="1" fill="#231f20"/>
    <rect x="49" y="9" width="1" height="1" fill="#231f20"/>
    <rect x="71" y="9" width="1" height="1" fill="#231f20"/>
    <rect x="88" y="9" width="1" height="1" fill="#231f20"/>
    <rect x="96" y="9" width="1" height="1" fill="#231f20"/>
    <rect x="112" y="9" width="1" height="1" fill="#231f20"/>
    <rect x="118" y="9" width="1" height="1" fill="#231f20"/>
    <rect x="136" y="9" width="1" height="1" fill="#231f20"/>
    <rect x="140" y="9" width="1" height="1" fill="#231f20"/>
    <rect x="172" y="9" width="1" height="1" fill="#231f20"/>
    <rect x="0" y="10" width="1" height="1" fill="#231f20"/>
    <rect x="15" y="10" width="1" height="1" fill="#231f20"/>
    <rect x="23" y="10" width="1" height="1" fill="#231f20"/>
    <rect x="43" y="10" width="1" height="1" fill="#231f20"/>
    <rect x="50" y="10" width="1" height="1" fill="#231f20"/>
    <rect x="71" y="10" width="1" height="1" fill="#231f20"/>
    <rect x="88" y="10" width="1" height="1" fill="#231f20"/>
    <rect x="96" y="10" width="1" height="1" fill="#231f20"/>
    <rect x="112" y="10" width="1" height="1" fill="#231f20"/>
    <rect x="119" y="10" width="1" height="1" fill="#231f20"/>
    <rect x="136" y="10" width="1" height="1" fill="#231f20"/>
    <rect x="140" y="10" width="1" height="1" fill="#231f20"/>
    <rect x="172" y="10" width="1" height="1" fill="#231f20"/>
    <rect x="0" y="11" width="1" height="1" fill="#231f20"/>
    <rect x="15" y="11" width="1" height="1" fill="#231f20"/>
    <rect x="23" y="11" width="1" height="1" fill="#231f20"/>
    <rect x="32" y="11" width="1" height="1" fill="#231f20"/>
    <rect x="43" y="11" width="1" height="1" fill="#231f20"/>
    <rect x="50" y="11" width="1" height="1" fill="#231f20"/>
    <rect x="71" y="11" width="1" height="1" fill="#231f20"/>
    <rect x="88" y="11" width="1" height="1" fill="#231f20"/>
    <rect x="96" y="11" width="1" height="1" fill="#231f20"/>
    <rect x="111" y="11" width="1" height="1" fill="#231f20"/>
    <rect x="119" y="11" width="1" height="1" fill="#231f20"/>
    <rect x="135" y="11" width="1" height="1" fill="#231f20"/>
    <rect x="141" y="11" width="1" height="1" fill="#231f20"/>
    <rect x="172" y="11" width="1" height="1" fill="#231f20"/>
    <rect x="0" y="12" width="1" height="1" fill="#231f20"/>
    <rect x="24" y="12" width="1" height="1" fill="#231f20"/>
    <rect x="31" y="12" width="1" height="1" fill="#231f20"/>
    <rect x="43" y="12" width="1" height="1" fill="#231f20"/>
    <rect x="50" y="12" width="1" height="1" fill="#231f20"/>
    <rect x="71" y="12" width="1" height="1" fill="#231f20"/>
    <rect x="88" y="12" width="1" height="1" fill="#231f20"/>
    <rect x="96" y="12" width="1" height="1" fill="#231f20"/>
    <rect x="111" y="12" width="1" height="1" fill="#231f20"/>
    <rect x="119" y="12" width="1" height="1" fill="#231f20"/>
    <rect x="134" y="12" width="1" height="1" fill="#231f20"/>
    <rect x="142" y="12" width="1" height="1" fill="#231f20"/>
    <rect x="172" y="12" width="1" height="1" fill="#231f20"/>
    <rect x="0" y="13" width="1" height="1" fill="#231f20"/>
    <rect x="25" y="13" width="1" height="1" fill="#231f20"/>
    <rect x="30" y="13" width="2" height="1" fill="#231f20"/>
    <rect x="42" y="13" width="1" height="1" fill="#231f20"/>
    <rect x="51" y="13" width="1" height="1" fill="#231f20"/>
    <rect x="71" y="13" width="1" height="1" fill="#231f20"/>
    <rect x="88" y="13" width="1" height="1" fill="#231f20"/>
    <rect x="96" y="13" width="1" height="1" fill="#231f20"/>
    <rect x="111" y="13" width="1" height="1" fill="#231f20"/>
    <rect x="120" y="13" width="1" height="1" fill="#231f20"/>
    <rect x="134" y="13" width="1" height="1" fill="#231f20"/>
    <rect x="142" y="13" width="1" height="1" fill="#231f20"/>
    <rect x="172" y="13" width="1" height="1" fill="#231f20"/>
    <rect x="0" y="14" width="1" height="1" fill="#231f20"/>
    <rect x="25" y="14" width="2" height="1" fill="#231f20"/>
    <rect x="30" y="14" width="1" height="1" fill="#231f20"/>
    <rect x="42" y="14" width="1" height="1" fill="#231f20"/>
    <rect x="51" y="14" width="1" height="1" fill="#231f20"/>
    <rect x="71" y="14" width="1" height="1" fill="#231f20"/>
    <rect x="88" y="14" width="1" height="1" fill="#231f20"/>
    <rect x="96" y="14" width="1" height="1" fill="#231f20"/>
    <rect x="110" y="14" width="1" height="1" fill="#231f20"/>
    <rect x="120" y="14" width="1" height="1" fill="#231f20"/>
    <rect x="133" y="14" width="1" height="1" fill="#231f20"/>
    <rect x="143" y="14" width="1" height="1" fill="#231f20"/>
    <rect x="172" y="14" width="1" height="1" fill="#231f20"/>
    <rect x="0" y="15" width="1" height="1" fill="#231f20"/>
    <rect x="26" y="15" width="4" height="1" fill="#231f20"/>
    <rect x="42" y="15" width="1" height="1" fill="#231f20"/>
    <rect x="51" y="15" width="1" height="1" fill="#231f20"/>
    <rect x="70" y="15" width="1" height="1" fill="#231f20"/>
    <rect x="88" y="15" width="1" height="1" fill="#231f20"/>
    <rect x="96" y="15" width="1" height="1" fill="#231f20"/>
    <rect x="110" y="15" width="1" height="1" fill="#231f20"/>
    <rect x="120" y="15" width="1" height="1" fill="#231f20"/>
    <rect x="133" y="15" width="1" height="1" fill="#231f20"/>
    <rect x="143" y="15" width="1" height="1" fill="#231f20"/>
    <rect x="172" y="15" width="1" height="1" fill="#231f20"/>
    <rect x="0" y="16" width="1" height="1" fill="#231f20"/>
    <rect x="41" y="16" width="1" height="1" fill="#231f20"/>
    <rect x="52" y="16" width="1" height="1" fill="#231f20"/>
    <rect x="69" y="16" width="2" height="1" fill="#231f20"/>
    <rect x="88" y="16" width="1" height="1" fill="#231f20"/>
    <rect x="96" y="16" width="1" height="1" fill="#231f20"/>
    <rect x="109" y="16" width="1" height="1" fill="#231f20"/>
    <rect x="121" y="16" width="1" height="1" fill="#231f20"/>
    <rect x="132" y="16" width="13" height="1" fill="#231f20"/>
    <rect x="172" y="16" width="1" height="1" fill="#231f20"/>
    <rect x="0" y="17" width="1" height="1" fill="#231f20"/>
    <rect x="41" y="17" width="1" height="1" fill="#231f20"/>
    <rect x="52" y="17" width="1" height="1" fill="#231f20"/>
    <rect x="68" y="17" width="1" height="1" fill="#231f20"/>
    <rect x="88" y="17" width="9" height="1" fill="#231f20"/>
    <rect x="109" y="17" width="1" height="1" fill="#231f20"/>
    <rect x="121" y="17" width="1" height="1" fill="#231f20"/>
    <rect x="172" y="17" width="1" height="1" fill="#231f20"/>
    <rect x="0" y="18" width="1" height="1" fill="#231f20"/>
    <rect x="172" y="18" width="1" height="1" fill="#231f20"/>
    <rect x="0" y="19" width="1" height="1" fill="#231f20"/>
    <rect x="172" y="19" width="1" height="1" fill="#231f20"/>
    <rect x="0" y="20" width="1" height="1" fill="#231f20"/>
    <rect x="172" y="20" width="1" height="1" fill="#231f20"/>
    <rect x="0" y="21" width="1" height="1" fill="#231f20"/>
    <rect x="172" y="21" width="1" height="1" fill="#231f20"/>
    <rect x="0" y="22" width="1" height="1" fill="#231f20"/>
    <rect x="172" y="22" width="1" height="1" fill="#231f20"/>
    <rect x="0" y="23" width="173" height="1" fill="#231f20"/>
    <rect x="0" y="24" width="1" height="1" fill="#231f20"/>
    <rect x="172" y="24" width="1" height="1" fill="#231f20"/>
    <rect x="0" y="25" width="1" height="1" fill="#231f20"/>
    <rect x="172" y="25" width="1" height="1" fill="#231f20"/>
    <rect x="0" y="26" width="1" height="1" fill="#231f20"/>
    <rect x="172" y="26" width="1" height="1" fill="#231f20"/>
    <rect x="0" y="27" width="1" height="1" fill="#231f20"/>
    <rect x="172" y="27" width="1" height="1" fill="#231f20"/>
    <rect x="0" y="28" width="1" height="1" fill="#231f20"/>
    <rect x="56" y="28" width="1" height="1" fill="#231f20"/>
    <rect x="59" y="28" width="1" height="1" fill="#231f20"/>
    <rect x="79" y="28" width="10" height="1" fill="#231f20"/>
    <rect x="100" y="28" width="1" height="1" fill="#231f20"/>
    <rect x="125" y="28" width="1" height="1" fill="#231f20"/>
    <rect x="128" y="28" width="1" height="1" fill="#231f20"/>
    <rect x="172" y="28" width="1" height="1" fill="#231f20"/>
    <rect x="0" y="29" width="1" height="1" fill="#231f20"/>
    <rect x="35" y="29" width="1" height="1" fill="#231f20"/>
    <rect x="56" y="29" width="1" height="1" fill="#231f20"/>
    <rect x="59" y="29" width="1" height="1" fill="#231f20"/>
    <rect x="79" y="29" width="1" height="1" fill="#231f20"/>
    <rect x="88" y="29" width="1" height="1" fill="#231f20"/>
    <rect x="101" y="29" width="1" height="1" fill="#231f20"/>
    <rect x="125" y="29" width="1" height="1" fill="#231f20"/>
    <rect x="128" y="29" width="1" height="1" fill="#231f20"/>
    <rect x="172" y="29" width="1" height="1" fill="#231f20"/>
    <rect x="0" y="30" width="1" height="1" fill="#231f20"/>
    <rect x="34" y="30" width="1" height="1" fill="#231f20"/>
    <rect x="36" y="30" width="1" height="1" fill="#231f20"/>
    <rect x="55" y="30" width="1" height="1" fill="#231f20"/>
    <rect x="60" y="30" width="1" height="1" fill="#231f20"/>
    <rect x="79" y="30" width="1" height="1" fill="#231f20"/>
    <rect x="88" y="30" width="1" height="1" fill="#231f20"/>
    <rect x="101" y="30" width="2" height="1" fill="#231f20"/>
    <rect x="124" y="30" width="1" height="1" fill="#231f20"/>
    <rect x="129" y="30" width="1" height="1" fill="#231f20"/>
    <rect x="144" y="30" width="4" height="1" fill="#231f20"/>
    <rect x="172" y="30" width="1" height="1" fill="#231f20"/>
    <rect x="0" y="31" width="1" height="1" fill="#231f20"/>
    <rect x="34" y="31" width="1" height="1" fill="#231f20"/>
    <rect x="36" y="31" width="1" height="1" fill="#231f20"/>
    <rect x="55" y="31" width="1" height="1" fill="#231f20"/>
    <rect x="60" y="31" width="1" height="1" fill="#231f20"/>
    <rect x="79" y="31" width="1" height="1" fill="#231f20"/>
    <rect x="88" y="31" width="1" height="1" fill="#231f20"/>
    <rect x="102" y="31" width="1" height="1" fill="#231f20"/>
    <rect x="124" y="31" width="1" height="1" fill="#231f20"/>
    <rect x="129" y="31" width="1" height="1" fill="#231f20"/>
    <rect x="143" y="31" width="1" height="1" fill="#231f20"/>
    <rect x="147" y="31" width="2" height="1" fill="#231f20"/>
    <rect x="172" y="31" width="1" height="1" fill="#231f20"/>
    <rect x="0" y="32" width="1" height="1" fill="#231f20"/>
    <rect x="33" y="32" width="1" height="1" fill="#231f20"/>
    <rect x="37" y="32" width="1" height="1" fill="#231f20"/>
    <rect x="55" y="32" width="1" height="1" fill="#231f20"/>
    <rect x="61" y="32" width="1" height="1" fill="#231f20"/>
    <rect x="79" y="32" width="1" height="1" fill="#231f20"/>
    <rect x="88" y="32" width="1" height="1" fill="#231f20"/>
    <rect x="102" y="32" width="1" height="1" fill="#231f20"/>
    <rect x="124" y="32" width="1" height="1" fill="#231f20"/>
    <rect x="129" y="32" width="1" height="1" fill="#231f20"/>
    <rect x="142" y="32" width="2" height="1" fill="#231f20"/>
    <rect x="148" y="32" width="1" height="1" fill="#231f20"/>
    <rect x="172" y="32" width="1" height="1" fill="#231f20"/>
    <rect x="0" y="33" width="1" height="1" fill="#231f20"/>
    <rect x="33" y="33" width="1" height="1" fill="#231f20"/>
    <rect x="37" y="33" width="1" height="1" fill="#231f20"/>
    <rect x="54" y="33" width="1" height="1" fill="#231f20"/>
    <rect x="61" y="33" width="1" height="1" fill="#231f20"/>
    <rect x="79" y="33" width="1" height="1" fill="#231f20"/>
    <rect x="88" y="33" width="1" height="1" fill="#231f20"/>
    <rect x="102" y="33" width="1" height="1" fill="#231f20"/>
    <rect x="123" y="33" width="1" height="1" fill="#231f20"/>
    <rect x="130" y="33" width="1" height="1" fill="#231f20"/>
    <rect x="141" y="33" width="1" height="1" fill="#231f20"/>
    <rect x="149" y="33" width="1" height="1" fill="#231f20"/>
    <rect x="172" y="33" width="1" height="1" fill="#231f20"/>
    <rect x="0" y="34" width="1" height="1" fill="#231f20"/>
    <rect x="32" y="34" width="1" height="1" fill="#231f20"/>
    <rect x="38" y="34" width="1" height="1" fill="#231f20"/>
    <rect x="54" y="34" width="1" height="1" fill="#231f20"/>
    <rect x="61" y="34" width="1" height="1" fill="#231f20"/>
    <rect x="79" y="34" width="1" height="1" fill="#231f20"/>
    <rect x="88" y="34" width="1" height="1" fill="#231f20"/>
    <rect x="102" y="34" width="1" height="1" fill="#231f20"/>
    <rect x="123" y="34" width="1" height="1" fill="#231f20"/>
    <rect x="130" y="34" width="1" height="1" fill="#231f20"/>
    <rect x="141" y="34" width="1" height="1" fill="#231f20"/>
    <rect x="149" y="34" width="1" height="1" fill="#231f20"/>
    <rect x="158" y="34" width="1" height="1" fill="#231f20"/>
    <rect x="172" y="34" width="1" height="1" fill="#231f20"/>
    <rect x="0" y="35" width="1" height="1" fill="#231f20"/>
    <rect x="31" y="35" width="1" height="1" fill="#231f20"/>
    <rect x="38" y="35" width="1" height="1" fill="#231f20"/>
    <rect x="54" y="35" width="1" height="1" fill="#231f20"/>
    <rect x="62" y="35" width="1" height="1" fill="#231f20"/>
    <rect x="79" y="35" width="1" height="1" fill="#231f20"/>
    <rect x="88" y="35" width="1" height="1" fill="#231f20"/>
    <rect x="102" y="35" width="1" height="1" fill="#231f20"/>
    <rect x="123" y="35" width="1" height="1" fill="#231f20"/>
    <rect x="130" y="35" width="1" height="1" fill="#231f20"/>
    <rect x="150" y="35" width="1" height="1" fill="#231f20"/>
    <rect x="158" y="35" width="1" height="1" fill="#231f20"/>
    <rect x="172" y="35" width="1" height="1" fill="#231f20"/>
    <rect x="0" y="36" width="1" height="1" fill="#231f20"/>
    <rect x="31" y="36" width="1" height="1" fill="#231f20"/>
    <rect x="39" y="36" width="1" height="1" fill="#231f20"/>
    <rect x="53" y="36" width="1" height="1" fill="#231f20"/>
    <rect x="62" y="36" width="1" height="1" fill="#231f20"/>
    <rect x="79" y="36" width="1" height="1" fill="#231f20"/>
    <rect x="88" y="36" width="1" height="1" fill="#231f20"/>
    <rect x="102" y="36" width="1" height="1" fill="#231f20"/>
    <rect x="122" y="36" width="1" height="1" fill="#231f20"/>
    <rect x="131" y="36" width="1" height="1" fill="#231f20"/>
    <rect x="151" y="36" width="1" height="1" fill="#231f20"/>
    <rect x="156" y="36" width="2" height="1" fill="#231f20"/>
    <rect x="172" y="36" width="1" height="1" fill="#231f20"/>
    <rect x="0" y="37" width="1" height="1" fill="#231f20"/>
    <rect x="30" y="37" width="1" height="1" fill="#231f20"/>
    <rect x="39" y="37" width="1" height="1" fill="#231f20"/>
    <rect x="53" y="37" width="1" height="1" fill="#231f20"/>
    <rect x="63" y="37" width="1" height="1" fill="#231f20"/>
    <rect x="79" y="37" width="1" height="1" fill="#231f20"/>
    <rect x="88" y="37" width="1" height="1" fill="#231f20"/>
    <rect x="102" y="37" width="1" height="1" fill="#231f20"/>
    <rect x="122" y="37" width="1" height="1" fill="#231f20"/>
    <rect x="131" y="37" width="1" height="1" fill="#231f20"/>
    <rect x="151" y="37" width="2" height="1" fill="#231f20"/>
    <rect x="155" y="37" width="2" height="1" fill="#231f20"/>
    <rect x="172" y="37" width="1" height="1" fill="#231f20"/>
    <rect x="0" y="38" width="1" height="1" fill="#231f20"/>
    <rect x="30" y="38" width="1" height="1" fill="#231f20"/>
    <rect x="40" y="38" width="1" height="1" fill="#231f20"/>
    <rect x="53" y="38" width="1" height="1" fill="#231f20"/>
    <rect x="63" y="38" width="1" height="1" fill="#231f20"/>
    <rect x="79" y="38" width="1" height="1" fill="#231f20"/>
    <rect x="88" y="38" width="1" height="1" fill="#231f20"/>
    <rect x="102" y="38" width="1" height="1" fill="#231f20"/>
    <rect x="122" y="38" width="1" height="1" fill="#231f20"/>
    <rect x="131" y="38" width="1" height="1" fill="#231f20"/>
    <rect x="152" y="38" width="4" height="1" fill="#231f20"/>
    <rect x="172" y="38" width="1" height="1" fill="#231f20"/>
    <rect x="0" y="39" width="1" height="1" fill="#231f20"/>
    <rect x="29" y="39" width="12" height="1" fill="#231f20"/>
    <rect x="52" y="39" width="1" height="1" fill="#231f20"/>
    <rect x="64" y="39" width="1" height="1" fill="#231f20"/>
    <rect x="79" y="39" width="1" height="1" fill="#231f20"/>
    <rect x="88" y="39" width="1" height="1" fill="#231f20"/>
    <rect x="101" y="39" width="1" height="1" fill="#231f20"/>
    <rect x="121" y="39" width="1" height="1" fill="#231f20"/>
    <rect x="132" y="39" width="1" height="1" fill="#231f20"/>
    <rect x="172" y="39" width="1" height="1" fill="#231f20"/>
    <rect x="0" y="40" width="1" height="1" fill="#231f20"/>
    <rect x="52" y="40" width="1" height="1" fill="#231f20"/>
    <rect x="64" y="40" width="1" height="1" fill="#231f20"/>
    <rect x="79" y="40" width="10" height="1" fill="#231f20"/>
    <rect x="100" y="40" width="1" height="1" fill="#231f20"/>
    <rect x="121" y="40" width="1" height="1" fill="#231f20"/>
    <rect x="132" y="40" width="1" height="1" fill="#231f20"/>
    <rect x="172" y="40" width="1" height="1" fill="#231f20"/>
    <rect x="0" y="41" width="1" height="1" fill="#231f20"/>
    <rect x="172" y="41" width="1" height="1" fill="#231f20"/>
    <rect x="0" y="42" width="1" height="1" fill="#231f20"/>
    <rect x="172" y="42" width="1" height="1" fill="#231f20"/>
    <rect x="0" y="43" width="1" height="1" fill="#231f20"/>
    <rect x="172" y="43" width="1" height="1" fill="#231f20"/>
    <rect x="0" y="44" width="1" height="1" fill="#231f20"/>
    <rect x="172" y="44" width="1" height="1" fill="#231f20"/>
    <rect x="0" y="45" width="173" height="1" fill="#231f20"/>
    <rect x="0" y="46" width="1" height="1" fill="#231f20"/>
    <rect x="172" y="46" width="1" height="1" fill="#231f20"/>
    <rect x="0" y="47" width="1" height="1" fill="#231f20"/>
    <rect x="172" y="47" width="1" height="1" fill="#231f20"/>
    <rect x="0" y="48" width="1" height="1" fill="#231f20"/>
    <rect x="172" y="48" width="1" height="1" fill="#231f20"/>
    <rect x="0" y="49" width="1" height="1" fill="#231f20"/>
    <rect x="172" y="49" width="1" height="1" fill="#231f20"/>
    <rect x="0" y="50" width="1" height="1" fill="#231f20"/>
    <rect x="172" y="50" width="1" height="1" fill="#231f20"/>
    <rect x="0" y="51" width="1" height="1" fill="#231f20"/>
    <rect x="45" y="51" width="1" height="1" fill="#231f20"/>
    <rect x="48" y="51" width="1" height="1" fill="#231f20"/>
    <rect x="68" y="51" width="1" height="1" fill="#231f20"/>
    <rect x="88" y="51" width="9" height="1" fill="#231f20"/>
    <rect x="114" y="51" width="1" height="1" fill="#231f20"/>
    <rect x="117" y="51" width="1" height="1" fill="#231f20"/>
    <rect x="172" y="51" width="1" height="1" fill="#231f20"/>
    <rect x="0" y="52" width="1" height="1" fill="#231f20"/>
    <rect x="45" y="52" width="1" height="1" fill="#231f20"/>
    <rect x="48" y="52" width="1" height="1" fill="#231f20"/>
    <rect x="69" y="52" width="1" height="1" fill="#231f20"/>
    <rect x="88" y="52" width="1" height="1" fill="#231f20"/>
    <rect x="96" y="52" width="1" height="1" fill="#231f20"/>
    <rect x="114" y="52" width="1" height="1" fill="#231f20"/>
    <rect x="117" y="52" width="1" height="1" fill="#231f20"/>
    <rect x="138" y="52" width="1" height="1" fill="#231f20"/>
    <rect x="172" y="52" width="1" height="1" fill="#231f20"/>
    <rect x="0" y="53" width="1" height="1" fill="#231f20"/>
    <rect x="18" y="53" width="4" height="1" fill="#231f20"/>
    <rect x="44" y="53" width="1" height="1" fill="#231f20"/>
    <rect x="49" y="53" width="1" height="1" fill="#231f20"/>
    <rect x="69" y="53" width="2" height="1" fill="#231f20"/>
    <rect x="88" y="53" width="1" height="1" fill="#231f20"/>
    <rect x="96" y="53" width="1" height="1" fill="#231f20"/>
    <rect x="113" y="53" width="1" height="1" fill="#231f20"/>
    <rect x="118" y="53" width="1" height="1" fill="#231f20"/>
    <rect x="137" y="53" width="1" height="1" fill="#231f20"/>
    <rect x="139" y="53" width="1" height="1" fill="#231f20"/>
    <rect x="172" y="53" width="1" height="1" fill="#231f20"/>
    <rect x="0" y="54" width="1" height="1" fill="#231f20"/>
    <rect x="17" y="54" width="1" height="1" fill="#231f20"/>
    <rect x="21" y="54" width="2" height="1" fill="#231f20"/>
    <rect x="44" y="54" width="1" height="1" fill="#231f20"/>
    <rect x="49" y="54" width="1" height="1" fill="#231f20"/>
    <rect x="70" y="54" width="1" height="1" fill="#231f20"/>
    <rect x="88" y="54" width="1" height="1" fill="#231f20"/>
    <rect x="96" y="54" width="1" height="1" fill="#231f20"/>
    <rect x="113" y="54" width="1" height="1" fill="#231f20"/>
    <rect x="118" y="54" width="1" height="1" fill="#231f20"/>
    <rect x="137" y="54" width="1" height="1" fill="#231f20"/>
    <rect x="139" y="54" width="1" height="1" fill="#231f20"/>
    <rect x="172" y="54" width="1" height="1" fill="#231f20"/>
    <rect x="0" y="55" width="1" height="1" fill="#231f20"/>
    <rect x="16" y="55" width="1" height="1" fill="#231f20"/>
    <rect x="22" y="55" width="1" height="1" fill="#231f20"/>
    <rect x="44" y="55" width="1" height="1" fill="#231f20"/>
    <rect x="49" y="55" width="1" height="1" fill="#231f20"/>
    <rect x="71" y="55" width="1" height="1" fill="#231f20"/>
    <rect x="88" y="55" width="1" height="1" fill="#231f20"/>
    <rect x="96" y="55" width="1" height="1" fill="#231f20"/>
    <rect x="112" y="55" width="1" height="1" fill="#231f20"/>
    <rect x="118" y="55" width="1" height="1" fill="#231f20"/>
    <rect x="136" y="55" width="1" height="1" fill="#231f20"/>
    <rect x="140" y="55" width="1" height="1" fill="#231f20"/>
    <rect x="172" y="55" width="1" height="1" fill="#231f20"/>
    <rect x="0" y="56" width="1" height="1" fill="#231f20"/>
    <rect x="15" y="56" width="1" height="1" fill="#231f20"/>
    <rect x="23" y="56" width="1" height="1" fill="#231f20"/>
    <rect x="43" y="56" width="1" height="1" fill="#231f20"/>
    <rect x="50" y="56" width="1" height="1" fill="#231f20"/>
    <rect x="71" y="56" width="1" height="1" fill="#231f20"/>
    <rect x="88" y="56" width="1" height="1" fill="#231f20"/>
    <rect x="96" y="56" width="1" height="1" fill="#231f20"/>
    <rect x="112" y="56" width="1" height="1" fill="#231f20"/>
    <rect x="119" y="56" width="1" height="1" fill="#231f20"/>
    <rect x="136" y="56" width="1" height="1" fill="#231f20"/>
    <rect x="140" y="56" width="1" height="1" fill="#231f20"/>
    <rect x="172" y="56" width="1" height="1" fill="#231f20"/>
    <rect x="0" y="57" width="1" height="1" fill="#231f20"/>
    <rect x="15" y="57" width="1" height="1" fill="#231f20"/>
    <rect x="23" y="57" width="1" height="1" fill="#231f20"/>
    <rect x="32" y="57" width="1" height="1" fill="#231f20"/>
    <rect x="43" y="57" width="1" height="1" fill="#231f20"/>
    <rect x="50" y="57" width="1" height="1" fill="#231f20"/>
    <rect x="71" y="57" width="1" height="1" fill="#231f20"/>
    <rect x="88" y="57" width="1" height="1" fill="#231f20"/>
    <rect x="96" y="57" width="1" height="1" fill="#231f20"/>
    <rect x="111" y="57" width="1" height="1" fill="#231f20"/>
    <rect x="119" y="57" width="1" height="1" fill="#231f20"/>
    <rect x="135" y="57" width="1" height="1" fill="#231f20"/>
    <rect x="141" y="57" width="1" height="1" fill="#231f20"/>
    <rect x="172" y="57" width="1" height="1" fill="#231f20"/>
    <rect x="0" y="58" width="1" height="1" fill="#231f20"/>
    <rect x="24" y="58" width="2" height="1" fill="#231f20"/>
    <rect x="31" y="58" width="1" height="1" fill="#231f20"/>
    <rect x="43" y="58" width="1" height="1" fill="#231f20"/>
    <rect x="50" y="58" width="1" height="1" fill="#231f20"/>
    <rect x="71" y="58" width="1" height="1" fill="#231f20"/>
    <rect x="88" y="58" width="1" height="1" fill="#231f20"/>
    <rect x="96" y="58" width="1" height="1" fill="#231f20"/>
    <rect x="111" y="58" width="1" height="1" fill="#231f20"/>
    <rect x="119" y="58" width="1" height="1" fill="#231f20"/>
    <rect x="134" y="58" width="1" height="1" fill="#231f20"/>
    <rect x="142" y="58" width="1" height="1" fill="#231f20"/>
    <rect x="172" y="58" width="1" height="1" fill="#231f20"/>
    <rect x="0" y="59" width="1" height="1" fill="#231f20"/>
    <rect x="25" y="59" width="1" height="1" fill="#231f20"/>
    <rect x="30" y="59" width="2" height="1" fill="#231f20"/>
    <rect x="42" y="59" width="1" height="1" fill="#231f20"/>
    <rect x="51" y="59" width="1" height="1" fill="#231f20"/>
    <rect x="71" y="59" width="1" height="1" fill="#231f20"/>
    <rect x="88" y="59" width="1" height="1" fill="#231f20"/>
    <rect x="96" y="59" width="1" height="1" fill="#231f20"/>
    <rect x="111" y="59" width="1" height="1" fill="#231f20"/>
    <rect x="120" y="59" width="1" height="1" fill="#231f20"/>
    <rect x="134" y="59" width="1" height="1" fill="#231f20"/>
    <rect x="142" y="59" width="1" height="1" fill="#231f20"/>
    <rect x="172" y="59" width="1" height="1" fill="#231f20"/>
    <rect x="0" y="60" width="1" height="1" fill="#231f20"/>
    <rect x="25" y="60" width="2" height="1" fill="#231f20"/>
    <rect x="29" y="60" width="2" height="1" fill="#231f20"/>
    <rect x="42" y="60" width="1" height="1" fill="#231f20"/>
    <rect x="51" y="60" width="1" height="1" fill="#231f20"/>
    <rect x="71" y="60" width="1" height="1" fill="#231f20"/>
    <rect x="88" y="60" width="1" height="1" fill="#231f20"/>
    <rect x="96" y="60" width="1" height="1" fill="#231f20"/>
    <rect x="110" y="60" width="1" height="1" fill="#231f20"/>
    <rect x="120" y="60" width="1" height="1" fill="#231f20"/>
    <rect x="133" y="60" width="1" height="1" fill="#231f20"/>
    <rect x="143" y="60" width="1" height="1" fill="#231f20"/>
    <rect x="172" y="60" width="1" height="1" fill="#231f20"/>
    <rect x="0" y="61" width="1" height="1" fill="#231f20"/>
    <rect x="26" y="61" width="4" height="1" fill="#231f20"/>
    <rect x="42" y="61" width="1" height="1" fill="#231f20"/>
    <rect x="51" y="61" width="1" height="1" fill="#231f20"/>
    <rect x="70" y="61" width="1" height="1" fill="#231f20"/>
    <rect x="88" y="61" width="1" height="1" fill="#231f20"/>
    <rect x="96" y="61" width="1" height="1" fill="#231f20"/>
    <rect x="110" y="61" width="1" height="1" fill="#231f20"/>
    <rect x="120" y="61" width="1" height="1" fill="#231f20"/>
    <rect x="133" y="61" width="1" height="1" fill="#231f20"/>
    <rect x="143" y="61" width="1" height="1" fill="#231f20"/>
    <rect x="172" y="61" width="1" height="1" fill="#231f20"/>
    <rect x="0" y="62" width="1" height="1" fill="#231f20"/>
    <rect x="41" y="62" width="1" height="1" fill="#231f20"/>
    <rect x="52" y="62" width="1" height="1" fill="#231f20"/>
    <rect x="69" y="62" width="2" height="1" fill="#231f20"/>
    <rect x="88" y="62" width="1" height="1" fill="#231f20"/>
    <rect x="96" y="62" width="1" height="1" fill="#231f20"/>
    <rect x="109" y="62" width="1" height="1" fill="#231f20"/>
    <rect x="121" y="62" width="1" height="1" fill="#231f20"/>
    <rect x="132" y="62" width="13" height="1" fill="#231f20"/>
    <rect x="172" y="62" width="1" height="1" fill="#231f20"/>
    <rect x="0" y="63" width="1" height="1" fill="#231f20"/>
    <rect x="41" y="63" width="1" height="1" fill="#231f20"/>
    <rect x="52" y="63" width="1" height="1" fill="#231f20"/>
    <rect x="68" y="63" width="1" height="1" fill="#231f20"/>
    <rect x="88" y="63" width="9" height="1" fill="#231f20"/>
    <rect x="109" y="63" width="1" height="1" fill="#231f20"/>
    <rect x="121" y="63" width="1" height="1" fill="#231f20"/>
    <rect x="172" y="63" width="1" height="1" fill="#231f20"/>
    <rect x="0" y="64" width="1" height="1" fill="#231f20"/>
    <rect x="172" y="64" width="1" height="1" fill="#231f20"/>
    <rect x="0" y="65" width="1" height="1" fill="#231f20"/>
    <rect x="172" y="65" width="1" height="1" fill="#231f20"/>
    <rect x="0" y="66" width="1" height="1" fill="#231f20"/>
    <rect x="172" y="66" width="1" height="1" fill="#231f20"/>
    <rect x="0" y="67" width="1" height="1" fill="#231f20"/>
    <rect x="172" y="67" width="1" height="1" fill="#231f20"/>
    <rect x="0" y="68" width="173" height="1" fill="#231f20"/>
  </g>
</svg>