<?xml version="1.0" encoding="UTF-8"?>
<svg xmlns="http://www.w3.org/2000/svg" viewBox="0 0 172 70" width="172" height="70">
  <!-- Auto-converted from legend-2317.png -->
  <rect x="0" y="0" width="172" height="70" fill="none"/>
  <g fill="#231f20" stroke="none">
    <rect x="0" y="0" width="172" height="1" fill="#231f20"/>
    <rect x="0" y="1" width="1" height="1" fill="#231f20"/>
    <rect x="171" y="1" width="1" height="1" fill="#231f20"/>
    <rect x="0" y="2" width="1" height="1" fill="#231f20"/>
    <rect x="171" y="2" width="1" height="1" fill="#231f20"/>
    <rect x="0" y="3" width="1" height="1" fill="#231f20"/>
    <rect x="171" y="3" width="1" height="1" fill="#231f20"/>
    <rect x="0" y="4" width="1" height="1" fill="#231f20"/>
    <rect x="171" y="4" width="1" height="1" fill="#231f20"/>
    <rect x="0" y="5" width="1" height="1" fill="#231f20"/>
    <rect x="171" y="5" width="1" height="1" fill="#231f20"/>
    <rect x="0" y="6" width="1" height="1" fill="#231f20"/>
    <rect x="171" y="6" width="1" height="1" fill="#231f20"/>
    <rect x="0" y="7" width="1" height="1" fill="#231f20"/>
    <rect x="171" y="7" width="1" height="1" fill="#231f20"/>
    <rect x="0" y="8" width="1" height="1" fill="#231f20"/>
    <rect x="171" y="8" width="1" height="1" fill="#231f20"/>
    <rect x="0" y="9" width="1" height="1" fill="#231f20"/>
    <rect x="169" y="9" width="3" height="1" fill="#231f20"/>
    <rect x="0" y="10" width="1" height="1" fill="#231f20"/>
    <rect x="162" y="10" width="7" height="1" fill="#231f20"/>
    <rect x="171" y="10" width="1" height="1" fill="#231f20"/>
    <rect x="0" y="11" width="1" height="1" fill="#231f20"/>
    <rect x="157" y="11" width="5" height="1" fill="#231f20"/>
    <rect x="171" y="11" width="1" height="1" fill="#231f20"/>
    <rect x="0" y="12" width="1" height="1" fill="#231f20"/>
    <rect x="9" y="12" width="41" height="1" fill="#231f20"/>
    <rect x="151" y="12" width="6" height="1" fill="#231f20"/>
    <rect x="171" y="12" width="1" height="1" fill="#231f20"/>
    <rect x="0" y="13" width="1" height="1" fill="#231f20"/>
    <rect x="2" y="13" width="7" height="1" fill="#231f20"/>
    <rect x="50" y="13" width="7" height="1" fill="#231f20"/>
    <rect x="143" y="13" width="8" height="1" fill="#231f20"/>
    <rect x="171" y="13" width="1" height="1" fill="#231f20"/>
    <rect x="0" y="14" width="2" height="1" fill="#231f20"/>
    <rect x="57" y="14" width="6" height="1" fill="#231f20"/>
    <rect x="138" y="14" width="5" height="1" fill="#231f20"/>
    <rect x="171" y="14" width="1" height="1" fill="#231f20"/>
    <rect x="0" y="15" width="1" height="1" fill="#231f20"/>
    <rect x="63" y="15" width="8" height="1" fill="#231f20"/>
    <rect x="131" y="15" width="7" height="1" fill="#231f20"/>
    <rect x="162" y="15" width="10" height="1" fill="#231f20"/>
    <rect x="0" y="16" width="1" height="1" fill="#231f20"/>
    <rect x="71" y="16" width="14" height="1" fill="#231f20"/>
    <rect x="126" y="16" width="5" height="1" fill="#231f20"/>
    <rect x="157" y="16" width="5" height="1" fill="#231f20"/>
    <rect x="171" y="16" width="1" height="1" fill="#231f20"/>
    <rect x="0" y="17" width="1" height="1" fill="#231f20"/>
    <rect x="9" y="17" width="41" height="1" fill="#231f20"/>
    <rect x="85" y="17" width="23" height="1" fill="#231f20"/>
    <rect x="113" y="17" width="13" height="1" fill="#231f20"/>
    <rect x="151" y="17" width="6" height="1" fill="#231f20"/>
    <rect x="171" y="17" width="1" height="1" fill="#231f20"/>
    <rect x="0" y="18" width="1" height="1" fill="#231f20"/>
    <rect x="3" y="18" width="6" height="1" fill="#231f20"/>
    <rect x="50" y="18" width="7" height="1" fill="#231f20"/>
    <rect x="108" y="18" width="5" height="1" fill="#231f20"/>
    <rect x="148" y="18" width="3" height="1" fill="#231f20"/>
    <rect x="171" y="18" width="1" height="1" fill="#231f20"/>
    <rect x="0" y="19" width="3" height="1" fill="#231f20"/>
    <rect x="57" y="19" width="6" height="1" fill="#231f20"/>
    <rect x="138" y="19" width="10" height="1" fill="#231f20"/>
    <rect x="157" y="19" width="1" height="1" fill="#231f20"/>
    <rect x="171" y="19" width="1" height="1" fill="#231f20"/>
    <rect x="0" y="20" width="1" height="1" fill="#231f20"/>
    <rect x="63" y="20" width="8" height="1" fill="#231f20"/>
    <rect x="132" y="20" width="6" height="1" fill="#231f20"/>
    <rect x="156" y="20" width="3" height="1" fill="#231f20"/>
    <rect x="171" y="20" width="1" height="1" fill="#231f20"/>
    <rect x="0" y="21" width="1" height="1" fill="#231f20"/>
    <rect x="71" y="21" width="11" height="1" fill="#231f20"/>
    <rect x="126" y="21" width="6" height="1" fill="#231f20"/>
    <rect x="156" y="21" width="2" height="1" fill="#231f20"/>
    <rect x="171" y="21" width="1" height="1" fill="#231f20"/>
    <rect x="0" y="22" width="1" height="1" fill="#231f20"/>
    <rect x="82" y="22" width="24" height="1" fill="#231f20"/>
    <rect x="115" y="22" width="11" height="1" fill="#231f20"/>
    <rect x="171" y="22" width="1" height="1" fill="#231f20"/>
    <rect x="0" y="23" width="1" height="1" fill="#231f20"/>
    <rect x="106" y="23" width="9" height="1" fill="#231f20"/>
    <rect x="171" y="23" width="1" height="1" fill="#231f20"/>
    <rect x="0" y="24" width="1" height="1" fill="#231f20"/>
    <rect x="171" y="24" width="1" height="1" fill="#231f20"/>
    <rect x="0" y="25" width="1" height="1" fill="#231f20"/>
    <rect x="171" y="25" width="1" height="1" fill="#231f20"/>
    <rect x="0" y="26" width="1" height="1" fill="#231f20"/>
    <rect x="171" y="26" width="1" height="1" fill="#231f20"/>
    <rect x="0" y="27" width="1" height="1" fill="#231f20"/>
    <rect x="171" y="27" width="1" height="1" fill="#231f20"/>
    <rect x="0" y="28" width="1" height="1" fill="#231f20"/>
    <rect x="171" y="28" width="1" height="1" fill="#231f20"/>
    <rect x="0" y="29" width="1" height="1" fill="#231f20"/>
    <rect x="171" y="29" width="1" height="1" fill="#231f20"/>
    <rect x="0" y="30" width="1" height="1" fill="#231f20"/>
    <rect x="171" y="30" width="1" height="1" fill="#231f20"/>
    <rect x="0" y="31" width="1" height="1" fill="#231f20"/>
    <rect x="171" y="31" width="1" height="1" fill="#231f20"/>
    <rect x="0" y="32" width="1" height="1" fill="#231f20"/>
    <rect x="171" y="32" width="1" height="1" fill="#231f20"/>
    <rect x="0" y="33" width="1" height="1" fill="#231f20"/>
    <rect x="165" y="33" width="7" height="1" fill="#231f20"/>
    <rect x="0" y="34" width="1" height="1" fill="#231f20"/>
    <rect x="157" y="34" width="8" height="1" fill="#231f20"/>
    <rect x="171" y="34" width="1" height="1" fill="#231f20"/>
    <rect x="0" y="35" width="1" height="1" fill="#231f20"/>
    <rect x="9" y="35" width="39" height="1" fill="#231f20"/>
    <rect x="151" y="35" width="6" height="1" fill="#231f20"/>
    <rect x="171" y="35" width="1" height="1" fill="#231f20"/>
    <rect x="0" y="36" width="1" height="1" fill="#231f20"/>
    <rect x="2" y="36" width="7" height="1" fill="#231f20"/>
    <rect x="48" y="36" width="9" height="1" fill="#231f20"/>
    <rect x="147" y="36" width="4" height="1" fill="#231f20"/>
    <rect x="171" y="36" width="1" height="1" fill="#231f20"/>
    <rect x="0" y="37" width="2" height="1" fill="#231f20"/>
    <rect x="57" y="37" width="6" height="1" fill="#231f20"/>
    <rect x="141" y="37" width="6" height="1" fill="#231f20"/>
    <rect x="171" y="37" width="1" height="1" fill="#231f20"/>
    <rect x="0" y="38" width="1" height="1" fill="#231f20"/>
    <rect x="63" y="38" width="6" height="1" fill="#231f20"/>
    <rect x="131" y="38" width="10" height="1" fill="#231f20"/>
    <rect x="165" y="38" width="7" height="1" fill="#231f20"/>
    <rect x="0" y="39" width="1" height="1" fill="#231f20"/>
    <rect x="69" y="39" width="10" height="1" fill="#231f20"/>
    <rect x="126" y="39" width="5" height="1" fill="#231f20"/>
    <rect x="157" y="39" width="8" height="1" fill="#231f20"/>
    <rect x="171" y="39" width="1" height="1" fill="#231f20"/>
    <rect x="0" y="40" width="1" height="1" fill="#231f20"/>
    <rect x="11" y="40" width="37" height="1" fill="#231f20"/>
    <rect x="79" y="40" width="21" height="1" fill="#231f20"/>
    <rect x="117" y="40" width="9" height="1" fill="#231f20"/>
    <rect x="151" y="40" width="6" height="1" fill="#231f20"/>
    <rect x="171" y="40" width="1" height="1" fill="#231f20"/>
    <rect x="0" y="41" width="1" height="1" fill="#231f20"/>
    <rect x="2" y="41" width="9" height="1" fill="#231f20"/>
    <rect x="48" y="41" width="9" height="1" fill="#231f20"/>
    <rect x="100" y="41" width="17" height="1" fill="#231f20"/>
    <rect x="147" y="41" width="4" height="1" fill="#231f20"/>
    <rect x="171" y="41" width="1" height="1" fill="#231f20"/>
    <rect x="0" y="42" width="2" height="1" fill="#231f20"/>
    <rect x="57" y="42" width="4" height="1" fill="#231f20"/>
    <rect x="141" y="42" width="6" height="1" fill="#231f20"/>
    <rect x="171" y="42" width="1" height="1" fill="#231f20"/>
    <rect x="0" y="43" width="1" height="1" fill="#231f20"/>
    <rect x="18" y="43" width="3" height="1" fill="#231f20"/>
    <rect x="61" y="43" width="8" height="1" fill="#231f20"/>
    <rect x="131" y="43" width="10" height="1" fill="#231f20"/>
    <rect x="171" y="43" width="1" height="1" fill="#231f20"/>
    <rect x="0" y="44" width="1" height="1" fill="#231f20"/>
    <rect x="18" y="44" width="3" height="1" fill="#231f20"/>
    <rect x="69" y="44" width="10" height="1" fill="#231f20"/>
    <rect x="126" y="44" width="5" height="1" fill="#231f20"/>
    <rect x="171" y="44" width="1" height="1" fill="#231f20"/>
    <rect x="0" y="45" width="1" height="1" fill="#231f20"/>
    <rect x="79" y="45" width="21" height="1" fill="#231f20"/>
    <rect x="117" y="45" width="9" height="1" fill="#231f20"/>
    <rect x="171" y="45" width="1" height="1" fill="#231f20"/>
    <rect x="0" y="46" width="1" height="1" fill="#231f20"/>
    <rect x="100" y="46" width="17" height="1" fill="#231f20"/>
    <rect x="171" y="46" width="1" height="1" fill="#231f20"/>
    <rect x="0" y="47" width="1" height="1" fill="#231f20"/>
    <rect x="171" y="47" width="1" height="1" fill="#231f20"/>
    <rect x="0" y="48" width="1" height="1" fill="#231f20"/>
    <rect x="171" y="48" width="1" height="1" fill="#231f20"/>
    <rect x="0" y="49" width="1" height="1" fill="#231f20"/>
    <rect x="171" y="49" width="1" height="1" fill="#231f20"/>
    <rect x="0" y="50" width="1" height="1" fill="#231f20"/>
    <rect x="171" y="50" width="1" height="1" fill="#231f20"/>
    <rect x="0" y="51" width="1" height="1" fill="#231f20"/>
    <rect x="171" y="51" width="1" height="1" fill="#231f20"/>
    <rect x="0" y="52" width="1" height="1" fill="#231f20"/>
    <rect x="171" y="52" width="1" height="1" fill="#231f20"/>
    <rect x="0" y="53" width="1" height="1" fill="#231f20"/>
    <rect x="171" y="53" width="1" height="1" fill="#231f20"/>
    <rect x="0" y="54" width="1" height="1" fill="#231f20"/>
    <rect x="171" y="54" width="1" height="1" fill="#231f20"/>
    <rect x="0" y="55" width="1" height="1" fill="#231f20"/>
    <rect x="171" y="55" width="1" height="1" fill="#231f20"/>
    <rect x="0" y="56" width="1" height="1" fill="#231f20"/>
    <rect x="165" y="56" width="7" height="1" fill="#231f20"/>
    <rect x="0" y="57" width="1" height="1" fill="#231f20"/>
    <rect x="157" y="57" width="8" height="1" fill="#231f20"/>
    <rect x="171" y="57" width="1" height="1" fill="#231f20"/>
    <rect x="0" y="58" width="1" height="1" fill="#231f20"/>
    <rect x="12" y="58" width="35" height="1" fill="#231f20"/>
    <rect x="152" y="58" width="5" height="1" fill="#231f20"/>
    <rect x="171" y="58" width="1" height="1" fill="#231f20"/>
    <rect x="0" y="59" width="1" height="1" fill="#231f20"/>
    <rect x="3" y="59" width="9" height="1" fill="#231f20"/>
    <rect x="47" y="59" width="10" height="1" fill="#231f20"/>
    <rect x="148" y="59" width="4" height="1" fill="#231f20"/>
    <rect x="171" y="59" width="1" height="1" fill="#231f20"/>
    <rect x="0" y="60" width="3" height="1" fill="#231f20"/>
    <rect x="57" y="60" width="4" height="1" fill="#231f20"/>
    <rect x="141" y="60" width="7" height="1" fill="#231f20"/>
    <rect x="169" y="60" width="3" height="1" fill="#231f20"/>
    <rect x="0" y="61" width="1" height="1" fill="#231f20"/>
    <rect x="61" y="61" width="8" height="1" fill="#231f20"/>
    <rect x="132" y="61" width="9" height="1" fill="#231f20"/>
    <rect x="162" y="61" width="7" height="1" fill="#231f20"/>
    <rect x="171" y="61" width="1" height="1" fill="#231f20"/>
    <rect x="0" y="62" width="1" height="1" fill="#231f20"/>
    <rect x="69" y="62" width="11" height="1" fill="#231f20"/>
    <rect x="126" y="62" width="6" height="1" fill="#231f20"/>
    <rect x="154" y="62" width="8" height="1" fill="#231f20"/>
    <rect x="171" y="62" width="1" height="1" fill="#231f20"/>
    <rect x="0" y="63" width="1" height="1" fill="#231f20"/>
    <rect x="7" y="63" width="43" height="1" fill="#231f20"/>
    <rect x="80" y="63" width="20" height="1" fill="#231f20"/>
    <rect x="118" y="63" width="8" height="1" fill="#231f20"/>
    <rect x="148" y="63" width="6" height="1" fill="#231f20"/>
    <rect x="171" y="63" width="1" height="1" fill="#231f20"/>
    <rect x="0" y="64" width="1" height="1" fill="#231f20"/>
    <rect x="3" y="64" width="4" height="1" fill="#231f20"/>
    <rect x="50" y="64" width="7" height="1" fill="#231f20"/>
    <rect x="100" y="64" width="18" height="1" fill="#231f20"/>
    <rect x="144" y="64" width="4" height="1" fill="#231f20"/>
    <rect x="171" y="64" width="1" height="1" fill="#231f20"/>
    <rect x="0" y="65" width="3" height="1" fill="#231f20"/>
    <rect x="57" y="65" width="6" height="1" fill="#231f20"/>
    <rect x="138" y="65" width="6" height="1" fill="#231f20"/>
    <rect x="156" y="65" width="2" height="1" fill="#231f20"/>
    <rect x="171" y="65" width="1" height="1" fill="#231f20"/>
    <rect x="0" y="66" width="1" height="1" fill="#231f20"/>
    <rect x="63" y="66" width="8" height="1" fill="#231f20"/>
    <rect x="132" y="66" width="6" height="1" fill="#231f20"/>
    <rect x="156" y="66" width="3" height="1" fill="#231f20"/>
    <rect x="171" y="66" width="1" height="1" fill="#231f20"/>
    <rect x="0" y="67" width="1" height="1" fill="#231f20"/>
    <rect x="71" y="67" width="14" height="1" fill="#231f20"/>
    <rect x="122" y="67" width="10" height="1" fill="#231f20"/>
    <rect x="156" y="67" width="2" height="1" fill="#231f20"/>
    <rect x="171" y="67" width="1" height="1" fill="#231f20"/>
    <rect x="0" y="68" width="1" height="1" fill="#231f20"/>
    <rect x="85" y="68" width="37" height="1" fill="#231f20"/>
    <rect x="171" y="68" width="1" height="1" fill="#231f20"/>
    <rect x="0" y="69" width="172" height="1" fill="#231f20"/>
  </g>
</svg>