<?xml version="1.0" encoding="UTF-8"?>
<svg xmlns="http://www.w3.org/2000/svg" viewBox="0 0 402 212" width="402" height="212">
  <!-- Auto-converted from legend-205.png -->
  <rect x="0" y="0" width="402" height="212" fill="none"/>
  <g fill="#a9b66c" stroke="none">
    <rect x="1" y="0" width="401" height="1" fill="#a9b66c"/>
    <rect x="0" y="1" width="402" height="1" fill="#a9b66c"/>
    <rect x="0" y="2" width="402" height="1" fill="#a9b66c"/>
    <rect x="0" y="3" width="402" height="1" fill="#a9b66c"/>
    <rect x="0" y="4" width="402" height="1" fill="#a9b66c"/>
    <rect x="0" y="5" width="402" height="1" fill="#a9b66c"/>
    <rect x="0" y="6" width="402" height="1" fill="#a9b66c"/>
    <rect x="0" y="7" width="5" height="1" fill="#a9b66c"/>
    <rect x="6" y="7" width="396" height="1" fill="#a9b66c"/>
    <rect x="0" y="8" width="5" height="1" fill="#a9b66c"/>
    <rect x="6" y="8" width="396" height="1" fill="#a9b66c"/>
    <rect x="0" y="9" width="5" height="1" fill="#a9b66c"/>
    <rect x="6" y="9" width="396" height="1" fill="#a9b66c"/>
    <rect x="0" y="10" width="5" height="1" fill="#a9b66c"/>
    <rect x="6" y="10" width="396" height="1" fill="#a9b66c"/>
    <rect x="0" y="11" width="5" height="1" fill="#a9b66c"/>
    <rect x="6" y="11" width="396" height="1" fill="#a9b66c"/>
    <rect x="0" y="12" width="5" height="1" fill="#a9b66c"/>
    <rect x="6" y="12" width="396" height="1" fill="#a9b66c"/>
    <rect x="0" y="13" width="5" height="1" fill="#a9b66c"/>
    <rect x="6" y="13" width="396" height="1" fill="#a9b66c"/>
    <rect x="0" y="14" width="5" height="1" fill="#a9b66c"/>
    <rect x="6" y="14" width="396" height="1" fill="#a9b66c"/>
    <rect x="0" y="15" width="5" height="1" fill="#a9b66c"/>
    <rect x="6" y="15" width="396" height="1" fill="#a9b66c"/>
    <rect x="0" y="16" width="5" height="1" fill="#a9b66c"/>
    <rect x="6" y="16" width="396" height="1" fill="#a9b66c"/>
    <rect x="0" y="17" width="5" height="1" fill="#a9b66c"/>
    <rect x="6" y="17" width="396" height="1" fill="#a9b66c"/>
    <rect x="0" y="18" width="5" height="1" fill="#a9b66c"/>
    <rect x="6" y="18" width="396" height="1" fill="#a9b66c"/>
    <rect x="0" y="19" width="5" height="1" fill="#a9b66c"/>
    <rect x="6" y="19" width="396" height="1" fill="#a9b66c"/>
    <rect x="0" y="20" width="5" height="1" fill="#a9b66c"/>
    <rect x="6" y="20" width="396" height="1" fill="#a9b66c"/>
    <rect x="0" y="21" width="5" height="1" fill="#a9b66c"/>
    <rect x="6" y="21" width="396" height="1" fill="#a9b66c"/>
    <rect x="0" y="22" width="5" height="1" fill="#a9b66c"/>
    <rect x="6" y="22" width="396" height="1" fill="#a9b66c"/>
    <rect x="0" y="23" width="5" height="1" fill="#a9b66c"/>
    <rect x="6" y="23" width="396" height="1" fill="#a9b66c"/>
    <rect x="0" y="24" width="5" height="1" fill="#a9b66c"/>
    <rect x="6" y="24" width="396" height="1" fill="#a9b66c"/>
    <rect x="0" y="25" width="5" height="1" fill="#a9b66c"/>
    <rect x="6" y="25" width="396" height="1" fill="#a9b66c"/>
    <rect x="0" y="26" width="5" height="1" fill="#a9b66c"/>
    <rect x="6" y="26" width="396" height="1" fill="#a9b66c"/>
    <rect x="0" y="27" width="5" height="1" fill="#a9b66c"/>
    <rect x="6" y="27" width="396" height="1" fill="#a9b66c"/>
    <rect x="0" y="28" width="5" height="1" fill="#a9b66c"/>
    <rect x="6" y="28" width="396" height="1" fill="#a9b66c"/>
    <rect x="0" y="29" width="5" height="1" fill="#a9b66c"/>
    <rect x="6" y="29" width="396" height="1" fill="#a9b66c"/>
    <rect x="0" y="30" width="5" height="1" fill="#a9b66c"/>
    <rect x="6" y="30" width="396" height="1" fill="#a9b66c"/>
    <rect x="0" y="31" width="5" height="1" fill="#a9b66c"/>
    <rect x="6" y="31" width="396" height="1" fill="#a9b66c"/>
    <rect x="0" y="32" width="5" height="1" fill="#a9b66c"/>
    <rect x="6" y="32" width="396" height="1" fill="#a9b66c"/>
    <rect x="0" y="33" width="5" height="1" fill="#a9b66c"/>
    <rect x="6" y="33" width="396" height="1" fill="#a9b66c"/>
    <rect x="0" y="34" width="5" height="1" fill="#a9b66c"/>
    <rect x="6" y="34" width="396" height="1" fill="#a9b66c"/>
    <rect x="0" y="35" width="5" height="1" fill="#a9b66c"/>
    <rect x="6" y="35" width="396" height="1" fill="#a9b66c"/>
    <rect x="0" y="36" width="5" height="1" fill="#a9b66c"/>
    <rect x="6" y="36" width="396" height="1" fill="#a9b66c"/>
    <rect x="0" y="37" width="5" height="1" fill="#a9b66c"/>
    <rect x="6" y="37" width="396" height="1" fill="#a9b66c"/>
    <rect x="0" y="38" width="5" height="1" fill="#a9b66c"/>
    <rect x="6" y="38" width="396" height="1" fill="#a9b66c"/>
    <rect x="0" y="39" width="5" height="1" fill="#a9b66c"/>
    <rect x="6" y="39" width="396" height="1" fill="#a9b66c"/>
    <rect x="0" y="40" width="5" height="1" fill="#a9b66c"/>
    <rect x="6" y="40" width="396" height="1" fill="#a9b66c"/>
    <rect x="0" y="41" width="5" height="1" fill="#a9b66c"/>
    <rect x="6" y="41" width="396" height="1" fill="#a9b66c"/>
    <rect x="0" y="42" width="5" height="1" fill="#a9b66c"/>
    <rect x="6" y="42" width="396" height="1" fill="#a9b66c"/>
    <rect x="0" y="43" width="5" height="1" fill="#a9b66c"/>
    <rect x="6" y="43" width="396" height="1" fill="#a9b66c"/>
    <rect x="0" y="44" width="5" height="1" fill="#a9b66c"/>
    <rect x="6" y="44" width="396" height="1" fill="#a9b66c"/>
    <rect x="0" y="45" width="5" height="1" fill="#a9b66c"/>
    <rect x="6" y="45" width="396" height="1" fill="#a9b66c"/>
    <rect x="0" y="46" width="5" height="1" fill="#a9b66c"/>
    <rect x="6" y="46" width="396" height="1" fill="#a9b66c"/>
    <rect x="0" y="47" width="5" height="1" fill="#a9b66c"/>
    <rect x="6" y="47" width="396" height="1" fill="#a9b66c"/>
    <rect x="0" y="48" width="5" height="1" fill="#a9b66c"/>
    <rect x="6" y="48" width="396" height="1" fill="#a9b66c"/>
    <rect x="0" y="49" width="5" height="1" fill="#a9b66c"/>
    <rect x="6" y="49" width="396" height="1" fill="#a9b66c"/>
    <rect x="0" y="50" width="5" height="1" fill="#a9b66c"/>
    <rect x="6" y="50" width="396" height="1" fill="#a9b66c"/>
    <rect x="0" y="51" width="5" height="1" fill="#a9b66c"/>
    <rect x="6" y="51" width="396" height="1" fill="#a9b66c"/>
    <rect x="0" y="52" width="5" height="1" fill="#a9b66c"/>
    <rect x="6" y="52" width="396" height="1" fill="#a9b66c"/>
    <rect x="0" y="53" width="5" height="1" fill="#a9b66c"/>
    <rect x="6" y="53" width="396" height="1" fill="#a9b66c"/>
    <rect x="0" y="54" width="5" height="1" fill="#a9b66c"/>
    <rect x="6" y="54" width="396" height="1" fill="#a9b66c"/>
    <rect x="0" y="55" width="5" height="1" fill="#a9b66c"/>
    <rect x="6" y="55" width="396" height="1" fill="#a9b66c"/>
    <rect x="0" y="56" width="5" height="1" fill="#a9b66c"/>
    <rect x="6" y="56" width="396" height="1" fill="#a9b66c"/>
    <rect x="0" y="57" width="5" height="1" fill="#a9b66c"/>
    <rect x="6" y="57" width="396" height="1" fill="#a9b66c"/>
    <rect x="0" y="58" width="5" height="1" fill="#a9b66c"/>
    <rect x="6" y="58" width="396" height="1" fill="#a9b66c"/>
    <rect x="0" y="59" width="5" height="1" fill="#a9b66c"/>
    <rect x="6" y="59" width="396" height="1" fill="#a9b66c"/>
    <rect x="0" y="60" width="5" height="1" fill="#a9b66c"/>
    <rect x="6" y="60" width="396" height="1" fill="#a9b66c"/>
    <rect x="0" y="61" width="5" height="1" fill="#a9b66c"/>
    <rect x="6" y="61" width="396" height="1" fill="#a9b66c"/>
    <rect x="0" y="62" width="5" height="1" fill="#a9b66c"/>
    <rect x="6" y="62" width="396" height="1" fill="#a9b66c"/>
    <rect x="0" y="63" width="5" height="1" fill="#a9b66c"/>
    <rect x="6" y="63" width="396" height="1" fill="#a9b66c"/>
    <rect x="0" y="64" width="5" height="1" fill="#a9b66c"/>
    <rect x="6" y="64" width="396" height="1" fill="#a9b66c"/>
    <rect x="0" y="65" width="5" height="1" fill="#a9b66c"/>
    <rect x="6" y="65" width="396" height="1" fill="#a9b66c"/>
    <rect x="0" y="66" width="5" height="1" fill="#a9b66c"/>
    <rect x="6" y="66" width="396" height="1" fill="#a9b66c"/>
    <rect x="0" y="67" width="5" height="1" fill="#a9b66c"/>
    <rect x="6" y="67" width="396" height="1" fill="#a9b66c"/>
    <rect x="0" y="68" width="5" height="1" fill="#a9b66c"/>
    <rect x="6" y="68" width="396" height="1" fill="#a9b66c"/>
    <rect x="0" y="69" width="5" height="1" fill="#a9b66c"/>
    <rect x="6" y="69" width="396" height="1" fill="#a9b66c"/>
    <rect x="0" y="70" width="5" height="1" fill="#a9b66c"/>
    <rect x="6" y="70" width="396" height="1" fill="#a9b66c"/>
    <rect x="0" y="71" width="5" height="1" fill="#a9b66c"/>
    <rect x="6" y="71" width="396" height="1" fill="#a9b66c"/>
    <rect x="0" y="72" width="5" height="1" fill="#a9b66c"/>
    <rect x="6" y="72" width="396" height="1" fill="#a9b66c"/>
    <rect x="0" y="73" width="5" height="1" fill="#a9b66c"/>
    <rect x="6" y="73" width="396" height="1" fill="#a9b66c"/>
    <rect x="0" y="74" width="5" height="1" fill="#a9b66c"/>
    <rect x="6" y="74" width="396" height="1" fill="#a9b66c"/>
    <rect x="0" y="75" width="5" height="1" fill="#a9b66c"/>
    <rect x="6" y="75" width="396" height="1" fill="#a9b66c"/>
    <rect x="0" y="76" width="5" height="1" fill="#a9b66c"/>
    <rect x="6" y="76" width="396" height="1" fill="#a9b66c"/>
    <rect x="0" y="77" width="5" height="1" fill="#a9b66c"/>
    <rect x="6" y="77" width="396" height="1" fill="#a9b66c"/>
    <rect x="0" y="78" width="5" height="1" fill="#a9b66c"/>
    <rect x="6" y="78" width="396" height="1" fill="#a9b66c"/>
    <rect x="0" y="79" width="5" height="1" fill="#a9b66c"/>
    <rect x="6" y="79" width="396" height="1" fill="#a9b66c"/>
    <rect x="0" y="80" width="5" height="1" fill="#a9b66c"/>
    <rect x="6" y="80" width="396" height="1" fill="#a9b66c"/>
    <rect x="0" y="81" width="5" height="1" fill="#a9b66c"/>
    <rect x="6" y="81" width="396" height="1" fill="#a9b66c"/>
    <rect x="0" y="82" width="5" height="1" fill="#a9b66c"/>
    <rect x="6" y="82" width="396" height="1" fill="#a9b66c"/>
    <rect x="0" y="83" width="5" height="1" fill="#a9b66c"/>
    <rect x="6" y="83" width="396" height="1" fill="#a9b66c"/>
    <rect x="0" y="84" width="5" height="1" fill="#a9b66c"/>
    <rect x="6" y="84" width="396" height="1" fill="#a9b66c"/>
    <rect x="0" y="85" width="5" height="1" fill="#a9b66c"/>
    <rect x="6" y="85" width="396" height="1" fill="#a9b66c"/>
    <rect x="0" y="86" width="5" height="1" fill="#a9b66c"/>
    <rect x="6" y="86" width="396" height="1" fill="#a9b66c"/>
    <rect x="0" y="87" width="5" height="1" fill="#a9b66c"/>
    <rect x="6" y="87" width="396" height="1" fill="#a9b66c"/>
    <rect x="0" y="88" width="5" height="1" fill="#a9b66c"/>
    <rect x="6" y="88" width="396" height="1" fill="#a9b66c"/>
    <rect x="0" y="89" width="5" height="1" fill="#a9b66c"/>
    <rect x="6" y="89" width="396" height="1" fill="#a9b66c"/>
    <rect x="0" y="90" width="5" height="1" fill="#a9b66c"/>
    <rect x="6" y="90" width="396" height="1" fill="#a9b66c"/>
    <rect x="0" y="91" width="5" height="1" fill="#a9b66c"/>
    <rect x="6" y="91" width="396" height="1" fill="#a9b66c"/>
    <rect x="0" y="92" width="5" height="1" fill="#a9b66c"/>
    <rect x="6" y="92" width="396" height="1" fill="#a9b66c"/>
    <rect x="0" y="93" width="5" height="1" fill="#a9b66c"/>
    <rect x="6" y="93" width="396" height="1" fill="#a9b66c"/>
    <rect x="0" y="94" width="5" height="1" fill="#a9b66c"/>
    <rect x="6" y="94" width="396" height="1" fill="#a9b66c"/>
    <rect x="0" y="95" width="5" height="1" fill="#a9b66c"/>
    <rect x="6" y="95" width="396" height="1" fill="#a9b66c"/>
    <rect x="0" y="96" width="5" height="1" fill="#a9b66c"/>
    <rect x="6" y="96" width="396" height="1" fill="#a9b66c"/>
    <rect x="0" y="97" width="5" height="1" fill="#a9b66c"/>
    <rect x="6" y="97" width="396" height="1" fill="#a9b66c"/>
    <rect x="0" y="98" width="5" height="1" fill="#a9b66c"/>
    <rect x="6" y="98" width="396" height="1" fill="#a9b66c"/>
    <rect x="0" y="99" width="5" height="1" fill="#a9b66c"/>
    <rect x="6" y="99" width="396" height="1" fill="#a9b66c"/>
    <rect x="0" y="100" width="5" height="1" fill="#a9b66c"/>
    <rect x="6" y="100" width="396" height="1" fill="#a9b66c"/>
    <rect x="0" y="101" width="5" height="1" fill="#a9b66c"/>
    <rect x="6" y="101" width="396" height="1" fill="#a9b66c"/>
    <rect x="0" y="102" width="5" height="1" fill="#a9b66c"/>
    <rect x="6" y="102" width="396" height="1" fill="#a9b66c"/>
    <rect x="0" y="103" width="5" height="1" fill="#a9b66c"/>
    <rect x="6" y="103" width="396" height="1" fill="#a9b66c"/>
    <rect x="0" y="104" width="5" height="1" fill="#a9b66c"/>
    <rect x="6" y="104" width="396" height="1" fill="#a9b66c"/>
    <rect x="0" y="105" width="5" height="1" fill="#a9b66c"/>
    <rect x="6" y="105" width="396" height="1" fill="#a9b66c"/>
    <rect x="0" y="106" width="5" height="1" fill="#a9b66c"/>
    <rect x="6" y="106" width="396" height="1" fill="#a9b66c"/>
    <rect x="0" y="107" width="5" height="1" fill="#a9b66c"/>
    <rect x="6" y="107" width="396" height="1" fill="#a9b66c"/>
    <rect x="0" y="108" width="5" height="1" fill="#a9b66c"/>
    <rect x="6" y="108" width="396" height="1" fill="#a9b66c"/>
    <rect x="0" y="109" width="5" height="1" fill="#a9b66c"/>
    <rect x="6" y="109" width="396" height="1" fill="#a9b66c"/>
    <rect x="0" y="110" width="5" height="1" fill="#a9b66c"/>
    <rect x="6" y="110" width="396" height="1" fill="#a9b66c"/>
    <rect x="0" y="111" width="5" height="1" fill="#a9b66c"/>
    <rect x="6" y="111" width="396" height="1" fill="#a9b66c"/>
    <rect x="0" y="112" width="5" height="1" fill="#a9b66c"/>
    <rect x="6" y="112" width="396" height="1" fill="#a9b66c"/>
    <rect x="0" y="113" width="5" height="1" fill="#a9b66c"/>
    <rect x="6" y="113" width="396" height="1" fill="#a9b66c"/>
    <rect x="0" y="114" width="5" height="1" fill="#a9b66c"/>
    <rect x="6" y="114" width="396" height="1" fill="#a9b66c"/>
    <rect x="0" y="115" width="5" height="1" fill="#a9b66c"/>
    <rect x="6" y="115" width="396" height="1" fill="#a9b66c"/>
    <rect x="0" y="116" width="5" height="1" fill="#a9b66c"/>
    <rect x="6" y="116" width="396" height="1" fill="#a9b66c"/>
    <rect x="0" y="117" width="5" height="1" fill="#a9b66c"/>
    <rect x="6" y="117" width="396" height="1" fill="#a9b66c"/>
    <rect x="0" y="118" width="5" height="1" fill="#a9b66c"/>
    <rect x="6" y="118" width="396" height="1" fill="#a9b66c"/>
    <rect x="0" y="119" width="5" height="1" fill="#a9b66c"/>
    <rect x="6" y="119" width="396" height="1" fill="#a9b66c"/>
    <rect x="0" y="120" width="5" height="1" fill="#a9b66c"/>
    <rect x="6" y="120" width="396" height="1" fill="#a9b66c"/>
    <rect x="0" y="121" width="5" height="1" fill="#a9b66c"/>
    <rect x="6" y="121" width="396" height="1" fill="#a9b66c"/>
    <rect x="0" y="122" width="5" height="1" fill="#a9b66c"/>
    <rect x="6" y="122" width="396" height="1" fill="#a9b66c"/>
    <rect x="0" y="123" width="5" height="1" fill="#a9b66c"/>
    <rect x="6" y="123" width="396" height="1" fill="#a9b66c"/>
    <rect x="0" y="124" width="5" height="1" fill="#a9b66c"/>
    <rect x="6" y="124" width="396" height="1" fill="#a9b66c"/>
    <rect x="0" y="125" width="5" height="1" fill="#a9b66c"/>
    <rect x="6" y="125" width="396" height="1" fill="#a9b66c"/>
    <rect x="0" y="126" width="5" height="1" fill="#a9b66c"/>
    <rect x="6" y="126" width="396" height="1" fill="#a9b66c"/>
    <rect x="0" y="127" width="5" height="1" fill="#a9b66c"/>
    <rect x="6" y="127" width="396" height="1" fill="#a9b66c"/>
    <rect x="0" y="128" width="5" height="1" fill="#a9b66c"/>
    <rect x="6" y="128" width="396" height="1" fill="#a9b66c"/>
    <rect x="0" y="129" width="5" height="1" fill="#a9b66c"/>
    <rect x="6" y="129" width="396" height="1" fill="#a9b66c"/>
    <rect x="0" y="130" width="5" height="1" fill="#a9b66c"/>
    <rect x="6" y="130" width="396" height="1" fill="#a9b66c"/>
    <rect x="0" y="131" width="5" height="1" fill="#a9b66c"/>
    <rect x="6" y="131" width="396" height="1" fill="#a9b66c"/>
    <rect x="0" y="132" width="5" height="1" fill="#a9b66c"/>
    <rect x="6" y="132" width="396" height="1" fill="#a9b66c"/>
    <rect x="0" y="133" width="5" height="1" fill="#a9b66c"/>
    <rect x="6" y="133" width="396" height="1" fill="#a9b66c"/>
    <rect x="0" y="134" width="5" height="1" fill="#a9b66c"/>
    <rect x="6" y="134" width="396" height="1" fill="#a9b66c"/>
    <rect x="0" y="135" width="5" height="1" fill="#a9b66c"/>
    <rect x="6" y="135" width="396" height="1" fill="#a9b66c"/>
    <rect x="0" y="136" width="5" height="1" fill="#a9b66c"/>
    <rect x="6" y="136" width="396" height="1" fill="#a9b66c"/>
    <rect x="0" y="137" width="5" height="1" fill="#a9b66c"/>
    <rect x="6" y="137" width="396" height="1" fill="#a9b66c"/>
    <rect x="0" y="138" width="5" height="1" fill="#a9b66c"/>
    <rect x="6" y="138" width="396" height="1" fill="#a9b66c"/>
    <rect x="0" y="139" width="5" height="1" fill="#a9b66c"/>
    <rect x="6" y="139" width="396" height="1" fill="#a9b66c"/>
    <rect x="0" y="140" width="5" height="1" fill="#a9b66c"/>
    <rect x="6" y="140" width="396" height="1" fill="#a9b66c"/>
    <rect x="0" y="141" width="5" height="1" fill="#a9b66c"/>
    <rect x="6" y="141" width="396" height="1" fill="#a9b66c"/>
    <rect x="0" y="142" width="5" height="1" fill="#a9b66c"/>
    <rect x="6" y="142" width="396" height="1" fill="#a9b66c"/>
    <rect x="0" y="143" width="5" height="1" fill="#a9b66c"/>
    <rect x="6" y="143" width="396" height="1" fill="#a9b66c"/>
    <rect x="0" y="144" width="5" height="1" fill="#a9b66c"/>
    <rect x="6" y="144" width="396" height="1" fill="#a9b66c"/>
    <rect x="0" y="145" width="5" height="1" fill="#a9b66c"/>
    <rect x="6" y="145" width="396" height="1" fill="#a9b66c"/>
    <rect x="0" y="146" width="5" height="1" fill="#a9b66c"/>
    <rect x="6" y="146" width="396" height="1" fill="#a9b66c"/>
    <rect x="0" y="147" width="5" height="1" fill="#a9b66c"/>
    <rect x="6" y="147" width="396" height="1" fill="#a9b66c"/>
    <rect x="0" y="148" width="5" height="1" fill="#a9b66c"/>
    <rect x="6" y="148" width="396" height="1" fill="#a9b66c"/>
    <rect x="0" y="149" width="5" height="1" fill="#a9b66c"/>
    <rect x="6" y="149" width="396" height="1" fill="#a9b66c"/>
    <rect x="0" y="150" width="5" height="1" fill="#a9b66c"/>
    <rect x="6" y="150" width="396" height="1" fill="#a9b66c"/>
    <rect x="0" y="151" width="5" height="1" fill="#a9b66c"/>
    <rect x="6" y="151" width="396" height="1" fill="#a9b66c"/>
    <rect x="0" y="152" width="5" height="1" fill="#a9b66c"/>
    <rect x="6" y="152" width="396" height="1" fill="#a9b66c"/>
    <rect x="0" y="153" width="5" height="1" fill="#a9b66c"/>
    <rect x="6" y="153" width="396" height="1" fill="#a9b66c"/>
    <rect x="0" y="154" width="5" height="1" fill="#a9b66c"/>
    <rect x="6" y="154" width="396" height="1" fill="#a9b66c"/>
    <rect x="0" y="155" width="5" height="1" fill="#a9b66c"/>
    <rect x="6" y="155" width="396" height="1" fill="#a9b66c"/>
    <rect x="0" y="156" width="5" height="1" fill="#a9b66c"/>
    <rect x="6" y="156" width="396" height="1" fill="#a9b66c"/>
    <rect x="0" y="157" width="5" height="1" fill="#a9b66c"/>
    <rect x="6" y="157" width="396" height="1" fill="#a9b66c"/>
    <rect x="0" y="158" width="5" height="1" fill="#a9b66c"/>
    <rect x="6" y="158" width="396" height="1" fill="#a9b66c"/>
    <rect x="0" y="159" width="5" height="1" fill="#a9b66c"/>
    <rect x="6" y="159" width="396" height="1" fill="#a9b66c"/>
    <rect x="0" y="160" width="5" height="1" fill="#a9b66c"/>
    <rect x="6" y="160" width="396" height="1" fill="#a9b66c"/>
    <rect x="0" y="161" width="5" height="1" fill="#a9b66c"/>
    <rect x="6" y="161" width="396" height="1" fill="#a9b66c"/>
    <rect x="0" y="162" width="5" height="1" fill="#a9b66c"/>
    <rect x="6" y="162" width="396" height="1" fill="#a9b66c"/>
    <rect x="0" y="163" width="5" height="1" fill="#a9b66c"/>
    <rect x="6" y="163" width="396" height="1" fill="#a9b66c"/>
    <rect x="0" y="164" width="5" height="1" fill="#a9b66c"/>
    <rect x="6" y="164" width="396" height="1" fill="#a9b66c"/>
    <rect x="0" y="165" width="5" height="1" fill="#a9b66c"/>
    <rect x="6" y="165" width="396" height="1" fill="#a9b66c"/>
    <rect x="0" y="166" width="5" height="1" fill="#a9b66c"/>
    <rect x="6" y="166" width="396" height="1" fill="#a9b66c"/>
    <rect x="0" y="167" width="5" height="1" fill="#a9b66c"/>
    <rect x="6" y="167" width="396" height="1" fill="#a9b66c"/>
    <rect x="0" y="168" width="5" height="1" fill="#a9b66c"/>
    <rect x="6" y="168" width="396" height="1" fill="#a9b66c"/>
    <rect x="0" y="169" width="5" height="1" fill="#a9b66c"/>
    <rect x="6" y="169" width="396" height="1" fill="#a9b66c"/>
    <rect x="0" y="170" width="5" height="1" fill="#a9b66c"/>
    <rect x="6" y="170" width="396" height="1" fill="#a9b66c"/>
    <rect x="0" y="171" width="5" height="1" fill="#a9b66c"/>
    <rect x="6" y="171" width="396" height="1" fill="#a9b66c"/>
    <rect x="0" y="172" width="5" height="1" fill="#a9b66c"/>
    <rect x="6" y="172" width="396" height="1" fill="#a9b66c"/>
    <rect x="0" y="173" width="5" height="1" fill="#a9b66c"/>
    <rect x="6" y="173" width="396" height="1" fill="#a9b66c"/>
    <rect x="0" y="174" width="5" height="1" fill="#a9b66c"/>
    <rect x="6" y="174" width="396" height="1" fill="#a9b66c"/>
    <rect x="0" y="175" width="5" height="1" fill="#a9b66c"/>
    <rect x="6" y="175" width="396" height="1" fill="#a9b66c"/>
    <rect x="0" y="176" width="5" height="1" fill="#a9b66c"/>
    <rect x="6" y="176" width="396" height="1" fill="#a9b66c"/>
    <rect x="0" y="177" width="5" height="1" fill="#a9b66c"/>
    <rect x="6" y="177" width="396" height="1" fill="#a9b66c"/>
    <rect x="0" y="178" width="5" height="1" fill="#a9b66c"/>
    <rect x="6" y="178" width="396" height="1" fill="#a9b66c"/>
    <rect x="0" y="179" width="5" height="1" fill="#a9b66c"/>
    <rect x="6" y="179" width="396" height="1" fill="#a9b66c"/>
    <rect x="0" y="180" width="5" height="1" fill="#a9b66c"/>
    <rect x="6" y="180" width="396" height="1" fill="#a9b66c"/>
    <rect x="0" y="181" width="5" height="1" fill="#a9b66c"/>
    <rect x="6" y="181" width="396" height="1" fill="#a9b66c"/>
    <rect x="0" y="182" width="5" height="1" fill="#a9b66c"/>
    <rect x="6" y="182" width="396" height="1" fill="#a9b66c"/>
    <rect x="0" y="183" width="5" height="1" fill="#a9b66c"/>
    <rect x="6" y="183" width="396" height="1" fill="#a9b66c"/>
    <rect x="0" y="184" width="5" height="1" fill="#a9b66c"/>
    <rect x="6" y="184" width="396" height="1" fill="#a9b66c"/>
    <rect x="0" y="185" width="5" height="1" fill="#a9b66c"/>
    <rect x="6" y="185" width="396" height="1" fill="#a9b66c"/>
    <rect x="0" y="186" width="5" height="1" fill="#a9b66c"/>
    <rect x="6" y="186" width="396" height="1" fill="#a9b66c"/>
    <rect x="0" y="187" width="5" height="1" fill="#a9b66c"/>
    <rect x="6" y="187" width="396" height="1" fill="#a9b66c"/>
    <rect x="0" y="188" width="5" height="1" fill="#a9b66c"/>
    <rect x="6" y="188" width="396" height="1" fill="#a9b66c"/>
    <rect x="0" y="189" width="5" height="1" fill="#a9b66c"/>
    <rect x="6" y="189" width="396" height="1" fill="#a9b66c"/>
    <rect x="0" y="190" width="5" height="1" fill="#a9b66c"/>
    <rect x="6" y="190" width="396" height="1" fill="#a9b66c"/>
    <rect x="0" y="191" width="5" height="1" fill="#a9b66c"/>
    <rect x="6" y="191" width="396" height="1" fill="#a9b66c"/>
    <rect x="0" y="192" width="5" height="1" fill="#a9b66c"/>
    <rect x="6" y="192" width="396" height="1" fill="#a9b66c"/>
    <rect x="0" y="193" width="5" height="1" fill="#a9b66c"/>
    <rect x="6" y="193" width="396" height="1" fill="#a9b66c"/>
    <rect x="0" y="194" width="5" height="1" fill="#a9b66c"/>
    <rect x="6" y="194" width="396" height="1" fill="#a9b66c"/>
    <rect x="0" y="195" width="5" height="1" fill="#a9b66c"/>
    <rect x="6" y="195" width="396" height="1" fill="#a9b66c"/>
    <rect x="0" y="196" width="5" height="1" fill="#a9b66c"/>
    <rect x="6" y="196" width="396" height="1" fill="#a9b66c"/>
    <rect x="0" y="197" width="5" height="1" fill="#a9b66c"/>
    <rect x="6" y="197" width="396" height="1" fill="#a9b66c"/>
    <rect x="0" y="198" width="5" height="1" fill="#a9b66c"/>
    <rect x="6" y="198" width="396" height="1" fill="#a9b66c"/>
    <rect x="0" y="199" width="5" height="1" fill="#a9b66c"/>
    <rect x="6" y="199" width="396" height="1" fill="#a9b66c"/>
    <rect x="0" y="200" width="5" height="1" fill="#a9b66c"/>
    <rect x="6" y="200" width="396" height="1" fill="#a9b66c"/>
    <rect x="0" y="201" width="5" height="1" fill="#a9b66c"/>
    <rect x="6" y="201" width="396" height="1" fill="#a9b66c"/>
    <rect x="0" y="202" width="5" height="1" fill="#a9b66c"/>
    <rect x="6" y="202" width="396" height="1" fill="#a9b66c"/>
    <rect x="0" y="203" width="5" height="1" fill="#a9b66c"/>
    <rect x="6" y="203" width="396" height="1" fill="#a9b66c"/>
    <rect x="0" y="204" width="5" height="1" fill="#a9b66c"/>
    <rect x="6" y="204" width="396" height="1" fill="#a9b66c"/>
    <rect x="0" y="205" width="5" height="1" fill="#a9b66c"/>
    <rect x="200" y="205" width="202" height="1" fill="#a9b66c"/>
    <rect x="0" y="206" width="402" height="1" fill="#a9b66c"/>
    <rect x="0" y="207" width="402" height="1" fill="#a9b66c"/>
    <rect x="0" y="208" width="402" height="1" fill="#a9b66c"/>
    <rect x="0" y="209" width="402" height="1" fill="#a9b66c"/>
    <rect x="0" y="210" width="402" height="1" fill="#a9b66c"/>
    <rect x="0" y="211" width="402" height="1" fill="#a9b66c"/>
  </g>
</svg>