<?xml version="1.0" encoding="UTF-8"?>
<svg xmlns="http://www.w3.org/2000/svg" viewBox="0 0 153 73" width="153" height="73">
  <!-- Auto-converted from legend-1055.png -->
  <rect x="0" y="0" width="153" height="73" fill="none"/>
  <g fill="#231f20" stroke="none">
    <rect x="0" y="0" width="153" height="1" fill="#231f20"/>
    <rect x="0" y="1" width="1" height="1" fill="#231f20"/>
    <rect x="152" y="1" width="1" height="1" fill="#231f20"/>
    <rect x="0" y="2" width="1" height="1" fill="#231f20"/>
    <rect x="152" y="2" width="1" height="1" fill="#231f20"/>
    <rect x="0" y="3" width="1" height="1" fill="#231f20"/>
    <rect x="152" y="3" width="1" height="1" fill="#231f20"/>
    <rect x="0" y="4" width="1" height="1" fill="#231f20"/>
    <rect x="152" y="4" width="1" height="1" fill="#231f20"/>
    <rect x="0" y="5" width="1" height="1" fill="#231f20"/>
    <rect x="152" y="5" width="1" height="1" fill="#231f20"/>
    <rect x="0" y="6" width="1" height="1" fill="#231f20"/>
    <rect x="152" y="6" width="1" height="1" fill="#231f20"/>
    <rect x="0" y="7" width="1" height="1" fill="#231f20"/>
    <rect x="152" y="7" width="1" height="1" fill="#231f20"/>
    <rect x="0" y="8" width="1" height="1" fill="#231f20"/>
    <rect x="152" y="8" width="1" height="1" fill="#231f20"/>
    <rect x="0" y="9" width="1" height="1" fill="#231f20"/>
    <rect x="33" y="9" width="2" height="1" fill="#231f20"/>
    <rect x="40" y="9" width="4" height="1" fill="#231f20"/>
    <rect x="69" y="9" width="2" height="1" fill="#231f20"/>
    <rect x="76" y="9" width="4" height="1" fill="#231f20"/>
    <rect x="152" y="9" width="1" height="1" fill="#231f20"/>
    <rect x="0" y="10" width="1" height="1" fill="#231f20"/>
    <rect x="31" y="10" width="2" height="1" fill="#231f20"/>
    <rect x="43" y="10" width="2" height="1" fill="#231f20"/>
    <rect x="68" y="10" width="1" height="1" fill="#231f20"/>
    <rect x="79" y="10" width="2" height="1" fill="#231f20"/>
    <rect x="152" y="10" width="1" height="1" fill="#231f20"/>
    <rect x="0" y="11" width="1" height="1" fill="#231f20"/>
    <rect x="30" y="11" width="2" height="1" fill="#231f20"/>
    <rect x="36" y="11" width="3" height="1" fill="#231f20"/>
    <rect x="44" y="11" width="2" height="1" fill="#231f20"/>
    <rect x="67" y="11" width="1" height="1" fill="#231f20"/>
    <rect x="73" y="11" width="2" height="1" fill="#231f20"/>
    <rect x="81" y="11" width="1" height="1" fill="#231f20"/>
    <rect x="152" y="11" width="1" height="1" fill="#231f20"/>
    <rect x="0" y="12" width="1" height="1" fill="#231f20"/>
    <rect x="30" y="12" width="1" height="1" fill="#231f20"/>
    <rect x="36" y="12" width="3" height="1" fill="#231f20"/>
    <rect x="44" y="12" width="2" height="1" fill="#231f20"/>
    <rect x="67" y="12" width="1" height="1" fill="#231f20"/>
    <rect x="73" y="12" width="2" height="1" fill="#231f20"/>
    <rect x="81" y="12" width="1" height="1" fill="#231f20"/>
    <rect x="152" y="12" width="1" height="1" fill="#231f20"/>
    <rect x="0" y="13" width="1" height="1" fill="#231f20"/>
    <rect x="30" y="13" width="2" height="1" fill="#231f20"/>
    <rect x="37" y="13" width="2" height="1" fill="#231f20"/>
    <rect x="43" y="13" width="2" height="1" fill="#231f20"/>
    <rect x="67" y="13" width="2" height="1" fill="#231f20"/>
    <rect x="73" y="13" width="2" height="1" fill="#231f20"/>
    <rect x="80" y="13" width="1" height="1" fill="#231f20"/>
    <rect x="152" y="13" width="1" height="1" fill="#231f20"/>
    <rect x="0" y="14" width="1" height="1" fill="#231f20"/>
    <rect x="32" y="14" width="2" height="1" fill="#231f20"/>
    <rect x="41" y="14" width="3" height="1" fill="#231f20"/>
    <rect x="68" y="14" width="3" height="1" fill="#231f20"/>
    <rect x="78" y="14" width="2" height="1" fill="#231f20"/>
    <rect x="152" y="14" width="1" height="1" fill="#231f20"/>
    <rect x="0" y="15" width="1" height="1" fill="#231f20"/>
    <rect x="34" y="15" width="1" height="1" fill="#231f20"/>
    <rect x="40" y="15" width="2" height="1" fill="#231f20"/>
    <rect x="70" y="15" width="2" height="1" fill="#231f20"/>
    <rect x="76" y="15" width="2" height="1" fill="#231f20"/>
    <rect x="152" y="15" width="1" height="1" fill="#231f20"/>
    <rect x="0" y="16" width="1" height="1" fill="#231f20"/>
    <rect x="152" y="16" width="1" height="1" fill="#231f20"/>
    <rect x="0" y="17" width="1" height="1" fill="#231f20"/>
    <rect x="152" y="17" width="1" height="1" fill="#231f20"/>
    <rect x="0" y="18" width="1" height="1" fill="#231f20"/>
    <rect x="152" y="18" width="1" height="1" fill="#231f20"/>
    <rect x="0" y="19" width="1" height="1" fill="#231f20"/>
    <rect x="152" y="19" width="1" height="1" fill="#231f20"/>
    <rect x="0" y="20" width="1" height="1" fill="#231f20"/>
    <rect x="152" y="20" width="1" height="1" fill="#231f20"/>
    <rect x="0" y="21" width="1" height="1" fill="#231f20"/>
    <rect x="152" y="21" width="1" height="1" fill="#231f20"/>
    <rect x="0" y="22" width="1" height="1" fill="#231f20"/>
    <rect x="152" y="22" width="1" height="1" fill="#231f20"/>
    <rect x="0" y="23" width="1" height="1" fill="#231f20"/>
    <rect x="152" y="23" width="1" height="1" fill="#231f20"/>
    <rect x="0" y="24" width="153" height="1" fill="#231f20"/>
    <rect x="0" y="25" width="1" height="1" fill="#231f20"/>
    <rect x="152" y="25" width="1" height="1" fill="#231f20"/>
    <rect x="0" y="26" width="1" height="1" fill="#231f20"/>
    <rect x="152" y="26" width="1" height="1" fill="#231f20"/>
    <rect x="0" y="27" width="1" height="1" fill="#231f20"/>
    <rect x="152" y="27" width="1" height="1" fill="#231f20"/>
    <rect x="0" y="28" width="1" height="1" fill="#231f20"/>
    <rect x="152" y="28" width="1" height="1" fill="#231f20"/>
    <rect x="0" y="29" width="1" height="1" fill="#231f20"/>
    <rect x="152" y="29" width="1" height="1" fill="#231f20"/>
    <rect x="0" y="30" width="1" height="1" fill="#231f20"/>
    <rect x="152" y="30" width="1" height="1" fill="#231f20"/>
    <rect x="0" y="31" width="1" height="1" fill="#231f20"/>
    <rect x="152" y="31" width="1" height="1" fill="#231f20"/>
    <rect x="0" y="32" width="1" height="1" fill="#231f20"/>
    <rect x="152" y="32" width="1" height="1" fill="#231f20"/>
    <rect x="0" y="33" width="1" height="1" fill="#231f20"/>
    <rect x="42" y="33" width="3" height="1" fill="#231f20"/>
    <rect x="76" y="33" width="1" height="1" fill="#231f20"/>
    <rect x="82" y="33" width="4" height="1" fill="#231f20"/>
    <rect x="112" y="33" width="2" height="1" fill="#231f20"/>
    <rect x="119" y="33" width="3" height="1" fill="#231f20"/>
    <rect x="152" y="33" width="1" height="1" fill="#231f20"/>
    <rect x="0" y="34" width="1" height="1" fill="#231f20"/>
    <rect x="41" y="34" width="1" height="1" fill="#231f20"/>
    <rect x="45" y="34" width="2" height="1" fill="#231f20"/>
    <rect x="74" y="34" width="2" height="1" fill="#231f20"/>
    <rect x="85" y="34" width="2" height="1" fill="#231f20"/>
    <rect x="110" y="34" width="3" height="1" fill="#231f20"/>
    <rect x="121" y="34" width="3" height="1" fill="#231f20"/>
    <rect x="152" y="34" width="1" height="1" fill="#231f20"/>
    <rect x="0" y="35" width="1" height="1" fill="#231f20"/>
    <rect x="40" y="35" width="1" height="1" fill="#231f20"/>
    <rect x="46" y="35" width="1" height="1" fill="#231f20"/>
    <rect x="73" y="35" width="2" height="1" fill="#231f20"/>
    <rect x="79" y="35" width="2" height="1" fill="#231f20"/>
    <rect x="87" y="35" width="1" height="1" fill="#231f20"/>
    <rect x="109" y="35" width="2" height="1" fill="#231f20"/>
    <rect x="116" y="35" width="2" height="1" fill="#231f20"/>
    <rect x="123" y="35" width="2" height="1" fill="#231f20"/>
    <rect x="152" y="35" width="1" height="1" fill="#231f20"/>
    <rect x="0" y="36" width="1" height="1" fill="#231f20"/>
    <rect x="40" y="36" width="1" height="1" fill="#231f20"/>
    <rect x="46" y="36" width="1" height="1" fill="#231f20"/>
    <rect x="73" y="36" width="1" height="1" fill="#231f20"/>
    <rect x="79" y="36" width="3" height="1" fill="#231f20"/>
    <rect x="87" y="36" width="1" height="1" fill="#231f20"/>
    <rect x="109" y="36" width="1" height="1" fill="#231f20"/>
    <rect x="115" y="36" width="3" height="1" fill="#231f20"/>
    <rect x="123" y="36" width="2" height="1" fill="#231f20"/>
    <rect x="152" y="36" width="1" height="1" fill="#231f20"/>
    <rect x="0" y="37" width="1" height="1" fill="#231f20"/>
    <rect x="40" y="37" width="1" height="1" fill="#231f20"/>
    <rect x="46" y="37" width="1" height="1" fill="#231f20"/>
    <rect x="73" y="37" width="1" height="1" fill="#231f20"/>
    <rect x="79" y="37" width="2" height="1" fill="#231f20"/>
    <rect x="86" y="37" width="2" height="1" fill="#231f20"/>
    <rect x="109" y="37" width="2" height="1" fill="#231f20"/>
    <rect x="115" y="37" width="3" height="1" fill="#231f20"/>
    <rect x="122" y="37" width="2" height="1" fill="#231f20"/>
    <rect x="152" y="37" width="1" height="1" fill="#231f20"/>
    <rect x="0" y="38" width="1" height="1" fill="#231f20"/>
    <rect x="41" y="38" width="1" height="1" fill="#231f20"/>
    <rect x="45" y="38" width="2" height="1" fill="#231f20"/>
    <rect x="74" y="38" width="2" height="1" fill="#231f20"/>
    <rect x="84" y="38" width="2" height="1" fill="#231f20"/>
    <rect x="110" y="38" width="3" height="1" fill="#231f20"/>
    <rect x="121" y="38" width="2" height="1" fill="#231f20"/>
    <rect x="152" y="38" width="1" height="1" fill="#231f20"/>
    <rect x="0" y="39" width="1" height="1" fill="#231f20"/>
    <rect x="42" y="39" width="3" height="1" fill="#231f20"/>
    <rect x="76" y="39" width="2" height="1" fill="#231f20"/>
    <rect x="82" y="39" width="3" height="1" fill="#231f20"/>
    <rect x="112" y="39" width="2" height="1" fill="#231f20"/>
    <rect x="119" y="39" width="3" height="1" fill="#231f20"/>
    <rect x="152" y="39" width="1" height="1" fill="#231f20"/>
    <rect x="0" y="40" width="1" height="1" fill="#231f20"/>
    <rect x="152" y="40" width="1" height="1" fill="#231f20"/>
    <rect x="0" y="41" width="1" height="1" fill="#231f20"/>
    <rect x="152" y="41" width="1" height="1" fill="#231f20"/>
    <rect x="0" y="42" width="1" height="1" fill="#231f20"/>
    <rect x="152" y="42" width="1" height="1" fill="#231f20"/>
    <rect x="0" y="43" width="1" height="1" fill="#231f20"/>
    <rect x="152" y="43" width="1" height="1" fill="#231f20"/>
    <rect x="0" y="44" width="1" height="1" fill="#231f20"/>
    <rect x="152" y="44" width="1" height="1" fill="#231f20"/>
    <rect x="0" y="45" width="1" height="1" fill="#231f20"/>
    <rect x="152" y="45" width="1" height="1" fill="#231f20"/>
    <rect x="0" y="46" width="1" height="1" fill="#231f20"/>
    <rect x="152" y="46" width="1" height="1" fill="#231f20"/>
    <rect x="0" y="47" width="1" height="1" fill="#231f20"/>
    <rect x="152" y="47" width="1" height="1" fill="#231f20"/>
    <rect x="0" y="48" width="153" height="1" fill="#231f20"/>
    <rect x="0" y="49" width="1" height="1" fill="#231f20"/>
    <rect x="152" y="49" width="1" height="1" fill="#231f20"/>
    <rect x="0" y="50" width="1" height="1" fill="#231f20"/>
    <rect x="152" y="50" width="1" height="1" fill="#231f20"/>
    <rect x="0" y="51" width="1" height="1" fill="#231f20"/>
    <rect x="152" y="51" width="1" height="1" fill="#231f20"/>
    <rect x="0" y="52" width="1" height="1" fill="#231f20"/>
    <rect x="152" y="52" width="1" height="1" fill="#231f20"/>
    <rect x="0" y="53" width="1" height="1" fill="#231f20"/>
    <rect x="152" y="53" width="1" height="1" fill="#231f20"/>
    <rect x="0" y="54" width="1" height="1" fill="#231f20"/>
    <rect x="152" y="54" width="1" height="1" fill="#231f20"/>
    <rect x="0" y="55" width="1" height="1" fill="#231f20"/>
    <rect x="152" y="55" width="1" height="1" fill="#231f20"/>
    <rect x="0" y="56" width="1" height="1" fill="#231f20"/>
    <rect x="152" y="56" width="1" height="1" fill="#231f20"/>
    <rect x="0" y="57" width="1" height="1" fill="#231f20"/>
    <rect x="34" y="57" width="1" height="1" fill="#231f20"/>
    <rect x="40" y="57" width="2" height="1" fill="#231f20"/>
    <rect x="70" y="57" width="1" height="1" fill="#231f20"/>
    <rect x="76" y="57" width="2" height="1" fill="#231f20"/>
    <rect x="152" y="57" width="1" height="1" fill="#231f20"/>
    <rect x="0" y="58" width="1" height="1" fill="#231f20"/>
    <rect x="32" y="58" width="2" height="1" fill="#231f20"/>
    <rect x="41" y="58" width="3" height="1" fill="#231f20"/>
    <rect x="68" y="58" width="3" height="1" fill="#231f20"/>
    <rect x="78" y="58" width="2" height="1" fill="#231f20"/>
    <rect x="152" y="58" width="1" height="1" fill="#231f20"/>
    <rect x="0" y="59" width="1" height="1" fill="#231f20"/>
    <rect x="31" y="59" width="2" height="1" fill="#231f20"/>
    <rect x="43" y="59" width="2" height="1" fill="#231f20"/>
    <rect x="67" y="59" width="2" height="1" fill="#231f20"/>
    <rect x="80" y="59" width="2" height="1" fill="#231f20"/>
    <rect x="152" y="59" width="1" height="1" fill="#231f20"/>
    <rect x="0" y="60" width="1" height="1" fill="#231f20"/>
    <rect x="30" y="60" width="1" height="1" fill="#231f20"/>
    <rect x="36" y="60" width="3" height="1" fill="#231f20"/>
    <rect x="44" y="60" width="2" height="1" fill="#231f20"/>
    <rect x="67" y="60" width="1" height="1" fill="#231f20"/>
    <rect x="73" y="60" width="2" height="1" fill="#231f20"/>
    <rect x="81" y="60" width="1" height="1" fill="#231f20"/>
    <rect x="152" y="60" width="1" height="1" fill="#231f20"/>
    <rect x="0" y="61" width="1" height="1" fill="#231f20"/>
    <rect x="30" y="61" width="2" height="1" fill="#231f20"/>
    <rect x="36" y="61" width="3" height="1" fill="#231f20"/>
    <rect x="44" y="61" width="2" height="1" fill="#231f20"/>
    <rect x="67" y="61" width="1" height="1" fill="#231f20"/>
    <rect x="73" y="61" width="2" height="1" fill="#231f20"/>
    <rect x="80" y="61" width="2" height="1" fill="#231f20"/>
    <rect x="152" y="61" width="1" height="1" fill="#231f20"/>
    <rect x="0" y="62" width="1" height="1" fill="#231f20"/>
    <rect x="31" y="62" width="2" height="1" fill="#231f20"/>
    <rect x="42" y="62" width="2" height="1" fill="#231f20"/>
    <rect x="67" y="62" width="3" height="1" fill="#231f20"/>
    <rect x="79" y="62" width="2" height="1" fill="#231f20"/>
    <rect x="152" y="62" width="1" height="1" fill="#231f20"/>
    <rect x="0" y="63" width="1" height="1" fill="#231f20"/>
    <rect x="33" y="63" width="2" height="1" fill="#231f20"/>
    <rect x="40" y="63" width="3" height="1" fill="#231f20"/>
    <rect x="69" y="63" width="3" height="1" fill="#231f20"/>
    <rect x="76" y="63" width="3" height="1" fill="#231f20"/>
    <rect x="152" y="63" width="1" height="1" fill="#231f20"/>
    <rect x="0" y="64" width="1" height="1" fill="#231f20"/>
    <rect x="152" y="64" width="1" height="1" fill="#231f20"/>
    <rect x="0" y="65" width="1" height="1" fill="#231f20"/>
    <rect x="152" y="65" width="1" height="1" fill="#231f20"/>
    <rect x="0" y="66" width="1" height="1" fill="#231f20"/>
    <rect x="152" y="66" width="1" height="1" fill="#231f20"/>
    <rect x="0" y="67" width="1" height="1" fill="#231f20"/>
    <rect x="152" y="67" width="1" height="1" fill="#231f20"/>
    <rect x="0" y="68" width="1" height="1" fill="#231f20"/>
    <rect x="152" y="68" width="1" height="1" fill="#231f20"/>
    <rect x="0" y="69" width="1" height="1" fill="#231f20"/>
    <rect x="152" y="69" width="1" height="1" fill="#231f20"/>
    <rect x="0" y="70" width="1" height="1" fill="#231f20"/>
    <rect x="152" y="70" width="1" height="1" fill="#231f20"/>
    <rect x="0" y="71" width="1" height="1" fill="#231f20"/>
    <rect x="152" y="71" width="1" height="1" fill="#231f20"/>
    <rect x="0" y="72" width="153" height="1" fill="#231f20"/>
  </g>
</svg>