<?xml version="1.0" encoding="UTF-8"?>
<svg xmlns="http://www.w3.org/2000/svg" viewBox="0 0 154 61" width="154" height="61">
  <!-- Auto-converted from legend-2070.png -->
  <rect x="0" y="0" width="154" height="61" fill="none"/>
  <g fill="#231f20" stroke="none">
    <rect x="0" y="0" width="154" height="1" fill="#231f20"/>
    <rect x="0" y="1" width="1" height="1" fill="#231f20"/>
    <rect x="153" y="1" width="1" height="1" fill="#231f20"/>
    <rect x="0" y="2" width="1" height="1" fill="#231f20"/>
    <rect x="153" y="2" width="1" height="1" fill="#231f20"/>
    <rect x="0" y="3" width="1" height="1" fill="#231f20"/>
    <rect x="153" y="3" width="1" height="1" fill="#231f20"/>
    <rect x="0" y="4" width="1" height="1" fill="#231f20"/>
    <rect x="153" y="4" width="1" height="1" fill="#231f20"/>
    <rect x="0" y="5" width="1" height="1" fill="#231f20"/>
    <rect x="153" y="5" width="1" height="1" fill="#231f20"/>
    <rect x="0" y="6" width="1" height="1" fill="#231f20"/>
    <rect x="153" y="6" width="1" height="1" fill="#231f20"/>
    <rect x="0" y="7" width="1" height="1" fill="#231f20"/>
    <rect x="153" y="7" width="1" height="1" fill="#231f20"/>
    <rect x="0" y="8" width="1" height="1" fill="#231f20"/>
    <rect x="153" y="8" width="1" height="1" fill="#231f20"/>
    <rect x="0" y="9" width="1" height="1" fill="#231f20"/>
    <rect x="153" y="9" width="1" height="1" fill="#231f20"/>
    <rect x="0" y="10" width="1" height="1" fill="#231f20"/>
    <rect x="153" y="10" width="1" height="1" fill="#231f20"/>
    <rect x="0" y="11" width="1" height="1" fill="#231f20"/>
    <rect x="153" y="11" width="1" height="1" fill="#231f20"/>
    <rect x="0" y="12" width="1" height="1" fill="#231f20"/>
    <rect x="153" y="12" width="1" height="1" fill="#231f20"/>
    <rect x="0" y="13" width="1" height="1" fill="#231f20"/>
    <rect x="153" y="13" width="1" height="1" fill="#231f20"/>
    <rect x="0" y="14" width="1" height="1" fill="#231f20"/>
    <rect x="153" y="14" width="1" height="1" fill="#231f20"/>
    <rect x="0" y="15" width="1" height="1" fill="#231f20"/>
    <rect x="153" y="15" width="1" height="1" fill="#231f20"/>
    <rect x="0" y="16" width="1" height="1" fill="#231f20"/>
    <rect x="153" y="16" width="1" height="1" fill="#231f20"/>
    <rect x="0" y="17" width="1" height="1" fill="#231f20"/>
    <rect x="153" y="17" width="1" height="1" fill="#231f20"/>
    <rect x="0" y="18" width="1" height="1" fill="#231f20"/>
    <rect x="153" y="18" width="1" height="1" fill="#231f20"/>
    <rect x="0" y="19" width="1" height="1" fill="#231f20"/>
    <rect x="153" y="19" width="1" height="1" fill="#231f20"/>
    <rect x="0" y="20" width="1" height="1" fill="#231f20"/>
    <rect x="153" y="20" width="1" height="1" fill="#231f20"/>
    <rect x="0" y="21" width="1" height="1" fill="#231f20"/>
    <rect x="42" y="21" width="13" height="1" fill="#231f20"/>
    <rect x="153" y="21" width="1" height="1" fill="#231f20"/>
    <rect x="0" y="22" width="1" height="1" fill="#231f20"/>
    <rect x="40" y="22" width="18" height="1" fill="#231f20"/>
    <rect x="101" y="22" width="12" height="1" fill="#231f20"/>
    <rect x="153" y="22" width="1" height="1" fill="#231f20"/>
    <rect x="0" y="23" width="1" height="1" fill="#231f20"/>
    <rect x="38" y="23" width="22" height="1" fill="#231f20"/>
    <rect x="98" y="23" width="17" height="1" fill="#231f20"/>
    <rect x="153" y="23" width="1" height="1" fill="#231f20"/>
    <rect x="0" y="24" width="1" height="1" fill="#231f20"/>
    <rect x="36" y="24" width="8" height="1" fill="#231f20"/>
    <rect x="53" y="24" width="8" height="1" fill="#231f20"/>
    <rect x="96" y="24" width="21" height="1" fill="#231f20"/>
    <rect x="153" y="24" width="1" height="1" fill="#231f20"/>
    <rect x="0" y="25" width="1" height="1" fill="#231f20"/>
    <rect x="34" y="25" width="8" height="1" fill="#231f20"/>
    <rect x="56" y="25" width="7" height="1" fill="#231f20"/>
    <rect x="94" y="25" width="9" height="1" fill="#231f20"/>
    <rect x="110" y="25" width="9" height="1" fill="#231f20"/>
    <rect x="153" y="25" width="1" height="1" fill="#231f20"/>
    <rect x="0" y="26" width="1" height="1" fill="#231f20"/>
    <rect x="33" y="26" width="7" height="1" fill="#231f20"/>
    <rect x="58" y="26" width="6" height="1" fill="#231f20"/>
    <rect x="93" y="26" width="7" height="1" fill="#231f20"/>
    <rect x="113" y="26" width="8" height="1" fill="#231f20"/>
    <rect x="153" y="26" width="1" height="1" fill="#231f20"/>
    <rect x="0" y="27" width="1" height="1" fill="#231f20"/>
    <rect x="32" y="27" width="6" height="1" fill="#231f20"/>
    <rect x="59" y="27" width="7" height="1" fill="#231f20"/>
    <rect x="92" y="27" width="6" height="1" fill="#231f20"/>
    <rect x="115" y="27" width="7" height="1" fill="#231f20"/>
    <rect x="153" y="27" width="1" height="1" fill="#231f20"/>
    <rect x="0" y="28" width="1" height="1" fill="#231f20"/>
    <rect x="30" y="28" width="6" height="1" fill="#231f20"/>
    <rect x="45" y="28" width="7" height="1" fill="#231f20"/>
    <rect x="61" y="28" width="6" height="1" fill="#231f20"/>
    <rect x="91" y="28" width="6" height="1" fill="#231f20"/>
    <rect x="117" y="28" width="8" height="1" fill="#231f20"/>
    <rect x="153" y="28" width="1" height="1" fill="#231f20"/>
    <rect x="0" y="29" width="1" height="1" fill="#231f20"/>
    <rect x="28" y="29" width="7" height="1" fill="#231f20"/>
    <rect x="41" y="29" width="15" height="1" fill="#231f20"/>
    <rect x="62" y="29" width="7" height="1" fill="#231f20"/>
    <rect x="90" y="29" width="5" height="1" fill="#231f20"/>
    <rect x="104" y="29" width="5" height="1" fill="#231f20"/>
    <rect x="119" y="29" width="7" height="1" fill="#231f20"/>
    <rect x="153" y="29" width="1" height="1" fill="#231f20"/>
    <rect x="0" y="30" width="1" height="1" fill="#231f20"/>
    <rect x="27" y="30" width="5" height="1" fill="#231f20"/>
    <rect x="39" y="30" width="19" height="1" fill="#231f20"/>
    <rect x="64" y="30" width="7" height="1" fill="#231f20"/>
    <rect x="89" y="30" width="5" height="1" fill="#231f20"/>
    <rect x="100" y="30" width="13" height="1" fill="#231f20"/>
    <rect x="122" y="30" width="6" height="1" fill="#231f20"/>
    <rect x="153" y="30" width="1" height="1" fill="#231f20"/>
    <rect x="0" y="31" width="1" height="1" fill="#231f20"/>
    <rect x="25" y="31" width="6" height="1" fill="#231f20"/>
    <rect x="37" y="31" width="10" height="1" fill="#231f20"/>
    <rect x="50" y="31" width="10" height="1" fill="#231f20"/>
    <rect x="66" y="31" width="6" height="1" fill="#231f20"/>
    <rect x="88" y="31" width="5" height="1" fill="#231f20"/>
    <rect x="97" y="31" width="19" height="1" fill="#231f20"/>
    <rect x="123" y="31" width="7" height="1" fill="#231f20"/>
    <rect x="153" y="31" width="1" height="1" fill="#231f20"/>
    <rect x="0" y="32" width="1" height="1" fill="#231f20"/>
    <rect x="23" y="32" width="7" height="1" fill="#231f20"/>
    <rect x="36" y="32" width="8" height="1" fill="#231f20"/>
    <rect x="53" y="32" width="9" height="1" fill="#231f20"/>
    <rect x="67" y="32" width="6" height="1" fill="#231f20"/>
    <rect x="87" y="32" width="5" height="1" fill="#231f20"/>
    <rect x="95" y="32" width="11" height="1" fill="#231f20"/>
    <rect x="107" y="32" width="11" height="1" fill="#231f20"/>
    <rect x="124" y="32" width="8" height="1" fill="#231f20"/>
    <rect x="153" y="32" width="1" height="1" fill="#231f20"/>
    <rect x="0" y="33" width="1" height="1" fill="#231f20"/>
    <rect x="20" y="33" width="9" height="1" fill="#231f20"/>
    <rect x="34" y="33" width="7" height="1" fill="#231f20"/>
    <rect x="56" y="33" width="7" height="1" fill="#231f20"/>
    <rect x="69" y="33" width="6" height="1" fill="#231f20"/>
    <rect x="86" y="33" width="5" height="1" fill="#231f20"/>
    <rect x="94" y="33" width="8" height="1" fill="#231f20"/>
    <rect x="111" y="33" width="8" height="1" fill="#231f20"/>
    <rect x="126" y="33" width="8" height="1" fill="#231f20"/>
    <rect x="153" y="33" width="1" height="1" fill="#231f20"/>
    <rect x="0" y="34" width="1" height="1" fill="#231f20"/>
    <rect x="9" y="34" width="2" height="1" fill="#231f20"/>
    <rect x="16" y="34" width="11" height="1" fill="#231f20"/>
    <rect x="32" y="34" width="7" height="1" fill="#231f20"/>
    <rect x="58" y="34" width="7" height="1" fill="#231f20"/>
    <rect x="70" y="34" width="6" height="1" fill="#231f20"/>
    <rect x="84" y="34" width="6" height="1" fill="#231f20"/>
    <rect x="93" y="34" width="7" height="1" fill="#231f20"/>
    <rect x="114" y="34" width="7" height="1" fill="#231f20"/>
    <rect x="128" y="34" width="11" height="1" fill="#231f20"/>
    <rect x="144" y="34" width="2" height="1" fill="#231f20"/>
    <rect x="153" y="34" width="1" height="1" fill="#231f20"/>
    <rect x="0" y="35" width="1" height="1" fill="#231f20"/>
    <rect x="8" y="35" width="15" height="1" fill="#231f20"/>
    <rect x="31" y="35" width="7" height="1" fill="#231f20"/>
    <rect x="60" y="35" width="6" height="1" fill="#231f20"/>
    <rect x="71" y="35" width="7" height="1" fill="#231f20"/>
    <rect x="83" y="35" width="6" height="1" fill="#231f20"/>
    <rect x="92" y="35" width="6" height="1" fill="#231f20"/>
    <rect x="116" y="35" width="6" height="1" fill="#231f20"/>
    <rect x="130" y="35" width="17" height="1" fill="#231f20"/>
    <rect x="153" y="35" width="1" height="1" fill="#231f20"/>
    <rect x="0" y="36" width="1" height="1" fill="#231f20"/>
    <rect x="9" y="36" width="14" height="1" fill="#231f20"/>
    <rect x="30" y="36" width="6" height="1" fill="#231f20"/>
    <rect x="61" y="36" width="8" height="1" fill="#231f20"/>
    <rect x="73" y="36" width="15" height="1" fill="#231f20"/>
    <rect x="91" y="36" width="5" height="1" fill="#231f20"/>
    <rect x="117" y="36" width="8" height="1" fill="#231f20"/>
    <rect x="132" y="36" width="14" height="1" fill="#231f20"/>
    <rect x="153" y="36" width="1" height="1" fill="#231f20"/>
    <rect x="0" y="37" width="1" height="1" fill="#231f20"/>
    <rect x="11" y="37" width="7" height="1" fill="#231f20"/>
    <rect x="28" y="37" width="6" height="1" fill="#231f20"/>
    <rect x="63" y="37" width="7" height="1" fill="#231f20"/>
    <rect x="74" y="37" width="13" height="1" fill="#231f20"/>
    <rect x="90" y="37" width="5" height="1" fill="#231f20"/>
    <rect x="119" y="37" width="8" height="1" fill="#231f20"/>
    <rect x="136" y="37" width="8" height="1" fill="#231f20"/>
    <rect x="153" y="37" width="1" height="1" fill="#231f20"/>
    <rect x="0" y="38" width="1" height="1" fill="#231f20"/>
    <rect x="26" y="38" width="7" height="1" fill="#231f20"/>
    <rect x="64" y="38" width="7" height="1" fill="#231f20"/>
    <rect x="75" y="38" width="11" height="1" fill="#231f20"/>
    <rect x="88" y="38" width="6" height="1" fill="#231f20"/>
    <rect x="122" y="38" width="6" height="1" fill="#231f20"/>
    <rect x="153" y="38" width="1" height="1" fill="#231f20"/>
    <rect x="0" y="39" width="1" height="1" fill="#231f20"/>
    <rect x="25" y="39" width="6" height="1" fill="#231f20"/>
    <rect x="67" y="39" width="5" height="1" fill="#231f20"/>
    <rect x="78" y="39" width="6" height="1" fill="#231f20"/>
    <rect x="87" y="39" width="6" height="1" fill="#231f20"/>
    <rect x="124" y="39" width="6" height="1" fill="#231f20"/>
    <rect x="153" y="39" width="1" height="1" fill="#231f20"/>
    <rect x="0" y="40" width="1" height="1" fill="#231f20"/>
    <rect x="23" y="40" width="7" height="1" fill="#231f20"/>
    <rect x="68" y="40" width="6" height="1" fill="#231f20"/>
    <rect x="86" y="40" width="6" height="1" fill="#231f20"/>
    <rect x="125" y="40" width="7" height="1" fill="#231f20"/>
    <rect x="153" y="40" width="1" height="1" fill="#231f20"/>
    <rect x="0" y="41" width="1" height="1" fill="#231f20"/>
    <rect x="19" y="41" width="9" height="1" fill="#231f20"/>
    <rect x="69" y="41" width="6" height="1" fill="#231f20"/>
    <rect x="85" y="41" width="5" height="1" fill="#231f20"/>
    <rect x="126" y="41" width="9" height="1" fill="#231f20"/>
    <rect x="153" y="41" width="1" height="1" fill="#231f20"/>
    <rect x="0" y="42" width="1" height="1" fill="#231f20"/>
    <rect x="9" y="42" width="18" height="1" fill="#231f20"/>
    <rect x="70" y="42" width="7" height="1" fill="#231f20"/>
    <rect x="84" y="42" width="5" height="1" fill="#231f20"/>
    <rect x="128" y="42" width="18" height="1" fill="#231f20"/>
    <rect x="153" y="42" width="1" height="1" fill="#231f20"/>
    <rect x="0" y="43" width="1" height="1" fill="#231f20"/>
    <rect x="8" y="43" width="15" height="1" fill="#231f20"/>
    <rect x="72" y="43" width="7" height="1" fill="#231f20"/>
    <rect x="83" y="43" width="6" height="1" fill="#231f20"/>
    <rect x="130" y="43" width="17" height="1" fill="#231f20"/>
    <rect x="153" y="43" width="1" height="1" fill="#231f20"/>
    <rect x="0" y="44" width="1" height="1" fill="#231f20"/>
    <rect x="8" y="44" width="138" height="1" fill="#231f20"/>
    <rect x="153" y="44" width="1" height="1" fill="#231f20"/>
    <rect x="0" y="45" width="1" height="1" fill="#231f20"/>
    <rect x="7" y="45" width="140" height="1" fill="#231f20"/>
    <rect x="153" y="45" width="1" height="1" fill="#231f20"/>
    <rect x="0" y="46" width="1" height="1" fill="#231f20"/>
    <rect x="8" y="46" width="138" height="1" fill="#231f20"/>
    <rect x="153" y="46" width="1" height="1" fill="#231f20"/>
    <rect x="0" y="47" width="1" height="1" fill="#231f20"/>
    <rect x="153" y="47" width="1" height="1" fill="#231f20"/>
    <rect x="0" y="48" width="1" height="1" fill="#231f20"/>
    <rect x="153" y="48" width="1" height="1" fill="#231f20"/>
    <rect x="0" y="49" width="1" height="1" fill="#231f20"/>
    <rect x="153" y="49" width="1" height="1" fill="#231f20"/>
    <rect x="0" y="50" width="1" height="1" fill="#231f20"/>
    <rect x="153" y="50" width="1" height="1" fill="#231f20"/>
    <rect x="0" y="51" width="1" height="1" fill="#231f20"/>
    <rect x="153" y="51" width="1" height="1" fill="#231f20"/>
    <rect x="0" y="52" width="1" height="1" fill="#231f20"/>
    <rect x="153" y="52" width="1" height="1" fill="#231f20"/>
    <rect x="0" y="53" width="1" height="1" fill="#231f20"/>
    <rect x="153" y="53" width="1" height="1" fill="#231f20"/>
    <rect x="0" y="54" width="1" height="1" fill="#231f20"/>
    <rect x="153" y="54" width="1" height="1" fill="#231f20"/>
    <rect x="0" y="55" width="1" height="1" fill="#231f20"/>
    <rect x="153" y="55" width="1" height="1" fill="#231f20"/>
    <rect x="0" y="56" width="1" height="1" fill="#231f20"/>
    <rect x="153" y="56" width="1" height="1" fill="#231f20"/>
    <rect x="0" y="57" width="1" height="1" fill="#231f20"/>
    <rect x="153" y="57" width="1" height="1" fill="#231f20"/>
    <rect x="0" y="58" width="1" height="1" fill="#231f20"/>
    <rect x="153" y="58" width="1" height="1" fill="#231f20"/>
    <rect x="0" y="59" width="1" height="1" fill="#231f20"/>
    <rect x="153" y="59" width="1" height="1" fill="#231f20"/>
    <rect x="0" y="60" width="154" height="1" fill="#231f20"/>
  </g>
</svg>