<?xml version="1.0" encoding="UTF-8"?>
<svg xmlns="http://www.w3.org/2000/svg" viewBox="0 0 124 83" width="124" height="83">
  <!-- Auto-converted from legend-322.png -->
  <rect x="0" y="0" width="124" height="83" fill="none"/>
  <g fill="#3e2c1f" stroke="none">
    <rect x="0" y="0" width="124" height="1" fill="#3e2c1f"/>
    <rect x="0" y="1" width="1" height="1" fill="#3e2c1f"/>
    <rect x="123" y="1" width="1" height="1" fill="#3e2c1f"/>
    <rect x="0" y="2" width="1" height="1" fill="#3e2c1f"/>
    <rect x="123" y="2" width="1" height="1" fill="#3e2c1f"/>
    <rect x="0" y="3" width="1" height="1" fill="#3e2c1f"/>
    <rect x="123" y="3" width="1" height="1" fill="#3e2c1f"/>
    <rect x="0" y="4" width="1" height="1" fill="#3e2c1f"/>
    <rect x="79" y="4" width="19" height="1" fill="#3e2c1f"/>
    <rect x="123" y="4" width="1" height="1" fill="#3e2c1f"/>
    <rect x="0" y="5" width="1" height="1" fill="#3e2c1f"/>
    <rect x="75" y="5" width="4" height="1" fill="#3e2c1f"/>
    <rect x="98" y="5" width="3" height="1" fill="#3e2c1f"/>
    <rect x="123" y="5" width="1" height="1" fill="#3e2c1f"/>
    <rect x="0" y="6" width="1" height="1" fill="#3e2c1f"/>
    <rect x="73" y="6" width="2" height="1" fill="#3e2c1f"/>
    <rect x="101" y="6" width="3" height="1" fill="#3e2c1f"/>
    <rect x="123" y="6" width="1" height="1" fill="#3e2c1f"/>
    <rect x="0" y="7" width="1" height="1" fill="#3e2c1f"/>
    <rect x="68" y="7" width="5" height="1" fill="#3e2c1f"/>
    <rect x="123" y="7" width="1" height="1" fill="#3e2c1f"/>
    <rect x="0" y="8" width="1" height="1" fill="#3e2c1f"/>
    <rect x="64" y="8" width="4" height="1" fill="#3e2c1f"/>
    <rect x="107" y="8" width="4" height="1" fill="#3e2c1f"/>
    <rect x="123" y="8" width="1" height="1" fill="#3e2c1f"/>
    <rect x="0" y="9" width="1" height="1" fill="#3e2c1f"/>
    <rect x="62" y="9" width="2" height="1" fill="#3e2c1f"/>
    <rect x="106" y="9" width="6" height="1" fill="#3e2c1f"/>
    <rect x="123" y="9" width="1" height="1" fill="#3e2c1f"/>
    <rect x="0" y="10" width="1" height="1" fill="#3e2c1f"/>
    <rect x="59" y="10" width="3" height="1" fill="#3e2c1f"/>
    <rect x="106" y="10" width="6" height="1" fill="#3e2c1f"/>
    <rect x="123" y="10" width="1" height="1" fill="#3e2c1f"/>
    <rect x="0" y="11" width="1" height="1" fill="#3e2c1f"/>
    <rect x="57" y="11" width="2" height="1" fill="#3e2c1f"/>
    <rect x="106" y="11" width="6" height="1" fill="#3e2c1f"/>
    <rect x="123" y="11" width="1" height="1" fill="#3e2c1f"/>
    <rect x="0" y="12" width="1" height="1" fill="#3e2c1f"/>
    <rect x="55" y="12" width="2" height="1" fill="#3e2c1f"/>
    <rect x="106" y="12" width="6" height="1" fill="#3e2c1f"/>
    <rect x="123" y="12" width="1" height="1" fill="#3e2c1f"/>
    <rect x="0" y="13" width="1" height="1" fill="#3e2c1f"/>
    <rect x="54" y="13" width="1" height="1" fill="#3e2c1f"/>
    <rect x="107" y="13" width="4" height="1" fill="#3e2c1f"/>
    <rect x="123" y="13" width="1" height="1" fill="#3e2c1f"/>
    <rect x="0" y="14" width="1" height="1" fill="#3e2c1f"/>
    <rect x="52" y="14" width="2" height="1" fill="#3e2c1f"/>
    <rect x="112" y="14" width="2" height="1" fill="#3e2c1f"/>
    <rect x="123" y="14" width="1" height="1" fill="#3e2c1f"/>
    <rect x="0" y="15" width="1" height="1" fill="#3e2c1f"/>
    <rect x="50" y="15" width="2" height="1" fill="#3e2c1f"/>
    <rect x="110" y="15" width="6" height="1" fill="#3e2c1f"/>
    <rect x="123" y="15" width="1" height="1" fill="#3e2c1f"/>
    <rect x="0" y="16" width="1" height="1" fill="#3e2c1f"/>
    <rect x="48" y="16" width="2" height="1" fill="#3e2c1f"/>
    <rect x="110" y="16" width="6" height="1" fill="#3e2c1f"/>
    <rect x="123" y="16" width="1" height="1" fill="#3e2c1f"/>
    <rect x="0" y="17" width="1" height="1" fill="#3e2c1f"/>
    <rect x="46" y="17" width="2" height="1" fill="#3e2c1f"/>
    <rect x="110" y="17" width="6" height="1" fill="#3e2c1f"/>
    <rect x="123" y="17" width="1" height="1" fill="#3e2c1f"/>
    <rect x="0" y="18" width="1" height="1" fill="#3e2c1f"/>
    <rect x="110" y="18" width="6" height="1" fill="#3e2c1f"/>
    <rect x="123" y="18" width="1" height="1" fill="#3e2c1f"/>
    <rect x="0" y="19" width="1" height="1" fill="#3e2c1f"/>
    <rect x="39" y="19" width="3" height="1" fill="#3e2c1f"/>
    <rect x="111" y="19" width="4" height="1" fill="#3e2c1f"/>
    <rect x="123" y="19" width="1" height="1" fill="#3e2c1f"/>
    <rect x="0" y="20" width="1" height="1" fill="#3e2c1f"/>
    <rect x="38" y="20" width="5" height="1" fill="#3e2c1f"/>
    <rect x="123" y="20" width="1" height="1" fill="#3e2c1f"/>
    <rect x="0" y="21" width="1" height="1" fill="#3e2c1f"/>
    <rect x="38" y="21" width="6" height="1" fill="#3e2c1f"/>
    <rect x="123" y="21" width="1" height="1" fill="#3e2c1f"/>
    <rect x="0" y="22" width="1" height="1" fill="#3e2c1f"/>
    <rect x="38" y="22" width="6" height="1" fill="#3e2c1f"/>
    <rect x="123" y="22" width="1" height="1" fill="#3e2c1f"/>
    <rect x="0" y="23" width="1" height="1" fill="#3e2c1f"/>
    <rect x="34" y="23" width="1" height="1" fill="#3e2c1f"/>
    <rect x="38" y="23" width="5" height="1" fill="#3e2c1f"/>
    <rect x="123" y="23" width="1" height="1" fill="#3e2c1f"/>
    <rect x="0" y="24" width="1" height="1" fill="#3e2c1f"/>
    <rect x="33" y="24" width="3" height="1" fill="#3e2c1f"/>
    <rect x="40" y="24" width="1" height="1" fill="#3e2c1f"/>
    <rect x="113" y="24" width="1" height="1" fill="#3e2c1f"/>
    <rect x="123" y="24" width="1" height="1" fill="#3e2c1f"/>
    <rect x="0" y="25" width="1" height="1" fill="#3e2c1f"/>
    <rect x="32" y="25" width="5" height="1" fill="#3e2c1f"/>
    <rect x="113" y="25" width="1" height="1" fill="#3e2c1f"/>
    <rect x="123" y="25" width="1" height="1" fill="#3e2c1f"/>
    <rect x="0" y="26" width="1" height="1" fill="#3e2c1f"/>
    <rect x="32" y="26" width="5" height="1" fill="#3e2c1f"/>
    <rect x="113" y="26" width="1" height="1" fill="#3e2c1f"/>
    <rect x="123" y="26" width="1" height="1" fill="#3e2c1f"/>
    <rect x="0" y="27" width="1" height="1" fill="#3e2c1f"/>
    <rect x="32" y="27" width="5" height="1" fill="#3e2c1f"/>
    <rect x="112" y="27" width="1" height="1" fill="#3e2c1f"/>
    <rect x="123" y="27" width="1" height="1" fill="#3e2c1f"/>
    <rect x="0" y="28" width="1" height="1" fill="#3e2c1f"/>
    <rect x="33" y="28" width="3" height="1" fill="#3e2c1f"/>
    <rect x="112" y="28" width="1" height="1" fill="#3e2c1f"/>
    <rect x="123" y="28" width="1" height="1" fill="#3e2c1f"/>
    <rect x="0" y="29" width="1" height="1" fill="#3e2c1f"/>
    <rect x="112" y="29" width="1" height="1" fill="#3e2c1f"/>
    <rect x="123" y="29" width="1" height="1" fill="#3e2c1f"/>
    <rect x="0" y="30" width="1" height="1" fill="#3e2c1f"/>
    <rect x="112" y="30" width="1" height="1" fill="#3e2c1f"/>
    <rect x="123" y="30" width="1" height="1" fill="#3e2c1f"/>
    <rect x="0" y="31" width="1" height="1" fill="#3e2c1f"/>
    <rect x="29" y="31" width="1" height="1" fill="#3e2c1f"/>
    <rect x="111" y="31" width="1" height="1" fill="#3e2c1f"/>
    <rect x="123" y="31" width="1" height="1" fill="#3e2c1f"/>
    <rect x="0" y="32" width="1" height="1" fill="#3e2c1f"/>
    <rect x="27" y="32" width="2" height="1" fill="#3e2c1f"/>
    <rect x="111" y="32" width="1" height="1" fill="#3e2c1f"/>
    <rect x="123" y="32" width="1" height="1" fill="#3e2c1f"/>
    <rect x="0" y="33" width="1" height="1" fill="#3e2c1f"/>
    <rect x="26" y="33" width="1" height="1" fill="#3e2c1f"/>
    <rect x="111" y="33" width="1" height="1" fill="#3e2c1f"/>
    <rect x="123" y="33" width="1" height="1" fill="#3e2c1f"/>
    <rect x="0" y="34" width="1" height="1" fill="#3e2c1f"/>
    <rect x="25" y="34" width="1" height="1" fill="#3e2c1f"/>
    <rect x="110" y="34" width="1" height="1" fill="#3e2c1f"/>
    <rect x="123" y="34" width="1" height="1" fill="#3e2c1f"/>
    <rect x="0" y="35" width="1" height="1" fill="#3e2c1f"/>
    <rect x="25" y="35" width="1" height="1" fill="#3e2c1f"/>
    <rect x="110" y="35" width="1" height="1" fill="#3e2c1f"/>
    <rect x="123" y="35" width="1" height="1" fill="#3e2c1f"/>
    <rect x="0" y="36" width="1" height="1" fill="#3e2c1f"/>
    <rect x="24" y="36" width="1" height="1" fill="#3e2c1f"/>
    <rect x="109" y="36" width="1" height="1" fill="#3e2c1f"/>
    <rect x="123" y="36" width="1" height="1" fill="#3e2c1f"/>
    <rect x="0" y="37" width="1" height="1" fill="#3e2c1f"/>
    <rect x="23" y="37" width="1" height="1" fill="#3e2c1f"/>
    <rect x="109" y="37" width="1" height="1" fill="#3e2c1f"/>
    <rect x="123" y="37" width="1" height="1" fill="#3e2c1f"/>
    <rect x="0" y="38" width="1" height="1" fill="#3e2c1f"/>
    <rect x="22" y="38" width="1" height="1" fill="#3e2c1f"/>
    <rect x="108" y="38" width="1" height="1" fill="#3e2c1f"/>
    <rect x="123" y="38" width="1" height="1" fill="#3e2c1f"/>
    <rect x="0" y="39" width="1" height="1" fill="#3e2c1f"/>
    <rect x="22" y="39" width="1" height="1" fill="#3e2c1f"/>
    <rect x="108" y="39" width="1" height="1" fill="#3e2c1f"/>
    <rect x="123" y="39" width="1" height="1" fill="#3e2c1f"/>
    <rect x="0" y="40" width="1" height="1" fill="#3e2c1f"/>
    <rect x="21" y="40" width="1" height="1" fill="#3e2c1f"/>
    <rect x="107" y="40" width="1" height="1" fill="#3e2c1f"/>
    <rect x="123" y="40" width="1" height="1" fill="#3e2c1f"/>
    <rect x="0" y="41" width="1" height="1" fill="#3e2c1f"/>
    <rect x="20" y="41" width="1" height="1" fill="#3e2c1f"/>
    <rect x="106" y="41" width="1" height="1" fill="#3e2c1f"/>
    <rect x="123" y="41" width="1" height="1" fill="#3e2c1f"/>
    <rect x="0" y="42" width="1" height="1" fill="#3e2c1f"/>
    <rect x="19" y="42" width="1" height="1" fill="#3e2c1f"/>
    <rect x="106" y="42" width="1" height="1" fill="#3e2c1f"/>
    <rect x="123" y="42" width="1" height="1" fill="#3e2c1f"/>
    <rect x="0" y="43" width="1" height="1" fill="#3e2c1f"/>
    <rect x="19" y="43" width="1" height="1" fill="#3e2c1f"/>
    <rect x="105" y="43" width="1" height="1" fill="#3e2c1f"/>
    <rect x="123" y="43" width="1" height="1" fill="#3e2c1f"/>
    <rect x="0" y="44" width="1" height="1" fill="#3e2c1f"/>
    <rect x="18" y="44" width="1" height="1" fill="#3e2c1f"/>
    <rect x="104" y="44" width="1" height="1" fill="#3e2c1f"/>
    <rect x="123" y="44" width="1" height="1" fill="#3e2c1f"/>
    <rect x="0" y="45" width="1" height="1" fill="#3e2c1f"/>
    <rect x="17" y="45" width="1" height="1" fill="#3e2c1f"/>
    <rect x="103" y="45" width="1" height="1" fill="#3e2c1f"/>
    <rect x="123" y="45" width="1" height="1" fill="#3e2c1f"/>
    <rect x="0" y="46" width="1" height="1" fill="#3e2c1f"/>
    <rect x="17" y="46" width="1" height="1" fill="#3e2c1f"/>
    <rect x="103" y="46" width="1" height="1" fill="#3e2c1f"/>
    <rect x="123" y="46" width="1" height="1" fill="#3e2c1f"/>
    <rect x="0" y="47" width="1" height="1" fill="#3e2c1f"/>
    <rect x="16" y="47" width="1" height="1" fill="#3e2c1f"/>
    <rect x="102" y="47" width="1" height="1" fill="#3e2c1f"/>
    <rect x="123" y="47" width="1" height="1" fill="#3e2c1f"/>
    <rect x="0" y="48" width="1" height="1" fill="#3e2c1f"/>
    <rect x="16" y="48" width="1" height="1" fill="#3e2c1f"/>
    <rect x="101" y="48" width="1" height="1" fill="#3e2c1f"/>
    <rect x="123" y="48" width="1" height="1" fill="#3e2c1f"/>
    <rect x="0" y="49" width="1" height="1" fill="#3e2c1f"/>
    <rect x="15" y="49" width="1" height="1" fill="#3e2c1f"/>
    <rect x="100" y="49" width="1" height="1" fill="#3e2c1f"/>
    <rect x="123" y="49" width="1" height="1" fill="#3e2c1f"/>
    <rect x="0" y="50" width="1" height="1" fill="#3e2c1f"/>
    <rect x="15" y="50" width="1" height="1" fill="#3e2c1f"/>
    <rect x="99" y="50" width="1" height="1" fill="#3e2c1f"/>
    <rect x="123" y="50" width="1" height="1" fill="#3e2c1f"/>
    <rect x="0" y="51" width="1" height="1" fill="#3e2c1f"/>
    <rect x="15" y="51" width="1" height="1" fill="#3e2c1f"/>
    <rect x="98" y="51" width="1" height="1" fill="#3e2c1f"/>
    <rect x="123" y="51" width="1" height="1" fill="#3e2c1f"/>
    <rect x="0" y="52" width="1" height="1" fill="#3e2c1f"/>
    <rect x="14" y="52" width="1" height="1" fill="#3e2c1f"/>
    <rect x="97" y="52" width="1" height="1" fill="#3e2c1f"/>
    <rect x="123" y="52" width="1" height="1" fill="#3e2c1f"/>
    <rect x="0" y="53" width="1" height="1" fill="#3e2c1f"/>
    <rect x="14" y="53" width="1" height="1" fill="#3e2c1f"/>
    <rect x="95" y="53" width="2" height="1" fill="#3e2c1f"/>
    <rect x="123" y="53" width="1" height="1" fill="#3e2c1f"/>
    <rect x="0" y="54" width="1" height="1" fill="#3e2c1f"/>
    <rect x="14" y="54" width="1" height="1" fill="#3e2c1f"/>
    <rect x="94" y="54" width="1" height="1" fill="#3e2c1f"/>
    <rect x="123" y="54" width="1" height="1" fill="#3e2c1f"/>
    <rect x="0" y="55" width="1" height="1" fill="#3e2c1f"/>
    <rect x="14" y="55" width="1" height="1" fill="#3e2c1f"/>
    <rect x="93" y="55" width="1" height="1" fill="#3e2c1f"/>
    <rect x="123" y="55" width="1" height="1" fill="#3e2c1f"/>
    <rect x="0" y="56" width="1" height="1" fill="#3e2c1f"/>
    <rect x="13" y="56" width="1" height="1" fill="#3e2c1f"/>
    <rect x="92" y="56" width="1" height="1" fill="#3e2c1f"/>
    <rect x="123" y="56" width="1" height="1" fill="#3e2c1f"/>
    <rect x="0" y="57" width="1" height="1" fill="#3e2c1f"/>
    <rect x="13" y="57" width="1" height="1" fill="#3e2c1f"/>
    <rect x="90" y="57" width="2" height="1" fill="#3e2c1f"/>
    <rect x="123" y="57" width="1" height="1" fill="#3e2c1f"/>
    <rect x="0" y="58" width="1" height="1" fill="#3e2c1f"/>
    <rect x="13" y="58" width="1" height="1" fill="#3e2c1f"/>
    <rect x="89" y="58" width="1" height="1" fill="#3e2c1f"/>
    <rect x="123" y="58" width="1" height="1" fill="#3e2c1f"/>
    <rect x="0" y="59" width="1" height="1" fill="#3e2c1f"/>
    <rect x="12" y="59" width="1" height="1" fill="#3e2c1f"/>
    <rect x="88" y="59" width="1" height="1" fill="#3e2c1f"/>
    <rect x="123" y="59" width="1" height="1" fill="#3e2c1f"/>
    <rect x="0" y="60" width="1" height="1" fill="#3e2c1f"/>
    <rect x="12" y="60" width="1" height="1" fill="#3e2c1f"/>
    <rect x="87" y="60" width="1" height="1" fill="#3e2c1f"/>
    <rect x="123" y="60" width="1" height="1" fill="#3e2c1f"/>
    <rect x="0" y="61" width="1" height="1" fill="#3e2c1f"/>
    <rect x="12" y="61" width="1" height="1" fill="#3e2c1f"/>
    <rect x="85" y="61" width="2" height="1" fill="#3e2c1f"/>
    <rect x="123" y="61" width="1" height="1" fill="#3e2c1f"/>
    <rect x="0" y="62" width="1" height="1" fill="#3e2c1f"/>
    <rect x="12" y="62" width="1" height="1" fill="#3e2c1f"/>
    <rect x="84" y="62" width="1" height="1" fill="#3e2c1f"/>
    <rect x="123" y="62" width="1" height="1" fill="#3e2c1f"/>
    <rect x="0" y="63" width="1" height="1" fill="#3e2c1f"/>
    <rect x="12" y="63" width="1" height="1" fill="#3e2c1f"/>
    <rect x="83" y="63" width="1" height="1" fill="#3e2c1f"/>
    <rect x="123" y="63" width="1" height="1" fill="#3e2c1f"/>
    <rect x="0" y="64" width="1" height="1" fill="#3e2c1f"/>
    <rect x="12" y="64" width="1" height="1" fill="#3e2c1f"/>
    <rect x="81" y="64" width="2" height="1" fill="#3e2c1f"/>
    <rect x="123" y="64" width="1" height="1" fill="#3e2c1f"/>
    <rect x="0" y="65" width="1" height="1" fill="#3e2c1f"/>
    <rect x="12" y="65" width="1" height="1" fill="#3e2c1f"/>
    <rect x="79" y="65" width="2" height="1" fill="#3e2c1f"/>
    <rect x="123" y="65" width="1" height="1" fill="#3e2c1f"/>
    <rect x="0" y="66" width="1" height="1" fill="#3e2c1f"/>
    <rect x="13" y="66" width="1" height="1" fill="#3e2c1f"/>
    <rect x="77" y="66" width="2" height="1" fill="#3e2c1f"/>
    <rect x="123" y="66" width="1" height="1" fill="#3e2c1f"/>
    <rect x="0" y="67" width="1" height="1" fill="#3e2c1f"/>
    <rect x="13" y="67" width="1" height="1" fill="#3e2c1f"/>
    <rect x="76" y="67" width="1" height="1" fill="#3e2c1f"/>
    <rect x="123" y="67" width="1" height="1" fill="#3e2c1f"/>
    <rect x="0" y="68" width="1" height="1" fill="#3e2c1f"/>
    <rect x="13" y="68" width="1" height="1" fill="#3e2c1f"/>
    <rect x="123" y="68" width="1" height="1" fill="#3e2c1f"/>
    <rect x="0" y="69" width="1" height="1" fill="#3e2c1f"/>
    <rect x="14" y="69" width="1" height="1" fill="#3e2c1f"/>
    <rect x="68" y="69" width="3" height="1" fill="#3e2c1f"/>
    <rect x="123" y="69" width="1" height="1" fill="#3e2c1f"/>
    <rect x="0" y="70" width="1" height="1" fill="#3e2c1f"/>
    <rect x="14" y="70" width="1" height="1" fill="#3e2c1f"/>
    <rect x="67" y="70" width="5" height="1" fill="#3e2c1f"/>
    <rect x="123" y="70" width="1" height="1" fill="#3e2c1f"/>
    <rect x="0" y="71" width="1" height="1" fill="#3e2c1f"/>
    <rect x="15" y="71" width="1" height="1" fill="#3e2c1f"/>
    <rect x="62" y="71" width="1" height="1" fill="#3e2c1f"/>
    <rect x="67" y="71" width="5" height="1" fill="#3e2c1f"/>
    <rect x="123" y="71" width="1" height="1" fill="#3e2c1f"/>
    <rect x="0" y="72" width="1" height="1" fill="#3e2c1f"/>
    <rect x="16" y="72" width="1" height="1" fill="#3e2c1f"/>
    <rect x="61" y="72" width="3" height="1" fill="#3e2c1f"/>
    <rect x="67" y="72" width="5" height="1" fill="#3e2c1f"/>
    <rect x="123" y="72" width="1" height="1" fill="#3e2c1f"/>
    <rect x="0" y="73" width="1" height="1" fill="#3e2c1f"/>
    <rect x="17" y="73" width="1" height="1" fill="#3e2c1f"/>
    <rect x="60" y="73" width="5" height="1" fill="#3e2c1f"/>
    <rect x="68" y="73" width="3" height="1" fill="#3e2c1f"/>
    <rect x="123" y="73" width="1" height="1" fill="#3e2c1f"/>
    <rect x="0" y="74" width="1" height="1" fill="#3e2c1f"/>
    <rect x="18" y="74" width="1" height="1" fill="#3e2c1f"/>
    <rect x="59" y="74" width="6" height="1" fill="#3e2c1f"/>
    <rect x="123" y="74" width="1" height="1" fill="#3e2c1f"/>
    <rect x="0" y="75" width="1" height="1" fill="#3e2c1f"/>
    <rect x="19" y="75" width="2" height="1" fill="#3e2c1f"/>
    <rect x="60" y="75" width="5" height="1" fill="#3e2c1f"/>
    <rect x="123" y="75" width="1" height="1" fill="#3e2c1f"/>
    <rect x="0" y="76" width="1" height="1" fill="#3e2c1f"/>
    <rect x="21" y="76" width="3" height="1" fill="#3e2c1f"/>
    <rect x="54" y="76" width="2" height="1" fill="#3e2c1f"/>
    <rect x="61" y="76" width="3" height="1" fill="#3e2c1f"/>
    <rect x="123" y="76" width="1" height="1" fill="#3e2c1f"/>
    <rect x="0" y="77" width="1" height="1" fill="#3e2c1f"/>
    <rect x="24" y="77" width="3" height="1" fill="#3e2c1f"/>
    <rect x="50" y="77" width="4" height="1" fill="#3e2c1f"/>
    <rect x="123" y="77" width="1" height="1" fill="#3e2c1f"/>
    <rect x="0" y="78" width="1" height="1" fill="#3e2c1f"/>
    <rect x="27" y="78" width="4" height="1" fill="#3e2c1f"/>
    <rect x="45" y="78" width="5" height="1" fill="#3e2c1f"/>
    <rect x="123" y="78" width="1" height="1" fill="#3e2c1f"/>
    <rect x="0" y="79" width="1" height="1" fill="#3e2c1f"/>
    <rect x="31" y="79" width="14" height="1" fill="#3e2c1f"/>
    <rect x="123" y="79" width="1" height="1" fill="#3e2c1f"/>
    <rect x="0" y="80" width="1" height="1" fill="#3e2c1f"/>
    <rect x="123" y="80" width="1" height="1" fill="#3e2c1f"/>
    <rect x="0" y="81" width="1" height="1" fill="#3e2c1f"/>
    <rect x="123" y="81" width="1" height="1" fill="#3e2c1f"/>
    <rect x="0" y="82" width="124" height="1" fill="#3e2c1f"/>
  </g>
</svg>