<?xml version="1.0" encoding="UTF-8"?>
<svg xmlns="http://www.w3.org/2000/svg" viewBox="0 0 313 224" width="313" height="224">
  <!-- Auto-converted from legend-358.png -->
  <rect x="0" y="0" width="313" height="224" fill="none"/>
  <g fill="#8eb4d8" stroke="none">
    <rect x="3" y="2" width="307" height="1" fill="#8eb4d8"/>
    <rect x="2" y="3" width="311" height="1" fill="#8eb4d8"/>
    <rect x="2" y="4" width="311" height="1" fill="#8eb4d8"/>
    <rect x="2" y="5" width="311" height="1" fill="#8eb4d8"/>
    <rect x="2" y="6" width="311" height="1" fill="#8eb4d8"/>
    <rect x="2" y="7" width="4" height="1" fill="#8eb4d8"/>
    <rect x="306" y="7" width="7" height="1" fill="#8eb4d8"/>
    <rect x="2" y="8" width="4" height="1" fill="#8eb4d8"/>
    <rect x="306" y="8" width="7" height="1" fill="#8eb4d8"/>
    <rect x="2" y="9" width="4" height="1" fill="#8eb4d8"/>
    <rect x="306" y="9" width="7" height="1" fill="#8eb4d8"/>
    <rect x="2" y="10" width="4" height="1" fill="#8eb4d8"/>
    <rect x="306" y="10" width="7" height="1" fill="#8eb4d8"/>
    <rect x="2" y="11" width="4" height="1" fill="#8eb4d8"/>
    <rect x="306" y="11" width="7" height="1" fill="#8eb4d8"/>
    <rect x="2" y="12" width="4" height="1" fill="#8eb4d8"/>
    <rect x="306" y="12" width="7" height="1" fill="#8eb4d8"/>
    <rect x="2" y="13" width="4" height="1" fill="#8eb4d8"/>
    <rect x="306" y="13" width="7" height="1" fill="#8eb4d8"/>
    <rect x="2" y="14" width="4" height="1" fill="#8eb4d8"/>
    <rect x="306" y="14" width="7" height="1" fill="#8eb4d8"/>
    <rect x="2" y="15" width="4" height="1" fill="#8eb4d8"/>
    <rect x="306" y="15" width="7" height="1" fill="#8eb4d8"/>
    <rect x="2" y="16" width="4" height="1" fill="#8eb4d8"/>
    <rect x="306" y="16" width="7" height="1" fill="#8eb4d8"/>
    <rect x="2" y="17" width="4" height="1" fill="#8eb4d8"/>
    <rect x="306" y="17" width="7" height="1" fill="#8eb4d8"/>
    <rect x="2" y="18" width="4" height="1" fill="#8eb4d8"/>
    <rect x="306" y="18" width="7" height="1" fill="#8eb4d8"/>
    <rect x="2" y="19" width="4" height="1" fill="#8eb4d8"/>
    <rect x="306" y="19" width="7" height="1" fill="#8eb4d8"/>
    <rect x="2" y="20" width="4" height="1" fill="#8eb4d8"/>
    <rect x="306" y="20" width="7" height="1" fill="#8eb4d8"/>
    <rect x="2" y="21" width="4" height="1" fill="#8eb4d8"/>
    <rect x="306" y="21" width="7" height="1" fill="#8eb4d8"/>
    <rect x="2" y="22" width="4" height="1" fill="#8eb4d8"/>
    <rect x="306" y="22" width="7" height="1" fill="#8eb4d8"/>
    <rect x="2" y="23" width="4" height="1" fill="#8eb4d8"/>
    <rect x="306" y="23" width="7" height="1" fill="#8eb4d8"/>
    <rect x="2" y="24" width="4" height="1" fill="#8eb4d8"/>
    <rect x="306" y="24" width="7" height="1" fill="#8eb4d8"/>
    <rect x="2" y="25" width="4" height="1" fill="#8eb4d8"/>
    <rect x="306" y="25" width="7" height="1" fill="#8eb4d8"/>
    <rect x="2" y="26" width="4" height="1" fill="#8eb4d8"/>
    <rect x="306" y="26" width="7" height="1" fill="#8eb4d8"/>
    <rect x="2" y="27" width="4" height="1" fill="#8eb4d8"/>
    <rect x="306" y="27" width="7" height="1" fill="#8eb4d8"/>
    <rect x="2" y="28" width="4" height="1" fill="#8eb4d8"/>
    <rect x="306" y="28" width="7" height="1" fill="#8eb4d8"/>
    <rect x="2" y="29" width="4" height="1" fill="#8eb4d8"/>
    <rect x="306" y="29" width="7" height="1" fill="#8eb4d8"/>
    <rect x="2" y="30" width="4" height="1" fill="#8eb4d8"/>
    <rect x="306" y="30" width="7" height="1" fill="#8eb4d8"/>
    <rect x="2" y="31" width="4" height="1" fill="#8eb4d8"/>
    <rect x="37" y="31" width="233" height="1" fill="#8eb4d8"/>
    <rect x="306" y="31" width="7" height="1" fill="#8eb4d8"/>
    <rect x="2" y="32" width="4" height="1" fill="#8eb4d8"/>
    <rect x="37" y="32" width="234" height="1" fill="#8eb4d8"/>
    <rect x="306" y="32" width="7" height="1" fill="#8eb4d8"/>
    <rect x="2" y="33" width="4" height="1" fill="#8eb4d8"/>
    <rect x="36" y="33" width="235" height="1" fill="#8eb4d8"/>
    <rect x="306" y="33" width="7" height="1" fill="#8eb4d8"/>
    <rect x="2" y="34" width="4" height="1" fill="#8eb4d8"/>
    <rect x="36" y="34" width="235" height="1" fill="#8eb4d8"/>
    <rect x="306" y="34" width="7" height="1" fill="#8eb4d8"/>
    <rect x="2" y="35" width="4" height="1" fill="#8eb4d8"/>
    <rect x="36" y="35" width="235" height="1" fill="#8eb4d8"/>
    <rect x="306" y="35" width="7" height="1" fill="#8eb4d8"/>
    <rect x="2" y="36" width="4" height="1" fill="#8eb4d8"/>
    <rect x="36" y="36" width="235" height="1" fill="#8eb4d8"/>
    <rect x="306" y="36" width="7" height="1" fill="#8eb4d8"/>
    <rect x="2" y="37" width="4" height="1" fill="#8eb4d8"/>
    <rect x="36" y="37" width="235" height="1" fill="#8eb4d8"/>
    <rect x="306" y="37" width="7" height="1" fill="#8eb4d8"/>
    <rect x="2" y="38" width="4" height="1" fill="#8eb4d8"/>
    <rect x="36" y="38" width="235" height="1" fill="#8eb4d8"/>
    <rect x="306" y="38" width="7" height="1" fill="#8eb4d8"/>
    <rect x="2" y="39" width="4" height="1" fill="#8eb4d8"/>
    <rect x="36" y="39" width="235" height="1" fill="#8eb4d8"/>
    <rect x="306" y="39" width="7" height="1" fill="#8eb4d8"/>
    <rect x="2" y="40" width="4" height="1" fill="#8eb4d8"/>
    <rect x="36" y="40" width="235" height="1" fill="#8eb4d8"/>
    <rect x="306" y="40" width="7" height="1" fill="#8eb4d8"/>
    <rect x="2" y="41" width="4" height="1" fill="#8eb4d8"/>
    <rect x="36" y="41" width="235" height="1" fill="#8eb4d8"/>
    <rect x="306" y="41" width="7" height="1" fill="#8eb4d8"/>
    <rect x="2" y="42" width="4" height="1" fill="#8eb4d8"/>
    <rect x="36" y="42" width="235" height="1" fill="#8eb4d8"/>
    <rect x="306" y="42" width="7" height="1" fill="#8eb4d8"/>
    <rect x="2" y="43" width="4" height="1" fill="#8eb4d8"/>
    <rect x="36" y="43" width="235" height="1" fill="#8eb4d8"/>
    <rect x="306" y="43" width="7" height="1" fill="#8eb4d8"/>
    <rect x="2" y="44" width="4" height="1" fill="#8eb4d8"/>
    <rect x="36" y="44" width="235" height="1" fill="#8eb4d8"/>
    <rect x="306" y="44" width="7" height="1" fill="#8eb4d8"/>
    <rect x="2" y="45" width="4" height="1" fill="#8eb4d8"/>
    <rect x="36" y="45" width="235" height="1" fill="#8eb4d8"/>
    <rect x="306" y="45" width="7" height="1" fill="#8eb4d8"/>
    <rect x="2" y="46" width="4" height="1" fill="#8eb4d8"/>
    <rect x="36" y="46" width="235" height="1" fill="#8eb4d8"/>
    <rect x="306" y="46" width="7" height="1" fill="#8eb4d8"/>
    <rect x="2" y="47" width="4" height="1" fill="#8eb4d8"/>
    <rect x="36" y="47" width="235" height="1" fill="#8eb4d8"/>
    <rect x="306" y="47" width="7" height="1" fill="#8eb4d8"/>
    <rect x="2" y="48" width="4" height="1" fill="#8eb4d8"/>
    <rect x="36" y="48" width="235" height="1" fill="#8eb4d8"/>
    <rect x="306" y="48" width="7" height="1" fill="#8eb4d8"/>
    <rect x="2" y="49" width="4" height="1" fill="#8eb4d8"/>
    <rect x="36" y="49" width="235" height="1" fill="#8eb4d8"/>
    <rect x="306" y="49" width="7" height="1" fill="#8eb4d8"/>
    <rect x="2" y="50" width="4" height="1" fill="#8eb4d8"/>
    <rect x="36" y="50" width="235" height="1" fill="#8eb4d8"/>
    <rect x="306" y="50" width="7" height="1" fill="#8eb4d8"/>
    <rect x="2" y="51" width="4" height="1" fill="#8eb4d8"/>
    <rect x="36" y="51" width="235" height="1" fill="#8eb4d8"/>
    <rect x="306" y="51" width="7" height="1" fill="#8eb4d8"/>
    <rect x="2" y="52" width="4" height="1" fill="#8eb4d8"/>
    <rect x="36" y="52" width="235" height="1" fill="#8eb4d8"/>
    <rect x="306" y="52" width="7" height="1" fill="#8eb4d8"/>
    <rect x="2" y="53" width="4" height="1" fill="#8eb4d8"/>
    <rect x="36" y="53" width="235" height="1" fill="#8eb4d8"/>
    <rect x="306" y="53" width="7" height="1" fill="#8eb4d8"/>
    <rect x="2" y="54" width="4" height="1" fill="#8eb4d8"/>
    <rect x="36" y="54" width="235" height="1" fill="#8eb4d8"/>
    <rect x="306" y="54" width="7" height="1" fill="#8eb4d8"/>
    <rect x="2" y="55" width="4" height="1" fill="#8eb4d8"/>
    <rect x="36" y="55" width="235" height="1" fill="#8eb4d8"/>
    <rect x="306" y="55" width="7" height="1" fill="#8eb4d8"/>
    <rect x="2" y="56" width="4" height="1" fill="#8eb4d8"/>
    <rect x="36" y="56" width="235" height="1" fill="#8eb4d8"/>
    <rect x="306" y="56" width="7" height="1" fill="#8eb4d8"/>
    <rect x="2" y="57" width="4" height="1" fill="#8eb4d8"/>
    <rect x="36" y="57" width="235" height="1" fill="#8eb4d8"/>
    <rect x="306" y="57" width="7" height="1" fill="#8eb4d8"/>
    <rect x="2" y="58" width="4" height="1" fill="#8eb4d8"/>
    <rect x="36" y="58" width="235" height="1" fill="#8eb4d8"/>
    <rect x="306" y="58" width="7" height="1" fill="#8eb4d8"/>
    <rect x="2" y="59" width="4" height="1" fill="#8eb4d8"/>
    <rect x="36" y="59" width="235" height="1" fill="#8eb4d8"/>
    <rect x="306" y="59" width="7" height="1" fill="#8eb4d8"/>
    <rect x="2" y="60" width="4" height="1" fill="#8eb4d8"/>
    <rect x="36" y="60" width="235" height="1" fill="#8eb4d8"/>
    <rect x="306" y="60" width="7" height="1" fill="#8eb4d8"/>
    <rect x="2" y="61" width="4" height="1" fill="#8eb4d8"/>
    <rect x="36" y="61" width="235" height="1" fill="#8eb4d8"/>
    <rect x="306" y="61" width="7" height="1" fill="#8eb4d8"/>
    <rect x="2" y="62" width="4" height="1" fill="#8eb4d8"/>
    <rect x="36" y="62" width="235" height="1" fill="#8eb4d8"/>
    <rect x="306" y="62" width="7" height="1" fill="#8eb4d8"/>
    <rect x="2" y="63" width="4" height="1" fill="#8eb4d8"/>
    <rect x="36" y="63" width="235" height="1" fill="#8eb4d8"/>
    <rect x="306" y="63" width="7" height="1" fill="#8eb4d8"/>
    <rect x="2" y="64" width="4" height="1" fill="#8eb4d8"/>
    <rect x="36" y="64" width="235" height="1" fill="#8eb4d8"/>
    <rect x="306" y="64" width="7" height="1" fill="#8eb4d8"/>
    <rect x="2" y="65" width="4" height="1" fill="#8eb4d8"/>
    <rect x="36" y="65" width="235" height="1" fill="#8eb4d8"/>
    <rect x="306" y="65" width="7" height="1" fill="#8eb4d8"/>
    <rect x="2" y="66" width="4" height="1" fill="#8eb4d8"/>
    <rect x="36" y="66" width="235" height="1" fill="#8eb4d8"/>
    <rect x="306" y="66" width="7" height="1" fill="#8eb4d8"/>
    <rect x="2" y="67" width="4" height="1" fill="#8eb4d8"/>
    <rect x="36" y="67" width="235" height="1" fill="#8eb4d8"/>
    <rect x="306" y="67" width="7" height="1" fill="#8eb4d8"/>
    <rect x="2" y="68" width="4" height="1" fill="#8eb4d8"/>
    <rect x="36" y="68" width="235" height="1" fill="#8eb4d8"/>
    <rect x="306" y="68" width="7" height="1" fill="#8eb4d8"/>
    <rect x="2" y="69" width="4" height="1" fill="#8eb4d8"/>
    <rect x="36" y="69" width="235" height="1" fill="#8eb4d8"/>
    <rect x="306" y="69" width="7" height="1" fill="#8eb4d8"/>
    <rect x="2" y="70" width="4" height="1" fill="#8eb4d8"/>
    <rect x="36" y="70" width="235" height="1" fill="#8eb4d8"/>
    <rect x="306" y="70" width="7" height="1" fill="#8eb4d8"/>
    <rect x="2" y="71" width="4" height="1" fill="#8eb4d8"/>
    <rect x="36" y="71" width="235" height="1" fill="#8eb4d8"/>
    <rect x="306" y="71" width="7" height="1" fill="#8eb4d8"/>
    <rect x="2" y="72" width="4" height="1" fill="#8eb4d8"/>
    <rect x="36" y="72" width="235" height="1" fill="#8eb4d8"/>
    <rect x="306" y="72" width="7" height="1" fill="#8eb4d8"/>
    <rect x="2" y="73" width="4" height="1" fill="#8eb4d8"/>
    <rect x="36" y="73" width="235" height="1" fill="#8eb4d8"/>
    <rect x="306" y="73" width="7" height="1" fill="#8eb4d8"/>
    <rect x="2" y="74" width="4" height="1" fill="#8eb4d8"/>
    <rect x="36" y="74" width="235" height="1" fill="#8eb4d8"/>
    <rect x="306" y="74" width="7" height="1" fill="#8eb4d8"/>
    <rect x="2" y="75" width="4" height="1" fill="#8eb4d8"/>
    <rect x="36" y="75" width="235" height="1" fill="#8eb4d8"/>
    <rect x="306" y="75" width="7" height="1" fill="#8eb4d8"/>
    <rect x="2" y="76" width="4" height="1" fill="#8eb4d8"/>
    <rect x="36" y="76" width="235" height="1" fill="#8eb4d8"/>
    <rect x="306" y="76" width="7" height="1" fill="#8eb4d8"/>
    <rect x="2" y="77" width="4" height="1" fill="#8eb4d8"/>
    <rect x="36" y="77" width="235" height="1" fill="#8eb4d8"/>
    <rect x="306" y="77" width="7" height="1" fill="#8eb4d8"/>
    <rect x="2" y="78" width="4" height="1" fill="#8eb4d8"/>
    <rect x="36" y="78" width="235" height="1" fill="#8eb4d8"/>
    <rect x="306" y="78" width="7" height="1" fill="#8eb4d8"/>
    <rect x="2" y="79" width="4" height="1" fill="#8eb4d8"/>
    <rect x="36" y="79" width="235" height="1" fill="#8eb4d8"/>
    <rect x="306" y="79" width="7" height="1" fill="#8eb4d8"/>
    <rect x="2" y="80" width="4" height="1" fill="#8eb4d8"/>
    <rect x="36" y="80" width="235" height="1" fill="#8eb4d8"/>
    <rect x="306" y="80" width="7" height="1" fill="#8eb4d8"/>
    <rect x="2" y="81" width="4" height="1" fill="#8eb4d8"/>
    <rect x="36" y="81" width="235" height="1" fill="#8eb4d8"/>
    <rect x="306" y="81" width="7" height="1" fill="#8eb4d8"/>
    <rect x="2" y="82" width="4" height="1" fill="#8eb4d8"/>
    <rect x="36" y="82" width="235" height="1" fill="#8eb4d8"/>
    <rect x="306" y="82" width="7" height="1" fill="#8eb4d8"/>
    <rect x="2" y="83" width="4" height="1" fill="#8eb4d8"/>
    <rect x="36" y="83" width="235" height="1" fill="#8eb4d8"/>
    <rect x="306" y="83" width="7" height="1" fill="#8eb4d8"/>
    <rect x="2" y="84" width="4" height="1" fill="#8eb4d8"/>
    <rect x="36" y="84" width="235" height="1" fill="#8eb4d8"/>
    <rect x="306" y="84" width="7" height="1" fill="#8eb4d8"/>
    <rect x="2" y="85" width="4" height="1" fill="#8eb4d8"/>
    <rect x="36" y="85" width="235" height="1" fill="#8eb4d8"/>
    <rect x="306" y="85" width="7" height="1" fill="#8eb4d8"/>
    <rect x="2" y="86" width="4" height="1" fill="#8eb4d8"/>
    <rect x="36" y="86" width="235" height="1" fill="#8eb4d8"/>
    <rect x="306" y="86" width="7" height="1" fill="#8eb4d8"/>
    <rect x="2" y="87" width="4" height="1" fill="#8eb4d8"/>
    <rect x="36" y="87" width="235" height="1" fill="#8eb4d8"/>
    <rect x="306" y="87" width="7" height="1" fill="#8eb4d8"/>
    <rect x="2" y="88" width="4" height="1" fill="#8eb4d8"/>
    <rect x="36" y="88" width="235" height="1" fill="#8eb4d8"/>
    <rect x="306" y="88" width="7" height="1" fill="#8eb4d8"/>
    <rect x="2" y="89" width="4" height="1" fill="#8eb4d8"/>
    <rect x="36" y="89" width="235" height="1" fill="#8eb4d8"/>
    <rect x="306" y="89" width="7" height="1" fill="#8eb4d8"/>
    <rect x="2" y="90" width="4" height="1" fill="#8eb4d8"/>
    <rect x="36" y="90" width="235" height="1" fill="#8eb4d8"/>
    <rect x="306" y="90" width="7" height="1" fill="#8eb4d8"/>
    <rect x="2" y="91" width="4" height="1" fill="#8eb4d8"/>
    <rect x="36" y="91" width="235" height="1" fill="#8eb4d8"/>
    <rect x="306" y="91" width="7" height="1" fill="#8eb4d8"/>
    <rect x="2" y="92" width="4" height="1" fill="#8eb4d8"/>
    <rect x="36" y="92" width="235" height="1" fill="#8eb4d8"/>
    <rect x="306" y="92" width="7" height="1" fill="#8eb4d8"/>
    <rect x="2" y="93" width="4" height="1" fill="#8eb4d8"/>
    <rect x="36" y="93" width="235" height="1" fill="#8eb4d8"/>
    <rect x="306" y="93" width="7" height="1" fill="#8eb4d8"/>
    <rect x="2" y="94" width="4" height="1" fill="#8eb4d8"/>
    <rect x="36" y="94" width="235" height="1" fill="#8eb4d8"/>
    <rect x="306" y="94" width="7" height="1" fill="#8eb4d8"/>
    <rect x="2" y="95" width="4" height="1" fill="#8eb4d8"/>
    <rect x="36" y="95" width="235" height="1" fill="#8eb4d8"/>
    <rect x="306" y="95" width="7" height="1" fill="#8eb4d8"/>
    <rect x="2" y="96" width="4" height="1" fill="#8eb4d8"/>
    <rect x="36" y="96" width="235" height="1" fill="#8eb4d8"/>
    <rect x="306" y="96" width="7" height="1" fill="#8eb4d8"/>
    <rect x="2" y="97" width="4" height="1" fill="#8eb4d8"/>
    <rect x="36" y="97" width="235" height="1" fill="#8eb4d8"/>
    <rect x="306" y="97" width="7" height="1" fill="#8eb4d8"/>
    <rect x="2" y="98" width="4" height="1" fill="#8eb4d8"/>
    <rect x="36" y="98" width="235" height="1" fill="#8eb4d8"/>
    <rect x="306" y="98" width="7" height="1" fill="#8eb4d8"/>
    <rect x="2" y="99" width="4" height="1" fill="#8eb4d8"/>
    <rect x="36" y="99" width="235" height="1" fill="#8eb4d8"/>
    <rect x="306" y="99" width="7" height="1" fill="#8eb4d8"/>
    <rect x="2" y="100" width="4" height="1" fill="#8eb4d8"/>
    <rect x="36" y="100" width="235" height="1" fill="#8eb4d8"/>
    <rect x="306" y="100" width="7" height="1" fill="#8eb4d8"/>
    <rect x="2" y="101" width="4" height="1" fill="#8eb4d8"/>
    <rect x="36" y="101" width="235" height="1" fill="#8eb4d8"/>
    <rect x="306" y="101" width="7" height="1" fill="#8eb4d8"/>
    <rect x="2" y="102" width="4" height="1" fill="#8eb4d8"/>
    <rect x="36" y="102" width="235" height="1" fill="#8eb4d8"/>
    <rect x="306" y="102" width="7" height="1" fill="#8eb4d8"/>
    <rect x="2" y="103" width="4" height="1" fill="#8eb4d8"/>
    <rect x="36" y="103" width="235" height="1" fill="#8eb4d8"/>
    <rect x="306" y="103" width="7" height="1" fill="#8eb4d8"/>
    <rect x="2" y="104" width="4" height="1" fill="#8eb4d8"/>
    <rect x="36" y="104" width="235" height="1" fill="#8eb4d8"/>
    <rect x="306" y="104" width="7" height="1" fill="#8eb4d8"/>
    <rect x="2" y="105" width="4" height="1" fill="#8eb4d8"/>
    <rect x="36" y="105" width="235" height="1" fill="#8eb4d8"/>
    <rect x="306" y="105" width="7" height="1" fill="#8eb4d8"/>
    <rect x="2" y="106" width="4" height="1" fill="#8eb4d8"/>
    <rect x="36" y="106" width="235" height="1" fill="#8eb4d8"/>
    <rect x="306" y="106" width="7" height="1" fill="#8eb4d8"/>
    <rect x="2" y="107" width="4" height="1" fill="#8eb4d8"/>
    <rect x="36" y="107" width="235" height="1" fill="#8eb4d8"/>
    <rect x="306" y="107" width="7" height="1" fill="#8eb4d8"/>
    <rect x="2" y="108" width="4" height="1" fill="#8eb4d8"/>
    <rect x="36" y="108" width="235" height="1" fill="#8eb4d8"/>
    <rect x="306" y="108" width="7" height="1" fill="#8eb4d8"/>
    <rect x="2" y="109" width="4" height="1" fill="#8eb4d8"/>
    <rect x="36" y="109" width="235" height="1" fill="#8eb4d8"/>
    <rect x="306" y="109" width="7" height="1" fill="#8eb4d8"/>
    <rect x="2" y="110" width="4" height="1" fill="#8eb4d8"/>
    <rect x="36" y="110" width="235" height="1" fill="#8eb4d8"/>
    <rect x="306" y="110" width="7" height="1" fill="#8eb4d8"/>
    <rect x="2" y="111" width="4" height="1" fill="#8eb4d8"/>
    <rect x="36" y="111" width="235" height="1" fill="#8eb4d8"/>
    <rect x="306" y="111" width="7" height="1" fill="#8eb4d8"/>
    <rect x="2" y="112" width="4" height="1" fill="#8eb4d8"/>
    <rect x="36" y="112" width="235" height="1" fill="#8eb4d8"/>
    <rect x="306" y="112" width="7" height="1" fill="#8eb4d8"/>
    <rect x="2" y="113" width="4" height="1" fill="#8eb4d8"/>
    <rect x="36" y="113" width="235" height="1" fill="#8eb4d8"/>
    <rect x="306" y="113" width="7" height="1" fill="#8eb4d8"/>
    <rect x="2" y="114" width="4" height="1" fill="#8eb4d8"/>
    <rect x="36" y="114" width="235" height="1" fill="#8eb4d8"/>
    <rect x="306" y="114" width="7" height="1" fill="#8eb4d8"/>
    <rect x="2" y="115" width="4" height="1" fill="#8eb4d8"/>
    <rect x="36" y="115" width="235" height="1" fill="#8eb4d8"/>
    <rect x="306" y="115" width="7" height="1" fill="#8eb4d8"/>
    <rect x="2" y="116" width="4" height="1" fill="#8eb4d8"/>
    <rect x="36" y="116" width="235" height="1" fill="#8eb4d8"/>
    <rect x="306" y="116" width="7" height="1" fill="#8eb4d8"/>
    <rect x="2" y="117" width="4" height="1" fill="#8eb4d8"/>
    <rect x="36" y="117" width="235" height="1" fill="#8eb4d8"/>
    <rect x="306" y="117" width="7" height="1" fill="#8eb4d8"/>
    <rect x="2" y="118" width="4" height="1" fill="#8eb4d8"/>
    <rect x="36" y="118" width="235" height="1" fill="#8eb4d8"/>
    <rect x="306" y="118" width="7" height="1" fill="#8eb4d8"/>
    <rect x="2" y="119" width="4" height="1" fill="#8eb4d8"/>
    <rect x="36" y="119" width="235" height="1" fill="#8eb4d8"/>
    <rect x="306" y="119" width="7" height="1" fill="#8eb4d8"/>
    <rect x="2" y="120" width="4" height="1" fill="#8eb4d8"/>
    <rect x="36" y="120" width="235" height="1" fill="#8eb4d8"/>
    <rect x="306" y="120" width="7" height="1" fill="#8eb4d8"/>
    <rect x="2" y="121" width="4" height="1" fill="#8eb4d8"/>
    <rect x="36" y="121" width="235" height="1" fill="#8eb4d8"/>
    <rect x="306" y="121" width="7" height="1" fill="#8eb4d8"/>
    <rect x="2" y="122" width="4" height="1" fill="#8eb4d8"/>
    <rect x="36" y="122" width="235" height="1" fill="#8eb4d8"/>
    <rect x="306" y="122" width="7" height="1" fill="#8eb4d8"/>
    <rect x="2" y="123" width="4" height="1" fill="#8eb4d8"/>
    <rect x="36" y="123" width="235" height="1" fill="#8eb4d8"/>
    <rect x="306" y="123" width="7" height="1" fill="#8eb4d8"/>
    <rect x="2" y="124" width="4" height="1" fill="#8eb4d8"/>
    <rect x="36" y="124" width="235" height="1" fill="#8eb4d8"/>
    <rect x="306" y="124" width="7" height="1" fill="#8eb4d8"/>
    <rect x="2" y="125" width="4" height="1" fill="#8eb4d8"/>
    <rect x="36" y="125" width="235" height="1" fill="#8eb4d8"/>
    <rect x="306" y="125" width="7" height="1" fill="#8eb4d8"/>
    <rect x="2" y="126" width="4" height="1" fill="#8eb4d8"/>
    <rect x="36" y="126" width="235" height="1" fill="#8eb4d8"/>
    <rect x="306" y="126" width="7" height="1" fill="#8eb4d8"/>
    <rect x="2" y="127" width="4" height="1" fill="#8eb4d8"/>
    <rect x="36" y="127" width="235" height="1" fill="#8eb4d8"/>
    <rect x="306" y="127" width="7" height="1" fill="#8eb4d8"/>
    <rect x="2" y="128" width="4" height="1" fill="#8eb4d8"/>
    <rect x="36" y="128" width="235" height="1" fill="#8eb4d8"/>
    <rect x="306" y="128" width="7" height="1" fill="#8eb4d8"/>
    <rect x="2" y="129" width="4" height="1" fill="#8eb4d8"/>
    <rect x="36" y="129" width="235" height="1" fill="#8eb4d8"/>
    <rect x="306" y="129" width="7" height="1" fill="#8eb4d8"/>
    <rect x="2" y="130" width="4" height="1" fill="#8eb4d8"/>
    <rect x="36" y="130" width="235" height="1" fill="#8eb4d8"/>
    <rect x="306" y="130" width="7" height="1" fill="#8eb4d8"/>
    <rect x="2" y="131" width="4" height="1" fill="#8eb4d8"/>
    <rect x="36" y="131" width="235" height="1" fill="#8eb4d8"/>
    <rect x="306" y="131" width="7" height="1" fill="#8eb4d8"/>
    <rect x="2" y="132" width="4" height="1" fill="#8eb4d8"/>
    <rect x="36" y="132" width="235" height="1" fill="#8eb4d8"/>
    <rect x="306" y="132" width="7" height="1" fill="#8eb4d8"/>
    <rect x="2" y="133" width="4" height="1" fill="#8eb4d8"/>
    <rect x="36" y="133" width="235" height="1" fill="#8eb4d8"/>
    <rect x="306" y="133" width="7" height="1" fill="#8eb4d8"/>
    <rect x="2" y="134" width="4" height="1" fill="#8eb4d8"/>
    <rect x="36" y="134" width="235" height="1" fill="#8eb4d8"/>
    <rect x="306" y="134" width="7" height="1" fill="#8eb4d8"/>
    <rect x="2" y="135" width="4" height="1" fill="#8eb4d8"/>
    <rect x="36" y="135" width="235" height="1" fill="#8eb4d8"/>
    <rect x="306" y="135" width="7" height="1" fill="#8eb4d8"/>
    <rect x="2" y="136" width="4" height="1" fill="#8eb4d8"/>
    <rect x="36" y="136" width="235" height="1" fill="#8eb4d8"/>
    <rect x="306" y="136" width="7" height="1" fill="#8eb4d8"/>
    <rect x="2" y="137" width="4" height="1" fill="#8eb4d8"/>
    <rect x="36" y="137" width="235" height="1" fill="#8eb4d8"/>
    <rect x="306" y="137" width="7" height="1" fill="#8eb4d8"/>
    <rect x="2" y="138" width="4" height="1" fill="#8eb4d8"/>
    <rect x="36" y="138" width="235" height="1" fill="#8eb4d8"/>
    <rect x="306" y="138" width="7" height="1" fill="#8eb4d8"/>
    <rect x="2" y="139" width="4" height="1" fill="#8eb4d8"/>
    <rect x="36" y="139" width="235" height="1" fill="#8eb4d8"/>
    <rect x="306" y="139" width="7" height="1" fill="#8eb4d8"/>
    <rect x="2" y="140" width="4" height="1" fill="#8eb4d8"/>
    <rect x="36" y="140" width="235" height="1" fill="#8eb4d8"/>
    <rect x="306" y="140" width="7" height="1" fill="#8eb4d8"/>
    <rect x="2" y="141" width="4" height="1" fill="#8eb4d8"/>
    <rect x="36" y="141" width="235" height="1" fill="#8eb4d8"/>
    <rect x="306" y="141" width="7" height="1" fill="#8eb4d8"/>
    <rect x="2" y="142" width="4" height="1" fill="#8eb4d8"/>
    <rect x="36" y="142" width="235" height="1" fill="#8eb4d8"/>
    <rect x="306" y="142" width="7" height="1" fill="#8eb4d8"/>
    <rect x="2" y="143" width="4" height="1" fill="#8eb4d8"/>
    <rect x="36" y="143" width="235" height="1" fill="#8eb4d8"/>
    <rect x="306" y="143" width="7" height="1" fill="#8eb4d8"/>
    <rect x="2" y="144" width="4" height="1" fill="#8eb4d8"/>
    <rect x="36" y="144" width="235" height="1" fill="#8eb4d8"/>
    <rect x="306" y="144" width="7" height="1" fill="#8eb4d8"/>
    <rect x="2" y="145" width="4" height="1" fill="#8eb4d8"/>
    <rect x="36" y="145" width="235" height="1" fill="#8eb4d8"/>
    <rect x="306" y="145" width="7" height="1" fill="#8eb4d8"/>
    <rect x="2" y="146" width="4" height="1" fill="#8eb4d8"/>
    <rect x="36" y="146" width="235" height="1" fill="#8eb4d8"/>
    <rect x="306" y="146" width="7" height="1" fill="#8eb4d8"/>
    <rect x="2" y="147" width="4" height="1" fill="#8eb4d8"/>
    <rect x="36" y="147" width="235" height="1" fill="#8eb4d8"/>
    <rect x="306" y="147" width="7" height="1" fill="#8eb4d8"/>
    <rect x="2" y="148" width="4" height="1" fill="#8eb4d8"/>
    <rect x="36" y="148" width="235" height="1" fill="#8eb4d8"/>
    <rect x="306" y="148" width="7" height="1" fill="#8eb4d8"/>
    <rect x="2" y="149" width="4" height="1" fill="#8eb4d8"/>
    <rect x="36" y="149" width="235" height="1" fill="#8eb4d8"/>
    <rect x="306" y="149" width="7" height="1" fill="#8eb4d8"/>
    <rect x="2" y="150" width="4" height="1" fill="#8eb4d8"/>
    <rect x="36" y="150" width="235" height="1" fill="#8eb4d8"/>
    <rect x="306" y="150" width="7" height="1" fill="#8eb4d8"/>
    <rect x="2" y="151" width="4" height="1" fill="#8eb4d8"/>
    <rect x="36" y="151" width="235" height="1" fill="#8eb4d8"/>
    <rect x="306" y="151" width="7" height="1" fill="#8eb4d8"/>
    <rect x="2" y="152" width="4" height="1" fill="#8eb4d8"/>
    <rect x="36" y="152" width="235" height="1" fill="#8eb4d8"/>
    <rect x="306" y="152" width="7" height="1" fill="#8eb4d8"/>
    <rect x="2" y="153" width="4" height="1" fill="#8eb4d8"/>
    <rect x="36" y="153" width="235" height="1" fill="#8eb4d8"/>
    <rect x="306" y="153" width="7" height="1" fill="#8eb4d8"/>
    <rect x="2" y="154" width="4" height="1" fill="#8eb4d8"/>
    <rect x="36" y="154" width="235" height="1" fill="#8eb4d8"/>
    <rect x="306" y="154" width="7" height="1" fill="#8eb4d8"/>
    <rect x="2" y="155" width="4" height="1" fill="#8eb4d8"/>
    <rect x="36" y="155" width="235" height="1" fill="#8eb4d8"/>
    <rect x="306" y="155" width="7" height="1" fill="#8eb4d8"/>
    <rect x="2" y="156" width="4" height="1" fill="#8eb4d8"/>
    <rect x="36" y="156" width="235" height="1" fill="#8eb4d8"/>
    <rect x="306" y="156" width="7" height="1" fill="#8eb4d8"/>
    <rect x="2" y="157" width="4" height="1" fill="#8eb4d8"/>
    <rect x="36" y="157" width="235" height="1" fill="#8eb4d8"/>
    <rect x="306" y="157" width="7" height="1" fill="#8eb4d8"/>
    <rect x="2" y="158" width="4" height="1" fill="#8eb4d8"/>
    <rect x="36" y="158" width="235" height="1" fill="#8eb4d8"/>
    <rect x="306" y="158" width="7" height="1" fill="#8eb4d8"/>
    <rect x="2" y="159" width="4" height="1" fill="#8eb4d8"/>
    <rect x="36" y="159" width="235" height="1" fill="#8eb4d8"/>
    <rect x="306" y="159" width="7" height="1" fill="#8eb4d8"/>
    <rect x="2" y="160" width="4" height="1" fill="#8eb4d8"/>
    <rect x="36" y="160" width="235" height="1" fill="#8eb4d8"/>
    <rect x="306" y="160" width="7" height="1" fill="#8eb4d8"/>
    <rect x="2" y="161" width="4" height="1" fill="#8eb4d8"/>
    <rect x="36" y="161" width="235" height="1" fill="#8eb4d8"/>
    <rect x="306" y="161" width="7" height="1" fill="#8eb4d8"/>
    <rect x="2" y="162" width="4" height="1" fill="#8eb4d8"/>
    <rect x="36" y="162" width="235" height="1" fill="#8eb4d8"/>
    <rect x="306" y="162" width="7" height="1" fill="#8eb4d8"/>
    <rect x="2" y="163" width="4" height="1" fill="#8eb4d8"/>
    <rect x="36" y="163" width="235" height="1" fill="#8eb4d8"/>
    <rect x="306" y="163" width="7" height="1" fill="#8eb4d8"/>
    <rect x="2" y="164" width="4" height="1" fill="#8eb4d8"/>
    <rect x="36" y="164" width="235" height="1" fill="#8eb4d8"/>
    <rect x="306" y="164" width="7" height="1" fill="#8eb4d8"/>
    <rect x="2" y="165" width="4" height="1" fill="#8eb4d8"/>
    <rect x="36" y="165" width="235" height="1" fill="#8eb4d8"/>
    <rect x="306" y="165" width="7" height="1" fill="#8eb4d8"/>
    <rect x="2" y="166" width="4" height="1" fill="#8eb4d8"/>
    <rect x="36" y="166" width="235" height="1" fill="#8eb4d8"/>
    <rect x="306" y="166" width="7" height="1" fill="#8eb4d8"/>
    <rect x="2" y="167" width="4" height="1" fill="#8eb4d8"/>
    <rect x="36" y="167" width="235" height="1" fill="#8eb4d8"/>
    <rect x="306" y="167" width="7" height="1" fill="#8eb4d8"/>
    <rect x="2" y="168" width="4" height="1" fill="#8eb4d8"/>
    <rect x="36" y="168" width="235" height="1" fill="#8eb4d8"/>
    <rect x="306" y="168" width="7" height="1" fill="#8eb4d8"/>
    <rect x="2" y="169" width="4" height="1" fill="#8eb4d8"/>
    <rect x="36" y="169" width="235" height="1" fill="#8eb4d8"/>
    <rect x="306" y="169" width="7" height="1" fill="#8eb4d8"/>
    <rect x="2" y="170" width="4" height="1" fill="#8eb4d8"/>
    <rect x="36" y="170" width="235" height="1" fill="#8eb4d8"/>
    <rect x="306" y="170" width="7" height="1" fill="#8eb4d8"/>
    <rect x="2" y="171" width="4" height="1" fill="#8eb4d8"/>
    <rect x="36" y="171" width="235" height="1" fill="#8eb4d8"/>
    <rect x="306" y="171" width="7" height="1" fill="#8eb4d8"/>
    <rect x="2" y="172" width="4" height="1" fill="#8eb4d8"/>
    <rect x="36" y="172" width="235" height="1" fill="#8eb4d8"/>
    <rect x="306" y="172" width="7" height="1" fill="#8eb4d8"/>
    <rect x="2" y="173" width="4" height="1" fill="#8eb4d8"/>
    <rect x="36" y="173" width="235" height="1" fill="#8eb4d8"/>
    <rect x="306" y="173" width="7" height="1" fill="#8eb4d8"/>
    <rect x="2" y="174" width="4" height="1" fill="#8eb4d8"/>
    <rect x="36" y="174" width="235" height="1" fill="#8eb4d8"/>
    <rect x="306" y="174" width="7" height="1" fill="#8eb4d8"/>
    <rect x="2" y="175" width="4" height="1" fill="#8eb4d8"/>
    <rect x="36" y="175" width="235" height="1" fill="#8eb4d8"/>
    <rect x="306" y="175" width="7" height="1" fill="#8eb4d8"/>
    <rect x="2" y="176" width="4" height="1" fill="#8eb4d8"/>
    <rect x="36" y="176" width="235" height="1" fill="#8eb4d8"/>
    <rect x="306" y="176" width="7" height="1" fill="#8eb4d8"/>
    <rect x="2" y="177" width="4" height="1" fill="#8eb4d8"/>
    <rect x="36" y="177" width="235" height="1" fill="#8eb4d8"/>
    <rect x="306" y="177" width="7" height="1" fill="#8eb4d8"/>
    <rect x="2" y="178" width="4" height="1" fill="#8eb4d8"/>
    <rect x="36" y="178" width="235" height="1" fill="#8eb4d8"/>
    <rect x="306" y="178" width="7" height="1" fill="#8eb4d8"/>
    <rect x="2" y="179" width="4" height="1" fill="#8eb4d8"/>
    <rect x="36" y="179" width="235" height="1" fill="#8eb4d8"/>
    <rect x="306" y="179" width="7" height="1" fill="#8eb4d8"/>
    <rect x="2" y="180" width="4" height="1" fill="#8eb4d8"/>
    <rect x="36" y="180" width="235" height="1" fill="#8eb4d8"/>
    <rect x="306" y="180" width="7" height="1" fill="#8eb4d8"/>
    <rect x="2" y="181" width="4" height="1" fill="#8eb4d8"/>
    <rect x="36" y="181" width="235" height="1" fill="#8eb4d8"/>
    <rect x="306" y="181" width="7" height="1" fill="#8eb4d8"/>
    <rect x="2" y="182" width="4" height="1" fill="#8eb4d8"/>
    <rect x="36" y="182" width="235" height="1" fill="#8eb4d8"/>
    <rect x="306" y="182" width="7" height="1" fill="#8eb4d8"/>
    <rect x="2" y="183" width="4" height="1" fill="#8eb4d8"/>
    <rect x="36" y="183" width="235" height="1" fill="#8eb4d8"/>
    <rect x="306" y="183" width="7" height="1" fill="#8eb4d8"/>
    <rect x="2" y="184" width="4" height="1" fill="#8eb4d8"/>
    <rect x="36" y="184" width="235" height="1" fill="#8eb4d8"/>
    <rect x="306" y="184" width="7" height="1" fill="#8eb4d8"/>
    <rect x="2" y="185" width="4" height="1" fill="#8eb4d8"/>
    <rect x="36" y="185" width="235" height="1" fill="#8eb4d8"/>
    <rect x="306" y="185" width="7" height="1" fill="#8eb4d8"/>
    <rect x="2" y="186" width="4" height="1" fill="#8eb4d8"/>
    <rect x="36" y="186" width="235" height="1" fill="#8eb4d8"/>
    <rect x="306" y="186" width="7" height="1" fill="#8eb4d8"/>
    <rect x="2" y="187" width="4" height="1" fill="#8eb4d8"/>
    <rect x="36" y="187" width="235" height="1" fill="#8eb4d8"/>
    <rect x="306" y="187" width="7" height="1" fill="#8eb4d8"/>
    <rect x="2" y="188" width="4" height="1" fill="#8eb4d8"/>
    <rect x="36" y="188" width="235" height="1" fill="#8eb4d8"/>
    <rect x="306" y="188" width="7" height="1" fill="#8eb4d8"/>
    <rect x="2" y="189" width="4" height="1" fill="#8eb4d8"/>
    <rect x="37" y="189" width="233" height="1" fill="#8eb4d8"/>
    <rect x="306" y="189" width="7" height="1" fill="#8eb4d8"/>
    <rect x="2" y="190" width="4" height="1" fill="#8eb4d8"/>
    <rect x="306" y="190" width="7" height="1" fill="#8eb4d8"/>
    <rect x="2" y="191" width="4" height="1" fill="#8eb4d8"/>
    <rect x="306" y="191" width="7" height="1" fill="#8eb4d8"/>
    <rect x="2" y="192" width="4" height="1" fill="#8eb4d8"/>
    <rect x="306" y="192" width="7" height="1" fill="#8eb4d8"/>
    <rect x="2" y="193" width="4" height="1" fill="#8eb4d8"/>
    <rect x="306" y="193" width="7" height="1" fill="#8eb4d8"/>
    <rect x="2" y="194" width="4" height="1" fill="#8eb4d8"/>
    <rect x="306" y="194" width="7" height="1" fill="#8eb4d8"/>
    <rect x="2" y="195" width="4" height="1" fill="#8eb4d8"/>
    <rect x="306" y="195" width="7" height="1" fill="#8eb4d8"/>
    <rect x="2" y="196" width="4" height="1" fill="#8eb4d8"/>
    <rect x="306" y="196" width="7" height="1" fill="#8eb4d8"/>
    <rect x="2" y="197" width="4" height="1" fill="#8eb4d8"/>
    <rect x="306" y="197" width="7" height="1" fill="#8eb4d8"/>
    <rect x="2" y="198" width="4" height="1" fill="#8eb4d8"/>
    <rect x="306" y="198" width="7" height="1" fill="#8eb4d8"/>
    <rect x="2" y="199" width="4" height="1" fill="#8eb4d8"/>
    <rect x="306" y="199" width="7" height="1" fill="#8eb4d8"/>
    <rect x="2" y="200" width="4" height="1" fill="#8eb4d8"/>
    <rect x="306" y="200" width="7" height="1" fill="#8eb4d8"/>
    <rect x="2" y="201" width="4" height="1" fill="#8eb4d8"/>
    <rect x="306" y="201" width="7" height="1" fill="#8eb4d8"/>
    <rect x="2" y="202" width="4" height="1" fill="#8eb4d8"/>
    <rect x="306" y="202" width="7" height="1" fill="#8eb4d8"/>
    <rect x="2" y="203" width="4" height="1" fill="#8eb4d8"/>
    <rect x="306" y="203" width="7" height="1" fill="#8eb4d8"/>
    <rect x="2" y="204" width="4" height="1" fill="#8eb4d8"/>
    <rect x="306" y="204" width="7" height="1" fill="#8eb4d8"/>
    <rect x="2" y="205" width="4" height="1" fill="#8eb4d8"/>
    <rect x="306" y="205" width="7" height="1" fill="#8eb4d8"/>
    <rect x="2" y="206" width="4" height="1" fill="#8eb4d8"/>
    <rect x="306" y="206" width="7" height="1" fill="#8eb4d8"/>
    <rect x="2" y="207" width="4" height="1" fill="#8eb4d8"/>
    <rect x="306" y="207" width="7" height="1" fill="#8eb4d8"/>
    <rect x="2" y="208" width="4" height="1" fill="#8eb4d8"/>
    <rect x="306" y="208" width="7" height="1" fill="#8eb4d8"/>
    <rect x="2" y="209" width="4" height="1" fill="#8eb4d8"/>
    <rect x="306" y="209" width="7" height="1" fill="#8eb4d8"/>
    <rect x="2" y="210" width="4" height="1" fill="#8eb4d8"/>
    <rect x="306" y="210" width="7" height="1" fill="#8eb4d8"/>
    <rect x="2" y="211" width="4" height="1" fill="#8eb4d8"/>
    <rect x="306" y="211" width="7" height="1" fill="#8eb4d8"/>
    <rect x="2" y="212" width="4" height="1" fill="#8eb4d8"/>
    <rect x="306" y="212" width="7" height="1" fill="#8eb4d8"/>
    <rect x="2" y="213" width="4" height="1" fill="#8eb4d8"/>
    <rect x="306" y="213" width="7" height="1" fill="#8eb4d8"/>
    <rect x="2" y="214" width="4" height="1" fill="#8eb4d8"/>
    <rect x="306" y="214" width="7" height="1" fill="#8eb4d8"/>
    <rect x="2" y="215" width="4" height="1" fill="#8eb4d8"/>
    <rect x="306" y="215" width="7" height="1" fill="#8eb4d8"/>
    <rect x="2" y="216" width="4" height="1" fill="#8eb4d8"/>
    <rect x="306" y="216" width="7" height="1" fill="#8eb4d8"/>
    <rect x="2" y="217" width="4" height="1" fill="#8eb4d8"/>
    <rect x="306" y="217" width="7" height="1" fill="#8eb4d8"/>
    <rect x="2" y="218" width="311" height="1" fill="#8eb4d8"/>
    <rect x="2" y="219" width="311" height="1" fill="#8eb4d8"/>
    <rect x="2" y="220" width="311" height="1" fill="#8eb4d8"/>
    <rect x="2" y="221" width="311" height="1" fill="#8eb4d8"/>
    <rect x="3" y="222" width="307" height="1" fill="#8eb4d8"/>
  </g>
</svg>