<?xml version="1.0" encoding="UTF-8"?>
<svg xmlns="http://www.w3.org/2000/svg" viewBox="0 0 900 300" width="900" height="300">
  <!-- Parallel unconformity with tick marks -->
  <g stroke="black" stroke-width="6">
    <line x1="30" y1="120" x2="870" y2="120" />
    <line x1="30" y1="150" x2="870" y2="150" />
    <g>
      <line x1="40" y1="80" x2="40" y2="180" />
      <line x1="80" y1="80" x2="80" y2="180" />
      <line x1="120" y1="80" x2="120" y2="180" />
      <line x1="160" y1="80" x2="160" y2="180" />
      <line x1="200" y1="80" x2="200" y2="180" />
      <line x1="240" y1="80" x2="240" y2="180" />
      <line x1="280" y1="80" x2="280" y2="180" />
      <line x1="320" y1="80" x2="320" y2="180" />
      <line x1="360" y1="80" x2="360" y2="180" />
      <line x1="400" y1="80" x2="400" y2="180" />
      <line x1="440" y1="80" x2="440" y2="180" />
      <line x1="480" y1="80" x2="480" y2="180" />
      <line x="520" y="80" x="520" y="180" />
      <line x="560" y="80" x="560" y="180" />
      <line x="600" y="80" x="600" y="180" />
      <line x="640" y="80" x="640" y="180" />
      <line x="680" y="80" x="680" y="180" />
      <line x="720" y="80" x="720" y="180" />
      <line x="760" y="80" x="760" y="180" />
      <line x="800" y="80" x="800" y="180" />
      <line x="840" y="80" x="840" y="180" />
    </g>
  </g>
</svg>
