<?xml version="1.0" encoding="UTF-8"?>
<svg xmlns="http://www.w3.org/2000/svg" viewBox="0 0 149 79" width="149" height="79">
  <!-- Auto-converted from legend-184.png -->
  <rect x="0" y="0" width="149" height="79" fill="none"/>
  <g fill="#231f20" stroke="none">
    <rect x="0" y="0" width="149" height="1" fill="#231f20"/>
    <rect x="0" y="1" width="1" height="1" fill="#231f20"/>
    <rect x="148" y="1" width="1" height="1" fill="#231f20"/>
    <rect x="0" y="2" width="1" height="1" fill="#231f20"/>
    <rect x="148" y="2" width="1" height="1" fill="#231f20"/>
    <rect x="0" y="3" width="1" height="1" fill="#231f20"/>
    <rect x="148" y="3" width="1" height="1" fill="#231f20"/>
    <rect x="0" y="4" width="1" height="1" fill="#231f20"/>
    <rect x="148" y="4" width="1" height="1" fill="#231f20"/>
    <rect x="0" y="5" width="1" height="1" fill="#231f20"/>
    <rect x="148" y="5" width="1" height="1" fill="#231f20"/>
    <rect x="0" y="6" width="1" height="1" fill="#231f20"/>
    <rect x="148" y="6" width="1" height="1" fill="#231f20"/>
    <rect x="0" y="7" width="1" height="1" fill="#231f20"/>
    <rect x="148" y="7" width="1" height="1" fill="#231f20"/>
    <rect x="0" y="8" width="1" height="1" fill="#231f20"/>
    <rect x="148" y="8" width="1" height="1" fill="#231f20"/>
    <rect x="0" y="9" width="1" height="1" fill="#231f20"/>
    <rect x="148" y="9" width="1" height="1" fill="#231f20"/>
    <rect x="0" y="10" width="1" height="1" fill="#231f20"/>
    <rect x="148" y="10" width="1" height="1" fill="#231f20"/>
    <rect x="0" y="11" width="1" height="1" fill="#231f20"/>
    <rect x="148" y="11" width="1" height="1" fill="#231f20"/>
    <rect x="0" y="12" width="1" height="1" fill="#231f20"/>
    <rect x="148" y="12" width="1" height="1" fill="#231f20"/>
    <rect x="0" y="13" width="1" height="1" fill="#231f20"/>
    <rect x="101" y="13" width="1" height="1" fill="#231f20"/>
    <rect x="148" y="13" width="1" height="1" fill="#231f20"/>
    <rect x="0" y="14" width="1" height="1" fill="#231f20"/>
    <rect x="100" y="14" width="3" height="1" fill="#231f20"/>
    <rect x="148" y="14" width="1" height="1" fill="#231f20"/>
    <rect x="0" y="15" width="1" height="1" fill="#231f20"/>
    <rect x="26" y="15" width="2" height="1" fill="#231f20"/>
    <rect x="55" y="15" width="2" height="1" fill="#231f20"/>
    <rect x="90" y="15" width="1" height="1" fill="#231f20"/>
    <rect x="100" y="15" width="3" height="1" fill="#231f20"/>
    <rect x="148" y="15" width="1" height="1" fill="#231f20"/>
    <rect x="0" y="16" width="1" height="1" fill="#231f20"/>
    <rect x="26" y="16" width="2" height="1" fill="#231f20"/>
    <rect x="54" y="16" width="3" height="1" fill="#231f20"/>
    <rect x="90" y="16" width="2" height="1" fill="#231f20"/>
    <rect x="148" y="16" width="1" height="1" fill="#231f20"/>
    <rect x="0" y="17" width="1" height="1" fill="#231f20"/>
    <rect x="27" y="17" width="1" height="1" fill="#231f20"/>
    <rect x="55" y="17" width="2" height="1" fill="#231f20"/>
    <rect x="65" y="17" width="3" height="1" fill="#231f20"/>
    <rect x="90" y="17" width="2" height="1" fill="#231f20"/>
    <rect x="93" y="17" width="3" height="1" fill="#231f20"/>
    <rect x="148" y="17" width="1" height="1" fill="#231f20"/>
    <rect x="0" y="18" width="1" height="1" fill="#231f20"/>
    <rect x="15" y="18" width="3" height="1" fill="#231f20"/>
    <rect x="23" y="18" width="3" height="1" fill="#231f20"/>
    <rect x="65" y="18" width="3" height="1" fill="#231f20"/>
    <rect x="93" y="18" width="3" height="1" fill="#231f20"/>
    <rect x="98" y="18" width="2" height="1" fill="#231f20"/>
    <rect x="148" y="18" width="1" height="1" fill="#231f20"/>
    <rect x="0" y="19" width="1" height="1" fill="#231f20"/>
    <rect x="15" y="19" width="3" height="1" fill="#231f20"/>
    <rect x="23" y="19" width="3" height="1" fill="#231f20"/>
    <rect x="61" y="19" width="3" height="1" fill="#231f20"/>
    <rect x="66" y="19" width="1" height="1" fill="#231f20"/>
    <rect x="94" y="19" width="1" height="1" fill="#231f20"/>
    <rect x="97" y="19" width="1" height="1" fill="#231f20"/>
    <rect x="100" y="19" width="1" height="1" fill="#231f20"/>
    <rect x="148" y="19" width="1" height="1" fill="#231f20"/>
    <rect x="0" y="20" width="1" height="1" fill="#231f20"/>
    <rect x="16" y="20" width="1" height="1" fill="#231f20"/>
    <rect x="24" y="20" width="1" height="1" fill="#231f20"/>
    <rect x="57" y="20" width="3" height="1" fill="#231f20"/>
    <rect x="62" y="20" width="2" height="1" fill="#231f20"/>
    <rect x="97" y="20" width="1" height="1" fill="#231f20"/>
    <rect x="100" y="20" width="1" height="1" fill="#231f20"/>
    <rect x="148" y="20" width="1" height="1" fill="#231f20"/>
    <rect x="0" y="21" width="1" height="1" fill="#231f20"/>
    <rect x="20" y="21" width="3" height="1" fill="#231f20"/>
    <rect x="56" y="21" width="1" height="1" fill="#231f20"/>
    <rect x="59" y="21" width="1" height="1" fill="#231f20"/>
    <rect x="97" y="21" width="1" height="1" fill="#231f20"/>
    <rect x="100" y="21" width="1" height="1" fill="#231f20"/>
    <rect x="148" y="21" width="1" height="1" fill="#231f20"/>
    <rect x="0" y="22" width="1" height="1" fill="#231f20"/>
    <rect x="19" y="22" width="1" height="1" fill="#231f20"/>
    <rect x="23" y="22" width="1" height="1" fill="#231f20"/>
    <rect x="56" y="22" width="1" height="1" fill="#231f20"/>
    <rect x="59" y="22" width="2" height="1" fill="#231f20"/>
    <rect x="98" y="22" width="2" height="1" fill="#231f20"/>
    <rect x="148" y="22" width="1" height="1" fill="#231f20"/>
    <rect x="0" y="23" width="1" height="1" fill="#231f20"/>
    <rect x="19" y="23" width="1" height="1" fill="#231f20"/>
    <rect x="23" y="23" width="1" height="1" fill="#231f20"/>
    <rect x="57" y="23" width="3" height="1" fill="#231f20"/>
    <rect x="148" y="23" width="1" height="1" fill="#231f20"/>
    <rect x="0" y="24" width="1" height="1" fill="#231f20"/>
    <rect x="20" y="24" width="3" height="1" fill="#231f20"/>
    <rect x="148" y="24" width="1" height="1" fill="#231f20"/>
    <rect x="0" y="25" width="1" height="1" fill="#231f20"/>
    <rect x="95" y="25" width="3" height="1" fill="#231f20"/>
    <rect x="148" y="25" width="1" height="1" fill="#231f20"/>
    <rect x="0" y="26" width="1" height="1" fill="#231f20"/>
    <rect x="25" y="26" width="2" height="1" fill="#231f20"/>
    <rect x="60" y="26" width="2" height="1" fill="#231f20"/>
    <rect x="95" y="26" width="3" height="1" fill="#231f20"/>
    <rect x="148" y="26" width="1" height="1" fill="#231f20"/>
    <rect x="0" y="27" width="1" height="1" fill="#231f20"/>
    <rect x="25" y="27" width="2" height="1" fill="#231f20"/>
    <rect x="60" y="27" width="2" height="1" fill="#231f20"/>
    <rect x="148" y="27" width="1" height="1" fill="#231f20"/>
    <rect x="0" y="28" width="1" height="1" fill="#231f20"/>
    <rect x="60" y="28" width="2" height="1" fill="#231f20"/>
    <rect x="148" y="28" width="1" height="1" fill="#231f20"/>
    <rect x="0" y="29" width="1" height="1" fill="#231f20"/>
    <rect x="148" y="29" width="1" height="1" fill="#231f20"/>
    <rect x="0" y="30" width="1" height="1" fill="#231f20"/>
    <rect x="148" y="30" width="1" height="1" fill="#231f20"/>
    <rect x="0" y="31" width="1" height="1" fill="#231f20"/>
    <rect x="148" y="31" width="1" height="1" fill="#231f20"/>
    <rect x="0" y="32" width="1" height="1" fill="#231f20"/>
    <rect x="148" y="32" width="1" height="1" fill="#231f20"/>
    <rect x="0" y="33" width="1" height="1" fill="#231f20"/>
    <rect x="148" y="33" width="1" height="1" fill="#231f20"/>
    <rect x="0" y="34" width="1" height="1" fill="#231f20"/>
    <rect x="148" y="34" width="1" height="1" fill="#231f20"/>
    <rect x="0" y="35" width="1" height="1" fill="#231f20"/>
    <rect x="121" y="35" width="2" height="1" fill="#231f20"/>
    <rect x="148" y="35" width="1" height="1" fill="#231f20"/>
    <rect x="0" y="36" width="1" height="1" fill="#231f20"/>
    <rect x="83" y="36" width="3" height="1" fill="#231f20"/>
    <rect x="121" y="36" width="2" height="1" fill="#231f20"/>
    <rect x="148" y="36" width="1" height="1" fill="#231f20"/>
    <rect x="0" y="37" width="1" height="1" fill="#231f20"/>
    <rect x="83" y="37" width="3" height="1" fill="#231f20"/>
    <rect x="148" y="37" width="1" height="1" fill="#231f20"/>
    <rect x="0" y="38" width="1" height="1" fill="#231f20"/>
    <rect x="148" y="38" width="1" height="1" fill="#231f20"/>
    <rect x="0" y="39" width="1" height="1" fill="#231f20"/>
    <rect x="73" y="39" width="2" height="1" fill="#231f20"/>
    <rect x="81" y="39" width="2" height="1" fill="#231f20"/>
    <rect x="148" y="39" width="1" height="1" fill="#231f20"/>
    <rect x="0" y="40" width="1" height="1" fill="#231f20"/>
    <rect x="32" y="40" width="3" height="1" fill="#231f20"/>
    <rect x="73" y="40" width="3" height="1" fill="#231f20"/>
    <rect x="81" y="40" width="3" height="1" fill="#231f20"/>
    <rect x="118" y="40" width="3" height="1" fill="#231f20"/>
    <rect x="148" y="40" width="1" height="1" fill="#231f20"/>
    <rect x="0" y="41" width="1" height="1" fill="#231f20"/>
    <rect x="32" y="41" width="3" height="1" fill="#231f20"/>
    <rect x="73" y="41" width="2" height="1" fill="#231f20"/>
    <rect x="82" y="41" width="1" height="1" fill="#231f20"/>
    <rect x="117" y="41" width="1" height="1" fill="#231f20"/>
    <rect x="121" y="41" width="1" height="1" fill="#231f20"/>
    <rect x="148" y="41" width="1" height="1" fill="#231f20"/>
    <rect x="0" y="42" width="1" height="1" fill="#231f20"/>
    <rect x="33" y="42" width="1" height="1" fill="#231f20"/>
    <rect x="37" y="42" width="4" height="1" fill="#231f20"/>
    <rect x="78" y="42" width="2" height="1" fill="#231f20"/>
    <rect x="117" y="42" width="1" height="1" fill="#231f20"/>
    <rect x="121" y="42" width="1" height="1" fill="#231f20"/>
    <rect x="123" y="42" width="2" height="1" fill="#231f20"/>
    <rect x="148" y="42" width="1" height="1" fill="#231f20"/>
    <rect x="0" y="43" width="1" height="1" fill="#231f20"/>
    <rect x="37" y="43" width="1" height="1" fill="#231f20"/>
    <rect x="40" y="43" width="1" height="1" fill="#231f20"/>
    <rect x="77" y="43" width="1" height="1" fill="#231f20"/>
    <rect x="80" y="43" width="1" height="1" fill="#231f20"/>
    <rect x="118" y="43" width="3" height="1" fill="#231f20"/>
    <rect x="123" y="43" width="3" height="1" fill="#231f20"/>
    <rect x="148" y="43" width="1" height="1" fill="#231f20"/>
    <rect x="0" y="44" width="1" height="1" fill="#231f20"/>
    <rect x="37" y="44" width="1" height="1" fill="#231f20"/>
    <rect x="40" y="44" width="1" height="1" fill="#231f20"/>
    <rect x="77" y="44" width="1" height="1" fill="#231f20"/>
    <rect x="80" y="44" width="1" height="1" fill="#231f20"/>
    <rect x="123" y="44" width="3" height="1" fill="#231f20"/>
    <rect x="127" y="44" width="2" height="1" fill="#231f20"/>
    <rect x="148" y="44" width="1" height="1" fill="#231f20"/>
    <rect x="0" y="45" width="1" height="1" fill="#231f20"/>
    <rect x="37" y="45" width="4" height="1" fill="#231f20"/>
    <rect x="44" y="45" width="1" height="1" fill="#231f20"/>
    <rect x="77" y="45" width="4" height="1" fill="#231f20"/>
    <rect x="126" y="45" width="3" height="1" fill="#231f20"/>
    <rect x="148" y="45" width="1" height="1" fill="#231f20"/>
    <rect x="0" y="46" width="1" height="1" fill="#231f20"/>
    <rect x="43" y="46" width="3" height="1" fill="#231f20"/>
    <rect x="79" y="46" width="1" height="1" fill="#231f20"/>
    <rect x="84" y="46" width="1" height="1" fill="#231f20"/>
    <rect x="116" y="46" width="3" height="1" fill="#231f20"/>
    <rect x="148" y="46" width="1" height="1" fill="#231f20"/>
    <rect x="0" y="47" width="1" height="1" fill="#231f20"/>
    <rect x="36" y="47" width="2" height="1" fill="#231f20"/>
    <rect x="43" y="47" width="3" height="1" fill="#231f20"/>
    <rect x="83" y="47" width="2" height="1" fill="#231f20"/>
    <rect x="116" y="47" width="3" height="1" fill="#231f20"/>
    <rect x="148" y="47" width="1" height="1" fill="#231f20"/>
    <rect x="0" y="48" width="1" height="1" fill="#231f20"/>
    <rect x="35" y="48" width="3" height="1" fill="#231f20"/>
    <rect x="83" y="48" width="2" height="1" fill="#231f20"/>
    <rect x="116" y="48" width="2" height="1" fill="#231f20"/>
    <rect x="148" y="48" width="1" height="1" fill="#231f20"/>
    <rect x="0" y="49" width="1" height="1" fill="#231f20"/>
    <rect x="36" y="49" width="2" height="1" fill="#231f20"/>
    <rect x="148" y="49" width="1" height="1" fill="#231f20"/>
    <rect x="0" y="50" width="1" height="1" fill="#231f20"/>
    <rect x="148" y="50" width="1" height="1" fill="#231f20"/>
    <rect x="0" y="51" width="1" height="1" fill="#231f20"/>
    <rect x="34" y="51" width="2" height="1" fill="#231f20"/>
    <rect x="148" y="51" width="1" height="1" fill="#231f20"/>
    <rect x="0" y="52" width="1" height="1" fill="#231f20"/>
    <rect x="34" y="52" width="2" height="1" fill="#231f20"/>
    <rect x="148" y="52" width="1" height="1" fill="#231f20"/>
    <rect x="0" y="53" width="1" height="1" fill="#231f20"/>
    <rect x="148" y="53" width="1" height="1" fill="#231f20"/>
    <rect x="0" y="54" width="1" height="1" fill="#231f20"/>
    <rect x="148" y="54" width="1" height="1" fill="#231f20"/>
    <rect x="0" y="55" width="1" height="1" fill="#231f20"/>
    <rect x="94" y="55" width="2" height="1" fill="#231f20"/>
    <rect x="105" y="55" width="1" height="1" fill="#231f20"/>
    <rect x="148" y="55" width="1" height="1" fill="#231f20"/>
    <rect x="0" y="56" width="1" height="1" fill="#231f20"/>
    <rect x="56" y="56" width="2" height="1" fill="#231f20"/>
    <rect x="93" y="56" width="3" height="1" fill="#231f20"/>
    <rect x="104" y="56" width="3" height="1" fill="#231f20"/>
    <rect x="148" y="56" width="1" height="1" fill="#231f20"/>
    <rect x="0" y="57" width="1" height="1" fill="#231f20"/>
    <rect x="23" y="57" width="3" height="1" fill="#231f20"/>
    <rect x="55" y="57" width="3" height="1" fill="#231f20"/>
    <rect x="67" y="57" width="2" height="1" fill="#231f20"/>
    <rect x="93" y="57" width="3" height="1" fill="#231f20"/>
    <rect x="97" y="57" width="2" height="1" fill="#231f20"/>
    <rect x="105" y="57" width="1" height="1" fill="#231f20"/>
    <rect x="148" y="57" width="1" height="1" fill="#231f20"/>
    <rect x="0" y="58" width="1" height="1" fill="#231f20"/>
    <rect x="23" y="58" width="3" height="1" fill="#231f20"/>
    <rect x="56" y="58" width="2" height="1" fill="#231f20"/>
    <rect x="66" y="58" width="3" height="1" fill="#231f20"/>
    <rect x="96" y="58" width="3" height="1" fill="#231f20"/>
    <rect x="148" y="58" width="1" height="1" fill="#231f20"/>
    <rect x="0" y="59" width="1" height="1" fill="#231f20"/>
    <rect x="63" y="59" width="3" height="1" fill="#231f20"/>
    <rect x="67" y="59" width="2" height="1" fill="#231f20"/>
    <rect x="97" y="59" width="2" height="1" fill="#231f20"/>
    <rect x="101" y="59" width="2" height="1" fill="#231f20"/>
    <rect x="148" y="59" width="1" height="1" fill="#231f20"/>
    <rect x="0" y="60" width="1" height="1" fill="#231f20"/>
    <rect x="13" y="60" width="2" height="1" fill="#231f20"/>
    <rect x="21" y="60" width="2" height="1" fill="#231f20"/>
    <rect x="63" y="60" width="3" height="1" fill="#231f20"/>
    <rect x="100" y="60" width="1" height="1" fill="#231f20"/>
    <rect x="103" y="60" width="1" height="1" fill="#231f20"/>
    <rect x="148" y="60" width="1" height="1" fill="#231f20"/>
    <rect x="0" y="61" width="1" height="1" fill="#231f20"/>
    <rect x="13" y="61" width="3" height="1" fill="#231f20"/>
    <rect x="21" y="61" width="3" height="1" fill="#231f20"/>
    <rect x="58" y="61" width="4" height="1" fill="#231f20"/>
    <rect x="63" y="61" width="2" height="1" fill="#231f20"/>
    <rect x="100" y="61" width="1" height="1" fill="#231f20"/>
    <rect x="103" y="61" width="1" height="1" fill="#231f20"/>
    <rect x="148" y="61" width="1" height="1" fill="#231f20"/>
    <rect x="0" y="62" width="1" height="1" fill="#231f20"/>
    <rect x="13" y="62" width="2" height="1" fill="#231f20"/>
    <rect x="22" y="62" width="1" height="1" fill="#231f20"/>
    <rect x="58" y="62" width="1" height="1" fill="#231f20"/>
    <rect x="61" y="62" width="1" height="1" fill="#231f20"/>
    <rect x="100" y="62" width="1" height="1" fill="#231f20"/>
    <rect x="103" y="62" width="1" height="1" fill="#231f20"/>
    <rect x="148" y="62" width="1" height="1" fill="#231f20"/>
    <rect x="0" y="63" width="1" height="1" fill="#231f20"/>
    <rect x="18" y="63" width="2" height="1" fill="#231f20"/>
    <rect x="58" y="63" width="1" height="1" fill="#231f20"/>
    <rect x="61" y="63" width="1" height="1" fill="#231f20"/>
    <rect x="101" y="63" width="2" height="1" fill="#231f20"/>
    <rect x="148" y="63" width="1" height="1" fill="#231f20"/>
    <rect x="0" y="64" width="1" height="1" fill="#231f20"/>
    <rect x="17" y="64" width="1" height="1" fill="#231f20"/>
    <rect x="20" y="64" width="1" height="1" fill="#231f20"/>
    <rect x="58" y="64" width="4" height="1" fill="#231f20"/>
    <rect x="148" y="64" width="1" height="1" fill="#231f20"/>
    <rect x="0" y="65" width="1" height="1" fill="#231f20"/>
    <rect x="17" y="65" width="1" height="1" fill="#231f20"/>
    <rect x="20" y="65" width="1" height="1" fill="#231f20"/>
    <rect x="98" y="65" width="2" height="1" fill="#231f20"/>
    <rect x="148" y="65" width="1" height="1" fill="#231f20"/>
    <rect x="0" y="66" width="1" height="1" fill="#231f20"/>
    <rect x="17" y="66" width="4" height="1" fill="#231f20"/>
    <rect x="97" y="66" width="3" height="1" fill="#231f20"/>
    <rect x="148" y="66" width="1" height="1" fill="#231f20"/>
    <rect x="0" y="67" width="1" height="1" fill="#231f20"/>
    <rect x="19" y="67" width="1" height="1" fill="#231f20"/>
    <rect x="62" y="67" width="2" height="1" fill="#231f20"/>
    <rect x="97" y="67" width="3" height="1" fill="#231f20"/>
    <rect x="148" y="67" width="1" height="1" fill="#231f20"/>
    <rect x="0" y="68" width="1" height="1" fill="#231f20"/>
    <rect x="23" y="68" width="2" height="1" fill="#231f20"/>
    <rect x="61" y="68" width="3" height="1" fill="#231f20"/>
    <rect x="148" y="68" width="1" height="1" fill="#231f20"/>
    <rect x="0" y="69" width="1" height="1" fill="#231f20"/>
    <rect x="23" y="69" width="2" height="1" fill="#231f20"/>
    <rect x="62" y="69" width="2" height="1" fill="#231f20"/>
    <rect x="148" y="69" width="1" height="1" fill="#231f20"/>
    <rect x="0" y="70" width="1" height="1" fill="#231f20"/>
    <rect x="148" y="70" width="1" height="1" fill="#231f20"/>
    <rect x="0" y="71" width="1" height="1" fill="#231f20"/>
    <rect x="148" y="71" width="1" height="1" fill="#231f20"/>
    <rect x="0" y="72" width="1" height="1" fill="#231f20"/>
    <rect x="148" y="72" width="1" height="1" fill="#231f20"/>
    <rect x="0" y="73" width="1" height="1" fill="#231f20"/>
    <rect x="148" y="73" width="1" height="1" fill="#231f20"/>
    <rect x="0" y="74" width="1" height="1" fill="#231f20"/>
    <rect x="148" y="74" width="1" height="1" fill="#231f20"/>
    <rect x="0" y="75" width="1" height="1" fill="#231f20"/>
    <rect x="148" y="75" width="1" height="1" fill="#231f20"/>
    <rect x="0" y="76" width="1" height="1" fill="#231f20"/>
    <rect x="148" y="76" width="1" height="1" fill="#231f20"/>
    <rect x="0" y="77" width="1" height="1" fill="#231f20"/>
    <rect x="148" y="77" width="1" height="1" fill="#231f20"/>
    <rect x="0" y="78" width="149" height="1" fill="#231f20"/>
  </g>
</svg>