<?xml version="1.0" encoding="UTF-8"?>
<svg xmlns="http://www.w3.org/2000/svg" viewBox="0 0 122 81" width="122" height="81">
  <!-- Auto-converted from legend-383.png -->
  <rect x="0" y="0" width="122" height="81" fill="none"/>
  <g fill="#231f20" stroke="none">
    <rect x="0" y="0" width="122" height="1" fill="#231f20"/>
    <rect x="0" y="1" width="1" height="1" fill="#231f20"/>
    <rect x="121" y="1" width="1" height="1" fill="#231f20"/>
    <rect x="0" y="2" width="1" height="1" fill="#231f20"/>
    <rect x="121" y="2" width="1" height="1" fill="#231f20"/>
    <rect x="0" y="3" width="1" height="1" fill="#231f20"/>
    <rect x="121" y="3" width="1" height="1" fill="#231f20"/>
    <rect x="0" y="4" width="1" height="1" fill="#231f20"/>
    <rect x="121" y="4" width="1" height="1" fill="#231f20"/>
    <rect x="0" y="5" width="1" height="1" fill="#231f20"/>
    <rect x="121" y="5" width="1" height="1" fill="#231f20"/>
    <rect x="0" y="6" width="1" height="1" fill="#231f20"/>
    <rect x="121" y="6" width="1" height="1" fill="#231f20"/>
    <rect x="0" y="7" width="1" height="1" fill="#231f20"/>
    <rect x="114" y="7" width="1" height="1" fill="#231f20"/>
    <rect x="121" y="7" width="1" height="1" fill="#231f20"/>
    <rect x="0" y="8" width="1" height="1" fill="#231f20"/>
    <rect x="112" y="8" width="3" height="1" fill="#231f20"/>
    <rect x="121" y="8" width="1" height="1" fill="#231f20"/>
    <rect x="0" y="9" width="1" height="1" fill="#231f20"/>
    <rect x="111" y="9" width="4" height="1" fill="#231f20"/>
    <rect x="121" y="9" width="1" height="1" fill="#231f20"/>
    <rect x="0" y="10" width="1" height="1" fill="#231f20"/>
    <rect x="110" y="10" width="5" height="1" fill="#231f20"/>
    <rect x="121" y="10" width="1" height="1" fill="#231f20"/>
    <rect x="0" y="11" width="1" height="1" fill="#231f20"/>
    <rect x="108" y="11" width="6" height="1" fill="#231f20"/>
    <rect x="121" y="11" width="1" height="1" fill="#231f20"/>
    <rect x="0" y="12" width="1" height="1" fill="#231f20"/>
    <rect x="107" y="12" width="6" height="1" fill="#231f20"/>
    <rect x="121" y="12" width="1" height="1" fill="#231f20"/>
    <rect x="0" y="13" width="1" height="1" fill="#231f20"/>
    <rect x="107" y="13" width="6" height="1" fill="#231f20"/>
    <rect x="121" y="13" width="1" height="1" fill="#231f20"/>
    <rect x="0" y="14" width="1" height="1" fill="#231f20"/>
    <rect x="106" y="14" width="6" height="1" fill="#231f20"/>
    <rect x="121" y="14" width="1" height="1" fill="#231f20"/>
    <rect x="0" y="15" width="1" height="1" fill="#231f20"/>
    <rect x="105" y="15" width="7" height="1" fill="#231f20"/>
    <rect x="121" y="15" width="1" height="1" fill="#231f20"/>
    <rect x="0" y="16" width="1" height="1" fill="#231f20"/>
    <rect x="103" y="16" width="8" height="1" fill="#231f20"/>
    <rect x="121" y="16" width="1" height="1" fill="#231f20"/>
    <rect x="0" y="17" width="1" height="1" fill="#231f20"/>
    <rect x="102" y="17" width="8" height="1" fill="#231f20"/>
    <rect x="121" y="17" width="1" height="1" fill="#231f20"/>
    <rect x="0" y="18" width="1" height="1" fill="#231f20"/>
    <rect x="102" y="18" width="8" height="1" fill="#231f20"/>
    <rect x="121" y="18" width="1" height="1" fill="#231f20"/>
    <rect x="0" y="19" width="1" height="1" fill="#231f20"/>
    <rect x="100" y="19" width="9" height="1" fill="#231f20"/>
    <rect x="121" y="19" width="1" height="1" fill="#231f20"/>
    <rect x="0" y="20" width="1" height="1" fill="#231f20"/>
    <rect x="99" y="20" width="9" height="1" fill="#231f20"/>
    <rect x="121" y="20" width="1" height="1" fill="#231f20"/>
    <rect x="0" y="21" width="1" height="1" fill="#231f20"/>
    <rect x="98" y="21" width="9" height="1" fill="#231f20"/>
    <rect x="121" y="21" width="1" height="1" fill="#231f20"/>
    <rect x="0" y="22" width="1" height="1" fill="#231f20"/>
    <rect x="97" y="22" width="10" height="1" fill="#231f20"/>
    <rect x="121" y="22" width="1" height="1" fill="#231f20"/>
    <rect x="0" y="23" width="1" height="1" fill="#231f20"/>
    <rect x="95" y="23" width="11" height="1" fill="#231f20"/>
    <rect x="121" y="23" width="1" height="1" fill="#231f20"/>
    <rect x="0" y="24" width="1" height="1" fill="#231f20"/>
    <rect x="94" y="24" width="12" height="1" fill="#231f20"/>
    <rect x="121" y="24" width="1" height="1" fill="#231f20"/>
    <rect x="0" y="25" width="1" height="1" fill="#231f20"/>
    <rect x="93" y="25" width="12" height="1" fill="#231f20"/>
    <rect x="121" y="25" width="1" height="1" fill="#231f20"/>
    <rect x="0" y="26" width="1" height="1" fill="#231f20"/>
    <rect x="92" y="26" width="11" height="1" fill="#231f20"/>
    <rect x="121" y="26" width="1" height="1" fill="#231f20"/>
    <rect x="0" y="27" width="1" height="1" fill="#231f20"/>
    <rect x="91" y="27" width="12" height="1" fill="#231f20"/>
    <rect x="121" y="27" width="1" height="1" fill="#231f20"/>
    <rect x="0" y="28" width="1" height="1" fill="#231f20"/>
    <rect x="89" y="28" width="13" height="1" fill="#231f20"/>
    <rect x="121" y="28" width="1" height="1" fill="#231f20"/>
    <rect x="0" y="29" width="1" height="1" fill="#231f20"/>
    <rect x="87" y="29" width="14" height="1" fill="#231f20"/>
    <rect x="121" y="29" width="1" height="1" fill="#231f20"/>
    <rect x="0" y="30" width="1" height="1" fill="#231f20"/>
    <rect x="86" y="30" width="14" height="1" fill="#231f20"/>
    <rect x="121" y="30" width="1" height="1" fill="#231f20"/>
    <rect x="0" y="31" width="1" height="1" fill="#231f20"/>
    <rect x="63" y="31" width="1" height="1" fill="#231f20"/>
    <rect x="85" y="31" width="15" height="1" fill="#231f20"/>
    <rect x="121" y="31" width="1" height="1" fill="#231f20"/>
    <rect x="0" y="32" width="1" height="1" fill="#231f20"/>
    <rect x="63" y="32" width="2" height="1" fill="#231f20"/>
    <rect x="84" y="32" width="15" height="1" fill="#231f20"/>
    <rect x="121" y="32" width="1" height="1" fill="#231f20"/>
    <rect x="0" y="33" width="1" height="1" fill="#231f20"/>
    <rect x="63" y="33" width="3" height="1" fill="#231f20"/>
    <rect x="82" y="33" width="17" height="1" fill="#231f20"/>
    <rect x="121" y="33" width="1" height="1" fill="#231f20"/>
    <rect x="0" y="34" width="1" height="1" fill="#231f20"/>
    <rect x="63" y="34" width="3" height="1" fill="#231f20"/>
    <rect x="80" y="34" width="18" height="1" fill="#231f20"/>
    <rect x="121" y="34" width="1" height="1" fill="#231f20"/>
    <rect x="0" y="35" width="1" height="1" fill="#231f20"/>
    <rect x="63" y="35" width="4" height="1" fill="#231f20"/>
    <rect x="78" y="35" width="19" height="1" fill="#231f20"/>
    <rect x="121" y="35" width="1" height="1" fill="#231f20"/>
    <rect x="0" y="36" width="1" height="1" fill="#231f20"/>
    <rect x="63" y="36" width="3" height="1" fill="#231f20"/>
    <rect x="75" y="36" width="21" height="1" fill="#231f20"/>
    <rect x="121" y="36" width="1" height="1" fill="#231f20"/>
    <rect x="0" y="37" width="1" height="1" fill="#231f20"/>
    <rect x="65" y="37" width="1" height="1" fill="#231f20"/>
    <rect x="72" y="37" width="23" height="1" fill="#231f20"/>
    <rect x="121" y="37" width="1" height="1" fill="#231f20"/>
    <rect x="0" y="38" width="1" height="1" fill="#231f20"/>
    <rect x="65" y="38" width="1" height="1" fill="#231f20"/>
    <rect x="69" y="38" width="24" height="1" fill="#231f20"/>
    <rect x="121" y="38" width="1" height="1" fill="#231f20"/>
    <rect x="0" y="39" width="1" height="1" fill="#231f20"/>
    <rect x="65" y="39" width="28" height="1" fill="#231f20"/>
    <rect x="121" y="39" width="1" height="1" fill="#231f20"/>
    <rect x="0" y="40" width="1" height="1" fill="#231f20"/>
    <rect x="58" y="40" width="34" height="1" fill="#231f20"/>
    <rect x="121" y="40" width="1" height="1" fill="#231f20"/>
    <rect x="0" y="41" width="1" height="1" fill="#231f20"/>
    <rect x="51" y="41" width="40" height="1" fill="#231f20"/>
    <rect x="121" y="41" width="1" height="1" fill="#231f20"/>
    <rect x="0" y="42" width="1" height="1" fill="#231f20"/>
    <rect x="44" y="42" width="46" height="1" fill="#231f20"/>
    <rect x="121" y="42" width="1" height="1" fill="#231f20"/>
    <rect x="0" y="43" width="1" height="1" fill="#231f20"/>
    <rect x="42" y="43" width="46" height="1" fill="#231f20"/>
    <rect x="121" y="43" width="1" height="1" fill="#231f20"/>
    <rect x="0" y="44" width="1" height="1" fill="#231f20"/>
    <rect x="40" y="44" width="47" height="1" fill="#231f20"/>
    <rect x="121" y="44" width="1" height="1" fill="#231f20"/>
    <rect x="0" y="45" width="1" height="1" fill="#231f20"/>
    <rect x="38" y="45" width="47" height="1" fill="#231f20"/>
    <rect x="121" y="45" width="1" height="1" fill="#231f20"/>
    <rect x="0" y="46" width="1" height="1" fill="#231f20"/>
    <rect x="35" y="46" width="48" height="1" fill="#231f20"/>
    <rect x="121" y="46" width="1" height="1" fill="#231f20"/>
    <rect x="0" y="47" width="1" height="1" fill="#231f20"/>
    <rect x="33" y="47" width="48" height="1" fill="#231f20"/>
    <rect x="121" y="47" width="1" height="1" fill="#231f20"/>
    <rect x="0" y="48" width="1" height="1" fill="#231f20"/>
    <rect x="32" y="48" width="47" height="1" fill="#231f20"/>
    <rect x="121" y="48" width="1" height="1" fill="#231f20"/>
    <rect x="0" y="49" width="1" height="1" fill="#231f20"/>
    <rect x="30" y="49" width="47" height="1" fill="#231f20"/>
    <rect x="121" y="49" width="1" height="1" fill="#231f20"/>
    <rect x="0" y="50" width="1" height="1" fill="#231f20"/>
    <rect x="29" y="50" width="46" height="1" fill="#231f20"/>
    <rect x="121" y="50" width="1" height="1" fill="#231f20"/>
    <rect x="0" y="51" width="1" height="1" fill="#231f20"/>
    <rect x="27" y="51" width="44" height="1" fill="#231f20"/>
    <rect x="121" y="51" width="1" height="1" fill="#231f20"/>
    <rect x="0" y="52" width="1" height="1" fill="#231f20"/>
    <rect x="25" y="52" width="45" height="1" fill="#231f20"/>
    <rect x="121" y="52" width="1" height="1" fill="#231f20"/>
    <rect x="0" y="53" width="1" height="1" fill="#231f20"/>
    <rect x="24" y="53" width="38" height="1" fill="#231f20"/>
    <rect x="69" y="53" width="1" height="1" fill="#231f20"/>
    <rect x="121" y="53" width="1" height="1" fill="#231f20"/>
    <rect x="0" y="54" width="1" height="1" fill="#231f20"/>
    <rect x="22" y="54" width="34" height="1" fill="#231f20"/>
    <rect x="69" y="54" width="1" height="1" fill="#231f20"/>
    <rect x="121" y="54" width="1" height="1" fill="#231f20"/>
    <rect x="0" y="55" width="1" height="1" fill="#231f20"/>
    <rect x="21" y="55" width="30" height="1" fill="#231f20"/>
    <rect x="69" y="55" width="2" height="1" fill="#231f20"/>
    <rect x="121" y="55" width="1" height="1" fill="#231f20"/>
    <rect x="0" y="56" width="1" height="1" fill="#231f20"/>
    <rect x="20" y="56" width="26" height="1" fill="#231f20"/>
    <rect x="70" y="56" width="2" height="1" fill="#231f20"/>
    <rect x="121" y="56" width="1" height="1" fill="#231f20"/>
    <rect x="0" y="57" width="1" height="1" fill="#231f20"/>
    <rect x="18" y="57" width="22" height="1" fill="#231f20"/>
    <rect x="68" y="57" width="4" height="1" fill="#231f20"/>
    <rect x="121" y="57" width="1" height="1" fill="#231f20"/>
    <rect x="0" y="58" width="1" height="1" fill="#231f20"/>
    <rect x="17" y="58" width="15" height="1" fill="#231f20"/>
    <rect x="69" y="58" width="3" height="1" fill="#231f20"/>
    <rect x="121" y="58" width="1" height="1" fill="#231f20"/>
    <rect x="0" y="59" width="1" height="1" fill="#231f20"/>
    <rect x="16" y="59" width="12" height="1" fill="#231f20"/>
    <rect x="70" y="59" width="2" height="1" fill="#231f20"/>
    <rect x="121" y="59" width="1" height="1" fill="#231f20"/>
    <rect x="0" y="60" width="1" height="1" fill="#231f20"/>
    <rect x="15" y="60" width="8" height="1" fill="#231f20"/>
    <rect x="71" y="60" width="1" height="1" fill="#231f20"/>
    <rect x="121" y="60" width="1" height="1" fill="#231f20"/>
    <rect x="0" y="61" width="1" height="1" fill="#231f20"/>
    <rect x="14" y="61" width="6" height="1" fill="#231f20"/>
    <rect x="121" y="61" width="1" height="1" fill="#231f20"/>
    <rect x="0" y="62" width="1" height="1" fill="#231f20"/>
    <rect x="13" y="62" width="4" height="1" fill="#231f20"/>
    <rect x="121" y="62" width="1" height="1" fill="#231f20"/>
    <rect x="0" y="63" width="1" height="1" fill="#231f20"/>
    <rect x="13" y="63" width="2" height="1" fill="#231f20"/>
    <rect x="121" y="63" width="1" height="1" fill="#231f20"/>
    <rect x="0" y="64" width="1" height="1" fill="#231f20"/>
    <rect x="121" y="64" width="1" height="1" fill="#231f20"/>
    <rect x="0" y="65" width="1" height="1" fill="#231f20"/>
    <rect x="121" y="65" width="1" height="1" fill="#231f20"/>
    <rect x="0" y="66" width="1" height="1" fill="#231f20"/>
    <rect x="121" y="66" width="1" height="1" fill="#231f20"/>
    <rect x="0" y="67" width="1" height="1" fill="#231f20"/>
    <rect x="121" y="67" width="1" height="1" fill="#231f20"/>
    <rect x="0" y="68" width="1" height="1" fill="#231f20"/>
    <rect x="121" y="68" width="1" height="1" fill="#231f20"/>
    <rect x="0" y="69" width="1" height="1" fill="#231f20"/>
    <rect x="121" y="69" width="1" height="1" fill="#231f20"/>
    <rect x="0" y="70" width="1" height="1" fill="#231f20"/>
    <rect x="121" y="70" width="1" height="1" fill="#231f20"/>
    <rect x="0" y="71" width="1" height="1" fill="#231f20"/>
    <rect x="121" y="71" width="1" height="1" fill="#231f20"/>
    <rect x="0" y="72" width="1" height="1" fill="#231f20"/>
    <rect x="121" y="72" width="1" height="1" fill="#231f20"/>
    <rect x="0" y="73" width="1" height="1" fill="#231f20"/>
    <rect x="121" y="73" width="1" height="1" fill="#231f20"/>
    <rect x="0" y="74" width="1" height="1" fill="#231f20"/>
    <rect x="121" y="74" width="1" height="1" fill="#231f20"/>
    <rect x="0" y="75" width="1" height="1" fill="#231f20"/>
    <rect x="121" y="75" width="1" height="1" fill="#231f20"/>
    <rect x="0" y="76" width="1" height="1" fill="#231f20"/>
    <rect x="121" y="76" width="1" height="1" fill="#231f20"/>
    <rect x="0" y="77" width="1" height="1" fill="#231f20"/>
    <rect x="121" y="77" width="1" height="1" fill="#231f20"/>
    <rect x="0" y="78" width="1" height="1" fill="#231f20"/>
    <rect x="121" y="78" width="1" height="1" fill="#231f20"/>
    <rect x="0" y="79" width="1" height="1" fill="#231f20"/>
    <rect x="121" y="79" width="1" height="1" fill="#231f20"/>
    <rect x="0" y="80" width="122" height="1" fill="#231f20"/>
  </g>
</svg>