<?xml version="1.0" encoding="UTF-8"?>
<svg xmlns="http://www.w3.org/2000/svg" viewBox="0 0 152 61" width="152" height="61">
  <!-- Auto-converted from legend-2073.png -->
  <rect x="0" y="0" width="152" height="61" fill="none"/>
  <g fill="#231f20" stroke="none">
    <rect x="0" y="0" width="152" height="1" fill="#231f20"/>
    <rect x="0" y="1" width="1" height="1" fill="#231f20"/>
    <rect x="151" y="1" width="1" height="1" fill="#231f20"/>
    <rect x="0" y="2" width="1" height="1" fill="#231f20"/>
    <rect x="151" y="2" width="1" height="1" fill="#231f20"/>
    <rect x="0" y="3" width="1" height="1" fill="#231f20"/>
    <rect x="151" y="3" width="1" height="1" fill="#231f20"/>
    <rect x="0" y="4" width="1" height="1" fill="#231f20"/>
    <rect x="151" y="4" width="1" height="1" fill="#231f20"/>
    <rect x="0" y="5" width="1" height="1" fill="#231f20"/>
    <rect x="151" y="5" width="1" height="1" fill="#231f20"/>
    <rect x="0" y="6" width="1" height="1" fill="#231f20"/>
    <rect x="7" y="6" width="138" height="1" fill="#231f20"/>
    <rect x="151" y="6" width="1" height="1" fill="#231f20"/>
    <rect x="0" y="7" width="1" height="1" fill="#231f20"/>
    <rect x="6" y="7" width="140" height="1" fill="#231f20"/>
    <rect x="151" y="7" width="1" height="1" fill="#231f20"/>
    <rect x="0" y="8" width="1" height="1" fill="#231f20"/>
    <rect x="7" y="8" width="138" height="1" fill="#231f20"/>
    <rect x="151" y="8" width="1" height="1" fill="#231f20"/>
    <rect x="0" y="9" width="1" height="1" fill="#231f20"/>
    <rect x="52" y="9" width="3" height="1" fill="#231f20"/>
    <rect x="60" y="9" width="3" height="1" fill="#231f20"/>
    <rect x="64" y="9" width="3" height="1" fill="#231f20"/>
    <rect x="79" y="9" width="2" height="1" fill="#231f20"/>
    <rect x="99" y="9" width="2" height="1" fill="#231f20"/>
    <rect x="103" y="9" width="4" height="1" fill="#231f20"/>
    <rect x="151" y="9" width="1" height="1" fill="#231f20"/>
    <rect x="0" y="10" width="1" height="1" fill="#231f20"/>
    <rect x="51" y="10" width="5" height="1" fill="#231f20"/>
    <rect x="61" y="10" width="1" height="1" fill="#231f20"/>
    <rect x="65" y="10" width="3" height="1" fill="#231f20"/>
    <rect x="73" y="10" width="2" height="1" fill="#231f20"/>
    <rect x="79" y="10" width="2" height="1" fill="#231f20"/>
    <rect x="85" y="10" width="2" height="1" fill="#231f20"/>
    <rect x="99" y="10" width="2" height="1" fill="#231f20"/>
    <rect x="103" y="10" width="4" height="1" fill="#231f20"/>
    <rect x="151" y="10" width="1" height="1" fill="#231f20"/>
    <rect x="0" y="11" width="1" height="1" fill="#231f20"/>
    <rect x="51" y="11" width="6" height="1" fill="#231f20"/>
    <rect x="66" y="11" width="2" height="1" fill="#231f20"/>
    <rect x="73" y="11" width="3" height="1" fill="#231f20"/>
    <rect x="84" y="11" width="3" height="1" fill="#231f20"/>
    <rect x="92" y="11" width="3" height="1" fill="#231f20"/>
    <rect x="97" y="11" width="3" height="1" fill="#231f20"/>
    <rect x="102" y="11" width="4" height="1" fill="#231f20"/>
    <rect x="151" y="11" width="1" height="1" fill="#231f20"/>
    <rect x="0" y="12" width="1" height="1" fill="#231f20"/>
    <rect x="51" y="12" width="3" height="1" fill="#231f20"/>
    <rect x="55" y="12" width="2" height="1" fill="#231f20"/>
    <rect x="58" y="12" width="3" height="1" fill="#231f20"/>
    <rect x="66" y="12" width="2" height="1" fill="#231f20"/>
    <rect x="73" y="12" width="2" height="1" fill="#231f20"/>
    <rect x="85" y="12" width="2" height="1" fill="#231f20"/>
    <rect x="92" y="12" width="3" height="1" fill="#231f20"/>
    <rect x="97" y="12" width="3" height="1" fill="#231f20"/>
    <rect x="102" y="12" width="4" height="1" fill="#231f20"/>
    <rect x="151" y="12" width="1" height="1" fill="#231f20"/>
    <rect x="0" y="13" width="1" height="1" fill="#231f20"/>
    <rect x="50" y="13" width="4" height="1" fill="#231f20"/>
    <rect x="59" y="13" width="2" height="1" fill="#231f20"/>
    <rect x="93" y="13" width="1" height="1" fill="#231f20"/>
    <rect x="98" y="13" width="1" height="1" fill="#231f20"/>
    <rect x="102" y="13" width="3" height="1" fill="#231f20"/>
    <rect x="151" y="13" width="1" height="1" fill="#231f20"/>
    <rect x="0" y="14" width="1" height="1" fill="#231f20"/>
    <rect x="50" y="14" width="4" height="1" fill="#231f20"/>
    <rect x="75" y="14" width="2" height="1" fill="#231f20"/>
    <rect x="82" y="14" width="2" height="1" fill="#231f20"/>
    <rect x="86" y="14" width="3" height="1" fill="#231f20"/>
    <rect x="101" y="14" width="4" height="1" fill="#231f20"/>
    <rect x="151" y="14" width="1" height="1" fill="#231f20"/>
    <rect x="0" y="15" width="1" height="1" fill="#231f20"/>
    <rect x="49" y="15" width="5" height="1" fill="#231f20"/>
    <rect x="65" y="15" width="2" height="1" fill="#231f20"/>
    <rect x="72" y="15" width="2" height="1" fill="#231f20"/>
    <rect x="75" y="15" width="2" height="1" fill="#231f20"/>
    <rect x="82" y="15" width="2" height="1" fill="#231f20"/>
    <rect x="86" y="15" width="2" height="1" fill="#231f20"/>
    <rect x="101" y="15" width="4" height="1" fill="#231f20"/>
    <rect x="151" y="15" width="1" height="1" fill="#231f20"/>
    <rect x="0" y="16" width="1" height="1" fill="#231f20"/>
    <rect x="48" y="16" width="7" height="1" fill="#231f20"/>
    <rect x="58" y="16" width="1" height="1" fill="#231f20"/>
    <rect x="62" y="16" width="1" height="1" fill="#231f20"/>
    <rect x="65" y="16" width="2" height="1" fill="#231f20"/>
    <rect x="72" y="16" width="2" height="1" fill="#231f20"/>
    <rect x="75" y="16" width="2" height="1" fill="#231f20"/>
    <rect x="82" y="16" width="2" height="1" fill="#231f20"/>
    <rect x="90" y="16" width="3" height="1" fill="#231f20"/>
    <rect x="100" y="16" width="4" height="1" fill="#231f20"/>
    <rect x="151" y="16" width="1" height="1" fill="#231f20"/>
    <rect x="0" y="17" width="1" height="1" fill="#231f20"/>
    <rect x="47" y="17" width="5" height="1" fill="#231f20"/>
    <rect x="53" y="17" width="3" height="1" fill="#231f20"/>
    <rect x="57" y="17" width="2" height="1" fill="#231f20"/>
    <rect x="61" y="17" width="3" height="1" fill="#231f20"/>
    <rect x="68" y="17" width="2" height="1" fill="#231f20"/>
    <rect x="78" y="17" width="1" height="1" fill="#231f20"/>
    <rect x="83" y="17" width="2" height="1" fill="#231f20"/>
    <rect x="91" y="17" width="2" height="1" fill="#231f20"/>
    <rect x="96" y="17" width="2" height="1" fill="#231f20"/>
    <rect x="100" y="17" width="4" height="1" fill="#231f20"/>
    <rect x="151" y="17" width="1" height="1" fill="#231f20"/>
    <rect x="0" y="18" width="1" height="1" fill="#231f20"/>
    <rect x="46" y="18" width="5" height="1" fill="#231f20"/>
    <rect x="57" y="18" width="2" height="1" fill="#231f20"/>
    <rect x="62" y="18" width="2" height="1" fill="#231f20"/>
    <rect x="68" y="18" width="2" height="1" fill="#231f20"/>
    <rect x="77" y="18" width="2" height="1" fill="#231f20"/>
    <rect x="83" y="18" width="3" height="1" fill="#231f20"/>
    <rect x="96" y="18" width="2" height="1" fill="#231f20"/>
    <rect x="100" y="18" width="4" height="1" fill="#231f20"/>
    <rect x="151" y="18" width="1" height="1" fill="#231f20"/>
    <rect x="0" y="19" width="1" height="1" fill="#231f20"/>
    <rect x="46" y="19" width="6" height="1" fill="#231f20"/>
    <rect x="68" y="19" width="1" height="1" fill="#231f20"/>
    <rect x="72" y="19" width="2" height="1" fill="#231f20"/>
    <rect x="77" y="19" width="2" height="1" fill="#231f20"/>
    <rect x="84" y="19" width="1" height="1" fill="#231f20"/>
    <rect x="89" y="19" width="2" height="1" fill="#231f20"/>
    <rect x="100" y="19" width="3" height="1" fill="#231f20"/>
    <rect x="151" y="19" width="1" height="1" fill="#231f20"/>
    <rect x="0" y="20" width="1" height="1" fill="#231f20"/>
    <rect x="46" y="20" width="6" height="1" fill="#231f20"/>
    <rect x="55" y="20" width="2" height="1" fill="#231f20"/>
    <rect x="71" y="20" width="3" height="1" fill="#231f20"/>
    <rect x="81" y="20" width="2" height="1" fill="#231f20"/>
    <rect x="85" y="20" width="2" height="1" fill="#231f20"/>
    <rect x="89" y="20" width="3" height="1" fill="#231f20"/>
    <rect x="93" y="20" width="2" height="1" fill="#231f20"/>
    <rect x="100" y="20" width="3" height="1" fill="#231f20"/>
    <rect x="151" y="20" width="1" height="1" fill="#231f20"/>
    <rect x="0" y="21" width="1" height="1" fill="#231f20"/>
    <rect x="46" y="21" width="3" height="1" fill="#231f20"/>
    <rect x="51" y="21" width="1" height="1" fill="#231f20"/>
    <rect x="54" y="21" width="3" height="1" fill="#231f20"/>
    <rect x="72" y="21" width="2" height="1" fill="#231f20"/>
    <rect x="81" y="21" width="2" height="1" fill="#231f20"/>
    <rect x="85" y="21" width="3" height="1" fill="#231f20"/>
    <rect x="89" y="21" width="2" height="1" fill="#231f20"/>
    <rect x="93" y="21" width="3" height="1" fill="#231f20"/>
    <rect x="99" y="21" width="4" height="1" fill="#231f20"/>
    <rect x="151" y="21" width="1" height="1" fill="#231f20"/>
    <rect x="0" y="22" width="1" height="1" fill="#231f20"/>
    <rect x="46" y="22" width="3" height="1" fill="#231f20"/>
    <rect x="81" y="22" width="1" height="1" fill="#231f20"/>
    <rect x="86" y="22" width="1" height="1" fill="#231f20"/>
    <rect x="94" y="22" width="1" height="1" fill="#231f20"/>
    <rect x="98" y="22" width="5" height="1" fill="#231f20"/>
    <rect x="151" y="22" width="1" height="1" fill="#231f20"/>
    <rect x="0" y="23" width="1" height="1" fill="#231f20"/>
    <rect x="46" y="23" width="3" height="1" fill="#231f20"/>
    <rect x="51" y="23" width="2" height="1" fill="#231f20"/>
    <rect x="57" y="23" width="2" height="1" fill="#231f20"/>
    <rect x="67" y="23" width="2" height="1" fill="#231f20"/>
    <rect x="73" y="23" width="2" height="1" fill="#231f20"/>
    <rect x="79" y="23" width="2" height="1" fill="#231f20"/>
    <rect x="98" y="23" width="6" height="1" fill="#231f20"/>
    <rect x="151" y="23" width="1" height="1" fill="#231f20"/>
    <rect x="0" y="24" width="1" height="1" fill="#231f20"/>
    <rect x="46" y="24" width="3" height="1" fill="#231f20"/>
    <rect x="51" y="24" width="2" height="1" fill="#231f20"/>
    <rect x="57" y="24" width="3" height="1" fill="#231f20"/>
    <rect x="63" y="24" width="2" height="1" fill="#231f20"/>
    <rect x="67" y="24" width="2" height="1" fill="#231f20"/>
    <rect x="73" y="24" width="2" height="1" fill="#231f20"/>
    <rect x="78" y="24" width="3" height="1" fill="#231f20"/>
    <rect x="94" y="24" width="2" height="1" fill="#231f20"/>
    <rect x="100" y="24" width="4" height="1" fill="#231f20"/>
    <rect x="151" y="24" width="1" height="1" fill="#231f20"/>
    <rect x="0" y="25" width="1" height="1" fill="#231f20"/>
    <rect x="46" y="25" width="3" height="1" fill="#231f20"/>
    <rect x="51" y="25" width="1" height="1" fill="#231f20"/>
    <rect x="62" y="25" width="3" height="1" fill="#231f20"/>
    <rect x="86" y="25" width="2" height="1" fill="#231f20"/>
    <rect x="93" y="25" width="3" height="1" fill="#231f20"/>
    <rect x="101" y="25" width="3" height="1" fill="#231f20"/>
    <rect x="151" y="25" width="1" height="1" fill="#231f20"/>
    <rect x="0" y="26" width="1" height="1" fill="#231f20"/>
    <rect x="46" y="26" width="4" height="1" fill="#231f20"/>
    <rect x="55" y="26" width="2" height="1" fill="#231f20"/>
    <rect x="75" y="26" width="2" height="1" fill="#231f20"/>
    <rect x="86" y="26" width="2" height="1" fill="#231f20"/>
    <rect x="94" y="26" width="1" height="1" fill="#231f20"/>
    <rect x="99" y="26" width="5" height="1" fill="#231f20"/>
    <rect x="151" y="26" width="1" height="1" fill="#231f20"/>
    <rect x="0" y="27" width="1" height="1" fill="#231f20"/>
    <rect x="46" y="27" width="4" height="1" fill="#231f20"/>
    <rect x="55" y="27" width="2" height="1" fill="#231f20"/>
    <rect x="59" y="27" width="3" height="1" fill="#231f20"/>
    <rect x="75" y="27" width="2" height="1" fill="#231f20"/>
    <rect x="87" y="27" width="1" height="1" fill="#231f20"/>
    <rect x="99" y="27" width="5" height="1" fill="#231f20"/>
    <rect x="151" y="27" width="1" height="1" fill="#231f20"/>
    <rect x="0" y="28" width="1" height="1" fill="#231f20"/>
    <rect x="47" y="28" width="6" height="1" fill="#231f20"/>
    <rect x="55" y="28" width="1" height="1" fill="#231f20"/>
    <rect x="60" y="28" width="2" height="1" fill="#231f20"/>
    <rect x="65" y="28" width="2" height="1" fill="#231f20"/>
    <rect x="71" y="28" width="2" height="1" fill="#231f20"/>
    <rect x="82" y="28" width="1" height="1" fill="#231f20"/>
    <rect x="87" y="28" width="1" height="1" fill="#231f20"/>
    <rect x="95" y="28" width="2" height="1" fill="#231f20"/>
    <rect x="100" y="28" width="4" height="1" fill="#231f20"/>
    <rect x="151" y="28" width="1" height="1" fill="#231f20"/>
    <rect x="0" y="29" width="1" height="1" fill="#231f20"/>
    <rect x="47" y="29" width="6" height="1" fill="#231f20"/>
    <rect x="65" y="29" width="2" height="1" fill="#231f20"/>
    <rect x="71" y="29" width="2" height="1" fill="#231f20"/>
    <rect x="81" y="29" width="3" height="1" fill="#231f20"/>
    <rect x="86" y="29" width="3" height="1" fill="#231f20"/>
    <rect x="95" y="29" width="2" height="1" fill="#231f20"/>
    <rect x="101" y="29" width="4" height="1" fill="#231f20"/>
    <rect x="151" y="29" width="1" height="1" fill="#231f20"/>
    <rect x="0" y="30" width="1" height="1" fill="#231f20"/>
    <rect x="48" y="30" width="5" height="1" fill="#231f20"/>
    <rect x="56" y="30" width="2" height="1" fill="#231f20"/>
    <rect x="71" y="30" width="2" height="1" fill="#231f20"/>
    <rect x="79" y="30" width="1" height="1" fill="#231f20"/>
    <rect x="82" y="30" width="2" height="1" fill="#231f20"/>
    <rect x="87" y="30" width="2" height="1" fill="#231f20"/>
    <rect x="90" y="30" width="3" height="1" fill="#231f20"/>
    <rect x="95" y="30" width="1" height="1" fill="#231f20"/>
    <rect x="101" y="30" width="4" height="1" fill="#231f20"/>
    <rect x="151" y="30" width="1" height="1" fill="#231f20"/>
    <rect x="0" y="31" width="1" height="1" fill="#231f20"/>
    <rect x="48" y="31" width="4" height="1" fill="#231f20"/>
    <rect x="56" y="31" width="2" height="1" fill="#231f20"/>
    <rect x="63" y="31" width="2" height="1" fill="#231f20"/>
    <rect x="69" y="31" width="2" height="1" fill="#231f20"/>
    <rect x="78" y="31" width="2" height="1" fill="#231f20"/>
    <rect x="91" y="31" width="2" height="1" fill="#231f20"/>
    <rect x="101" y="31" width="4" height="1" fill="#231f20"/>
    <rect x="151" y="31" width="1" height="1" fill="#231f20"/>
    <rect x="0" y="32" width="1" height="1" fill="#231f20"/>
    <rect x="49" y="32" width="3" height="1" fill="#231f20"/>
    <rect x="56" y="32" width="2" height="1" fill="#231f20"/>
    <rect x="59" y="32" width="2" height="1" fill="#231f20"/>
    <rect x="63" y="32" width="2" height="1" fill="#231f20"/>
    <rect x="68" y="32" width="3" height="1" fill="#231f20"/>
    <rect x="78" y="32" width="2" height="1" fill="#231f20"/>
    <rect x="100" y="32" width="5" height="1" fill="#231f20"/>
    <rect x="151" y="32" width="1" height="1" fill="#231f20"/>
    <rect x="0" y="33" width="1" height="1" fill="#231f20"/>
    <rect x="49" y="33" width="3" height="1" fill="#231f20"/>
    <rect x="59" y="33" width="2" height="1" fill="#231f20"/>
    <rect x="69" y="33" width="1" height="1" fill="#231f20"/>
    <rect x="74" y="33" width="3" height="1" fill="#231f20"/>
    <rect x="80" y="33" width="2" height="1" fill="#231f20"/>
    <rect x="88" y="33" width="1" height="1" fill="#231f20"/>
    <rect x="97" y="33" width="3" height="1" fill="#231f20"/>
    <rect x="102" y="33" width="3" height="1" fill="#231f20"/>
    <rect x="151" y="33" width="1" height="1" fill="#231f20"/>
    <rect x="0" y="34" width="1" height="1" fill="#231f20"/>
    <rect x="49" y="34" width="3" height="1" fill="#231f20"/>
    <rect x="74" y="34" width="2" height="1" fill="#231f20"/>
    <rect x="80" y="34" width="2" height="1" fill="#231f20"/>
    <rect x="87" y="34" width="3" height="1" fill="#231f20"/>
    <rect x="98" y="34" width="2" height="1" fill="#231f20"/>
    <rect x="102" y="34" width="4" height="1" fill="#231f20"/>
    <rect x="151" y="34" width="1" height="1" fill="#231f20"/>
    <rect x="0" y="35" width="1" height="1" fill="#231f20"/>
    <rect x="49" y="35" width="3" height="1" fill="#231f20"/>
    <rect x="53" y="35" width="2" height="1" fill="#231f20"/>
    <rect x="61" y="35" width="1" height="1" fill="#231f20"/>
    <rect x="66" y="35" width="3" height="1" fill="#231f20"/>
    <rect x="88" y="35" width="2" height="1" fill="#231f20"/>
    <rect x="102" y="35" width="4" height="1" fill="#231f20"/>
    <rect x="151" y="35" width="1" height="1" fill="#231f20"/>
    <rect x="0" y="36" width="1" height="1" fill="#231f20"/>
    <rect x="49" y="36" width="3" height="1" fill="#231f20"/>
    <rect x="53" y="36" width="2" height="1" fill="#231f20"/>
    <rect x="60" y="36" width="2" height="1" fill="#231f20"/>
    <rect x="66" y="36" width="2" height="1" fill="#231f20"/>
    <rect x="72" y="36" width="3" height="1" fill="#231f20"/>
    <rect x="84" y="36" width="2" height="1" fill="#231f20"/>
    <rect x="103" y="36" width="3" height="1" fill="#231f20"/>
    <rect x="151" y="36" width="1" height="1" fill="#231f20"/>
    <rect x="0" y="37" width="1" height="1" fill="#231f20"/>
    <rect x="49" y="37" width="3" height="1" fill="#231f20"/>
    <rect x="60" y="37" width="2" height="1" fill="#231f20"/>
    <rect x="72" y="37" width="2" height="1" fill="#231f20"/>
    <rect x="84" y="37" width="2" height="1" fill="#231f20"/>
    <rect x="91" y="37" width="3" height="1" fill="#231f20"/>
    <rect x="103" y="37" width="3" height="1" fill="#231f20"/>
    <rect x="151" y="37" width="1" height="1" fill="#231f20"/>
    <rect x="0" y="38" width="1" height="1" fill="#231f20"/>
    <rect x="49" y="38" width="3" height="1" fill="#231f20"/>
    <rect x="80" y="38" width="1" height="1" fill="#231f20"/>
    <rect x="84" y="38" width="1" height="1" fill="#231f20"/>
    <rect x="91" y="38" width="2" height="1" fill="#231f20"/>
    <rect x="100" y="38" width="2" height="1" fill="#231f20"/>
    <rect x="103" y="38" width="3" height="1" fill="#231f20"/>
    <rect x="151" y="38" width="1" height="1" fill="#231f20"/>
    <rect x="0" y="39" width="1" height="1" fill="#231f20"/>
    <rect x="49" y="39" width="3" height="1" fill="#231f20"/>
    <rect x="57" y="39" width="2" height="1" fill="#231f20"/>
    <rect x="63" y="39" width="1" height="1" fill="#231f20"/>
    <rect x="73" y="39" width="2" height="1" fill="#231f20"/>
    <rect x="79" y="39" width="3" height="1" fill="#231f20"/>
    <rect x="89" y="39" width="1" height="1" fill="#231f20"/>
    <rect x="96" y="39" width="3" height="1" fill="#231f20"/>
    <rect x="100" y="39" width="6" height="1" fill="#231f20"/>
    <rect x="151" y="39" width="1" height="1" fill="#231f20"/>
    <rect x="0" y="40" width="1" height="1" fill="#231f20"/>
    <rect x="49" y="40" width="3" height="1" fill="#231f20"/>
    <rect x="57" y="40" width="2" height="1" fill="#231f20"/>
    <rect x="62" y="40" width="2" height="1" fill="#231f20"/>
    <rect x="73" y="40" width="2" height="1" fill="#231f20"/>
    <rect x="79" y="40" width="2" height="1" fill="#231f20"/>
    <rect x="88" y="40" width="3" height="1" fill="#231f20"/>
    <rect x="92" y="40" width="3" height="1" fill="#231f20"/>
    <rect x="96" y="40" width="2" height="1" fill="#231f20"/>
    <rect x="101" y="40" width="1" height="1" fill="#231f20"/>
    <rect x="103" y="40" width="3" height="1" fill="#231f20"/>
    <rect x="151" y="40" width="1" height="1" fill="#231f20"/>
    <rect x="0" y="41" width="1" height="1" fill="#231f20"/>
    <rect x="49" y="41" width="3" height="1" fill="#231f20"/>
    <rect x="62" y="41" width="2" height="1" fill="#231f20"/>
    <rect x="66" y="41" width="3" height="1" fill="#231f20"/>
    <rect x="73" y="41" width="2" height="1" fill="#231f20"/>
    <rect x="88" y="41" width="3" height="1" fill="#231f20"/>
    <rect x="93" y="41" width="2" height="1" fill="#231f20"/>
    <rect x="103" y="41" width="3" height="1" fill="#231f20"/>
    <rect x="151" y="41" width="1" height="1" fill="#231f20"/>
    <rect x="0" y="42" width="1" height="1" fill="#231f20"/>
    <rect x="49" y="42" width="3" height="1" fill="#231f20"/>
    <rect x="67" y="42" width="2" height="1" fill="#231f20"/>
    <rect x="75" y="42" width="1" height="1" fill="#231f20"/>
    <rect x="79" y="42" width="2" height="1" fill="#231f20"/>
    <rect x="86" y="42" width="2" height="1" fill="#231f20"/>
    <rect x="99" y="42" width="1" height="1" fill="#231f20"/>
    <rect x="103" y="42" width="3" height="1" fill="#231f20"/>
    <rect x="151" y="42" width="1" height="1" fill="#231f20"/>
    <rect x="0" y="43" width="1" height="1" fill="#231f20"/>
    <rect x="48" y="43" width="5" height="1" fill="#231f20"/>
    <rect x="64" y="43" width="2" height="1" fill="#231f20"/>
    <rect x="74" y="43" width="2" height="1" fill="#231f20"/>
    <rect x="79" y="43" width="3" height="1" fill="#231f20"/>
    <rect x="86" y="43" width="2" height="1" fill="#231f20"/>
    <rect x="98" y="43" width="3" height="1" fill="#231f20"/>
    <rect x="103" y="43" width="3" height="1" fill="#231f20"/>
    <rect x="151" y="43" width="1" height="1" fill="#231f20"/>
    <rect x="0" y="44" width="1" height="1" fill="#231f20"/>
    <rect x="48" y="44" width="5" height="1" fill="#231f20"/>
    <rect x="54" y="44" width="1" height="1" fill="#231f20"/>
    <rect x="62" y="44" width="1" height="1" fill="#231f20"/>
    <rect x="64" y="44" width="2" height="1" fill="#231f20"/>
    <rect x="74" y="44" width="2" height="1" fill="#231f20"/>
    <rect x="80" y="44" width="1" height="1" fill="#231f20"/>
    <rect x="86" y="44" width="1" height="1" fill="#231f20"/>
    <rect x="92" y="44" width="1" height="1" fill="#231f20"/>
    <rect x="98" y="44" width="2" height="1" fill="#231f20"/>
    <rect x="103" y="44" width="3" height="1" fill="#231f20"/>
    <rect x="151" y="44" width="1" height="1" fill="#231f20"/>
    <rect x="0" y="45" width="1" height="1" fill="#231f20"/>
    <rect x="48" y="45" width="3" height="1" fill="#231f20"/>
    <rect x="53" y="45" width="2" height="1" fill="#231f20"/>
    <rect x="61" y="45" width="3" height="1" fill="#231f20"/>
    <rect x="68" y="45" width="2" height="1" fill="#231f20"/>
    <rect x="85" y="45" width="2" height="1" fill="#231f20"/>
    <rect x="91" y="45" width="3" height="1" fill="#231f20"/>
    <rect x="96" y="45" width="2" height="1" fill="#231f20"/>
    <rect x="103" y="45" width="3" height="1" fill="#231f20"/>
    <rect x="151" y="45" width="1" height="1" fill="#231f20"/>
    <rect x="0" y="46" width="1" height="1" fill="#231f20"/>
    <rect x="47" y="46" width="4" height="1" fill="#231f20"/>
    <rect x="53" y="46" width="2" height="1" fill="#231f20"/>
    <rect x="61" y="46" width="3" height="1" fill="#231f20"/>
    <rect x="68" y="46" width="2" height="1" fill="#231f20"/>
    <rect x="72" y="46" width="2" height="1" fill="#231f20"/>
    <rect x="85" y="46" width="2" height="1" fill="#231f20"/>
    <rect x="91" y="46" width="2" height="1" fill="#231f20"/>
    <rect x="96" y="46" width="2" height="1" fill="#231f20"/>
    <rect x="103" y="46" width="3" height="1" fill="#231f20"/>
    <rect x="151" y="46" width="1" height="1" fill="#231f20"/>
    <rect x="0" y="47" width="1" height="1" fill="#231f20"/>
    <rect x="47" y="47" width="4" height="1" fill="#231f20"/>
    <rect x="71" y="47" width="3" height="1" fill="#231f20"/>
    <rect x="75" y="47" width="2" height="1" fill="#231f20"/>
    <rect x="80" y="47" width="1" height="1" fill="#231f20"/>
    <rect x="96" y="47" width="1" height="1" fill="#231f20"/>
    <rect x="102" y="47" width="4" height="1" fill="#231f20"/>
    <rect x="151" y="47" width="1" height="1" fill="#231f20"/>
    <rect x="0" y="48" width="1" height="1" fill="#231f20"/>
    <rect x="47" y="48" width="3" height="1" fill="#231f20"/>
    <rect x="51" y="48" width="1" height="1" fill="#231f20"/>
    <rect x="58" y="48" width="2" height="1" fill="#231f20"/>
    <rect x="64" y="48" width="1" height="1" fill="#231f20"/>
    <rect x="74" y="48" width="3" height="1" fill="#231f20"/>
    <rect x="80" y="48" width="2" height="1" fill="#231f20"/>
    <rect x="90" y="48" width="2" height="1" fill="#231f20"/>
    <rect x="101" y="48" width="5" height="1" fill="#231f20"/>
    <rect x="151" y="48" width="1" height="1" fill="#231f20"/>
    <rect x="0" y="49" width="1" height="1" fill="#231f20"/>
    <rect x="47" y="49" width="6" height="1" fill="#231f20"/>
    <rect x="58" y="49" width="2" height="1" fill="#231f20"/>
    <rect x="64" y="49" width="2" height="1" fill="#231f20"/>
    <rect x="77" y="49" width="1" height="1" fill="#231f20"/>
    <rect x="80" y="49" width="2" height="1" fill="#231f20"/>
    <rect x="90" y="49" width="2" height="1" fill="#231f20"/>
    <rect x="99" y="49" width="7" height="1" fill="#231f20"/>
    <rect x="151" y="49" width="1" height="1" fill="#231f20"/>
    <rect x="0" y="50" width="1" height="1" fill="#231f20"/>
    <rect x="47" y="50" width="6" height="1" fill="#231f20"/>
    <rect x="60" y="50" width="2" height="1" fill="#231f20"/>
    <rect x="64" y="50" width="4" height="1" fill="#231f20"/>
    <rect x="73" y="50" width="1" height="1" fill="#231f20"/>
    <rect x="76" y="50" width="3" height="1" fill="#231f20"/>
    <rect x="82" y="50" width="2" height="1" fill="#231f20"/>
    <rect x="87" y="50" width="2" height="1" fill="#231f20"/>
    <rect x="90" y="50" width="5" height="1" fill="#231f20"/>
    <rect x="98" y="50" width="3" height="1" fill="#231f20"/>
    <rect x="102" y="50" width="3" height="1" fill="#231f20"/>
    <rect x="151" y="50" width="1" height="1" fill="#231f20"/>
    <rect x="0" y="51" width="1" height="1" fill="#231f20"/>
    <rect x="47" y="51" width="3" height="1" fill="#231f20"/>
    <rect x="59" y="51" width="3" height="1" fill="#231f20"/>
    <rect x="66" y="51" width="2" height="1" fill="#231f20"/>
    <rect x="72" y="51" width="3" height="1" fill="#231f20"/>
    <rect x="77" y="51" width="2" height="1" fill="#231f20"/>
    <rect x="81" y="51" width="3" height="1" fill="#231f20"/>
    <rect x="87" y="51" width="2" height="1" fill="#231f20"/>
    <rect x="93" y="51" width="2" height="1" fill="#231f20"/>
    <rect x="102" y="51" width="3" height="1" fill="#231f20"/>
    <rect x="151" y="51" width="1" height="1" fill="#231f20"/>
    <rect x="0" y="52" width="1" height="1" fill="#231f20"/>
    <rect x="7" y="52" width="138" height="1" fill="#231f20"/>
    <rect x="151" y="52" width="1" height="1" fill="#231f20"/>
    <rect x="0" y="53" width="1" height="1" fill="#231f20"/>
    <rect x="6" y="53" width="140" height="1" fill="#231f20"/>
    <rect x="151" y="53" width="1" height="1" fill="#231f20"/>
    <rect x="0" y="54" width="1" height="1" fill="#231f20"/>
    <rect x="7" y="54" width="138" height="1" fill="#231f20"/>
    <rect x="151" y="54" width="1" height="1" fill="#231f20"/>
    <rect x="0" y="55" width="1" height="1" fill="#231f20"/>
    <rect x="151" y="55" width="1" height="1" fill="#231f20"/>
    <rect x="0" y="56" width="1" height="1" fill="#231f20"/>
    <rect x="151" y="56" width="1" height="1" fill="#231f20"/>
    <rect x="0" y="57" width="1" height="1" fill="#231f20"/>
    <rect x="151" y="57" width="1" height="1" fill="#231f20"/>
    <rect x="0" y="58" width="1" height="1" fill="#231f20"/>
    <rect x="151" y="58" width="1" height="1" fill="#231f20"/>
    <rect x="0" y="59" width="1" height="1" fill="#231f20"/>
    <rect x="151" y="59" width="1" height="1" fill="#231f20"/>
    <rect x="0" y="60" width="152" height="1" fill="#231f20"/>
  </g>
</svg>