<?xml version="1.0" encoding="UTF-8"?>
<svg xmlns="http://www.w3.org/2000/svg" viewBox="0 0 173 70" width="173" height="70">
  <!-- Auto-converted from legend-1787.png -->
  <rect x="0" y="0" width="173" height="70" fill="none"/>
  <g fill="#231f20" stroke="none">
    <rect x="0" y="0" width="173" height="1" fill="#231f20"/>
    <rect x="0" y="1" width="1" height="1" fill="#231f20"/>
    <rect x="65" y="1" width="1" height="1" fill="#231f20"/>
    <rect x="172" y="1" width="1" height="1" fill="#231f20"/>
    <rect x="0" y="2" width="1" height="1" fill="#231f20"/>
    <rect x="64" y="2" width="1" height="1" fill="#231f20"/>
    <rect x="172" y="2" width="1" height="1" fill="#231f20"/>
    <rect x="0" y="3" width="1" height="1" fill="#231f20"/>
    <rect x="63" y="3" width="1" height="1" fill="#231f20"/>
    <rect x="172" y="3" width="1" height="1" fill="#231f20"/>
    <rect x="0" y="4" width="1" height="1" fill="#231f20"/>
    <rect x="62" y="4" width="1" height="1" fill="#231f20"/>
    <rect x="172" y="4" width="1" height="1" fill="#231f20"/>
    <rect x="0" y="5" width="1" height="1" fill="#231f20"/>
    <rect x="61" y="5" width="1" height="1" fill="#231f20"/>
    <rect x="172" y="5" width="1" height="1" fill="#231f20"/>
    <rect x="0" y="6" width="1" height="1" fill="#231f20"/>
    <rect x="20" y="6" width="1" height="1" fill="#231f20"/>
    <rect x="32" y="6" width="1" height="1" fill="#231f20"/>
    <rect x="60" y="6" width="1" height="1" fill="#231f20"/>
    <rect x="79" y="6" width="10" height="1" fill="#231f20"/>
    <rect x="139" y="6" width="1" height="1" fill="#231f20"/>
    <rect x="142" y="6" width="1" height="1" fill="#231f20"/>
    <rect x="172" y="6" width="1" height="1" fill="#231f20"/>
    <rect x="0" y="7" width="1" height="1" fill="#231f20"/>
    <rect x="21" y="7" width="1" height="1" fill="#231f20"/>
    <rect x="31" y="7" width="1" height="1" fill="#231f20"/>
    <rect x="59" y="7" width="1" height="1" fill="#231f20"/>
    <rect x="79" y="7" width="1" height="1" fill="#231f20"/>
    <rect x="88" y="7" width="1" height="1" fill="#231f20"/>
    <rect x="139" y="7" width="1" height="1" fill="#231f20"/>
    <rect x="142" y="7" width="1" height="1" fill="#231f20"/>
    <rect x="172" y="7" width="1" height="1" fill="#231f20"/>
    <rect x="0" y="8" width="1" height="1" fill="#231f20"/>
    <rect x="21" y="8" width="1" height="1" fill="#231f20"/>
    <rect x="31" y="8" width="1" height="1" fill="#231f20"/>
    <rect x="58" y="8" width="1" height="1" fill="#231f20"/>
    <rect x="79" y="8" width="1" height="1" fill="#231f20"/>
    <rect x="88" y="8" width="1" height="1" fill="#231f20"/>
    <rect x="108" y="8" width="3" height="1" fill="#231f20"/>
    <rect x="112" y="8" width="3" height="1" fill="#231f20"/>
    <rect x="138" y="8" width="1" height="1" fill="#231f20"/>
    <rect x="143" y="8" width="1" height="1" fill="#231f20"/>
    <rect x="172" y="8" width="1" height="1" fill="#231f20"/>
    <rect x="0" y="9" width="1" height="1" fill="#231f20"/>
    <rect x="22" y="9" width="1" height="1" fill="#231f20"/>
    <rect x="30" y="9" width="1" height="1" fill="#231f20"/>
    <rect x="57" y="9" width="1" height="1" fill="#231f20"/>
    <rect x="79" y="9" width="1" height="1" fill="#231f20"/>
    <rect x="88" y="9" width="1" height="1" fill="#231f20"/>
    <rect x="109" y="9" width="2" height="1" fill="#231f20"/>
    <rect x="112" y="9" width="2" height="1" fill="#231f20"/>
    <rect x="138" y="9" width="1" height="1" fill="#231f20"/>
    <rect x="143" y="9" width="1" height="1" fill="#231f20"/>
    <rect x="172" y="9" width="1" height="1" fill="#231f20"/>
    <rect x="0" y="10" width="1" height="1" fill="#231f20"/>
    <rect x="22" y="10" width="1" height="1" fill="#231f20"/>
    <rect x="30" y="10" width="1" height="1" fill="#231f20"/>
    <rect x="56" y="10" width="1" height="1" fill="#231f20"/>
    <rect x="79" y="10" width="1" height="1" fill="#231f20"/>
    <rect x="88" y="10" width="1" height="1" fill="#231f20"/>
    <rect x="109" y="10" width="2" height="1" fill="#231f20"/>
    <rect x="112" y="10" width="2" height="1" fill="#231f20"/>
    <rect x="138" y="10" width="1" height="1" fill="#231f20"/>
    <rect x="144" y="10" width="1" height="1" fill="#231f20"/>
    <rect x="172" y="10" width="1" height="1" fill="#231f20"/>
    <rect x="0" y="11" width="1" height="1" fill="#231f20"/>
    <rect x="23" y="11" width="1" height="1" fill="#231f20"/>
    <rect x="29" y="11" width="1" height="1" fill="#231f20"/>
    <rect x="55" y="11" width="1" height="1" fill="#231f20"/>
    <rect x="79" y="11" width="1" height="1" fill="#231f20"/>
    <rect x="88" y="11" width="1" height="1" fill="#231f20"/>
    <rect x="109" y="11" width="2" height="1" fill="#231f20"/>
    <rect x="112" y="11" width="2" height="1" fill="#231f20"/>
    <rect x="137" y="11" width="1" height="1" fill="#231f20"/>
    <rect x="144" y="11" width="1" height="1" fill="#231f20"/>
    <rect x="172" y="11" width="1" height="1" fill="#231f20"/>
    <rect x="0" y="12" width="1" height="1" fill="#231f20"/>
    <rect x="23" y="12" width="1" height="1" fill="#231f20"/>
    <rect x="29" y="12" width="1" height="1" fill="#231f20"/>
    <rect x="54" y="12" width="1" height="1" fill="#231f20"/>
    <rect x="79" y="12" width="1" height="1" fill="#231f20"/>
    <rect x="88" y="12" width="1" height="1" fill="#231f20"/>
    <rect x="109" y="12" width="2" height="1" fill="#231f20"/>
    <rect x="112" y="12" width="2" height="1" fill="#231f20"/>
    <rect x="137" y="12" width="1" height="1" fill="#231f20"/>
    <rect x="145" y="12" width="1" height="1" fill="#231f20"/>
    <rect x="172" y="12" width="1" height="1" fill="#231f20"/>
    <rect x="0" y="13" width="1" height="1" fill="#231f20"/>
    <rect x="24" y="13" width="1" height="1" fill="#231f20"/>
    <rect x="28" y="13" width="1" height="1" fill="#231f20"/>
    <rect x="53" y="13" width="1" height="1" fill="#231f20"/>
    <rect x="79" y="13" width="1" height="1" fill="#231f20"/>
    <rect x="88" y="13" width="1" height="1" fill="#231f20"/>
    <rect x="109" y="13" width="1" height="1" fill="#231f20"/>
    <rect x="111" y="13" width="1" height="1" fill="#231f20"/>
    <rect x="113" y="13" width="1" height="1" fill="#231f20"/>
    <rect x="136" y="13" width="1" height="1" fill="#231f20"/>
    <rect x="145" y="13" width="1" height="1" fill="#231f20"/>
    <rect x="172" y="13" width="1" height="1" fill="#231f20"/>
    <rect x="0" y="14" width="1" height="1" fill="#231f20"/>
    <rect x="24" y="14" width="1" height="1" fill="#231f20"/>
    <rect x="28" y="14" width="1" height="1" fill="#231f20"/>
    <rect x="52" y="14" width="1" height="1" fill="#231f20"/>
    <rect x="79" y="14" width="1" height="1" fill="#231f20"/>
    <rect x="88" y="14" width="1" height="1" fill="#231f20"/>
    <rect x="109" y="14" width="1" height="1" fill="#231f20"/>
    <rect x="111" y="14" width="1" height="1" fill="#231f20"/>
    <rect x="113" y="14" width="1" height="1" fill="#231f20"/>
    <rect x="136" y="14" width="1" height="1" fill="#231f20"/>
    <rect x="146" y="14" width="1" height="1" fill="#231f20"/>
    <rect x="172" y="14" width="1" height="1" fill="#231f20"/>
    <rect x="0" y="15" width="1" height="1" fill="#231f20"/>
    <rect x="25" y="15" width="1" height="1" fill="#231f20"/>
    <rect x="27" y="15" width="1" height="1" fill="#231f20"/>
    <rect x="51" y="15" width="1" height="1" fill="#231f20"/>
    <rect x="79" y="15" width="1" height="1" fill="#231f20"/>
    <rect x="88" y="15" width="1" height="1" fill="#231f20"/>
    <rect x="109" y="15" width="1" height="1" fill="#231f20"/>
    <rect x="111" y="15" width="1" height="1" fill="#231f20"/>
    <rect x="113" y="15" width="1" height="1" fill="#231f20"/>
    <rect x="136" y="15" width="1" height="1" fill="#231f20"/>
    <rect x="146" y="15" width="1" height="1" fill="#231f20"/>
    <rect x="172" y="15" width="1" height="1" fill="#231f20"/>
    <rect x="0" y="16" width="1" height="1" fill="#231f20"/>
    <rect x="25" y="16" width="1" height="1" fill="#231f20"/>
    <rect x="27" y="16" width="1" height="1" fill="#231f20"/>
    <rect x="50" y="16" width="1" height="1" fill="#231f20"/>
    <rect x="79" y="16" width="1" height="1" fill="#231f20"/>
    <rect x="88" y="16" width="1" height="1" fill="#231f20"/>
    <rect x="109" y="16" width="1" height="1" fill="#231f20"/>
    <rect x="111" y="16" width="1" height="1" fill="#231f20"/>
    <rect x="113" y="16" width="1" height="1" fill="#231f20"/>
    <rect x="135" y="16" width="1" height="1" fill="#231f20"/>
    <rect x="147" y="16" width="1" height="1" fill="#231f20"/>
    <rect x="172" y="16" width="1" height="1" fill="#231f20"/>
    <rect x="0" y="17" width="1" height="1" fill="#231f20"/>
    <rect x="26" y="17" width="1" height="1" fill="#231f20"/>
    <rect x="49" y="17" width="1" height="1" fill="#231f20"/>
    <rect x="79" y="17" width="10" height="1" fill="#231f20"/>
    <rect x="109" y="17" width="1" height="1" fill="#231f20"/>
    <rect x="111" y="17" width="1" height="1" fill="#231f20"/>
    <rect x="113" y="17" width="1" height="1" fill="#231f20"/>
    <rect x="135" y="17" width="1" height="1" fill="#231f20"/>
    <rect x="147" y="17" width="1" height="1" fill="#231f20"/>
    <rect x="172" y="17" width="1" height="1" fill="#231f20"/>
    <rect x="0" y="18" width="1" height="1" fill="#231f20"/>
    <rect x="48" y="18" width="1" height="1" fill="#231f20"/>
    <rect x="108" y="18" width="2" height="1" fill="#231f20"/>
    <rect x="111" y="18" width="1" height="1" fill="#231f20"/>
    <rect x="113" y="18" width="2" height="1" fill="#231f20"/>
    <rect x="172" y="18" width="1" height="1" fill="#231f20"/>
    <rect x="0" y="19" width="1" height="1" fill="#231f20"/>
    <rect x="47" y="19" width="1" height="1" fill="#231f20"/>
    <rect x="172" y="19" width="1" height="1" fill="#231f20"/>
    <rect x="0" y="20" width="1" height="1" fill="#231f20"/>
    <rect x="46" y="20" width="1" height="1" fill="#231f20"/>
    <rect x="172" y="20" width="1" height="1" fill="#231f20"/>
    <rect x="0" y="21" width="1" height="1" fill="#231f20"/>
    <rect x="45" y="21" width="1" height="1" fill="#231f20"/>
    <rect x="172" y="21" width="1" height="1" fill="#231f20"/>
    <rect x="0" y="22" width="1" height="1" fill="#231f20"/>
    <rect x="44" y="22" width="1" height="1" fill="#231f20"/>
    <rect x="172" y="22" width="1" height="1" fill="#231f20"/>
    <rect x="0" y="23" width="173" height="1" fill="#231f20"/>
    <rect x="0" y="24" width="1" height="1" fill="#231f20"/>
    <rect x="128" y="24" width="1" height="1" fill="#231f20"/>
    <rect x="172" y="24" width="1" height="1" fill="#231f20"/>
    <rect x="0" y="25" width="1" height="1" fill="#231f20"/>
    <rect x="127" y="25" width="1" height="1" fill="#231f20"/>
    <rect x="172" y="25" width="1" height="1" fill="#231f20"/>
    <rect x="0" y="26" width="1" height="1" fill="#231f20"/>
    <rect x="126" y="26" width="1" height="1" fill="#231f20"/>
    <rect x="172" y="26" width="1" height="1" fill="#231f20"/>
    <rect x="0" y="27" width="1" height="1" fill="#231f20"/>
    <rect x="125" y="27" width="1" height="1" fill="#231f20"/>
    <rect x="172" y="27" width="1" height="1" fill="#231f20"/>
    <rect x="0" y="28" width="1" height="1" fill="#231f20"/>
    <rect x="124" y="28" width="1" height="1" fill="#231f20"/>
    <rect x="172" y="28" width="1" height="1" fill="#231f20"/>
    <rect x="0" y="29" width="1" height="1" fill="#231f20"/>
    <rect x="31" y="29" width="1" height="1" fill="#231f20"/>
    <rect x="33" y="29" width="1" height="1" fill="#231f20"/>
    <rect x="85" y="29" width="10" height="1" fill="#231f20"/>
    <rect x="123" y="29" width="1" height="1" fill="#231f20"/>
    <rect x="141" y="29" width="1" height="1" fill="#231f20"/>
    <rect x="152" y="29" width="1" height="1" fill="#231f20"/>
    <rect x="172" y="29" width="1" height="1" fill="#231f20"/>
    <rect x="0" y="30" width="1" height="1" fill="#231f20"/>
    <rect x="31" y="30" width="1" height="1" fill="#231f20"/>
    <rect x="33" y="30" width="1" height="1" fill="#231f20"/>
    <rect x="56" y="30" width="3" height="1" fill="#231f20"/>
    <rect x="60" y="30" width="3" height="1" fill="#231f20"/>
    <rect x="85" y="30" width="1" height="1" fill="#231f20"/>
    <rect x="94" y="30" width="1" height="1" fill="#231f20"/>
    <rect x="122" y="30" width="1" height="1" fill="#231f20"/>
    <rect x="141" y="30" width="1" height="1" fill="#231f20"/>
    <rect x="152" y="30" width="1" height="1" fill="#231f20"/>
    <rect x="172" y="30" width="1" height="1" fill="#231f20"/>
    <rect x="0" y="31" width="1" height="1" fill="#231f20"/>
    <rect x="30" y="31" width="1" height="1" fill="#231f20"/>
    <rect x="34" y="31" width="1" height="1" fill="#231f20"/>
    <rect x="57" y="31" width="2" height="1" fill="#231f20"/>
    <rect x="60" y="31" width="2" height="1" fill="#231f20"/>
    <rect x="85" y="31" width="1" height="1" fill="#231f20"/>
    <rect x="94" y="31" width="1" height="1" fill="#231f20"/>
    <rect x="121" y="31" width="1" height="1" fill="#231f20"/>
    <rect x="142" y="31" width="1" height="1" fill="#231f20"/>
    <rect x="151" y="31" width="1" height="1" fill="#231f20"/>
    <rect x="172" y="31" width="1" height="1" fill="#231f20"/>
    <rect x="0" y="32" width="1" height="1" fill="#231f20"/>
    <rect x="30" y="32" width="1" height="1" fill="#231f20"/>
    <rect x="34" y="32" width="1" height="1" fill="#231f20"/>
    <rect x="57" y="32" width="2" height="1" fill="#231f20"/>
    <rect x="60" y="32" width="2" height="1" fill="#231f20"/>
    <rect x="85" y="32" width="1" height="1" fill="#231f20"/>
    <rect x="94" y="32" width="1" height="1" fill="#231f20"/>
    <rect x="120" y="32" width="1" height="1" fill="#231f20"/>
    <rect x="142" y="32" width="1" height="1" fill="#231f20"/>
    <rect x="151" y="32" width="1" height="1" fill="#231f20"/>
    <rect x="172" y="32" width="1" height="1" fill="#231f20"/>
    <rect x="0" y="33" width="1" height="1" fill="#231f20"/>
    <rect x="29" y="33" width="1" height="1" fill="#231f20"/>
    <rect x="35" y="33" width="1" height="1" fill="#231f20"/>
    <rect x="57" y="33" width="2" height="1" fill="#231f20"/>
    <rect x="60" y="33" width="2" height="1" fill="#231f20"/>
    <rect x="85" y="33" width="1" height="1" fill="#231f20"/>
    <rect x="94" y="33" width="1" height="1" fill="#231f20"/>
    <rect x="119" y="33" width="1" height="1" fill="#231f20"/>
    <rect x="143" y="33" width="1" height="1" fill="#231f20"/>
    <rect x="150" y="33" width="1" height="1" fill="#231f20"/>
    <rect x="172" y="33" width="1" height="1" fill="#231f20"/>
    <rect x="0" y="34" width="1" height="1" fill="#231f20"/>
    <rect x="29" y="34" width="1" height="1" fill="#231f20"/>
    <rect x="35" y="34" width="1" height="1" fill="#231f20"/>
    <rect x="57" y="34" width="2" height="1" fill="#231f20"/>
    <rect x="60" y="34" width="2" height="1" fill="#231f20"/>
    <rect x="85" y="34" width="1" height="1" fill="#231f20"/>
    <rect x="94" y="34" width="1" height="1" fill="#231f20"/>
    <rect x="118" y="34" width="1" height="1" fill="#231f20"/>
    <rect x="143" y="34" width="1" height="1" fill="#231f20"/>
    <rect x="150" y="34" width="1" height="1" fill="#231f20"/>
    <rect x="172" y="34" width="1" height="1" fill="#231f20"/>
    <rect x="0" y="35" width="1" height="1" fill="#231f20"/>
    <rect x="28" y="35" width="1" height="1" fill="#231f20"/>
    <rect x="36" y="35" width="1" height="1" fill="#231f20"/>
    <rect x="57" y="35" width="1" height="1" fill="#231f20"/>
    <rect x="59" y="35" width="1" height="1" fill="#231f20"/>
    <rect x="61" y="35" width="1" height="1" fill="#231f20"/>
    <rect x="85" y="35" width="1" height="1" fill="#231f20"/>
    <rect x="94" y="35" width="1" height="1" fill="#231f20"/>
    <rect x="118" y="35" width="1" height="1" fill="#231f20"/>
    <rect x="143" y="35" width="1" height="1" fill="#231f20"/>
    <rect x="149" y="35" width="1" height="1" fill="#231f20"/>
    <rect x="172" y="35" width="1" height="1" fill="#231f20"/>
    <rect x="0" y="36" width="1" height="1" fill="#231f20"/>
    <rect x="28" y="36" width="1" height="1" fill="#231f20"/>
    <rect x="36" y="36" width="1" height="1" fill="#231f20"/>
    <rect x="57" y="36" width="1" height="1" fill="#231f20"/>
    <rect x="59" y="36" width="1" height="1" fill="#231f20"/>
    <rect x="61" y="36" width="1" height="1" fill="#231f20"/>
    <rect x="85" y="36" width="1" height="1" fill="#231f20"/>
    <rect x="94" y="36" width="1" height="1" fill="#231f20"/>
    <rect x="117" y="36" width="1" height="1" fill="#231f20"/>
    <rect x="144" y="36" width="1" height="1" fill="#231f20"/>
    <rect x="149" y="36" width="1" height="1" fill="#231f20"/>
    <rect x="172" y="36" width="1" height="1" fill="#231f20"/>
    <rect x="0" y="37" width="1" height="1" fill="#231f20"/>
    <rect x="27" y="37" width="1" height="1" fill="#231f20"/>
    <rect x="37" y="37" width="1" height="1" fill="#231f20"/>
    <rect x="57" y="37" width="1" height="1" fill="#231f20"/>
    <rect x="59" y="37" width="1" height="1" fill="#231f20"/>
    <rect x="61" y="37" width="1" height="1" fill="#231f20"/>
    <rect x="85" y="37" width="1" height="1" fill="#231f20"/>
    <rect x="94" y="37" width="1" height="1" fill="#231f20"/>
    <rect x="116" y="37" width="1" height="1" fill="#231f20"/>
    <rect x="144" y="37" width="1" height="1" fill="#231f20"/>
    <rect x="148" y="37" width="1" height="1" fill="#231f20"/>
    <rect x="172" y="37" width="1" height="1" fill="#231f20"/>
    <rect x="0" y="38" width="1" height="1" fill="#231f20"/>
    <rect x="27" y="38" width="1" height="1" fill="#231f20"/>
    <rect x="37" y="38" width="1" height="1" fill="#231f20"/>
    <rect x="57" y="38" width="1" height="1" fill="#231f20"/>
    <rect x="59" y="38" width="1" height="1" fill="#231f20"/>
    <rect x="61" y="38" width="1" height="1" fill="#231f20"/>
    <rect x="85" y="38" width="1" height="1" fill="#231f20"/>
    <rect x="94" y="38" width="1" height="1" fill="#231f20"/>
    <rect x="115" y="38" width="1" height="1" fill="#231f20"/>
    <rect x="145" y="38" width="1" height="1" fill="#231f20"/>
    <rect x="148" y="38" width="1" height="1" fill="#231f20"/>
    <rect x="172" y="38" width="1" height="1" fill="#231f20"/>
    <rect x="0" y="39" width="1" height="1" fill="#231f20"/>
    <rect x="26" y="39" width="1" height="1" fill="#231f20"/>
    <rect x="38" y="39" width="1" height="1" fill="#231f20"/>
    <rect x="57" y="39" width="1" height="1" fill="#231f20"/>
    <rect x="59" y="39" width="1" height="1" fill="#231f20"/>
    <rect x="61" y="39" width="1" height="1" fill="#231f20"/>
    <rect x="85" y="39" width="1" height="1" fill="#231f20"/>
    <rect x="94" y="39" width="1" height="1" fill="#231f20"/>
    <rect x="114" y="39" width="1" height="1" fill="#231f20"/>
    <rect x="145" y="39" width="1" height="1" fill="#231f20"/>
    <rect x="147" y="39" width="1" height="1" fill="#231f20"/>
    <rect x="172" y="39" width="1" height="1" fill="#231f20"/>
    <rect x="0" y="40" width="1" height="1" fill="#231f20"/>
    <rect x="26" y="40" width="1" height="1" fill="#231f20"/>
    <rect x="38" y="40" width="1" height="1" fill="#231f20"/>
    <rect x="56" y="40" width="2" height="1" fill="#231f20"/>
    <rect x="59" y="40" width="1" height="1" fill="#231f20"/>
    <rect x="61" y="40" width="2" height="1" fill="#231f20"/>
    <rect x="85" y="40" width="10" height="1" fill="#231f20"/>
    <rect x="113" y="40" width="1" height="1" fill="#231f20"/>
    <rect x="146" y="40" width="2" height="1" fill="#231f20"/>
    <rect x="172" y="40" width="1" height="1" fill="#231f20"/>
    <rect x="0" y="41" width="1" height="1" fill="#231f20"/>
    <rect x="112" y="41" width="1" height="1" fill="#231f20"/>
    <rect x="146" y="41" width="1" height="1" fill="#231f20"/>
    <rect x="172" y="41" width="1" height="1" fill="#231f20"/>
    <rect x="0" y="42" width="1" height="1" fill="#231f20"/>
    <rect x="111" y="42" width="1" height="1" fill="#231f20"/>
    <rect x="172" y="42" width="1" height="1" fill="#231f20"/>
    <rect x="0" y="43" width="1" height="1" fill="#231f20"/>
    <rect x="110" y="43" width="1" height="1" fill="#231f20"/>
    <rect x="172" y="43" width="1" height="1" fill="#231f20"/>
    <rect x="0" y="44" width="1" height="1" fill="#231f20"/>
    <rect x="109" y="44" width="1" height="1" fill="#231f20"/>
    <rect x="172" y="44" width="1" height="1" fill="#231f20"/>
    <rect x="0" y="45" width="1" height="1" fill="#231f20"/>
    <rect x="108" y="45" width="1" height="1" fill="#231f20"/>
    <rect x="172" y="45" width="1" height="1" fill="#231f20"/>
    <rect x="0" y="46" width="173" height="1" fill="#231f20"/>
    <rect x="0" y="47" width="1" height="1" fill="#231f20"/>
    <rect x="65" y="47" width="1" height="1" fill="#231f20"/>
    <rect x="172" y="47" width="1" height="1" fill="#231f20"/>
    <rect x="0" y="48" width="1" height="1" fill="#231f20"/>
    <rect x="64" y="48" width="1" height="1" fill="#231f20"/>
    <rect x="172" y="48" width="1" height="1" fill="#231f20"/>
    <rect x="0" y="49" width="1" height="1" fill="#231f20"/>
    <rect x="63" y="49" width="1" height="1" fill="#231f20"/>
    <rect x="172" y="49" width="1" height="1" fill="#231f20"/>
    <rect x="0" y="50" width="1" height="1" fill="#231f20"/>
    <rect x="62" y="50" width="1" height="1" fill="#231f20"/>
    <rect x="172" y="50" width="1" height="1" fill="#231f20"/>
    <rect x="0" y="51" width="1" height="1" fill="#231f20"/>
    <rect x="61" y="51" width="1" height="1" fill="#231f20"/>
    <rect x="172" y="51" width="1" height="1" fill="#231f20"/>
    <rect x="0" y="52" width="1" height="1" fill="#231f20"/>
    <rect x="20" y="52" width="1" height="1" fill="#231f20"/>
    <rect x="32" y="52" width="1" height="1" fill="#231f20"/>
    <rect x="60" y="52" width="1" height="1" fill="#231f20"/>
    <rect x="79" y="52" width="10" height="1" fill="#231f20"/>
    <rect x="139" y="52" width="1" height="1" fill="#231f20"/>
    <rect x="142" y="52" width="1" height="1" fill="#231f20"/>
    <rect x="172" y="52" width="1" height="1" fill="#231f20"/>
    <rect x="0" y="53" width="1" height="1" fill="#231f20"/>
    <rect x="21" y="53" width="1" height="1" fill="#231f20"/>
    <rect x="31" y="53" width="1" height="1" fill="#231f20"/>
    <rect x="59" y="53" width="1" height="1" fill="#231f20"/>
    <rect x="79" y="53" width="1" height="1" fill="#231f20"/>
    <rect x="88" y="53" width="1" height="1" fill="#231f20"/>
    <rect x="108" y="53" width="3" height="1" fill="#231f20"/>
    <rect x="112" y="53" width="3" height="1" fill="#231f20"/>
    <rect x="139" y="53" width="1" height="1" fill="#231f20"/>
    <rect x="142" y="53" width="1" height="1" fill="#231f20"/>
    <rect x="172" y="53" width="1" height="1" fill="#231f20"/>
    <rect x="0" y="54" width="1" height="1" fill="#231f20"/>
    <rect x="21" y="54" width="1" height="1" fill="#231f20"/>
    <rect x="31" y="54" width="1" height="1" fill="#231f20"/>
    <rect x="58" y="54" width="1" height="1" fill="#231f20"/>
    <rect x="79" y="54" width="1" height="1" fill="#231f20"/>
    <rect x="88" y="54" width="1" height="1" fill="#231f20"/>
    <rect x="109" y="54" width="2" height="1" fill="#231f20"/>
    <rect x="112" y="54" width="2" height="1" fill="#231f20"/>
    <rect x="138" y="54" width="1" height="1" fill="#231f20"/>
    <rect x="143" y="54" width="1" height="1" fill="#231f20"/>
    <rect x="172" y="54" width="1" height="1" fill="#231f20"/>
    <rect x="0" y="55" width="1" height="1" fill="#231f20"/>
    <rect x="22" y="55" width="1" height="1" fill="#231f20"/>
    <rect x="30" y="55" width="1" height="1" fill="#231f20"/>
    <rect x="57" y="55" width="1" height="1" fill="#231f20"/>
    <rect x="79" y="55" width="1" height="1" fill="#231f20"/>
    <rect x="88" y="55" width="1" height="1" fill="#231f20"/>
    <rect x="109" y="55" width="2" height="1" fill="#231f20"/>
    <rect x="112" y="55" width="2" height="1" fill="#231f20"/>
    <rect x="138" y="55" width="1" height="1" fill="#231f20"/>
    <rect x="143" y="55" width="1" height="1" fill="#231f20"/>
    <rect x="172" y="55" width="1" height="1" fill="#231f20"/>
    <rect x="0" y="56" width="1" height="1" fill="#231f20"/>
    <rect x="22" y="56" width="1" height="1" fill="#231f20"/>
    <rect x="30" y="56" width="1" height="1" fill="#231f20"/>
    <rect x="56" y="56" width="1" height="1" fill="#231f20"/>
    <rect x="79" y="56" width="1" height="1" fill="#231f20"/>
    <rect x="88" y="56" width="1" height="1" fill="#231f20"/>
    <rect x="109" y="56" width="2" height="1" fill="#231f20"/>
    <rect x="112" y="56" width="2" height="1" fill="#231f20"/>
    <rect x="138" y="56" width="1" height="1" fill="#231f20"/>
    <rect x="144" y="56" width="1" height="1" fill="#231f20"/>
    <rect x="172" y="56" width="1" height="1" fill="#231f20"/>
    <rect x="0" y="57" width="1" height="1" fill="#231f20"/>
    <rect x="23" y="57" width="1" height="1" fill="#231f20"/>
    <rect x="29" y="57" width="1" height="1" fill="#231f20"/>
    <rect x="55" y="57" width="1" height="1" fill="#231f20"/>
    <rect x="79" y="57" width="1" height="1" fill="#231f20"/>
    <rect x="88" y="57" width="1" height="1" fill="#231f20"/>
    <rect x="109" y="57" width="2" height="1" fill="#231f20"/>
    <rect x="112" y="57" width="2" height="1" fill="#231f20"/>
    <rect x="137" y="57" width="1" height="1" fill="#231f20"/>
    <rect x="144" y="57" width="1" height="1" fill="#231f20"/>
    <rect x="172" y="57" width="1" height="1" fill="#231f20"/>
    <rect x="0" y="58" width="1" height="1" fill="#231f20"/>
    <rect x="23" y="58" width="1" height="1" fill="#231f20"/>
    <rect x="29" y="58" width="1" height="1" fill="#231f20"/>
    <rect x="54" y="58" width="1" height="1" fill="#231f20"/>
    <rect x="79" y="58" width="1" height="1" fill="#231f20"/>
    <rect x="88" y="58" width="1" height="1" fill="#231f20"/>
    <rect x="109" y="58" width="1" height="1" fill="#231f20"/>
    <rect x="111" y="58" width="1" height="1" fill="#231f20"/>
    <rect x="113" y="58" width="1" height="1" fill="#231f20"/>
    <rect x="137" y="58" width="1" height="1" fill="#231f20"/>
    <rect x="145" y="58" width="1" height="1" fill="#231f20"/>
    <rect x="172" y="58" width="1" height="1" fill="#231f20"/>
    <rect x="0" y="59" width="1" height="1" fill="#231f20"/>
    <rect x="24" y="59" width="1" height="1" fill="#231f20"/>
    <rect x="28" y="59" width="1" height="1" fill="#231f20"/>
    <rect x="53" y="59" width="1" height="1" fill="#231f20"/>
    <rect x="79" y="59" width="1" height="1" fill="#231f20"/>
    <rect x="88" y="59" width="1" height="1" fill="#231f20"/>
    <rect x="109" y="59" width="1" height="1" fill="#231f20"/>
    <rect x="111" y="59" width="1" height="1" fill="#231f20"/>
    <rect x="113" y="59" width="1" height="1" fill="#231f20"/>
    <rect x="136" y="59" width="1" height="1" fill="#231f20"/>
    <rect x="145" y="59" width="1" height="1" fill="#231f20"/>
    <rect x="172" y="59" width="1" height="1" fill="#231f20"/>
    <rect x="0" y="60" width="1" height="1" fill="#231f20"/>
    <rect x="24" y="60" width="1" height="1" fill="#231f20"/>
    <rect x="28" y="60" width="1" height="1" fill="#231f20"/>
    <rect x="52" y="60" width="1" height="1" fill="#231f20"/>
    <rect x="79" y="60" width="1" height="1" fill="#231f20"/>
    <rect x="88" y="60" width="1" height="1" fill="#231f20"/>
    <rect x="109" y="60" width="1" height="1" fill="#231f20"/>
    <rect x="111" y="60" width="1" height="1" fill="#231f20"/>
    <rect x="113" y="60" width="1" height="1" fill="#231f20"/>
    <rect x="136" y="60" width="1" height="1" fill="#231f20"/>
    <rect x="146" y="60" width="1" height="1" fill="#231f20"/>
    <rect x="172" y="60" width="1" height="1" fill="#231f20"/>
    <rect x="0" y="61" width="1" height="1" fill="#231f20"/>
    <rect x="25" y="61" width="1" height="1" fill="#231f20"/>
    <rect x="27" y="61" width="1" height="1" fill="#231f20"/>
    <rect x="51" y="61" width="1" height="1" fill="#231f20"/>
    <rect x="79" y="61" width="1" height="1" fill="#231f20"/>
    <rect x="88" y="61" width="1" height="1" fill="#231f20"/>
    <rect x="109" y="61" width="1" height="1" fill="#231f20"/>
    <rect x="111" y="61" width="1" height="1" fill="#231f20"/>
    <rect x="113" y="61" width="1" height="1" fill="#231f20"/>
    <rect x="136" y="61" width="1" height="1" fill="#231f20"/>
    <rect x="146" y="61" width="1" height="1" fill="#231f20"/>
    <rect x="172" y="61" width="1" height="1" fill="#231f20"/>
    <rect x="0" y="62" width="1" height="1" fill="#231f20"/>
    <rect x="25" y="62" width="1" height="1" fill="#231f20"/>
    <rect x="27" y="62" width="1" height="1" fill="#231f20"/>
    <rect x="50" y="62" width="1" height="1" fill="#231f20"/>
    <rect x="79" y="62" width="1" height="1" fill="#231f20"/>
    <rect x="88" y="62" width="1" height="1" fill="#231f20"/>
    <rect x="109" y="62" width="1" height="1" fill="#231f20"/>
    <rect x="111" y="62" width="1" height="1" fill="#231f20"/>
    <rect x="113" y="62" width="1" height="1" fill="#231f20"/>
    <rect x="135" y="62" width="1" height="1" fill="#231f20"/>
    <rect x="147" y="62" width="1" height="1" fill="#231f20"/>
    <rect x="172" y="62" width="1" height="1" fill="#231f20"/>
    <rect x="0" y="63" width="1" height="1" fill="#231f20"/>
    <rect x="26" y="63" width="1" height="1" fill="#231f20"/>
    <rect x="49" y="63" width="1" height="1" fill="#231f20"/>
    <rect x="79" y="63" width="10" height="1" fill="#231f20"/>
    <rect x="108" y="63" width="2" height="1" fill="#231f20"/>
    <rect x="111" y="63" width="1" height="1" fill="#231f20"/>
    <rect x="113" y="63" width="2" height="1" fill="#231f20"/>
    <rect x="135" y="63" width="1" height="1" fill="#231f20"/>
    <rect x="147" y="63" width="1" height="1" fill="#231f20"/>
    <rect x="172" y="63" width="1" height="1" fill="#231f20"/>
    <rect x="0" y="64" width="1" height="1" fill="#231f20"/>
    <rect x="48" y="64" width="1" height="1" fill="#231f20"/>
    <rect x="172" y="64" width="1" height="1" fill="#231f20"/>
    <rect x="0" y="65" width="1" height="1" fill="#231f20"/>
    <rect x="47" y="65" width="1" height="1" fill="#231f20"/>
    <rect x="172" y="65" width="1" height="1" fill="#231f20"/>
    <rect x="0" y="66" width="1" height="1" fill="#231f20"/>
    <rect x="46" y="66" width="1" height="1" fill="#231f20"/>
    <rect x="172" y="66" width="1" height="1" fill="#231f20"/>
    <rect x="0" y="67" width="1" height="1" fill="#231f20"/>
    <rect x="45" y="67" width="1" height="1" fill="#231f20"/>
    <rect x="172" y="67" width="1" height="1" fill="#231f20"/>
    <rect x="0" y="68" width="1" height="1" fill="#231f20"/>
    <rect x="44" y="68" width="1" height="1" fill="#231f20"/>
    <rect x="172" y="68" width="1" height="1" fill="#231f20"/>
    <rect x="0" y="69" width="173" height="1" fill="#231f20"/>
  </g>
</svg>