<?xml version="1.0" encoding="UTF-8"?>
<svg xmlns="http://www.w3.org/2000/svg" viewBox="0 0 66 53" width="66" height="53">
  <!-- Auto-converted from legend-875.png -->
  <rect x="0" y="0" width="66" height="53" fill="none"/>
  <g fill="#322e2f" stroke="none">
    <rect x="0" y="0" width="66" height="1" fill="#322e2f"/>
    <rect x="0" y="1" width="1" height="1" fill="#322e2f"/>
    <rect x="65" y="1" width="1" height="1" fill="#322e2f"/>
    <rect x="0" y="2" width="1" height="1" fill="#322e2f"/>
    <rect x="65" y="2" width="1" height="1" fill="#322e2f"/>
    <rect x="0" y="3" width="1" height="1" fill="#322e2f"/>
    <rect x="65" y="3" width="1" height="1" fill="#322e2f"/>
    <rect x="0" y="4" width="1" height="1" fill="#322e2f"/>
    <rect x="65" y="4" width="1" height="1" fill="#322e2f"/>
    <rect x="0" y="5" width="1" height="1" fill="#322e2f"/>
    <rect x="65" y="5" width="1" height="1" fill="#322e2f"/>
    <rect x="0" y="6" width="1" height="1" fill="#322e2f"/>
    <rect x="65" y="6" width="1" height="1" fill="#322e2f"/>
    <rect x="0" y="7" width="1" height="1" fill="#322e2f"/>
    <rect x="65" y="7" width="1" height="1" fill="#322e2f"/>
    <rect x="0" y="8" width="1" height="1" fill="#322e2f"/>
    <rect x="65" y="8" width="1" height="1" fill="#322e2f"/>
    <rect x="0" y="9" width="1" height="1" fill="#322e2f"/>
    <rect x="65" y="9" width="1" height="1" fill="#322e2f"/>
    <rect x="0" y="10" width="1" height="1" fill="#322e2f"/>
    <rect x="65" y="10" width="1" height="1" fill="#322e2f"/>
    <rect x="0" y="11" width="1" height="1" fill="#322e2f"/>
    <rect x="65" y="11" width="1" height="1" fill="#322e2f"/>
    <rect x="0" y="12" width="1" height="1" fill="#322e2f"/>
    <rect x="65" y="12" width="1" height="1" fill="#322e2f"/>
    <rect x="0" y="13" width="1" height="1" fill="#322e2f"/>
    <rect x="65" y="13" width="1" height="1" fill="#322e2f"/>
    <rect x="0" y="14" width="1" height="1" fill="#322e2f"/>
    <rect x="30" y="14" width="6" height="1" fill="#322e2f"/>
    <rect x="65" y="14" width="1" height="1" fill="#322e2f"/>
    <rect x="0" y="15" width="1" height="1" fill="#322e2f"/>
    <rect x="28" y="15" width="10" height="1" fill="#322e2f"/>
    <rect x="65" y="15" width="1" height="1" fill="#322e2f"/>
    <rect x="0" y="16" width="1" height="1" fill="#322e2f"/>
    <rect x="27" y="16" width="12" height="1" fill="#322e2f"/>
    <rect x="65" y="16" width="1" height="1" fill="#322e2f"/>
    <rect x="0" y="17" width="1" height="1" fill="#322e2f"/>
    <rect x="26" y="17" width="13" height="1" fill="#322e2f"/>
    <rect x="65" y="17" width="1" height="1" fill="#322e2f"/>
    <rect x="0" y="18" width="1" height="1" fill="#322e2f"/>
    <rect x="26" y="18" width="4" height="1" fill="#322e2f"/>
    <rect x="36" y="18" width="4" height="1" fill="#322e2f"/>
    <rect x="65" y="18" width="1" height="1" fill="#322e2f"/>
    <rect x="0" y="19" width="1" height="1" fill="#322e2f"/>
    <rect x="25" y="19" width="4" height="1" fill="#322e2f"/>
    <rect x="36" y="19" width="5" height="1" fill="#322e2f"/>
    <rect x="65" y="19" width="1" height="1" fill="#322e2f"/>
    <rect x="0" y="20" width="1" height="1" fill="#322e2f"/>
    <rect x="25" y="20" width="4" height="1" fill="#322e2f"/>
    <rect x="37" y="20" width="4" height="1" fill="#322e2f"/>
    <rect x="65" y="20" width="1" height="1" fill="#322e2f"/>
    <rect x="0" y="21" width="1" height="1" fill="#322e2f"/>
    <rect x="25" y="21" width="4" height="1" fill="#322e2f"/>
    <rect x="37" y="21" width="4" height="1" fill="#322e2f"/>
    <rect x="65" y="21" width="1" height="1" fill="#322e2f"/>
    <rect x="0" y="22" width="1" height="1" fill="#322e2f"/>
    <rect x="25" y="22" width="4" height="1" fill="#322e2f"/>
    <rect x="38" y="22" width="3" height="1" fill="#322e2f"/>
    <rect x="65" y="22" width="1" height="1" fill="#322e2f"/>
    <rect x="0" y="23" width="1" height="1" fill="#322e2f"/>
    <rect x="25" y="23" width="4" height="1" fill="#322e2f"/>
    <rect x="38" y="23" width="3" height="1" fill="#322e2f"/>
    <rect x="65" y="23" width="1" height="1" fill="#322e2f"/>
    <rect x="0" y="24" width="1" height="1" fill="#322e2f"/>
    <rect x="25" y="24" width="3" height="1" fill="#322e2f"/>
    <rect x="38" y="24" width="4" height="1" fill="#322e2f"/>
    <rect x="65" y="24" width="1" height="1" fill="#322e2f"/>
    <rect x="0" y="25" width="1" height="1" fill="#322e2f"/>
    <rect x="38" y="25" width="4" height="1" fill="#322e2f"/>
    <rect x="65" y="25" width="1" height="1" fill="#322e2f"/>
    <rect x="0" y="26" width="1" height="1" fill="#322e2f"/>
    <rect x="38" y="26" width="4" height="1" fill="#322e2f"/>
    <rect x="65" y="26" width="1" height="1" fill="#322e2f"/>
    <rect x="0" y="27" width="1" height="1" fill="#322e2f"/>
    <rect x="38" y="27" width="4" height="1" fill="#322e2f"/>
    <rect x="65" y="27" width="1" height="1" fill="#322e2f"/>
    <rect x="0" y="28" width="1" height="1" fill="#322e2f"/>
    <rect x="38" y="28" width="3" height="1" fill="#322e2f"/>
    <rect x="65" y="28" width="1" height="1" fill="#322e2f"/>
    <rect x="0" y="29" width="1" height="1" fill="#322e2f"/>
    <rect x="38" y="29" width="3" height="1" fill="#322e2f"/>
    <rect x="65" y="29" width="1" height="1" fill="#322e2f"/>
    <rect x="0" y="30" width="1" height="1" fill="#322e2f"/>
    <rect x="25" y="30" width="4" height="1" fill="#322e2f"/>
    <rect x="38" y="30" width="3" height="1" fill="#322e2f"/>
    <rect x="65" y="30" width="1" height="1" fill="#322e2f"/>
    <rect x="0" y="31" width="1" height="1" fill="#322e2f"/>
    <rect x="25" y="31" width="4" height="1" fill="#322e2f"/>
    <rect x="37" y="31" width="4" height="1" fill="#322e2f"/>
    <rect x="65" y="31" width="1" height="1" fill="#322e2f"/>
    <rect x="0" y="32" width="1" height="1" fill="#322e2f"/>
    <rect x="25" y="32" width="4" height="1" fill="#322e2f"/>
    <rect x="37" y="32" width="4" height="1" fill="#322e2f"/>
    <rect x="65" y="32" width="1" height="1" fill="#322e2f"/>
    <rect x="0" y="33" width="1" height="1" fill="#322e2f"/>
    <rect x="25" y="33" width="4" height="1" fill="#322e2f"/>
    <rect x="37" y="33" width="3" height="1" fill="#322e2f"/>
    <rect x="65" y="33" width="1" height="1" fill="#322e2f"/>
    <rect x="0" y="34" width="1" height="1" fill="#322e2f"/>
    <rect x="26" y="34" width="4" height="1" fill="#322e2f"/>
    <rect x="36" y="34" width="4" height="1" fill="#322e2f"/>
    <rect x="65" y="34" width="1" height="1" fill="#322e2f"/>
    <rect x="0" y="35" width="1" height="1" fill="#322e2f"/>
    <rect x="26" y="35" width="5" height="1" fill="#322e2f"/>
    <rect x="34" y="35" width="5" height="1" fill="#322e2f"/>
    <rect x="65" y="35" width="1" height="1" fill="#322e2f"/>
    <rect x="0" y="36" width="1" height="1" fill="#322e2f"/>
    <rect x="27" y="36" width="12" height="1" fill="#322e2f"/>
    <rect x="65" y="36" width="1" height="1" fill="#322e2f"/>
    <rect x="0" y="37" width="1" height="1" fill="#322e2f"/>
    <rect x="27" y="37" width="11" height="1" fill="#322e2f"/>
    <rect x="65" y="37" width="1" height="1" fill="#322e2f"/>
    <rect x="0" y="38" width="1" height="1" fill="#322e2f"/>
    <rect x="29" y="38" width="7" height="1" fill="#322e2f"/>
    <rect x="65" y="38" width="1" height="1" fill="#322e2f"/>
    <rect x="0" y="39" width="1" height="1" fill="#322e2f"/>
    <rect x="32" y="39" width="1" height="1" fill="#322e2f"/>
    <rect x="65" y="39" width="1" height="1" fill="#322e2f"/>
    <rect x="0" y="40" width="1" height="1" fill="#322e2f"/>
    <rect x="65" y="40" width="1" height="1" fill="#322e2f"/>
    <rect x="0" y="41" width="1" height="1" fill="#322e2f"/>
    <rect x="65" y="41" width="1" height="1" fill="#322e2f"/>
    <rect x="0" y="42" width="1" height="1" fill="#322e2f"/>
    <rect x="65" y="42" width="1" height="1" fill="#322e2f"/>
    <rect x="0" y="43" width="1" height="1" fill="#322e2f"/>
    <rect x="65" y="43" width="1" height="1" fill="#322e2f"/>
    <rect x="0" y="44" width="1" height="1" fill="#322e2f"/>
    <rect x="65" y="44" width="1" height="1" fill="#322e2f"/>
    <rect x="0" y="45" width="1" height="1" fill="#322e2f"/>
    <rect x="65" y="45" width="1" height="1" fill="#322e2f"/>
    <rect x="0" y="46" width="1" height="1" fill="#322e2f"/>
    <rect x="65" y="46" width="1" height="1" fill="#322e2f"/>
    <rect x="0" y="47" width="1" height="1" fill="#322e2f"/>
    <rect x="65" y="47" width="1" height="1" fill="#322e2f"/>
    <rect x="0" y="48" width="1" height="1" fill="#322e2f"/>
    <rect x="65" y="48" width="1" height="1" fill="#322e2f"/>
    <rect x="0" y="49" width="1" height="1" fill="#322e2f"/>
    <rect x="65" y="49" width="1" height="1" fill="#322e2f"/>
    <rect x="0" y="50" width="1" height="1" fill="#322e2f"/>
    <rect x="65" y="50" width="1" height="1" fill="#322e2f"/>
    <rect x="0" y="51" width="1" height="1" fill="#322e2f"/>
    <rect x="65" y="51" width="1" height="1" fill="#322e2f"/>
    <rect x="0" y="52" width="66" height="1" fill="#322e2f"/>
  </g>
</svg>