<?xml version="1.0" encoding="UTF-8"?>
<svg xmlns="http://www.w3.org/2000/svg" viewBox="0 0 148 79" width="148" height="79">
  <!-- Auto-converted from legend-182.png -->
  <rect x="0" y="0" width="148" height="79" fill="none"/>
  <g fill="#282c21" stroke="none">
    <rect x="0" y="0" width="148" height="1" fill="#282c21"/>
    <rect x="0" y="1" width="1" height="1" fill="#282c21"/>
    <rect x="147" y="1" width="1" height="1" fill="#282c21"/>
    <rect x="0" y="2" width="1" height="1" fill="#282c21"/>
    <rect x="147" y="2" width="1" height="1" fill="#282c21"/>
    <rect x="0" y="3" width="1" height="1" fill="#282c21"/>
    <rect x="147" y="3" width="1" height="1" fill="#282c21"/>
    <rect x="0" y="4" width="1" height="1" fill="#282c21"/>
    <rect x="147" y="4" width="1" height="1" fill="#282c21"/>
    <rect x="0" y="5" width="1" height="1" fill="#282c21"/>
    <rect x="147" y="5" width="1" height="1" fill="#282c21"/>
    <rect x="0" y="6" width="1" height="1" fill="#282c21"/>
    <rect x="147" y="6" width="1" height="1" fill="#282c21"/>
    <rect x="0" y="7" width="1" height="1" fill="#282c21"/>
    <rect x="147" y="7" width="1" height="1" fill="#282c21"/>
    <rect x="0" y="8" width="1" height="1" fill="#282c21"/>
    <rect x="147" y="8" width="1" height="1" fill="#282c21"/>
    <rect x="0" y="9" width="1" height="1" fill="#282c21"/>
    <rect x="147" y="9" width="1" height="1" fill="#282c21"/>
    <rect x="0" y="10" width="1" height="1" fill="#282c21"/>
    <rect x="147" y="10" width="1" height="1" fill="#282c21"/>
    <rect x="0" y="11" width="1" height="1" fill="#282c21"/>
    <rect x="147" y="11" width="1" height="1" fill="#282c21"/>
    <rect x="0" y="12" width="1" height="1" fill="#282c21"/>
    <rect x="147" y="12" width="1" height="1" fill="#282c21"/>
    <rect x="0" y="13" width="1" height="1" fill="#282c21"/>
    <rect x="147" y="13" width="1" height="1" fill="#282c21"/>
    <rect x="0" y="14" width="1" height="1" fill="#282c21"/>
    <rect x="147" y="14" width="1" height="1" fill="#282c21"/>
    <rect x="0" y="15" width="1" height="1" fill="#282c21"/>
    <rect x="72" y="15" width="3" height="1" fill="#282c21"/>
    <rect x="147" y="15" width="1" height="1" fill="#282c21"/>
    <rect x="0" y="16" width="1" height="1" fill="#282c21"/>
    <rect x="72" y="16" width="4" height="1" fill="#282c21"/>
    <rect x="147" y="16" width="1" height="1" fill="#282c21"/>
    <rect x="0" y="17" width="1" height="1" fill="#282c21"/>
    <rect x="72" y="17" width="5" height="1" fill="#282c21"/>
    <rect x="147" y="17" width="1" height="1" fill="#282c21"/>
    <rect x="0" y="18" width="1" height="1" fill="#282c21"/>
    <rect x="71" y="18" width="7" height="1" fill="#282c21"/>
    <rect x="147" y="18" width="1" height="1" fill="#282c21"/>
    <rect x="0" y="19" width="1" height="1" fill="#282c21"/>
    <rect x="71" y="19" width="9" height="1" fill="#282c21"/>
    <rect x="147" y="19" width="1" height="1" fill="#282c21"/>
    <rect x="0" y="20" width="1" height="1" fill="#282c21"/>
    <rect x="70" y="20" width="11" height="1" fill="#282c21"/>
    <rect x="147" y="20" width="1" height="1" fill="#282c21"/>
    <rect x="0" y="21" width="1" height="1" fill="#282c21"/>
    <rect x="70" y="21" width="5" height="1" fill="#282c21"/>
    <rect x="76" y="21" width="6" height="1" fill="#282c21"/>
    <rect x="147" y="21" width="1" height="1" fill="#282c21"/>
    <rect x="0" y="22" width="1" height="1" fill="#282c21"/>
    <rect x="69" y="22" width="6" height="1" fill="#282c21"/>
    <rect x="78" y="22" width="5" height="1" fill="#282c21"/>
    <rect x="147" y="22" width="1" height="1" fill="#282c21"/>
    <rect x="0" y="23" width="1" height="1" fill="#282c21"/>
    <rect x="69" y="23" width="6" height="1" fill="#282c21"/>
    <rect x="79" y="23" width="5" height="1" fill="#282c21"/>
    <rect x="147" y="23" width="1" height="1" fill="#282c21"/>
    <rect x="0" y="24" width="1" height="1" fill="#282c21"/>
    <rect x="68" y="24" width="3" height="1" fill="#282c21"/>
    <rect x="72" y="24" width="3" height="1" fill="#282c21"/>
    <rect x="80" y="24" width="4" height="1" fill="#282c21"/>
    <rect x="147" y="24" width="1" height="1" fill="#282c21"/>
    <rect x="0" y="25" width="1" height="1" fill="#282c21"/>
    <rect x="68" y="25" width="3" height="1" fill="#282c21"/>
    <rect x="72" y="25" width="3" height="1" fill="#282c21"/>
    <rect x="81" y="25" width="3" height="1" fill="#282c21"/>
    <rect x="147" y="25" width="1" height="1" fill="#282c21"/>
    <rect x="0" y="26" width="1" height="1" fill="#282c21"/>
    <rect x="69" y="26" width="1" height="1" fill="#282c21"/>
    <rect x="72" y="26" width="3" height="1" fill="#282c21"/>
    <rect x="147" y="26" width="1" height="1" fill="#282c21"/>
    <rect x="0" y="27" width="1" height="1" fill="#282c21"/>
    <rect x="72" y="27" width="3" height="1" fill="#282c21"/>
    <rect x="147" y="27" width="1" height="1" fill="#282c21"/>
    <rect x="0" y="28" width="1" height="1" fill="#282c21"/>
    <rect x="72" y="28" width="4" height="1" fill="#282c21"/>
    <rect x="147" y="28" width="1" height="1" fill="#282c21"/>
    <rect x="0" y="29" width="1" height="1" fill="#282c21"/>
    <rect x="72" y="29" width="5" height="1" fill="#282c21"/>
    <rect x="147" y="29" width="1" height="1" fill="#282c21"/>
    <rect x="0" y="30" width="1" height="1" fill="#282c21"/>
    <rect x="71" y="30" width="7" height="1" fill="#282c21"/>
    <rect x="147" y="30" width="1" height="1" fill="#282c21"/>
    <rect x="0" y="31" width="1" height="1" fill="#282c21"/>
    <rect x="71" y="31" width="9" height="1" fill="#282c21"/>
    <rect x="147" y="31" width="1" height="1" fill="#282c21"/>
    <rect x="0" y="32" width="1" height="1" fill="#282c21"/>
    <rect x="70" y="32" width="11" height="1" fill="#282c21"/>
    <rect x="147" y="32" width="1" height="1" fill="#282c21"/>
    <rect x="0" y="33" width="1" height="1" fill="#282c21"/>
    <rect x="70" y="33" width="5" height="1" fill="#282c21"/>
    <rect x="76" y="33" width="6" height="1" fill="#282c21"/>
    <rect x="147" y="33" width="1" height="1" fill="#282c21"/>
    <rect x="0" y="34" width="1" height="1" fill="#282c21"/>
    <rect x="69" y="34" width="6" height="1" fill="#282c21"/>
    <rect x="78" y="34" width="5" height="1" fill="#282c21"/>
    <rect x="147" y="34" width="1" height="1" fill="#282c21"/>
    <rect x="0" y="35" width="1" height="1" fill="#282c21"/>
    <rect x="69" y="35" width="6" height="1" fill="#282c21"/>
    <rect x="79" y="35" width="5" height="1" fill="#282c21"/>
    <rect x="147" y="35" width="1" height="1" fill="#282c21"/>
    <rect x="0" y="36" width="1" height="1" fill="#282c21"/>
    <rect x="68" y="36" width="3" height="1" fill="#282c21"/>
    <rect x="72" y="36" width="3" height="1" fill="#282c21"/>
    <rect x="80" y="36" width="4" height="1" fill="#282c21"/>
    <rect x="147" y="36" width="1" height="1" fill="#282c21"/>
    <rect x="0" y="37" width="1" height="1" fill="#282c21"/>
    <rect x="69" y="37" width="1" height="1" fill="#282c21"/>
    <rect x="72" y="37" width="3" height="1" fill="#282c21"/>
    <rect x="81" y="37" width="3" height="1" fill="#282c21"/>
    <rect x="147" y="37" width="1" height="1" fill="#282c21"/>
    <rect x="0" y="38" width="1" height="1" fill="#282c21"/>
    <rect x="72" y="38" width="3" height="1" fill="#282c21"/>
    <rect x="147" y="38" width="1" height="1" fill="#282c21"/>
    <rect x="0" y="39" width="1" height="1" fill="#282c21"/>
    <rect x="72" y="39" width="4" height="1" fill="#282c21"/>
    <rect x="147" y="39" width="1" height="1" fill="#282c21"/>
    <rect x="0" y="40" width="1" height="1" fill="#282c21"/>
    <rect x="72" y="40" width="5" height="1" fill="#282c21"/>
    <rect x="147" y="40" width="1" height="1" fill="#282c21"/>
    <rect x="0" y="41" width="1" height="1" fill="#282c21"/>
    <rect x="71" y="41" width="7" height="1" fill="#282c21"/>
    <rect x="147" y="41" width="1" height="1" fill="#282c21"/>
    <rect x="0" y="42" width="1" height="1" fill="#282c21"/>
    <rect x="71" y="42" width="9" height="1" fill="#282c21"/>
    <rect x="147" y="42" width="1" height="1" fill="#282c21"/>
    <rect x="0" y="43" width="1" height="1" fill="#282c21"/>
    <rect x="70" y="43" width="11" height="1" fill="#282c21"/>
    <rect x="147" y="43" width="1" height="1" fill="#282c21"/>
    <rect x="0" y="44" width="1" height="1" fill="#282c21"/>
    <rect x="70" y="44" width="5" height="1" fill="#282c21"/>
    <rect x="76" y="44" width="6" height="1" fill="#282c21"/>
    <rect x="147" y="44" width="1" height="1" fill="#282c21"/>
    <rect x="0" y="45" width="1" height="1" fill="#282c21"/>
    <rect x="69" y="45" width="6" height="1" fill="#282c21"/>
    <rect x="78" y="45" width="5" height="1" fill="#282c21"/>
    <rect x="147" y="45" width="1" height="1" fill="#282c21"/>
    <rect x="0" y="46" width="1" height="1" fill="#282c21"/>
    <rect x="69" y="46" width="6" height="1" fill="#282c21"/>
    <rect x="79" y="46" width="5" height="1" fill="#282c21"/>
    <rect x="147" y="46" width="1" height="1" fill="#282c21"/>
    <rect x="0" y="47" width="1" height="1" fill="#282c21"/>
    <rect x="68" y="47" width="3" height="1" fill="#282c21"/>
    <rect x="72" y="47" width="3" height="1" fill="#282c21"/>
    <rect x="80" y="47" width="4" height="1" fill="#282c21"/>
    <rect x="147" y="47" width="1" height="1" fill="#282c21"/>
    <rect x="0" y="48" width="1" height="1" fill="#282c21"/>
    <rect x="69" y="48" width="1" height="1" fill="#282c21"/>
    <rect x="72" y="48" width="3" height="1" fill="#282c21"/>
    <rect x="81" y="48" width="3" height="1" fill="#282c21"/>
    <rect x="147" y="48" width="1" height="1" fill="#282c21"/>
    <rect x="0" y="49" width="1" height="1" fill="#282c21"/>
    <rect x="72" y="49" width="3" height="1" fill="#282c21"/>
    <rect x="147" y="49" width="1" height="1" fill="#282c21"/>
    <rect x="0" y="50" width="1" height="1" fill="#282c21"/>
    <rect x="72" y="50" width="3" height="1" fill="#282c21"/>
    <rect x="147" y="50" width="1" height="1" fill="#282c21"/>
    <rect x="0" y="51" width="1" height="1" fill="#282c21"/>
    <rect x="72" y="51" width="3" height="1" fill="#282c21"/>
    <rect x="147" y="51" width="1" height="1" fill="#282c21"/>
    <rect x="0" y="52" width="1" height="1" fill="#282c21"/>
    <rect x="72" y="52" width="3" height="1" fill="#282c21"/>
    <rect x="147" y="52" width="1" height="1" fill="#282c21"/>
    <rect x="0" y="53" width="1" height="1" fill="#282c21"/>
    <rect x="72" y="53" width="3" height="1" fill="#282c21"/>
    <rect x="147" y="53" width="1" height="1" fill="#282c21"/>
    <rect x="0" y="54" width="1" height="1" fill="#282c21"/>
    <rect x="72" y="54" width="3" height="1" fill="#282c21"/>
    <rect x="147" y="54" width="1" height="1" fill="#282c21"/>
    <rect x="0" y="55" width="1" height="1" fill="#282c21"/>
    <rect x="72" y="55" width="3" height="1" fill="#282c21"/>
    <rect x="147" y="55" width="1" height="1" fill="#282c21"/>
    <rect x="0" y="56" width="1" height="1" fill="#282c21"/>
    <rect x="72" y="56" width="3" height="1" fill="#282c21"/>
    <rect x="147" y="56" width="1" height="1" fill="#282c21"/>
    <rect x="0" y="57" width="1" height="1" fill="#282c21"/>
    <rect x="72" y="57" width="3" height="1" fill="#282c21"/>
    <rect x="147" y="57" width="1" height="1" fill="#282c21"/>
    <rect x="0" y="58" width="1" height="1" fill="#282c21"/>
    <rect x="72" y="58" width="3" height="1" fill="#282c21"/>
    <rect x="147" y="58" width="1" height="1" fill="#282c21"/>
    <rect x="0" y="59" width="1" height="1" fill="#282c21"/>
    <rect x="72" y="59" width="3" height="1" fill="#282c21"/>
    <rect x="147" y="59" width="1" height="1" fill="#282c21"/>
    <rect x="0" y="60" width="1" height="1" fill="#282c21"/>
    <rect x="72" y="60" width="3" height="1" fill="#282c21"/>
    <rect x="147" y="60" width="1" height="1" fill="#282c21"/>
    <rect x="0" y="61" width="1" height="1" fill="#282c21"/>
    <rect x="72" y="61" width="4" height="1" fill="#282c21"/>
    <rect x="147" y="61" width="1" height="1" fill="#282c21"/>
    <rect x="0" y="62" width="1" height="1" fill="#282c21"/>
    <rect x="72" y="62" width="5" height="1" fill="#282c21"/>
    <rect x="147" y="62" width="1" height="1" fill="#282c21"/>
    <rect x="0" y="63" width="1" height="1" fill="#282c21"/>
    <rect x="73" y="63" width="3" height="1" fill="#282c21"/>
    <rect x="147" y="63" width="1" height="1" fill="#282c21"/>
    <rect x="0" y="64" width="1" height="1" fill="#282c21"/>
    <rect x="147" y="64" width="1" height="1" fill="#282c21"/>
    <rect x="0" y="65" width="1" height="1" fill="#282c21"/>
    <rect x="147" y="65" width="1" height="1" fill="#282c21"/>
    <rect x="0" y="66" width="1" height="1" fill="#282c21"/>
    <rect x="147" y="66" width="1" height="1" fill="#282c21"/>
    <rect x="0" y="67" width="1" height="1" fill="#282c21"/>
    <rect x="147" y="67" width="1" height="1" fill="#282c21"/>
    <rect x="0" y="68" width="1" height="1" fill="#282c21"/>
    <rect x="147" y="68" width="1" height="1" fill="#282c21"/>
    <rect x="0" y="69" width="1" height="1" fill="#282c21"/>
    <rect x="147" y="69" width="1" height="1" fill="#282c21"/>
    <rect x="0" y="70" width="1" height="1" fill="#282c21"/>
    <rect x="147" y="70" width="1" height="1" fill="#282c21"/>
    <rect x="0" y="71" width="1" height="1" fill="#282c21"/>
    <rect x="147" y="71" width="1" height="1" fill="#282c21"/>
    <rect x="0" y="72" width="1" height="1" fill="#282c21"/>
    <rect x="147" y="72" width="1" height="1" fill="#282c21"/>
    <rect x="0" y="73" width="1" height="1" fill="#282c21"/>
    <rect x="147" y="73" width="1" height="1" fill="#282c21"/>
    <rect x="0" y="74" width="1" height="1" fill="#282c21"/>
    <rect x="147" y="74" width="1" height="1" fill="#282c21"/>
    <rect x="0" y="75" width="1" height="1" fill="#282c21"/>
    <rect x="147" y="75" width="1" height="1" fill="#282c21"/>
    <rect x="0" y="76" width="1" height="1" fill="#282c21"/>
    <rect x="147" y="76" width="1" height="1" fill="#282c21"/>
    <rect x="0" y="77" width="1" height="1" fill="#282c21"/>
    <rect x="147" y="77" width="1" height="1" fill="#282c21"/>
    <rect x="0" y="78" width="148" height="1" fill="#282c21"/>
  </g>
</svg>